<?xml version="1.0" encoding="utf-8"?>
<!-- Generator: Adobe Illustrator 24.1.2, SVG Export Plug-In . SVG Version: 6.00 Build 0)  -->
<svg version="1.0" id="Layer_1" xmlns="http://www.w3.org/2000/svg" xmlns:xlink="http://www.w3.org/1999/xlink" x="0px" y="0px" width="2000px" height="2000px" viewBox="0 0 2000 2000" style="enable-background:new 0 0 2000 2000;" xml:space="preserve">
<path id="background" style="fill:#FFFFFF;" d="M1456.79,298.14v52.34v1436.97v52.26v0.08v59.48h-199.11c0,0.4-0.33,0.73-0.73,0.73
	h-523.4c-0.4,0-0.73-0.33-0.73-0.73h-189.6v-59.56v-52.26V350.48v-52.34h159.4v15.92h13.55c0.19-56.22,21.91-109.28,61.24-149.49
	c39.5-40.38,92.35-63.32,148.82-64.57c0,0,0.01,0,0.01,0c0,0,0,0,0.01,0c0.03,0,0.05,0.01,0.07,0.01c0.07,0.01,0.14,0.01,0.21,0.04
	c0.01,0,0.02,0.01,0.03,0.02c0.07,0.04,0.14,0.08,0.2,0.13c0.03,0.03,0.05,0.07,0.07,0.1c0.03,0.04,0.06,0.08,0.08,0.12
	c0.02,0.05,0.02,0.1,0.03,0.15c0.01,0.04,0.03,0.08,0.03,0.13c0,0,0,0.01,0,0.01c0,0,0,0.01,0,0.01v213.33h13.54v-15.92H1456.79z"></path>
<g id="h1">
	<path id="h1_path" style="fill:none;" d="M984.36,771.58H572.19l0-437.75h412.17L984.36,771.58z"></path>
	<text id="h1_text" transform="matrix(1 0 0 1 809.1154 669.2502)" style="font-family: GraphikLCG-Regular; font-size: 40px; text-anchor: middle; text-align: center;"></text>
</g>
<g id="c1">
	<path id="c1_path" style="fill:none;" d="M572.19,771.58h856.47l0,366.38H572.19L572.19,771.58z"></path>
	<text id="c1_text" transform="matrix(1 0 0 1 854.964 1053.1814)" style="font-family: GraphikLCG-Regular; font-size: 40px; text-anchor: middle; text-align: center;"></text>
</g>
<g id="s1">
	<path id="s1_path" style="fill:none;" d="M984.36,333.83h444.3l0,437.75H984.37l0-437.75H984.36z"></path>
	<text id="s1_text" transform="matrix(1 0 0 1 1114.407 497.0608)" style="font-family: GraphikLCG-Regular; font-size: 40px; text-anchor: middle; text-align: center;"></text>
</g>
<g id="r1">
	<path id="r1_path" style="fill:none;" d="M572.19,1137.96h856.47v761.31H572.19V1137.96z"></path>
	<text id="r1_text" transform="matrix(1 0 0 1 854.964 1417.4048)" style="font-family: GraphikLCG-Regular; font-size: 40px; text-anchor: middle; text-align: center;"></text>
</g>
<g id="mebel">
	<g>
		<g>
			
				<rect x="608.72" y="1368.61" transform="matrix(-1 -4.501878e-11 4.501878e-11 -1 1229.2722 2979.1753)" style="fill:none;stroke:#000000;stroke-linecap:round;stroke-linejoin:round;stroke-miterlimit:10;" width="11.84" height="241.96"></rect>
			<polygon style="fill:none;stroke:#000000;stroke-linecap:round;stroke-linejoin:round;stroke-miterlimit:10;" points="
				596.88,1580.32 608.72,1610.57 608.72,1368.61 596.88,1398.85 			"></polygon>
		</g>
		
			<rect x="596.88" y="1308.12" transform="matrix(-1 -4.489532e-11 4.489532e-11 -1 1286.7411 2979.1753)" style="fill:none;stroke:#000000;stroke-linecap:round;stroke-linejoin:round;stroke-miterlimit:10;" width="92.99" height="362.94"></rect>
	</g>
	<g>
		<polygon style="fill:none;stroke:#000000;stroke-linecap:round;stroke-linejoin:round;stroke-miterlimit:10;" points="
			740.24,785.77 600.6,785.77 600.6,925.4 740.24,925.42 		"></polygon>
		<g>
			
				<line style="fill:none;stroke:#000000;stroke-linecap:round;stroke-linejoin:round;stroke-miterlimit:10;" x1="670.42" y1="889.78" x2="670.42" y2="821.41"></line>
			
				<line style="fill:none;stroke:#000000;stroke-linecap:round;stroke-linejoin:round;stroke-miterlimit:10;" x1="704.61" y1="855.59" x2="636.23" y2="855.59"></line>
			<polyline style="fill:none;stroke:#000000;stroke-linecap:round;stroke-linejoin:round;stroke-miterlimit:10;" points="
				687.51,882.18 670.42,872.69 653.33,882.18 			"></polyline>
			<polyline style="fill:none;stroke:#000000;stroke-linecap:round;stroke-linejoin:round;stroke-miterlimit:10;" points="
				643.83,872.69 653.33,855.59 643.83,838.5 			"></polyline>
			<polyline style="fill:none;stroke:#000000;stroke-linecap:round;stroke-linejoin:round;stroke-miterlimit:10;" points="
				653.33,829 670.42,838.5 687.51,829 			"></polyline>
			<polyline style="fill:none;stroke:#000000;stroke-linecap:round;stroke-linejoin:round;stroke-miterlimit:10;" points="
				697.01,838.5 687.51,855.59 697.01,872.69 			"></polyline>
		</g>
	</g>
	<g>
		<path style="fill:none;stroke:#000000;stroke-linecap:round;stroke-linejoin:round;stroke-miterlimit:10;" d="M1351.04,1491.93
			v229.24c0,3.16-2.56,5.73-5.73,5.73h-148.06c-3.16,0-5.73-2.56-5.73-5.73v-229.24c0-3.16,2.56-5.73,5.73-5.73h148.06
			C1348.48,1486.2,1351.04,1488.77,1351.04,1491.93z"></path>
		<path style="fill:none;stroke:#000000;stroke-linecap:round;stroke-linejoin:round;stroke-miterlimit:10;" d="M1351.04,1491.93
			v229.24c0,3.16,2.56,5.73,5.73,5.73h38.69c3.16,0,5.73-2.56,5.73-5.73v-229.24c0-3.16-2.56-5.73-5.73-5.73h-38.69
			C1353.61,1486.2,1351.04,1488.77,1351.04,1491.93z"></path>
		<path style="fill:none;stroke:#000000;stroke-linecap:round;stroke-linejoin:round;stroke-miterlimit:10;" d="M1351.04,1480.48
			v-229.24c0-3.16-2.56-5.73-5.73-5.73h-148.06c-3.16,0-5.73,2.56-5.73,5.73v229.24c0,3.16,2.56,5.73,5.73,5.73h148.06
			C1348.48,1486.2,1351.04,1483.64,1351.04,1480.48z"></path>
		<path style="fill:none;stroke:#000000;stroke-linecap:round;stroke-linejoin:round;stroke-miterlimit:10;" d="M1351.04,1480.48
			v-229.24c0-3.16,2.56-5.73,5.73-5.73h38.69c3.16,0,5.73,2.56,5.73,5.73v229.24c0,3.16-2.56,5.73-5.73,5.73h-38.69
			C1353.61,1486.2,1351.04,1483.64,1351.04,1480.48z"></path>
	</g>
	<g>
		<g>
			<g>
				<g>
					<path style="fill:none;stroke:#000000;stroke-linecap:round;stroke-linejoin:round;stroke-miterlimit:10;" d="M1215.01,974.04
						c-11.31,0-21.9,3.06-30.99,8.39s-16.67,12.93-21.96,22c-0.96,1.65-1.08,3.52-0.53,5.17s1.79,3.09,3.54,3.87
						c0.02,0.01,0.04,0.02,0.06,0.03c0.02,0.01,0.04,0.02,0.06,0.03c1.45,0.65,3.04,0.67,4.46,0.19c1.42-0.48,2.67-1.46,3.47-2.84
						c4.16-7.19,10.15-13.21,17.35-17.44s15.58-6.65,24.55-6.65c8.96,0,17.35,2.42,24.55,6.65c7.19,4.22,13.18,10.24,17.35,17.44
						c0.79,1.37,2.05,2.36,3.47,2.84c1.42,0.48,3,0.46,4.46-0.19c0.02-0.01,0.04-0.02,0.06-0.03c0.02-0.01,0.04-0.02,0.06-0.03
						c1.75-0.78,2.99-2.22,3.54-3.87c0.56-1.65,0.44-3.52-0.53-5.17c-5.29-9.08-12.87-16.67-21.96-22
						C1236.91,977.1,1226.32,974.04,1215.01,974.04z"></path>
				</g>
			</g>
		</g>
		<g>
			<g>
				<g>
					<path style="fill:none;stroke:#000000;stroke-linecap:round;stroke-linejoin:round;stroke-miterlimit:10;" d="M1062.32,974.04
						c-11.31,0-21.9,3.06-30.99,8.39s-16.67,12.93-21.96,22c-0.96,1.65-1.08,3.52-0.53,5.17s1.79,3.09,3.54,3.87
						c0.02,0.01,0.04,0.02,0.06,0.03c0.02,0.01,0.04,0.02,0.06,0.03c1.45,0.65,3.04,0.67,4.46,0.19c1.42-0.48,2.67-1.46,3.47-2.84
						c4.16-7.19,10.15-13.21,17.35-17.44s15.58-6.65,24.55-6.65c8.96,0,17.35,2.42,24.55,6.65c7.19,4.22,13.18,10.24,17.35,17.44
						c0.79,1.37,2.05,2.36,3.47,2.84c1.42,0.48,3,0.46,4.46-0.19c0.02-0.01,0.04-0.02,0.06-0.03s0.04-0.02,0.06-0.03
						c1.75-0.78,2.99-2.22,3.54-3.87s0.44-3.52-0.53-5.17c-5.29-9.08-12.87-16.67-21.96-22
						C1084.21,977.1,1073.62,974.04,1062.32,974.04z"></path>
				</g>
			</g>
		</g>
		<path style="fill:none;stroke:#000000;stroke-linecap:round;stroke-linejoin:round;stroke-miterlimit:10;" d="M1173.76,1059.58
			c-4.46-7.25-7.03-15.78-7.03-24.89c0-26.45,21.62-47.89,48.28-47.89c26.67,0,48.28,21.44,48.28,47.89
			c0,9.11-2.57,17.63-7.02,24.89L1173.76,1059.58z"></path>
		<path style="fill:none;stroke:#000000;stroke-linecap:round;stroke-linejoin:round;stroke-miterlimit:10;" d="M1262.4,1014.05
			c4.93,0,7.94-5.3,5.5-9.54c-10.48-18.2-30.24-30.46-52.88-30.46s-42.4,12.27-52.88,30.46c-2.44,4.24,0.57,9.54,5.5,9.54l0,0
			c2.34,0,4.4-1.33,5.58-3.34c8.35-14.3,23.95-23.91,41.81-23.91s33.45,9.62,41.81,23.91
			C1257.99,1012.72,1260.05,1014.05,1262.4,1014.05L1262.4,1014.05z"></path>
		<path style="fill:none;stroke:#000000;stroke-linecap:round;stroke-linejoin:round;stroke-miterlimit:10;" d="M1021.06,1059.58
			c-4.46-7.25-7.03-15.78-7.03-24.89c0-26.45,21.62-47.89,48.28-47.89c26.67,0,48.28,21.44,48.28,47.89
			c0,9.11-2.57,17.63-7.02,24.89L1021.06,1059.58z"></path>
		<path style="fill:none;stroke:#000000;stroke-linecap:round;stroke-linejoin:round;stroke-miterlimit:10;" d="M1109.7,1014.05
			c4.93,0,7.94-5.3,5.5-9.54c-10.48-18.2-30.24-30.46-52.88-30.46s-42.4,12.27-52.88,30.46c-2.44,4.24,0.57,9.54,5.5,9.54h0
			c2.34,0,4.4-1.33,5.58-3.34c8.35-14.3,23.95-23.91,41.81-23.91c17.86,0,33.45,9.62,41.81,23.91
			C1105.3,1012.72,1107.36,1014.05,1109.7,1014.05L1109.7,1014.05z"></path>
		
			<line style="fill:none;stroke:#000000;stroke-linecap:round;stroke-linejoin:round;stroke-miterlimit:10;" x1="1173.75" y1="1059.57" x2="1256.27" y2="1059.57"></line>
		<polyline style="fill:none;stroke:#000000;stroke-linecap:round;stroke-linejoin:round;stroke-miterlimit:10;" points="
			1256.27,1059.57 1409.16,1059.57 1409.16,1168.98 969.1,1168.98 969.1,1059.57 1173.75,1059.57 		"></polyline>
	</g>
	<g>
		
			<rect x="599.38" y="616.64" transform="matrix(-4.489583e-11 1 -1 -4.489583e-11 1356.8796 17.1186)" style="fill:none;stroke:#000000;stroke-linecap:round;stroke-linejoin:round;stroke-miterlimit:10;" width="141" height="140.73"></rect>
		
			<line style="fill:none;stroke:#000000;stroke-linecap:round;stroke-linejoin:round;stroke-miterlimit:10;" x1="734.64" y1="616.5" x2="734.64" y2="757.5"></line>
	</g>
	<g>
		
			<rect x="562.37" y="960.27" transform="matrix(-4.489938e-11 1 -1 -4.489938e-11 1700.3333 363.3441)" style="fill:none;stroke:#000000;stroke-linecap:round;stroke-linejoin:round;stroke-miterlimit:10;" width="212.24" height="143.13"></rect>
		
			<line style="fill:none;stroke:#000000;stroke-linecap:round;stroke-linejoin:round;stroke-miterlimit:10;" x1="734.04" y1="925.72" x2="734.04" y2="1137.96"></line>
	</g>
	<g>
		
			<rect x="522.32" y="446.41" transform="matrix(-4.489494e-11 1 -1 -4.489494e-11 1138.8257 -152.1646)" style="fill:none;stroke:#000000;stroke-linecap:round;stroke-linejoin:round;stroke-miterlimit:10;" width="246.34" height="93.84"></rect>
		
			<line style="fill:none;stroke:#000000;stroke-linecap:round;stroke-linejoin:round;stroke-miterlimit:10;" x1="686.81" y1="370.16" x2="686.81" y2="616.5"></line>
	</g>
	
		<rect x="968.25" y="785.86" transform="matrix(-1 -4.489621e-11 4.489621e-11 -1 2017.5802 1712.019)" style="fill:none;stroke:#000000;stroke-linecap:round;stroke-linejoin:round;stroke-miterlimit:10;" width="81.07" height="140.31"></rect>
	<g>
		<g>
			<path style="fill:none;stroke:#000000;stroke-linecap:round;stroke-miterlimit:10;" d="M1327.19,1361.24
				c-0.12-0.13-0.25-0.26-0.39-0.38c-7.66-6.26-14.86-13.16-21.43-20.53s-12.61-15.31-17.94-23.62c-0.11-0.17-0.22-0.32-0.34-0.45
				c-0.63-0.71-1.56-1.11-2.53-1.09c-0.56,0.01-1.61,0.18-2.45,1.17l-0.05,0.06c-12.57,15.38-27.42,28.62-44.13,39.36l-0.09,0.06
				c-1.05,0.72-1.34,1.73-1.41,2.28c-0.13,0.97,0.16,1.93,0.79,2.64c0.12,0.13,0.25,0.26,0.39,0.38
				c7.66,6.26,14.86,13.16,21.43,20.53s12.61,15.31,17.94,23.62c0.11,0.17,0.22,0.31,0.34,0.45c0.63,0.71,1.56,1.11,2.53,1.09
				c0.56-0.01,1.61-0.18,2.44-1.17l0.05-0.06c12.57-15.38,27.42-28.62,44.13-39.36l0.09-0.06c1.05-0.72,1.34-1.73,1.41-2.28
				C1328.11,1362.92,1327.82,1361.95,1327.19,1361.24z"></path>
		</g>
		<path style="fill:none;stroke:#000000;stroke-linecap:round;stroke-miterlimit:10;" d="M1282.05,1316.42l0.05-0.06
			c0.84-0.99,1.89-1.15,2.45-1.17c0.98-0.02,1.9,0.38,2.53,1.09c0.12,0.13,0.23,0.28,0.34,0.45c4.69,7.31,10.01,14.26,15.67,20.86
			c7.31-2.8,14.74-5.27,22.38-7.15l0.08-0.02c1.25-0.33,1.85-1.21,2.1-1.71c0.44-0.87,0.48-1.88,0.11-2.76
			c-0.07-0.16-0.15-0.33-0.26-0.5c-5.21-8.39-9.79-17.25-13.62-26.35c-3.83-9.1-6.97-18.57-9.33-28.17
			c-0.04-0.18-0.1-0.35-0.17-0.51c-0.37-0.88-1.12-1.55-2.05-1.85c-0.53-0.17-1.57-0.35-2.67,0.3l-0.09,0.06
			c-16.88,10.48-35.21,18.2-54.5,22.95l-0.08,0.02c-1.25,0.33-1.85,1.21-2.1,1.71c-0.44,0.87-0.48,1.88-0.11,2.75
			c0.07,0.16,0.15,0.33,0.26,0.5c5.21,8.39,9.79,17.25,13.62,26.35c1.96,4.65,3.72,9.41,5.31,14.22
			C1269.18,1330.96,1275.9,1323.95,1282.05,1316.42z"></path>
		<path style="fill:none;stroke:#000000;stroke-linecap:round;stroke-miterlimit:10;" d="M1282.05,1316.42l0.05-0.06
			c0.84-0.99,1.89-1.15,2.45-1.17c0.98-0.02,1.9,0.38,2.53,1.09c0.12,0.13,0.23,0.28,0.34,0.45c5.34,8.31,11.37,16.25,17.94,23.62
			c0.18,0.2,0.39,0.39,0.57,0.59c6.72-2.51,13.54-4.77,20.52-6.49l0.02,0c4.91-1.21,7.21-6.85,4.54-11.15l-0.01-0.02
			c-10.24-16.48-17.81-34.47-22.44-53.31l0-0.02c-1.21-4.91-6.85-7.21-11.15-4.54l-0.02,0.01c-16.48,10.24-34.47,17.81-53.31,22.44
			l-0.02,0c-4.91,1.21-7.21,6.85-4.54,11.15l0.01,0.02c8.03,12.94,14.36,26.82,18.98,41.3
			C1267.02,1333.06,1274.94,1325.12,1282.05,1316.42z"></path>
	</g>
	<g>
		<g>
			<path style="fill:none;stroke:#000000;stroke-linecap:round;stroke-miterlimit:10;" d="M1325.12,1599
				c-0.12,0.13-0.25,0.26-0.39,0.38c-7.66,6.26-14.86,13.16-21.43,20.53s-12.61,15.31-17.94,23.62c-0.11,0.17-0.22,0.32-0.34,0.45
				c-0.63,0.71-1.56,1.11-2.53,1.09c-0.56-0.01-1.61-0.18-2.45-1.17l-0.05-0.06c-12.57-15.38-27.42-28.62-44.13-39.36l-0.09-0.06
				c-1.05-0.72-1.34-1.73-1.41-2.28c-0.13-0.97,0.16-1.93,0.79-2.64c0.12-0.13,0.25-0.26,0.39-0.38
				c7.66-6.26,14.86-13.16,21.43-20.53s12.61-15.31,17.94-23.62c0.11-0.17,0.22-0.31,0.34-0.45c0.63-0.71,1.56-1.11,2.53-1.09
				c0.56,0.01,1.61,0.18,2.44,1.17l0.05,0.06c12.57,15.38,27.42,28.62,44.13,39.36l0.09,0.06c1.05,0.72,1.34,1.73,1.41,2.28
				C1326.04,1597.33,1325.76,1598.29,1325.12,1599z"></path>
		</g>
		<path style="fill:none;stroke:#000000;stroke-linecap:round;stroke-miterlimit:10;" d="M1279.99,1643.83l0.05,0.06
			c0.84,0.99,1.89,1.15,2.45,1.17c0.98,0.02,1.9-0.38,2.53-1.09c0.12-0.13,0.23-0.28,0.34-0.45c4.69-7.31,10.01-14.26,15.67-20.86
			c7.31,2.8,14.74,5.27,22.38,7.15l0.08,0.02c1.25,0.33,1.85,1.21,2.1,1.71c0.44,0.87,0.48,1.88,0.11,2.76
			c-0.07,0.16-0.15,0.33-0.26,0.5c-5.21,8.39-9.79,17.25-13.62,26.35c-3.83,9.1-6.97,18.57-9.33,28.17
			c-0.04,0.18-0.1,0.35-0.17,0.51c-0.37,0.88-1.12,1.55-2.05,1.85c-0.53,0.17-1.57,0.35-2.67-0.3l-0.09-0.06
			c-16.88-10.48-35.21-18.2-54.5-22.95l-0.08-0.02c-1.25-0.33-1.85-1.21-2.11-1.71c-0.44-0.87-0.48-1.88-0.11-2.75
			c0.07-0.16,0.15-0.33,0.26-0.5c5.21-8.39,9.79-17.25,13.62-26.35c1.96-4.65,3.72-9.41,5.31-14.22
			C1267.11,1629.29,1273.83,1636.3,1279.99,1643.83z"></path>
		<path style="fill:none;stroke:#000000;stroke-linecap:round;stroke-miterlimit:10;" d="M1279.99,1643.83l0.05,0.06
			c0.84,0.99,1.89,1.15,2.45,1.17c0.98,0.02,1.9-0.38,2.53-1.09c0.12-0.13,0.23-0.28,0.34-0.45c5.34-8.31,11.37-16.25,17.94-23.62
			c0.18-0.2,0.39-0.39,0.57-0.59c6.72,2.51,13.54,4.77,20.52,6.49l0.02,0c4.91,1.21,7.21,6.85,4.54,11.15l-0.01,0.02
			c-10.24,16.48-17.81,34.47-22.44,53.31l0,0.02c-1.21,4.91-6.85,7.21-11.15,4.54l-0.02-0.01c-16.48-10.24-34.47-17.81-53.31-22.44
			l-0.02,0c-4.91-1.21-7.21-6.85-4.54-11.15l0.01-0.02c8.03-12.94,14.36-26.82,18.98-41.3
			C1264.95,1627.19,1272.87,1635.12,1279.99,1643.83z"></path>
	</g>
	<g>
		<path style="fill:none;stroke:#000000;stroke-linecap:round;stroke-miterlimit:10;" d="M929.36,1588.08
			c-0.6,1.45-0.96,2.98-1.15,4.53c-1.41,11.63,6.02,22.92,17.22,26.36c5.81,1.78,11.15,1.45,14.22,0.99
			c1.59-0.24,3.12-0.78,4.52-1.57l0,0c1.42-0.79,2.69-1.82,3.75-3.06c2.06-2.43,5.22-6.92,6.71-12.98
			c2.77-11.21-2.91-23.15-13.36-28.06c-1.28-0.6-2.62-1.07-4-1.35"></path>
		<path style="fill:none;stroke:#000000;stroke-linecap:round;stroke-miterlimit:10;" d="M962.37,1619.4
			c7.81,21.85,30.97,34.14,53.16,28.9c2.2-0.52,3.61-2.66,3.24-4.88c-0.4-2.4-2.71-4-5.09-3.5c-18.67,3.95-38.08-6.24-47.01-23.36"></path>
		<path style="fill:none;stroke:#000000;stroke-linecap:round;stroke-miterlimit:10;" d="M926.29,1574.28
			c4.01,2.78,9.41,3.22,13.96,0.69c4.51-2.51,6.97-7.28,6.77-12.11"></path>
		<path style="fill:none;stroke:#000000;stroke-linecap:round;stroke-miterlimit:10;" d="M944.04,1555.05
			c-2.81-3.43-7.13-5.15-11.43-4.76c-1.77-1.44-4.31-1.75-6.42-0.57c-2.12,1.18-3.19,3.5-2.89,5.76c-2.57,3.41-3.38,7.92-2.01,12.08
			"></path>
		<path style="fill:none;stroke:#000000;stroke-linecap:round;stroke-miterlimit:10;" d="M923.58,1565.48
			C923.1,1565.87,923.58,1565.48,923.58,1565.48c-3.02,2.78-5.57,6.83-6.16,7.99c-0.29,0.57-0.05,1.34,0.59,1.4
			c3.8,0.4,11.4-1.18,11.96-1.4c0.56-0.22,2.27-0.96,1.27-3.59"></path>
		<path style="fill:none;stroke:#000000;stroke-linecap:round;stroke-miterlimit:10;" d="M944.13,1565.42
			c2.63-2.19,6.19-6.04,7.85-9.48c0.28-0.58-0.25-1.18-0.89-1.24c-1.3-0.11-6.09-0.07-10.04,1.04l0,0"></path>
		
			<line style="fill:none;stroke:#000000;stroke-linecap:round;stroke-miterlimit:10;" x1="924.52" y1="1559.92" x2="926.1" y2="1555.95"></line>
		
			<line style="fill:none;stroke:#000000;stroke-linecap:round;stroke-miterlimit:10;" x1="935.09" y1="1554.06" x2="931.27" y2="1552.62"></line>
		<polygon style="fill:none;stroke:#000000;stroke-linecap:round;stroke-miterlimit:10;" points="926.08,1552.71 928.91,1551.13 
			926.54,1550.26 		"></polygon>
		<path style="fill:none;stroke:#000000;stroke-linecap:round;stroke-miterlimit:10;" d="M917.41,1573.47c0,0,6.8-3.32,10.26-6.56"></path>
		<path style="fill:none;stroke:#000000;stroke-linecap:round;stroke-miterlimit:10;" d="M951.85,1555.05
			c-3.34,3.02-10.29,5.04-10.29,5.04s-0.95-0.41-1.02-1.83"></path>
		<g>
			<path style="fill:none;stroke:#000000;stroke-linecap:round;stroke-miterlimit:10;" d="M955.09,1587.47
				c3.5-4.91,4.13-11.56,1-17.17c-2.06-3.7-5.38-6.23-9.12-7.44"></path>
			<path style="fill:none;stroke:#000000;stroke-linecap:round;stroke-miterlimit:10;" d="M926.43,1574.3
				c-0.94,3.81-0.53,7.97,1.53,11.67c3.09,5.54,8.96,8.49,14.9,8.18"></path>
		</g>
	</g>
	<g>
		<path style="fill:none;stroke:#000000;stroke-linecap:round;stroke-miterlimit:10;" d="M805.65,1717.09
			c1.1,1.61,1.98,3.37,2.6,5.23"></path>
		<g>
			<path style="fill:none;stroke:#000000;stroke-linecap:round;stroke-miterlimit:10;" d="M770.71,1740.28
				c-1.04-1.63-1.86-3.39-2.43-5.25"></path>
			<g>
				<g>
					<g>
						<path style="fill:none;stroke:#000000;stroke-linecap:round;stroke-miterlimit:10;" d="M786.71,1727.37
							c-1.6-1.68-3.97-2.41-6.23-1.89c-4.97,1.14-14.31,3.6-23.92,7.79c-0.74,0.32-0.57,1.44,0.24,1.49
							c9.96,0.68,19.13-0.1,24.36-0.73"></path>
						<path style="fill:none;stroke:#000000;stroke-linecap:round;stroke-miterlimit:10;" d="M789.12,1729.8
							c1.96,1.9,4.75,2.65,7.4,1.97c4.97-1.27,13.63-3.79,22.73-7.79c0.75-0.33,0.55-1.44-0.26-1.5c-9.97-0.67-18.95,0.22-24,0.92
							c-1.08,2.32-3.08,4.08-5.56,4.78"></path>
					</g>
					<path style="fill:none;stroke:#000000;stroke-linecap:round;stroke-miterlimit:10;" d="M773.76,1757.02
						c2.01-9.98,5.16-18.06,7.02-22.28c0.89-2.03,2.44-3.7,4.41-4.72l1.93-0.99c0.42-0.22,0.93-0.01,1.09,0.43l0.6,1.68
						c0.96,2.71,0.65,5.69-0.82,8.16c-2.47,4.15-6.87,11.04-12.86,18.36C774.61,1758.28,773.6,1757.81,773.76,1757.02z
						 M800.69,1699.6c-6.21,7.68-10.73,15.31-13.15,19.75c-1.32,2.42-1.41,5.31-0.28,7.83l0.37,0.83c0.16,0.35,0.55,0.53,0.92,0.43
						l0.89-0.25c2.62-0.75,4.75-2.64,5.77-5.18c1.89-4.69,4.9-13.06,6.84-22.77C802.21,1699.45,801.19,1698.98,800.69,1699.6z"></path>
					<g>
						<path style="fill:none;stroke:#000000;stroke-linecap:round;stroke-miterlimit:10;" d="M789.23,1732.99
							c0.58,1.11,1.44,2.06,2.53,2.72c3.92,2.35,12.25,6.97,22.59,10.42c0.76,0.25,1.36-0.7,0.8-1.27
							c-5.73-5.98-11.43-10.77-15.47-13.94c-1.16,0.32-2.25,0.62-3.17,0.85c-2.64,0.68-5.43-0.08-7.4-1.97l-0.77-0.74"></path>
						<path style="fill:none;stroke:#000000;stroke-linecap:round;stroke-miterlimit:10;" d="M787.63,1728.01l-0.37-0.83
							c-0.59-1.3-0.83-2.7-0.76-4.08c-0.64-1-1.52-1.84-2.6-2.41c-4.33-2.29-12.6-6.35-22.44-9.58c-0.76-0.25-1.36,0.7-0.8,1.28
							c5.98,6.16,12.11,10.93,16.34,13.94c1.3-0.33,2.5-0.63,3.48-0.85c2.26-0.52,4.63,0.21,6.23,1.89l0.83,0.87"></path>
					</g>
					<g>
						<path style="fill:none;stroke:#000000;stroke-linecap:round;stroke-miterlimit:10;" d="M786.63,1725.16
							c-0.12-0.68-0.17-1.37-0.13-2.06l0,0C786.46,1723.79,786.5,1724.48,786.63,1725.16z"></path>
						<path style="fill:none;stroke:#000000;stroke-linecap:round;stroke-miterlimit:10;" d="M783.9,1720.69
							c1.08,0.57,1.95,1.41,2.6,2.41c0.07-1.29,0.4-2.58,1.04-3.75c0.29-0.53,0.61-1.12,0.96-1.73c-2.27-5.55-5.54-12.71-9.57-19.35
							c-0.42-0.7-1.51-0.37-1.45,0.44c0.56,7.34,1.97,14.66,3.3,20.38C781.95,1719.68,783.02,1720.23,783.9,1720.69z"></path>
						<path style="fill:none;stroke:#000000;stroke-linecap:round;stroke-miterlimit:10;" d="M786.63,1725.17
							c0.13,0.68,0.33,1.36,0.63,2.01C786.96,1726.53,786.75,1725.86,786.63,1725.17z"></path>
						<path style="fill:none;stroke:#000000;stroke-linecap:round;stroke-miterlimit:10;" d="M787.5,1740.1
							c2.26,5.48,5.46,12.43,9.38,18.88c0.42,0.7,1.51,0.37,1.45-0.44c-0.58-7.62-2.07-15.22-3.45-21.02
							c-1.21-0.67-2.28-1.29-3.12-1.79"></path>
						<path style="fill:none;stroke:#000000;stroke-linecap:round;stroke-miterlimit:10;" d="M786.63,1725.16c0,0,0,0.01,0,0.01
							C786.63,1725.17,786.63,1725.17,786.63,1725.16z"></path>
					</g>
				</g>
				<g>
					
						<line style="fill:none;stroke:#000000;stroke-linecap:round;stroke-miterlimit:10;" x1="794.99" y1="1723.41" x2="794.99" y2="1723.41"></line>
					<path style="fill:none;stroke:#000000;stroke-linecap:round;stroke-miterlimit:10;" d="M816.77,1700.84
						c0.52-0.87-0.49-1.87-1.35-1.34c-5.62,3.43-11.64,7.93-16,11.33c-1.49,5.07-3.06,9.31-4.21,12.18
						c-0.06,0.14-0.15,0.26-0.21,0.39c1.61-0.22,3.66-0.46,5.97-0.66C805.24,1717.72,811.26,1710.05,816.77,1700.84z"></path>
					<path style="fill:none;stroke:#000000;stroke-linecap:round;stroke-miterlimit:10;" d="M796.82,1746.91
						c4,4.17,9.1,9.03,15.14,13.76c0.8,0.62,1.91-0.25,1.5-1.18c-2.48-5.52-6.21-12.37-8.91-17.19"></path>
					<path style="fill:none;stroke:#000000;stroke-linecap:round;stroke-miterlimit:10;" d="M806.59,1736.66
						c5.89,0.24,13.01,0.28,20.59-0.27c1.03-0.08,1.27-1.48,0.32-1.89c-6.6-2.86-13-4.96-18.48-6.5"></path>
					<path style="fill:none;stroke:#000000;stroke-linecap:round;stroke-miterlimit:10;" d="M782.89,1747.27
						c0.48,6.5,1.32,13.96,2.83,21.28c0.21,1.01,1.64,1.08,1.91,0.08c1.81-6.64,3.04-13.43,3.91-19.51"></path>
					<path style="fill:none;stroke:#000000;stroke-linecap:round;stroke-miterlimit:10;" d="M792.95,1710.3
						c-0.47-6.57-1.32-14.17-2.86-21.6c-0.21-1.01-1.64-1.08-1.91-0.08c-1.8,6.63-3.05,13.43-3.92,19.51
						c1.65,3.4,3.08,6.66,4.24,9.5"></path>
					<path style="fill:none;stroke:#000000;stroke-linecap:round;stroke-miterlimit:10;" d="M778.87,1709.67
						c-4.1-3.99-9.17-8.57-15.01-13.1c-0.8-0.62-1.91,0.26-1.49,1.18c3,6.58,6.34,12.42,9.34,17.19"></path>
					<path style="fill:none;stroke:#000000;stroke-linecap:round;stroke-miterlimit:10;" d="M777,1726.33"></path>
					<path style="fill:none;stroke:#000000;stroke-linecap:round;stroke-miterlimit:10;" d="M748.29,1722.74
						c6.53,2.84,12.92,5,18.44,6.62c3.88-1.31,7.4-2.3,10.26-3.04c-2.02-1.44-4.49-3.31-7.16-5.51c-6.07-0.36-13.43-0.49-21.2,0.05
						C747.61,1720.94,747.35,1722.33,748.29,1722.74z"></path>
					<path style="fill:none;stroke:#000000;stroke-linecap:round;stroke-miterlimit:10;" d="M775.23,1734.61
						c-4.14,4.57-10.38,12.12-16.2,21.81c-0.52,0.87,0.48,1.86,1.35,1.34c6.17-3.72,11.56-7.48,15.9-10.74"></path>
				</g>
			</g>
			<g>
				<path style="fill:none;stroke:#000000;stroke-linecap:round;stroke-miterlimit:10;" d="M784.64,1705.64
					c-0.5,0.08-1,0.2-1.49,0.31"></path>
				<path style="fill:none;stroke:#000000;stroke-linecap:round;stroke-miterlimit:10;" d="M774.71,1748.18
					c0.34,0.24,0.68,0.48,1.04,0.7"></path>
				<path style="fill:none;stroke:#000000;stroke-linecap:round;stroke-miterlimit:10;" d="M765.55,1735.01
					c0.69,2.58,1.82,5,3.31,7.19"></path>
				<path style="fill:none;stroke:#000000;stroke-linecap:round;stroke-miterlimit:10;" d="M767.19,1718.53
					c-0.34,0.69-0.64,1.4-0.92,2.13"></path>
				<path style="fill:none;stroke:#000000;stroke-linecap:round;stroke-miterlimit:10;" d="M778.54,1707.51
					c-0.43,0.2-0.85,0.42-1.27,0.64"></path>
				<path style="fill:none;stroke:#000000;stroke-linecap:round;stroke-miterlimit:10;" d="M764.78,1728.77
					c0,0.43-0.01,0.87,0.01,1.29"></path>
				<path style="fill:none;stroke:#000000;stroke-linecap:round;stroke-miterlimit:10;" d="M810.97,1722.28
					c-0.79-2.68-2.05-5.18-3.7-7.41"></path>
				<path style="fill:none;stroke:#000000;stroke-linecap:round;stroke-miterlimit:10;" d="M809.53,1739.36
					c0.41-0.83,0.77-1.68,1.08-2.57"></path>
				<path style="fill:none;stroke:#000000;stroke-linecap:round;stroke-miterlimit:10;" d="M801.42,1709.3
					c-0.44-0.29-0.89-0.57-1.35-0.83"></path>
				<path style="fill:none;stroke:#000000;stroke-linecap:round;stroke-miterlimit:10;" d="M795.56,1706.48
					c-0.5-0.16-1-0.3-1.52-0.43c-0.49-0.12-0.98-0.2-1.47-0.29"></path>
				<path style="fill:none;stroke:#000000;stroke-linecap:round;stroke-miterlimit:10;" d="M805.89,1744.74
					c0.4-0.44,0.78-0.91,1.15-1.38"></path>
				<path style="fill:none;stroke:#000000;stroke-linecap:round;stroke-miterlimit:10;" d="M791.04,1752.37
					c0.67-0.08,1.34-0.18,2-0.32"></path>
				<path style="fill:none;stroke:#000000;stroke-linecap:round;stroke-miterlimit:10;" d="M780.18,1751.07
					c0.81,0.3,1.64,0.56,2.5,0.78c0.21,0.05,0.41,0.08,0.62,0.12"></path>
				<path style="fill:none;stroke:#000000;stroke-linecap:round;stroke-miterlimit:10;" d="M797.41,1750.71
					c0.73-0.31,1.45-0.65,2.15-1.03"></path>
				<path style="fill:none;stroke:#000000;stroke-linecap:round;stroke-miterlimit:10;" d="M811.93,1728.86
					c0-0.64-0.03-1.27-0.08-1.91"></path>
			</g>
		</g>
	</g>
	<g>
		<g>
			
				<ellipse style="fill:none;stroke:#000000;stroke-linecap:round;stroke-miterlimit:10;" cx="1066.84" cy="1082.27" rx="17.85" ry="17.71"></ellipse>
		</g>
		<g>
			
				<ellipse style="fill:none;stroke:#000000;stroke-linecap:round;stroke-miterlimit:10;" cx="1066.84" cy="1082.27" rx="10.17" ry="10.08"></ellipse>
		</g>
		<g>
			
				<ellipse style="fill:none;stroke:#000000;stroke-linecap:round;stroke-miterlimit:10;" cx="1032.21" cy="1092.87" rx="2.77" ry="4.46"></ellipse>
			
				<line style="fill:none;stroke:#000000;stroke-linecap:round;stroke-miterlimit:10;" x1="1032.21" y1="1088.42" x2="1032.21" y2="1068.91"></line>
		</g>
		<g>
			<path style="fill:none;stroke:#000000;stroke-linecap:round;stroke-miterlimit:10;" d="M1095.97,1097.33v-4.46
				c0-2.46-1.24-4.46-2.77-4.46s-2.77,2-2.77,4.46v4.46"></path>
			
				<line style="fill:none;stroke:#000000;stroke-linecap:round;stroke-miterlimit:10;" x1="1093.21" y1="1088.42" x2="1093.21" y2="1068.91"></line>
		</g>
		
			<line style="fill:none;stroke:#000000;stroke-linecap:round;stroke-miterlimit:10;" x1="1093.21" y1="1097.33" x2="1093.21" y2="1088.42"></line>
		<g>
			<path style="fill:none;stroke:#000000;stroke-linecap:round;stroke-miterlimit:10;" d="M1039.02,1080.84h4.29v16.5h-0.02
				c-2.36,0-4.28-1.91-4.28-4.28V1080.84z"></path>
			<path style="fill:none;stroke:#000000;stroke-linecap:round;stroke-miterlimit:10;" d="M1041.16,1068.91h0.02
				c1.18,0,2.14,0.96,2.14,2.14v9.79h-4.29v-9.79C1039.02,1069.87,1039.98,1068.91,1041.16,1068.91z"></path>
		</g>
	</g>
	<g>
		<g>
			
				<ellipse style="fill:none;stroke:#000000;stroke-linecap:round;stroke-miterlimit:10;" cx="1217.92" cy="1082.27" rx="17.85" ry="17.71"></ellipse>
		</g>
		<g>
			
				<ellipse style="fill:none;stroke:#000000;stroke-linecap:round;stroke-miterlimit:10;" cx="1217.92" cy="1082.27" rx="10.17" ry="10.08"></ellipse>
		</g>
		<g>
			
				<ellipse style="fill:none;stroke:#000000;stroke-linecap:round;stroke-miterlimit:10;" cx="1183.29" cy="1092.87" rx="2.77" ry="4.46"></ellipse>
			
				<line style="fill:none;stroke:#000000;stroke-linecap:round;stroke-miterlimit:10;" x1="1183.29" y1="1088.42" x2="1183.29" y2="1068.91"></line>
		</g>
		<g>
			<path style="fill:none;stroke:#000000;stroke-linecap:round;stroke-miterlimit:10;" d="M1247.06,1097.33v-4.46
				c0-2.46-1.24-4.46-2.77-4.46s-2.77,2-2.77,4.46v4.46"></path>
			
				<line style="fill:none;stroke:#000000;stroke-linecap:round;stroke-miterlimit:10;" x1="1244.29" y1="1088.42" x2="1244.29" y2="1068.91"></line>
		</g>
		
			<line style="fill:none;stroke:#000000;stroke-linecap:round;stroke-miterlimit:10;" x1="1244.29" y1="1097.33" x2="1244.29" y2="1088.42"></line>
		<g>
			<path style="fill:none;stroke:#000000;stroke-linecap:round;stroke-miterlimit:10;" d="M1190.11,1080.84h4.29v16.5h-0.02
				c-2.36,0-4.28-1.91-4.28-4.28V1080.84z"></path>
			<path style="fill:none;stroke:#000000;stroke-linecap:round;stroke-miterlimit:10;" d="M1192.24,1068.91h0.02
				c1.18,0,2.14,0.96,2.14,2.14v9.79h-4.29v-9.79C1190.11,1069.87,1191.06,1068.91,1192.24,1068.91z"></path>
		</g>
	</g>
	<g>
		<circle style="fill:none;stroke:#000000;stroke-linecap:round;stroke-miterlimit:10;" cx="1009.76" cy="855.76" r="26.32"></circle>
		<circle style="fill:none;stroke:#000000;stroke-linecap:round;stroke-miterlimit:10;" cx="1016.86" cy="868.09" r="7.56"></circle>
		<circle style="fill:none;stroke:#000000;stroke-linecap:round;stroke-miterlimit:10;" cx="1017.78" cy="852.96" r="7.56"></circle>
		<circle style="fill:none;stroke:#000000;stroke-linecap:round;stroke-miterlimit:10;" cx="1003.91" cy="859.03" r="7.56"></circle>
		<path style="fill:none;stroke:#000000;stroke-linecap:round;stroke-miterlimit:10;" d="M991.41,861.03l1.68,0.34l1.04-6.57
			c6.06-11.83,16.82-11.54,22.79-11.93c1.38-0.09,1.78-1.95,0.57-2.61c-4.29-2.34-11.37-4.92-17.97-1.57
			c-7.55,3.83-7.6,11.56-7.06,15.53L991.41,861.03z"></path>
	</g>
	<g>
		<g>
			<polygon style="fill:none;stroke:#000000;stroke-linecap:round;stroke-miterlimit:10;" points="671.62,1647.84 673.52,1655.1 
				635.84,1664.64 633.95,1657.38 			"></polygon>
			<g>
				<polygon style="fill:none;stroke:#000000;stroke-linecap:round;stroke-miterlimit:10;" points="661.89,1641.24 661.9,1648.73 
					622.96,1648.45 622.95,1640.97 				"></polygon>
			</g>
			<g>
				<polygon style="fill:none;stroke:#000000;stroke-linecap:round;stroke-miterlimit:10;" points="677.33,1594.52 647.29,1613.69 
					632.84,1591.22 662.88,1572.05 				"></polygon>
				
					<line style="fill:none;stroke:#000000;stroke-linecap:round;stroke-miterlimit:10;" x1="646.16" y1="1611.94" x2="676.2" y2="1592.77"></line>
			</g>
		</g>
		<polygon style="fill:none;stroke:#000000;stroke-linecap:round;stroke-miterlimit:10;" points="661.9,1648.73 631.64,1648.52 
			633.95,1657.38 671.62,1647.84 665.39,1623.96 661.87,1624.86 		"></polygon>
		<polygon style="fill:none;stroke:#000000;stroke-linecap:round;stroke-miterlimit:10;" points="661.86,1616.61 661.9,1648.73 
			622.96,1648.45 622.92,1616.34 		"></polygon>
	</g>
	<g>
		<g>
			<path style="fill:none;stroke:#000000;stroke-linecap:round;stroke-miterlimit:10;" d="M650.15,1254.71
				c-0.75,0.41-1.51,0.82-2.28,1.2c0.72,0.86,1.53,1.63,2.38,2.38c0.47-0.72,0.96-1.41,1.46-2.1
				C651.18,1255.7,650.62,1255.25,650.15,1254.71z"></path>
			<path style="fill:none;stroke:#000000;stroke-linecap:round;stroke-miterlimit:10;" d="M671.86,1260.35
				c-0.67,0.24-1.38,0.37-2.07,0.54c0.06,0.84,0.12,1.69,0.14,2.53c1.1-0.24,2.18-0.5,3.22-0.89
				C672.7,1261.81,672.28,1261.08,671.86,1260.35z"></path>
			<path style="fill:none;stroke:#000000;stroke-linecap:round;stroke-miterlimit:10;" d="M680.78,1254.01
				c-0.39,0.48-0.81,0.92-1.24,1.35c0.52,0.65,1.05,1.29,1.54,1.97c0.7-0.7,1.4-1.41,2.01-2.2
				C682.3,1254.79,681.54,1254.4,680.78,1254.01z"></path>
			<path style="fill:none;stroke:#000000;stroke-linecap:round;stroke-miterlimit:10;" d="M684.79,1245.61
				c0.79,0.28,1.56,0.59,2.34,0.91c0.67-2.88,0.78-5.77,0.35-8.53c-0.79,0.37-1.58,0.76-2.39,1.09
				C685.35,1241.21,685.26,1243.4,684.79,1245.61z"></path>
			<path style="fill:none;stroke:#000000;stroke-linecap:round;stroke-miterlimit:10;" d="M681.77,1230.17
				c0.75-0.38,1.51-0.71,2.28-1.06c-0.83-1.27-1.78-2.44-2.85-3.53c-0.43,0.72-0.85,1.44-1.31,2.14
				C680.59,1228.49,681.19,1229.32,681.77,1230.17z"></path>
			<path style="fill:none;stroke:#000000;stroke-linecap:round;stroke-miterlimit:10;" d="M660.6,1260.95
				c-0.08-0.02-0.16-0.01-0.25-0.04c-0.24-0.06-0.45-0.18-0.69-0.25c-0.37,0.76-0.76,1.51-1.17,2.26c0.41,0.13,0.78,0.33,1.2,0.43
				c0.26,0.07,0.52,0.06,0.79,0.11C660.49,1262.62,660.54,1261.79,660.6,1260.95z"></path>
			<path style="fill:none;stroke:#000000;stroke-linecap:round;stroke-miterlimit:10;" d="M669.22,1221.78
				c0.27,0.06,0.54,0.05,0.81,0.12c0.67,0.17,1.27,0.46,1.91,0.68c0.41-0.74,0.85-1.45,1.29-2.17c-0.87-0.34-1.72-0.72-2.66-0.95
				c-0.49-0.12-0.98-0.12-1.47-0.21C669.16,1220.09,669.22,1220.94,669.22,1221.78z"></path>
			<path style="fill:none;stroke:#000000;stroke-linecap:round;stroke-miterlimit:10;" d="M643.46,1247.49
				c0.79-0.35,1.57-0.71,2.38-1.02c-0.54-2.06-0.8-4.19-0.66-6.39c-0.83-0.29-1.63-0.65-2.44-0.98
				C642.44,1241.99,642.7,1244.81,643.46,1247.49z"></path>
			<path style="fill:none;stroke:#000000;stroke-linecap:round;stroke-miterlimit:10;" d="M657.04,1223.13
				c0.88-0.39,1.77-0.71,2.7-0.98c-0.06-0.86-0.07-1.72-0.08-2.58c-1.41,0.36-2.76,0.84-4.07,1.45
				C656.09,1221.71,656.58,1222.41,657.04,1223.13z"></path>
			<path style="fill:none;stroke:#000000;stroke-linecap:round;stroke-miterlimit:10;" d="M648.06,1231.07
				c0.46-0.76,0.92-1.5,1.47-2.19c-0.52-0.7-1.01-1.41-1.49-2.14c-0.88,1.02-1.65,2.12-2.34,3.31
				C646.5,1230.37,647.29,1230.71,648.06,1231.07z"></path>
		</g>
		<path style="fill:none;stroke:#000000;stroke-linecap:round;stroke-miterlimit:10;" d="M664.9,1243.18
			c-0.61,5.15-2.05,10.34-4.18,15.24c-1.07,9.37,0.29,19.12,4.44,27.31c4.85-9.3,5.82-20.51,3.86-31.01
			c-1.59-3.72-2.77-7.56-3.42-11.42c-0.14-0.32-0.24-0.67-0.39-0.99c-0.14,0.29-0.23,0.61-0.36,0.9
			C664.87,1243.2,664.88,1243.19,664.9,1243.18z"></path>
		<path style="fill:none;stroke:#000000;stroke-linecap:round;stroke-miterlimit:10;" d="M665.49,1242.8
			c12.49,7.64,22.64,21.23,24.37,35.93C676.97,1271.62,667.77,1257.15,665.49,1242.8z M664.9,1243.18
			c-12.08,8.07-21.38,22.48-22.45,37.17C655.08,1272.63,663.18,1257.72,664.9,1243.18z"></path>
		<path style="fill:none;stroke:#000000;stroke-linecap:round;stroke-miterlimit:10;" d="M664.49,1242.78
			c0.1,0.06,0.19,0.14,0.3,0.2c-0.11-0.69-0.31-1.37-0.45-2.06c-1.51-3.4-2.67-7-3.47-10.71c-4.3-9.6-11.44-18.19-20.45-23.16
			c1.2,10.19,6.49,19.79,13.76,27.3C658,1236.76,661.51,1239.58,664.49,1242.78z"></path>
		<path style="fill:none;stroke:#000000;stroke-linecap:round;stroke-miterlimit:10;" d="M665.43,1242.25
			c-0.01,0.12-0.05,0.24-0.06,0.35c12.08-8.07,21.38-22.48,22.45-37.17c-8.75,5.35-15.26,14.17-19.05,23.91
			C668.19,1233.84,667.1,1238.21,665.43,1242.25z"></path>
		<path style="fill:none;stroke:#000000;stroke-linecap:round;stroke-miterlimit:10;" d="M665.79,1242.29
			c-0.24,0.26-0.51,0.5-0.74,0.76c14.53,0.12,30.32-6.57,39.46-18.11c-10.48-0.51-21.06,3.29-29.78,9.46
			C672.02,1237.4,669.02,1240.08,665.79,1242.29z"></path>
		<g>
			<path style="fill:none;stroke:#000000;stroke-linecap:round;stroke-miterlimit:10;" d="M671.18,1242.69
				c-1.8,0.21-3.59,0.32-5.36,0.33c3.71,2.31,7.17,5.18,10.3,8.41c8.73,5.48,19.16,8.63,29.2,7.89
				C697.1,1249.46,684.05,1243.76,671.18,1242.69z"></path>
			<path style="fill:none;stroke:#000000;stroke-linecap:round;stroke-miterlimit:10;" d="M665.58,1242.51c-0.1,0-0.2-0.01-0.3-0.01
				c0.05,0.05,0.1,0.1,0.16,0.15C665.49,1242.61,665.53,1242.56,665.58,1242.51z"></path>
		</g>
		<path style="fill:none;stroke:#000000;stroke-linecap:round;stroke-miterlimit:10;" d="M624.96,1226.46
			c14.69-1.07,30.3,6.03,40.03,16.82C650.35,1243.69,634.43,1237.84,624.96,1226.46z M664.99,1243.28
			c-14.64,0.41-30.56-5.44-40.03-16.82 M665.19,1242.92c5.73-13.35,5.65-30.5-1.47-43.4
			C657.35,1212.88,658.7,1229.79,665.19,1242.92z"></path>
		<g>
			<path style="fill:none;stroke:#000000;stroke-linecap:round;stroke-miterlimit:10;" d="M664.84,1243.13
				c0.11-0.1,0.21-0.21,0.31-0.32c-0.01-0.02-0.02-0.05-0.03-0.08c-0.21,0-0.43,0.03-0.64,0.03
				C664.59,1242.89,664.72,1243,664.84,1243.13z"></path>
			<path style="fill:none;stroke:#000000;stroke-linecap:round;stroke-miterlimit:10;" d="M659.1,1243.1
				c-12.67,1.5-25.47,7.8-33.34,17.74c10.48,0.51,21.06-3.29,29.78-9.46c2.71-3,5.71-5.68,8.94-7.89c0.07-0.07,0.14-0.15,0.21-0.22
				C662.84,1243.32,660.97,1243.26,659.1,1243.1z"></path>
		</g>
	</g>
	<g>
		<path style="fill:none;stroke:#000000;stroke-miterlimit:10;" d="M1346.87,1133.9l1.64,3.06c2.21,4.12,7.34,5.67,11.47,3.46
			l3.72-1.99c4.12-2.21,5.67-7.34,3.46-11.47l-1.64-3.06c-1.35-2.52-4.5-3.47-7.02-2.12l-9.51,5.1
			C1346.46,1128.23,1345.51,1131.38,1346.87,1133.9z"></path>
		<line style="fill:none;stroke:#000000;stroke-miterlimit:10;" x1="1348.46" y1="1136.88" x2="1367.12" y2="1126.88"></line>
		<path style="fill:none;stroke:#000000;stroke-miterlimit:10;" d="M1337.23,1127.12l-3.44-0.51c-4.63-0.69-7.82-5-7.12-9.63
			l0.63-4.18c0.69-4.63,5-7.82,9.63-7.12l3.44,0.51c2.83,0.42,4.78,3.06,4.36,5.9l-1.6,10.67
			C1342.71,1125.59,1340.07,1127.54,1337.23,1127.12z"></path>
		<line style="fill:none;stroke:#000000;stroke-miterlimit:10;" x1="1333.89" y1="1126.62" x2="1337.03" y2="1105.69"></line>
		<path style="fill:none;stroke:#000000;stroke-miterlimit:10;" d="M1338.87,1100.77c-0.8,1.56-1.38,3.19-1.74,4.85"></path>
		<path style="fill:none;stroke:#000000;stroke-miterlimit:10;" d="M1367.07,1126.81c1.48-0.91,2.85-2.03,4.08-3.34"></path>
		<g>
			<path style="fill:none;stroke:#000000;stroke-miterlimit:10;" d="M1338.69,1100.68c1.27,0.9,3.03,0.59,3.93-0.68
				c5.43-7.71,16.12-9.56,23.83-4.13s9.56,16.12,4.13,23.83c-0.9,1.27-0.59,3.03,0.68,3.93c1.27,0.9,3.03,0.59,3.93-0.68
				c7.22-10.25,4.76-24.47-5.5-31.69c-10.25-7.22-24.47-4.75-31.69,5.5C1337.12,1098.02,1337.42,1099.78,1338.69,1100.68z"></path>
		</g>
	</g>
</g>
<g id="floor">
	<g id="LINE_00000101069450868766970630000001101644309626536613_">
		
			<line style="fill:none;stroke:#000000;stroke-linecap:round;stroke-linejoin:round;stroke-miterlimit:10;" x1="1256.94" y1="1899.27" x2="733.54" y2="1899.27"></line>
	</g>
	<g id="LINE_00000137124652519266983440000008150784713111580290_">
		
			<line style="fill:none;stroke:#000000;stroke-linecap:round;stroke-linejoin:round;stroke-miterlimit:10;" x1="721.81" y1="1818.38" x2="1269" y2="1818.38"></line>
	</g>
	<g id="LINE_00000029016885635381710410000006455644069681536703_">
		
			<line style="fill:none;stroke:#000000;stroke-linecap:round;stroke-linejoin:round;stroke-miterlimit:10;" x1="1257.1" y1="1839.79" x2="1257.1" y2="1818.38"></line>
	</g>
	<g id="LINE_00000072967245381473801410000005029023013320031416_">
		
			<line style="fill:none;stroke:#000000;stroke-linecap:round;stroke-linejoin:round;stroke-miterlimit:10;" x1="733.7" y1="1839.79" x2="733.7" y2="1818.38"></line>
	</g>
	<g id="LINE_00000158028555830048599030000018445287720831674246_">
		
			<line style="fill:none;stroke:#000000;stroke-linecap:round;stroke-linejoin:round;stroke-miterlimit:10;" x1="721.81" y1="1839.79" x2="1269" y2="1839.79"></line>
	</g>
	<g id="LINE_00000087387953398669040720000001640379624576732300_">
		
			<line style="fill:none;stroke:#000000;stroke-linecap:round;stroke-linejoin:round;stroke-miterlimit:10;" x1="747.03" y1="1829.09" x2="1243.78" y2="1829.68"></line>
	</g>
	<g id="LINE_00000018221343319097370910000010416567435297063839_">
		
			<line style="fill:none;stroke:#000000;stroke-linecap:round;stroke-linejoin:round;stroke-miterlimit:10;" x1="747.03" y1="1818.38" x2="747.03" y2="1839.79"></line>
	</g>
	<g id="LINE_00000120532049011712490860000000903134850267167165_">
		
			<line style="fill:none;stroke:#000000;stroke-linecap:round;stroke-linejoin:round;stroke-miterlimit:10;" x1="1257.1" y1="1839.79" x2="1257.1" y2="1818.38"></line>
	</g>
	<g id="LINE_00000134214059915583317660000009137289746708276383_">
		
			<line style="fill:none;stroke:#000000;stroke-linecap:round;stroke-linejoin:round;stroke-miterlimit:10;" x1="1243.78" y1="1818.38" x2="1243.78" y2="1839.79"></line>
	</g>
	<g id="LINE_00000105420020964754074300000004761107760597987469_">
		
			<line style="fill:none;stroke:#000000;stroke-linecap:round;stroke-linejoin:round;stroke-miterlimit:10;" x1="1034.66" y1="1818.38" x2="1051.31" y2="1818.38"></line>
	</g>
	<g id="LINE_00000039093818623111106300000004524691448203186337_">
		
			<line style="fill:none;stroke:#000000;stroke-linecap:round;stroke-linejoin:round;stroke-miterlimit:10;" x1="1051.31" y1="1839.79" x2="1034.66" y2="1839.79"></line>
	</g>
	<g id="LINE_00000018939817078885755740000003417763554763777456_">
		
			<line style="fill:none;stroke:#000000;stroke-linecap:round;stroke-linejoin:round;stroke-miterlimit:10;" x1="721.65" y1="1787.45" x2="1268.84" y2="1787.45"></line>
	</g>
	<g>
		<polygon points="600.31,350.48 702.61,350.48 702.61,298.14 543.21,298.14 543.21,350.48 543.21,1787.45 543.21,1839.71 
			543.21,1899.27 733.54,1899.27 733.54,1839.71 721.65,1839.79 721.65,1787.45 600.31,1787.45 600.31,785.86 741.87,785.86 
			741.87,757.31 600.31,757.31 		"></polygon>
		<polygon points="940.52,298.14 940.52,350.48 967.88,350.48 967.88,452.78 1000,452.78 1000,350.48 1399.69,350.48 
			1399.69,753.74 1000,753.74 1000,643.11 968.06,643.11 968.06,753.74 967.88,753.74 967.88,785.86 1399.69,785.86 
			1399.69,1787.45 1268.84,1787.45 1268.84,1839.71 1256.94,1839.71 1256.94,1899.27 1456.79,1899.27 1456.79,1839.79 
			1456.79,1839.71 1456.79,1787.45 1456.79,350.48 1456.79,298.14 		"></polygon>
	</g>
	<g id="LINE_00000064346089552469490120000005250539538938386850_">
		
			<line style="fill:none;stroke:#000000;stroke-linecap:round;stroke-linejoin:round;stroke-miterlimit:10;" x1="993.46" y1="462.3" x2="993.46" y2="452.78"></line>
	</g>
	<g id="LINE_00000112617809724159044650000007308845445840085944_">
		
			<line style="fill:none;stroke:#000000;stroke-linecap:round;stroke-linejoin:round;stroke-miterlimit:10;" x1="974.42" y1="467.06" x2="807.96" y2="467.06"></line>
	</g>
	<g id="LWPOLYLINE_00000168105093213670162940000013655319078687930789_">
		
			<rect x="974.42" y="628.84" style="fill:none;stroke:#000000;stroke-linecap:round;stroke-linejoin:round;stroke-miterlimit:10;" width="19.03" height="14.27"></rect>
	</g>
	<g id="LWPOLYLINE_00000103951494188768422400000010802817793451147943_">
		
			<rect x="974.42" y="452.78" style="fill:none;stroke:#000000;stroke-linecap:round;stroke-linejoin:round;stroke-miterlimit:10;" width="19.03" height="14.27"></rect>
	</g>
	<g id="ARC_00000034081464025185386950000003268410260341844908_">
		<path style="fill:none;stroke:#000000;stroke-linecap:round;stroke-linejoin:round;stroke-miterlimit:10;" d="M807.94,467.06
			c2.59,90.09,76.36,161.77,166.48,161.78"></path>
	</g>
	<g id="ARC_00000019680491996577724560000016456600293498397621_">
		<path style="fill:none;stroke:#000000;stroke-linecap:round;stroke-linejoin:round;stroke-miterlimit:10;" d="M926.25,100.73
			c-116.37,2.59-209.36,97.67-209.36,214.07"></path>
	</g>
	<g id="LINE_00000012453621923565910410000005934738035494303887_">
		
			<line style="fill:none;stroke:#000000;stroke-linecap:round;stroke-linejoin:round;stroke-miterlimit:10;" x1="926.25" y1="314.8" x2="926.25" y2="100.73"></line>
	</g>
	<g id="LWPOLYLINE_00000088811720982514502640000016805114994129729416_">
		
			<rect x="702.61" y="314.8" style="fill:none;stroke:#000000;stroke-linecap:round;stroke-linejoin:round;stroke-miterlimit:10;" width="14.27" height="19.03"></rect>
	</g>
	<g id="LWPOLYLINE_00000165932198397889505250000003328180635172611260_">
		
			<rect x="926.25" y="314.8" style="fill:none;stroke:#000000;stroke-linecap:round;stroke-linejoin:round;stroke-miterlimit:10;" width="14.27" height="19.03"></rect>
	</g>
	<g id="LINE_00000171686833618448338210000008278072101190371713_">
		<g>
			<g>
				
					<line style="fill:none;stroke:#000000;stroke-linecap:round;stroke-linejoin:round;" x1="600.31" y1="1137.96" x2="605.31" y2="1137.96"></line>
				
					<line style="fill:none;stroke:#000000;stroke-linecap:round;stroke-linejoin:round;stroke-dasharray:9.9921,9.9921;" x1="615.31" y1="1137.96" x2="1389.69" y2="1137.96"></line>
				
					<line style="fill:none;stroke:#000000;stroke-linecap:round;stroke-linejoin:round;" x1="1394.69" y1="1137.96" x2="1399.69" y2="1137.96"></line>
			</g>
		</g>
	</g>
	<g>
		<g>
			
				<line style="fill:none;stroke:#000000;stroke-linecap:round;stroke-linejoin:round;" x1="741.87" y1="771.58" x2="746.87" y2="771.58"></line>
			
				<line style="fill:none;stroke:#000000;stroke-linecap:round;stroke-linejoin:round;stroke-dasharray:10.2948,10.2948;" x1="757.16" y1="771.58" x2="957.91" y2="771.58"></line>
			
				<line style="fill:none;stroke:#000000;stroke-linecap:round;stroke-linejoin:round;" x1="963.06" y1="771.58" x2="968.06" y2="771.58"></line>
		</g>
	</g>
	<g id="LWPOLYLINE_00000052792982805030629000000007055352027346633888_">
		
			<rect x="1259.5" y="785.86" style="fill:none;stroke:#000000;stroke-linecap:round;stroke-linejoin:round;stroke-miterlimit:10;" width="140.19" height="140.19"></rect>
	</g>
	<g id="LWPOLYLINE_00000095304824785340633750000012596029680953283232_">
		<path style="fill:none;stroke:#000000;stroke-linecap:round;stroke-linejoin:round;stroke-miterlimit:10;" d="M1388.01,906.19
			l0-88.73c0-4.52-3.66-8.18-8.18-8.18l-100.47,0c-4.52,0-8.18,3.66-8.18,8.18v88.73c0,4.52,3.66,8.18,8.18,8.18c0,0,0,0,0,0h100.47
			C1384.35,914.37,1388.01,910.71,1388.01,906.19C1388.01,906.19,1388.01,906.19,1388.01,906.19z"></path>
	</g>
	<g id="LWPOLYLINE_00000137845340619371844280000002421104503055754683_">
		
			<rect x="1049.21" y="785.92" style="fill:none;stroke:#000000;stroke-linecap:round;stroke-linejoin:round;stroke-miterlimit:10;" width="70.09" height="140.19"></rect>
	</g>
	<g id="LWPOLYLINE_00000106136561947545895100000013173781171988373941_">
		
			<line style="fill:none;stroke:#000000;stroke-linecap:round;stroke-linejoin:round;stroke-miterlimit:10;" x1="1084.26" y1="844.33" x2="1084.26" y2="797.6"></line>
	</g>
	<g id="LWPOLYLINE_00000096770152483553529630000011220245394567647894_">
		
			<line style="fill:none;stroke:#000000;stroke-linecap:round;stroke-linejoin:round;stroke-miterlimit:10;" x1="1060.89" y1="820.97" x2="1107.63" y2="820.97"></line>
	</g>
	<g id="CIRCLE_00000145766325652641581140000004141655965629039492_">
		
			<circle style="fill:none;stroke:#000000;stroke-linecap:round;stroke-linejoin:round;stroke-miterlimit:10;" cx="1084.26" cy="820.97" r="18.69"></circle>
	</g>
	<g id="LWPOLYLINE_00000000224921390500112590000009992766716689888183_">
		
			<line style="fill:none;stroke:#000000;stroke-linecap:round;stroke-linejoin:round;stroke-miterlimit:10;" x1="1084.26" y1="914.43" x2="1084.26" y2="867.7"></line>
	</g>
	<g id="LWPOLYLINE_00000124871077033522719280000005034603772881290139_">
		
			<line style="fill:none;stroke:#000000;stroke-linecap:round;stroke-linejoin:round;stroke-miterlimit:10;" x1="1060.89" y1="891.07" x2="1107.63" y2="891.07"></line>
	</g>
	<g id="CIRCLE_00000062886789846403572550000004683489434939536768_">
		
			<circle style="fill:none;stroke:#000000;stroke-linecap:round;stroke-linejoin:round;stroke-miterlimit:10;" cx="1084.26" cy="891.07" r="18.69"></circle>
	</g>
	<g id="LWPOLYLINE_00000014618860048339781230000013145896392357093262_">
		
			<rect x="1119.31" y="785.86" style="fill:none;stroke:#000000;stroke-linecap:round;stroke-linejoin:round;stroke-miterlimit:10;" width="140.19" height="140.19"></rect>
	</g>
	<g id="CIRCLE_00000141415592743465748500000001992784371565411513_">
		
			<circle style="fill:none;stroke:#000000;stroke-linecap:round;stroke-linejoin:round;stroke-miterlimit:10;" cx="1189.4" cy="856.94" r="44.87"></circle>
	</g>
	<g id="LWPOLYLINE_00000034063763610923658270000008827234913145250484_">
		<polyline style="fill:none;stroke:#000000;stroke-linecap:round;stroke-linejoin:round;stroke-miterlimit:10;" points="
			1138.15,817.66 1189.4,877.12 1189.4,836.75 1240.65,896.22 		"></polyline>
	</g>
	<g id="LWPOLYLINE_00000141421566667587396470000013111333096178066817_">
		<path style="fill:none;stroke:#000000;stroke-linecap:round;stroke-linejoin:round;stroke-miterlimit:10;" d="M1352.96,840.2
			c4.53,0,8.2-3.67,8.2-8.2c0,0,0,0,0,0c0-4.53-3.67-8.2-8.2-8.2c0,0,0,0,0,0c-4.53,0-8.2,3.67-8.2,8.2c0,0,0,0,0,0
			C1344.76,836.53,1348.43,840.2,1352.96,840.2C1352.96,840.2,1352.96,840.2,1352.96,840.2z"></path>
	</g>
	<g id="LWPOLYLINE_00000000203849804666451740000017411578913614383757_">
		
			<line style="fill:none;stroke:#000000;stroke-linecap:round;stroke-linejoin:round;stroke-miterlimit:10;" x1="1399.69" y1="556.28" x2="1332.48" y2="556.2"></line>
	</g>
	<g id="LWPOLYLINE_00000140718433412074582150000009805781998262443192_">
		
			<line style="fill:none;stroke:#000000;stroke-linecap:round;stroke-linejoin:round;stroke-miterlimit:10;" x1="1332.48" y1="556.28" x2="1332.48" y2="350.49"></line>
	</g>
	<g id="LWPOLYLINE_00000104702144542078362780000009511534805014635170_">
		
			<line style="fill:none;stroke:#000000;stroke-linecap:round;stroke-linejoin:round;stroke-miterlimit:10;" x1="1300.16" y1="485.21" x2="1300.16" y2="422.1"></line>
	</g>
	<g id="LWPOLYLINE_00000118368901107704681230000009412983401718463149_">
		<path style="fill:none;stroke:#000000;stroke-linecap:round;stroke-linejoin:round;stroke-miterlimit:10;" d="M1289.64,417.13
			h-44.18c-23.24,0-42.08,18.84-42.07,42.08c0,23.24,18.84,42.07,42.08,42.07h44.18c5.81,0,10.52-4.71,10.52-10.52v-63.12
			C1300.16,421.84,1295.46,417.14,1289.64,417.13C1289.65,417.13,1289.65,417.13,1289.64,417.13z"></path>
	</g>
	<g id="LWPOLYLINE_00000108294702671275105900000002497602729077607339_">
		<path style="fill:none;stroke:#000000;stroke-linecap:round;stroke-linejoin:round;stroke-miterlimit:10;" d="M1245.46,492.87
			h14.75c18.59,0,33.66-15.08,33.66-33.67c0-18.59-15.07-33.65-33.66-33.66h-14.75c-18.59,0-33.66,15.08-33.66,33.67
			C1211.81,477.8,1226.87,492.87,1245.46,492.87z"></path>
	</g>
	<g id="LWPOLYLINE_00000073685931900492735350000004639905031959306128_">
		<path style="fill:none;stroke:#000000;stroke-linecap:round;stroke-linejoin:round;stroke-miterlimit:10;" d="M1259,471.83h14.75
			c6.97,0,12.62-5.65,12.62-12.62c0-6.97-5.65-12.62-12.62-12.62c0,0,0,0,0,0H1259c-6.97,0-12.62,5.65-12.62,12.62
			C1246.38,466.18,1252.03,471.83,1259,471.83z"></path>
	</g>
	<g id="LWPOLYLINE_00000016050050479101852210000008660807015978071723_">
		
			<rect x="1300.16" y="392.13" style="fill:none;stroke:#000000;stroke-linecap:round;stroke-linejoin:round;stroke-miterlimit:10;" width="32.32" height="134.15"></rect>
	</g>
	<g id="LWPOLYLINE_00000146495576972544429180000011839981980561788589_">
		
			<line style="fill:none;stroke:#000000;stroke-linecap:round;stroke-linejoin:round;stroke-miterlimit:10;" x1="1019.97" y1="753.74" x2="1158.82" y2="753.74"></line>
	</g>
	<g id="LWPOLYLINE_00000134244981855652828800000002421938662079273635_">
		<path style="fill:none;stroke:#000000;stroke-linecap:round;stroke-linejoin:round;stroke-miterlimit:10;" d="M1158.82,753.73
			l0-71.32c0-10.05-6.48-18.95-16.05-22.03c-34.71-11.17-72.05-11.17-106.76,0c-9.56,3.08-16.05,11.98-16.05,22.03v71.32"></path>
	</g>
	<g id="LWPOLYLINE_00000039109209322459687120000001135511328150745479_">
		<path style="fill:none;stroke:#000000;stroke-linecap:round;stroke-linejoin:round;stroke-miterlimit:10;" d="M1052.37,733.78
			c-7.67,0-13.88-6.22-13.88-13.89v-22.22c0-5.09,3.32-9.57,8.18-11.06c27.85-8.53,57.61-8.53,85.46,0
			c4.86,1.49,8.18,5.98,8.18,11.06v22.22c0,7.67-6.22,13.89-13.89,13.89"></path>
	</g>
	<g id="LWPOLYLINE_00000064348813445792272780000008662339281089986949_">
		<path style="fill:none;stroke:#000000;stroke-linecap:round;stroke-linejoin:round;stroke-miterlimit:10;" d="M1149.56,719.89
			l0-37.48c0-6.03-3.88-11.37-9.62-13.22c-32.86-10.59-68.22-10.59-101.08,0c-5.73,1.85-9.62,7.19-9.63,13.22v37.48
			c0,7.67,6.22,13.89,13.88,13.89h92.57C1143.35,733.78,1149.56,727.56,1149.56,719.89z"></path>
	</g>
	<g id="LWPOLYLINE_00000083787528347675242020000000298025009550807188_">
		<path style="fill:none;stroke:#000000;stroke-linecap:round;stroke-linejoin:round;stroke-miterlimit:10;" d="M1089.39,729.64
			c3.44,0,6.23-2.79,6.23-6.23c0-3.44-2.79-6.23-6.23-6.23c-3.44,0-6.23,2.79-6.23,6.23c0,0,0,0,0,0
			C1083.17,726.86,1085.95,729.64,1089.39,729.64C1089.39,729.64,1089.39,729.64,1089.39,729.64z"></path>
	</g>
	<g id="CIRCLE_00000033355768437223376080000004162353030247346057_">
		
			<circle style="fill:none;stroke:#000000;stroke-linecap:round;stroke-linejoin:round;stroke-miterlimit:10;" cx="1368.13" cy="722.18" r="8.42"></circle>
	</g>
	<g id="LWPOLYLINE_00000175305012066270880990000004464155289829748921_">
		<path style="fill:none;stroke:#000000;stroke-linecap:round;stroke-linejoin:round;stroke-miterlimit:10;" d="M1262.94,574.91
			c-23.24,0-42.07,18.84-42.07,42.07c0,0,0,0,0,0v110.45c0,8.71,7.06,15.78,15.78,15.78h136.75c8.71,0,15.78-7.06,15.78-15.78
			V590.69c0-8.71-7.06-15.78-15.78-15.78H1262.94z"></path>
	</g>
	<g id="LWPOLYLINE_00000049219289375130318560000014558729699049565866_">
		<path style="fill:none;stroke:#000000;stroke-linecap:round;stroke-linejoin:round;stroke-miterlimit:10;" d="M1399.68,564.39
			l-136.75,0c-29.05,0-52.59,23.55-52.59,52.59v0v136.75l189.34,0L1399.68,564.39h-136.74c-29.05,0-52.6,23.55-52.6,52.59v0v136.75"></path>
	</g>
</g>
</svg>
