<?xml version="1.0" encoding="utf-8"?>
<!-- Generator: Adobe Illustrator 24.1.2, SVG Export Plug-In . SVG Version: 6.00 Build 0)  -->
<svg version="1.0" id="Layer_1" xmlns="http://www.w3.org/2000/svg" xmlns:xlink="http://www.w3.org/1999/xlink" x="0px" y="0px" width="2000px" height="2000px" viewBox="0 0 2000 2000" style="enable-background:new 0 0 2000 2000;" xml:space="preserve">
<path id="background" style="fill:#FFFFFF;" d="M1398.57,1836.79v63.12h-1.69h-40.32h-59.58v0c0,0.28-0.22,0.5-0.5,0.5H892.12
	c-0.28,0-0.5-0.22-0.5-0.5v0h-95.37h-37.96h-0.45v-63.12h0.45V453.9h18.04c-0.08-0.09-0.13-0.2-0.13-0.33v-9.98H601.25
	c-0.28,0-0.5-0.22-0.5-0.5c0-96.65,78.53-175.39,175.45-176.44v-10.01h-18.36V134.23v-34.2v-0.11h38.18v0.11h560.55h19.64h20.67
	v1736.76H1398.57z"></path>
<g id="r1">
	<path id="r1_path" style="fill:none;" d="M1378.15,1183.47v684.69H784.4l-0.02-684.69H1378.15z"></path>
	
		<text id="r1_text" transform="matrix(1 0 0 1 1167.8087 1568.1814)" style="font-family: GraphikLCG-Regular; font-size: 40px; text-anchor: middle; text-align: center;"></text>
</g>
<g id="h1">
	<path id="h1_path" style="fill:none;" d="M1001.69,860.92l-211.17,0V488.86h0V117.51h208.84v627.42h2.34L1001.69,860.92z"></path>
	<text id="h1_text" transform="matrix(1 0 0 1 863.3217 424.4352)" style="font-family: GraphikLCG-Regular; font-size: 40px; text-anchor: middle; text-align: center;"></text>
</g>
<g id="s1">
	<path id="s1_path" style="fill:none;" d="M1001.7,858.17V429.69h376.45v428.48H1001.7z"></path>
	<text id="s1_text" transform="matrix(1 0 0 1 1094.3567 626.1335)" style="font-family: GraphikLCG-Regular; font-size: 40px; text-anchor: middle; text-align: center;"></text>
</g>
<g id="g1">
	<path id="g1_path" style="fill:none;" d="M999.36,428.54V119.42h382.66v309.12H999.36z"></path>
	<text id="g1_text" transform="matrix(1 0 0 1 1091.4164 358.7936)" style="font-family: GraphikLCG-Regular; font-size: 40px; text-anchor: middle; text-align: center;"></text>
</g>
<g id="c1">
	<path id="c1_path" style="fill:none;" d="M1378.15,1183.47H781.33v-233.5V899.3v-41.77v3.39h220.36l0,0h376.45V1183.47z"></path>
	<text id="c1_text" transform="matrix(1 0 0 1 1019.1301 1096.613)" style="font-family: GraphikLCG-Regular; font-size: 40px; text-anchor: middle; text-align: center;"></text>
</g>
<path id="u3" style="fill:#FFFFFF;stroke:#FFFFFF;stroke-linecap:round;stroke-linejoin:round;stroke-miterlimit:10;" d="
	M1207.46,388.66c-8.67,0-15.71-7.03-15.71-15.71c0-8.67,7.03-15.71,15.71-15.71s15.71,7.03,15.71,15.71
	C1223.16,381.63,1216.13,388.66,1207.46,388.66z"></path>
<g id="mebel">
	<g>
		<polygon style="fill:none;stroke:#000000;stroke-linecap:round;stroke-linejoin:round;stroke-miterlimit:10;" points="
			995.32,867.21 995.32,982.69 1109.49,982.69 1109.5,867.21 		"></polygon>
		<g>
			
				<line style="fill:none;stroke:#000000;stroke-linecap:round;stroke-linejoin:round;stroke-miterlimit:10;" x1="1079.9" y1="924.95" x2="1024.93" y2="924.95"></line>
			
				<line style="fill:none;stroke:#000000;stroke-linecap:round;stroke-linejoin:round;stroke-miterlimit:10;" x1="1052.41" y1="897.15" x2="1052.41" y2="952.75"></line>
			<polyline style="fill:none;stroke:#000000;stroke-linecap:round;stroke-linejoin:round;stroke-miterlimit:10;" points="
				1073.79,911.05 1066.16,924.95 1073.79,938.85 			"></polyline>
			<polyline style="fill:none;stroke:#000000;stroke-linecap:round;stroke-linejoin:round;stroke-miterlimit:10;" points="
				1066.16,946.57 1052.41,938.85 1038.67,946.57 			"></polyline>
			<polyline style="fill:none;stroke:#000000;stroke-linecap:round;stroke-linejoin:round;stroke-miterlimit:10;" points="
				1031.03,938.85 1038.67,924.95 1031.03,911.05 			"></polyline>
			<polyline style="fill:none;stroke:#000000;stroke-linecap:round;stroke-linejoin:round;stroke-miterlimit:10;" points="
				1038.67,903.33 1052.41,911.05 1066.16,903.33 			"></polyline>
		</g>
	</g>
	<g>
		<path style="fill:none;stroke:#000000;stroke-linecap:round;stroke-linejoin:round;stroke-miterlimit:10;" d="M1050.6,1453.89
			c8.08,0,24.11,0,32.19,0c8.27,0,12.49,6.78,13.87,15.19c5.03,34.32,5.03,69.2,0,103.52c-1.38,8.41-5.6,15.19-13.87,15.19
			c-8.08,0-24.11,0-32.19,0c-8.27,0-12.49-6.78-13.87-15.19c-5.03-34.32-5.03-69.2,0-103.52
			C1038.11,1460.67,1042.33,1453.89,1050.6,1453.89z"></path>
		<g>
			<g>
				
					<rect x="1071.25" y="1523.97" transform="matrix(-0.3818 -0.9242 0.9242 -0.3818 61.2027 3121.0576)" style="fill:none;stroke:#000000;stroke-linecap:round;stroke-linejoin:round;stroke-miterlimit:10;" width="6.19" height="32.18"></rect>
				<g>
					
						<rect x="1073.07" y="1510.88" transform="matrix(-0.6022 -0.7983 0.7983 -0.6022 505.2258 3305.6853)" style="fill:none;stroke:#000000;stroke-linecap:round;stroke-linejoin:round;stroke-miterlimit:10;" width="6.19" height="32.18"></rect>
					
						<rect x="1057.99" y="1500.29" transform="matrix(-0.6022 -0.7983 0.7983 -0.6022 500.8787 3282.3303)" style="fill:none;stroke:#000000;stroke-linecap:round;stroke-linejoin:round;stroke-miterlimit:10;" width="20.35" height="32.18"></rect>
				</g>
			</g>
			<polygon style="fill:none;stroke:#000000;stroke-linecap:round;stroke-linejoin:round;stroke-miterlimit:10;" points="
				1050.51,1524.53 1053.3,1523.38 1065.18,1539.14 1085.15,1524.07 1088.03,1531.06 1058.29,1543.35 			"></polygon>
		</g>
	</g>
	<g>
		<g>
			<g>
				<path style="fill:none;stroke:#000000;stroke-linecap:round;stroke-linejoin:round;stroke-miterlimit:10;" d="M919.82,1745.39
					c-0.02-0.14-0.06-0.27-0.11-0.41c-2.53-7.21-4.5-14.67-5.87-22.17s-2.15-15.18-2.32-22.8c0-0.16-0.02-0.3-0.04-0.43
					c-0.13-0.72-0.58-1.36-1.23-1.74c-0.37-0.22-1.14-0.53-2.08-0.21l-0.06,0.02c-14.49,5.08-29.61,7.84-44.96,8.19l-0.08,0
					c-0.98,0.05-1.58,0.6-1.85,0.93c-0.48,0.59-0.67,1.34-0.54,2.06c0.02,0.13,0.06,0.27,0.11,0.4c2.53,7.21,4.5,14.67,5.87,22.17
					c1.37,7.5,2.15,15.18,2.32,22.8c0,0.16,0.02,0.3,0.04,0.43c0.13,0.73,0.58,1.36,1.23,1.74c0.37,0.22,1.13,0.53,2.08,0.21
					l0.06-0.02c14.49-5.08,29.61-7.84,44.96-8.19l0.08,0c0.98-0.05,1.58-0.6,1.85-0.93
					C919.75,1746.86,919.95,1746.11,919.82,1745.39z"></path>
			</g>
			<path style="fill:none;stroke:#000000;stroke-linecap:round;stroke-linejoin:round;stroke-miterlimit:10;" d="M908.1,1697.65
				l0.06-0.02c0.95-0.31,1.71,0,2.08,0.21c0.65,0.38,1.1,1.01,1.23,1.74c0.02,0.13,0.04,0.27,0.04,0.43
				c0.15,6.71,0.86,13.44,1.94,20.07c5.95,1.1,11.85,2.46,17.64,4.29l0.06,0.02c0.96,0.28,1.71-0.05,2.08-0.28
				c0.64-0.4,1.07-1.05,1.18-1.77c0.02-0.14,0.03-0.28,0.03-0.43c-0.06-7.63,0.49-15.32,1.63-22.86s2.88-15.05,5.19-22.34
				c0.04-0.14,0.07-0.27,0.09-0.41c0.11-0.73-0.11-1.47-0.6-2.04c-0.28-0.32-0.89-0.86-1.88-0.88l-0.08,0
				c-15.35,0.12-30.56-2.18-45.19-6.82l-0.06-0.02c-0.96-0.28-1.71,0.05-2.08,0.28c-0.64,0.4-1.07,1.05-1.18,1.77
				c-0.02,0.14-0.03,0.28-0.03,0.43c0.06,7.63-0.49,15.32-1.63,22.86c-0.58,3.86-1.33,7.71-2.23,11.52
				C893.75,1702.05,901.01,1700.14,908.1,1697.65z"></path>
			<path style="fill:none;stroke:#000000;stroke-linecap:round;stroke-linejoin:round;stroke-miterlimit:10;" d="M908.1,1697.65
				l0.06-0.02c0.95-0.31,1.71,0,2.08,0.21c0.65,0.38,1.1,1.01,1.23,1.74c0.02,0.13,0.04,0.27,0.04,0.43
				c0.17,7.63,0.96,15.3,2.32,22.8c0.04,0.21,0.1,0.41,0.14,0.62c5.44,1.05,10.85,2.31,16.15,3.99l0.01,0
				c3.72,1.18,7.51-1.62,7.48-5.52v-0.01c-0.11-14.99,2.14-29.91,6.67-44.2l0-0.01c1.18-3.72-1.62-7.51-5.52-7.48h-0.01
				c-14.99,0.11-29.91-2.14-44.2-6.67l-0.01,0c-3.72-1.18-7.51,1.62-7.48,5.52l0,0.01c0.09,11.77-1.33,23.48-4.11,34.89
				C891.48,1702.57,899.9,1700.52,908.1,1697.65z"></path>
		</g>
		<g>
			<g>
				<path style="fill:none;stroke:#000000;stroke-linecap:round;stroke-linejoin:round;stroke-miterlimit:10;" d="M912.73,1423.27
					c-0.04,0.13-0.09,0.26-0.15,0.39c-3.24,6.92-5.96,14.14-8.07,21.47c-2.12,7.33-3.67,14.88-4.61,22.45
					c-0.02,0.16-0.05,0.29-0.09,0.43c-0.2,0.71-0.71,1.29-1.4,1.6c-0.39,0.18-1.18,0.41-2.09,0l-0.05-0.03
					c-13.9-6.51-28.67-10.78-43.91-12.67l-0.08-0.01c-0.97-0.15-1.51-0.76-1.75-1.12c-0.41-0.63-0.54-1.4-0.33-2.11
					c0.04-0.13,0.09-0.26,0.15-0.39c3.24-6.92,5.96-14.14,8.07-21.47c2.12-7.33,3.67-14.88,4.61-22.45
					c0.02-0.15,0.05-0.29,0.09-0.42c0.2-0.71,0.72-1.29,1.4-1.6c0.39-0.18,1.18-0.41,2.09,0l0.05,0.03
					c13.9,6.51,28.67,10.78,43.91,12.67l0.08,0.01c0.97,0.15,1.51,0.76,1.75,1.12C912.81,1421.79,912.93,1422.56,912.73,1423.27z"></path>
			</g>
			<path style="fill:none;stroke:#000000;stroke-linecap:round;stroke-linejoin:round;stroke-miterlimit:10;" d="M896.26,1469.59
				l0.05,0.03c0.91,0.41,1.7,0.17,2.09,0c0.69-0.31,1.2-0.9,1.4-1.6c0.04-0.13,0.07-0.27,0.09-0.43c0.83-6.66,2.21-13.28,3.95-19.78
				c6.03-0.49,12.03-1.25,17.98-2.5l0.06-0.01c0.98-0.19,1.7,0.22,2.04,0.49c0.6,0.46,0.96,1.15,1,1.88c0.01,0.14,0,0.28-0.01,0.43
				c-0.83,7.58-1.05,15.29-0.68,22.91c0.37,7.62,1.35,15.27,2.92,22.75c0.03,0.14,0.05,0.28,0.05,0.42
				c0.04,0.74-0.26,1.45-0.81,1.97c-0.31,0.29-0.98,0.77-1.96,0.68l-0.08-0.01c-15.26-1.66-30.62-0.91-45.65,2.23l-0.06,0.01
				c-0.98,0.19-1.7-0.22-2.04-0.49c-0.6-0.46-0.96-1.15-1-1.88c-0.01-0.14,0-0.28,0.01-0.43c0.83-7.58,1.05-15.29,0.68-22.91
				c-0.19-3.9-0.55-7.8-1.06-11.69C882.43,1463.76,889.45,1466.4,896.26,1469.59z"></path>
			<path style="fill:none;stroke:#000000;stroke-linecap:round;stroke-linejoin:round;stroke-miterlimit:10;" d="M896.26,1469.59
				l0.05,0.03c0.91,0.41,1.7,0.17,2.09,0c0.69-0.31,1.2-0.9,1.4-1.6c0.04-0.13,0.07-0.27,0.09-0.43c0.94-7.57,2.49-15.12,4.61-22.45
				c0.06-0.2,0.14-0.4,0.2-0.6c5.52-0.5,11.03-1.2,16.47-2.34l0.01,0c3.82-0.8,7.31,2.36,6.89,6.25l0,0.01
				c-1.62,14.9-0.89,29.97,2.18,44.65l0,0.01c0.8,3.82-2.37,7.31-6.25,6.89l-0.01,0c-14.9-1.62-29.97-0.89-44.65,2.18l-0.01,0
				c-3.82,0.8-7.31-2.36-6.89-6.25l0-0.01c1.27-11.7,1.04-23.49-0.58-35.12C880.22,1463.02,888.39,1465.9,896.26,1469.59z"></path>
		</g>
		<g>
			<g>
				<path style="fill:none;stroke:#000000;stroke-linecap:round;stroke-linejoin:round;stroke-miterlimit:10;" d="M841.48,1514.61
					l0-119.8c0-0.41-0.33-0.75-0.75-0.75H797c-0.41,0-0.75,0.33-0.75,0.75l0,119.8c0,0.41,0.33,0.75,0.75,0.75h43.73
					C841.14,1515.35,841.48,1515.02,841.48,1514.61z"></path>
				<path style="fill:none;stroke:#000000;stroke-linecap:round;stroke-linejoin:round;stroke-miterlimit:10;" d="M841.48,1514.61
					l0-119.8c0-0.41,0.33-0.75,0.75-0.75l113.69,0c0.41,0,0.75,0.33,0.75,0.75l0,119.8c0,0.41-0.33,0.75-0.75,0.75l-113.69,0
					C841.81,1515.35,841.48,1515.02,841.48,1514.61z"></path>
				<path style="fill:none;stroke:#000000;stroke-linecap:round;stroke-linejoin:round;stroke-miterlimit:10;" d="M841.48,1635.9
					l0-119.8c0-0.41-0.33-0.75-0.75-0.75l-43.73,0c-0.41,0-0.75,0.33-0.75,0.75l0,119.8c0,0.41,0.33,0.75,0.75,0.75h43.73
					C841.14,1636.65,841.48,1636.31,841.48,1635.9z"></path>
				<path style="fill:none;stroke:#000000;stroke-linecap:round;stroke-linejoin:round;stroke-miterlimit:10;" d="M841.48,1635.9
					l0-119.8c0-0.41,0.33-0.75,0.75-0.75h113.69c0.41,0,0.75,0.33,0.75,0.75l0,119.8c0,0.41-0.33,0.75-0.75,0.75l-113.69,0
					C841.81,1636.65,841.48,1636.31,841.48,1635.9z"></path>
				<path style="fill:none;stroke:#000000;stroke-linecap:round;stroke-linejoin:round;stroke-miterlimit:10;" d="M841.48,1765.28
					l0-127.88c0-0.41-0.33-0.75-0.75-0.75l-43.73,0c-0.41,0-0.75,0.33-0.75,0.75l0,127.88c0,0.41,0.33,0.75,0.75,0.75h43.73
					C841.14,1766.03,841.48,1765.69,841.48,1765.28z"></path>
				<path style="fill:none;stroke:#000000;stroke-linecap:round;stroke-linejoin:round;stroke-miterlimit:10;" d="M841.48,1765.28
					l0-127.88c0-0.41,0.33-0.75,0.75-0.75l220.12,0c0.41,0,0.75,0.33,0.75,0.75v127.88c0,0.41-0.33,0.75-0.75,0.75l-220.12,0
					C841.81,1766.03,841.48,1765.69,841.48,1765.28z"></path>
			</g>
		</g>
	</g>
	<g>
		<polygon style="fill:none;stroke:#000000;stroke-linecap:round;stroke-linejoin:round;stroke-miterlimit:10;" points="
			1242.17,1097.09 1242.17,1183.36 1356.55,1183.36 1356.57,1097.09 		"></polygon>
		<path style="fill:none;stroke:#000000;stroke-linecap:round;stroke-linejoin:round;stroke-miterlimit:10;" d="M1323.32,1140.6
			l-27.62,10.84c-1.69,0.59-3.55,0.92-5.5,0.92c-7.84,0-14.19-5.26-14.19-11.75c0-6.49,6.36-11.75,14.19-11.75
			c1.95,0,3.81,0.33,5.5,0.92L1323.32,1140.6z"></path>
	</g>
	
		<rect x="1175.77" y="801.66" transform="matrix(-1.347066e-10 1 -1 -1.347066e-10 2158.4614 -307.8461)" style="fill:none;stroke:#000000;stroke-linecap:round;stroke-linejoin:round;stroke-miterlimit:10;" width="114.76" height="247.3"></rect>
	<g>
		<g>
			
				<rect x="796.02" y="134.23" style="fill:none;stroke:#000000;stroke-linecap:round;stroke-linejoin:round;stroke-miterlimit:10;" width="196.67" height="125.04"></rect>
			
				<line style="fill:none;stroke:#000000;stroke-linecap:round;stroke-linejoin:round;stroke-miterlimit:10;" x1="796.03" y1="252.73" x2="992.69" y2="252.8"></line>
		</g>
	</g>
	<g>
		<g>
			<g>
				<g>
					<g>
						<path style="fill:none;stroke:#000000;stroke-linecap:round;stroke-linejoin:round;stroke-miterlimit:10;" d="
							M1292.19,1778.21c-1.68-1.72-4.16-2.46-6.53-1.93c-5.21,1.16-14.99,3.67-25.06,7.95c-0.78,0.33-0.6,1.47,0.25,1.52
							c10.44,0.7,20.05-0.1,25.52-0.74"></path>
						<path style="fill:none;stroke:#000000;stroke-linecap:round;stroke-linejoin:round;stroke-miterlimit:10;" d="
							M1294.73,1780.69c2.06,1.94,4.98,2.7,7.75,2.01c5.21-1.3,14.29-3.86,23.82-7.95c0.79-0.34,0.58-1.47-0.28-1.53
							c-10.45-0.68-19.85,0.23-25.14,0.94c-1.13,2.37-3.23,4.16-5.82,4.88"></path>
					</g>
					<path style="fill:none;stroke:#000000;stroke-linecap:round;stroke-linejoin:round;stroke-miterlimit:10;" d="M1278.63,1808.46
						c2.11-10.19,5.41-18.42,7.35-22.73c0.93-2.08,2.56-3.77,4.62-4.81l2.02-1.01c0.44-0.22,0.97-0.01,1.14,0.44l0.62,1.71
						c1.01,2.76,0.68,5.81-0.85,8.33c-2.59,4.24-7.2,11.26-13.48,18.73C1279.52,1809.75,1278.46,1809.26,1278.63,1808.46z
						 M1306.84,1749.88c-6.51,7.83-11.24,15.61-13.78,20.15c-1.38,2.47-1.48,5.42-0.29,7.99l0.39,0.85
						c0.17,0.36,0.58,0.54,0.96,0.44l0.93-0.26c2.75-0.76,4.98-2.7,6.05-5.28c1.98-4.79,5.13-13.32,7.17-23.23
						C1308.44,1749.73,1307.37,1749.24,1306.84,1749.88z"></path>
					<g>
						<path style="fill:none;stroke:#000000;stroke-linecap:round;stroke-linejoin:round;stroke-miterlimit:10;" d="
							M1294.84,1783.95c0.61,1.14,1.51,2.1,2.65,2.78c4.1,2.4,12.84,7.11,23.67,10.63c0.8,0.26,1.42-0.71,0.84-1.3
							c-6.01-6.1-11.97-10.99-16.21-14.22c-1.21,0.33-2.35,0.63-3.32,0.87c-2.77,0.69-5.69-0.08-7.75-2.01l-0.81-0.76"></path>
						<path style="fill:none;stroke:#000000;stroke-linecap:round;stroke-linejoin:round;stroke-miterlimit:10;" d="
							M1293.16,1778.87l-0.39-0.85c-0.61-1.33-0.87-2.75-0.8-4.16c-0.67-1.02-1.59-1.88-2.72-2.46c-4.53-2.34-13.2-6.48-23.51-9.77
							c-0.8-0.25-1.42,0.72-0.84,1.3c6.27,6.29,12.69,11.16,17.12,14.22c1.36-0.34,2.62-0.64,3.65-0.87
							c2.37-0.53,4.85,0.21,6.53,1.93l0.87,0.89"></path>
					</g>
					<g>
						<path style="fill:none;stroke:#000000;stroke-linecap:round;stroke-linejoin:round;stroke-miterlimit:10;" d="
							M1292.11,1775.96c-0.13-0.7-0.18-1.4-0.14-2.1l0,0C1291.94,1774.56,1291.98,1775.26,1292.11,1775.96z"></path>
						<path style="fill:none;stroke:#000000;stroke-linecap:round;stroke-linejoin:round;stroke-miterlimit:10;" d="M1289.25,1771.4
							c1.13,0.58,2.05,1.44,2.72,2.46c0.07-1.32,0.42-2.63,1.09-3.82c0.3-0.54,0.64-1.14,1.01-1.77
							c-2.38-5.66-5.8-12.97-10.03-19.74c-0.44-0.71-1.58-0.37-1.52,0.45c0.59,7.49,2.06,14.96,3.46,20.79
							C1287.21,1770.37,1288.34,1770.92,1289.25,1771.4z"></path>
						<path style="fill:none;stroke:#000000;stroke-linecap:round;stroke-linejoin:round;stroke-miterlimit:10;" d="
							M1292.11,1775.97c0.14,0.7,0.35,1.39,0.66,2.05C1292.46,1777.36,1292.24,1776.67,1292.11,1775.97z"></path>
						<path style="fill:none;stroke:#000000;stroke-linecap:round;stroke-linejoin:round;stroke-miterlimit:10;" d="
							M1293.03,1791.19c2.37,5.59,5.72,12.68,9.83,19.26c0.44,0.71,1.58,0.37,1.52-0.45c-0.61-7.77-2.17-15.53-3.61-21.45
							c-1.27-0.69-2.39-1.32-3.27-1.83"></path>
						<path style="fill:none;stroke:#000000;stroke-linecap:round;stroke-linejoin:round;stroke-miterlimit:10;" d="
							M1292.11,1775.96c0,0,0,0.01,0,0.01C1292.11,1775.97,1292.11,1775.96,1292.11,1775.96z"></path>
					</g>
				</g>
				<g>
					
						<line style="fill:none;stroke:#000000;stroke-linecap:round;stroke-linejoin:round;stroke-miterlimit:10;" x1="1300.88" y1="1774.17" x2="1300.88" y2="1774.17"></line>
					<path style="fill:none;stroke:#000000;stroke-linecap:round;stroke-linejoin:round;stroke-miterlimit:10;" d="M1323.7,1751.14
						c0.54-0.89-0.51-1.9-1.42-1.37c-5.89,3.5-12.2,8.09-16.77,11.56c-1.56,5.17-3.21,9.5-4.41,12.42c-0.06,0.14-0.16,0.26-0.22,0.4
						c1.69-0.23,3.83-0.47,6.26-0.68C1311.61,1768.36,1317.92,1760.54,1323.7,1751.14z"></path>
					<path style="fill:none;stroke:#000000;stroke-linecap:round;stroke-linejoin:round;stroke-miterlimit:10;" d="M1302.79,1798.14
						c4.19,4.25,9.53,9.22,15.86,14.04c0.83,0.64,2-0.26,1.57-1.2c-2.6-5.63-6.51-12.62-9.34-17.53"></path>
					<path style="fill:none;stroke:#000000;stroke-linecap:round;stroke-linejoin:round;stroke-miterlimit:10;" d="M1313.02,1787.69
						c6.17,0.25,13.64,0.28,21.58-0.28c1.08-0.08,1.33-1.51,0.33-1.93c-6.92-2.92-13.62-5.06-19.36-6.64"></path>
					<path style="fill:none;stroke:#000000;stroke-linecap:round;stroke-linejoin:round;stroke-miterlimit:10;" d="M1288.2,1798.51
						c0.5,6.63,1.38,14.24,2.97,21.71c0.22,1.03,1.72,1.1,2,0.09c1.89-6.77,3.19-13.7,4.1-19.9"></path>
					<path style="fill:none;stroke:#000000;stroke-linecap:round;stroke-linejoin:round;stroke-miterlimit:10;" d="M1298.74,1760.79
						c-0.49-6.7-1.39-14.45-3-22.03c-0.22-1.03-1.72-1.1-2-0.09c-1.89,6.77-3.2,13.7-4.11,19.9c1.73,3.46,3.23,6.79,4.44,9.69"></path>
					<path style="fill:none;stroke:#000000;stroke-linecap:round;stroke-linejoin:round;stroke-miterlimit:10;" d="M1283.98,1760.16
						c-4.3-4.07-9.61-8.75-15.73-13.37c-0.84-0.63-2,0.27-1.56,1.2c3.15,6.71,6.64,12.67,9.79,17.54"></path>
					<path style="fill:none;stroke:#000000;stroke-linecap:round;stroke-linejoin:round;stroke-miterlimit:10;" d="M1282.02,1777.15
						"></path>
					<path style="fill:none;stroke:#000000;stroke-linecap:round;stroke-linejoin:round;stroke-miterlimit:10;" d="M1251.94,1773.49
						c6.84,2.9,13.54,5.1,19.33,6.76c4.07-1.33,7.75-2.35,10.75-3.1c-2.12-1.47-4.71-3.37-7.5-5.62c-6.36-0.36-14.07-0.5-22.21,0.05
						C1251.23,1771.65,1250.96,1773.07,1251.94,1773.49z"></path>
					<path style="fill:none;stroke:#000000;stroke-linecap:round;stroke-linejoin:round;stroke-miterlimit:10;" d="M1280.17,1785.6
						c-4.34,4.66-10.87,12.37-16.97,22.25c-0.55,0.88,0.51,1.9,1.41,1.37c6.47-3.8,12.11-7.63,16.66-10.96"></path>
				</g>
			</g>
			<g>
				<path style="fill:none;stroke:#000000;stroke-linecap:round;stroke-linejoin:round;stroke-miterlimit:10;" d="M1290.03,1756.04
					c-0.53,0.08-1.05,0.2-1.56,0.32"></path>
				<path style="fill:none;stroke:#000000;stroke-linecap:round;stroke-linejoin:round;stroke-miterlimit:10;" d="M1279.62,1799.44
					c0.36,0.25,0.72,0.49,1.09,0.71"></path>
				<path style="fill:none;stroke:#000000;stroke-linecap:round;stroke-linejoin:round;stroke-miterlimit:10;" d="M1270.03,1786
					c0.72,2.63,1.91,5.1,3.46,7.33"></path>
				<path style="fill:none;stroke:#000000;stroke-linecap:round;stroke-linejoin:round;stroke-miterlimit:10;" d="M1271.75,1769.19
					c-0.35,0.7-0.67,1.43-0.96,2.17"></path>
				<path style="fill:none;stroke:#000000;stroke-linecap:round;stroke-linejoin:round;stroke-miterlimit:10;" d="M1283.64,1757.95
					c-0.45,0.2-0.89,0.43-1.33,0.66"></path>
				<path style="fill:none;stroke:#000000;stroke-linecap:round;stroke-linejoin:round;stroke-miterlimit:10;" d="M1269.22,1779.64
					c0,0.44-0.01,0.88,0.01,1.32"></path>
				<path style="fill:none;stroke:#000000;stroke-linecap:round;stroke-linejoin:round;stroke-miterlimit:10;" d="M1317.62,1773.02
					c-0.83-2.73-2.15-5.29-3.88-7.56"></path>
				<path style="fill:none;stroke:#000000;stroke-linecap:round;stroke-linejoin:round;stroke-miterlimit:10;" d="M1316.1,1790.44
					c0.43-0.84,0.81-1.72,1.13-2.62"></path>
				<path style="fill:none;stroke:#000000;stroke-linecap:round;stroke-linejoin:round;stroke-miterlimit:10;" d="M1307.61,1759.78
					c-0.46-0.3-0.93-0.58-1.42-0.85"></path>
				<path style="fill:none;stroke:#000000;stroke-linecap:round;stroke-linejoin:round;stroke-miterlimit:10;" d="M1301.47,1756.9
					c-0.52-0.16-1.05-0.31-1.59-0.44c-0.52-0.12-1.03-0.2-1.54-0.29"></path>
				<path style="fill:none;stroke:#000000;stroke-linecap:round;stroke-linejoin:round;stroke-miterlimit:10;" d="M1312.29,1795.93
					c0.42-0.45,0.82-0.93,1.2-1.41"></path>
				<path style="fill:none;stroke:#000000;stroke-linecap:round;stroke-linejoin:round;stroke-miterlimit:10;" d="M1296.74,1803.71
					c0.71-0.08,1.4-0.19,2.1-0.32"></path>
				<path style="fill:none;stroke:#000000;stroke-linecap:round;stroke-linejoin:round;stroke-miterlimit:10;" d="M1285.35,1802.39
					c0.85,0.3,1.72,0.57,2.62,0.79c0.22,0.05,0.43,0.08,0.65,0.12"></path>
				<path style="fill:none;stroke:#000000;stroke-linecap:round;stroke-linejoin:round;stroke-miterlimit:10;" d="M1303.41,1802.02
					c0.77-0.31,1.52-0.66,2.25-1.05"></path>
				<path style="fill:none;stroke:#000000;stroke-linecap:round;stroke-linejoin:round;stroke-miterlimit:10;" d="M1318.62,1779.73
					c0-0.65-0.03-1.3-0.09-1.94"></path>
			</g>
		</g>
	</g>
	<g>
		<g>
			<g>
				
					<rect x="1326.76" y="1447.29" style="fill:none;stroke:#000000;stroke-linecap:round;stroke-linejoin:round;stroke-miterlimit:10;" width="14.9" height="221.82"></rect>
				<polygon style="fill:none;stroke:#000000;stroke-linecap:round;stroke-linejoin:round;stroke-miterlimit:10;" points="
					1356.55,1475.9 1341.65,1447.29 1341.65,1669.11 1356.55,1640.5 				"></polygon>
			</g>
		</g>
		<g>
			
				<rect x="1304.66" y="1415.25" transform="matrix(-1 1.895850e-05 -1.895850e-05 -1 2661.259 3118.1758)" style="fill:none;stroke:#000000;stroke-linecap:round;stroke-linejoin:round;stroke-miterlimit:10;" width="51.9" height="287.69"></rect>
		</g>
	</g>
	<g>
		<g>
			<g>
				<g>
					<path style="fill:none;stroke:#000000;stroke-linecap:round;stroke-linejoin:round;stroke-miterlimit:10;" d="M1255.09,1286.21
						c0.1-11.45,4.76-21.77,12.21-29.21c7.46-7.44,17.71-11.99,28.98-11.89c11.28,0.1,21.45,4.82,28.78,12.39
						c7.33,7.56,11.81,17.97,11.71,29.41c-0.1,11.45-4.76,21.77-12.21,29.21c-7.46,7.44-17.71,11.99-28.98,11.89
						c-11.28-0.1-21.45-4.82-28.78-12.39C1259.47,1308.05,1254.99,1297.65,1255.09,1286.21z"></path>
					<g>
						<path style="fill:none;stroke:#000000;stroke-linecap:round;stroke-linejoin:round;stroke-miterlimit:10;" d="
							M1295.48,1339.05c-9.56-0.08-18.5-2.81-26.15-7.49c-7.65-4.68-14.01-11.31-18.41-19.21c-0.8-1.43-0.89-3.05-0.41-4.48
							s1.54-2.66,3.03-3.32c0.02-0.01,0.03-0.01,0.05-0.02c0.02-0.01,0.03-0.01,0.05-0.02c1.23-0.55,2.57-0.56,3.77-0.13
							c1.2,0.43,2.25,1.29,2.91,2.48c3.47,6.26,8.49,11.51,14.54,15.22c6.05,3.71,13.13,5.87,20.71,5.93s14.7-1.97,20.81-5.57
							s11.23-8.77,14.8-14.97c0.68-1.18,1.75-2.02,2.95-2.43c1.2-0.41,2.54-0.37,3.77,0.2c0.02,0.01,0.03,0.02,0.05,0.02
							c0.02,0.01,0.03,0.02,0.05,0.02c1.48,0.69,2.51,1.94,2.97,3.37c0.46,1.43,0.34,3.05-0.48,4.47
							c-4.54,7.82-11.01,14.34-18.74,18.89S1305.04,1339.13,1295.48,1339.05z"></path>
					</g>
				</g>
				<g>
					<path style="fill:none;stroke:#000000;stroke-linecap:round;stroke-linejoin:round;stroke-miterlimit:10;" d="M1130.4,1285.03
						c0.1-11.45,4.76-21.77,12.21-29.21c7.46-7.44,17.71-11.99,28.98-11.89c11.28,0.1,21.45,4.82,28.78,12.39
						c7.33,7.56,11.81,17.97,11.71,29.41c-0.1,11.45-4.76,21.77-12.21,29.21s-17.71,11.99-28.98,11.89
						c-11.28-0.1-21.45-4.82-28.78-12.39S1130.3,1296.48,1130.4,1285.03z"></path>
					<g>
						<path style="fill:none;stroke:#000000;stroke-linecap:round;stroke-linejoin:round;stroke-miterlimit:10;" d="
							M1170.79,1337.87c-9.56-0.08-18.5-2.81-26.15-7.49c-7.65-4.68-14.01-11.31-18.41-19.21c-0.8-1.43-0.89-3.05-0.41-4.48
							c0.48-1.43,1.54-2.66,3.03-3.32c0.02-0.01,0.03-0.01,0.05-0.02c0.02-0.01,0.03-0.01,0.05-0.02c1.23-0.55,2.58-0.56,3.77-0.13
							c1.2,0.43,2.25,1.29,2.91,2.48c3.47,6.26,8.49,11.51,14.54,15.22s13.13,5.87,20.71,5.93c7.58,0.06,14.7-1.97,20.81-5.57
							c6.11-3.6,11.23-8.77,14.8-14.97c0.68-1.18,1.75-2.02,2.95-2.43c1.2-0.41,2.54-0.37,3.77,0.2c0.02,0.01,0.03,0.02,0.05,0.02
							c0.02,0.01,0.03,0.02,0.05,0.02c1.48,0.69,2.51,1.94,2.97,3.37c0.46,1.43,0.34,3.05-0.48,4.47
							c-4.54,7.82-11.01,14.34-18.74,18.89S1180.35,1337.96,1170.79,1337.87z"></path>
					</g>
				</g>
			</g>
			
				<rect x="1191.02" y="1104.35" transform="matrix(3.622151e-11 1 -1 3.622151e-11 2460.917 -7.7925)" style="fill:#FFFFFF;stroke:#000000;stroke-linecap:round;stroke-linejoin:round;stroke-miterlimit:10;" width="86.68" height="244.43"></rect>
		</g>
		<g>
			
				<ellipse style="fill:none;stroke:#000000;stroke-linecap:round;stroke-linejoin:round;stroke-miterlimit:10;" cx="1297.26" cy="925.31" rx="29.47" ry="28.69"></ellipse>
			
				<ellipse style="fill:none;stroke:#000000;stroke-linecap:round;stroke-linejoin:round;stroke-miterlimit:10;" cx="1289.32" cy="911.87" rx="8.47" ry="8.25"></ellipse>
			
				<ellipse style="fill:none;stroke:#000000;stroke-linecap:round;stroke-linejoin:round;stroke-miterlimit:10;" cx="1288.29" cy="928.36" rx="8.47" ry="8.25"></ellipse>
			
				<ellipse style="fill:none;stroke:#000000;stroke-linecap:round;stroke-linejoin:round;stroke-miterlimit:10;" cx="1303.81" cy="921.75" rx="8.47" ry="8.25"></ellipse>
			<path style="fill:none;stroke:#000000;stroke-linecap:round;stroke-linejoin:round;stroke-miterlimit:10;" d="M1317.81,919.57
				l-1.88-0.37l-1.16,7.16c-6.78,12.89-18.83,12.58-25.51,13c-1.55,0.1-1.99,2.12-0.63,2.84c4.81,2.55,12.73,5.37,20.12,1.72
				c8.45-4.18,8.51-12.61,7.91-16.93L1317.81,919.57z"></path>
		</g>
		<g>
			<g>
				<path style="fill:none;stroke:#000000;stroke-linecap:round;stroke-linejoin:round;stroke-miterlimit:10;" d="M1265.09,1234.62
					l-6.36-2.76c-0.13,0.54-0.28,1.08-0.51,1.61c-0.23,0.53-0.52,1.01-0.82,1.48l6.36,2.76c0.49,0.21,1.07-0.01,1.28-0.51l0.56-1.3
					C1265.81,1235.41,1265.58,1234.84,1265.09,1234.62z"></path>
				
					<circle style="fill:none;stroke:#000000;stroke-linecap:round;stroke-linejoin:round;stroke-miterlimit:10;" cx="1249.55" cy="1229.72" r="9.45"></circle>
			</g>
			<g>
				<path style="fill:none;stroke:#000000;stroke-linecap:round;stroke-linejoin:round;stroke-miterlimit:10;" d="M1209.45,1232.47
					l2.76-6.36c-0.54-0.13-1.08-0.28-1.61-0.51s-1.01-0.52-1.48-0.82l-2.76,6.36c-0.21,0.49,0.01,1.07,0.51,1.28l1.3,0.56
					C1208.66,1233.19,1209.23,1232.96,1209.45,1232.47z"></path>
				
					<circle style="fill:none;stroke:#000000;stroke-linecap:round;stroke-linejoin:round;stroke-miterlimit:10;" cx="1214.36" cy="1216.93" r="9.45"></circle>
			</g>
		</g>
	</g>
	<g>
		
			<line style="fill:none;stroke:#000000;stroke-linecap:round;stroke-linejoin:round;stroke-miterlimit:10;" x1="1250.87" y1="305.33" x2="1250.79" y2="252.05"></line>
		<g>
			<g>
				<polygon style="fill:none;stroke:#000000;stroke-linecap:round;stroke-linejoin:round;stroke-miterlimit:10;" points="
					1244.06,305.33 1244.06,258.86 1004.81,258.86 1004.81,134.23 1357.46,134.23 1357.46,305.33 				"></polygon>
				
					<line style="fill:none;stroke:#000000;stroke-linecap:round;stroke-linejoin:round;stroke-miterlimit:10;" x1="1250.79" y1="252.05" x2="1004.81" y2="252.12"></line>
			</g>
		</g>
	</g>
	<g>
		<path style="fill:none;stroke:#000000;stroke-linecap:round;stroke-linejoin:round;stroke-miterlimit:10;" d="M877.85,1079.16
			c-1.09,0.24-2.22,0.3-3.33,0.24c-8.34-0.46-15.35-7.08-16.38-15.37c-0.53-4.31,0.37-8.01,1.07-10.11
			c0.37-1.09,0.94-2.09,1.66-2.98l0,0c0.73-0.9,1.61-1.67,2.62-2.25c1.96-1.14,5.51-2.8,9.95-3.1c8.22-0.55,15.9,4.92,18.05,12.88
			c0.26,0.97,0.43,1.97,0.45,2.98"></path>
		<path style="fill:none;stroke:#000000;stroke-linecap:round;stroke-linejoin:round;stroke-miterlimit:10;" d="M859.96,1052.08
			c-14.38-8.2-20.14-26-13.69-40.94c0.64-1.48,2.32-2.21,3.83-1.67c1.64,0.58,2.48,2.4,1.83,4.01
			c-5.09,12.62-0.35,27.53,10.56,35.93"></path>
		<path style="fill:none;stroke:#000000;stroke-linecap:round;stroke-linejoin:round;stroke-miterlimit:10;" d="M887.17,1083.04
			c-1.45-3.16-1.09-7.01,1.25-9.9c2.33-2.86,5.98-3.99,9.35-3.25"></path>
		<path style="fill:none;stroke:#000000;stroke-linecap:round;stroke-linejoin:round;stroke-miterlimit:10;" d="M902.89,1072.96
			c2.06,2.4,2.73,5.65,1.92,8.62c0.79,1.42,0.7,3.24-0.4,4.58c-1.09,1.34-2.85,1.8-4.41,1.32c-2.71,1.38-5.99,1.39-8.74-0.09"></path>
		<path style="fill:none;stroke:#000000;stroke-linecap:round;stroke-linejoin:round;stroke-miterlimit:10;" d="M893.01,1086.04
			C892.68,1086.32,893.01,1086.04,893.01,1086.04c-2.33,1.78-5.49,3.07-6.38,3.34c-0.44,0.13-0.95-0.13-0.91-0.59
			c0.19-2.72,2.25-7.86,2.47-8.23c0.22-0.37,0.96-1.48,2.68-0.44"></path>
		<path style="fill:none;stroke:#000000;stroke-linecap:round;stroke-linejoin:round;stroke-miterlimit:10;" d="M895.61,1071.61
			c1.87-1.57,5.01-3.6,7.64-4.34c0.44-0.12,0.8,0.32,0.76,0.78c-0.09,0.92-0.71,4.28-1.98,6.92l0,0"></path>
		
			<line style="fill:none;stroke:#000000;stroke-linecap:round;stroke-linejoin:round;stroke-miterlimit:10;" x1="897.04" y1="1086.06" x2="900.02" y2="1085.45"></line>
		
			<line style="fill:none;stroke:#000000;stroke-linecap:round;stroke-linejoin:round;stroke-miterlimit:10;" x1="902.47" y1="1079.37" x2="903" y2="1082.23"></line>
		<polygon style="fill:none;stroke:#000000;stroke-linecap:round;stroke-linejoin:round;stroke-miterlimit:10;" points="
			902.3,1085.87 903.76,1084.07 904.07,1085.85 		"></polygon>
		<path style="fill:none;stroke:#000000;stroke-linecap:round;stroke-linejoin:round;stroke-miterlimit:10;" d="M886.63,1089.38
			c0,0,3.18-4.36,5.88-6.39"></path>
		<path style="fill:none;stroke:#000000;stroke-linecap:round;stroke-linejoin:round;stroke-miterlimit:10;" d="M903.85,1067.47
			c-2.54,1.97-4.82,6.6-4.82,6.6s0.17,0.72,1.16,0.95"></path>
		<g>
			<path style="fill:none;stroke:#000000;stroke-linecap:round;stroke-linejoin:round;stroke-miterlimit:10;" d="M881.49,1061.17
				c3.88-1.85,8.63-1.47,12.19,1.43c2.34,1.91,3.71,4.56,4.09,7.33"></path>
			<path style="fill:none;stroke:#000000;stroke-linecap:round;stroke-linejoin:round;stroke-miterlimit:10;" d="M887.17,1082.94
				c-2.8,0.18-5.66-0.62-8.01-2.52c-3.51-2.86-4.85-7.35-3.9-11.48"></path>
		</g>
	</g>
</g>
<g id="floor">
	<g>
		<g id="LWPOLYLINE_3_">
			
				<rect x="1242.17" y="982.69" style="fill:none;stroke:#000000;stroke-linecap:round;stroke-linejoin:round;stroke-miterlimit:10;" width="114.4" height="114.4"></rect>
		</g>
		<g id="LWPOLYLINE_2_">
			<path style="fill:none;stroke:#000000;stroke-linecap:round;stroke-linejoin:round;stroke-miterlimit:10;" d="M1258.37,1087.56
				l72.41,0c3.69,0,6.67-2.99,6.68-6.67c0,0,0-81.99,0-81.99c0-3.69-2.99-6.68-6.67-6.68c0,0-72.41,0-72.41,0
				c-3.68,0-6.67,2.99-6.67,6.67c0,0,0,82,0,82C1251.7,1084.57,1254.69,1087.56,1258.37,1087.56z"></path>
		</g>
		<g id="LWPOLYLINE_1_">
			<path style="fill:none;stroke:#000000;stroke-linecap:round;stroke-linejoin:round;stroke-miterlimit:10;" d="M1312.22,1058.96
				c0,3.69,2.99,6.69,6.69,6.69c3.69,0,6.69-2.99,6.69-6.69c0-3.69-2.99-6.69-6.69-6.69
				C1315.22,1052.27,1312.22,1055.27,1312.22,1058.96z"></path>
		</g>
	</g>
	<g>
		<g>
			<g id="LWPOLYLINE_48_">
				
					<rect x="1010.45" y="716.64" style="fill:none;stroke:#000000;stroke-linecap:round;stroke-linejoin:round;stroke-miterlimit:10;" width="327.17" height="133.89"></rect>
			</g>
			<g id="LWPOLYLINE_47_">
				<path style="fill:none;stroke:#000000;stroke-linecap:round;stroke-linejoin:round;stroke-miterlimit:10;" d="M1056.66,839.82
					l212.8-0.01c31.25,0,56.58-25.18,56.57-56.23c0-31.05-25.34-56.23-56.59-56.23l-212.8,0.01c-14.93,0-27.09,11.93-27.26,26.77
					l0.01,58.91c0,14.79,12.07,26.78,26.95,26.78"></path>
			</g>
			<g id="LWPOLYLINE_46_">
				<path style="fill:none;stroke:#000000;stroke-linecap:round;stroke-linejoin:round;stroke-miterlimit:10;" d="M1123.93,824.52
					l145.53-0.01c22.75,0,41.19-18.33,41.19-40.93s-18.45-40.93-41.2-40.93l-143.4,0.01c-21.91,0.02-39.98,17.07-41.12,38.82
					C1083.73,804.07,1101.2,823.34,1123.93,824.52z"></path>
			</g>
			<g id="LWPOLYLINE_45_">
				<path style="fill:none;stroke:#000000;stroke-linecap:round;stroke-linejoin:round;stroke-miterlimit:10;" d="M1276.99,783.58
					c0-4.14-3.38-7.49-7.54-7.49c-4.17,0-7.54,3.36-7.54,7.49c0,4.14,3.38,7.5,7.54,7.49C1273.62,791.08,1277,787.72,1276.99,783.58
					z"></path>
			</g>
		</g>
		<g>
			<g id="LWPOLYLINE_94_">
				<path style="fill:none;stroke:#000000;stroke-linecap:round;stroke-linejoin:round;stroke-miterlimit:10;" d="M1270.86,486.06
					l-53.36,0c-18.57,0-33.62,15.37-33.62,34.32c0,18.96,15.05,34.33,33.62,34.33l53.36,0c4.64,0,8.4-3.84,8.4-8.58l0-51.5
					C1279.26,489.89,1275.5,486.05,1270.86,486.06z"></path>
			</g>
			<g id="LWPOLYLINE_93_">
				<path style="fill:none;stroke:#000000;stroke-linecap:round;stroke-linejoin:round;stroke-miterlimit:10;" d="M1217.5,547.85
					l29.84-0.01c14.85,0,26.89-12.29,26.89-27.46c0-15.17-12.04-27.47-26.89-27.47l-29.84,0.01c-14.85,0-26.89,12.29-26.89,27.46
					C1190.61,535.55,1202.65,547.85,1217.5,547.85z"></path>
			</g>
			<g id="LWPOLYLINE_92_">
				<path style="fill:none;stroke:#000000;stroke-linecap:round;stroke-linejoin:round;stroke-miterlimit:10;" d="M1228.32,530.69
					l21.81-0.01c5.57,0,10.08-4.61,10.08-10.3c0-5.69-4.52-10.3-10.08-10.3l-21.81,0.01c-5.57,0-10.08,4.61-10.08,10.3
					C1218.24,526.07,1222.75,530.69,1228.32,530.69z"></path>
			</g>
		</g>
		<g>
			<g>
				<g id="LWPOLYLINE_147_">
					<path style="fill:none;stroke:#000000;stroke-linecap:round;stroke-linejoin:round;stroke-miterlimit:10;" d="M1337.82,608.26
						l-50.86,0.13c-7.16,0.02-13.5,4.56-15.68,11.25c-7.9,24.26-7.83,50.33,0.2,74.55c2.21,6.67,8.57,11.18,15.74,11.17l50.86-0.13"></path>
				</g>
				<g id="LWPOLYLINE_146_">
					<path style="fill:none;stroke:#000000;stroke-linecap:round;stroke-linejoin:round;stroke-miterlimit:10;" d="M1323.79,682.63
						c0.01,5.35-4.41,9.71-9.88,9.72l-15.85,0.04c-3.63,0.01-6.83-2.3-7.9-5.69c-6.13-19.43-6.19-40.21-0.16-59.68
						c1.05-3.4,4.25-5.72,7.87-5.73l15.85-0.04c5.47-0.01,9.91,4.32,9.93,9.67"></path>
				</g>
				<g id="LWPOLYLINE_145_">
					<path style="fill:none;stroke:#000000;stroke-linecap:round;stroke-linejoin:round;stroke-miterlimit:10;" d="M1313.7,614.78
						l-26.72,0.07c-4.3,0.01-8.1,2.73-9.41,6.74c-7.49,22.97-7.42,47.66,0.19,70.59c1.33,4,5.14,6.71,9.44,6.7l26.72-0.07
						c5.47-0.01,9.89-4.37,9.88-9.72l-0.18-64.64C1323.61,619.1,1319.17,614.77,1313.7,614.78z"></path>
				</g>
				<g id="LWPOLYLINE_144_">
					<path style="fill:none;stroke:#000000;stroke-linecap:round;stroke-linejoin:round;stroke-miterlimit:10;" d="M1320.77,656.78
						c-0.01-2.4-2-4.35-4.45-4.34c-2.45,0.01-4.43,1.96-4.43,4.36c0.01,2.4,2,4.34,4.45,4.34
						C1318.79,661.14,1320.78,659.18,1320.77,656.78z"></path>
				</g>
			</g>
		</g>
	</g>
	<g>
		<path style="fill:none;stroke:#000000;stroke-linecap:round;stroke-linejoin:round;stroke-miterlimit:10;" d="M778.15,267.13
			c-97.27,0-176.9,78.69-176.9,175.96H776.7"></path>
		
			<rect x="781.12" y="438.67" transform="matrix(1.346781e-10 -1 1 1.346781e-10 338.0309 1234.6947)" style="fill:none;stroke:#000000;stroke-linecap:round;stroke-linejoin:round;stroke-miterlimit:10;" width="10.48" height="19.32"></rect>
		
			<rect x="781.12" y="252.23" transform="matrix(1.346781e-10 -1 1 1.346781e-10 524.4728 1048.2528)" style="fill:none;stroke:#000000;stroke-linecap:round;stroke-linejoin:round;stroke-miterlimit:10;" width="10.48" height="19.32"></rect>
	</g>
	<g>
		<g id="LWPOLYLINE_272_">
			
				<rect x="1147.24" y="867.69" style="fill:none;stroke:#000000;stroke-linecap:round;stroke-linejoin:round;stroke-miterlimit:10;" width="57.15" height="115"></rect>
		</g>
		<g id="LWPOLYLINE_271_">
			
				<line style="fill:none;stroke:#000000;stroke-linecap:round;stroke-linejoin:round;stroke-miterlimit:10;" x1="1175.81" y1="973.17" x2="1175.81" y2="935.07"></line>
		</g>
		<g id="LWPOLYLINE_270_">
			
				<line style="fill:none;stroke:#000000;stroke-linecap:round;stroke-linejoin:round;stroke-miterlimit:10;" x1="1194.86" y1="954.12" x2="1156.76" y2="954.12"></line>
		</g>
		<g id="CIRCLE_173_">
			<path style="fill:none;stroke:#000000;stroke-linecap:round;stroke-linejoin:round;stroke-miterlimit:10;" d="M1160.57,954.13
				c0-8.42,6.83-15.25,15.25-15.25c8.42,0,15.25,6.83,15.25,15.25c0,8.42-6.83,15.25-15.25,15.25
				C1167.4,969.37,1160.57,962.55,1160.57,954.13L1160.57,954.13z"></path>
		</g>
		<g id="LWPOLYLINE_269_">
			
				<line style="fill:none;stroke:#000000;stroke-linecap:round;stroke-linejoin:round;stroke-miterlimit:10;" x1="1175.81" y1="916.02" x2="1175.81" y2="877.92"></line>
		</g>
		<g id="LWPOLYLINE_268_">
			
				<line style="fill:none;stroke:#000000;stroke-linecap:round;stroke-linejoin:round;stroke-miterlimit:10;" x1="1194.86" y1="896.97" x2="1156.76" y2="896.97"></line>
		</g>
		<g id="CIRCLE_172_">
			<path style="fill:none;stroke:#000000;stroke-linecap:round;stroke-linejoin:round;stroke-miterlimit:10;" d="M1160.57,896.97
				c0-8.42,6.82-15.24,15.24-15.24c8.42,0,15.24,6.82,15.24,15.24s-6.82,15.24-15.24,15.24
				C1167.4,912.22,1160.57,905.39,1160.57,896.97L1160.57,896.97z"></path>
		</g>
	</g>
	
		<line style="fill:none;stroke:#000000;stroke-linecap:round;stroke-linejoin:round;stroke-miterlimit:10;stroke-dasharray:10,10;" x1="1003.74" y1="860.92" x2="786.69" y2="860.92"></line>
	
		<line style="fill:none;stroke:#000000;stroke-linecap:round;stroke-linejoin:round;stroke-miterlimit:10;stroke-dasharray:10,10;" x1="1377.61" y1="1183.47" x2="794.93" y2="1183.47"></line>
	
		<line style="fill:none;stroke:#000000;stroke-linecap:round;stroke-linejoin:round;stroke-miterlimit:10;stroke-dasharray:10,10;" x1="999.49" y1="253.27" x2="999.3" y2="438.82"></line>
	<g>
		<g id="LWPOLYLINE_325_">
			
				<rect x="1244.06" y="305.33" style="fill:none;stroke:#000000;stroke-linecap:round;stroke-linejoin:round;stroke-miterlimit:10;" width="112.51" height="114.79"></rect>
		</g>
		<g>
			<g id="LWPOLYLINE_324_">
				<polyline style="fill:none;stroke:#000000;stroke-linecap:round;stroke-linejoin:round;stroke-miterlimit:10;" points="
					1336.73,390.64 1300.31,348.39 1300.31,377.07 1263.9,334.82 				"></polyline>
			</g>
			<g id="LWPOLYLINE_323_">
				<path style="fill:none;stroke:#000000;stroke-linecap:round;stroke-linejoin:round;stroke-miterlimit:10;" d="M1300.31,394.6
					c-17.6,0-31.87-14.27-31.87-31.87c0-17.6,14.27-31.87,31.87-31.88c17.61,0,31.88,14.27,31.88,31.88
					C1332.19,380.34,1317.91,394.6,1300.31,394.6z"></path>
			</g>
		</g>
	</g>
	<g>
		<path style="fill:none;stroke:#000000;stroke-linecap:round;stroke-linejoin:round;stroke-miterlimit:10;" d="M996.5,698.04
			c-75.83,0-137.9-61.34-137.9-137.17h136.77"></path>
		
			<rect x="998.82" y="549.25" transform="matrix(-1.803315e-10 1 -1 -1.803315e-10 1559.6888 -446.1231)" style="fill:none;stroke:#000000;stroke-linecap:round;stroke-linejoin:round;stroke-miterlimit:10;" width="8.17" height="15.06"></rect>
		
			<rect x="998.82" y="694.59" transform="matrix(-1.823352e-10 1 -1 -1.823352e-10 1705.0306 -300.7813)" style="fill:none;stroke:#000000;stroke-linecap:round;stroke-linejoin:round;stroke-miterlimit:10;" width="8.17" height="15.06"></rect>
	</g>
	<g>
		
			<rect x="892.12" y="1836.79" transform="matrix(-1 -2.504171e-10 2.504171e-10 -1 2188.6133 3736.7007)" style="fill:none;stroke:#000000;stroke-linecap:round;stroke-linejoin:round;stroke-miterlimit:10;" width="404.37" height="63.12"></rect>
		
			<rect x="1162.78" y="1869.31" transform="matrix(-1 -2.685235e-10 2.685235e-10 -1 2333.6001 3755.8293)" style="fill:none;stroke:#000000;stroke-linecap:round;stroke-linejoin:round;stroke-miterlimit:10;" width="8.03" height="17.22"></rect>
		
			<rect x="892.12" y="1869.31" transform="matrix(-1 -2.664212e-10 2.664212e-10 -1 1793.5486 3755.8293)" style="fill:none;stroke:#000000;stroke-linecap:round;stroke-linejoin:round;stroke-miterlimit:10;" width="9.31" height="17.22"></rect>
		
			<rect x="1287.05" y="1869.31" transform="matrix(-1 -2.672566e-10 2.672566e-10 -1 2583.5437 3755.8293)" style="fill:none;stroke:#000000;stroke-linecap:round;stroke-linejoin:round;stroke-miterlimit:10;" width="9.44" height="17.22"></rect>
		
			<rect x="1170.82" y="1869.31" transform="matrix(-1 -2.695121e-10 2.695121e-10 -1 2457.8689 3755.8293)" style="fill:none;stroke:#000000;stroke-linecap:round;stroke-linejoin:round;stroke-miterlimit:10;" width="116.23" height="17.22"></rect>
		
			<rect x="901.43" y="1869.31" transform="matrix(-1 -2.400650e-10 2.400650e-10 -1 2064.2102 3755.8293)" style="fill:none;stroke:#000000;stroke-linecap:round;stroke-linejoin:round;stroke-miterlimit:10;" width="261.36" height="17.22"></rect>
	</g>
	<g id="_x31_">
		
			<rect x="476.78" y="979.81" transform="matrix(-1.346898e-10 1 -1 -1.346898e-10 2376.6963 -376.7588)" width="1799.89" height="40.32"></rect>
		
			<rect x="1315.52" y="1816.86" transform="matrix(-1.346862e-10 1 -1 -1.346862e-10 3215.4336 521.2672)" width="63.12" height="102.98"></rect>
		
			<rect x="794.17" y="1800.46" transform="matrix(-1.346862e-10 1 -1 -1.346862e-10 2694.0815 1042.619)" width="63.12" height="135.77"></rect>
		
			<rect x="1131.12" y="626.64" transform="matrix(-1.346915e-10 1 -1 -1.346915e-10 1998.6604 -710.9927)" width="447.42" height="34.4"></rect>
		
			<rect x="1302.66" y="560.2" transform="matrix(-1.346622e-10 1 -1 -1.346622e-10 1900.5067 -719.0645)" width="14.25" height="61.05"></rect>
		
			<rect x="1209.54" y="502.94" transform="matrix(-1.346907e-10 1 -1 -1.346907e-10 1796.3887 -776.3174)" width="153.63" height="14.18"></rect>
		
			<rect x="1166.97" y="261.72" transform="matrix(-1.346276e-10 1 -1 -1.346276e-10 1604.3285 -746.7996)" width="17.19" height="334.09"></rect>
		
			<rect x="934.76" y="477.82" transform="matrix(-1.346907e-10 1 -1 -1.346907e-10 1487.9408 -514.5882)" width="133.01" height="17.71"></rect>
		
			<rect x="927.92" y="770.88" transform="matrix(-1.346960e-10 1 -1 -1.346960e-10 1781.3151 -221.7108)" width="147.18" height="17.85"></rect>
		
			<rect x="1179.55" y="663.57" transform="matrix(-1.346187e-10 1 -1 -1.346187e-10 2047.4781 -329.0178)" width="17.39" height="391.32"></rect>
		
			<rect x="1049.93" y="-192.06" transform="matrix(-1.347155e-10 1 -1 -1.347155e-10 1184.1537 -949.902)" width="34.2" height="618.37"></rect>
		
			<rect x="928.31" y="189.46" transform="matrix(-1.346782e-10 1 -1 -1.346782e-10 1195.7064 -803.2341)" width="142.33" height="13.54"></rect>
		
			<rect x="698.57" y="159.19" transform="matrix(-1.346924e-10 1 -1 -1.346924e-10 955.2155 -598.6534)" width="156.74" height="38.18"></rect>
		
			<rect x="54.26" y="1157.93" transform="matrix(-1.346898e-10 1 -1 -1.346898e-10 1954.1775 399.6389)" width="1446.01" height="37.96"></rect>
		
			<rect x="789.39" y="853.19" transform="matrix(-1.347599e-10 1 -1 -1.347599e-10 1657.0056 64.8377)" width="13.39" height="15.46"></rect>
	</g>
</g>
</svg>
