<?xml version="1.0" encoding="utf-8"?>
<!-- Generator: Adobe Illustrator 24.1.2, SVG Export Plug-In . SVG Version: 6.00 Build 0)  -->
<svg version="1.0" id="Layer_1" xmlns="http://www.w3.org/2000/svg" xmlns:xlink="http://www.w3.org/1999/xlink" x="0px" y="0px" width="2000px" height="2000px" viewBox="0 0 2000 2000" style="enable-background:new 0 0 2000 2000;" xml:space="preserve">
<path id="background" style="fill:#FFFFFF;" d="M1482.84,100.73v11v85.79v1465.01v59.39h-186.98v-20.24c0,0,0,0,0,0h-10.27v197.59
	c0,0.01,0,0.01,0,0.02c0,0.01,0,0.01,0,0.02c0,0.05-0.02,0.09-0.03,0.13c-0.01,0.04-0.01,0.08-0.03,0.12
	c-0.02,0.05-0.05,0.08-0.08,0.13c-0.02,0.03-0.04,0.07-0.07,0.1c-0.04,0.04-0.09,0.07-0.14,0.09c-0.03,0.02-0.06,0.04-0.09,0.06
	c-0.09,0.04-0.18,0.06-0.28,0.06c0,0,0,0,0,0c0,0,0,0,0,0c0,0,0,0,0,0c-0.01,0-0.03,0-0.04,0c-53.28-3.06-102.98-25.95-139.94-64.44
	c-34.98-36.43-55.52-83.69-58.39-133.88h-10.6v20.24H517.16v-59.39V197.52v-85.79v-11h87.26c0,0,0,0,0,0c0-0.4,0.33-0.73,0.73-0.73
	h263.97c0.4,0,0.73,0.33,0.73,0.73c0,0,0,0,0,0h262.51c0,0,0,0,0,0c0-0.4,0.33-0.73,0.73-0.73h263.96c0.4,0,0.73,0.33,0.73,0.73
	c0,0,0,0,0,0H1482.84z"></path>
<g id="h1">
	<path id="h1_path" style="fill:none;" d="M963.28,1284.18h493.17v401.11H963.28V1284.18z"></path>
	<text id="h1_text" transform="matrix(1 0 0 1 1206.4764 1414.7488)" style="font-family: GraphikLCG-Regular; font-size: 40px; text-anchor: middle; text-align: center;"></text>
</g>
<g id="c1">
	<path id="c1_path" style="fill:none;" d="M1456.44,1284.18H546.96V945.42h909.48v338.76H1456.44z"></path>
	<text id="c1_text" transform="matrix(1 0 0 1 1004.7987 1069.5417)" style="font-family: GraphikLCG-Regular; font-size: 40px; text-anchor: middle; text-align: center;"></text>
</g>
<g id="s1">
	<path id="s1_path" style="fill:none;" d="M963.28,1685.29H546.96v-401.11h416.32V1685.29z"></path>
	<text id="s1_text" transform="matrix(1 0 0 1 874.3749 1531.739)" style="font-family: GraphikLCG-Regular; font-size: 40px; text-anchor: middle; text-align: center;"></text>
</g>
<g id="r1">
	<path id="r1_path" style="fill:none;" d="M1456.44,945.42H546.96V100.87h909.48v844.56H1456.44z"></path>
	<text id="r1_text" transform="matrix(1 0 0 1 1004.7987 608.7214)" style="font-family: GraphikLCG-Regular; font-size: 40px; text-anchor: middle; text-align: center;"></text>
</g>
<g id="mebel">
	<g>
		<g>
			
				<rect x="1408.95" y="370.26" style="fill:none;stroke:#000000;stroke-linecap:round;stroke-linejoin:round;stroke-miterlimit:10;" width="9.94" height="203.25"></rect>
			<polygon style="fill:none;stroke:#000000;stroke-linecap:round;stroke-linejoin:round;stroke-miterlimit:10;" points="
				1428.84,395.67 1418.89,370.26 1418.89,573.51 1428.84,548.1 			"></polygon>
		</g>
		
			<rect x="1350.73" y="319.45" style="fill:none;stroke:#000000;stroke-linecap:round;stroke-linejoin:round;stroke-miterlimit:10;" width="78.11" height="304.87"></rect>
	</g>
	<g>
		<polygon style="fill:none;stroke:#000000;stroke-linecap:round;stroke-linejoin:round;stroke-miterlimit:10;" points="
			1306.44,1271.41 1435.69,1271.41 1435.69,1142.17 1306.44,1142.15 		"></polygon>
		<g>
			
				<line style="fill:none;stroke:#000000;stroke-linecap:round;stroke-linejoin:round;stroke-miterlimit:10;" x1="1371.06" y1="1175.14" x2="1371.06" y2="1238.42"></line>
			
				<line style="fill:none;stroke:#000000;stroke-linecap:round;stroke-linejoin:round;stroke-miterlimit:10;" x1="1339.42" y1="1206.78" x2="1402.71" y2="1206.78"></line>
			<polyline style="fill:none;stroke:#000000;stroke-linecap:round;stroke-linejoin:round;stroke-miterlimit:10;" points="
				1355.24,1182.17 1371.06,1190.96 1386.89,1182.17 			"></polyline>
			<polyline style="fill:none;stroke:#000000;stroke-linecap:round;stroke-linejoin:round;stroke-miterlimit:10;" points="
				1395.68,1190.96 1386.89,1206.78 1395.68,1222.6 			"></polyline>
			<polyline style="fill:none;stroke:#000000;stroke-linecap:round;stroke-linejoin:round;stroke-miterlimit:10;" points="
				1386.89,1231.39 1371.06,1222.6 1355.24,1231.39 			"></polyline>
			<polyline style="fill:none;stroke:#000000;stroke-linecap:round;stroke-linejoin:round;stroke-miterlimit:10;" points="
				1346.45,1222.6 1355.24,1206.78 1346.45,1190.96 			"></polyline>
		</g>
	</g>
	<g>
		<path style="fill:none;stroke:#000000;stroke-linecap:round;stroke-linejoin:round;stroke-miterlimit:10;" d="M614.99,505.03
			V260.53c0-3.09,2.51-5.6,5.6-5.6h132.6c3.09,0,5.6,2.51,5.6,5.6v244.51c0,3.09-2.51,5.6-5.6,5.6h-132.6
			C617.49,510.64,614.99,508.13,614.99,505.03z"></path>
		<path style="fill:none;stroke:#000000;stroke-linecap:round;stroke-linejoin:round;stroke-miterlimit:10;" d="M614.99,505.03
			V260.53c0-3.09-2.51-5.6-5.6-5.6h-34c-3.09,0-5.6,2.51-5.6,5.6v244.51c0,3.09,2.51,5.6,5.6,5.6h34
			C612.48,510.64,614.99,508.13,614.99,505.03z"></path>
		<path style="fill:none;stroke:#000000;stroke-linecap:round;stroke-linejoin:round;stroke-miterlimit:10;" d="M614.99,516.24
			v244.51c0,3.09,2.51,5.6,5.6,5.6h132.6c3.09,0,5.6-2.51,5.6-5.6V516.24c0-3.09-2.51-5.6-5.6-5.6h-132.6
			C617.49,510.64,614.99,513.15,614.99,516.24z"></path>
		<path style="fill:none;stroke:#000000;stroke-linecap:round;stroke-linejoin:round;stroke-miterlimit:10;" d="M614.99,516.24
			v244.51c0,3.09-2.51,5.6-5.6,5.6h-34c-3.09,0-5.6-2.51-5.6-5.6V516.24c0-3.09,2.51-5.6,5.6-5.6h34
			C612.48,510.64,614.99,513.15,614.99,516.24z"></path>
	</g>
	<g>
		<g>
			<g>
				<g>
					<path style="fill:none;stroke:#000000;stroke-linecap:round;stroke-linejoin:round;stroke-miterlimit:10;" d="M741.81,1079.33
						c10.06,0,19.48-2.75,27.56-7.53c8.08-4.78,14.83-11.6,19.53-19.73c0.85-1.48,0.96-3.15,0.47-4.63s-1.59-2.77-3.15-3.47
						c-0.02-0.01-0.03-0.02-0.05-0.02c-0.02-0.01-0.03-0.02-0.05-0.02c-1.29-0.58-2.7-0.6-3.96-0.17c-1.26,0.43-2.38,1.31-3.08,2.54
						c-3.7,6.45-9.03,11.85-15.43,15.64c-6.4,3.79-13.86,5.96-21.83,5.96c-7.97,0-15.44-2.17-21.83-5.96
						c-6.4-3.79-11.72-9.19-15.43-15.64c-0.71-1.23-1.82-2.11-3.08-2.54c-1.26-0.43-2.67-0.41-3.96,0.17
						c-0.02,0.01-0.03,0.02-0.05,0.02c-0.02,0.01-0.03,0.02-0.05,0.02c-1.56,0.7-2.66,1.99-3.15,3.47c-0.5,1.48-0.39,3.16,0.47,4.63
						c4.7,8.14,11.45,14.95,19.53,19.73C722.34,1076.59,731.76,1079.33,741.81,1079.33z"></path>
				</g>
			</g>
		</g>
		<g>
			<g>
				<g>
					<path style="fill:none;stroke:#000000;stroke-linecap:round;stroke-linejoin:round;stroke-miterlimit:10;" d="M877.63,1079.33
						c10.06,0,19.48-2.75,27.56-7.53c8.08-4.78,14.83-11.6,19.53-19.73c0.85-1.48,0.96-3.15,0.47-4.63
						c-0.5-1.48-1.59-2.77-3.15-3.47c-0.02-0.01-0.03-0.02-0.05-0.02c-0.02-0.01-0.03-0.02-0.05-0.02c-1.29-0.58-2.7-0.6-3.96-0.17
						c-1.26,0.43-2.38,1.31-3.08,2.54c-3.7,6.45-9.03,11.85-15.43,15.64c-6.4,3.79-13.86,5.96-21.83,5.96
						c-7.97,0-15.44-2.17-21.83-5.96c-6.4-3.79-11.72-9.19-15.43-15.64c-0.71-1.23-1.82-2.11-3.08-2.54
						c-1.26-0.43-2.67-0.41-3.96,0.17c-0.02,0.01-0.03,0.02-0.05,0.02c-0.02,0.01-0.03,0.02-0.05,0.02
						c-1.56,0.7-2.66,1.99-3.15,3.47c-0.5,1.48-0.39,3.16,0.47,4.63c4.7,8.14,11.45,14.95,19.53,19.73
						C858.15,1076.59,867.58,1079.33,877.63,1079.33z"></path>
				</g>
			</g>
		</g>
		<path style="fill:none;stroke:#000000;stroke-linecap:round;stroke-linejoin:round;stroke-miterlimit:10;" d="M778.51,1002.62
			c3.97,6.51,6.25,14.15,6.25,22.32c0,23.72-19.23,42.95-42.95,42.95c-23.72,0-42.95-19.23-42.95-42.95
			c0-8.17,2.28-15.81,6.25-22.32L778.51,1002.62z"></path>
		<path style="fill:none;stroke:#000000;stroke-linecap:round;stroke-linejoin:round;stroke-miterlimit:10;" d="M699.67,1043.46
			c-4.38,0-7.06,4.75-4.89,8.56c9.32,16.32,26.89,27.32,47.04,27.32c20.14,0,37.71-11,47.04-27.32c2.17-3.81-0.51-8.56-4.89-8.56h0
			c-2.08,0-3.92,1.19-4.96,2.99c-7.43,12.82-21.3,21.44-37.18,21.44s-29.75-8.62-37.18-21.44
			C703.59,1044.65,701.75,1043.46,699.67,1043.46L699.67,1043.46z"></path>
		<path style="fill:none;stroke:#000000;stroke-linecap:round;stroke-linejoin:round;stroke-miterlimit:10;" d="M914.32,1002.62
			c3.97,6.51,6.25,14.15,6.25,22.32c0,23.72-19.23,42.95-42.95,42.95c-23.72,0-42.95-19.23-42.95-42.95
			c0-8.17,2.28-15.81,6.25-22.32L914.32,1002.62z"></path>
		<path style="fill:none;stroke:#000000;stroke-linecap:round;stroke-linejoin:round;stroke-miterlimit:10;" d="M835.49,1043.46
			c-4.38,0-7.06,4.75-4.89,8.56c9.32,16.32,26.89,27.32,47.04,27.32c20.14,0,37.71-11,47.04-27.32c2.17-3.81-0.51-8.56-4.89-8.56
			l0,0c-2.08,0-3.92,1.19-4.96,2.99c-7.43,12.82-21.3,21.44-37.18,21.44c-15.88,0-29.75-8.62-37.18-21.44
			C839.4,1044.65,837.57,1043.46,835.49,1043.46L835.49,1043.46z"></path>
		
			<line style="fill:none;stroke:#000000;stroke-linecap:round;stroke-linejoin:round;stroke-miterlimit:10;" x1="778.51" y1="1002.63" x2="705.12" y2="1002.63"></line>
		<polyline style="fill:none;stroke:#000000;stroke-linecap:round;stroke-linejoin:round;stroke-miterlimit:10;" points="
			705.12,1002.63 569.13,1002.63 569.13,904.51 960.54,904.51 960.54,1002.63 778.51,1002.63 		"></polyline>
	</g>
	<g>
		
			<rect x="1309.07" y="1291.87" transform="matrix(6.123234e-17 -1 1 6.123234e-17 11.6961 2727.9209)" style="fill:none;stroke:#000000;stroke-linecap:round;stroke-linejoin:round;stroke-miterlimit:10;" width="121.49" height="132.48"></rect>
		
			<line style="fill:none;stroke:#000000;stroke-linecap:round;stroke-linejoin:round;stroke-miterlimit:10;" x1="1309.14" y1="1418.86" x2="1309.14" y2="1297.37"></line>
	</g>
	<g>
		
			<rect x="1274.62" y="977.41" transform="matrix(6.123234e-17 -1 1 6.123234e-17 329.1932 2416.4998)" style="fill:none;stroke:#000000;stroke-linecap:round;stroke-linejoin:round;stroke-miterlimit:10;" width="196.45" height="132.48"></rect>
		
			<line style="fill:none;stroke:#000000;stroke-linecap:round;stroke-linejoin:round;stroke-miterlimit:10;" x1="1312.18" y1="1141.88" x2="1312.18" y2="945.43"></line>
	</g>
	<g>
		
			<rect x="1261.77" y="1486.42" transform="matrix(6.123234e-17 -1 1 6.123234e-17 -156.399 2924.1318)" style="fill:none;stroke:#000000;stroke-linecap:round;stroke-linejoin:round;stroke-miterlimit:10;" width="244.19" height="107.7"></rect>
		
			<line style="fill:none;stroke:#000000;stroke-linecap:round;stroke-linejoin:round;stroke-miterlimit:10;" x1="1335.59" y1="1662.36" x2="1335.59" y2="1418.17"></line>
	</g>
	
		<rect x="894" y="1141.28" style="fill:none;stroke:#000000;stroke-linecap:round;stroke-linejoin:round;stroke-miterlimit:10;" width="102.69" height="130.09"></rect>
	<path style="fill:none;stroke:#000000;stroke-linecap:round;stroke-linejoin:round;stroke-miterlimit:10;" d="M885.1,587.94
		c9.25,0,27.61,0,36.87,0c9.47,0,14.3-7.76,15.88-17.4c5.76-39.31,5.76-79.25,0-118.55c-1.58-9.64-6.42-17.4-15.88-17.4
		c-9.25,0-27.61,0-36.87,0c-9.47,0-14.31,7.76-15.88,17.4c-5.76,39.31-5.76,79.25,0,118.55
		C870.79,580.18,875.63,587.94,885.1,587.94z"></path>
	<g>
		<g>
			<path style="fill:none;stroke:#000000;stroke-linecap:round;stroke-miterlimit:10;" d="M643.4,651.22
				c0.12,0.13,0.25,0.26,0.39,0.37c7.62,6.23,14.79,13.09,21.32,20.42s12.54,15.23,17.85,23.49c0.11,0.17,0.22,0.32,0.34,0.45
				c0.63,0.71,1.55,1.1,2.52,1.08c0.55-0.01,1.6-0.18,2.43-1.16l0.05-0.06c12.51-15.3,27.28-28.48,43.9-39.16l0.09-0.06
				c1.05-0.71,1.33-1.72,1.41-2.27c0.13-0.96-0.16-1.92-0.79-2.63c-0.12-0.13-0.25-0.26-0.39-0.37
				c-7.62-6.23-14.79-13.09-21.32-20.42s-12.54-15.23-17.85-23.49c-0.11-0.17-0.22-0.31-0.34-0.44c-0.63-0.71-1.55-1.1-2.52-1.08
				c-0.56,0.01-1.6,0.18-2.43,1.16l-0.05,0.06c-12.51,15.3-27.28,28.48-43.9,39.16l-0.09,0.06c-1.05,0.71-1.33,1.72-1.41,2.27
				C642.48,649.55,642.77,650.51,643.4,651.22z"></path>
		</g>
		<path style="fill:none;stroke:#000000;stroke-linecap:round;stroke-miterlimit:10;" d="M688.3,695.81l-0.05,0.06
			c-0.83,0.98-1.88,1.15-2.43,1.16c-0.97,0.02-1.89-0.37-2.52-1.08c-0.12-0.13-0.23-0.28-0.34-0.45
			c-4.67-7.27-9.96-14.19-15.59-20.75c-7.27,2.78-14.66,5.25-22.26,7.11l-0.08,0.02c-1.24,0.33-1.84,1.2-2.09,1.7
			c-0.43,0.87-0.47,1.87-0.11,2.74c0.07,0.16,0.15,0.32,0.26,0.49c5.18,8.34,9.74,17.16,13.55,26.21s6.93,18.47,9.28,28.03
			c0.04,0.18,0.1,0.35,0.17,0.51c0.37,0.87,1.11,1.54,2.04,1.84c0.53,0.17,1.56,0.35,2.65-0.3l0.09-0.06
			c16.79-10.43,35.03-18.11,54.22-22.83l0.08-0.02c1.24-0.33,1.84-1.2,2.09-1.7c0.43-0.87,0.47-1.87,0.11-2.74
			c-0.07-0.16-0.15-0.32-0.26-0.5c-5.18-8.34-9.74-17.16-13.55-26.21c-1.95-4.63-3.71-9.36-5.28-14.15
			C701.11,681.35,694.42,688.32,688.3,695.81z"></path>
		<path style="fill:none;stroke:#000000;stroke-linecap:round;stroke-miterlimit:10;" d="M688.3,695.81l-0.05,0.06
			c-0.83,0.98-1.88,1.15-2.43,1.16c-0.97,0.02-1.89-0.37-2.52-1.08c-0.12-0.13-0.23-0.28-0.34-0.45
			c-5.31-8.26-11.31-16.17-17.85-23.49c-0.18-0.2-0.39-0.39-0.57-0.59c-6.68,2.5-13.47,4.74-20.42,6.45l-0.02,0
			c-4.88,1.2-7.17,6.82-4.52,11.09l0.01,0.02c10.18,16.4,17.72,34.29,22.33,53.03l0,0.02c1.2,4.88,6.82,7.17,11.09,4.52l0.02-0.01
			c16.4-10.18,34.29-17.72,53.03-22.33l0.02,0c4.88-1.2,7.17-6.82,4.52-11.09l-0.01-0.02c-7.99-12.87-14.29-26.68-18.88-41.09
			C703.25,679.25,695.38,687.15,688.3,695.81z"></path>
	</g>
	<g>
		<g>
			<path style="fill:none;stroke:#000000;stroke-linecap:round;stroke-miterlimit:10;" d="M637.68,378.28
				c0.12-0.13,0.25-0.26,0.39-0.37c7.62-6.23,14.79-13.09,21.32-20.42c6.54-7.33,12.54-15.23,17.85-23.49
				c0.11-0.17,0.22-0.32,0.34-0.45c0.63-0.71,1.55-1.1,2.52-1.08c0.55,0.01,1.6,0.18,2.43,1.16l0.05,0.06
				c12.51,15.3,27.28,28.48,43.9,39.16l0.09,0.06c1.05,0.71,1.33,1.72,1.41,2.27c0.13,0.96-0.16,1.92-0.79,2.63
				c-0.12,0.13-0.25,0.26-0.39,0.37c-7.62,6.23-14.79,13.09-21.32,20.42c-6.54,7.33-12.54,15.23-17.85,23.49
				c-0.11,0.17-0.22,0.31-0.34,0.44c-0.63,0.71-1.55,1.1-2.52,1.08c-0.56-0.01-1.6-0.18-2.43-1.16l-0.05-0.06
				c-12.51-15.3-27.28-28.48-43.9-39.16l-0.09-0.06c-1.05-0.71-1.33-1.72-1.41-2.27C636.76,379.94,637.05,378.98,637.68,378.28z"></path>
		</g>
		<path style="fill:none;stroke:#000000;stroke-linecap:round;stroke-miterlimit:10;" d="M682.58,333.68l-0.05-0.06
			c-0.83-0.98-1.88-1.15-2.43-1.16c-0.97-0.02-1.89,0.37-2.52,1.08c-0.12,0.13-0.23,0.28-0.34,0.45
			c-4.67,7.27-9.96,14.19-15.59,20.75c-7.27-2.78-14.66-5.25-22.26-7.11l-0.08-0.02c-1.24-0.33-1.84-1.2-2.09-1.7
			c-0.43-0.87-0.47-1.87-0.11-2.74c0.07-0.16,0.15-0.32,0.26-0.49c5.18-8.34,9.74-17.16,13.55-26.21
			c3.81-9.05,6.93-18.47,9.28-28.03c0.04-0.18,0.1-0.35,0.17-0.51c0.37-0.87,1.11-1.54,2.03-1.84c0.53-0.17,1.56-0.35,2.65,0.3
			l0.09,0.06c16.79,10.43,35.03,18.11,54.22,22.83l0.08,0.02c1.24,0.33,1.84,1.2,2.09,1.7c0.43,0.87,0.47,1.87,0.11,2.74
			c-0.07,0.16-0.15,0.32-0.26,0.5c-5.18,8.34-9.74,17.16-13.55,26.21c-1.95,4.63-3.71,9.36-5.28,14.15
			C695.39,348.15,688.7,341.18,682.58,333.68z"></path>
		<path style="fill:none;stroke:#000000;stroke-linecap:round;stroke-miterlimit:10;" d="M682.58,333.68l-0.05-0.06
			c-0.83-0.98-1.88-1.15-2.43-1.16c-0.97-0.02-1.89,0.37-2.52,1.08c-0.12,0.13-0.23,0.28-0.34,0.45
			c-5.31,8.26-11.31,16.17-17.85,23.49c-0.18,0.2-0.39,0.39-0.57,0.59c-6.68-2.5-13.47-4.74-20.42-6.45l-0.02,0
			c-4.88-1.2-7.17-6.82-4.52-11.09l0.01-0.02c10.18-16.39,17.72-34.29,22.33-53.03l0-0.02c1.2-4.88,6.82-7.17,11.09-4.52l0.02,0.01
			c16.39,10.18,34.29,17.72,53.03,22.33l0.02,0c4.88,1.2,7.17,6.82,4.52,11.09l-0.01,0.02c-7.99,12.87-14.29,26.68-18.88,41.09
			C697.53,350.24,689.66,342.35,682.58,333.68z"></path>
	</g>
	<g>
		<path style="fill:none;stroke:#000000;stroke-linecap:round;stroke-miterlimit:10;" d="M1142.88,778.45
			c1.56-0.05,3.1-0.35,4.58-0.82c11.11-3.5,18.3-14.87,16.82-26.42c-0.77-6-3.26-10.7-4.94-13.29c-0.87-1.35-1.99-2.5-3.28-3.46l0,0
			c-1.3-0.96-2.75-1.69-4.31-2.14c-3.05-0.87-8.41-1.89-14.51-0.75c-11.3,2.1-19.78,12.14-19.94,23.63c-0.02,1.4,0.1,2.81,0.42,4.18
			"></path>
		<path style="fill:none;stroke:#000000;stroke-linecap:round;stroke-miterlimit:10;" d="M1157.71,735.68
			c16.59-16.05,18.23-42.08,4.37-60.03c-1.37-1.78-3.89-2.18-5.76-0.93c-2.01,1.35-2.51,4.1-1.08,6.05
			c11.24,15.3,9.97,37.07-1.87,52.19"></path>
		<path style="fill:none;stroke:#000000;stroke-linecap:round;stroke-miterlimit:10;" d="M1131.63,786.9
			c0.87-4.78-0.94-9.85-5.11-12.93c-4.13-3.06-9.46-3.33-13.75-1.16"></path>
		<path style="fill:none;stroke:#000000;stroke-linecap:round;stroke-miterlimit:10;" d="M1106.93,778.71
			c-1.95,3.95-1.74,8.58,0.38,12.31c-0.58,2.2,0.18,4.62,2.12,6.06s4.48,1.45,6.41,0.25c4.14,0.93,8.57-0.19,11.77-3.13"></path>
		<path style="fill:none;stroke:#000000;stroke-linecap:round;stroke-miterlimit:10;" d="M1124.78,792.97
			C1125.32,793.24,1124.78,792.97,1124.78,792.97c3.76,1.59,8.48,2.24,9.77,2.3c0.64,0.03,1.23-0.5,1.03-1.11
			c-1.2-3.61-5.75-9.84-6.17-10.26s-1.8-1.67-3.78,0.32"></path>
		<path style="fill:none;stroke:#000000;stroke-linecap:round;stroke-miterlimit:10;" d="M1116.29,774.37
			c-3.06-1.48-8.01-3.13-11.81-3.23c-0.64-0.02-0.97,0.71-0.76,1.31c0.44,1.22,2.44,5.54,5.06,8.67l0,0"></path>
		
			<line style="fill:none;stroke:#000000;stroke-linecap:round;stroke-miterlimit:10;" x1="1119.35" y1="794.39" x2="1115.1" y2="794.59"></line>
		
			<line style="fill:none;stroke:#000000;stroke-linecap:round;stroke-miterlimit:10;" x1="1109.7" y1="787.22" x2="1109.97" y2="791.28"></line>
		<polygon style="fill:none;stroke:#000000;stroke-linecap:round;stroke-miterlimit:10;" points="1112.18,795.94 1109.58,794.02 
			1109.77,796.53 		"></polygon>
		<path style="fill:none;stroke:#000000;stroke-linecap:round;stroke-miterlimit:10;" d="M1134.55,795.27c0,0-5.8-4.8-10.16-6.6"></path>
		<path style="fill:none;stroke:#000000;stroke-linecap:round;stroke-miterlimit:10;" d="M1103.72,771.62
			c4.11,1.78,8.79,7.26,8.79,7.26s0.02,1.03-1.24,1.68"></path>
		<g>
			<path style="fill:none;stroke:#000000;stroke-linecap:round;stroke-miterlimit:10;" d="M1131.77,755.39
				c-5.88-1.16-12.17,1-15.97,6.14c-2.51,3.39-3.43,7.44-3,11.32"></path>
			<path style="fill:none;stroke:#000000;stroke-linecap:round;stroke-miterlimit:10;" d="M1131.6,786.76
				c3.84-0.72,7.44-2.79,9.95-6.18c3.75-5.07,4.01-11.61,1.3-16.86"></path>
		</g>
	</g>
	<g>
		<path style="fill:none;stroke:#000000;stroke-linecap:round;stroke-miterlimit:10;" d="M1251.29,269.66
			c-1.1-1.6-1.97-3.35-2.59-5.2"></path>
		<g>
			<path style="fill:none;stroke:#000000;stroke-linecap:round;stroke-miterlimit:10;" d="M1286.05,246.59
				c1.04,1.62,1.85,3.38,2.42,5.23"></path>
			<g>
				<g>
					<g>
						<path style="fill:none;stroke:#000000;stroke-linecap:round;stroke-miterlimit:10;" d="M1270.14,259.43
							c1.59,1.67,3.95,2.4,6.2,1.88c4.94-1.13,14.23-3.58,23.79-7.75c0.74-0.32,0.57-1.43-0.24-1.48
							c-9.91-0.68-19.03,0.1-24.23,0.73"></path>
						<path style="fill:none;stroke:#000000;stroke-linecap:round;stroke-miterlimit:10;" d="M1267.74,257.01
							c-1.95-1.89-4.73-2.64-7.36-1.96c-4.94,1.27-13.56,3.77-22.62,7.75c-0.75,0.33-0.55,1.43,0.26,1.49
							c9.92,0.66,18.85-0.22,23.87-0.91c1.07-2.31,3.06-4.06,5.53-4.76"></path>
					</g>
					<path style="fill:none;stroke:#000000;stroke-linecap:round;stroke-miterlimit:10;" d="M1283.02,229.93
						c-2,9.93-5.14,17.96-6.98,22.16c-0.89,2.02-2.43,3.68-4.39,4.69l-1.92,0.99c-0.42,0.21-0.93,0.01-1.08-0.43l-0.59-1.67
						c-0.95-2.69-0.65-5.66,0.81-8.12c2.46-4.13,6.83-10.98,12.8-18.26C1282.17,228.68,1283.18,229.15,1283.02,229.93z
						 M1256.23,287.06c6.18-7.64,10.67-15.23,13.08-19.65c1.31-2.41,1.41-5.28,0.28-7.79l-0.37-0.83c-0.16-0.35-0.55-0.53-0.92-0.43
						l-0.88,0.25c-2.61,0.74-4.73,2.63-5.74,5.15c-1.88,4.67-4.87,12.99-6.81,22.65C1254.72,287.2,1255.73,287.68,1256.23,287.06z"></path>
					<g>
						<path style="fill:none;stroke:#000000;stroke-linecap:round;stroke-miterlimit:10;" d="M1267.63,253.84
							c-0.57-1.11-1.43-2.05-2.52-2.71c-3.9-2.34-12.19-6.93-22.47-10.36c-0.76-0.25-1.35,0.69-0.8,1.27
							c5.7,5.95,11.37,10.72,15.39,13.87c1.15-0.32,2.23-0.61,3.15-0.85c2.63-0.67,5.4,0.07,7.36,1.96l0.76,0.74"></path>
						<path style="fill:none;stroke:#000000;stroke-linecap:round;stroke-miterlimit:10;" d="M1269.22,258.79l0.37,0.83
							c0.58,1.29,0.82,2.68,0.76,4.06c0.64,0.99,1.51,1.83,2.58,2.4c4.3,2.28,12.53,6.32,22.32,9.53c0.76,0.25,1.35-0.7,0.8-1.27
							c-5.95-6.13-12.05-10.88-16.25-13.87c-1.29,0.33-2.48,0.62-3.46,0.85c-2.25,0.52-4.6-0.21-6.2-1.88l-0.83-0.87"></path>
					</g>
					<g>
						<path style="fill:none;stroke:#000000;stroke-linecap:round;stroke-miterlimit:10;" d="M1270.22,261.63
							c0.12,0.68,0.17,1.37,0.13,2.05l0,0C1270.39,262.99,1270.35,262.3,1270.22,261.63z"></path>
						<path style="fill:none;stroke:#000000;stroke-linecap:round;stroke-miterlimit:10;" d="M1272.94,266.07
							c-1.07-0.57-1.94-1.41-2.58-2.4c-0.06,1.29-0.4,2.56-1.04,3.73c-0.29,0.53-0.61,1.11-0.96,1.73
							c2.26,5.52,5.51,12.65,9.52,19.24c0.42,0.69,1.5,0.37,1.44-0.44c-0.56-7.31-1.96-14.59-3.28-20.27
							C1274.87,267.08,1273.8,266.53,1272.94,266.07z"></path>
						<path style="fill:none;stroke:#000000;stroke-linecap:round;stroke-miterlimit:10;" d="M1270.22,261.62
							c-0.13-0.68-0.33-1.35-0.62-2C1269.89,260.26,1270.09,260.93,1270.22,261.62z"></path>
						<path style="fill:none;stroke:#000000;stroke-linecap:round;stroke-miterlimit:10;" d="M1269.35,246.77
							c-2.25-5.45-5.43-12.36-9.33-18.78c-0.42-0.69-1.5-0.37-1.44,0.44c0.58,7.58,2.06,15.14,3.43,20.92
							c1.2,0.67,2.27,1.28,3.1,1.78"></path>
						<path style="fill:none;stroke:#000000;stroke-linecap:round;stroke-miterlimit:10;" d="M1270.22,261.63c0,0,0-0.01,0-0.01
							C1270.22,261.62,1270.22,261.62,1270.22,261.63z"></path>
					</g>
				</g>
				<g>
					
						<line style="fill:none;stroke:#000000;stroke-linecap:round;stroke-miterlimit:10;" x1="1261.9" y1="263.37" x2="1261.9" y2="263.37"></line>
					<path style="fill:none;stroke:#000000;stroke-linecap:round;stroke-miterlimit:10;" d="M1240.23,285.82
						c-0.52,0.86,0.49,1.86,1.34,1.33c5.59-3.41,11.58-7.89,15.92-11.27c1.48-5.04,3.05-9.26,4.19-12.11
						c0.06-0.14,0.15-0.26,0.21-0.39c-1.6,0.22-3.64,0.46-5.94,0.66C1251.71,269.03,1245.72,276.66,1240.23,285.82z"></path>
					<path style="fill:none;stroke:#000000;stroke-linecap:round;stroke-miterlimit:10;" d="M1260.08,240
						c-3.98-4.15-9.05-8.99-15.06-13.69c-0.79-0.62-1.9,0.25-1.49,1.17c2.47,5.49,6.18,12.31,8.86,17.1"></path>
					<path style="fill:none;stroke:#000000;stroke-linecap:round;stroke-miterlimit:10;" d="M1250.36,250.19
						c-5.86-0.24-12.95-0.28-20.48,0.27c-1.03,0.07-1.26,1.47-0.32,1.88c6.57,2.85,12.93,4.94,18.38,6.47"></path>
					<path style="fill:none;stroke:#000000;stroke-linecap:round;stroke-miterlimit:10;" d="M1273.94,239.64
						c-0.47-6.47-1.31-13.89-2.82-21.17c-0.21-1-1.63-1.07-1.9-0.08c-1.8,6.6-3.03,13.36-3.89,19.41"></path>
					<path style="fill:none;stroke:#000000;stroke-linecap:round;stroke-miterlimit:10;" d="M1263.93,276.41
						c0.47,6.53,1.32,14.09,2.85,21.48c0.21,1,1.63,1.07,1.9,0.08c1.8-6.6,3.04-13.36,3.9-19.41c-1.64-3.38-3.06-6.62-4.22-9.45"></path>
					<path style="fill:none;stroke:#000000;stroke-linecap:round;stroke-miterlimit:10;" d="M1277.94,277.04
						c4.08,3.97,9.12,8.53,14.93,13.03c0.79,0.62,1.9-0.26,1.48-1.17c-2.99-6.54-6.3-12.35-9.29-17.1"></path>
					<path style="fill:none;stroke:#000000;stroke-linecap:round;stroke-miterlimit:10;" d="M1279.8,260.47"></path>
					<path style="fill:none;stroke:#000000;stroke-linecap:round;stroke-miterlimit:10;" d="M1308.36,264.03
						c-6.49-2.83-12.85-4.98-18.35-6.59c-3.86,1.3-7.36,2.29-10.21,3.02c2.01,1.43,4.47,3.29,7.12,5.48
						c6.04,0.35,13.36,0.49,21.09-0.05C1309.03,265.83,1309.29,264.44,1308.36,264.03z"></path>
					<path style="fill:none;stroke:#000000;stroke-linecap:round;stroke-miterlimit:10;" d="M1281.56,252.23
						c4.12-4.55,10.32-12.06,16.12-21.7c0.52-0.86-0.48-1.85-1.34-1.33c-6.14,3.7-11.5,7.44-15.82,10.69"></path>
				</g>
			</g>
			<g>
				<path style="fill:none;stroke:#000000;stroke-linecap:round;stroke-miterlimit:10;" d="M1272.2,281.04
					c0.5-0.08,0.99-0.2,1.49-0.31"></path>
				<path style="fill:none;stroke:#000000;stroke-linecap:round;stroke-miterlimit:10;" d="M1282.08,238.73
					c-0.34-0.24-0.68-0.47-1.03-0.7"></path>
				<path style="fill:none;stroke:#000000;stroke-linecap:round;stroke-miterlimit:10;" d="M1291.18,251.84
					c-0.68-2.56-1.81-4.97-3.29-7.15"></path>
				<path style="fill:none;stroke:#000000;stroke-linecap:round;stroke-miterlimit:10;" d="M1289.55,268.23
					c0.34-0.68,0.64-1.39,0.91-2.12"></path>
				<path style="fill:none;stroke:#000000;stroke-linecap:round;stroke-miterlimit:10;" d="M1278.26,279.19
					c0.43-0.2,0.85-0.42,1.27-0.64"></path>
				<path style="fill:none;stroke:#000000;stroke-linecap:round;stroke-miterlimit:10;" d="M1291.95,258.04
					c0-0.43,0.01-0.86-0.01-1.29"></path>
				<path style="fill:none;stroke:#000000;stroke-linecap:round;stroke-miterlimit:10;" d="M1246.01,264.49
					c0.79,2.66,2.04,5.15,3.68,7.37"></path>
				<path style="fill:none;stroke:#000000;stroke-linecap:round;stroke-miterlimit:10;" d="M1247.44,247.51
					c-0.4,0.82-0.77,1.68-1.08,2.56"></path>
				<path style="fill:none;stroke:#000000;stroke-linecap:round;stroke-miterlimit:10;" d="M1255.51,277.41
					c0.44,0.29,0.89,0.56,1.35,0.83"></path>
				<path style="fill:none;stroke:#000000;stroke-linecap:round;stroke-miterlimit:10;" d="M1261.34,280.21
					c0.49,0.16,1,0.3,1.51,0.43c0.49,0.12,0.98,0.2,1.47,0.29"></path>
				<path style="fill:none;stroke:#000000;stroke-linecap:round;stroke-miterlimit:10;" d="M1251.06,242.16
					c-0.4,0.44-0.78,0.9-1.14,1.38"></path>
				<path style="fill:none;stroke:#000000;stroke-linecap:round;stroke-miterlimit:10;" d="M1265.83,234.56
					c-0.67,0.08-1.33,0.18-1.99,0.32"></path>
				<path style="fill:none;stroke:#000000;stroke-linecap:round;stroke-miterlimit:10;" d="M1276.64,235.85
					c-0.81-0.3-1.63-0.56-2.48-0.77c-0.21-0.05-0.41-0.07-0.62-0.12"></path>
				<path style="fill:none;stroke:#000000;stroke-linecap:round;stroke-miterlimit:10;" d="M1259.49,236.21
					c-0.73,0.3-1.44,0.64-2.14,1.02"></path>
				<path style="fill:none;stroke:#000000;stroke-linecap:round;stroke-miterlimit:10;" d="M1245.05,257.95
					c0,0.64,0.03,1.27,0.08,1.9"></path>
			</g>
		</g>
	</g>
	<g>
		<g>
			<circle style="fill:none;stroke:#000000;stroke-linecap:round;stroke-miterlimit:10;" cx="873.61" cy="982.28" r="15.88"></circle>
		</g>
		<g>
			<circle style="fill:none;stroke:#000000;stroke-linecap:round;stroke-miterlimit:10;" cx="873.61" cy="982.28" r="9.04"></circle>
		</g>
		<g>
			
				<ellipse style="fill:none;stroke:#000000;stroke-linecap:round;stroke-miterlimit:10;" cx="904.41" cy="972.76" rx="2.46" ry="4"></ellipse>
			
				<line style="fill:none;stroke:#000000;stroke-linecap:round;stroke-miterlimit:10;" x1="904.41" y1="976.76" x2="904.41" y2="994.25"></line>
		</g>
		<g>
			<path style="fill:none;stroke:#000000;stroke-linecap:round;stroke-miterlimit:10;" d="M847.69,968.76v4c0,2.21,1.1,4,2.46,4
				s2.46-1.79,2.46-4v-4"></path>
			
				<line style="fill:none;stroke:#000000;stroke-linecap:round;stroke-miterlimit:10;" x1="850.15" y1="976.76" x2="850.15" y2="994.25"></line>
		</g>
		
			<line style="fill:none;stroke:#000000;stroke-linecap:round;stroke-miterlimit:10;" x1="850.15" y1="968.76" x2="850.15" y2="976.76"></line>
		<g>
			<path style="fill:none;stroke:#000000;stroke-linecap:round;stroke-miterlimit:10;" d="M898.35,983.56h-3.82v-14.79l0,0
				c2.11,0,3.82,1.71,3.82,3.82V983.56z"></path>
			<path style="fill:none;stroke:#000000;stroke-linecap:round;stroke-miterlimit:10;" d="M896.44,994.25L896.44,994.25
				c-1.05,0-1.91-0.85-1.91-1.91v-8.78h3.82v8.78C898.35,993.4,897.49,994.25,896.44,994.25z"></path>
		</g>
	</g>
	<g>
		<g>
			<circle style="fill:none;stroke:#000000;stroke-linecap:round;stroke-miterlimit:10;" cx="739.23" cy="982.28" r="15.88"></circle>
		</g>
		<g>
			<circle style="fill:none;stroke:#000000;stroke-linecap:round;stroke-miterlimit:10;" cx="739.23" cy="982.28" r="9.04"></circle>
		</g>
		<g>
			
				<ellipse style="fill:none;stroke:#000000;stroke-linecap:round;stroke-miterlimit:10;" cx="770.03" cy="972.76" rx="2.46" ry="4"></ellipse>
			
				<line style="fill:none;stroke:#000000;stroke-linecap:round;stroke-miterlimit:10;" x1="770.03" y1="976.76" x2="770.03" y2="994.25"></line>
		</g>
		<g>
			<path style="fill:none;stroke:#000000;stroke-linecap:round;stroke-miterlimit:10;" d="M713.31,968.76v4c0,2.21,1.1,4,2.46,4
				c1.36,0,2.46-1.79,2.46-4v-4"></path>
			
				<line style="fill:none;stroke:#000000;stroke-linecap:round;stroke-miterlimit:10;" x1="715.77" y1="976.76" x2="715.77" y2="994.25"></line>
		</g>
		
			<line style="fill:none;stroke:#000000;stroke-linecap:round;stroke-miterlimit:10;" x1="715.77" y1="968.76" x2="715.77" y2="976.76"></line>
		<g>
			<path style="fill:none;stroke:#000000;stroke-linecap:round;stroke-miterlimit:10;" d="M763.97,983.56h-3.82v-14.79l0,0
				c2.11,0,3.82,1.71,3.82,3.82V983.56z"></path>
			<path style="fill:none;stroke:#000000;stroke-linecap:round;stroke-miterlimit:10;" d="M762.06,994.25L762.06,994.25
				c-1.05,0-1.91-0.85-1.91-1.91v-8.78h3.82v8.78C763.97,993.4,763.11,994.25,762.06,994.25z"></path>
		</g>
	</g>
	<g>
		<circle style="fill:none;stroke:#000000;stroke-linecap:round;stroke-miterlimit:10;" cx="945.25" cy="1201.3" r="26.18"></circle>
		<circle style="fill:none;stroke:#000000;stroke-linecap:round;stroke-miterlimit:10;" cx="938.19" cy="1189.04" r="7.52"></circle>
		<circle style="fill:none;stroke:#000000;stroke-linecap:round;stroke-miterlimit:10;" cx="937.28" cy="1204.09" r="7.52"></circle>
		<circle style="fill:none;stroke:#000000;stroke-linecap:round;stroke-miterlimit:10;" cx="951.07" cy="1198.05" r="7.52"></circle>
		<path style="fill:none;stroke:#000000;stroke-linecap:round;stroke-miterlimit:10;" d="M963.51,1196.06l-1.67-0.34l-1.03,6.53
			c-6.03,11.76-16.73,11.48-22.67,11.86c-1.37,0.09-1.77,1.94-0.56,2.59c4.27,2.33,11.31,4.9,17.87,1.57
			c7.51-3.81,7.56-11.5,7.03-15.45L963.51,1196.06z"></path>
	</g>
	<g>
		<g>
			
				<rect x="591.01" y="915.74" transform="matrix(0.8609 0.5088 -0.5088 0.8609 557.4715 -172.5941)" style="fill:none;stroke:#000000;stroke-linecap:round;stroke-miterlimit:10;" width="6.69" height="34.78"></rect>
			<g>
				
					<rect x="605.29" y="915.79" transform="matrix(0.7051 0.7092 -0.7092 0.7051 841.2773 -156.3746)" style="fill:none;stroke:#000000;stroke-linecap:round;stroke-miterlimit:10;" width="6.69" height="34.78"></rect>
			</g>
			<g>
				
					<rect x="617.38" y="962.28" transform="matrix(-0.214 0.9768 -0.9768 -0.214 1720.4949 563.9645)" style="fill:none;stroke:#000000;stroke-linecap:round;stroke-miterlimit:10;" width="31.94" height="23.77"></rect>
				
					<line style="fill:none;stroke:#000000;stroke-linecap:round;stroke-miterlimit:10;" x1="626.98" y1="956.42" x2="620.14" y2="987.62"></line>
			</g>
		</g>
		<polygon style="fill:none;stroke:#000000;stroke-linecap:round;stroke-miterlimit:10;" points="593.94,943.07 613.11,924.01 
			606.08,919.86 588.38,949.8 607.32,960.99 608.97,958.19 		"></polygon>
		
			<rect x="602.04" y="923.59" transform="matrix(0.7051 0.7092 -0.7092 0.7051 849.095 -159.5731)" style="fill:none;stroke:#000000;stroke-linecap:round;stroke-miterlimit:10;" width="28.68" height="34.78"></rect>
	</g>
	<g>
		<path style="fill:none;stroke:#000000;stroke-linecap:round;stroke-miterlimit:10;" d="M872.67,539.38v-52.68
			c0-1.62,1.32-2.94,2.94-2.94l34.11,0c1.62,0,2.94,1.32,2.94,2.94l0,52.68c0,1.62-1.32,2.94-2.94,2.94H875.6
			C873.98,542.31,872.67,541,872.67,539.38z"></path>
		
			<rect x="876.34" y="503.31" transform="matrix(-5.759834e-07 1 -1 -5.759834e-07 1411.9244 -385.8548)" style="fill:none;stroke:#000000;stroke-linecap:round;stroke-miterlimit:10;" width="45.09" height="19.45"></rect>
		
			<rect x="871.52" y="507.54" transform="matrix(-5.759833e-07 1 -1 -5.759833e-07 1393.6364 -367.5667)" style="fill:none;stroke:#000000;stroke-linecap:round;stroke-miterlimit:10;" width="18.16" height="10.99"></rect>
		<path style="fill:none;stroke:#000000;stroke-linecap:round;stroke-miterlimit:10;" d="M912.65,542.31l0-58.56l12.44-6.5
			c1.74-0.91,3.82,0.35,3.82,2.31v66.93c0,1.96-2.08,3.22-3.82,2.31L912.65,542.31z"></path>
	</g>
	<g>
		<g>
			<path style="fill:none;stroke:#000000;stroke-linecap:round;stroke-miterlimit:10;" d="M1374.41,676.24
				c0.75-0.41,1.5-0.81,2.27-1.19c-0.72-0.86-1.52-1.63-2.36-2.37c-0.46,0.71-0.96,1.4-1.45,2.09
				C1373.39,675.25,1373.94,675.7,1374.41,676.24z"></path>
			<path style="fill:none;stroke:#000000;stroke-linecap:round;stroke-miterlimit:10;" d="M1352.82,670.63
				c0.67-0.24,1.37-0.37,2.06-0.54c-0.06-0.84-0.12-1.68-0.14-2.52c-1.09,0.24-2.17,0.5-3.21,0.89
				C1351.98,669.17,1352.4,669.9,1352.82,670.63z"></path>
			<path style="fill:none;stroke:#000000;stroke-linecap:round;stroke-miterlimit:10;" d="M1343.95,676.93
				c0.38-0.47,0.81-0.91,1.23-1.35c-0.52-0.65-1.04-1.29-1.53-1.96c-0.7,0.7-1.4,1.4-2,2.19
				C1342.43,676.16,1343.19,676.55,1343.95,676.93z"></path>
			<path style="fill:none;stroke:#000000;stroke-linecap:round;stroke-miterlimit:10;" d="M1339.95,685.29
				c-0.79-0.28-1.56-0.59-2.33-0.9c-0.67,2.87-0.77,5.74-0.35,8.49c0.79-0.37,1.57-0.76,2.38-1.09
				C1339.4,689.67,1339.48,687.49,1339.95,685.29z"></path>
			<path style="fill:none;stroke:#000000;stroke-linecap:round;stroke-miterlimit:10;" d="M1342.96,700.65
				c-0.74,0.38-1.51,0.71-2.26,1.05c0.82,1.26,1.77,2.43,2.83,3.51c0.42-0.72,0.85-1.43,1.3-2.13
				C1344.13,702.33,1343.53,701.5,1342.96,700.65z"></path>
			<path style="fill:none;stroke:#000000;stroke-linecap:round;stroke-miterlimit:10;" d="M1364.02,670.03
				c0.08,0.02,0.16,0.01,0.24,0.04c0.24,0.06,0.45,0.18,0.69,0.25c0.37-0.76,0.76-1.51,1.16-2.25c-0.41-0.13-0.77-0.32-1.19-0.43
				c-0.26-0.06-0.52-0.06-0.78-0.11C1364.13,668.37,1364.08,669.2,1364.02,670.03z"></path>
			<path style="fill:none;stroke:#000000;stroke-linecap:round;stroke-miterlimit:10;" d="M1355.44,709
				c-0.27-0.06-0.54-0.05-0.81-0.12c-0.67-0.17-1.27-0.45-1.9-0.68c-0.41,0.74-0.85,1.45-1.29,2.16c0.87,0.34,1.71,0.72,2.64,0.95
				c0.49,0.12,0.98,0.12,1.46,0.21C1355.5,710.68,1355.45,709.84,1355.44,709z"></path>
			<path style="fill:none;stroke:#000000;stroke-linecap:round;stroke-miterlimit:10;" d="M1381.07,683.42
				c-0.78,0.35-1.56,0.7-2.36,1.01c0.54,2.05,0.8,4.17,0.65,6.36c0.82,0.29,1.62,0.64,2.43,0.97
				C1382.08,688.9,1381.82,686.09,1381.07,683.42z"></path>
			<path style="fill:none;stroke:#000000;stroke-linecap:round;stroke-miterlimit:10;" d="M1367.56,707.66
				c-0.87,0.39-1.77,0.71-2.69,0.97c0.06,0.85,0.07,1.71,0.08,2.56c1.4-0.35,2.75-0.83,4.05-1.44
				C1368.51,709.06,1368.02,708.37,1367.56,707.66z"></path>
			<path style="fill:none;stroke:#000000;stroke-linecap:round;stroke-miterlimit:10;" d="M1376.49,699.76
				c-0.46,0.75-0.92,1.5-1.46,2.18c0.52,0.69,1,1.41,1.49,2.13c0.87-1.02,1.64-2.11,2.33-3.29
				C1378.05,700.45,1377.26,700.12,1376.49,699.76z"></path>
		</g>
		<path style="fill:none;stroke:#000000;stroke-linecap:round;stroke-miterlimit:10;" d="M1359.74,687.71
			c0.61-5.13,2.04-10.28,4.16-15.16c1.06-9.32-0.29-19.02-4.42-27.17c-4.82,9.25-5.79,20.4-3.84,30.85
			c1.58,3.7,2.75,7.52,3.41,11.37c0.14,0.32,0.24,0.67,0.38,0.98c0.14-0.29,0.23-0.6,0.36-0.9
			C1359.77,687.69,1359.76,687.7,1359.74,687.71z"></path>
		<path style="fill:none;stroke:#000000;stroke-linecap:round;stroke-miterlimit:10;" d="M1359.15,688.09
			c-12.43-7.6-22.53-21.12-24.25-35.75C1347.74,659.42,1356.89,673.81,1359.15,688.09z M1359.74,687.71
			c12.02-8.03,21.27-22.36,22.33-36.98C1369.51,658.41,1361.45,673.24,1359.74,687.71z"></path>
		<path style="fill:none;stroke:#000000;stroke-linecap:round;stroke-miterlimit:10;" d="M1360.15,688.1
			c-0.1-0.06-0.19-0.14-0.29-0.2c0.11,0.68,0.31,1.37,0.45,2.05c1.5,3.38,2.66,6.96,3.45,10.66c4.28,9.55,11.38,18.1,20.35,23.04
			c-1.19-10.13-6.46-19.69-13.68-27.16C1366.61,694.1,1363.11,691.29,1360.15,688.1z"></path>
		<path style="fill:none;stroke:#000000;stroke-linecap:round;stroke-miterlimit:10;" d="M1359.21,688.63
			c0.01-0.12,0.05-0.23,0.06-0.35c-12.02,8.03-21.27,22.36-22.33,36.98c8.71-5.32,15.18-14.1,18.95-23.79
			C1356.46,697,1357.56,692.66,1359.21,688.63z"></path>
		<path style="fill:none;stroke:#000000;stroke-linecap:round;stroke-miterlimit:10;" d="M1358.86,688.59
			c0.24-0.26,0.51-0.5,0.73-0.76c-14.45-0.12-30.16,6.53-39.26,18.02c10.42,0.51,20.95-3.28,29.63-9.41
			C1352.66,693.46,1355.64,690.79,1358.86,688.59z"></path>
		<g>
			<path style="fill:none;stroke:#000000;stroke-linecap:round;stroke-miterlimit:10;" d="M1353.5,688.2
				c1.79-0.21,3.57-0.32,5.34-0.33c-3.69-2.3-7.13-5.15-10.24-8.37c-8.69-5.45-19.06-8.58-29.05-7.85
				C1327.7,681.46,1340.69,687.13,1353.5,688.2z"></path>
			<path style="fill:none;stroke:#000000;stroke-linecap:round;stroke-miterlimit:10;" d="M1359.06,688.38c0.1,0,0.2,0.01,0.3,0.01
				c-0.05-0.05-0.1-0.1-0.16-0.15C1359.16,688.28,1359.11,688.33,1359.06,688.38z"></path>
		</g>
		<path style="fill:none;stroke:#000000;stroke-linecap:round;stroke-miterlimit:10;" d="M1399.47,704.34
			c-14.61,1.07-30.14-6-39.82-16.73C1374.21,687.2,1390.05,693.02,1399.47,704.34z M1359.65,687.61
			c14.56-0.41,30.4,5.41,39.82,16.73 M1359.45,687.97c-5.7,13.28-5.62,30.34,1.46,43.17
			C1367.25,717.85,1365.91,701.03,1359.45,687.97z"></path>
		<g>
			<path style="fill:none;stroke:#000000;stroke-linecap:round;stroke-miterlimit:10;" d="M1359.8,687.76
				c-0.1,0.1-0.21,0.21-0.31,0.32c0.01,0.02,0.02,0.05,0.03,0.08c0.21,0,0.43-0.03,0.64-0.03
				C1360.05,688,1359.92,687.89,1359.8,687.76z"></path>
			<path style="fill:none;stroke:#000000;stroke-linecap:round;stroke-miterlimit:10;" d="M1365.51,687.79
				c12.61-1.49,25.33-7.76,33.16-17.65c-10.42-0.51-20.95,3.28-29.63,9.41c-2.7,2.98-5.68,5.65-8.9,7.85
				c-0.07,0.07-0.14,0.14-0.21,0.22C1361.79,687.57,1363.65,687.63,1365.51,687.79z"></path>
		</g>
	</g>
</g>
<g id="floor">
	<g>
		<polygon points="880.12,111.73 880.12,111.73 880.12,197.52 1122.08,197.52 1122.08,111.73 1122.08,111.73 1122.08,100.73 
			880.12,100.73 		"></polygon>
		<polygon points="1408.05,100.73 1408.05,111.73 1408.05,111.73 1408.05,197.52 1430.04,197.52 1430.04,1270.98 1298.06,1270.98 
			1298.06,1297.38 1430.04,1297.38 1430.04,1662.53 1295.86,1662.53 1295.86,1721.92 1482.84,1721.92 1482.84,1662.53 
			1482.84,197.52 1482.84,111.73 1482.84,100.73 		"></polygon>
		<polygon points="972.5,1559.14 948.31,1559.14 948.31,1662.53 569.96,1662.53 569.96,1295.18 948.31,1295.18 948.31,1297.38 
			948.31,1383.17 972.5,1383.17 972.5,1297.38 1001.1,1297.38 1001.1,1270.98 948.31,1270.98 569.96,1270.98 569.96,197.52 
			594.15,197.52 594.15,111.73 594.15,111.73 594.15,100.73 517.16,100.73 517.16,111.73 517.16,197.52 517.16,1662.53 
			517.16,1721.92 1075.89,1721.92 1075.89,1662.53 972.5,1662.53 		"></polygon>
	</g>
	<g id="LINE_00000043453699431557054440000004403183740252312229_">
		
			<line style="fill:none;stroke:#000000;stroke-linecap:round;stroke-linejoin:round;stroke-miterlimit:10;" x1="880.12" y1="120.53" x2="594.15" y2="120.53"></line>
	</g>
	<g id="LINE_00000025416157642020842870000017990120759351313301_">
		
			<line style="fill:none;stroke:#000000;stroke-linecap:round;stroke-linejoin:round;stroke-miterlimit:10;" x1="605.15" y1="100.73" x2="605.15" y2="120.53"></line>
	</g>
	<g id="LINE_00000165221526940596919940000011416884901444009112_">
		
			<line style="fill:none;stroke:#000000;stroke-linecap:round;stroke-linejoin:round;stroke-miterlimit:10;" x1="869.12" y1="100.73" x2="869.12" y2="120.53"></line>
	</g>
	<g id="LINE_00000129919279408740547880000001983782553236775309_">
		
			<line style="fill:none;stroke:#000000;stroke-linecap:round;stroke-linejoin:round;stroke-miterlimit:10;" x1="880.12" y1="100.73" x2="594.15" y2="100.73"></line>
	</g>
	<g id="LINE_00000089570255262688221640000010654647369196183180_">
		
			<line style="fill:none;stroke:#000000;stroke-linecap:round;stroke-linejoin:round;stroke-miterlimit:10;" x1="856.8" y1="110.63" x2="617.47" y2="110.08"></line>
	</g>
	<g id="LINE_00000098207778698934745110000013587309525726648748_">
		
			<line style="fill:none;stroke:#000000;stroke-linecap:round;stroke-linejoin:round;stroke-miterlimit:10;" x1="856.8" y1="120.53" x2="856.8" y2="100.73"></line>
	</g>
	<g id="LINE_00000035511741605586889320000018399566650631148194_">
		
			<line style="fill:none;stroke:#000000;stroke-linecap:round;stroke-linejoin:round;stroke-miterlimit:10;" x1="605.15" y1="100.73" x2="605.15" y2="120.53"></line>
	</g>
	<g id="LINE_00000085932978441609087920000004660846493916350353_">
		
			<line style="fill:none;stroke:#000000;stroke-linecap:round;stroke-linejoin:round;stroke-miterlimit:10;" x1="617.47" y1="120.53" x2="617.47" y2="100.73"></line>
	</g>
	<g id="LINE_00000153699188192111777330000009017731977877716645_">
		
			<line style="fill:none;stroke:#000000;stroke-linecap:round;stroke-linejoin:round;stroke-miterlimit:10;" x1="810.82" y1="120.53" x2="795.43" y2="120.53"></line>
	</g>
	<g id="LINE_00000061469536576666151770000001615269350298715575_">
		
			<line style="fill:none;stroke:#000000;stroke-linecap:round;stroke-linejoin:round;stroke-miterlimit:10;" x1="795.43" y1="100.73" x2="810.82" y2="100.73"></line>
	</g>
	<g id="LINE_00000129183799325899881220000013578198916269858972_">
		
			<line style="fill:none;stroke:#000000;stroke-linecap:round;stroke-linejoin:round;stroke-miterlimit:10;" x1="880.12" y1="197.52" x2="594.15" y2="197.52"></line>
	</g>
	<g id="LINE_00000020376022970756331820000002757111051933443504_">
		
			<line style="fill:none;stroke:#000000;stroke-linecap:round;stroke-linejoin:round;stroke-miterlimit:10;" x1="1408.05" y1="120.53" x2="1122.08" y2="120.53"></line>
	</g>
	<g id="LINE_00000168827709061406413880000010469345842933494929_">
		
			<line style="fill:none;stroke:#000000;stroke-linecap:round;stroke-linejoin:round;stroke-miterlimit:10;" x1="1133.08" y1="100.73" x2="1133.08" y2="120.53"></line>
	</g>
	<g id="LINE_00000066507734823457192210000011864168927257370549_">
		
			<line style="fill:none;stroke:#000000;stroke-linecap:round;stroke-linejoin:round;stroke-miterlimit:10;" x1="1397.05" y1="100.73" x2="1397.05" y2="120.53"></line>
	</g>
	<g id="LINE_00000090256988196297163970000004399612841663937440_">
		
			<line style="fill:none;stroke:#000000;stroke-linecap:round;stroke-linejoin:round;stroke-miterlimit:10;" x1="1408.05" y1="100.73" x2="1122.08" y2="100.73"></line>
	</g>
	<g id="LINE_00000023245611009442281850000009983318297354193087_">
		
			<line style="fill:none;stroke:#000000;stroke-linecap:round;stroke-linejoin:round;stroke-miterlimit:10;" x1="1384.73" y1="110.63" x2="1145.4" y2="110.08"></line>
	</g>
	<g id="LINE_00000106860020893123984180000001507509143739813253_">
		
			<line style="fill:none;stroke:#000000;stroke-linecap:round;stroke-linejoin:round;stroke-miterlimit:10;" x1="1384.73" y1="120.53" x2="1384.73" y2="100.73"></line>
	</g>
	<g id="LINE_00000096025219197160542000000018249682390332204990_">
		
			<line style="fill:none;stroke:#000000;stroke-linecap:round;stroke-linejoin:round;stroke-miterlimit:10;" x1="1133.08" y1="100.73" x2="1133.08" y2="120.53"></line>
	</g>
	<g id="LINE_00000051363564385593116900000006578907383630319505_">
		
			<line style="fill:none;stroke:#000000;stroke-linecap:round;stroke-linejoin:round;stroke-miterlimit:10;" x1="1145.4" y1="120.53" x2="1145.4" y2="100.73"></line>
	</g>
	<g id="LINE_00000160885474349921371320000001521880701788383921_">
		
			<line style="fill:none;stroke:#000000;stroke-linecap:round;stroke-linejoin:round;stroke-miterlimit:10;" x1="1338.76" y1="120.53" x2="1323.36" y2="120.53"></line>
	</g>
	<g id="LINE_00000114793169049904010260000004438168377514471553_">
		
			<line style="fill:none;stroke:#000000;stroke-linecap:round;stroke-linejoin:round;stroke-miterlimit:10;" x1="1323.36" y1="100.73" x2="1338.76" y2="100.73"></line>
	</g>
	<g id="LINE_00000052801382371094572010000003051600498476161965_">
		
			<line style="fill:none;stroke:#000000;stroke-linecap:round;stroke-linejoin:round;stroke-miterlimit:10;" x1="1408.05" y1="197.52" x2="1122.08" y2="197.52"></line>
	</g>
	<g id="LINE_00000081612646189048796940000000930181012243582122_">
		
			<line style="fill:none;stroke:#000000;stroke-linecap:round;stroke-linejoin:round;stroke-miterlimit:10;" x1="1284.86" y1="1693.11" x2="1284.86" y2="1899.27"></line>
	</g>
	<g id="LWPOLYLINE_00000059288517675111358060000016774541410834081727_">
		
			<rect x="1075.89" y="1683.5" style="fill:none;stroke:#000000;stroke-linecap:round;stroke-linejoin:round;stroke-miterlimit:10;" width="11" height="17.45"></rect>
	</g>
	<g id="ARC_00000111881856102756126570000013316385070273955214_">
		<path style="fill:none;stroke:#000000;stroke-linecap:round;stroke-linejoin:round;stroke-miterlimit:10;" d="M1086.89,1693.11
			c1.86,109.95,88.19,199.85,197.97,206.16"></path>
	</g>
	<g id="LWPOLYLINE_00000003796239115677685740000008694531350170077589_">
		
			<rect x="1284.86" y="1683.5" style="fill:none;stroke:#000000;stroke-linecap:round;stroke-linejoin:round;stroke-miterlimit:10;" width="11" height="17.45"></rect>
	</g>
	<g id="LINE_00000097458612456099604140000015910389882975541676_">
		
			<line style="fill:none;stroke:#000000;stroke-linecap:round;stroke-linejoin:round;stroke-miterlimit:10;" x1="959.15" y1="1548.14" x2="1119.5" y2="1548.14"></line>
	</g>
	<g id="LWPOLYLINE_00000085218227648864946220000003245888802680981923_">
		
			<rect x="951.68" y="1383.17" style="fill:none;stroke:#000000;stroke-linecap:round;stroke-linejoin:round;stroke-miterlimit:10;" width="17.45" height="11"></rect>
	</g>
	<g id="ARC_00000015330597506111174520000002237312606508620441_">
		<path style="fill:none;stroke:#000000;stroke-linecap:round;stroke-linejoin:round;stroke-miterlimit:10;" d="M959.15,1394.17
			c85.51,1.44,155.44,68.59,160.35,153.98"></path>
	</g>
	<g id="LWPOLYLINE_00000109024018053089673460000015130012366480320156_">
		
			<rect x="951.68" y="1548.14" style="fill:none;stroke:#000000;stroke-linecap:round;stroke-linejoin:round;stroke-miterlimit:10;" width="17.45" height="11"></rect>
	</g>
	<g id="LINE_00000051343827381104687380000000151039703452760468_">
		<g>
			<g>
				
					<line style="fill:none;stroke:#000000;stroke-linecap:round;stroke-linejoin:round;" x1="569.96" y1="945.42" x2="574.96" y2="945.42"></line>
				
					<line style="fill:none;stroke:#000000;stroke-linecap:round;stroke-linejoin:round;stroke-dasharray:10.0011,10.0011;" x1="584.96" y1="945.42" x2="1420.04" y2="945.42"></line>
				
					<line style="fill:none;stroke:#000000;stroke-linecap:round;stroke-linejoin:round;" x1="1425.04" y1="945.42" x2="1430.04" y2="945.42"></line>
			</g>
		</g>
	</g>
	<g>
		<g>
			
				<line style="fill:none;stroke:#000000;stroke-linecap:round;stroke-linejoin:round;" x1="1298.06" y1="1284.18" x2="1293.06" y2="1284.18"></line>
			
				<line style="fill:none;stroke:#000000;stroke-linecap:round;stroke-linejoin:round;stroke-dasharray:9.8952,9.8952;" x1="1283.17" y1="1284.18" x2="1011.05" y2="1284.18"></line>
			
				<line style="fill:none;stroke:#000000;stroke-linecap:round;stroke-linejoin:round;" x1="1006.1" y1="1284.18" x2="1001.1" y2="1284.18"></line>
		</g>
	</g>
	<g id="LWPOLYLINE_00000142143540859194242520000011192067864289822646_">
		
			<rect x="569.96" y="1141.36" style="fill:none;stroke:#000000;stroke-linecap:round;stroke-linejoin:round;stroke-miterlimit:10;" width="129.62" height="129.62"></rect>
	</g>
	<g id="LWPOLYLINE_00000091010874359912740850000010427921201063571074_">
		<path style="fill:none;stroke:#000000;stroke-linecap:round;stroke-linejoin:round;stroke-miterlimit:10;" d="M580.75,1159.72
			l0,82.04c0,4.18,3.38,7.56,7.56,7.56l92.9,0c4.18,0,7.56-3.39,7.56-7.56v-82.04c0-4.17-3.38-7.56-7.56-7.56c0,0,0,0,0,0h-92.9
			C584.14,1152.16,580.75,1155.54,580.75,1159.72C580.75,1159.72,580.75,1159.72,580.75,1159.72z"></path>
	</g>
	<g id="LWPOLYLINE_00000024002963748772968460000012958396813348554918_">
		
			<rect x="829.19" y="1141.3" style="fill:none;stroke:#000000;stroke-linecap:round;stroke-linejoin:round;stroke-miterlimit:10;" width="64.81" height="129.62"></rect>
	</g>
	<g id="LWPOLYLINE_00000015323177574026228050000018438518310616666800_">
		
			<line style="fill:none;stroke:#000000;stroke-linecap:round;stroke-linejoin:round;stroke-miterlimit:10;" x1="861.6" y1="1216.91" x2="861.6" y2="1260.12"></line>
	</g>
	<g id="LWPOLYLINE_00000013913572632924743270000002816285021622667948_">
		
			<line style="fill:none;stroke:#000000;stroke-linecap:round;stroke-linejoin:round;stroke-miterlimit:10;" x1="883.21" y1="1238.51" x2="840" y2="1238.51"></line>
	</g>
	<g id="CIRCLE_00000101066248106107298580000000692463419366895796_">
		
			<circle style="fill:none;stroke:#000000;stroke-linecap:round;stroke-linejoin:round;stroke-miterlimit:10;" cx="861.6" cy="1238.51" r="17.29"></circle>
	</g>
	<g id="LWPOLYLINE_00000005974673274237203080000014685039372384718227_">
		
			<line style="fill:none;stroke:#000000;stroke-linecap:round;stroke-linejoin:round;stroke-miterlimit:10;" x1="861.6" y1="1152.1" x2="861.6" y2="1195.31"></line>
	</g>
	<g id="LWPOLYLINE_00000036967692196781770600000009626004897265623958_">
		
			<line style="fill:none;stroke:#000000;stroke-linecap:round;stroke-linejoin:round;stroke-miterlimit:10;" x1="883.21" y1="1173.7" x2="840" y2="1173.7"></line>
	</g>
	<g id="CIRCLE_00000154406515666975205490000006558942294920937662_">
		
			<circle style="fill:none;stroke:#000000;stroke-linecap:round;stroke-linejoin:round;stroke-miterlimit:10;" cx="861.6" cy="1173.7" r="17.29"></circle>
	</g>
	<g id="LWPOLYLINE_00000020383259541214852040000014598468366854697377_">
		
			<rect x="699.58" y="1141.36" style="fill:none;stroke:#000000;stroke-linecap:round;stroke-linejoin:round;stroke-miterlimit:10;" width="129.62" height="129.62"></rect>
	</g>
	<g id="CIRCLE_00000143583003398674798450000015355067521199463605_">
		
			<circle style="fill:none;stroke:#000000;stroke-linecap:round;stroke-linejoin:round;stroke-miterlimit:10;" cx="764.39" cy="1205.25" r="41.48"></circle>
	</g>
	<g id="LWPOLYLINE_00000119084140363100947970000016253721699067127717_">
		<polyline style="fill:none;stroke:#000000;stroke-linecap:round;stroke-linejoin:round;stroke-miterlimit:10;" points="
			811.77,1241.58 764.38,1186.59 764.38,1223.93 717,1168.94 		"></polyline>
	</g>
	<g id="LWPOLYLINE_00000029009876389528825570000002016604173200230054_">
		<path style="fill:none;stroke:#000000;stroke-linecap:round;stroke-linejoin:round;stroke-miterlimit:10;" d="M613.16,1220.73
			c-4.19,0-7.58,3.39-7.58,7.58c0,0,0,0,0,0c0,4.19,3.39,7.58,7.58,7.58c0,0,0,0,0,0c4.19,0,7.58-3.39,7.58-7.58c0,0,0,0,0,0
			C620.74,1224.13,617.35,1220.73,613.16,1220.73C613.16,1220.73,613.16,1220.73,613.16,1220.73z"></path>
	</g>
	<g id="LWPOLYLINE_00000090999370963018275890000004541470014502769319_">
		
			<line style="fill:none;stroke:#000000;stroke-linecap:round;stroke-linejoin:round;stroke-miterlimit:10;" x1="570" y1="1470.25" x2="653.54" y2="1470.25"></line>
	</g>
	<g id="LWPOLYLINE_00000170267454849324176740000005670799612770669711_">
		
			<line style="fill:none;stroke:#000000;stroke-linecap:round;stroke-linejoin:round;stroke-miterlimit:10;" x1="653.54" y1="1470.18" x2="653.54" y2="1662.53"></line>
	</g>
	<g id="LWPOLYLINE_00000129911098460926642140000008532122722582574474_">
		
			<line style="fill:none;stroke:#000000;stroke-linecap:round;stroke-linejoin:round;stroke-miterlimit:10;" x1="569.96" y1="1470.25" x2="569.96" y2="1295.18"></line>
	</g>
	<g id="LWPOLYLINE_00000169532861321255092160000009393664904360732834_">
		
			<line style="fill:none;stroke:#000000;stroke-linecap:round;stroke-linejoin:round;stroke-miterlimit:10;" x1="683.42" y1="1524.85" x2="683.42" y2="1583.21"></line>
	</g>
	<g id="LWPOLYLINE_00000026147251349653319930000018092048342142494615_">
		<path style="fill:none;stroke:#000000;stroke-linecap:round;stroke-linejoin:round;stroke-miterlimit:10;" d="M693.15,1587.8H734
			c21.49,0,38.9-17.42,38.9-38.9c0-21.49-17.42-38.9-38.9-38.9h-40.85c-5.37,0-9.72,4.35-9.72,9.72v58.36
			C683.42,1583.45,687.77,1587.8,693.15,1587.8C693.15,1587.8,693.15,1587.8,693.15,1587.8z"></path>
	</g>
	<g id="LWPOLYLINE_00000020395444316498652330000004272185518958889891_">
		<path style="fill:none;stroke:#000000;stroke-linecap:round;stroke-linejoin:round;stroke-miterlimit:10;" d="M734,1517.78h-13.64
			c-17.19,0-31.12,13.94-31.12,31.13c0,17.19,13.93,31.12,31.12,31.12H734c17.19,0,31.12-13.94,31.12-31.13
			C765.12,1531.71,751.19,1517.78,734,1517.78z"></path>
	</g>
	<g id="LWPOLYLINE_00000173873908782649474050000004722374269256279197_">
		<path style="fill:none;stroke:#000000;stroke-linecap:round;stroke-linejoin:round;stroke-miterlimit:10;" d="M721.48,1537.23
			h-13.64c-6.44,0-11.67,5.22-11.67,11.67s5.22,11.67,11.67,11.67c0,0,0,0,0,0h13.64c6.44,0,11.67-5.23,11.67-11.67
			C733.15,1542.45,727.92,1537.23,721.48,1537.23z"></path>
	</g>
	<g id="LWPOLYLINE_00000103263386233495741390000010273111574013780885_">
		
			<rect x="653.54" y="1486.88" style="fill:none;stroke:#000000;stroke-linecap:round;stroke-linejoin:round;stroke-miterlimit:10;" width="29.88" height="124.04"></rect>
	</g>
	<g id="LWPOLYLINE_00000058588583651822627360000012616481563773912449_">
		
			<line style="fill:none;stroke:#000000;stroke-linecap:round;stroke-linejoin:round;stroke-miterlimit:10;" x1="911.19" y1="1295.18" x2="782.81" y2="1295.18"></line>
	</g>
	<g id="LWPOLYLINE_00000098921159341742637170000002478142759959213441_">
		<path style="fill:none;stroke:#000000;stroke-linecap:round;stroke-linejoin:round;stroke-miterlimit:10;" d="M782.81,1295.18
			l0,65.95c0,9.29,5.99,17.52,14.84,20.37c32.09,10.33,66.62,10.33,98.71,0c8.84-2.85,14.84-11.08,14.84-20.37v-65.95"></path>
	</g>
	<g id="LWPOLYLINE_00000094585856801224640580000017068425840651477437_">
		<path style="fill:none;stroke:#000000;stroke-linecap:round;stroke-linejoin:round;stroke-miterlimit:10;" d="M881.24,1313.63
			c7.09,0,12.84,5.75,12.84,12.84v20.55c0,4.7-3.07,8.85-7.57,10.23c-25.75,7.88-53.27,7.88-79.02,0
			c-4.49-1.38-7.56-5.53-7.57-10.23v-20.55c0-7.09,5.75-12.84,12.84-12.84"></path>
	</g>
	<g id="LWPOLYLINE_00000107573872188187002070000007729626918022741142_">
		<path style="fill:none;stroke:#000000;stroke-linecap:round;stroke-linejoin:round;stroke-miterlimit:10;" d="M791.37,1326.47
			l0,34.65c0,5.57,3.59,10.51,8.9,12.22c30.39,9.79,63.08,9.79,93.46,0c5.3-1.71,8.9-6.65,8.9-12.22v-34.65
			c0-7.09-5.75-12.84-12.84-12.84H804.2C797.11,1313.64,791.36,1319.39,791.37,1326.47z"></path>
	</g>
	<g id="LWPOLYLINE_00000076585844393553006670000013713206867587335048_">
		<path style="fill:none;stroke:#000000;stroke-linecap:round;stroke-linejoin:round;stroke-miterlimit:10;" d="M847,1317.46
			c-3.18,0-5.76,2.58-5.76,5.76c0,3.18,2.58,5.76,5.76,5.76c3.18,0,5.76-2.58,5.76-5.76c0,0,0,0,0,0
			C852.76,1320.04,850.18,1317.46,847,1317.46C847,1317.46,847,1317.46,847,1317.46z"></path>
	</g>
	<g id="CIRCLE_00000125595599474976626700000013758379244680087173_">
		
			<circle style="fill:none;stroke:#000000;stroke-linecap:round;stroke-linejoin:round;stroke-miterlimit:10;" cx="599.13" cy="1324.36" r="7.78"></circle>
	</g>
	<g id="LWPOLYLINE_00000167368795687282253760000012272897555170754464_">
		<path style="fill:none;stroke:#000000;stroke-linecap:round;stroke-linejoin:round;stroke-miterlimit:10;" d="M696.39,1460.52
			c21.48,0,38.9-17.42,38.9-38.9c0,0,0,0,0,0V1319.5c0-8.06-6.53-14.59-14.59-14.59H594.27c-8.06,0-14.59,6.53-14.59,14.59v126.44
			c0,8.06,6.53,14.59,14.59,14.59H696.39z"></path>
	</g>
	<g id="LWPOLYLINE_00000119821424240006253850000014071155829787787948_">
		<path style="fill:none;stroke:#000000;stroke-linecap:round;stroke-linejoin:round;stroke-miterlimit:10;" d="M569.96,1470.25
			l126.44,0c26.86,0,48.63-21.77,48.63-48.63c0,0,0,0,0,0v-126.44l-175.07,0L569.96,1470.25h126.43c26.86,0,48.63-21.77,48.63-48.63
			c0,0,0,0,0,0v-126.44"></path>
	</g>
</g>
</svg>
