<?xml version="1.0" encoding="utf-8"?>
<!-- Generator: Adobe Illustrator 24.1.2, SVG Export Plug-In . SVG Version: 6.00 Build 0)  -->
<svg version="1.0" id="Layer_1" xmlns="http://www.w3.org/2000/svg" xmlns:xlink="http://www.w3.org/1999/xlink" x="0px" y="0px" width="2000px" height="2000px" viewBox="0 0 2000 2000" style="enable-background:new 0 0 2000 2000;" xml:space="preserve">
<path id="background" style="fill:#FFFFFF;" d="M1482.4,100.73v60.77v58.6v1445.56v58.6h-224.65v-19.96h-10.45
	c-2.83,49.52-23.1,96.15-57.62,132.1c-36.48,37.98-85.52,60.57-138.09,63.59c-0.01,0-0.03,0-0.04,0c0,0,0,0,0,0s0,0,0,0c0,0,0,0,0,0
	c-0.1,0-0.19-0.02-0.28-0.06c-0.03-0.01-0.06-0.04-0.09-0.06c-0.05-0.03-0.1-0.05-0.14-0.09c-0.03-0.03-0.05-0.07-0.08-0.11
	c-0.03-0.04-0.06-0.07-0.08-0.12c-0.02-0.04-0.02-0.09-0.04-0.14c-0.01-0.04-0.03-0.08-0.03-0.12c0-0.01,0-0.01,0-0.02
	c0-0.01,0-0.02,0-0.02v-194.95h-10.12v19.96H571.87H517.6v-35.81v-202.94v-27.13V220.11v-58.6v-60.77h200.04c0,0,0,0,0,0
	c0-0.4,0.33-0.73,0.73-0.73h434.1c0.4,0,0.73,0.33,0.73,0.73c0,0,0,0,0,0H1482.4z"></path>
<g id="h1">
	<path id="h1_path" style="fill:none;" d="M967.51,1292.32h494.99v393.37H967.51V1292.32z"></path>
	<text id="h1_text" transform="matrix(1 0 0 1 1190.2848 1415.1611)" style="font-family: GraphikLCG-Regular; font-size: 40px; text-anchor: middle; text-align: center;"></text>
</g>
<g id="c1">
	<path id="c1_path" style="fill:none;" d="M1462.5,1292.32H546.82V957.96h915.68V1292.32z"></path>
	<text id="c1_text" transform="matrix(1 0 0 1 989.1675 1069.9536)" style="font-family: GraphikLCG-Regular; font-size: 40px; text-anchor: middle; text-align: center;"></text>
</g>
<g id="s1">
	<path id="s1_path" style="fill:none;" d="M967.51,1685.7H546.82v-393.37h420.69V1685.7z"></path>
	<text id="s1_text" transform="matrix(1 0 0 1 821.2769 1527.6904)" style="font-family: GraphikLCG-Regular; font-size: 40px; text-anchor: middle; text-align: center;"></text>
</g>
<g id="r1">
	<path id="r1_path" style="fill:none;" d="M1462.5,957.96H546.82V101.28h915.68V957.96z"></path>
	<text id="r1_text" transform="matrix(1 0 0 1 993.0474 609.1338)" style="font-family: GraphikLCG-Regular; font-size: 40px; text-anchor: middle; text-align: center;"></text>
</g>
<g id="mebel">
	<g>
		<g>
			
				<rect x="1411.26" y="372.53" style="fill:none;stroke:#000000;stroke-linecap:round;stroke-linejoin:round;stroke-miterlimit:10;" width="9.82" height="200.71"></rect>
			<polygon style="fill:none;stroke:#000000;stroke-linecap:round;stroke-linejoin:round;stroke-miterlimit:10;" points="
				1430.91,397.62 1421.08,372.53 1421.08,573.25 1430.91,548.16 			"></polygon>
		</g>
		
			<rect x="1386.71" y="322.35" style="fill:none;stroke:#000000;stroke-linecap:round;stroke-linejoin:round;stroke-miterlimit:10;" width="44.19" height="301.07"></rect>
	</g>
	<g>
		<polygon style="fill:none;stroke:#000000;stroke-linecap:round;stroke-linejoin:round;stroke-miterlimit:10;" points="
			1302.91,1279.7 1430.55,1279.7 1430.55,1152.07 1302.91,1152.05 		"></polygon>
		<g>
			
				<line style="fill:none;stroke:#000000;stroke-linecap:round;stroke-linejoin:round;stroke-miterlimit:10;" x1="1366.73" y1="1184.63" x2="1366.73" y2="1247.12"></line>
			
				<line style="fill:none;stroke:#000000;stroke-linecap:round;stroke-linejoin:round;stroke-miterlimit:10;" x1="1335.48" y1="1215.87" x2="1397.98" y2="1215.87"></line>
			<polyline style="fill:none;stroke:#000000;stroke-linecap:round;stroke-linejoin:round;stroke-miterlimit:10;" points="
				1351.1,1191.57 1366.73,1200.25 1382.35,1191.57 			"></polyline>
			<polyline style="fill:none;stroke:#000000;stroke-linecap:round;stroke-linejoin:round;stroke-miterlimit:10;" points="
				1391.03,1200.25 1382.35,1215.87 1391.03,1231.5 			"></polyline>
			<polyline style="fill:none;stroke:#000000;stroke-linecap:round;stroke-linejoin:round;stroke-miterlimit:10;" points="
				1382.35,1240.18 1366.73,1231.5 1351.1,1240.18 			"></polyline>
			<polyline style="fill:none;stroke:#000000;stroke-linecap:round;stroke-linejoin:round;stroke-miterlimit:10;" points="
				1342.42,1231.5 1351.1,1215.87 1342.42,1200.25 			"></polyline>
		</g>
	</g>
	<g>
		<path style="fill:none;stroke:#000000;stroke-linecap:round;stroke-linejoin:round;stroke-miterlimit:10;" d="M620.07,522.87
			V281.41c0-3.06,2.48-5.53,5.53-5.53h130.94c3.06,0,5.53,2.48,5.53,5.53v241.46c0,3.06-2.48,5.53-5.53,5.53H625.6
			C622.55,528.4,620.07,525.93,620.07,522.87z"></path>
		<path style="fill:none;stroke:#000000;stroke-linecap:round;stroke-linejoin:round;stroke-miterlimit:10;" d="M620.07,522.87
			V281.41c0-3.06-2.48-5.53-5.53-5.53h-33.57c-3.06,0-5.53,2.48-5.53,5.53v241.46c0,3.06,2.48,5.53,5.53,5.53h33.57
			C617.59,528.4,620.07,525.93,620.07,522.87z"></path>
		<path style="fill:none;stroke:#000000;stroke-linecap:round;stroke-linejoin:round;stroke-miterlimit:10;" d="M620.07,533.94
			V775.4c0,3.06,2.48,5.53,5.53,5.53h130.94c3.06,0,5.53-2.48,5.53-5.53V533.94c0-3.06-2.48-5.53-5.53-5.53H625.6
			C622.55,528.4,620.07,530.88,620.07,533.94z"></path>
		<path style="fill:none;stroke:#000000;stroke-linecap:round;stroke-linejoin:round;stroke-miterlimit:10;" d="M620.07,533.94
			V775.4c0,3.06-2.48,5.53-5.53,5.53h-33.57c-3.06,0-5.53-2.48-5.53-5.53V533.94c0-3.06,2.48-5.53,5.53-5.53h33.57
			C617.59,528.4,620.07,530.88,620.07,533.94z"></path>
	</g>
	<g>
		<g>
			<g>
				<g>
					<path style="fill:none;stroke:#000000;stroke-linecap:round;stroke-linejoin:round;stroke-miterlimit:10;" d="M745.32,1090.01
						c9.93,0,19.24-2.71,27.22-7.43s14.65-11.45,19.29-19.49c0.84-1.46,0.95-3.11,0.46-4.58c-0.49-1.46-1.57-2.73-3.11-3.43
						c-0.02-0.01-0.03-0.02-0.05-0.02c-0.02-0.01-0.03-0.02-0.05-0.02c-1.28-0.57-2.67-0.6-3.91-0.17s-2.35,1.3-3.04,2.51
						c-3.66,6.37-8.92,11.7-15.24,15.44s-13.69,5.89-21.56,5.89c-7.87,0-15.24-2.15-21.56-5.89c-6.32-3.74-11.58-9.07-15.24-15.44
						c-0.7-1.21-1.8-2.09-3.04-2.51c-1.25-0.43-2.64-0.4-3.91,0.17c-0.02,0.01-0.03,0.02-0.05,0.02s-0.03,0.02-0.05,0.02
						c-1.54,0.69-2.62,1.96-3.11,3.42c-0.49,1.46-0.38,3.12,0.46,4.58c4.64,8.04,11.31,14.77,19.29,19.49
						C726.08,1087.3,735.39,1090.01,745.32,1090.01z"></path>
				</g>
			</g>
		</g>
		<g>
			<g>
				<g>
					<path style="fill:none;stroke:#000000;stroke-linecap:round;stroke-linejoin:round;stroke-miterlimit:10;" d="M879.44,1090.01
						c9.93,0,19.24-2.71,27.22-7.43s14.65-11.45,19.29-19.49c0.84-1.46,0.95-3.11,0.46-4.58c-0.49-1.46-1.57-2.73-3.11-3.43
						c-0.02-0.01-0.03-0.02-0.05-0.02s-0.03-0.02-0.05-0.02c-1.28-0.57-2.67-0.6-3.91-0.17s-2.35,1.3-3.04,2.51
						c-3.66,6.37-8.92,11.7-15.24,15.44c-6.32,3.74-13.69,5.89-21.56,5.89s-15.24-2.15-21.56-5.89
						c-6.32-3.74-11.58-9.07-15.24-15.44c-0.7-1.21-1.8-2.09-3.04-2.51s-2.64-0.4-3.91,0.17c-0.02,0.01-0.03,0.02-0.05,0.02
						c-0.02,0.01-0.03,0.02-0.05,0.02c-1.54,0.69-2.62,1.96-3.11,3.42c-0.49,1.46-0.38,3.12,0.46,4.58
						c4.64,8.04,11.31,14.77,19.29,19.49C860.21,1087.3,869.51,1090.01,879.44,1090.01z"></path>
				</g>
			</g>
		</g>
		<path style="fill:none;stroke:#000000;stroke-linecap:round;stroke-linejoin:round;stroke-miterlimit:10;" d="M781.55,1014.26
			c3.92,6.42,6.17,13.97,6.17,22.05c0,23.42-18.99,42.41-42.41,42.41c-23.42,0-42.41-18.99-42.41-42.41
			c0-8.07,2.25-15.62,6.17-22.04L781.55,1014.26z"></path>
		<path style="fill:none;stroke:#000000;stroke-linecap:round;stroke-linejoin:round;stroke-miterlimit:10;" d="M703.7,1054.58
			c-4.33,0-6.98,4.69-4.83,8.45c9.21,16.12,26.56,26.98,46.45,26.98c19.89,0,37.24-10.86,46.45-26.98c2.15-3.76-0.5-8.45-4.83-8.45
			h0c-2.06,0-3.87,1.18-4.9,2.96c-7.34,12.66-21.03,21.18-36.72,21.18c-15.69,0-29.38-8.52-36.72-21.18
			C707.57,1055.76,705.75,1054.58,703.7,1054.58L703.7,1054.58z"></path>
		<path style="fill:none;stroke:#000000;stroke-linecap:round;stroke-linejoin:round;stroke-miterlimit:10;" d="M915.68,1014.26
			c3.92,6.42,6.17,13.97,6.17,22.05c0,23.42-18.99,42.41-42.41,42.41s-42.41-18.99-42.41-42.41c0-8.07,2.25-15.62,6.17-22.04
			L915.68,1014.26z"></path>
		<path style="fill:none;stroke:#000000;stroke-linecap:round;stroke-linejoin:round;stroke-miterlimit:10;" d="M837.82,1054.58
			c-4.33,0-6.98,4.69-4.83,8.45c9.21,16.12,26.56,26.98,46.45,26.98s37.24-10.86,46.45-26.98c2.15-3.76-0.5-8.45-4.83-8.45l0,0
			c-2.06,0-3.87,1.18-4.9,2.96c-7.34,12.66-21.03,21.18-36.72,21.18s-29.38-8.52-36.72-21.18
			C841.69,1055.76,839.88,1054.58,837.82,1054.58L837.82,1054.58z"></path>
		
			<line style="fill:none;stroke:#000000;stroke-linecap:round;stroke-linejoin:round;stroke-miterlimit:10;" x1="781.56" y1="1014.26" x2="709.08" y2="1014.26"></line>
		<polyline style="fill:none;stroke:#000000;stroke-linecap:round;stroke-linejoin:round;stroke-miterlimit:10;" points="
			709.08,1014.26 574.78,1014.26 574.78,917.37 961.32,917.37 961.32,1014.26 781.56,1014.26 		"></polyline>
	</g>
	<g>
		
			<rect x="1305.5" y="1299.91" transform="matrix(6.123234e-17 -1 1 6.123234e-17 0.1679 2730.8069)" style="fill:none;stroke:#000000;stroke-linecap:round;stroke-linejoin:round;stroke-miterlimit:10;" width="119.97" height="130.83"></rect>
		
			<line style="fill:none;stroke:#000000;stroke-linecap:round;stroke-linejoin:round;stroke-miterlimit:10;" x1="1305.58" y1="1425.31" x2="1305.58" y2="1305.33"></line>
	</g>
	<g>
		
			<rect x="1271.49" y="989.36" transform="matrix(6.123234e-17 -1 1 6.123234e-17 313.7093 2423.2659)" style="fill:none;stroke:#000000;stroke-linecap:round;stroke-linejoin:round;stroke-miterlimit:10;" width="194" height="130.83"></rect>
		
			<line style="fill:none;stroke:#000000;stroke-linecap:round;stroke-linejoin:round;stroke-miterlimit:10;" x1="1308.58" y1="1151.78" x2="1308.58" y2="957.78"></line>
	</g>
	<g>
		
			<rect x="1258.79" y="1492.02" transform="matrix(6.123234e-17 -1 1 6.123234e-17 -165.8329 2924.5732)" style="fill:none;stroke:#000000;stroke-linecap:round;stroke-linejoin:round;stroke-miterlimit:10;" width="241.15" height="106.36"></rect>
		
			<line style="fill:none;stroke:#000000;stroke-linecap:round;stroke-linejoin:round;stroke-miterlimit:10;" x1="1331.7" y1="1665.78" x2="1331.7" y2="1424.63"></line>
	</g>
	
		<rect x="895.61" y="1151.19" style="fill:none;stroke:#000000;stroke-linecap:round;stroke-linejoin:round;stroke-miterlimit:10;" width="101.41" height="128.47"></rect>
	<path style="fill:none;stroke:#000000;stroke-linecap:round;stroke-linejoin:round;stroke-miterlimit:10;" d="M886.82,604.75
		c9.14,0,27.27,0,36.41,0c9.35,0,14.13-7.66,15.69-17.18c5.68-38.82,5.68-78.26,0-117.08c-1.56-9.52-6.34-17.18-15.69-17.18
		c-9.14,0-27.27,0-36.41,0c-9.35,0-14.13,7.66-15.69,17.18c-5.68,38.82-5.68,78.26,0,117.08
		C872.69,597.08,877.47,604.75,886.82,604.75z"></path>
	<g>
		<g>
			<path style="fill:none;stroke:#000000;stroke-miterlimit:10;" d="M648.13,667.23c0.12,0.13,0.25,0.25,0.39,0.37
				c7.52,6.15,14.6,12.93,21.06,20.17c6.45,7.24,12.39,15.04,17.63,23.2c0.11,0.17,0.22,0.31,0.33,0.44
				c0.62,0.7,1.53,1.09,2.49,1.07c0.55-0.01,1.58-0.18,2.4-1.15l0.05-0.06c12.35-15.11,26.94-28.12,43.36-38.67l0.09-0.06
				c1.04-0.7,1.31-1.7,1.39-2.24c0.13-0.95-0.15-1.9-0.78-2.6c-0.12-0.13-0.25-0.25-0.38-0.37c-7.52-6.15-14.6-12.93-21.06-20.17
				s-12.39-15.04-17.63-23.2c-0.11-0.17-0.22-0.31-0.33-0.44c-0.62-0.7-1.53-1.09-2.49-1.07c-0.55,0.01-1.58,0.18-2.4,1.15
				l-0.05,0.06c-12.35,15.11-26.94,28.12-43.36,38.67l-0.09,0.06c-1.04,0.7-1.32,1.7-1.39,2.24
				C647.22,665.59,647.5,666.53,648.13,667.23z"></path>
		</g>
		<path style="fill:none;stroke:#000000;stroke-miterlimit:10;" d="M692.47,711.27l-0.05,0.06c-0.82,0.97-1.86,1.13-2.4,1.15
			c-0.96,0.02-1.87-0.37-2.49-1.07c-0.12-0.13-0.22-0.27-0.33-0.44c-4.61-7.18-9.83-14.01-15.4-20.5
			c-7.18,2.75-14.48,5.18-21.98,7.03l-0.07,0.02c-1.23,0.33-1.82,1.19-2.07,1.68c-0.43,0.86-0.47,1.84-0.1,2.71
			c0.07,0.16,0.15,0.32,0.25,0.49c5.12,8.24,9.62,16.95,13.38,25.88c3.76,8.94,6.85,18.24,9.17,27.68c0.04,0.17,0.1,0.34,0.17,0.51
			c0.36,0.86,1.1,1.53,2.01,1.82c0.52,0.16,1.54,0.34,2.62-0.29l0.09-0.06c16.58-10.3,34.59-17.88,53.54-22.54l0.07-0.02
			c1.23-0.33,1.82-1.19,2.07-1.68c0.43-0.86,0.47-1.84,0.11-2.71c-0.07-0.16-0.15-0.32-0.26-0.49c-5.12-8.24-9.62-16.95-13.38-25.88
			c-1.92-4.57-3.66-9.24-5.22-13.97C705.12,696.99,698.52,703.87,692.47,711.27z"></path>
		<path style="fill:none;stroke:#000000;stroke-miterlimit:10;" d="M692.47,711.27l-0.05,0.06c-0.82,0.97-1.86,1.13-2.4,1.15
			c-0.96,0.02-1.87-0.37-2.49-1.07c-0.12-0.13-0.22-0.27-0.33-0.44c-5.24-8.16-11.17-15.96-17.63-23.2
			c-0.18-0.2-0.38-0.38-0.56-0.58c-6.6,2.47-13.3,4.68-20.16,6.37l-0.02,0c-4.82,1.19-7.08,6.73-4.46,10.95l0.01,0.01
			c10.06,16.19,17.5,33.87,22.05,52.37l0,0.02c1.19,4.82,6.73,7.08,10.95,4.46l0.01-0.01c16.19-10.06,33.87-17.5,52.37-22.05l0.02,0
			c4.82-1.19,7.08-6.73,4.46-10.95l-0.01-0.01c-7.89-12.71-14.11-26.35-18.65-40.57C707.24,694.92,699.46,702.72,692.47,711.27z"></path>
	</g>
	<g>
		<g>
			<path style="fill:none;stroke:#000000;stroke-miterlimit:10;" d="M642.48,397.69c0.12-0.13,0.25-0.25,0.39-0.37
				c7.52-6.15,14.6-12.93,21.06-20.17c6.45-7.24,12.39-15.04,17.63-23.2c0.11-0.17,0.22-0.31,0.33-0.44
				c0.62-0.7,1.53-1.09,2.49-1.07c0.55,0.01,1.58,0.18,2.4,1.15l0.05,0.06c12.35,15.11,26.94,28.12,43.36,38.67l0.09,0.06
				c1.04,0.7,1.31,1.7,1.39,2.24c0.13,0.95-0.15,1.9-0.78,2.6c-0.12,0.13-0.25,0.25-0.38,0.37c-7.52,6.15-14.6,12.93-21.06,20.17
				c-6.45,7.24-12.39,15.04-17.63,23.2c-0.11,0.17-0.22,0.31-0.33,0.44c-0.62,0.7-1.53,1.09-2.49,1.07
				c-0.55-0.01-1.58-0.18-2.4-1.15l-0.05-0.06c-12.35-15.11-26.94-28.12-43.36-38.67l-0.09-0.06c-1.04-0.7-1.32-1.7-1.39-2.24
				C641.57,399.34,641.86,398.39,642.48,397.69z"></path>
		</g>
		<path style="fill:none;stroke:#000000;stroke-miterlimit:10;" d="M686.82,353.66l-0.05-0.06c-0.82-0.97-1.86-1.13-2.4-1.15
			c-0.96-0.02-1.87,0.37-2.49,1.07c-0.12,0.13-0.22,0.27-0.33,0.44c-4.61,7.18-9.83,14.01-15.4,20.5
			c-7.18-2.75-14.48-5.18-21.98-7.03l-0.08-0.02c-1.23-0.33-1.82-1.19-2.07-1.68c-0.43-0.86-0.47-1.84-0.1-2.71
			c0.07-0.16,0.15-0.32,0.25-0.49c5.12-8.24,9.62-16.95,13.38-25.88s6.85-18.24,9.17-27.68c0.04-0.17,0.1-0.34,0.17-0.51
			c0.36-0.86,1.1-1.53,2.01-1.82c0.52-0.16,1.54-0.34,2.62,0.29l0.09,0.06c16.58,10.3,34.59,17.88,53.54,22.54l0.07,0.02
			c1.23,0.33,1.82,1.19,2.07,1.68c0.43,0.86,0.47,1.84,0.11,2.71c-0.07,0.16-0.15,0.32-0.26,0.49c-5.12,8.24-9.62,16.95-13.38,25.88
			c-1.92,4.57-3.66,9.24-5.22,13.97C699.47,367.94,692.87,361.06,686.82,353.66z"></path>
		<path style="fill:none;stroke:#000000;stroke-miterlimit:10;" d="M686.82,353.66l-0.05-0.06c-0.82-0.97-1.86-1.13-2.4-1.15
			c-0.96-0.02-1.87,0.37-2.49,1.07c-0.12,0.13-0.22,0.27-0.33,0.44c-5.24,8.16-11.17,15.96-17.63,23.2
			c-0.18,0.2-0.38,0.38-0.56,0.58c-6.6-2.47-13.3-4.68-20.16-6.37l-0.02,0c-4.82-1.19-7.08-6.73-4.46-10.95l0.01-0.01
			c10.06-16.19,17.5-33.87,22.05-52.37l0-0.02c1.19-4.82,6.73-7.08,10.95-4.46l0.01,0.01c16.19,10.06,33.87,17.5,52.37,22.05l0.02,0
			c4.82,1.19,7.08,6.73,4.46,10.95l-0.01,0.01c-7.89,12.71-14.11,26.35-18.65,40.57C701.59,370,693.81,362.21,686.82,353.66z"></path>
	</g>
	<g>
		<path style="fill:none;stroke:#000000;stroke-miterlimit:10;" d="M1105.93,874.91c0.05,1.54,0.35,3.06,0.81,4.52
			c3.46,10.98,14.68,18.07,26.09,16.61c5.93-0.76,10.56-3.22,13.12-4.88c1.33-0.86,2.47-1.96,3.41-3.24v0
			c0.95-1.29,1.67-2.72,2.11-4.26c0.86-3.01,1.86-8.31,0.74-14.33c-2.07-11.15-11.99-19.54-23.33-19.69
			c-1.38-0.02-2.77,0.1-4.13,0.41"></path>
		<path style="fill:none;stroke:#000000;stroke-miterlimit:10;" d="M1148.16,889.56c15.85,16.38,41.56,18,59.29,4.31
			c1.76-1.36,2.16-3.84,0.92-5.69c-1.33-1.99-4.05-2.48-5.98-1.07c-15.11,11.1-36.6,9.85-51.53-1.84"></path>
		<path style="fill:none;stroke:#000000;stroke-miterlimit:10;" d="M1097.59,863.81c4.72,0.86,9.73-0.93,12.77-5.05
			c3.02-4.08,3.29-9.34,1.15-13.58"></path>
		<path style="fill:none;stroke:#000000;stroke-miterlimit:10;" d="M1105.67,839.41c-3.9-1.93-8.47-1.72-12.16,0.37
			c-2.17-0.57-4.56,0.18-5.98,2.09c-1.42,1.91-1.43,4.42-0.25,6.33c-0.91,4.09,0.18,8.46,3.1,11.62"></path>
		<path style="fill:none;stroke:#000000;stroke-miterlimit:10;" d="M1091.59,857.03C1091.32,857.57,1091.59,857.03,1091.59,857.03
			c-1.57,3.71-2.22,8.37-2.28,9.65c-0.03,0.63,0.5,1.22,1.09,1.02c3.56-1.18,9.72-5.68,10.13-6.1c0.41-0.42,1.65-1.78-0.32-3.73"></path>
		<path style="fill:none;stroke:#000000;stroke-miterlimit:10;" d="M1109.95,848.65c1.46-3.03,3.09-7.92,3.18-11.67
			c0.02-0.63-0.7-0.96-1.29-0.75c-1.2,0.43-5.47,2.41-8.56,5l0,0"></path>
		<line style="fill:none;stroke:#000000;stroke-miterlimit:10;" x1="1090.18" y1="851.68" x2="1089.99" y2="847.48"></line>
		<line style="fill:none;stroke:#000000;stroke-miterlimit:10;" x1="1097.26" y1="842.15" x2="1093.26" y2="842.41"></line>
		<polygon style="fill:none;stroke:#000000;stroke-miterlimit:10;" points="1088.65,844.59 1090.55,842.03 1088.08,842.21 		"></polygon>
		<path style="fill:none;stroke:#000000;stroke-miterlimit:10;" d="M1089.31,866.68c0,0,4.74-5.73,6.52-10.03"></path>
		<path style="fill:none;stroke:#000000;stroke-miterlimit:10;" d="M1112.67,836.24c-1.76,4.06-7.17,8.68-7.17,8.68
			s-1.01,0.02-1.66-1.23"></path>
		<g>
			<path style="fill:none;stroke:#000000;stroke-miterlimit:10;" d="M1128.7,863.94c1.14-5.81-0.99-12.02-6.06-15.77
				c-3.35-2.48-7.34-3.39-11.18-2.96"></path>
			<path style="fill:none;stroke:#000000;stroke-miterlimit:10;" d="M1097.71,863.77c0.71,3.79,2.75,7.35,6.1,9.82
				c5.01,3.71,11.46,3.96,16.65,1.28"></path>
		</g>
	</g>
	<g>
		<g>
			<path style="fill:none;stroke:#000000;stroke-miterlimit:10;" d="M1345.44,720.89c0.88-1.01,1.82-1.96,2.84-2.84"></path>
			<path style="fill:none;stroke:#000000;stroke-miterlimit:10;" d="M1393.2,727.43c0.9,1.9,1.6,3.92,2.08,6.06
				c0.11,0.48,0.2,0.96,0.28,1.44"></path>
		</g>
		<g>
			<path style="fill:none;stroke:#000000;stroke-miterlimit:10;" d="M1391.3,730.82c0.4,1.08,0.73,2.19,0.98,3.34"></path>
			<path style="fill:none;stroke:#000000;stroke-miterlimit:10;" d="M1348.25,722.35c0.79-0.86,1.63-1.66,2.53-2.41"></path>
		</g>
		<g>
			<path style="fill:none;stroke:#000000;stroke-miterlimit:10;" d="M1365.13,694.5c-2.07-1.47-4.57-2.68-7.61-3.4
				c-13.49,8.37-10.01,24.28-10.01,24.28c0.51,3.16,3.18,5.44,6.26,5.56"></path>
		</g>
		<line style="fill:none;stroke:#000000;stroke-miterlimit:10;" x1="1358.61" y1="700.87" x2="1357.66" y2="691.39"></line>
		<line style="fill:none;stroke:#000000;stroke-miterlimit:10;" x1="1362.71" y1="741.75" x2="1361.07" y2="725.42"></line>
		<g>
			<path style="fill:none;stroke:#000000;stroke-miterlimit:10;" d="M1373.72,752.11C1373.72,752.11,1373.72,752.11,1373.72,752.11
				C1373.71,752.1,1373.7,752.1,1373.72,752.11z"></path>
			<path style="fill:none;stroke:#000000;stroke-miterlimit:10;" d="M1364.14,771.15c6.83,4.44,21.04,11,36.96,2.65
				c1.39-4.52,1.79-8.73,1.52-12.59"></path>
			<path style="fill:none;stroke:#000000;stroke-miterlimit:10;" d="M1373.8,751.12c-2.06-1.7-4.68-2.36-7.27-2.14"></path>
			<path style="fill:none;stroke:#000000;stroke-miterlimit:10;" d="M1376.67,732.83c-1.4,0.64-2.68,1.59-3.73,2.85
				c-3.71,4.47-3.62,11.72,0.85,15.43c0.91,0.76,0.55,0.47,0.44,0.37"></path>
			<path style="fill:none;stroke:#000000;stroke-miterlimit:10;" d="M1389.92,736.16c-1.3-1.21-2.16-1.85-2.16-1.85"></path>
		</g>
		<line style="fill:none;stroke:#000000;stroke-miterlimit:10;" x1="1362.78" y1="741.9" x2="1401.1" y2="773.79"></line>
		<g>
			<path style="fill:none;stroke:#000000;stroke-miterlimit:10;" d="M1372.4,718.8C1372.4,718.8,1372.4,718.8,1372.4,718.8
				C1372.39,718.82,1372.39,718.81,1372.4,718.8z"></path>
			<path style="fill:none;stroke:#000000;stroke-miterlimit:10;" d="M1373.88,719.48C1373.88,719.48,1373.88,719.47,1373.88,719.48
				C1373.88,719.49,1373.87,719.49,1373.88,719.48z"></path>
			<path style="fill:none;stroke:#000000;stroke-miterlimit:10;" d="M1353.02,710.61c-2.41,5.29-0.07,11.52,5.22,13.93
				c5.29,2.41,12.26,0.41,14.67-4.88c0.49-1.08,0.31-0.65,0.24-0.53c0.19-0.41,0.34-0.74,0.34-0.74s-0.15,0.33-0.33,0.74
				c0.05-0.13,0,0-0.24,0.53c-2.05,4.53-0.09,10.01,3.83,12.99c0.66,0.5,1.37,0.93,2.12,1.27c5.29,2.41,11.52,0.07,13.93-5.22
				c0,0,0.2-0.38,0.51-1.08c2.09-4.74,9.26-24.2-5.69-40.28C1362.42,686.54,1353.02,710.61,1353.02,710.61z"></path>
		</g>
		<line style="fill:none;stroke:#000000;stroke-miterlimit:10;" x1="1362.78" y1="741.9" x2="1387.6" y2="687.36"></line>
		<g>
			<path style="fill:none;stroke:#000000;stroke-miterlimit:10;" d="M1350.82,725.64c-0.64-2.03-2.24-3.71-4.44-4.36
				c0,0-15.34-5.48-25.36,6.84c0.63,5.89,3.23,10.11,6.24,13.08"></path>
		</g>
		<line style="fill:none;stroke:#000000;stroke-miterlimit:10;" x1="1334.94" y1="732.71" x2="1321.03" y2="728.12"></line>
		<line style="fill:none;stroke:#000000;stroke-miterlimit:10;" x1="1362.78" y1="741.9" x2="1358.92" y2="740.63"></line>
		<g>
			<path style="fill:none;stroke:#000000;stroke-miterlimit:10;" d="M1353.88,747.26C1353.88,747.26,1353.88,747.26,1353.88,747.26
				C1353.9,747.25,1353.89,747.25,1353.88,747.26z"></path>
			<path style="fill:none;stroke:#000000;stroke-miterlimit:10;" d="M1353.16,745.8C1353.15,745.8,1353.15,745.8,1353.16,745.8
				C1353.17,745.79,1353.17,745.79,1353.16,745.8z"></path>
			<path style="fill:none;stroke:#000000;stroke-miterlimit:10;" d="M1368.5,751.72c-2.59-5.2-9.27-8.04-14.47-5.44"></path>
			<path style="fill:none;stroke:#000000;stroke-miterlimit:10;" d="M1353.51,746.53c-0.12,0.07,0,0,0.52-0.26
				c5.19-2.61,6.94-9.64,4.35-14.83c-2.59-5.2-8.91-7.31-14.1-4.71c0,0-23.72,10.26-22,35.4c7.91,6.84,16.4,8.64,23.63,8.41"></path>
		</g>
		<line style="fill:none;stroke:#000000;stroke-miterlimit:10;" x1="1345.26" y1="750.65" x2="1322.27" y2="762.12"></line>
		<g>
			<path style="fill:none;stroke:#000000;stroke-miterlimit:10;" d="M1358.61,755.59C1358.61,755.59,1358.62,755.59,1358.61,755.59
				C1358.62,755.57,1358.62,755.58,1358.61,755.59z"></path>
			<path style="fill:none;stroke:#000000;stroke-miterlimit:10;" d="M1357.64,755.26C1357.64,755.26,1357.64,755.26,1357.64,755.26
				C1357.64,755.25,1357.64,755.25,1357.64,755.26z"></path>
			<path style="fill:none;stroke:#000000;stroke-miterlimit:10;" d="M1371.29,759.47c1.17-3.47-0.7-7.23-4.17-8.39
				s-7.71,0.53-8.88,4c-0.24,0.71-0.15,0.43-0.12,0.35c-0.09,0.27-0.16,0.48-0.16,0.48s0.07-0.22,0.16-0.48
				c-0.02,0.09,0,0,0.12-0.35c1.16-3.47-1.18-7.39-4.65-8.56s-7.23,0.7-8.39,4.17c0,0-6.03,15.13,5.91,25.59
				c5.92-0.42,10.23-2.87,13.31-5.78C1369.59,765.62,1371.29,759.47,1371.29,759.47z"></path>
		</g>
		<line style="fill:none;stroke:#000000;stroke-miterlimit:10;" x1="1362.69" y1="741.72" x2="1351.11" y2="776.27"></line>
		<g>
			<path style="fill:none;stroke:#000000;stroke-miterlimit:10;" d="M1392.52,747.71C1392.52,747.71,1392.52,747.7,1392.52,747.71
				C1392.51,747.7,1392.51,747.7,1392.52,747.71z"></path>
			<path style="fill:none;stroke:#000000;stroke-miterlimit:10;" d="M1392.3,748.71C1392.3,748.71,1392.3,748.71,1392.3,748.71
				C1392.29,748.71,1392.29,748.71,1392.3,748.71z"></path>
			<path style="fill:none;stroke:#000000;stroke-miterlimit:10;" d="M1395.02,734.69c-3.57-0.79-7.11,1.47-7.9,5.04
				c-0.79,3.57,1.36,7.61,4.93,8.4c0.73,0.16,0.44,0.1,0.36,0.08c0.27,0.06,0.5,0.11,0.5,0.11s-0.22-0.05-0.5-0.11
				c0.09,0.01,0,0-0.36-0.08c-3.57-0.78-7.22,1.97-8.01,5.54c-0.79,3.57,1.47,7.11,5.04,7.9c0,0,15.69,4.37,24.8-8.62
				C1411.09,737.32,1395.02,734.69,1395.02,734.69z"></path>
		</g>
		<line style="fill:none;stroke:#000000;stroke-miterlimit:10;" x1="1362.82" y1="741.98" x2="1413.89" y2="752.95"></line>
	</g>
	<g>
		<path style="fill:none;stroke:#000000;stroke-miterlimit:10;" d="M1246.98,280.17c-1.08-1.58-1.95-3.31-2.56-5.13"></path>
		<g>
			<path style="fill:none;stroke:#000000;stroke-miterlimit:10;" d="M1281.3,257.38c1.03,1.6,1.83,3.33,2.39,5.16"></path>
			<g>
				<g>
					<g>
						<path style="fill:none;stroke:#000000;stroke-miterlimit:10;" d="M1265.59,270.07c1.57,1.65,3.9,2.37,6.12,1.86
							c4.88-1.12,14.06-3.54,23.5-7.66c0.73-0.32,0.56-1.41-0.24-1.47c-9.79-0.67-18.8,0.1-23.93,0.72"></path>
						<path style="fill:none;stroke:#000000;stroke-miterlimit:10;" d="M1263.22,267.68c-1.93-1.86-4.67-2.6-7.27-1.94
							c-4.88,1.25-13.39,3.72-22.33,7.65c-0.74,0.32-0.54,1.42,0.26,1.47c9.79,0.65,18.61-0.22,23.57-0.9
							c1.06-2.28,3.02-4.01,5.46-4.7"></path>
					</g>
					<path style="fill:none;stroke:#000000;stroke-miterlimit:10;" d="M1278.31,240.94c-1.98,9.81-5.07,17.74-6.89,21.89
						c-0.88,2-2.4,3.63-4.34,4.63l-1.89,0.98c-0.41,0.21-0.91,0.01-1.07-0.42l-0.58-1.65c-0.94-2.66-0.64-5.59,0.8-8.02
						c2.42-4.08,6.75-10.84,12.64-18.04C1277.47,239.7,1278.47,240.17,1278.31,240.94z M1251.86,297.35
						c6.1-7.54,10.54-15.04,12.92-19.41c1.3-2.38,1.39-5.22,0.28-7.69l-0.37-0.82c-0.16-0.34-0.54-0.52-0.9-0.42l-0.87,0.25
						c-2.58,0.73-4.67,2.6-5.67,5.09c-1.85,4.61-4.81,12.83-6.72,22.37C1250.36,297.49,1251.36,297.96,1251.86,297.35z"></path>
					<g>
						<path style="fill:none;stroke:#000000;stroke-miterlimit:10;" d="M1263.11,264.54c-0.57-1.09-1.41-2.03-2.49-2.67
							c-3.85-2.31-12.04-6.84-22.19-10.23c-0.75-0.25-1.33,0.68-0.79,1.25c5.63,5.87,11.23,10.58,15.2,13.69
							c1.14-0.32,2.21-0.61,3.11-0.84c2.6-0.67,5.34,0.07,7.27,1.94l0.76,0.73"></path>
						<path style="fill:none;stroke:#000000;stroke-miterlimit:10;" d="M1264.68,269.44l0.37,0.82c0.58,1.28,0.81,2.65,0.75,4.01
							c0.63,0.98,1.49,1.81,2.55,2.37c4.25,2.25,12.38,6.24,22.04,9.41c0.75,0.24,1.33-0.69,0.79-1.25
							c-5.88-6.05-11.9-10.74-16.05-13.7c-1.27,0.33-2.45,0.62-3.42,0.84c-2.22,0.51-4.55-0.21-6.12-1.86l-0.82-0.86"></path>
					</g>
					<g>
						<path style="fill:none;stroke:#000000;stroke-miterlimit:10;" d="M1265.67,272.24c0.12,0.67,0.17,1.35,0.13,2.03l0,0
							C1265.83,273.59,1265.79,272.91,1265.67,272.24z"></path>
						<path style="fill:none;stroke:#000000;stroke-miterlimit:10;" d="M1268.35,276.63c-1.06-0.56-1.92-1.39-2.55-2.37
							c-0.06,1.27-0.4,2.53-1.02,3.68c-0.29,0.52-0.6,1.1-0.95,1.7c2.23,5.45,5.44,12.49,9.4,19c0.42,0.68,1.48,0.36,1.42-0.44
							c-0.55-7.21-1.93-14.4-3.24-20.02C1270.26,277.62,1269.21,277.08,1268.35,276.63z"></path>
						<path style="fill:none;stroke:#000000;stroke-miterlimit:10;" d="M1265.67,272.23c-0.13-0.67-0.33-1.34-0.61-1.97
							C1265.34,270.89,1265.54,271.55,1265.67,272.23z"></path>
						<path style="fill:none;stroke:#000000;stroke-miterlimit:10;" d="M1264.81,257.57c-2.22-5.38-5.36-12.21-9.21-18.55
							c-0.42-0.68-1.48-0.36-1.42,0.44c0.57,7.49,2.04,14.95,3.39,20.65c1.19,0.66,2.24,1.27,3.06,1.76"></path>
						<path style="fill:none;stroke:#000000;stroke-miterlimit:10;" d="M1265.67,272.24c0,0,0-0.01,0-0.01
							C1265.67,272.23,1265.67,272.23,1265.67,272.24z"></path>
					</g>
				</g>
				<g>
					<line style="fill:none;stroke:#000000;stroke-miterlimit:10;" x1="1257.45" y1="273.96" x2="1257.45" y2="273.96"></line>
					<path style="fill:none;stroke:#000000;stroke-miterlimit:10;" d="M1236.05,296.13c-0.51,0.85,0.48,1.83,1.33,1.32
						c5.52-3.37,11.44-7.79,15.72-11.13c1.47-4.98,3.01-9.15,4.14-11.96c0.06-0.14,0.15-0.25,0.21-0.39
						c-1.58,0.22-3.59,0.45-5.87,0.65C1247.38,279.55,1241.47,287.09,1236.05,296.13z"></path>
					<path style="fill:none;stroke:#000000;stroke-miterlimit:10;" d="M1255.66,250.88c-3.93-4.1-8.94-8.87-14.87-13.52
						c-0.78-0.61-1.88,0.25-1.47,1.15c2.44,5.42,6.1,12.16,8.75,16.88"></path>
					<path style="fill:none;stroke:#000000;stroke-miterlimit:10;" d="M1246.06,260.94c-5.78-0.24-12.79-0.27-20.23,0.27
						c-1.02,0.07-1.25,1.45-0.31,1.86c6.49,2.81,12.77,4.88,18.16,6.39"></path>
					<path style="fill:none;stroke:#000000;stroke-miterlimit:10;" d="M1269.34,250.52c-0.47-6.39-1.29-13.71-2.78-20.91
						c-0.2-0.99-1.61-1.06-1.88-0.08c-1.77,6.52-2.99,13.19-3.84,19.17"></path>
					<path style="fill:none;stroke:#000000;stroke-miterlimit:10;" d="M1259.46,286.84c0.46,6.45,1.3,13.92,2.81,21.22
						c0.2,0.99,1.61,1.06,1.88,0.08c1.77-6.52,3-13.2,3.85-19.16c-1.62-3.34-3.03-6.54-4.17-9.33"></path>
					<path style="fill:none;stroke:#000000;stroke-miterlimit:10;" d="M1273.29,287.46c4.03,3.92,9.01,8.42,14.75,12.87
						c0.79,0.61,1.88-0.26,1.47-1.16c-2.95-6.46-6.22-12.2-9.18-16.89"></path>
					<path style="fill:none;stroke:#000000;stroke-miterlimit:10;" d="M1275.13,271.09"></path>
					<path style="fill:none;stroke:#000000;stroke-miterlimit:10;" d="M1303.33,274.62c-6.41-2.79-12.69-4.91-18.12-6.51
						c-3.82,1.29-7.27,2.26-10.08,2.99c1.99,1.41,4.42,3.25,7.04,5.41c5.96,0.35,13.19,0.48,20.83-0.05
						C1303.99,276.39,1304.25,275.02,1303.33,274.62z"></path>
					<path style="fill:none;stroke:#000000;stroke-miterlimit:10;" d="M1276.86,262.96c4.07-4.49,10.19-11.91,15.92-21.43
						c0.51-0.85-0.48-1.83-1.32-1.32c-6.06,3.66-11.35,7.35-15.62,10.55"></path>
				</g>
			</g>
			<g>
				<path style="fill:none;stroke:#000000;stroke-miterlimit:10;" d="M1267.62,291.41c0.5-0.08,0.98-0.2,1.47-0.31"></path>
				<path style="fill:none;stroke:#000000;stroke-miterlimit:10;" d="M1277.38,249.63c-0.33-0.24-0.67-0.47-1.02-0.69"></path>
				<path style="fill:none;stroke:#000000;stroke-miterlimit:10;" d="M1286.37,262.57c-0.67-2.53-1.79-4.91-3.25-7.06"></path>
				<path style="fill:none;stroke:#000000;stroke-miterlimit:10;" d="M1284.76,278.76c0.33-0.68,0.63-1.37,0.9-2.09"></path>
				<path style="fill:none;stroke:#000000;stroke-miterlimit:10;" d="M1273.61,289.58c0.43-0.19,0.84-0.41,1.25-0.63"></path>
				<path style="fill:none;stroke:#000000;stroke-miterlimit:10;" d="M1287.13,268.7c0-0.43,0.01-0.85-0.01-1.27"></path>
				<path style="fill:none;stroke:#000000;stroke-miterlimit:10;" d="M1241.75,275.07c0.78,2.63,2.01,5.09,3.64,7.28"></path>
				<path style="fill:none;stroke:#000000;stroke-miterlimit:10;" d="M1243.17,258.3c-0.4,0.81-0.76,1.66-1.06,2.53"></path>
				<path style="fill:none;stroke:#000000;stroke-miterlimit:10;" d="M1251.14,287.82c0.43,0.29,0.88,0.56,1.33,0.82"></path>
				<path style="fill:none;stroke:#000000;stroke-miterlimit:10;" d="M1256.89,290.59c0.49,0.16,0.98,0.3,1.49,0.42
					c0.48,0.12,0.97,0.19,1.45,0.28"></path>
				<path style="fill:none;stroke:#000000;stroke-miterlimit:10;" d="M1246.75,253.01c-0.39,0.44-0.77,0.89-1.13,1.36"></path>
				<path style="fill:none;stroke:#000000;stroke-miterlimit:10;" d="M1261.33,245.51c-0.66,0.08-1.32,0.18-1.96,0.31"></path>
				<path style="fill:none;stroke:#000000;stroke-miterlimit:10;" d="M1272.01,246.78c-0.8-0.29-1.61-0.55-2.45-0.76
					c-0.2-0.05-0.41-0.07-0.61-0.12"></path>
				<path style="fill:none;stroke:#000000;stroke-miterlimit:10;" d="M1255.07,247.14c-0.72,0.3-1.42,0.64-2.11,1.01"></path>
				<path style="fill:none;stroke:#000000;stroke-miterlimit:10;" d="M1240.81,268.61c0,0.63,0.03,1.25,0.08,1.87"></path>
			</g>
		</g>
	</g>
	<g>
		<g>
			<circle style="fill:none;stroke:#000000;stroke-miterlimit:10;" cx="875.47" cy="994.17" r="15.68"></circle>
		</g>
		<g>
			<circle style="fill:none;stroke:#000000;stroke-miterlimit:10;" cx="875.47" cy="994.17" r="8.93"></circle>
		</g>
		<g>
			<ellipse style="fill:none;stroke:#000000;stroke-miterlimit:10;" cx="905.89" cy="984.77" rx="2.43" ry="3.95"></ellipse>
			<line style="fill:none;stroke:#000000;stroke-miterlimit:10;" x1="905.89" y1="988.72" x2="905.89" y2="1005.99"></line>
		</g>
		<g>
			<path style="fill:none;stroke:#000000;stroke-miterlimit:10;" d="M849.88,980.82v3.95c0,2.18,1.09,3.95,2.43,3.95
				c1.34,0,2.43-1.77,2.43-3.95v-3.95"></path>
			<line style="fill:none;stroke:#000000;stroke-miterlimit:10;" x1="852.31" y1="988.72" x2="852.31" y2="1005.99"></line>
		</g>
		<line style="fill:none;stroke:#000000;stroke-miterlimit:10;" x1="852.31" y1="980.82" x2="852.31" y2="988.72"></line>
		<g>
			<path style="fill:none;stroke:#000000;stroke-miterlimit:10;" d="M899.9,995.43h-3.77v-14.61l0,0c2.08,0,3.77,1.69,3.77,3.77
				V995.43z"></path>
			<path style="fill:none;stroke:#000000;stroke-miterlimit:10;" d="M898.02,1005.99L898.02,1005.99c-1.04,0-1.89-0.84-1.89-1.89
				v-8.67h3.77v8.67C899.9,1005.15,899.06,1005.99,898.02,1005.99z"></path>
		</g>
	</g>
	<g>
		<g>
			<circle style="fill:none;stroke:#000000;stroke-miterlimit:10;" cx="742.76" cy="994.17" r="15.68"></circle>
		</g>
		<g>
			<circle style="fill:none;stroke:#000000;stroke-miterlimit:10;" cx="742.76" cy="994.17" r="8.93"></circle>
		</g>
		<g>
			<ellipse style="fill:none;stroke:#000000;stroke-miterlimit:10;" cx="773.18" cy="984.77" rx="2.43" ry="3.95"></ellipse>
			<line style="fill:none;stroke:#000000;stroke-miterlimit:10;" x1="773.18" y1="988.72" x2="773.18" y2="1005.99"></line>
		</g>
		<g>
			<path style="fill:none;stroke:#000000;stroke-miterlimit:10;" d="M717.17,980.82v3.95c0,2.18,1.09,3.95,2.43,3.95
				s2.43-1.77,2.43-3.95v-3.95"></path>
			<line style="fill:none;stroke:#000000;stroke-miterlimit:10;" x1="719.6" y1="988.72" x2="719.6" y2="1005.99"></line>
		</g>
		<line style="fill:none;stroke:#000000;stroke-miterlimit:10;" x1="719.6" y1="980.82" x2="719.6" y2="988.72"></line>
		<g>
			<path style="fill:none;stroke:#000000;stroke-miterlimit:10;" d="M767.2,995.43h-3.77v-14.61l0,0c2.08,0,3.77,1.69,3.77,3.77
				V995.43z"></path>
			<path style="fill:none;stroke:#000000;stroke-miterlimit:10;" d="M765.31,1005.99L765.31,1005.99c-1.04,0-1.89-0.84-1.89-1.89
				v-8.67h3.77v8.67C767.2,1005.15,766.35,1005.99,765.31,1005.99z"></path>
		</g>
	</g>
	<g>
		<circle style="fill:none;stroke:#000000;stroke-miterlimit:10;" cx="946.22" cy="1210.46" r="25.86"></circle>
		<circle style="fill:none;stroke:#000000;stroke-miterlimit:10;" cx="939.25" cy="1198.35" r="7.43"></circle>
		<circle style="fill:none;stroke:#000000;stroke-miterlimit:10;" cx="938.35" cy="1213.21" r="7.43"></circle>
		<circle style="fill:none;stroke:#000000;stroke-miterlimit:10;" cx="951.97" cy="1207.25" r="7.43"></circle>
		<path style="fill:none;stroke:#000000;stroke-miterlimit:10;" d="M964.25,1205.29l-1.65-0.33l-1.02,6.45
			c-5.95,11.62-16.52,11.33-22.39,11.72c-1.36,0.09-1.75,1.91-0.56,2.56c4.22,2.3,11.17,4.84,17.65,1.55
			c7.42-3.76,7.47-11.36,6.94-15.26L964.25,1205.29z"></path>
	</g>
	<g>
		<g>
			
				<rect x="596.39" y="928.46" transform="matrix(0.8609 0.5088 -0.5088 0.8609 564.5757 -173.5721)" style="fill:none;stroke:#000000;stroke-miterlimit:10;" width="6.6" height="34.35"></rect>
			<g>
				
					<rect x="610.49" y="928.51" transform="matrix(0.7051 0.7092 -0.7092 0.7051 851.6654 -156.3485)" style="fill:none;stroke:#000000;stroke-miterlimit:10;" width="6.6" height="34.35"></rect>
			</g>
			<g>
				
					<rect x="622.44" y="974.42" transform="matrix(-0.214 0.9768 -0.9768 -0.214 1738.1013 573.7793)" style="fill:none;stroke:#000000;stroke-miterlimit:10;" width="31.54" height="23.48"></rect>
				<line style="fill:none;stroke:#000000;stroke-miterlimit:10;" x1="631.91" y1="968.63" x2="625.16" y2="999.45"></line>
			</g>
		</g>
		<polygon style="fill:none;stroke:#000000;stroke-miterlimit:10;" points="599.29,955.45 618.21,936.63 611.27,932.52 
			593.8,962.09 612.5,973.14 614.13,970.38 		"></polygon>
		
			<rect x="607.29" y="936.21" transform="matrix(0.7051 0.7092 -0.7092 0.7051 859.3858 -159.5071)" style="fill:none;stroke:#000000;stroke-miterlimit:10;" width="28.32" height="34.35"></rect>
	</g>
	<g>
		<path style="fill:none;stroke:#000000;stroke-miterlimit:10;" d="M874.54,556.78v-52.03c0-1.6,1.3-2.9,2.9-2.9l33.68,0
			c1.6,0,2.9,1.3,2.9,2.9v52.03c0,1.6-1.3,2.9-2.9,2.9h-33.68C875.84,559.68,874.54,558.39,874.54,556.78z"></path>
		
			<rect x="878.17" y="521.17" transform="matrix(-5.759834e-07 1 -1 -5.759834e-07 1431.2068 -369.6649)" style="fill:none;stroke:#000000;stroke-miterlimit:10;" width="44.53" height="19.21"></rect>
		
			<rect x="873.41" y="525.34" transform="matrix(-5.759834e-07 1 -1 -5.759834e-07 1413.1466 -351.6047)" style="fill:none;stroke:#000000;stroke-miterlimit:10;" width="17.93" height="10.85"></rect>
		<path style="fill:none;stroke:#000000;stroke-miterlimit:10;" d="M914.02,559.68v-57.83l12.29-6.42c1.72-0.9,3.77,0.35,3.77,2.29
			l0,66.1c0,1.94-2.06,3.18-3.77,2.29L914.02,559.68z"></path>
	</g>
</g>
<g id="floor">
	<g>
		<polygon points="1152.48,100.73 1152.48,161.51 1163.33,161.51 1163.33,220.11 1430.3,220.11 1430.3,1279.32 1300.07,1279.32 
			1300.07,1305.37 1430.3,1305.37 1430.3,1665.67 1257.75,1665.67 1257.75,1724.28 1482.4,1724.28 1482.4,1665.67 1482.4,220.11 
			1482.4,161.51 1482.4,100.73 		"></polygon>
		<polygon points="978.84,1572.34 954.96,1572.34 954.96,1665.67 571.87,1665.67 571.87,1485.52 576.21,1485.52 576.21,1458.39 
			576.21,1303.2 954.96,1303.2 954.96,1398.7 978.84,1398.7 978.84,1303.2 1007.05,1303.2 1007.05,1279.32 576.21,1279.32 
			576.21,220.11 707.52,220.11 707.52,161.51 718.38,161.51 718.38,100.73 517.6,100.73 517.6,161.51 517.6,220.11 517.6,1458.39 
			517.6,1485.52 517.6,1688.46 517.6,1724.28 571.87,1724.28 1040.7,1724.28 1040.7,1665.67 978.84,1665.67 		"></polygon>
	</g>
	<g id="LWPOLYLINE_00000032633401296277297960000009415779520786949514_">
		
			<line style="fill:none;stroke:#000000;stroke-linecap:round;stroke-linejoin:round;stroke-miterlimit:10;" x1="571.87" y1="1485.52" x2="664.11" y2="1485.52"></line>
	</g>
	<g id="LWPOLYLINE_00000034769546950107770130000007290642319877682609_">
		
			<line style="fill:none;stroke:#000000;stroke-linecap:round;stroke-linejoin:round;stroke-miterlimit:10;" x1="664.11" y1="1485.45" x2="664.11" y2="1665.67"></line>
	</g>
	<g id="LWPOLYLINE_00000068635001041438492670000004032211964827728303_">
		
			<line style="fill:none;stroke:#000000;stroke-linecap:round;stroke-linejoin:round;stroke-miterlimit:10;" x1="576.21" y1="1475.94" x2="576.21" y2="1303.2"></line>
	</g>
	<g id="LWPOLYLINE_00000062179366469617396850000011895036993117877432_">
		
			<line style="fill:none;stroke:#000000;stroke-linecap:round;stroke-linejoin:round;stroke-miterlimit:10;" x1="693.6" y1="1542" x2="693.6" y2="1599.58"></line>
	</g>
	<g id="LWPOLYLINE_00000000925848886071193080000005730343689439643779_">
		<path style="fill:none;stroke:#000000;stroke-linecap:round;stroke-linejoin:round;stroke-miterlimit:10;" d="M703.19,1604.12
			h40.31c21.2,0,38.39-17.19,38.39-38.39c0-21.2-17.19-38.39-38.39-38.39h-40.31c-5.3,0-9.59,4.3-9.59,9.6v57.58
			C693.6,1599.82,697.89,1604.11,703.19,1604.12C703.19,1604.12,703.19,1604.12,703.19,1604.12z"></path>
	</g>
	<g id="LWPOLYLINE_00000026853504944784101160000003221182283019720860_">
		<path style="fill:none;stroke:#000000;stroke-linecap:round;stroke-linejoin:round;stroke-miterlimit:10;" d="M743.5,1535.02
			h-13.46c-16.96,0-30.71,13.75-30.71,30.71c0,16.96,13.75,30.7,30.71,30.71h13.46c16.96,0,30.71-13.75,30.71-30.71
			C774.21,1548.77,760.46,1535.02,743.5,1535.02z"></path>
	</g>
	<g id="LWPOLYLINE_00000051357858008746738270000007822021962908952738_">
		<path style="fill:none;stroke:#000000;stroke-linecap:round;stroke-linejoin:round;stroke-miterlimit:10;" d="M731.15,1554.21
			h-13.46c-6.36,0-11.51,5.15-11.52,11.51s5.15,11.51,11.51,11.52c0,0,0,0,0,0h13.46c6.36,0,11.51-5.16,11.51-11.52
			C742.66,1559.37,737.51,1554.21,731.15,1554.21z"></path>
	</g>
	<g id="LWPOLYLINE_00000078754835931001942670000011006498635696116666_">
		
			<rect x="664.11" y="1504.54" style="fill:none;stroke:#000000;stroke-linecap:round;stroke-linejoin:round;stroke-miterlimit:10;" width="29.48" height="122.39"></rect>
	</g>
	<g id="LWPOLYLINE_00000150077974992254768550000015768056216600634504_">
		
			<line style="fill:none;stroke:#000000;stroke-linecap:round;stroke-linejoin:round;stroke-miterlimit:10;" x1="918.12" y1="1303.2" x2="791.44" y2="1303.2"></line>
	</g>
	<g id="LWPOLYLINE_00000016776228219104637680000008578184174839754139_">
		<path style="fill:none;stroke:#000000;stroke-linecap:round;stroke-linejoin:round;stroke-miterlimit:10;" d="M791.44,1303.2
			l0,65.07c0,9.17,5.92,17.28,14.64,20.1c31.67,10.19,65.73,10.19,97.4,0c8.72-2.81,14.64-10.93,14.64-20.1v-65.07"></path>
	</g>
	<g id="LWPOLYLINE_00000159446758731534519900000014367017274425585849_">
		<path style="fill:none;stroke:#000000;stroke-linecap:round;stroke-linejoin:round;stroke-miterlimit:10;" d="M888.56,1321.41
			c7,0,12.67,5.67,12.67,12.67v20.28c0,4.64-3.03,8.74-7.46,10.09c-25.41,7.78-52.56,7.78-77.97,0c-4.43-1.36-7.46-5.45-7.46-10.09
			v-20.28c0-7,5.67-12.67,12.67-12.67"></path>
	</g>
	<g id="LWPOLYLINE_00000103226046024167056220000004877364578831713215_">
		<path style="fill:none;stroke:#000000;stroke-linecap:round;stroke-linejoin:round;stroke-miterlimit:10;" d="M799.89,1334.08
			l0,34.19c0,5.5,3.54,10.37,8.78,12.06c29.98,9.66,62.24,9.66,92.22,0c5.23-1.69,8.78-6.56,8.78-12.06v-34.19
			c0-7-5.67-12.67-12.67-12.67h-84.46C805.56,1321.41,799.89,1327.08,799.89,1334.08z"></path>
	</g>
	<g id="LWPOLYLINE_00000020383249253289096240000015015010048066882947_">
		<path style="fill:none;stroke:#000000;stroke-linecap:round;stroke-linejoin:round;stroke-miterlimit:10;" d="M854.78,1325.18
			c-3.14,0-5.68,2.54-5.69,5.68c0,3.14,2.55,5.68,5.69,5.68c3.14,0,5.68-2.54,5.68-5.68c0,0,0,0,0,0
			C860.46,1327.72,857.92,1325.18,854.78,1325.18C854.78,1325.18,854.78,1325.18,854.78,1325.18z"></path>
	</g>
	<g id="CIRCLE_00000132059909951041577150000010089403235261651350_">
		
			<circle style="fill:none;stroke:#000000;stroke-linecap:round;stroke-linejoin:round;stroke-miterlimit:10;" cx="604.99" cy="1331.99" r="7.68"></circle>
	</g>
	<g id="LWPOLYLINE_00000056420487325495669760000012781589833644334748_">
		<path style="fill:none;stroke:#000000;stroke-linecap:round;stroke-linejoin:round;stroke-miterlimit:10;" d="M700.97,1466.35
			c21.2,0,38.39-17.18,38.39-38.38c0,0,0,0,0,0v-100.77c0-7.95-6.45-14.39-14.4-14.4H600.2c-7.95,0-14.4,6.45-14.4,14.4v124.76
			c0,7.95,6.45,14.39,14.39,14.39H700.97z"></path>
	</g>
	<g id="LWPOLYLINE_00000084526427571428863970000006300172127530226084_">
		<path style="fill:none;stroke:#000000;stroke-linecap:round;stroke-linejoin:round;stroke-miterlimit:10;" d="M576.21,1475.94
			l124.76,0c26.5,0,47.98-21.48,47.98-47.98c0,0,0,0,0,0V1303.2l-172.74,0L576.21,1475.94h124.76c26.5,0,47.98-21.48,47.98-47.98
			c0,0,0,0,0,0V1303.2"></path>
	</g>
	<g id="LWPOLYLINE_00000003811680577171003000000015913801315625307583_">
		
			<rect x="576.21" y="1151.42" style="fill:none;stroke:#000000;stroke-linecap:round;stroke-linejoin:round;stroke-miterlimit:10;" width="127.9" height="127.9"></rect>
	</g>
	<g id="LWPOLYLINE_00000103250638080971869480000012360537474976466311_">
		<path style="fill:none;stroke:#000000;stroke-linecap:round;stroke-linejoin:round;stroke-miterlimit:10;" d="M586.86,1169.54
			l0,80.95c0,4.12,3.34,7.46,7.46,7.46l91.66,0c4.12,0,7.46-3.34,7.46-7.46v-80.95c0-4.12-3.34-7.46-7.46-7.46c0,0,0,0,0,0h-91.67
			C590.2,1162.08,586.86,1165.41,586.86,1169.54C586.86,1169.53,586.86,1169.53,586.86,1169.54z"></path>
	</g>
	<g id="LWPOLYLINE_00000171716001819019019970000013161159728416569509_">
		
			<rect x="832" y="1151.36" style="fill:none;stroke:#000000;stroke-linecap:round;stroke-linejoin:round;stroke-miterlimit:10;" width="63.95" height="127.9"></rect>
	</g>
	<g id="LWPOLYLINE_00000003787837492931612320000013744282067561446061_">
		
			<line style="fill:none;stroke:#000000;stroke-linecap:round;stroke-linejoin:round;stroke-miterlimit:10;" x1="863.98" y1="1225.97" x2="863.98" y2="1268.61"></line>
	</g>
	<g id="LWPOLYLINE_00000183225290101640065780000010280622801213286787_">
		
			<line style="fill:none;stroke:#000000;stroke-linecap:round;stroke-linejoin:round;stroke-miterlimit:10;" x1="885.3" y1="1247.28" x2="842.66" y2="1247.28"></line>
	</g>
	<g id="CIRCLE_00000046308945083734994980000013439648853122613436_">
		
			<circle style="fill:none;stroke:#000000;stroke-linecap:round;stroke-linejoin:round;stroke-miterlimit:10;" cx="863.98" cy="1247.28" r="17.06"></circle>
	</g>
	<g id="LWPOLYLINE_00000015354087944372232500000012080266528856378506_">
		
			<line style="fill:none;stroke:#000000;stroke-linecap:round;stroke-linejoin:round;stroke-miterlimit:10;" x1="863.98" y1="1162.02" x2="863.98" y2="1204.65"></line>
	</g>
	<g id="LWPOLYLINE_00000101805089294058222640000006915395918641933976_">
		
			<line style="fill:none;stroke:#000000;stroke-linecap:round;stroke-linejoin:round;stroke-miterlimit:10;" x1="885.3" y1="1183.33" x2="842.66" y2="1183.33"></line>
	</g>
	<g id="CIRCLE_00000164471902814396371000000012185526085217773960_">
		
			<circle style="fill:none;stroke:#000000;stroke-linecap:round;stroke-linejoin:round;stroke-miterlimit:10;" cx="863.98" cy="1183.33" r="17.06"></circle>
	</g>
	<g id="LWPOLYLINE_00000118363240395487245700000000978842246284015026_">
		
			<rect x="704.11" y="1151.42" style="fill:none;stroke:#000000;stroke-linecap:round;stroke-linejoin:round;stroke-miterlimit:10;" width="127.9" height="127.9"></rect>
	</g>
	<g id="CIRCLE_00000076581195811740235760000012442155472595906209_">
		
			<circle style="fill:none;stroke:#000000;stroke-linecap:round;stroke-linejoin:round;stroke-miterlimit:10;" cx="768.06" cy="1214.47" r="40.93"></circle>
	</g>
	<g id="LWPOLYLINE_00000122686808291422277080000000784759848093374141_">
		<polyline style="fill:none;stroke:#000000;stroke-linecap:round;stroke-linejoin:round;stroke-miterlimit:10;" points="
			814.81,1250.31 768.06,1196.06 768.06,1232.89 721.3,1178.63 		"></polyline>
	</g>
	<g id="LWPOLYLINE_00000096032878335678656820000001434172077411260602_">
		<path style="fill:none;stroke:#000000;stroke-linecap:round;stroke-linejoin:round;stroke-miterlimit:10;" d="M618.84,1229.74
			c-4.13,0-7.48,3.35-7.48,7.48c0,0,0,0,0,0c0,4.13,3.35,7.48,7.48,7.48c0,0,0,0,0,0c4.13,0,7.48-3.35,7.48-7.48c0,0,0,0,0,0
			C626.32,1233.09,622.97,1229.74,618.84,1229.74C618.84,1229.74,618.84,1229.74,618.84,1229.74z"></path>
	</g>
	<g id="LINE_00000114070168184733119970000017453794843896007313_">
		<g>
			<g>
				
					<line style="fill:none;stroke:#000000;stroke-linecap:round;stroke-linejoin:round;" x1="576.21" y1="958.08" x2="581.21" y2="958.08"></line>
				
					<line style="fill:none;stroke:#000000;stroke-linecap:round;stroke-linejoin:round;stroke-dasharray:9.9306,9.9306;" x1="591.14" y1="958.08" x2="1420.34" y2="958.08"></line>
				
					<line style="fill:none;stroke:#000000;stroke-linecap:round;stroke-linejoin:round;" x1="1425.3" y1="958.08" x2="1430.3" y2="958.08"></line>
			</g>
		</g>
	</g>
	<g>
		<g>
			
				<line style="fill:none;stroke:#000000;stroke-linecap:round;stroke-linejoin:round;" x1="1301.13" y1="1292.34" x2="1296.13" y2="1292.34"></line>
			
				<line style="fill:none;stroke:#000000;stroke-linecap:round;stroke-linejoin:round;stroke-dasharray:9.7958,9.7958;" x1="1286.34" y1="1292.34" x2="1016.95" y2="1292.34"></line>
			
				<line style="fill:none;stroke:#000000;stroke-linecap:round;stroke-linejoin:round;" x1="1012.05" y1="1292.34" x2="1007.05" y2="1292.34"></line>
		</g>
	</g>
	<g id="LINE_00000029041740086056539280000004325063466995946384_">
		
			<line style="fill:none;stroke:#000000;stroke-linecap:round;stroke-linejoin:round;stroke-miterlimit:10;" x1="718.38" y1="100.73" x2="1152.48" y2="100.73"></line>
	</g>
	<g id="LINE_00000130643412765815576240000003784184061425974416_">
		
			<line style="fill:none;stroke:#000000;stroke-linecap:round;stroke-linejoin:round;stroke-miterlimit:10;" x1="1163.33" y1="181.04" x2="707.52" y2="181.04"></line>
	</g>
	<g id="LINE_00000039818715130619494790000007507734682740414855_">
		
			<line style="fill:none;stroke:#000000;stroke-linecap:round;stroke-linejoin:round;stroke-miterlimit:10;" x1="718.38" y1="161.51" x2="718.38" y2="181.04"></line>
	</g>
	<g id="LINE_00000066506197863543013180000001484799083565653168_">
		
			<line style="fill:none;stroke:#000000;stroke-linecap:round;stroke-linejoin:round;stroke-miterlimit:10;" x1="1152.48" y1="161.51" x2="1152.48" y2="181.04"></line>
	</g>
	<g id="LINE_00000015316432885113077070000007140160870197673139_">
		
			<line style="fill:none;stroke:#000000;stroke-linecap:round;stroke-linejoin:round;stroke-miterlimit:10;" x1="1163.33" y1="161.51" x2="707.52" y2="161.51"></line>
	</g>
	<g id="LINE_00000048470267485093830360000000900702031549956794_">
		
			<line style="fill:none;stroke:#000000;stroke-linecap:round;stroke-linejoin:round;stroke-miterlimit:10;" x1="1140.32" y1="171.27" x2="730.53" y2="170.73"></line>
	</g>
	<g id="LINE_00000123421670460297220540000016583583577887928969_">
		
			<line style="fill:none;stroke:#000000;stroke-linecap:round;stroke-linejoin:round;stroke-miterlimit:10;" x1="1140.32" y1="181.04" x2="1140.32" y2="161.51"></line>
	</g>
	<g id="LINE_00000123443331958794513780000007222562711756793786_">
		
			<line style="fill:none;stroke:#000000;stroke-linecap:round;stroke-linejoin:round;stroke-miterlimit:10;" x1="718.38" y1="161.51" x2="718.38" y2="181.04"></line>
	</g>
	<g id="LINE_00000025437494955780159790000018027532547772450468_">
		
			<line style="fill:none;stroke:#000000;stroke-linecap:round;stroke-linejoin:round;stroke-miterlimit:10;" x1="730.53" y1="181.04" x2="730.53" y2="161.51"></line>
	</g>
	<g id="LINE_00000067208602810877720480000006430642791822693814_">
		
			<line style="fill:none;stroke:#000000;stroke-linecap:round;stroke-linejoin:round;stroke-miterlimit:10;" x1="1163.33" y1="220.11" x2="707.52" y2="220.11"></line>
	</g>
	<g id="LINE_00000018923871935217644720000003855479605422257854_">
		
			<line style="fill:none;stroke:#000000;stroke-linecap:round;stroke-linejoin:round;stroke-miterlimit:10;" x1="969.49" y1="1561.49" x2="1127.71" y2="1561.49"></line>
	</g>
	<g id="LWPOLYLINE_00000179630838583487031730000011728025028659571887_">
		
			<rect x="958.29" y="1398.7" style="fill:none;stroke:#000000;stroke-linecap:round;stroke-linejoin:round;stroke-miterlimit:10;" width="17.22" height="10.85"></rect>
	</g>
	<g id="ARC_00000097500935016275265110000002911603866572729512_">
		<path style="fill:none;stroke:#000000;stroke-linecap:round;stroke-linejoin:round;stroke-miterlimit:10;" d="M969.49,1409.55
			c84.38,1.42,153.38,67.68,158.22,151.93"></path>
	</g>
	<g id="LWPOLYLINE_00000109718334548143234460000001541405523708483513_">
		
			<rect x="958.29" y="1561.49" style="fill:none;stroke:#000000;stroke-linecap:round;stroke-linejoin:round;stroke-miterlimit:10;" width="17.22" height="10.85"></rect>
	</g>
	<g id="LINE_00000170271684707539069860000011507896139364016024_">
		
			<line style="fill:none;stroke:#000000;stroke-linecap:round;stroke-linejoin:round;stroke-miterlimit:10;" x1="1051.55" y1="1695.84" x2="1051.55" y2="1899.27"></line>
	</g>
	<g id="LWPOLYLINE_00000085246641364475009100000010194907856852599170_">
		
			<rect x="1246.9" y="1686.37" style="fill:none;stroke:#000000;stroke-linecap:round;stroke-linejoin:round;stroke-miterlimit:10;" width="10.85" height="17.22"></rect>
	</g>
	<g id="ARC_00000059304074283909324120000008583492484510370704_">
		<path style="fill:none;stroke:#000000;stroke-linecap:round;stroke-linejoin:round;stroke-miterlimit:10;" d="M1246.9,1695.84
			c-1.83,108.49-87.02,197.2-195.35,203.43"></path>
	</g>
	<g id="LWPOLYLINE_00000082331838994979714860000009760291509413955729_">
		
			<rect x="1040.7" y="1686.37" style="fill:none;stroke:#000000;stroke-linecap:round;stroke-linejoin:round;stroke-miterlimit:10;" width="10.85" height="17.22"></rect>
	</g>
	<g id="LINE_00000114796001345214919920000001328289746469857433_">
		
			<line style="fill:none;stroke:#000000;stroke-linecap:round;stroke-linejoin:round;stroke-miterlimit:10;" x1="969.49" y1="1561.49" x2="1127.71" y2="1561.49"></line>
	</g>
	<g id="LWPOLYLINE_00000148653523906076317310000018308823663917901236_">
		
			<rect x="958.29" y="1398.7" style="fill:none;stroke:#000000;stroke-linecap:round;stroke-linejoin:round;stroke-miterlimit:10;" width="17.22" height="10.85"></rect>
	</g>
	<g id="ARC_00000009569777557807442280000005257752995424516505_">
		<path style="fill:none;stroke:#000000;stroke-linecap:round;stroke-linejoin:round;stroke-miterlimit:10;" d="M969.49,1409.55
			c84.38,1.42,153.38,67.68,158.22,151.93"></path>
	</g>
	<g id="LWPOLYLINE_00000070837173729444405710000004608942056817048460_">
		
			<rect x="958.29" y="1561.49" style="fill:none;stroke:#000000;stroke-linecap:round;stroke-linejoin:round;stroke-miterlimit:10;" width="17.22" height="10.85"></rect>
	</g>
</g>
</svg>
