<?xml version="1.0" encoding="utf-8"?>
<!-- Generator: Adobe Illustrator 27.0.0, SVG Export Plug-In . SVG Version: 6.00 Build 0)  -->
<svg version="1.0" id="Layer_1" xmlns="http://www.w3.org/2000/svg" xmlns:xlink="http://www.w3.org/1999/xlink" x="0px" y="0px" width="2000px" height="2000px" viewBox="0 0 2000 2000" style="enable-background:new 0 0 2000 2000;" xml:space="preserve">
<path id="background" style="fill-rule:evenodd;clip-rule:evenodd;fill:#FFFFFF;" d="M1611.77,262.37v1330.41h-37.26h-6.37h-146
	V1900c0,0.28-0.22,0.5-0.5,0.5H866.39c-0.28,0-0.5-0.22-0.5-0.5v-307.22H749.14h-21.81h-21.81V859.27H388.23v-12.39v-27.27V262.37
	h19.83h19.83h400.58v19.12c0,0,0,0,0,0h10.4c0.51-48.24,19.47-93.61,53.54-127.93C927,118.7,972.98,99.5,1021.85,99.5c0,0,0,0,0,0
	c0.28,0,0.5,0.22,0.5,0.5v181.48h10.37v-19.52h562.56v0.4H1611.77z"></path>
<g id="h1">
	<path id="h1_path" style="fill:none;" d="M1048.59,879.1H879.97h-76.49
		h-64.59v-70.55h64.59V287.79h244.99L1048.59,879.1z"></path>
	
		<text id="h1_text" transform="matrix(1 0 0 1 923.5536 424.4496)" style="font-family: GraphikLCG-Regular; font-size: 40px; text-anchor: middle; text-align: center;"></text>
</g>
<g id="s1">
	<path id="s1_path" style="fill:none;" d="M803.48,808.55H442.02V314.63
		h361.45V808.55z"></path>
	
		<text id="s1_text" transform="matrix(1 0 0 1 627.035 582.5278)" style="font-family: GraphikLCG-Regular; font-size: 40px; text-anchor: middle; text-align: center;"></text>
</g>
<g id="r1">
	<path id="r1_path" style="fill:none;" d="M1580.2,960.91l-0.08,602.28H738.89
		V978.86v-17.95V879.1h309.69v81.81H1580.2z"></path>
	
		<text id="r1_text" transform="matrix(1 0 0 1 1264.1991 1309.4945)" style="font-family: GraphikLCG-Regular; font-size: 40px; text-anchor: middle; text-align: center;"></text>
</g>
<g id="c1">
	<path id="c1_path" style="fill:none;" d="M1580.2,960.4h-531.61V567.76
		h531.61V960.4z"></path>
	
		<text id="c1_text" transform="matrix(1 0 0 1 1131.3192 817.2895)" style="font-family: GraphikLCG-Regular; font-size: 40px; text-anchor: middle; text-align: center;"></text>
</g>
<g id="g1">
	<path id="g1_path" style="fill:none;" d="M1580.2,567.76h-523.25V287.79
		h523.25V567.76z"></path>
	
		<text id="g1_text" transform="matrix(1 0 0 1 1145.663 489.9672)" style="font-family: GraphikLCG-Regular; font-size: 40px; text-anchor: middle; text-align: center;"></text>
</g>
<g id="b1">
	<path id="b1_path" style="fill:none;" d="M1407.76,1886.12H880.27v-309.57h527.49V1886.12z"></path>
	<text id="b1_text" transform="matrix(1 0 0 1 1121.6403 1720.2751)" style="font-family: GraphikLCG-Regular; font-size: 40px; text-anchor: middle; text-align: center;"></text>
</g>
<path id="u3" style="fill:#FFFFFF;stroke:#FFFFFF;stroke-linecap:round;stroke-linejoin:round;stroke-miterlimit:10;" d="
	M1351.61,441.4c0,8.99-7.29,16.28-16.28,16.28s-16.28-7.29-16.28-16.28s7.29-16.28,16.28-16.28S1351.61,432.41,1351.61,441.4z"></path>
<path id="u11" style="fill:#FFFFFF;stroke:#FFFFFF;stroke-linecap:round;stroke-linejoin:round;stroke-miterlimit:10;" d="
	M1375.22,1656.04c0,8.99-7.29,16.28-16.28,16.28s-16.28-7.29-16.28-16.28s7.29-16.28,16.28-16.28S1375.22,1647.05,1375.22,1656.04z"></path>
<g id="mebel">
	<g>
		<polygon style="fill:none;stroke:#000000;stroke-linecap:round;stroke-linejoin:round;stroke-miterlimit:10;" points="
			1449.11,694.68 1361.88,694.64 1361.94,575.67 1449.17,575.69 		"></polygon>
		<path style="fill:none;stroke:#000000;stroke-linecap:round;stroke-linejoin:round;stroke-miterlimit:10;" d="M1405.54,609.81
			l-12.69,28.87c-0.69,1.77-1.07,3.71-1.07,5.75c0,8.2,6.15,14.84,13.74,14.85s13.75-6.64,13.76-14.83c0-2.04-0.38-3.98-1.07-5.75
			L1405.54,609.81z"></path>
	</g>
	<g>
		<polygon style="fill:none;stroke:#000000;stroke-linecap:round;stroke-linejoin:round;stroke-miterlimit:10;" points="
			1064.45,694.68 1064.45,575.69 1183.41,575.69 1183.43,694.68 		"></polygon>
		<g>
			
				<line style="fill:none;stroke:#000000;stroke-linecap:round;stroke-linejoin:round;stroke-miterlimit:10;" x1="1152.58" y1="635.18" x2="1095.3" y2="635.18"></line>
			
				<line style="fill:none;stroke:#000000;stroke-linecap:round;stroke-linejoin:round;stroke-miterlimit:10;" x1="1123.94" y1="663.83" x2="1123.94" y2="606.54"></line>
			<polyline style="fill:none;stroke:#000000;stroke-linecap:round;stroke-linejoin:round;stroke-miterlimit:10;" points="
				1146.22,649.51 1138.26,635.18 1146.22,620.86 			"></polyline>
			<polyline style="fill:none;stroke:#000000;stroke-linecap:round;stroke-linejoin:round;stroke-miterlimit:10;" points="
				1138.26,612.91 1123.94,620.86 1109.62,612.91 			"></polyline>
			<polyline style="fill:none;stroke:#000000;stroke-linecap:round;stroke-linejoin:round;stroke-miterlimit:10;" points="
				1101.66,620.86 1109.62,635.18 1101.66,649.51 			"></polyline>
			<polyline style="fill:none;stroke:#000000;stroke-linecap:round;stroke-linejoin:round;stroke-miterlimit:10;" points="
				1109.62,657.46 1123.94,649.51 1138.26,657.46 			"></polyline>
		</g>
	</g>
	<g>
		<g>
			<g>
				<path style="fill:none;stroke:#000000;stroke-linecap:round;stroke-linejoin:round;stroke-miterlimit:10;" d="M1298,877.57
					l-28.58-4.26c-17.88-2.67-34.91,8.53-39.54,26.01l-0.53,1.99c-4.63,17.46,4.6,35.62,21.44,42.17l26.97,10.49L1298,877.57z"></path>
				<path style="fill:none;stroke:#000000;stroke-linecap:round;stroke-linejoin:round;stroke-miterlimit:10;" d="M1252.88,955.29
					l-5.95-2.31c-21.56-8.39-33.38-31.63-27.46-54l0.67-2.54c5.93-22.38,27.74-36.72,50.64-33.31l6.27,0.93
					c3.03,0.45,4.99,3.44,4.21,6.39l0,0c-0.67,2.53-3.13,4.15-5.72,3.76l-6.12-0.91c-17.88-2.67-34.91,8.53-39.54,26.01l-0.53,1.99
					c-4.63,17.46,4.6,35.62,21.44,42.17l5.81,2.26c2.43,0.95,3.77,3.57,3.1,6.09l0,0C1258.92,954.78,1255.74,956.4,1252.88,955.29z"></path>
			</g>
			<g>
				<path style="fill:none;stroke:#000000;stroke-linecap:round;stroke-linejoin:round;stroke-miterlimit:10;" d="M1416.79,990.71
					l28.58,4.26c17.88,2.67,34.91-8.54,39.54-26.01l0.53-1.99c4.63-17.46-4.6-35.62-21.44-42.16l-26.97-10.49L1416.79,990.71z"></path>
				<path style="fill:none;stroke:#000000;stroke-linecap:round;stroke-linejoin:round;stroke-miterlimit:10;" d="M1461.9,912.99
					l5.95,2.31c21.56,8.39,33.38,31.63,27.46,54l-0.67,2.54c-5.93,22.38-27.74,36.73-50.63,33.31l-6.27-0.93
					c-3.03-0.45-4.99-3.44-4.21-6.39l0,0c0.67-2.53,3.13-4.15,5.72-3.76l6.12,0.91c17.88,2.67,34.91-8.54,39.54-26.01l0.53-1.99
					c4.63-17.46-4.6-35.62-21.44-42.16l-5.81-2.26c-2.43-0.95-3.77-3.57-3.1-6.09l0,0C1455.87,913.5,1459.05,911.88,1461.9,912.99z"></path>
			</g>
			
				<circle style="fill:#FFFFFF;stroke:#000000;stroke-linecap:round;stroke-linejoin:round;stroke-miterlimit:10;" cx="1358.94" cy="934.04" r="82.79"></circle>
		</g>
	</g>
	<g>
		
			<ellipse transform="matrix(0.1247 -0.9922 0.9922 0.1247 264.8242 2161.2954)" style="fill:none;stroke:#000000;stroke-linecap:round;stroke-linejoin:round;stroke-miterlimit:10;" cx="1357.37" cy="930.55" rx="32.72" ry="33.61"></ellipse>
		
			<ellipse transform="matrix(0.1247 -0.9922 0.9922 0.1247 274.8314 2139.9758)" style="fill:none;stroke:#000000;stroke-linecap:round;stroke-linejoin:round;stroke-miterlimit:10;" cx="1350.29" cy="914.22" rx="9.4" ry="9.66"></ellipse>
		
			<ellipse transform="matrix(0.1247 -0.9922 0.9922 0.1247 253.3909 2152.697)" style="fill:none;stroke:#000000;stroke-linecap:round;stroke-linejoin:round;stroke-miterlimit:10;" cx="1346.78" cy="932.73" rx="9.4" ry="9.66"></ellipse>
		
			<ellipse transform="matrix(0.1247 -0.9922 0.9922 0.1247 274.8268 2166.437)" style="fill:none;stroke:#000000;stroke-linecap:round;stroke-linejoin:round;stroke-miterlimit:10;" cx="1365.29" cy="927.45" rx="9.4" ry="9.66"></ellipse>
		<path style="fill:none;stroke:#000000;stroke-linecap:round;stroke-linejoin:round;stroke-miterlimit:10;" d="M1381.44,926.98
			l-2.08-0.68l-2.34,7.94c-9.51,13.62-23.1,11.55-30.72,11.08c-1.76-0.11-2.56,2.12-1.12,3.13c5.08,3.57,13.64,7.88,22.52,4.8
			c10.16-3.52,11.42-13.05,11.36-18.03L1381.44,926.98z"></path>
	</g>
	<g>
		<path style="fill:none;stroke:#000000;stroke-linecap:round;stroke-linejoin:round;stroke-miterlimit:10;" d="M1521.9,1455.04
			c-1.07-1.59-2.28-3.08-3.6-4.45"></path>
		<path style="fill:none;stroke:#000000;stroke-linecap:round;stroke-linejoin:round;stroke-miterlimit:10;" d="M1506.7,1503.99
			c6.19-2.45,11.4-6.69,15.06-12.03"></path>
		<path style="fill:none;stroke:#000000;stroke-linecap:round;stroke-linejoin:round;stroke-miterlimit:10;" d="M1477.33,1501.41
			c3.52,2.17,7.46,3.69,11.64,4.41"></path>
		<path style="fill:none;stroke:#000000;stroke-linecap:round;stroke-linejoin:round;stroke-miterlimit:10;" d="M1462.82,1482.06
			c0.37,1.37,0.83,2.71,1.37,4"></path>
		<path style="fill:none;stroke:#000000;stroke-linecap:round;stroke-linejoin:round;stroke-miterlimit:10;" d="M1463.15,1463.54
			c-0.52,1.65-0.91,3.35-1.16,5.08"></path>
		<path style="fill:none;stroke:#000000;stroke-linecap:round;stroke-linejoin:round;stroke-miterlimit:10;" d="M1485.61,1441.69
			c-3.49,0.98-6.72,2.52-9.6,4.49"></path>
		<path style="fill:none;stroke:#000000;stroke-linecap:round;stroke-linejoin:round;stroke-miterlimit:10;" d="M1506.28,1442.62
			c-2.09-0.8-4.27-1.39-6.52-1.75"></path>
		<path style="fill:none;stroke:#000000;stroke-linecap:round;stroke-linejoin:round;stroke-miterlimit:10;" d="M1512.49,1452.85
			c4.78-0.94,9.76-4.02,13.49-8.91c5.16-6.75,6.45-14.9,3.8-20.51c-6.12-1.09-13.64,2.29-18.8,9.05c-4.63,6.05-6.14,13.22-4.5,18.69
			c0.05,0.18,0.15,0.34,0.24,0.5"></path>
		<path style="fill:none;stroke:#000000;stroke-linecap:round;stroke-linejoin:round;stroke-miterlimit:10;" d="M1501.68,1444.98
			c1.45,0.36,2.86,0.83,4.22,1.41"></path>
		<path style="fill:none;stroke:#000000;stroke-linecap:round;stroke-linejoin:round;stroke-miterlimit:10;" d="M1477.17,1449.85
			c2.8-2.08,6-3.67,9.48-4.65"></path>
		<path style="fill:none;stroke:#000000;stroke-linecap:round;stroke-linejoin:round;stroke-miterlimit:10;" d="M1465.4,1471.14
			c0.1-1.29,0.28-2.56,0.54-3.8"></path>
		<path style="fill:none;stroke:#000000;stroke-linecap:round;stroke-linejoin:round;stroke-miterlimit:10;" d="M1467.21,1483.72
			c-0.42-1.11-0.78-2.26-1.06-3.44"></path>
		<path style="fill:none;stroke:#000000;stroke-linecap:round;stroke-linejoin:round;stroke-miterlimit:10;" d="M1488.56,1502.01
			c-3.75-0.79-7.27-2.3-10.38-4.41"></path>
		<path style="fill:none;stroke:#000000;stroke-linecap:round;stroke-linejoin:round;stroke-miterlimit:10;" d="M1517.86,1491.11
			c-2.68,3.51-6.14,6.42-10.17,8.44"></path>
		<path style="fill:none;stroke:#000000;stroke-linecap:round;stroke-linejoin:round;stroke-miterlimit:10;" d="M1514.93,1452.34
			c0.97,0.94,1.88,1.95,2.72,3.01"></path>
		<path style="fill:none;stroke:#000000;stroke-linecap:round;stroke-linejoin:round;stroke-miterlimit:10;" d="M1503.87,1475.95
			c-0.95,0.77-1.29,2.07-0.85,3.21c2.04,5.33,7.63,10.08,14.99,12.03c8.21,2.18,16.23,0.26,20.41-4.34
			c-1.34-6.07-7.34-11.72-15.55-13.9C1515.5,1470.99,1508.29,1472.34,1503.87,1475.95z"></path>
		<path style="fill:none;stroke:#000000;stroke-linecap:round;stroke-linejoin:round;stroke-miterlimit:10;" d="M1477.06,1475.77
			c-0.36,0.47-0.37,1.12-0.04,1.6c1.56,2.27,4.72,3.87,8.4,3.96c4.1,0.1,7.65-1.71,9.09-4.35c-1.31-2.7-4.77-4.67-8.87-4.77
			C1481.96,1472.13,1478.73,1473.57,1477.06,1475.77z"></path>
		
			<line style="fill:none;stroke:#000000;stroke-linecap:round;stroke-linejoin:round;stroke-miterlimit:10;" x1="1474.14" y1="1476.38" x2="1494.51" y2="1476.98"></line>
		<path style="fill:none;stroke:#000000;stroke-linecap:round;stroke-linejoin:round;stroke-miterlimit:10;" d="M1474.21,1482.22
			c-0.76-0.9-2.02-1.22-3.11-0.78c-5.12,2.05-9.62,7.51-11.41,14.64c-1.99,7.96-0.02,15.68,4.48,19.64
			c5.84-1.38,11.21-7.25,13.21-15.21C1479.16,1493.38,1477.76,1486.44,1474.21,1482.22z"></path>
		
			<line style="fill:none;stroke:#000000;stroke-linecap:round;stroke-linejoin:round;stroke-miterlimit:10;" x1="1474.31" y1="1476.26" x2="1464.16" y2="1515.73"></line>
		<path style="fill:none;stroke:#000000;stroke-linecap:round;stroke-linejoin:round;stroke-miterlimit:10;" d="M1468.26,1477.66
			c0.73-0.98,0.76-2.32,0.06-3.32c-3.26-4.69-9.81-7.96-17.43-8.11c-8.5-0.16-15.82,3.63-18.78,9.09c2.75,5.57,9.93,9.63,18.42,9.79
			C1458.16,1485.25,1464.83,1482.22,1468.26,1477.66z"></path>
		
			<line style="fill:none;stroke:#000000;stroke-linecap:round;stroke-linejoin:round;stroke-miterlimit:10;" x1="1474.3" y1="1476.37" x2="1432.12" y2="1475.32"></line>
		
			<line style="fill:none;stroke:#000000;stroke-linecap:round;stroke-linejoin:round;stroke-miterlimit:10;" x1="1474.3" y1="1476.37" x2="1463.88" y2="1435.48"></line>
		<path style="fill:none;stroke:#000000;stroke-linecap:round;stroke-linejoin:round;stroke-miterlimit:10;" d="M1500.73,1454.27
			c0.83-0.05,1.54-0.64,1.75-1.45c0.98-3.77-0.25-8.62-3.56-12.63c-3.7-4.47-8.92-6.58-13.06-5.67c-1.66,3.9-0.57,9.42,3.13,13.89
			C1492.31,1452.42,1496.84,1454.52,1500.73,1454.27z"></path>
		
			<line style="fill:none;stroke:#000000;stroke-linecap:round;stroke-linejoin:round;stroke-miterlimit:10;" x1="1502.72" y1="1454.88" x2="1485.86" y2="1434.52"></line>
		
			<line style="fill:none;stroke:#000000;stroke-linecap:round;stroke-linejoin:round;stroke-miterlimit:10;" x1="1508.28" y1="1451.08" x2="1529.78" y2="1423.43"></line>
		
			<line style="fill:none;stroke:#000000;stroke-linecap:round;stroke-linejoin:round;stroke-miterlimit:10;" x1="1512.59" y1="1460.55" x2="1543.06" y2="1472.62"></line>
		<path style="fill:none;stroke:#000000;stroke-linecap:round;stroke-linejoin:round;stroke-miterlimit:10;" d="M1478.44,1460.16
			c-0.28-1.55-0.27-3.04,0.04-4.42c-0.12-1.53-0.35-3.08-0.76-4.65c-2.15-8.22-7.78-14.25-13.84-15.61
			c-4.62,4.15-6.58,12.16-4.43,20.39c1.93,7.37,6.65,12.98,11.97,15.04c1.14,0.44,2.44,0.1,3.22-0.84
			C1476.73,1467.53,1478.04,1464.05,1478.44,1460.16z"></path>
		
			<line style="fill:none;stroke:#000000;stroke-linecap:round;stroke-linejoin:round;stroke-miterlimit:10;" x1="1498.01" y1="1475.69" x2="1478.75" y2="1454.71"></line>
		
			<line style="fill:none;stroke:#000000;stroke-linecap:round;stroke-linejoin:round;stroke-miterlimit:10;" x1="1497.74" y1="1475.9" x2="1511.36" y2="1450.52"></line>
		<path style="fill:none;stroke:#000000;stroke-linecap:round;stroke-linejoin:round;stroke-miterlimit:10;" d="M1522.86,1472.95
			c2.81,0.75,5.34,1.93,7.54,3.37c5.01,0.28,9.59-1.02,12.66-3.69c-0.61-6.18-5.9-12.51-13.8-15.65
			c-5.72-2.27-11.56-2.36-16.15-0.71c0.12,2.69-0.5,5.66-2,8.49c-0.1,0.19-0.23,0.33-0.34,0.51c1.6,2.59,4.01,4.94,6.96,6.85
			C1519.42,1472.23,1521.13,1472.49,1522.86,1472.95z"></path>
		
			<line style="fill:none;stroke:#000000;stroke-linecap:round;stroke-linejoin:round;stroke-miterlimit:10;" x1="1497.7" y1="1475.76" x2="1538.42" y2="1486.85"></line>
		<path style="fill:none;stroke:#000000;stroke-linecap:round;stroke-linejoin:round;stroke-miterlimit:10;" d="M1499.19,1481.75
			c-1-0.7-2.34-0.68-3.32,0.05c-4.58,3.41-7.63,10.07-7.52,17.69c0.12,8.5,4.15,15.69,9.71,18.47c5.48-2.93,9.29-10.24,9.17-18.74
			C1507.11,1491.6,1503.87,1485.03,1499.19,1481.75z"></path>
		
			<line style="fill:none;stroke:#000000;stroke-linecap:round;stroke-linejoin:round;stroke-miterlimit:10;" x1="1497.7" y1="1475.76" x2="1498.05" y2="1517.96"></line>
		<path style="fill:none;stroke:#000000;stroke-linecap:round;stroke-linejoin:round;stroke-miterlimit:10;" d="M1498.81,1471.82
			c0.37,0.75,1.18,1.18,2.01,1.06c3.86-0.54,7.87-3.53,10.3-8.12c2.71-5.13,2.66-10.76,0.24-14.24c-4.24-0.04-8.92,3.08-11.63,8.21
			C1497.29,1463.33,1497.08,1468.33,1498.81,1471.82z"></path>
		<path style="fill:none;stroke:#000000;stroke-linecap:round;stroke-linejoin:round;stroke-miterlimit:10;" d="M1494.55,1473.36
			c0.82-0.1,1.48-0.72,1.64-1.53c0.75-3.78-0.73-8.5-4.23-12.26c-3.9-4.2-9.18-5.99-13.21-4.86c-1.42,3.95-0.02,9.33,3.88,13.53
			C1486.13,1472.01,1490.73,1473.83,1494.55,1473.36z"></path>
	</g>
	<g>
		<path style="fill:none;stroke:#000000;stroke-linecap:round;stroke-linejoin:round;stroke-miterlimit:10;" d="M963.95,1852.72
			c1.54-1.15,2.97-2.42,4.28-3.8"></path>
		<path style="fill:none;stroke:#000000;stroke-linecap:round;stroke-linejoin:round;stroke-miterlimit:10;" d="M914.36,1839.77
			c2.73,6.08,7.21,11.08,12.71,14.49"></path>
		<path style="fill:none;stroke:#000000;stroke-linecap:round;stroke-linejoin:round;stroke-miterlimit:10;" d="M915.59,1810.32
			c-2.01,3.61-3.34,7.62-3.87,11.83"></path>
		<path style="fill:none;stroke:#000000;stroke-linecap:round;stroke-linejoin:round;stroke-miterlimit:10;" d="M934.26,1794.94
			c-1.36,0.44-2.67,0.96-3.93,1.55"></path>
		<path style="fill:none;stroke:#000000;stroke-linecap:round;stroke-linejoin:round;stroke-miterlimit:10;" d="M952.77,1794.42
			c-1.67-0.44-3.38-0.75-5.13-0.92"></path>
		<path style="fill:none;stroke:#000000;stroke-linecap:round;stroke-linejoin:round;stroke-miterlimit:10;" d="M975.63,1815.85
			c-1.14-3.44-2.82-6.6-4.93-9.39"></path>
		<path style="fill:none;stroke:#000000;stroke-linecap:round;stroke-linejoin:round;stroke-miterlimit:10;" d="M975.64,1836.55
			c0.7-2.12,1.19-4.33,1.45-6.59"></path>
		<path style="fill:none;stroke:#000000;stroke-linecap:round;stroke-linejoin:round;stroke-miterlimit:10;" d="M965.7,1843.22
			c1.16,4.74,4.46,9.56,9.52,13.07c6.98,4.85,15.18,5.76,20.67,2.86c0.81-6.16-2.92-13.52-9.9-18.37
			c-6.26-4.35-13.49-5.53-18.88-3.64c-0.18,0.06-0.33,0.17-0.49,0.26"></path>
		<path style="fill:none;stroke:#000000;stroke-linecap:round;stroke-linejoin:round;stroke-miterlimit:10;" d="M973.08,1832.06
			c-0.3,1.46-0.7,2.89-1.21,4.28"></path>
		<path style="fill:none;stroke:#000000;stroke-linecap:round;stroke-linejoin:round;stroke-miterlimit:10;" d="M967.09,1807.8
			c2.2,2.7,3.94,5.82,5.08,9.26"></path>
		<path style="fill:none;stroke:#000000;stroke-linecap:round;stroke-linejoin:round;stroke-miterlimit:10;" d="M945.28,1797.01
			c1.29,0.04,2.57,0.16,3.82,0.37"></path>
		<path style="fill:none;stroke:#000000;stroke-linecap:round;stroke-linejoin:round;stroke-miterlimit:10;" d="M932.79,1799.39
			c1.09-0.47,2.22-0.88,3.39-1.22"></path>
		<path style="fill:none;stroke:#000000;stroke-linecap:round;stroke-linejoin:round;stroke-miterlimit:10;" d="M915.5,1821.56
			c0.62-3.79,1.97-7.37,3.93-10.57"></path>
		<path style="fill:none;stroke:#000000;stroke-linecap:round;stroke-linejoin:round;stroke-miterlimit:10;" d="M927.74,1850.33
			c-3.63-2.51-6.69-5.84-8.89-9.77"></path>
		<path style="fill:none;stroke:#000000;stroke-linecap:round;stroke-linejoin:round;stroke-miterlimit:10;" d="M966.33,1845.63
			c-0.89,1.01-1.86,1.97-2.89,2.85"></path>
		<path style="fill:none;stroke:#000000;stroke-linecap:round;stroke-linejoin:round;stroke-miterlimit:10;" d="M942.24,1835.67
			c-0.82-0.91-2.13-1.19-3.25-0.71c-5.23,2.28-9.72,8.08-11.34,15.53c-1.81,8.31,0.49,16.23,5.27,20.19
			c6-1.61,11.37-7.87,13.18-16.17C947.72,1847.05,946.05,1839.92,942.24,1835.67z"></path>
		<path style="fill:none;stroke:#000000;stroke-linecap:round;stroke-linejoin:round;stroke-miterlimit:10;" d="M941.19,1808.87
			c-0.49-0.33-1.13-0.32-1.6,0.04c-2.2,1.66-3.65,4.89-3.57,8.57c0.09,4.1,2.06,7.56,4.76,8.88c2.63-1.44,4.45-4.98,4.36-9.08
			C945.05,1813.6,943.46,1810.44,941.19,1808.87z"></path>
		
			<line style="fill:none;stroke:#000000;stroke-linecap:round;stroke-linejoin:round;stroke-miterlimit:10;" x1="940.45" y1="1805.98" x2="940.78" y2="1826.36"></line>
		<path style="fill:none;stroke:#000000;stroke-linecap:round;stroke-linejoin:round;stroke-miterlimit:10;" d="M934.61,1806.32
			c0.87-0.8,1.12-2.07,0.64-3.15c-2.28-5.02-7.94-9.27-15.15-10.73c-8.04-1.63-15.66,0.7-19.42,5.37c1.64,5.77,7.76,10.87,15.8,12.5
			C923.7,1811.78,930.56,1810.06,934.61,1806.32z"></path>
		
			<line style="fill:none;stroke:#000000;stroke-linecap:round;stroke-linejoin:round;stroke-miterlimit:10;" x1="940.57" y1="1806.14" x2="900.69" y2="1797.82"></line>
		<path style="fill:none;stroke:#000000;stroke-linecap:round;stroke-linejoin:round;stroke-miterlimit:10;" d="M938.9,1800.17
			c1.01,0.69,2.35,0.65,3.32-0.09c4.54-3.47,7.51-10.17,7.3-17.78c-0.23-8.5-4.35-15.64-9.94-18.34c-5.44,3-9.16,10.36-8.94,18.85
			C930.86,1790.42,934.19,1796.95,938.9,1800.17z"></path>
		
			<line style="fill:none;stroke:#000000;stroke-linecap:round;stroke-linejoin:round;stroke-miterlimit:10;" x1="940.47" y1="1806.14" x2="939.59" y2="1763.95"></line>
		
			<line style="fill:none;stroke:#000000;stroke-linecap:round;stroke-linejoin:round;stroke-miterlimit:10;" x1="940.47" y1="1806.14" x2="980.84" y2="1793.87"></line>
		<path style="fill:none;stroke:#000000;stroke-linecap:round;stroke-linejoin:round;stroke-miterlimit:10;" d="M963.75,1831.54
			c0.09,0.83,0.71,1.51,1.53,1.68c3.81,0.8,8.6-0.64,12.45-4.14c4.29-3.9,6.16-9.21,5.07-13.31c-3.97-1.48-9.44-0.13-13.73,3.77
			C965.22,1823.04,963.32,1827.66,963.75,1831.54z"></path>
		
			<line style="fill:none;stroke:#000000;stroke-linecap:round;stroke-linejoin:round;stroke-miterlimit:10;" x1="963.23" y1="1833.55" x2="982.8" y2="1815.77"></line>
		
			<line style="fill:none;stroke:#000000;stroke-linecap:round;stroke-linejoin:round;stroke-miterlimit:10;" x1="967.28" y1="1838.93" x2="995.89" y2="1859.14"></line>
		
			<line style="fill:none;stroke:#000000;stroke-linecap:round;stroke-linejoin:round;stroke-miterlimit:10;" x1="958.02" y1="1843.67" x2="947.35" y2="1874.66"></line>
		<path style="fill:none;stroke:#000000;stroke-linecap:round;stroke-linejoin:round;stroke-miterlimit:10;" d="M956.85,1809.54
			c1.53-0.35,3.03-0.41,4.41-0.16c1.52-0.19,3.06-0.49,4.61-0.97c8.12-2.52,13.88-8.42,14.96-14.54
			c-4.36-4.42-12.45-6.02-20.57-3.49c-7.28,2.26-12.66,7.23-14.48,12.65c-0.39,1.16,0.01,2.44,0.99,3.17
			C949.41,1808.17,952.94,1809.32,956.85,1809.54z"></path>
		
			<line style="fill:none;stroke:#000000;stroke-linecap:round;stroke-linejoin:round;stroke-miterlimit:10;" x1="942.23" y1="1829.8" x2="962.31" y2="1809.6"></line>
		
			<line style="fill:none;stroke:#000000;stroke-linecap:round;stroke-linejoin:round;stroke-miterlimit:10;" x1="942.01" y1="1829.53" x2="967.98" y2="1841.98"></line>
		<path style="fill:none;stroke:#000000;stroke-linecap:round;stroke-linejoin:round;stroke-miterlimit:10;" d="M946.1,1854.5
			c-0.62,2.85-1.68,5.43-3.02,7.69c-0.05,5.02,1.46,9.54,4.27,12.48c6.15-0.89,12.22-6.47,15-14.5c2.01-5.81,1.83-11.66-0.03-16.16
			c-2.68,0.24-5.68-0.25-8.58-1.61c-0.19-0.09-0.34-0.22-0.52-0.31c-2.51,1.72-4.76,4.23-6.53,7.27
			C946.67,1851.02,946.48,1852.75,946.1,1854.5z"></path>
		
			<line style="fill:none;stroke:#000000;stroke-linecap:round;stroke-linejoin:round;stroke-miterlimit:10;" x1="942.14" y1="1829.49" x2="932.92" y2="1870.67"></line>
		<path style="fill:none;stroke:#000000;stroke-linecap:round;stroke-linejoin:round;stroke-miterlimit:10;" d="M936.22,1831.26
			c0.65-1.03,0.57-2.37-0.2-3.32c-3.62-4.42-10.41-7.16-18.02-6.71c-8.48,0.51-15.49,4.86-18,10.54c3.18,5.34,10.66,8.81,19.14,8.3
			C926.75,1839.62,933.17,1836.08,936.22,1831.26z"></path>
		
			<line style="fill:none;stroke:#000000;stroke-linecap:round;stroke-linejoin:round;stroke-miterlimit:10;" x1="942.14" y1="1829.49" x2="900.01" y2="1831.78"></line>
		<path style="fill:none;stroke:#000000;stroke-linecap:round;stroke-linejoin:round;stroke-miterlimit:10;" d="M946.13,1830.42
			c-0.73,0.4-1.12,1.23-0.97,2.05c0.72,3.83,3.88,7.7,8.59,9.92c5.25,2.47,10.87,2.17,14.23-0.41c-0.15-4.24-3.49-8.77-8.74-11.24
			C954.54,1828.52,949.54,1828.53,946.13,1830.42z"></path>
		<path style="fill:none;stroke:#000000;stroke-linecap:round;stroke-linejoin:round;stroke-miterlimit:10;" d="M944.4,1826.24
			c0.14,0.81,0.79,1.45,1.6,1.57c3.81,0.58,8.46-1.12,12.06-4.79c4.02-4.09,5.56-9.44,4.25-13.42c-4.01-1.24-9.32,0.4-13.34,4.5
			C945.36,1817.76,943.75,1822.44,944.4,1826.24z"></path>
	</g>
	<g>
		<g>
			<path style="fill:none;stroke:#000000;stroke-linecap:round;stroke-linejoin:round;stroke-miterlimit:10;" d="M802.72,908.09
				c1.11-0.14,2.23-0.2,3.35-0.18"></path>
			<path style="fill:none;stroke:#000000;stroke-linecap:round;stroke-linejoin:round;stroke-miterlimit:10;" d="M828.74,938.84
				c-0.5,1.68-1.2,3.33-2.1,4.92c-0.2,0.36-0.41,0.71-0.63,1.05"></path>
		</g>
		<g>
			<path style="fill:none;stroke:#000000;stroke-linecap:round;stroke-linejoin:round;stroke-miterlimit:10;" d="M825.66,939.88
				c-0.35,0.89-0.77,1.77-1.26,2.63"></path>
			<path style="fill:none;stroke:#000000;stroke-linecap:round;stroke-linejoin:round;stroke-miterlimit:10;" d="M803.65,910.57
				c0.97-0.09,1.94-0.12,2.92-0.08"></path>
		</g>
		<g>
			<path style="fill:none;stroke:#000000;stroke-linecap:round;stroke-linejoin:round;stroke-miterlimit:10;" d="M829.7,902.7
				c-0.46-2.07-1.34-4.22-2.82-6.37c-13.06-2.34-19.79,9.49-19.79,9.49c-1.45,2.25-1.06,5.15,0.78,6.95"></path>
		</g>
		
			<line style="fill:none;stroke:#000000;stroke-linecap:round;stroke-linejoin:round;stroke-miterlimit:10;" x1="822.09" y1="903.01" x2="826.8" y2="896.59"></line>
		
			<line style="fill:none;stroke:#000000;stroke-linecap:round;stroke-linejoin:round;stroke-miterlimit:10;" x1="801.79" y1="930.7" x2="809.9" y2="919.64"></line>
		<g>
			<path style="fill:none;stroke:#000000;stroke-linecap:round;stroke-linejoin:round;stroke-miterlimit:10;" d="M802.84,943.28
				C802.84,943.29,802.84,943.29,802.84,943.28C802.84,943.27,802.84,943.27,802.84,943.28z"></path>
			<path style="fill:none;stroke:#000000;stroke-linecap:round;stroke-linejoin:round;stroke-miterlimit:10;" d="M786.25,949.76
				c1.76,6.58,6.93,18.59,21.48,22.3c3.39-2.03,5.99-4.42,7.98-6.97"></path>
			<path style="fill:none;stroke:#000000;stroke-linecap:round;stroke-linejoin:round;stroke-miterlimit:10;" d="M803.45,942.71
				c-0.33-2.21-1.59-4.08-3.32-5.39"></path>
			<path style="fill:none;stroke:#000000;stroke-linecap:round;stroke-linejoin:round;stroke-miterlimit:10;" d="M815.45,932.96
				c-1.22-0.39-2.55-0.51-3.91-0.31c-4.8,0.7-8.8,5.26-8.1,10.06c0.14,0.98,0.08,0.6,0.07,0.48"></path>
			<path style="fill:none;stroke:#000000;stroke-linecap:round;stroke-linejoin:round;stroke-miterlimit:10;" d="M821.82,942.43
				c-0.13-1.48-0.31-2.36-0.31-2.36"></path>
		</g>
		
			<line style="fill:none;stroke:#000000;stroke-linecap:round;stroke-linejoin:round;stroke-miterlimit:10;" x1="801.75" y1="930.84" x2="807.74" y2="972.06"></line>
		<g>
			<path style="fill:none;stroke:#000000;stroke-linecap:round;stroke-linejoin:round;stroke-miterlimit:10;" d="M820.64,921.85
				C820.63,921.85,820.63,921.85,820.64,921.85C820.62,921.86,820.62,921.86,820.64,921.85z"></path>
			<path style="fill:none;stroke:#000000;stroke-linecap:round;stroke-linejoin:round;stroke-miterlimit:10;" d="M821.18,923.11
				C821.18,923.11,821.18,923.1,821.18,923.11C821.17,923.11,821.16,923.11,821.18,923.11z"></path>
			<path style="fill:none;stroke:#000000;stroke-linecap:round;stroke-linejoin:round;stroke-miterlimit:10;" d="M813.17,905.94
				c-4.45,1.94-6.48,7.12-4.54,11.57c1.94,4.45,7.39,7.1,11.84,5.17c0.91-0.4,0.56-0.23,0.44-0.19c0.34-0.15,0.62-0.27,0.62-0.27
				s-0.28,0.12-0.62,0.27c0.11-0.05,0,0-0.44,0.19c-3.81,1.67-5.65,6.16-4.88,10.21c0.13,0.68,0.33,1.34,0.61,1.98
				c1.94,4.45,7.12,6.48,11.57,4.54c0,0,0.33-0.12,0.92-0.39c3.95-1.77,19.27-9.86,18.97-28.2
				C832.46,896.24,813.17,905.94,813.17,905.94z"></path>
		</g>
		
			<line style="fill:none;stroke:#000000;stroke-linecap:round;stroke-linejoin:round;stroke-miterlimit:10;" x1="801.75" y1="930.84" x2="847.65" y2="910.82"></line>
		<g>
			<path style="fill:none;stroke:#000000;stroke-linecap:round;stroke-linejoin:round;stroke-miterlimit:10;" d="M803.41,914.05
				c0.74-1.62,0.68-3.56-0.32-5.19c0,0-6.47-11.97-19.58-9.92c-2.9,4.01-3.64,8.08-3.43,11.61"></path>
		</g>
		
			<line style="fill:none;stroke:#000000;stroke-linecap:round;stroke-linejoin:round;stroke-miterlimit:10;" x1="789.59" y1="909.57" x2="783.52" y2="898.94"></line>
		
			<line style="fill:none;stroke:#000000;stroke-linecap:round;stroke-linejoin:round;stroke-miterlimit:10;" x1="801.75" y1="930.84" x2="800.06" y2="927.88"></line>
		<g>
			<path style="fill:none;stroke:#000000;stroke-linecap:round;stroke-linejoin:round;stroke-miterlimit:10;" d="M793.23,929.19
				C793.23,929.19,793.23,929.19,793.23,929.19C793.25,929.19,793.24,929.19,793.23,929.19z"></path>
			<path style="fill:none;stroke:#000000;stroke-linecap:round;stroke-linejoin:round;stroke-miterlimit:10;" d="M793.6,927.87
				C793.6,927.87,793.59,927.87,793.6,927.87C793.61,927.88,793.61,927.88,793.6,927.87z"></path>
			<path style="fill:none;stroke:#000000;stroke-linecap:round;stroke-linejoin:round;stroke-miterlimit:10;" d="M799.82,940.13
				c1.29-4.68-1.27-10.17-5.95-11.46"></path>
			<path style="fill:none;stroke:#000000;stroke-linecap:round;stroke-linejoin:round;stroke-miterlimit:10;" d="M793.41,928.53
				c-0.12-0.03,0,0,0.47,0.13c4.68,1.28,9.7-2.11,10.99-6.78c1.29-4.68-1.45-9.52-6.13-10.81c0,0-20.47-6.88-33.45,9.69
				c1.09,8.67,5.36,14.53,9.98,18.42"></path>
		</g>
		
			<line style="fill:none;stroke:#000000;stroke-linecap:round;stroke-linejoin:round;stroke-miterlimit:10;" x1="785.98" y1="926.48" x2="765.29" y2="920.76"></line>
		<g>
			<path style="fill:none;stroke:#000000;stroke-linecap:round;stroke-linejoin:round;stroke-miterlimit:10;" d="M791.52,937.01
				C791.52,937.01,791.52,937.01,791.52,937.01C791.53,937,791.52,937,791.52,937.01z"></path>
			<path style="fill:none;stroke:#000000;stroke-linecap:round;stroke-linejoin:round;stroke-miterlimit:10;" d="M791.1,936.26
				C791.1,936.26,791.1,936.26,791.1,936.26C791.1,936.25,791.11,936.25,791.1,936.26z"></path>
			<path style="fill:none;stroke:#000000;stroke-linecap:round;stroke-linejoin:round;stroke-miterlimit:10;" d="M797.22,946.5
				c2.66-1.5,3.6-4.88,2.1-7.54c-1.5-2.66-5.09-3.98-7.75-2.48c-0.54,0.31-0.33,0.18-0.27,0.15c-0.21,0.11-0.37,0.21-0.37,0.21
				s0.17-0.09,0.37-0.21c-0.06,0.04,0,0,0.27-0.15c2.66-1.51,3.39-5.25,1.89-7.91c-1.5-2.66-4.88-3.6-7.54-2.1
				c0,0-12.2,6.03-10.62,19.2c3.91,3.05,7.96,3.94,11.5,3.85C792.73,949.37,797.22,946.5,797.22,946.5z"></path>
		</g>
		
			<line style="fill:none;stroke:#000000;stroke-linecap:round;stroke-linejoin:round;stroke-miterlimit:10;" x1="801.8" y1="930.67" x2="775.3" y2="945.66"></line>
		<g>
			<path style="fill:none;stroke:#000000;stroke-linecap:round;stroke-linejoin:round;stroke-miterlimit:10;" d="M816.98,951.06
				C816.98,951.06,816.98,951.05,816.98,951.06C816.98,951.05,816.98,951.05,816.98,951.06z"></path>
			<path style="fill:none;stroke:#000000;stroke-linecap:round;stroke-linejoin:round;stroke-miterlimit:10;" d="M816.28,951.55
				C816.28,951.55,816.29,951.56,816.28,951.55C816.28,951.55,816.28,951.55,816.28,951.55z"></path>
			<path style="fill:none;stroke:#000000;stroke-linecap:round;stroke-linejoin:round;stroke-miterlimit:10;" d="M825.81,944.37
				c-1.78-2.49-5.24-3.06-7.72-1.28c-2.49,1.78-3.41,5.49-1.63,7.97c0.36,0.51,0.22,0.31,0.18,0.25c0.14,0.19,0.25,0.35,0.25,0.35
				s-0.11-0.16-0.25-0.35c0.05,0.06,0,0-0.18-0.25c-1.78-2.48-5.59-2.81-8.07-1.03c-2.49,1.78-3.06,5.24-1.28,7.72
				c0,0,7.3,11.48,20.23,8.5C834.32,954.98,825.81,944.37,825.81,944.37z"></path>
		</g>
		
			<line style="fill:none;stroke:#000000;stroke-linecap:round;stroke-linejoin:round;stroke-miterlimit:10;" x1="801.73" y1="930.9" x2="827.33" y2="966.25"></line>
	</g>
	<g>
		<g>
			<g>
				
					<rect x="1535.48" y="1125.68" style="fill:none;stroke:#000000;stroke-linecap:round;stroke-linejoin:round;stroke-miterlimit:10;" width="16.31" height="243.66"></rect>
				<polygon style="fill:none;stroke:#000000;stroke-linecap:round;stroke-linejoin:round;stroke-miterlimit:10;" points="
					1568.13,1339.88 1551.83,1369.34 1551.75,1125.68 1568.06,1155.14 				"></polygon>
			</g>
		</g>
		<g>
			
				<rect x="1504.55" y="1109.99" transform="matrix(-1 3.339412e-04 -3.339412e-04 -1 3073.0649 2494.5212)" style="fill:none;stroke:#000000;stroke-linecap:round;stroke-linejoin:round;stroke-miterlimit:10;" width="63.54" height="275.06"></rect>
		</g>
	</g>
	<g>
		<g>
			<path style="fill:none;stroke:#000000;stroke-linecap:round;stroke-linejoin:round;stroke-miterlimit:10;" d="M876.47,1411.84
				c-0.08-0.09-0.18-0.18-0.28-0.27c-5.42-4.43-10.52-9.32-15.18-14.53s-8.93-10.84-12.71-16.72c-0.08-0.12-0.16-0.22-0.24-0.32
				c-0.45-0.5-1.1-0.78-1.79-0.77c-0.39,0.01-1.14,0.13-1.73,0.83l-0.03,0.04c-8.9,10.89-19.41,20.27-31.24,27.87l-0.06,0.04
				c-0.75,0.51-0.95,1.23-1,1.61c-0.09,0.69,0.11,1.37,0.56,1.87c0.08,0.09,0.18,0.18,0.28,0.27c5.42,4.43,10.52,9.32,15.18,14.53
				s8.93,10.84,12.71,16.72c0.08,0.12,0.16,0.22,0.24,0.32c0.45,0.5,1.1,0.78,1.79,0.77c0.4-0.01,1.14-0.13,1.73-0.83l0.03-0.04
				c8.9-10.89,19.41-20.27,31.24-27.87l0.06-0.04c0.75-0.51,0.95-1.23,1-1.61C877.12,1413.02,876.92,1412.34,876.47,1411.84z"></path>
		</g>
		<path style="fill:none;stroke:#000000;stroke-linecap:round;stroke-linejoin:round;stroke-miterlimit:10;" d="M844.51,1380.11
			l0.03-0.04c0.59-0.7,1.34-0.82,1.73-0.83c0.69-0.01,1.34,0.27,1.79,0.77c0.08,0.09,0.16,0.2,0.24,0.32
			c3.32,5.17,7.09,10.1,11.1,14.77c5.17-1.98,10.43-3.74,15.84-5.07l0.05-0.01c0.88-0.23,1.31-0.85,1.49-1.21
			c0.31-0.62,0.34-1.33,0.08-1.95c-0.05-0.12-0.11-0.23-0.18-0.35c-3.69-5.94-6.93-12.21-9.65-18.65
			c-2.71-6.44-4.94-13.15-6.61-19.94c-0.03-0.13-0.07-0.25-0.12-0.36c-0.26-0.62-0.79-1.1-1.45-1.31c-0.37-0.12-1.11-0.25-1.89,0.21
			l-0.06,0.04c-11.95,7.42-24.93,12.89-38.58,16.25l-0.05,0.01c-0.88,0.23-1.31,0.86-1.49,1.21c-0.31,0.62-0.34,1.33-0.08,1.95
			c0.05,0.12,0.11,0.23,0.18,0.35c3.69,5.94,6.93,12.21,9.65,18.65c1.39,3.29,2.64,6.66,3.76,10.07
			C835.39,1390.4,840.15,1385.44,844.51,1380.11z"></path>
		<path style="fill:none;stroke:#000000;stroke-linecap:round;stroke-linejoin:round;stroke-miterlimit:10;" d="M844.51,1380.11
			l0.03-0.04c0.59-0.7,1.34-0.82,1.73-0.83c0.69-0.01,1.34,0.27,1.79,0.77c0.08,0.09,0.16,0.2,0.24,0.32
			c3.78,5.88,8.05,11.5,12.71,16.72c0.13,0.14,0.27,0.27,0.4,0.42c4.76-1.78,9.58-3.38,14.53-4.59l0.01,0
			c3.47-0.86,5.1-4.85,3.21-7.89l-0.01-0.01c-7.25-11.67-12.61-24.4-15.9-37.74l0-0.01c-0.86-3.47-4.85-5.1-7.89-3.21l-0.01,0.01
			c-11.67,7.25-24.4,12.61-37.74,15.9l-0.01,0c-3.47,0.86-5.1,4.85-3.21,7.89l0.01,0.01c5.69,9.16,10.17,18.99,13.44,29.24
			C833.87,1391.89,839.47,1386.27,844.51,1380.11z"></path>
	</g>
	<g>
		<g>
			<path style="fill:none;stroke:#000000;stroke-linecap:round;stroke-linejoin:round;stroke-miterlimit:10;" d="M876.4,1057.26
				c-0.08,0.09-0.18,0.18-0.28,0.27c-5.42,4.43-10.52,9.32-15.17,14.53c-4.65,5.22-8.92,10.84-12.7,16.72
				c-0.08,0.12-0.16,0.22-0.24,0.32c-0.45,0.5-1.1,0.78-1.79,0.77c-0.39-0.01-1.14-0.13-1.73-0.83l-0.03-0.04
				c-8.9-10.89-19.42-20.26-31.25-27.86l-0.06-0.04c-0.75-0.51-0.95-1.23-1-1.61c-0.09-0.69,0.11-1.37,0.56-1.87
				c0.08-0.09,0.18-0.18,0.28-0.27c5.42-4.43,10.52-9.32,15.17-14.53c4.65-5.22,8.92-10.84,12.7-16.72
				c0.08-0.12,0.16-0.22,0.24-0.32c0.45-0.5,1.1-0.78,1.79-0.77c0.4,0.01,1.14,0.13,1.73,0.83l0.03,0.04
				c8.9,10.89,19.42,20.26,31.25,27.86l0.06,0.04c0.75,0.51,0.95,1.23,1,1.61C877.06,1056.08,876.85,1056.76,876.4,1057.26z"></path>
		</g>
		<path style="fill:none;stroke:#000000;stroke-linecap:round;stroke-linejoin:round;stroke-miterlimit:10;" d="M844.46,1089
			l0.03,0.04c0.59,0.7,1.34,0.82,1.73,0.83c0.69,0.01,1.34-0.27,1.79-0.77c0.08-0.09,0.16-0.2,0.24-0.32
			c3.32-5.17,7.08-10.1,11.09-14.77c5.17,1.98,10.44,3.73,15.84,5.06l0.05,0.01c0.88,0.23,1.31,0.85,1.49,1.21
			c0.31,0.62,0.34,1.33,0.08,1.95c-0.05,0.12-0.11,0.23-0.18,0.35c-3.69,5.94-6.93,12.21-9.64,18.65
			c-2.71,6.44-4.93,13.15-6.6,19.95c-0.03,0.13-0.07,0.25-0.12,0.36c-0.26,0.62-0.79,1.1-1.45,1.31c-0.37,0.12-1.11,0.25-1.89-0.21
			l-0.06-0.04c-11.95-7.42-24.93-12.88-38.59-16.24l-0.05-0.01c-0.88-0.23-1.31-0.86-1.49-1.21c-0.31-0.62-0.34-1.33-0.08-1.95
			c0.05-0.12,0.11-0.23,0.18-0.35c3.69-5.94,6.93-12.21,9.64-18.65c1.39-3.29,2.64-6.66,3.76-10.07
			C835.34,1078.71,840.1,1083.67,844.46,1089z"></path>
		<path style="fill:none;stroke:#000000;stroke-linecap:round;stroke-linejoin:round;stroke-miterlimit:10;" d="M844.46,1089
			l0.03,0.04c0.59,0.7,1.34,0.82,1.73,0.83c0.69,0.01,1.34-0.27,1.79-0.77c0.08-0.09,0.16-0.2,0.24-0.32
			c3.78-5.88,8.05-11.51,12.7-16.72c0.13-0.14,0.27-0.28,0.4-0.42c4.76,1.78,9.58,3.37,14.53,4.59l0.01,0
			c3.47,0.85,5.1,4.85,3.22,7.89l-0.01,0.01c-7.24,11.67-12.6,24.41-15.88,37.74l0,0.01c-0.85,3.47-4.85,5.1-7.89,3.22l-0.01-0.01
			c-11.67-7.24-24.41-12.6-37.74-15.88l-0.01,0c-3.47-0.85-5.1-4.85-3.22-7.89l0.01-0.01c5.69-9.16,10.17-18.99,13.43-29.24
			C833.81,1077.22,839.42,1082.84,844.46,1089z"></path>
	</g>
	<g>
		<g>
			<path style="fill:none;stroke:#000000;stroke-linecap:round;stroke-linejoin:round;stroke-miterlimit:10;" d="M798.31,1150.31
				l-0.03-143.45c0-0.42-0.34-0.76-0.76-0.76l-47.63,0.01c-0.42,0-0.76,0.34-0.76,0.76l0.03,143.45c0,0.42,0.34,0.76,0.76,0.76
				l47.63-0.01C797.97,1151.06,798.31,1150.72,798.31,1150.31z"></path>
			<path style="fill:none;stroke:#000000;stroke-linecap:round;stroke-linejoin:round;stroke-miterlimit:10;" d="M798.31,1150.31
				l-0.03-143.45c0-0.42,0.34-0.76,0.76-0.76l123.64-0.02c0.42,0,0.76,0.34,0.76,0.76l0.03,143.45c0,0.42-0.34,0.76-0.76,0.76
				l-123.64,0.02C798.65,1151.06,798.31,1150.72,798.31,1150.31z"></path>
			<path style="fill:none;stroke:#000000;stroke-linecap:round;stroke-linejoin:round;stroke-miterlimit:10;" d="M798.34,1295.27
				l-0.03-143.45c0-0.42-0.34-0.76-0.76-0.76l-47.63,0.01c-0.42,0-0.76,0.34-0.76,0.76l0.03,143.45c0,0.42,0.34,0.76,0.76,0.76
				l47.63-0.01C798,1296.03,798.34,1295.69,798.34,1295.27z"></path>
			<path style="fill:none;stroke:#000000;stroke-linecap:round;stroke-linejoin:round;stroke-miterlimit:10;" d="M798.34,1295.27
				l-0.03-143.45c0-0.42,0.34-0.76,0.76-0.76l123.64-0.02c0.42,0,0.76,0.34,0.76,0.76l0.03,143.45c0,0.42-0.34,0.76-0.76,0.76
				l-123.64,0.02C798.67,1296.03,798.34,1295.69,798.34,1295.27z"></path>
			<path style="fill:none;stroke:#000000;stroke-linecap:round;stroke-linejoin:round;stroke-miterlimit:10;" d="M798.36,1449.91
				l-0.03-153.12c0-0.42-0.34-0.76-0.76-0.76l-47.63,0.01c-0.42,0-0.76,0.34-0.76,0.76l0.03,153.12c0,0.42,0.34,0.76,0.76,0.76
				l47.63-0.01C798.02,1450.66,798.36,1450.32,798.36,1449.91z"></path>
			<path style="fill:none;stroke:#000000;stroke-linecap:round;stroke-linejoin:round;stroke-miterlimit:10;" d="M798.36,1449.91
				l-0.03-153.12c0-0.42,0.34-0.76,0.76-0.76l239.28-0.04c0.42,0,0.76,0.34,0.76,0.76l0.03,153.12c0,0.42-0.34,0.76-0.76,0.76
				l-239.28,0.04C798.7,1450.66,798.36,1450.32,798.36,1449.91z"></path>
		</g>
	</g>
	<path style="fill:none;stroke:#000000;stroke-linecap:round;stroke-linejoin:round;stroke-miterlimit:10;" d="M1052.67,1215.48
		c9.08,0,40.94-0.01,50.02-0.01c9.29,0,14.03-8,15.58-17.93c5.64-40.51,5.63-81.67-0.02-122.17c-1.55-9.93-6.3-17.93-15.58-17.93
		c-9.08,0-40.94,0.01-50.02,0.01c-9.29,0-14.03,8-15.58,17.93c-5.64,40.51-5.63,81.67,0.02,122.17
		C1038.64,1207.48,1043.39,1215.48,1052.67,1215.48z"></path>
	<g>
		<polygon style="fill:none;stroke:#000000;stroke-linecap:round;stroke-linejoin:round;stroke-miterlimit:10;" points="
			1058.33,1165.32 1055.86,1169.87 1090.22,1188.47 1093.32,1182.75 1096.43,1187.86 1071.6,1202.99 1051.28,1169.62 		"></polygon>
		
			<line style="fill:none;stroke:#000000;stroke-linecap:round;stroke-linejoin:round;stroke-miterlimit:10;" x1="1059.64" y1="1162.89" x2="1053.25" y2="1155.86"></line>
		
			<line style="fill:none;stroke:#000000;stroke-linecap:round;stroke-linejoin:round;stroke-miterlimit:10;" x1="1073.54" y1="1201.81" x2="1053.22" y2="1168.44"></line>
		<g>
			<polygon style="fill:none;stroke:#000000;stroke-linecap:round;stroke-linejoin:round;stroke-miterlimit:10;" points="
				1069.71,1144.3 1058.5,1165.01 1051.57,1157.39 1073.09,1137.83 1087.95,1154.18 			"></polygon>
			<polygon style="fill:none;stroke:#000000;stroke-linecap:round;stroke-linejoin:round;stroke-miterlimit:10;" points="
				1080.97,1183.46 1077.85,1186.3 1069.76,1177.39 			"></polygon>
		</g>
		
			<rect x="1060.43" y="1151.85" transform="matrix(-0.8794 -0.4762 0.4762 -0.8794 1474.2546 2706.2966)" style="fill:none;stroke:#000000;stroke-linecap:round;stroke-linejoin:round;stroke-miterlimit:10;" width="39.07" height="29.07"></rect>
		
			<line style="fill:none;stroke:#000000;stroke-linecap:round;stroke-linejoin:round;stroke-miterlimit:10;" x1="1091.3" y1="1186.48" x2="1056.95" y2="1167.87"></line>
	</g>
	<g>
		<path style="fill:none;stroke:#000000;stroke-linecap:round;stroke-linejoin:round;stroke-miterlimit:10;" d="M1072.55,1107.6
			l4.31,8.03c0.34,0.64,1.14,0.88,1.78,0.54l9.91-5.32c0.64-0.34,0.88-1.14,0.54-1.78l-4.31-8.03c-0.21-0.39-0.7-0.54-1.09-0.33
			l-10.81,5.8C1072.49,1106.73,1072.34,1107.21,1072.55,1107.6z"></path>
		
			<line style="fill:none;stroke:#000000;stroke-linecap:round;stroke-linejoin:round;stroke-miterlimit:10;" x1="1074.83" y1="1111.84" x2="1087.05" y2="1105.29"></line>
		<path style="fill:none;stroke:#000000;stroke-linecap:round;stroke-linejoin:round;stroke-miterlimit:10;" d="M1070.03,1105.83
			l-9.01-1.35c-0.72-0.11-1.21-0.77-1.1-1.49l1.66-11.13c0.11-0.72,0.77-1.21,1.49-1.1l9.01,1.35c0.44,0.07,0.74,0.47,0.68,0.91
			l-1.81,12.13C1070.88,1105.59,1070.47,1105.9,1070.03,1105.83z"></path>
		
			<line style="fill:none;stroke:#000000;stroke-linecap:round;stroke-linejoin:round;stroke-miterlimit:10;" x1="1065.27" y1="1105.12" x2="1067.33" y2="1091.4"></line>
		<path style="fill:none;stroke:#000000;stroke-linecap:round;stroke-linejoin:round;stroke-miterlimit:10;" d="M1068.53,1088.17
			c-0.52,1.02-0.9,2.09-1.14,3.18"></path>
		<path style="fill:none;stroke:#000000;stroke-linecap:round;stroke-linejoin:round;stroke-miterlimit:10;" d="M1087.02,1105.24
			c0.97-0.6,1.87-1.33,2.68-2.19"></path>
		<g>
			<path style="fill:none;stroke:#000000;stroke-linecap:round;stroke-linejoin:round;stroke-miterlimit:10;" d="M1068.42,1088.11
				c0.83,0.59,1.99,0.39,2.58-0.45c3.56-5.05,10.57-6.27,15.62-2.71c5.05,3.56,6.27,10.57,2.71,15.62
				c-0.59,0.83-0.39,1.99,0.45,2.57c0.83,0.59,1.99,0.39,2.57-0.45c4.73-6.72,3.11-16.04-3.61-20.77
				c-6.72-4.73-16.04-3.11-20.77,3.61C1067.39,1086.38,1067.59,1087.53,1068.42,1088.11z"></path>
		</g>
	</g>
	
		<rect x="1183.43" y="575.7" style="fill:none;stroke:#000000;stroke-linecap:round;stroke-linejoin:round;stroke-miterlimit:10;" width="59.49" height="118.98"></rect>
	<g>
		
			<line style="fill:none;stroke:#000000;stroke-linecap:round;stroke-linejoin:round;stroke-miterlimit:10;" x1="1385.13" y1="389.44" x2="1385.07" y2="559.81"></line>
		
			<line style="fill:none;stroke:#000000;stroke-linecap:round;stroke-linejoin:round;stroke-miterlimit:10;" x1="1064.45" y1="389.13" x2="1385.1" y2="389.57"></line>
		
			<line style="fill:none;stroke:#000000;stroke-linecap:round;stroke-linejoin:round;stroke-miterlimit:10;" x1="1243.01" y1="302.15" x2="1242.86" y2="399.28"></line>
		<polygon style="fill:none;stroke:#000000;stroke-linecap:round;stroke-linejoin:round;stroke-miterlimit:10;" points="
			1064.59,302.03 1064.59,399.52 1375.19,399.52 1375.13,559.8 1524.44,559.82 1524.5,399.52 1524.51,399.52 1524.51,302.03 		"></polygon>
		
			<line style="fill:none;stroke:#000000;stroke-linecap:round;stroke-linejoin:round;stroke-miterlimit:10;" x1="1375.35" y1="473.56" x2="1524.47" y2="473.56"></line>
	</g>
	<g>
		<g>
			<path style="fill:none;stroke:#000000;stroke-linecap:round;stroke-linejoin:round;stroke-miterlimit:10;" d="M1218.56,597.87
				l-2.46,7.51c0.63,0.09,1.26,0.21,1.88,0.41c0.62,0.2,1.2,0.48,1.76,0.78l2.46-7.51c0.19-0.58-0.13-1.21-0.71-1.4l-1.53-0.5
				C1219.38,596.97,1218.75,597.29,1218.56,597.87z"></path>
			
				<circle style="fill:none;stroke:#000000;stroke-linecap:round;stroke-linejoin:round;stroke-miterlimit:10;" cx="1214.62" cy="616.03" r="10.78"></circle>
		</g>
		<g>
			<path style="fill:none;stroke:#000000;stroke-linecap:round;stroke-linejoin:round;stroke-miterlimit:10;" d="M1221.97,661.28
				l-7.51-2.46c-0.09,0.63-0.21,1.26-0.41,1.88s-0.48,1.2-0.78,1.76l7.51,2.46c0.58,0.19,1.21-0.13,1.4-0.71l0.5-1.53
				C1222.87,662.1,1222.56,661.47,1221.97,661.28z"></path>
			
				<circle style="fill:none;stroke:#000000;stroke-linecap:round;stroke-linejoin:round;stroke-miterlimit:10;" cx="1203.81" cy="657.34" r="10.78"></circle>
		</g>
	</g>
</g>
<g id="floor">
	
		<polyline style="fill:none;stroke:#000000;stroke-linecap:round;stroke-linejoin:round;stroke-miterlimit:10;stroke-dasharray:10,10;" points="
		1568.15,960.4 1048.58,960.4 1048.58,694.67 	"></polyline>
	
		<line style="fill:none;stroke:#000000;stroke-linecap:round;stroke-linejoin:round;stroke-miterlimit:10;stroke-dasharray:10,10;" x1="749.14" y1="879.1" x2="1048.58" y2="879.1"></line>
	
		<line style="fill:none;stroke:#000000;stroke-linecap:round;stroke-linejoin:round;stroke-miterlimit:10;stroke-dasharray:10,10;" x1="1056.52" y1="401.18" x2="1056.52" y2="559.82"></line>
	<g>
		<path style="fill:none;stroke:#000000;stroke-linecap:round;stroke-linejoin:round;stroke-miterlimit:10;" d="M802.9,500.05
			c78.37,0,145.1,63.39,145.1,141.76l-145.11,0"></path>
		
			<rect x="794.79" y="638.1" transform="matrix(-2.098554e-06 -1 1 -2.098554e-06 152.9837 1445.0466)" style="fill:none;stroke:#000000;stroke-linecap:round;stroke-linejoin:round;stroke-miterlimit:10;" width="8.44" height="15.86"></rect>
		
			<rect x="794.79" y="487.9" transform="matrix(-2.098550e-06 -1 1 -2.098550e-06 303.1886 1294.8457)" style="fill:none;stroke:#000000;stroke-linecap:round;stroke-linejoin:round;stroke-miterlimit:10;" width="8.44" height="15.86"></rect>
	</g>
	<g>
		<path style="fill:none;stroke:#000000;stroke-linecap:round;stroke-linejoin:round;stroke-miterlimit:10;" d="M839.34,283.49
			c0-100.9,81.62-183.49,182.51-183.49l0,181.98"></path>
		
			<rect x="1021.85" y="281.98" transform="matrix(-1 -2.867252e-06 2.867252e-06 -1 2054.5691 584.0135)" style="fill:none;stroke:#000000;stroke-linecap:round;stroke-linejoin:round;stroke-miterlimit:10;" width="10.87" height="20.04"></rect>
		
			<rect x="828.47" y="281.98" transform="matrix(-1 -2.867252e-06 2.867252e-06 -1 1667.8009 584.0118)" style="fill:none;stroke:#000000;stroke-linecap:round;stroke-linejoin:round;stroke-miterlimit:10;" width="10.87" height="20.04"></rect>
	</g>
	<g>
		<g id="LWPOLYLINE_00000038392351159484263980000007296498759266167980_">
			
				<rect x="1242.93" y="575.7" style="fill:none;stroke:#000000;stroke-linecap:round;stroke-linejoin:round;stroke-miterlimit:10;" width="118.98" height="118.98"></rect>
		</g>
		<g id="LWPOLYLINE_00000080903839842780310040000016645207118755312557_">
			
				<line style="fill:none;stroke:#000000;stroke-linecap:round;stroke-linejoin:round;stroke-miterlimit:10;" x1="1272.68" y1="625.28" x2="1272.68" y2="585.61"></line>
		</g>
		<g id="LWPOLYLINE_00000118357211829161820460000004158708608970544831_">
			
				<line style="fill:none;stroke:#000000;stroke-linecap:round;stroke-linejoin:round;stroke-miterlimit:10;" x1="1292.51" y1="605.44" x2="1252.84" y2="605.44"></line>
		</g>
		<g id="CIRCLE_00000096048550630666264000000014995072718811932854_">
			<path style="fill:none;stroke:#000000;stroke-linecap:round;stroke-linejoin:round;stroke-miterlimit:10;" d="M1256.81,605.44
				c0-8.76,7.1-15.87,15.87-15.87s15.87,7.1,15.87,15.87c0,8.76-7.1,15.87-15.87,15.87S1256.81,614.21,1256.81,605.44
				L1256.81,605.44z"></path>
		</g>
		<g id="LWPOLYLINE_00000159469382271010917320000002808886576184946611_">
			
				<line style="fill:none;stroke:#000000;stroke-linecap:round;stroke-linejoin:round;stroke-miterlimit:10;" x1="1272.68" y1="684.77" x2="1272.68" y2="645.1"></line>
		</g>
		<g id="LWPOLYLINE_00000120532235925567293940000007195224805055518383_">
			
				<line style="fill:none;stroke:#000000;stroke-linecap:round;stroke-linejoin:round;stroke-miterlimit:10;" x1="1292.51" y1="664.93" x2="1252.84" y2="664.93"></line>
		</g>
		<g id="CIRCLE_00000089537293838197042960000016916434545078976670_">
			<path style="fill:none;stroke:#000000;stroke-linecap:round;stroke-linejoin:round;stroke-miterlimit:10;" d="M1256.81,664.94
				c0-8.77,7.11-15.87,15.87-15.87c8.77,0,15.87,7.11,15.87,15.87c0,8.77-7.11,15.87-15.87,15.87
				C1263.92,680.81,1256.81,673.7,1256.81,664.94L1256.81,664.94z"></path>
		</g>
		<g id="LWPOLYLINE_00000173863009480087152650000006580551097391092099_">
			
				<line style="fill:none;stroke:#000000;stroke-linecap:round;stroke-linejoin:round;stroke-miterlimit:10;" x1="1332.17" y1="684.77" x2="1332.17" y2="645.1"></line>
		</g>
		<g id="LWPOLYLINE_00000107569336973768412590000001170792844680709270_">
			
				<line style="fill:none;stroke:#000000;stroke-linecap:round;stroke-linejoin:round;stroke-miterlimit:10;" x1="1352" y1="664.93" x2="1312.33" y2="664.93"></line>
		</g>
		<g id="CIRCLE_00000064354627850871396440000005645873796310279834_">
			<path style="fill:none;stroke:#000000;stroke-linecap:round;stroke-linejoin:round;stroke-miterlimit:10;" d="M1316.3,664.94
				c0-8.77,7.11-15.87,15.87-15.87s15.87,7.11,15.87,15.87c0,8.77-7.11,15.87-15.87,15.87S1316.3,673.7,1316.3,664.94L1316.3,664.94
				z"></path>
		</g>
		<g id="LWPOLYLINE_00000121961220499604777240000005472852763840738474_">
			
				<line style="fill:none;stroke:#000000;stroke-linecap:round;stroke-linejoin:round;stroke-miterlimit:10;" x1="1332.17" y1="625.28" x2="1332.17" y2="585.61"></line>
		</g>
		<g id="LWPOLYLINE_00000152950162977761032650000002687010308379585699_">
			
				<line style="fill:none;stroke:#000000;stroke-linecap:round;stroke-linejoin:round;stroke-miterlimit:10;" x1="1352" y1="605.44" x2="1312.33" y2="605.44"></line>
		</g>
		<g id="CIRCLE_00000181784661160272765350000006091058424743438483_">
			<path style="fill:none;stroke:#000000;stroke-linecap:round;stroke-linejoin:round;stroke-miterlimit:10;" d="M1316.3,605.44
				c0-8.76,7.1-15.87,15.87-15.87s15.87,7.1,15.87,15.87c0,8.76-7.1,15.87-15.87,15.87S1316.3,614.21,1316.3,605.44L1316.3,605.44z"></path>
		</g>
	</g>
	<g>
		<g id="LWPOLYLINE_00000141413356151013176670000005470776469949662642_">
			
				<rect x="1449.17" y="575.7" style="fill:none;stroke:#000000;stroke-linecap:round;stroke-linejoin:round;stroke-miterlimit:10;" width="118.98" height="118.98"></rect>
		</g>
		<g id="LWPOLYLINE_00000182509793752386154850000015325998887200831145_">
			<path style="fill:none;stroke:#000000;stroke-linecap:round;stroke-linejoin:round;stroke-miterlimit:10;" d="M1558.23,677.82
				l0-75.31c0-3.83-3.1-6.94-6.94-6.94c0,0-85.27,0-85.27,0c-3.83,0-6.94,3.11-6.94,6.94c0,0,0,75.31,0,75.31
				c0,3.83,3.11,6.94,6.94,6.94c0,0,85.28,0,85.28,0C1555.13,684.76,1558.23,681.66,1558.23,677.82z"></path>
		</g>
		<g id="LWPOLYLINE_00000125562529415479606680000001676339176677366719_">
			<path style="fill:none;stroke:#000000;stroke-linecap:round;stroke-linejoin:round;stroke-miterlimit:10;" d="M1528.49,621.82
				c3.84,0,6.96-3.11,6.96-6.96c0-3.84-3.11-6.96-6.96-6.96c-3.84,0-6.96,3.11-6.96,6.96
				C1521.53,618.7,1524.64,621.82,1528.49,621.82z"></path>
		</g>
	</g>
	<g>
		<g>
			<g id="LWPOLYLINE_00000042720729298522642360000002149380843148478593_">
				<path style="fill:none;stroke:#000000;stroke-linecap:round;stroke-linejoin:round;stroke-miterlimit:10;" d="M454.73,537.54
					l52.75,0.14c7.43,0.02,14,4.73,16.26,11.66c8.2,25.16,8.12,52.21-0.21,77.32c-2.3,6.92-8.89,11.6-16.32,11.58l-52.75-0.14"></path>
			</g>
			<g id="LWPOLYLINE_00000178906506264737071710000003626200896715374500_">
				<path style="fill:none;stroke:#000000;stroke-linecap:round;stroke-linejoin:round;stroke-miterlimit:10;" d="M469.28,614.68
					c-0.01,5.55,4.57,10.07,10.24,10.08l16.44,0.04c3.76,0.01,7.09-2.39,8.2-5.91c6.36-20.15,6.42-41.71,0.17-61.9
					c-1.09-3.52-4.41-5.93-8.16-5.95l-16.44-0.04c-5.67-0.01-10.28,4.48-10.3,10.03"></path>
			</g>
			<g id="LWPOLYLINE_00000075877332779598172030000012985258342360622982_">
				<path style="fill:none;stroke:#000000;stroke-linecap:round;stroke-linejoin:round;stroke-miterlimit:10;" d="M479.74,544.31
					l27.72,0.07c4.46,0.01,8.4,2.84,9.76,6.99c7.77,23.82,7.7,49.43-0.2,73.22c-1.38,4.15-5.34,6.96-9.79,6.95l-27.72-0.07
					c-5.67-0.01-10.26-4.53-10.24-10.08l0.18-67.05C469.46,548.78,474.07,544.29,479.74,544.31z"></path>
			</g>
			<g id="LWPOLYLINE_00000181801219313298457480000011107067132836374702_">
				<path style="fill:none;stroke:#000000;stroke-linecap:round;stroke-linejoin:round;stroke-miterlimit:10;" d="M472.41,587.87
					c0.01-2.49,2.07-4.51,4.62-4.5c2.54,0.01,4.6,2.04,4.59,4.53c-0.01,2.49-2.07,4.5-4.62,4.5
					C474.46,592.39,472.41,590.36,472.41,587.87z"></path>
			</g>
		</g>
		<g>
			<g id="LWPOLYLINE_00000169535557433774243320000000535318267493670303_">
				
					<rect x="454.55" y="662.42" style="fill:none;stroke:#000000;stroke-linecap:round;stroke-linejoin:round;stroke-miterlimit:10;" width="337.1" height="136.86"></rect>
			</g>
			<g id="LWPOLYLINE_00000182506710199042023470000010284162760887550352_">
				<path style="fill:none;stroke:#000000;stroke-linecap:round;stroke-linejoin:round;stroke-miterlimit:10;" d="M745.97,788.33
					l-220.73,0c-32.41,0-58.68-25.73-58.68-57.48c0-31.74,26.28-57.48,58.7-57.48l220.73,0c15.49,0,28.1,12.2,28.28,27.37
					l-0.01,60.22c0,15.12-12.52,27.37-27.95,27.37"></path>
			</g>
			<g id="LWPOLYLINE_00000161613124276319204570000004279395223029133479_">
				<path style="fill:none;stroke:#000000;stroke-linecap:round;stroke-linejoin:round;stroke-miterlimit:10;" d="M676.2,772.69
					l-150.95,0c-23.6,0-42.72-18.74-42.72-41.84c0-23.11,19.14-41.84,42.73-41.84l148.74,0c22.73,0.02,41.47,17.45,42.66,39.68
					C717.89,751.78,699.78,771.48,676.2,772.69z"></path>
			</g>
			<g id="LWPOLYLINE_00000003826563565004275360000008332186874391945628_">
				<path style="fill:none;stroke:#000000;stroke-linecap:round;stroke-linejoin:round;stroke-miterlimit:10;" d="M517.43,730.85
					c0-4.23,3.5-7.66,7.82-7.66c4.33,0,7.82,3.43,7.82,7.66c0,4.24-3.5,7.66-7.82,7.66C520.93,738.51,517.43,735.08,517.43,730.85z"></path>
			</g>
		</g>
		<g>
			<g id="LWPOLYLINE_00000168081993044547024980000012535738440042012607_">
				<path style="fill:none;stroke:#000000;stroke-linecap:round;stroke-linejoin:round;stroke-miterlimit:10;" d="M680,393.02
					l0.01,55.35c0,19.26,15.94,34.87,35.6,34.87c19.66,0,35.61-15.61,35.61-34.87l-0.01-55.35c0-4.81-3.98-8.71-8.9-8.72l-53.41,0
					C683.98,384.3,680,388.21,680,393.02z"></path>
			</g>
			<g id="LWPOLYLINE_00000031193820270440646800000008143251931342805644_">
				<path style="fill:none;stroke:#000000;stroke-linecap:round;stroke-linejoin:round;stroke-miterlimit:10;" d="M744.1,448.36
					l-0.01-30.96c0-15.4-12.75-27.89-28.48-27.89c-15.73,0-28.49,12.49-28.49,27.89l0.01,30.96c0,15.4,12.75,27.89,28.48,27.89
					C731.34,476.26,744.1,463.77,744.1,448.36z"></path>
			</g>
			<g id="LWPOLYLINE_00000102539707093845241250000008168503507148058020_">
				<path style="fill:none;stroke:#000000;stroke-linecap:round;stroke-linejoin:round;stroke-miterlimit:10;" d="M726.3,437.14
					l-0.01-22.63c0-5.78-4.78-10.46-10.68-10.46c-5.9,0-10.68,4.68-10.68,10.46l0.01,22.63c0,5.78,4.78,10.46,10.68,10.46
					C721.51,447.6,726.3,442.92,726.3,437.14z"></path>
			</g>
		</g>
		<g>
			<g id="LWPOLYLINE_00000095303700146833009150000009523725869988134825_">
				
					<rect x="454.46" y="325.8" style="fill:none;stroke:#000000;stroke-linecap:round;stroke-linejoin:round;stroke-miterlimit:10;" width="118.98" height="89.24"></rect>
			</g>
			<g>
				<g id="LWPOLYLINE_00000013873088586296267020000004433431336051178655_">
					<polyline style="fill:none;stroke:#000000;stroke-linecap:round;stroke-linejoin:round;stroke-miterlimit:10;" points="
						548.21,397.38 513.99,356.61 513.92,384.23 479.69,343.46 					"></polyline>
				</g>
				<g id="LWPOLYLINE_00000158733957618738630220000011446534194408796573_">
					<path style="fill:none;stroke:#000000;stroke-linecap:round;stroke-linejoin:round;stroke-miterlimit:10;" d="M513.87,401.1
						c-16.59-0.05-30.01-13.82-29.97-30.76c0.04-16.95,13.53-30.65,30.13-30.61c16.6,0.05,30.02,13.82,29.97,30.77
						C543.96,387.45,530.47,401.15,513.87,401.1z"></path>
				</g>
			</g>
		</g>
	</g>
	<g>
		
			<rect x="874.68" y="1537.01" transform="matrix(-1 3.840874e-06 -3.840874e-06 -1 2287.7576 3129.2632)" style="fill:none;stroke:#000000;stroke-linecap:round;stroke-linejoin:round;stroke-miterlimit:10;" width="538.4" height="55.26"></rect>
		
			<line style="fill:none;stroke:#000000;stroke-linecap:round;stroke-linejoin:round;stroke-miterlimit:10;" x1="1413.08" y1="1576.55" x2="874.68" y2="1576.55"></line>
		
			<line style="fill:none;stroke:#000000;stroke-linecap:round;stroke-linejoin:round;stroke-miterlimit:10;" x1="1413.08" y1="1562.67" x2="874.68" y2="1562.67"></line>
		
			<line style="fill:none;stroke:#000000;stroke-linecap:round;stroke-linejoin:round;stroke-miterlimit:10;" x1="1403.66" y1="1576.55" x2="1403.66" y2="1562.67"></line>
		
			<line style="fill:none;stroke:#000000;stroke-linecap:round;stroke-linejoin:round;stroke-miterlimit:10;" x1="1018.79" y1="1576.55" x2="1018.79" y2="1562.67"></line>
		
			<line style="fill:none;stroke:#000000;stroke-linecap:round;stroke-linejoin:round;stroke-miterlimit:10;" x1="1403.66" y1="1569.61" x2="1299.02" y2="1569.61"></line>
		
			<line style="fill:none;stroke:#000000;stroke-linecap:round;stroke-linejoin:round;stroke-miterlimit:10;" x1="997.5" y1="1576.55" x2="997.5" y2="1562.67"></line>
		
			<line style="fill:none;stroke:#000000;stroke-linecap:round;stroke-linejoin:round;stroke-miterlimit:10;" x1="1299.02" y1="1576.55" x2="1299.02" y2="1562.67"></line>
		
			<line style="fill:none;stroke:#000000;stroke-linecap:round;stroke-linejoin:round;stroke-miterlimit:10;" x1="1278.57" y1="1576.55" x2="1278.57" y2="1562.67"></line>
		
			<line style="fill:none;stroke:#000000;stroke-linecap:round;stroke-linejoin:round;stroke-miterlimit:10;" x1="884.1" y1="1576.55" x2="884.1" y2="1562.67"></line>
		
			<line style="fill:none;stroke:#000000;stroke-linecap:round;stroke-linejoin:round;stroke-miterlimit:10;" x1="997.5" y1="1569.63" x2="884.1" y2="1569.63"></line>
		
			<line style="fill:none;stroke:#000000;stroke-linecap:round;stroke-linejoin:round;stroke-miterlimit:10;" x1="1118.25" y1="1569.62" x2="1018.79" y2="1569.63"></line>
		<g>
			<path style="fill:none;stroke:#000000;stroke-linecap:round;stroke-linejoin:round;stroke-miterlimit:10;" d="M1278.57,1569.16
				l-70.26-70.26c-17.98,17.98-29.1,42.82-29.1,70.26"></path>
			<path style="fill:none;stroke:#000000;stroke-linecap:round;stroke-linejoin:round;stroke-miterlimit:10;" d="M1018.88,1569.16
				l70.26-70.26c17.98,17.98,29.1,42.82,29.1,70.26"></path>
		</g>
		
			<line style="fill:none;stroke:#000000;stroke-linecap:round;stroke-linejoin:round;stroke-miterlimit:10;" x1="1179.21" y1="1576.5" x2="1179.21" y2="1562.67"></line>
		
			<line style="fill:none;stroke:#000000;stroke-linecap:round;stroke-linejoin:round;stroke-miterlimit:10;" x1="1164.87" y1="1562.67" x2="1164.87" y2="1576.5"></line>
		
			<line style="fill:none;stroke:#000000;stroke-linecap:round;stroke-linejoin:round;stroke-miterlimit:10;" x1="1278.57" y1="1569.16" x2="1179.21" y2="1569.16"></line>
		
			<line style="fill:none;stroke:#000000;stroke-linecap:round;stroke-linejoin:round;stroke-miterlimit:10;" x1="1118.25" y1="1576.55" x2="1118.25" y2="1569.62"></line>
		
			<line style="fill:none;stroke:#000000;stroke-linecap:round;stroke-linejoin:round;stroke-miterlimit:10;" x1="1135.59" y1="1576.55" x2="1135.59" y2="1562.67"></line>
		
			<rect x="880.27" y="1602.28" style="fill:none;stroke:#000000;stroke-linecap:round;stroke-linejoin:round;stroke-miterlimit:10;" width="527.49" height="283.84"></rect>
		<polyline style="fill:none;stroke:#000000;stroke-linecap:round;stroke-linejoin:round;stroke-miterlimit:10;" points="
			866.39,1590.38 866.39,1900 1421.64,1900 1421.64,1592.34 		"></polyline>
	</g>
	<g>
		<rect x="1568.15" y="262.37" style="fill-rule:evenodd;clip-rule:evenodd;" width="43.63" height="1330.41"></rect>
		<rect x="1413.17" y="1537.53" style="fill-rule:evenodd;clip-rule:evenodd;" width="161.35" height="55.25"></rect>
		<rect x="705.52" y="819.61" style="fill-rule:evenodd;clip-rule:evenodd;" width="43.63" height="773.17"></rect>
		<rect x="727.33" y="1537.47" style="fill-rule:evenodd;clip-rule:evenodd;" width="147.43" height="55.31"></rect>
		<rect x="388.23" y="819.61" style="fill-rule:evenodd;clip-rule:evenodd;" width="327.37" height="39.66"></rect>
		<rect x="388.23" y="262.37" style="fill-rule:evenodd;clip-rule:evenodd;" width="39.66" height="584.51"></rect>
		<rect x="408.06" y="262.37" style="fill-rule:evenodd;clip-rule:evenodd;" width="420.41" height="39.86"></rect>
		<rect x="1032.72" y="261.97" style="fill-rule:evenodd;clip-rule:evenodd;" width="562.56" height="40.06"></rect>
		<rect x="1048.58" y="295.87" style="fill-rule:evenodd;clip-rule:evenodd;" width="15.86" height="105.31"></rect>
		<rect x="1048.58" y="559.82" style="fill-rule:evenodd;clip-rule:evenodd;" width="526.5" height="15.86"></rect>
		<rect x="1524.52" y="293.5" style="fill-rule:evenodd;clip-rule:evenodd;" width="15.86" height="271.04"></rect>
		<rect x="1048.58" y="567.76" style="fill-rule:evenodd;clip-rule:evenodd;" width="15.86" height="126.92"></rect>
		<rect x="421.26" y="799.28" style="fill-rule:evenodd;clip-rule:evenodd;" width="327.88" height="32.12"></rect>
		<rect x="725.35" y="799.28" style="fill-rule:evenodd;clip-rule:evenodd;" width="89.24" height="18.54"></rect>
		<rect x="791.08" y="650.25" style="fill-rule:evenodd;clip-rule:evenodd;" width="23.5" height="158.3"></rect>
		<rect x="791.08" y="290.37" style="fill-rule:evenodd;clip-rule:evenodd;" width="23.5" height="201.23"></rect>
		<rect x="409.81" y="287.79" style="fill-rule:evenodd;clip-rule:evenodd;" width="393.67" height="37.94"></rect>
		<rect x="630.46" y="369.45" style="fill-rule:evenodd;clip-rule:evenodd;" width="163.01" height="14.77"></rect>
		<rect x="630.46" y="318.49" style="fill-rule:evenodd;clip-rule:evenodd;" width="14.77" height="55.92"></rect>
		<rect x="418.21" y="318.49" style="fill-rule:evenodd;clip-rule:evenodd;" width="36.25" height="490.06"></rect>
	</g>
</g>
</svg>
