<?xml version="1.0" encoding="utf-8"?>
<!-- Generator: Adobe Illustrator 25.0.0, SVG Export Plug-In . SVG Version: 6.00 Build 0)  -->
<svg version="1.0" id="Layer_1" xmlns="http://www.w3.org/2000/svg" xmlns:xlink="http://www.w3.org/1999/xlink" x="0px" y="0px" width="2000px" height="2000px" viewBox="0 0 2000 2000" style="enable-background:new 0 0 2000 2000;" xml:space="preserve">
<path id="background" style="fill-rule:evenodd;clip-rule:evenodd;fill:#FFFFFF;" d="M1900.5,928.66v0.5
	c0,111.77-90.35,202.82-201.85,203.98v6.51h18.55V1615h-21.24h-23.37H264.14v-42.1v-4.64v-8.5h25.49v-29.97h4.25v-0.26h-62.89
	l-0.14-0.11L99.5,1422.55v-238.18l-0.45-0.2l133.03-107.22h57.55v-27.02h-25.49v-63.73h25.49v-31.87h4.25v-29.59h-1.49V538.04h1.49
	v-61.7h-4.25v-31.87h-25.49v-12.75v-10.68V385h1408.45h23.37h21.24v535.83h-18.55v7.83H1900.5z"></path>
<g id="h1">
	<path id="h1_path" style="fill:none;" d="M1666.44,887.21v263.23h-200.25l-0.01-263.23H1666.44z"></path>
	
		<text id="h1_text" transform="matrix(1 0 0 1 1567.2417 1041.7368)" style="font-family: GraphikLCG-Regular; font-size: 40px; text-anchor: middle; text-align: center;"></text>
</g>
<g id="c1">
	<path id="c1_path" style="fill:none;" d="M1200.68,918.22V500.37h216.8v417.84H1200.68z"></path>
	
		<text id="c1_text" transform="matrix(1 0 0 1 1302.1636 735.7163)" style="font-family: GraphikLCG-Regular; font-size: 40px; text-anchor: middle; text-align: center;"></text>
</g>
<g id="r1">
	<path id="r1_path" style="fill:none;" d="M868.35,1509.13v-0.06l-148.72,0.12l0.05-380.85h324.37v380.79H868.35z"></path>
	
		<text id="r1_text" transform="matrix(1 0 0 1 893.0493 1355.7563)" style="font-family: GraphikLCG-Regular; font-size: 40px; text-anchor: middle; text-align: center;"></text>
</g>
<g id="s1">
	<path id="s1_path" style="fill:none;" d="M1317.62,1471.04v-256.45h139.85v256.45H1317.62z"></path>
	
		<text id="s1_text" transform="matrix(1 0 0 1 1369.7969 1349.5981)" style="font-family: GraphikLCG-Regular; font-size: 40px; text-anchor: middle; text-align: center;"></text>
</g>
<g id="b1">
	<path id="b1_path" style="fill:none;" d="M133.63,1434.14l0.04-233.45h147.25v233.42L133.63,1434.14z"></path>
	<text id="b1_text" transform="matrix(1 0 0 1 186.3918 1293.2954)" style="font-family: GraphikLCG-Regular; font-size: 40px; text-anchor: middle; text-align: center;"></text>
</g>
<path id="u7" style="fill:#FFFFFF;stroke:#FFFFFF;stroke-miterlimit:10;" d="M1462.76,656.2c-6.5,0-11.77-5.27-11.77-11.77
	c0-6.5,5.27-11.77,11.77-11.77c6.5,0,11.77,5.27,11.77,11.77C1474.52,650.93,1469.26,656.2,1462.76,656.2z"></path>
<path id="u11" style="fill:#FFFFFF;stroke:#FFFFFF;stroke-miterlimit:10;" d="M252.46,1152.02c-6.5,0-11.77-5.27-11.77-11.77
	s5.27-11.77,11.77-11.77c6.5,0,11.77,5.27,11.77,11.77S258.96,1152.02,252.46,1152.02z"></path>
<g id="mebel">
	<g>
		<g>
			<rect x="1456.41" y="805.94" style="fill:none;stroke:#000000;stroke-miterlimit:10;" width="219.89" height="107.22"></rect>
			<line style="fill:none;stroke:#000000;stroke-miterlimit:10;" x1="1456.41" y1="902" x2="1676.29" y2="902.08"></line>
		</g>
		<line style="fill:none;stroke:#000000;stroke-miterlimit:10;" x1="1566.36" y1="913.16" x2="1566.36" y2="805.94"></line>
	</g>
	<g>
		<g>
			<rect x="991.79" y="1198.64" style="fill:none;stroke:#000000;stroke-miterlimit:10;" width="127.44" height="371.75"></rect>
			<line style="fill:none;stroke:#000000;stroke-miterlimit:10;" x1="1002.85" y1="1570.39" x2="1002.77" y2="1198.66"></line>
		</g>
		<line style="fill:none;stroke:#000000;stroke-miterlimit:10;" x1="991.79" y1="1322" x2="1119.23" y2="1322"></line>
		<line style="fill:none;stroke:#000000;stroke-miterlimit:10;" x1="991.79" y1="1445.35" x2="1119.25" y2="1445.35"></line>
	</g>
	<g>
		<polygon style="fill:none;stroke:#000000;stroke-miterlimit:10;" points="1313.66,559.15 1185.37,559.15 1185.37,430.87 
			1313.66,430.85 		"></polygon>
		<g>
			<line style="fill:none;stroke:#000000;stroke-miterlimit:10;" x1="1249.52" y1="464.12" x2="1249.52" y2="525.88"></line>
			<line style="fill:none;stroke:#000000;stroke-miterlimit:10;" x1="1280.4" y1="495" x2="1218.63" y2="495"></line>
			<polyline style="fill:none;stroke:#000000;stroke-miterlimit:10;" points="1264.96,470.98 1249.52,479.56 1234.07,470.98 			"></polyline>
			<polyline style="fill:none;stroke:#000000;stroke-miterlimit:10;" points="1225.5,479.56 1234.07,495 1225.5,510.44 			"></polyline>
			<polyline style="fill:none;stroke:#000000;stroke-miterlimit:10;" points="1234.07,519.02 1249.52,510.44 1264.96,519.02 			"></polyline>
			<polyline style="fill:none;stroke:#000000;stroke-miterlimit:10;" points="1273.54,510.44 1264.96,495 1273.54,479.56 			"></polyline>
		</g>
	</g>
	<g>
		<polygon style="fill:none;stroke:#000000;stroke-miterlimit:10;" points="1546.28,566.58 1546.28,664.95 1674.83,664.95 
			1674.85,566.58 		"></polygon>
		<path style="fill:none;stroke:#000000;stroke-miterlimit:10;" d="M1637.48,614.12l-31.04,13.98c-1.9,0.76-3.99,1.18-6.18,1.18
			c-8.81,0-15.95-6.79-15.95-15.16s7.14-15.16,15.95-15.16c2.19,0,4.28,0.42,6.18,1.18L1637.48,614.12z"></path>
	</g>
	<g>
		<g>
			<g>
				<g>
					<g>
						<g>
							<g>
								<rect x="491.07" y="1556.07" style="fill:none;stroke:#000000;stroke-miterlimit:10;" width="345.85" height="13.4"></rect>
								<rect x="491.07" y="1129.57" style="fill:none;stroke:#000000;stroke-miterlimit:10;" width="345.85" height="426.5"></rect>
								<path style="fill:none;stroke:#000000;stroke-miterlimit:10;" d="M657.94,1476.9h11.9l0,38.42
									c0,11.49,8.38,20.81,18.71,20.81l103.72,0c10.33,0,18.71-9.31,18.71-20.81l0-38.42l11.9,0l0,67.27c0,2.87-2.09,5.2-4.68,5.2
									l-308.43,0c-2.58,0-4.68-2.33-4.68-5.2l0-67.27H517l0,38.42c0,11.49,8.38,20.81,18.71,20.81l103.52,0
									c10.33,0,18.71-9.31,18.71-20.81L657.94,1476.9z"></path>
								<path style="fill:none;stroke:#000000;stroke-miterlimit:10;" d="M505.85,1140.25l316.28,0c0.41,0,0.75,0.34,0.75,0.75
									l0,335.89l-317.78,0l0-335.89C505.1,1140.59,505.44,1140.25,505.85,1140.25z"></path>
							</g>
						</g>
						
							<rect x="831.17" y="1484.58" transform="matrix(-1.053121e-06 1 -1 -1.053121e-06 2400.6331 647.6655)" style="fill:none;stroke:#000000;stroke-miterlimit:10;" width="90.63" height="79.14"></rect>
						
							<rect x="406.18" y="1484.58" transform="matrix(-1.053121e-06 1 -1 -1.053121e-06 1975.6461 1072.652)" style="fill:none;stroke:#000000;stroke-miterlimit:10;" width="90.63" height="79.14"></rect>
					</g>
				</g>
			</g>
		</g>
		<g>
			<circle style="fill:none;stroke:#000000;stroke-miterlimit:10;" cx="863.35" cy="1510.14" r="7.25"></circle>
			<circle style="fill:none;stroke:#000000;stroke-miterlimit:10;" cx="863.35" cy="1510.14" r="5.13"></circle>
			<line style="fill:none;stroke:#000000;stroke-miterlimit:10;" x1="868.13" y1="1515.1" x2="871.66" y2="1518.78"></line>
			<path style="fill:none;stroke:#000000;stroke-miterlimit:10;" d="M859.59,1528.25c5.57,1.15,11.02-0.39,15.17-3.66l-3.14-3.27
				c-0.69-0.72-0.66-1.86,0.05-2.55c0.44-0.43,1.05-0.58,1.62-0.46c0.34,0.07,0.67,0.24,0.93,0.52l3.14,3.27
				c1.96-2.29,3.44-5.03,4.1-8.19c2.07-10-4.36-19.79-14.36-21.86c-10-2.07-19.79,4.36-21.86,14.36
				C843.16,1516.39,849.59,1526.18,859.59,1528.25z"></path>
			<g>
				
					<rect x="892.99" y="1544.85" transform="matrix(0.7211 -0.6929 0.6929 0.7211 -823.0143 1051.7977)" style="fill:none;stroke:#000000;stroke-miterlimit:10;" width="3.61" height="6.41"></rect>
				
					<rect x="898.19" y="1539.85" transform="matrix(0.7211 -0.6929 0.6929 0.7211 -818.0986 1053.9979)" style="fill:none;stroke:#000000;stroke-miterlimit:10;" width="3.6" height="6.41"></rect>
			</g>
			<g>
				<path style="fill:none;stroke:#000000;stroke-miterlimit:10;" d="M884.32,1534.55c-1.05,1.39-1.85,3-2.23,4.81
					c-1.35,6.52,2.84,12.9,9.36,14.25c3.38,0.7,6.7-0.11,9.32-1.93L884.32,1534.55z"></path>
				<path style="fill:none;stroke:#000000;stroke-miterlimit:10;" d="M903.38,1549.19c1.1-1.41,1.94-3.06,2.33-4.93
					c1.35-6.52-2.84-12.9-9.36-14.25c-3.43-0.71-6.8,0.14-9.44,2.03L903.38,1549.19z"></path>
			</g>
			<g>
				<path style="fill:none;stroke:#000000;stroke-miterlimit:10;" d="M873.29,1518.3c0.34,0.07,0.67,0.24,0.93,0.52l33.4,34.78
					c0.69,0.72,0.67,1.86-0.05,2.55c-0.72,0.69-1.86,0.67-2.55-0.05l-33.4-34.78c-0.69-0.72-0.67-1.86,0.05-2.55
					C872.12,1518.34,872.73,1518.19,873.29,1518.3z"></path>
			</g>
		</g>
		<g>
			<circle style="fill:none;stroke:#000000;stroke-miterlimit:10;" cx="466.8" cy="1510.14" r="7.25"></circle>
			<circle style="fill:none;stroke:#000000;stroke-miterlimit:10;" cx="466.8" cy="1510.14" r="5.13"></circle>
			<line style="fill:none;stroke:#000000;stroke-miterlimit:10;" x1="462.02" y1="1515.1" x2="458.49" y2="1518.78"></line>
			<path style="fill:none;stroke:#000000;stroke-miterlimit:10;" d="M470.56,1528.25c-5.57,1.15-11.02-0.39-15.17-3.66l3.14-3.27
				c0.69-0.72,0.66-1.86-0.05-2.55c-0.44-0.43-1.05-0.58-1.62-0.46c-0.34,0.07-0.67,0.24-0.93,0.52l-3.14,3.27
				c-1.96-2.29-3.44-5.03-4.1-8.19c-2.07-10,4.36-19.79,14.36-21.86c10-2.07,19.79,4.36,21.86,14.36
				C486.99,1516.39,480.56,1526.18,470.56,1528.25z"></path>
			<g>
				
					<rect x="432.15" y="1546.25" transform="matrix(0.6929 -0.7211 0.7211 0.6929 -982.5269 789.365)" style="fill:none;stroke:#000000;stroke-miterlimit:10;" width="6.41" height="3.61"></rect>
				
					<rect x="426.95" y="1541.26" transform="matrix(0.6929 -0.7211 0.7211 0.6929 -980.5248 784.0879)" style="fill:none;stroke:#000000;stroke-miterlimit:10;" width="6.41" height="3.6"></rect>
			</g>
			<g>
				<path style="fill:none;stroke:#000000;stroke-miterlimit:10;" d="M445.83,1534.55c1.05,1.39,1.85,3,2.23,4.81
					c1.35,6.52-2.84,12.9-9.36,14.25c-3.38,0.7-6.7-0.11-9.32-1.93L445.83,1534.55z"></path>
				<path style="fill:none;stroke:#000000;stroke-miterlimit:10;" d="M426.77,1549.19c-1.1-1.41-1.94-3.06-2.33-4.93
					c-1.35-6.52,2.84-12.9,9.36-14.25c3.43-0.71,6.8,0.14,9.44,2.03L426.77,1549.19z"></path>
			</g>
			<g>
				<path style="fill:none;stroke:#000000;stroke-miterlimit:10;" d="M456.86,1518.3c-0.34,0.07-0.67,0.24-0.93,0.52l-33.4,34.78
					c-0.69,0.72-0.67,1.86,0.05,2.55c0.72,0.69,1.86,0.67,2.55-0.05l33.4-34.78c0.69-0.72,0.67-1.86-0.05-2.55
					C458.03,1518.34,457.42,1518.19,456.86,1518.3z"></path>
			</g>
		</g>
	</g>
	<g>
		<g>
			<g>
				<path style="fill:none;stroke:#000000;stroke-miterlimit:10;" d="M1081,598.6l-8.4-29.14c-5.25-18.23-23.37-29.6-42.08-26.4
					l-2.12,0.36c-18.69,3.2-31.99,19.93-30.9,38.86l1.75,30.32L1081,598.6z"></path>
				<path style="fill:none;stroke:#000000;stroke-miterlimit:10;" d="M987.13,589.43l-0.39-6.69c-1.4-24.24,15.64-45.66,39.57-49.76
					l2.72-0.47c23.95-4.1,47.15,10.46,53.88,33.81l1.84,6.39c0.89,3.09-1.1,6.26-4.27,6.8l0,0c-2.71,0.46-5.33-1.18-6.09-3.82
					l-1.8-6.24c-5.25-18.23-23.37-29.6-42.08-26.4l-2.12,0.36c-18.69,3.2-31.99,19.93-30.9,38.86l0.38,6.53
					c0.16,2.74-1.76,5.15-4.47,5.62l0,0C990.25,594.97,987.32,592.64,987.13,589.43z"></path>
			</g>
			<g>
				<path style="fill:none;stroke:#000000;stroke-miterlimit:10;" d="M1107.43,745.86l29.22,8.11c18.28,5.07,37.46-4.41,44.52-22.02
					l0.8-2c7.06-17.6-0.23-37.69-16.93-46.67l-26.74-14.38L1107.43,745.86z"></path>
				<path style="fill:none;stroke:#000000;stroke-miterlimit:10;" d="M1164.39,670.69l5.9,3.17c21.38,11.5,30.72,37.23,21.68,59.77
					l-1.03,2.56c-9.05,22.55-33.6,34.7-57.01,28.2l-6.41-1.78c-3.1-0.86-4.76-4.22-3.56-7.2l0,0c1.02-2.55,3.8-3.92,6.44-3.19
					l6.26,1.74c18.28,5.07,37.46-4.41,44.52-22.02l0.8-2c7.06-17.6-0.23-37.69-16.93-46.67l-5.76-3.1c-2.41-1.3-3.47-4.2-2.45-6.75
					l0,0C1158.04,670.45,1161.56,669.17,1164.39,670.69z"></path>
			</g>
			<g>
				<path style="fill:none;stroke:#000000;stroke-miterlimit:10;" d="M969.67,697.04l-20.76,22.11
					c-12.99,13.83-13.5,35.22-1.2,49.66l1.4,1.64c12.3,14.43,33.48,17.32,49.19,6.71l25.17-16.99L969.67,697.04z"></path>
				<path style="fill:none;stroke:#000000;stroke-miterlimit:10;" d="M1009.75,782.42l-5.55,3.75
					c-20.12,13.59-47.24,9.89-62.99-8.59l-1.79-2.1c-15.76-18.49-15.1-45.88,1.53-63.59l4.55-4.85c2.2-2.34,5.95-2.25,8.03,0.19l0,0
					c1.78,2.09,1.71,5.18-0.17,7.19l-4.45,4.73c-12.99,13.83-13.5,35.22-1.2,49.66l1.4,1.64c12.3,14.43,33.48,17.32,49.19,6.71
					l5.42-3.66c2.27-1.53,5.33-1.12,7.11,0.97l0,0C1012.92,776.91,1012.41,780.62,1009.75,782.42z"></path>
			</g>
			<circle style="fill:#FFFFFF;stroke:#000000;stroke-miterlimit:10;" cx="1053.04" cy="679.62" r="85.74"></circle>
		</g>
		<g>
			<path style="fill:none;stroke:#000000;stroke-miterlimit:10;" d="M1000.53,667.55l6.45,1.76c0.05-0.54,0.12-1.07,0.27-1.61
				c0.15-0.54,0.35-1.04,0.59-1.52l-6.45-1.76c-0.5-0.14-1.02,0.16-1.15,0.66l-0.36,1.32
				C999.73,666.9,1000.03,667.42,1000.53,667.55z"></path>
			<circle style="fill:none;stroke:#000000;stroke-miterlimit:10;" cx="1016.05" cy="670.11" r="9.12"></circle>
		</g>
		<g>
			<g>
				<circle style="fill:none;stroke:#000000;stroke-miterlimit:10;" cx="1046.62" cy="633.42" r="17.35"></circle>
			</g>
			<g>
				<circle style="fill:none;stroke:#000000;stroke-miterlimit:10;" cx="1046.62" cy="633.42" r="9.88"></circle>
			</g>
			<g>
				
					<ellipse transform="matrix(0.9827 -0.1851 0.1851 0.9827 -102.7388 199.1861)" style="fill:none;stroke:#000000;stroke-miterlimit:10;" cx="1015.47" cy="649.86" rx="2.69" ry="4.37"></ellipse>
				<line style="fill:none;stroke:#000000;stroke-miterlimit:10;" x1="1014.66" y1="645.57" x2="1011.13" y2="626.79"></line>
			</g>
			<g>
				<path style="fill:none;stroke:#000000;stroke-miterlimit:10;" d="M1077.19,642.68l-0.81-4.29c-0.45-2.37-1.99-4.07-3.45-3.8
					c-1.46,0.27-2.28,2.42-1.83,4.79l0.81,4.29"></path>
				<line style="fill:none;stroke:#000000;stroke-miterlimit:10;" x1="1072.93" y1="634.6" x2="1069.39" y2="615.81"></line>
			</g>
			<line style="fill:none;stroke:#000000;stroke-miterlimit:10;" x1="1074.54" y1="643.18" x2="1072.93" y2="634.6"></line>
			<g>
				<path style="fill:none;stroke:#000000;stroke-miterlimit:10;" d="M1019.8,637.04l4.1-0.77l2.99,15.89l-3.09,0.58
					c-0.56,0.11-1.1-0.26-1.21-0.82L1019.8,637.04z"></path>
				<path style="fill:none;stroke:#000000;stroke-miterlimit:10;" d="M1018.14,625.47l3.09-0.58c0.28-0.05,0.55,0.13,0.6,0.41
					l2.07,10.98l-4.1,0.77l-2.07-10.98C1017.68,625.79,1017.86,625.52,1018.14,625.47z"></path>
			</g>
		</g>
		<g>
			<circle style="fill:none;stroke:#000000;stroke-miterlimit:10;" cx="1056.86" cy="694.78" r="23.7"></circle>
			<circle style="fill:none;stroke:#000000;stroke-miterlimit:10;" cx="1057.63" cy="707.56" r="6.81"></circle>
			<circle style="fill:none;stroke:#000000;stroke-miterlimit:10;" cx="1064.44" cy="695.74" r="6.81"></circle>
			<circle style="fill:none;stroke:#000000;stroke-miterlimit:10;" cx="1050.83" cy="695.06" r="6.81"></circle>
			<path style="fill:none;stroke:#000000;stroke-miterlimit:10;" d="M1039.95,691.65l1.22,0.95l3.47-4.88
				c9.63-7.1,18.18-2.55,23.15-0.47c1.15,0.48,2.22-0.85,1.5-1.87c-2.52-3.61-7.19-8.53-13.85-8.48
				c-7.62,0.06-10.77,6.27-11.93,9.68L1039.95,691.65z"></path>
		</g>
	</g>
	<polygon style="fill:none;stroke:#000000;stroke-miterlimit:10;" points="1674.27,423.58 1546.28,423.58 1546.28,427.46 
		1313.66,427.46 1313.66,559.15 1546.28,559.15 1546.28,566.58 1674.27,566.58 	"></polygon>
	<g>
		<g>
			<g>
				<path style="fill:none;stroke:#000000;stroke-miterlimit:10;" d="M665.43,481.4H448.48c-0.59,0-1.07,0.48-1.07,1.07V610
					c0,0.59,0.48,1.07,1.07,1.07h216.95c0.59,0,1.07-0.48,1.07-1.07V482.47C666.5,481.88,666.02,481.4,665.43,481.4z"></path>
				<path style="fill:none;stroke:#000000;stroke-miterlimit:10;" d="M665.43,481.4H448.48c-0.59,0-1.07-0.48-1.07-1.07v-50.18
					c0-0.59,0.48-1.07,1.07-1.07h216.95c0.59,0,1.07,0.48,1.07,1.07v50.18C666.5,480.92,666.02,481.4,665.43,481.4z"></path>
				<path style="fill:none;stroke:#000000;stroke-miterlimit:10;" d="M667.57,481.4h210.76c0.59,0,1.07,0.48,1.07,1.07V610
					c0,0.59-0.48,1.07-1.07,1.07H667.57c-0.59,0-1.07-0.48-1.07-1.07V482.47C666.5,481.88,666.98,481.4,667.57,481.4z"></path>
				<path style="fill:none;stroke:#000000;stroke-miterlimit:10;" d="M667.57,481.4h210.76c0.59,0,1.07-0.48,1.07-1.07v-50.18
					c0-0.59-0.48-1.07-1.07-1.07H667.57c-0.59,0-1.07,0.48-1.07,1.07v50.18C666.5,480.92,666.98,481.4,667.57,481.4z"></path>
			</g>
		</g>
		<g>
			<path style="fill:none;stroke:#000000;stroke-miterlimit:10;" d="M829.57,572.68l0-0.01c3.31-15.69,9.08-30.76,17.08-44.65
				l0.01-0.01c2.09-3.62,0.03-8.22-4.06-9.08l-0.01,0c-15.69-3.31-30.76-9.08-44.65-17.08l-0.01-0.01
				c-3.62-2.09-8.22-0.03-9.08,4.06l0,0.01c-1.56,7.4-3.71,14.64-6.34,21.7c9,0.4,18.02,0.1,27-0.93l5.29-0.61
				c2.37-0.27,4.31,1.84,3.84,4.18l-1.06,5.22c-2.27,11.23-2.76,22.74-1.45,34.12l0.6,5.19c1.24,0.67,2.53,1.26,3.75,1.97l0.01,0.01
				C824.11,578.82,828.71,576.77,829.57,572.68z"></path>
			<path style="fill:none;stroke:#000000;stroke-miterlimit:10;" d="M748.98,576.01l5.29-0.61c17.69-2.04,35.6-1.28,53.06,2.25
				l5.22,1.06c2.34,0.47,4.45-1.47,4.18-3.84l-0.61-5.29c-1.31-11.38-0.82-22.9,1.45-34.12l1.06-5.22c0.47-2.34-1.47-4.45-3.84-4.18
				l-5.29,0.61c-17.69,2.04-35.6,1.28-53.06-2.25l-5.22-1.06c-2.34-0.47-4.45,1.47-4.18,3.84l0.61,5.29
				c1.31,11.38,0.82,22.9-1.45,34.12l-1.06,5.22C744.66,574.16,746.61,576.28,748.98,576.01z"></path>
		</g>
		<g>
			<path style="fill:none;stroke:#000000;stroke-miterlimit:10;" d="M499.37,572.07l0-0.01c-3.31-15.69-9.08-30.76-17.08-44.65
				l-0.01-0.01c-2.09-3.62-0.03-8.22,4.06-9.08l0.01,0c15.69-3.31,30.76-9.08,44.65-17.08l0.01-0.01c3.62-2.09,8.22-0.03,9.08,4.06
				l0,0.01c1.56,7.4,3.71,14.64,6.34,21.7c-9,0.4-18.02,0.1-27-0.93l-5.29-0.61c-2.37-0.27-4.31,1.84-3.84,4.18l1.06,5.22
				c2.27,11.23,2.76,22.74,1.45,34.12l-0.6,5.19c-1.24,0.67-2.53,1.26-3.75,1.97l-0.01,0.01
				C504.84,578.21,500.24,576.16,499.37,572.07z"></path>
			<path style="fill:none;stroke:#000000;stroke-miterlimit:10;" d="M579.97,575.4l-5.29-0.61c-17.69-2.04-35.6-1.28-53.06,2.25
				l-5.22,1.06c-2.34,0.47-4.45-1.47-4.18-3.84l0.61-5.29c1.31-11.38,0.82-22.9-1.45-34.12l-1.06-5.22
				c-0.47-2.34,1.47-4.45,3.84-4.18l5.29,0.61c17.69,2.04,35.6,1.28,53.06-2.25l5.22-1.06c2.34-0.47,4.45,1.47,4.18,3.84l-0.61,5.29
				c-1.31,11.38-0.82,22.9,1.45,34.12l1.06,5.22C584.28,573.55,582.34,575.67,579.97,575.4z"></path>
		</g>
	</g>
	<g>
		<g>
			<g>
				
					<rect x="652.27" y="830.72" transform="matrix(-1.985610e-06 1 -1 -1.985610e-06 1624.2308 304.3066)" style="fill:none;stroke:#000000;stroke-miterlimit:10;" width="15.38" height="267.1"></rect>
				<polygon style="fill:none;stroke:#000000;stroke-miterlimit:10;" points="554.2,987.34 526.41,971.96 793.51,971.96 
					765.73,987.34 				"></polygon>
			</g>
		</g>
		<g>
			
				<rect x="636.56" y="791.21" transform="matrix(2.676195e-06 -1 1 2.676195e-06 -297.4203 1623.8969)" style="fill:none;stroke:#000000;stroke-miterlimit:10;" width="53.36" height="338.89"></rect>
		</g>
	</g>
	<g>
		<path style="fill:none;stroke:#000000;stroke-miterlimit:10;" d="M591.4,722.01c0,8.63,0,38.94,0,47.58
			c0,8.83,7.61,13.34,17.05,14.82c38.53,5.37,77.68,5.37,116.21,0c9.45-1.47,17.05-5.99,17.05-14.82c0-8.63,0-38.94,0-47.58
			c0-8.83-7.61-13.35-17.05-14.82c-38.53-5.37-77.68-5.37-116.21,0C599.01,708.67,591.4,713.18,591.4,722.01z"></path>
		<g>
			<path style="fill:none;stroke:#000000;stroke-miterlimit:10;" d="M660.09,732.61l50.05-16.79c0.35-0.12,0.73,0.07,0.85,0.42
				L722.32,750c0.12,0.35-0.07,0.73-0.42,0.85l-50.05,16.79c-0.35,0.12-0.73-0.07-0.85-0.42l-11.33-33.77
				C659.55,733.1,659.74,732.72,660.09,732.61z"></path>
			
				<rect x="671.98" y="738.2" transform="matrix(-0.948 0.3181 -0.3181 -0.948 1587.3578 1235.1649)" style="fill:none;stroke:#000000;stroke-miterlimit:10;" width="41.69" height="17.98"></rect>
			
				<rect x="679.05" y="726.08" transform="matrix(-0.948 0.3181 -0.3181 -0.948 1571.7809 1205.6509)" style="fill:none;stroke:#000000;stroke-miterlimit:10;" width="16.79" height="10.16"></rect>
			<path style="fill:none;stroke:#000000;stroke-miterlimit:10;" d="M671.21,767.86l51.32-17.22l9.36,8.99
				c1.31,1.26,0.81,3.45-0.9,4.03l-58.66,19.68c-1.72,0.58-3.44-0.88-3.15-2.67L671.21,767.86z"></path>
		</g>
		<g>
			<path style="fill:none;stroke:#000000;stroke-miterlimit:10;" d="M598.7,756.72l4.58,4.52c0.29-0.43,0.61-0.84,0.98-1.22
				c0.38-0.38,0.79-0.7,1.21-1l-4.58-4.52c-0.36-0.35-0.93-0.35-1.28,0.01l-0.92,0.94C598.34,755.8,598.35,756.37,598.7,756.72z"></path>
			<circle style="fill:none;stroke:#000000;stroke-miterlimit:10;" cx="610.51" cy="766.17" r="8.77"></circle>
		</g>
		<g>
			<g>
				<g>
					<line style="fill:none;stroke:#000000;stroke-miterlimit:10;" x1="633.88" y1="743.44" x2="630.08" y2="743.44"></line>
					<line style="fill:none;stroke:#000000;stroke-miterlimit:10;" x1="633.88" y1="739.12" x2="630.08" y2="739.12"></line>
					<line style="fill:none;stroke:#000000;stroke-miterlimit:10;" x1="633.88" y1="730.48" x2="630.08" y2="730.48"></line>
					<line style="fill:none;stroke:#000000;stroke-miterlimit:10;" x1="633.88" y1="734.8" x2="630.08" y2="734.8"></line>
					<line style="fill:none;stroke:#000000;stroke-miterlimit:10;" x1="633.88" y1="726.16" x2="630.08" y2="726.16"></line>
					<line style="fill:none;stroke:#000000;stroke-miterlimit:10;" x1="633.88" y1="721.84" x2="630.08" y2="721.84"></line>
				</g>
				<g>
					
						<rect x="632.08" y="717.52" transform="matrix(-1 -1.224647e-16 1.224647e-16 -1 1287.8198 1465.2881)" style="fill:none;stroke:#000000;stroke-miterlimit:10;" width="23.65" height="30.24"></rect>
				</g>
				<polygon style="fill:none;stroke:#000000;stroke-miterlimit:10;" points="632.08,717.52 608.43,717.52 608.43,723.06 
					617.69,733.33 618.33,736.45 615.29,735.49 608.43,727.89 608.43,747.76 632.08,747.76 				"></polygon>
			</g>
			<path style="fill:none;stroke:#000000;stroke-miterlimit:10;" d="M598.97,714.98L598.97,714.98c0.66-0.6,1.69-0.55,2.28,0.12
				l16.43,18.23l0.64,3.13l-3.04-0.96l-16.43-18.23C598.25,716.6,598.31,715.58,598.97,714.98z"></path>
		</g>
	</g>
	<g>
		<circle style="fill:none;stroke:#000000;stroke-miterlimit:10;" cx="1207.13" cy="1079.51" r="47.38"></circle>
		<circle style="fill:none;stroke:#000000;stroke-miterlimit:10;" cx="1207.13" cy="1079.51" r="41.81"></circle>
	</g>
	<g>
		<g>
			<path style="fill:none;stroke:#000000;stroke-miterlimit:10;" d="M173.83,1379.83c1.17-0.49,2.38-0.89,3.61-1.21"></path>
			<path style="fill:none;stroke:#000000;stroke-miterlimit:10;" d="M211.63,1405.64c-0.04,1.99-0.3,4.01-0.81,6.03
				c-0.11,0.45-0.24,0.9-0.37,1.34"></path>
		</g>
		<g>
			<path style="fill:none;stroke:#000000;stroke-miterlimit:10;" d="M208.58,1407.71c-0.12,1.08-0.31,2.17-0.58,3.26"></path>
			<path style="fill:none;stroke:#000000;stroke-miterlimit:10;" d="M175.6,1382.27c1.03-0.39,2.09-0.72,3.17-0.97"></path>
		</g>
		<g>
			<path style="fill:none;stroke:#000000;stroke-miterlimit:10;" d="M201.74,1365.76c-1.13-2.13-2.75-4.22-5.02-6.12
				c-15.01,1.39-18.8,16.38-18.8,16.38c-0.91,2.9,0.4,5.97,2.96,7.38"></path>
		</g>
		<line style="fill:none;stroke:#000000;stroke-miterlimit:10;" x1="193.51" y1="1368.41" x2="196.72" y2="1359.96"></line>
		<line style="fill:none;stroke:#000000;stroke-miterlimit:10;" x1="179.66" y1="1404.88" x2="185.19" y2="1390.31"></line>
		<g>
			<path style="fill:none;stroke:#000000;stroke-miterlimit:10;" d="M184.62,1418.34C184.62,1418.35,184.62,1418.35,184.62,1418.34
				C184.61,1418.33,184.61,1418.33,184.62,1418.34z"></path>
			<path style="fill:none;stroke:#000000;stroke-miterlimit:10;" d="M168.41,1430.46c3.92,6.67,13.21,18.26,30.28,17.92
				c3.09-3.25,5.22-6.65,6.63-10.05"></path>
			<path style="fill:none;stroke:#000000;stroke-miterlimit:10;" d="M185.11,1417.53c-1.03-2.32-2.97-3.99-5.27-4.9"></path>
			<path style="fill:none;stroke:#000000;stroke-miterlimit:10;" d="M195.3,1403.22c-1.46-0.05-2.95,0.22-4.37,0.84
				c-5.05,2.22-8.04,8.43-5.82,13.47c0.45,1.03,0.27,0.63,0.22,0.5"></path>
			<path style="fill:none;stroke:#000000;stroke-miterlimit:10;" d="M205.14,1411.66c-0.59-1.58-1.05-2.49-1.05-2.49"></path>
		</g>
		<line style="fill:none;stroke:#000000;stroke-miterlimit:10;" x1="179.66" y1="1405.04" x2="198.69" y2="1448.37"></line>
		<g>
			<path style="fill:none;stroke:#000000;stroke-miterlimit:10;" d="M197.62,1389.49C197.62,1389.49,197.62,1389.49,197.62,1389.49
				C197.6,1389.5,197.61,1389.5,197.62,1389.49z"></path>
			<path style="fill:none;stroke:#000000;stroke-miterlimit:10;" d="M198.59,1390.69C198.59,1390.69,198.59,1390.69,198.59,1390.69
				C198.58,1390.7,198.58,1390.7,198.59,1390.69z"></path>
			<path style="fill:none;stroke:#000000;stroke-miterlimit:10;" d="M184.62,1374.32c-4.28,3.47-4.94,9.76-1.47,14.04
				c3.47,4.28,10.24,5.54,14.53,2.07c0.88-0.71,0.54-0.42,0.43-0.35c0.33-0.26,0.6-0.48,0.6-0.48s-0.27,0.21-0.6,0.48
				c0.1-0.09,0,0-0.43,0.35c-3.66,2.98-4.32,8.46-2.25,12.66c0.35,0.7,0.77,1.37,1.26,1.98c3.47,4.28,9.76,4.94,14.04,1.47
				c0,0,0.33-0.24,0.89-0.7c3.78-3.14,18.13-16.63,12.24-36.63C202.82,1357.85,184.62,1374.32,184.62,1374.32z"></path>
		</g>
		<line style="fill:none;stroke:#000000;stroke-miterlimit:10;" x1="179.66" y1="1405.04" x2="223.87" y2="1369.22"></line>
		<g>
			<path style="fill:none;stroke:#000000;stroke-miterlimit:10;" d="M176.39,1386.15c0.32-1.99-0.33-4.11-1.92-5.59
				c0,0-10.71-11.16-24.44-4.94c-1.96,5.27-1.54,9.96-0.24,13.76"></path>
		</g>
		<line style="fill:none;stroke:#000000;stroke-miterlimit:10;" x1="159.9" y1="1385.43" x2="150.03" y2="1375.62"></line>
		<line style="fill:none;stroke:#000000;stroke-miterlimit:10;" x1="179.66" y1="1405.04" x2="176.91" y2="1402.32"></line>
		<g>
			<path style="fill:none;stroke:#000000;stroke-miterlimit:10;" d="M169.82,1405.81C169.82,1405.81,169.83,1405.81,169.82,1405.81
				C169.84,1405.81,169.84,1405.81,169.82,1405.81z"></path>
			<path style="fill:none;stroke:#000000;stroke-miterlimit:10;" d="M169.83,1404.26C169.83,1404.26,169.82,1404.27,169.83,1404.26
				C169.84,1404.26,169.84,1404.26,169.83,1404.26z"></path>
			<path style="fill:none;stroke:#000000;stroke-miterlimit:10;" d="M180.35,1415.8c0-5.51-4.47-10.76-9.98-10.76"></path>
			<path style="fill:none;stroke:#000000;stroke-miterlimit:10;" d="M169.82,1405.04c-0.13,0.01,0,0,0.55,0
				c5.51-0.01,9.98-5.24,9.98-10.76s-4.47-9.98-9.98-9.98c0,0-24.5-1.34-33.7,20.74c3.82,9.16,10.27,14.29,16.51,17.16"></path>
		</g>
		<line style="fill:none;stroke:#000000;stroke-miterlimit:10;" x1="161.06" y1="1405.04" x2="136.67" y2="1405.04"></line>
		<g>
			<path style="fill:none;stroke:#000000;stroke-miterlimit:10;" d="M170.31,1414.9C170.31,1414.89,170.32,1414.89,170.31,1414.9
				C170.32,1414.89,170.32,1414.89,170.31,1414.9z"></path>
			<path style="fill:none;stroke:#000000;stroke-miterlimit:10;" d="M169.63,1414.2C169.63,1414.2,169.63,1414.2,169.63,1414.2
				C169.63,1414.2,169.64,1414.19,169.63,1414.2z"></path>
			<path style="fill:none;stroke:#000000;stroke-miterlimit:10;" d="M179.44,1423.57c2.46-2.45,2.47-6.43,0.02-8.9
				s-6.78-2.82-9.24-0.36c-0.5,0.5-0.31,0.3-0.25,0.24c-0.19,0.19-0.34,0.34-0.34,0.34s0.15-0.15,0.34-0.34
				c-0.06,0.06,0,0,0.25-0.25c2.46-2.46,2.13-6.78-0.32-9.24c-2.45-2.46-6.43-2.47-8.9-0.02c0,0-11.54,10.29-5.82,24.24
				c5.2,2.16,9.91,1.9,13.76,0.74C175.38,1428.07,179.44,1423.57,179.44,1423.57z"></path>
		</g>
		<line style="fill:none;stroke:#000000;stroke-miterlimit:10;" x1="179.66" y1="1404.84" x2="155.17" y2="1429.29"></line>
		<g>
			<path style="fill:none;stroke:#000000;stroke-miterlimit:10;" d="M202.46,1422.58C202.46,1422.57,202.46,1422.57,202.46,1422.58
				C202.45,1422.57,202.45,1422.57,202.46,1422.58z"></path>
			<path style="fill:none;stroke:#000000;stroke-miterlimit:10;" d="M201.84,1423.33C201.84,1423.33,201.85,1423.33,201.84,1423.33
				C201.84,1423.33,201.84,1423.33,201.84,1423.33z"></path>
			<path style="fill:none;stroke:#000000;stroke-miterlimit:10;" d="M210.1,1412.58c-2.7-2.18-6.66-1.77-8.85,0.94
				c-2.18,2.7-2.07,7.04,0.63,9.22c0.55,0.45,0.33,0.28,0.27,0.22c0.21,0.17,0.38,0.3,0.38,0.3s-0.17-0.14-0.38-0.3
				c0.07,0.05,0,0-0.27-0.22c-2.71-2.18-6.97-1.39-9.15,1.31c-2.18,2.7-1.77,6.66,0.94,8.85c0,0,11.47,10.36,24.73,3.19
				C222.64,1421.63,210.1,1412.58,210.1,1412.58z"></path>
		</g>
		<line style="fill:none;stroke:#000000;stroke-miterlimit:10;" x1="179.66" y1="1405.12" x2="218.39" y2="1436.09"></line>
	</g>
	<g>
		<g>
			<path style="fill:none;stroke:#000000;stroke-miterlimit:10;" d="M431.22,932.62c0.44,0.79,0.86,1.59,1.26,2.41
				c0.91-0.76,1.72-1.61,2.51-2.51c-0.76-0.49-1.49-1.01-2.22-1.54C432.27,931.54,431.79,932.12,431.22,932.62z"></path>
			<path style="fill:none;stroke:#000000;stroke-miterlimit:10;" d="M437.16,909.75c0.25,0.71,0.39,1.45,0.57,2.18
				c0.89-0.07,1.78-0.12,2.67-0.15c-0.25-1.15-0.52-2.3-0.94-3.4C438.7,908.86,437.93,909.31,437.16,909.75z"></path>
			<path style="fill:none;stroke:#000000;stroke-miterlimit:10;" d="M430.49,900.35c0.5,0.41,0.96,0.85,1.43,1.3
				c0.68-0.55,1.36-1.1,2.07-1.62c-0.74-0.74-1.48-1.48-2.32-2.12C431.3,898.74,430.89,899.55,430.49,900.35z"></path>
			<path style="fill:none;stroke:#000000;stroke-miterlimit:10;" d="M421.63,896.12c0.29-0.83,0.63-1.65,0.96-2.47
				c-3.04-0.71-6.08-0.82-8.99-0.37c0.39,0.84,0.81,1.66,1.15,2.52C416.99,895.53,419.31,895.62,421.63,896.12z"></path>
			<path style="fill:none;stroke:#000000;stroke-miterlimit:10;" d="M405.36,899.31c-0.4-0.79-0.75-1.59-1.11-2.4
				c-1.34,0.87-2.57,1.88-3.72,3c0.76,0.45,1.52,0.9,2.26,1.38C403.59,900.55,404.46,899.91,405.36,899.31z"></path>
			<path style="fill:none;stroke:#000000;stroke-miterlimit:10;" d="M437.79,921.62c-0.02,0.09-0.02,0.17-0.04,0.26
				c-0.06,0.26-0.19,0.48-0.26,0.73c0.8,0.39,1.6,0.8,2.38,1.23c0.13-0.43,0.34-0.82,0.45-1.26c0.07-0.28,0.06-0.55,0.12-0.83
				C439.56,921.73,438.68,921.67,437.79,921.62z"></path>
			<path style="fill:none;stroke:#000000;stroke-miterlimit:10;" d="M396.52,912.53c0.06-0.29,0.05-0.57,0.12-0.86
				c0.18-0.71,0.48-1.34,0.72-2.01c-0.78-0.43-1.53-0.9-2.29-1.36c-0.36,0.92-0.76,1.82-1,2.8c-0.13,0.52-0.13,1.03-0.22,1.55
				C394.74,912.59,395.63,912.53,396.52,912.53z"></path>
			<path style="fill:none;stroke:#000000;stroke-miterlimit:10;" d="M423.61,939.67c-0.37-0.83-0.74-1.66-1.07-2.5
				c-2.17,0.57-4.42,0.85-6.73,0.69c-0.31,0.87-0.68,1.72-1.03,2.57C417.81,940.75,420.78,940.47,423.61,939.67z"></path>
			<path style="fill:none;stroke:#000000;stroke-miterlimit:10;" d="M397.94,925.36c-0.41-0.92-0.75-1.87-1.03-2.85
				c-0.91,0.06-1.81,0.07-2.72,0.09c0.37,1.48,0.88,2.91,1.53,4.29C396.45,926.37,397.18,925.85,397.94,925.36z"></path>
			<path style="fill:none;stroke:#000000;stroke-miterlimit:10;" d="M406.31,934.82c-0.8-0.48-1.58-0.97-2.3-1.55
				c-0.74,0.55-1.49,1.06-2.25,1.57c1.08,0.92,2.24,1.74,3.48,2.47C405.58,936.47,405.92,935.64,406.31,934.82z"></path>
		</g>
		<path style="fill:none;stroke:#000000;stroke-miterlimit:10;" d="M419.07,917.08c5.43,0.64,10.89,2.17,16.06,4.41
			c9.87,1.13,20.15-0.3,28.78-4.68c-9.8-5.11-21.61-6.13-32.67-4.07c-3.92,1.67-7.97,2.92-12.04,3.61
			c-0.34,0.15-0.71,0.25-1.04,0.41c0.31,0.14,0.64,0.24,0.95,0.38C419.1,917.11,419.08,917.1,419.07,917.08z"></path>
		<path style="fill:none;stroke:#000000;stroke-miterlimit:10;" d="M418.67,916.46c8.05-13.16,22.38-23.86,37.87-25.68
			C449.04,904.36,433.79,914.06,418.67,916.46z M419.07,917.08c8.5,12.73,23.69,22.53,39.17,23.65
			C450.1,927.42,434.39,918.89,419.07,917.08z"></path>
		<path style="fill:none;stroke:#000000;stroke-miterlimit:10;" d="M418.65,917.51c0.07-0.11,0.15-0.2,0.21-0.31
			c-0.72,0.11-1.45,0.33-2.17,0.47c-3.58,1.59-7.37,2.82-11.29,3.66c-10.12,4.53-19.17,12.06-24.41,21.55
			c10.74-1.26,20.85-6.84,28.77-14.49C412.3,924.35,415.28,920.65,418.65,917.51z"></path>
		<path style="fill:none;stroke:#000000;stroke-miterlimit:10;" d="M418.09,916.52c0.12,0.02,0.25,0.05,0.37,0.06
			c-8.5-12.73-23.69-22.53-39.17-23.65c5.64,9.22,14.93,16.08,25.2,20.07C409.22,913.61,413.83,914.77,418.09,916.52z"></path>
		<path style="fill:none;stroke:#000000;stroke-miterlimit:10;" d="M418.13,916.15c0.28,0.25,0.53,0.53,0.81,0.78
			c0.13-15.31-6.92-31.95-19.08-41.58c-0.54,11.04,3.47,22.2,9.97,31.38C412.98,909.58,415.81,912.74,418.13,916.15z"></path>
		<g>
			<path style="fill:none;stroke:#000000;stroke-miterlimit:10;" d="M418.55,910.47c0.22,1.89,0.34,3.78,0.35,5.65
				c2.43-3.91,5.46-7.56,8.86-10.85c5.77-9.2,9.09-20.19,8.32-30.77C425.68,883.15,419.69,896.91,418.55,910.47z"></path>
			<path style="fill:none;stroke:#000000;stroke-miterlimit:10;" d="M418.36,916.36c0,0.1-0.01,0.21-0.01,0.31
				c0.06-0.05,0.11-0.11,0.16-0.17C418.47,916.46,418.41,916.42,418.36,916.36z"></path>
		</g>
		<path style="fill:none;stroke:#000000;stroke-miterlimit:10;" d="M401.45,959.16c-1.13-15.48,6.36-31.92,17.72-42.18
			C419.61,932.41,413.44,949.19,401.45,959.16z M419.18,916.98c0.43,15.43-5.74,32.21-17.72,42.18 M418.79,916.77
			c-14.07-6.03-32.14-5.96-45.73,1.54C387.14,925.03,404.96,923.62,418.79,916.77z"></path>
		<g>
			<path style="fill:none;stroke:#000000;stroke-miterlimit:10;" d="M419.02,917.15c-0.11-0.11-0.22-0.22-0.34-0.32
				c-0.03,0.01-0.05,0.02-0.08,0.03c0,0.22,0.03,0.45,0.03,0.68C418.76,917.41,418.88,917.27,419.02,917.15z"></path>
			<path style="fill:none;stroke:#000000;stroke-miterlimit:10;" d="M418.98,923.19c1.58,13.35,8.22,26.84,18.69,35.13
				c0.54-11.04-3.47-22.19-9.97-31.38c-3.16-2.86-5.98-6.02-8.31-9.42c-0.08-0.07-0.15-0.15-0.23-0.22
				C419.21,919.25,419.15,921.22,418.98,923.19z"></path>
		</g>
	</g>
	<g>
		<path style="fill:none;stroke:#000000;stroke-miterlimit:10;" d="M603.96,1247.03c-0.9-0.59-1.79-1.25-2.69-1.99
			c-12.4-10.3-15.84-28.67-7.59-42c0.96-1.54,0.42-3.57-1.17-4.46l0,0c-1.47-0.82-3.33-0.37-4.25,1.04
			c-9.3,14.24-6.53,33.6,6.82,44.62c5.81,4.79,12.73,7.45,19.72,7.81l0,0c10.28,0.52,20.67-3.64,27.76-12.17
			c4.14-4.98,6.61-10.79,7.47-16.76c0.86-5.97,0.32-12.38-1.78-18.27"></path>
		<path style="fill:none;stroke:#000000;stroke-miterlimit:10;" d="M625.94,1199.05l-1.3-3.68c-0.68-1.94,0.46-4.06,2.46-4.55l0,0
			c1.79-0.44,3.62,0.58,4.17,2.34l0.2,0.62"></path>
		<path style="fill:none;stroke:#000000;stroke-miterlimit:10;" d="M628.19,1199.38"></path>
		<path style="fill:none;stroke:#000000;stroke-miterlimit:10;" d="M631.83,1195.61"></path>
		<path style="fill:none;stroke:#000000;stroke-miterlimit:10;" d="M628.45,1222.42c-5.88-3.48-13.98-2.1-18.17,3.04
			c4.5-1.55,9.69-0.75,13.53,2.69c1.15,1.03,2.08,2.22,2.79,3.5"></path>
		<path style="fill:none;stroke:#000000;stroke-miterlimit:10;" d="M642.84,1212.29"></path>
		<path style="fill:none;stroke:#000000;stroke-miterlimit:10;" d="M638.8,1226.2l-9.43-3.39c1.49,0.63-2.75-1.17-5.7-2.43
			c-1.76-0.75-2.54-2.89-2.75-4.79l-2.04-15.6c-0.09-0.8,0.11-1.58,0.51-2.21c0.53-0.83,1.42-1.43,2.48-1.55
			c1.86-0.21,3.55,1.13,3.76,3"></path>
		<path style="fill:none;stroke:#000000;stroke-miterlimit:10;" d="M646.72,1199.51c-1.26-3.14-3.89-5.55-7.12-6.53l-5.01-7.43
			c-0.27-0.4-0.88-0.28-0.99,0.19l-1.69,7.66c-1.62,0.7-3.04,1.76-4.16,3.08c-0.11,0.13-4.28,6.03-4.37,6.18
			c-0.33,0.55-0.55,1.16-0.64,1.83c-0.37,2.68,1.5,5.16,4.18,5.54c0.06,0.01,0.11,0.01,0.17,0.02c2.64,3.82,7.57,5.9,12.71,4.31
			c3.76-1.16,6.69-4.39,7.48-8.25"></path>
		<line style="fill:none;stroke:#000000;stroke-miterlimit:10;" x1="629.81" y1="1206.48" x2="632.78" y2="1208.25"></line>
		<polygon style="fill:none;stroke:#000000;stroke-miterlimit:10;" points="626.86,1206.63 624.17,1205.93 624.87,1203.25 		"></polygon>
		<path style="fill:none;stroke:#000000;stroke-miterlimit:10;" d="M642.39,1209.27c2.88-1.62,6.58-4.68,8.76-7.66
			c0.37-0.5-0.03-1.17-0.63-1.33c-1.21-0.33-5.77-1.13-9.73-0.77c0,0,0.59-0.09,0,0"></path>
		<path style="fill:none;stroke:#000000;stroke-miterlimit:10;" d="M599.3,1220l3.75,11.24c0.35-0.58,0.74-1.13,1.19-1.67
			c0.86-1.03,1.87-1.85,2.93-2.56l-4.53-8.67c-0.83-1.58-2.75-2.24-4.37-1.49v0c-0.49,0.23-0.88,0.58-1.19,0.98
			C598.09,1218.17,598.95,1218.94,599.3,1220z"></path>
		<path style="fill:none;stroke:#000000;stroke-miterlimit:10;" d="M626.61,1231.66c-0.71-1.29-1.64-2.48-2.79-3.51
			c-5.78-5.19-14.66-4.5-19.58,1.42c-0.44,0.53-0.84,1.09-1.19,1.67L599.3,1220c-0.54-1.63-2.21-2.66-3.88-2.31
			c-1.94,0.41-3.09,2.37-2.53,4.24l4.96,16.53c0.14,0.45,0.46,0.83,0.89,1.02l2.57,1.17c0.54,3.06,1.6,7.44,8.22,10.69"></path>
	</g>
	<g>
		<g>
			<g>
				
					<rect x="631.13" y="930.72" transform="matrix(1.985611e-06 -1 1 1.985611e-06 -416.0266 1692.5171)" style="fill:none;stroke:#000000;stroke-miterlimit:10;" width="14.23" height="247.11"></rect>
				<polygon style="fill:none;stroke:#000000;stroke-miterlimit:10;" points="736.1,1032.93 761.8,1047.16 514.69,1047.16 
					540.4,1032.93 				"></polygon>
			</g>
		</g>
	</g>
</g>
<g id="floor">
	<g>
		
			<rect x="130.25" y="1276.85" transform="matrix(6.123234e-17 -1 1 6.123234e-17 -982.3378 1628.5267)" style="fill:none;stroke:#000000;stroke-miterlimit:10;" width="385.68" height="57.17"></rect>
		<line style="fill:none;stroke:#000000;stroke-miterlimit:10;" x1="313.07" y1="1498.27" x2="313.07" y2="1112.59"></line>
		<line style="fill:none;stroke:#000000;stroke-miterlimit:10;" x1="330.7" y1="1498.27" x2="330.7" y2="1112.59"></line>
		
			<rect x="313.1" y="1112.56" transform="matrix(6.123234e-17 -1 1 6.123234e-17 -799.4912 1443.2562)" style="fill:none;stroke:#000000;stroke-miterlimit:10;" width="17.56" height="17.63"></rect>
		
			<rect x="317.16" y="1246.91" transform="matrix(6.123234e-17 -1 1 6.123234e-17 -933.8415 1577.6064)" style="fill:none;stroke:#000000;stroke-miterlimit:10;" width="9.45" height="17.63"></rect>
		
			<rect x="313.1" y="1480.67" transform="matrix(6.123234e-17 -1 1 6.123234e-17 -1167.6083 1811.3733)" style="fill:none;stroke:#000000;stroke-miterlimit:10;" width="17.56" height="17.63"></rect>
	</g>
	<g>
		
			<rect x="128.88" y="702.55" transform="matrix(6.123234e-17 -1 1 6.123234e-17 -409.6649 1053.1084)" style="fill:none;stroke:#000000;stroke-miterlimit:10;" width="385.69" height="57.67"></rect>
		<line style="fill:none;stroke:#000000;stroke-miterlimit:10;" x1="307.54" y1="924.23" x2="307.54" y2="538.54"></line>
		<line style="fill:none;stroke:#000000;stroke-miterlimit:10;" x1="325.18" y1="924.23" x2="325.18" y2="538.54"></line>
		
			<rect x="307.58" y="538.51" transform="matrix(6.123234e-17 -1 1 6.123234e-17 -230.9636 863.6826)" style="fill:none;stroke:#000000;stroke-miterlimit:10;" width="17.56" height="17.63"></rect>
		
			<rect x="312.02" y="652.23" transform="matrix(6.123234e-17 -1 1 6.123234e-17 -344.6856 977.4046)" style="fill:none;stroke:#000000;stroke-miterlimit:10;" width="8.69" height="17.63"></rect>
		
			<rect x="307.58" y="906.63" transform="matrix(6.123234e-17 -1 1 6.123234e-17 -599.0907 1231.8097)" style="fill:none;stroke:#000000;stroke-miterlimit:10;" width="17.56" height="17.63"></rect>
	</g>
	<polygon style="fill:none;stroke:#000000;stroke-miterlimit:10;" points="232.97,1523.43 105.34,1420.72 105.34,1186.42 
		233.75,1083.41 297.68,1083.41 297.68,1077.45 232.25,1077.45 100,1184.04 100.77,1184.39 100,1184.39 100,1422.31 231.17,1529.04 
		296.88,1529.04 296.88,1523.43 	"></polygon>
	<g>
		<path style="fill:none;stroke:#000000;stroke-miterlimit:10;" d="M1696.51,1132.66c111.89,0,203.49-91,203.49-203.5h-201.82"></path>
		
			<rect x="1683.22" y="914.22" transform="matrix(-1.337412e-10 1 -1 -1.337412e-10 2612.3738 -764.6038)" style="fill:none;stroke:#000000;stroke-miterlimit:10;" width="10.54" height="19.33"></rect>
		
			<rect x="1683.14" y="1128.35" transform="matrix(-1.330191e-10 1 -1 -1.330191e-10 2826.501 -550.4767)" style="fill:none;stroke:#000000;stroke-miterlimit:10;" width="10.71" height="19.33"></rect>
	</g>
	<g>
		<path style="fill:none;stroke:#000000;stroke-miterlimit:10;" d="M1301.99,1159.22c0-86.32,70.21-156.99,157-156.99v155.7"></path>
		
			<rect x="1458.99" y="1157.95" transform="matrix(-1 1.335397e-10 -1.335397e-10 -1 2926.1125 2330.8145)" style="fill:none;stroke:#000000;stroke-miterlimit:10;" width="8.13" height="14.91"></rect>
		
			<rect x="1293.73" y="1157.95" transform="matrix(-1 1.332226e-10 -1.332226e-10 -1 2595.7214 2330.8145)" style="fill:none;stroke:#000000;stroke-miterlimit:10;" width="8.26" height="14.91"></rect>
	</g>
	<g>
		<path style="fill:none;stroke:#000000;stroke-miterlimit:10;" d="M921.63,1001.81c0,97.15,79.01,176.67,176.69,176.67v-175.22"></path>
		
			<rect x="1098.31" y="986.45" transform="matrix(-1 -1.331705e-10 1.331705e-10 -1 2205.7781 1989.6857)" style="fill:none;stroke:#000000;stroke-miterlimit:10;" width="9.15" height="16.78"></rect>
		
			<rect x="912.33" y="986.45" transform="matrix(-1 -1.326629e-10 1.326629e-10 -1 1833.9585 1989.6857)" style="fill:none;stroke:#000000;stroke-miterlimit:10;" width="9.3" height="16.78"></rect>
	</g>
	<g>
		<g>
			<path style="fill:none;stroke:#000000;stroke-miterlimit:10;" d="M417.65,1213.9c-21.67,22.85-53.31,37.1-86.95,37.1"></path>
			<line style="fill:none;stroke:#000000;stroke-miterlimit:10;" x1="330.7" y1="1130.35" x2="417.65" y2="1213.9"></line>
		</g>
	</g>
	
		<line style="fill:none;stroke:#000000;stroke-miterlimit:10;stroke-dasharray:10,10;" x1="1446.83" y1="906.16" x2="1446.83" y2="987.3"></line>
	
		<line style="fill:none;stroke:#000000;stroke-miterlimit:10;stroke-dasharray:10,10;" x1="1446.83" y1="987.2" x2="1131.53" y2="987.2"></line>
	<g>
		<g id="LWPOLYLINE_288_">
			<rect x="1353.94" y="431.2" style="fill:none;stroke:#000000;stroke-miterlimit:10;" width="127.46" height="127.95"></rect>
		</g>
		<g id="LWPOLYLINE_287_">
			<line style="fill:none;stroke:#000000;stroke-miterlimit:10;" x1="1385.63" y1="506.48" x2="1385.63" y2="548.61"></line>
		</g>
		<g id="LWPOLYLINE_286_">
			<line style="fill:none;stroke:#000000;stroke-miterlimit:10;" x1="1406.76" y1="527.55" x2="1364.5" y2="527.55"></line>
		</g>
		<g id="LWPOLYLINE_285_">
			<line style="fill:none;stroke:#000000;stroke-miterlimit:10;" x1="1385.63" y1="443.29" x2="1385.63" y2="485.42"></line>
		</g>
		<g id="LWPOLYLINE_284_">
			<line style="fill:none;stroke:#000000;stroke-miterlimit:10;" x1="1406.76" y1="464.36" x2="1364.5" y2="464.36"></line>
		</g>
		<g id="LWPOLYLINE_283_">
			<line style="fill:none;stroke:#000000;stroke-miterlimit:10;" x1="1449.01" y1="443.29" x2="1449.01" y2="485.42"></line>
		</g>
		<g id="LWPOLYLINE_282_">
			<line style="fill:none;stroke:#000000;stroke-miterlimit:10;" x1="1470.13" y1="464.36" x2="1427.88" y2="464.36"></line>
		</g>
		<g id="LWPOLYLINE_281_">
			<line style="fill:none;stroke:#000000;stroke-miterlimit:10;" x1="1449.01" y1="506.48" x2="1449.01" y2="548.61"></line>
		</g>
		<g id="LWPOLYLINE_280_">
			<line style="fill:none;stroke:#000000;stroke-miterlimit:10;" x1="1470.13" y1="527.55" x2="1427.88" y2="527.55"></line>
		</g>
		<ellipse style="fill:none;stroke:#000000;stroke-miterlimit:10;" cx="1449.01" cy="527.55" rx="16.9" ry="16.96"></ellipse>
		<ellipse style="fill:none;stroke:#000000;stroke-miterlimit:10;" cx="1385.63" cy="527.55" rx="16.9" ry="16.96"></ellipse>
		<ellipse style="fill:none;stroke:#000000;stroke-miterlimit:10;" cx="1449.01" cy="464.36" rx="16.9" ry="16.96"></ellipse>
		<ellipse style="fill:none;stroke:#000000;stroke-miterlimit:10;" cx="1385.63" cy="464.36" rx="16.9" ry="16.96"></ellipse>
	</g>
	<g>
		<g id="LWPOLYLINE_279_">
			<rect x="1546.28" y="664.95" style="fill:none;stroke:#000000;stroke-miterlimit:10;" width="127.46" height="126.73"></rect>
		</g>
		<g id="LWPOLYLINE_278_">
			<path style="fill:none;stroke:#000000;stroke-miterlimit:10;" d="M1564.33,675.51l80.67,0c4.11,0,7.44,3.31,7.44,7.39
				c0,0,0,90.83,0,90.83c0,4.08-3.33,7.39-7.44,7.4c0,0-80.68,0-80.68,0c-4.11,0-7.43-3.31-7.43-7.39c0,0,0-90.83,0-90.83
				C1556.9,678.82,1560.23,675.51,1564.33,675.51z"></path>
		</g>
		<g id="LWPOLYLINE_277_">
			<path style="fill:none;stroke:#000000;stroke-miterlimit:10;" d="M1624.33,707.19c0-4.09,3.34-7.41,7.45-7.41
				c4.12,0,7.45,3.32,7.45,7.41c0,4.09-3.34,7.41-7.45,7.41C1627.67,714.6,1624.33,711.29,1624.33,707.19z"></path>
		</g>
	</g>
	<g>
		<g>
			<g id="LWPOLYLINE_541_">
				<rect x="1135.21" y="1176.22" style="fill:none;stroke:#000000;stroke-miterlimit:10;" width="146.82" height="363.44"></rect>
			</g>
			<g id="LWPOLYLINE_540_">
				<path style="fill:none;stroke:#000000;stroke-miterlimit:10;" d="M1146.96,1225.23l0,238.59c0,34.77,27.61,62.96,61.66,62.95
					c34.06,0,61.66-28.19,61.67-62.97l0-238.59c0.01-16.62-13.09-30.15-29.36-30.34l-64.6,0.01c-16.22,0-29.37,13.43-29.37,29.99"></path>
			</g>
			<g id="LWPOLYLINE_539_">
				<path style="fill:none;stroke:#000000;stroke-miterlimit:10;" d="M1163.74,1300.09l0,163.73c0,25.32,20.1,45.83,44.89,45.83
					s44.88-20.53,44.88-45.84l0-161.36c-0.02-24.39-18.72-44.49-42.57-45.76C1186.16,1255.36,1165.03,1274.79,1163.74,1300.09z"></path>
			</g>
			<g id="LWPOLYLINE_538_">
				<path style="fill:none;stroke:#000000;stroke-miterlimit:10;" d="M1208.62,1472.2c4.54,0,8.22-3.76,8.22-8.39
					c0-4.64-3.68-8.39-8.22-8.39c-4.54,0-8.22,3.76-8.22,8.39C1200.41,1468.45,1204.08,1472.2,1208.62,1472.2z"></path>
			</g>
		</g>
		<g>
			<g id="LWPOLYLINE_537_">
				<path style="fill:none;stroke:#000000;stroke-miterlimit:10;" d="M1572.43,1332.6l-59.32-0.01c-20.64,0-37.37-17.08-37.37-38.16
					c0-21.08,16.73-38.16,37.37-38.16l59.32,0.01c5.16,0,9.34,4.27,9.34,9.54l0,57.24
					C1581.77,1328.34,1577.59,1332.6,1572.43,1332.6z"></path>
			</g>
			<g id="LWPOLYLINE_536_">
				<path style="fill:none;stroke:#000000;stroke-miterlimit:10;" d="M1513.12,1263.91l33.18,0.01c16.51,0,29.89,13.67,29.89,30.52
					c0,16.86-13.38,30.53-29.9,30.54l-33.18-0.01c-16.51,0-29.89-13.67-29.89-30.52
					C1483.22,1277.58,1496.61,1263.91,1513.12,1263.91z"></path>
			</g>
			<g id="LWPOLYLINE_535_">
				<path style="fill:none;stroke:#000000;stroke-miterlimit:10;" d="M1525.15,1282.99l24.25,0.01c6.19,0,11.21,5.12,11.21,11.45
					s-5.02,11.45-11.21,11.45l-24.25-0.01c-6.19,0-11.21-5.12-11.21-11.45C1513.94,1288.11,1518.96,1282.99,1525.15,1282.99z"></path>
			</g>
		</g>
		<g>
			<g id="LWPOLYLINE_534_">
				<rect x="1452.51" y="1443.17" style="fill:none;stroke:#000000;stroke-miterlimit:10;" width="129.27" height="96.95"></rect>
			</g>
			<g>
				<g id="LWPOLYLINE_533_">
					<polyline style="fill:none;stroke:#000000;stroke-miterlimit:10;" points="1479.92,1520.94 1517.1,1476.64 1517.18,1506.65 
						1554.36,1462.35 					"></polyline>
				</g>
				<g id="LWPOLYLINE_532_">
					<path style="fill:none;stroke:#000000;stroke-miterlimit:10;" d="M1517.23,1524.98c18.03-0.05,32.61-15.01,32.56-33.42
						c-0.05-18.41-14.7-33.3-32.73-33.25c-18.03,0.05-32.61,15.02-32.57,33.43C1484.54,1510.15,1499.2,1525.03,1517.23,1524.98z"></path>
				</g>
			</g>
		</g>
		<g>
			<g id="LWPOLYLINE_531_">
				<path style="fill:none;stroke:#000000;stroke-miterlimit:10;" d="M1318.85,1538.81l0.14-53.34c0.02-7.51,4.79-14.16,11.79-16.44
					c25.44-8.29,52.79-8.22,78.19,0.21c7,2.32,11.73,8.99,11.71,16.5l-0.14,53.34"></path>
			</g>
			<g id="LWPOLYLINE_530_">
				<path style="fill:none;stroke:#000000;stroke-miterlimit:10;" d="M1396.86,1524.09c5.62,0.01,10.18-4.62,10.2-10.36l0.04-16.62
					c0.01-3.8-2.41-7.17-5.97-8.29c-20.38-6.43-42.18-6.49-62.59-0.17c-3.56,1.11-6,4.45-6.01,8.26l-0.04,16.62
					c-0.02,5.74,4.53,10.4,10.14,10.42"></path>
			</g>
			<g id="LWPOLYLINE_529_">
				<path style="fill:none;stroke:#000000;stroke-miterlimit:10;" d="M1325.69,1513.51l0.07-28.03c0.01-4.51,2.87-8.5,7.07-9.87
					c24.09-7.85,49.99-7.79,74.04,0.2c4.2,1.4,7.03,5.4,7.03,9.9l-0.07,28.03c-0.01,5.74-4.58,10.37-10.2,10.36l-67.8-0.18
					C1330.22,1523.91,1325.68,1519.25,1325.69,1513.51z"></path>
			</g>
			<g id="LWPOLYLINE_528_">
				<path style="fill:none;stroke:#000000;stroke-miterlimit:10;" d="M1369.74,1520.93c-2.52-0.01-4.56-2.1-4.55-4.67
					c0.01-2.57,2.06-4.65,4.58-4.64c2.52,0.01,4.55,2.1,4.55,4.67C1374.31,1518.85,1372.26,1520.93,1369.74,1520.93z"></path>
			</g>
		</g>
	</g>
	<g>
		
			<rect x="956.68" y="875.72" transform="matrix(-1.836970e-16 1 -1 -1.836970e-16 2571.686 611.5861)" style="fill-rule:evenodd;clip-rule:evenodd;" width="46.74" height="1431.82"></rect>
		
			<rect x="276.79" y="1513.24" transform="matrix(-1.836970e-16 1 -1 -1.836970e-16 1864.4777 1219.3606)" style="fill-rule:evenodd;clip-rule:evenodd;" width="91.55" height="57.36"></rect>
		
			<rect x="275.78" y="1543.65" transform="matrix(-1.836970e-16 1 -1 -1.836970e-16 1851.929 1254.0199)" style="fill-rule:evenodd;clip-rule:evenodd;" width="46.35" height="18.65"></rect>
		
			<rect x="273.3" y="1550.61" transform="matrix(-1.836970e-16 1 -1 -1.836970e-16 1846.2098 1286.4675)" style="fill-rule:evenodd;clip-rule:evenodd;" width="13.14" height="31.47"></rect>
		
			<rect x="956.68" y="-307.55" transform="matrix(-1.836970e-16 1 -1 -1.836970e-16 1388.4139 -571.686)" style="fill-rule:evenodd;clip-rule:evenodd;" width="46.74" height="1431.82"></rect>
		
			<rect x="1426.98" y="630.61" transform="matrix(-1.836970e-16 1 -1 -1.836970e-16 2347.8108 -1041.9877)" style="fill-rule:evenodd;clip-rule:evenodd;" width="535.83" height="44.61"></rect>
		
			<rect x="1457.22" y="1355.01" transform="matrix(-1.836970e-16 1 -1 -1.836970e-16 3072.2197 -317.5787)" style="fill-rule:evenodd;clip-rule:evenodd;" width="475.37" height="44.61"></rect>
		
			<rect x="268.23" y="416.96" transform="matrix(-1.836970e-16 1 -1 -1.836970e-16 712.7089 152.8169)" style="fill-rule:evenodd;clip-rule:evenodd;" width="23.43" height="31.62"></rect>
		
			<rect x="261.48" y="450.32" transform="matrix(-1.836970e-16 1 -1 -1.836970e-16 801.5562 156.4391)" style="fill-rule:evenodd;clip-rule:evenodd;" width="122.15" height="57.36"></rect>
		
			<rect x="278.53" y="448.35" transform="matrix(-1.836970e-16 1 -1 -1.836970e-16 754.8773 158.7147)" style="fill-rule:evenodd;clip-rule:evenodd;" width="39.1" height="16.9"></rect>
		
			<rect x="227.02" y="989.44" transform="matrix(-1.836970e-16 1 -1 -1.836970e-16 1340.6764 695.5593)" style="fill-rule:evenodd;clip-rule:evenodd;" width="191.07" height="57.36"></rect>
		
			<rect x="254.27" y="996.06" transform="matrix(-1.836970e-16 1 -1 -1.836970e-16 1304.1907 731.9236)" style="fill-rule:evenodd;clip-rule:evenodd;" width="63.73" height="43.99"></rect>
		
			<rect x="238.44" y="1005.52" transform="matrix(-1.836970e-16 1 -1 -1.836970e-16 1318.3348 715.8849)" style="fill-rule:evenodd;clip-rule:evenodd;" width="125.57" height="23.19"></rect>
		
			<rect x="499.94" y="795" transform="matrix(-1.836970e-16 1 -1 -1.836970e-16 1532.8708 486.2485)" style="fill-rule:evenodd;clip-rule:evenodd;" width="46.74" height="429.12"></rect>
		
			<rect x="814.48" y="903.26" transform="matrix(-1.836970e-16 1 -1 -1.836970e-16 1817.6628 171.7153)" style="fill-rule:evenodd;clip-rule:evenodd;" width="16.99" height="182.87"></rect>
		
			<rect x="1559.59" y="682.58" transform="matrix(-1.836970e-16 1 -1 -1.836970e-16 2367.3323 -768.8376)" style="fill-rule:evenodd;clip-rule:evenodd;" width="16.99" height="233.33"></rect>
		
			<rect x="1391.17" y="844.87" transform="matrix(-1.836970e-16 1 -1 -1.836970e-16 2307.1492 -600.418)" style="fill-rule:evenodd;clip-rule:evenodd;" width="125.23" height="16.99"></rect>
		
			<rect x="1109.2" y="982.59" transform="matrix(-1.836970e-16 1 -1 -1.836970e-16 2112.3906 -123.0125)" style="fill-rule:evenodd;clip-rule:evenodd;" width="16.99" height="24.2"></rect>
		
			<rect x="1014.32" y="1088.1" transform="matrix(-1.836970e-16 1 -1 -1.836970e-16 2221.3123 -28.1263)" style="fill-rule:evenodd;clip-rule:evenodd;" width="220.8" height="16.99"></rect>
		
			<rect x="920.2" y="1370.35" transform="matrix(-1.836970e-16 1 -1 -1.836970e-16 2506.4312 254.1247)" style="fill-rule:evenodd;clip-rule:evenodd;" width="411.9" height="19.86"></rect>
		
			<rect x="1195.92" y="1077.68" transform="matrix(-1.836970e-16 1 -1 -1.836970e-16 2373.4128 -43.6049)" style="fill-rule:evenodd;clip-rule:evenodd;" width="25.17" height="174.44"></rect>
		
			<rect x="1383.56" y="1284.44" transform="matrix(-1.836970e-16 1 -1 -1.836970e-16 2977.7703 155.1672)" style="fill-rule:evenodd;clip-rule:evenodd;" width="55.49" height="564.06"></rect>
		
			<rect x="1466.29" y="1334.51" transform="matrix(-1.836970e-16 1 -1 -1.836970e-16 3023.1809 -313.9758)" style="fill-rule:evenodd;clip-rule:evenodd;" width="404.57" height="40.19"></rect>
		
			<rect x="1548.62" y="1069.37" transform="matrix(-1.836970e-16 1 -1 -1.836970e-16 2726.1138 -396.3058)" style="fill-rule:evenodd;clip-rule:evenodd;" width="25.17" height="191.06"></rect>
		
			<rect x="1439.31" y="1313.92" transform="matrix(-1.836970e-16 1 -1 -1.836970e-16 2898.9932 -266.5785)" style="fill-rule:evenodd;clip-rule:evenodd;" width="286.95" height="4.57"></rect>
		
			<rect x="1517.66" y="1474.23" transform="matrix(-1.836970e-16 1 -1 -1.836970e-16 3070.5552 -106.2755)" style="fill-rule:evenodd;clip-rule:evenodd;" width="141.51" height="15.83"></rect>
		
			<rect x="1623.05" y="1379.82" transform="matrix(-1.836970e-16 1 -1 -1.836970e-16 3050.2632 -211.6696)" style="fill-rule:evenodd;clip-rule:evenodd;" width="15.83" height="78.96"></rect>
	</g>
</g>
</svg>
