<?xml version="1.0" encoding="utf-8"?>
<!-- Generator: Adobe Illustrator 24.1.2, SVG Export Plug-In . SVG Version: 6.00 Build 0)  -->
<svg version="1.0" id="Layer_1" xmlns="http://www.w3.org/2000/svg" xmlns:xlink="http://www.w3.org/1999/xlink" x="0px" y="0px" width="2000px" height="2000px" viewBox="0 0 2000 2000" style="enable-background:new 0 0 2000 2000;" xml:space="preserve">
<path id="background" style="fill:#FFFFFF;" d="M1900,935.46v158.24h0c0.28,0,0.5,0.22,0.5,0.5v386.61c0,0.28-0.22,0.5-0.5,0.5h0
	v101.78v51.2h-70.58H317.77h-49.19v-51.2v-481.14h27.1c0-0.02-0.01-0.03-0.01-0.05v-11.25C187.31,1089.53,99.5,1001.5,99.5,893.45
	c0-0.28,0.22-0.5,0.5-0.5h195.67v-11.22c0-0.02,0.01-0.05,0.01-0.07h-27.1V731.89h49.19v0.58h189.88v-127.3h42.77v0.58h592.43
	V416.91v-50.26v-0.94H1900v0.53v50.68v68.04h0c0.28,0,0.5,0.22,0.5,0.5v449.51C1900.5,935.24,1900.28,935.46,1900,935.46
	L1900,935.46z"></path>
<g id="h1">
	<path id="h1_path" style="fill:none;" d="M540.48,626.75h268.74v558.16l-525.1,0.04v-168.07l-0.01-0.03l0-267.16h256.36V626.75z
		"></path>
	<text id="h1_text" transform="matrix(1 0 0 1 569.7133 932.5562)" style="font-family: GraphikLCG-Regular; font-size: 40px; text-anchor: middle; text-align: center;"></text>
</g>
<g id="s1">
	<path id="s1_path" style="fill:none;" d="M317.64,1609.02v-429.07h489.97v429.07H317.64z"></path>
	
		<text id="s1_text" transform="matrix(1 0 0 1 600.3723 1330.3823)" style="font-family: GraphikLCG-Regular; font-size: 40px; text-anchor: middle; text-align: center;"></text>
</g>
<g id="r1">
	<path id="r1_path" style="fill:none;" d="M1857.76,389.16v631.08h-700.68l-0.11-236.9h0.08V389.16H1857.76z"></path>
	
		<text id="r1_text" transform="matrix(1 0 0 1 1352.9601 711.5327)" style="font-family: GraphikLCG-Regular; font-size: 40px; text-anchor: middle; text-align: center;"></text>
</g>
<g id="c1">
	<path id="c1_path" style="fill:none;" d="M812.97,1600.57l-3.75-969.78l350.53-2.12l0.85,392.04l691.06-4.07l2.9,577.75
		L812.97,1600.57z"></path>
	
		<text id="c1_text" transform="matrix(1 0 0 1 1032.4393 1060.4976)" style="font-family: GraphikLCG-Regular; font-size: 40px; text-anchor: middle; text-align: center;"></text>
</g>
<path id="u7" style="fill:#FFFFFF;stroke:#FFFFFF;stroke-linecap:round;stroke-linejoin:round;stroke-miterlimit:10;" d="
	M1241.18,1111.35c-8.15,0-14.75-6.61-14.75-14.75s6.61-14.75,14.75-14.75c8.15,0,14.75,6.61,14.75,14.75
	S1249.33,1111.35,1241.18,1111.35z"></path>
<path id="u1" style="fill:#FFFFFF;stroke:#FFFFFF;stroke-linecap:round;stroke-linejoin:round;stroke-miterlimit:10;" d="
	M1265.4,1424c-8.15,0-14.75-6.61-14.75-14.75s6.61-14.75,14.75-14.75c8.15,0,14.75,6.61,14.75,14.75S1273.54,1424,1265.4,1424z"></path>
<g id="mebel">
	<g>
		<g>
			<g>
				
					<rect x="1518.03" y="927.48" transform="matrix(5.131763e-05 -1 1 5.131763e-05 474.2055 2575.9338)" style="fill:none;stroke:#000000;stroke-linecap:round;stroke-linejoin:round;stroke-miterlimit:10;" width="14.21" height="246.75"></rect>
				<polygon style="fill:none;stroke:#000000;stroke-linecap:round;stroke-linejoin:round;stroke-miterlimit:10;" points="
					1427.43,1029.53 1401.76,1043.74 1648.51,1043.75 1622.84,1029.54 				"></polygon>
			</g>
		</g>
		<g>
			
				<rect x="1494.18" y="918.68" transform="matrix(-3.961622e-05 1 -1 -3.961622e-05 2587.9355 -464.5974)" style="fill:none;stroke:#000000;stroke-linecap:round;stroke-linejoin:round;stroke-miterlimit:10;" width="64.15" height="285.88"></rect>
		</g>
	</g>
	<g>
		<g>
			<g>
				<g>
					
						<rect x="1422.16" y="416.93" style="fill:none;stroke:#000000;stroke-linecap:round;stroke-linejoin:round;stroke-miterlimit:10;" width="336.6" height="14.93"></rect>
					
						<rect x="1422.16" y="431.86" style="fill:none;stroke:#000000;stroke-linecap:round;stroke-linejoin:round;stroke-miterlimit:10;" width="336.6" height="426.93"></rect>
					<path style="fill:none;stroke:#000000;stroke-linecap:round;stroke-linejoin:round;stroke-miterlimit:10;" d="M1584.13,508.66
						l12.67,0l0-36.76c0-10.99,8.91-19.91,19.91-19.91l94.56,0c10.99,0,19.91,8.91,19.91,19.91l0,36.76l12.67,0l0-64.36
						c0-2.75-2.23-4.98-4.98-4.98l-296.78,0c-2.75,0-4.98,2.23-4.98,4.98l0,64.36l12.67,0l0-36.76c0-10.99,8.91-19.91,19.91-19.91
						l94.56,0c10.99,0,19.91,8.91,19.91,19.91L1584.13,508.66z"></path>
					<path style="fill:none;stroke:#000000;stroke-linecap:round;stroke-linejoin:round;stroke-miterlimit:10;" d="M1438.55,846.35
						l303.83,0c0.8,0,1.45-0.65,1.45-1.45l0-336.24l-306.74,0l0,336.24C1437.1,845.7,1437.75,846.35,1438.55,846.35z"></path>
				</g>
			</g>
		</g>
	</g>
	<g>
		<polygon style="fill:none;stroke:#000000;stroke-linecap:round;stroke-linejoin:round;stroke-miterlimit:10;" points="
			946.44,1328.47 946.44,1231.74 818.8,1231.74 818.78,1328.47 		"></polygon>
		<path style="fill:none;stroke:#000000;stroke-linecap:round;stroke-linejoin:round;stroke-miterlimit:10;" d="M855.41,1280.11
			l30.98-12.12c1.9-0.66,3.98-1.02,6.17-1.02c8.79,0,15.92,5.88,15.92,13.14c0,7.26-7.13,13.14-15.92,13.14
			c-2.19,0-4.27-0.37-6.17-1.02L855.41,1280.11z"></path>
	</g>
	<g>
		<polygon style="fill:none;stroke:#000000;stroke-linecap:round;stroke-linejoin:round;stroke-miterlimit:10;" points="
			1150.97,775.56 1150.97,647.9 1023.32,647.9 1023.3,775.56 		"></polygon>
		<g>
			
				<line style="fill:none;stroke:#000000;stroke-linecap:round;stroke-linejoin:round;stroke-miterlimit:10;" x1="1056.41" y1="711.73" x2="1117.87" y2="711.73"></line>
			
				<line style="fill:none;stroke:#000000;stroke-linecap:round;stroke-linejoin:round;stroke-miterlimit:10;" x1="1087.14" y1="742.46" x2="1087.14" y2="681"></line>
			<polyline style="fill:none;stroke:#000000;stroke-linecap:round;stroke-linejoin:round;stroke-miterlimit:10;" points="
				1063.23,727.09 1071.77,711.73 1063.23,696.36 			"></polyline>
			<polyline style="fill:none;stroke:#000000;stroke-linecap:round;stroke-linejoin:round;stroke-miterlimit:10;" points="
				1071.77,687.83 1087.14,696.36 1102.5,687.83 			"></polyline>
			<polyline style="fill:none;stroke:#000000;stroke-linecap:round;stroke-linejoin:round;stroke-miterlimit:10;" points="
				1111.04,696.36 1102.5,711.73 1111.04,727.09 			"></polyline>
			<polyline style="fill:none;stroke:#000000;stroke-linecap:round;stroke-linejoin:round;stroke-miterlimit:10;" points="
				1102.5,735.63 1087.14,727.09 1071.77,735.63 			"></polyline>
		</g>
	</g>
	<g>
		<g>
			<g>
				<path style="fill:none;stroke:#000000;stroke-linecap:round;stroke-linejoin:round;stroke-miterlimit:10;" d="M1270.79,1401.27
					l20.96-20.13c13.11-12.6,14.66-33.03,3.59-47.46l-1.26-1.64c-11.06-14.41-31.18-18.22-46.74-8.84l-24.92,15.02L1270.79,1401.27z
					"></path>
				<path style="fill:none;stroke:#000000;stroke-linecap:round;stroke-linejoin:round;stroke-miterlimit:10;" d="M1236.64,1317.6
					l5.5-3.31c19.93-12.01,45.69-7.14,59.86,11.32l1.61,2.1c14.17,18.47,12.19,44.65-4.6,60.78l-4.59,4.41
					c-2.22,2.13-5.8,1.86-7.68-0.58l0,0c-1.6-2.09-1.38-5.04,0.52-6.87l4.49-4.31c13.11-12.6,14.66-33.03,3.59-47.46l-1.26-1.64
					c-11.06-14.41-31.18-18.22-46.74-8.84l-5.37,3.24c-2.25,1.36-5.16,0.81-6.76-1.28l0,0
					C1233.34,1322.71,1234.01,1319.19,1236.64,1317.6z"></path>
			</g>
			<g>
				<path style="fill:none;stroke:#000000;stroke-linecap:round;stroke-linejoin:round;stroke-miterlimit:10;" d="M1082.54,1445.58
					l-20.95,20.13c-13.11,12.6-14.66,33.03-3.59,47.46l1.26,1.64c11.06,14.41,31.18,18.22,46.74,8.84l24.92-15.02L1082.54,1445.58z"></path>
				<path style="fill:none;stroke:#000000;stroke-linecap:round;stroke-linejoin:round;stroke-miterlimit:10;" d="M1116.69,1529.25
					l-5.5,3.31c-19.92,12.01-45.69,7.14-59.86-11.32l-1.61-2.1c-14.17-18.47-12.19-44.64,4.6-60.78l4.59-4.41
					c2.22-2.13,5.8-1.86,7.68,0.58l0,0c1.6,2.09,1.38,5.04-0.52,6.87l-4.49,4.31c-13.11,12.6-14.66,33.03-3.59,47.46l1.26,1.64
					c11.06,14.41,31.18,18.22,46.74,8.84l5.37-3.24c2.25-1.36,5.16-0.81,6.76,1.28l0,0
					C1119.99,1524.13,1119.33,1527.66,1116.69,1529.25z"></path>
			</g>
			<g>
				<path style="fill:none;stroke:#000000;stroke-linecap:round;stroke-linejoin:round;stroke-miterlimit:10;" d="M1198.82,1517.54
					l20.13,20.96c12.6,13.11,33.03,14.66,47.46,3.59l1.64-1.26c14.41-11.06,18.22-31.18,8.84-46.74l-15.02-24.92L1198.82,1517.54z"></path>
				<path style="fill:none;stroke:#000000;stroke-linecap:round;stroke-linejoin:round;stroke-miterlimit:10;" d="M1282.49,1483.4
					l3.31,5.5c12.01,19.93,7.14,45.69-11.32,59.86l-2.1,1.61c-18.47,14.17-44.65,12.19-60.78-4.6l-4.41-4.59
					c-2.13-2.22-1.86-5.8,0.58-7.68l0,0c2.09-1.6,5.04-1.38,6.87,0.52l4.31,4.49c12.6,13.11,33.03,14.66,47.46,3.59l1.64-1.26
					c14.41-11.06,18.22-31.18,8.84-46.74l-3.24-5.37c-1.36-2.25-0.81-5.16,1.28-6.76h0
					C1277.38,1480.1,1280.9,1480.76,1282.49,1483.4z"></path>
			</g>
			<g>
				<path style="fill:none;stroke:#000000;stroke-linecap:round;stroke-linejoin:round;stroke-miterlimit:10;" d="M1154.51,1329.3
					l-20.13-20.95c-12.6-13.11-33.03-14.66-47.46-3.59l-1.64,1.26c-14.41,11.06-18.22,31.18-8.84,46.74l15.02,24.92L1154.51,1329.3z
					"></path>
				<path style="fill:none;stroke:#000000;stroke-linecap:round;stroke-linejoin:round;stroke-miterlimit:10;" d="M1070.84,1363.45
					l-3.31-5.5c-12.01-19.92-7.14-45.69,11.32-59.86l2.1-1.61c18.47-14.17,44.65-12.19,60.78,4.6l4.41,4.59
					c2.13,2.22,1.86,5.8-0.58,7.68l0,0c-2.09,1.6-5.04,1.38-6.87-0.52l-4.31-4.49c-12.6-13.11-33.03-14.66-47.46-3.59l-1.64,1.26
					c-14.41,11.06-18.22,31.18-8.84,46.74l3.24,5.37c1.36,2.25,0.81,5.16-1.28,6.76l0,0
					C1075.96,1366.75,1072.43,1366.08,1070.84,1363.45z"></path>
			</g>
			
				<circle style="fill:#FFFFFF;stroke:#000000;stroke-linecap:round;stroke-linejoin:round;stroke-miterlimit:10;" cx="1176.27" cy="1423.73" r="97.29"></circle>
		</g>
		<g>
			<g>
				
					<circle style="fill:none;stroke:#000000;stroke-linecap:round;stroke-linejoin:round;stroke-miterlimit:10;" cx="1129.03" cy="1466.55" r="17.72"></circle>
			</g>
			<g>
				
					<circle style="fill:none;stroke:#000000;stroke-linecap:round;stroke-linejoin:round;stroke-miterlimit:10;" cx="1129.03" cy="1466.55" r="10.09"></circle>
			</g>
			<g>
				
					<ellipse transform="matrix(0.7918 -0.6108 0.6108 0.7918 -642.7201 980.2567)" style="fill:none;stroke:#000000;stroke-linecap:round;stroke-linejoin:round;stroke-miterlimit:10;" cx="1116.44" cy="1432.84" rx="4.46" ry="2.75"></ellipse>
				
					<line style="fill:none;stroke:#000000;stroke-linecap:round;stroke-linejoin:round;stroke-miterlimit:10;" x1="1112.91" y1="1435.57" x2="1097.45" y2="1447.49"></line>
			</g>
			<g>
				<path style="fill:none;stroke:#000000;stroke-linecap:round;stroke-linejoin:round;stroke-miterlimit:10;" d="M1158.64,1480.24
					l-3.53,2.73c-1.95,1.51-4.28,1.75-5.21,0.55c-0.93-1.2-0.1-3.39,1.86-4.9l3.53-2.73"></path>
				
					<line style="fill:none;stroke:#000000;stroke-linecap:round;stroke-linejoin:round;stroke-miterlimit:10;" x1="1149.9" y1="1483.52" x2="1134.44" y2="1495.44"></line>
			</g>
			
				<line style="fill:none;stroke:#000000;stroke-linecap:round;stroke-linejoin:round;stroke-miterlimit:10;" x1="1156.96" y1="1478.07" x2="1149.9" y2="1483.52"></line>
			<g>
				<path style="fill:none;stroke:#000000;stroke-linecap:round;stroke-linejoin:round;stroke-miterlimit:10;" d="M1111.03,1445.56
					l2.6,3.38l13.07-10.09l-1.84-2.39c-0.42-0.54-1.2-0.65-1.75-0.23L1111.03,1445.56z"></path>
				<path style="fill:none;stroke:#000000;stroke-linecap:round;stroke-linejoin:round;stroke-miterlimit:10;" d="M1101.96,1453.34
					l1.84,2.39c0.21,0.27,0.6,0.32,0.87,0.11l8.96-6.91l-2.6-3.38l-8.96,6.91C1101.8,1452.68,1101.75,1453.07,1101.96,1453.34z"></path>
			</g>
		</g>
		<g>
			<g>
				
					<circle style="fill:none;stroke:#000000;stroke-linecap:round;stroke-linejoin:round;stroke-miterlimit:10;" cx="1227.19" cy="1380.65" r="17.72"></circle>
			</g>
			<g>
				
					<circle style="fill:none;stroke:#000000;stroke-linecap:round;stroke-linejoin:round;stroke-miterlimit:10;" cx="1227.19" cy="1380.65" r="10.09"></circle>
			</g>
			<g>
				
					<ellipse transform="matrix(0.7918 -0.6108 0.6108 0.7918 -605.7579 1051.7847)" style="fill:none;stroke:#000000;stroke-linecap:round;stroke-linejoin:round;stroke-miterlimit:10;" cx="1239.78" cy="1414.36" rx="4.46" ry="2.75"></ellipse>
				
					<line style="fill:none;stroke:#000000;stroke-linecap:round;stroke-linejoin:round;stroke-miterlimit:10;" x1="1243.31" y1="1411.63" x2="1258.77" y2="1399.71"></line>
			</g>
			<g>
				<path style="fill:none;stroke:#000000;stroke-linecap:round;stroke-linejoin:round;stroke-miterlimit:10;" d="M1197.58,1366.96
					l3.53-2.73c1.95-1.51,4.28-1.75,5.21-0.55c0.93,1.2,0.1,3.39-1.86,4.9l-3.53,2.73"></path>
				
					<line style="fill:none;stroke:#000000;stroke-linecap:round;stroke-linejoin:round;stroke-miterlimit:10;" x1="1206.32" y1="1363.69" x2="1221.78" y2="1351.76"></line>
			</g>
			
				<line style="fill:none;stroke:#000000;stroke-linecap:round;stroke-linejoin:round;stroke-miterlimit:10;" x1="1199.25" y1="1369.14" x2="1206.32" y2="1363.69"></line>
			<g>
				<path style="fill:none;stroke:#000000;stroke-linecap:round;stroke-linejoin:round;stroke-miterlimit:10;" d="M1245.18,1401.64
					l-2.6-3.38l-13.07,10.09l1.84,2.39c0.42,0.54,1.2,0.65,1.75,0.23L1245.18,1401.64z"></path>
				<path style="fill:none;stroke:#000000;stroke-linecap:round;stroke-linejoin:round;stroke-miterlimit:10;" d="M1254.25,1393.86
					l-1.84-2.39c-0.21-0.27-0.6-0.32-0.87-0.11l-8.96,6.91l2.6,3.38l8.96-6.91C1254.41,1394.52,1254.46,1394.13,1254.25,1393.86z"></path>
			</g>
		</g>
		<g>
			<g>
				
					<circle style="fill:none;stroke:#000000;stroke-linecap:round;stroke-linejoin:round;stroke-miterlimit:10;" cx="1135.16" cy="1374.52" r="17.72"></circle>
			</g>
			<g>
				
					<circle style="fill:none;stroke:#000000;stroke-linecap:round;stroke-linejoin:round;stroke-miterlimit:10;" cx="1135.16" cy="1374.52" r="10.09"></circle>
			</g>
			<g>
				
					<ellipse transform="matrix(0.7918 -0.6108 0.6108 0.7918 -588.4937 997.5125)" style="fill:none;stroke:#000000;stroke-linecap:round;stroke-linejoin:round;stroke-miterlimit:10;" cx="1168.87" cy="1361.94" rx="2.75" ry="4.46"></ellipse>
				
					<line style="fill:none;stroke:#000000;stroke-linecap:round;stroke-linejoin:round;stroke-miterlimit:10;" x1="1166.14" y1="1358.4" x2="1154.22" y2="1342.94"></line>
			</g>
			<g>
				<path style="fill:none;stroke:#000000;stroke-linecap:round;stroke-linejoin:round;stroke-miterlimit:10;" d="M1121.47,1404.13
					l-2.73-3.53c-1.51-1.95-1.75-4.28-0.55-5.21c1.2-0.93,3.39-0.1,4.9,1.86l2.73,3.53"></path>
				
					<line style="fill:none;stroke:#000000;stroke-linecap:round;stroke-linejoin:round;stroke-miterlimit:10;" x1="1118.19" y1="1395.39" x2="1106.27" y2="1379.93"></line>
			</g>
			
				<line style="fill:none;stroke:#000000;stroke-linecap:round;stroke-linejoin:round;stroke-miterlimit:10;" x1="1123.64" y1="1402.46" x2="1118.19" y2="1395.39"></line>
			<g>
				<path style="fill:none;stroke:#000000;stroke-linecap:round;stroke-linejoin:round;stroke-miterlimit:10;" d="M1156.15,1356.53
					l-3.38,2.6l10.08,13.07l2.39-1.84c0.54-0.42,0.65-1.2,0.23-1.75L1156.15,1356.53z"></path>
				<path style="fill:none;stroke:#000000;stroke-linecap:round;stroke-linejoin:round;stroke-miterlimit:10;" d="M1148.37,1347.46
					l-2.39,1.84c-0.27,0.21-0.32,0.6-0.11,0.87l6.91,8.96l3.38-2.6l-6.91-8.96C1149.03,1347.3,1148.64,1347.25,1148.37,1347.46z"></path>
			</g>
		</g>
		<g>
			<g>
				
					<circle style="fill:none;stroke:#000000;stroke-linecap:round;stroke-linejoin:round;stroke-miterlimit:10;" cx="1221.06" cy="1472.68" r="17.72"></circle>
			</g>
			<g>
				
					<circle style="fill:none;stroke:#000000;stroke-linecap:round;stroke-linejoin:round;stroke-miterlimit:10;" cx="1221.06" cy="1472.68" r="10.09"></circle>
			</g>
			<g>
				
					<ellipse transform="matrix(0.7918 -0.6108 0.6108 0.7918 -659.9872 1034.5292)" style="fill:none;stroke:#000000;stroke-linecap:round;stroke-linejoin:round;stroke-miterlimit:10;" cx="1187.35" cy="1485.27" rx="2.75" ry="4.46"></ellipse>
				
					<line style="fill:none;stroke:#000000;stroke-linecap:round;stroke-linejoin:round;stroke-miterlimit:10;" x1="1190.08" y1="1488.8" x2="1202" y2="1504.26"></line>
			</g>
			<g>
				<path style="fill:none;stroke:#000000;stroke-linecap:round;stroke-linejoin:round;stroke-miterlimit:10;" d="M1234.75,1443.07
					l2.73,3.53c1.51,1.95,1.75,4.28,0.55,5.21c-1.2,0.93-3.39,0.1-4.9-1.86l-2.73-3.53"></path>
				
					<line style="fill:none;stroke:#000000;stroke-linecap:round;stroke-linejoin:round;stroke-miterlimit:10;" x1="1238.02" y1="1451.81" x2="1249.95" y2="1467.27"></line>
			</g>
			
				<line style="fill:none;stroke:#000000;stroke-linecap:round;stroke-linejoin:round;stroke-miterlimit:10;" x1="1232.57" y1="1444.75" x2="1238.02" y2="1451.81"></line>
			<g>
				<path style="fill:none;stroke:#000000;stroke-linecap:round;stroke-linejoin:round;stroke-miterlimit:10;" d="M1200.07,1490.68
					l3.38-2.6l-10.09-13.07l-2.39,1.84c-0.54,0.42-0.65,1.2-0.23,1.75L1200.07,1490.68z"></path>
				<path style="fill:none;stroke:#000000;stroke-linecap:round;stroke-linejoin:round;stroke-miterlimit:10;" d="M1207.85,1499.75
					l2.39-1.84c0.27-0.21,0.32-0.6,0.11-0.87l-6.91-8.96l-3.38,2.6l6.91,8.96C1207.19,1499.91,1207.58,1499.96,1207.85,1499.75z"></path>
			</g>
		</g>
	</g>
	<g>
		<path style="fill:none;stroke:#000000;stroke-linecap:round;stroke-linejoin:round;stroke-miterlimit:10;" d="M1545.58,790.59
			l-11.08,0.97c0.28-0.43,0.53-0.89,0.75-1.37c0.42-0.93,0.65-1.88,0.78-2.84l9.57,0.4c1.36,0.04,2.46,1.15,2.48,2.52
			c0.01,0.42-0.11,0.8-0.28,1.15C1547.24,790.82,1546.43,790.48,1545.58,790.59z"></path>
		<g>
			<g>
				<path style="fill:none;stroke:#000000;stroke-linecap:round;stroke-linejoin:round;stroke-miterlimit:10;" d="M1498.97,741.31
					c-1.51-6.61-3.6-11.53-7.51-15.33c-0.87-0.85-1.46-1.94-0.87-3c0.59-1.07,1.93-1.46,3-0.87c0.53,0.3,1.05,0.68,1.55,1.15
					c1.93,1.82,2.95,2.51,4.74,5.49"></path>
			</g>
			<path style="fill:none;stroke:#000000;stroke-linecap:round;stroke-linejoin:round;stroke-miterlimit:10;" d="M1519.22,782.93"></path>
			<path style="fill:none;stroke:#000000;stroke-linecap:round;stroke-linejoin:round;stroke-miterlimit:10;" d="M1514.64,777.22"></path>
			<g>
				<path style="fill:none;stroke:#000000;stroke-linecap:round;stroke-linejoin:round;stroke-miterlimit:10;" d="M1488.8,758.91
					c-1.03-0.26-2.02-0.7-2.9-1.33l-6.84,0.43c-0.37,0.02-0.58-0.4-0.35-0.69l3.85-4.6c-0.34-1.31-0.35-2.68-0.07-3.98
					c0.03-0.12,0.37-1.3,0.37-1.3l1.01-3.28c0,0,0.24-0.7,0.26-0.77c0.18-0.51,0.47-0.99,0.87-1.4c1.45-1.48,3.83-1.5,5.31-0.05
					c0.03,0.03,0.06,0.06,0.09,0.1c3.55-0.18,7.11,1.84,8.54,5.69c1.05,2.82,0.46,6.1-1.51,8.38c-1.05,1.21-2.31,2.05-3.65,2.54"></path>
				<g>
					<path style="fill:none;stroke:#000000;stroke-linecap:round;stroke-linejoin:round;stroke-miterlimit:10;" d="M1494.22,758.47
						c1.17-0.5,2.28-1.28,3.21-2.36c0.3-0.35,0.51-0.76,0.75-1.16c-0.11,1.87,0.11,3.85,0.87,5.87c0,0-2.22,0.05-5.28-1.65
						C1493.58,759.07,1493.88,758.61,1494.22,758.47z"></path>
					<path style="fill:none;stroke:#000000;stroke-linecap:round;stroke-linejoin:round;stroke-miterlimit:10;" d="M1499.37,749.62
						c-0.08-0.64-0.19-1.28-0.42-1.89c-0.71-1.91-1.95-3.37-3.46-4.34c1.31-1.04,4.15-3.34,6.91-2.38c0.04,0.01,0.49,2.72,0.32,2.95
						C1501.77,745.28,1500.25,747.31,1499.37,749.62z"></path>
				</g>
				
					<line style="fill:none;stroke:#000000;stroke-linecap:round;stroke-linejoin:round;stroke-miterlimit:10;" x1="1487.35" y1="746.36" x2="1489.69" y2="748.76"></line>
				<polygon style="fill:none;stroke:#000000;stroke-linecap:round;stroke-linejoin:round;stroke-miterlimit:10;" points="
					1487.5,743.42 1486.65,741.47 1485.02,742.7 				"></polygon>
				<path style="fill:none;stroke:#000000;stroke-linecap:round;stroke-linejoin:round;stroke-miterlimit:10;" d="M1495.49,754.6
					c-0.78,2.41-2.52,5.64-4.42,7.72c-0.32,0.35-0.88,0.16-1.09-0.27c-0.43-0.86-1.72-4.16-2.04-7.18c0,0,0.02,0.45,0,0"></path>
			</g>
			<path style="fill:none;stroke:#000000;stroke-linecap:round;stroke-linejoin:round;stroke-miterlimit:10;" d="M1529.72,776.23
				c-1.09-0.45-2.22-0.69-3.34-0.75c0,0-0.22-2.16-1.09-5.49c2.42-0.33,4.96,0.15,7.16,1.61c4.35,2.89,5.78,8.48,3.63,13.07
				C1535.65,781.03,1533.37,777.73,1529.72,776.23z"></path>
			<path style="fill:none;stroke:#000000;stroke-linecap:round;stroke-linejoin:round;stroke-miterlimit:10;" d="M1502.78,743.81
				c-0.76-7.48-2.77-17.69-6.32-22.06c-0.77-0.94-1.22-2.09-0.51-3.08c0.71-0.99,2.09-1.22,3.08-0.51c0.5,0.36,0.94,0.82,1.4,1.33
				c10.1,11.04,10.27,26.37,10.27,26.37c2.7,2.14,5.63,5.1,8.11,9.1c6.66,10.73,7.55,20.51,7.55,20.51
				c1.12,0.06,2.25,0.31,3.34,0.76c5.5,2.26,7.97,8.6,5.53,13.96c-0.22,0.48-0.47,0.94-0.75,1.37l11.08-0.97
				c1.3-0.17,2.57,0.63,2.88,1.91c0.37,1.47-0.61,2.91-2.08,3.15l-15.12,1.89c-0.36,0.06-0.72-0.04-1-0.27l-1.66-1.38
				c-2.29,0.64-5.16,0.61-10.09-2.11c-12.52-6.9-11.54-21.78-11.54-21.78l-8.35-11.75"></path>
			<path style="fill:none;stroke:#000000;stroke-linecap:round;stroke-linejoin:round;stroke-miterlimit:10;" d="M1505.37,823.17
				c10.63-5.38,15.69-18.61,11.83-30.22c0.43,0.28,0.84,0.57,1.3,0.82c0.7,0.39,1.28,0.61,1.91,0.9c0.14,0.36,0.33,0.68,0.46,1.04
				c4.33,12.51-1.58,26.25-13.33,31.85c-1.16,0.55-2.56,0.11-3.19-1.01C1503.67,825.34,1504.13,823.8,1505.37,823.17z"></path>
		</g>
	</g>
	<g>
		<path style="fill:none;stroke:#000000;stroke-linecap:round;stroke-linejoin:round;stroke-miterlimit:10;" d="M1733.84,1105.43
			c1.94,1.33,4.05,2.38,6.29,3.13"></path>
		<g>
			<path style="fill:none;stroke:#000000;stroke-linecap:round;stroke-linejoin:round;stroke-miterlimit:10;" d="M1761.74,1063.4
				c-1.96-1.26-4.08-2.24-6.32-2.92"></path>
			<g>
				<g>
					<g>
						<path style="fill:none;stroke:#000000;stroke-linecap:round;stroke-linejoin:round;stroke-miterlimit:10;" d="M1746.2,1082.64
							c-2.02-1.92-2.9-4.77-2.27-7.49c1.37-5.98,4.33-17.21,9.37-28.77c0.39-0.89,1.73-0.68,1.8,0.29
							c0.82,11.98-0.12,23.01-0.88,29.3"></path>
						<path style="fill:none;stroke:#000000;stroke-linecap:round;stroke-linejoin:round;stroke-miterlimit:10;" d="
							M1749.13,1085.55c2.28,2.36,3.19,5.71,2.37,8.89c-1.53,5.98-4.55,16.4-9.37,27.34c-0.4,0.9-1.73,0.67-1.8-0.32
							c-0.8-11.99,0.27-22.79,1.1-28.86c2.79-1.29,4.9-3.7,5.75-6.68"></path>
					</g>
					<path style="fill:none;stroke:#000000;stroke-linecap:round;stroke-linejoin:round;stroke-miterlimit:10;" d="M1782.64,1068.7
						c-8.81,7.21-17.09,12.5-22.08,15.47c-2.97,1.77-6.56,2.13-9.82,0.98l-2.02-0.72c-0.53-0.19-0.78-0.81-0.52-1.31l1.2-2.32
						c1.23-2.37,3.23-4.24,5.67-5.31c5.08-2.23,14.79-6.02,26.8-8.44C1782.81,1066.88,1783.39,1068.09,1782.64,1068.7z
						 M1713.58,1101.09c11.68-2.34,21.75-5.96,27.39-8.23c3.04-1.22,5.33-3.78,6.23-6.94l0.3-1.07c0.13-0.45-0.09-0.92-0.51-1.11
						l-1-0.45c-3.03-1.36-6.5-1.25-9.42,0.34c-5.35,2.92-14.53,8.35-23.76,15.82C1712.06,1100.06,1712.63,1101.28,1713.58,1101.09z"></path>
					<g>
						<path style="fill:none;stroke:#000000;stroke-linecap:round;stroke-linejoin:round;stroke-miterlimit:10;" d="
							M1752.97,1085.67c1.34,0.69,2.48,1.73,3.27,3.05c2.83,4.71,8.38,14.73,12.53,27.17c0.3,0.91-0.84,1.63-1.53,0.97
							c-7.19-6.9-12.96-13.74-16.76-18.6c0.39-1.39,0.74-2.7,1.03-3.81c0.81-3.18-0.09-6.53-2.37-8.89l-0.89-0.92"></path>
						<path style="fill:none;stroke:#000000;stroke-linecap:round;stroke-linejoin:round;stroke-miterlimit:10;" d="
							M1746.98,1083.75l-1-0.45c-1.56-0.7-3.24-1-4.91-0.91c-1.2-0.77-2.21-1.83-2.9-3.12c-2.76-5.2-7.64-15.15-11.52-26.99
							c-0.3-0.91,0.84-1.63,1.53-0.96c7.41,7.2,13.15,14.56,16.77,19.65c-0.4,1.56-0.75,3-1.03,4.19c-0.62,2.72,0.25,5.57,2.27,7.49
							l1.05,1"></path>
					</g>
					<g>
						<path style="fill:none;stroke:#000000;stroke-linecap:round;stroke-linejoin:round;stroke-miterlimit:10;" d="
							M1743.55,1082.54c-0.82-0.15-1.65-0.2-2.48-0.16l0,0C1741.9,1082.34,1742.73,1082.39,1743.55,1082.54z"></path>
						<path style="fill:none;stroke:#000000;stroke-linecap:round;stroke-linejoin:round;stroke-miterlimit:10;" d="
							M1738.17,1079.26c0.69,1.3,1.7,2.35,2.9,3.12c-1.56,0.08-3.1,0.48-4.51,1.25c-0.64,0.35-1.34,0.74-2.09,1.16
							c-6.67-2.73-15.29-6.66-23.27-11.51c-0.84-0.51-0.44-1.81,0.53-1.74c8.83,0.68,17.63,2.37,24.51,3.97
							C1736.96,1076.92,1737.62,1078.21,1738.17,1079.26z"></path>
						<path style="fill:none;stroke:#000000;stroke-linecap:round;stroke-linejoin:round;stroke-miterlimit:10;" d="
							M1743.57,1082.55c0.82,0.16,1.64,0.4,2.42,0.75C1745.2,1082.95,1744.39,1082.7,1743.57,1082.55z"></path>
						<path style="fill:none;stroke:#000000;stroke-linecap:round;stroke-linejoin:round;stroke-miterlimit:10;" d="M1761.51,1083.6
							c6.59,2.72,14.95,6.56,22.71,11.28c0.84,0.51,0.44,1.81-0.53,1.74c-9.16-0.7-18.31-2.49-25.29-4.15
							c-0.81-1.46-1.55-2.75-2.15-3.75"></path>
						<path style="fill:none;stroke:#000000;stroke-linecap:round;stroke-linejoin:round;stroke-miterlimit:10;" d="
							M1743.55,1082.54c0,0,0.01,0,0.01,0C1743.56,1082.55,1743.56,1082.55,1743.55,1082.54z"></path>
					</g>
				</g>
				<g>
					
						<line style="fill:none;stroke:#000000;stroke-linecap:round;stroke-linejoin:round;stroke-miterlimit:10;" x1="1741.44" y1="1092.61" x2="1741.44" y2="1092.61"></line>
					<path style="fill:none;stroke:#000000;stroke-linecap:round;stroke-linejoin:round;stroke-miterlimit:10;" d="M1714.3,1118.8
						c-1.04,0.62-2.24-0.59-1.61-1.63c4.13-6.76,9.54-14.01,13.63-19.25c6.1-1.79,11.2-3.68,14.65-5.07
						c0.17-0.07,0.31-0.18,0.47-0.26c-0.27,1.94-0.55,4.4-0.8,7.18C1734.6,1104.93,1725.37,1112.17,1714.3,1118.8z"></path>
					<path style="fill:none;stroke:#000000;stroke-linecap:round;stroke-linejoin:round;stroke-miterlimit:10;" d="M1769.7,1094.8
						c5.01,4.81,10.86,10.94,16.56,18.21c0.75,0.96-0.3,2.3-1.41,1.8c-6.64-2.98-14.88-7.47-20.67-10.72"></path>
					<path style="fill:none;stroke:#000000;stroke-linecap:round;stroke-linejoin:round;stroke-miterlimit:10;" d="M1757.38,1106.55
						c0.29,7.08,0.33,15.65-0.33,24.77c-0.09,1.24-1.78,1.53-2.28,0.38c-3.44-7.94-5.97-15.64-7.82-22.23"></path>
					<path style="fill:none;stroke:#000000;stroke-linecap:round;stroke-linejoin:round;stroke-miterlimit:10;" d="M1770.14,1078.05
						c7.82,0.57,16.79,1.58,25.59,3.41c1.21,0.25,1.3,1.97,0.1,2.3c-7.98,2.17-16.15,3.66-23.46,4.71"></path>
					<path style="fill:none;stroke:#000000;stroke-linecap:round;stroke-linejoin:round;stroke-miterlimit:10;" d="M1725.67,1090.15
						c-7.9-0.57-17.04-1.59-25.97-3.44c-1.21-0.25-1.3-1.97-0.1-2.3c7.98-2.17,16.15-3.67,23.46-4.71c4.08,1.99,8.01,3.7,11.42,5.1"></path>
					<path style="fill:none;stroke:#000000;stroke-linecap:round;stroke-linejoin:round;stroke-miterlimit:10;" d="M1724.92,1073.21
						c-4.8-4.94-10.31-11.03-15.76-18.05c-0.74-0.96,0.31-2.3,1.42-1.79c7.91,3.61,14.93,7.62,20.68,11.23"></path>
					<path style="fill:none;stroke:#000000;stroke-linecap:round;stroke-linejoin:round;stroke-miterlimit:10;" d="M1744.95,1070.96
						"></path>
					<path style="fill:none;stroke:#000000;stroke-linecap:round;stroke-linejoin:round;stroke-miterlimit:10;" d="M1740.64,1036.43
						c3.42,7.85,6.02,15.54,7.97,22.18c-1.57,4.67-2.77,8.9-3.66,12.34c-1.73-2.43-3.97-5.41-6.63-8.61
						c-0.43-7.3-0.59-16.15,0.06-25.5C1738.47,1035.62,1740.15,1035.31,1740.64,1036.43z"></path>
					<path style="fill:none;stroke:#000000;stroke-linecap:round;stroke-linejoin:round;stroke-miterlimit:10;" d="M1754.91,1068.84
						c5.5-4.98,14.58-12.48,26.24-19.48c1.04-0.63,2.24,0.58,1.61,1.62c-4.48,7.42-9,13.9-12.92,19.12"></path>
				</g>
			</g>
			<g>
				<path style="fill:none;stroke:#000000;stroke-linecap:round;stroke-linejoin:round;stroke-miterlimit:10;" d="M1720.08,1080.16
					c0.1-0.61,0.24-1.2,0.37-1.8"></path>
				<path style="fill:none;stroke:#000000;stroke-linecap:round;stroke-linejoin:round;stroke-miterlimit:10;" d="M1771.23,1068.21
					c0.29,0.41,0.57,0.82,0.84,1.25"></path>
				<path style="fill:none;stroke:#000000;stroke-linecap:round;stroke-linejoin:round;stroke-miterlimit:10;" d="M1755.39,1057.2
					c3.1,0.83,6.01,2.19,8.64,3.98"></path>
				<path style="fill:none;stroke:#000000;stroke-linecap:round;stroke-linejoin:round;stroke-miterlimit:10;" d="M1735.57,1059.17
					c0.83-0.41,1.68-0.77,2.56-1.1"></path>
				<path style="fill:none;stroke:#000000;stroke-linecap:round;stroke-linejoin:round;stroke-miterlimit:10;" d="M1722.32,1072.82
					c0.24-0.52,0.5-1.03,0.77-1.53"></path>
				<path style="fill:none;stroke:#000000;stroke-linecap:round;stroke-linejoin:round;stroke-miterlimit:10;" d="M1747.89,1056.27
					c0.52,0,1.04-0.01,1.56,0.01"></path>
				<path style="fill:none;stroke:#000000;stroke-linecap:round;stroke-linejoin:round;stroke-miterlimit:10;" d="M1740.08,1111.82
					c-3.22-0.95-6.23-2.46-8.91-4.45"></path>
				<path style="fill:none;stroke:#000000;stroke-linecap:round;stroke-linejoin:round;stroke-miterlimit:10;" d="M1760.62,1110.08
					c-1,0.49-2.03,0.93-3.09,1.3"></path>
				<path style="fill:none;stroke:#000000;stroke-linecap:round;stroke-linejoin:round;stroke-miterlimit:10;" d="M1724.48,1100.33
					c-0.35-0.53-0.68-1.07-1-1.63"></path>
				<path style="fill:none;stroke:#000000;stroke-linecap:round;stroke-linejoin:round;stroke-miterlimit:10;" d="M1721.08,1093.29
					c-0.19-0.6-0.36-1.21-0.52-1.82c-0.15-0.59-0.24-1.18-0.35-1.77"></path>
				<path style="fill:none;stroke:#000000;stroke-linecap:round;stroke-linejoin:round;stroke-miterlimit:10;" d="M1767.09,1105.71
					c-0.53,0.48-1.09,0.94-1.67,1.38"></path>
				<path style="fill:none;stroke:#000000;stroke-linecap:round;stroke-linejoin:round;stroke-miterlimit:10;" d="M1776.27,1087.86
					c-0.09,0.81-0.22,1.61-0.38,2.41"></path>
				<path style="fill:none;stroke:#000000;stroke-linecap:round;stroke-linejoin:round;stroke-miterlimit:10;" d="M1774.71,1074.79
					c0.36,0.97,0.68,1.97,0.93,3c0.06,0.25,0.09,0.5,0.15,0.74"></path>
				<path style="fill:none;stroke:#000000;stroke-linecap:round;stroke-linejoin:round;stroke-miterlimit:10;" d="M1774.28,1095.52
					c-0.37,0.88-0.78,1.74-1.23,2.58"></path>
				<path style="fill:none;stroke:#000000;stroke-linecap:round;stroke-linejoin:round;stroke-miterlimit:10;" d="M1747.99,1112.98
					c-0.77,0-1.53-0.03-2.29-0.1"></path>
			</g>
		</g>
	</g>
	<g>
		<g>
			<path style="fill:none;stroke:#000000;stroke-linecap:round;stroke-linejoin:round;stroke-miterlimit:10;" d="M1531.54,1542.9
				h199.79c0.7,0,1.27-0.57,1.27-1.27v-131.1c0-0.7-0.57-1.27-1.27-1.27h-199.79c-0.7,0-1.27,0.57-1.27,1.27v131.1
				C1530.27,1542.33,1530.84,1542.9,1531.54,1542.9z"></path>
			<path style="fill:none;stroke:#000000;stroke-linecap:round;stroke-linejoin:round;stroke-miterlimit:10;" d="M1531.54,1542.9
				h199.79c0.7,0,1.27,0.57,1.27,1.27v39.47c0,0.7-0.57,1.27-1.27,1.27h-199.79c-0.7,0-1.27-0.57-1.27-1.27v-39.47
				C1530.27,1543.47,1530.84,1542.9,1531.54,1542.9z"></path>
			<path style="fill:none;stroke:#000000;stroke-linecap:round;stroke-linejoin:round;stroke-miterlimit:10;" d="M1529,1542.9
				h-199.27c-0.7,0-1.27-0.57-1.27-1.27v-131.1c0-0.7,0.57-1.27,1.27-1.27H1529c0.7,0,1.27,0.57,1.27,1.27v131.1
				C1530.27,1542.33,1529.7,1542.9,1529,1542.9z"></path>
			<path style="fill:none;stroke:#000000;stroke-linecap:round;stroke-linejoin:round;stroke-miterlimit:10;" d="M1529,1542.9
				h-199.27c-0.7,0-1.27,0.57-1.27,1.27v39.47c0,0.7,0.57,1.27,1.27,1.27H1529c0.7,0,1.27-0.57,1.27-1.27v-39.47
				C1530.27,1543.47,1529.7,1542.9,1529,1542.9z"></path>
		</g>
		<g>
			<path style="fill:none;stroke:#000000;stroke-linecap:round;stroke-linejoin:round;stroke-miterlimit:10;" d="M1428.7,1472.84
				c-6.68,10.84-11.62,22.66-14.62,35.04l-1.4,5.76c-0.62,2.58-3.58,3.79-5.84,2.4l-5.04-3.11c-8.55-5.27-17.49-9.83-26.74-13.66
				c-0.68,8.35-1.93,16.65-3.84,24.83l0,0.02c-1.06,4.52,2.61,8.76,7.23,8.36l0.02,0c17.76-1.51,35.65-0.22,53.01,3.84l0.02,0
				c4.52,1.06,8.76-2.61,8.36-7.23l0-0.02c-1.51-17.76-0.22-35.65,3.84-53.01l0-0.02c1.06-4.52-2.61-8.76-7.23-8.36l-0.02,0
				c-1.57,0.13-3.14,0.13-4.71,0.21L1428.7,1472.84z"></path>
			<path style="fill:none;stroke:#000000;stroke-linecap:round;stroke-linejoin:round;stroke-miterlimit:10;" d="M1364.13,1434.73
				l5.04,3.11c16.85,10.39,35.24,18.06,54.48,22.73l5.76,1.4c2.58,0.62,3.79,3.58,2.4,5.84l-3.11,5.04
				c-6.68,10.84-11.62,22.66-14.62,35.04l-1.4,5.76c-0.62,2.58-3.58,3.79-5.84,2.4l-5.04-3.11c-16.85-10.39-35.24-18.06-54.48-22.73
				l-5.76-1.4c-2.58-0.62-3.79-3.58-2.4-5.84l3.11-5.04c6.68-10.84,11.62-22.66,14.62-35.04l1.4-5.76
				C1358.92,1434.55,1361.88,1433.34,1364.13,1434.73z"></path>
		</g>
		<g>
			<path style="fill:none;stroke:#000000;stroke-linecap:round;stroke-linejoin:round;stroke-miterlimit:10;" d="M1617.75,1468.62
				l0,0.02c4.06,17.36,5.35,35.25,3.84,53.01l0,0.02c-0.39,4.63,3.84,8.29,8.36,7.23l0.02,0c17.36-4.06,35.24-5.35,53.01-3.84
				l0.02,0c4.63,0.39,8.29-3.84,7.23-8.36l0-0.02c-1.91-8.18-3.16-16.48-3.84-24.83c-9.25,3.83-18.19,8.39-26.74,13.66l-5.04,3.11
				c-2.26,1.39-5.21,0.18-5.84-2.4l-1.4-5.76c-3-12.37-7.94-24.2-14.62-35.04l-3.05-4.94c-1.57-0.09-3.14-0.08-4.71-0.21l-0.02,0
				C1620.36,1459.86,1616.7,1464.1,1617.75,1468.62z"></path>
			<path style="fill:none;stroke:#000000;stroke-linecap:round;stroke-linejoin:round;stroke-miterlimit:10;" d="M1697.32,1427.29
				l-5.04,3.11c-16.85,10.39-35.24,18.06-54.48,22.73l-5.76,1.4c-2.58,0.62-3.79,3.58-2.4,5.84l3.11,5.04
				c6.68,10.84,11.62,22.66,14.62,35.04l1.4,5.76c0.62,2.58,3.58,3.79,5.84,2.4l5.04-3.11c16.85-10.39,35.24-18.06,54.48-22.73
				l5.76-1.4c2.58-0.62,3.79-3.58,2.4-5.84l-3.11-5.04c-6.68-10.84-11.62-22.66-14.62-35.04l-1.4-5.76
				C1702.53,1427.12,1699.58,1425.9,1697.32,1427.29z"></path>
		</g>
	</g>
	<g>
		<g>
			
				<rect x="550.42" y="647.65" style="fill:none;stroke:#000000;stroke-linecap:round;stroke-linejoin:round;stroke-miterlimit:10;" width="250.59" height="111.92"></rect>
			
				<line style="fill:none;stroke:#000000;stroke-linecap:round;stroke-linejoin:round;stroke-miterlimit:10;" x1="550.43" y1="752.26" x2="801" y2="752.34"></line>
		</g>
		
			<line style="fill:none;stroke:#000000;stroke-linecap:round;stroke-linejoin:round;stroke-miterlimit:10;" x1="676.47" y1="759.57" x2="676.47" y2="647.65"></line>
	</g>
	
		<rect x="922.78" y="543.31" transform="matrix(-1.836970e-16 1 -1 -1.836970e-16 1698.3363 -274.8796)" style="fill:none;stroke:#000000;stroke-linecap:round;stroke-linejoin:round;stroke-miterlimit:10;" width="127.66" height="336.83"></rect>
	
		<rect x="785.03" y="1070.33" transform="matrix(-1.836970e-16 1 -1 -1.836970e-16 2016.7697 251.734)" style="fill:none;stroke:#000000;stroke-linecap:round;stroke-linejoin:round;stroke-miterlimit:10;" width="194.98" height="127.85"></rect>
	<g>
		<g>
			
				<rect x="1167.32" y="414.82" style="fill:none;stroke:#000000;stroke-linecap:round;stroke-linejoin:round;stroke-miterlimit:10;" width="130.52" height="360.29"></rect>
			
				<line style="fill:none;stroke:#000000;stroke-linecap:round;stroke-linejoin:round;stroke-miterlimit:10;" x1="1290.53" y1="414.83" x2="1290.61" y2="775.1"></line>
		</g>
		
			<line style="fill:none;stroke:#000000;stroke-linecap:round;stroke-linejoin:round;stroke-miterlimit:10;" x1="1297.84" y1="655.56" x2="1167.32" y2="655.56"></line>
		
			<line style="fill:none;stroke:#000000;stroke-linecap:round;stroke-linejoin:round;stroke-miterlimit:10;" x1="1297.84" y1="536.01" x2="1167.32" y2="536.01"></line>
	</g>
</g>
<g id="floor">
	<g>
		<path style="fill:none;stroke:#000000;stroke-linecap:round;stroke-linejoin:round;stroke-miterlimit:10;" d="M1168.49,818.75
			c95.08,0,172.91,76.91,172.91,172h-171.5"></path>
		
			<rect x="1155.34" y="986.43" transform="matrix(9.046459e-11 -1 1 9.046459e-11 164.5893 2156.3291)" style="fill:none;stroke:#000000;stroke-linecap:round;stroke-linejoin:round;stroke-miterlimit:10;" width="10.24" height="18.89"></rect>
		
			<rect x="1155.34" y="804.19" transform="matrix(9.055252e-11 -1 1 9.055252e-11 346.83 1974.0884)" style="fill:none;stroke:#000000;stroke-linecap:round;stroke-linejoin:round;stroke-miterlimit:10;" width="10.24" height="18.89"></rect>
	</g>
	<g>
		<path style="fill:none;stroke:#000000;stroke-linecap:round;stroke-linejoin:round;stroke-miterlimit:10;" d="M507.2,1179.84
			c0-84.78,68.58-154.19,153.37-154.19v152.92"></path>
		
			<rect x="660.57" y="1178.58" transform="matrix(-1 -4.579771e-11 4.579771e-11 -1 1330.2753 2374.0007)" style="fill:none;stroke:#000000;stroke-linecap:round;stroke-linejoin:round;stroke-miterlimit:10;" width="9.14" height="16.84"></rect>
		
			<rect x="498.07" y="1178.58" transform="matrix(-1 -4.758961e-11 4.758961e-11 -1 1005.2686 2374.0007)" style="fill:none;stroke:#000000;stroke-linecap:round;stroke-linejoin:round;stroke-miterlimit:10;" width="9.14" height="16.84"></rect>
	</g>
	<g>
		<path style="fill:none;stroke:#000000;stroke-linecap:round;stroke-linejoin:round;stroke-miterlimit:10;" d="M297.79,1090.19
			c-108.76,0-197.79-87.98-197.79-196.74h196.17"></path>
		
			<rect x="301.11" y="876.79" transform="matrix(-4.470487e-11 1 -1 -4.470487e-11 1194.5635 580.6233)" style="fill:none;stroke:#000000;stroke-linecap:round;stroke-linejoin:round;stroke-miterlimit:10;" width="11.72" height="21.6"></rect>
		
			<rect x="301.11" y="1085.25" transform="matrix(-4.462760e-11 1 -1 -4.462760e-11 1403.0199 789.0797)" style="fill:none;stroke:#000000;stroke-linecap:round;stroke-linejoin:round;stroke-miterlimit:10;" width="11.72" height="21.6"></rect>
	</g>
	
		<line style="fill:none;stroke:#000000;stroke-linecap:round;stroke-linejoin:round;stroke-miterlimit:10;stroke-dasharray:10,10;" x1="808.78" y1="1047.78" x2="808.78" y2="769.42"></line>
	<g>
		<g id="LWPOLYLINE_15_">
			
				<rect x="818.39" y="1456.39" style="fill:none;stroke:#000000;stroke-linecap:round;stroke-linejoin:round;stroke-miterlimit:10;" width="128.13" height="130.73"></rect>
		</g>
		<g>
			<g id="LWPOLYLINE_14_">
				<polyline style="fill:none;stroke:#000000;stroke-linecap:round;stroke-linejoin:round;stroke-miterlimit:10;" points="
					923.92,1553.54 882.45,1505.42 882.45,1538.09 840.98,1489.97 				"></polyline>
			</g>
			<g id="LWPOLYLINE_13_">
				<path style="fill:none;stroke:#000000;stroke-linecap:round;stroke-linejoin:round;stroke-miterlimit:10;" d="M882.45,1558.05
					c-20.05,0-36.29-16.25-36.3-36.3c0-20.05,16.25-36.3,36.3-36.3c20.05,0,36.3,16.25,36.3,36.3
					C918.75,1541.8,902.49,1558.05,882.45,1558.05z"></path>
			</g>
		</g>
	</g>
	<g>
		<g id="LWPOLYLINE_3_">
			
				<rect x="818.6" y="1328.48" style="fill:none;stroke:#000000;stroke-linecap:round;stroke-linejoin:round;stroke-miterlimit:10;" width="127.91" height="127.91"></rect>
		</g>
		<g id="LWPOLYLINE_2_">
			<path style="fill:none;stroke:#000000;stroke-linecap:round;stroke-linejoin:round;stroke-miterlimit:10;" d="M928.4,1445.73
				l-80.96,0c-4.12,0-7.46-3.34-7.46-7.46c0,0,0-91.68,0-91.68c0-4.12,3.34-7.46,7.46-7.46c0,0,80.96,0,80.96,0
				c4.12,0,7.46,3.34,7.46,7.46c0,0,0,91.68,0,91.68C935.85,1442.39,932.52,1445.73,928.4,1445.73z"></path>
		</g>
		<g id="LWPOLYLINE_1_">
			<path style="fill:none;stroke:#000000;stroke-linecap:round;stroke-linejoin:round;stroke-miterlimit:10;" d="M868.19,1413.75
				c0,4.13-3.35,7.48-7.48,7.48c-4.13,0-7.48-3.35-7.48-7.48c0-4.13,3.35-7.48,7.48-7.48
				C864.84,1406.27,868.19,1409.62,868.19,1413.75z"></path>
		</g>
	</g>
	<g>
		<g id="LWPOLYLINE_39_">
			
				<rect x="818.19" y="1071.15" style="fill:none;stroke:#000000;stroke-linecap:round;stroke-linejoin:round;stroke-miterlimit:10;" width="128.32" height="128.32"></rect>
		</g>
		<g id="LWPOLYLINE_38_">
			
				<line style="fill:none;stroke:#000000;stroke-linecap:round;stroke-linejoin:round;stroke-miterlimit:10;" x1="850.28" y1="1146" x2="850.28" y2="1188.78"></line>
		</g>
		<g id="LWPOLYLINE_37_">
			
				<line style="fill:none;stroke:#000000;stroke-linecap:round;stroke-linejoin:round;stroke-miterlimit:10;" x1="871.66" y1="1167.39" x2="828.89" y2="1167.39"></line>
		</g>
		<g id="CIRCLE_115_">
			<path style="fill:none;stroke:#000000;stroke-linecap:round;stroke-linejoin:round;stroke-miterlimit:10;" d="M833.17,1167.39
				c0,9.45,7.66,17.11,17.11,17.11c9.45,0,17.11-7.66,17.11-17.11s-7.66-17.11-17.11-17.11
				C840.83,1150.28,833.17,1157.94,833.17,1167.39L833.17,1167.39z"></path>
		</g>
		<g id="LWPOLYLINE_36_">
			
				<line style="fill:none;stroke:#000000;stroke-linecap:round;stroke-linejoin:round;stroke-miterlimit:10;" x1="850.28" y1="1081.84" x2="850.28" y2="1124.62"></line>
		</g>
		<g id="LWPOLYLINE_34_">
			
				<line style="fill:none;stroke:#000000;stroke-linecap:round;stroke-linejoin:round;stroke-miterlimit:10;" x1="871.66" y1="1103.23" x2="828.89" y2="1103.23"></line>
		</g>
		<g id="CIRCLE_114_">
			<path style="fill:none;stroke:#000000;stroke-linecap:round;stroke-linejoin:round;stroke-miterlimit:10;" d="M833.17,1103.22
				c0,9.45,7.66,17.12,17.12,17.12s17.12-7.66,17.12-17.12c0-9.45-7.66-17.12-17.12-17.12S833.17,1093.77,833.17,1103.22
				L833.17,1103.22z"></path>
		</g>
		<g id="LWPOLYLINE_33_">
			
				<line style="fill:none;stroke:#000000;stroke-linecap:round;stroke-linejoin:round;stroke-miterlimit:10;" x1="914.44" y1="1081.84" x2="914.44" y2="1124.62"></line>
		</g>
		<g id="LWPOLYLINE_30_">
			
				<line style="fill:none;stroke:#000000;stroke-linecap:round;stroke-linejoin:round;stroke-miterlimit:10;" x1="935.83" y1="1103.23" x2="893.05" y2="1103.23"></line>
		</g>
		<g id="CIRCLE_113_">
			<path style="fill:none;stroke:#000000;stroke-linecap:round;stroke-linejoin:round;stroke-miterlimit:10;" d="M897.33,1103.22
				c0,9.45,7.66,17.12,17.12,17.12s17.12-7.66,17.12-17.12c0-9.45-7.66-17.12-17.12-17.12S897.33,1093.77,897.33,1103.22
				L897.33,1103.22z"></path>
		</g>
		<g id="LWPOLYLINE_29_">
			
				<line style="fill:none;stroke:#000000;stroke-linecap:round;stroke-linejoin:round;stroke-miterlimit:10;" x1="914.44" y1="1146" x2="914.44" y2="1188.78"></line>
		</g>
		<g id="LWPOLYLINE_28_">
			
				<line style="fill:none;stroke:#000000;stroke-linecap:round;stroke-linejoin:round;stroke-miterlimit:10;" x1="935.83" y1="1167.39" x2="893.05" y2="1167.39"></line>
		</g>
		<g id="CIRCLE_1_">
			<path style="fill:none;stroke:#000000;stroke-linecap:round;stroke-linejoin:round;stroke-miterlimit:10;" d="M897.33,1167.39
				c0,9.45,7.66,17.11,17.11,17.11c9.45,0,17.11-7.66,17.11-17.11s-7.66-17.11-17.11-17.11
				C904.99,1150.28,897.33,1157.94,897.33,1167.39L897.33,1167.39z"></path>
		</g>
	</g>
	<g>
		<g>
			<g id="LWPOLYLINE_396_">
				<path style="fill:none;stroke:#000000;stroke-linecap:round;stroke-linejoin:round;stroke-miterlimit:10;" d="M608.4,1559.65
					l-0.15-56.86c-0.02-8.01-5.1-15.09-12.57-17.53c-27.12-8.83-56.27-8.76-83.35,0.23c-7.46,2.48-12.5,9.58-12.48,17.59l0.15,56.86
					"></path>
			</g>
			<g id="LWPOLYLINE_395_">
				<path style="fill:none;stroke:#000000;stroke-linecap:round;stroke-linejoin:round;stroke-miterlimit:10;" d="M525.24,1543.96
					c-5.99,0.02-10.85-4.93-10.87-11.04l-0.05-17.72c-0.01-4.05,2.57-7.64,6.37-8.84c21.73-6.86,44.96-6.92,66.72-0.18
					c3.8,1.18,6.4,4.75,6.41,8.8l0.05,17.72c0.02,6.11-4.83,11.09-10.81,11.1"></path>
			</g>
			<g id="LWPOLYLINE_394_">
				<path style="fill:none;stroke:#000000;stroke-linecap:round;stroke-linejoin:round;stroke-miterlimit:10;" d="M601.1,1532.69
					l-0.08-29.88c-0.01-4.81-3.06-9.06-7.54-10.52c-25.68-8.37-53.29-8.3-78.92,0.21c-4.47,1.49-7.5,5.75-7.49,10.56l0.08,29.88
					c0.02,6.11,4.88,11.06,10.87,11.04l72.28-0.2C596.28,1543.77,601.12,1538.8,601.1,1532.69z"></path>
			</g>
			<g id="LWPOLYLINE_393_">
				<path style="fill:none;stroke:#000000;stroke-linecap:round;stroke-linejoin:round;stroke-miterlimit:10;" d="M554.14,1540.59
					c2.69-0.01,4.86-2.23,4.85-4.98c-0.01-2.74-2.19-4.96-4.88-4.95c-2.68,0.01-4.86,2.24-4.85,4.98
					C549.28,1538.38,551.46,1540.6,554.14,1540.59z"></path>
			</g>
		</g>
		<g>
			<g id="LWPOLYLINE_392_">
				
					<rect x="337.56" y="1196.08" style="fill:none;stroke:#000000;stroke-linecap:round;stroke-linejoin:round;stroke-miterlimit:10;" width="147.52" height="364.52"></rect>
			</g>
			<g id="LWPOLYLINE_391_">
				<path style="fill:none;stroke:#000000;stroke-linecap:round;stroke-linejoin:round;stroke-miterlimit:10;" d="M349.36,1246.48
					l0.01,237.93c0,34.94,27.74,63.26,61.96,63.25c34.22,0,61.96-28.33,61.96-63.27l-0.01-237.93c0-16.7-13.15-30.29-29.5-30.48
					l-64.91,0.01c-16.3,0-29.51,13.49-29.51,30.13"></path>
			</g>
			<g id="LWPOLYLINE_390_">
				<path style="fill:none;stroke:#000000;stroke-linecap:round;stroke-linejoin:round;stroke-miterlimit:10;" d="M366.22,1321.69
					l0.01,162.71c0,25.44,20.2,46.05,45.1,46.05c24.91-0.01,45.1-20.63,45.1-46.06l-0.01-160.34c-0.02-24.5-18.81-44.7-42.77-45.98
					C388.76,1276.74,367.52,1296.27,366.22,1321.69z"></path>
			</g>
			<g id="LWPOLYLINE_389_">
				<path style="fill:none;stroke:#000000;stroke-linecap:round;stroke-linejoin:round;stroke-miterlimit:10;" d="M411.33,1492.82
					c4.56,0,8.26-3.78,8.26-8.43c0-4.66-3.7-8.43-8.26-8.43c-4.57,0-8.26,3.78-8.26,8.43
					C403.07,1489.05,406.77,1492.83,411.33,1492.82z"></path>
			</g>
		</g>
		<g>
			<g id="LWPOLYLINE_388_">
				<path style="fill:none;stroke:#000000;stroke-linecap:round;stroke-linejoin:round;stroke-miterlimit:10;" d="M669.09,1487.33
					l0-59.66c0-20.76,17.18-37.59,38.38-37.59c21.2,0,38.38,16.83,38.38,37.59l0,59.66c0,5.19-4.3,9.39-9.59,9.39l-57.58,0
					C673.38,1496.72,669.08,1492.51,669.09,1487.33z"></path>
			</g>
			<g id="LWPOLYLINE_387_">
				<path style="fill:none;stroke:#000000;stroke-linecap:round;stroke-linejoin:round;stroke-miterlimit:10;" d="M738.18,1427.67
					l-0.01,33.37c0,16.6-13.74,30.06-30.7,30.07c-16.96,0-30.71-13.46-30.71-30.07l0.01-33.37c0-16.6,13.74-30.06,30.7-30.07
					C724.42,1397.6,738.17,1411.06,738.18,1427.67z"></path>
			</g>
			<g id="LWPOLYLINE_386_">
				<path style="fill:none;stroke:#000000;stroke-linecap:round;stroke-linejoin:round;stroke-miterlimit:10;" d="M718.99,1439.77
					l-0.01,24.39c0,6.23-5.15,11.28-11.51,11.27c-6.36,0-11.51-5.05-11.51-11.28l0.01-24.39c0-6.23,5.15-11.27,11.51-11.27
					C713.83,1428.49,718.98,1433.54,718.99,1439.77z"></path>
			</g>
		</g>
	</g>
	<g>
		
			<rect x="1671.41" y="1252.22" transform="matrix(-1.836970e-16 1 -1 -1.836970e-16 3152.2197 -577.2023)" style="fill:none;stroke:#000000;stroke-linecap:round;stroke-linejoin:round;stroke-miterlimit:10;" width="386.61" height="70.58"></rect>
		
			<line style="fill:none;stroke:#000000;stroke-linecap:round;stroke-linejoin:round;stroke-miterlimit:10;" x1="1885.14" y1="1094.13" x2="1885.14" y2="1480.74"></line>
		
			<rect x="1870.96" y="1228.21" transform="matrix(-1.836970e-16 1 -1 -1.836970e-16 3113.3438 -637.5726)" style="fill:none;stroke:#000000;stroke-linecap:round;stroke-linejoin:round;stroke-miterlimit:10;" width="8.99" height="19.36"></rect>
		
			<rect x="1870.96" y="1466.17" transform="matrix(-1.836970e-16 1 -1 -1.836970e-16 3351.3071 -399.6092)" style="fill:none;stroke:#000000;stroke-linecap:round;stroke-linejoin:round;stroke-miterlimit:10;" width="8.99" height="19.36"></rect>
		
			<rect x="1870.96" y="1089.34" transform="matrix(-1.836970e-16 1 -1 -1.836970e-16 2974.4792 -776.4371)" style="fill:none;stroke:#000000;stroke-linecap:round;stroke-linejoin:round;stroke-miterlimit:10;" width="8.99" height="19.36"></rect>
		
			<line style="fill:none;stroke:#000000;stroke-linecap:round;stroke-linejoin:round;stroke-miterlimit:10;" x1="1865.78" y1="1242.38" x2="1865.78" y2="1471.35"></line>
		
			<rect x="1810.47" y="1158.83" transform="matrix(-1.836970e-16 1 -1 -1.836970e-16 3043.8579 -706.9514)" style="fill:none;stroke:#000000;stroke-linecap:round;stroke-linejoin:round;stroke-miterlimit:10;" width="129.87" height="19.25"></rect>
	</g>
	<g>
		
			<rect x="1639.96" y="674.92" transform="matrix(-1.836970e-16 1 -1 -1.836970e-16 2574.916 -1154.506)" style="fill:none;stroke:#000000;stroke-linecap:round;stroke-linejoin:round;stroke-miterlimit:10;" width="449.51" height="70.58"></rect>
		
			<line style="fill:none;stroke:#000000;stroke-linecap:round;stroke-linejoin:round;stroke-miterlimit:10;" x1="1885.14" y1="485.37" x2="1885.14" y2="934.88"></line>
		
			<rect x="1870.96" y="619.45" transform="matrix(-1.836970e-16 1 -1 -1.836970e-16 2504.5903 -1246.326)" style="fill:none;stroke:#000000;stroke-linecap:round;stroke-linejoin:round;stroke-miterlimit:10;" width="8.99" height="19.36"></rect>
		
			<rect x="1870.96" y="920.32" transform="matrix(-1.836970e-16 1 -1 -1.836970e-16 2805.4531 -945.4633)" style="fill:none;stroke:#000000;stroke-linecap:round;stroke-linejoin:round;stroke-miterlimit:10;" width="8.99" height="19.36"></rect>
		
			<rect x="1870.96" y="480.59" transform="matrix(-1.836970e-16 1 -1 -1.836970e-16 2365.7258 -1385.1904)" style="fill:none;stroke:#000000;stroke-linecap:round;stroke-linejoin:round;stroke-miterlimit:10;" width="8.99" height="19.36"></rect>
		
			<line style="fill:none;stroke:#000000;stroke-linecap:round;stroke-linejoin:round;stroke-miterlimit:10;" x1="1865.78" y1="633.63" x2="1865.78" y2="925.5"></line>
		
			<rect x="1810.47" y="550.08" transform="matrix(-1.836970e-16 1 -1 -1.836970e-16 2435.1045 -1315.7048)" style="fill:none;stroke:#000000;stroke-linecap:round;stroke-linejoin:round;stroke-miterlimit:10;" width="129.87" height="19.25"></rect>
	</g>
	<g>
		
			<rect x="27.01" y="1343.53" transform="matrix(-1.836970e-16 1 -1 -1.836970e-16 1661.3016 1074.9476)" width="532.34" height="49.19"></rect>
		
			<rect x="218.29" y="782.18" transform="matrix(-1.836970e-16 1 -1 -1.836970e-16 1099.9537 513.5997)" width="149.78" height="49.19"></rect>
		
			<rect x="1058.69" y="792.98" transform="matrix(-1.836970e-16 1 -1 -1.836970e-16 2692.9841 524.4025)" width="51.2" height="1631.42"></rect>
		
			<rect x="1495.82" y="12.73" transform="matrix(-1.836970e-16 1 -1 -1.836970e-16 1912.7317 -1130.1183)" width="51.2" height="757.15"></rect>
		
			<rect x="1787.82" y="1522.11" transform="matrix(-1.836970e-16 1 -1 -1.836970e-16 3422.1128 -307.3094)" width="153.79" height="70.58"></rect>
		
			<rect x="1784.7" y="979.23" transform="matrix(-1.836970e-16 1 -1 -1.836970e-16 2879.2268 -850.1953)" width="160.02" height="70.58"></rect>
		
			<rect x="1804.61" y="391.05" transform="matrix(-1.836970e-16 1 -1 -1.836970e-16 2291.0498 -1438.3723)" width="120.21" height="70.58"></rect>
		
			<rect x="1078.59" y="719.55" transform="matrix(-1.836970e-16 1 -1 -1.836970e-16 1887.6744 -431.4194)" width="161.91" height="17.16"></rect>
		
			<rect x="1490.12" y="675.25" transform="matrix(-1.836970e-16 1 -1 -1.836970e-16 2519.4922 -477.8574)" width="17.11" height="691.13"></rect>
		
			<rect x="385.26" y="1083.54" transform="matrix(-1.836970e-16 1 -1 -1.836970e-16 1581.8275 785.9637)" width="25.34" height="200.71"></rect>
		
			<rect x="705.15" y="1411.35" transform="matrix(-1.836970e-16 1 -1 -1.836970e-16 2217.9341 791.9059)" width="15.72" height="187.14"></rect>
		
			<rect x="588.82" y="1541.1" transform="matrix(-1.836970e-16 1 -1 -1.836970e-16 2176.2615 921.6531)" width="76.97" height="15.72"></rect>
		
			<rect x="726.42" y="1114.18" transform="matrix(-1.836970e-16 1 -1 -1.836970e-16 1922.9923 444.799)" width="25.34" height="139.43"></rect>
		
			<rect x="603.26" y="1376.59" transform="matrix(-1.836970e-16 1 -1 -1.836970e-16 2194.6111 583.7383)" width="404.35" height="25.18"></rect>
		
			<rect x="119.7" y="1369" transform="matrix(-1.836970e-16 1 -1 -1.836970e-16 1707.3372 1071.418)" width="396.52" height="40.76"></rect>
		
			<rect x="542.73" y="1343.69" transform="matrix(-1.836970e-16 1 -1 -1.836970e-16 2137.8975 1017.4167)" width="35.01" height="467.93"></rect>
		
			<rect x="399.2" y="635.54" transform="matrix(-1.836970e-16 1 -1 -1.836970e-16 1174.4343 333.2693)" width="42.77" height="236.62"></rect>
		
			<rect x="444.29" y="668.53" transform="matrix(-1.836970e-16 1 -1 -1.836970e-16 1218.9518 160.8789)" width="169.49" height="42.77"></rect>
		
			<rect x="823.29" y="313.2" transform="matrix(-1.836970e-16 1 -1 -1.836970e-16 1471.8077 -217.5429)" width="42.77" height="627.86"></rect>
		
			<rect x="1023.3" y="486.2" transform="matrix(-1.836970e-16 1 -1 -1.836970e-16 1671.8218 -656.6528)" width="281.87" height="42.77"></rect>
		
			<rect x="1146.37" y="1006.16" transform="matrix(-1.836970e-16 1 -1 -1.836970e-16 2174.2891 -144.8048)" width="26.35" height="17.16"></rect>
		
			<rect x="1137.96" y="1013.35" transform="matrix(-1.836970e-16 1 -1 -1.836970e-16 2167.3357 -125.701)" width="17.11" height="14.94"></rect>
		
			<rect x="722.01" y="1115.77" transform="matrix(-1.836970e-16 1 -1 -1.836970e-16 1933.7966 315.3314)" width="174.45" height="17.58"></rect>
		
			<rect x="742.67" y="695.15" transform="matrix(-1.836970e-16 1 -1 -1.836970e-16 1512.7496 -105.2878)" width="132.7" height="17.16"></rect>
	</g>
</g>
</svg>
