<?xml version="1.0" encoding="utf-8"?>
<!-- Generator: Adobe Illustrator 25.0.0, SVG Export Plug-In . SVG Version: 6.00 Build 0)  -->
<svg version="1.0" id="Layer_1" xmlns="http://www.w3.org/2000/svg" xmlns:xlink="http://www.w3.org/1999/xlink" x="0px" y="0px" width="2000px" height="2000px" viewBox="0 0 2000 2000" style="enable-background:new 0 0 2000 2000;" xml:space="preserve">
<path id="background" style="fill-rule:evenodd;clip-rule:evenodd;fill:#FFFFFF;" d="M1900.5,1045.45v0.5
	c0,122.95-99.4,223.1-222.05,224.34v10.87h18.01v493.24h-7.52h-40.13H164.34h-25.52H100v-165.14h-0.5v-435.39h0.5v-155.6v-23.03
	v-69.1h142.97v-69h-1.18v-434.1h1.18V225.6h26.3h38.04h1341.5h32.37h15.28v810.14h-18.01v9.71H1900.5z"></path>
<g id="h1">
	<path id="h1_path" style="fill:none;" d="M1563.29,957.09v295.24l-263.23,0l-0.01-295.24L1563.29,957.09z"></path>
	
		<text id="h1_text" transform="matrix(1 0 0 1 1454.5217 1130.4191)" style="font-family: GraphikLCG-Regular; font-size: 40px; text-anchor: middle; text-align: center;"></text>
</g>
<g id="c1">
	<path id="c1_path" style="fill:none;" d="M779.27,1591.6v-468.67h243.17v468.67H779.27z"></path>
	
		<text id="c1_text" transform="matrix(1 0 0 1 914.7198 1265.6788)" style="font-family: GraphikLCG-Regular; font-size: 40px; text-anchor: middle; text-align: center;"></text>
</g>
<g id="r1">
	<path id="r1_path" style="fill:none;" d="M658.46,971.33v-0.07l-166.81,0.13l0.06-427.17h363.83v427.11H658.46z"></path>
	<text id="r1_text" transform="matrix(1 0 0 1 596.7326 885.1437)" style="font-family: GraphikLCG-Regular; font-size: 40px; text-anchor: middle; text-align: center;"></text>
</g>
<g id="s1">
	<path id="s1_path" style="fill:none;" d="M1336.98,698.68V411.04h156.87v287.64H1336.98z"></path>
	
		<text id="s1_text" transform="matrix(1 0 0 1 1403.2224 604.1359)" style="font-family: GraphikLCG-Regular; font-size: 40px; text-anchor: middle; text-align: center;"></text>
</g>
<g id="g1">
	<path id="g1_path" style="fill:none;" d="M1342.21,1723.35V1346.6h155.18v376.75H1342.21z"></path>
	
		<text id="g1_text" transform="matrix(1 0 0 1 1393.7748 1447.5656)" style="font-family: GraphikLCG-Regular; font-size: 40px; text-anchor: middle; text-align: center;"></text>
</g>
<path id="u7" style="fill:#FFFFFF;stroke:#FFFFFF;stroke-miterlimit:10;" d="M987.61,1551.97c-7.29,0-13.2-5.91-13.2-13.2
	c0-7.29,5.91-13.2,13.2-13.2c7.29,0,13.2,5.91,13.2,13.2C1000.8,1546.06,994.89,1551.97,987.61,1551.97z"></path>
<path id="u3" style="fill:#FFFFFF;stroke:#FFFFFF;stroke-miterlimit:10;" d="M1462.98,1500.76c-7.29,0-13.2-5.91-13.2-13.2
	c0-7.29,5.91-13.2,13.2-13.2c7.29,0,13.2,5.91,13.2,13.2C1476.18,1494.85,1470.27,1500.76,1462.98,1500.76z"></path>
<g id="mebel">
	<g>
		<g>
			<rect x="975.03" y="275.46" style="fill:none;stroke:#000000;stroke-miterlimit:10;" width="113.4" height="447.63"></rect>
			<line style="fill:none;stroke:#000000;stroke-miterlimit:10;" x1="987.44" y1="723.08" x2="987.35" y2="275.48"></line>
		</g>
		<line style="fill:none;stroke:#000000;stroke-miterlimit:10;" x1="975.03" y1="423.99" x2="1088.43" y2="423.99"></line>
		<line style="fill:none;stroke:#000000;stroke-miterlimit:10;" x1="975.03" y1="572.53" x2="1088.43" y2="572.53"></line>
	</g>
	<g>
		<g>
			<rect x="1510.47" y="1318.13" style="fill:none;stroke:#000000;stroke-miterlimit:10;" width="141.75" height="200.36"></rect>
			<line style="fill:none;stroke:#000000;stroke-miterlimit:10;" x1="1522.88" y1="1518.49" x2="1522.79" y2="1318.13"></line>
		</g>
		<path style="fill:none;stroke:#000000;stroke-miterlimit:10;" d="M1652.22,1384.62"></path>
		<path style="fill:none;stroke:#000000;stroke-miterlimit:10;" d="M1510.47,1384.62"></path>
		<line style="fill:none;stroke:#000000;stroke-miterlimit:10;" x1="1510.47" y1="1418.31" x2="1652.22" y2="1418.31"></line>
	</g>
	<g>
		<polygon style="fill:none;stroke:#000000;stroke-miterlimit:10;" points="1128.97,737.24 1128.97,881.14 985.09,881.14 
			985.06,737.24 		"></polygon>
		<g>
			<line style="fill:none;stroke:#000000;stroke-miterlimit:10;" x1="1022.37" y1="809.19" x2="1091.65" y2="809.19"></line>
			<line style="fill:none;stroke:#000000;stroke-miterlimit:10;" x1="1057.01" y1="774.55" x2="1057.01" y2="843.83"></line>
			<polyline style="fill:none;stroke:#000000;stroke-miterlimit:10;" points="1030.07,791.87 1039.69,809.19 1030.07,826.51 			"></polyline>
			<polyline style="fill:none;stroke:#000000;stroke-miterlimit:10;" points="1039.69,836.13 1057.01,826.51 1074.33,836.13 			"></polyline>
			<polyline style="fill:none;stroke:#000000;stroke-miterlimit:10;" points="1083.96,826.51 1074.33,809.19 1083.96,791.87 			"></polyline>
			<polyline style="fill:none;stroke:#000000;stroke-miterlimit:10;" points="1074.33,782.25 1057.01,791.87 1039.69,782.25 			"></polyline>
		</g>
	</g>
	<g>
		<polygon style="fill:none;stroke:#000000;stroke-miterlimit:10;" points="1067.91,1470.04 1067.91,1580.38 1212.1,1580.38 
			1212.12,1470.04 		"></polygon>
		<path style="fill:none;stroke:#000000;stroke-miterlimit:10;" d="M1170.21,1523.37l-34.82,15.68c-2.13,0.85-4.47,1.32-6.93,1.32
			c-9.88,0-17.89-7.61-17.89-17s8.01-17,17.89-17c2.46,0,4.8,0.47,6.93,1.32L1170.21,1523.37z"></path>
	</g>
	<g>
		<polyline style="fill:none;stroke:#000000;stroke-miterlimit:10;" points="1225.15,1664.41 1510.76,1664.44 1510.45,1518.48 
			1310.88,1518.44 		"></polyline>
		<line style="fill:none;stroke:#000000;stroke-miterlimit:10;" x1="1509.66" y1="1531.34" x2="1298.02" y2="1531.28"></line>
		<path style="fill:none;stroke:#000000;stroke-miterlimit:10;" d="M1365.29,1518.46"></path>
		<path style="fill:none;stroke:#000000;stroke-miterlimit:10;" d="M1365.29,1666.04"></path>
		<g>
			<polyline style="fill:none;stroke:#000000;stroke-miterlimit:10;" points="1310.88,1518.44 1310.92,1310.97 1225.19,1310.96 
				1225.15,1664.17 			"></polyline>
			<line style="fill:none;stroke:#000000;stroke-miterlimit:10;" x1="1298.02" y1="1531.31" x2="1298.08" y2="1310.96"></line>
		</g>
		<line style="fill:none;stroke:#000000;stroke-miterlimit:10;" x1="1406.13" y1="1664.43" x2="1406.13" y2="1518.45"></line>
		<line style="fill:none;stroke:#000000;stroke-miterlimit:10;" x1="1310.71" y1="1423" x2="1225.17" y2="1423"></line>
	</g>
	<g>
		<g>
			<g>
				<g>
					<g>
						<g>
							<g>
								
									<rect x="443.3" y="276.39" transform="matrix(-1 -3.253903e-06 3.253903e-06 -1 1270.7811 567.8071)" style="fill:none;stroke:#000000;stroke-miterlimit:10;" width="384.18" height="15.03"></rect>
								
									<rect x="443.3" y="291.42" transform="matrix(-1 -3.115783e-06 3.115783e-06 -1 1270.7784 1061.2147)" style="fill:none;stroke:#000000;stroke-miterlimit:10;" width="384.18" height="478.38"></rect>
								<path style="fill:none;stroke:#000000;stroke-miterlimit:10;" d="M642.12,380.21l-13.22,0l0-43.1
									c0-12.89-9.3-23.34-20.78-23.34l-115.22,0c-11.48,0-20.78,10.45-20.78,23.34l0,43.1l-13.22,0l0-75.45
									c0-3.22,2.33-5.83,5.2-5.83l342.62,0c2.87,0,5.2,2.61,5.2,5.83l0,75.45l-13.22,0l0-43.1c0-12.89-9.3-23.34-20.78-23.34
									l-114.99,0c-11.48,0-20.78,10.45-20.78,23.34L642.12,380.21z"></path>
								<path style="fill:none;stroke:#000000;stroke-miterlimit:10;" d="M811.15,757.81l-351.51,0c-0.41,0-0.75-0.33-0.75-0.75
									l0-376.85l353.01,0l0,376.85C811.89,757.47,811.56,757.81,811.15,757.81z"></path>
							</g>
						</g>
						
							<rect x="348.52" y="283.26" transform="matrix(1.042985e-06 -1 1 1.042985e-06 72.1273 726.5594)" style="fill:none;stroke:#000000;stroke-miterlimit:10;" width="101.66" height="87.91"></rect>
						
							<rect x="820.61" y="283.26" transform="matrix(1.042985e-06 -1 1 1.042985e-06 544.2213 1198.6539)" style="fill:none;stroke:#000000;stroke-miterlimit:10;" width="101.66" height="87.91"></rect>
					</g>
				</g>
			</g>
			<g>
				<g>
					<circle style="fill:#FFFFFF;stroke:#000000;stroke-miterlimit:10;" cx="398.45" cy="331.28" r="26.36"></circle>
					<circle style="fill:#FFFFFF;stroke:#000000;stroke-miterlimit:10;" cx="398.45" cy="331.28" r="9.41"></circle>
				</g>
				<line style="fill:#FFFFFF;stroke:#000000;stroke-miterlimit:10;" x1="398.45" y1="321.87" x2="398.45" y2="340.68"></line>
				<line style="fill:#FFFFFF;stroke:#000000;stroke-miterlimit:10;" x1="407.85" y1="331.28" x2="389.04" y2="331.28"></line>
			</g>
			<g>
				<g>
					<circle style="fill:#FFFFFF;stroke:#000000;stroke-miterlimit:10;" cx="871.44" cy="331.28" r="26.36"></circle>
					<circle style="fill:#FFFFFF;stroke:#000000;stroke-miterlimit:10;" cx="871.44" cy="331.28" r="9.41"></circle>
				</g>
				<line style="fill:#FFFFFF;stroke:#000000;stroke-miterlimit:10;" x1="871.44" y1="321.87" x2="871.44" y2="340.68"></line>
				<line style="fill:#FFFFFF;stroke:#000000;stroke-miterlimit:10;" x1="880.84" y1="331.28" x2="862.03" y2="331.28"></line>
			</g>
		</g>
	</g>
	<g>
		<g>
			<g>
				<path style="fill:none;stroke:#000000;stroke-miterlimit:10;" d="M747.72,1459.07l-33.94,2.28c-21.23,1.42-38,18.58-38.94,39.85
					l-0.11,2.42c-0.94,21.25,14.24,39.8,35.25,43.11l33.65,5.29L747.72,1459.07z"></path>
				<path style="fill:none;stroke:#000000;stroke-miterlimit:10;" d="M715.35,1559.78l-7.42-1.17c-26.9-4.23-46.34-27.99-45.14-55.2
					l0.14-3.09c1.2-27.23,22.67-49.2,49.87-51.03l7.44-0.5c3.6-0.24,6.6,2.7,6.44,6.3l0,0c-0.14,3.08-2.56,5.56-5.63,5.77
					l-7.27,0.49c-21.23,1.42-38,18.58-38.94,39.85l-0.11,2.42c-0.94,21.25,14.24,39.8,35.25,43.11l7.25,1.14
					c3.04,0.48,5.23,3.16,5.09,6.23l0,0C722.16,1557.68,718.91,1560.34,715.35,1559.78z"></path>
			</g>
			<g>
				<path style="fill:none;stroke:#000000;stroke-miterlimit:10;" d="M915.41,1465.1l15.83-30.11c9.91-18.84,4.07-42.11-13.56-54.04
					l-2-1.36c-17.61-11.92-41.37-8.71-55.18,7.46l-22.12,25.9L915.41,1465.1z"></path>
				<path style="fill:none;stroke:#000000;stroke-miterlimit:10;" d="M846.56,1384.79l4.88-5.71c17.69-20.71,48.11-24.82,70.67-9.55
					l2.56,1.74c22.57,15.28,30.04,45.08,17.36,69.2l-3.47,6.6c-1.68,3.19-5.76,4.21-8.74,2.19l0,0c-2.55-1.73-3.4-5.09-1.96-7.82
					l3.39-6.45c9.91-18.84,4.07-42.11-13.56-54.04l-2-1.36c-17.61-11.92-41.37-8.71-55.18,7.46l-4.77,5.58
					c-2,2.34-5.43,2.8-7.98,1.08l0,0C844.78,1391.7,844.22,1387.53,846.56,1384.79z"></path>
			</g>
			<g>
				<path style="fill:none;stroke:#000000;stroke-miterlimit:10;" d="M829.15,1604.5l19.3,28.01
					c12.07,17.53,35.39,23.17,54.15,13.11l2.13-1.14c18.74-10.05,26.94-32.58,19.05-52.33l-12.65-31.63L829.15,1604.5z"></path>
				<path style="fill:none;stroke:#000000;stroke-miterlimit:10;" d="M932.27,1580.87l2.79,6.97c10.11,25.29-0.39,54.14-24.39,67.01
					l-2.73,1.46c-24.02,12.88-53.88,5.65-69.34-16.79l-4.23-6.14c-2.04-2.97-1.05-7.05,2.12-8.76l0,0c2.71-1.46,6.09-0.64,7.84,1.9
					l4.13,6c12.07,17.53,35.39,23.17,54.15,13.11l2.13-1.14c18.74-10.05,26.94-32.58,19.05-52.33l-2.72-6.81
					c-1.14-2.85,0.04-6.11,2.75-7.56l0,0C926.98,1576.08,930.93,1577.52,932.27,1580.87z"></path>
			</g>
			<circle style="fill:#FFFFFF;stroke:#000000;stroke-miterlimit:10;" cx="829.88" cy="1508.97" r="96.17"></circle>
		</g>
		<g>
			<path style="fill:none;stroke:#000000;stroke-miterlimit:10;" d="M804.17,1563.67l3.47-6.65c-0.58-0.18-1.15-0.39-1.7-0.68
				s-1.05-0.64-1.53-1l-3.47,6.65c-0.27,0.52-0.07,1.15,0.45,1.42l1.36,0.71C803.26,1564.39,803.9,1564.19,804.17,1563.67z"></path>
			<circle style="fill:none;stroke:#000000;stroke-miterlimit:10;" cx="810.66" cy="1547.26" r="10.23"></circle>
		</g>
		<g>
			<g>
				<circle style="fill:none;stroke:#000000;stroke-miterlimit:10;" cx="777.7" cy="1505.03" r="19.46"></circle>
			</g>
			<g>
				<circle style="fill:none;stroke:#000000;stroke-miterlimit:10;" cx="777.7" cy="1505.03" r="11.08"></circle>
			</g>
			<g>
				
					<ellipse transform="matrix(0.0274 -0.9996 0.9996 0.0274 -775.7729 2288.8345)" style="fill:none;stroke:#000000;stroke-miterlimit:10;" cx="788.33" cy="1543.08" rx="3.02" ry="4.9"></ellipse>
				<line style="fill:none;stroke:#000000;stroke-miterlimit:10;" x1="783.43" y1="1542.95" x2="762" y2="1542.36"></line>
			</g>
			<g>
				<path style="fill:none;stroke:#000000;stroke-miterlimit:10;" d="M795.13,1473.73l-4.9-0.13c-2.7-0.07-4.93,1.22-4.98,2.88
					c-0.05,1.66,2.11,3.07,4.82,3.15l4.9,0.13"></path>
				<line style="fill:none;stroke:#000000;stroke-miterlimit:10;" x1="785.25" y1="1476.47" x2="763.82" y2="1475.89"></line>
			</g>
			<line style="fill:none;stroke:#000000;stroke-miterlimit:10;" x1="795.05" y1="1476.74" x2="785.25" y2="1476.47"></line>
			<g>
				<path style="fill:none;stroke:#000000;stroke-miterlimit:10;" d="M775.3,1535.29l0.13-4.68l18.12,0.5l-0.1,3.65
					c-0.02,0.57-0.49,1.02-1.06,1.01L775.3,1535.29z"></path>
				<path style="fill:none;stroke:#000000;stroke-miterlimit:10;" d="M762.22,1534.42l0.1-3.65c0.01-0.29,0.25-0.51,0.53-0.5
					l12.59,0.34l-0.13,4.68l-12.59-0.34C762.43,1534.94,762.21,1534.7,762.22,1534.42z"></path>
			</g>
		</g>
		<g>
			<circle style="fill:none;stroke:#000000;stroke-miterlimit:10;" cx="847.4" cy="1508.39" r="26.58"></circle>
			<circle style="fill:none;stroke:#000000;stroke-miterlimit:10;" cx="861.59" cy="1510.58" r="7.64"></circle>
			<circle style="fill:none;stroke:#000000;stroke-miterlimit:10;" cx="850.25" cy="1500.31" r="7.64"></circle>
			<circle style="fill:none;stroke:#000000;stroke-miterlimit:10;" cx="846.28" cy="1515.06" r="7.64"></circle>
			<path style="fill:none;stroke:#000000;stroke-miterlimit:10;" d="M839.96,1526.18l1.33-1.11l-4.52-4.97
				c-5.49-12.24,1.53-20.54,4.99-25.49c0.8-1.14-0.41-2.63-1.7-2.09c-4.56,1.91-11.06,5.85-12.59,13.16
				c-1.75,8.37,4.31,13.29,7.78,15.37L839.96,1526.18z"></path>
		</g>
	</g>
	
		<rect x="1103.7" y="1217.2" transform="matrix(-1.836970e-16 1 -1 -1.836970e-16 2430.845 149.2843)" style="fill:none;stroke:#000000;stroke-miterlimit:10;" width="74.16" height="145.74"></rect>
	
		<rect x="1099.02" y="767.18" transform="matrix(-1.836970e-16 1 -1 -1.836970e-16 1980.161 -361.7812)" style="fill:none;stroke:#000000;stroke-miterlimit:10;" width="143.9" height="84.01"></rect>
	<g>
		<g>
			<g>
				
					<rect x="538.62" y="833.73" transform="matrix(-1.985611e-06 1 -1 -1.985611e-06 1518.9154 425.715)" style="fill:none;stroke:#000000;stroke-miterlimit:10;" width="15.96" height="277.16"></rect>
				<polygon style="fill:none;stroke:#000000;stroke-miterlimit:10;" points="436.85,996.25 408.02,980.29 685.18,980.29 
					656.35,996.25 				"></polygon>
			</g>
		</g>
	</g>
	<g>
		<g>
			<g>
				<path style="fill:none;stroke:#000000;stroke-miterlimit:10;" d="M444.57,1104.71h-243.6c-0.59,0-1.07,0.48-1.07,1.07v143.31
					c0,0.59,0.48,1.07,1.07,1.07h243.6c0.59,0,1.07-0.48,1.07-1.07v-143.31C445.65,1105.19,445.17,1104.71,444.57,1104.71z"></path>
				<path style="fill:none;stroke:#000000;stroke-miterlimit:10;" d="M444.57,1104.71h-243.6c-0.59,0-1.07-0.48-1.07-1.07v-56.54
					c0-0.59,0.48-1.07,1.07-1.07h243.6c0.59,0,1.07,0.48,1.07,1.07v56.54C445.65,1104.23,445.17,1104.71,444.57,1104.71z"></path>
				<path style="fill:none;stroke:#000000;stroke-miterlimit:10;" d="M446.72,1104.71h236.65c0.59,0,1.07,0.48,1.07,1.07v143.31
					c0,0.59-0.48,1.07-1.07,1.07H446.72c-0.59,0-1.07-0.48-1.07-1.07v-143.31C445.65,1105.19,446.13,1104.71,446.72,1104.71z"></path>
				<path style="fill:none;stroke:#000000;stroke-miterlimit:10;" d="M446.72,1104.71h236.65c0.59,0,1.07-0.48,1.07-1.07v-56.54
					c0-0.59-0.48-1.07-1.07-1.07H446.72c-0.59,0-1.07,0.48-1.07,1.07v56.54C445.65,1104.23,446.13,1104.71,446.72,1104.71z"></path>
			</g>
		</g>
		<g>
			<path style="fill:none;stroke:#000000;stroke-miterlimit:10;" d="M628.55,1207.1l0-0.02c3.72-17.6,10.18-34.5,19.16-50.09
				l0.01-0.01c2.34-4.06,0.03-9.22-4.55-10.19l-0.02,0c-17.6-3.72-34.5-10.18-50.09-19.16l-0.01-0.01
				c-4.06-2.34-9.22-0.04-10.19,4.55l0,0.02c-1.75,8.29-4.16,16.42-7.11,24.34c10.09,0.45,20.22,0.11,30.28-1.05l5.94-0.69
				c2.66-0.31,4.84,2.07,4.31,4.69l-1.19,5.86c-2.55,12.59-3.1,25.51-1.63,38.27l0.67,5.82c1.4,0.75,2.83,1.42,4.21,2.21l0.01,0.01
				C622.42,1213.99,627.58,1211.69,628.55,1207.1z"></path>
			<path style="fill:none;stroke:#000000;stroke-miterlimit:10;" d="M538.15,1210.83l5.94-0.69c19.85-2.29,39.93-1.44,59.51,2.53
				l5.86,1.19c2.62,0.53,5-1.65,4.69-4.31l-0.69-5.94c-1.47-12.76-0.92-25.68,1.62-38.27l1.19-5.86c0.53-2.62-1.65-5-4.31-4.69
				l-5.94,0.69c-19.85,2.29-39.93,1.44-59.51-2.53l-5.86-1.19c-2.62-0.53-5,1.65-4.69,4.31l0.69,5.94
				c1.47,12.76,0.92,25.68-1.62,38.27l-1.19,5.86C533.31,1208.76,535.5,1211.14,538.15,1210.83z"></path>
		</g>
		<g>
			<path style="fill:none;stroke:#000000;stroke-miterlimit:10;" d="M258.19,1206.42l0-0.02c-3.72-17.6-10.18-34.5-19.16-50.09
				l-0.01-0.01c-2.34-4.06-0.03-9.22,4.55-10.19l0.02,0c17.6-3.72,34.5-10.18,50.09-19.16l0.01-0.01c4.06-2.34,9.22-0.04,10.19,4.55
				l0,0.02c1.75,8.3,4.16,16.42,7.11,24.34c-10.09,0.45-20.21,0.11-30.28-1.05l-5.94-0.69c-2.66-0.31-4.84,2.07-4.31,4.69l1.19,5.86
				c2.55,12.59,3.1,25.51,1.63,38.27l-0.67,5.82c-1.4,0.75-2.83,1.42-4.21,2.21l-0.01,0.01
				C264.32,1213.31,259.16,1211,258.19,1206.42z"></path>
			<path style="fill:none;stroke:#000000;stroke-miterlimit:10;" d="M348.59,1210.15l-5.94-0.69c-19.85-2.29-39.93-1.44-59.51,2.53
				l-5.86,1.19c-2.62,0.53-5-1.65-4.69-4.31l0.69-5.94c1.47-12.76,0.92-25.68-1.62-38.27l-1.19-5.86c-0.53-2.62,1.65-5,4.31-4.69
				l5.94,0.69c19.85,2.29,39.93,1.44,59.51-2.53l5.86-1.19c2.62-0.53,5,1.65,4.69,4.31l-0.69,5.94
				c-1.47,12.76-0.92,25.68,1.62,38.27l1.19,5.86C353.42,1208.08,351.24,1210.46,348.59,1210.15z"></path>
		</g>
	</g>
	<g>
		<g>
			<g>
				
					<rect x="449.62" y="1575.71" transform="matrix(-1.985611e-06 1 -1 -1.985611e-06 2158.6411 1244.8834)" style="fill:none;stroke:#000000;stroke-miterlimit:10;" width="14.52" height="252.1"></rect>
				<polygon style="fill:none;stroke:#000000;stroke-miterlimit:10;" points="357.05,1723.54 330.83,1709.02 582.93,1709.02 
					556.71,1723.54 				"></polygon>
			</g>
		</g>
		<g>
			
				<rect x="434.79" y="1538.43" transform="matrix(2.676195e-06 -1 1 2.676195e-06 -1238.3818 2158.3242)" style="fill:none;stroke:#000000;stroke-miterlimit:10;" width="50.36" height="319.86"></rect>
		</g>
	</g>
	<g>
		<path style="fill:none;stroke:#000000;stroke-miterlimit:10;" d="M361.35,1317.19c0,9.68,0,43.68,0,53.36
			c0,9.91,8.53,14.97,19.13,16.62c43.22,6.02,87.13,6.02,130.34,0c10.59-1.65,19.13-6.71,19.13-16.62c0-9.68,0-43.68,0-53.36
			c0-9.91-8.53-14.97-19.13-16.62c-43.22-6.02-87.13-6.02-130.34,0C369.88,1302.22,361.35,1307.29,361.35,1317.19z"></path>
		<g>
			<path style="fill:none;stroke:#000000;stroke-miterlimit:10;" d="M438.31,1329.1l56.29-18.89c0.35-0.12,0.73,0.07,0.85,0.42
				l12.76,38.03c0.12,0.35-0.07,0.73-0.42,0.85l-56.29,18.89c-0.35,0.12-0.73-0.07-0.85-0.42l-12.76-38.03
				C437.77,1329.6,437.96,1329.22,438.31,1329.1z"></path>
			
				<rect x="451.73" y="1335.35" transform="matrix(-0.948 0.3181 -0.3181 -0.948 1353.543 2469.8389)" style="fill:none;stroke:#000000;stroke-miterlimit:10;" width="46.76" height="20.17"></rect>
			
				<rect x="459.66" y="1321.76" transform="matrix(-0.948 0.3181 -0.3181 -0.948 1336.0714 2436.7346)" style="fill:none;stroke:#000000;stroke-miterlimit:10;" width="18.83" height="11.4"></rect>
			<path style="fill:none;stroke:#000000;stroke-miterlimit:10;" d="M450.86,1368.62l57.57-19.32l10.49,10.09
				c1.47,1.41,0.91,3.87-1.01,4.52l-65.8,22.08c-1.93,0.65-3.85-0.98-3.53-2.99L450.86,1368.62z"></path>
		</g>
		<g>
			<path style="fill:none;stroke:#000000;stroke-miterlimit:10;" d="M369.53,1356.12l5.13,5.06c0.33-0.48,0.68-0.94,1.1-1.37
				c0.42-0.43,0.88-0.79,1.36-1.12l-5.13-5.06c-0.4-0.39-1.04-0.39-1.43,0.01l-1.04,1.05
				C369.13,1355.09,369.14,1355.73,369.53,1356.12z"></path>
			<circle style="fill:none;stroke:#000000;stroke-miterlimit:10;" cx="382.78" cy="1366.73" r="9.84"></circle>
		</g>
		<g>
			<g>
				<g>
					<line style="fill:none;stroke:#000000;stroke-miterlimit:10;" x1="408.99" y1="1341.23" x2="404.73" y2="1341.23"></line>
					<line style="fill:none;stroke:#000000;stroke-miterlimit:10;" x1="408.99" y1="1336.39" x2="404.73" y2="1336.39"></line>
					<line style="fill:none;stroke:#000000;stroke-miterlimit:10;" x1="408.99" y1="1326.7" x2="404.73" y2="1326.7"></line>
					<line style="fill:none;stroke:#000000;stroke-miterlimit:10;" x1="408.99" y1="1331.54" x2="404.73" y2="1331.54"></line>
					<line style="fill:none;stroke:#000000;stroke-miterlimit:10;" x1="408.99" y1="1321.85" x2="404.73" y2="1321.85"></line>
					<line style="fill:none;stroke:#000000;stroke-miterlimit:10;" x1="408.99" y1="1317.01" x2="404.73" y2="1317.01"></line>
				</g>
				<g>
					
						<rect x="406.97" y="1312.16" transform="matrix(-1 -1.224647e-16 1.224647e-16 -1 840.479 2658.24)" style="fill:none;stroke:#000000;stroke-miterlimit:10;" width="26.53" height="33.92"></rect>
				</g>
				<polygon style="fill:none;stroke:#000000;stroke-miterlimit:10;" points="406.97,1312.16 380.45,1312.16 380.45,1318.37 
					390.83,1329.88 391.55,1333.39 388.13,1332.31 380.45,1323.79 380.45,1346.08 406.97,1346.08 				"></polygon>
			</g>
			<path style="fill:none;stroke:#000000;stroke-miterlimit:10;" d="M369.83,1309.31L369.83,1309.31c0.74-0.67,1.89-0.61,2.56,0.13
				l18.43,20.44l0.72,3.51l-3.41-1.08l-18.43-20.44C369.03,1311.13,369.09,1309.98,369.83,1309.31z"></path>
		</g>
	</g>
	<g>
		<circle style="fill:none;stroke:#000000;stroke-miterlimit:10;" cx="1569.4" cy="824.4" r="53.14"></circle>
		<circle style="fill:none;stroke:#000000;stroke-miterlimit:10;" cx="1569.4" cy="824.4" r="46.89"></circle>
	</g>
	<g>
		<g>
			<path style="fill:none;stroke:#000000;stroke-miterlimit:10;" d="M353.76,898.95c1.09-0.45,2.22-0.83,3.38-1.13"></path>
			<path style="fill:none;stroke:#000000;stroke-miterlimit:10;" d="M389.08,923.06c-0.04,1.86-0.28,3.75-0.75,5.63
				c-0.1,0.42-0.22,0.84-0.34,1.25"></path>
		</g>
		<g>
			<path style="fill:none;stroke:#000000;stroke-miterlimit:10;" d="M386.22,924.99c-0.11,1.01-0.29,2.03-0.54,3.04"></path>
			<path style="fill:none;stroke:#000000;stroke-miterlimit:10;" d="M355.41,901.23c0.96-0.37,1.95-0.67,2.96-0.91"></path>
		</g>
		<g>
			<path style="fill:none;stroke:#000000;stroke-miterlimit:10;" d="M379.84,885.81c-1.06-1.99-2.57-3.94-4.69-5.72
				c-14.02,1.3-17.57,15.31-17.57,15.31c-0.85,2.71,0.37,5.57,2.77,6.89"></path>
		</g>
		<line style="fill:none;stroke:#000000;stroke-miterlimit:10;" x1="372.15" y1="888.28" x2="375.15" y2="880.38"></line>
		<line style="fill:none;stroke:#000000;stroke-miterlimit:10;" x1="359.2" y1="922.35" x2="364.37" y2="908.74"></line>
		<g>
			<path style="fill:none;stroke:#000000;stroke-miterlimit:10;" d="M363.84,934.93C363.84,934.93,363.84,934.93,363.84,934.93
				C363.83,934.92,363.83,934.91,363.84,934.93z"></path>
			<path style="fill:none;stroke:#000000;stroke-miterlimit:10;" d="M348.7,946.25c3.67,6.23,12.34,17.06,28.29,16.74
				c2.89-3.03,4.88-6.22,6.19-9.39"></path>
			<path style="fill:none;stroke:#000000;stroke-miterlimit:10;" d="M364.29,934.17c-0.96-2.16-2.78-3.72-4.92-4.58"></path>
			<path style="fill:none;stroke:#000000;stroke-miterlimit:10;" d="M373.82,920.8c-1.36-0.05-2.76,0.2-4.09,0.79
				c-4.71,2.08-7.51,7.87-5.44,12.59c0.42,0.96,0.25,0.59,0.21,0.47"></path>
			<path style="fill:none;stroke:#000000;stroke-miterlimit:10;" d="M383.01,928.69c-0.55-1.48-0.98-2.32-0.98-2.32"></path>
		</g>
		<line style="fill:none;stroke:#000000;stroke-miterlimit:10;" x1="359.2" y1="922.5" x2="376.98" y2="962.98"></line>
		<g>
			<path style="fill:none;stroke:#000000;stroke-miterlimit:10;" d="M375.99,907.97C375.98,907.97,375.98,907.97,375.99,907.97
				C375.97,907.98,375.97,907.98,375.99,907.97z"></path>
			<path style="fill:none;stroke:#000000;stroke-miterlimit:10;" d="M376.89,909.1C376.89,909.1,376.89,909.09,376.89,909.1
				C376.88,909.1,376.88,909.11,376.89,909.1z"></path>
			<path style="fill:none;stroke:#000000;stroke-miterlimit:10;" d="M363.85,893.8c-4,3.24-4.62,9.12-1.38,13.12
				c3.24,4,9.57,5.18,13.57,1.94c0.82-0.66,0.5-0.4,0.4-0.32c0.31-0.25,0.56-0.45,0.56-0.45s-0.25,0.2-0.56,0.45
				c0.09-0.08,0,0-0.4,0.32c-3.42,2.79-4.04,7.9-2.1,11.83c0.32,0.66,0.72,1.28,1.18,1.85c3.24,4,9.11,4.62,13.12,1.38
				c0,0,0.31-0.22,0.83-0.65c3.54-2.93,16.93-15.53,11.44-34.22C380.84,878.42,363.85,893.8,363.85,893.8z"></path>
		</g>
		<line style="fill:none;stroke:#000000;stroke-miterlimit:10;" x1="359.2" y1="922.5" x2="400.5" y2="889.04"></line>
		<g>
			<path style="fill:none;stroke:#000000;stroke-miterlimit:10;" d="M356.16,904.85c0.29-1.86-0.31-3.84-1.79-5.22
				c0,0-10-10.42-22.84-4.61c-1.83,4.92-1.44,9.3-0.23,12.85"></path>
		</g>
		<line style="fill:none;stroke:#000000;stroke-miterlimit:10;" x1="340.75" y1="904.18" x2="331.53" y2="895.02"></line>
		<line style="fill:none;stroke:#000000;stroke-miterlimit:10;" x1="359.2" y1="922.5" x2="356.64" y2="919.96"></line>
		<g>
			<path style="fill:none;stroke:#000000;stroke-miterlimit:10;" d="M350.02,923.22C350.02,923.22,350.02,923.22,350.02,923.22
				C350.04,923.22,350.03,923.22,350.02,923.22z"></path>
			<path style="fill:none;stroke:#000000;stroke-miterlimit:10;" d="M350.02,921.78C350.02,921.78,350.02,921.78,350.02,921.78
				C350.03,921.78,350.04,921.78,350.02,921.78z"></path>
			<path style="fill:none;stroke:#000000;stroke-miterlimit:10;" d="M359.86,932.55c0-5.15-4.18-10.05-9.33-10.05"></path>
			<path style="fill:none;stroke:#000000;stroke-miterlimit:10;" d="M350.02,922.5c-0.13,0.01,0,0,0.51,0
				c5.15-0.01,9.33-4.9,9.33-10.05s-4.18-9.33-9.33-9.33c0,0-22.89-1.25-31.48,19.38c3.57,8.56,9.59,13.35,15.42,16.03"></path>
		</g>
		<line style="fill:none;stroke:#000000;stroke-miterlimit:10;" x1="341.83" y1="922.5" x2="319.05" y2="922.5"></line>
		<g>
			<path style="fill:none;stroke:#000000;stroke-miterlimit:10;" d="M350.48,931.71C350.48,931.71,350.48,931.71,350.48,931.71
				C350.49,931.7,350.48,931.7,350.48,931.71z"></path>
			<path style="fill:none;stroke:#000000;stroke-miterlimit:10;" d="M349.84,931.06C349.83,931.06,349.83,931.06,349.84,931.06
				C349.84,931.05,349.84,931.05,349.84,931.06z"></path>
			<path style="fill:none;stroke:#000000;stroke-miterlimit:10;" d="M359,939.81c2.3-2.29,2.31-6.01,0.02-8.31
				c-2.29-2.3-6.33-2.63-8.63-0.34c-0.47,0.47-0.29,0.28-0.23,0.23c-0.18,0.17-0.32,0.32-0.32,0.32s0.14-0.14,0.32-0.32
				c-0.05,0.06,0,0,0.23-0.23c2.29-2.3,1.99-6.33-0.3-8.63c-2.29-2.3-6.01-2.31-8.31-0.02c0,0-10.78,9.62-5.44,22.65
				c4.86,2.02,9.26,1.78,12.85,0.69C355.21,944.02,359,939.81,359,939.81z"></path>
		</g>
		<line style="fill:none;stroke:#000000;stroke-miterlimit:10;" x1="359.2" y1="922.32" x2="336.33" y2="945.15"></line>
		<g>
			<path style="fill:none;stroke:#000000;stroke-miterlimit:10;" d="M380.51,938.88C380.51,938.88,380.51,938.88,380.51,938.88
				C380.5,938.87,380.5,938.88,380.51,938.88z"></path>
			<path style="fill:none;stroke:#000000;stroke-miterlimit:10;" d="M379.93,939.59C379.93,939.59,379.93,939.59,379.93,939.59
				C379.93,939.58,379.92,939.58,379.93,939.59z"></path>
			<path style="fill:none;stroke:#000000;stroke-miterlimit:10;" d="M387.65,929.54c-2.52-2.04-6.22-1.65-8.26,0.87
				s-1.94,6.58,0.59,8.62c0.52,0.42,0.31,0.26,0.25,0.2c0.19,0.16,0.35,0.28,0.35,0.28s-0.16-0.13-0.35-0.28c0.06,0.05,0,0-0.25-0.2
				c-2.53-2.03-6.51-1.3-8.55,1.23s-1.65,6.22,0.87,8.26c0,0,10.72,9.68,23.1,2.98C399.36,937.99,387.65,929.54,387.65,929.54z"></path>
		</g>
		<line style="fill:none;stroke:#000000;stroke-miterlimit:10;" x1="359.2" y1="922.57" x2="395.39" y2="951.51"></line>
	</g>
	<g>
		<path style="fill:none;stroke:#000000;stroke-miterlimit:10;" d="M242.28,1628.5c2.19,1.24,4.2,2.78,5.97,4.57"></path>
		<g>
			<path style="fill:none;stroke:#000000;stroke-miterlimit:10;" d="M214.98,1675.11c-2.13-1.29-4.08-2.87-5.78-4.7"></path>
			<g>
				<g>
					<g>
						<path style="fill:none;stroke:#000000;stroke-miterlimit:10;" d="M226.18,1651.12c-2.8-1.04-5.95-0.54-8.28,1.34
							c-5.11,4.13-14.52,12.26-23.26,22.55c-0.68,0.8,0.16,1.98,1.12,1.59c11.91-4.85,22.08-10.94,27.77-14.63"></path>
						<path style="fill:none;stroke:#000000;stroke-miterlimit:10;" d="M230.35,1652.57c3.34,1.08,7,0.38,9.67-1.9
							c5.03-4.28,13.63-12.1,21.89-21.88c0.68-0.81-0.17-1.98-1.15-1.58c-11.91,4.87-21.79,10.98-27.24,14.64
							c0.07,3.3-1.25,6.46-3.72,8.68"></path>
					</g>
					<path style="fill:none;stroke:#000000;stroke-miterlimit:10;" d="M227.98,1692.76c-3.32-12.69-4.25-23.81-4.49-29.75
						c-0.12-2.86,0.73-5.66,2.44-7.95l1.67-2.24c0.36-0.49,1.07-0.54,1.5-0.12l1.64,1.61c2.64,2.59,3.98,6.22,3.68,9.91
						c-0.51,6.2-1.7,16.66-4.49,28.52C229.68,1693.73,228.24,1693.75,227.98,1692.76z M226.63,1611.08
						c-2.84,12.4-3.75,23.78-4.03,30.3c-0.16,3.55,1.37,6.95,4.11,9.22l0.9,0.75c0.38,0.32,0.94,0.31,1.31-0.03l0.88-0.79
						c2.61-2.35,4-5.75,3.75-9.25c-0.48-6.5-1.72-17.88-4.97-30.22C228.31,1610.05,226.87,1610.08,226.63,1611.08z"></path>
					<g>
						<path style="fill:none;stroke:#000000;stroke-miterlimit:10;" d="M232.28,1656.2c1.3,0.96,2.83,1.57,4.47,1.71
							c5.86,0.51,18.12,1.12,32.03-0.73c1.02-0.14,1.18-1.57,0.21-1.93c-10.02-3.67-19.32-5.99-25.78-7.37
							c-1.16,1.03-2.25,1.99-3.18,2.78c-2.68,2.28-6.33,2.99-9.67,1.9l-1.31-0.42"></path>
						<path style="fill:none;stroke:#000000;stroke-miterlimit:10;" d="M227.61,1651.35l-0.9-0.75c-1.41-1.17-2.49-2.65-3.19-4.29
							c-1.31-0.79-2.8-1.27-4.37-1.32c-6.3-0.2-18.17-0.22-31.38,1.61c-1.02,0.14-1.17,1.58-0.2,1.93
							c10.41,3.74,20.2,5.8,26.79,6.88c1.31-1.12,2.53-2.14,3.55-2.96c2.32-1.88,5.47-2.38,8.28-1.34l1.46,0.54"></path>
					</g>
					<g>
						<path style="fill:none;stroke:#000000;stroke-miterlimit:10;" d="M224.84,1648.61c-0.53-0.72-0.97-1.49-1.32-2.31l0,0
							C223.87,1647.12,224.3,1647.9,224.84,1648.61z"></path>
						<path style="fill:none;stroke:#000000;stroke-miterlimit:10;" d="M219.15,1644.99c1.57,0.05,3.06,0.53,4.37,1.32
							c-0.66-1.53-0.99-3.21-0.92-4.92c0.03-0.78,0.08-1.64,0.13-2.55c-5.77-5.13-13.6-11.57-22.02-16.96
							c-0.88-0.57-1.95,0.43-1.42,1.33c4.81,8.18,10.57,15.85,15.35,21.71C216.33,1644.92,217.88,1644.94,219.15,1644.99z"></path>
						<path style="fill:none;stroke:#000000;stroke-miterlimit:10;" d="M224.85,1648.63c0.54,0.72,1.15,1.38,1.86,1.97
							C226,1650.01,225.38,1649.35,224.85,1648.63z"></path>
						<path style="fill:none;stroke:#000000;stroke-miterlimit:10;" d="M234.3,1665.4c5.72,5.06,13.35,11.29,21.54,16.53
							c0.88,0.57,1.95-0.43,1.42-1.33c-4.99-8.48-11.01-16.44-15.89-22.37c-1.78-0.09-3.37-0.2-4.62-0.31"></path>
						<path style="fill:none;stroke:#000000;stroke-miterlimit:10;" d="M224.84,1648.61c0,0,0,0.01,0.01,0.01
							C224.84,1648.62,224.84,1648.62,224.84,1648.61z"></path>
					</g>
				</g>
				<g>
					<line style="fill:none;stroke:#000000;stroke-miterlimit:10;" x1="233.52" y1="1641.85" x2="233.52" y2="1641.85"></line>
					<path style="fill:none;stroke:#000000;stroke-miterlimit:10;" d="M245.95,1603.41c0.11-1.3-1.62-1.88-2.32-0.78
						c-4.56,7.15-8.98,15.76-12.1,22.17c1.14,6.71,1.73,12.51,2.02,16.47c0.01,0.19-0.03,0.38-0.02,0.58
						c1.74-1.17,3.97-2.6,6.53-4.15C242.16,1629.47,244.78,1617.19,245.95,1603.41z"></path>
					<path style="fill:none;stroke:#000000;stroke-miterlimit:10;" d="M248.93,1668c6.98,2.56,15.64,5.3,25.31,7.36
						c1.27,0.27,2.07-1.37,1.07-2.21c-5.99-4.98-14.19-10.8-20.04-14.84"></path>
					<path style="fill:none;stroke:#000000;stroke-miterlimit:10;" d="M254.44,1650.62c6.95-3.05,15.21-7.04,23.67-11.97
						c1.15-0.67,0.63-2.43-0.7-2.37c-9.26,0.43-17.85,1.62-25.06,2.93"></path>
					<path style="fill:none;stroke:#000000;stroke-miterlimit:10;" d="M233.02,1676.3c4.23,7.25,9.42,15.4,15.32,23.02
						c0.81,1.05,2.51,0.32,2.26-0.98c-1.67-8.7-4.08-17.26-6.52-24.79"></path>
					<path style="fill:none;stroke:#000000;stroke-miterlimit:10;" d="M223.74,1627.84c-4.26-7.33-9.55-15.64-15.53-23.36
						c-0.81-1.05-2.51-0.32-2.26,0.98c1.67,8.69,4.07,17.27,6.51,24.79c3.83,2.99,7.33,5.96,10.28,8.59"></path>
					<path style="fill:none;stroke:#000000;stroke-miterlimit:10;" d="M207.1,1635.08c-7-2.29-15.46-4.73-24.78-6.66
						c-1.27-0.26-2.07,1.38-1.06,2.21c7.2,5.91,14.36,10.78,20.54,14.6"></path>
					<path style="fill:none;stroke:#000000;stroke-miterlimit:10;" d="M214.35,1655.41"></path>
					<path style="fill:none;stroke:#000000;stroke-miterlimit:10;" d="M179.11,1667.51c9.16-0.41,17.78-1.53,25.09-2.78
						c3.75-3.71,7.26-6.85,10.15-9.32c-3.15-0.52-7.07-1.28-11.4-2.32c-7.22,3.02-15.81,7.03-24.5,12.05
						C177.31,1665.8,177.8,1667.57,179.11,1667.51z"></path>
					<path style="fill:none;stroke:#000000;stroke-miterlimit:10;" d="M217,1665.99c-2.2,7.63-5.14,19.9-6.4,34.41
						c-0.11,1.3,1.61,1.88,2.32,0.79c5.03-7.8,9.13-15.2,12.32-21.43"></path>
				</g>
			</g>
			<g>
				<path style="fill:none;stroke:#000000;stroke-miterlimit:10;" d="M211.49,1627.16c-0.54,0.38-1.04,0.79-1.55,1.21"></path>
				<path style="fill:none;stroke:#000000;stroke-miterlimit:10;" d="M224.07,1681.98c0.53,0.09,1.06,0.16,1.6,0.22"></path>
				<path style="fill:none;stroke:#000000;stroke-miterlimit:10;" d="M206.03,1671.93c2.25,2.59,4.93,4.75,7.89,6.44"></path>
				<path style="fill:none;stroke:#000000;stroke-miterlimit:10;" d="M198.6,1651.94c0,0.99,0.05,1.98,0.14,2.98"></path>
				<path style="fill:none;stroke:#000000;stroke-miterlimit:10;" d="M205.49,1632.77c-0.39,0.47-0.75,0.97-1.11,1.46"></path>
				<path style="fill:none;stroke:#000000;stroke-miterlimit:10;" d="M201.61,1665.15c0.24,0.5,0.48,1.01,0.74,1.49"></path>
				<path style="fill:none;stroke:#000000;stroke-miterlimit:10;" d="M251.37,1631.5c-2.43-2.65-5.3-4.83-8.48-6.47"></path>
				<path style="fill:none;stroke:#000000;stroke-miterlimit:10;" d="M259.36,1652.07c0-1.19-0.06-2.38-0.21-3.59"></path>
				<path style="fill:none;stroke:#000000;stroke-miterlimit:10;" d="M232.97,1621.89c-0.67-0.09-1.35-0.15-2.04-0.19"></path>
				<path style="fill:none;stroke:#000000;stroke-miterlimit:10;" d="M224.59,1621.94c-0.66,0.1-1.33,0.22-2,0.36
					c-0.64,0.14-1.25,0.33-1.87,0.5"></path>
				<path style="fill:none;stroke:#000000;stroke-miterlimit:10;" d="M258.2,1660.36c0.21-0.74,0.39-1.49,0.54-2.25"></path>
				<path style="fill:none;stroke:#000000;stroke-miterlimit:10;" d="M245.34,1677.59c0.74-0.47,1.45-0.97,2.13-1.5"></path>
				<path style="fill:none;stroke:#000000;stroke-miterlimit:10;" d="M232.04,1682.24c1.11-0.11,2.22-0.28,3.33-0.51
					c0.27-0.06,0.52-0.15,0.78-0.21"></path>
				<path style="fill:none;stroke:#000000;stroke-miterlimit:10;" d="M251.77,1672.06c0.68-0.77,1.31-1.57,1.9-2.4"></path>
				<path style="fill:none;stroke:#000000;stroke-miterlimit:10;" d="M256.2,1638.57c-0.36-0.74-0.75-1.46-1.17-2.16"></path>
			</g>
		</g>
	</g>
	<g>
		<path style="fill:none;stroke:#000000;stroke-miterlimit:10;" d="M729.72,662.7"></path>
		<path style="fill:none;stroke:#000000;stroke-miterlimit:10;" d="M692.26,624.93c0.52,4.74,1.81,10.31,4.6,16.12
			c7.67,16.02,18.59,24.49,18.59,24.49c-0.78,1.38-1.34,2.9-1.64,4.53c-1.49,8.22,4.15,15.96,12.35,17.13
			c0.74,0.11,1.47,0.15,2.2,0.15l-9.54,12.4c-1.18,1.42-1.19,3.52,0.07,4.86c1.47,1.55,3.92,1.49,5.31-0.08l13.7-16.49
			c0.34-0.38,0.5-0.89,0.43-1.4l-0.37-3.01c2.5-2.22,4.63-5.65,5.15-13.56c1.31-20.07-17.07-30.17-17.07-30.17l-7.01-17.62"></path>
		<path style="fill:none;stroke:#000000;stroke-miterlimit:10;" d="M708.98,696.61l16.23-5.17l3.15-4.1
			c-0.72,0.01-1.46-0.04-2.2-0.15c-2.16-0.31-4.12-1.09-5.84-2.19l-13.56,4.75c-1.82,0.62-2.83,2.56-2.3,4.4
			C705.02,696.09,707.06,697.2,708.98,696.61z"></path>
		<path style="fill:none;stroke:#000000;stroke-miterlimit:10;" d="M781.56,698.48c-16.33,3.27-33.28-6.83-39.22-22.85
			c-0.5,2.18-1.19,3.84-2,5.15c0.09,0.27,0.12,0.54,0.21,0.8c6.09,17.6,24.57,27.66,42.42,23.64c1.77-0.4,2.92-2.1,2.64-3.89
			C785.31,699.41,783.47,698.1,781.56,698.48z"></path>
		<g>
			<path style="fill:none;stroke:#000000;stroke-miterlimit:10;" d="M696.48,606.68c-2.99-3.3-5.87-6.2-9.38-9.91
				c-1.18-1.24-2.51-3.07-4.22-3.17c-1.05-0.07-1.97,0.43-2.58,1.19"></path>
		</g>
		<path style="fill:none;stroke:#000000;stroke-miterlimit:10;" d="M726.42,652.95"></path>
		<path style="fill:none;stroke:#000000;stroke-miterlimit:10;" d="M706.01,601.65c-2.37,1.45-5.16,2.78-7.67,3.99
			c-2.25,1.09-4.77,2.56-5.45,4.98"></path>
		<path style="fill:none;stroke:#000000;stroke-miterlimit:10;" d="M710.95,633.53c-9.36,3.46-18.72-8.97-18.72-8.97
			c-4.58-3.25-14.48-16.53-18.12-28.1c-0.29-0.92-0.47-1.81-0.51-2.67c-0.09-1.71,1.22-3.18,2.94-3.27c1.71-0.09,2.3,1.52,3.27,2.94
			c4.42,6.45,6.91,10.32,10.61,14.6c0.59,0.68,1.53,1.68,2.44,2.64c1.33,1.4,2.61,2.69,2.61,2.69c1.77-0.15,4.32-0.24,7.17,0.09"></path>
		<g>
			<path style="fill:none;stroke:#000000;stroke-miterlimit:10;" d="M718.18,599.11c3.4,1.18,6.12,3.85,7.36,7.23l8.28,4.94
				c0.44,0.26,0.36,0.93-0.14,1.07l-8.13,2.28c-0.66,1.8-1.73,3.4-3.1,4.68c-0.12,0.11-3.59,2.87-3.59,2.87l-1.01,0.83l-1.3,0.99
				c-0.16,0.14-0.33,0.26-0.51,0.38c-0.55,0.36-1.18,0.62-1.86,0.76c-2.86,0.56-5.64-1.3-6.2-4.16c-0.01-0.06-0.02-0.12-0.03-0.18
				c-4.26-2.6-6.79-7.78-5.39-13.39c0.62-2.51,2.1-4.73,4.08-6.33c1.27-1.02,2.74-1.78,4.33-2.2c0.11-0.03,0.21-0.05,0.32-0.08"></path>
			<line style="fill:none;stroke:#000000;stroke-miterlimit:10;" x1="711.63" y1="617.66" x2="709.55" y2="614.57"></line>
			<polygon style="fill:none;stroke:#000000;stroke-miterlimit:10;" points="712.09,621.06 713,623.9 715.84,622.99 			"></polygon>
			<path style="fill:none;stroke:#000000;stroke-miterlimit:10;" d="M707.88,604.32c1.57-3.19,4.63-7.35,7.71-9.87
				c0.52-0.42,1.26-0.04,1.47,0.59c0.43,1.29,1.56,6.14,1.41,10.4c0,0,0.06-0.64,0,0"></path>
		</g>
		<path style="fill:none;stroke:#000000;stroke-miterlimit:10;" d="M713.81,670.07c0.29-1.63,0.86-3.15,1.64-4.53
			c0,0-2.4-1.9-5.68-5.46c-2.22,2.62-3.59,6-3.52,9.7c0.13,7.34,5.67,13.27,12.74,14.2C715.02,680.73,712.83,675.53,713.81,670.07z"></path>
	</g>
</g>
<g id="floor">
	<g>
		
			<rect x="-84.85" y="1359.22" transform="matrix(6.123234e-17 -1 1 6.123234e-17 -1259.2198 1523.9084)" style="fill:none;stroke:#000000;stroke-miterlimit:10;" width="434.39" height="64.69"></rect>
		<line style="fill:none;stroke:#000000;stroke-miterlimit:10;" x1="116.44" y1="1608.76" x2="116.44" y2="1174.37"></line>
		<line style="fill:none;stroke:#000000;stroke-miterlimit:10;" x1="136.22" y1="1608.76" x2="136.22" y2="1174.37"></line>
		
			<rect x="116.48" y="1174.33" transform="matrix(6.123234e-17 -1 1 6.123234e-17 -1057.8882 1310.5476)" style="fill:none;stroke:#000000;stroke-miterlimit:10;" width="19.7" height="19.78"></rect>
		
			<rect x="121.44" y="1302.14" transform="matrix(6.123234e-17 -1 1 6.123234e-17 -1185.6996 1438.359)" style="fill:none;stroke:#000000;stroke-miterlimit:10;" width="9.78" height="19.78"></rect>
		
			<rect x="116.48" y="1589.02" transform="matrix(6.123234e-17 -1 1 6.123234e-17 -1472.5807 1725.2401)" style="fill:none;stroke:#000000;stroke-miterlimit:10;" width="19.7" height="19.78"></rect>
	</g>
	<g>
		
			<rect x="58.59" y="607.24" transform="matrix(6.123234e-17 -1 1 6.123234e-17 -364.9548 915.2234)" style="fill:none;stroke:#000000;stroke-miterlimit:10;" width="433.1" height="65.7"></rect>
		<line style="fill:none;stroke:#000000;stroke-miterlimit:10;" x1="259.74" y1="856.64" x2="259.74" y2="423.54"></line>
		<line style="fill:none;stroke:#000000;stroke-miterlimit:10;" x1="279.52" y1="856.64" x2="279.52" y2="423.54"></line>
		
			<rect x="259.78" y="423.5" transform="matrix(6.123234e-17 -1 1 6.123234e-17 -163.7638 703.0179)" style="fill:none;stroke:#000000;stroke-miterlimit:10;" width="19.7" height="19.78"></rect>
		
			<rect x="264.71" y="551.77" transform="matrix(6.123234e-17 -1 1 6.123234e-17 -292.0327 831.2867)" style="fill:none;stroke:#000000;stroke-miterlimit:10;" width="9.83" height="19.78"></rect>
		
			<rect x="259.78" y="836.9" transform="matrix(6.123234e-17 -1 1 6.123234e-17 -577.1603 1116.4144)" style="fill:none;stroke:#000000;stroke-miterlimit:10;" width="19.7" height="19.78"></rect>
	</g>
	<g>
		<path style="fill:none;stroke:#000000;stroke-miterlimit:10;" d="M1676.15,1269.83c123.09,0,223.85-100.11,223.85-223.87h-222.02"></path>
		
			<rect x="1661.52" y="1029.53" transform="matrix(-1.334952e-10 1 -1 -1.334952e-10 2707.4761 -627.1632)" style="fill:none;stroke:#000000;stroke-miterlimit:10;" width="11.6" height="21.26"></rect>
		
			<rect x="1661.43" y="1265.08" transform="matrix(-1.329623e-10 1 -1 -1.329623e-10 2943.0342 -391.605)" style="fill:none;stroke:#000000;stroke-miterlimit:10;" width="11.78" height="21.26"></rect>
	</g>
	<g>
		<path style="fill:none;stroke:#000000;stroke-miterlimit:10;" d="M1301.36,734.19c0,96.4,78.4,175.31,175.33,175.31V735.63"></path>
		
			<rect x="1476.69" y="718.95" transform="matrix(-1 -8.793201e-11 8.793201e-11 -1 2962.4678 1454.5547)" style="fill:none;stroke:#000000;stroke-miterlimit:10;" width="9.08" height="16.65"></rect>
		
			<rect x="1292.14" y="718.95" transform="matrix(-1 -8.754920e-11 8.754920e-11 -1 2593.5049 1454.5547)" style="fill:none;stroke:#000000;stroke-miterlimit:10;" width="9.22" height="16.65"></rect>
	</g>
	<g>
		<path style="fill:none;stroke:#000000;stroke-miterlimit:10;" d="M749.86,1030.27c0-108.42,88.18-197.17,197.18-197.17v195.55"></path>
		
			<rect x="947.04" y="1028.68" transform="matrix(-1 8.709154e-11 -8.709154e-11 -1 1904.3016 2076.084)" style="fill:none;stroke:#000000;stroke-miterlimit:10;" width="10.21" height="18.73"></rect>
		
			<rect x="739.49" y="1028.68" transform="matrix(-1 8.889188e-11 -8.889188e-11 -1 1489.3503 2076.084)" style="fill:none;stroke:#000000;stroke-miterlimit:10;" width="10.37" height="18.73"></rect>
	</g>
	
		<line style="fill:none;stroke:#000000;stroke-miterlimit:10;stroke-dasharray:10,10;" x1="1220.09" y1="979.49" x2="1220.09" y2="1256.5"></line>
	
		<line style="fill:none;stroke:#000000;stroke-miterlimit:10;stroke-dasharray:10,10;" x1="1535.19" y1="1311" x2="1299.14" y2="1311"></line>
	<g>
		<g id="LWPOLYLINE_256_">
			<rect x="1067.91" y="1327.15" style="fill:none;stroke:#000000;stroke-miterlimit:10;" width="143.51" height="142.97"></rect>
		</g>
		<g id="LWPOLYLINE_255_">
			<line style="fill:none;stroke:#000000;stroke-miterlimit:10;" x1="1126.98" y1="1362.69" x2="1079.73" y2="1362.69"></line>
		</g>
		<g id="LWPOLYLINE_254_">
			<line style="fill:none;stroke:#000000;stroke-miterlimit:10;" x1="1103.35" y1="1386.39" x2="1103.35" y2="1339"></line>
		</g>
		<g id="LWPOLYLINE_253_">
			<line style="fill:none;stroke:#000000;stroke-miterlimit:10;" x1="1197.86" y1="1362.69" x2="1150.61" y2="1362.69"></line>
		</g>
		<g id="LWPOLYLINE_252_">
			<line style="fill:none;stroke:#000000;stroke-miterlimit:10;" x1="1174.23" y1="1386.39" x2="1174.23" y2="1339"></line>
		</g>
		<g id="LWPOLYLINE_239_">
			<line style="fill:none;stroke:#000000;stroke-miterlimit:10;" x1="1197.86" y1="1433.78" x2="1150.61" y2="1433.78"></line>
		</g>
		<g id="LWPOLYLINE_238_">
			<line style="fill:none;stroke:#000000;stroke-miterlimit:10;" x1="1174.23" y1="1457.48" x2="1174.23" y2="1410.08"></line>
		</g>
		<g id="LWPOLYLINE_237_">
			<line style="fill:none;stroke:#000000;stroke-miterlimit:10;" x1="1126.98" y1="1433.78" x2="1079.73" y2="1433.78"></line>
		</g>
		<g id="LWPOLYLINE_235_">
			<line style="fill:none;stroke:#000000;stroke-miterlimit:10;" x1="1103.35" y1="1457.48" x2="1103.35" y2="1410.08"></line>
		</g>
		<ellipse style="fill:none;stroke:#000000;stroke-miterlimit:10;" cx="1103.35" cy="1433.78" rx="19.02" ry="18.96"></ellipse>
		<ellipse style="fill:none;stroke:#000000;stroke-miterlimit:10;" cx="1103.35" cy="1362.69" rx="19.02" ry="18.96"></ellipse>
		<ellipse style="fill:none;stroke:#000000;stroke-miterlimit:10;" cx="1174.23" cy="1433.78" rx="19.02" ry="18.96"></ellipse>
		<ellipse style="fill:none;stroke:#000000;stroke-miterlimit:10;" cx="1174.23" cy="1362.69" rx="19.02" ry="18.96"></ellipse>
	</g>
	<g>
		<g id="LWPOLYLINE_234_">
			<rect x="1067.91" y="1580.38" style="fill:none;stroke:#000000;stroke-miterlimit:10;" width="142.97" height="142.15"></rect>
		</g>
		<g id="LWPOLYLINE_233_">
			<path style="fill:none;stroke:#000000;stroke-miterlimit:10;" d="M1088.16,1592.22l90.49,0c4.61,0,8.34,3.71,8.34,8.29
				c0,0,0,101.88,0,101.88c0,4.58-3.73,8.29-8.34,8.29c0,0-90.49,0-90.49,0c-4.6,0-8.34-3.71-8.34-8.29c0,0,0-101.88,0-101.88
				C1079.83,1595.93,1083.56,1592.22,1088.16,1592.22z"></path>
		</g>
		<g id="LWPOLYLINE_232_">
			<path style="fill:none;stroke:#000000;stroke-miterlimit:10;" d="M1155.46,1627.76c0-4.59,3.74-8.31,8.36-8.31
				c4.62,0,8.36,3.72,8.36,8.31c0,4.59-3.74,8.31-8.36,8.31C1159.2,1636.07,1155.46,1632.35,1155.46,1627.76z"></path>
		</g>
	</g>
	<g>
		<g id="LWPOLYLINE_312_">
			<rect x="1510.47" y="1518.5" style="fill:none;stroke:#000000;stroke-miterlimit:10;" width="139.5" height="139.5"></rect>
		</g>
		<g>
			<g id="LWPOLYLINE_311_">
				<polyline style="fill:none;stroke:#000000;stroke-miterlimit:10;" points="1620.39,1619.86 1580.26,1572.06 1580.18,1604.44 
					1540.05,1556.64 				"></polyline>
			</g>
			<g id="LWPOLYLINE_310_">
				<path style="fill:none;stroke:#000000;stroke-miterlimit:10;" d="M1580.13,1624.23c-19.46-0.05-35.19-16.2-35.14-36.07
					c0.05-19.87,15.86-35.93,35.32-35.89c19.46,0.05,35.19,16.2,35.14,36.08C1615.4,1608.22,1599.59,1624.28,1580.13,1624.23z"></path>
			</g>
		</g>
	</g>
	<g>
		<g>
			<g id="LWPOLYLINE_499_">
				<rect x="1114.47" y="310.48" style="fill:none;stroke:#000000;stroke-miterlimit:10;" width="164.32" height="407.03"></rect>
			</g>
			<g id="LWPOLYLINE_498_">
				<path style="fill:none;stroke:#000000;stroke-miterlimit:10;" d="M1127.62,662.67l0-267.31c0-38.91,30.9-70.46,69.01-70.45
					c38.11,0,69.01,31.55,69.01,70.47l0,267.31c0.01,18.6-14.64,33.74-32.86,33.95l-72.3-0.01c-18.15,0-32.86-15.03-32.86-33.56"></path>
			</g>
			<g id="LWPOLYLINE_497_">
				<path style="fill:none;stroke:#000000;stroke-miterlimit:10;" d="M1146.39,578.89l0-183.53c0-28.33,22.49-51.3,50.24-51.29
					s50.23,22.97,50.23,51.3l0,180.88c-0.02,27.29-20.95,49.79-47.64,51.21C1171.49,628.95,1147.84,607.2,1146.39,578.89z"></path>
			</g>
			<g id="LWPOLYLINE_496_">
				<path style="fill:none;stroke:#000000;stroke-miterlimit:10;" d="M1196.63,385.98c5.08,0,9.2,4.21,9.2,9.39
					c0,5.19-4.12,9.39-9.2,9.39c-5.09,0-9.2-4.21-9.2-9.39C1187.43,390.18,1191.55,385.98,1196.63,385.98z"></path>
			</g>
		</g>
		<g>
			<g id="LWPOLYLINE_495_">
				<path style="fill:none;stroke:#000000;stroke-miterlimit:10;" d="M1476.38,390.36l0.01,66.53c0,23.15,19.16,41.91,42.8,41.91
					c23.64,0,42.8-18.77,42.8-41.92l-0.01-66.53c0-5.79-4.79-10.48-10.7-10.48l-64.21,0
					C1481.17,379.89,1476.38,384.58,1476.38,390.36z"></path>
			</g>
			<g id="LWPOLYLINE_494_">
				<path style="fill:none;stroke:#000000;stroke-miterlimit:10;" d="M1553.43,456.89l-0.01-37.21c0-18.52-15.33-33.53-34.24-33.53
					c-18.91,0-34.25,15.01-34.25,33.53l0.01,37.21c0,18.52,15.33,33.53,34.24,33.53C1538.1,490.42,1553.43,475.41,1553.43,456.89z"></path>
			</g>
			<g id="LWPOLYLINE_493_">
				<path style="fill:none;stroke:#000000;stroke-miterlimit:10;" d="M1532.03,443.4l-0.01-27.2c0-6.94-5.75-12.57-12.84-12.57
					s-12.84,5.63-12.84,12.57l0.01,27.2c0,6.94,5.75,12.57,12.84,12.57C1526.28,455.97,1532.03,450.34,1532.03,443.4z"></path>
			</g>
		</g>
		<g>
			<g id="LWPOLYLINE_492_">
				<path style="fill:none;stroke:#000000;stroke-miterlimit:10;" d="M1296.11,309.9l0.16,59.83c0.02,8.43,5.37,15.88,13.23,18.44
					c28.54,9.3,59.21,9.22,87.7-0.23c7.85-2.61,13.16-10.08,13.14-18.51l-0.15-59.83"></path>
			</g>
			<g id="LWPOLYLINE_491_">
				<path style="fill:none;stroke:#000000;stroke-miterlimit:10;" d="M1383.61,326.4c6.3-0.02,11.42,5.19,11.44,11.62l0.05,18.64
					c0.01,4.27-2.71,8.04-6.7,9.3c-22.86,7.21-47.31,7.28-70.21,0.19c-4-1.24-6.73-5-6.75-9.26l-0.05-18.64
					c-0.02-6.43,5.08-11.66,11.38-11.68"></path>
			</g>
			<g id="LWPOLYLINE_490_">
				<path style="fill:none;stroke:#000000;stroke-miterlimit:10;" d="M1303.79,338.26l0.08,31.44c0.01,5.06,3.22,9.53,7.93,11.07
					c27.02,8.81,56.07,8.73,83.04-0.22c4.71-1.57,7.89-6.05,7.88-11.11l-0.08-31.44c-0.02-6.43-5.14-11.63-11.44-11.62l-76.05,0.2
					C1308.86,326.6,1303.77,331.83,1303.79,338.26z"></path>
			</g>
			<g id="LWPOLYLINE_489_">
				<path style="fill:none;stroke:#000000;stroke-miterlimit:10;" d="M1353.2,329.95c-2.83,0.01-5.11,2.35-5.11,5.24
					c0.01,2.89,2.31,5.22,5.14,5.21c2.83-0.01,5.11-2.35,5.1-5.24C1358.32,332.28,1356.02,329.94,1353.2,329.95z"></path>
			</g>
		</g>
	</g>
	<g>
		
			<rect x="949.01" y="-454.15" transform="matrix(-1.836970e-16 1 -1 -1.836970e-16 1227.0276 -723.4129)" style="fill-rule:evenodd;clip-rule:evenodd;" width="52.42" height="1411.91"></rect>
		
			<rect x="175.06" y="293.51" transform="matrix(-1.836970e-16 1 -1 -1.836970e-16 600.8078 50.5393)" style="fill-rule:evenodd;clip-rule:evenodd;" width="200.15" height="64.34"></rect>
		
			<rect x="1267.56" y="606.84" transform="matrix(-1.836970e-16 1 -1 -1.836970e-16 2303.3035 -1041.965)" style="fill-rule:evenodd;clip-rule:evenodd;" width="810.14" height="47.66"></rect>
		
			<rect x="194" y="903.62" transform="matrix(-1.836970e-16 1 -1 -1.836970e-16 1210.922 660.6534)" style="fill-rule:evenodd;clip-rule:evenodd;" width="162.27" height="64.34"></rect>
		
			<rect x="259.67" y="852.24" transform="matrix(-1.836970e-16 1 -1 -1.836970e-16 1307.3279 735.5621)" style="fill-rule:evenodd;clip-rule:evenodd;" width="52.42" height="338.41"></rect>
		
			<rect x="41.62" y="1053.61" transform="matrix(-1.836970e-16 1 -1 -1.836970e-16 1217.947 953.6119)" style="fill-rule:evenodd;clip-rule:evenodd;" width="181.09" height="64.34"></rect>
		
			<rect x="142.74" y="883.39" transform="matrix(-1.836970e-16 1 -1 -1.836970e-16 1161.0116 783.3905)" style="fill-rule:evenodd;clip-rule:evenodd;" width="92.13" height="177.62"></rect>
		
			<rect x="574.55" y="880.99" transform="matrix(-1.836970e-16 1 -1 -1.836970e-16 1622.2007 454.0482)" style="fill-rule:evenodd;clip-rule:evenodd;" width="19.06" height="314.26"></rect>
		
			<rect x="47.58" y="1657.65" transform="matrix(-1.836970e-16 1 -1 -1.836970e-16 1821.9814 1557.6465)" style="fill-rule:evenodd;clip-rule:evenodd;" width="169.18" height="64.34"></rect>
		
			<rect x="887.67" y="973.13" transform="matrix(-1.836970e-16 1 -1 -1.836970e-16 2662.0708 834.3146)" style="fill-rule:evenodd;clip-rule:evenodd;" width="52.42" height="1550.12"></rect>
		
			<rect x="1426.02" y="1503.96" transform="matrix(-1.836970e-16 1 -1 -1.836970e-16 3200.4197 -144.8486)" style="fill-rule:evenodd;clip-rule:evenodd;" width="493.24" height="47.66"></rect>
		
			<rect x="1428.21" y="1444.05" transform="matrix(-1.836970e-16 1 -1 -1.836970e-16 3100.157 228.838)" style="fill-rule:evenodd;clip-rule:evenodd;" width="14.89" height="440.89"></rect>
		
			<rect x="979.13" y="1481.72" transform="matrix(-1.836970e-16 1 -1 -1.836970e-16 2711.3413 271.1676)" style="fill-rule:evenodd;clip-rule:evenodd;" width="481.91" height="19.06"></rect>
		
			<rect x="1258.54" y="1266.24" transform="matrix(-1.836970e-16 1 -1 -1.836970e-16 2581.6418 45.5056)" style="fill-rule:evenodd;clip-rule:evenodd;" width="19.06" height="94.66"></rect>
		
			<rect x="1575.97" y="1234.09" transform="matrix(-1.836970e-16 1 -1 -1.836970e-16 2899.0757 -271.9283)" style="fill-rule:evenodd;clip-rule:evenodd;" width="19.06" height="158.96"></rect>
		
			<rect x="1399.42" y="474.15" transform="matrix(-1.836970e-16 1 -1 -1.836970e-16 2137.7903 -1147.6121)" style="fill-rule:evenodd;clip-rule:evenodd;" width="486.56" height="41.88"></rect>
		
			<rect x="1562.17" y="638.32" transform="matrix(-1.836970e-16 1 -1 -1.836970e-16 2300.54 -846.0773)" style="fill-rule:evenodd;clip-rule:evenodd;" width="22.28" height="177.83"></rect>
		
			<rect x="1519.3" y="267.06" transform="matrix(-1.836970e-16 1 -1 -1.836970e-16 1900.6138 -1155.7427)" style="fill-rule:evenodd;clip-rule:evenodd;" width="17.75" height="210.76"></rect>
		
			<rect x="1380.58" y="310.06" transform="matrix(-1.836970e-16 1 -1 -1.836970e-16 1750.6096 -1112.7417)" style="fill-rule:evenodd;clip-rule:evenodd;" width="102.2" height="17.75"></rect>
		
			<rect x="1353.25" y="-20.49" transform="matrix(-1.836970e-16 1 -1 -1.836970e-16 1664.2656 -1107.2026)" style="fill-rule:evenodd;clip-rule:evenodd;" width="64.98" height="598.05"></rect>
		
			<rect x="886.35" y="502.67" transform="matrix(-1.836970e-16 1 -1 -1.836970e-16 1617.6116 -584.0419)" style="fill-rule:evenodd;clip-rule:evenodd;" width="428.95" height="28.24"></rect>
		
			<rect x="1037.98" y="648.9" transform="matrix(-1.836970e-16 1 -1 -1.836970e-16 1776.3528 -318.6733)" style="fill-rule:evenodd;clip-rule:evenodd;" width="19.06" height="159.89"></rect>
		
			<rect x="1185.83" y="630.43" transform="matrix(-1.836970e-16 1 -1 -1.836970e-16 1924.2032 -469.7406)" style="fill-rule:evenodd;clip-rule:evenodd;" width="22.28" height="193.6"></rect>
		
			<rect x="1092.29" y="850.87" transform="matrix(-1.836970e-16 1 -1 -1.836970e-16 2080.4841 -359.6895)" style="fill-rule:evenodd;clip-rule:evenodd;" width="255.59" height="19.06"></rect>
		
			<rect x="820.72" y="878.63" transform="matrix(-1.836970e-16 1 -1 -1.836970e-16 1865.2596 -88.9424)" style="fill-rule:evenodd;clip-rule:evenodd;" width="312.76" height="19.06"></rect>
		
			<rect x="961.61" y="1022.64" transform="matrix(-1.836970e-16 1 -1 -1.836970e-16 2009.2686 66.9804)" style="fill-rule:evenodd;clip-rule:evenodd;" width="19.06" height="30.98"></rect>
	</g>
</g>
</svg>
