<?xml version="1.0" encoding="utf-8"?>
<!-- Generator: Adobe Illustrator 24.1.2, SVG Export Plug-In . SVG Version: 6.00 Build 0)  -->
<svg version="1.0" id="Layer_1" xmlns="http://www.w3.org/2000/svg" xmlns:xlink="http://www.w3.org/1999/xlink" x="0px" y="0px" width="2000px" height="2000px" viewBox="0 0 2000 2000" style="enable-background:new 0 0 2000 2000;" xml:space="preserve">
<path id="background" style="fill:#FFFFFF;" d="M1721.89,1594.62H100.67v-43.17v-3.39v-129.09c-0.32-0.05-0.57-0.3-0.57-0.63V1093.5
	c0-0.33,0.25-0.57,0.57-0.63V846c-0.37,0-0.67-0.3-0.67-0.67V518.7c0-0.37,0.3-0.67,0.67-0.67c0.04,0,0.06,0.03,0.1,0.04v-66.21
	v-3.44v-43.04h1621.13v43.94v2.55v124.91h-19.86c0,0,0,0,0,0V588c52.47,0.58,101.8,21.19,139.13,58.24
	c37.94,37.66,58.84,87.7,58.84,140.89c0,0.18-0.07,0.35-0.19,0.47c-0.13,0.12-0.29,0.19-0.47,0.19l-197.29,0v11.16c0,0,0,0,0,0
	h19.85v749.09v3.39V1594.62z"></path>
<g id="f1">
	<path id="f1_path" style="fill:none;" d="M1278.12,1069.6l-0.18-243.12h419.05l0.16,243.12H1278.12z"></path>
	<text id="f1_text" transform="matrix(1 0 0 1 1452.3035 950.9476)" style="font-family: GraphikLCG-Regular; font-size: 40px; text-anchor: middle; text-align: center;"></text>
</g>
<g id="g1">
	<path id="g1_path" style="fill:none;" d="M746.61,1571.34l-0.23-744.86h538.82l0.21,744.86H746.61z"></path>
	<text id="g1_text" transform="matrix(1 0 0 1 998.5306 1334.551)" style="font-family: GraphikLCG-Regular; font-size: 40px; text-anchor: middle; text-align: center;"></text>
</g>
<g id="s1">
	<path id="s1_path" style="fill:none;" d="M1285.41,1571.34l-0.17-501.74h403.98l0.99,501.74H1285.41z"></path>
	
		<text id="s1_text" transform="matrix(1 0 0 1 1423.2834 1286.7209)" style="font-family: GraphikLCG-Regular; font-size: 40px; text-anchor: middle; text-align: center;"></text>
</g>
<g id="h1">
	<path id="h1_path" style="fill:none;" d="M1374.85,700V428.64h194.99v-0.01h127.17v397.85h-322.16V700L1374.85,700z"></path>
	<text id="h1_text" transform="matrix(1 0 0 1 1501.1736 686.0257)" style="font-family: GraphikLCG-Regular; font-size: 40px; text-anchor: middle; text-align: center;"></text>
</g>
<g id="r1">
	<path id="r1_path" style="fill:none;" d="M135.09,1572.42V429.08h143.93v-0.43h458.9v393.73h8.46v750.05H135.09z"></path>
	<text id="r1_text" transform="matrix(1 0 0 1 396.4144 1006.5745)" style="font-family: GraphikLCG-Regular; font-size: 40px; text-anchor: middle; text-align: center;"></text>
</g>
<g id="c1">
	<path id="c1_path" style="fill:none;" d="M737.92,428.64h636.91l0.03,172.67h-0.04l0.04,225.16h-338.04v0H907.72v0h-169.8
		V428.64z"></path>
	<text id="c1_text" transform="matrix(1 0 0 1 1028.718 701.1819)" style="font-family: GraphikLCG-Regular; font-size: 40px; text-anchor: middle; text-align: center;"></text>
</g>
<path id="u4" style="fill:#FFFFFF;stroke:#FFFFFF;stroke-linecap:round;stroke-linejoin:round;stroke-miterlimit:10;" d="
	M1608.04,897.87c-10.8,0-19.55-8.75-19.55-19.55c0-10.8,8.75-19.55,19.55-19.55s19.55,8.75,19.55,19.55
	C1627.59,889.12,1618.84,897.87,1608.04,897.87z"></path>
<path id="u10" style="fill:#FFFFFF;stroke:#FFFFFF;stroke-linecap:round;stroke-linejoin:round;stroke-miterlimit:10;" d="
	M1383.76,1158.29c-10.8,0-19.55-8.75-19.55-19.55s8.75-19.55,19.55-19.55c10.8,0,19.55,8.75,19.55,19.55
	S1394.55,1158.29,1383.76,1158.29z"></path>
<path id="u6" style="fill:#FFFFFF;stroke:#FFFFFF;stroke-linecap:round;stroke-linejoin:round;stroke-miterlimit:10;" d="
	M629.59,650.13c-10.8,0-19.55-8.75-19.55-19.55c0-10.8,8.75-19.55,19.55-19.55c10.8,0,19.55,8.75,19.55,19.55
	C649.13,641.38,640.38,650.13,629.59,650.13z"></path>
<g id="mebel">
	<g>
		
			<rect x="1383.92" y="451.87" style="fill:none;stroke:#000000;stroke-linecap:round;stroke-linejoin:round;stroke-miterlimit:10;" width="295.64" height="128.93"></rect>
		
			<rect x="1383.92" y="576.63" style="fill:none;stroke:#000000;stroke-linecap:round;stroke-linejoin:round;stroke-miterlimit:10;" width="295.64" height="4.17"></rect>
	</g>
	<g>
		
			<rect x="1013.61" y="1419.13" transform="matrix(-1 3.931376e-11 -3.931376e-11 -1 2283.0867 2967.1951)" style="fill:none;stroke:#000000;stroke-linecap:round;stroke-linejoin:round;stroke-miterlimit:10;" width="255.86" height="128.93"></rect>
		
			<rect x="1013.61" y="1419.13" transform="matrix(-1 3.942079e-11 -3.942079e-11 -1 2283.0867 2842.4365)" style="fill:none;stroke:#000000;stroke-linecap:round;stroke-linejoin:round;stroke-miterlimit:10;" width="255.86" height="4.17"></rect>
	</g>
	<g>
		
			<rect x="757.75" y="1419.13" transform="matrix(-1 3.931376e-11 -3.931376e-11 -1 1771.3613 2967.1951)" style="fill:none;stroke:#000000;stroke-linecap:round;stroke-linejoin:round;stroke-miterlimit:10;" width="255.86" height="128.93"></rect>
		
			<rect x="757.75" y="1419.13" transform="matrix(-1 3.942079e-11 -3.942079e-11 -1 1771.3613 2842.4365)" style="fill:none;stroke:#000000;stroke-linecap:round;stroke-linejoin:round;stroke-miterlimit:10;" width="255.86" height="4.17"></rect>
	</g>
	<g>
		<g>
			
				<rect x="715.97" y="1033.5" style="fill:none;stroke:#000000;stroke-linecap:round;stroke-linejoin:round;stroke-miterlimit:10;" width="12.04" height="228.19"></rect>
			<polygon style="fill:none;stroke:#000000;stroke-linecap:round;stroke-linejoin:round;stroke-miterlimit:10;" points="
				738.52,1233.16 728,1261.68 728,1033.5 738.52,1062.02 			"></polygon>
		</g>
		
			<rect x="694.24" y="1021.01" style="fill:none;stroke:#000000;stroke-linecap:round;stroke-linejoin:round;stroke-miterlimit:10;" width="44.29" height="253.93"></rect>
	</g>
	<g>
		<path style="fill:none;stroke:#000000;stroke-linecap:round;stroke-linejoin:round;stroke-miterlimit:10;" d="M474.4,1437.13
			l-25.31,19.23c-20.3,15.43-48.95,13.14-66.55-5.31l-2-2.1c-17.61-18.46-18.52-47.22-2.12-66.76l5.61-6.69l0,0l14.77-17.61
			c4.08,18.23,12.89,35.64,26.73,50.15C439.37,1422.57,456.36,1432.2,474.4,1437.13z"></path>
		<path style="fill:none;stroke:#000000;stroke-linecap:round;stroke-linejoin:round;stroke-miterlimit:10;" d="M380.54,1448.96
			l2,2.1c17.6,18.45,46.25,20.74,66.55,5.31l7-5.32c2.93-2.23,7.08-1.9,9.62,0.77c2.98,3.13,2.58,8.15-0.86,10.76l-7.17,5.45
			c-26,19.76-62.69,16.83-85.22-6.8l-2.56-2.69c-22.55-23.65-23.72-60.46-2.72-85.5l5.75-6.85c2.78-3.31,7.81-3.47,10.8-0.34
			c2.55,2.67,2.68,6.83,0.31,9.66l-5.61,6.69C362.01,1401.74,362.93,1430.5,380.54,1448.96z"></path>
		<polygon style="fill:none;stroke:#000000;stroke-linecap:round;stroke-linejoin:round;stroke-miterlimit:10;" points="
			378.42,1382.2 384.03,1375.51 384.03,1375.51 		"></polygon>
		<path style="fill:none;stroke:#000000;stroke-linecap:round;stroke-linejoin:round;stroke-miterlimit:10;" d="M530.06,1231.79
			l29.93-22.74c20.3-15.43,48.95-13.14,66.55,5.31l2,2.1c17.61,18.46,18.53,47.22,2.12,66.76l-5.61,6.69l0,0l-18.52,22.07
			c-4-18.51-12.87-36.21-26.89-50.91C565.62,1246.36,548.36,1236.67,530.06,1231.79z"></path>
		<path style="fill:none;stroke:#000000;stroke-linecap:round;stroke-linejoin:round;stroke-miterlimit:10;" d="M628.54,1216.46
			l-2-2.1c-17.6-18.45-46.25-20.74-66.55-5.31l-7,5.32c-2.93,2.23-7.08,1.9-9.62-0.77c-2.98-3.12-2.58-8.15,0.86-10.76l7.17-5.45
			c26-19.76,62.69-16.83,85.22,6.8l2.56,2.69c22.55,23.65,23.72,60.46,2.72,85.5l-5.75,6.85c-2.78,3.31-7.82,3.47-10.8,0.34l0,0
			c-2.55-2.67-2.68-6.83-0.31-9.66l5.61-6.69C647.07,1263.68,646.15,1234.92,628.54,1216.46z"></path>
		<polygon style="fill:none;stroke:#000000;stroke-linecap:round;stroke-linejoin:round;stroke-miterlimit:10;" points="
			630.67,1283.22 625.05,1289.91 625.05,1289.91 		"></polygon>
		<path style="fill:none;stroke:#000000;stroke-linecap:round;stroke-linejoin:round;stroke-miterlimit:10;" d="M386.09,1214.52
			l2.1-2c18.46-17.61,47.22-18.52,66.76-2.12l6.69,5.61l0,0l17.61,14.77c-18.23,4.08-35.64,12.89-50.15,26.73
			c-14.52,13.85-24.15,30.84-29.08,48.87l-19.23-25.31C365.35,1260.76,367.64,1232.11,386.09,1214.52z"></path>
		<path style="fill:none;stroke:#000000;stroke-linecap:round;stroke-linejoin:round;stroke-miterlimit:10;" d="M464.1,1199.15
			l6.85,5.75c3.31,2.78,3.47,7.82,0.34,10.8c-2.67,2.55-6.83,2.68-9.66,0.31l-6.69-5.61c-19.55-16.4-48.3-15.49-66.76,2.12l-2.1,2
			c-18.45,17.6-20.74,46.25-5.31,66.55l5.32,7c2.23,2.93,1.9,7.08-0.77,9.62c-3.12,2.98-8.15,2.58-10.76-0.86l-5.45-7.17
			c-19.76-26-16.83-62.69,6.8-85.22l2.69-2.56C402.25,1179.32,439.07,1178.15,464.1,1199.15z"></path>
		<polygon style="fill:none;stroke:#000000;stroke-linecap:round;stroke-linejoin:round;stroke-miterlimit:10;" points="
			454.95,1210.39 461.64,1216 461.64,1216 		"></polygon>
		<path style="fill:none;stroke:#000000;stroke-linecap:round;stroke-linejoin:round;stroke-miterlimit:10;" d="M605.3,1362.21
			l21.81,28.7c15.43,20.3,13.14,48.95-5.31,66.55l-2.1,2c-18.46,17.61-47.22,18.52-66.76,2.12l-6.69-5.61l0,0l-20.87-17.51
			c18.43-4.03,36.04-12.88,50.69-26.85C590.74,1397.63,600.42,1380.44,605.3,1362.21z"></path>
		<path style="fill:none;stroke:#000000;stroke-linecap:round;stroke-linejoin:round;stroke-miterlimit:10;" d="M619.71,1459.46
			l2.1-2c18.45-17.6,20.74-46.25,5.31-66.55l-5.32-7c-2.23-2.93-1.9-7.08,0.77-9.62c3.13-2.98,8.15-2.58,10.76,0.86l5.45,7.17
			c19.76,26,16.83,62.69-6.8,85.22l-2.69,2.56c-23.65,22.55-60.46,23.72-85.5,2.72l-6.85-5.75c-3.31-2.78-3.47-7.81-0.34-10.8
			c2.67-2.55,6.83-2.68,9.66-0.31l6.69,5.61C572.49,1477.98,601.24,1477.07,619.71,1459.46z"></path>
		<polygon style="fill:none;stroke:#000000;stroke-linecap:round;stroke-linejoin:round;stroke-miterlimit:10;" points="
			552.94,1461.58 546.25,1455.97 546.25,1455.97 		"></polygon>
		
			<circle style="fill:none;stroke:#000000;stroke-linecap:round;stroke-linejoin:round;stroke-miterlimit:10;" cx="502.62" cy="1334.56" r="106.51"></circle>
	</g>
	<g>
		<g>
			
				<circle style="fill:none;stroke:#000000;stroke-linecap:round;stroke-linejoin:round;stroke-miterlimit:10;" cx="464.09" cy="1286.34" r="27.04"></circle>
		</g>
		<g>
			
				<circle style="fill:none;stroke:#000000;stroke-linecap:round;stroke-linejoin:round;stroke-miterlimit:10;" cx="464.09" cy="1286.34" r="15.4"></circle>
		</g>
		<g>
			
				<ellipse transform="matrix(0.7134 -0.7008 0.7008 0.7134 -809.7624 689.5388)" style="fill:none;stroke:#000000;stroke-linecap:round;stroke-linejoin:round;stroke-miterlimit:10;" cx="438.04" cy="1334.65" rx="4.19" ry="6.81"></ellipse>
			
				<line style="fill:none;stroke:#000000;stroke-linecap:round;stroke-linejoin:round;stroke-miterlimit:10;" x1="433.27" y1="1329.8" x2="412.39" y2="1308.55"></line>
		</g>
		<g>
			<path style="fill:none;stroke:#000000;stroke-linecap:round;stroke-linejoin:round;stroke-miterlimit:10;" d="M511.7,1271.83
				l-4.77-4.86c-2.63-2.68-6.11-3.54-7.76-1.92c-1.65,1.62-0.85,5.11,1.78,7.79l4.77,4.86"></path>
			
				<line style="fill:none;stroke:#000000;stroke-linecap:round;stroke-linejoin:round;stroke-miterlimit:10;" x1="499.17" y1="1265.05" x2="478.3" y2="1243.81"></line>
		</g>
		
			<line style="fill:none;stroke:#000000;stroke-linecap:round;stroke-linejoin:round;stroke-miterlimit:10;" x1="508.71" y1="1274.77" x2="499.17" y2="1265.05"></line>
		<g>
			<path style="fill:none;stroke:#000000;stroke-linecap:round;stroke-linejoin:round;stroke-miterlimit:10;" d="M432.51,1314.31
				l4.64-4.56l17.65,17.97l-4.07,4c-0.31,0.31-0.82,0.3-1.13-0.01L432.51,1314.31z"></path>
			<path style="fill:none;stroke:#000000;stroke-linecap:round;stroke-linejoin:round;stroke-miterlimit:10;" d="M420.04,1301.04
				l4.07-4c0.16-0.15,0.41-0.15,0.56,0.01l12.48,12.7l-4.64,4.56l-12.48-12.7C419.88,1301.45,419.88,1301.19,420.04,1301.04z"></path>
		</g>
	</g>
	<g>
		<g>
			
				<circle style="fill:none;stroke:#000000;stroke-linecap:round;stroke-linejoin:round;stroke-miterlimit:10;" cx="547.62" cy="1373.91" r="27.04"></circle>
		</g>
		<g>
			
				<circle style="fill:none;stroke:#000000;stroke-linecap:round;stroke-linejoin:round;stroke-miterlimit:10;" cx="547.62" cy="1373.91" r="15.4"></circle>
		</g>
		<g>
			
				<ellipse transform="matrix(0.7153 -0.6988 0.6988 0.7153 -835.6151 746.8339)" style="fill:none;stroke:#000000;stroke-linecap:round;stroke-linejoin:round;stroke-miterlimit:10;" cx="498.78" cy="1398.97" rx="4.19" ry="6.81"></ellipse>
			
				<line style="fill:none;stroke:#000000;stroke-linecap:round;stroke-linejoin:round;stroke-miterlimit:10;" x1="503.54" y1="1403.84" x2="524.35" y2="1425.14"></line>
		</g>
		<g>
			<path style="fill:none;stroke:#000000;stroke-linecap:round;stroke-linejoin:round;stroke-miterlimit:10;" d="M563.1,1326.61
				l4.76,4.87c2.63,2.69,3.42,6.18,1.76,7.8c-1.65,1.62-5.13,0.75-7.75-1.94l-4.76-4.87"></path>
			
				<line style="fill:none;stroke:#000000;stroke-linecap:round;stroke-linejoin:round;stroke-miterlimit:10;" x1="569.62" y1="1339.28" x2="590.43" y2="1360.58"></line>
		</g>
		
			<line style="fill:none;stroke:#000000;stroke-linecap:round;stroke-linejoin:round;stroke-miterlimit:10;" x1="560.11" y1="1329.54" x2="569.62" y2="1339.28"></line>
		<g>
			<path style="fill:none;stroke:#000000;stroke-linecap:round;stroke-linejoin:round;stroke-miterlimit:10;" d="M519.01,1404.91
				l4.65-4.54l-17.6-18.02l-4.08,3.99c-0.32,0.31-0.32,0.81-0.01,1.13L519.01,1404.91z"></path>
			<path style="fill:none;stroke:#000000;stroke-linecap:round;stroke-linejoin:round;stroke-miterlimit:10;" d="M532.02,1417.65
				l4.08-3.99c0.16-0.15,0.16-0.41,0.01-0.56l-12.45-12.74l-4.65,4.54l12.45,12.74C531.61,1417.8,531.86,1417.81,532.02,1417.65z"></path>
		</g>
	</g>
	<g>
		<polygon style="fill:none;stroke:#000000;stroke-linecap:round;stroke-linejoin:round;stroke-miterlimit:10;" points="
			730.8,576.78 858,576.78 858,451.96 730.8,451.94 		"></polygon>
		<g>
			
				<line style="fill:none;stroke:#000000;stroke-linecap:round;stroke-linejoin:round;stroke-miterlimit:10;" x1="788.15" y1="484.18" x2="788.15" y2="539"></line>
			
				<line style="fill:none;stroke:#000000;stroke-linecap:round;stroke-linejoin:round;stroke-miterlimit:10;" x1="759.14" y1="511.59" x2="817.16" y2="511.59"></line>
			<polyline style="fill:none;stroke:#000000;stroke-linecap:round;stroke-linejoin:round;stroke-miterlimit:10;" points="
				773.64,490.27 788.15,497.88 802.65,490.27 			"></polyline>
			<polyline style="fill:none;stroke:#000000;stroke-linecap:round;stroke-linejoin:round;stroke-miterlimit:10;" points="
				810.71,497.88 802.65,511.59 810.71,525.29 			"></polyline>
			<polyline style="fill:none;stroke:#000000;stroke-linecap:round;stroke-linejoin:round;stroke-miterlimit:10;" points="
				802.65,532.91 788.15,525.29 773.64,532.91 			"></polyline>
			<polyline style="fill:none;stroke:#000000;stroke-linecap:round;stroke-linejoin:round;stroke-miterlimit:10;" points="
				765.59,525.29 773.64,511.59 765.59,497.88 			"></polyline>
		</g>
	</g>
	<g>
		<polygon style="fill:none;stroke:#000000;stroke-linecap:round;stroke-linejoin:round;stroke-miterlimit:10;" points="
			1083.72,576.79 1182.3,576.79 1182.3,451.95 1083.72,451.93 		"></polygon>
		<path style="fill:none;stroke:#000000;stroke-linecap:round;stroke-linejoin:round;stroke-miterlimit:10;" d="M1129.95,495.13
			l12.91,29.4c0.7,1.8,1.09,3.78,1.09,5.85c0,8.34-6.27,15.11-14,15.11s-14-6.76-14-15.11c0-2.08,0.39-4.05,1.09-5.85
			L1129.95,495.13z"></path>
	</g>
	<g>
		<g>
			<path style="fill:#FFFFFF;stroke:#000000;stroke-linecap:round;stroke-linejoin:round;stroke-miterlimit:10;" d="M895.25,506.3
				l-0.56-0.81c-0.91-1.31-1.35-2.86-1.52-4.45c-0.13-1.17-0.69-2.31-1.71-3.17c-1.5-1.25-3.69-1.47-5.39-0.5
				c-2.76,1.57-3.26,5.15-1.28,7.4c0.74,0.84,1.7,1.35,2.72,1.54c1.48,0.27,2.84,1.01,3.97,2.01l0.74,0.66c1,0.9,1,2.47-0.01,3.36
				l-2.83,2.5c-1.55,1.37-1.7,3.73-0.33,5.28l18.75,21.27c1.37,1.55,3.73,1.7,5.28,0.33l12.04-10.62c1.55-1.37,1.7-3.73,0.33-5.28
				l-18.75-21.27c-1.37-1.55-3.73-1.7-5.28-0.33l-2.83,2.5C897.58,507.6,896.01,507.41,895.25,506.3z"></path>
			
				<circle style="fill:#FFFFFF;stroke:#000000;stroke-linecap:round;stroke-linejoin:round;stroke-miterlimit:10;" cx="888.46" cy="501.65" r="2.34"></circle>
		</g>
		<g>
			<path style="fill:#FFFFFF;stroke:#000000;stroke-linecap:round;stroke-linejoin:round;stroke-miterlimit:10;" d="M901.9,521.43
				l-5.97-2.01c-0.36-0.12-0.55-0.51-0.43-0.87l2.93-8.7c0.12-0.36,0.51-0.55,0.87-0.43l5.97,2.01c0.36,0.12,0.55,0.51,0.43,0.87
				l-2.93,8.7C902.65,521.36,902.26,521.56,901.9,521.43z"></path>
			<path style="fill:#FFFFFF;stroke:#000000;stroke-linecap:round;stroke-linejoin:round;stroke-miterlimit:10;" d="M908.52,528.94
				l-5.97-2.01c-0.36-0.12-0.55-0.51-0.43-0.87l2.93-8.7c0.12-0.36,0.51-0.55,0.87-0.43l5.97,2.01c0.36,0.12,0.55,0.51,0.43,0.87
				l-2.93,8.7C909.27,528.87,908.88,529.06,908.52,528.94z"></path>
			<path style="fill:#FFFFFF;stroke:#000000;stroke-linecap:round;stroke-linejoin:round;stroke-miterlimit:10;" d="M915.11,536.41
				l-5.97-2.01c-0.36-0.12-0.55-0.51-0.43-0.87l2.93-8.7c0.12-0.36,0.51-0.55,0.87-0.43l5.97,2.01c0.36,0.12,0.55,0.51,0.43,0.87
				l-2.93,8.7C915.85,536.34,915.47,536.53,915.11,536.41z"></path>
		</g>
	</g>
	
		<rect x="846.04" y="463.95" transform="matrix(-3.939598e-11 -1 1 -3.939598e-11 394.1043 1422.8259)" style="fill:none;stroke:#000000;stroke-linecap:round;stroke-linejoin:round;stroke-miterlimit:10;" width="124.85" height="100.82"></rect>
	<g>
		<g>
			<g>
				
					<rect x="754.85" y="834.95" transform="matrix(-1 -3.187020e-06 3.187020e-06 -1 1871.3228 1685.9368)" style="fill:none;stroke:#000000;stroke-linecap:round;stroke-linejoin:round;stroke-miterlimit:10;" width="361.63" height="16.04"></rect>
				
					<rect x="754.85" y="850.99" transform="matrix(-1 -3.187020e-06 3.187020e-06 -1 1871.3207 2113.1208)" style="fill:none;stroke:#000000;stroke-linecap:round;stroke-linejoin:round;stroke-miterlimit:10;" width="361.63" height="411.14"></rect>
				<path style="fill:none;stroke:#000000;stroke-linecap:round;stroke-linejoin:round;stroke-miterlimit:10;" d="M942.47,933.5
					l-13.61,0l0-39.5c0-11.81-9.58-21.39-21.39-21.39l-101.59,0c-11.81,0-21.39,9.58-21.39,21.39l0,39.5l-13.61,0l0-69.15
					c0-2.95,2.39-5.35,5.35-5.35l318.86,0c2.95,0,5.35,2.39,5.35,5.35l0,69.15l-13.61,0l0-39.5c0-11.81-9.58-21.39-21.39-21.39
					l-101.59,0c-11.81,0-21.39,9.58-21.39,21.39L942.47,933.5z"></path>
				<path style="fill:none;stroke:#000000;stroke-linecap:round;stroke-linejoin:round;stroke-miterlimit:10;" d="M1099.56,1248.77
					l-327.8,0c-0.48,0-0.88-0.39-0.88-0.88l0-314.39l329.55,0l0,314.39C1100.44,1248.37,1100.04,1248.77,1099.56,1248.77z"></path>
			</g>
		</g>
	</g>
	<g>
		<g>
			<path style="fill:none;stroke:#000000;stroke-linecap:round;stroke-linejoin:round;stroke-miterlimit:10;" d="M960.45,1076.45
				c-0.1-0.13-0.21-0.25-0.33-0.36c-6.51-6.15-12.57-12.84-18.03-19.92c-5.46-7.08-10.4-14.64-14.68-22.49
				c-0.09-0.16-0.18-0.3-0.28-0.43c-0.53-0.68-1.33-1.1-2.22-1.14c-0.5-0.02-1.47,0.06-2.28,0.9l-0.05,0.05
				c-12.34,13.08-26.61,24.08-42.39,32.7l-0.09,0.05c-1,0.58-1.32,1.48-1.42,1.97c-0.18,0.87,0.02,1.75,0.54,2.44
				c0.1,0.13,0.21,0.25,0.33,0.36c6.51,6.15,12.57,12.84,18.03,19.92c5.46,7.08,10.4,14.64,14.68,22.49
				c0.09,0.16,0.18,0.3,0.28,0.43c0.53,0.68,1.34,1.1,2.22,1.15c0.51,0.03,1.47-0.06,2.28-0.9l0.05-0.05
				c12.34-13.08,26.61-24.08,42.39-32.7l0.09-0.05c1-0.58,1.32-1.48,1.42-1.97C961.18,1078.02,960.98,1077.14,960.45,1076.45z"></path>
		</g>
		<path style="fill:none;stroke:#000000;stroke-linecap:round;stroke-linejoin:round;stroke-miterlimit:10;" d="M922.59,1033.06
			l0.05-0.05c0.82-0.84,1.78-0.92,2.28-0.9c0.88,0.05,1.69,0.46,2.22,1.14c0.1,0.13,0.19,0.27,0.28,0.43
			c3.77,6.9,8.12,13.53,12.81,19.85c6.78-2.05,13.65-3.81,20.67-5.01l0.07-0.01c1.15-0.22,1.75-0.97,2.01-1.41
			c0.45-0.76,0.55-1.66,0.27-2.48c-0.05-0.15-0.12-0.3-0.2-0.47c-4.16-7.91-7.73-16.21-10.6-24.67c-2.87-8.46-5.09-17.22-6.61-26.04
			c-0.03-0.16-0.07-0.32-0.12-0.48c-0.28-0.82-0.91-1.47-1.73-1.8c-0.47-0.19-1.39-0.41-2.43,0.1l-0.09,0.05
			c-15.92,8.38-32.97,14.16-50.7,17.2l-0.07,0.01c-1.15,0.22-1.75,0.97-2.01,1.41c-0.45,0.76-0.55,1.66-0.27,2.48
			c0.05,0.15,0.12,0.3,0.2,0.47c4.16,7.91,7.73,16.21,10.6,24.67c1.47,4.33,2.76,8.74,3.88,13.19
			C910.02,1045.36,916.54,1039.47,922.59,1033.06z"></path>
		<path style="fill:none;stroke:#000000;stroke-linecap:round;stroke-linejoin:round;stroke-miterlimit:10;" d="M922.59,1033.06
			l0.05-0.05c0.82-0.84,1.78-0.92,2.28-0.9c0.88,0.05,1.69,0.46,2.22,1.14c0.1,0.13,0.19,0.27,0.28,0.43
			c4.28,7.84,9.22,15.41,14.68,22.49c0.15,0.2,0.33,0.38,0.48,0.57c6.23-1.84,12.53-3.43,18.95-4.53l0.02,0
			c4.51-0.77,6.95-5.72,4.82-9.77l-0.01-0.01c-8.18-15.54-13.86-32.28-16.83-49.59l0-0.02c-0.77-4.51-5.72-6.95-9.77-4.82
			l-0.01,0.01c-15.54,8.18-32.28,13.86-49.59,16.83l-0.02,0c-4.51,0.77-6.95,5.72-4.82,9.77l0.01,0.01
			c6.42,12.2,11.24,25.15,14.48,38.52C907.94,1047.12,915.6,1040.46,922.59,1033.06z"></path>
	</g>
	<g>
		<g>
			<path style="fill:none;stroke:#000000;stroke-linecap:round;stroke-linejoin:round;stroke-miterlimit:10;" d="M248.51,771.65
				l0.18,143.39c0,0.42-0.34,0.76-0.76,0.76l-46.75,0.06c-0.42,0-0.76-0.34-0.76-0.76l-0.18-143.38c0-0.42,0.34-0.76,0.76-0.76
				l46.75-0.06C248.17,770.9,248.51,771.23,248.51,771.65z"></path>
			<path style="fill:none;stroke:#000000;stroke-linecap:round;stroke-linejoin:round;stroke-miterlimit:10;" d="M248.51,771.65
				l0.18,143.39c0,0.42,0.34,0.76,0.76,0.76l121.41-0.15c0.42,0,0.76-0.34,0.76-0.76l-0.18-143.38c0-0.42-0.34-0.76-0.76-0.76
				l-121.41,0.15C248.85,770.9,248.51,771.23,248.51,771.65z"></path>
			<path style="fill:none;stroke:#000000;stroke-linecap:round;stroke-linejoin:round;stroke-miterlimit:10;" d="M248.33,626.75
				l0.18,143.39c0,0.42-0.34,0.76-0.76,0.76L201,770.96c-0.42,0-0.76-0.34-0.76-0.76l-0.18-143.39c0-0.42,0.34-0.76,0.76-0.76
				l46.75-0.06C247.99,626,248.33,626.34,248.33,626.75z"></path>
			<path style="fill:none;stroke:#000000;stroke-linecap:round;stroke-linejoin:round;stroke-miterlimit:10;" d="M248.33,626.75
				l0.18,143.39c0,0.42,0.34,0.76,0.76,0.76l121.41-0.15c0.42,0,0.76-0.34,0.76-0.76l-0.18-143.39c0-0.42-0.34-0.76-0.76-0.76
				L249.08,626C248.67,626,248.33,626.34,248.33,626.75z"></path>
			<path style="fill:none;stroke:#000000;stroke-linecap:round;stroke-linejoin:round;stroke-miterlimit:10;" d="M248.13,472.19
				l0.19,153.04c0,0.42-0.34,0.76-0.76,0.76l-46.75,0.06c-0.42,0-0.76-0.34-0.76-0.76l-0.19-153.04c0-0.42,0.34-0.76,0.76-0.76
				l46.75-0.06C247.79,471.44,248.13,471.78,248.13,472.19z"></path>
			<path style="fill:none;stroke:#000000;stroke-linecap:round;stroke-linejoin:round;stroke-miterlimit:10;" d="M248.13,472.19
				l0.19,153.04c0,0.42,0.34,0.76,0.76,0.76l234.99-0.3c0.42,0,0.76-0.34,0.76-0.76l-0.19-153.04c0-0.42-0.34-0.76-0.76-0.76
				l-234.99,0.3C248.47,471.44,248.13,471.78,248.13,472.19z"></path>
		</g>
	</g>
	<g>
		<path style="fill:none;stroke:#000000;stroke-linecap:round;stroke-linejoin:round;stroke-miterlimit:10;" d="M292.65,578.16
			c7.85-5.36,16.5-9.45,25.63-12.11l4.25-1.24c1.9-0.55,2.7-2.8,1.59-4.43l-2.49-3.65c-4.23-6.19-7.93-12.7-11.11-19.46
			c6.2-0.8,12.35-2.01,18.39-3.72l0.01,0c3.34-0.94,6.62,1.64,6.49,5.1l0,0.01c-0.51,13.29,1.07,26.59,4.7,39.39l0,0.01
			c0.94,3.33-1.64,6.62-5.11,6.49l-0.01,0c-13.3-0.51-26.6,1.07-39.41,4.7l-0.01,0c-3.34,0.94-6.62-1.64-6.49-5.1l0-0.01
			c0.05-1.17-0.02-2.34,0-3.52L292.65,578.16z"></path>
		<path style="fill:none;stroke:#000000;stroke-linecap:round;stroke-linejoin:round;stroke-miterlimit:10;" d="M261.99,531.33
			l2.49,3.65c8.33,12.2,14.69,25.65,18.84,39.83l1.24,4.24c0.56,1.9,2.8,2.7,4.44,1.59l3.65-2.49c7.85-5.36,16.5-9.44,25.63-12.11
			l4.25-1.24c1.9-0.55,2.7-2.8,1.59-4.43l-2.49-3.65c-8.33-12.2-14.69-25.65-18.84-39.83l-1.24-4.24c-0.56-1.9-2.8-2.7-4.44-1.59
			l-3.65,2.49c-7.85,5.36-16.5,9.44-25.63,12.11l-4.25,1.24C261.68,527.45,260.87,529.7,261.99,531.33z"></path>
	</g>
	<g>
		<path style="fill:none;stroke:#000000;stroke-linecap:round;stroke-linejoin:round;stroke-miterlimit:10;" d="M293.23,808.36
			c7.88,5.32,16.55,9.36,25.69,11.98l4.25,1.22c1.9,0.55,2.72,2.79,1.61,4.43l-2.48,3.66c-4.2,6.21-7.87,12.74-11.01,19.52
			c6.21,0.76,12.36,1.95,18.41,3.63l0.01,0c3.34,0.93,6.61-1.67,6.46-5.14l0-0.01c-0.58-13.29,0.94-26.59,4.5-39.41l0-0.01
			c0.93-3.34-1.67-6.61-5.14-6.46l-0.01,0c-13.3,0.58-26.6-0.94-39.43-4.5l-0.01,0c-3.34-0.93-6.61,1.67-6.46,5.14l0,0.01
			c0.05,1.17,0,2.34,0.02,3.52L293.23,808.36z"></path>
		<path style="fill:none;stroke:#000000;stroke-linecap:round;stroke-linejoin:round;stroke-miterlimit:10;" d="M262.8,855.33
			l2.48-3.66c8.27-12.25,14.56-25.72,18.64-39.92l1.22-4.25c0.55-1.9,2.79-2.72,4.43-1.61l3.67,2.47
			c7.88,5.32,16.55,9.36,25.69,11.98l4.25,1.22c1.9,0.55,2.72,2.79,1.61,4.43l-2.48,3.66c-8.27,12.25-14.56,25.72-18.64,39.92
			l-1.22,4.25c-0.55,1.9-2.79,2.72-4.43,1.61l-3.67-2.47c-7.88-5.32-16.55-9.36-25.69-11.98l-4.25-1.22
			C262.51,859.21,261.7,856.97,262.8,855.33z"></path>
	</g>
	
		<rect x="427.01" y="686" style="fill:none;stroke:#000000;stroke-linecap:round;stroke-linejoin:round;stroke-miterlimit:10;" width="85.22" height="148.13"></rect>
	<g>
		<path style="fill:none;stroke:#000000;stroke-linecap:round;stroke-linejoin:round;stroke-miterlimit:10;" d="M456.2,724.34
			l4.11,7.67c0.34,0.64,1.14,0.88,1.78,0.54l9.46-5.07c0.64-0.34,0.88-1.14,0.54-1.78l-4.11-7.67c-0.21-0.39-0.7-0.54-1.09-0.33
			l-10.36,5.55C456.14,723.46,455.99,723.95,456.2,724.34z"></path>
		
			<line style="fill:none;stroke:#000000;stroke-linecap:round;stroke-linejoin:round;stroke-miterlimit:10;" x1="458.37" y1="728.4" x2="470.15" y2="722.08"></line>
		<path style="fill:none;stroke:#000000;stroke-linecap:round;stroke-linejoin:round;stroke-miterlimit:10;" d="M453.73,722.6
			l-8.6-1.29c-0.72-0.11-1.21-0.77-1.1-1.49l1.59-10.62c0.11-0.72,0.77-1.21,1.49-1.1l8.6,1.29c0.44,0.07,0.74,0.47,0.68,0.91
			l-1.74,11.62C454.57,722.36,454.17,722.67,453.73,722.6z"></path>
		
			<line style="fill:none;stroke:#000000;stroke-linecap:round;stroke-linejoin:round;stroke-miterlimit:10;" x1="449.17" y1="721.92" x2="451.15" y2="708.71"></line>
		<path style="fill:none;stroke:#000000;stroke-linecap:round;stroke-linejoin:round;stroke-miterlimit:10;" d="M452.32,705.6
			c-0.51,0.98-0.87,2.01-1.1,3.06"></path>
		<path style="fill:none;stroke:#000000;stroke-linecap:round;stroke-linejoin:round;stroke-miterlimit:10;" d="M470.12,722.04
			c0.93-0.58,1.8-1.28,2.58-2.11"></path>
		<g>
			<path style="fill:none;stroke:#000000;stroke-linecap:round;stroke-linejoin:round;stroke-miterlimit:10;" d="M452.21,705.54
				c0.8,0.57,1.91,0.37,2.48-0.43c3.43-4.87,10.18-6.04,15.04-2.61c4.87,3.43,6.04,10.18,2.61,15.04c-0.57,0.8-0.37,1.91,0.43,2.48
				c0.8,0.57,1.91,0.37,2.48-0.43c4.56-6.47,3-15.44-3.47-20c-6.47-4.56-15.45-3-20,3.47C451.21,703.87,451.4,704.98,452.21,705.54z
				"></path>
		</g>
	</g>
	<g>
		<path style="fill:none;stroke:#000000;stroke-linecap:round;stroke-linejoin:round;stroke-miterlimit:10;" d="M490.59,812.56
			l-3.94-6.54c-0.46,0.4-0.95,0.79-1.49,1.12s-1.11,0.58-1.68,0.8l3.94,6.54c0.31,0.51,0.97,0.67,1.47,0.36l1.34-0.81
			C490.73,813.73,490.9,813.07,490.59,812.56z"></path>
		
			<circle style="fill:none;stroke:#000000;stroke-linecap:round;stroke-linejoin:round;stroke-miterlimit:10;" cx="479.78" cy="798.22" r="10.41"></circle>
	</g>
	<g>
		<path style="fill:none;stroke:#000000;stroke-linecap:round;stroke-linejoin:round;stroke-miterlimit:10;" d="M442.03,775.07
			l6.54-3.94c-0.4-0.46-0.79-0.95-1.12-1.49c-0.33-0.54-0.58-1.11-0.8-1.68l-6.54,3.94c-0.51,0.31-0.67,0.97-0.36,1.47l0.81,1.34
			C440.86,775.21,441.52,775.37,442.03,775.07z"></path>
		
			<circle style="fill:none;stroke:#000000;stroke-linecap:round;stroke-linejoin:round;stroke-miterlimit:10;" cx="456.36" cy="764.25" r="10.41"></circle>
	</g>
	<g>
		<path style="fill:none;stroke:#000000;stroke-linecap:round;stroke-linejoin:round;stroke-miterlimit:10;" d="M197.68,1004.34
			c-0.99,5.12-0.8,10.48,0.68,15.65"></path>
		<path style="fill:none;stroke:#000000;stroke-linecap:round;stroke-linejoin:round;stroke-miterlimit:10;" d="M225.65,977.36
			c-3.94,0.61-7.83,1.93-11.5,4.02c-0.85,0.48-1.66,0.99-2.45,1.53"></path>
		<path style="fill:none;stroke:#000000;stroke-linecap:round;stroke-linejoin:round;stroke-miterlimit:10;" d="M258.34,991.15
			c-0.9-1.26-1.87-2.44-2.9-3.55"></path>
		<path style="fill:none;stroke:#000000;stroke-linecap:round;stroke-linejoin:round;stroke-miterlimit:10;" d="M225.03,1043.98
			c1.27,0.22,2.55,0.37,3.85,0.45"></path>
		<path style="fill:none;stroke:#000000;stroke-linecap:round;stroke-linejoin:round;stroke-miterlimit:10;" d="M201.06,1006.98
			c-0.47,3.68-0.25,7.47,0.69,11.17"></path>
		<path style="fill:none;stroke:#000000;stroke-linecap:round;stroke-linejoin:round;stroke-miterlimit:10;" d="M224.56,981.37
			c-2.93,0.63-5.81,1.7-8.55,3.26"></path>
		<g>
			<path style="fill:none;stroke:#000000;stroke-linecap:round;stroke-linejoin:round;stroke-miterlimit:10;" d="M261.36,1027.36
				c2.21,2.58,4.25,5.46,6.03,8.6c8.61,15.15,8.96,32.05,2.01,42.72c-12.73,0.51-27.06-8.45-35.67-23.6
				c-1.92-3.38-3.43-6.84-4.54-10.3c-0.58-1.8-1.05-3.6-1.41-5.39"></path>
			<path style="fill:none;stroke:#000000;stroke-linecap:round;stroke-linejoin:round;stroke-miterlimit:10;" d="M229.68,1016.13
				c0.15-0.34,0.31-0.68,0.47-1.01c0.88-1.79,2.75-2.85,4.74-2.69c0.83,0.07,1.66,0.17,2.49,0.31"></path>
			
				<line style="fill:none;stroke:#000000;stroke-linecap:round;stroke-linejoin:round;stroke-miterlimit:10;" x1="269.4" y1="1078.68" x2="229.3" y2="1008.1"></line>
		</g>
		<g>
			<path style="fill:none;stroke:#000000;stroke-linecap:round;stroke-linejoin:round;stroke-miterlimit:10;" d="M183.06,1072.04
				c-5.78-11.35-3.65-28.12,6.51-42.27c9.32-12.99,22.89-20.29,34.8-19.98c1.99,0.05,3.74,1.31,4.43,3.18
				c4.11,11.18,1.55,26.37-7.77,39.37C210.86,1066.49,195.66,1073.89,183.06,1072.04z"></path>
			
				<line style="fill:none;stroke:#000000;stroke-linecap:round;stroke-linejoin:round;stroke-miterlimit:10;" x1="183.06" y1="1072.04" x2="229.16" y2="1008.18"></line>
		</g>
		<g>
			<path style="fill:none;stroke:#000000;stroke-linecap:round;stroke-linejoin:round;stroke-miterlimit:10;" d="M235.76,1005.58
				c-0.98,0.33-1.96,0.6-2.95,0.81c-2.01,0.42-4.07-0.51-5.1-2.29"></path>
			<path style="fill:none;stroke:#000000;stroke-linecap:round;stroke-linejoin:round;stroke-miterlimit:10;" d="M224.39,994.16
				c-0.99-6.86,0.08-14.74,3.49-22.35c5.85-13.03,16.84-21.45,27.27-22.02c6.5,8.17,7.52,21.98,1.68,35.01
				c-1.22,2.73-2.67,5.25-4.3,7.55"></path>
			
				<line style="fill:none;stroke:#000000;stroke-linecap:round;stroke-linejoin:round;stroke-miterlimit:10;" x1="229.36" y1="1008.21" x2="255.14" y2="949.78"></line>
		</g>
		<g>
			<path style="fill:none;stroke:#000000;stroke-linecap:round;stroke-linejoin:round;stroke-miterlimit:10;" d="M184.05,981.23
				c7.22-4.52,18.53-4.08,28.57,1.86c8.66,5.12,14.18,13.05,15.22,20.59c0.3,2.21-0.96,4.35-3.04,5.14
				c-7.11,2.72-16.72,1.69-25.37-3.44C189.39,999.44,183.57,989.74,184.05,981.23z"></path>
			
				<line style="fill:none;stroke:#000000;stroke-linecap:round;stroke-linejoin:round;stroke-miterlimit:10;" x1="184.05" y1="981.23" x2="229.43" y2="1008.16"></line>
		</g>
		<g>
			<path style="fill:none;stroke:#000000;stroke-linecap:round;stroke-linejoin:round;stroke-miterlimit:10;" d="M280.01,1018.31
				c-2.56-6.72-9.69-12.64-19.09-14.85c-8.43-1.99-16.59-0.53-22,3.3c-1.49,1.05-2.21,2.77-2.12,4.49c-0.37-0.41-0.78-0.8-1.12-1.23
				c-0.81-1.05-0.93-2.49-0.3-3.67c4.67-8.71,15.66-15.37,28.93-16.47c14.23-1.18,26.92,4.38,32.46,13.22
				C294.09,1009.54,287.98,1015.01,280.01,1018.31z"></path>
		</g>
		
			<line style="fill:none;stroke:#000000;stroke-linecap:round;stroke-linejoin:round;stroke-miterlimit:10;" x1="268.95" y1="1006.25" x2="296.76" y2="1003.11"></line>
		<path style="fill:none;stroke:#000000;stroke-linecap:round;stroke-linejoin:round;stroke-miterlimit:10;" d="M280.64,1020.11
			c-5,5.83-14.85,8.5-25.08,6.08c-8.43-1.99-15.08-6.94-18.21-12.79c-1.23-2.29-0.56-5.14,1.57-6.65c5.41-3.83,13.58-5.29,22-3.3
			C271.16,1005.87,278.78,1012.65,280.64,1020.11z"></path>
		
			<line style="fill:none;stroke:#000000;stroke-linecap:round;stroke-linejoin:round;stroke-miterlimit:10;" x1="280.64" y1="1020.11" x2="228.52" y2="1007.95"></line>
	</g>
	<g>
		<g>
			
				<circle style="fill:none;stroke:#000000;stroke-linecap:round;stroke-linejoin:round;stroke-miterlimit:10;" cx="298.18" cy="705.58" r="12.11"></circle>
			<path style="fill:none;stroke:#000000;stroke-linecap:round;stroke-linejoin:round;stroke-miterlimit:10;" d="M306.54,693.33
				l14.99,5.65c1.56,0.59,2.33,2.34,1.72,3.88l0,0c-0.59,1.48-2.23,2.23-3.73,1.72l-11.34-3.88l-8.4-3.76L306.54,693.33z"></path>
		</g>
		<path style="fill:#FFFFFF;stroke:#000000;stroke-linecap:round;stroke-linejoin:round;stroke-miterlimit:10;" d="M291.01,690.27
			L291.01,690.27c-6.95,5.97-11.11,15.02-10.46,24.86c0.38,5.75,2.35,11.01,5.45,15.39c4.26,6.02,10.75,10.95,18.18,12.94
			l2.91-18.16c-2.14-1.99-3.55-4.77-3.76-7.92c-0.21-3.19,0.86-6.16,2.76-8.43l-14.59-18.07c3.91-2.52,7.56-4.04,12.53-4.37
			c14.31-0.95,27.79,8.79,30.62,22.45c0.33,1.58,1.92,2.56,3.48,2.16l0,0c1.45-0.37,2.37-1.8,2.1-3.27
			c-2.73-14.88-16.37-25.68-31.73-24.61C301.84,683.7,295.74,686.23,291.01,690.27z"></path>
		<path style="fill:#FFFFFF;stroke:#000000;stroke-linecap:round;stroke-linejoin:round;stroke-miterlimit:10;" d="M294.15,694.16"></path>
		<polygon style="fill:#FFFFFF;" points="297.42,714.3 308.75,703.55 304.12,715.69 302.72,716.42 		"></polygon>
		<path style="fill:#FFFFFF;stroke:#000000;stroke-linecap:round;stroke-linejoin:round;stroke-miterlimit:10;" d="M320.59,737.32
			c-0.88,1.38-2.69,1.84-4.12,1.05l-7.4-4.09c-1.46-0.79-1.99-2.63-1.17-4.08l0,0c0.78-1.38,2.51-1.91,3.93-1.19l7.56,3.87
			C321.02,733.72,321.58,735.78,320.59,737.32L320.59,737.32z"></path>
		<path style="fill:#FFFFFF;" d="M298.71,687.02c-8.33,0.55-14.13,9.39-9.9,17.94c1.28,2.58,3.58,4.59,6.3,5.52
			c9.03,3.07,17.03-3.84,16.48-12.17c-0.04-0.62-0.13-1.22-0.26-1.8l9.3,4.95c1.35,0.72,3.05,0.37,3.92-0.89
			c1-1.45,0.54-3.42-0.97-4.28l-13.32-7.63c-0.37-0.21-0.8-0.25-1.2-0.11l-2.37,0.82C304.48,687.72,301.68,686.83,298.71,687.02z"></path>
		<path style="fill:#FFFFFF;stroke:#000000;stroke-linecap:round;stroke-linejoin:round;stroke-miterlimit:10;" d="M314.65,732.46"></path>
		<path style="fill:#FFFFFF;stroke:#000000;stroke-linecap:round;stroke-linejoin:round;stroke-miterlimit:10;" d="M314.6,737.12"></path>
		<path style="fill:#FFFFFF;stroke:#000000;stroke-linecap:round;stroke-linejoin:round;stroke-miterlimit:10;" d="M295.89,710.67
			c1.25,0.4,2.58,0.59,3.95,0.55c6.91-0.19,12.21-6.08,11.76-12.91c-0.04-0.62-0.13-1.22-0.26-1.8l9.3,4.95
			c1.35,0.72,3.05,0.37,3.92-0.89c1-1.45,0.54-3.42-0.97-4.28l-13.32-7.63c-0.37-0.21-0.8-0.25-1.2-0.11l-2.37,0.82
			c-2.22-1.64-5.59-3.82-11.85-1.86"></path>
		<path style="fill:none;stroke:#000000;stroke-linecap:round;stroke-linejoin:round;stroke-miterlimit:10;" d="M299.12,685.38
			c0,0-10.57,3.68-15.7,14.81"></path>
		<g>
			<path style="fill:#FFFFFF;stroke:#000000;stroke-linecap:round;stroke-linejoin:round;stroke-miterlimit:10;" d="M291.36,721.66
				l8.16-3.59c-1.35,0.5,2.49-0.93,5.17-1.92c1.59-0.59,3.4,0.31,4.71,1.4l10.87,8.81c0.55,0.46,0.9,1.08,1.02,1.74
				c0.17,0.86-0.04,1.79-0.65,2.52c-1.07,1.28-2.98,1.44-4.26,0.37l-2.83-2.05c-4.37-3.67-10.93-2.92-14.36,1.64l-1.91,2.53"></path>
		</g>
		<g>
			<path style="fill:#FFFFFF;stroke:#000000;stroke-linecap:round;stroke-linejoin:round;stroke-miterlimit:10;" d="M298.2,739.82
				c2.95,4.73,8.62,5.95,13,3.77l7.78,1.73c0.42,0.09,0.74-0.36,0.52-0.73l-3.6-5.98c0.68-1.58,0.93-3.3,0.76-4.97l0,0l-0.01-0.05
				c-0.03-0.23-0.06-0.46-0.1-0.69l-0.73-5.05l-0.02,0.02c-0.08-0.71-0.34-1.41-0.78-2.03c-1.4-1.96-4.13-2.41-6.09-1.01
				c-0.04,0.03-0.08,0.06-0.12,0.09c-4.04-0.85-8.5,0.83-10.84,5C296.26,732.97,296.35,736.85,298.2,739.82z"></path>
			
				<line style="fill:#FFFFFF;stroke:#000000;stroke-linecap:round;stroke-linejoin:round;stroke-miterlimit:10;" x1="309.24" y1="728.88" x2="306.25" y2="729.56"></line>
			<polygon points="311.45,727.09 313.61,725.9 314.8,728.06 			"></polygon>
			<path style="fill:#FFFFFF;stroke:#000000;stroke-linecap:round;stroke-linejoin:round;stroke-miterlimit:10;" d="M299.42,734.78
				c-0.86,2.81-1.38,7.05-0.96,10.31c0.07,0.55,0.73,0.74,1.22,0.48c0.99-0.53,4.42-2.81,6.75-5.46c0,0-0.33,0.42,0,0"></path>
		</g>
	</g>
</g>
<g id="floor">
	<g>
		<path style="fill-rule:evenodd;clip-rule:evenodd;" d="M1679.57,818.02h-126.96v16.93h126.96v218.17h-200.6v25.08h112.89v171.4
			h14.16h1.6h46.66v278.69h-359.73v-158.81h-25.08v158.81v2.54v17.25H170.81v-135.43h-70.14v135.43v3.39v43.17h1621.23v-43.17v-3.39
			V798.97h-42.32V818.02z M1607.62,1078.19h56.92v155.64h-56.92V1078.19z"></path>
		<polygon style="fill-rule:evenodd;clip-rule:evenodd;" points="1383.32,834.95 1383.32,818.02 737.92,818.02 737.92,834.02 
			737.92,834.95 737.92,1275.09 754.85,1275.09 754.85,834.95 1269.47,834.95 1269.47,1053.11 1269.47,1054.12 1269.47,1200.18 
			1294.55,1200.18 1294.55,1077.91 1309.68,1077.91 1309.68,1053.11 1294.55,1053.11 1286.4,1053.11 1286.4,834.95 		"></polygon>
		<path style="fill-rule:evenodd;clip-rule:evenodd;" d="M100.76,405.38v43.04v3.44v72.01h70.35v-72.01h1136.03V559.5v3.02v14.26
			h59.25h2.02h14.91V451.87h296.25v124.91h42.32V451.87v-2.55v-43.94H100.76z M1366.39,559.5h-42.32V451.87h42.32V559.5z"></path>
		<rect x="100.67" y="841.29" style="fill-rule:evenodd;clip-rule:evenodd;" width="70.14" height="253.93"></rect>
	</g>
	<g>
		<path style="fill:none;stroke:#000000;stroke-linecap:round;stroke-linejoin:round;stroke-miterlimit:10;" d="M1699.74,588.61
			c109.75,0,199.59,88.77,199.6,198.53l-197.96,0"></path>
		
			<rect x="1684.56" y="782.16" transform="matrix(-2.479662e-05 -1 1 -2.479662e-05 897.4604 2483.553)" style="fill:none;stroke:#000000;stroke-linecap:round;stroke-linejoin:round;stroke-miterlimit:10;" width="11.83" height="21.8"></rect>
		
			<rect x="1684.56" y="571.8" transform="matrix(-2.479663e-05 -1 1 -2.479663e-05 1107.8121 2273.1855)" style="fill:none;stroke:#000000;stroke-linecap:round;stroke-linejoin:round;stroke-miterlimit:10;" width="11.83" height="21.8"></rect>
	</g>
	<g>
		<path style="fill:none;stroke:#000000;stroke-linecap:round;stroke-linejoin:round;stroke-miterlimit:10;" d="M1469.95,1062.54
			c0-83.62-67.64-152.07-151.26-152.07l0,150.82"></path>
		
			<rect x="1309.68" y="1061.29" style="fill:none;stroke:#000000;stroke-linecap:round;stroke-linejoin:round;stroke-miterlimit:10;" width="9.01" height="16.61"></rect>
		
			<rect x="1469.95" y="1061.3" style="fill:none;stroke:#000000;stroke-linecap:round;stroke-linejoin:round;stroke-miterlimit:10;" width="9.01" height="16.61"></rect>
	</g>
	<g>
		<path style="fill:none;stroke:#000000;stroke-linecap:round;stroke-linejoin:round;stroke-miterlimit:10;" d="M1279.18,1209.19
			c-83.62,0-152.07,67.64-152.07,151.26l150.82,0"></path>
		
			<rect x="1281.74" y="1356.66" transform="matrix(2.479671e-05 -1 1 2.479671e-05 -78.7531 2651.168)" style="fill:none;stroke:#000000;stroke-linecap:round;stroke-linejoin:round;stroke-miterlimit:10;" width="9.01" height="16.61"></rect>
		
			<rect x="1281.74" y="1196.38" transform="matrix(2.479672e-05 -1 1 2.479672e-05 81.5229 2490.9041)" style="fill:none;stroke:#000000;stroke-linecap:round;stroke-linejoin:round;stroke-miterlimit:10;" width="9.01" height="16.61"></rect>
	</g>
	<g>
		<g id="LWPOLYLINE_307_">
			
				<rect x="958.88" y="451.94" style="fill:none;stroke:#000000;stroke-linecap:round;stroke-linejoin:round;stroke-miterlimit:10;" width="124.85" height="124.85"></rect>
		</g>
		<g id="LWPOLYLINE_306_">
			
				<line style="fill:none;stroke:#000000;stroke-linecap:round;stroke-linejoin:round;stroke-miterlimit:10;" x1="1052.51" y1="524.76" x2="1052.5" y2="566.38"></line>
		</g>
		<g id="LWPOLYLINE_305_">
			
				<line style="fill:none;stroke:#000000;stroke-linecap:round;stroke-linejoin:round;stroke-miterlimit:10;" x1="1031.7" y1="545.57" x2="1073.31" y2="545.57"></line>
		</g>
		<g id="CIRCLE_208_">
			<path style="fill:none;stroke:#000000;stroke-linecap:round;stroke-linejoin:round;stroke-miterlimit:10;" d="M1069.15,545.57
				c0,9.19-7.45,16.65-16.65,16.65s-16.65-7.45-16.65-16.65c0-9.19,7.45-16.65,16.65-16.65
				C1061.7,528.92,1069.15,536.38,1069.15,545.57L1069.15,545.57z"></path>
		</g>
		<g id="LWPOLYLINE_304_">
			
				<line style="fill:none;stroke:#000000;stroke-linecap:round;stroke-linejoin:round;stroke-miterlimit:10;" x1="1052.51" y1="462.34" x2="1052.51" y2="503.96"></line>
		</g>
		<g id="LWPOLYLINE_303_">
			
				<line style="fill:none;stroke:#000000;stroke-linecap:round;stroke-linejoin:round;stroke-miterlimit:10;" x1="1031.7" y1="483.15" x2="1073.32" y2="483.15"></line>
		</g>
		<g id="CIRCLE_207_">
			<path style="fill:none;stroke:#000000;stroke-linecap:round;stroke-linejoin:round;stroke-miterlimit:10;" d="M1069.15,483.14
				c0,9.2-7.46,16.65-16.65,16.65c-9.2,0-16.65-7.46-16.65-16.65c0-9.2,7.46-16.65,16.65-16.65
				C1061.7,466.49,1069.15,473.95,1069.15,483.14L1069.15,483.14z"></path>
		</g>
		<g id="LWPOLYLINE_302_">
			
				<line style="fill:none;stroke:#000000;stroke-linecap:round;stroke-linejoin:round;stroke-miterlimit:10;" x1="990.08" y1="462.34" x2="990.08" y2="503.95"></line>
		</g>
		<g id="LWPOLYLINE_301_">
			
				<line style="fill:none;stroke:#000000;stroke-linecap:round;stroke-linejoin:round;stroke-miterlimit:10;" x1="969.27" y1="483.15" x2="1010.89" y2="483.15"></line>
		</g>
		<g id="CIRCLE_206_">
			<path style="fill:none;stroke:#000000;stroke-linecap:round;stroke-linejoin:round;stroke-miterlimit:10;" d="M1006.73,483.14
				c0,9.2-7.46,16.65-16.65,16.65c-9.2,0-16.65-7.46-16.65-16.65s7.46-16.65,16.65-16.65
				C999.27,466.49,1006.73,473.94,1006.73,483.14L1006.73,483.14z"></path>
		</g>
		<g id="LWPOLYLINE_300_">
			
				<line style="fill:none;stroke:#000000;stroke-linecap:round;stroke-linejoin:round;stroke-miterlimit:10;" x1="990.08" y1="524.76" x2="990.08" y2="566.38"></line>
		</g>
		<g id="LWPOLYLINE_299_">
			
				<line style="fill:none;stroke:#000000;stroke-linecap:round;stroke-linejoin:round;stroke-miterlimit:10;" x1="969.27" y1="545.57" x2="1010.89" y2="545.57"></line>
		</g>
		<g id="CIRCLE_205_">
			<path style="fill:none;stroke:#000000;stroke-linecap:round;stroke-linejoin:round;stroke-miterlimit:10;" d="M1006.73,545.57
				c0,9.19-7.45,16.65-16.65,16.65c-9.19,0-16.65-7.45-16.65-16.65c0-9.19,7.45-16.65,16.65-16.65S1006.73,536.37,1006.73,545.57
				L1006.73,545.57z"></path>
		</g>
	</g>
	<g>
		<g id="LWPOLYLINE_298_">
			
				<rect x="1182.3" y="451.94" style="fill:none;stroke:#000000;stroke-linecap:round;stroke-linejoin:round;stroke-miterlimit:10;" width="124.85" height="124.85"></rect>
		</g>
		<g id="LWPOLYLINE_297_">
			<path style="fill:none;stroke:#000000;stroke-linecap:round;stroke-linejoin:round;stroke-miterlimit:10;" d="M1296.74,559.1
				l0-79.02c0-4.02-3.26-7.28-7.28-7.29c0,0-89.48,0-89.48,0c-4.02,0-7.28,3.26-7.29,7.28c0,0,0,79.02,0,79.02
				c0,4.02,3.26,7.28,7.28,7.28c0,0,89.48,0,89.48,0C1293.48,566.38,1296.74,563.12,1296.74,559.1z"></path>
		</g>
		<g id="LWPOLYLINE_296_">
			<path style="fill:none;stroke:#000000;stroke-linecap:round;stroke-linejoin:round;stroke-miterlimit:10;" d="M1265.53,500.33
				c4.03,0,7.3-3.27,7.3-7.3c0-4.03-3.27-7.3-7.3-7.3c-4.03,0-7.3,3.27-7.3,7.3C1258.23,497.06,1261.49,500.33,1265.53,500.33z"></path>
		</g>
	</g>
	<g>
		
			<line style="fill:none;stroke:#000000;stroke-linecap:round;stroke-linejoin:round;stroke-miterlimit:10;" x1="130.47" y1="1418.05" x2="130.47" y2="1095.22"></line>
		
			<line style="fill:none;stroke:#000000;stroke-linecap:round;stroke-linejoin:round;stroke-miterlimit:10;" x1="100.76" y1="1418.35" x2="100.76" y2="1093.5"></line>
		
			<line style="fill:none;stroke:#000000;stroke-linecap:round;stroke-linejoin:round;stroke-miterlimit:10;" x1="170.81" y1="1417.34" x2="170.81" y2="1093.5"></line>
		
			<line style="fill:none;stroke:#000000;stroke-linecap:round;stroke-linejoin:round;stroke-miterlimit:10;" x1="143.16" y1="1418.05" x2="143.16" y2="1094.21"></line>
		
			<line style="fill:none;stroke:#000000;stroke-linecap:round;stroke-linejoin:round;stroke-miterlimit:10;" x1="130.47" y1="1297.37" x2="143.16" y2="1297.37"></line>
		
			<line style="fill:none;stroke:#000000;stroke-linecap:round;stroke-linejoin:round;stroke-miterlimit:10;" x1="130.47" y1="1282.56" x2="143.16" y2="1282.56"></line>
		
			<line style="fill:none;stroke:#000000;stroke-linecap:round;stroke-linejoin:round;stroke-miterlimit:10;" x1="130.47" y1="1110.51" x2="143.16" y2="1110.51"></line>
		
			<line style="fill:none;stroke:#000000;stroke-linecap:round;stroke-linejoin:round;stroke-miterlimit:10;" x1="130.52" y1="1406.89" x2="143.21" y2="1406.89"></line>
		
			<line style="fill:none;stroke:#000000;stroke-linecap:round;stroke-linejoin:round;stroke-miterlimit:10;" x1="136.67" y1="1406.89" x2="136.67" y2="1297.37"></line>
		
			<line style="fill:none;stroke:#000000;stroke-linecap:round;stroke-linejoin:round;stroke-miterlimit:10;" x1="136.67" y1="1282.56" x2="136.67" y2="1110.51"></line>
		<path style="fill:none;stroke:#000000;stroke-linecap:round;stroke-linejoin:round;stroke-miterlimit:10;" d="M142.55,1297.37
			c41.09,0,77.64-20.74,105.53-56.73"></path>
		
			<line style="fill:none;stroke:#000000;stroke-linecap:round;stroke-linejoin:round;stroke-miterlimit:10;" x1="142.99" y1="1109.84" x2="248.08" y2="1240.64"></line>
	</g>
	<g>
		
			<line style="fill:none;stroke:#000000;stroke-linecap:round;stroke-linejoin:round;stroke-miterlimit:10;" x1="128.33" y1="844.62" x2="128.33" y2="519.71"></line>
		
			<line style="fill:none;stroke:#000000;stroke-linecap:round;stroke-linejoin:round;stroke-miterlimit:10;" x1="100.67" y1="845.34" x2="100.67" y2="518.7"></line>
		
			<line style="fill:none;stroke:#000000;stroke-linecap:round;stroke-linejoin:round;stroke-miterlimit:10;" x1="170.81" y1="845.45" x2="170.81" y2="518.7"></line>
		
			<line style="fill:none;stroke:#000000;stroke-linecap:round;stroke-linejoin:round;stroke-miterlimit:10;" x1="141.03" y1="844.62" x2="141.03" y2="518.7"></line>
		
			<line style="fill:none;stroke:#000000;stroke-linecap:round;stroke-linejoin:round;stroke-miterlimit:10;" x1="128.33" y1="704.84" x2="141.03" y2="704.84"></line>
		
			<line style="fill:none;stroke:#000000;stroke-linecap:round;stroke-linejoin:round;stroke-miterlimit:10;" x1="128.33" y1="688.97" x2="141.03" y2="688.97"></line>
		
			<line style="fill:none;stroke:#000000;stroke-linecap:round;stroke-linejoin:round;stroke-miterlimit:10;" x1="128.33" y1="530.92" x2="141.03" y2="530.92"></line>
		
			<line style="fill:none;stroke:#000000;stroke-linecap:round;stroke-linejoin:round;stroke-miterlimit:10;" x1="128.38" y1="833.46" x2="141.08" y2="833.46"></line>
		
			<line style="fill:none;stroke:#000000;stroke-linecap:round;stroke-linejoin:round;stroke-miterlimit:10;" x1="134.53" y1="833.46" x2="134.53" y2="704.84"></line>
		
			<line style="fill:none;stroke:#000000;stroke-linecap:round;stroke-linejoin:round;stroke-miterlimit:10;" x1="134.58" y1="688.97" x2="134.58" y2="530.92"></line>
	</g>
	
		<line style="fill:none;stroke:#000000;stroke-linecap:round;stroke-linejoin:round;stroke-miterlimit:10;stroke-dasharray:10,10;" x1="746.38" y1="1555.03" x2="746.38" y2="1265.55"></line>
	
		<line style="fill:none;stroke:#000000;stroke-linecap:round;stroke-linejoin:round;stroke-miterlimit:10;stroke-dasharray:10,10;" x1="1374.86" y1="822.6" x2="1374.86" y2="569.75"></line>
	
		<line style="fill:none;stroke:#000000;stroke-linecap:round;stroke-linejoin:round;stroke-miterlimit:10;stroke-dasharray:10,10;" x1="737.92" y1="822.37" x2="737.92" y2="438.57"></line>
	
		<line style="fill:none;stroke:#000000;stroke-linecap:round;stroke-linejoin:round;stroke-miterlimit:10;stroke-dasharray:10,10;" x1="1376.98" y1="826.48" x2="1565.49" y2="826.48"></line>
	<g>
		<g>
			<g id="LWPOLYLINE_295_">
				<path style="fill:none;stroke:#000000;stroke-linecap:round;stroke-linejoin:round;stroke-miterlimit:10;" d="M1654.94,1374.86
					l-59.78,0c-8.42,0-15.88-5.44-18.47-13.45c-9.37-29.09-9.37-60.39,0-89.48c2.58-8.02,10.04-13.45,18.47-13.45h59.78"></path>
			</g>
			<g id="LWPOLYLINE_294_">
				<path style="fill:none;stroke:#000000;stroke-linecap:round;stroke-linejoin:round;stroke-miterlimit:10;" d="M1638.21,1285.63
					c0-6.43-5.21-11.64-11.64-11.63h-18.63c-4.26,0-8.02,2.78-9.27,6.86c-7.15,23.34-7.15,48.29,0,71.63
					c1.25,4.08,5.01,6.86,9.27,6.86h18.63c6.43,0,11.64-5.21,11.64-11.64"></path>
			</g>
			<g id="LWPOLYLINE_293_">
				<path style="fill:none;stroke:#000000;stroke-linecap:round;stroke-linejoin:round;stroke-miterlimit:10;" d="M1626.57,1367.1
					c6.43,0,11.64-5.21,11.64-11.64l0-77.59c0-6.43-5.21-11.64-11.63-11.64h-31.42c-5.05,0-9.53,3.26-11.07,8.07
					c-8.87,27.54-8.87,57.18,0,84.72c1.55,4.81,6.02,8.07,11.07,8.08H1626.57z"></path>
			</g>
			<g id="LWPOLYLINE_292_">
				<path style="fill:none;stroke:#000000;stroke-linecap:round;stroke-linejoin:round;stroke-miterlimit:10;" d="M1634.75,1316.67
					c0-2.88-2.33-5.22-5.22-5.23c-2.88,0-5.22,2.34-5.22,5.23c0,2.88,2.34,5.22,5.22,5.22
					C1632.41,1321.89,1634.74,1319.56,1634.75,1316.67z"></path>
			</g>
		</g>
		<g>
			<g id="LWPOLYLINE_291_">
				
					<rect x="1294.39" y="1380.99" style="fill:none;stroke:#000000;stroke-linecap:round;stroke-linejoin:round;stroke-miterlimit:10;" width="359.8" height="147.29"></rect>
			</g>
			<g id="LWPOLYLINE_290_">
				<path style="fill:none;stroke:#000000;stroke-linecap:round;stroke-linejoin:round;stroke-miterlimit:10;" d="M1344.27,1516.49
					l234.76,0c34.16,0,61.85-27.69,61.86-61.86c0-34.16-27.69-61.86-61.86-61.86l-234.76,0c-16.33-0.01-29.62,13.13-29.81,29.45
					v64.81c0,16.27,13.19,29.46,29.46,29.46"></path>
			</g>
			<g id="LWPOLYLINE_289_">
				<path style="fill:none;stroke:#000000;stroke-linecap:round;stroke-linejoin:round;stroke-miterlimit:10;" d="M1417.82,1499.66
					h161.22c24.87,0,45.03-20.16,45.03-45.03c0-24.87-20.16-45.03-45.03-45.03l-158.9,0c-23.96,0.02-43.71,18.78-44.96,42.71
					C1373.87,1477.16,1392.97,1498.36,1417.82,1499.66z"></path>
			</g>
			<g id="LWPOLYLINE_288_">
				<path style="fill:none;stroke:#000000;stroke-linecap:round;stroke-linejoin:round;stroke-miterlimit:10;" d="M1587.28,1454.63
					c0-4.55-3.69-8.24-8.24-8.24c-4.56,0-8.25,3.69-8.24,8.24c0,4.56,3.69,8.25,8.24,8.24
					C1583.59,1462.88,1587.28,1459.19,1587.28,1454.63z"></path>
			</g>
		</g>
		<g>
			<g id="LWPOLYLINE_287_">
				
					<rect x="1552.47" y="926.15" style="fill:none;stroke:#000000;stroke-linecap:round;stroke-linejoin:round;stroke-miterlimit:10;" width="126.81" height="126.96"></rect>
			</g>
			<g id="LWPOLYLINE_286_">
				<polyline style="fill:none;stroke:#000000;stroke-linecap:round;stroke-linejoin:round;stroke-miterlimit:10;" points="
					1643.81,1026.08 1601.52,989.63 1630.23,989.63 1587.94,953.19 				"></polyline>
			</g>
			<g id="LWPOLYLINE_285_">
				<path style="fill:none;stroke:#000000;stroke-linecap:round;stroke-linejoin:round;stroke-miterlimit:10;" d="M1647.78,989.63
					c0-17.62-14.28-31.9-31.9-31.9c-17.62,0-31.9,14.28-31.9,31.9c0,17.62,14.28,31.9,31.9,31.9
					C1633.5,1021.53,1647.78,1007.25,1647.78,989.63z"></path>
			</g>
		</g>
		<g>
			<g id="LWPOLYLINE_284_">
				<path style="fill:none;stroke:#000000;stroke-linecap:round;stroke-linejoin:round;stroke-miterlimit:10;" d="M1591.86,1200.5
					h-73.91c-19.56,0-35.41-15.86-35.41-35.41c0-19.56,15.85-35.41,35.41-35.41h73.91"></path>
				
					<line style="fill:none;stroke:#000000;stroke-linecap:round;stroke-linejoin:round;stroke-miterlimit:10;" x1="1591.86" y1="1129.67" x2="1591.86" y2="1200.5"></line>
			</g>
			<g id="LWPOLYLINE_283_">
				<path style="fill:none;stroke:#000000;stroke-linecap:round;stroke-linejoin:round;stroke-miterlimit:10;" d="M1517.95,1136.76
					h24.18c15.64,0,28.33,12.68,28.33,28.33c0,15.65-12.68,28.33-28.33,28.34h-24.18c-15.64,0-28.33-12.68-28.33-28.33
					C1489.62,1149.45,1502.3,1136.76,1517.95,1136.76z"></path>
			</g>
			<g id="LWPOLYLINE_282_">
				<path style="fill:none;stroke:#000000;stroke-linecap:round;stroke-linejoin:round;stroke-miterlimit:10;" d="M1532.29,1154.47
					h12.42c5.87,0,10.62,4.76,10.62,10.62c0,5.87-4.76,10.62-10.62,10.62h-12.42c-5.87,0-10.62-4.76-10.62-10.62
					C1521.66,1159.22,1526.42,1154.47,1532.29,1154.47z"></path>
			</g>
		</g>
	</g>
</g>
</svg>
