<?xml version="1.0" encoding="utf-8"?>
<!-- Generator: Adobe Illustrator 24.1.2, SVG Export Plug-In . SVG Version: 6.00 Build 0)  -->
<svg version="1.0" id="Layer_1" xmlns:x="&amp;ns_extend;" xmlns:i="&amp;ns_ai;" xmlns:graph="&amp;ns_graphs;" xmlns="http://www.w3.org/2000/svg" xmlns:xlink="http://www.w3.org/1999/xlink" xmlns:a="http://ns.adobe.com/AdobeSVGViewerExtensions/3.0/" x="0px" y="0px" width="2000px" height="2000px" viewBox="0 0 2000 2000" style="enable-background:new 0 0 2000 2000;" xml:space="preserve">
<path id="background" style="fill:#FFFFFF;" d="M1900.09,667.91l-43.34,111.12l-0.51-0.19l-87.09,220.31l0.01,0l-42.89,111.72
	l-0.47-0.18h-120.12v53.18h59.83c0.18,0,0.34,0.09,0.43,0.25l69.8,119.83c0.07,0.12,0.09,0.26,0.05,0.39l-69.8,239.33
	c-0.06,0.21-0.26,0.36-0.48,0.36h-59.83v83.27h-33.91h-25.93H259.42v-30.23v-17.63v-518.56h23.31v-10.32H100.09
	c-0.28,0-0.5-0.22-0.5-0.5c0-100.35,82.11-182.01,183.14-182.28v-10.33v0h-25.3V392.69h28.68h15.2h1330.3h12.96h80.78V505.3
	l38.04,35.21l0,0c0.09-0.1,0.22-0.15,0.35-0.16c0.1-0.01,0.26,0.04,0.36,0.13l89.52,83.75c0.1,0.09,0.15,0.22,0.16,0.35
	c0,0.12-0.04,0.24-0.12,0.33L1900.09,667.91z"></path>
<g id="r1">
	<path id="r1_path" style="fill:none;" d="M923.38,1463.74l0.03-299.43h155.29v299.39L923.38,1463.74z"></path>
	
		<text id="r1_text" transform="matrix(1 0 0 1 976.9407 1337.1953)" style="font-family: GraphikLCG-Regular; font-size: 40px; text-anchor: middle; text-align: center;"></text>
</g>
<g id="c1">
	<path id="c1_path" style="fill:none;" d="M1078.19,998.12l0.03-263.98h166.96v263.94L1078.19,998.12z"></path>
	
		<text id="c1_text" transform="matrix(1 0 0 1 1139.5449 871.5704)" style="font-family: GraphikLCG-Regular; font-size: 40px; text-anchor: middle; text-align: center;"></text>
</g>
<g id="s1">
	<path id="s1_path" style="fill:none;" d="M478.9,1432.34l0.03-287.21h166.96v287.18L478.9,1432.34z"></path>
	<text id="s1_text" transform="matrix(1 0 0 1 542.056 1305.7969)" style="font-family: GraphikLCG-Regular; font-size: 40px; text-anchor: middle; text-align: center;"></text>
</g>
<g id="g1">
	<path id="g1_path" style="fill:none;" d="M773.83,1400.89l0.03-244.35h137.87v244.31L773.83,1400.89z"></path>
	<text id="g1_text" transform="matrix(1 0 0 1 834.0413 1286.5098)" style="font-family: GraphikLCG-Regular; font-size: 40px; text-anchor: middle; text-align: center;"></text>
</g>
<g id="g2">
	<path id="g2_path" style="fill:none;" d="M366.99,798.57l0.03-299.43h166.96v299.39L366.99,798.57z"></path>
	<text id="g2_text" transform="matrix(1 0 0 1 424.1019 672.0245)" style="font-family: GraphikLCG-Regular; font-size: 40px; text-anchor: middle; text-align: center;"></text>
</g>
<g id="h1">
	<path id="h1_path" style="fill:none;" d="M311.69,1096.66l0.03-266.09h166.96v266.05L311.69,1096.66z"></path>
	<text id="h1_text" transform="matrix(1 0 0 1 372.481 983.3272)" style="font-family: GraphikLCG-Regular; font-size: 40px; text-anchor: middle; text-align: center;"></text>
</g>
<path id="u7" style="fill:#FFFFFF;stroke:#FFFFFF;stroke-linecap:round;stroke-linejoin:round;stroke-miterlimit:10;" d="
	M1019.6,815.61c-5.42,0-9.82-4.4-9.82-9.82c0-5.42,4.4-9.82,9.82-9.82s9.82,4.4,9.82,9.82
	C1029.42,811.21,1025.03,815.61,1019.6,815.61z"></path>
<path id="u1" style="fill:#FFFFFF;stroke:#FFFFFF;stroke-linecap:round;stroke-linejoin:round;stroke-miterlimit:10;" d="
	M1472.57,1307.44c-5.42,0-9.82-4.4-9.82-9.82c0-5.42,4.4-9.82,9.82-9.82c5.42,0,9.82,4.4,9.82,9.82
	C1482.39,1303.04,1477.99,1307.44,1472.57,1307.44z"></path>
<path id="u3" style="fill:#FFFFFF;stroke:#FFFFFF;stroke-linecap:round;stroke-linejoin:round;stroke-miterlimit:10;" d="
	M500.36,570.43c-5.42,0-9.82-4.4-9.82-9.82s4.4-9.82,9.82-9.82c5.42,0,9.82,4.4,9.82,9.82S505.79,570.43,500.36,570.43z"></path>
<g id="mebel">
	<g>
		<g>
			<path style="fill:none;stroke:#000000;stroke-linecap:round;stroke-linejoin:round;stroke-miterlimit:10;" d="M764.41,789.32
				l-4.12,5.59c-0.38-0.41-0.79-0.79-1.26-1.14c-0.46-0.34-0.96-0.62-1.46-0.86l4.12-5.59c0.32-0.43,0.93-0.53,1.37-0.21l1.14,0.84
				C764.63,788.27,764.73,788.89,764.41,789.32z"></path>
			
				<circle style="fill:none;stroke:#000000;stroke-linecap:round;stroke-linejoin:round;stroke-miterlimit:10;" cx="753.4" cy="801.4" r="9.47"></circle>
		</g>
		<g>
			<path style="fill:none;stroke:#000000;stroke-linecap:round;stroke-linejoin:round;stroke-miterlimit:10;" d="M707.94,785.31
				l5.59,4.12c-0.41,0.38-0.79,0.79-1.14,1.26c-0.34,0.46-0.62,0.96-0.86,1.46l-5.59-4.12c-0.43-0.32-0.53-0.93-0.21-1.37l0.84-1.14
				C706.89,785.08,707.5,784.99,707.94,785.31z"></path>
			
				<circle style="fill:none;stroke:#000000;stroke-linecap:round;stroke-linejoin:round;stroke-miterlimit:10;" cx="720.01" cy="796.31" r="9.47"></circle>
		</g>
	</g>
	<g>
		<polygon style="fill:none;stroke:#000000;stroke-linecap:round;stroke-linejoin:round;stroke-miterlimit:10;" points="
			798.99,560.24 798.99,650.83 679.32,650.83 679.3,560.24 		"></polygon>
		<path style="fill:none;stroke:#000000;stroke-linecap:round;stroke-linejoin:round;stroke-miterlimit:10;" d="M712.45,605.54
			l29.45,11.35c1.8,0.62,3.78,0.96,5.86,0.96c8.36,0,15.14-5.51,15.14-12.31c0-6.8-6.78-12.31-15.14-12.31
			c-2.08,0-4.06,0.34-5.86,0.96L712.45,605.54z"></path>
	</g>
	
		<rect x="679.29" y="440.56" style="fill:none;stroke:#000000;stroke-linecap:round;stroke-linejoin:round;stroke-miterlimit:10;" width="119.7" height="380.95"></rect>
	<g>
		<polygon style="fill:none;stroke:#000000;stroke-linecap:round;stroke-linejoin:round;stroke-miterlimit:10;" points="
			782.93,1020.92 902.63,1020.92 902.63,1140.6 782.93,1140.62 		"></polygon>
		<g>
			
				<line style="fill:none;stroke:#000000;stroke-linecap:round;stroke-linejoin:round;stroke-miterlimit:10;" x1="842.78" y1="1109.58" x2="842.78" y2="1051.96"></line>
			
				<line style="fill:none;stroke:#000000;stroke-linecap:round;stroke-linejoin:round;stroke-miterlimit:10;" x1="813.97" y1="1080.77" x2="871.59" y2="1080.77"></line>
			<polyline style="fill:none;stroke:#000000;stroke-linecap:round;stroke-linejoin:round;stroke-miterlimit:10;" points="
				828.37,1103.18 842.78,1095.18 857.19,1103.18 			"></polyline>
			<polyline style="fill:none;stroke:#000000;stroke-linecap:round;stroke-linejoin:round;stroke-miterlimit:10;" points="
				865.19,1095.18 857.19,1080.77 865.19,1066.36 			"></polyline>
			<polyline style="fill:none;stroke:#000000;stroke-linecap:round;stroke-linejoin:round;stroke-miterlimit:10;" points="
				857.19,1058.36 842.78,1066.36 828.37,1058.36 			"></polyline>
			<polyline style="fill:none;stroke:#000000;stroke-linecap:round;stroke-linejoin:round;stroke-miterlimit:10;" points="
				820.37,1066.36 828.37,1080.77 820.37,1095.18 			"></polyline>
		</g>
	</g>
	<g>
		<polygon style="fill:none;stroke:#000000;stroke-linecap:round;stroke-linejoin:round;stroke-miterlimit:10;" points="
			679.25,1020.92 782.93,1020.92 782.93,1140.6 679.25,1140.62 		"></polygon>
	</g>
	<g>
		<g>
			<path style="fill:none;stroke:#000000;stroke-linecap:round;stroke-linejoin:round;stroke-miterlimit:10;" d="M720.02,1072.72
				l-0.55-0.79c-0.88-1.28-1.32-2.78-1.48-4.32c-0.12-1.14-0.67-2.25-1.66-3.08c-1.46-1.22-3.59-1.43-5.24-0.49
				c-2.69,1.53-3.17,5.01-1.24,7.19c0.72,0.81,1.66,1.31,2.65,1.49c1.44,0.26,2.77,0.98,3.86,1.96l0.72,0.64
				c0.98,0.87,0.97,2.4-0.01,3.27l-2.75,2.43c-1.51,1.33-1.65,3.63-0.32,5.13l18.24,20.69c1.33,1.51,3.63,1.65,5.13,0.32
				l11.71-10.32c1.51-1.33,1.65-3.63,0.32-5.13l-18.24-20.69c-1.33-1.51-3.63-1.65-5.13-0.32l-2.75,2.43
				C722.28,1073.99,720.77,1073.8,720.02,1072.72z"></path>
			
				<circle style="fill:none;stroke:#000000;stroke-linecap:round;stroke-linejoin:round;stroke-miterlimit:10;" cx="713.42" cy="1068.2" r="2.27"></circle>
		</g>
		<g>
			<path style="fill:none;stroke:#000000;stroke-linecap:round;stroke-linejoin:round;stroke-miterlimit:10;" d="M726.44,1087.42
				l-5.7-1.92c-0.38-0.13-0.58-0.54-0.45-0.91l2.81-8.36c0.13-0.38,0.54-0.58,0.91-0.45l5.7,1.92c0.38,0.13,0.58,0.54,0.45,0.91
				l-2.81,8.36C727.23,1087.35,726.82,1087.55,726.44,1087.42z"></path>
			<path style="fill:none;stroke:#000000;stroke-linecap:round;stroke-linejoin:round;stroke-miterlimit:10;" d="M732.88,1094.73
				l-5.7-1.92c-0.38-0.13-0.58-0.54-0.45-0.91l2.81-8.36c0.13-0.38,0.54-0.58,0.91-0.45l5.7,1.92c0.38,0.13,0.58,0.54,0.45,0.91
				l-2.81,8.36C733.66,1094.65,733.26,1094.85,732.88,1094.73z"></path>
			<path style="fill:none;stroke:#000000;stroke-linecap:round;stroke-linejoin:round;stroke-miterlimit:10;" d="M739.28,1101.99
				l-5.7-1.92c-0.38-0.13-0.58-0.54-0.45-0.91l2.81-8.36c0.13-0.38,0.54-0.58,0.91-0.45l5.7,1.92c0.38,0.13,0.58,0.54,0.45,0.91
				l-2.81,8.36C740.07,1101.91,739.66,1102.12,739.28,1101.99z"></path>
		</g>
	</g>
	<g>
		<g>
			<g>
				<path style="fill:none;stroke:#000000;stroke-linecap:round;stroke-linejoin:round;stroke-miterlimit:10;" d="M1102.79,595.7
					l18.35-23.62c11.48-14.78,10.02-35.83-3.4-48.88l-1.52-1.48c-13.41-13.04-34.47-13.92-48.92-2.05l-23.15,19.01L1102.79,595.7z"></path>
				<path style="fill:none;stroke:#000000;stroke-linecap:round;stroke-linejoin:round;stroke-miterlimit:10;" d="M1055.57,515.55
					l5.11-4.19c18.51-15.2,45.48-14.07,62.65,2.63l1.95,1.9c17.18,16.71,19.06,43.66,4.36,62.59l-4.02,5.18
					c-1.94,2.5-5.63,2.76-7.9,0.55l0,0c-1.94-1.89-2.15-4.93-0.49-7.07l3.93-5.06c11.48-14.78,10.02-35.83-3.4-48.88l-1.52-1.48
					c-13.41-13.04-34.47-13.92-48.92-2.05l-4.99,4.09c-2.09,1.72-5.13,1.59-7.07-0.3l0,0
					C1052.97,521.25,1053.12,517.56,1055.57,515.55z"></path>
			</g>
			<g>
				<path style="fill:none;stroke:#000000;stroke-linecap:round;stroke-linejoin:round;stroke-miterlimit:10;" d="M917.64,668.82
					l-18.35,23.62c-11.48,14.78-10.01,35.83,3.4,48.88l1.52,1.48c13.41,13.04,34.47,13.92,48.92,2.05l23.15-19.01L917.64,668.82z"></path>
				<path style="fill:none;stroke:#000000;stroke-linecap:round;stroke-linejoin:round;stroke-miterlimit:10;" d="M964.87,748.97
					l-5.11,4.19c-18.51,15.2-45.48,14.07-62.65-2.63l-1.95-1.9c-17.18-16.71-19.06-43.66-4.36-62.59l4.02-5.18
					c1.94-2.5,5.63-2.76,7.9-0.55l0,0c1.94,1.89,2.15,4.93,0.49,7.07l-3.93,5.06c-11.48,14.78-10.01,35.83,3.4,48.88l1.52,1.48
					c13.41,13.04,34.47,13.92,48.92,2.05l4.99-4.09c2.09-1.72,5.13-1.59,7.07,0.3l0,0C967.47,743.27,967.32,746.96,964.87,748.97z"></path>
			</g>
			<g>
				<path style="fill:none;stroke:#000000;stroke-linecap:round;stroke-linejoin:round;stroke-miterlimit:10;" d="M1046.78,724.84
					l23.62,18.35c14.78,11.48,35.83,10.02,48.88-3.4l1.48-1.52c13.04-13.41,13.92-34.47,2.05-48.92l-19.01-23.15L1046.78,724.84z"></path>
				<path style="fill:none;stroke:#000000;stroke-linecap:round;stroke-linejoin:round;stroke-miterlimit:10;" d="M1126.93,677.61
					l4.19,5.11c15.2,18.51,14.07,45.48-2.63,62.65l-1.9,1.95c-16.71,17.18-43.66,19.06-62.59,4.36l-5.18-4.02
					c-2.5-1.94-2.76-5.63-0.55-7.9l0,0c1.89-1.94,4.93-2.15,7.07-0.49l5.06,3.93c14.78,11.48,35.83,10.02,48.88-3.4l1.48-1.52
					c13.04-13.41,13.92-34.47,2.05-48.92l-4.09-4.99c-1.72-2.09-1.59-5.13,0.3-7.07v0C1121.23,675.01,1124.92,675.16,1126.93,677.61
					z"></path>
			</g>
			<g>
				<path style="fill:none;stroke:#000000;stroke-linecap:round;stroke-linejoin:round;stroke-miterlimit:10;" d="M973.65,539.68
					l-23.62-18.35c-14.78-11.48-35.83-10.01-48.88,3.4l-1.48,1.52c-13.04,13.41-13.92,34.47-2.05,48.92l19.01,23.15L973.65,539.68z"></path>
				<path style="fill:none;stroke:#000000;stroke-linecap:round;stroke-linejoin:round;stroke-miterlimit:10;" d="M893.51,586.91
					l-4.19-5.11c-15.2-18.51-14.07-45.48,2.63-62.65l1.9-1.95c16.71-17.18,43.66-19.06,62.59-4.36l5.18,4.02
					c2.5,1.94,2.76,5.63,0.55,7.9l0,0c-1.89,1.94-4.93,2.15-7.07,0.49l-5.06-3.93c-14.78-11.48-35.83-10.01-48.88,3.4l-1.48,1.52
					c-13.04,13.41-13.92,34.47-2.05,48.92l4.09,4.99c1.72,2.09,1.59,5.13-0.3,7.07l0,0C899.21,589.51,895.52,589.36,893.51,586.91z"></path>
			</g>
			
				<circle style="fill:#FFFFFF;stroke:#000000;stroke-linecap:round;stroke-linejoin:round;stroke-miterlimit:10;" cx="1009.86" cy="632.63" r="100.15"></circle>
		</g>
		<g>
			<g>
				
					<circle style="fill:none;stroke:#000000;stroke-linecap:round;stroke-linejoin:round;stroke-miterlimit:10;" cx="968.11" cy="683.27" r="18.25"></circle>
			</g>
			<g>
				
					<circle style="fill:none;stroke:#000000;stroke-linecap:round;stroke-linejoin:round;stroke-miterlimit:10;" cx="968.11" cy="683.27" r="10.39"></circle>
			</g>
			<g>
				
					<ellipse transform="matrix(0.6952 -0.7188 0.7188 0.6952 -178.182 881.391)" style="fill:none;stroke:#000000;stroke-linecap:round;stroke-linejoin:round;stroke-miterlimit:10;" cx="950.28" cy="650.81" rx="4.59" ry="2.83"></ellipse>
				
					<line style="fill:none;stroke:#000000;stroke-linecap:round;stroke-linejoin:round;stroke-miterlimit:10;" x1="947.08" y1="654.11" x2="933.11" y2="668.56"></line>
			</g>
			<g>
				<path style="fill:none;stroke:#000000;stroke-linecap:round;stroke-linejoin:round;stroke-miterlimit:10;" d="M1000.31,692.82
					l-3.19,3.3c-1.76,1.82-4.1,2.42-5.22,1.34c-1.12-1.09-0.6-3.44,1.16-5.27l3.19-3.3"></path>
				
					<line style="fill:none;stroke:#000000;stroke-linecap:round;stroke-linejoin:round;stroke-miterlimit:10;" x1="991.89" y1="697.45" x2="977.92" y2="711.9"></line>
			</g>
			
				<line style="fill:none;stroke:#000000;stroke-linecap:round;stroke-linejoin:round;stroke-miterlimit:10;" x1="998.28" y1="690.85" x2="991.89" y2="697.45"></line>
			<g>
				<path style="fill:none;stroke:#000000;stroke-linecap:round;stroke-linejoin:round;stroke-miterlimit:10;" d="M946.66,664.57
					l3.15,3.05l11.82-12.22l-2.32-2.25c-0.46-0.44-1.19-0.43-1.64,0.03L946.66,664.57z"></path>
				<path style="fill:none;stroke:#000000;stroke-linecap:round;stroke-linejoin:round;stroke-miterlimit:10;" d="M938.53,673.8
					l2.32,2.25c0.23,0.22,0.6,0.22,0.82-0.01l8.14-8.42l-3.15-3.05l-8.14,8.42C938.29,673.21,938.3,673.58,938.53,673.8z"></path>
			</g>
		</g>
		<g>
			<g>
				
					<circle style="fill:none;stroke:#000000;stroke-linecap:round;stroke-linejoin:round;stroke-miterlimit:10;" cx="1055.32" cy="581.18" r="18.25"></circle>
			</g>
			<g>
				
					<circle style="fill:none;stroke:#000000;stroke-linecap:round;stroke-linejoin:round;stroke-miterlimit:10;" cx="1055.32" cy="581.18" r="10.39"></circle>
			</g>
			<g>
				
					<ellipse transform="matrix(0.6952 -0.7188 0.7188 0.6952 -114.0048 958.4135)" style="fill:none;stroke:#000000;stroke-linecap:round;stroke-linejoin:round;stroke-miterlimit:10;" cx="1073.15" cy="613.64" rx="4.59" ry="2.83"></ellipse>
				
					<line style="fill:none;stroke:#000000;stroke-linecap:round;stroke-linejoin:round;stroke-miterlimit:10;" x1="1076.35" y1="610.34" x2="1090.32" y2="595.89"></line>
			</g>
			<g>
				<path style="fill:none;stroke:#000000;stroke-linecap:round;stroke-linejoin:round;stroke-miterlimit:10;" d="M1023.12,571.64
					l3.19-3.3c1.76-1.82,4.1-2.42,5.22-1.34c1.12,1.09,0.6,3.44-1.16,5.27l-3.19,3.3"></path>
				
					<line style="fill:none;stroke:#000000;stroke-linecap:round;stroke-linejoin:round;stroke-miterlimit:10;" x1="1031.54" y1="567" x2="1045.51" y2="552.56"></line>
			</g>
			
				<line style="fill:none;stroke:#000000;stroke-linecap:round;stroke-linejoin:round;stroke-miterlimit:10;" x1="1025.15" y1="573.6" x2="1031.54" y2="567"></line>
			<g>
				<path style="fill:none;stroke:#000000;stroke-linecap:round;stroke-linejoin:round;stroke-miterlimit:10;" d="M1076.77,599.88
					l-3.15-3.05l-11.82,12.22l2.32,2.25c0.46,0.44,1.19,0.43,1.64-0.03L1076.77,599.88z"></path>
				<path style="fill:none;stroke:#000000;stroke-linecap:round;stroke-linejoin:round;stroke-miterlimit:10;" d="M1084.9,590.65
					l-2.32-2.25c-0.23-0.22-0.6-0.22-0.82,0.01l-8.14,8.42l3.15,3.05l8.14-8.42C1085.13,591.24,1085.13,590.87,1084.9,590.65z"></path>
			</g>
		</g>
		<g>
			<g>
				
					<circle style="fill:none;stroke:#000000;stroke-linecap:round;stroke-linejoin:round;stroke-miterlimit:10;" cx="960.67" cy="588.62" r="18.25"></circle>
			</g>
			<g>
				
					<circle style="fill:none;stroke:#000000;stroke-linecap:round;stroke-linejoin:round;stroke-miterlimit:10;" cx="960.67" cy="588.62" r="10.39"></circle>
			</g>
			<g>
				
					<ellipse transform="matrix(0.6952 -0.7188 0.7188 0.6952 -107.6014 887.8035)" style="fill:none;stroke:#000000;stroke-linecap:round;stroke-linejoin:round;stroke-miterlimit:10;" cx="993.13" cy="570.79" rx="2.83" ry="4.59"></ellipse>
				
					<line style="fill:none;stroke:#000000;stroke-linecap:round;stroke-linejoin:round;stroke-miterlimit:10;" x1="989.83" y1="567.6" x2="975.38" y2="553.62"></line>
			</g>
			<g>
				<path style="fill:none;stroke:#000000;stroke-linecap:round;stroke-linejoin:round;stroke-miterlimit:10;" d="M951.12,620.82
					l-3.3-3.19c-1.82-1.76-2.42-4.1-1.34-5.22c1.09-1.12,3.44-0.6,5.27,1.16l3.3,3.19"></path>
				
					<line style="fill:none;stroke:#000000;stroke-linecap:round;stroke-linejoin:round;stroke-miterlimit:10;" x1="946.49" y1="612.4" x2="932.04" y2="598.43"></line>
			</g>
			
				<line style="fill:none;stroke:#000000;stroke-linecap:round;stroke-linejoin:round;stroke-miterlimit:10;" x1="953.09" y1="618.79" x2="946.49" y2="612.4"></line>
			<g>
				<path style="fill:none;stroke:#000000;stroke-linecap:round;stroke-linejoin:round;stroke-miterlimit:10;" d="M979.37,567.17
					l-3.05,3.15l12.22,11.82l2.25-2.32c0.44-0.46,0.43-1.19-0.03-1.64L979.37,567.17z"></path>
				<path style="fill:none;stroke:#000000;stroke-linecap:round;stroke-linejoin:round;stroke-miterlimit:10;" d="M970.14,559.04
					l-2.25,2.32c-0.22,0.23-0.22,0.6,0.01,0.82l8.42,8.14l3.05-3.15l-8.42-8.14C970.73,558.81,970.36,558.81,970.14,559.04z"></path>
			</g>
		</g>
		<g>
			<g>
				
					<circle style="fill:none;stroke:#000000;stroke-linecap:round;stroke-linejoin:round;stroke-miterlimit:10;" cx="1062.76" cy="675.83" r="18.25"></circle>
			</g>
			<g>
				
					<circle style="fill:none;stroke:#000000;stroke-linecap:round;stroke-linejoin:round;stroke-miterlimit:10;" cx="1062.76" cy="675.83" r="10.39"></circle>
			</g>
			<g>
				
					<ellipse transform="matrix(0.6952 -0.7188 0.7188 0.6952 -184.5883 952.0021)" style="fill:none;stroke:#000000;stroke-linecap:round;stroke-linejoin:round;stroke-miterlimit:10;" cx="1030.3" cy="693.67" rx="2.83" ry="4.59"></ellipse>
				
					<line style="fill:none;stroke:#000000;stroke-linecap:round;stroke-linejoin:round;stroke-miterlimit:10;" x1="1033.6" y1="696.86" x2="1048.05" y2="710.83"></line>
			</g>
			<g>
				<path style="fill:none;stroke:#000000;stroke-linecap:round;stroke-linejoin:round;stroke-miterlimit:10;" d="M1072.3,643.63
					l3.3,3.19c1.82,1.76,2.42,4.1,1.34,5.22c-1.09,1.12-3.44,0.6-5.27-1.16l-3.3-3.19"></path>
				
					<line style="fill:none;stroke:#000000;stroke-linecap:round;stroke-linejoin:round;stroke-miterlimit:10;" x1="1076.94" y1="652.05" x2="1091.39" y2="666.02"></line>
			</g>
			
				<line style="fill:none;stroke:#000000;stroke-linecap:round;stroke-linejoin:round;stroke-miterlimit:10;" x1="1070.34" y1="645.67" x2="1076.94" y2="652.05"></line>
			<g>
				<path style="fill:none;stroke:#000000;stroke-linecap:round;stroke-linejoin:round;stroke-miterlimit:10;" d="M1044.06,697.28
					l3.05-3.15l-12.22-11.82l-2.25,2.32c-0.44,0.46-0.43,1.19,0.03,1.64L1044.06,697.28z"></path>
				<path style="fill:none;stroke:#000000;stroke-linecap:round;stroke-linejoin:round;stroke-miterlimit:10;" d="M1053.29,705.41
					l2.25-2.32c0.22-0.23,0.22-0.6-0.01-0.82l-8.42-8.14l-3.05,3.15l8.42,8.14C1052.7,705.65,1053.07,705.64,1053.29,705.41z"></path>
			</g>
		</g>
	</g>
	<g>
		<g>
			<path style="fill:none;stroke:#000000;stroke-linecap:round;stroke-linejoin:round;stroke-miterlimit:10;" d="M1367.55,481.29
				h-179.63c-0.59,0-1.07,0.48-1.07,1.07v127.43c0,0.59,0.48,1.07,1.07,1.07h179.63c0.59,0,1.07-0.48,1.07-1.07V482.36
				C1368.62,481.77,1368.14,481.29,1367.55,481.29z"></path>
			<path style="fill:none;stroke:#000000;stroke-linecap:round;stroke-linejoin:round;stroke-miterlimit:10;" d="M1367.55,481.29
				h-179.63c-0.59,0-1.07-0.48-1.07-1.07v-38.59c0-0.59,0.48-1.07,1.07-1.07h179.63c0.59,0,1.07,0.48,1.07,1.07v38.59
				C1368.62,480.81,1368.14,481.29,1367.55,481.29z"></path>
			<path style="fill:none;stroke:#000000;stroke-linecap:round;stroke-linejoin:round;stroke-miterlimit:10;" d="M1369.69,481.29
				h179.17c0.59,0,1.07,0.48,1.07,1.07v127.43c0,0.59-0.48,1.07-1.07,1.07h-179.17c-0.59,0-1.07-0.48-1.07-1.07V482.36
				C1368.62,481.77,1369.1,481.29,1369.69,481.29z"></path>
			<path style="fill:none;stroke:#000000;stroke-linecap:round;stroke-linejoin:round;stroke-miterlimit:10;" d="M1369.69,481.29
				h179.17c0.59,0,1.07-0.48,1.07-1.07v-38.59c0-0.59-0.48-1.07-1.07-1.07h-179.17c-0.59,0-1.07,0.48-1.07,1.07v38.59
				C1368.62,480.81,1369.1,481.29,1369.69,481.29z"></path>
		</g>
		<g>
			<path style="fill:none;stroke:#000000;stroke-linecap:round;stroke-linejoin:round;stroke-miterlimit:10;" d="M1446.83,558.18
				c6.48-10.51,11.26-21.97,14.18-33.97l1.35-5.58c0.61-2.5,3.47-3.68,5.66-2.33l4.89,3.02c8.29,5.11,16.96,9.53,25.92,13.24
				c0.66-8.09,1.87-16.15,3.72-24.08l0-0.02c1.03-4.38-2.53-8.49-7.01-8.11l-0.02,0c-17.22,1.47-34.56,0.21-51.39-3.72l-0.02,0
				c-4.38-1.02-8.49,2.53-8.11,7.01l0,0.02c1.47,17.22,0.21,34.56-3.72,51.39l0,0.02c-1.03,4.38,2.53,8.49,7.01,8.11l0.02,0
				c1.52-0.13,3.04-0.12,4.56-0.21L1446.83,558.18z"></path>
			<path style="fill:none;stroke:#000000;stroke-linecap:round;stroke-linejoin:round;stroke-miterlimit:10;" d="M1509.43,595.13
				l-4.89-3.02c-16.34-10.08-34.16-17.51-52.82-22.04l-5.58-1.35c-2.5-0.61-3.68-3.47-2.33-5.66l3.02-4.89
				c6.48-10.51,11.26-21.97,14.18-33.97l1.35-5.58c0.61-2.5,3.47-3.68,5.66-2.33l4.89,3.02c16.34,10.08,34.16,17.51,52.82,22.04
				l5.58,1.35c2.5,0.61,3.68,3.47,2.33,5.66l-3.02,4.89c-6.48,10.51-11.26,21.97-14.18,33.97l-1.35,5.58
				C1514.49,595.3,1511.62,596.48,1509.43,595.13z"></path>
		</g>
		<g>
			<path style="fill:none;stroke:#000000;stroke-linecap:round;stroke-linejoin:round;stroke-miterlimit:10;" d="M1304.18,547.11
				l0-0.02c-3.93-16.83-5.19-34.17-3.72-51.39l0-0.02c0.38-4.49-3.73-8.04-8.11-7.01l-0.02,0c-16.83,3.93-34.17,5.19-51.39,3.72
				l-0.02,0c-4.49-0.38-8.04,3.73-7.01,8.11l0,0.02c1.85,7.93,3.06,15.98,3.72,24.08c8.96-3.72,17.64-8.13,25.92-13.24l4.89-3.02
				c2.19-1.35,5.05-0.17,5.66,2.33l1.35,5.58c2.91,12,7.69,23.46,14.18,33.97l2.95,4.79c1.52,0.09,3.04,0.08,4.56,0.21l0.02,0
				C1301.66,555.6,1305.21,551.49,1304.18,547.11z"></path>
			<path style="fill:none;stroke:#000000;stroke-linecap:round;stroke-linejoin:round;stroke-miterlimit:10;" d="M1227.04,587.18
				l4.89-3.02c16.34-10.08,34.16-17.51,52.82-22.04l5.58-1.35c2.5-0.61,3.68-3.47,2.33-5.66l-3.02-4.89
				c-6.48-10.51-11.26-21.97-14.18-33.97l-1.35-5.58c-0.61-2.5-3.47-3.68-5.66-2.33l-4.89,3.02
				c-16.34,10.08-34.16,17.51-52.82,22.04l-5.58,1.35c-2.5,0.61-3.68,3.47-2.33,5.66l3.02,4.89c6.48,10.51,11.26,21.97,14.18,33.97
				l1.35,5.58C1221.98,587.35,1224.85,588.52,1227.04,587.18z"></path>
		</g>
	</g>
	<g>
		<path style="fill:none;stroke:#000000;stroke-linecap:round;stroke-linejoin:round;stroke-miterlimit:10;" d="M1441.38,765.51
			c0-8.36,0-37.7,0-46.06c0-8.55-7.37-12.92-16.51-14.35c-37.3-5.2-75.2-5.2-112.5,0c-9.14,1.43-16.51,5.79-16.51,14.35
			c0,8.36,0,37.7,0,46.06c0,8.55,7.36,12.92,16.51,14.35c37.3,5.2,75.2,5.2,112.5,0C1434.02,778.43,1441.38,774.06,1441.38,765.51z"></path>
		<g>
			<polygon style="fill:none;stroke:#000000;stroke-linecap:round;stroke-linejoin:round;stroke-miterlimit:10;" points="
				1395.85,759.35 1400.35,761.79 1418.78,727.77 1413.11,724.7 1418.17,721.62 1433.15,746.21 1400.1,766.33 			"></polygon>
			
				<line style="fill:none;stroke:#000000;stroke-linecap:round;stroke-linejoin:round;stroke-miterlimit:10;" x1="1393.43" y1="758.04" x2="1386.47" y2="764.37"></line>
			
				<line style="fill:none;stroke:#000000;stroke-linecap:round;stroke-linejoin:round;stroke-miterlimit:10;" x1="1431.98" y1="744.29" x2="1398.93" y2="764.41"></line>
			<g>
				<polygon style="fill:none;stroke:#000000;stroke-linecap:round;stroke-linejoin:round;stroke-miterlimit:10;" points="
					1375.03,748.07 1395.53,759.18 1387.99,766.03 1368.62,744.72 1384.81,730.01 				"></polygon>
				<polygon style="fill:none;stroke:#000000;stroke-linecap:round;stroke-linejoin:round;stroke-miterlimit:10;" points="
					1413.81,736.92 1416.62,740.01 1407.8,748.03 				"></polygon>
			</g>
			
				<rect x="1377.56" y="723.52" transform="matrix(-0.4763 0.8793 -0.8793 -0.4763 2711.1016 -138.8578)" style="fill:none;stroke:#000000;stroke-linecap:round;stroke-linejoin:round;stroke-miterlimit:10;" width="38.69" height="28.79"></rect>
			
				<line style="fill:none;stroke:#000000;stroke-linecap:round;stroke-linejoin:round;stroke-miterlimit:10;" x1="1416.8" y1="726.69" x2="1398.37" y2="760.71"></line>
		</g>
		<g>
			<path style="fill:none;stroke:#000000;stroke-linecap:round;stroke-linejoin:round;stroke-miterlimit:10;" d="M1338.6,745.29
				l8.17-4.38c0.56-0.3,0.77-1,0.47-1.55l-5.41-10.08c-0.3-0.56-1-0.77-1.55-0.47l-8.17,4.38c-0.34,0.18-0.47,0.61-0.29,0.95
				l5.83,10.87C1337.84,745.35,1338.26,745.47,1338.6,745.29z"></path>
			
				<line style="fill:none;stroke:#000000;stroke-linecap:round;stroke-linejoin:round;stroke-miterlimit:10;" x1="1342.88" y1="743" x2="1336.39" y2="730.89"></line>
			<path style="fill:none;stroke:#000000;stroke-linecap:round;stroke-linejoin:round;stroke-miterlimit:10;" d="M1336.94,747.65
				l-1.37,9.17c-0.09,0.63-0.68,1.06-1.31,0.97l-11.32-1.69c-0.63-0.09-1.06-0.68-0.97-1.31l1.37-9.17c0.06-0.38,0.42-0.65,0.8-0.59
				l12.2,1.83C1336.73,746.91,1337,747.27,1336.94,747.65z"></path>
			
				<line style="fill:none;stroke:#000000;stroke-linecap:round;stroke-linejoin:round;stroke-miterlimit:10;" x1="1336.22" y1="752.46" x2="1322.63" y2="750.42"></line>
			<path style="fill:none;stroke:#000000;stroke-linecap:round;stroke-linejoin:round;stroke-miterlimit:10;" d="M1319.44,749.22
				c1.01,0.52,2.07,0.89,3.15,1.13"></path>
			<path style="fill:none;stroke:#000000;stroke-linecap:round;stroke-linejoin:round;stroke-miterlimit:10;" d="M1336.34,730.92
				c-0.59-0.96-1.32-1.85-2.17-2.65"></path>
			<g>
				<path style="fill:none;stroke:#000000;stroke-linecap:round;stroke-linejoin:round;stroke-miterlimit:10;" d="M1319.38,749.34
					c0.58-0.83,0.38-1.97-0.44-2.55c-5.01-3.53-6.21-10.47-2.68-15.47c3.53-5.01,10.47-6.21,15.47-2.68
					c0.83,0.58,1.97,0.38,2.55-0.44c0.58-0.83,0.38-1.97-0.44-2.55c-6.66-4.69-15.88-3.09-20.57,3.57
					c-4.69,6.66-3.09,15.88,3.57,20.57C1317.66,750.36,1318.8,750.16,1319.38,749.34z"></path>
			</g>
		</g>
	</g>
	<g>
		<g>
			<g>
				
					<rect x="1361.07" y="870.13" transform="matrix(5.131763e-05 1 -1 5.131763e-05 2350.9404 -384.221)" style="fill:none;stroke:#000000;stroke-linecap:round;stroke-linejoin:round;stroke-miterlimit:10;" width="13.05" height="226.58"></rect>
				<polygon style="fill:none;stroke:#000000;stroke-linecap:round;stroke-linejoin:round;stroke-miterlimit:10;" points="
					1277.87,1003 1254.3,989.95 1480.88,989.94 1457.31,1002.99 				"></polygon>
			</g>
		</g>
		<g>
			
				<rect x="1339.16" y="842.28" transform="matrix(-3.961167e-05 -1 1 -3.961167e-05 395.1371 2342.1965)" style="fill:none;stroke:#000000;stroke-linecap:round;stroke-linejoin:round;stroke-miterlimit:10;" width="58.92" height="262.51"></rect>
		</g>
	</g>
	<g>
		<g>
			<g>
				<g>
					
						<rect x="1065.59" y="1545.5" transform="matrix(-1 1.918426e-05 -1.918426e-05 -1 2471.5491 3104.9197)" style="fill:none;stroke:#000000;stroke-linecap:round;stroke-linejoin:round;stroke-miterlimit:10;" width="340.33" height="13.93"></rect>
					
						<rect x="1065.59" y="1147.03" transform="matrix(-1 1.918426e-05 -1.918426e-05 -1 2471.5359 2692.5088)" style="fill:none;stroke:#000000;stroke-linecap:round;stroke-linejoin:round;stroke-miterlimit:10;" width="340.33" height="398.48"></rect>
					<path style="fill:none;stroke:#000000;stroke-linecap:round;stroke-linejoin:round;stroke-miterlimit:10;" d="M1242.16,1473.82
						l-12.81,0l0,34.31c0,10.26-9.01,18.58-20.13,18.58l-95.61,0c-11.12,0-20.13-8.32-20.13-18.58l0-34.31l-12.81,0l0,60.07
						c0,2.57,2.25,4.65,5.03,4.64l300.08-0.01c2.78,0,5.03-2.08,5.03-4.65l0-60.07l-12.81,0l0,34.31c0,10.26-9.01,18.58-20.13,18.58
						l-95.61,0c-11.12,0-20.13-8.32-20.13-18.58L1242.16,1473.82z"></path>
					<path style="fill:none;stroke:#000000;stroke-linecap:round;stroke-linejoin:round;stroke-miterlimit:10;" d="M1390.05,1158.64
						l-308.59,0.01c-0.43,0-0.78,0.35-0.78,0.78l0.01,314.41l310.14-0.01l-0.01-314.41
						C1390.82,1158.98,1390.47,1158.64,1390.05,1158.64z"></path>
				</g>
			</g>
			
				<rect x="975.89" y="1469.74" transform="matrix(1.960574e-05 1 -1 1.960574e-05 2535.312 489.2591)" style="fill:none;stroke:#000000;stroke-linecap:round;stroke-linejoin:round;stroke-miterlimit:10;" width="94.27" height="85.14"></rect>
			
				<rect x="1401.36" y="1469.73" transform="matrix(1.960574e-05 1 -1 1.960574e-05 2960.7693 63.7794)" style="fill:none;stroke:#000000;stroke-linecap:round;stroke-linejoin:round;stroke-miterlimit:10;" width="94.27" height="85.14"></rect>
		</g>
		<g>
			
				<ellipse style="fill:none;stroke:#000000;stroke-linecap:round;stroke-linejoin:round;stroke-miterlimit:10;" cx="1449.51" cy="1495.05" rx="6.88" ry="6.8"></ellipse>
			
				<ellipse style="fill:none;stroke:#000000;stroke-linecap:round;stroke-linejoin:round;stroke-miterlimit:10;" cx="1449.51" cy="1495.05" rx="4.87" ry="4.81"></ellipse>
			
				<line style="fill:none;stroke:#000000;stroke-linecap:round;stroke-linejoin:round;stroke-miterlimit:10;" x1="1450.96" y1="1501.35" x2="1452.04" y2="1506.01"></line>
			<path style="fill:none;stroke:#000000;stroke-linecap:round;stroke-linejoin:round;stroke-miterlimit:10;" d="M1465.84,1501.42
				c-1.99,4.96-6.06,8.44-10.81,10l-0.96-4.15c-0.21-0.91-1.13-1.48-2.05-1.27c-0.57,0.13-1.01,0.53-1.21,1.03
				c-0.12,0.31-0.16,0.65-0.08,1l0.96,4.14c-2.84,0.36-5.79,0.11-8.64-1c-9.02-3.52-13.44-13.59-9.88-22.5
				c3.56-8.91,13.77-13.27,22.79-9.75C1464.99,1482.44,1469.41,1492.52,1465.84,1501.42z"></path>
			<g>
				<polygon style="fill:none;stroke:#000000;stroke-linecap:round;stroke-linejoin:round;stroke-miterlimit:10;" points="
					1460.88,1536.65 1464.22,1535.89 1465.58,1541.75 1462.24,1542.51 				"></polygon>
				<polygon style="fill:none;stroke:#000000;stroke-linecap:round;stroke-linejoin:round;stroke-miterlimit:10;" points="
					1458.9,1543.26 1455.57,1544.01 1454.21,1538.15 1457.54,1537.4 				"></polygon>
			</g>
			<g>
				<path style="fill:none;stroke:#000000;stroke-linecap:round;stroke-linejoin:round;stroke-miterlimit:10;" d="M1457.96,1524.05
					c1.65-0.11,3.34,0.09,4.98,0.73c5.88,2.29,8.76,8.86,6.44,14.67c-1.2,3.01-3.57,5.19-6.39,6.31L1457.96,1524.05z"></path>
				<path style="fill:none;stroke:#000000;stroke-linecap:round;stroke-linejoin:round;stroke-miterlimit:10;" d="M1459.66,1546.51
					c-1.69,0.14-3.44-0.05-5.13-0.71c-5.88-2.29-8.76-8.86-6.44-14.67c1.22-3.05,3.65-5.26,6.53-6.35L1459.66,1546.51z"></path>
			</g>
			<g>
				<path style="fill:none;stroke:#000000;stroke-linecap:round;stroke-linejoin:round;stroke-miterlimit:10;" d="M1450.81,1507.04
					c-0.12,0.31-0.16,0.65-0.08,1l10.22,44.07c0.21,0.91,1.13,1.48,2.05,1.27c0.92-0.21,1.5-1.11,1.29-2.02l-10.22-44.07
					c-0.21-0.91-1.13-1.48-2.05-1.27C1451.45,1506.14,1451.01,1506.54,1450.81,1507.04z"></path>
			</g>
		</g>
		<g>
			
				<ellipse style="fill:none;stroke:#000000;stroke-linecap:round;stroke-linejoin:round;stroke-miterlimit:10;" cx="1027.82" cy="1500.5" rx="6.88" ry="6.8"></ellipse>
			
				<ellipse style="fill:none;stroke:#000000;stroke-linecap:round;stroke-linejoin:round;stroke-miterlimit:10;" cx="1027.82" cy="1500.5" rx="4.87" ry="4.81"></ellipse>
			
				<line style="fill:none;stroke:#000000;stroke-linecap:round;stroke-linejoin:round;stroke-miterlimit:10;" x1="1024.33" y1="1505.97" x2="1021.75" y2="1510.02"></line>
			<path style="fill:none;stroke:#000000;stroke-linecap:round;stroke-linejoin:round;stroke-miterlimit:10;" d="M1034.8,1516.42
				c-4.96,2.12-10.33,1.74-14.81-0.47l2.29-3.6c0.5-0.79,0.26-1.83-0.54-2.33c-0.5-0.31-1.09-0.33-1.59-0.12
				c-0.31,0.13-0.58,0.35-0.77,0.65l-2.29,3.6c-2.26-1.73-4.17-3.96-5.39-6.74c-3.86-8.79,0.23-19,9.13-22.81
				c8.9-3.81,19.24,0.23,23.1,9.01C1047.79,1502.4,1043.7,1512.61,1034.8,1516.42z"></path>
			<g>
				<polygon style="fill:none;stroke:#000000;stroke-linecap:round;stroke-linejoin:round;stroke-miterlimit:10;" points="
					1006.07,1537.86 1008.97,1539.66 1005.73,1544.75 1002.83,1542.95 				"></polygon>
				<polygon style="fill:none;stroke:#000000;stroke-linecap:round;stroke-linejoin:round;stroke-miterlimit:10;" points="
					999.93,1541.15 997.04,1539.36 1000.27,1534.26 1003.17,1536.06 				"></polygon>
			</g>
			<g>
				<path style="fill:none;stroke:#000000;stroke-linecap:round;stroke-linejoin:round;stroke-miterlimit:10;" d="M1013.03,1526.91
					c1.25,1.07,2.3,2.4,3,4c2.51,5.73-0.15,12.38-5.95,14.87c-3,1.29-6.25,1.18-9.04,0L1013.03,1526.91z"></path>
				<path style="fill:none;stroke:#000000;stroke-linecap:round;stroke-linejoin:round;stroke-miterlimit:10;" d="M998.14,1543.98
					c-1.3-1.09-2.39-2.44-3.11-4.08c-2.51-5.73,0.15-12.38,5.95-14.87c3.05-1.31,6.35-1.17,9.17,0.06L998.14,1543.98z"></path>
			</g>
			<g>
				<path style="fill:none;stroke:#000000;stroke-linecap:round;stroke-linejoin:round;stroke-miterlimit:10;" d="M1020.15,1509.89
					c-0.31,0.13-0.58,0.35-0.77,0.65l-24.34,38.3c-0.5,0.79-0.26,1.83,0.54,2.33c0.8,0.5,1.85,0.26,2.36-0.53l24.34-38.3
					c0.5-0.79,0.26-1.83-0.54-2.33C1021.25,1509.7,1020.65,1509.68,1020.15,1509.89z"></path>
			</g>
		</g>
		<g>
			<g>
				<path style="fill:none;stroke:#000000;stroke-linecap:round;stroke-linejoin:round;stroke-miterlimit:10;" d="M1289.06,1387.54
					c-0.15-0.04-0.3-0.1-0.45-0.17c-7.88-3.69-16.1-6.78-24.44-9.19s-16.95-4.17-25.56-5.24c-0.18-0.02-0.34-0.05-0.49-0.1
					c-0.8-0.23-1.47-0.81-1.83-1.6c-0.2-0.45-0.47-1.35,0-2.38l0.03-0.06c7.42-15.83,12.27-32.65,14.43-49.99l0.01-0.09
					c0.17-1.11,0.86-1.72,1.27-1.99c0.72-0.47,1.59-0.61,2.4-0.38c0.15,0.04,0.3,0.1,0.45,0.17c7.88,3.69,16.1,6.78,24.44,9.19
					s16.95,4.17,25.56,5.24c0.18,0.02,0.33,0.05,0.48,0.1c0.81,0.23,1.47,0.81,1.83,1.6c0.2,0.45,0.47,1.35,0,2.38l-0.03,0.06
					c-7.42,15.83-12.27,32.65-14.43,49.99l-0.01,0.09c-0.17,1.11-0.86,1.72-1.27,1.99
					C1290.74,1387.63,1289.87,1387.77,1289.06,1387.54z"></path>
			</g>
			<path style="fill:none;stroke:#000000;stroke-linecap:round;stroke-linejoin:round;stroke-miterlimit:10;" d="M1236.32,1368.79
				l-0.03,0.06c-0.46,1.04-0.2,1.94,0,2.38c0.36,0.78,1.02,1.36,1.83,1.6c0.15,0.04,0.31,0.07,0.48,0.1
				c7.58,0.94,15.12,2.51,22.52,4.49c0.56,6.86,1.43,13.7,2.84,20.47l0.02,0.07c0.21,1.12-0.25,1.93-0.55,2.32
				c-0.53,0.68-1.31,1.09-2.15,1.13c-0.16,0.01-0.32,0-0.49-0.02c-8.63-0.94-17.41-1.2-26.09-0.78c-8.67,0.42-17.38,1.54-25.9,3.32
				c-0.16,0.03-0.32,0.05-0.47,0.06c-0.84,0.04-1.66-0.29-2.25-0.92c-0.33-0.36-0.87-1.11-0.78-2.23l0.01-0.09
				c1.89-17.38,1.04-34.86-2.54-51.97l-0.02-0.07c-0.21-1.12,0.25-1.93,0.55-2.32c0.53-0.68,1.31-1.09,2.14-1.13
				c0.16-0.01,0.32,0,0.49,0.02c8.63,0.94,17.41,1.2,26.09,0.78c4.44-0.22,8.88-0.63,13.31-1.2
				C1242.95,1353.04,1239.95,1361.04,1236.32,1368.79z"></path>
			<path style="fill:none;stroke:#000000;stroke-linecap:round;stroke-linejoin:round;stroke-miterlimit:10;" d="M1236.32,1368.79
				l-0.03,0.06c-0.46,1.04-0.2,1.94,0,2.38c0.36,0.78,1.02,1.36,1.83,1.6c0.15,0.04,0.31,0.07,0.48,0.1
				c8.62,1.07,17.22,2.84,25.56,5.24c0.23,0.07,0.46,0.16,0.69,0.23c0.56,6.29,1.37,12.55,2.67,18.75l0,0.02
				c0.91,4.35-2.69,8.33-7.11,7.85l-0.02,0c-16.97-1.85-34.12-1.01-50.83,2.49l-0.02,0c-4.35,0.91-8.33-2.69-7.85-7.11l0-0.02
				c1.85-16.97,1.01-34.13-2.49-50.83l0-0.02c-0.91-4.35,2.69-8.33,7.11-7.85l0.02,0c13.32,1.45,26.75,1.18,39.99-0.66
				C1243.8,1350.53,1240.52,1359.84,1236.32,1368.79z"></path>
		</g>
	</g>
	<g>
		<g>
			
				<rect x="543.62" y="625.97" style="fill:none;stroke:#000000;stroke-linecap:round;stroke-linejoin:round;stroke-miterlimit:10;" width="121.06" height="179.59"></rect>
			
				<line style="fill:none;stroke:#000000;stroke-linecap:round;stroke-linejoin:round;stroke-miterlimit:10;" x1="553.1" y1="805.55" x2="553.02" y2="625.98"></line>
		</g>
		
			<line style="fill:none;stroke:#000000;stroke-linecap:round;stroke-linejoin:round;stroke-miterlimit:10;" x1="543.62" y1="715.74" x2="664.48" y2="715.74"></line>
	</g>
	<g>
		
			<line style="fill:none;stroke:#000000;stroke-linecap:round;stroke-linejoin:round;stroke-miterlimit:10;" x1="366.76" y1="805.54" x2="366.87" y2="485.07"></line>
		<g>
			<g>
				<polygon style="fill:none;stroke:#000000;stroke-linecap:round;stroke-linejoin:round;stroke-miterlimit:10;" points="
					375.88,805.54 375.88,494.49 535.65,494.49 535.65,440.56 301.33,440.56 301.33,805.54 				"></polygon>
				
					<line style="fill:none;stroke:#000000;stroke-linecap:round;stroke-linejoin:round;stroke-miterlimit:10;" x1="366.87" y1="485.01" x2="535.65" y2="485.09"></line>
			</g>
		</g>
		
			<line style="fill:none;stroke:#000000;stroke-linecap:round;stroke-linejoin:round;stroke-miterlimit:10;" x1="375.88" y1="626.08" x2="301.28" y2="626.08"></line>
		
			<line style="fill:none;stroke:#000000;stroke-linecap:round;stroke-linejoin:round;stroke-miterlimit:10;" x1="425.85" y1="440.56" x2="425.85" y2="494.49"></line>
	</g>
	<g>
		<g>
			
				<rect x="679.25" y="1438.28" style="fill:none;stroke:#000000;stroke-linecap:round;stroke-linejoin:round;stroke-miterlimit:10;" width="239.39" height="121.06"></rect>
			
				<line style="fill:none;stroke:#000000;stroke-linecap:round;stroke-linejoin:round;stroke-miterlimit:10;" x1="679.25" y1="1447.76" x2="918.63" y2="1447.68"></line>
		</g>
		
			<line style="fill:none;stroke:#000000;stroke-linecap:round;stroke-linejoin:round;stroke-miterlimit:10;" x1="798.97" y1="1438.28" x2="798.97" y2="1559.14"></line>
	</g>
	<g>
		<g>
			
				<rect x="679.25" y="1156.54" style="fill:none;stroke:#000000;stroke-linecap:round;stroke-linejoin:round;stroke-miterlimit:10;" width="239.39" height="53.67"></rect>
			
				<line style="fill:none;stroke:#000000;stroke-linecap:round;stroke-linejoin:round;stroke-miterlimit:10;" x1="918.63" y1="1200.73" x2="679.26" y2="1200.81"></line>
		</g>
		
			<line style="fill:none;stroke:#000000;stroke-linecap:round;stroke-linejoin:round;stroke-miterlimit:10;" x1="798.92" y1="1210.21" x2="798.92" y2="1156.74"></line>
	</g>
	<g>
		<path style="fill:none;stroke:#000000;stroke-linecap:round;stroke-linejoin:round;stroke-miterlimit:10;" d="M1564.2,969.68
			c-1.45,0.99-3.03,1.78-4.7,2.34"></path>
		<g>
			<path style="fill:none;stroke:#000000;stroke-linecap:round;stroke-linejoin:round;stroke-miterlimit:10;" d="M1543.32,938.22
				c1.46-0.94,3.06-1.68,4.73-2.19"></path>
			<g>
				<g>
					<g>
						<path style="fill:none;stroke:#000000;stroke-linecap:round;stroke-linejoin:round;stroke-miterlimit:10;" d="M1554.95,952.62
							c1.51-1.44,2.17-3.57,1.7-5.61c-1.03-4.47-3.24-12.88-7.02-21.53c-0.29-0.67-1.29-0.51-1.34,0.22
							c-0.61,8.97,0.09,17.22,0.66,21.93"></path>
						<path style="fill:none;stroke:#000000;stroke-linecap:round;stroke-linejoin:round;stroke-miterlimit:10;" d="M1552.76,954.8
							c-1.71,1.77-2.39,4.28-1.78,6.66c1.15,4.47,3.41,12.27,7.01,20.47c0.3,0.68,1.3,0.5,1.35-0.24c0.6-8.97-0.2-17.06-0.83-21.6
							c-2.09-0.97-3.67-2.77-4.31-5"></path>
					</g>
					<path style="fill:none;stroke:#000000;stroke-linecap:round;stroke-linejoin:round;stroke-miterlimit:10;" d="M1528.25,940.96
						c8.99,1.81,16.25,4.65,20.06,6.32c1.83,0.8,3.33,2.2,4.25,3.97l0.9,1.73c0.19,0.38,0.01,0.84-0.39,0.98l-1.51,0.54
						c-2.44,0.86-5.13,0.59-7.35-0.73c-3.74-2.22-9.93-6.18-16.53-11.58C1527.12,941.73,1527.55,940.82,1528.25,940.96z
						 M1579.95,965.21c-6.91-5.59-13.78-9.66-17.78-11.84c-2.18-1.19-4.78-1.27-7.05-0.25l-0.75,0.34
						c-0.32,0.14-0.48,0.49-0.38,0.83l0.23,0.8c0.67,2.36,2.38,4.28,4.66,5.19c4.22,1.7,11.76,4.41,20.5,6.16
						C1580.08,966.57,1580.51,965.66,1579.95,965.21z"></path>
					<g>
						<path style="fill:none;stroke:#000000;stroke-linecap:round;stroke-linejoin:round;stroke-miterlimit:10;" d="M1549.88,954.89
							c-1,0.52-1.86,1.29-2.45,2.28c-2.12,3.53-6.27,11.03-9.38,20.34c-0.23,0.68,0.63,1.22,1.15,0.72
							c5.38-5.16,9.7-10.29,12.55-13.92c-0.29-1.04-0.56-2.02-0.77-2.85c-0.61-2.38,0.07-4.89,1.78-6.66l0.67-0.69"></path>
						<path style="fill:none;stroke:#000000;stroke-linecap:round;stroke-linejoin:round;stroke-miterlimit:10;" d="M1554.37,953.45
							l0.75-0.34c1.17-0.53,2.43-0.75,3.67-0.68c0.9-0.58,1.65-1.37,2.17-2.34c2.06-3.89,5.72-11.34,8.62-20.2
							c0.22-0.68-0.63-1.22-1.15-0.72c-5.55,5.39-9.84,10.9-12.55,14.71c0.3,1.17,0.56,2.25,0.77,3.13c0.47,2.04-0.19,4.17-1.7,5.61
							l-0.79,0.75"></path>
					</g>
					<g>
						<path style="fill:none;stroke:#000000;stroke-linecap:round;stroke-linejoin:round;stroke-miterlimit:10;" d="M1556.93,952.55
							c0.61-0.11,1.24-0.15,1.86-0.12l0,0C1558.17,952.4,1557.55,952.43,1556.93,952.55z"></path>
						<path style="fill:none;stroke:#000000;stroke-linecap:round;stroke-linejoin:round;stroke-miterlimit:10;" d="M1560.96,950.09
							c-0.51,0.97-1.27,1.76-2.17,2.34c1.16,0.06,2.32,0.36,3.37,0.94c0.48,0.26,1,0.55,1.56,0.87c5-2.05,11.44-4.98,17.41-8.62
							c0.63-0.38,0.33-1.36-0.4-1.3c-6.61,0.51-13.2,1.77-18.34,2.97C1561.87,948.34,1561.38,949.31,1560.96,950.09z"></path>
						<path style="fill:none;stroke:#000000;stroke-linecap:round;stroke-linejoin:round;stroke-miterlimit:10;" d="M1556.92,952.55
							c-0.62,0.12-1.22,0.3-1.81,0.56C1555.7,952.85,1556.31,952.66,1556.92,952.55z"></path>
						<path style="fill:none;stroke:#000000;stroke-linecap:round;stroke-linejoin:round;stroke-miterlimit:10;" d="M1543.49,953.34
							c-4.93,2.04-11.19,4.91-16.99,8.44c-0.63,0.38-0.33,1.36,0.4,1.3c6.86-0.53,13.7-1.87,18.93-3.11
							c0.61-1.09,1.16-2.05,1.61-2.81"></path>
						<path style="fill:none;stroke:#000000;stroke-linecap:round;stroke-linejoin:round;stroke-miterlimit:10;" d="M1556.93,952.55
							C1556.93,952.55,1556.93,952.55,1556.93,952.55C1556.93,952.55,1556.93,952.55,1556.93,952.55z"></path>
					</g>
				</g>
				<g>
					
						<line style="fill:none;stroke:#000000;stroke-linecap:round;stroke-linejoin:round;stroke-miterlimit:10;" x1="1558.52" y1="960.08" x2="1558.52" y2="960.08"></line>
					<path style="fill:none;stroke:#000000;stroke-linecap:round;stroke-linejoin:round;stroke-miterlimit:10;" d="M1578.83,979.69
						c0.78,0.47,1.68-0.44,1.21-1.22c-3.09-5.06-7.14-10.48-10.2-14.4c-4.56-1.34-8.38-2.76-10.96-3.79
						c-0.13-0.05-0.23-0.14-0.35-0.19c0.2,1.45,0.41,3.29,0.6,5.37C1563.64,969.3,1570.54,974.72,1578.83,979.69z"></path>
					<path style="fill:none;stroke:#000000;stroke-linecap:round;stroke-linejoin:round;stroke-miterlimit:10;" d="M1537.36,961.72
						c-3.75,3.6-8.13,8.19-12.39,13.63c-0.56,0.72,0.23,1.72,1.06,1.35c4.97-2.23,11.14-5.59,15.47-8.02"></path>
					<path style="fill:none;stroke:#000000;stroke-linecap:round;stroke-linejoin:round;stroke-miterlimit:10;" d="M1546.58,970.52
						c-0.22,5.3-0.25,11.72,0.25,18.54c0.07,0.93,1.33,1.14,1.7,0.29c2.58-5.94,4.47-11.7,5.86-16.64"></path>
					<path style="fill:none;stroke:#000000;stroke-linecap:round;stroke-linejoin:round;stroke-miterlimit:10;" d="M1537.03,949.19
						c-5.85,0.43-12.57,1.18-19.16,2.55c-0.91,0.19-0.97,1.48-0.08,1.72c5.97,1.63,12.09,2.74,17.56,3.52"></path>
					<path style="fill:none;stroke:#000000;stroke-linecap:round;stroke-linejoin:round;stroke-miterlimit:10;" d="M1570.32,958.24
						c5.91-0.42,12.75-1.19,19.44-2.58c0.91-0.19,0.97-1.48,0.08-1.72c-5.97-1.62-12.09-2.75-17.56-3.53
						c-3.06,1.49-5.99,2.77-8.55,3.82"></path>
					<path style="fill:none;stroke:#000000;stroke-linecap:round;stroke-linejoin:round;stroke-miterlimit:10;" d="M1570.88,945.57
						c3.59-3.69,7.72-8.25,11.79-13.51c0.56-0.72-0.23-1.72-1.06-1.34c-5.92,2.7-11.18,5.7-15.48,8.41"></path>
					<path style="fill:none;stroke:#000000;stroke-linecap:round;stroke-linejoin:round;stroke-miterlimit:10;" d="M1555.88,943.88"></path>
					<path style="fill:none;stroke:#000000;stroke-linecap:round;stroke-linejoin:round;stroke-miterlimit:10;" d="M1559.11,918.04
						c-2.56,5.88-4.5,11.63-5.96,16.6c1.18,3.5,2.07,6.66,2.74,9.24c1.29-1.82,2.98-4.05,4.96-6.45c0.32-5.46,0.44-12.09-0.04-19.08
						C1560.74,917.43,1559.48,917.19,1559.11,918.04z"></path>
					<path style="fill:none;stroke:#000000;stroke-linecap:round;stroke-linejoin:round;stroke-miterlimit:10;" d="M1548.43,942.29
						c-4.11-3.73-10.91-9.34-19.64-14.58c-0.78-0.47-1.68,0.44-1.21,1.21c3.35,5.55,6.74,10.4,9.67,14.31"></path>
				</g>
			</g>
			<g>
				<path style="fill:none;stroke:#000000;stroke-linecap:round;stroke-linejoin:round;stroke-miterlimit:10;" d="M1574.51,950.76
					c-0.07-0.45-0.18-0.9-0.28-1.34"></path>
				<path style="fill:none;stroke:#000000;stroke-linecap:round;stroke-linejoin:round;stroke-miterlimit:10;" d="M1536.22,941.82
					c-0.22,0.31-0.43,0.61-0.63,0.93"></path>
				<path style="fill:none;stroke:#000000;stroke-linecap:round;stroke-linejoin:round;stroke-miterlimit:10;" d="M1548.07,933.58
					c-2.32,0.62-4.5,1.64-6.47,2.98"></path>
				<path style="fill:none;stroke:#000000;stroke-linecap:round;stroke-linejoin:round;stroke-miterlimit:10;" d="M1562.91,935.06
					c-0.62-0.3-1.26-0.58-1.92-0.82"></path>
				<path style="fill:none;stroke:#000000;stroke-linecap:round;stroke-linejoin:round;stroke-miterlimit:10;" d="M1572.83,945.27
					c-0.18-0.39-0.38-0.77-0.58-1.15"></path>
				<path style="fill:none;stroke:#000000;stroke-linecap:round;stroke-linejoin:round;stroke-miterlimit:10;" d="M1553.69,932.88
					c-0.39,0-0.78-0.01-1.17,0.01"></path>
				<path style="fill:none;stroke:#000000;stroke-linecap:round;stroke-linejoin:round;stroke-miterlimit:10;" d="M1559.53,974.46
					c2.41-0.71,4.66-1.84,6.67-3.33"></path>
				<path style="fill:none;stroke:#000000;stroke-linecap:round;stroke-linejoin:round;stroke-miterlimit:10;" d="M1544.16,973.16
					c0.75,0.37,1.52,0.69,2.32,0.97"></path>
				<path style="fill:none;stroke:#000000;stroke-linecap:round;stroke-linejoin:round;stroke-miterlimit:10;" d="M1571.21,965.86
					c0.26-0.4,0.51-0.8,0.75-1.22"></path>
				<path style="fill:none;stroke:#000000;stroke-linecap:round;stroke-linejoin:round;stroke-miterlimit:10;" d="M1573.75,960.59
					c0.14-0.45,0.27-0.9,0.39-1.36c0.11-0.44,0.18-0.88,0.26-1.33"></path>
				<path style="fill:none;stroke:#000000;stroke-linecap:round;stroke-linejoin:round;stroke-miterlimit:10;" d="M1539.31,969.89
					c0.4,0.36,0.82,0.7,1.25,1.03"></path>
				<path style="fill:none;stroke:#000000;stroke-linecap:round;stroke-linejoin:round;stroke-miterlimit:10;" d="M1532.44,956.52
					c0.07,0.61,0.16,1.21,0.29,1.8"></path>
				<path style="fill:none;stroke:#000000;stroke-linecap:round;stroke-linejoin:round;stroke-miterlimit:10;" d="M1533.61,946.74
					c-0.27,0.73-0.51,1.48-0.7,2.25c-0.05,0.19-0.07,0.37-0.11,0.56"></path>
				<path style="fill:none;stroke:#000000;stroke-linecap:round;stroke-linejoin:round;stroke-miterlimit:10;" d="M1533.94,962.26
					c0.28,0.66,0.58,1.31,0.92,1.93"></path>
				<path style="fill:none;stroke:#000000;stroke-linecap:round;stroke-linejoin:round;stroke-miterlimit:10;" d="M1553.61,975.33
					c0.58,0,1.15-0.03,1.72-0.07"></path>
			</g>
		</g>
	</g>
	<g>
		<path style="fill:none;stroke:#000000;stroke-linecap:round;stroke-linejoin:round;stroke-miterlimit:10;" d="M1641.94,627.19
			c-0.89,1.25-1.67,2.56-2.34,3.93"></path>
		<path style="fill:none;stroke:#000000;stroke-linecap:round;stroke-linejoin:round;stroke-miterlimit:10;" d="M1682.8,625.01
			c-3.55-3.96-8.17-6.68-13.18-7.94"></path>
		<path style="fill:none;stroke:#000000;stroke-linecap:round;stroke-linejoin:round;stroke-miterlimit:10;" d="M1689.01,647.72
			c0.65-3.24,0.69-6.61,0.08-9.94"></path>
		<path style="fill:none;stroke:#000000;stroke-linecap:round;stroke-linejoin:round;stroke-miterlimit:10;" d="M1678.54,663.94
			c0.93-0.66,1.8-1.38,2.62-2.14"></path>
		<path style="fill:none;stroke:#000000;stroke-linecap:round;stroke-linejoin:round;stroke-miterlimit:10;" d="M1664.58,668.82
			c1.38-0.07,2.76-0.25,4.13-0.54"></path>
		<path style="fill:none;stroke:#000000;stroke-linecap:round;stroke-linejoin:round;stroke-miterlimit:10;" d="M1642,658.06
			c1.7,2.34,3.75,4.33,6.02,5.95"></path>
		<path style="fill:none;stroke:#000000;stroke-linecap:round;stroke-linejoin:round;stroke-miterlimit:10;" d="M1636.97,642.33
			c-0.02,1.78,0.14,3.58,0.49,5.36"></path>
		<path style="fill:none;stroke:#000000;stroke-linecap:round;stroke-linejoin:round;stroke-miterlimit:10;" d="M1642.91,634.85
			c-2.03-3.32-5.71-6.19-10.41-7.63c-6.49-1.99-12.94-0.7-16.41,2.84c0.88,4.88,5.5,9.58,11.98,11.57
			c5.81,1.79,11.6,0.94,15.24-1.81c0.12-0.09,0.21-0.21,0.31-0.32"></path>
		<path style="fill:none;stroke:#000000;stroke-linecap:round;stroke-linejoin:round;stroke-miterlimit:10;" d="M1640.01,645.12
			c-0.13-1.18-0.17-2.37-0.12-3.55"></path>
		<path style="fill:none;stroke:#000000;stroke-linecap:round;stroke-linejoin:round;stroke-miterlimit:10;" d="M1650.45,662.12
			c-2.33-1.52-4.41-3.47-6.11-5.81"></path>
		<path style="fill:none;stroke:#000000;stroke-linecap:round;stroke-linejoin:round;stroke-miterlimit:10;" d="M1669.65,665.03
			c-0.99,0.28-1.99,0.5-3,0.65"></path>
		<path style="fill:none;stroke:#000000;stroke-linecap:round;stroke-linejoin:round;stroke-miterlimit:10;" d="M1678.57,660.2
			c-0.72,0.62-1.48,1.21-2.28,1.75"></path>
		<path style="fill:none;stroke:#000000;stroke-linecap:round;stroke-linejoin:round;stroke-miterlimit:10;" d="M1686.35,639.15
			c0.45,3.03,0.29,6.08-0.43,8.99"></path>
		<path style="fill:none;stroke:#000000;stroke-linecap:round;stroke-linejoin:round;stroke-miterlimit:10;" d="M1670.07,620.23
			c3.37,1.03,6.51,2.82,9.13,5.28"></path>
		<path style="fill:none;stroke:#000000;stroke-linecap:round;stroke-linejoin:round;stroke-miterlimit:10;" d="M1641.85,633.16
			c0.43-0.99,0.94-1.95,1.5-2.87"></path>
		<path style="fill:none;stroke:#000000;stroke-linecap:round;stroke-linejoin:round;stroke-miterlimit:10;" d="M1662.59,634.9
			c0.84,0.49,1.91,0.39,2.64-0.25c3.43-3.01,5.43-8.5,4.86-14.56c-0.64-6.75-4.3-12.22-8.91-14.07c-4.17,2.68-6.74,8.74-6.1,15.5
			C1655.66,627.57,1658.66,632.59,1662.59,634.9z"></path>
		<path style="fill:none;stroke:#000000;stroke-linecap:round;stroke-linejoin:round;stroke-miterlimit:10;" d="M1669.88,655.02
			c0.45,0.14,0.94-0.03,1.21-0.42c1.27-1.8,1.59-4.61,0.64-7.38c-1.06-3.1-3.4-5.25-5.77-5.6c-1.66,1.73-2.18,4.87-1.11,7.97
			C1665.8,652.36,1667.78,654.38,1669.88,655.02z"></path>
		
			<line style="fill:none;stroke:#000000;stroke-linecap:round;stroke-linejoin:round;stroke-miterlimit:10;" x1="1671.15" y1="657.04" x2="1665.96" y2="641.62"></line>
		<path style="fill:none;stroke:#000000;stroke-linecap:round;stroke-linejoin:round;stroke-miterlimit:10;" d="M1675.51,655.37
			c-0.46,0.82-0.35,1.85,0.28,2.55c2.95,3.27,8.29,5.13,14.12,4.49c6.51-0.71,11.74-4.33,13.47-8.79
			c-2.65-3.99-8.54-6.39-15.05-5.68C1682.49,648.57,1677.68,651.54,1675.51,655.37z"></path>
		
			<line style="fill:none;stroke:#000000;stroke-linecap:round;stroke-linejoin:round;stroke-miterlimit:10;" x1="1671.02" y1="656.95" x2="1703.38" y2="653.61"></line>
		<path style="fill:none;stroke:#000000;stroke-linecap:round;stroke-linejoin:round;stroke-miterlimit:10;" d="M1673.74,661.09
			c-0.93-0.28-1.95,0.07-2.51,0.87c-2.61,3.74-3.24,9.55-1.24,15.3c2.23,6.41,7.1,10.84,12.01,11.54c3.41-3.6,4.46-10.1,2.23-16.51
			C1682.22,666.55,1678.1,662.39,1673.74,661.09z"></path>
		
			<line style="fill:none;stroke:#000000;stroke-linecap:round;stroke-linejoin:round;stroke-miterlimit:10;" x1="1671.1" y1="656.92" x2="1682" y2="688.8"></line>
		
			<line style="fill:none;stroke:#000000;stroke-linecap:round;stroke-linejoin:round;stroke-miterlimit:10;" x1="1671.1" y1="656.92" x2="1643.37" y2="676.05"></line>
		<path style="fill:none;stroke:#000000;stroke-linecap:round;stroke-linejoin:round;stroke-miterlimit:10;" d="M1647.23,643.26
			c-0.27-0.61-0.91-0.97-1.57-0.91c-3.09,0.31-6.39,2.57-8.47,6.16c-2.32,4.01-2.45,8.5-0.63,11.35c3.38,0.16,7.21-2.19,9.53-6.19
			C1648.18,650.08,1648.5,646.1,1647.23,643.26z"></path>
		
			<line style="fill:none;stroke:#000000;stroke-linecap:round;stroke-linejoin:round;stroke-miterlimit:10;" x1="1647.14" y1="641.6" x2="1636.56" y2="659.86"></line>
		
			<line style="fill:none;stroke:#000000;stroke-linecap:round;stroke-linejoin:round;stroke-miterlimit:10;" x1="1642.75" y1="638.48" x2="1616.09" y2="630.05"></line>
		
			<line style="fill:none;stroke:#000000;stroke-linecap:round;stroke-linejoin:round;stroke-miterlimit:10;" x1="1648.65" y1="632.64" x2="1649.25" y2="606.48"></line>
		<path style="fill:none;stroke:#000000;stroke-linecap:round;stroke-linejoin:round;stroke-miterlimit:10;" d="M1657.82,658.32
			c-1.08,0.64-2.2,1.04-3.32,1.19c-1.11,0.51-2.21,1.12-3.27,1.86c-5.56,3.89-8.51,9.77-7.86,14.69c4.39,2.31,10.93,1.56,16.49-2.33
			c4.99-3.48,7.87-8.57,7.95-13.13c0.02-0.97-0.6-1.85-1.52-2.18C1663.81,657.55,1660.84,657.53,1657.82,658.32z"></path>
		
			<line style="fill:none;stroke:#000000;stroke-linecap:round;stroke-linejoin:round;stroke-miterlimit:10;" x1="1664.02" y1="639.36" x2="1653.65" y2="659.59"></line>
		
			<line style="fill:none;stroke:#000000;stroke-linecap:round;stroke-linejoin:round;stroke-miterlimit:10;" x1="1664.26" y1="639.51" x2="1641.48" y2="636.34"></line>
		<path style="fill:none;stroke:#000000;stroke-linecap:round;stroke-linejoin:round;stroke-miterlimit:10;" d="M1655.09,621.51
			c-0.22-2.31-0.04-4.53,0.43-6.58c-1.18-3.83-3.42-6.9-6.27-8.46c-4.46,2.17-7.73,7.88-7.89,14.67c-0.12,4.91,1.43,9.31,3.94,12.29
			c1.98-0.84,4.38-1.19,6.91-0.85c0.17,0.02,0.31,0.09,0.47,0.11c1.5-1.92,2.59-4.37,3.2-7.11
			C1655.5,624.29,1655.22,622.93,1655.09,621.51z"></path>
		
			<line style="fill:none;stroke:#000000;stroke-linecap:round;stroke-linejoin:round;stroke-miterlimit:10;" x1="1664.16" y1="639.57" x2="1661.19" y2="606.01"></line>
		<path style="fill:none;stroke:#000000;stroke-linecap:round;stroke-linejoin:round;stroke-miterlimit:10;" d="M1668.24,636.79
			c-0.25,0.94,0.14,1.94,0.96,2.48c3.82,2.48,9.66,2.92,15.33,0.73c6.33-2.45,10.6-7.46,11.14-12.39
			c-3.71-3.29-10.24-4.12-16.57-1.67C1673.41,628.13,1669.39,632.39,1668.24,636.79z"></path>
		
			<line style="fill:none;stroke:#000000;stroke-linecap:round;stroke-linejoin:round;stroke-miterlimit:10;" x1="1664.16" y1="639.57" x2="1695.66" y2="627.62"></line>
		<path style="fill:none;stroke:#000000;stroke-linecap:round;stroke-linejoin:round;stroke-miterlimit:10;" d="M1660.91,639.83
			c0.46-0.48,0.55-1.21,0.24-1.8c-1.47-2.74-4.82-4.92-8.94-5.46c-4.59-0.61-8.79,0.99-10.73,3.76c1.14,3.19,4.78,5.82,9.37,6.43
			C1654.97,643.32,1658.77,642.09,1660.91,639.83z"></path>
		<path style="fill:none;stroke:#000000;stroke-linecap:round;stroke-linejoin:round;stroke-miterlimit:10;" d="M1663.24,642.59
			c-0.3-0.58-0.95-0.91-1.6-0.81c-3.04,0.48-6.16,2.9-8.01,6.57c-2.06,4.09-1.94,8.53,0.02,11.24c3.35-0.03,6.99-2.57,9.06-6.65
			C1664.56,649.27,1664.65,645.33,1663.24,642.59z"></path>
	</g>
	<g>
		<g>
			<path style="fill:none;stroke:#000000;stroke-linecap:round;stroke-linejoin:round;stroke-miterlimit:10;" d="M1508.42,1105.07
				c0.31,0.57,0.62,1.14,0.9,1.73c0.65-0.55,1.24-1.16,1.8-1.8c-0.54-0.35-1.07-0.73-1.59-1.11
				C1509.17,1104.29,1508.83,1104.71,1508.42,1105.07z"></path>
			<path style="fill:none;stroke:#000000;stroke-linecap:round;stroke-linejoin:round;stroke-miterlimit:10;" d="M1512.68,1088.66
				c0.18,0.51,0.28,1.04,0.41,1.57c0.64-0.05,1.28-0.09,1.92-0.11c-0.18-0.83-0.38-1.65-0.68-2.44
				C1513.79,1088.02,1513.24,1088.34,1512.68,1088.66z"></path>
			<path style="fill:none;stroke:#000000;stroke-linecap:round;stroke-linejoin:round;stroke-miterlimit:10;" d="M1507.89,1081.91
				c0.36,0.29,0.69,0.61,1.02,0.93c0.49-0.39,0.98-0.79,1.49-1.16c-0.53-0.53-1.06-1.06-1.66-1.52
				C1508.48,1080.76,1508.18,1081.34,1507.89,1081.91z"></path>
			<path style="fill:none;stroke:#000000;stroke-linecap:round;stroke-linejoin:round;stroke-miterlimit:10;" d="M1501.54,1078.88
				c0.21-0.6,0.45-1.18,0.69-1.77c-2.18-0.51-4.36-0.59-6.45-0.27c0.28,0.6,0.58,1.19,0.83,1.81
				C1498.21,1078.46,1499.87,1078.52,1501.54,1078.88z"></path>
			<path style="fill:none;stroke:#000000;stroke-linecap:round;stroke-linejoin:round;stroke-miterlimit:10;" d="M1489.86,1081.16
				c-0.29-0.57-0.54-1.14-0.8-1.72c-0.96,0.62-1.85,1.35-2.67,2.15c0.54,0.32,1.09,0.64,1.62,0.99
				C1488.59,1082.06,1489.22,1081.6,1489.86,1081.16z"></path>
			<path style="fill:none;stroke:#000000;stroke-linecap:round;stroke-linejoin:round;stroke-miterlimit:10;" d="M1513.14,1097.17
				c-0.01,0.06-0.01,0.12-0.03,0.19c-0.05,0.18-0.14,0.34-0.19,0.52c0.58,0.28,1.14,0.58,1.71,0.88c0.1-0.31,0.25-0.59,0.32-0.91
				c0.05-0.2,0.04-0.4,0.09-0.59C1514.4,1097.25,1513.77,1097.22,1513.14,1097.17z"></path>
			<path style="fill:none;stroke:#000000;stroke-linecap:round;stroke-linejoin:round;stroke-miterlimit:10;" d="M1483.52,1090.65
				c0.04-0.21,0.04-0.41,0.09-0.61c0.13-0.51,0.34-0.96,0.52-1.45c-0.56-0.31-1.1-0.65-1.64-0.98c-0.25,0.66-0.54,1.3-0.72,2.01
				c-0.09,0.37-0.09,0.74-0.16,1.11C1482.24,1090.7,1482.88,1090.66,1483.52,1090.65z"></path>
			<path style="fill:none;stroke:#000000;stroke-linecap:round;stroke-linejoin:round;stroke-miterlimit:10;" d="M1502.96,1110.13
				c-0.27-0.6-0.53-1.19-0.77-1.8c-1.56,0.41-3.17,0.61-4.83,0.5c-0.22,0.63-0.49,1.23-0.74,1.85
				C1498.8,1110.9,1500.93,1110.7,1502.96,1110.13z"></path>
			<path style="fill:none;stroke:#000000;stroke-linecap:round;stroke-linejoin:round;stroke-miterlimit:10;" d="M1484.54,1099.86
				c-0.3-0.66-0.54-1.34-0.74-2.04c-0.65,0.04-1.3,0.05-1.95,0.06c0.27,1.07,0.63,2.09,1.09,3.08
				C1483.47,1100.58,1483.99,1100.21,1484.54,1099.86z"></path>
			<path style="fill:none;stroke:#000000;stroke-linecap:round;stroke-linejoin:round;stroke-miterlimit:10;" d="M1490.54,1106.65
				c-0.57-0.35-1.14-0.7-1.65-1.11c-0.53,0.39-1.07,0.76-1.62,1.13c0.77,0.66,1.61,1.25,2.5,1.77
				C1490.02,1107.84,1490.27,1107.24,1490.54,1106.65z"></path>
		</g>
		<path style="fill:none;stroke:#000000;stroke-linecap:round;stroke-linejoin:round;stroke-miterlimit:10;" d="M1499.7,1093.92
			c3.9,0.46,7.82,1.55,11.53,3.16c7.08,0.81,14.46-0.22,20.65-3.36c-7.03-3.66-15.51-4.4-23.45-2.92c-2.81,1.2-5.72,2.09-8.64,2.59
			c-0.24,0.1-0.51,0.18-0.75,0.29c0.22,0.1,0.46,0.18,0.68,0.27C1499.72,1093.94,1499.71,1093.93,1499.7,1093.92z"></path>
		<path style="fill:none;stroke:#000000;stroke-linecap:round;stroke-linejoin:round;stroke-miterlimit:10;" d="M1499.41,1093.47
			c5.78-9.45,16.06-17.12,27.17-18.43C1521.2,1084.79,1510.26,1091.75,1499.41,1093.47z M1499.7,1093.92
			c6.1,9.14,17,16.17,28.11,16.97C1521.97,1101.34,1510.7,1095.22,1499.7,1093.92z"></path>
		<path style="fill:none;stroke:#000000;stroke-linecap:round;stroke-linejoin:round;stroke-miterlimit:10;" d="M1499.4,1094.23
			c0.05-0.08,0.11-0.15,0.15-0.22c-0.52,0.08-1.04,0.23-1.56,0.34c-2.57,1.14-5.29,2.02-8.1,2.63c-7.26,3.25-13.76,8.65-17.51,15.46
			c7.7-0.91,14.97-4.91,20.65-10.4C1494.85,1099.14,1496.98,1096.48,1499.4,1094.23z"></path>
		<path style="fill:none;stroke:#000000;stroke-linecap:round;stroke-linejoin:round;stroke-miterlimit:10;" d="M1499,1093.51
			c0.09,0.01,0.18,0.04,0.27,0.05c-6.1-9.14-17-16.17-28.11-16.97c4.04,6.62,10.72,11.54,18.08,14.4
			C1492.64,1091.43,1495.94,1092.26,1499,1093.51z"></path>
		<path style="fill:none;stroke:#000000;stroke-linecap:round;stroke-linejoin:round;stroke-miterlimit:10;" d="M1499.03,1093.25
			c0.2,0.18,0.38,0.38,0.58,0.56c0.09-10.99-4.96-22.93-13.7-29.84c-0.39,7.92,2.49,15.93,7.15,22.52
			C1495.33,1088.54,1497.36,1090.8,1499.03,1093.25z"></path>
		<g>
			<path style="fill:none;stroke:#000000;stroke-linecap:round;stroke-linejoin:round;stroke-miterlimit:10;" d="M1499.33,1089.17
				c0.16,1.36,0.24,2.71,0.25,4.06c1.75-2.81,3.92-5.42,6.36-7.78c4.14-6.6,6.52-14.49,5.97-22.08
				C1504.45,1069.57,1500.14,1079.44,1499.33,1089.17z"></path>
			<path style="fill:none;stroke:#000000;stroke-linecap:round;stroke-linejoin:round;stroke-miterlimit:10;" d="M1499.19,1093.4
				c0,0.07-0.01,0.15-0.01,0.23c0.04-0.04,0.08-0.08,0.12-0.12C1499.27,1093.48,1499.23,1093.44,1499.19,1093.4z"></path>
		</g>
		<path style="fill:none;stroke:#000000;stroke-linecap:round;stroke-linejoin:round;stroke-miterlimit:10;" d="M1487.06,1124.12
			c-0.81-11.11,4.56-22.91,12.72-30.27C1500.09,1104.92,1495.66,1116.96,1487.06,1124.12z M1499.78,1093.85
			c0.31,11.07-4.12,23.11-12.72,30.27 M1499.5,1093.7c-10.1-4.33-23.06-4.27-32.81,1.11
			C1476.79,1099.63,1489.58,1098.61,1499.5,1093.7z"></path>
		<g>
			<path style="fill:none;stroke:#000000;stroke-linecap:round;stroke-linejoin:round;stroke-miterlimit:10;" d="M1499.66,1093.97
				c-0.08-0.08-0.16-0.16-0.24-0.23c-0.02,0.01-0.04,0.02-0.06,0.02c0,0.16,0.02,0.33,0.02,0.49
				C1499.48,1094.16,1499.57,1094.05,1499.66,1093.97z"></path>
			<path style="fill:none;stroke:#000000;stroke-linecap:round;stroke-linejoin:round;stroke-miterlimit:10;" d="M1499.64,1098.31
				c1.13,9.58,5.9,19.26,13.41,25.21c0.39-7.92-2.49-15.93-7.15-22.52c-2.27-2.05-4.29-4.32-5.96-6.76
				c-0.06-0.05-0.11-0.1-0.16-0.16C1499.8,1095.47,1499.76,1096.89,1499.64,1098.31z"></path>
		</g>
	</g>
	<g>
		<g>
			<path style="fill:none;stroke:#000000;stroke-linecap:round;stroke-linejoin:round;stroke-miterlimit:10;" d="M1600.12,798.31"></path>
			<path style="fill:none;stroke:#000000;stroke-linecap:round;stroke-linejoin:round;stroke-miterlimit:10;" d="M1569.86,814.11
				l2.37-0.28c0.01-0.01,0.02-0.01,0.04-0.01l-4.39-10.14l-0.39,2.1l-11.83-3.77c-1.8-0.57-3.85,0.19-4.61,1.92
				c-0.87,1.99,0.18,4.26,2.21,4.91l16.51,5.27C1569.81,814.11,1569.84,814.1,1569.86,814.11z"></path>
			<path style="fill:none;stroke:#000000;stroke-linecap:round;stroke-linejoin:round;stroke-miterlimit:10;" d="M1573.13,788.88
				c0,0-4.18,0.1-6.07,3.27c-1.62,2.71-1.58,5.77-0.46,8.56l-0.01,0l0.1,0.24c0.05,0.13,0.1,0.25,0.16,0.37l5.41,12.5l-12.33,1.44
				c-1.88,0.22-3.43,1.76-3.41,3.65c0.03,2.18,1.92,3.81,4.04,3.56l17.22-2.01c1.85-0.22,3.09-2,2.64-3.81l-1.76-7.09
				c5.39,0.83,9.71-0.32,12.94-2.03c4.66-2.47,8.04-6.94,9.15-12.09c0.03-0.12,0.05-0.23,0.06-0.33
				c0.57-4.44,1.61-15.03-10.49-26.51c-13.41-12.72-26.91-12.82-33.87-11.7"></path>
			<path style="fill:none;stroke:#000000;stroke-linecap:round;stroke-linejoin:round;stroke-miterlimit:10;" d="M1632.24,791.66
				c0.01-0.05,0.01-0.1,0.03-0.15c-0.2,0.05-0.4,0.09-0.61,0.14c-1.14,3.01-2.55,5.37-5.18,7.62c-7.67,6.56-19.37,6.73-26.71,0.22
				c-0.1-0.09-0.22-0.12-0.33-0.19c-0.57,1.2-1.27,2.33-2.08,3.38c7.81,7.01,19.85,7.3,27.97,0.32
				C1628.9,799.92,1631.27,795.94,1632.24,791.66z"></path>
			<path style="fill:none;stroke:#000000;stroke-linecap:round;stroke-linejoin:round;stroke-miterlimit:10;" d="M1542.65,762.28
				l2.4-8.23l-30.24-10.49c-4.45-1.66-2.19-8.29,2.37-6.83c0,0,33.88,11.75,33.88,11.75l5.39,8.42l4.17,6.51"></path>
			
				<line style="fill:none;stroke:#000000;stroke-linecap:round;stroke-linejoin:round;stroke-miterlimit:10;" x1="1587.6" y1="788.54" x2="1560.98" y2="789.16"></line>
			<path style="fill:none;stroke:#000000;stroke-linecap:round;stroke-linejoin:round;stroke-miterlimit:10;" d="M1555.86,758.25"></path>
			<g>
				<g>
					<g>
						<path style="fill:none;stroke:#000000;stroke-linecap:round;stroke-linejoin:round;stroke-miterlimit:10;" d="M1546.89,758.78
							c-2.7,1.31-4.91,3.65-5.97,6.72l-1.98,5.71c0,0,0,0,0,0l0.56-1.62c0.79-2.27,3.26-3.47,5.53-2.68l4.59,1.59l6.63,0"></path>
						<path style="fill:none;stroke:#000000;stroke-linecap:round;stroke-linejoin:round;stroke-miterlimit:10;" d="M1549.88,786.87
							l-5.21-4.11l-4.34-1.51c1.31,1.92,3.2,3.46,5.56,4.28l3.9,1.35L1549.88,786.87z"></path>
					</g>
					<path style="fill:none;stroke:#000000;stroke-linecap:round;stroke-linejoin:round;stroke-miterlimit:10;" d="M1539.51,769.59
						c0.17-0.49,0.45-0.91,0.76-1.29l-19.69-6.83c-1.89-0.65-3.95,0.34-4.6,2.23c-0.65,1.89,0.35,3.95,2.23,4.6l19.41,6.73
						L1539.51,769.59z"></path>
					<path style="fill:none;stroke:#000000;stroke-linecap:round;stroke-linejoin:round;stroke-miterlimit:10;" d="M1538.03,773.84
						l1.51,1.97c0.87,1.14,2.66,0.85,3.13-0.51l0.76-2.18c0.47-1.35-0.75-2.68-2.14-2.33l-2.41,0.61L1538.03,773.84z"></path>
					<path style="fill:none;stroke:#000000;stroke-linecap:round;stroke-linejoin:round;stroke-miterlimit:10;" d="M1555.76,777.03
						c-0.7,0.31-1.52-0.01-1.83-0.71s0.01-1.52,0.71-1.83"></path>
					<path style="fill:none;stroke:#000000;stroke-linecap:round;stroke-linejoin:round;stroke-miterlimit:10;" d="M1551.92,781.42
						c-0.21-0.73,0.21-1.5,0.95-1.71c0.73-0.21,1.5,0.21,1.71,0.95"></path>
				</g>
				<g>
					<g>
						
							<circle style="fill:none;stroke:#000000;stroke-linecap:round;stroke-linejoin:round;stroke-miterlimit:10;" cx="1551.65" cy="772.96" r="1.1"></circle>
						<path style="fill:none;stroke:#000000;stroke-linecap:round;stroke-linejoin:round;stroke-miterlimit:10;" d="M1550.96,770.2
							c1.44,0.85,1.97,1.68,1.78,2.93"></path>
					</g>
					<g>
						
							<circle style="fill:none;stroke:#000000;stroke-linecap:round;stroke-linejoin:round;stroke-miterlimit:10;" cx="1549.02" cy="780.52" r="1.1"></circle>
						<path style="fill:none;stroke:#000000;stroke-linecap:round;stroke-linejoin:round;stroke-miterlimit:10;" d="M1546.77,782.25
							c1.66,0.23,2.59-0.1,3.21-1.19"></path>
					</g>
				</g>
				
					<line style="fill:none;stroke:#000000;stroke-linecap:round;stroke-linejoin:round;stroke-miterlimit:10;" x1="1538.45" y1="772.62" x2="1539.99" y2="773.15"></line>
			</g>
			<path style="fill:none;stroke:#000000;stroke-linecap:round;stroke-linejoin:round;stroke-miterlimit:10;" d="M1561.92,787.48
				c0,0,9.61-4.39,10.63-15.32"></path>
		</g>
		<path style="fill:none;stroke:#000000;stroke-linecap:round;stroke-linejoin:round;stroke-miterlimit:10;" d="M1563.13,777.45
			l-7.74-10.07c-0.75-0.98-0.26-2.41,0.94-2.71l5.92-1.5c2.74-0.69,5.15,1.94,4.23,4.61L1563.13,777.45z"></path>
		<path style="fill:none;stroke:#000000;stroke-linecap:round;stroke-linejoin:round;stroke-miterlimit:10;" d="M1561.92,787.48
			l4.16-12c0.58-1.67,0.26-3.37-0.63-4.68l-2.31,6.66l-6.88-8.96l-6.63,0l-4.59-1.59c-2.27-0.79-4.74,0.41-5.53,2.68l-2.1,6.06
			c-0.79,2.27,0.41,4.74,2.68,5.53l4.59,1.59l5.21,4.11l10.95-2.77l-2.31,6.66C1560.03,790.29,1561.34,789.15,1561.92,787.48z"></path>
		<path style="fill:none;stroke:#000000;stroke-linecap:round;stroke-linejoin:round;stroke-miterlimit:10;" d="M1551.3,794.78
			l-3.72-4.85c-0.75-0.98-0.26-2.41,0.94-2.71l12.31-3.12l-3.36,9.68C1556.54,796.45,1553.02,797.02,1551.3,794.78z"></path>
	</g>
</g>
<g id="floor">
	<g>
		
			<rect x="1425.08" y="1314.03" transform="matrix(-8.762964e-11 1 -1 -8.762964e-11 2919.7002 -231.8135)" style="fill:none;stroke:#000000;stroke-linecap:round;stroke-linejoin:round;stroke-miterlimit:10;" width="301.36" height="59.83"></rect>
		
			<rect x="1426.14" y="1334.9" transform="matrix(8.762952e-11 -1 1 8.762952e-11 232.8789 2920.7654)" style="fill:none;stroke:#000000;stroke-linecap:round;stroke-linejoin:round;stroke-miterlimit:10;" width="301.36" height="18.09"></rect>
		
			<line style="fill:none;stroke:#000000;stroke-linecap:round;stroke-linejoin:round;stroke-miterlimit:10;" x1="1567.78" y1="1487.26" x2="1585.83" y2="1487.26"></line>
		
			<line style="fill:none;stroke:#000000;stroke-linecap:round;stroke-linejoin:round;stroke-miterlimit:10;" x1="1567.78" y1="1395.7" x2="1585.83" y2="1395.7"></line>
		
			<line style="fill:none;stroke:#000000;stroke-linecap:round;stroke-linejoin:round;stroke-miterlimit:10;" x1="1567.78" y1="1411.82" x2="1585.83" y2="1411.82"></line>
		
			<line style="fill:none;stroke:#000000;stroke-linecap:round;stroke-linejoin:round;stroke-miterlimit:10;" x1="1567.78" y1="1200.84" x2="1585.83" y2="1200.84"></line>
	</g>
	<g>
		<polygon style="fill:none;stroke:#000000;stroke-linecap:round;stroke-linejoin:round;stroke-miterlimit:10;" points="
			1853.26,624.6 1763.75,540.86 1702.44,606.52 1791.43,690.52 		"></polygon>
		
			<rect x="1759.07" y="564.69" transform="matrix(0.686 -0.7276 0.7276 0.686 99.8014 1483.0393)" style="fill:none;stroke:#000000;stroke-linecap:round;stroke-linejoin:round;stroke-miterlimit:10;" width="18.09" height="122.41"></rect>
		
			<line style="fill:none;stroke:#000000;stroke-linecap:round;stroke-linejoin:round;stroke-miterlimit:10;" x1="1799.09" y1="667.51" x2="1811.48" y2="654.38"></line>
		
			<line style="fill:none;stroke:#000000;stroke-linecap:round;stroke-linejoin:round;stroke-miterlimit:10;" x1="1724.54" y1="597.2" x2="1736.93" y2="584.08"></line>
	</g>
	<g>
		<polygon style="fill:none;stroke:#000000;stroke-linecap:round;stroke-linejoin:round;stroke-miterlimit:10;" points="
			1768.27,1000 1856.17,777.67 1769.35,744.03 1681.46,966.36 		"></polygon>
		<polygon style="fill:none;stroke:#000000;stroke-linecap:round;stroke-linejoin:round;stroke-miterlimit:10;" points="
			1789.77,752.06 1701.88,974.39 1718.71,981.01 1806.61,758.67 		"></polygon>
		
			<line style="fill:none;stroke:#000000;stroke-linecap:round;stroke-linejoin:round;stroke-miterlimit:10;" x1="1704.58" y1="967.53" x2="1721.37" y2="974.13"></line>
		
			<line style="fill:none;stroke:#000000;stroke-linecap:round;stroke-linejoin:round;stroke-miterlimit:10;" x1="1745.17" y1="864.98" x2="1761.97" y2="871.58"></line>
		
			<line style="fill:none;stroke:#000000;stroke-linecap:round;stroke-linejoin:round;stroke-miterlimit:10;" x1="1740.01" y1="877.88" x2="1756.81" y2="884.48"></line>
		
			<line style="fill:none;stroke:#000000;stroke-linecap:round;stroke-linejoin:round;stroke-miterlimit:10;" x1="1748.25" y1="857.14" x2="1765.05" y2="863.75"></line>
		
			<line style="fill:none;stroke:#000000;stroke-linecap:round;stroke-linejoin:round;stroke-miterlimit:10;" x1="1753.29" y1="844.11" x2="1770.09" y2="850.71"></line>
		
			<line style="fill:none;stroke:#000000;stroke-linecap:round;stroke-linejoin:round;stroke-miterlimit:10;" x1="1787" y1="759.11" x2="1803.8" y2="765.71"></line>
		<g>
			<path style="fill:none;stroke:#000000;stroke-linecap:round;stroke-linejoin:round;stroke-miterlimit:10;" d="M1691.44,799.67
				c10.36,25.7,30.7,47.19,58.24,58.05"></path>
			
				<line style="fill:none;stroke:#000000;stroke-linecap:round;stroke-linejoin:round;stroke-miterlimit:10;" x1="1787.51" y1="759.34" x2="1691.44" y2="799.67"></line>
		</g>
		<g>
			<path style="fill:none;stroke:#000000;stroke-linecap:round;stroke-linejoin:round;stroke-miterlimit:10;" d="M1659.73,868.05
				c26.29-12.3,57.23-14.25,86.09-2.9"></path>
			
				<line style="fill:none;stroke:#000000;stroke-linecap:round;stroke-linejoin:round;stroke-miterlimit:10;" x1="1704.57" y1="967.56" x2="1659.73" y2="868.05"></line>
		</g>
		
			<line style="fill:none;stroke:#000000;stroke-linecap:round;stroke-linejoin:round;stroke-miterlimit:10;" x1="1844.46" y1="773.13" x2="1756.86" y2="995.58"></line>
	</g>
	<g>
		<g>
			<path style="fill:none;stroke:#000000;stroke-linecap:round;stroke-linejoin:round;stroke-miterlimit:10;" d="M1620.18,1413.58
				v-183.24c0-2.86,2.32-5.18,5.18-5.18h60.66c2.86,0,5.18,2.32,5.18,5.18v183.24c0,2.86-2.32,5.18-5.18,5.18h-60.66
				C1622.5,1418.76,1620.18,1416.44,1620.18,1413.58z"></path>
			<g>
				
					<circle style="fill:none;stroke:#000000;stroke-linecap:round;stroke-linejoin:round;stroke-miterlimit:10;" cx="1655.49" cy="1270.18" r="2.44"></circle>
				<path style="fill:none;stroke:#000000;stroke-linecap:round;stroke-linejoin:round;stroke-miterlimit:10;" d="M1657.79,1271.03
					c0,0,10.57,1.59,8.71,11.18c-0.99,5.1-6.52,5.82-9.36,3.83c-1.35-0.95-2.21-3.64-1.07-6.35c2.23-5.29,0.22-7.19,0.22-7.19"></path>
				<path style="fill:none;stroke:#000000;stroke-linecap:round;stroke-linejoin:round;stroke-miterlimit:10;" d="M1654.7,1272.49
					c0,0-1.37,10.6-11.01,8.93c-5.12-0.89-5.95-6.41-4.02-9.28c0.92-1.37,3.6-2.29,6.33-1.2c5.33,2.12,7.19,0.07,7.19,0.07"></path>
				<path style="fill:none;stroke:#000000;stroke-linecap:round;stroke-linejoin:round;stroke-miterlimit:10;" d="M1653.19,1269.35
					c0,0-10.58-1.52-8.78-11.13c0.96-5.1,6.49-5.86,9.34-3.89c1.36,0.94,2.24,3.63,1.11,6.35c-2.19,5.3-0.17,7.19-0.17,7.19"></path>
				<path style="fill:none;stroke:#000000;stroke-linecap:round;stroke-linejoin:round;stroke-miterlimit:10;" d="M1656.33,1267.89
					c0,0,1.55-10.58,11.15-8.75c5.1,0.97,5.84,6.51,3.86,9.35c-0.94,1.35-3.63,2.22-6.35,1.09c-5.29-2.21-7.19-0.2-7.19-0.2"></path>
				
					<circle style="fill:none;stroke:#000000;stroke-linecap:round;stroke-linejoin:round;stroke-miterlimit:10;" cx="1655.49" cy="1270.18" r="24.18"></circle>
				<path style="fill:none;stroke:#000000;stroke-linecap:round;stroke-linejoin:round;stroke-miterlimit:10;" d="M1657.79,1271.03
					c0,0,10.57,1.59,8.71,11.18c-0.99,5.1-6.52,5.82-9.36,3.83c-1.35-0.95-2.21-3.64-1.07-6.35c2.23-5.29,0.22-7.19,0.22-7.19"></path>
				<path style="fill:none;stroke:#000000;stroke-linecap:round;stroke-linejoin:round;stroke-miterlimit:10;" d="M1654.7,1272.49
					c0,0-1.37,10.6-11.01,8.93c-5.12-0.89-5.95-6.41-4.02-9.28c0.92-1.37,3.6-2.29,6.33-1.2c5.33,2.12,7.19,0.07,7.19,0.07"></path>
				<path style="fill:none;stroke:#000000;stroke-linecap:round;stroke-linejoin:round;stroke-miterlimit:10;" d="M1653.19,1269.35
					c0,0-10.58-1.52-8.78-11.13c0.96-5.1,6.49-5.86,9.34-3.89c1.36,0.94,2.24,3.63,1.11,6.35c-2.19,5.3-0.17,7.19-0.17,7.19"></path>
				<path style="fill:none;stroke:#000000;stroke-linecap:round;stroke-linejoin:round;stroke-miterlimit:10;" d="M1656.33,1267.89
					c0,0,1.55-10.58,11.15-8.75c5.1,0.97,5.84,6.51,3.86,9.35c-0.94,1.35-3.63,2.22-6.35,1.09c-5.29-2.21-7.19-0.2-7.19-0.2"></path>
			</g>
		</g>
		<polyline style="fill:none;stroke:#000000;stroke-linecap:round;stroke-linejoin:round;stroke-miterlimit:10;" points="
			1591.51,1164.37 1665.51,1164.37 1735.31,1284.21 1665.51,1523.54 1591.51,1523.54 		"></polyline>
	</g>
	<g>
		<g>
			<g id="LWPOLYLINE_223_">
				<path style="fill:none;stroke:#000000;stroke-linecap:round;stroke-linejoin:round;stroke-miterlimit:10;" d="M322.09,1385.34
					l53.02-0.14c7.47-0.02,14.07-4.76,16.34-11.72c8.24-25.29,8.17-52.48-0.21-77.72c-2.31-6.96-8.94-11.66-16.41-11.64l-53.02,0.14
					"></path>
			</g>
			<g id="LWPOLYLINE_222_">
				<path style="fill:none;stroke:#000000;stroke-linecap:round;stroke-linejoin:round;stroke-miterlimit:10;" d="M336.72,1307.79
					c-0.01-5.58,4.6-10.12,10.3-10.13l16.52-0.04c3.78-0.01,7.12,2.4,8.24,5.94c6.39,20.26,6.45,41.93,0.17,62.22
					c-1.1,3.54-4.43,5.97-8.21,5.98l-16.52,0.04c-5.7,0.02-10.34-4.5-10.35-10.08"></path>
			</g>
			<g id="LWPOLYLINE_221_">
				<path style="fill:none;stroke:#000000;stroke-linecap:round;stroke-linejoin:round;stroke-miterlimit:10;" d="M347.23,1378.53
					l27.86-0.07c4.48-0.01,8.44-2.85,9.81-7.03c7.81-23.95,7.74-49.69-0.2-73.59c-1.39-4.17-5.36-6.99-9.84-6.98l-27.86,0.07
					c-5.7,0.01-10.31,4.55-10.3,10.13l0.18,67.4C336.9,1374.04,341.53,1378.55,347.23,1378.53z"></path>
			</g>
			<g id="LWPOLYLINE_220_">
				<path style="fill:none;stroke:#000000;stroke-linecap:round;stroke-linejoin:round;stroke-miterlimit:10;" d="M339.86,1334.74
					c0.01,2.5,2.08,4.53,4.64,4.53c2.56-0.01,4.62-2.05,4.62-4.55c-0.01-2.5-2.08-4.53-4.64-4.52
					C341.92,1330.21,339.86,1332.24,339.86,1334.74z"></path>
			</g>
		</g>
		<g>
			<g id="LWPOLYLINE_219_">
				
					<rect x="322.29" y="1405.71" style="fill:none;stroke:#000000;stroke-linecap:round;stroke-linejoin:round;stroke-miterlimit:10;" width="339.11" height="137.68"></rect>
			</g>
			<g id="LWPOLYLINE_218_">
				<path style="fill:none;stroke:#000000;stroke-linecap:round;stroke-linejoin:round;stroke-miterlimit:10;" d="M615.45,1416.73
					l-222.04,0c-32.61,0-59.03,25.89-59.03,57.82c0,31.93,26.44,57.82,59.05,57.82l222.04,0c15.58,0,28.27-12.27,28.45-27.53
					l-0.01-60.58c0-15.21-12.59-27.54-28.12-27.54"></path>
			</g>
			<g id="LWPOLYLINE_217_">
				<path style="fill:none;stroke:#000000;stroke-linecap:round;stroke-linejoin:round;stroke-miterlimit:10;" d="M545.25,1432.46
					l-151.85,0c-23.74,0-42.98,18.85-42.98,42.09s19.25,42.09,42.98,42.09l149.63,0c22.87-0.02,41.72-17.55,42.91-39.92
					C587.2,1453.49,568.97,1433.68,545.25,1432.46z"></path>
			</g>
			<g id="LWPOLYLINE_216_">
				<path style="fill:none;stroke:#000000;stroke-linecap:round;stroke-linejoin:round;stroke-miterlimit:10;" d="M385.54,1474.55
					c0,4.26,3.52,7.71,7.87,7.71c4.35,0,7.87-3.45,7.87-7.71c0-4.26-3.53-7.71-7.87-7.71
					C389.07,1466.84,385.54,1470.29,385.54,1474.55z"></path>
			</g>
		</g>
		<g>
			<g id="LWPOLYLINE_215_">
				<path style="fill:none;stroke:#000000;stroke-linecap:round;stroke-linejoin:round;stroke-miterlimit:10;" d="M379.97,1152.58
					l55.63,0.01c19.36,0,35.05,16.02,35.05,35.79c0,19.77-15.69,35.79-35.05,35.79l-55.63-0.01c-4.84,0-8.76-4.01-8.76-8.95l0-53.69
					C371.21,1156.58,375.14,1152.58,379.97,1152.58z"></path>
			</g>
			<g id="LWPOLYLINE_214_">
				<path style="fill:none;stroke:#000000;stroke-linecap:round;stroke-linejoin:round;stroke-miterlimit:10;" d="M435.6,1217.01
					l-31.12-0.01c-15.48,0-28.03-12.82-28.04-28.63c0-15.81,12.55-28.64,28.04-28.64l31.12,0.01c15.48,0,28.03,12.82,28.04,28.63
					C463.64,1204.19,451.09,1217.01,435.6,1217.01z"></path>
			</g>
			<g id="LWPOLYLINE_213_">
				<path style="fill:none;stroke:#000000;stroke-linecap:round;stroke-linejoin:round;stroke-miterlimit:10;" d="M424.32,1199.12
					l-22.74-0.01c-5.81,0-10.51-4.81-10.51-10.74c0-5.93,4.71-10.74,10.51-10.74l22.74,0.01c5.81,0,10.51,4.81,10.51,10.73
					C434.83,1194.31,430.13,1199.11,424.32,1199.12z"></path>
			</g>
		</g>
	</g>
	<g>
		<g id="LWPOLYLINE_212_">
			
				<rect x="543.63" y="506.37" style="fill:none;stroke:#000000;stroke-linecap:round;stroke-linejoin:round;stroke-miterlimit:10;" width="119.65" height="119.6"></rect>
		</g>
		<g>
			<g id="LWPOLYLINE_211_">
				<polyline style="fill:none;stroke:#000000;stroke-linecap:round;stroke-linejoin:round;stroke-miterlimit:10;" points="
					576.35,531.73 617.33,566.14 589.57,566.21 630.55,600.61 				"></polyline>
			</g>
			<g id="LWPOLYLINE_210_">
				<path style="fill:none;stroke:#000000;stroke-linecap:round;stroke-linejoin:round;stroke-miterlimit:10;" d="M572.6,566.25
					c0.05,16.68,13.89,30.17,30.92,30.12c17.03-0.04,30.81-13.6,30.77-30.28c-0.05-16.68-13.89-30.17-30.93-30.13
					C586.33,536.01,572.56,549.57,572.6,566.25z"></path>
			</g>
		</g>
	</g>
	<g>
		<path style="fill:none;stroke:#000000;stroke-linecap:round;stroke-linejoin:round;stroke-miterlimit:10;" d="M283.23,848.28
			c-100.49,0-183.14,81.3-183.14,181.79h183.14"></path>
		
			<rect x="286.85" y="1026.44" transform="matrix(-2.063408e-06 -1 1 -2.063408e-06 -743.207 1327.7399)" style="fill:none;stroke:#000000;stroke-linecap:round;stroke-linejoin:round;stroke-miterlimit:10;" width="10.83" height="18.07"></rect>
		
			<rect x="286.85" y="833.83" transform="matrix(-2.063413e-06 -1 1 -2.063413e-06 -550.6004 1135.1321)" style="fill:none;stroke:#000000;stroke-linecap:round;stroke-linejoin:round;stroke-miterlimit:10;" width="10.83" height="18.07"></rect>
	</g>
	<g>
		<path style="fill:none;stroke:#000000;stroke-linecap:round;stroke-linejoin:round;stroke-miterlimit:10;" d="M678.75,1242.74
			c78.82,0,143.64,63.76,143.64,142.58H678.75"></path>
		
			<rect x="665.6" y="1380.65" transform="matrix(2.063455e-06 -1 1 2.063455e-06 -719.716 2059.3992)" style="fill:none;stroke:#000000;stroke-linecap:round;stroke-linejoin:round;stroke-miterlimit:10;" width="8.49" height="17.82"></rect>
		
			<rect x="665.63" y="1229.62" transform="matrix(2.063457e-06 -1 1 2.063457e-06 -568.6212 1908.3656)" style="fill:none;stroke:#000000;stroke-linecap:round;stroke-linejoin:round;stroke-miterlimit:10;" width="8.49" height="17.75"></rect>
	</g>
	<g>
		<path style="fill:none;stroke:#000000;stroke-linecap:round;stroke-linejoin:round;stroke-miterlimit:10;" d="M642.94,1094.77
			c0-78.82-63.76-143.64-142.58-143.64v143.64"></path>
		
			<rect x="491.87" y="1094.77" style="fill:none;stroke:#000000;stroke-linecap:round;stroke-linejoin:round;stroke-miterlimit:10;" width="8.49" height="17.82"></rect>
		
			<rect x="642.94" y="1094.77" style="fill:none;stroke:#000000;stroke-linecap:round;stroke-linejoin:round;stroke-miterlimit:10;" width="8.49" height="17.75"></rect>
	</g>
	<g>
		<path style="fill:none;stroke:#000000;stroke-linecap:round;stroke-linejoin:round;stroke-miterlimit:10;" d="M1098.74,1018.86
			c0,88.79-71.83,161.82-160.62,161.82v-161.82"></path>
		
			<rect x="928.56" y="1002.99" style="fill:none;stroke:#000000;stroke-linecap:round;stroke-linejoin:round;stroke-miterlimit:10;" width="9.57" height="15.87"></rect>
		
			<rect x="1098.74" y="1002.99" style="fill:none;stroke:#000000;stroke-linecap:round;stroke-linejoin:round;stroke-miterlimit:10;" width="9.57" height="15.87"></rect>
	</g>
	
		<line style="fill:none;stroke:#000000;stroke-linecap:round;stroke-linejoin:round;stroke-miterlimit:10;stroke-dasharray:10,10;" x1="671.27" y1="1026.87" x2="671.27" y2="819.45"></line>
	
		<line style="fill:none;stroke:#000000;stroke-linecap:round;stroke-linejoin:round;stroke-miterlimit:10;stroke-dasharray:10,10;" x1="918.58" y1="1565.99" x2="918.58" y2="1154.67"></line>
	
		<line style="fill:none;stroke:#000000;stroke-linecap:round;stroke-linejoin:round;stroke-miterlimit:10;stroke-dasharray:10,10;" x1="376.93" y1="813.52" x2="548.92" y2="813.52"></line>
	<g>
		<g id="LWPOLYLINE_450_">
			
				<rect x="679.87" y="703.77" style="fill:none;stroke:#000000;stroke-linecap:round;stroke-linejoin:round;stroke-miterlimit:10;" width="119.12" height="59.83"></rect>
		</g>
		<g id="LWPOLYLINE_449_">
			
				<line style="fill:none;stroke:#000000;stroke-linecap:round;stroke-linejoin:round;stroke-miterlimit:10;" x1="749.67" y1="732.87" x2="789.56" y2="732.87"></line>
		</g>
		<g id="LWPOLYLINE_448_">
			
				<line style="fill:none;stroke:#000000;stroke-linecap:round;stroke-linejoin:round;stroke-miterlimit:10;" x1="769.62" y1="752.81" x2="769.62" y2="712.92"></line>
		</g>
		<g id="CIRCLE_322_">
			<path style="fill:none;stroke:#000000;stroke-linecap:round;stroke-linejoin:round;stroke-miterlimit:10;" d="M769.62,716.91
				c8.81,0,15.96,7.14,15.96,15.96c0,8.81-7.14,15.96-15.96,15.96s-15.96-7.14-15.96-15.96
				C753.66,724.06,760.8,716.91,769.62,716.91L769.62,716.91z"></path>
		</g>
		<g id="LWPOLYLINE_447_">
			
				<line style="fill:none;stroke:#000000;stroke-linecap:round;stroke-linejoin:round;stroke-miterlimit:10;" x1="689.84" y1="732.87" x2="729.73" y2="732.87"></line>
		</g>
		<g id="LWPOLYLINE_446_">
			
				<line style="fill:none;stroke:#000000;stroke-linecap:round;stroke-linejoin:round;stroke-miterlimit:10;" x1="709.78" y1="752.81" x2="709.78" y2="712.92"></line>
		</g>
		<g id="CIRCLE_321_">
			<path style="fill:none;stroke:#000000;stroke-linecap:round;stroke-linejoin:round;stroke-miterlimit:10;" d="M709.78,716.91
				c8.82,0,15.96,7.15,15.96,15.96c0,8.82-7.15,15.96-15.96,15.96s-15.96-7.15-15.96-15.96
				C693.82,724.06,700.96,716.91,709.78,716.91L709.78,716.91z"></path>
		</g>
	</g>
	<g>
		<g id="LWPOLYLINE_445_">
			
				<rect x="679.32" y="440.57" style="fill:none;stroke:#000000;stroke-linecap:round;stroke-linejoin:round;stroke-miterlimit:10;" width="119.67" height="119.67"></rect>
		</g>
		<g id="LWPOLYLINE_444_">
			<path style="fill:none;stroke:#000000;stroke-linecap:round;stroke-linejoin:round;stroke-miterlimit:10;" d="M782.04,450.54
				l-75.74,0c-3.86,0-6.98,3.12-6.98,6.98c0,0,0,85.77,0,85.77c0,3.86,3.12,6.98,6.98,6.98c0,0,75.74,0,75.74,0
				c3.85,0,6.98-3.12,6.98-6.98c0,0,0-85.77,0-85.77C789.01,453.67,785.89,450.55,782.04,450.54z"></path>
		</g>
		<g id="LWPOLYLINE_443_">
			<path style="fill:none;stroke:#000000;stroke-linecap:round;stroke-linejoin:round;stroke-miterlimit:10;" d="M725.71,480.46
				c0-3.86-3.13-7-7-7c-3.86,0-7,3.13-7,7c0,3.86,3.13,7,7,7C722.57,487.46,725.71,484.33,725.71,480.46z"></path>
		</g>
	</g>
	<g id="_x31_2">
		
			<rect x="1545.84" y="1493.63" transform="matrix(-1 -3.514357e-11 3.514357e-11 -1 3151.5137 3100.9377)" width="59.83" height="113.68"></rect>
		
			<rect x="1545.84" y="1073.79" transform="matrix(-1 -3.721080e-11 3.721080e-11 -1 3151.5137 2267.969)" width="59.83" height="120.38"></rect>
		
			<rect x="259.42" y="1040.89" transform="matrix(-1 -2.163679e-10 2.163679e-10 -1 564.7091 2617.9636)" width="45.87" height="536.19"></rect>
		
			<rect x="257.42" y="392.69" transform="matrix(-1 -1.876700e-10 1.876700e-10 -1 558.7258 1230.1415)" width="43.88" height="444.76"></rect>
		
			<rect x="292.6" y="1100.74" transform="matrix(-1 -2.964341e-10 2.964341e-10 -1 614.9474 2677.8203)" width="29.74" height="476.33"></rect>
		
			<rect x="387.61" y="1008.23" transform="matrix(1.983854e-10 -1 1 1.983854e-10 -707.1246 1500.1913)" width="17.84" height="190.85"></rect>
		
			<rect x="476.76" y="1370.43" transform="matrix(3.577761e-10 -1 1 3.577761e-10 -1066.6262 2039.0944)" width="18.94" height="364.87"></rect>
		<rect x="661.4" y="1393.8" width="17.85" height="172.18"></rect>
		<rect x="661.4" y="1094.74" width="17.85" height="139.51"></rect>
		
			<rect x="891.66" y="927.2" transform="matrix(6.123234e-17 -1 1 6.123234e-17 -667.7841 2498.9705)" width="47.87" height="1312.35"></rect>
		
			<rect x="651.43" y="1094.74" transform="matrix(-1.836970e-16 1 -1 -1.836970e-16 1764.0148 443.3085)" width="17.85" height="17.85"></rect>
		
			<rect x="631.63" y="1053" transform="matrix(-1.836970e-16 1 -1 -1.836970e-16 1732.2534 389.309)" width="79.68" height="15.56"></rect>
		
			<rect x="783.75" y="1032.32" transform="matrix(-1.836970e-16 1 -1 -1.836970e-16 1940.3119 356.8615)" width="15.96" height="232.53"></rect>
		
			<rect x="907.62" y="998.01" transform="matrix(-1.836970e-16 1 -1 -1.836970e-16 1926.5626 95.3764)" width="15.96" height="25.93"></rect>
		
			<rect x="1244.1" y="866.94" transform="matrix(-1.836970e-16 1 -1 -1.836970e-16 2263.0518 -241.1128)" width="15.96" height="288.05"></rect>
		
			<rect x="840.38" y="1078.36" transform="matrix(-1.836970e-16 1 -1 -1.836970e-16 1996.9419 175.7278)" width="140.46" height="15.96"></rect>
		
			<rect x="1456.15" y="937.23" transform="matrix(-1.836970e-16 1 -1 -1.836970e-16 2503.0151 -453.1538)" width="43.88" height="175.4"></rect>
		
			<rect x="941.4" y="-262.61" transform="matrix(-1.836970e-16 1 -1 -1.836970e-16 1381.9551 -548.7097)" width="47.87" height="1358.47"></rect>
		
			<rect x="1581.96" y="966.87" transform="matrix(-1.836970e-16 1 -1 -1.836970e-16 2692.6572 -578.9733)" width="107.7" height="179.95"></rect>
		
			<rect x="1631.6" y="392.69" transform="matrix(-1 -1.224647e-16 1.224647e-16 -1 3356.9421 933.2965)" width="93.74" height="147.92"></rect>
		
			<rect x="1644.25" y="991.53" transform="matrix(-0.3584 0.9336 -0.9336 -0.3584 3284.1582 -180.4471)" width="119.67" height="93.46"></rect>
		<polygon points="1768.89,745.3 1791.07,688.95 1900.09,667.91 1856.75,779.03 		"></polygon>
		<polygon points="1791.07,688.95 1834.21,733.5 1900.09,667.91 1852.06,623.45 		"></polygon>
		<polygon points="1631.6,540.61 1702.9,606.86 1764.23,541.3 1716.2,496.84 		"></polygon>
		
			<rect x="217.69" y="509.3" transform="matrix(-1.836970e-16 1 -1 -1.836970e-16 814.5892 216.3744)" width="162.83" height="12.37"></rect>
		
			<rect x="330.52" y="767.94" transform="matrix(-1.836970e-16 1 -1 -1.836970e-16 1152.0165 475.0209)" width="15.96" height="91.15"></rect>
		
			<rect x="598.72" y="750.45" transform="matrix(-1.836970e-16 1 -1 -1.836970e-16 1420.217 206.8204)" width="15.96" height="126.14"></rect>
		
			<rect x="504.73" y="467.49" transform="matrix(-1.836970e-16 1 -1 -1.836970e-16 1011.1025 -68.1621)" width="69.81" height="7.96"></rect>
		
			<rect x="598.97" y="440.06" transform="matrix(-1.836970e-16 1 -1 -1.836970e-16 1105.3495 -100.5757)" width="7.98" height="124.65"></rect>
		
			<rect x="477.92" y="620.17" transform="matrix(-1.836970e-16 1 -1 -1.836970e-16 1299.421 -43.1113)" width="386.68" height="15.97"></rect>
		
			<rect x="287.02" y="1179.97" transform="matrix(-1.836970e-16 1 -1 -1.836970e-16 1551.1818 822.8279)" width="154.32" height="14.06"></rect>
		
			<rect x="332.11" y="1236.49" transform="matrix(-1.836970e-16 1 -1 -1.836970e-16 1596.277 918.2388)" width="13.81" height="41.53"></rect>
	</g>
</g>
</svg>
