<?xml version="1.0" encoding="utf-8"?>
<!-- Generator: Adobe Illustrator 24.1.2, SVG Export Plug-In . SVG Version: 6.00 Build 0)  -->
<svg version="1.0" id="Layer_1" xmlns="http://www.w3.org/2000/svg" xmlns:xlink="http://www.w3.org/1999/xlink" x="0px" y="0px" width="2000px" height="2000px" viewBox="0 0 2000 2000" style="enable-background:new 0 0 2000 2000;" xml:space="preserve">
<path id="background" style="fill:#FFFFFF;" d="M1900,904.36v190.57h0c0.28,0,0.5,0.22,0.5,0.5v386.19c0,0.28-0.22,0.5-0.5,0.5h0
	v101.85v49.19v2.01H268.58v-51.2v0v-450.2h27.11c-0.01-0.04-0.02-0.07-0.02-0.11v-11.25C187.31,1121.28,99.5,1033.25,99.5,925.2
	c0-0.28,0.22-0.5,0.5-0.5h195.67v-11.22v0h-27.09V416.03v-48.99v-2.21h1560.84H1900v51.2v101.14h0c0.28,0,0.5,0.22,0.5,0.5v386.19
	C1900.5,904.13,1900.28,904.36,1900,904.36L1900,904.36z"></path>
<g id="h1">
	<path id="h1_path" style="fill:none;" d="M617.63,1184.03l-313.17,0V1033.4h0V814.96h448.08l0.03,369.07H617.65L617.63,1184.03z
		"></path>
	<text id="h1_text" transform="matrix(1 0 0 1 420.972 1030.1108)" style="font-family: GraphikLCG-Regular; font-size: 40px; text-anchor: middle; text-align: center;"></text>
</g>
<g id="s1">
	<path id="s1_path" style="fill:none;" d="M317.64,814.85V419.2h489.97v395.65H317.64z"></path>
	<text id="s1_text" transform="matrix(1 0 0 1 575.9219 665.312)" style="font-family: GraphikLCG-Regular; font-size: 40px; text-anchor: middle; text-align: center;"></text>
</g>
<g id="g2">
	<path id="g2_path" style="fill:none;" d="M307.58,1598.39v-416.13h444.99v416.13H307.58z"></path>
	<text id="g2_text" transform="matrix(1 0 0 1 502.9777 1361.8511)" style="font-family: GraphikLCG-Regular; font-size: 40px; text-anchor: middle; text-align: center;"></text>
</g>
<g id="g1">
	<path id="g1_path" style="fill:none;" d="M807.81,812.78V403.22h366.48v409.55H807.81z"></path>
	<text id="g1_text" transform="matrix(1 0 0 1 1015.1516 665.312)" style="font-family: GraphikLCG-Regular; font-size: 40px; text-anchor: middle; text-align: center;"></text>
</g>
<g id="r1">
	<path id="r1_path" style="fill:none;" d="M1854.56,397.67v599.4h-680.17l-0.11-225.01h0.08v-374.4H1854.56z"></path>
	<text id="r1_text" transform="matrix(1 0 0 1 1257.6172 665.312)" style="font-family: GraphikLCG-Regular; font-size: 40px; text-anchor: middle; text-align: center;"></text>
</g>
<g id="c1">
	<path id="c1_path" style="fill:none;" d="M752.57,1608.25l0-788.66h413.84v179.15h680.24v609.51H752.57z"></path>
	<text id="c1_text" transform="matrix(1 0 0 1 1004.0105 1134.687)" style="font-family: GraphikLCG-Regular; font-size: 40px; text-anchor: middle; text-align: center;"></text>
</g>
<path id="u7" style="fill:#FFFFFF;stroke:#FFFFFF;stroke-linecap:round;stroke-linejoin:round;stroke-miterlimit:10;" d="
	M953.77,1341.6c-8.15,0-14.75-6.61-14.75-14.75c0-8.15,6.61-14.75,14.75-14.75s14.75,6.61,14.75,14.75
	C968.53,1335,961.92,1341.6,953.77,1341.6z"></path>
<path id="u3" style="fill:#FFFFFF;stroke:#FFFFFF;stroke-linecap:round;stroke-linejoin:round;stroke-miterlimit:10;" d="
	M576.37,1507.21c-8.15,0-14.75-6.61-14.75-14.75s6.61-14.75,14.75-14.75c8.15,0,14.75,6.61,14.75,14.75
	S584.52,1507.21,576.37,1507.21z"></path>
<path id="u1" style="fill:#FFFFFF;stroke:#FFFFFF;stroke-linecap:round;stroke-linejoin:round;stroke-miterlimit:10;" d="
	M1298.04,575.83c-8.15,0-14.75-6.61-14.75-14.75c0-8.15,6.61-14.75,14.75-14.75c8.15,0,14.75,6.61,14.75,14.75
	C1312.79,569.22,1306.19,575.83,1298.04,575.83z"></path>
<g id="mebel">
	<g>
		<g>
			<path style="fill:none;stroke:#000000;stroke-linecap:round;stroke-linejoin:round;stroke-miterlimit:10;" d="M1552.77,1539.41
				h-211.1c-0.7,0-1.27-0.57-1.27-1.27v-138.57c0-0.7,0.57-1.27,1.27-1.27h211.1c0.7,0,1.27,0.57,1.27,1.27v138.57
				C1554.04,1538.85,1553.47,1539.41,1552.77,1539.41z"></path>
			<path style="fill:none;stroke:#000000;stroke-linecap:round;stroke-linejoin:round;stroke-miterlimit:10;" d="M1552.77,1539.41
				h-211.1c-0.7,0-1.27,0.57-1.27,1.27v41.82c0,0.7,0.57,1.27,1.27,1.27h211.1c0.7,0,1.27-0.57,1.27-1.27v-41.82
				C1554.04,1539.98,1553.47,1539.41,1552.77,1539.41z"></path>
			<path style="fill:none;stroke:#000000;stroke-linecap:round;stroke-linejoin:round;stroke-miterlimit:10;" d="M1555.31,1539.41
				h210.55c0.7,0,1.27-0.57,1.27-1.27v-138.57c0-0.7-0.57-1.27-1.27-1.27h-210.55c-0.7,0-1.27,0.57-1.27,1.27v138.57
				C1554.04,1538.85,1554.6,1539.41,1555.31,1539.41z"></path>
			<path style="fill:none;stroke:#000000;stroke-linecap:round;stroke-linejoin:round;stroke-miterlimit:10;" d="M1555.31,1539.41
				h210.55c0.7,0,1.27,0.57,1.27,1.27v41.82c0,0.7-0.57,1.27-1.27,1.27h-210.55c-0.7,0-1.27-0.57-1.27-1.27v-41.82
				C1554.04,1539.98,1554.6,1539.41,1555.31,1539.41z"></path>
		</g>
		<g>
			<path style="fill:none;stroke:#000000;stroke-linecap:round;stroke-linejoin:round;stroke-miterlimit:10;" d="M1661.28,1465.44
				c7.06,11.44,12.27,23.93,15.44,36.99l1.47,6.08c0.66,2.72,3.78,4,6.16,2.53l5.32-3.28c9.02-5.56,18.47-10.38,28.23-14.42
				c0.72,8.81,2.03,17.58,4.05,26.22l0,0.02c1.12,4.77-2.75,9.25-7.64,8.83l-0.02,0c-18.75-1.6-37.64-0.23-55.97,4.06l-0.02,0
				c-4.77,1.12-9.25-2.75-8.83-7.64l0-0.02c1.6-18.75,0.23-37.64-4.06-55.97l0-0.02c-1.12-4.77,2.75-9.25,7.64-8.83l0.02,0
				c1.65,0.14,3.31,0.13,4.97,0.23L1661.28,1465.44z"></path>
			<path style="fill:none;stroke:#000000;stroke-linecap:round;stroke-linejoin:round;stroke-miterlimit:10;" d="M1729.46,1425.19
				l-5.32,3.28c-17.79,10.97-37.2,19.07-57.52,24l-6.08,1.47c-2.72,0.66-4,3.78-2.53,6.16l3.28,5.32
				c7.06,11.44,12.27,23.93,15.44,36.99l1.47,6.08c0.66,2.72,3.78,4,6.16,2.53l5.32-3.28c17.79-10.97,37.2-19.07,57.52-24l6.08-1.47
				c2.72-0.66,4-3.78,2.53-6.16l-3.28-5.32c-7.06-11.44-12.27-23.93-15.44-36.99l-1.47-6.08
				C1734.96,1425.01,1731.84,1423.73,1729.46,1425.19z"></path>
		</g>
		<g>
			<path style="fill:none;stroke:#000000;stroke-linecap:round;stroke-linejoin:round;stroke-miterlimit:10;" d="M1461.66,1460.98
				l0,0.02c-4.28,18.33-5.65,37.22-4.06,55.97l0,0.02c0.42,4.89-4.06,8.75-8.83,7.64l-0.02,0c-18.33-4.28-37.21-5.65-55.97-4.06
				l-0.02,0c-4.89,0.42-8.75-4.06-7.64-8.83l0-0.02c2.02-8.64,3.34-17.41,4.05-26.22c9.76,4.05,19.21,8.86,28.23,14.42l5.32,3.28
				c2.38,1.47,5.5,0.19,6.16-2.53l1.48-6.08c3.17-13.07,8.38-25.55,15.44-36.99l3.22-5.22c1.66-0.09,3.32-0.09,4.97-0.23l0.02,0
				C1458.91,1451.73,1462.78,1456.21,1461.66,1460.98z"></path>
			<path style="fill:none;stroke:#000000;stroke-linecap:round;stroke-linejoin:round;stroke-miterlimit:10;" d="M1377.64,1417.35
				l5.32,3.28c17.79,10.97,37.2,19.07,57.52,24l6.08,1.47c2.72,0.66,4,3.78,2.53,6.16l-3.28,5.32
				c-7.06,11.44-12.27,23.93-15.44,36.99l-1.47,6.08c-0.66,2.72-3.78,4-6.16,2.53l-5.32-3.28c-17.79-10.97-37.2-19.07-57.52-24
				l-6.08-1.47c-2.72-0.66-4-3.78-2.53-6.16l3.28-5.32c7.06-11.44,12.27-23.93,15.44-36.99l1.47-6.08
				C1372.14,1417.16,1375.26,1415.88,1377.64,1417.35z"></path>
		</g>
	</g>
	<g>
		<g>
			<g>
				
					<rect x="1548.05" y="904.03" transform="matrix(-5.131758e-05 -1 1 -5.131758e-05 527.8319 2582.6147)" style="fill:none;stroke:#000000;stroke-linecap:round;stroke-linejoin:round;stroke-miterlimit:10;" width="14.21" height="246.75"></rect>
				<polygon style="fill:none;stroke:#000000;stroke-linecap:round;stroke-linejoin:round;stroke-miterlimit:10;" points="
					1652.86,1006.09 1678.53,1020.29 1431.78,1020.31 1457.45,1006.1 				"></polygon>
			</g>
		</g>
		<g>
			
				<rect x="1521.96" y="895.23" transform="matrix(3.961617e-05 1 -1 3.961617e-05 2592.1448 -515.9058)" style="fill:none;stroke:#000000;stroke-linecap:round;stroke-linejoin:round;stroke-miterlimit:10;" width="64.15" height="285.88"></rect>
		</g>
	</g>
	<g>
		<g>
			<g>
				
					<rect x="1543.23" y="845.48" transform="matrix(-5.131763e-05 1 -1 -5.131763e-05 2519.2712 -581.4277)" style="fill:none;stroke:#000000;stroke-linecap:round;stroke-linejoin:round;stroke-miterlimit:10;" width="14.21" height="246.75"></rect>
				<polygon style="fill:none;stroke:#000000;stroke-linecap:round;stroke-linejoin:round;stroke-miterlimit:10;" points="
					1648.04,990.18 1673.71,975.97 1426.96,975.96 1452.63,990.17 				"></polygon>
			</g>
		</g>
	</g>
	<g>
		<g>
			<g>
				<g>
					
						<rect x="1339.11" y="415.75" style="fill:none;stroke:#000000;stroke-linecap:round;stroke-linejoin:round;stroke-miterlimit:10;" width="336.6" height="14.93"></rect>
					
						<rect x="1339.11" y="430.68" style="fill:none;stroke:#000000;stroke-linecap:round;stroke-linejoin:round;stroke-miterlimit:10;" width="336.6" height="426.93"></rect>
					<path style="fill:none;stroke:#000000;stroke-linecap:round;stroke-linejoin:round;stroke-miterlimit:10;" d="M1501.08,507.48
						l12.67,0v-36.76c0-10.99,8.91-19.91,19.91-19.91l94.56,0c10.99,0,19.91,8.91,19.91,19.91l0,36.76l12.67,0l0-64.36
						c0-2.75-2.23-4.98-4.98-4.98l-296.78,0c-2.75,0-4.98,2.23-4.98,4.98l0,64.36l12.67,0l0-36.76c0-10.99,8.91-19.91,19.91-19.91
						l94.56,0c10.99,0,19.91,8.91,19.91,19.91L1501.08,507.48z"></path>
					<path style="fill:none;stroke:#000000;stroke-linecap:round;stroke-linejoin:round;stroke-miterlimit:10;" d="M1355.5,845.17
						l303.83,0c0.8,0,1.45-0.65,1.45-1.45l0-336.24l-306.74,0l0,336.24C1354.05,844.52,1354.7,845.17,1355.5,845.17z"></path>
				</g>
			</g>
			
				<rect x="1667.31" y="424.15" transform="matrix(-5.026774e-07 -1 1 -5.026774e-07 1251.5645 2184.062)" style="fill:none;stroke:#000000;stroke-linecap:round;stroke-linejoin:round;stroke-miterlimit:10;" width="101" height="84.2"></rect>
			
				<rect x="1246.51" y="424.15" transform="matrix(-5.026774e-07 -1 1 -5.026774e-07 830.7643 1763.2626)" style="fill:none;stroke:#000000;stroke-linecap:round;stroke-linejoin:round;stroke-miterlimit:10;" width="101" height="84.2"></rect>
		</g>
		<g>
			<g>
				
					<circle style="fill:#FFFFFF;stroke:#000000;stroke-linecap:round;stroke-linejoin:round;stroke-miterlimit:10;" cx="1294.96" cy="465.31" r="31.5"></circle>
				
					<circle style="fill:#FFFFFF;stroke:#000000;stroke-linecap:round;stroke-linejoin:round;stroke-miterlimit:10;" cx="1294.96" cy="465.31" r="11.24"></circle>
			</g>
			
				<line style="fill:#FFFFFF;stroke:#000000;stroke-linecap:round;stroke-linejoin:round;stroke-miterlimit:10;" x1="1294.96" y1="454.08" x2="1294.96" y2="476.55"></line>
			
				<line style="fill:#FFFFFF;stroke:#000000;stroke-linecap:round;stroke-linejoin:round;stroke-miterlimit:10;" x1="1306.2" y1="465.31" x2="1283.73" y2="465.31"></line>
		</g>
		<g>
			<g>
				
					<circle style="fill:#FFFFFF;stroke:#000000;stroke-linecap:round;stroke-linejoin:round;stroke-miterlimit:10;" cx="1722.29" cy="465.31" r="31.5"></circle>
				
					<circle style="fill:#FFFFFF;stroke:#000000;stroke-linecap:round;stroke-linejoin:round;stroke-miterlimit:10;" cx="1722.29" cy="465.31" r="11.24"></circle>
			</g>
			
				<line style="fill:#FFFFFF;stroke:#000000;stroke-linecap:round;stroke-linejoin:round;stroke-miterlimit:10;" x1="1722.29" y1="454.08" x2="1722.29" y2="476.55"></line>
			
				<line style="fill:#FFFFFF;stroke:#000000;stroke-linecap:round;stroke-linejoin:round;stroke-miterlimit:10;" x1="1733.53" y1="465.31" x2="1711.06" y2="465.31"></line>
		</g>
	</g>
	<g>
		<polygon style="fill:none;stroke:#000000;stroke-linecap:round;stroke-linejoin:round;stroke-miterlimit:10;" points="
			889.02,1359.29 889.02,1456.03 761.38,1456.03 761.36,1359.29 		"></polygon>
		<path style="fill:none;stroke:#000000;stroke-linecap:round;stroke-linejoin:round;stroke-miterlimit:10;" d="M797.99,1407.66
			l30.98,12.12c1.9,0.66,3.98,1.02,6.17,1.02c8.79,0,15.92-5.88,15.92-13.14c0-7.26-7.13-13.14-15.92-13.14
			c-2.19,0-4.27,0.37-6.17,1.02L797.99,1407.66z"></path>
	</g>
	<g>
		<polygon style="fill:none;stroke:#000000;stroke-linecap:round;stroke-linejoin:round;stroke-miterlimit:10;" points="
			1158.52,828.26 1158.52,955.92 1030.88,955.92 1030.86,828.26 		"></polygon>
		<g>
			
				<line style="fill:none;stroke:#000000;stroke-linecap:round;stroke-linejoin:round;stroke-miterlimit:10;" x1="1063.96" y1="892.09" x2="1125.42" y2="892.09"></line>
			
				<line style="fill:none;stroke:#000000;stroke-linecap:round;stroke-linejoin:round;stroke-miterlimit:10;" x1="1094.69" y1="861.36" x2="1094.69" y2="922.82"></line>
			<polyline style="fill:none;stroke:#000000;stroke-linecap:round;stroke-linejoin:round;stroke-miterlimit:10;" points="
				1070.79,876.72 1079.33,892.09 1070.79,907.45 			"></polyline>
			<polyline style="fill:none;stroke:#000000;stroke-linecap:round;stroke-linejoin:round;stroke-miterlimit:10;" points="
				1079.33,915.99 1094.69,907.45 1110.06,915.99 			"></polyline>
			<polyline style="fill:none;stroke:#000000;stroke-linecap:round;stroke-linejoin:round;stroke-miterlimit:10;" points="
				1118.6,907.45 1110.06,892.09 1118.6,876.72 			"></polyline>
			<polyline style="fill:none;stroke:#000000;stroke-linecap:round;stroke-linejoin:round;stroke-miterlimit:10;" points="
				1110.06,868.18 1094.69,876.72 1079.33,868.18 			"></polyline>
		</g>
	</g>
	<g>
		<g>
			
				<rect x="817.66" y="415.8" style="fill:none;stroke:#000000;stroke-linecap:round;stroke-linejoin:round;stroke-miterlimit:10;" width="356.62" height="130.52"></rect>
			
				<line style="fill:none;stroke:#000000;stroke-linecap:round;stroke-linejoin:round;stroke-miterlimit:10;" x1="1174.28" y1="539.01" x2="817.68" y2="539.09"></line>
		</g>
		
			<line style="fill:none;stroke:#000000;stroke-linecap:round;stroke-linejoin:round;stroke-miterlimit:10;" x1="936" y1="546.32" x2="936" y2="415.8"></line>
		
			<line style="fill:none;stroke:#000000;stroke-linecap:round;stroke-linejoin:round;stroke-miterlimit:10;" x1="1054.33" y1="546.32" x2="1054.33" y2="415.8"></line>
	</g>
	<g>
		<g>
			
				<rect x="313.59" y="1192.59" style="fill:none;stroke:#000000;stroke-linecap:round;stroke-linejoin:round;stroke-miterlimit:10;" width="130.52" height="320.77"></rect>
			
				<line style="fill:none;stroke:#000000;stroke-linecap:round;stroke-linejoin:round;stroke-miterlimit:10;" x1="436.8" y1="1192.59" x2="436.88" y2="1513.34"></line>
		</g>
		
			<line style="fill:none;stroke:#000000;stroke-linecap:round;stroke-linejoin:round;stroke-miterlimit:10;" x1="444.11" y1="1406.91" x2="313.59" y2="1406.91"></line>
		
			<line style="fill:none;stroke:#000000;stroke-linecap:round;stroke-linejoin:round;stroke-miterlimit:10;" x1="444.11" y1="1300.47" x2="313.59" y2="1300.47"></line>
	</g>
	<g>
		<g>
			<g>
				<path style="fill:none;stroke:#000000;stroke-linecap:round;stroke-linejoin:round;stroke-miterlimit:10;" d="M1246.01,1458.52
					l15.99,24.26c10,15.18,7,35.46-6.98,47.08l-1.59,1.32c-13.97,11.62-34.44,10.88-47.54-1.7l-20.98-20.16L1246.01,1458.52z"></path>
				<path style="fill:none;stroke:#000000;stroke-linecap:round;stroke-linejoin:round;stroke-miterlimit:10;" d="M1194.22,1532.58
					l4.63,4.45c16.78,16.12,42.99,17.06,60.88,2.18l2.03-1.69c17.9-14.89,21.75-40.85,8.94-60.29l-3.51-5.32
					c-1.69-2.57-5.25-3.1-7.61-1.13v0c-2.02,1.68-2.46,4.62-1.01,6.81l3.42,5.2c10,15.18,7,35.46-6.98,47.08l-1.59,1.32
					c-13.97,11.62-34.44,10.88-47.54-1.7l-4.52-4.34c-1.89-1.82-4.85-1.93-6.87-0.25l0,0
					C1192.13,1526.87,1192,1530.45,1194.22,1532.58z"></path>
			</g>
			<g>
				<path style="fill:none;stroke:#000000;stroke-linecap:round;stroke-linejoin:round;stroke-miterlimit:10;" d="M1072.2,1373.73
					l-15.99-24.27c-10-15.18-7-35.46,6.98-47.08l1.59-1.32c13.97-11.62,34.44-10.88,47.54,1.7l20.98,20.16L1072.2,1373.73z"></path>
				<path style="fill:none;stroke:#000000;stroke-linecap:round;stroke-linejoin:round;stroke-miterlimit:10;" d="M1123.99,1299.67
					l-4.63-4.45c-16.78-16.12-42.99-17.06-60.88-2.18l-2.03,1.69c-17.9,14.88-21.75,40.85-8.94,60.29l3.51,5.32
					c1.69,2.57,5.25,3.1,7.61,1.13l0,0c2.02-1.68,2.46-4.62,1.01-6.81l-3.42-5.2c-10-15.18-7-35.46,6.98-47.08l1.59-1.32
					c13.97-11.62,34.44-10.88,47.54,1.7l4.52,4.34c1.89,1.82,4.85,1.93,6.87,0.25l0,0
					C1126.08,1305.38,1126.21,1301.8,1123.99,1299.67z"></path>
			</g>
			<g>
				<path style="fill:none;stroke:#000000;stroke-linecap:round;stroke-linejoin:round;stroke-miterlimit:10;" d="M1201.51,1329.22
					l24.26-15.99c15.18-10,35.46-7,47.08,6.98l1.32,1.59c11.62,13.97,10.88,34.44-1.7,47.54l-20.16,20.98L1201.51,1329.22z"></path>
				<path style="fill:none;stroke:#000000;stroke-linecap:round;stroke-linejoin:round;stroke-miterlimit:10;" d="M1275.57,1381.01
					l4.45-4.63c16.12-16.78,17.06-42.99,2.18-60.88l-1.69-2.03c-14.89-17.9-40.85-21.75-60.29-8.94l-5.32,3.51
					c-2.57,1.69-3.1,5.25-1.13,7.61l0,0c1.68,2.02,4.62,2.46,6.81,1.01l5.2-3.42c15.18-10,35.46-7,47.08,6.98l1.32,1.59
					c11.62,13.97,10.88,34.44-1.7,47.54l-4.34,4.52c-1.82,1.89-1.93,4.85-0.25,6.87l0,0
					C1269.85,1383.1,1273.43,1383.23,1275.57,1381.01z"></path>
			</g>
			<g>
				<path style="fill:none;stroke:#000000;stroke-linecap:round;stroke-linejoin:round;stroke-miterlimit:10;" d="M1116.71,1503.03
					l-24.27,15.99c-15.18,10-35.46,7-47.08-6.98l-1.32-1.59c-11.61-13.97-10.88-34.44,1.7-47.54l20.16-20.98L1116.71,1503.03z"></path>
				<path style="fill:none;stroke:#000000;stroke-linecap:round;stroke-linejoin:round;stroke-miterlimit:10;" d="M1042.65,1451.24
					l-4.45,4.63c-16.12,16.78-17.06,42.99-2.18,60.88l1.69,2.03c14.88,17.9,40.85,21.75,60.29,8.94l5.32-3.51
					c2.57-1.69,3.1-5.25,1.13-7.61l0,0c-1.68-2.02-4.62-2.46-6.81-1.01l-5.2,3.42c-15.18,10-35.46,7-47.08-6.98l-1.32-1.59
					c-11.61-13.97-10.88-34.44,1.7-47.54l4.34-4.52c1.82-1.89,1.93-4.85,0.25-6.87l0,0
					C1048.37,1449.15,1044.78,1449.02,1042.65,1451.24z"></path>
			</g>
			
				<circle style="fill:#FFFFFF;stroke:#000000;stroke-linecap:round;stroke-linejoin:round;stroke-miterlimit:10;" cx="1158.79" cy="1415.74" r="97.29"></circle>
		</g>
		<g>
			<g>
				
					<circle style="fill:none;stroke:#000000;stroke-linecap:round;stroke-linejoin:round;stroke-miterlimit:10;" cx="1122.17" cy="1363.54" r="17.72"></circle>
			</g>
			<g>
				
					<circle style="fill:none;stroke:#000000;stroke-linecap:round;stroke-linejoin:round;stroke-miterlimit:10;" cx="1122.17" cy="1363.54" r="10.09"></circle>
			</g>
			<g>
				
					<ellipse transform="matrix(0.7706 -0.6373 0.6373 0.7706 -635.275 1022.261)" style="fill:none;stroke:#000000;stroke-linecap:round;stroke-linejoin:round;stroke-miterlimit:10;" cx="1102.45" cy="1393.63" rx="2.75" ry="4.46"></ellipse>
				
					<line style="fill:none;stroke:#000000;stroke-linecap:round;stroke-linejoin:round;stroke-miterlimit:10;" x1="1099.61" y1="1390.19" x2="1087.17" y2="1375.15"></line>
			</g>
			<g>
				<path style="fill:none;stroke:#000000;stroke-linecap:round;stroke-linejoin:round;stroke-miterlimit:10;" d="M1154.08,1356.73
					l-2.84-3.44c-1.57-1.9-3.79-2.65-4.96-1.69c-1.17,0.97-0.84,3.29,0.73,5.19l2.84,3.44"></path>
				
					<line style="fill:none;stroke:#000000;stroke-linecap:round;stroke-linejoin:round;stroke-miterlimit:10;" x1="1146.27" y1="1351.6" x2="1133.83" y2="1336.56"></line>
			</g>
			
				<line style="fill:none;stroke:#000000;stroke-linecap:round;stroke-linejoin:round;stroke-miterlimit:10;" x1="1151.96" y1="1358.48" x2="1146.27" y2="1351.6"></line>
			<g>
				<path style="fill:none;stroke:#000000;stroke-linecap:round;stroke-linejoin:round;stroke-miterlimit:10;" d="M1099.98,1380.04
					l3.29-2.72l10.52,12.72l-2.32,1.92c-0.53,0.44-1.32,0.36-1.75-0.17L1099.98,1380.04z"></path>
				<path style="fill:none;stroke:#000000;stroke-linecap:round;stroke-linejoin:round;stroke-miterlimit:10;" d="M1092.86,1370.44
					l2.33-1.92c0.27-0.22,0.66-0.18,0.88,0.08l7.21,8.72l-3.29,2.72l-7.21-8.72C1092.56,1371.05,1092.59,1370.66,1092.86,1370.44z"></path>
			</g>
		</g>
		<g>
			<g>
				
					<circle style="fill:none;stroke:#000000;stroke-linecap:round;stroke-linejoin:round;stroke-miterlimit:10;" cx="1198.93" cy="1469" r="17.72"></circle>
			</g>
			<g>
				
					<circle style="fill:none;stroke:#000000;stroke-linecap:round;stroke-linejoin:round;stroke-miterlimit:10;" cx="1198.93" cy="1469" r="10.09"></circle>
			</g>
			<g>
				
					<ellipse transform="matrix(0.7706 -0.6373 0.6373 0.7706 -637.4658 1106.656)" style="fill:none;stroke:#000000;stroke-linecap:round;stroke-linejoin:round;stroke-miterlimit:10;" cx="1218.65" cy="1438.91" rx="2.75" ry="4.46"></ellipse>
				
					<line style="fill:none;stroke:#000000;stroke-linecap:round;stroke-linejoin:round;stroke-miterlimit:10;" x1="1221.5" y1="1442.35" x2="1233.94" y2="1457.39"></line>
			</g>
			<g>
				<path style="fill:none;stroke:#000000;stroke-linecap:round;stroke-linejoin:round;stroke-miterlimit:10;" d="M1167.03,1475.81
					l2.84,3.44c1.57,1.9,3.79,2.65,4.96,1.69c1.17-0.97,0.84-3.29-0.73-5.19l-2.84-3.44"></path>
				
					<line style="fill:none;stroke:#000000;stroke-linecap:round;stroke-linejoin:round;stroke-miterlimit:10;" x1="1174.83" y1="1480.94" x2="1187.27" y2="1495.98"></line>
			</g>
			
				<line style="fill:none;stroke:#000000;stroke-linecap:round;stroke-linejoin:round;stroke-miterlimit:10;" x1="1169.14" y1="1474.06" x2="1174.83" y2="1480.94"></line>
			<g>
				<path style="fill:none;stroke:#000000;stroke-linecap:round;stroke-linejoin:round;stroke-miterlimit:10;" d="M1221.12,1452.5
					l-3.29,2.72l-10.52-12.72l2.33-1.92c0.53-0.44,1.32-0.36,1.75,0.17L1221.12,1452.5z"></path>
				<path style="fill:none;stroke:#000000;stroke-linecap:round;stroke-linejoin:round;stroke-miterlimit:10;" d="M1228.25,1462.1
					l-2.33,1.92c-0.27,0.22-0.66,0.18-0.88-0.08l-7.21-8.72l3.29-2.72l7.21,8.72C1228.55,1461.49,1228.51,1461.88,1228.25,1462.1z"></path>
			</g>
		</g>
		<g>
			<g>
				
					<circle style="fill:none;stroke:#000000;stroke-linecap:round;stroke-linejoin:round;stroke-miterlimit:10;" cx="1107.82" cy="1454.65" r="17.72"></circle>
			</g>
			<g>
				
					<circle style="fill:none;stroke:#000000;stroke-linecap:round;stroke-linejoin:round;stroke-miterlimit:10;" cx="1107.82" cy="1454.65" r="10.09"></circle>
			</g>
			<g>
				
					<ellipse transform="matrix(0.7706 -0.6373 0.6373 0.7706 -678.5944 1063.3818)" style="fill:none;stroke:#000000;stroke-linecap:round;stroke-linejoin:round;stroke-miterlimit:10;" cx="1137.92" cy="1474.37" rx="4.46" ry="2.75"></ellipse>
				
					<line style="fill:none;stroke:#000000;stroke-linecap:round;stroke-linejoin:round;stroke-miterlimit:10;" x1="1134.48" y1="1477.21" x2="1119.43" y2="1489.66"></line>
			</g>
			<g>
				<path style="fill:none;stroke:#000000;stroke-linecap:round;stroke-linejoin:round;stroke-miterlimit:10;" d="M1101.01,1422.74
					l-3.44,2.84c-1.9,1.57-2.65,3.79-1.69,4.96s3.29,0.84,5.19-0.73l3.44-2.84"></path>
				
					<line style="fill:none;stroke:#000000;stroke-linecap:round;stroke-linejoin:round;stroke-miterlimit:10;" x1="1095.88" y1="1430.55" x2="1080.84" y2="1442.99"></line>
			</g>
			
				<line style="fill:none;stroke:#000000;stroke-linecap:round;stroke-linejoin:round;stroke-miterlimit:10;" x1="1102.76" y1="1424.86" x2="1095.88" y2="1430.55"></line>
			<g>
				<path style="fill:none;stroke:#000000;stroke-linecap:round;stroke-linejoin:round;stroke-miterlimit:10;" d="M1124.32,1476.84
					l-2.72-3.29l12.72-10.52l1.92,2.32c0.44,0.53,0.36,1.32-0.17,1.75L1124.32,1476.84z"></path>
				<path style="fill:none;stroke:#000000;stroke-linecap:round;stroke-linejoin:round;stroke-miterlimit:10;" d="M1114.72,1483.96
					l-1.92-2.33c-0.22-0.27-0.18-0.66,0.08-0.88l8.72-7.21l2.72,3.29l-8.72,7.21C1115.34,1484.27,1114.94,1484.23,1114.72,1483.96z"></path>
			</g>
		</g>
		<g>
			<g>
				
					<circle style="fill:none;stroke:#000000;stroke-linecap:round;stroke-linejoin:round;stroke-miterlimit:10;" cx="1213.28" cy="1377.89" r="17.72"></circle>
			</g>
			<g>
				
					<circle style="fill:none;stroke:#000000;stroke-linecap:round;stroke-linejoin:round;stroke-miterlimit:10;" cx="1213.28" cy="1377.89" r="10.09"></circle>
			</g>
			<g>
				
					<ellipse transform="matrix(0.7706 -0.6373 0.6373 0.7706 -594.1465 1065.537)" style="fill:none;stroke:#000000;stroke-linecap:round;stroke-linejoin:round;stroke-miterlimit:10;" cx="1183.19" cy="1358.17" rx="4.46" ry="2.75"></ellipse>
				
					<line style="fill:none;stroke:#000000;stroke-linecap:round;stroke-linejoin:round;stroke-miterlimit:10;" x1="1186.63" y1="1355.32" x2="1201.67" y2="1342.88"></line>
			</g>
			<g>
				<path style="fill:none;stroke:#000000;stroke-linecap:round;stroke-linejoin:round;stroke-miterlimit:10;" d="M1220.09,1409.79
					l3.44-2.84c1.9-1.57,2.65-3.79,1.69-4.96c-0.97-1.17-3.29-0.84-5.19,0.73l-3.44,2.84"></path>
				
					<line style="fill:none;stroke:#000000;stroke-linecap:round;stroke-linejoin:round;stroke-miterlimit:10;" x1="1225.22" y1="1401.99" x2="1240.27" y2="1389.55"></line>
			</g>
			
				<line style="fill:none;stroke:#000000;stroke-linecap:round;stroke-linejoin:round;stroke-miterlimit:10;" x1="1218.34" y1="1407.68" x2="1225.22" y2="1401.99"></line>
			<g>
				<path style="fill:none;stroke:#000000;stroke-linecap:round;stroke-linejoin:round;stroke-miterlimit:10;" d="M1196.79,1355.7
					l2.72,3.29l-12.72,10.52l-1.92-2.33c-0.44-0.53-0.36-1.32,0.17-1.75L1196.79,1355.7z"></path>
				<path style="fill:none;stroke:#000000;stroke-linecap:round;stroke-linejoin:round;stroke-miterlimit:10;" d="M1206.38,1348.57
					l1.92,2.33c0.22,0.27,0.18,0.66-0.08,0.88l-8.72,7.21l-2.72-3.29l8.72-7.21C1205.77,1348.27,1206.16,1348.31,1206.38,1348.57z"></path>
			</g>
		</g>
	</g>
	
		<rect x="797.4" y="1138.98" transform="matrix(-1.200100e-10 1 -1 -1.200100e-10 2028.0073 378.0784)" style="fill:none;stroke:#000000;stroke-linecap:round;stroke-linejoin:round;stroke-miterlimit:10;" width="55.13" height="128.12"></rect>
	
		<rect x="831.76" y="756.82" transform="matrix(-2.602827e-10 1 -1 -2.602827e-10 1787.6807 -4.1652)" style="fill:none;stroke:#000000;stroke-linecap:round;stroke-linejoin:round;stroke-miterlimit:10;" width="128.32" height="269.88"></rect>
	<g>
		<path style="fill:none;stroke:#000000;stroke-linecap:round;stroke-linejoin:round;stroke-miterlimit:10;" d="M1469.47,1286.05
			c0-9.84,0-44.4,0-54.25c0-10.07,8.68-15.22,19.45-16.9c43.93-6.12,88.57-6.12,132.51,0c10.77,1.68,19.44,6.83,19.45,16.9
			c0,9.84,0,44.41,0,54.25c0,10.07-8.67,15.22-19.45,16.9c-43.93,6.12-88.57,6.12-132.51,0
			C1478.15,1301.27,1469.47,1296.12,1469.47,1286.05z"></path>
		<g>
			<path style="fill:none;stroke:#000000;stroke-linecap:round;stroke-linejoin:round;stroke-miterlimit:10;" d="M1547.92,1274.02
				l56.81,19.06c0.47,0.16,0.99-0.1,1.15-0.57l12.83-38.24c0.16-0.47-0.1-0.99-0.57-1.15l-56.81-19.06
				c-0.47-0.16-0.99,0.1-1.15,0.57l-12.83,38.24C1547.19,1273.34,1547.45,1273.86,1547.92,1274.02z"></path>
			
				<rect x="1561.35" y="1247.09" transform="matrix(-0.948 -0.3181 0.3181 -0.948 2687.9031 2953.6179)" style="fill:none;stroke:#000000;stroke-linecap:round;stroke-linejoin:round;stroke-miterlimit:10;" width="47.53" height="20.5"></rect>
			
				<rect x="1569.42" y="1269.82" transform="matrix(-0.948 -0.3181 0.3181 -0.948 2670.1414 2987.2717)" style="fill:none;stroke:#000000;stroke-linecap:round;stroke-linejoin:round;stroke-miterlimit:10;" width="19.14" height="11.59"></rect>
			<path style="fill:none;stroke:#000000;stroke-linecap:round;stroke-linejoin:round;stroke-miterlimit:10;" d="M1560.47,1233.77
				l58.52,19.64l10.67-10.25c1.49-1.43,0.93-3.94-1.03-4.59l-66.89-22.45c-1.96-0.66-3.92,1-3.59,3.04L1560.47,1233.77z"></path>
		</g>
		<g>
			<path style="fill:none;stroke:#000000;stroke-linecap:round;stroke-linejoin:round;stroke-miterlimit:10;" d="M1477.79,1246.47
				l5.22-5.15c0.33,0.49,0.69,0.96,1.12,1.39c0.43,0.43,0.9,0.8,1.38,1.14l-5.22,5.15c-0.41,0.4-1.06,0.4-1.46-0.01l-1.05-1.07
				C1477.38,1247.53,1477.39,1246.87,1477.79,1246.47z"></path>
			
				<circle style="fill:none;stroke:#000000;stroke-linecap:round;stroke-linejoin:round;stroke-miterlimit:10;" cx="1491.26" cy="1235.69" r="10"></circle>
		</g>
		<g>
			<g>
				<g>
					
						<line style="fill:none;stroke:#000000;stroke-linecap:round;stroke-linejoin:round;stroke-miterlimit:10;" x1="1517.91" y1="1261.61" x2="1513.57" y2="1261.61"></line>
					
						<line style="fill:none;stroke:#000000;stroke-linecap:round;stroke-linejoin:round;stroke-miterlimit:10;" x1="1517.91" y1="1266.54" x2="1513.57" y2="1266.54"></line>
					
						<line style="fill:none;stroke:#000000;stroke-linecap:round;stroke-linejoin:round;stroke-miterlimit:10;" x1="1517.91" y1="1276.39" x2="1513.57" y2="1276.39"></line>
					
						<line style="fill:none;stroke:#000000;stroke-linecap:round;stroke-linejoin:round;stroke-miterlimit:10;" x1="1517.91" y1="1271.46" x2="1513.57" y2="1271.46"></line>
					
						<line style="fill:none;stroke:#000000;stroke-linecap:round;stroke-linejoin:round;stroke-miterlimit:10;" x1="1517.91" y1="1281.32" x2="1513.57" y2="1281.32"></line>
					
						<line style="fill:none;stroke:#000000;stroke-linecap:round;stroke-linejoin:round;stroke-miterlimit:10;" x1="1517.91" y1="1286.24" x2="1513.57" y2="1286.24"></line>
				</g>
				<g>
					
						<rect x="1515.86" y="1256.69" transform="matrix(-1 -1.224647e-16 1.224647e-16 -1 3058.6819 2547.8542)" style="fill:none;stroke:#000000;stroke-linecap:round;stroke-linejoin:round;stroke-miterlimit:10;" width="26.97" height="34.48"></rect>
				</g>
				<polygon style="fill:none;stroke:#000000;stroke-linecap:round;stroke-linejoin:round;stroke-miterlimit:10;" points="
					1515.86,1291.17 1488.89,1291.17 1488.89,1284.86 1499.44,1273.15 1500.17,1269.58 1496.7,1270.68 1488.89,1279.35 
					1488.89,1256.69 1515.86,1256.69 				"></polygon>
			</g>
			<path style="fill:none;stroke:#000000;stroke-linecap:round;stroke-linejoin:round;stroke-miterlimit:10;" d="M1478.1,1294.07
				L1478.1,1294.07c0.76,0.68,1.92,0.62,2.61-0.13l18.74-20.78l0.73-3.57l-3.47,1.1l-18.74,20.78
				C1477.28,1292.22,1477.34,1293.39,1478.1,1294.07z"></path>
		</g>
	</g>
	<g>
		<path style="fill:none;stroke:#000000;stroke-linecap:round;stroke-linejoin:round;stroke-miterlimit:10;" d="M1477.42,792.98
			c0.9-0.59,1.81-1.26,2.71-2.01c12.52-10.4,16-28.96,7.67-42.41c-0.96-1.56-0.42-3.61,1.18-4.5l0,0c1.48-0.83,3.36-0.37,4.29,1.05
			c9.39,14.38,6.6,33.94-6.89,45.06c-5.87,4.84-12.86,7.52-19.91,7.89l0,0c-10.38,0.52-20.88-3.68-28.04-12.29
			c-4.18-5.03-6.67-10.9-7.55-16.93c-0.87-6.03-0.32-12.5,1.8-18.45"></path>
		<path style="fill:none;stroke:#000000;stroke-linecap:round;stroke-linejoin:round;stroke-miterlimit:10;" d="M1455.22,744.51
			l1.31-3.72c0.69-1.96-0.46-4.1-2.48-4.6l0,0c-1.81-0.45-3.65,0.58-4.22,2.36l-0.2,0.62"></path>
		<path style="fill:none;stroke:#000000;stroke-linecap:round;stroke-linejoin:round;stroke-miterlimit:10;" d="M1452.95,744.84"></path>
		<path style="fill:none;stroke:#000000;stroke-linecap:round;stroke-linejoin:round;stroke-miterlimit:10;" d="M1449.26,741.04"></path>
		<path style="fill:none;stroke:#000000;stroke-linecap:round;stroke-linejoin:round;stroke-miterlimit:10;" d="M1452.68,768.12
			c5.94-3.51,14.12-2.12,18.35,3.07c-4.55-1.57-9.79-0.76-13.67,2.72c-1.16,1.04-2.1,2.24-2.82,3.54"></path>
		<path style="fill:none;stroke:#000000;stroke-linecap:round;stroke-linejoin:round;stroke-miterlimit:10;" d="M1438.15,757.88"></path>
		<path style="fill:none;stroke:#000000;stroke-linecap:round;stroke-linejoin:round;stroke-miterlimit:10;" d="M1442.22,771.94
			l9.52-3.42c-1.5,0.64,2.78-1.18,5.75-2.46c1.77-0.76,2.56-2.92,2.78-4.84l2.06-15.75c0.09-0.81-0.11-1.59-0.52-2.23
			c-0.54-0.84-1.44-1.44-2.51-1.56c-1.88-0.21-3.58,1.14-3.8,3.03"></path>
		<path style="fill:none;stroke:#000000;stroke-linecap:round;stroke-linejoin:round;stroke-miterlimit:10;" d="M1434.23,744.98
			c1.27-3.17,3.93-5.6,7.19-6.6l5.06-7.5c0.27-0.4,0.89-0.28,1,0.19l1.71,7.74c1.64,0.7,3.07,1.78,4.2,3.11
			c0.11,0.13,4.32,6.09,4.41,6.24c0.33,0.55,0.56,1.17,0.65,1.85c0.38,2.71-1.51,5.21-4.22,5.59c-0.06,0.01-0.11,0.01-0.17,0.02
			c-2.66,3.86-7.65,5.96-12.83,4.36c-3.8-1.17-6.76-4.44-7.55-8.33"></path>
		
			<line style="fill:none;stroke:#000000;stroke-linecap:round;stroke-linejoin:round;stroke-miterlimit:10;" x1="1451.3" y1="752.02" x2="1448.3" y2="753.8"></line>
		<polygon style="fill:none;stroke:#000000;stroke-linecap:round;stroke-linejoin:round;stroke-miterlimit:10;" points="
			1454.29,752.17 1457,751.47 1456.3,748.75 		"></polygon>
		<path style="fill:none;stroke:#000000;stroke-linecap:round;stroke-linejoin:round;stroke-miterlimit:10;" d="M1438.6,754.83
			c-2.91-1.64-6.64-4.73-8.85-7.74c-0.37-0.51,0.03-1.18,0.63-1.34c1.23-0.33,5.83-1.14,9.82-0.78c0,0-0.59-0.09,0,0"></path>
		<path style="fill:none;stroke:#000000;stroke-linecap:round;stroke-linejoin:round;stroke-miterlimit:10;" d="M1482.12,765.68
			l-3.79,11.35c-0.35-0.58-0.75-1.15-1.2-1.68c-0.87-1.04-1.89-1.87-2.96-2.58l4.58-8.76c0.84-1.6,2.78-2.26,4.41-1.5v0
			c0.5,0.23,0.88,0.59,1.2,0.99C1483.34,763.82,1482.48,764.6,1482.12,765.68z"></path>
		<path style="fill:none;stroke:#000000;stroke-linecap:round;stroke-linejoin:round;stroke-miterlimit:10;" d="M1454.54,777.45
			c0.72-1.3,1.66-2.5,2.82-3.54c5.84-5.24,14.8-4.54,19.77,1.43c0.45,0.54,0.85,1.1,1.2,1.68l3.79-11.35
			c0.55-1.64,2.23-2.69,3.92-2.34c1.96,0.41,3.12,2.4,2.55,4.28l-5,16.69c-0.14,0.46-0.47,0.84-0.9,1.03l-2.59,1.18
			c-0.55,3.09-1.62,7.51-8.3,10.79"></path>
	</g>
	<g>
		<g>
			<path style="fill:none;stroke:#000000;stroke-linecap:round;stroke-linejoin:round;stroke-miterlimit:10;" d="M1739.65,1072.75
				c-0.13-1.37-0.17-2.76-0.11-4.14"></path>
			<path style="fill:none;stroke:#000000;stroke-linecap:round;stroke-linejoin:round;stroke-miterlimit:10;" d="M1778.5,1041.66
				c2.06,0.68,4.07,1.59,6.01,2.75c0.43,0.26,0.86,0.53,1.28,0.81"></path>
		</g>
		<g>
			<path style="fill:none;stroke:#000000;stroke-linecap:round;stroke-linejoin:round;stroke-miterlimit:10;" d="M1779.68,1045.5
				c1.09,0.47,2.16,1.01,3.2,1.64"></path>
			<path style="fill:none;stroke:#000000;stroke-linecap:round;stroke-linejoin:round;stroke-miterlimit:10;" d="M1742.74,1071.69
				c-0.08-1.2-0.08-2.4,0-3.6"></path>
		</g>
		<g>
			<path style="fill:none;stroke:#000000;stroke-linecap:round;stroke-linejoin:round;stroke-miterlimit:10;" d="M1733.9,1039.26
				c-2.57,0.5-5.26,1.52-7.96,3.27c-3.33,16.05,11.05,24.76,11.05,24.76c2.73,1.86,6.33,1.48,8.61-0.73"></path>
		</g>
		
			<line style="fill:none;stroke:#000000;stroke-linecap:round;stroke-linejoin:round;stroke-miterlimit:10;" x1="1734.03" y1="1048.66" x2="1726.26" y2="1042.63"></line>
		
			<line style="fill:none;stroke:#000000;stroke-linecap:round;stroke-linejoin:round;stroke-miterlimit:10;" x1="1767.54" y1="1074.66" x2="1754.15" y2="1064.27"></line>
		<g>
			<path style="fill:none;stroke:#000000;stroke-linecap:round;stroke-linejoin:round;stroke-miterlimit:10;" d="M1783.11,1073.79
				C1783.12,1073.79,1783.12,1073.78,1783.11,1073.79C1783.1,1073.79,1783.1,1073.79,1783.11,1073.79z"></path>
			<path style="fill:none;stroke:#000000;stroke-linecap:round;stroke-linejoin:round;stroke-miterlimit:10;" d="M1790.55,1094.49
				c8.18-1.96,23.19-7.93,28.26-25.78c-2.39-4.25-5.26-7.54-8.34-10.09"></path>
			<path style="fill:none;stroke:#000000;stroke-linecap:round;stroke-linejoin:round;stroke-miterlimit:10;" d="M1782.43,1073.02
				c-2.73,0.33-5.09,1.82-6.77,3.92"></path>
			<path style="fill:none;stroke:#000000;stroke-linecap:round;stroke-linejoin:round;stroke-miterlimit:10;" d="M1770.79,1057.87
				c-0.52,1.5-0.71,3.13-0.51,4.82c0.71,5.95,6.2,11.04,12.15,10.34c1.22-0.14,0.74-0.08,0.59-0.07"></path>
			<path style="fill:none;stroke:#000000;stroke-linecap:round;stroke-linejoin:round;stroke-miterlimit:10;" d="M1782.69,1050.33
				c-1.83,0.11-2.92,0.3-2.92,0.3"></path>
		</g>
		
			<line style="fill:none;stroke:#000000;stroke-linecap:round;stroke-linejoin:round;stroke-miterlimit:10;" x1="1767.7" y1="1074.71" x2="1818.81" y2="1068.71"></line>
		<g>
			<path style="fill:none;stroke:#000000;stroke-linecap:round;stroke-linejoin:round;stroke-miterlimit:10;" d="M1757.25,1051.09
				C1757.25,1051.09,1757.25,1051.1,1757.25,1051.09C1757.26,1051.11,1757.25,1051.11,1757.25,1051.09z"></path>
			<path style="fill:none;stroke:#000000;stroke-linecap:round;stroke-linejoin:round;stroke-miterlimit:10;" d="M1758.81,1050.47
				C1758.81,1050.46,1758.81,1050.46,1758.81,1050.47C1758.82,1050.48,1758.82,1050.48,1758.81,1050.47z"></path>
			<path style="fill:none;stroke:#000000;stroke-linecap:round;stroke-linejoin:round;stroke-miterlimit:10;" d="M1737.34,1059.78
				c2.25,5.56,8.57,8.24,14.13,6s9.02-8.89,6.78-14.44c-0.46-1.14-0.27-0.69-0.22-0.56c-0.17-0.43-0.31-0.77-0.31-0.77
				s0.14,0.35,0.31,0.77c-0.06-0.13,0,0,0.23,0.55c1.94,4.76,7.42,7.18,12.45,6.37c0.84-0.14,1.66-0.36,2.46-0.68
				c5.56-2.25,8.24-8.57,6-14.13c0,0-0.14-0.42-0.45-1.14c-2.06-4.93-11.52-24.13-34.19-24.38
				C1726.01,1035.63,1737.34,1059.78,1737.34,1059.78z"></path>
		</g>
		
			<line style="fill:none;stroke:#000000;stroke-linecap:round;stroke-linejoin:round;stroke-miterlimit:10;" x1="1767.7" y1="1074.71" x2="1744.53" y2="1017.36"></line>
		<g>
			<path style="fill:none;stroke:#000000;stroke-linecap:round;stroke-linejoin:round;stroke-miterlimit:10;" d="M1747.03,1072.1
				c-1.97-0.96-4.37-0.96-6.42,0.22c0,0-15,7.59-12.91,23.84c4.86,3.72,9.86,4.77,14.23,4.63"></path>
		</g>
		
			<line style="fill:none;stroke:#000000;stroke-linecap:round;stroke-linejoin:round;stroke-miterlimit:10;" x1="1741.04" y1="1089.01" x2="1727.7" y2="1096.16"></line>
		
			<line style="fill:none;stroke:#000000;stroke-linecap:round;stroke-linejoin:round;stroke-miterlimit:10;" x1="1767.7" y1="1074.71" x2="1764" y2="1076.7"></line>
		<g>
			<path style="fill:none;stroke:#000000;stroke-linecap:round;stroke-linejoin:round;stroke-miterlimit:10;" d="M1765.38,1085.18
				C1765.38,1085.18,1765.39,1085.18,1765.38,1085.18C1765.39,1085.16,1765.39,1085.17,1765.38,1085.18z"></path>
			<path style="fill:none;stroke:#000000;stroke-linecap:round;stroke-linejoin:round;stroke-miterlimit:10;" d="M1763.77,1084.68
				C1763.77,1084.69,1763.77,1084.69,1763.77,1084.68C1763.78,1084.67,1763.78,1084.67,1763.77,1084.68z"></path>
			<path style="fill:none;stroke:#000000;stroke-linecap:round;stroke-linejoin:round;stroke-miterlimit:10;" d="M1779.11,1077.41
				c-5.73-1.75-12.6,1.23-14.36,6.96"></path>
			<path style="fill:none;stroke:#000000;stroke-linecap:round;stroke-linejoin:round;stroke-miterlimit:10;" d="M1764.58,1084.94
				c-0.04,0.14,0,0,0.17-0.57c1.74-5.74-2.28-12.05-8.01-13.8c-5.73-1.75-11.8,1.47-13.55,7.2c0,0-9.19,25.04,10.85,41.63
				c10.74-1.05,18.12-6.13,23.09-11.7"></path>
		</g>
		
			<line style="fill:none;stroke:#000000;stroke-linecap:round;stroke-linejoin:round;stroke-miterlimit:10;" x1="1761.79" y1="1094.05" x2="1754.04" y2="1119.4"></line>
		<g>
			<path style="fill:none;stroke:#000000;stroke-linecap:round;stroke-linejoin:round;stroke-miterlimit:10;" d="M1774.98,1087.56
				C1774.98,1087.56,1774.98,1087.56,1774.98,1087.56C1774.97,1087.55,1774.98,1087.55,1774.98,1087.56z"></path>
			<path style="fill:none;stroke:#000000;stroke-linecap:round;stroke-linejoin:round;stroke-miterlimit:10;" d="M1774.04,1088.05
				C1774.04,1088.05,1774.04,1088.05,1774.04,1088.05C1774.04,1088.05,1774.04,1088.04,1774.04,1088.05z"></path>
			<path style="fill:none;stroke:#000000;stroke-linecap:round;stroke-linejoin:round;stroke-miterlimit:10;" d="M1786.9,1080.83
				c-1.77-3.34-5.9-4.61-9.24-2.85c-3.34,1.77-5.08,6.15-3.32,9.49c0.36,0.68,0.21,0.42,0.18,0.33c0.13,0.26,0.25,0.47,0.25,0.47
				s-0.11-0.21-0.25-0.46c0.05,0.08,0,0-0.18-0.33c-1.77-3.33-6.37-4.37-9.71-2.6c-3.34,1.77-4.61,5.9-2.85,9.24
				c0,0,7.03,15.27,23.35,13.76c3.9-4.72,5.13-9.7,5.14-14.07C1790.29,1086.48,1786.9,1080.83,1786.9,1080.83z"></path>
		</g>
		
			<line style="fill:none;stroke:#000000;stroke-linecap:round;stroke-linejoin:round;stroke-miterlimit:10;" x1="1767.5" y1="1074.65" x2="1785.13" y2="1107.88"></line>
		<g>
			<path style="fill:none;stroke:#000000;stroke-linecap:round;stroke-linejoin:round;stroke-miterlimit:10;" d="M1793.19,1056.58
				C1793.19,1056.58,1793.18,1056.58,1793.19,1056.58C1793.17,1056.59,1793.18,1056.59,1793.19,1056.58z"></path>
			<path style="fill:none;stroke:#000000;stroke-linecap:round;stroke-linejoin:round;stroke-miterlimit:10;" d="M1793.78,1057.46
				C1793.78,1057.46,1793.78,1057.46,1793.78,1057.46C1793.77,1057.47,1793.77,1057.47,1793.78,1057.46z"></path>
			<path style="fill:none;stroke:#000000;stroke-linecap:round;stroke-linejoin:round;stroke-miterlimit:10;" d="M1785.22,1045.46
				c-3.13,2.11-3.95,6.36-1.84,9.49s6.66,4.39,9.79,2.28c0.64-0.43,0.39-0.26,0.31-0.21c0.24-0.16,0.44-0.29,0.44-0.29
				s-0.2,0.13-0.44,0.29c0.07-0.06,0,0-0.31,0.21c-3.12,2.12-3.66,6.8-1.54,9.93c2.11,3.13,6.36,3.95,9.49,1.84
				c0,0,14.42-8.63,11.18-24.69C1798.62,1035.3,1785.22,1045.46,1785.22,1045.46z"></path>
		</g>
		
			<line style="fill:none;stroke:#000000;stroke-linecap:round;stroke-linejoin:round;stroke-miterlimit:10;" x1="1767.79" y1="1074.74" x2="1812.3" y2="1044.32"></line>
	</g>
	<g>
		<path style="fill:none;stroke:#000000;stroke-linecap:round;stroke-linejoin:round;stroke-miterlimit:10;" d="M1806.33,940.13
			c-0.02-3.45-0.83-6.9-2.46-10.07"></path>
		<path style="fill:none;stroke:#000000;stroke-linecap:round;stroke-linejoin:round;stroke-miterlimit:10;" d="M1791.67,961.25
			c2.47-0.9,4.83-2.26,6.94-4.09c0.49-0.42,0.95-0.86,1.39-1.31"></path>
		<path style="fill:none;stroke:#000000;stroke-linecap:round;stroke-linejoin:round;stroke-miterlimit:10;" d="M1768.68,956.52
			c0.74,0.7,1.53,1.35,2.34,1.93"></path>
		<path style="fill:none;stroke:#000000;stroke-linecap:round;stroke-linejoin:round;stroke-miterlimit:10;" d="M1783.48,917.94
			c-0.85,0.02-1.71,0.09-2.55,0.21"></path>
		<path style="fill:none;stroke:#000000;stroke-linecap:round;stroke-linejoin:round;stroke-miterlimit:10;" d="M1803.8,938.86
			c-0.17-2.45-0.8-4.88-1.89-7.16"></path>
		<path style="fill:none;stroke:#000000;stroke-linecap:round;stroke-linejoin:round;stroke-miterlimit:10;" d="M1791.86,958.5
			c1.82-0.78,3.55-1.86,5.13-3.22"></path>
		<g>
			<path style="fill:none;stroke:#000000;stroke-linecap:round;stroke-linejoin:round;stroke-miterlimit:10;" d="M1762.05,933.41
				c-1.77-1.39-3.46-2.99-5.02-4.8c-7.54-8.72-9.95-19.64-6.82-27.46c8.19-1.97,18.65,1.99,26.19,10.71c1.68,1.94,3.11,4,4.27,6.1
				c0.61,1.09,1.14,2.2,1.61,3.32"></path>
			<path style="fill:none;stroke:#000000;stroke-linecap:round;stroke-linejoin:round;stroke-miterlimit:10;" d="M1784.06,936.61
				c-0.05,0.24-0.11,0.48-0.18,0.72c-0.34,1.27-1.42,2.2-2.73,2.36c-0.55,0.06-1.1,0.1-1.66,0.12"></path>
			
				<line style="fill:none;stroke:#000000;stroke-linecap:round;stroke-linejoin:round;stroke-miterlimit:10;" x1="1750.21" y1="901.15" x2="1785.33" y2="941.77"></line>
		</g>
		<g>
			<path style="fill:none;stroke:#000000;stroke-linecap:round;stroke-linejoin:round;stroke-miterlimit:10;" d="M1807.09,894.32
				c5.22,6.62,6,17.77,1.23,28.27c-4.37,9.63-12.23,16.12-20,17.45c-1.3,0.22-2.6-0.37-3.28-1.49c-4.11-6.72-4.41-16.91-0.04-26.55
				C1789.76,901.51,1798.67,894.75,1807.09,894.32z"></path>
			
				<line style="fill:none;stroke:#000000;stroke-linecap:round;stroke-linejoin:round;stroke-miterlimit:10;" x1="1807.09" y1="894.32" x2="1785.42" y2="941.7"></line>
		</g>
		<g>
			<path style="fill:none;stroke:#000000;stroke-linecap:round;stroke-linejoin:round;stroke-miterlimit:10;" d="M1781.47,944.24
				c0.59-0.34,1.2-0.64,1.81-0.9c1.25-0.53,2.71-0.19,3.6,0.83"></path>
			<path style="fill:none;stroke:#000000;stroke-linecap:round;stroke-linejoin:round;stroke-miterlimit:10;" d="M1790.32,950.19
				c1.53,4.33,1.85,9.57,0.62,14.95c-2.11,9.21-8.16,16.09-14.85,17.81c-5.27-4.46-7.72-13.29-5.6-22.5
				c0.44-1.93,1.06-3.75,1.81-5.45"></path>
			
				<line style="fill:none;stroke:#000000;stroke-linecap:round;stroke-linejoin:round;stroke-miterlimit:10;" x1="1785.28" y1="941.71" x2="1776.09" y2="982.95"></line>
		</g>
		<g>
			<path style="fill:none;stroke:#000000;stroke-linecap:round;stroke-linejoin:round;stroke-miterlimit:10;" d="M1818.16,953.37
				c-4.1,3.87-11.5,5.04-18.77,2.48c-6.28-2.21-10.88-6.64-12.53-11.4c-0.48-1.4,0.06-2.94,1.31-3.73
				c4.26-2.68,10.63-3.25,16.91-1.04C1812.35,942.25,1817.38,947.79,1818.16,953.37z"></path>
			
				<line style="fill:none;stroke:#000000;stroke-linecap:round;stroke-linejoin:round;stroke-miterlimit:10;" x1="1818.16" y1="953.37" x2="1785.25" y2="941.75"></line>
		</g>
		<g>
			<path style="fill:none;stroke:#000000;stroke-linecap:round;stroke-linejoin:round;stroke-miterlimit:10;" d="M1751.11,941.69
				c2.53,4.03,7.92,6.95,14.3,7.17c5.72,0.2,10.83-1.8,13.85-4.98c0.83-0.88,1.08-2.08,0.8-3.19c0.29,0.22,0.61,0.42,0.88,0.65
				c0.66,0.58,0.93,1.5,0.67,2.34c-1.91,6.25-8.17,11.99-16.64,14.42c-9.08,2.6-18.03,0.63-22.77-4.39
				C1743.11,949.2,1746.37,944.87,1751.11,941.69z"></path>
		</g>
		
			<line style="fill:none;stroke:#000000;stroke-linecap:round;stroke-linejoin:round;stroke-miterlimit:10;" x1="1759.85" y1="948.09" x2="1742.21" y2="953.72"></line>
		<path style="fill:none;stroke:#000000;stroke-linecap:round;stroke-linejoin:round;stroke-miterlimit:10;" d="M1750.47,940.61
			c2.49-4.43,8.54-7.43,15.49-7.18c5.72,0.2,10.68,2.56,13.47,5.95c1.09,1.33,1.02,3.27-0.16,4.52c-3.02,3.19-8.13,5.18-13.85,4.98
			C1758.47,948.62,1752.65,945.2,1750.47,940.61z"></path>
		
			<line style="fill:none;stroke:#000000;stroke-linecap:round;stroke-linejoin:round;stroke-miterlimit:10;" x1="1750.47" y1="940.61" x2="1785.86" y2="941.77"></line>
	</g>
	<g>
		<g>
			
				<rect x="615.89" y="1192.59" style="fill:none;stroke:#000000;stroke-linecap:round;stroke-linejoin:round;stroke-miterlimit:10;" width="127.66" height="215.21"></rect>
			
				<line style="fill:none;stroke:#000000;stroke-linecap:round;stroke-linejoin:round;stroke-miterlimit:10;" x1="623.2" y1="1192.59" x2="623.12" y2="1407.78"></line>
		</g>
		
			<line style="fill:none;stroke:#000000;stroke-linecap:round;stroke-linejoin:round;stroke-miterlimit:10;" x1="615.89" y1="1300.83" x2="743.55" y2="1300.83"></line>
	</g>
</g>
<g id="floor">
	<g>
		<path style="fill:none;stroke:#000000;stroke-linecap:round;stroke-linejoin:round;stroke-miterlimit:10;" d="M1366.15,989.05
			c0-95.08-76.91-172.91-172-172.91v171.5"></path>
		
			<rect x="1183.91" y="987.63" style="fill:none;stroke:#000000;stroke-linecap:round;stroke-linejoin:round;stroke-miterlimit:10;" width="10.24" height="18.89"></rect>
		
			<rect x="1366.15" y="987.63" style="fill:none;stroke:#000000;stroke-linecap:round;stroke-linejoin:round;stroke-miterlimit:10;" width="10.24" height="18.89"></rect>
	</g>
	<g>
		<path style="fill:none;stroke:#000000;stroke-linecap:round;stroke-linejoin:round;stroke-miterlimit:10;" d="M814.07,625.44
			c84.78,0,154.19,68.58,154.19,153.37H815.34"></path>
		
			<rect x="802.35" y="774.95" transform="matrix(9.059959e-11 -1 1 9.059959e-11 23.5441 1590.2875)" style="fill:none;stroke:#000000;stroke-linecap:round;stroke-linejoin:round;stroke-miterlimit:10;" width="9.14" height="16.84"></rect>
		
			<rect x="802.35" y="612.45" transform="matrix(9.269036e-11 -1 1 9.269036e-11 186.0475 1427.7841)" style="fill:none;stroke:#000000;stroke-linecap:round;stroke-linejoin:round;stroke-miterlimit:10;" width="9.14" height="16.84"></rect>
	</g>
	<g>
		<path style="fill:none;stroke:#000000;stroke-linecap:round;stroke-linejoin:round;stroke-miterlimit:10;" d="M660.57,818.81
			c0,84.78-68.58,154.19-153.37,154.19V820.07"></path>
		
			<rect x="498.07" y="803.23" style="fill:none;stroke:#000000;stroke-linecap:round;stroke-linejoin:round;stroke-miterlimit:10;" width="9.14" height="16.84"></rect>
		
			<rect x="660.57" y="803.23" style="fill:none;stroke:#000000;stroke-linecap:round;stroke-linejoin:round;stroke-miterlimit:10;" width="9.14" height="16.84"></rect>
	</g>
	<g>
		<path style="fill:none;stroke:#000000;stroke-linecap:round;stroke-linejoin:round;stroke-miterlimit:10;" d="M297.79,1121.94
			c-108.76,0-197.79-87.98-197.79-196.74h196.17"></path>
		
			<rect x="301.11" y="908.54" transform="matrix(-4.462760e-11 1 -1 -4.462760e-11 1226.3116 612.3715)" style="fill:none;stroke:#000000;stroke-linecap:round;stroke-linejoin:round;stroke-miterlimit:10;" width="11.72" height="21.6"></rect>
		
			<rect x="301.11" y="1117" transform="matrix(-4.462760e-11 1 -1 -4.462760e-11 1434.7681 820.8278)" style="fill:none;stroke:#000000;stroke-linecap:round;stroke-linejoin:round;stroke-miterlimit:10;" width="11.72" height="21.6"></rect>
	</g>
	
		<line style="fill:none;stroke:#000000;stroke-linecap:round;stroke-linejoin:round;stroke-miterlimit:10;stroke-dasharray:10,10;" x1="1174.28" y1="814.96" x2="1174.28" y2="412.78"></line>
	
		<line style="fill:none;stroke:#000000;stroke-linecap:round;stroke-linejoin:round;stroke-miterlimit:10;stroke-dasharray:10,10;" x1="752.57" y1="958.84" x2="752.57" y2="1182.67"></line>
	
		<line style="fill:none;stroke:#000000;stroke-linecap:round;stroke-linejoin:round;stroke-miterlimit:10;stroke-dasharray:10,10;" x1="639.21" y1="1184.36" x2="415.38" y2="1184.36"></line>
	<g>
		<g id="LWPOLYLINE_6_">
			
				<rect x="615.89" y="1407.79" style="fill:none;stroke:#000000;stroke-linecap:round;stroke-linejoin:round;stroke-miterlimit:10;" width="128.13" height="130.73"></rect>
		</g>
		<g>
			<g id="LWPOLYLINE_5_">
				<polyline style="fill:none;stroke:#000000;stroke-linecap:round;stroke-linejoin:round;stroke-miterlimit:10;" points="
					721.42,1504.95 679.96,1456.83 679.96,1489.49 638.49,1441.38 				"></polyline>
			</g>
			<g id="LWPOLYLINE_4_">
				<path style="fill:none;stroke:#000000;stroke-linecap:round;stroke-linejoin:round;stroke-miterlimit:10;" d="M679.95,1509.46
					c-20.05,0-36.29-16.25-36.3-36.3c0-20.05,16.25-36.3,36.3-36.3c20.05,0,36.3,16.25,36.3,36.3
					C716.25,1493.21,700,1509.46,679.95,1509.46z"></path>
			</g>
		</g>
	</g>
	<g>
		<g id="LWPOLYLINE_51_">
			
				<rect x="760.64" y="1230.61" style="fill:none;stroke:#000000;stroke-linecap:round;stroke-linejoin:round;stroke-miterlimit:10;" width="128.32" height="128.32"></rect>
		</g>
		<g id="LWPOLYLINE_50_">
			
				<line style="fill:none;stroke:#000000;stroke-linecap:round;stroke-linejoin:round;stroke-miterlimit:10;" x1="792.73" y1="1305.46" x2="792.73" y2="1348.24"></line>
		</g>
		<g id="LWPOLYLINE_49_">
			
				<line style="fill:none;stroke:#000000;stroke-linecap:round;stroke-linejoin:round;stroke-miterlimit:10;" x1="814.12" y1="1326.85" x2="771.34" y2="1326.85"></line>
		</g>
		<g id="CIRCLE_119_">
			<path style="fill:none;stroke:#000000;stroke-linecap:round;stroke-linejoin:round;stroke-miterlimit:10;" d="M775.62,1326.85
				c0,9.45,7.66,17.11,17.11,17.11c9.45,0,17.11-7.66,17.11-17.11s-7.66-17.11-17.11-17.11
				C783.28,1309.74,775.62,1317.4,775.62,1326.85L775.62,1326.85z"></path>
		</g>
		<g id="LWPOLYLINE_48_">
			
				<line style="fill:none;stroke:#000000;stroke-linecap:round;stroke-linejoin:round;stroke-miterlimit:10;" x1="792.73" y1="1241.3" x2="792.73" y2="1284.08"></line>
		</g>
		<g id="LWPOLYLINE_47_">
			
				<line style="fill:none;stroke:#000000;stroke-linecap:round;stroke-linejoin:round;stroke-miterlimit:10;" x1="814.12" y1="1262.69" x2="771.34" y2="1262.69"></line>
		</g>
		<g id="CIRCLE_118_">
			<path style="fill:none;stroke:#000000;stroke-linecap:round;stroke-linejoin:round;stroke-miterlimit:10;" d="M775.62,1262.68
				c0,9.45,7.66,17.12,17.12,17.12s17.12-7.66,17.12-17.12c0-9.45-7.66-17.12-17.12-17.12S775.62,1253.23,775.62,1262.68
				L775.62,1262.68z"></path>
		</g>
		<g id="LWPOLYLINE_46_">
			
				<line style="fill:none;stroke:#000000;stroke-linecap:round;stroke-linejoin:round;stroke-miterlimit:10;" x1="856.89" y1="1241.3" x2="856.89" y2="1284.08"></line>
		</g>
		<g id="LWPOLYLINE_45_">
			
				<line style="fill:none;stroke:#000000;stroke-linecap:round;stroke-linejoin:round;stroke-miterlimit:10;" x1="878.28" y1="1262.69" x2="835.5" y2="1262.69"></line>
		</g>
		<g id="CIRCLE_117_">
			<path style="fill:none;stroke:#000000;stroke-linecap:round;stroke-linejoin:round;stroke-miterlimit:10;" d="M839.78,1262.68
				c0,9.45,7.66,17.12,17.12,17.12s17.12-7.66,17.12-17.12c0-9.45-7.66-17.12-17.12-17.12S839.78,1253.23,839.78,1262.68
				L839.78,1262.68z"></path>
		</g>
		<g id="LWPOLYLINE_44_">
			
				<line style="fill:none;stroke:#000000;stroke-linecap:round;stroke-linejoin:round;stroke-miterlimit:10;" x1="856.89" y1="1305.46" x2="856.89" y2="1348.24"></line>
		</g>
		<g id="LWPOLYLINE_43_">
			
				<line style="fill:none;stroke:#000000;stroke-linecap:round;stroke-linejoin:round;stroke-miterlimit:10;" x1="878.28" y1="1326.85" x2="835.5" y2="1326.85"></line>
		</g>
		<g id="CIRCLE_116_">
			<path style="fill:none;stroke:#000000;stroke-linecap:round;stroke-linejoin:round;stroke-miterlimit:10;" d="M839.78,1326.85
				c0,9.45,7.66,17.11,17.11,17.11c9.45,0,17.11-7.66,17.11-17.11s-7.66-17.11-17.11-17.11
				C847.44,1309.74,839.78,1317.4,839.78,1326.85L839.78,1326.85z"></path>
		</g>
	</g>
	<g>
		<g id="LWPOLYLINE_42_">
			
				<rect x="761.18" y="1456.06" style="fill:none;stroke:#000000;stroke-linecap:round;stroke-linejoin:round;stroke-miterlimit:10;" width="127.91" height="127.91"></rect>
		</g>
		<g id="LWPOLYLINE_41_">
			<path style="fill:none;stroke:#000000;stroke-linecap:round;stroke-linejoin:round;stroke-miterlimit:10;" d="M870.97,1573.31
				l-80.96,0c-4.12,0-7.46-3.34-7.46-7.46c0,0,0-91.68,0-91.68c0-4.12,3.34-7.46,7.46-7.46c0,0,80.96,0,80.96,0
				c4.12,0,7.46,3.34,7.46,7.46c0,0,0,91.68,0,91.68C878.43,1569.97,875.09,1573.31,870.97,1573.31z"></path>
		</g>
		<g id="LWPOLYLINE_40_">
			<path style="fill:none;stroke:#000000;stroke-linecap:round;stroke-linejoin:round;stroke-miterlimit:10;" d="M810.76,1541.34
				c0,4.13-3.35,7.48-7.48,7.48c-4.13,0-7.48-3.35-7.48-7.48c0-4.13,3.35-7.48,7.48-7.48
				C807.41,1533.86,810.76,1537.2,810.76,1541.34z"></path>
		</g>
	</g>
	<g>
		<g>
			<g id="LWPOLYLINE_170_">
				<path style="fill:none;stroke:#000000;stroke-linecap:round;stroke-linejoin:round;stroke-miterlimit:10;" d="M608.4,439.95
					l-0.15,56.86c-0.02,8.01-5.1,15.09-12.57,17.53c-27.12,8.83-56.27,8.76-83.35-0.23c-7.46-2.48-12.5-9.58-12.48-17.59l0.15-56.86
					"></path>
			</g>
			<g id="LWPOLYLINE_169_">
				<path style="fill:none;stroke:#000000;stroke-linecap:round;stroke-linejoin:round;stroke-miterlimit:10;" d="M525.24,455.63
					c-5.99-0.02-10.85,4.93-10.87,11.04l-0.05,17.72c-0.01,4.05,2.57,7.64,6.37,8.84c21.73,6.86,44.96,6.92,66.72,0.18
					c3.8-1.18,6.4-4.75,6.41-8.8l0.05-17.72c0.02-6.11-4.83-11.09-10.81-11.1"></path>
			</g>
			<g id="LWPOLYLINE_168_">
				<path style="fill:none;stroke:#000000;stroke-linecap:round;stroke-linejoin:round;stroke-miterlimit:10;" d="M601.1,466.91
					l-0.08,29.88c-0.01,4.81-3.06,9.06-7.54,10.52c-25.68,8.37-53.29,8.3-78.92-0.21c-4.47-1.49-7.5-5.75-7.49-10.56l0.08-29.88
					c0.02-6.11,4.88-11.06,10.87-11.04l72.28,0.2C596.28,455.83,601.12,460.8,601.1,466.91z"></path>
			</g>
			<g id="LWPOLYLINE_167_">
				<path style="fill:none;stroke:#000000;stroke-linecap:round;stroke-linejoin:round;stroke-miterlimit:10;" d="M554.14,459.01
					c2.69,0.01,4.86,2.23,4.85,4.98c-0.01,2.74-2.19,4.96-4.88,4.95c-2.68-0.01-4.86-2.24-4.85-4.98
					C549.28,461.21,551.46,459,554.14,459.01z"></path>
			</g>
		</g>
		<g>
			<g id="LWPOLYLINE_166_">
				
					<rect x="337.56" y="439.66" style="fill:none;stroke:#000000;stroke-linecap:round;stroke-linejoin:round;stroke-miterlimit:10;" width="147.52" height="364.52"></rect>
			</g>
			<g id="LWPOLYLINE_165_">
				<path style="fill:none;stroke:#000000;stroke-linecap:round;stroke-linejoin:round;stroke-miterlimit:10;" d="M349.36,753.79
					l0.01-237.93c0-34.94,27.74-63.26,61.96-63.25c34.22,0,61.96,28.33,61.96,63.27l-0.01,237.93c0,16.7-13.15,30.29-29.5,30.48
					l-64.91-0.01c-16.3,0-29.51-13.49-29.51-30.13"></path>
			</g>
			<g id="LWPOLYLINE_164_">
				<path style="fill:none;stroke:#000000;stroke-linecap:round;stroke-linejoin:round;stroke-miterlimit:10;" d="M366.22,678.57
					l0.01-162.71c0-25.44,20.2-46.05,45.1-46.05s45.1,20.63,45.1,46.06l-0.01,160.34c-0.02,24.5-18.81,44.7-42.77,45.98
					C388.76,723.52,367.52,703.99,366.22,678.57z"></path>
			</g>
			<g id="LWPOLYLINE_163_">
				<path style="fill:none;stroke:#000000;stroke-linecap:round;stroke-linejoin:round;stroke-miterlimit:10;" d="M411.33,507.44
					c4.56,0,8.26,3.78,8.26,8.43c0,4.66-3.7,8.43-8.26,8.43c-4.57,0-8.26-3.78-8.26-8.43C403.07,511.21,406.77,507.44,411.33,507.44
					z"></path>
			</g>
		</g>
		<g>
			<g id="LWPOLYLINE_162_">
				<path style="fill:none;stroke:#000000;stroke-linecap:round;stroke-linejoin:round;stroke-miterlimit:10;" d="M669.09,511.45
					l0,59.66c0,20.76,17.18,37.59,38.38,37.59c21.2,0,38.38-16.83,38.38-37.59l0-59.66c0-5.19-4.3-9.39-9.59-9.39l-57.58,0
					C673.38,502.06,669.08,506.26,669.09,511.45z"></path>
			</g>
			<g id="LWPOLYLINE_161_">
				<path style="fill:none;stroke:#000000;stroke-linecap:round;stroke-linejoin:round;stroke-miterlimit:10;" d="M738.18,571.11
					l-0.01-33.37c0-16.6-13.74-30.06-30.7-30.07c-16.96,0-30.71,13.46-30.71,30.07l0.01,33.37c0,16.6,13.74,30.06,30.7,30.07
					C724.42,601.18,738.17,587.71,738.18,571.11z"></path>
			</g>
			<g id="LWPOLYLINE_160_">
				<path style="fill:none;stroke:#000000;stroke-linecap:round;stroke-linejoin:round;stroke-miterlimit:10;" d="M718.99,559.01
					l-0.01-24.39c0-6.23-5.15-11.28-11.51-11.27c-6.36,0-11.51,5.05-11.51,11.28l0.01,24.39c0,6.23,5.15,11.27,11.51,11.27
					C713.83,570.29,718.98,565.24,718.99,559.01z"></path>
			</g>
		</g>
	</g>
	<g>
		
			<rect x="1671.62" y="1253.24" transform="matrix(-1.836970e-16 1 -1 -1.836970e-16 3153.2366 -576.1855)" style="fill:none;stroke:#000000;stroke-linecap:round;stroke-linejoin:round;stroke-miterlimit:10;" width="386.19" height="70.58"></rect>
		
			<line style="fill:none;stroke:#000000;stroke-linecap:round;stroke-linejoin:round;stroke-miterlimit:10;" x1="1885.14" y1="1095.36" x2="1885.14" y2="1481.54"></line>
		
			<rect x="1870.97" y="1229.28" transform="matrix(-1.836970e-16 1 -1 -1.836970e-16 3114.4148 -636.5015)" style="fill:none;stroke:#000000;stroke-linecap:round;stroke-linejoin:round;stroke-miterlimit:10;" width="8.98" height="19.36"></rect>
		
			<rect x="1870.97" y="1466.98" transform="matrix(-1.836970e-16 1 -1 -1.836970e-16 3352.1177 -398.7986)" style="fill:none;stroke:#000000;stroke-linecap:round;stroke-linejoin:round;stroke-miterlimit:10;" width="8.98" height="19.36"></rect>
		
			<rect x="1870.97" y="1090.57" transform="matrix(-1.836970e-16 1 -1 -1.836970e-16 2975.7024 -775.2139)" style="fill:none;stroke:#000000;stroke-linecap:round;stroke-linejoin:round;stroke-miterlimit:10;" width="8.98" height="19.36"></rect>
		
			<line style="fill:none;stroke:#000000;stroke-linecap:round;stroke-linejoin:round;stroke-miterlimit:10;" x1="1865.78" y1="1243.45" x2="1865.78" y2="1472.17"></line>
		
			<rect x="1810.54" y="1159.98" transform="matrix(-1.836970e-16 1 -1 -1.836970e-16 3045.0051 -705.8043)" style="fill:none;stroke:#000000;stroke-linecap:round;stroke-linejoin:round;stroke-miterlimit:10;" width="129.73" height="19.25"></rect>
	</g>
	<g>
		
			<rect x="1671.62" y="675.48" transform="matrix(-1.836970e-16 1 -1 -1.836970e-16 2575.4756 -1153.9464)" style="fill:none;stroke:#000000;stroke-linecap:round;stroke-linejoin:round;stroke-miterlimit:10;" width="386.19" height="70.58"></rect>
		
			<line style="fill:none;stroke:#000000;stroke-linecap:round;stroke-linejoin:round;stroke-miterlimit:10;" x1="1885.14" y1="517.6" x2="1885.14" y2="903.78"></line>
		
			<rect x="1870.97" y="651.52" transform="matrix(-1.836970e-16 1 -1 -1.836970e-16 2536.6538 -1214.2625)" style="fill:none;stroke:#000000;stroke-linecap:round;stroke-linejoin:round;stroke-miterlimit:10;" width="8.98" height="19.36"></rect>
		
			<rect x="1870.97" y="889.22" transform="matrix(-1.836970e-16 1 -1 -1.836970e-16 2774.3567 -976.5595)" style="fill:none;stroke:#000000;stroke-linecap:round;stroke-linejoin:round;stroke-miterlimit:10;" width="8.98" height="19.36"></rect>
		
			<rect x="1870.97" y="512.81" transform="matrix(-1.836970e-16 1 -1 -1.836970e-16 2397.9414 -1352.9749)" style="fill:none;stroke:#000000;stroke-linecap:round;stroke-linejoin:round;stroke-miterlimit:10;" width="8.98" height="19.36"></rect>
		
			<line style="fill:none;stroke:#000000;stroke-linecap:round;stroke-linejoin:round;stroke-miterlimit:10;" x1="1865.78" y1="665.69" x2="1865.78" y2="894.41"></line>
		
			<rect x="1810.54" y="582.22" transform="matrix(-1.836970e-16 1 -1 -1.836970e-16 2467.2441 -1283.5652)" style="fill:none;stroke:#000000;stroke-linecap:round;stroke-linejoin:round;stroke-miterlimit:10;" width="129.73" height="19.25"></rect>
	</g>
	<g>
		
			<rect x="68.08" y="1334.28" transform="matrix(-1.836970e-16 1 -1 -1.836970e-16 1652.0486 1065.6946)" width="450.2" height="49.19"></rect>
		
			<rect x="19.96" y="615.67" transform="matrix(-1.836970e-16 1 -1 -1.836970e-16 933.4374 347.0834)" width="546.44" height="49.19"></rect>
		
			<rect x="1058.69" y="793.86" transform="matrix(-1.836970e-16 1 -1 -1.836970e-16 2693.8647 525.2831)" width="51.2" height="1631.42"></rect>
		
			<rect x="1058.69" y="-425.28" transform="matrix(-1.836970e-16 1 -1 -1.836970e-16 1474.7169 -693.8648)" width="51.2" height="1631.42"></rect>
		
			<rect x="1788.79" y="1521.95" transform="matrix(-1.836970e-16 1 -1 -1.836970e-16 3421.9492 -307.4729)" width="151.85" height="70.58"></rect>
		
			<rect x="1768.47" y="964.81" transform="matrix(-1.836970e-16 1 -1 -1.836970e-16 2864.8118 -864.6104)" width="192.49" height="70.58"></rect>
		
			<rect x="1787.68" y="406.57" transform="matrix(-1.836970e-16 1 -1 -1.836970e-16 2306.5671 -1422.855)" width="154.06" height="70.58"></rect>
		
			<rect x="367.8" y="1116.07" transform="matrix(-1.836970e-16 1 -1 -1.836970e-16 1560.3827 807.679)" width="17.11" height="135.93"></rect>
		
			<rect x="679.58" y="1111.04" transform="matrix(-1.836970e-16 1 -1 -1.836970e-16 1872.167 495.8947)" width="17.11" height="145.99"></rect>
		
			<rect x="539.2" y="1379.83" transform="matrix(-1.836970e-16 1 -1 -1.836970e-16 2140.958 635.8083)" width="426.76" height="17.11"></rect>
		
			<rect x="586.84" y="1387.35" transform="matrix(-1.836970e-16 1 -1 -1.836970e-16 2134.4543 951.6839)" width="9.09" height="311.43"></rect>
		
			<rect x="684.24" y="884.29" transform="matrix(-1.836970e-16 1 -1 -1.836970e-16 1645.4185 140.2688)" width="136.66" height="17.11"></rect>
		
			<rect x="787.51" y="798.28" transform="matrix(-1.836970e-16 1 -1 -1.836970e-16 1616.0896 0.4246)" width="40.64" height="19.95"></rect>
		
			<rect x="699.17" y="498.39" transform="matrix(-1.836970e-16 1 -1 -1.836970e-16 1316.1909 -299.3168)" width="217.18" height="20.1"></rect>
		
			<rect x="730.81" y="741.58" transform="matrix(-1.836970e-16 1 -1 -1.836970e-16 1559.3883 72.4178)" width="25.34" height="148.64"></rect>
		
			<rect x="388.59" y="719.1" transform="matrix(-1.836970e-16 1 -1 -1.836970e-16 1217.1674 414.6388)" width="25.34" height="193.6"></rect>
		
			<rect x="110.9" y="592.14" transform="matrix(-1.836970e-16 1 -1 -1.836970e-16 929.6915 279.5218)" width="428.36" height="24.94"></rect>
		
			<rect x="548.23" y="182.75" transform="matrix(-1.836970e-16 1 -1 -1.836970e-16 987.8821 -139.83)" width="31.24" height="482.56"></rect>
		
			<rect x="705.79" y="410.83" transform="matrix(-1.836970e-16 1 -1 -1.836970e-16 1208.5308 -218.9832)" width="15.93" height="167.89"></rect>
		
			<rect x="591.7" y="459.37" transform="matrix(-1.836970e-16 1 -1 -1.836970e-16 1094.4365 -159.8542)" width="70.9" height="15.84"></rect>
		
			<rect x="983.66" y="637.26" transform="matrix(-1.836970e-16 1 -1 -1.836970e-16 1812.2327 -172.1924)" width="17.11" height="365.52"></rect>
		
			<rect x="1068.89" y="900.44" transform="matrix(-1.836970e-16 1 -1 -1.836970e-16 2075.4089 -257.4268)" width="195.05" height="17.11"></rect>
		
			<rect x="1162.33" y="984.94" transform="matrix(-1.836970e-16 1 -1 -1.836970e-16 2168.8472 -172.9234)" width="17.11" height="26.04"></rect>
		
			<rect x="1605.05" y="760.75" transform="matrix(-1.836970e-16 1 -1 -1.836970e-16 2611.563 -615.6392)" width="17.11" height="474.42"></rect>
		
			<rect x="427.36" y="1521.66" transform="matrix(-1.836970e-16 1 -1 -1.836970e-16 1965.8833 1085.9921)" width="25.17" height="8.55"></rect>
		
			<rect x="372.38" y="1458.22" transform="matrix(-1.836970e-16 1 -1 -1.836970e-16 1894.2838 1140.9733)" width="8.55" height="118.81"></rect>
	</g>
</g>
</svg>
