<?xml version="1.0" encoding="utf-8"?>

<svg version="1.1" id="Layer_1" xmlns="http://www.w3.org/2000/svg" xmlns:xlink="http://www.w3.org/1999/xlink" x="0px" y="0px" width="2000px" height="2000px" viewBox="0 0 2000 2000" style="enable-background:new 0 0 2000 2000;" xml:space="preserve">
    <path id="background" style="fill:#FFFFFF;" d="M99.646,1681.342l48.865,134.042h104.724h58.37v-110.271h1346.831h43.249v-703.69
	v-12.348c109.347,0,197.96-88.614,197.96-197.961h-197.96v-12.348V340.983V295.62H311.87V185.349h-58.635l-104.792-0.066
	L99.646,319.391l48.865,134.042h104.724v380.668l-104.792-0.066L99.646,968.143l48.865,134.042h104.724v384.563v10.829v49.721
	l-104.792-0.066L99.646,1681.342z"/>
    <g id="h1">
        <path style="fill:none;" d="M1175.469,1003.864V965.83v-17.3V756.645h161.841h172.935h148.173v22.186h26.148v222.656h-26.148
		v132.128h-259.435v-129.75h-17.3L1175.469,1003.864L1175.469,1003.864z" id="h1_path"/>
        <text transform="matrix(1 0 0 1 1544.9409 901.8867)" style="font-family:'GraphikLCG-Regular'; font-size:40px;text-anchor:middle;text-align:center;" id="h1_text"></text>
    </g>
    <g id="c1">
        <path style="fill:none;" d="M1175.469,1003.864h206.214v147.051h17.3h259.435v506.72h-414.871h-68.078V1003.864z" id="c1_path"/>
        <text transform="matrix(1 0 0 1 1323.4697 1333.752)" style="font-family:'GraphikLCG-Regular'; font-size:40px;text-anchor:middle;text-align:center;" id="c1_text"></text>
    </g>
    <g id="r2">
        <path style="fill:none;" d="M1027.362,1657.635H311.589v-159.993h-34.6v-10.829h-23.771v-389.119h23.771v-10.829h34.6V948.53h0.066
		v17.3h639.838v-2.377h194.527v2.377h29.45v38.034v653.771H1027.362z" id="r2_path"/>
        <text transform="matrix(1 0 0 1 830.1949 1333.3789)" style="font-family:'GraphikLCG-Regular'; font-size:40px;text-anchor:middle;text-align:center;" id="r2_text"></text>
    </g>
    <g id="r1">
        <path style="fill:none;" d="M1157.905,948.53h-11.885H951.493H311.655h-0.066v-99.442h-34.6v-10.829h-23.771v-389.12h23.771V438.31
		h34.798v-97.263h846.382v415.598h-0.264L1157.905,948.53L1157.905,948.53z" id="r1_path"/>
        <text transform="matrix(1 0 0 1 896.024 676.9414)" style="font-family:'GraphikLCG-Regular'; font-size:40px;text-anchor:middle;text-align:center;" id="r1_text"></text>
    </g>
    <g id="s1">
        <path style="fill:none;" d="M1510.245,743.438H1337.31v-8.254h-161.841V369.242h467.696v368.056h-132.92V743.438z" id="s1_path"/>
        <text transform="matrix(1 0 0 1 1476.9336 622.957)" style="font-family:'GraphikLCG-Regular'; font-size:40px;text-anchor:middle;text-align:center;" id="s1_text"></text>
    </g>
    <g id="mebel">
        <polyline style="fill:#FFFFFF;stroke:#000000;stroke-linecap:round;stroke-linejoin:round;stroke-miterlimit:10;" points="
		1528.736,1150.821 1528.736,1280.553 1658.445,1280.553 1658.468,1150.821 1528.736,1150.821 	"/>
        <polyline style="fill:#FFFFFF;stroke:#000000;stroke-linecap:round;stroke-linejoin:round;stroke-miterlimit:10;" points="
		1528.781,1506.472 1528.759,1408.793 1658.468,1408.763 1658.514,1506.442 1528.781,1506.472 	"/>
        <polyline style="fill:#FFFFFF;stroke:#000000;stroke-linecap:round;stroke-linejoin:round;stroke-miterlimit:10;" points="
		1122.328,1277.409 1026.518,1277.409 1026.517,1657.561 1122.328,1657.561 1122.328,1277.409 	"/>
        <polyline style="fill:#FFFFFF;stroke:#000000;stroke-linecap:round;stroke-linejoin:round;stroke-miterlimit:10;" points="
		1039.425,1523.685 1079.107,1480.019 1111.604,1509.549 1071.922,1553.216 1039.425,1523.685 	"/>
        <polyline style="fill:#FFFFFF;stroke:#000000;stroke-linecap:round;stroke-linejoin:round;stroke-miterlimit:10;" points="
		1038.579,1505.865 1069.259,1455.464 1106.766,1478.295 1076.088,1528.696 1038.579,1505.865 	"/>
        <polyline style="fill:#FFFFFF;stroke:#000000;stroke-linecap:round;stroke-linejoin:round;stroke-miterlimit:10;" points="
		1038.579,1505.865 1069.259,1455.464 1106.766,1478.295 1076.088,1528.696 1038.579,1505.865 	"/>
        <polyline style="fill:#FFFFFF;stroke:#000000;stroke-linecap:round;stroke-linejoin:round;stroke-miterlimit:10;" points="
		1045.903,1504.836 1097.783,1476.731 1118.698,1515.341 1066.818,1543.444 1045.903,1504.836 	"/>
        <polyline style="fill:#FFFFFF;stroke:#000000;stroke-linecap:round;stroke-linejoin:round;stroke-miterlimit:10;" points="
		1045.903,1504.836 1097.783,1476.731 1118.698,1515.341 1066.818,1543.444 1045.903,1504.836 	"/>
        <polyline style="fill:#FFFFFF;stroke:#000000;stroke-linecap:round;stroke-linejoin:round;stroke-miterlimit:10;" points="
		608.629,1356.104 672.892,1326.265 650.686,1278.441 586.424,1308.281 608.629,1356.104 	"/>
        <polyline style="fill:#FFFFFF;stroke:#000000;stroke-linecap:round;stroke-linejoin:round;stroke-miterlimit:10;" points="
		628.751,1363.457 697.507,1346.348 684.774,1295.181 616.019,1312.29 628.751,1363.457 	"/>
        <polyline style="fill:#FFFFFF;stroke:#000000;stroke-linecap:round;stroke-linejoin:round;stroke-miterlimit:10;" points="
		628.751,1363.457 697.507,1346.348 684.774,1295.181 616.019,1312.29 628.751,1363.457 	"/>
        <polyline style="fill:#FFFFFF;stroke:#000000;stroke-linecap:round;stroke-linejoin:round;stroke-miterlimit:10;" points="
		632.554,1355.432 683.349,1306.036 646.589,1268.236 595.794,1317.631 632.554,1355.432 	"/>
        <polyline style="fill:#FFFFFF;stroke:#000000;stroke-linecap:round;stroke-linejoin:round;stroke-miterlimit:10;" points="
		632.554,1355.432 683.349,1306.036 646.589,1268.236 595.794,1317.631 632.554,1355.432 	"/>
        <polyline style="fill:#FFFFFF;stroke:#000000;stroke-linecap:round;stroke-linejoin:round;stroke-miterlimit:10;" points="
		1658.468,1133.526 1399.045,1133.525 1399.045,1003.814 1658.468,1003.816 1658.468,1133.526 	"/>
        <polyline style="fill:#FFFFFF;stroke:#000000;stroke-linecap:round;stroke-linejoin:round;stroke-miterlimit:10;" points="
		1658.469,1009.82 1399.046,1009.818 1399.046,1003.814 1658.469,1003.816 1658.469,1009.82 	"/>
        <polyline style="fill:#FFFFFF;stroke:#000000;stroke-linecap:round;stroke-linejoin:round;stroke-miterlimit:10;" points="
		807.956,356.605 455.909,356.603 455.907,803.131 807.955,803.132 807.956,356.605 	"/>
        <polyline style="fill:#FFFFFF;stroke:#000000;stroke-linecap:round;stroke-linejoin:round;stroke-miterlimit:10;" points="
		455.908,340.988 455.908,446.621 367.839,446.62 367.839,340.988 455.908,340.988 	"/>
        <polyline style="fill:#FFFFFF;stroke:#000000;stroke-linecap:round;stroke-linejoin:round;stroke-miterlimit:10;" points="
		896.024,340.989 896.024,446.622 807.955,446.621 807.955,340.989 896.024,340.989 	"/>
        <polyline style="fill:#FFFFFF;stroke:#000000;stroke-linecap:round;stroke-linejoin:round;stroke-miterlimit:10;" points="
		862.394,394.764 864.581,383.875 846.217,380.184 844.029,391.073 862.394,394.764 	"/>
        <polyline style="fill:#FFFFFF;stroke:#000000;stroke-linecap:round;stroke-linejoin:round;stroke-miterlimit:10;" points="
		862.394,394.764 864.581,383.875 846.217,380.184 844.029,391.073 862.394,394.764 	"/>
        <polyline style="fill:#FFFFFF;stroke:#000000;stroke-linecap:round;stroke-linejoin:round;stroke-miterlimit:10;" points="
		414.558,386.516 405.004,380.853 395.452,396.967 405.007,402.629 414.558,386.516 	"/>
        <polyline style="fill:#FFFFFF;stroke:#000000;stroke-linecap:round;stroke-linejoin:round;stroke-miterlimit:10;" points="
		414.558,386.516 405.004,380.853 395.452,396.967 405.007,402.629 414.558,386.516 	"/>
        <polyline style="fill:#FFFFFF;stroke:#000000;stroke-linecap:round;stroke-linejoin:round;stroke-miterlimit:10;" points="
		1158.214,725.8 1158.214,340.989 1028.502,340.989 1028.504,725.8 1158.214,725.8 	"/>
        <polyline style="fill:#FFFFFF;stroke:#000000;stroke-linecap:round;stroke-linejoin:round;stroke-miterlimit:10;" points="
		1034.507,725.8 1034.506,340.989 1028.502,340.989 1028.504,725.8 1034.507,725.8 	"/>
        <polyline style="fill:none;stroke:#000000;stroke-linecap:round;stroke-linejoin:round;stroke-miterlimit:10;" points="
		1618.304,1199.807 1609.481,1215.687 1618.304,1231.567 	"/>
        <polyline style="fill:none;stroke:#000000;stroke-linecap:round;stroke-linejoin:round;stroke-miterlimit:10;" points="
		1609.482,1240.389 1593.602,1231.565 1577.723,1240.389 	"/>
        <polyline style="fill:none;stroke:#000000;stroke-linecap:round;stroke-linejoin:round;stroke-miterlimit:10;" points="
		1568.901,1231.567 1577.724,1215.687 1568.901,1199.807 	"/>
        <polyline style="fill:none;stroke:#000000;stroke-linecap:round;stroke-linejoin:round;stroke-miterlimit:10;" points="
		1577.723,1190.985 1593.602,1199.809 1609.482,1190.985 	"/>
        <polyline style="fill:none;stroke:#000000;stroke-linecap:round;stroke-linejoin:round;stroke-miterlimit:10;" points="
		774.549,978.355 774.547,990.915 523.344,990.879 523.346,978.319 774.549,978.355 	"/>
        <polyline style="fill:none;stroke:#000000;stroke-linecap:round;stroke-linejoin:round;stroke-miterlimit:10;" points="
		743.15,965.791 774.549,978.355 523.347,978.319 554.748,965.763 743.15,965.791 	"/>
        <polyline style="fill:none;stroke:#000000;stroke-linecap:round;stroke-linejoin:round;stroke-miterlimit:10;" points="
		774.549,935.882 774.547,923.322 523.344,923.358 523.346,935.919 774.549,935.882 	"/>
        <polyline style="fill:none;stroke:#000000;stroke-linecap:round;stroke-linejoin:round;stroke-miterlimit:10;" points="
		743.15,948.447 774.549,935.882 523.347,935.918 554.748,948.474 743.15,948.447 	"/>
        <path style="fill:#FFFFFF;stroke:#000000;stroke-linecap:round;stroke-linejoin:round;stroke-miterlimit:10;" d="
		M1564.765,1457.625c-0.454,9.043,9.527,22.039,24.036,15.966c9.96-4.16,33.707-15.98,33.707-15.98s-23.753-11.809-33.715-15.964
		C1574.281,1435.582,1564.306,1448.583,1564.765,1457.625z"/>
        <path style="fill:#FFFFFF;stroke:#000000;stroke-linecap:round;stroke-linejoin:round;stroke-miterlimit:10;" d="M946.06,1345.253
		c0,10.549,2.88,20.432,7.894,28.913c5.015,8.481,12.164,15.557,20.701,20.49c1.552,0.896,3.309,1.01,4.863,0.49
		c1.553-0.52,2.902-1.671,3.638-3.305c0.008-0.018,0.016-0.037,0.025-0.055c0.008-0.018,0.016-0.036,0.025-0.055
		c0.609-1.356,0.632-2.834,0.18-4.158c-0.451-1.324-1.377-2.494-2.667-3.235c-6.767-3.885-12.432-9.475-16.404-16.183
		c-3.972-6.709-6.252-14.539-6.252-22.902c0-8.364,2.281-16.193,6.253-22.902s9.636-12.3,16.404-16.184
		c1.29-0.74,2.216-1.91,2.667-3.234c0.452-1.323,0.428-2.801-0.181-4.159c-0.008-0.018-0.016-0.036-0.025-0.054
		c-0.008-0.018-0.016-0.037-0.025-0.055c-0.735-1.634-2.084-2.786-3.637-3.305c-1.554-0.52-3.311-0.407-4.863,0.49
		c-8.538,4.934-15.686,12.01-20.701,20.491C948.94,1324.821,946.06,1334.704,946.06,1345.253"/>
        <path style="fill:#FFFFFF;stroke:#000000;stroke-linecap:round;stroke-linejoin:round;stroke-miterlimit:10;" d="M946.059,1487.726
		c0,10.549,2.88,20.432,7.894,28.913c5.015,8.481,12.164,15.557,20.701,20.49c1.552,0.896,3.309,1.01,4.863,0.49
		c1.553-0.52,2.902-1.671,3.638-3.305c0.008-0.019,0.016-0.037,0.025-0.055c0.008-0.018,0.016-0.036,0.025-0.055
		c0.609-1.356,0.632-2.835,0.18-4.159c-0.452-1.323-1.377-2.493-2.668-3.234c-6.767-3.885-12.432-9.475-16.404-16.184
		c-3.972-6.71-6.252-14.538-6.252-22.902s2.281-16.193,6.253-22.902s9.636-12.3,16.404-16.184c1.29-0.74,2.216-1.91,2.668-3.234
		s0.428-2.801-0.181-4.159c-0.008-0.018-0.016-0.036-0.025-0.054c-0.008-0.018-0.016-0.037-0.025-0.055
		c-0.735-1.634-2.084-2.786-3.637-3.305c-1.554-0.52-3.311-0.407-4.863,0.49c-8.538,4.934-15.686,12.01-20.701,20.491
		C948.939,1467.294,946.059,1477.178,946.059,1487.726"/>
        <path style="fill:#FFFFFF;stroke:#000000;stroke-linecap:round;stroke-linejoin:round;stroke-miterlimit:10;" d="M1026.53,1383.746
		c-6.824,4.161-14.842,6.558-23.418,6.558c-24.881,0-45.051-20.17-45.051-45.051s20.17-45.051,45.051-45.051
		c8.574,0,16.588,2.395,23.411,6.553L1026.53,1383.746z"/>
        <path style="fill:#FFFFFF;stroke:#000000;stroke-linecap:round;stroke-linejoin:round;stroke-miterlimit:10;" d="M983.696,1301.042
		c0-4.599-4.985-7.41-8.978-5.13c-17.12,9.78-28.659,28.213-28.659,49.341c0,21.128,11.539,39.561,28.658,49.341
		c3.993,2.281,8.979-0.531,8.979-5.13c-0.001-2.185-1.249-4.109-3.14-5.204c-13.448-7.794-22.495-22.344-22.495-39.007
		s9.046-31.212,22.495-39.005C982.446,1305.151,983.696,1303.227,983.696,1301.042"/>
        <path style="fill:#FFFFFF;stroke:#000000;stroke-linecap:round;stroke-linejoin:round;stroke-miterlimit:10;" d="
		M1026.529,1526.219c-6.824,4.161-14.841,6.558-23.418,6.558c-24.881,0-45.051-20.17-45.051-45.051s20.17-45.051,45.051-45.051
		c8.574,0,16.588,2.395,23.411,6.553L1026.529,1526.219z"/>
        <path style="fill:#FFFFFF;stroke:#000000;stroke-linecap:round;stroke-linejoin:round;stroke-miterlimit:10;" d="M983.695,1443.515
		c0-4.599-4.985-7.41-8.978-5.13c-17.12,9.78-28.659,28.213-28.659,49.341c0,21.128,11.539,39.56,28.658,49.34
		c3.993,2.281,8.979-0.531,8.979-5.129c-0.001-2.186-1.249-4.109-3.14-5.205c-13.448-7.794-22.495-22.344-22.495-39.006
		c0-16.663,9.046-31.213,22.495-39.006C982.446,1447.625,983.695,1445.7,983.695,1443.515"/>
        <path style="fill:#FFFFFF;stroke:#000000;stroke-linecap:round;stroke-linejoin:round;stroke-miterlimit:10;" d="
		M1083.547,1307.509l8.097,6.442l2.97-3.735l-8.097-6.441c-0.549-0.437-1.347-0.346-1.783,0.203l-1.391,1.747
		C1082.908,1306.274,1082.999,1307.073,1083.547,1307.509"/>
        <path style="fill:#FFFFFF;stroke:#000000;stroke-linecap:round;stroke-linejoin:round;stroke-miterlimit:10;" d="
		M1083.547,1307.509l8.097,6.442l2.97-3.735l-8.097-6.441c-0.549-0.437-1.347-0.346-1.783,0.203l-1.391,1.747
		C1082.908,1306.274,1082.999,1307.073,1083.547,1307.509"/>
        <path style="fill:#FFFFFF;stroke:#000000;stroke-linecap:round;stroke-linejoin:round;stroke-miterlimit:10;" d="
		M1092.624,1311.681c-4.61,5.794-3.65,14.229,2.145,18.839c5.794,4.61,14.228,3.65,18.839-2.145
		c4.609-5.794,3.649-14.228-2.145-18.839C1105.668,1304.927,1097.234,1305.887,1092.624,1311.681z"/>
        <path style="fill:#FFFFFF;stroke:#000000;stroke-linecap:round;stroke-linejoin:round;stroke-miterlimit:10;" d="
		M1092.624,1311.681c-4.61,5.794-3.65,14.229,2.145,18.839c5.794,4.61,14.228,3.65,18.839-2.145
		c4.609-5.794,3.649-14.228-2.145-18.839C1105.668,1304.927,1097.234,1305.887,1092.624,1311.681z"/>
        <path style="fill:#FFFFFF;stroke:#000000;stroke-linecap:round;stroke-linejoin:round;stroke-miterlimit:10;" d="
		M1095.363,1313.861c-3.406,4.281-2.697,10.513,1.584,13.919s10.514,2.697,13.919-1.584c3.406-4.281,2.697-10.514-1.584-13.919
		C1105.001,1308.87,1098.77,1309.58,1095.363,1313.861z"/>
        <path style="fill:#FFFFFF;stroke:#000000;stroke-linecap:round;stroke-linejoin:round;stroke-miterlimit:10;" d="
		M1095.363,1313.861c-3.406,4.281-2.697,10.513,1.584,13.919s10.514,2.697,13.919-1.584c3.406-4.281,2.697-10.514-1.584-13.919
		C1105.001,1308.87,1098.77,1309.58,1095.363,1313.861z"/>
        <path style="fill:#FFFFFF;stroke:#000000;stroke-linecap:round;stroke-linejoin:round;stroke-miterlimit:10;" d="
		M1057.346,1350.316c-13.819,0-25.023,11.203-25.023,25.024c0,13.819,11.204,25.022,25.024,25.022
		c13.819-0.001,25.022-11.204,25.022-25.023C1082.37,1361.52,1071.166,1350.316,1057.346,1350.316z"/>
        <path style="fill:#FFFFFF;stroke:#000000;stroke-linecap:round;stroke-linejoin:round;stroke-miterlimit:10;" d="
		M1057.346,1350.316c-13.819,0-25.023,11.203-25.023,25.024c0,13.819,11.204,25.022,25.024,25.022
		c13.819-0.001,25.022-11.204,25.022-25.023C1082.37,1361.52,1071.166,1350.316,1057.346,1350.316z"/>
        <path style="fill:#FFFFFF;stroke:#000000;stroke-linecap:round;stroke-linejoin:round;stroke-miterlimit:10;" d="
		M1057.347,1361.092c-7.869,0-14.247,6.38-14.247,14.248s6.379,14.247,14.247,14.247c7.869,0,14.248-6.379,14.248-14.248
		C1071.594,1367.47,1065.215,1361.092,1057.347,1361.092"/>
        <path style="fill:#FFFFFF;stroke:#000000;stroke-linecap:round;stroke-linejoin:round;stroke-miterlimit:10;" d="
		M1057.347,1361.092c-7.869,0-14.247,6.38-14.247,14.248s6.379,14.247,14.247,14.247c7.869,0,14.248-6.379,14.248-14.248
		C1071.594,1367.47,1065.215,1361.092,1057.347,1361.092"/>
        <path style="fill:#FFFFFF;stroke:#000000;stroke-linecap:round;stroke-linejoin:round;stroke-miterlimit:10;" d="M1072.339,1322.93
		c-3.479,0-6.299,1.736-6.299,3.876c0,2.141,2.82,3.877,6.299,3.877c3.479-0.001,6.299-1.736,6.299-3.877
		C1078.637,1324.665,1075.817,1322.93,1072.339,1322.93"/>
        <path style="fill:#FFFFFF;stroke:#000000;stroke-linecap:round;stroke-linejoin:round;stroke-miterlimit:10;" d="M1072.339,1322.93
		c-3.479,0-6.299,1.736-6.299,3.876c0,2.141,2.82,3.877,6.299,3.877c3.479-0.001,6.299-1.736,6.299-3.877
		C1078.637,1324.665,1075.817,1322.93,1072.339,1322.93"/>
        <path style="fill:#FFFFFF;stroke:#000000;stroke-linecap:round;stroke-linejoin:round;stroke-miterlimit:10;" d="
		M1078.639,1416.177h-6.299c-3.48,0-6.3-1.735-6.3-3.876s2.82-3.876,6.3-3.877h6.299"/>
        <path style="fill:#FFFFFF;stroke:#000000;stroke-linecap:round;stroke-linejoin:round;stroke-miterlimit:10;" d="
		M1078.639,1416.177h-6.299c-3.48,0-6.3-1.735-6.3-3.876s2.82-3.876,6.3-3.877h6.299"/>
        <path style="fill:#FFFFFF;stroke:#000000;stroke-linecap:round;stroke-linejoin:round;stroke-miterlimit:10;" d="
		M1055.327,1336.355v6.018h23.31v-0.49c0-3.054-2.475-5.529-5.528-5.529h-17.782L1055.327,1336.355L1055.327,1336.355z"/>
        <path style="fill:#FFFFFF;stroke:#000000;stroke-linecap:round;stroke-linejoin:round;stroke-miterlimit:10;" d="
		M1055.327,1336.355v6.018h23.31v-0.49c0-3.054-2.475-5.529-5.528-5.529h-17.782L1055.327,1336.355L1055.327,1336.355z"/>
        <path style="fill:#FFFFFF;stroke:#000000;stroke-linecap:round;stroke-linejoin:round;stroke-miterlimit:10;" d="M1038.476,1339.12
		v0.49c0,1.526,1.238,2.764,2.764,2.764h14.087v-6.019l-14.087,0.001C1039.714,1336.356,1038.476,1337.594,1038.476,1339.12z"/>
        <path style="fill:#FFFFFF;stroke:#000000;stroke-linecap:round;stroke-linejoin:round;stroke-miterlimit:10;" d="M1038.476,1339.12
		v0.49c0,1.526,1.238,2.764,2.764,2.764h14.087v-6.019l-14.087,0.001C1039.714,1336.356,1038.476,1337.594,1038.476,1339.12z"/>
        <path style="fill:#FFFFFF;stroke:#000000;stroke-linecap:round;stroke-linejoin:round;stroke-miterlimit:10;" d="M663.999,1606.601
		H803.68c3.863,0,6.996,3.132,6.996,6.996v36.968c0,3.863-3.132,6.996-6.996,6.996H663.999c-3.864,0-6.996-3.133-6.996-6.996
		v-36.968C657.003,1609.733,660.136,1606.601,663.999,1606.601z"/>
        <path style="fill:#FFFFFF;stroke:#000000;stroke-linecap:round;stroke-linejoin:round;stroke-miterlimit:10;" d="M663.999,1606.601
		H803.68c3.863,0,6.996-3.131,6.996-6.995v-105.569c0-3.863-3.132-6.996-6.996-6.996H663.999c-3.864,0-6.996,3.132-6.996,6.996
		v105.569C657.003,1603.469,660.136,1606.601,663.999,1606.601z"/>
        <path style="fill:#FFFFFF;stroke:#000000;stroke-linecap:round;stroke-linejoin:round;stroke-miterlimit:10;" d="M510.328,1606.601
		h139.68c3.864,0,6.996,3.132,6.996,6.996v36.968c0,3.863-3.132,6.996-6.996,6.996h-139.68c-3.864,0-6.996-3.133-6.996-6.996
		v-36.968C503.332,1609.733,506.464,1606.601,510.328,1606.601z"/>
        <path style="fill:#FFFFFF;stroke:#000000;stroke-linecap:round;stroke-linejoin:round;stroke-miterlimit:10;" d="M510.328,1606.601
		h139.68c3.864,0,6.996-3.131,6.996-6.995v-105.569c0-3.863-3.132-6.996-6.996-6.996h-139.68c-3.864,0-6.996,3.132-6.996,6.996
		v105.569C503.332,1603.469,506.464,1606.601,510.328,1606.601z"/>
        <path style="fill:#FFFFFF;stroke:#000000;stroke-linecap:round;stroke-linejoin:round;stroke-miterlimit:10;" d="M356.657,1606.601
		h139.68c3.864,0,6.996,3.132,6.996,6.996v36.968c0,3.863-3.132,6.996-6.996,6.996h-139.68c-3.864,0-6.996-3.133-6.996-6.996
		v-36.968C349.661,1609.733,352.793,1606.601,356.657,1606.601z"/>
        <path style="fill:#FFFFFF;stroke:#000000;stroke-linecap:round;stroke-linejoin:round;stroke-miterlimit:10;" d="M356.657,1606.601
		h139.68c3.864,0,6.996-3.131,6.996-6.995v-173.984c0-3.863-3.132-6.995-6.996-6.995h-139.68c-3.864,0-6.996,3.132-6.996,6.995
		v173.984C349.661,1603.469,352.793,1606.601,356.657,1606.601z"/>
        <path style="fill:#FFFFFF;stroke:#000000;stroke-linecap:round;stroke-linejoin:round;stroke-miterlimit:10;" d="M739.123,1343.394
		c0-11.727,0-34.99,0-46.716c-0.001-11.997-9.835-18.127-22.046-20.129c-49.809-7.292-100.415-7.293-150.224-0.001
		c-12.211,2.001-22.045,8.13-22.046,20.128c0,11.727,0,34.99,0,46.717c0.001,11.996,9.834,18.127,22.046,20.128
		c49.809,7.293,100.416,7.294,150.224,0.001C729.287,1361.52,739.123,1355.391,739.123,1343.394"/>
        <path style="fill:#FFFFFF;stroke:#000000;stroke-linecap:round;stroke-linejoin:round;stroke-miterlimit:10;" d="M422.507,1112.187
		c-4.922,19.826-24.983,31.908-44.809,26.986c-19.825-4.922-31.908-24.983-26.986-44.808c4.921-19.826,24.983-31.908,44.809-26.987
		C415.346,1072.299,427.428,1092.361,422.507,1112.187"/>
        <path style="fill:#FFFFFF;stroke:#000000;stroke-linecap:round;stroke-linejoin:round;stroke-miterlimit:10;" d="M422.507,1112.187
		c-4.922,19.826-24.983,31.908-44.809,26.986c-19.825-4.922-31.908-24.983-26.986-44.808c4.921-19.826,24.983-31.908,44.809-26.987
		C415.346,1072.299,427.428,1092.361,422.507,1112.187"/>
        <path style="fill:#FFFFFF;stroke:#000000;stroke-linecap:round;stroke-linejoin:round;stroke-miterlimit:10;" d="M418.517,1111.196
		c-4.374,17.621-22.205,28.361-39.828,23.987c-17.621-4.374-28.361-22.205-23.987-39.828c4.375-17.621,22.206-28.361,39.828-23.987
		C412.151,1075.744,422.891,1093.575,418.517,1111.196"/>
        <path style="fill:#FFFFFF;stroke:#000000;stroke-linecap:round;stroke-linejoin:round;stroke-miterlimit:10;" d="M418.517,1111.196
		c-4.374,17.621-22.205,28.361-39.828,23.987c-17.621-4.374-28.361-22.205-23.987-39.828c4.375-17.621,22.206-28.361,39.828-23.987
		C412.151,1075.744,422.891,1093.575,418.517,1111.196"/>
        <path style="fill:#FFFFFF;stroke:#000000;stroke-linecap:round;stroke-linejoin:round;stroke-miterlimit:10;" d="M386.661,1030.77
		c10.897,21.483,10.033,49.521-0.09,71.021C376.705,1079.962,375.476,1052.241,386.661,1030.77"/>
        <path style="fill:#FFFFFF;stroke:#000000;stroke-linecap:round;stroke-linejoin:round;stroke-miterlimit:10;" d="M386.661,1030.77
		c10.897,21.483,10.033,49.521-0.09,71.021C376.705,1079.962,375.476,1052.241,386.661,1030.77"/>
        <path style="fill:#FFFFFF;stroke:#000000;stroke-linecap:round;stroke-linejoin:round;stroke-miterlimit:10;" d="M346.256,1042.223
		c21.092,11.636,36.145,35.306,39.865,58.777C365.687,1088.5,349.082,1066.267,346.256,1042.223z"/>
        <path style="fill:#FFFFFF;stroke:#000000;stroke-linecap:round;stroke-linejoin:round;stroke-miterlimit:10;" d="M346.256,1042.223
		c21.092,11.636,36.145,35.306,39.865,58.777C365.687,1088.5,349.082,1066.267,346.256,1042.223z"/>
        <path style="fill:#FFFFFF;stroke:#000000;stroke-linecap:round;stroke-linejoin:round;stroke-miterlimit:10;" d="M320.989,1073.974
		c24.025-1.755,49.553,9.87,65.476,27.512C362.519,1102.156,336.474,1092.583,320.989,1073.974z"/>
        <path style="fill:#FFFFFF;stroke:#000000;stroke-linecap:round;stroke-linejoin:round;stroke-miterlimit:10;" d="M320.989,1073.974
		c24.025-1.755,49.553,9.87,65.476,27.512C362.519,1102.156,336.474,1092.583,320.989,1073.974z"/>
        <path style="fill:#FFFFFF;stroke:#000000;stroke-linecap:round;stroke-linejoin:round;stroke-miterlimit:10;" d="M322.295,1130.2
		c14.956-18.884,40.784-29.826,64.547-29.623C371.141,1118.669,346.475,1131.379,322.295,1130.2"/>
        <path style="fill:#FFFFFF;stroke:#000000;stroke-linecap:round;stroke-linejoin:round;stroke-miterlimit:10;" d="M322.295,1130.2
		c14.956-18.884,40.784-29.826,64.547-29.623C371.141,1118.669,346.475,1131.379,322.295,1130.2"/>
        <path style="fill:#FFFFFF;stroke:#000000;stroke-linecap:round;stroke-linejoin:round;stroke-miterlimit:10;" d="M349.598,1162.111
		c1.747-24.026,16.951-47.599,36.715-60.795C383.504,1125.105,370.256,1149.487,349.598,1162.111z"/>
        <path style="fill:#FFFFFF;stroke:#000000;stroke-linecap:round;stroke-linejoin:round;stroke-miterlimit:10;" d="M349.598,1162.111
		c1.747-24.026,16.951-47.599,36.715-60.795C383.504,1125.105,370.256,1149.487,349.598,1162.111z"/>
        <path style="fill:#FFFFFF;stroke:#000000;stroke-linecap:round;stroke-linejoin:round;stroke-miterlimit:10;" d="M427.143,1159.468
		c-21.093-11.636-36.145-35.305-39.866-58.777C407.712,1113.192,424.318,1135.425,427.143,1159.468z"/>
        <path style="fill:#FFFFFF;stroke:#000000;stroke-linecap:round;stroke-linejoin:round;stroke-miterlimit:10;" d="M427.143,1159.468
		c-21.093-11.636-36.145-35.305-39.866-58.777C407.712,1113.192,424.318,1135.425,427.143,1159.468z"/>
        <path style="fill:#FFFFFF;stroke:#000000;stroke-linecap:round;stroke-linejoin:round;stroke-miterlimit:10;" d="M452.41,1127.718
		c-24.025,1.755-49.553-9.87-65.476-27.512C410.88,1099.535,436.926,1109.109,452.41,1127.718z"/>
        <path style="fill:#FFFFFF;stroke:#000000;stroke-linecap:round;stroke-linejoin:round;stroke-miterlimit:10;" d="M452.41,1127.718
		c-24.025,1.755-49.553-9.87-65.476-27.512C410.88,1099.535,436.926,1109.109,452.41,1127.718z"/>
        <path style="fill:#FFFFFF;stroke:#000000;stroke-linecap:round;stroke-linejoin:round;stroke-miterlimit:10;" d="M451.105,1071.491
		c-14.956,18.884-40.784,29.826-64.548,29.623C402.258,1083.023,426.924,1070.312,451.105,1071.491"/>
        <path style="fill:#FFFFFF;stroke:#000000;stroke-linecap:round;stroke-linejoin:round;stroke-miterlimit:10;" d="M451.105,1071.491
		c-14.956,18.884-40.784,29.826-64.548,29.623C402.258,1083.023,426.924,1070.312,451.105,1071.491"/>
        <path style="fill:#FFFFFF;stroke:#000000;stroke-linecap:round;stroke-linejoin:round;stroke-miterlimit:10;" d="M423.801,1039.581
		c-1.747,24.026-16.951,47.599-36.715,60.795C389.895,1076.586,403.143,1052.204,423.801,1039.581z"/>
        <path style="fill:#FFFFFF;stroke:#000000;stroke-linecap:round;stroke-linejoin:round;stroke-miterlimit:10;" d="M423.801,1039.581
		c-1.747,24.026-16.951,47.599-36.715,60.795C389.895,1076.586,403.143,1052.204,423.801,1039.581z"/>
        <path style="fill:#FFFFFF;stroke:#000000;stroke-linecap:round;stroke-linejoin:round;stroke-miterlimit:10;" d="M389.006,1171.781
		c-11.643-21.089-11.761-49.139-2.396-70.981C397.234,1122.27,399.432,1149.933,389.006,1171.781z"/>
        <path style="fill:#FFFFFF;stroke:#000000;stroke-linecap:round;stroke-linejoin:round;stroke-miterlimit:10;" d="M389.006,1171.781
		c-11.643-21.089-11.761-49.139-2.396-70.981C397.234,1122.27,399.432,1149.933,389.006,1171.781z"/>
        <path style="fill:#FFFFFF;stroke:#000000;stroke-linecap:round;stroke-linejoin:round;stroke-miterlimit:10;" d="M474.673,1506.549
		v0.02c-0.485,21.895,2.484,43.729,8.799,64.698l0.006,0.019c1.645,5.464-2.521,10.941-8.225,10.814h-0.021
		c-21.894-0.485-43.728,2.484-64.697,8.799l-0.02,0.006c-5.463,1.644-10.941-2.521-10.814-8.225l0.001-0.021
		c0.484-21.894-2.485-43.728-8.799-64.697l-0.006-0.02c-1.645-5.463,2.521-10.94,8.225-10.814l0.02,0.001
		c21.895,0.485,43.728-2.484,64.698-8.799l0.02-0.006C469.322,1496.679,474.799,1500.845,474.673,1506.549"/>
        <path style="fill:#FFFFFF;stroke:#000000;stroke-linecap:round;stroke-linejoin:round;stroke-miterlimit:10;" d="M474.673,1506.549
		v0.02c-0.485,21.895,2.484,43.729,8.799,64.698l0.006,0.019c1.645,5.464-2.521,10.941-8.225,10.814h-0.021
		c-21.894-0.485-43.728,2.484-64.697,8.799l-0.02,0.006c-5.463,1.644-10.941-2.521-10.814-8.225l0.001-0.021
		c0.484-21.894-2.485-43.728-8.799-64.697l-0.006-0.02c-1.645-5.463,2.521-10.94,8.225-10.814l0.02,0.001
		c21.895,0.485,43.728-2.484,64.698-8.799l0.02-0.006C469.322,1496.679,474.799,1500.845,474.673,1506.549"/>
        <path style="fill:#FFFFFF;stroke:#000000;stroke-linecap:round;stroke-linejoin:round;stroke-miterlimit:10;" d="M469.979,1505.832
		c0.027,0.201,0.038,0.404,0.033,0.613c-0.247,11.161,0.39,22.407,1.892,33.447c1.502,11.041,3.891,22.048,7.104,32.719
		c0.065,0.22,0.11,0.421,0.137,0.62c0.145,1.064-0.192,2.146-0.926,2.97c-0.419,0.468-1.337,1.248-2.796,1.241l-0.088-0.004
		c-22.418-0.496-44.673,2.531-66.145,8.995l-0.115,0.036c-1.388,0.379-2.466-0.121-2.993-0.459c-0.926-0.598-1.54-1.55-1.685-2.617
		c-0.027-0.199-0.039-0.404-0.036-0.611c0.248-11.161-0.389-22.407-1.891-33.447c-1.502-11.041-3.891-22.048-7.104-32.719
		c-0.065-0.218-0.109-0.419-0.136-0.617c-0.145-1.067,0.193-2.149,0.926-2.973c0.419-0.47,1.336-1.248,2.794-1.241l0.089,0.004
		c22.417,0.495,44.673-2.532,66.144-8.996l0.116-0.036c1.388-0.379,2.468,0.122,2.993,0.459
		C469.22,1503.815,469.834,1504.767,469.979,1505.832z"/>
        <path style="fill:#FFFFFF;stroke:#000000;stroke-linecap:round;stroke-linejoin:round;stroke-miterlimit:10;" d="M469.979,1505.832
		c0.027,0.201,0.038,0.404,0.033,0.613c-0.247,11.161,0.39,22.407,1.892,33.447c1.502,11.041,3.891,22.048,7.104,32.719
		c0.065,0.22,0.11,0.421,0.137,0.62c0.145,1.064-0.192,2.146-0.926,2.97c-0.419,0.468-1.337,1.248-2.796,1.241l-0.088-0.004
		c-22.418-0.496-44.673,2.531-66.145,8.995l-0.115,0.036c-1.388,0.379-2.466-0.121-2.993-0.459c-0.926-0.598-1.54-1.55-1.685-2.617
		c-0.027-0.199-0.039-0.404-0.036-0.611c0.248-11.161-0.389-22.407-1.891-33.447c-1.502-11.041-3.891-22.048-7.104-32.719
		c-0.065-0.218-0.109-0.419-0.136-0.617c-0.145-1.067,0.193-2.149,0.926-2.973c0.419-0.47,1.336-1.248,2.794-1.241l0.089,0.004
		c22.417,0.495,44.673-2.532,66.144-8.996l0.116-0.036c1.388-0.379,2.468,0.122,2.993,0.459
		C469.22,1503.815,469.834,1504.767,469.979,1505.832z"/>
        <path style="fill:#FFFFFF;stroke:#000000;stroke-linecap:round;stroke-linejoin:round;stroke-miterlimit:10;" d="M459.578,1451.28
		l1.675,6.353c6.329,24.002,16.402,46.855,29.848,67.721l3.558,5.522c1.753,2.719,0.341,6.355-2.787,7.18l-6.352,1.675
		c-15.608,4.116-30.471,10.666-44.039,19.411l-5.523,3.559c-2.718,1.752-6.356,0.339-7.18-2.788l-1.675-6.353
		c-6.329-24.001-16.403-46.855-29.849-67.721l-3.558-5.523c-1.752-2.718-0.341-6.355,2.787-7.18l6.352-1.676
		c15.608-4.116,30.47-10.666,44.039-19.41l5.523-3.558C455.116,1446.74,458.753,1448.153,459.578,1451.28z"/>
        <path style="fill:#FFFFFF;stroke:#000000;stroke-linecap:round;stroke-linejoin:round;stroke-miterlimit:10;" d="M459.578,1451.28
		l1.675,6.353c6.329,24.002,16.402,46.855,29.848,67.721l3.558,5.522c1.753,2.719,0.341,6.355-2.787,7.18l-6.352,1.675
		c-15.608,4.116-30.471,10.666-44.039,19.411l-5.523,3.559c-2.718,1.752-6.356,0.339-7.18-2.788l-1.675-6.353
		c-6.329-24.001-16.403-46.855-29.849-67.721l-3.558-5.523c-1.752-2.718-0.341-6.355,2.787-7.18l6.352-1.676
		c15.608-4.116,30.47-10.666,44.039-19.41l5.523-3.558C455.116,1446.74,458.753,1448.153,459.578,1451.28z"/>
        <path style="fill:#FFFFFF;stroke:#000000;stroke-linecap:round;stroke-linejoin:round;stroke-miterlimit:10;" d="M456.745,1458.82
		c3.212,12.181,7.417,24.203,12.498,35.731c5.081,11.527,11.116,22.739,17.94,33.329l3.559,5.521l-6.411,1.823
		c-16.106,4.248-31.372,10.977-45.375,20l-5.521,3.557l-1.824-6.407c-3.212-12.182-7.415-24.202-12.495-35.729
		c-5.081-11.527-11.118-22.741-17.942-33.331l-3.558-5.521l6.411-1.822c16.106-4.249,31.373-10.977,45.375-20l5.522-3.558
		l0.139,0.028L456.745,1458.82z"/>
        <path style="fill:#FFFFFF;stroke:#000000;stroke-linecap:round;stroke-linejoin:round;stroke-miterlimit:10;" d="M456.745,1458.82
		c3.212,12.181,7.417,24.203,12.498,35.731c5.081,11.527,11.116,22.739,17.94,33.329l3.559,5.521l-6.411,1.823
		c-16.106,4.248-31.372,10.977-45.375,20l-5.521,3.557l-1.824-6.407c-3.212-12.182-7.415-24.202-12.495-35.729
		c-5.081-11.527-11.118-22.741-17.942-33.331l-3.558-5.521l6.411-1.822c16.106-4.249,31.373-10.977,45.375-20l5.522-3.558
		l0.139,0.028L456.745,1458.82z"/>
        <path style="fill:#FFFFFF;stroke:#000000;stroke-linecap:round;stroke-linejoin:round;stroke-miterlimit:10;" d="M638.555,436.93
		h-13.246v-38.451c0-11.499-9.321-20.82-20.82-20.82l-98.898-0.001c-11.498,0-20.82,9.322-20.82,20.821v38.451l-13.246-0.001
		v-67.313c0-2.874,2.331-5.205,5.205-5.205l310.407,0.001c2.874,0,5.205,2.331,5.205,5.206l-0.001,67.313h-13.247V398.48
		c0-11.499-9.321-20.82-20.82-20.82l-98.897-0.001c-11.499,0-20.821,9.321-20.821,20.82L638.555,436.93L638.555,436.93z"/>
        <path style="fill:#FFFFFF;stroke:#000000;stroke-linecap:round;stroke-linejoin:round;stroke-miterlimit:10;" d="M648.543,377.659
		h120.563c5.515,0,9.987,4.472,9.987,9.988v49.284l-140.538-0.001v-49.283C638.556,382.131,643.027,377.659,648.543,377.659z"/>
        <path style="fill:#FFFFFF;stroke:#000000;stroke-linecap:round;stroke-linejoin:round;stroke-miterlimit:10;" d="M494.758,377.658
		h120.563c5.515,0,9.987,4.472,9.987,9.988v49.284H484.77v-49.284C484.77,382.13,489.242,377.658,494.758,377.658z"/>
        <path style="fill:#FFFFFF;stroke:#000000;stroke-linecap:round;stroke-linejoin:round;stroke-miterlimit:10;" d="M789.842,790.122
		l-315.822-0.001c-1.379,0-2.497-1.118-2.497-2.498l0.001-350.693l320.817,0.001l-0.002,350.694
		C792.339,789.004,791.221,790.122,789.842,790.122z"/>
        <path style="fill:#FFFFFF;stroke:#000000;stroke-linecap:round;stroke-linejoin:round;stroke-miterlimit:10;" d="M837.73,410.752
		c8.039,8.265,21.255,8.45,29.521,0.412c8.265-8.038,8.45-21.255,0.412-29.52c-8.038-8.266-21.255-8.45-29.521-0.413
		C829.876,389.27,829.692,402.487,837.73,410.752"/>
        <path style="fill:#FFFFFF;stroke:#000000;stroke-linecap:round;stroke-linejoin:round;stroke-miterlimit:10;" d="M837.73,410.752
		c8.039,8.265,21.255,8.45,29.521,0.412c8.265-8.038,8.45-21.255,0.412-29.52c-8.038-8.266-21.255-8.45-29.521-0.413
		C829.876,389.27,829.692,402.487,837.73,410.752"/>
        <path style="fill:#FFFFFF;stroke:#000000;stroke-linecap:round;stroke-linejoin:round;stroke-miterlimit:10;" d="M814.569,493.204
		c12.332,12.681,32.61,12.965,45.291,0.632c12.682-12.332,12.965-32.61,0.633-45.291c-12.332-12.682-32.61-12.965-45.292-0.633
		C802.52,460.245,802.237,480.522,814.569,493.204z"/>
        <path style="fill:#FFFFFF;stroke:#000000;stroke-linecap:round;stroke-linejoin:round;stroke-miterlimit:10;" d="M814.569,493.204
		c12.332,12.681,32.61,12.965,45.291,0.632c12.682-12.332,12.965-32.61,0.633-45.291c-12.332-12.682-32.61-12.965-45.292-0.633
		C802.52,460.245,802.237,480.522,814.569,493.204z"/>
        <path style="fill:#FFFFFF;stroke:#000000;stroke-linecap:round;stroke-linejoin:round;stroke-miterlimit:10;" d="M828.53,479.627
		c4.834,4.971,12.783,5.082,17.754,0.248s5.082-12.783,0.248-17.753c-4.834-4.972-12.783-5.083-17.754-0.249
		C823.807,466.707,823.696,474.656,828.53,479.627"/>
        <path style="fill:#FFFFFF;stroke:#000000;stroke-linecap:round;stroke-linejoin:round;stroke-miterlimit:10;" d="M828.53,479.627
		c4.834,4.971,12.783,5.082,17.754,0.248s5.082-12.783,0.248-17.753c-4.834-4.972-12.783-5.083-17.754-0.249
		C823.807,466.707,823.696,474.656,828.53,479.627"/>
        <path style="fill:#FFFFFF;stroke:#000000;stroke-linecap:round;stroke-linejoin:round;stroke-miterlimit:10;" d="M831.166,477.063
		c3.419,3.514,9.038,3.593,12.554,0.175c3.515-3.419,3.593-9.039,0.175-12.554c-3.418-3.515-9.038-3.593-12.553-0.176
		C827.826,467.928,827.748,473.549,831.166,477.063"/>
        <path style="fill:#FFFFFF;stroke:#000000;stroke-linecap:round;stroke-linejoin:round;stroke-miterlimit:10;" d="M831.166,477.063
		c3.419,3.514,9.038,3.593,12.554,0.175c3.515-3.419,3.593-9.039,0.175-12.554c-3.418-3.515-9.038-3.593-12.553-0.176
		C827.826,467.928,827.748,473.549,831.166,477.063"/>
        <path style="fill:#FFFFFF;stroke:#000000;stroke-linecap:round;stroke-linejoin:round;stroke-miterlimit:10;" d="M844.458,449.707
		c0.434-0.423,0.753-0.978,0.883-1.621l16.421-81.876c0.337-1.689-0.758-3.335-2.449-3.673c-1.689-0.341-3.332,0.751-3.676,2.446
		l-16.421,81.876c-0.337,1.689,0.758,3.335,2.449,3.673C842.713,450.744,843.746,450.399,844.458,449.707"/>
        <path style="fill:#FFFFFF;stroke:#000000;stroke-linecap:round;stroke-linejoin:round;stroke-miterlimit:10;" d="M844.458,449.707
		c0.434-0.423,0.753-0.978,0.883-1.621l16.421-81.876c0.337-1.689-0.758-3.335-2.449-3.673c-1.689-0.341-3.332,0.751-3.676,2.446
		l-16.421,81.876c-0.337,1.689,0.758,3.335,2.449,3.673C842.713,450.744,843.746,450.399,844.458,449.707"/>
        <path style="fill:#FFFFFF;stroke:#000000;stroke-linecap:round;stroke-linejoin:round;stroke-miterlimit:10;" d="M421.5,415.077
		c10.458-4.856,14.998-17.27,10.143-27.727c-4.856-10.457-17.27-14.998-27.727-10.142s-14.999,17.27-10.142,27.726
		C398.629,415.391,411.043,419.933,421.5,415.077z"/>
        <path style="fill:#FFFFFF;stroke:#000000;stroke-linecap:round;stroke-linejoin:round;stroke-miterlimit:10;" d="M421.5,415.077
		c10.458-4.856,14.998-17.27,10.143-27.727c-4.856-10.457-17.27-14.998-27.727-10.142s-14.999,17.27-10.142,27.726
		C398.629,415.391,411.043,419.933,421.5,415.077z"/>
        <path style="fill:#FFFFFF;stroke:#000000;stroke-linecap:round;stroke-linejoin:round;stroke-miterlimit:10;" d="M491.669,464.178
		c16.044-7.45,23.011-26.495,15.56-42.539c-7.449-16.044-26.495-23.011-42.539-15.561c-16.044,7.45-23.01,26.496-15.56,42.54
		C456.579,464.661,475.625,471.629,491.669,464.178"/>
        <path style="fill:#FFFFFF;stroke:#000000;stroke-linecap:round;stroke-linejoin:round;stroke-miterlimit:10;" d="M491.669,464.178
		c16.044-7.45,23.011-26.495,15.56-42.539c-7.449-16.044-26.495-23.011-42.539-15.561c-16.044,7.45-23.01,26.496-15.56,42.54
		C456.579,464.661,475.625,471.629,491.669,464.178"/>
        <path style="fill:#FFFFFF;stroke:#000000;stroke-linecap:round;stroke-linejoin:round;stroke-miterlimit:10;" d="M483.467,446.516
		c6.289-2.92,9.02-10.386,6.1-16.675c-2.92-6.289-10.386-9.019-16.675-6.1c-6.289,2.921-9.02,10.385-6.1,16.675
		C469.712,446.705,477.178,449.436,483.467,446.516z"/>
        <path style="fill:#FFFFFF;stroke:#000000;stroke-linecap:round;stroke-linejoin:round;stroke-miterlimit:10;" d="M483.467,446.516
		c6.289-2.92,9.02-10.386,6.1-16.675c-2.92-6.289-10.386-9.019-16.675-6.1c-6.289,2.921-9.02,10.385-6.1,16.675
		C469.712,446.705,477.178,449.436,483.467,446.516z"/>
        <path style="fill:#FFFFFF;stroke:#000000;stroke-linecap:round;stroke-linejoin:round;stroke-miterlimit:10;" d="M481.919,443.181
		c4.447-2.065,6.378-7.344,4.313-11.791c-2.065-4.446-7.344-6.377-11.791-4.312c-4.447,2.064-6.378,7.343-4.313,11.79
		C472.192,443.314,477.471,445.246,481.919,443.181"/>
        <path style="fill:#FFFFFF;stroke:#000000;stroke-linecap:round;stroke-linejoin:round;stroke-miterlimit:10;" d="M481.919,443.181
		c4.447-2.065,6.378-7.344,4.313-11.791c-2.065-4.446-7.344-6.377-11.791-4.312c-4.447,2.064-6.378,7.343-4.313,11.79
		C472.192,443.314,477.471,445.246,481.919,443.181"/>
        <path style="fill:#FFFFFF;stroke:#000000;stroke-linecap:round;stroke-linejoin:round;stroke-miterlimit:10;" d="M460.49,421.596
		c-0.255-0.55-0.674-1.034-1.238-1.37l-71.853-42.549c-1.484-0.877-3.398-0.386-4.275,1.098c-0.88,1.481-0.393,3.394,1.094,4.278
		l71.853,42.549c1.484,0.877,3.398,0.386,4.275-1.098C460.892,423.586,460.908,422.497,460.49,421.596"/>
        <path style="fill:#FFFFFF;stroke:#000000;stroke-linecap:round;stroke-linejoin:round;stroke-miterlimit:10;" d="M460.49,421.596
		c-0.255-0.55-0.674-1.034-1.238-1.37l-71.853-42.549c-1.484-0.877-3.398-0.386-4.275,1.098c-0.88,1.481-0.393,3.394,1.094,4.278
		l71.853,42.549c1.484,0.877,3.398,0.386,4.275-1.098C460.892,423.586,460.908,422.497,460.49,421.596"/>
        <rect x="1351.484" y="1527.849" style="fill:#FFFFFF;stroke:#000000;stroke-linecap:round;stroke-linejoin:round;stroke-miterlimit:10;" width="177.272" height="129.711"/>
        <rect x="1122.328" y="1527.849" style="fill:#FFFFFF;stroke:#000000;stroke-linecap:round;stroke-linejoin:round;stroke-miterlimit:10;" width="99.421" height="129.711"/>
        <rect x="1528.757" y="1506.447" style="fill:#FFFFFF;stroke:#000000;stroke-linecap:round;stroke-linejoin:round;stroke-miterlimit:10;" width="129.757" height="151.114"/>
        <line style="fill:none;stroke:#000000;stroke-linecap:round;stroke-linejoin:round;stroke-miterlimit:10;" x1="1026.524" y1="1383.749" x2="1026.524" y2="1306.756"/>
        <line style="fill:none;stroke:#000000;stroke-linecap:round;stroke-linejoin:round;stroke-miterlimit:10;" x1="1081.646" y1="1482.325" x2="1041.965" y2="1525.992"/>
        <line style="fill:none;stroke:#000000;stroke-linecap:round;stroke-linejoin:round;stroke-miterlimit:10;" x1="1072.189" y1="1457.247" x2="1041.51" y2="1507.648"/>
        <line style="fill:none;stroke:#000000;stroke-linecap:round;stroke-linejoin:round;stroke-miterlimit:10;" x1="1072.189" y1="1457.247" x2="1041.51" y2="1507.648"/>
        <line style="fill:none;stroke:#000000;stroke-linecap:round;stroke-linejoin:round;stroke-miterlimit:10;" x1="1099.417" y1="1479.748" x2="1047.537" y2="1507.852"/>
        <line style="fill:none;stroke:#000000;stroke-linecap:round;stroke-linejoin:round;stroke-miterlimit:10;" x1="1099.417" y1="1479.748" x2="1047.537" y2="1507.852"/>
        <line style="fill:none;stroke:#000000;stroke-linecap:round;stroke-linejoin:round;stroke-miterlimit:10;" x1="1066.04" y1="1326.806" x2="1038.477" y2="1326.806"/>
        <line style="fill:none;stroke:#000000;stroke-linecap:round;stroke-linejoin:round;stroke-miterlimit:10;" x1="1066.04" y1="1326.806" x2="1038.477" y2="1326.806"/>
        <line style="fill:none;stroke:#000000;stroke-linecap:round;stroke-linejoin:round;stroke-miterlimit:10;" x1="1066.041" y1="1412.3" x2="1038.478" y2="1412.3"/>
        <line style="fill:none;stroke:#000000;stroke-linecap:round;stroke-linejoin:round;stroke-miterlimit:10;" x1="1066.041" y1="1412.3" x2="1038.478" y2="1412.3"/>
        <line style="fill:none;stroke:#000000;stroke-linecap:round;stroke-linejoin:round;stroke-miterlimit:10;" x1="1078.639" y1="1413.592" x2="1066.041" y2="1413.592"/>
        <line style="fill:none;stroke:#000000;stroke-linecap:round;stroke-linejoin:round;stroke-miterlimit:10;" x1="1078.639" y1="1413.592" x2="1066.041" y2="1413.592"/>
        <line style="fill:none;stroke:#000000;stroke-linecap:round;stroke-linejoin:round;stroke-miterlimit:10;" x1="1078.639" y1="1411.008" x2="1066.041" y2="1411.008"/>
        <line style="fill:none;stroke:#000000;stroke-linecap:round;stroke-linejoin:round;stroke-miterlimit:10;" x1="1078.639" y1="1411.008" x2="1066.041" y2="1411.008"/>
        <line style="fill:none;stroke:#000000;stroke-linecap:round;stroke-linejoin:round;stroke-miterlimit:10;" x1="671.157" y1="1322.529" x2="606.895" y2="1352.368"/>
        <line style="fill:none;stroke:#000000;stroke-linecap:round;stroke-linejoin:round;stroke-miterlimit:10;" x1="696.512" y1="1342.351" x2="627.756" y2="1359.459"/>
        <line style="fill:none;stroke:#000000;stroke-linecap:round;stroke-linejoin:round;stroke-miterlimit:10;" x1="696.512" y1="1342.351" x2="627.756" y2="1359.459"/>
        <line style="fill:none;stroke:#000000;stroke-linecap:round;stroke-linejoin:round;stroke-miterlimit:10;" x1="680.477" y1="1303.083" x2="629.682" y2="1352.479"/>
        <line style="fill:none;stroke:#000000;stroke-linecap:round;stroke-linejoin:round;stroke-miterlimit:10;" x1="680.477" y1="1303.083" x2="629.682" y2="1352.479"/>
        <line style="fill:none;stroke:#000000;stroke-linecap:round;stroke-linejoin:round;stroke-miterlimit:10;" x1="386.616" y1="1030.77" x2="386.616" y2="1101.791"/>
        <line style="fill:none;stroke:#000000;stroke-linecap:round;stroke-linejoin:round;stroke-miterlimit:10;" x1="386.616" y1="1030.77" x2="386.616" y2="1101.791"/>
        <line style="fill:none;stroke:#000000;stroke-linecap:round;stroke-linejoin:round;stroke-miterlimit:10;" x1="346.218" y1="1042.249" x2="386.157" y2="1100.976"/>
        <line style="fill:none;stroke:#000000;stroke-linecap:round;stroke-linejoin:round;stroke-miterlimit:10;" x1="346.218" y1="1042.249" x2="386.157" y2="1100.976"/>
        <line style="fill:none;stroke:#000000;stroke-linecap:round;stroke-linejoin:round;stroke-miterlimit:10;" x1="320.971" y1="1074.016" x2="386.482" y2="1101.445"/>
        <line style="fill:none;stroke:#000000;stroke-linecap:round;stroke-linejoin:round;stroke-miterlimit:10;" x1="320.971" y1="1074.016" x2="386.482" y2="1101.445"/>
        <line style="fill:none;stroke:#000000;stroke-linecap:round;stroke-linejoin:round;stroke-miterlimit:10;" x1="322.314" y1="1130.242" x2="386.824" y2="1100.536"/>
        <line style="fill:none;stroke:#000000;stroke-linecap:round;stroke-linejoin:round;stroke-miterlimit:10;" x1="322.314" y1="1130.242" x2="386.824" y2="1100.536"/>
        <line style="fill:none;stroke:#000000;stroke-linecap:round;stroke-linejoin:round;stroke-miterlimit:10;" x1="349.637" y1="1162.134" x2="386.275" y2="1101.293"/>
        <line style="fill:none;stroke:#000000;stroke-linecap:round;stroke-linejoin:round;stroke-miterlimit:10;" x1="349.637" y1="1162.134" x2="386.275" y2="1101.293"/>
        <line style="fill:none;stroke:#000000;stroke-linecap:round;stroke-linejoin:round;stroke-miterlimit:10;" x1="427.181" y1="1159.442" x2="387.242" y2="1100.716"/>
        <line style="fill:none;stroke:#000000;stroke-linecap:round;stroke-linejoin:round;stroke-miterlimit:10;" x1="427.181" y1="1159.442" x2="387.242" y2="1100.716"/>
        <line style="fill:none;stroke:#000000;stroke-linecap:round;stroke-linejoin:round;stroke-miterlimit:10;" x1="452.428" y1="1127.675" x2="386.918" y2="1100.246"/>
        <line style="fill:none;stroke:#000000;stroke-linecap:round;stroke-linejoin:round;stroke-miterlimit:10;" x1="452.428" y1="1127.675" x2="386.918" y2="1100.246"/>
        <line style="fill:none;stroke:#000000;stroke-linecap:round;stroke-linejoin:round;stroke-miterlimit:10;" x1="451.086" y1="1071.45" x2="386.575" y2="1101.156"/>
        <line style="fill:none;stroke:#000000;stroke-linecap:round;stroke-linejoin:round;stroke-miterlimit:10;" x1="451.086" y1="1071.45" x2="386.575" y2="1101.156"/>
        <line style="fill:none;stroke:#000000;stroke-linecap:round;stroke-linejoin:round;stroke-miterlimit:10;" x1="423.762" y1="1039.557" x2="387.124" y2="1100.398"/>
        <line style="fill:none;stroke:#000000;stroke-linecap:round;stroke-linejoin:round;stroke-miterlimit:10;" x1="423.762" y1="1039.557" x2="387.124" y2="1100.398"/>
        <line style="fill:none;stroke:#000000;stroke-linecap:round;stroke-linejoin:round;stroke-miterlimit:10;" x1="389.052" y1="1171.78" x2="386.566" y2="1100.803"/>
        <line style="fill:none;stroke:#000000;stroke-linecap:round;stroke-linejoin:round;stroke-miterlimit:10;" x1="389.052" y1="1171.78" x2="386.566" y2="1100.803"/>
        <line style="fill:none;stroke:#000000;stroke-linecap:round;stroke-linejoin:round;stroke-miterlimit:10;" x1="853.212" y1="392.918" x2="855.398" y2="382.032"/>
        <line style="fill:none;stroke:#000000;stroke-linecap:round;stroke-linejoin:round;stroke-miterlimit:10;" x1="853.212" y1="392.918" x2="855.398" y2="382.032"/>
        <line style="fill:none;stroke:#000000;stroke-linecap:round;stroke-linejoin:round;stroke-miterlimit:10;" x1="839.903" y1="459.178" x2="858.699" y2="365.597"/>
        <line style="fill:none;stroke:#000000;stroke-linecap:round;stroke-linejoin:round;stroke-miterlimit:10;" x1="839.903" y1="459.178" x2="858.699" y2="365.597"/>
        <line style="fill:none;stroke:#000000;stroke-linecap:round;stroke-linejoin:round;stroke-miterlimit:10;" x1="842.278" y1="447.473" x2="858.699" y2="365.598"/>
        <line style="fill:none;stroke:#000000;stroke-linecap:round;stroke-linejoin:round;stroke-miterlimit:10;" x1="842.278" y1="447.473" x2="858.699" y2="365.598"/>
        <line style="fill:none;stroke:#000000;stroke-linecap:round;stroke-linejoin:round;stroke-miterlimit:10;" x1="409.783" y1="394.572" x2="400.23" y2="388.912"/>
        <line style="fill:none;stroke:#000000;stroke-linecap:round;stroke-linejoin:round;stroke-miterlimit:10;" x1="409.783" y1="394.572" x2="400.23" y2="388.912"/>
        <line style="fill:none;stroke:#000000;stroke-linecap:round;stroke-linejoin:round;stroke-miterlimit:10;" x1="467.925" y1="429.025" x2="385.809" y2="380.366"/>
        <line style="fill:none;stroke:#000000;stroke-linecap:round;stroke-linejoin:round;stroke-miterlimit:10;" x1="467.925" y1="429.025" x2="385.809" y2="380.366"/>
        <line style="fill:none;stroke:#000000;stroke-linecap:round;stroke-linejoin:round;stroke-miterlimit:10;" x1="457.661" y1="422.916" x2="385.808" y2="380.367"/>
        <line style="fill:none;stroke:#000000;stroke-linecap:round;stroke-linejoin:round;stroke-miterlimit:10;" x1="457.661" y1="422.916" x2="385.808" y2="380.367"/>
        <line style="fill:none;stroke:#000000;stroke-linecap:round;stroke-linejoin:round;stroke-miterlimit:10;" x1="1625.361" y1="1215.687" x2="1561.843" y2="1215.687"/>
        <line style="fill:none;stroke:#000000;stroke-linecap:round;stroke-linejoin:round;stroke-miterlimit:10;" x1="1593.602" y1="1183.928" x2="1593.602" y2="1247.446"/>
        <polygon style="fill:#FFFFFF;stroke:#000000;stroke-linecap:round;stroke-linejoin:round;stroke-miterlimit:10;" points="
		869.353,965.766 869.569,1030.622 311.801,1030.622 311.585,965.766 	"/>
    </g>
    <g id="floor">
        <g>
            <polygon points="311.606,1815.384 253.235,1815.384 253.235,1804.555 253.235,1558.128 253.235,1547.299 253.235,1497.578 
			277.072,1497.578 296.485,1497.578 311.606,1497.578 311.606,1657.571 311.606,1705.113 		"/>
            <polygon points="1658.435,1705.113 311.606,1705.113 311.606,1657.571 1027.445,1657.571 1221.774,1657.571 1243.63,1657.571 
			1351.458,1657.571 1394.708,1657.571 1524.459,1657.571 1658.435,1657.571 		"/>
            <polygon points="1701.686,1705.113 1658.435,1705.113 1658.435,1657.571 1658.435,1410.286 1658.435,1280.535 1658.435,1150.851 
			1658.435,1133.551 1658.435,1001.423 1684.65,1001.423 1701.686,1001.423 		"/>
            <polygon points="1399.067,1150.851 1381.766,1150.851 1381.766,1003.8 1399.067,1003.8 1399.067,1133.551 		"/>
            <polygon points="277.072,1086.801 277.072,1097.63 253.235,1097.63 253.235,1091.357 253.235,1086.801 		"/>
            <polygon points="277.072,1086.801 253.235,1086.801 253.235,849.024 277.072,849.024 296.485,849.024 311.606,849.024 
			311.606,948.466 311.606,1086.801 296.485,1086.801 		"/>
            <polygon points="1175.486,948.466 1175.486,965.766 1146.103,965.766 1146.103,963.389 1146.103,948.466 1157.988,948.466 		"/>
            <polygon points="951.51,948.466 951.51,963.389 951.51,965.766 311.738,965.766 311.738,948.466 		"/>
            <polygon points="1175.486,948.466 1157.988,948.466 1157.988,756.581 1158.186,756.581 1175.486,756.581 		"/>
            <polygon points="277.072,838.195 277.072,849.024 253.235,849.024 253.235,844.93 253.235,838.195 		"/>
            <polygon points="1684.65,778.767 1658.435,778.767 1658.435,756.581 1658.435,737.234 1658.435,369.178 1658.435,340.983 
			1701.686,340.983 1701.686,778.767 		"/>
            <polygon points="1158.186,756.581 1158.186,340.983 1175.486,340.983 1175.486,369.178 1175.486,735.121 1175.486,756.581 		"/>
            <polygon points="1658.435,756.581 1510.328,756.581 1510.328,743.375 1510.328,737.234 1643.248,737.234 1658.435,737.234 		"/>
            <polygon points="1326.169,735.121 1337.328,735.121 1337.328,743.375 1337.328,756.581 1175.486,756.581 1175.486,735.121 		"/>
            <polygon points="1658.435,737.234 1643.248,737.234 1643.248,427.351 1643.248,416.522 1643.248,369.178 1658.435,369.178 		"/>
            <polygon points="277.072,438.247 277.072,449.076 253.235,449.076 253.235,442.605 253.235,438.247 		"/>
            <polygon points="277.072,438.247 253.235,438.247 253.235,196.112 253.235,185.349 311.87,185.349 311.87,295.62 311.87,340.983 
			311.87,438.247 311.606,438.247 296.485,438.247 		"/>
            <polygon points="1326.169,369.178 1175.486,369.178 1175.486,340.983 1658.435,340.983 1658.435,369.178 1643.248,369.178 
			1485.171,369.178 1474.408,369.178 		"/>
            <polygon points="1158.186,340.983 311.87,340.983 311.87,295.62 1701.686,295.62 1701.686,340.983 1658.435,340.983 
			1175.486,340.983 		"/>
            <polygon style="fill:none;stroke:#000000;stroke-linecap:round;stroke-linejoin:round;stroke-miterlimit:10;" points="
			1221.774,1657.571 1221.774,1527.82 1351.458,1527.82 1351.458,1657.571 1243.63,1657.571 		"/>
            <rect x="253.235" y="1486.749" width="23.837" height="10.829"/>
            <rect x="1399.067" y="1133.551" width="259.369" height="17.3"/>
            <rect x="1511.385" y="373.47" style="fill:none;stroke:#000000;stroke-linecap:round;stroke-linejoin:round;stroke-miterlimit:10;" width="106.838" height="24.828"/>
            <rect x="1394.708" y="1527.82" style="fill:none;stroke:#000000;stroke-linecap:round;stroke-linejoin:round;stroke-miterlimit:10;" width="129.75" height="129.75"/>
            <rect x="1528.751" y="1280.535" style="fill:none;stroke:#000000;stroke-linecap:round;stroke-linejoin:round;stroke-miterlimit:10;" width="129.684" height="129.75"/>
            <line style="fill:none;stroke:#000000;stroke-linecap:round;stroke-linejoin:round;stroke-miterlimit:10;" x1="1899.646" y1="791.115" x2="1701.686" y2="791.115"/>
            <line style="fill:none;stroke:#000000;stroke-linecap:round;stroke-linejoin:round;stroke-miterlimit:10;" x1="1701.686" y1="791.115" x2="1701.686" y2="778.767"/>
            <line style="fill:none;stroke:#000000;stroke-linecap:round;stroke-linejoin:round;stroke-miterlimit:10;" x1="1701.686" y1="1001.423" x2="1701.686" y2="989.075"/>
            <line style="fill:none;stroke:#000000;stroke-linecap:round;stroke-linejoin:round;stroke-miterlimit:10;" x1="1684.65" y1="791.115" x2="1684.65" y2="778.767"/>
            <line style="fill:none;stroke:#000000;stroke-linecap:round;stroke-linejoin:round;stroke-miterlimit:10;" x1="1684.65" y1="1001.423" x2="1684.65" y2="989.075"/>
            <line style="fill:none;stroke:#000000;stroke-linecap:round;stroke-linejoin:round;stroke-miterlimit:10;" x1="1701.686" y1="989.075" x2="1684.65" y2="989.075"/>
            <line style="fill:none;stroke:#000000;stroke-linecap:round;stroke-linejoin:round;stroke-miterlimit:10;" x1="1701.686" y1="791.115" x2="1684.65" y2="791.115"/>
            <line style="fill:none;stroke:#000000;stroke-linecap:round;stroke-linejoin:round;stroke-miterlimit:10;" x1="1135.274" y1="775.532" x2="1135.274" y2="948.466"/>
            <line style="fill:none;stroke:#000000;stroke-linecap:round;stroke-linejoin:round;stroke-miterlimit:10;" x1="1135.274" y1="948.466" x2="1146.103" y2="948.466"/>
            <line style="fill:none;stroke:#000000;stroke-linecap:round;stroke-linejoin:round;stroke-miterlimit:10;" x1="951.51" y1="948.466" x2="962.339" y2="948.466"/>
            <line style="fill:none;stroke:#000000;stroke-linecap:round;stroke-linejoin:round;stroke-miterlimit:10;" x1="1135.274" y1="963.389" x2="1146.103" y2="963.389"/>
            <line style="fill:none;stroke:#000000;stroke-linecap:round;stroke-linejoin:round;stroke-miterlimit:10;" x1="951.51" y1="963.389" x2="962.339" y2="963.389"/>
            <line style="fill:none;stroke:#000000;stroke-linecap:round;stroke-linejoin:round;stroke-miterlimit:10;" x1="962.339" y1="948.466" x2="962.339" y2="963.389"/>
            <line style="fill:none;stroke:#000000;stroke-linecap:round;stroke-linejoin:round;stroke-miterlimit:10;" x1="1135.274" y1="948.466" x2="1135.274" y2="963.389"/>
            <line style="fill:none;stroke:#000000;stroke-linecap:round;stroke-linejoin:round;stroke-miterlimit:10;" x1="1326.169" y1="369.178" x2="1326.169" y2="735.121"/>
            <line style="fill:none;stroke:#000000;stroke-linecap:round;stroke-linejoin:round;stroke-miterlimit:10;" x1="1296.917" y1="445.444" x2="1296.917" y2="606.691"/>
            <line style="fill:none;stroke:#000000;stroke-linecap:round;stroke-linejoin:round;stroke-miterlimit:10;" x1="1204.804" y1="609.068" x2="1204.804" y2="445.444"/>
            <line style="fill:none;stroke:#000000;stroke-linecap:round;stroke-linejoin:round;stroke-miterlimit:10;" x1="1346.968" y1="910.367" x2="1346.968" y2="756.581"/>
            <line style="fill:none;stroke:#000000;stroke-linecap:round;stroke-linejoin:round;stroke-miterlimit:10;" x1="1346.968" y1="756.581" x2="1337.328" y2="756.581"/>
            <line style="fill:none;stroke:#000000;stroke-linecap:round;stroke-linejoin:round;stroke-miterlimit:10;" x1="1510.328" y1="756.581" x2="1500.688" y2="756.581"/>
            <line style="fill:none;stroke:#000000;stroke-linecap:round;stroke-linejoin:round;stroke-miterlimit:10;" x1="1346.968" y1="743.375" x2="1337.328" y2="743.375"/>
            <line style="fill:none;stroke:#000000;stroke-linecap:round;stroke-linejoin:round;stroke-miterlimit:10;" x1="1510.328" y1="743.375" x2="1500.688" y2="743.375"/>
            <line style="fill:none;stroke:#000000;stroke-linecap:round;stroke-linejoin:round;stroke-miterlimit:10;" x1="1500.688" y1="756.581" x2="1500.688" y2="743.375"/>
            <line style="fill:none;stroke:#000000;stroke-linecap:round;stroke-linejoin:round;stroke-miterlimit:10;" x1="1346.968" y1="756.581" x2="1346.968" y2="743.375"/>
            <line style="fill:none;stroke:#000000;stroke-linecap:round;stroke-linejoin:round;stroke-miterlimit:10;" x1="311.606" y1="1497.578" x2="311.606" y2="1086.801"/>
            <line style="fill:none;stroke:#000000;stroke-linecap:round;stroke-linejoin:round;stroke-miterlimit:10;" x1="286.778" y1="1471.628" x2="286.778" y2="1112.751"/>
            <line style="fill:none;stroke:#000000;stroke-linecap:round;stroke-linejoin:round;stroke-miterlimit:10;" x1="296.485" y1="1097.63" x2="296.485" y2="1086.801"/>
            <line style="fill:none;stroke:#000000;stroke-linecap:round;stroke-linejoin:round;stroke-miterlimit:10;" x1="296.485" y1="1471.628" x2="296.485" y2="1112.751"/>
            <line style="fill:none;stroke:#000000;stroke-linecap:round;stroke-linejoin:round;stroke-miterlimit:10;" x1="296.485" y1="1497.578" x2="296.485" y2="1486.749"/>
            <line style="fill:none;stroke:#000000;stroke-linecap:round;stroke-linejoin:round;stroke-miterlimit:10;" x1="277.072" y1="1486.749" x2="253.235" y2="1486.749"/>
            <line style="fill:none;stroke:#000000;stroke-linecap:round;stroke-linejoin:round;stroke-miterlimit:10;" x1="253.235" y1="1097.63" x2="277.072" y2="1097.63"/>
            <line style="fill:none;stroke:#000000;stroke-linecap:round;stroke-linejoin:round;stroke-miterlimit:10;" x1="311.606" y1="849.024" x2="311.606" y2="438.247"/>
            <line style="fill:none;stroke:#000000;stroke-linecap:round;stroke-linejoin:round;stroke-miterlimit:10;" x1="286.778" y1="823.074" x2="286.778" y2="464.197"/>
            <line style="fill:none;stroke:#000000;stroke-linecap:round;stroke-linejoin:round;stroke-miterlimit:10;" x1="296.485" y1="449.076" x2="296.485" y2="438.247"/>
            <line style="fill:none;stroke:#000000;stroke-linecap:round;stroke-linejoin:round;stroke-miterlimit:10;" x1="296.485" y1="823.074" x2="296.485" y2="464.197"/>
            <line style="fill:none;stroke:#000000;stroke-linecap:round;stroke-linejoin:round;stroke-miterlimit:10;" x1="296.485" y1="849.024" x2="296.485" y2="838.195"/>
            <line style="fill:none;stroke:#000000;stroke-linecap:round;stroke-linejoin:round;stroke-miterlimit:10;" x1="277.072" y1="838.195" x2="253.235" y2="838.195"/>
            <line style="fill:none;stroke:#000000;stroke-linecap:round;stroke-linejoin:round;stroke-miterlimit:10;" x1="253.235" y1="449.076" x2="277.072" y2="449.076"/>
            <line style="fill:none;stroke:#000000;stroke-linecap:round;stroke-linejoin:round;stroke-miterlimit:10;stroke-dasharray:10,10;" x1="1027.445" y1="1657.571" x2="1221.774" y2="1657.571"/>
            <line style="fill:none;stroke:#000000;stroke-linecap:round;stroke-linejoin:round;stroke-miterlimit:10;stroke-dasharray:10,10;" x1="1381.766" y1="1003.8" x2="1175.486" y2="1003.8"/>
            <line style="fill:none;stroke:#000000;stroke-linecap:round;stroke-linejoin:round;stroke-miterlimit:10;" x1="1506.036" y1="1538.649" x2="1413.065" y2="1538.649"/>
            <line style="fill:none;stroke:#000000;stroke-linecap:round;stroke-linejoin:round;stroke-miterlimit:10;" x1="1405.538" y1="1628.319" x2="1405.538" y2="1546.243"/>
            <line style="fill:none;stroke:#000000;stroke-linecap:round;stroke-linejoin:round;stroke-miterlimit:10;" x1="1506.036" y1="1635.913" x2="1413.065" y2="1635.913"/>
            <line style="fill:none;stroke:#000000;stroke-linecap:round;stroke-linejoin:round;stroke-miterlimit:10;" x1="1513.63" y1="1628.319" x2="1513.63" y2="1546.243"/>
            <line style="fill:none;stroke:#000000;stroke-linecap:round;stroke-linejoin:round;stroke-miterlimit:10;" x1="1519.903" y1="466.97" x2="1519.903" y2="507.843"/>
            <line style="fill:none;stroke:#000000;stroke-linecap:round;stroke-linejoin:round;stroke-miterlimit:10;" x1="1597.753" y1="507.843" x2="1597.753" y2="466.97"/>
            <path style="fill:none;stroke:#000000;stroke-linecap:round;stroke-linejoin:round;stroke-miterlimit:10;" d="M1701.686,989.075
			c109.347,0,197.96-88.613,197.96-197.96"/>
            <path style="fill:none;stroke:#000000;stroke-linecap:round;stroke-linejoin:round;stroke-miterlimit:10;" d="M962.339,948.466
			c0-95.481,77.454-172.935,172.935-172.935"/>
            <path style="fill:none;stroke:#000000;stroke-linecap:round;stroke-linejoin:round;stroke-miterlimit:10;" d="M1187.57,684.343
			V445.444c0-34.93,28.327-63.324,63.258-63.324c34.93,0,63.323,28.393,63.323,63.324v238.899c0,16.64-13.47,30.242-30.176,30.44
			h-66.295c-0.132,0-0.198,0-0.33,0C1200.71,714.585,1187.372,700.983,1187.57,684.343z"/>
            <path style="fill:none;stroke:#000000;stroke-linecap:round;stroke-linejoin:round;stroke-miterlimit:10;" d="M1296.917,445.444
			c0-25.422-20.668-46.089-46.089-46.089c-25.422,0-46.024,20.668-46.024,46.089"/>
            <path style="fill:none;stroke:#000000;stroke-linecap:round;stroke-linejoin:round;stroke-miterlimit:10;" d="M1296.917,606.691
			c-0.066,24.497-19.215,44.703-43.712,46.023c-0.792,0.066-1.585,0.066-2.377,0.066h-0.066c-24.365,0-44.703-19.083-45.958-43.712"/>
            <path style="fill:none;stroke:#000000;stroke-linecap:round;stroke-linejoin:round;stroke-miterlimit:10;" d="M1500.688,756.581
			c0,84.916-68.804,153.786-153.72,153.786"/>
            <path style="fill:none;stroke:#000000;stroke-linecap:round;stroke-linejoin:round;stroke-miterlimit:10;" d="M1413.065,1635.913
			c-4.16,0-7.527-3.434-7.527-7.594"/>
            <path style="fill:none;stroke:#000000;stroke-linecap:round;stroke-linejoin:round;stroke-miterlimit:10;" d="M1513.63,1628.319
			c0,4.16-3.368,7.594-7.594,7.594"/>
            <path style="fill:none;stroke:#000000;stroke-linecap:round;stroke-linejoin:round;stroke-miterlimit:10;" d="M1405.538,1546.243
			c0-4.226,3.368-7.594,7.527-7.594"/>
            <path style="fill:none;stroke:#000000;stroke-linecap:round;stroke-linejoin:round;stroke-miterlimit:10;" d="M1506.036,1538.649
			c4.226,0,7.594,3.368,7.594,7.594"/>
            <path style="fill:none;stroke:#000000;stroke-linecap:round;stroke-linejoin:round;stroke-miterlimit:10;" d="M1319.037,1543.007
			c9.574,0,17.3,7.726,17.3,17.3c0,9.509-7.726,17.234-17.3,17.234s-17.3-7.726-17.3-17.234
			C1301.737,1550.733,1309.463,1543.007,1319.037,1543.007z"/>
            <path style="fill:none;stroke:#000000;stroke-linecap:round;stroke-linejoin:round;stroke-miterlimit:10;" d="M1254.195,1543.007
			c9.508,0,17.3,7.726,17.3,17.3c0,9.509-7.792,17.234-17.3,17.234c-9.574,0-17.3-7.726-17.3-17.234
			C1236.895,1550.733,1244.621,1543.007,1254.195,1543.007z"/>
            <path style="fill:none;stroke:#000000;stroke-linecap:round;stroke-linejoin:round;stroke-miterlimit:10;" d="M1589.962,494.175
			c0-17.168-13.932-31.1-31.167-31.1c-17.168,0-31.1,13.932-31.1,31.1v13.668c0,17.168,13.932,31.101,31.1,31.101
			c17.234,0,31.167-13.932,31.167-31.101V494.175z"/>
            <path style="fill:none;stroke:#000000;stroke-linecap:round;stroke-linejoin:round;stroke-miterlimit:10;" d="M1570.482,481.695
			c0-6.471-5.216-11.687-11.688-11.687c-6.405,0-11.621,5.216-11.621,11.687v13.602c0,6.471,5.216,11.687,11.621,11.687
			c6.471,0,11.688-5.216,11.688-11.687V481.695z"/>
            <path style="fill:none;stroke:#000000;stroke-linecap:round;stroke-linejoin:round;stroke-miterlimit:10;" d="M1519.903,507.843
			c0,21.46,17.432,38.892,38.892,38.892c21.526,0,38.958-17.432,38.958-38.892"/>
            <path style="fill:none;stroke:#000000;stroke-linecap:round;stroke-linejoin:round;stroke-miterlimit:10;" d="M1529.609,457.263
			c-5.349,0-9.707,4.358-9.707,9.707"/>
            <path style="fill:none;stroke:#000000;stroke-linecap:round;stroke-linejoin:round;stroke-miterlimit:10;" d="M1597.753,466.97
			c0-5.348-4.358-9.707-9.773-9.707"/>
            <path style="fill:none;stroke:#000000;stroke-linecap:round;stroke-linejoin:round;stroke-miterlimit:10;" d="M1612.016,1374.563
			c9.707-6.075,16.178-16.904,16.178-29.252c0-19.083-15.517-34.6-34.6-34.6c-6.735,0-13.008,1.915-18.356,5.349
			c-9.773,6.075-16.244,16.904-16.244,29.252c0,19.083,15.517,34.6,34.6,34.6C1600.328,1379.911,1606.667,1377.93,1612.016,1374.563
			z"/>
            <circle style="fill:none;stroke:#000000;stroke-linecap:round;stroke-linejoin:round;stroke-miterlimit:10;" cx="1250.828" cy="445.444" r="8.452"/>
            <circle style="fill:none;stroke:#000000;stroke-linecap:round;stroke-linejoin:round;stroke-miterlimit:10;" cx="1437.959" cy="1614.849" r="7.594"/>
            <circle style="fill:none;stroke:#000000;stroke-linecap:round;stroke-linejoin:round;stroke-miterlimit:10;" cx="1319.037" cy="1625.15" r="17.3"/>
            <circle style="fill:none;stroke:#000000;stroke-linecap:round;stroke-linejoin:round;stroke-miterlimit:10;" cx="1254.195" cy="1625.15" r="17.3"/>
            <polyline style="fill:none;stroke:#000000;stroke-linecap:round;stroke-linejoin:round;stroke-miterlimit:10;" points="
			253.235,1486.749 253.235,1102.186 253.235,1097.63 		"/>
            <polyline style="fill:none;stroke:#000000;stroke-linecap:round;stroke-linejoin:round;stroke-miterlimit:10;" points="
			311.606,1497.578 296.485,1497.578 277.072,1497.578 		"/>
            <polyline style="fill:none;stroke:#000000;stroke-linecap:round;stroke-linejoin:round;stroke-miterlimit:10;" points="
			311.606,1086.801 296.485,1086.801 277.072,1086.801 		"/>
            <polyline style="fill:none;stroke:#000000;stroke-linecap:round;stroke-linejoin:round;stroke-miterlimit:10;" points="
			277.072,1112.751 286.778,1112.751 296.485,1112.751 296.485,1097.63 287.835,1097.63 277.072,1097.63 		"/>
            <polyline style="fill:none;stroke:#000000;stroke-linecap:round;stroke-linejoin:round;stroke-miterlimit:10;" points="
			277.072,1486.749 287.835,1486.749 296.485,1486.749 296.485,1471.628 286.778,1471.628 277.072,1471.628 		"/>
            <polyline style="fill:none;stroke:#000000;stroke-linecap:round;stroke-linejoin:round;stroke-miterlimit:10;" points="
			277.072,1497.578 277.072,1486.749 277.072,1471.628 277.072,1112.751 277.072,1097.63 277.072,1086.801 		"/>
            <polyline style="fill:none;stroke:#000000;stroke-linecap:round;stroke-linejoin:round;stroke-miterlimit:10;" points="
			253.235,838.195 253.235,834.101 253.235,453.434 253.235,449.076 		"/>
            <polyline style="fill:none;stroke:#000000;stroke-linecap:round;stroke-linejoin:round;stroke-miterlimit:10;" points="
			311.606,849.024 296.485,849.024 277.072,849.024 		"/>
            <polyline style="fill:none;stroke:#000000;stroke-linecap:round;stroke-linejoin:round;stroke-miterlimit:10;" points="
			311.606,438.247 296.485,438.247 277.072,438.247 		"/>
            <polyline style="fill:none;stroke:#000000;stroke-linecap:round;stroke-linejoin:round;stroke-miterlimit:10;" points="
			277.072,464.197 286.778,464.197 296.485,464.197 296.485,449.076 287.835,449.076 277.072,449.076 		"/>
            <polyline style="fill:none;stroke:#000000;stroke-linecap:round;stroke-linejoin:round;stroke-miterlimit:10;" points="
			277.072,838.195 287.835,838.195 296.485,838.195 296.485,823.074 286.778,823.074 277.072,823.074 		"/>
            <polyline style="fill:none;stroke:#000000;stroke-linecap:round;stroke-linejoin:round;stroke-miterlimit:10;" points="
			277.072,849.024 277.072,838.195 277.072,823.074 277.072,464.197 277.072,449.076 277.072,438.247 		"/>
            <polyline style="fill:none;stroke:#000000;stroke-linecap:round;stroke-linejoin:round;stroke-miterlimit:10;" points="
			253.235,1547.299 148.444,1547.233 99.647,1681.342 148.51,1815.384 253.235,1815.384 		"/>
            <polyline style="fill:none;stroke:#000000;stroke-linecap:round;stroke-linejoin:round;stroke-miterlimit:10;" points="
			253.235,1558.128 155.971,1558.062 111.136,1681.342 156.103,1804.555 253.235,1804.555 		"/>
            <polyline style="fill:none;stroke:#000000;stroke-linecap:round;stroke-linejoin:round;stroke-miterlimit:10;" points="
			253.235,834.101 148.444,834.035 99.647,968.143 148.51,1102.186 253.235,1102.186 		"/>
            <polyline style="fill:none;stroke:#000000;stroke-linecap:round;stroke-linejoin:round;stroke-miterlimit:10;" points="
			253.235,844.93 155.971,844.864 111.136,968.143 156.103,1091.357 253.235,1091.357 		"/>
            <polyline style="fill:none;stroke:#000000;stroke-linecap:round;stroke-linejoin:round;stroke-miterlimit:10;" points="
			253.235,185.349 148.444,185.283 99.647,319.391 148.51,453.434 253.235,453.434 		"/>
            <polyline style="fill:none;stroke:#000000;stroke-linecap:round;stroke-linejoin:round;stroke-miterlimit:10;" points="
			253.235,196.112 155.971,196.112 111.136,319.391 156.103,442.605 253.235,442.605 		"/>
            <polyline style="fill:none;stroke:#000000;stroke-linecap:round;stroke-linejoin:round;stroke-miterlimit:10;stroke-dasharray:10,10;" points="
			1175.486,965.766 1175.486,1003.8 1175.486,1527.82 		"/>
            <polyline style="fill:none;stroke:#000000;stroke-linecap:round;stroke-linejoin:round;stroke-miterlimit:10;" points="
			1643.248,427.351 1474.408,427.351 1474.408,369.178 		"/>
            <polyline style="fill:none;stroke:#000000;stroke-linecap:round;stroke-linejoin:round;stroke-miterlimit:10;" points="
			1643.248,416.522 1485.171,416.522 1485.171,369.178 		"/>
            <polyline style="fill:none;stroke:#000000;stroke-linecap:round;stroke-linejoin:round;stroke-miterlimit:10;" points="
			1511.385,373.47 1610.827,380.47 1618.223,398.298 		"/>
            <polyline style="fill:none;stroke:#000000;stroke-linecap:round;stroke-linejoin:round;stroke-miterlimit:10;" points="
			1319.037,1581.9 1319.037,1577.542 1319.037,1560.307 1319.037,1543.007 1319.037,1538.649 		"/>
            <polyline style="fill:none;stroke:#000000;stroke-linecap:round;stroke-linejoin:round;stroke-miterlimit:10;" points="
			1297.445,1560.307 1301.737,1560.307 1319.037,1560.307 1336.337,1560.307 1340.629,1560.307 		"/>
            <polyline style="fill:none;stroke:#000000;stroke-linecap:round;stroke-linejoin:round;stroke-miterlimit:10;" points="
			1319.037,1646.742 1319.037,1642.45 1319.037,1625.15 1319.037,1607.85 1319.037,1603.492 		"/>
            <polyline style="fill:none;stroke:#000000;stroke-linecap:round;stroke-linejoin:round;stroke-miterlimit:10;" points="
			1297.445,1625.15 1301.737,1625.15 1319.037,1625.15 1336.337,1625.15 1340.629,1625.15 		"/>
            <polyline style="fill:none;stroke:#000000;stroke-linecap:round;stroke-linejoin:round;stroke-miterlimit:10;" points="
			1254.195,1646.742 1254.195,1642.45 1254.195,1625.15 1254.195,1607.85 1254.195,1603.492 		"/>
            <polyline style="fill:none;stroke:#000000;stroke-linecap:round;stroke-linejoin:round;stroke-miterlimit:10;" points="
			1232.537,1625.15 1236.895,1625.15 1254.195,1625.15 1271.495,1625.15 1275.787,1625.15 		"/>
            <polyline style="fill:none;stroke:#000000;stroke-linecap:round;stroke-linejoin:round;stroke-miterlimit:10;" points="
			1254.195,1581.9 1254.195,1577.542 1254.195,1560.307 1254.195,1543.007 1254.195,1538.649 		"/>
            <polyline style="fill:none;stroke:#000000;stroke-linecap:round;stroke-linejoin:round;stroke-miterlimit:10;" points="
			1232.537,1560.307 1236.895,1560.307 1254.195,1560.307 1271.495,1560.307 1275.787,1560.307 		"/>
            <polyline style="fill:none;stroke:#000000;stroke-linecap:round;stroke-linejoin:round;stroke-miterlimit:10;" points="
			1529.609,457.263 1524.525,457.263 1490.321,457.263 1490.321,427.351 1627.335,427.351 1627.335,457.263 1587.981,457.263 		"/>
            <polyline style="fill:none;stroke:#000000;stroke-linecap:round;stroke-linejoin:round;stroke-miterlimit:10;" points="
			1587.981,457.263 1582.896,457.263 1529.609,457.263 		"/>
            <polyline style="fill:none;stroke:#000000;stroke-linecap:round;stroke-linejoin:round;stroke-miterlimit:10;" points="
			1623.901,1384.798 1612.016,1374.563 1578.01,1345.311 1609.177,1345.311 1575.237,1316.06 1563.285,1305.759 		"/>
        </g>
        <g id="LINE_00000121965075787963144730000008872771652973244051_">
            <line style="fill:none;stroke:#000000;stroke-linecap:round;stroke-linejoin:round;stroke-miterlimit:10;" x1="1336.608" y1="369.201" x2="1465.022" y2="369.201"/>
        </g>
        <g id="ARC_00000008144567164576774080000005862232386732334001_">
            <path style="fill:none;stroke:#000000;stroke-linecap:round;stroke-linejoin:round;stroke-miterlimit:10;" d="M1361.297,431.288
			c25.755,7.888,53.281,7.888,79.036,0"/>
        </g>
        <g id="ARC_00000122681241974578816020000009180552744701889687_">
            <path style="fill:none;stroke:#000000;stroke-linecap:round;stroke-linejoin:round;stroke-miterlimit:10;" d="M1351.449,455.539
			c32.099,10.337,66.633,10.337,98.731,0"/>
        </g>
        <g id="ARC_00000052094096453795789250000014634899173397436348_">
            <path style="fill:none;stroke:#000000;stroke-linecap:round;stroke-linejoin:round;stroke-miterlimit:10;" d="M1354.074,447.39
			c30.392,9.788,63.09,9.788,93.483,0"/>
        </g>
        <g id="LINE_00000041988427650894350090000003596190267413368745_">
            <line style="fill:none;stroke:#000000;stroke-linecap:round;stroke-linejoin:round;stroke-miterlimit:10;" x1="1336.608" y1="435.167" x2="1336.608" y2="369.201"/>
        </g>
        <g id="ARC_00000013887261816143063990000002459797702368961690_">
            <path style="fill:none;stroke:#000000;stroke-linecap:round;stroke-linejoin:round;stroke-miterlimit:10;" d="M1358.01,387.66
			c-7.092,0-12.841,5.749-12.841,12.841"/>
        </g>
        <g id="ARC_00000158004055017597926060000002915853779506353595_">
            <path style="fill:none;stroke:#000000;stroke-linecap:round;stroke-linejoin:round;stroke-miterlimit:10;" d="M1366.571,387.66
			c-7.092,0-12.841,5.749-12.841,12.841"/>
        </g>
        <g id="LINE_00000150787085011255647340000015949994044784037011_">
            <line style="fill:none;stroke:#000000;stroke-linecap:round;stroke-linejoin:round;stroke-miterlimit:10;" x1="1353.73" y1="421.056" x2="1353.73" y2="400.502"/>
        </g>
        <g id="LINE_00000047035951732959523530000018003065071127159718_">
            <line style="fill:none;stroke:#000000;stroke-linecap:round;stroke-linejoin:round;stroke-miterlimit:10;" x1="1345.169" y1="435.167" x2="1345.169" y2="400.502"/>
        </g>
        <g id="ARC_00000124877566904332843080000000554356222391903412_">
            <path style="fill:none;stroke:#000000;stroke-linecap:round;stroke-linejoin:round;stroke-miterlimit:10;" d="M1353.73,421.056
			c0,4.703,3.071,8.855,7.568,10.232"/>
        </g>
        <g id="ARC_00000011737712829546514370000002812635132748227241_">
            <path style="fill:none;stroke:#000000;stroke-linecap:round;stroke-linejoin:round;stroke-miterlimit:10;" d="M1336.608,435.167
			c0,9.293,5.996,17.523,14.842,20.372"/>
        </g>
        <g id="ARC_00000174572609494821135300000015076281474873459377_">
            <path style="fill:none;stroke:#000000;stroke-linecap:round;stroke-linejoin:round;stroke-miterlimit:10;" d="M1345.169,435.167
			c0,5.576,3.598,10.514,8.905,12.223"/>
        </g>
        <g id="ARC_00000178197167769851647030000018240452410352145545_">
            <path style="fill:none;stroke:#000000;stroke-linecap:round;stroke-linejoin:round;stroke-miterlimit:10;" d="M1456.461,400.502
			c0-7.092-5.749-12.841-12.841-12.841"/>
        </g>
        <g id="ARC_00000033336440500915511230000010686510784223860656_">
            <path style="fill:none;stroke:#000000;stroke-linecap:round;stroke-linejoin:round;stroke-miterlimit:10;" d="M1450.181,455.539
			c8.845-2.849,14.841-11.079,14.841-20.372"/>
        </g>
        <g id="ARC_00000132058764522320979210000004474482791411053984_">
            <path style="fill:none;stroke:#000000;stroke-linecap:round;stroke-linejoin:round;stroke-miterlimit:10;" d="M1447.556,447.39
			c5.307-1.709,8.905-6.648,8.905-12.223"/>
        </g>
        <g id="ARC_00000044174773426843998230000002000060689726476478_">
            <path style="fill:none;stroke:#000000;stroke-linecap:round;stroke-linejoin:round;stroke-miterlimit:10;" d="M1447.9,400.502
			c0-7.092-5.749-12.841-12.841-12.841"/>
        </g>
        <g id="LINE_00000062189503293575853570000008715004063081852581_">
            <line style="fill:none;stroke:#000000;stroke-linecap:round;stroke-linejoin:round;stroke-miterlimit:10;" x1="1358.01" y1="387.66" x2="1443.62" y2="387.66"/>
        </g>
        <g id="LINE_00000004533219191624559380000015320989927976761745_">
            <line style="fill:none;stroke:#000000;stroke-linecap:round;stroke-linejoin:round;stroke-miterlimit:10;" x1="1447.9" y1="421.056" x2="1447.9" y2="400.502"/>
        </g>
        <g id="ARC_00000034051755390085470360000003704695791825675701_">
            <path style="fill:none;stroke:#000000;stroke-linecap:round;stroke-linejoin:round;stroke-miterlimit:10;" d="M1440.333,431.288
			c4.497-1.377,7.568-5.529,7.568-10.232"/>
        </g>
        <g id="LINE_00000061459026018786219300000008654709089110984614_">
            <line style="fill:none;stroke:#000000;stroke-linecap:round;stroke-linejoin:round;stroke-miterlimit:10;" x1="1465.022" y1="435.167" x2="1465.022" y2="369.201"/>
        </g>
        <g id="LINE_00000070077612175454375480000003310962002258397569_">
            <line style="fill:none;stroke:#000000;stroke-linecap:round;stroke-linejoin:round;stroke-miterlimit:10;" x1="1456.461" y1="435.167" x2="1456.461" y2="400.502"/>
        </g>
        <g id="CIRCLE_00000047027868632968957040000004747450194916801175_">
            <circle style="fill:none;stroke:#000000;stroke-linecap:round;stroke-linejoin:round;stroke-miterlimit:10;" cx="1400.815" cy="397.242" r="5.76"/>
        </g>
    </g>
</svg>