<?xml version="1.0" encoding="utf-8"?>
<!-- Generator: Adobe Illustrator 24.1.2, SVG Export Plug-In . SVG Version: 6.00 Build 0)  -->
<svg version="1.1" id="Layer_1" xmlns="http://www.w3.org/2000/svg" xmlns:xlink="http://www.w3.org/1999/xlink" xmlns:a="http://ns.adobe.com/AdobeSVGViewerExtensions/3.0/" x="0px" y="0px" width="2000px" height="2000px" viewBox="0 0 2000 2000" style="enable-background:new 0 0 2000 2000;" xml:space="preserve">
<path id="background" style="fill:#FFFFFF;" d="M1900.5,910.93c0,0.13-0.05,0.26-0.15,0.35s-0.22,0.15-0.35,0.15l-195.65,0l0,10.98
	h26.94v97.01v405.35h-0.14v2.72H884.87v237.07v33.34v14.48H170.8h-15.26h-55.33v-153.29c-0.25-0.03-0.45-0.23-0.45-0.49v-385.95
	c0-0.2,0.12-0.38,0.3-0.45V990.45v-105c-0.17-0.08-0.3-0.25-0.3-0.45V499.05c0-0.18,0.1-0.32,0.23-0.41v-84.47V304.91v-14.96h0.32
	v-2.26h46.59h1584.05v0.86v49.19v294.36v0.3v70.81h-26.61v10.55C1812.7,714.88,1900.5,802.89,1900.5,910.93z"></path>
<g id="r1">
	<path id="r1_path" style="fill:none;" d="M837.59,968.48v713.74H152.05l-0.03-713.74H837.59z"></path>
	<text id="r1_text" transform="matrix(1 0 0 1 478.9561 1135.3448)" style="font-family: GraphikLCG-Regular; font-size: 40px; text-anchor: middle; text-align: center;"></text>
</g>
<g id="c1">
	<path id="c1_path" style="fill:none;" d="M152.82,971.7V313.48h1101.22V971.7H152.82z"></path>
	<text id="c1_text" transform="matrix(1 0 0 1 721.1075 682.9562)" style="font-family: GraphikLCG-Regular; font-size: 40px; text-anchor: middle; text-align: center;"></text>
</g>
<g id="h1">
	<path id="h1_path" style="fill:none;" d="M1469.74,603.06h234.3l-0.03,112.85l0.05,0.04l-0.04,108.49h1.01V970.9h-449.24V826.44
		h-1.74V603.07L1469.74,603.06z"></path>
	<text id="h1_text" transform="matrix(1 0 0 1 1417.7427 752.714)" style="font-family: GraphikLCG-Regular; font-size: 40px; text-anchor: middle; text-align: center;"></text>
</g>
<g id="s1">
	<path id="s1_path" style="fill:none;" d="M1197.28,1370.81v-396.7h494.06v396.7H1197.28z"></path>
	<text id="s1_text" transform="matrix(1 0 0 1 1379.1885 1154.923)" style="font-family: GraphikLCG-Regular; font-size: 40px; text-anchor: middle; text-align: center;"></text>
</g>
<g id="g2">
	<path id="g2_path" style="fill:none;" d="M1198.08,971.72v216.84l0,0l-0.01,199.62H837.8V971.74l191.29-0.04l0.07,0.05
		L1198.08,971.72z"></path>
	<text id="g2_text" transform="matrix(1 0 0 1 934.6446 1171.9386)" style="font-family: GraphikLCG-Regular; font-size: 40px; text-anchor: middle; text-align: center;"></text>
</g>
<g id="g1">
	<path id="g1_path" style="fill:none;" d="M1709.54,310.82V462.8l0,0l-0.01,139.91h-455.49V310.84l241.84-0.03l0.08,0.03
		L1709.54,310.82z"></path>
	<text id="g1_text" transform="matrix(1 0 0 1 1436.041 541.9835)" style="font-family: GraphikLCG-Regular; font-size: 40px; text-anchor: middle; text-align: center;"></text>
</g>
<path id="u3" style="fill:#FFFFFF;stroke:#FFFFFF;stroke-linecap:round;stroke-linejoin:round;stroke-miterlimit:10;" d="
	M1553.43,527.08c-9.69,0-17.55-7.86-17.55-17.55c0-9.69,7.86-17.55,17.55-17.55c9.69,0,17.55,7.86,17.55,17.55
	C1570.98,519.22,1563.12,527.08,1553.43,527.08z"></path>
<path id="u1" style="fill:#FFFFFF;stroke:#FFFFFF;stroke-linecap:round;stroke-linejoin:round;stroke-miterlimit:10;" d="
	M228.05,1306.04c-9.69,0-17.55-7.86-17.55-17.55s7.86-17.55,17.55-17.55c9.69,0,17.55,7.86,17.55,17.55
	S237.74,1306.04,228.05,1306.04z"></path>
<path id="u7" style="fill:#FFFFFF;stroke:#FFFFFF;stroke-linecap:round;stroke-linejoin:round;stroke-miterlimit:10;" d="
	M1049.43,590.17c-9.69,0-17.55-7.86-17.55-17.55s7.86-17.55,17.55-17.55c9.69,0,17.55,7.86,17.55,17.55
	S1059.13,590.17,1049.43,590.17z"></path>
<g id="mebel">
	<g>
		<path style="fill:none;stroke:#000000;stroke-linecap:round;stroke-linejoin:round;stroke-miterlimit:10;" d="M934.1,833.99
			l-20.17,23.92c-16.18,19.19-15.36,47.47,1.9,65.69l1.96,2.07c17.27,18.23,45.49,20.57,65.53,5.42l6.86-5.18l0,0l18.04-13.64
			c-17.72-4.92-34.4-14.45-47.97-28.78C946.67,869.15,938.05,851.96,934.1,833.99z"></path>
		<path style="fill:none;stroke:#000000;stroke-linecap:round;stroke-linejoin:round;stroke-miterlimit:10;" d="M917.79,925.67
			l-1.96-2.07c-17.26-18.22-18.08-46.5-1.9-65.69l5.58-6.62c2.34-2.77,2.22-6.86-0.27-9.49c-2.92-3.09-7.88-2.94-10.62,0.31
			l-5.71,6.78c-20.72,24.57-19.67,60.79,2.43,84.12l2.51,2.65c22.12,23.35,58.26,26.34,83.91,6.94l7.02-5.31
			c3.39-2.56,3.8-7.51,0.88-10.6c-2.5-2.64-6.58-2.98-9.48-0.78l-6.86,5.18C963.28,946.24,935.06,943.9,917.79,925.67z"></path>
		<polygon style="fill:none;stroke:#000000;stroke-linecap:round;stroke-linejoin:round;stroke-miterlimit:10;" points="
			983.32,931.09 990.17,925.91 990.17,925.91 		"></polygon>
		<path style="fill:none;stroke:#000000;stroke-linecap:round;stroke-linejoin:round;stroke-miterlimit:10;" d="M1138.74,789.52
			l23.85-28.29c16.18-19.19,15.36-47.47-1.9-65.69l-1.96-2.07c-17.27-18.23-45.49-20.57-65.53-5.42l-6.86,5.18l0,0l-22.62,17.1
			c18,4.86,34.95,14.46,48.71,28.98C1126.2,753.84,1134.86,771.29,1138.74,789.52z"></path>
		<path style="fill:none;stroke:#000000;stroke-linecap:round;stroke-linejoin:round;stroke-miterlimit:10;" d="M1158.73,693.47
			l1.96,2.07c17.26,18.22,18.08,46.5,1.9,65.69l-5.58,6.62c-2.34,2.77-2.22,6.86,0.27,9.49c2.92,3.09,7.88,2.94,10.62-0.31
			l5.71-6.78c20.72-24.57,19.67-60.79-2.43-84.12l-2.51-2.65c-22.12-23.35-58.26-26.34-83.91-6.94l-7.02,5.31
			c-3.39,2.57-3.8,7.51-0.88,10.6l0,0c2.5,2.64,6.58,2.98,9.48,0.78l6.86-5.18C1113.24,672.91,1141.46,675.24,1158.73,693.47z"></path>
		<polygon style="fill:none;stroke:#000000;stroke-linecap:round;stroke-linejoin:round;stroke-miterlimit:10;" points="
			1093.21,688.05 1086.35,693.24 1086.35,693.24 		"></polygon>
		<path style="fill:none;stroke:#000000;stroke-linecap:round;stroke-linejoin:round;stroke-miterlimit:10;" d="M1148.54,931.92
			l2.07-1.96c18.23-17.27,20.57-45.49,5.42-65.53l-5.18-6.86l0,0l-13.64-18.05c-4.92,17.72-14.45,34.4-28.78,47.97
			c-14.34,13.58-31.52,22.2-49.5,26.15l23.92,20.17C1102.04,950,1130.32,949.18,1148.54,931.92z"></path>
		<path style="fill:none;stroke:#000000;stroke-linecap:round;stroke-linejoin:round;stroke-miterlimit:10;" d="M1167.54,855.99
			l-5.31-7.02c-2.56-3.39-7.51-3.8-10.6-0.88c-2.64,2.5-2.98,6.58-0.78,9.48l5.18,6.86c15.15,20.03,12.81,48.25-5.42,65.53
			l-2.07,1.96c-18.22,17.26-46.5,18.08-65.69,1.9l-6.62-5.58c-2.77-2.34-6.86-2.22-9.49,0.27c-3.09,2.92-2.94,7.88,0.31,10.62
			l6.78,5.71c24.57,20.72,60.79,19.67,84.12-2.43l2.65-2.51C1183.95,917.78,1186.94,881.65,1167.54,855.99z"></path>
		<polygon style="fill:none;stroke:#000000;stroke-linecap:round;stroke-linejoin:round;stroke-miterlimit:10;" points="
			1156.03,864.43 1150.85,857.58 1150.85,857.58 		"></polygon>
		<path style="fill:none;stroke:#000000;stroke-linecap:round;stroke-linejoin:round;stroke-miterlimit:10;" d="M1014.3,709.04
			l-27.13-22.87c-19.19-16.18-47.47-15.36-65.69,1.9l-2.07,1.96c-18.23,17.27-20.57,45.49-5.42,65.53l5.18,6.86l0,0l16.17,21.39
			c4.88-17.91,14.46-34.79,28.92-48.49C978.74,721.59,996.13,712.94,1014.3,709.04z"></path>
		<path style="fill:none;stroke:#000000;stroke-linecap:round;stroke-linejoin:round;stroke-miterlimit:10;" d="M919.41,690.03
			l2.07-1.96c18.22-17.26,46.5-18.08,65.69-1.9l6.62,5.58c2.77,2.34,6.86,2.22,9.49-0.27c3.09-2.92,2.94-7.88-0.31-10.62l-6.78-5.71
			c-24.57-20.72-60.79-19.67-84.12,2.43l-2.65,2.51c-23.35,22.12-26.34,58.26-6.94,83.91l5.31,7.02c2.56,3.39,7.51,3.8,10.6,0.88
			c2.64-2.5,2.98-6.58,0.79-9.48l-5.18-6.86C898.84,735.52,901.18,707.3,919.41,690.03z"></path>
		<polygon style="fill:none;stroke:#000000;stroke-linecap:round;stroke-linejoin:round;stroke-miterlimit:10;" points="
			913.99,755.55 919.17,762.41 919.17,762.41 		"></polygon>
		
			<circle style="fill:none;stroke:#000000;stroke-linecap:round;stroke-linejoin:round;stroke-miterlimit:10;" cx="1036.35" cy="811.37" r="104.84"></circle>
	</g>
	<g>
		<g>
			
				<circle style="fill:none;stroke:#000000;stroke-linecap:round;stroke-linejoin:round;stroke-miterlimit:10;" cx="1079.42" cy="765.44" r="19.23"></circle>
		</g>
		<g>
			
				<circle style="fill:none;stroke:#000000;stroke-linecap:round;stroke-linejoin:round;stroke-miterlimit:10;" cx="1079.42" cy="765.44" r="10.95"></circle>
		</g>
		<g>
			
				<ellipse transform="matrix(0.6873 -0.7264 0.7264 0.6873 -237.165 1047.9823)" style="fill:none;stroke:#000000;stroke-linecap:round;stroke-linejoin:round;stroke-miterlimit:10;" cx="1098.59" cy="799.45" rx="4.84" ry="2.98"></ellipse>
			
				<line style="fill:none;stroke:#000000;stroke-linecap:round;stroke-linejoin:round;stroke-miterlimit:10;" x1="1101.92" y1="795.93" x2="1116.48" y2="780.54"></line>
		</g>
		<g>
			<path style="fill:none;stroke:#000000;stroke-linecap:round;stroke-linejoin:round;stroke-miterlimit:10;" d="M1045.37,755.75
				l3.33-3.52c1.84-1.94,4.3-2.6,5.49-1.47c1.2,1.13,0.67,3.62-1.16,5.56l-3.33,3.52"></path>
			
				<line style="fill:none;stroke:#000000;stroke-linecap:round;stroke-linejoin:round;stroke-miterlimit:10;" x1="1054.19" y1="750.77" x2="1068.75" y2="735.38"></line>
		</g>
		
			<line style="fill:none;stroke:#000000;stroke-linecap:round;stroke-linejoin:round;stroke-miterlimit:10;" x1="1047.53" y1="757.8" x2="1054.19" y2="750.77"></line>
		<g>
			<path style="fill:none;stroke:#000000;stroke-linecap:round;stroke-linejoin:round;stroke-miterlimit:10;" d="M1102.25,784.9
				l-3.36-3.18l-12.31,13.01l0,0c1.86,1.76,4.78,1.67,6.54-0.18L1102.25,784.9z"></path>
			<path style="fill:none;stroke:#000000;stroke-linecap:round;stroke-linejoin:round;stroke-miterlimit:10;" d="M1109.47,773.91
				L1109.47,773.91c-0.93-0.88-2.39-0.84-3.27,0.09l-7.31,7.73l3.36,3.18l7.31-7.73C1110.44,776.25,1110.4,774.78,1109.47,773.91z"></path>
		</g>
	</g>
	<g>
		
			<line style="fill:none;stroke:#000000;stroke-linecap:round;stroke-linejoin:round;stroke-miterlimit:10;" x1="1601.94" y1="460.08" x2="1390.67" y2="460.08"></line>
	</g>
	<g>
		<polygon style="fill:none;stroke:#000000;stroke-linecap:round;stroke-linejoin:round;stroke-miterlimit:10;" points="
			1688.13,443.48 1688.13,443.48 1688.13,594.09 1595.79,594.09 1595.79,466.39 1390.67,466.39 1390.67,331.68 1688.13,331.68 		"></polygon>
		
			<line style="fill:none;stroke:#000000;stroke-linecap:round;stroke-linejoin:round;stroke-miterlimit:10;" x1="1601.94" y1="594.09" x2="1601.94" y2="460.08"></line>
	</g>
	<g>
		
			<rect x="838.1" y="1244.68" transform="matrix(-1 -8.990299e-10 8.990299e-10 -1 2013.6483 2621.9768)" style="fill:none;stroke:#000000;stroke-linecap:round;stroke-linejoin:round;stroke-miterlimit:10;" width="337.45" height="132.61"></rect>
		
			<line style="fill:none;stroke:#000000;stroke-linecap:round;stroke-linejoin:round;stroke-miterlimit:10;" x1="1175.55" y1="1252.37" x2="838.1" y2="1252.37"></line>
		
			<line style="fill:none;stroke:#000000;stroke-linecap:round;stroke-linejoin:round;stroke-miterlimit:10;" x1="1007.26" y1="1377.29" x2="1007.26" y2="1244.68"></line>
	</g>
	
		<rect x="728.47" y="337.79" style="fill:none;stroke:#000000;stroke-linecap:round;stroke-linejoin:round;stroke-miterlimit:10;" width="451.45" height="128.9"></rect>
	<g>
		<polygon style="fill:none;stroke:#000000;stroke-linecap:round;stroke-linejoin:round;stroke-miterlimit:10;" points="
			728.47,466.68 728.47,338.34 599.36,338.34 599.34,466.68 		"></polygon>
		<g>
			
				<line style="fill:none;stroke:#000000;stroke-linecap:round;stroke-linejoin:round;stroke-miterlimit:10;" x1="632.82" y1="402.51" x2="694.99" y2="402.51"></line>
			
				<line style="fill:none;stroke:#000000;stroke-linecap:round;stroke-linejoin:round;stroke-miterlimit:10;" x1="663.91" y1="433.41" x2="663.91" y2="371.62"></line>
			<polyline style="fill:none;stroke:#000000;stroke-linecap:round;stroke-linejoin:round;stroke-miterlimit:10;" points="
				639.73,417.96 648.36,402.51 639.73,387.06 			"></polyline>
			<polyline style="fill:none;stroke:#000000;stroke-linecap:round;stroke-linejoin:round;stroke-miterlimit:10;" points="
				648.36,378.48 663.91,387.06 679.45,378.48 			"></polyline>
			<polyline style="fill:none;stroke:#000000;stroke-linecap:round;stroke-linejoin:round;stroke-miterlimit:10;" points="
				688.08,387.06 679.45,402.51 688.08,417.96 			"></polyline>
			<polyline style="fill:none;stroke:#000000;stroke-linecap:round;stroke-linejoin:round;stroke-miterlimit:10;" points="
				679.45,426.54 663.91,417.96 648.36,426.54 			"></polyline>
		</g>
	</g>
	<g>
		<polygon style="fill:none;stroke:#000000;stroke-linecap:round;stroke-linejoin:round;stroke-miterlimit:10;" points="
			941.96,466.68 1036.8,466.68 1036.8,337.46 941.96,337.44 		"></polygon>
		<path style="fill:none;stroke:#000000;stroke-linecap:round;stroke-linejoin:round;stroke-miterlimit:10;" d="M989.38,375.39
			l14.1,32.1c0.77,1.97,1.19,4.12,1.19,6.39c0,9.11-6.85,16.49-15.29,16.49s-15.29-7.38-15.29-16.49c0-2.27,0.42-4.42,1.19-6.39
			L989.38,375.39z"></path>
	</g>
	<g>
		<g>
			<path style="fill:none;stroke:#000000;stroke-linecap:round;stroke-linejoin:round;stroke-miterlimit:10;" d="M518.82,918.3
				l123.13,0c1.43,0,2.59,1.16,2.59,2.59v42.98c0,1.43-1.16,2.59-2.59,2.59l-123.13,0c-1.43,0-2.59-1.16-2.59-2.59v-42.98
				C516.23,919.46,517.39,918.3,518.82,918.3z"></path>
			<path style="fill:none;stroke:#000000;stroke-linecap:round;stroke-linejoin:round;stroke-miterlimit:10;" d="M518.82,918.3
				l123.13,0c1.43,0,2.59-1.16,2.59-2.59l0-117.47c0-1.43-1.16-2.59-2.59-2.59l-123.13,0c-1.43,0-2.59,1.16-2.59,2.59l0,117.47
				C516.23,917.15,517.39,918.3,518.82,918.3z"></path>
			<path style="fill:none;stroke:#000000;stroke-linecap:round;stroke-linejoin:round;stroke-miterlimit:10;" d="M390.52,918.3
				l123.13,0c1.43,0,2.59,1.16,2.59,2.59l0,42.98c0,1.43-1.16,2.59-2.59,2.59l-123.13,0c-1.43,0-2.59-1.16-2.59-2.59l0-42.98
				C387.93,919.46,389.09,918.3,390.52,918.3z"></path>
			<path style="fill:none;stroke:#000000;stroke-linecap:round;stroke-linejoin:round;stroke-miterlimit:10;" d="M390.52,918.3
				l123.13,0c1.43,0,2.59-1.16,2.59-2.59l0-117.47c0-1.43-1.16-2.59-2.59-2.59l-123.13,0c-1.43,0-2.59,1.16-2.59,2.59l0,117.47
				C387.93,917.15,389.09,918.3,390.52,918.3z"></path>
			<path style="fill:none;stroke:#000000;stroke-linecap:round;stroke-linejoin:round;stroke-miterlimit:10;" d="M218.64,918.3
				l166.7,0c1.43,0,2.59,1.16,2.59,2.59l0,42.98c0,1.43-1.16,2.59-2.59,2.59l-166.7,0c-1.43,0-2.59-1.16-2.59-2.59l0-42.98
				C216.05,919.46,217.21,918.3,218.64,918.3z"></path>
			<path style="fill:none;stroke:#000000;stroke-linecap:round;stroke-linejoin:round;stroke-miterlimit:10;" d="M218.64,918.3
				l166.7,0c1.43,0,2.59-1.16,2.59-2.59l0-267.52c0-1.43-1.16-2.59-2.59-2.59l-166.7,0c-1.43,0-2.59,1.16-2.59,2.59l0,267.52
				C216.05,917.15,217.21,918.3,218.64,918.3z"></path>
		</g>
	</g>
	<g>
		<g>
			<path style="fill:none;stroke:#000000;stroke-linecap:round;stroke-linejoin:round;stroke-miterlimit:10;" d="M248.64,812.65
				c0.19-0.05,0.39-0.08,0.59-0.09c10.8-0.85,21.59-2.57,32.1-5.09c10.51-2.53,20.9-5.91,30.89-10.05c0.21-0.08,0.4-0.15,0.59-0.19
				c1.01-0.24,2.09-0.02,2.96,0.6c0.49,0.36,1.34,1.17,1.47,2.58l0,0.09c1.71,21.69,6.81,42.87,15.15,62.97l0.05,0.11
				c0.5,1.3,0.12,2.39-0.15,2.93c-0.49,0.95-1.35,1.64-2.36,1.88c-0.19,0.05-0.39,0.08-0.59,0.09c-10.8,0.85-21.59,2.57-32.1,5.09
				s-20.9,5.91-30.89,10.05c-0.2,0.08-0.39,0.15-0.58,0.19c-1.02,0.24-2.09,0.02-2.96-0.6c-0.5-0.36-1.33-1.17-1.47-2.58l0-0.09
				c-1.71-21.69-6.81-42.87-15.15-62.97l-0.05-0.11c-0.5-1.3-0.12-2.39,0.15-2.93C246.77,813.58,247.63,812.9,248.64,812.65z"></path>
		</g>
		<path style="fill:none;stroke:#000000;stroke-linecap:round;stroke-linejoin:round;stroke-miterlimit:10;" d="M317.24,800.48
			l0-0.09c-0.14-1.41-0.98-2.22-1.47-2.58c-0.87-0.63-1.94-0.85-2.96-0.6c-0.19,0.05-0.38,0.11-0.58,0.19
			c-8.78,3.65-17.91,6.59-27.13,8.99c-4.83-7.08-9.97-13.95-15.67-20.4l-0.06-0.06c-0.92-1.08-0.91-2.24-0.83-2.85
			c0.15-1.06,0.74-1.99,1.62-2.55c0.16-0.1,0.34-0.2,0.54-0.29c9.92-4.3,19.58-9.41,28.7-15.21s17.86-12.36,25.98-19.53
			c0.15-0.13,0.31-0.25,0.47-0.36c0.88-0.56,1.97-0.7,3-0.39c0.58,0.18,1.63,0.66,2.21,1.93l0.05,0.11
			c8.64,19.96,20.33,38.36,34.73,54.67l0.06,0.06c0.92,1.08,0.91,2.25,0.83,2.85c-0.15,1.06-0.74,1.99-1.62,2.54
			c-0.16,0.1-0.34,0.2-0.55,0.29c-9.92,4.3-19.58,9.41-28.7,15.21c-4.67,2.96-9.22,6.14-13.66,9.49
			C319.75,821.6,318.08,811.11,317.24,800.48z"></path>
		<path style="fill:none;stroke:#000000;stroke-linecap:round;stroke-linejoin:round;stroke-miterlimit:10;" d="M317.24,800.48
			l0-0.09c-0.14-1.41-0.98-2.22-1.47-2.58c-0.87-0.63-1.94-0.85-2.96-0.6c-0.19,0.05-0.38,0.11-0.58,0.19
			c-9.98,4.14-20.38,7.53-30.89,10.05c-0.29,0.07-0.59,0.11-0.88,0.18c-4.48-6.45-9.21-12.74-14.42-18.65l-0.01-0.01
			c-3.66-4.15-2.21-10.67,2.87-12.86l0.02-0.01c19.5-8.44,37.54-19.9,53.47-33.97l0.01-0.01c4.15-3.66,10.67-2.21,12.86,2.87
			l0.01,0.02c8.44,19.5,19.9,37.54,33.97,53.47l0.01,0.01c3.66,4.15,2.21,10.67-2.87,12.87l-0.02,0.01
			c-15.3,6.63-29.67,15.17-42.86,25.32C320.38,824.84,318.21,812.76,317.24,800.48z"></path>
	</g>
	<path style="fill:none;stroke:#000000;stroke-linecap:round;stroke-linejoin:round;stroke-miterlimit:10;" d="M610.13,621.73
		c0-11.05,0-49.82,0-60.87c0-11.3-9.73-17.07-21.82-18.96c-49.3-6.87-99.38-6.87-148.68,0c-12.08,1.88-21.82,7.66-21.82,18.96
		c0,11.05,0,49.82,0,60.87c0,11.3,9.73,17.07,21.82,18.96c49.3,6.87,99.38,6.87,148.68,0C600.4,638.8,610.13,633.03,610.13,621.73z"></path>
	<g>
		<g>
			<path style="fill:none;stroke:#000000;stroke-linecap:round;stroke-linejoin:round;stroke-miterlimit:10;" d="M483.32,577.46
				l6.77,2.94c0.14-0.58,0.3-1.15,0.55-1.72c0.24-0.56,0.55-1.08,0.88-1.57l-6.77-2.94c-0.53-0.23-1.14,0.01-1.37,0.54l-0.6,1.38
				C482.55,576.62,482.79,577.23,483.32,577.46z"></path>
			
				<circle style="fill:none;stroke:#000000;stroke-linecap:round;stroke-linejoin:round;stroke-miterlimit:10;" cx="499.88" cy="582.69" r="10.07"></circle>
		</g>
		<g>
			<path style="fill:none;stroke:#000000;stroke-linecap:round;stroke-linejoin:round;stroke-miterlimit:10;" d="M542.63,579.76
				l-2.94,6.77c0.58,0.14,1.15,0.3,1.72,0.55s1.08,0.55,1.57,0.88l2.94-6.77c0.23-0.53-0.01-1.14-0.54-1.37l-1.38-0.6
				C543.47,579,542.85,579.24,542.63,579.76z"></path>
			
				<circle style="fill:none;stroke:#000000;stroke-linecap:round;stroke-linejoin:round;stroke-miterlimit:10;" cx="537.4" cy="596.33" r="10.07"></circle>
		</g>
	</g>
	<g>
		<g>
			<g>
				
					<rect x="424.06" y="247.18" transform="matrix(1.048668e-05 -1 1 1.048668e-05 69.9539 794.8441)" style="fill:none;stroke:#000000;stroke-linecap:round;stroke-linejoin:round;stroke-miterlimit:10;" width="16.68" height="230.54"></rect>
				<polygon style="fill:none;stroke:#000000;stroke-linecap:round;stroke-linejoin:round;stroke-miterlimit:10;" points="
					517.94,337.42 547.67,354.1 317.14,354.1 346.87,337.42 				"></polygon>
			</g>
		</g>
		<g>
			
				<rect x="399.9" y="241.87" transform="matrix(-1.742935e-05 1 -1 -1.742935e-05 802.1215 -62.4869)" style="fill:none;stroke:#000000;stroke-linecap:round;stroke-linejoin:round;stroke-miterlimit:10;" width="64.81" height="255.88"></rect>
		</g>
	</g>
	<g>
		<g>
			<path style="fill:none;stroke:#000000;stroke-linecap:round;stroke-linejoin:round;stroke-miterlimit:10;" d="M470.77,1437.81
				c0.19,0.05,0.39,0.08,0.59,0.09c10.8,0.85,21.59,2.57,32.1,5.09c10.51,2.53,20.9,5.91,30.89,10.05c0.21,0.08,0.4,0.15,0.59,0.19
				c1.01,0.24,2.09,0.02,2.96-0.6c0.49-0.36,1.34-1.17,1.47-2.58l0-0.09c1.71-21.69,6.81-42.87,15.15-62.97l0.05-0.11
				c0.5-1.3,0.12-2.39-0.15-2.93c-0.49-0.95-1.35-1.64-2.36-1.88c-0.19-0.05-0.39-0.08-0.59-0.09c-10.8-0.85-21.59-2.57-32.1-5.09
				s-20.9-5.91-30.89-10.05c-0.2-0.08-0.39-0.15-0.58-0.19c-1.02-0.24-2.09-0.02-2.96,0.6c-0.5,0.36-1.33,1.17-1.47,2.58l0,0.09
				c-1.71,21.69-6.81,42.87-15.15,62.97l-0.05,0.11c-0.5,1.3-0.12,2.39,0.15,2.93C468.89,1436.88,469.75,1437.57,470.77,1437.81z"></path>
		</g>
		<path style="fill:none;stroke:#000000;stroke-linecap:round;stroke-linejoin:round;stroke-miterlimit:10;" d="M539.36,1449.98
			l0,0.09c-0.14,1.41-0.98,2.22-1.47,2.58c-0.87,0.63-1.94,0.85-2.96,0.6c-0.19-0.05-0.38-0.11-0.58-0.19
			c-8.78-3.65-17.91-6.59-27.13-8.99c-4.83,7.08-9.97,13.95-15.67,20.4l-0.06,0.06c-0.92,1.08-0.91,2.24-0.83,2.85
			c0.15,1.06,0.74,1.99,1.62,2.55c0.16,0.1,0.34,0.2,0.54,0.29c9.92,4.3,19.58,9.41,28.7,15.21c9.12,5.8,17.86,12.36,25.98,19.53
			c0.15,0.13,0.31,0.25,0.47,0.36c0.88,0.56,1.97,0.7,3,0.39c0.58-0.18,1.63-0.66,2.21-1.93l0.05-0.11
			c8.64-19.96,20.33-38.36,34.73-54.67l0.06-0.06c0.92-1.08,0.91-2.25,0.83-2.85c-0.15-1.06-0.74-1.99-1.62-2.54
			c-0.16-0.1-0.34-0.2-0.55-0.29c-9.92-4.3-19.58-9.41-28.7-15.21c-4.67-2.96-9.22-6.14-13.66-9.49
			C541.87,1428.86,540.2,1439.36,539.36,1449.98z"></path>
		<path style="fill:none;stroke:#000000;stroke-linecap:round;stroke-linejoin:round;stroke-miterlimit:10;" d="M539.36,1449.98
			l0,0.09c-0.14,1.41-0.98,2.22-1.47,2.58c-0.87,0.63-1.94,0.85-2.96,0.6c-0.19-0.05-0.38-0.11-0.58-0.19
			c-9.98-4.14-20.38-7.53-30.89-10.05c-0.29-0.07-0.59-0.11-0.88-0.18c-4.48,6.45-9.21,12.74-14.42,18.65l-0.01,0.01
			c-3.66,4.15-2.21,10.67,2.87,12.86l0.02,0.01c19.5,8.44,37.54,19.9,53.47,33.97l0.01,0.01c4.15,3.66,10.67,2.21,12.86-2.87
			l0.01-0.02c8.44-19.5,19.9-37.54,33.97-53.47l0.01-0.01c3.66-4.15,2.21-10.67-2.87-12.87l-0.02-0.01
			c-15.3-6.63-29.67-15.17-42.86-25.32C542.5,1425.62,540.33,1437.71,539.36,1449.98z"></path>
	</g>
	<g>
		<g>
			<g>
				<g>
					
						<rect x="313.26" y="1652.16" transform="matrix(-1 6.170192e-06 -6.170192e-06 -1 1000.8928 3319.5969)" style="fill:none;stroke:#000000;stroke-linecap:round;stroke-linejoin:round;stroke-miterlimit:10;" width="374.36" height="15.28"></rect>
					
						<rect x="313.26" y="1215.28" transform="matrix(-1 6.170192e-06 -6.170192e-06 -1 1000.8883 2867.4331)" style="fill:none;stroke:#000000;stroke-linecap:round;stroke-linejoin:round;stroke-miterlimit:10;" width="374.36" height="436.89"></rect>
					<path style="fill:none;stroke:#000000;stroke-linecap:round;stroke-linejoin:round;stroke-miterlimit:10;" d="M507.48,1573.57
						l-14.09,0l0,37.62c0,11.25-9.91,20.37-22.14,20.37l-105.16,0c-12.23,0-22.14-9.12-22.14-20.37l0-37.62h-14.09l0,65.86
						c0,2.81,2.48,5.09,5.54,5.09l330.08,0c3.06,0,5.53-2.28,5.53-5.09l0-65.86l-14.09,0l0,37.62c0,11.25-9.91,20.37-22.14,20.37
						l-105.16,0c-12.23,0-22.14-9.12-22.14-20.37L507.48,1573.57z"></path>
					<path style="fill:none;stroke:#000000;stroke-linecap:round;stroke-linejoin:round;stroke-miterlimit:10;" d="M668.01,1228
						l-335.15,0c-1.66,0-3,1.34-3,3l0,342.57l341.15,0l0-342.57C671.01,1229.35,669.67,1228,668.01,1228z"></path>
				</g>
			</g>
			
				<rect x="214.76" y="1568.94" transform="matrix(4.370916e-06 1 -1 4.370916e-06 1882.2008 1349.3199)" style="fill:none;stroke:#000000;stroke-linecap:round;stroke-linejoin:round;stroke-miterlimit:10;" width="103.35" height="93.65"></rect>
			
				<rect x="682.77" y="1568.94" transform="matrix(4.370916e-06 1 -1 4.370916e-06 2350.2024 881.3129)" style="fill:none;stroke:#000000;stroke-linecap:round;stroke-linejoin:round;stroke-miterlimit:10;" width="103.35" height="93.65"></rect>
		</g>
	</g>
	<g>
		<g>
			<g>
				
					<rect x="490.74" y="894.08" transform="matrix(1.029878e-05 -1 1 1.029878e-05 -510.9275 1509.5179)" style="fill:none;stroke:#000000;stroke-linecap:round;stroke-linejoin:round;stroke-miterlimit:10;" width="17.12" height="232.28"></rect>
				<polygon style="fill:none;stroke:#000000;stroke-linecap:round;stroke-linejoin:round;stroke-miterlimit:10;" points="
					585.49,984.55 615.45,1001.67 383.16,1001.67 413.12,984.55 				"></polygon>
			</g>
		</g>
		<g>
			
				<rect x="477.91" y="878.71" transform="matrix(-1.313941e-05 1 -1 -1.313941e-05 1507.1002 506.6288)" style="fill:none;stroke:#000000;stroke-linecap:round;stroke-linejoin:round;stroke-miterlimit:10;" width="44.65" height="256.29"></rect>
		</g>
	</g>
	<g>
		<path style="fill:none;stroke:#000000;stroke-linecap:round;stroke-linejoin:round;stroke-miterlimit:10;" d="M243.12,1020.33
			c-1.73,0.51-3.42,1.16-5.03,1.95"></path>
		<path style="fill:none;stroke:#000000;stroke-linecap:round;stroke-linejoin:round;stroke-miterlimit:10;" d="M282.64,1048
			c-0.42-6.25-2.73-12.14-6.47-16.95"></path>
		<path style="fill:none;stroke:#000000;stroke-linecap:round;stroke-linejoin:round;stroke-miterlimit:10;" d="M271.9,1073.58
			c2.95-2.53,5.44-5.63,7.29-9.17"></path>
		<path style="fill:none;stroke:#000000;stroke-linecap:round;stroke-linejoin:round;stroke-miterlimit:10;" d="M250.39,1081.04
			c1.34,0.06,2.67,0.03,3.98-0.08"></path>
		<path style="fill:none;stroke:#000000;stroke-linecap:round;stroke-linejoin:round;stroke-miterlimit:10;" d="M233.89,1075.43
			c1.33,0.94,2.74,1.77,4.22,2.49"></path>
		<path style="fill:none;stroke:#000000;stroke-linecap:round;stroke-linejoin:round;stroke-miterlimit:10;" d="M220.75,1049.03
			c-0.12,3.41,0.33,6.74,1.27,9.9"></path>
		<path style="fill:none;stroke:#000000;stroke-linecap:round;stroke-linejoin:round;stroke-miterlimit:10;" d="M227.51,1030.77
			c-1.31,1.64-2.47,3.43-3.44,5.34"></path>
		<path style="fill:none;stroke:#000000;stroke-linecap:round;stroke-linejoin:round;stroke-miterlimit:10;" d="M238.46,1028.14
			c0.53-4.56-0.81-9.9-4.12-14.65c-4.57-6.56-11.5-10.06-17.3-9.29c-2.73,5.17-1.86,12.88,2.72,19.45c4.1,5.88,10.09,9.3,15.46,9.39
			c0.18,0,0.35-0.04,0.52-0.07"></path>
		<path style="fill:none;stroke:#000000;stroke-linecap:round;stroke-linejoin:round;stroke-miterlimit:10;" d="M228.3,1035.57
			c0.74-1.19,1.57-2.32,2.47-3.38"></path>
		<path style="fill:none;stroke:#000000;stroke-linecap:round;stroke-linejoin:round;stroke-miterlimit:10;" d="M225.64,1058.94
			c-1.06-3.11-1.57-6.43-1.45-9.83"></path>
		<path style="fill:none;stroke:#000000;stroke-linecap:round;stroke-linejoin:round;stroke-miterlimit:10;" d="M241.35,1075.59
			c-1.13-0.46-2.21-0.98-3.25-1.58"></path>
		<path style="fill:none;stroke:#000000;stroke-linecap:round;stroke-linejoin:round;stroke-miterlimit:10;" d="M253.14,1077.58
			c-1.12,0.06-2.25,0.05-3.39-0.04"></path>
		<path style="fill:none;stroke:#000000;stroke-linecap:round;stroke-linejoin:round;stroke-miterlimit:10;" d="M275.66,1063.69
			c-1.78,3.14-4.15,5.86-6.93,8.04"></path>
		<path style="fill:none;stroke:#000000;stroke-linecap:round;stroke-linejoin:round;stroke-miterlimit:10;" d="M274.29,1034.3
			c2.38,3.41,3.99,7.35,4.65,11.54"></path>
		<path style="fill:none;stroke:#000000;stroke-linecap:round;stroke-linejoin:round;stroke-miterlimit:10;" d="M238.7,1025.81
			c1.12-0.6,2.28-1.13,3.48-1.57"></path>
		<path style="fill:none;stroke:#000000;stroke-linecap:round;stroke-linejoin:round;stroke-miterlimit:10;" d="M256.7,1042.49
			c0.42,1.07,1.49,1.75,2.63,1.69c5.36-0.3,11.22-3.95,15.09-9.99c4.31-6.74,4.89-14.48,1.96-19.54
			c-5.82-0.54-12.61,3.22-16.92,9.95C255.59,1030.64,254.72,1037.49,256.7,1042.49z"></path>
		<path style="fill:none;stroke:#000000;stroke-linecap:round;stroke-linejoin:round;stroke-miterlimit:10;" d="M248.84,1066.47
			c0.32,0.45,0.9,0.65,1.43,0.49c2.48-0.75,4.82-3.12,5.96-6.39c1.26-3.65,0.66-7.35-1.29-9.39c-2.79,0.4-5.56,2.94-6.82,6.59
			C246.98,1061.03,247.35,1064.34,248.84,1066.47z"></path>
		
			<line style="fill:none;stroke:#000000;stroke-linecap:round;stroke-linejoin:round;stroke-miterlimit:10;" x1="248.55" y1="1069.26" x2="254.93" y2="1051.18"></line>
		<path style="fill:none;stroke:#000000;stroke-linecap:round;stroke-linejoin:round;stroke-miterlimit:10;" d="M253.81,1070.88
			c-1.03,0.42-1.67,1.46-1.59,2.57c0.37,5.18,3.97,10.78,9.85,14.43c6.56,4.07,14.05,4.52,18.89,1.62
			c0.44-5.63-3.28-12.13-9.85-16.2C265.23,1069.64,258.61,1068.9,253.81,1070.88z"></path>
		
			<line style="fill:none;stroke:#000000;stroke-linecap:round;stroke-linejoin:round;stroke-miterlimit:10;" x1="248.49" y1="1069.08" x2="280.96" y2="1089.49"></line>
		<path style="fill:none;stroke:#000000;stroke-linecap:round;stroke-linejoin:round;stroke-miterlimit:10;" d="M248.01,1074.9
			c-0.66-0.94-1.86-1.35-2.96-1.01c-5.14,1.57-9.95,6.51-12.27,13.3c-2.58,7.57-1.29,15.22,2.76,19.44
			c5.78-0.86,11.48-6.14,14.06-13.71C251.91,1086.13,251.12,1079.28,248.01,1074.9z"></path>
		
			<line style="fill:none;stroke:#000000;stroke-linecap:round;stroke-linejoin:round;stroke-miterlimit:10;" x1="248.59" y1="1069.11" x2="235.54" y2="1106.63"></line>
		
			<line style="fill:none;stroke:#000000;stroke-linecap:round;stroke-linejoin:round;stroke-miterlimit:10;" x1="248.59" y1="1069.11" x2="208.94" y2="1066.72"></line>
		<path style="fill:none;stroke:#000000;stroke-linecap:round;stroke-linejoin:round;stroke-miterlimit:10;" d="M236.36,1039.08
			c0.19-0.76-0.13-1.56-0.8-1.98c-3.1-1.96-7.8-2.25-12.34-0.43c-5.07,2.03-8.45,6.11-8.83,10.08c3.02,2.61,8.28,3.21,13.35,1.18
			C232.28,1046.1,235.47,1042.64,236.36,1039.08z"></path>
		
			<line style="fill:none;stroke:#000000;stroke-linecap:round;stroke-linejoin:round;stroke-miterlimit:10;" x1="237.48" y1="1037.47" x2="214.39" y2="1046.75"></line>
		
			<line style="fill:none;stroke:#000000;stroke-linecap:round;stroke-linejoin:round;stroke-miterlimit:10;" x1="235.67" y1="1031.4" x2="217.05" y2="1004.2"></line>
		
			<line style="fill:none;stroke:#000000;stroke-linecap:round;stroke-linejoin:round;stroke-miterlimit:10;" x1="245.39" y1="1030.26" x2="264.96" y2="1006.4"></line>
		<path style="fill:none;stroke:#000000;stroke-linecap:round;stroke-linejoin:round;stroke-miterlimit:10;" d="M235.24,1060.76
			c-1.47-0.19-2.8-0.63-3.95-1.31c-1.4-0.33-2.86-0.57-4.39-0.65c-7.99-0.43-15,2.88-17.97,7.92c2.4,5.33,9.02,9.39,17,9.82
			c7.16,0.39,13.54-2.24,16.92-6.41c0.72-0.89,0.79-2.16,0.17-3.12C241.36,1064.4,238.62,1062.23,235.24,1060.76z"></path>
		
			<line style="fill:none;stroke:#000000;stroke-linecap:round;stroke-linejoin:round;stroke-miterlimit:10;" x1="254.78" y1="1047.67" x2="230.45" y2="1058.91"></line>
		
			<line style="fill:none;stroke:#000000;stroke-linecap:round;stroke-linejoin:round;stroke-miterlimit:10;" x1="254.89" y1="1047.97" x2="236.05" y2="1028.49"></line>
		<path style="fill:none;stroke:#000000;stroke-linecap:round;stroke-linejoin:round;stroke-miterlimit:10;" d="M259.45,1024.61
			c1.48-2.31,3.26-4.24,5.18-5.79c1.69-4.41,1.83-8.89,0.32-12.41c-5.72-1.22-12.9,1.7-17.98,7.88c-3.68,4.47-5.43,9.69-5.27,14.27
			c2.45,0.66,4.93,2.08,7.04,4.23c0.14,0.14,0.22,0.3,0.36,0.45c2.78-0.69,5.58-2.18,8.14-4.27
			C257.82,1027.49,258.54,1026.02,259.45,1024.61z"></path>
		
			<line style="fill:none;stroke:#000000;stroke-linecap:round;stroke-linejoin:round;stroke-miterlimit:10;" x1="254.76" y1="1047.97" x2="276.38" y2="1014.65"></line>
		<path style="fill:none;stroke:#000000;stroke-linecap:round;stroke-linejoin:round;stroke-miterlimit:10;" d="M260.55,1048.35
			c-0.91,0.7-1.28,1.91-0.91,2.99c1.74,5.08,6.84,9.73,13.7,11.82c7.65,2.33,15.26,0.78,19.34-3.41
			c-1.06-5.75-6.51-11.27-14.17-13.6C271.65,1044.07,264.83,1045.1,260.55,1048.35z"></path>
		
			<line style="fill:none;stroke:#000000;stroke-linecap:round;stroke-linejoin:round;stroke-miterlimit:10;" x1="254.76" y1="1047.97" x2="292.68" y2="1059.75"></line>
		<path style="fill:none;stroke:#000000;stroke-linecap:round;stroke-linejoin:round;stroke-miterlimit:10;" d="M251.54,1045.84
			c0.78-0.12,1.39-0.72,1.53-1.49c0.62-3.61-0.9-8.07-4.33-11.57c-3.82-3.9-8.88-5.47-12.69-4.3c-1.25,3.79,0.21,8.88,4.02,12.78
			C243.5,1044.77,247.92,1046.39,251.54,1045.84z"></path>
		<path style="fill:none;stroke:#000000;stroke-linecap:round;stroke-linejoin:round;stroke-miterlimit:10;" d="M251.7,1050.1
			c0.14-0.76-0.22-1.54-0.9-1.91c-3.17-1.76-7.83-1.78-12.21,0.27c-4.89,2.29-8,6.51-8.15,10.45c3.13,2.4,8.36,2.7,13.25,0.4
			C248.07,1057.26,251.03,1053.66,251.7,1050.1z"></path>
	</g>
	<g>
		
			<circle style="fill:none;stroke:#000000;stroke-linecap:round;stroke-linejoin:round;stroke-miterlimit:10;" cx="726.77" cy="1594.1" r="8.24"></circle>
		
			<circle style="fill:none;stroke:#000000;stroke-linecap:round;stroke-linejoin:round;stroke-miterlimit:10;" cx="726.77" cy="1594.1" r="5.82"></circle>
		
			<line style="fill:none;stroke:#000000;stroke-linecap:round;stroke-linejoin:round;stroke-miterlimit:10;" x1="728.5" y1="1601.74" x2="729.79" y2="1607.38"></line>
		<path style="fill:none;stroke:#000000;stroke-linecap:round;stroke-linejoin:round;stroke-miterlimit:10;" d="M746.31,1601.83
			c-2.38,6.01-7.25,10.22-12.93,12.12l-1.15-5.02c-0.25-1.1-1.35-1.79-2.45-1.54c-0.68,0.15-1.21,0.64-1.45,1.25
			c-0.15,0.37-0.19,0.79-0.09,1.21l1.15,5.02c-3.4,0.43-6.93,0.13-10.33-1.21c-10.79-4.27-16.08-16.47-11.82-27.26
			c4.27-10.79,16.47-16.08,27.26-11.82C745.28,1578.83,750.57,1591.03,746.31,1601.83z"></path>
		<g>
			
				<rect x="741.13" y="1643.95" transform="matrix(0.9749 -0.2227 0.2227 0.9749 -348.2871 206.9056)" style="fill:none;stroke:#000000;stroke-linecap:round;stroke-linejoin:round;stroke-miterlimit:10;" width="4.1" height="7.29"></rect>
			
				<rect x="733.15" y="1645.78" transform="matrix(0.9749 -0.2227 0.2227 0.9749 -348.9017 205.1782)" style="fill:none;stroke:#000000;stroke-linecap:round;stroke-linejoin:round;stroke-miterlimit:10;" width="4.09" height="7.29"></rect>
		</g>
		<g>
			<path style="fill:none;stroke:#000000;stroke-linecap:round;stroke-linejoin:round;stroke-miterlimit:10;" d="M736.87,1629.24
				c1.97-0.14,4,0.11,5.96,0.88c7.03,2.78,10.48,10.74,7.7,17.77c-1.44,3.64-4.28,6.29-7.64,7.65L736.87,1629.24z"></path>
			<path style="fill:none;stroke:#000000;stroke-linecap:round;stroke-linejoin:round;stroke-miterlimit:10;" d="M738.9,1656.45
				c-2.03,0.17-4.11-0.07-6.13-0.86c-7.03-2.78-10.48-10.74-7.7-17.77c1.46-3.7,4.37-6.37,7.81-7.7L738.9,1656.45z"></path>
		</g>
		<g>
			<path style="fill:none;stroke:#000000;stroke-linecap:round;stroke-linejoin:round;stroke-miterlimit:10;" d="M728.32,1608.63
				c-0.15,0.37-0.19,0.79-0.09,1.21l12.22,53.4c0.25,1.1,1.35,1.79,2.45,1.54c1.1-0.25,1.79-1.35,1.54-2.45l-12.22-53.4
				c-0.25-1.1-1.35-1.79-2.45-1.54C729.09,1607.54,728.56,1608.02,728.32,1608.63z"></path>
		</g>
	</g>
	<g>
		
			<circle style="fill:none;stroke:#000000;stroke-linecap:round;stroke-linejoin:round;stroke-miterlimit:10;" cx="266.51" cy="1590.61" r="8.24"></circle>
		
			<circle style="fill:none;stroke:#000000;stroke-linecap:round;stroke-linejoin:round;stroke-miterlimit:10;" cx="266.51" cy="1590.61" r="5.82"></circle>
		
			<line style="fill:none;stroke:#000000;stroke-linecap:round;stroke-linejoin:round;stroke-miterlimit:10;" x1="264.78" y1="1598.24" x2="263.49" y2="1603.89"></line>
		<path style="fill:none;stroke:#000000;stroke-linecap:round;stroke-linejoin:round;stroke-miterlimit:10;" d="M246.97,1598.33
			c2.38,6.01,7.25,10.22,12.93,12.12l1.15-5.02c0.25-1.1,1.35-1.79,2.45-1.54c0.68,0.15,1.21,0.64,1.45,1.25
			c0.15,0.37,0.19,0.79,0.09,1.21l-1.15,5.02c3.4,0.43,6.93,0.13,10.33-1.21c10.79-4.27,16.08-16.47,11.82-27.26
			c-4.26-10.79-16.47-16.08-27.26-11.82C248,1575.34,242.71,1587.54,246.97,1598.33z"></path>
		<g>
			
				<rect x="246.45" y="1642.05" transform="matrix(0.2227 -0.9749 0.9749 0.2227 -1408.4105 1521.741)" style="fill:none;stroke:#000000;stroke-linecap:round;stroke-linejoin:round;stroke-miterlimit:10;" width="7.29" height="4.1"></rect>
			
				<rect x="254.44" y="1643.88" transform="matrix(0.2227 -0.9749 0.9749 0.2227 -1403.9807 1530.9369)" style="fill:none;stroke:#000000;stroke-linecap:round;stroke-linejoin:round;stroke-miterlimit:10;" width="7.29" height="4.09"></rect>
		</g>
		<g>
			<path style="fill:none;stroke:#000000;stroke-linecap:round;stroke-linejoin:round;stroke-miterlimit:10;" d="M256.4,1625.74
				c-1.97-0.14-4,0.11-5.96,0.88c-7.03,2.78-10.48,10.74-7.7,17.77c1.44,3.64,4.28,6.29,7.64,7.65L256.4,1625.74z"></path>
			<path style="fill:none;stroke:#000000;stroke-linecap:round;stroke-linejoin:round;stroke-miterlimit:10;" d="M254.38,1652.96
				c2.03,0.17,4.11-0.07,6.13-0.86c7.03-2.78,10.48-10.74,7.7-17.77c-1.46-3.7-4.37-6.37-7.81-7.7L254.38,1652.96z"></path>
		</g>
		<g>
			<path style="fill:none;stroke:#000000;stroke-linecap:round;stroke-linejoin:round;stroke-miterlimit:10;" d="M264.95,1605.14
				c0.15,0.37,0.19,0.79,0.09,1.21l-12.22,53.4c-0.25,1.1-1.35,1.79-2.45,1.54c-1.1-0.25-1.79-1.35-1.54-2.45l12.22-53.4
				c0.25-1.1,1.35-1.79,2.45-1.54C264.19,1604.05,264.71,1604.53,264.95,1605.14z"></path>
		</g>
	</g>
	<g>
		<path style="fill:none;stroke:#000000;stroke-linecap:round;stroke-linejoin:round;stroke-miterlimit:10;" d="M239.98,488.92
			c-1.25,0.04-2.48,0.28-3.67,0.66c-8.91,2.8-14.66,11.91-13.48,21.17c0.62,4.81,2.61,8.57,3.96,10.65c0.7,1.08,1.59,2.01,2.63,2.77
			l0,0c1.05,0.77,2.21,1.36,3.46,1.71c2.44,0.7,6.74,1.51,11.63,0.6c9.05-1.68,15.85-9.73,15.98-18.93
			c0.02-1.12-0.08-2.25-0.33-3.35"></path>
		<path style="fill:none;stroke:#000000;stroke-linecap:round;stroke-linejoin:round;stroke-miterlimit:10;" d="M228.09,523.18
			c-13.29,12.86-14.6,33.72-3.5,48.11c1.1,1.42,3.12,1.75,4.61,0.75c1.61-1.08,2.01-3.29,0.87-4.85c-9.01-12.26-7.99-29.7,1.5-41.82
			"></path>
		<path style="fill:none;stroke:#000000;stroke-linecap:round;stroke-linejoin:round;stroke-miterlimit:10;" d="M248.99,482.14
			c-0.7,3.83,0.76,7.9,4.1,10.37c3.31,2.45,7.58,2.67,11.02,0.93"></path>
		<path style="fill:none;stroke:#000000;stroke-linecap:round;stroke-linejoin:round;stroke-miterlimit:10;" d="M268.79,488.71
			c1.57-3.17,1.4-6.87-0.3-9.86c0.47-1.76-0.14-3.7-1.7-4.85c-1.55-1.15-3.59-1.16-5.14-0.2c-3.32-0.74-6.87,0.15-9.43,2.51"></path>
		<path style="fill:none;stroke:#000000;stroke-linecap:round;stroke-linejoin:round;stroke-miterlimit:10;" d="M254.49,477.28
			C254.05,477.06,254.49,477.28,254.49,477.28c-3.01-1.28-6.8-1.8-7.83-1.85c-0.51-0.02-0.99,0.4-0.83,0.89
			c0.96,2.89,4.61,7.89,4.95,8.22c0.34,0.33,1.44,1.34,3.03-0.26"></path>
		<path style="fill:none;stroke:#000000;stroke-linecap:round;stroke-linejoin:round;stroke-miterlimit:10;" d="M261.29,492.18
			c2.46,1.19,6.42,2.51,9.47,2.58c0.51,0.01,0.78-0.57,0.61-1.05c-0.35-0.98-1.95-4.44-4.06-6.95l0,0"></path>
		
			<line style="fill:none;stroke:#000000;stroke-linecap:round;stroke-linejoin:round;stroke-miterlimit:10;" x1="258.83" y1="476.14" x2="262.24" y2="475.98"></line>
		
			<line style="fill:none;stroke:#000000;stroke-linecap:round;stroke-linejoin:round;stroke-miterlimit:10;" x1="266.57" y1="481.88" x2="266.35" y2="478.63"></line>
		<polygon style="fill:none;stroke:#000000;stroke-linecap:round;stroke-linejoin:round;stroke-miterlimit:10;" points="
			264.58,474.89 266.66,476.43 266.51,474.43 		"></polygon>
		<path style="fill:none;stroke:#000000;stroke-linecap:round;stroke-linejoin:round;stroke-miterlimit:10;" d="M246.65,475.43
			c0,0,4.65,3.84,8.14,5.29"></path>
		<path style="fill:none;stroke:#000000;stroke-linecap:round;stroke-linejoin:round;stroke-miterlimit:10;" d="M271.36,494.38
			c-3.29-1.43-7.05-5.82-7.05-5.82s-0.02-0.82,0.99-1.34"></path>
		<g>
			<path style="fill:none;stroke:#000000;stroke-linecap:round;stroke-linejoin:round;stroke-miterlimit:10;" d="M248.88,507.39
				c4.71,0.93,9.75-0.8,12.8-4.92c2.01-2.72,2.75-5.96,2.4-9.07"></path>
			<path style="fill:none;stroke:#000000;stroke-linecap:round;stroke-linejoin:round;stroke-miterlimit:10;" d="M249.02,482.25
				c-3.08,0.57-5.96,2.23-7.97,4.95c-3.01,4.07-3.21,9.3-1.04,13.51"></path>
		</g>
	</g>
	<g>
		<g>
			
				<circle style="fill:none;stroke:#000000;stroke-linecap:round;stroke-linejoin:round;stroke-miterlimit:10;" cx="988.79" cy="861.36" r="19.23"></circle>
		</g>
		<g>
			
				<circle style="fill:none;stroke:#000000;stroke-linecap:round;stroke-linejoin:round;stroke-miterlimit:10;" cx="988.79" cy="861.36" r="10.95"></circle>
		</g>
		<g>
			
				<ellipse transform="matrix(0.7264 -0.6873 0.6873 0.7264 -325.3258 943.9299)" style="fill:none;stroke:#000000;stroke-linecap:round;stroke-linejoin:round;stroke-miterlimit:10;" cx="1022.8" cy="880.54" rx="4.84" ry="2.98"></ellipse>
			
				<line style="fill:none;stroke:#000000;stroke-linecap:round;stroke-linejoin:round;stroke-miterlimit:10;" x1="1019.28" y1="883.86" x2="1003.9" y2="898.42"></line>
		</g>
		<g>
			<path style="fill:none;stroke:#000000;stroke-linecap:round;stroke-linejoin:round;stroke-miterlimit:10;" d="M979.11,827.31
				l-3.52,3.33c-1.94,1.84-2.6,4.3-1.47,5.49c1.13,1.2,3.62,0.67,5.56-1.16l3.52-3.33"></path>
			
				<line style="fill:none;stroke:#000000;stroke-linecap:round;stroke-linejoin:round;stroke-miterlimit:10;" x1="974.12" y1="836.13" x2="958.73" y2="850.69"></line>
		</g>
		
			<line style="fill:none;stroke:#000000;stroke-linecap:round;stroke-linejoin:round;stroke-miterlimit:10;" x1="981.15" y1="829.48" x2="974.12" y2="836.13"></line>
		<g>
			<path style="fill:none;stroke:#000000;stroke-linecap:round;stroke-linejoin:round;stroke-miterlimit:10;" d="M1008.26,884.19
				l-3.18-3.36l13.01-12.31l0,0c1.76,1.86,1.67,4.78-0.18,6.54L1008.26,884.19z"></path>
			<path style="fill:none;stroke:#000000;stroke-linecap:round;stroke-linejoin:round;stroke-miterlimit:10;" d="M997.26,891.41
				L997.26,891.41c-0.88-0.93-0.84-2.39,0.09-3.27l7.73-7.31l3.18,3.36l-7.73,7.31C999.6,892.38,998.14,892.34,997.26,891.41z"></path>
		</g>
	</g>
	<g>
		<g>
			
				<circle style="fill:none;stroke:#000000;stroke-linecap:round;stroke-linejoin:round;stroke-miterlimit:10;" cx="998.83" cy="764.14" r="19.23"></circle>
		</g>
		<g>
			
				<circle style="fill:none;stroke:#000000;stroke-linecap:round;stroke-linejoin:round;stroke-miterlimit:10;" cx="998.83" cy="764.14" r="10.95"></circle>
		</g>
		<g>
			
				<ellipse transform="matrix(0.7264 -0.6873 0.6873 0.7264 -280.5089 891.7301)" style="fill:none;stroke:#000000;stroke-linecap:round;stroke-linejoin:round;stroke-miterlimit:10;" cx="979.65" cy="798.15" rx="2.98" ry="4.84"></ellipse>
			
				<line style="fill:none;stroke:#000000;stroke-linecap:round;stroke-linejoin:round;stroke-miterlimit:10;" x1="976.33" y1="794.63" x2="961.76" y2="779.25"></line>
		</g>
		<g>
			<path style="fill:none;stroke:#000000;stroke-linecap:round;stroke-linejoin:round;stroke-miterlimit:10;" d="M1032.88,754.46
				l-3.33-3.52c-1.84-1.94-4.3-2.6-5.49-1.47c-1.2,1.13-0.67,3.62,1.16,5.56l3.33,3.52"></path>
			
				<line style="fill:none;stroke:#000000;stroke-linecap:round;stroke-linejoin:round;stroke-miterlimit:10;" x1="1024.06" y1="749.47" x2="1009.49" y2="734.08"></line>
		</g>
		
			<line style="fill:none;stroke:#000000;stroke-linecap:round;stroke-linejoin:round;stroke-miterlimit:10;" x1="1030.71" y1="756.5" x2="1024.06" y2="749.47"></line>
		<g>
			<path style="fill:none;stroke:#000000;stroke-linecap:round;stroke-linejoin:round;stroke-miterlimit:10;" d="M976,783.61
				l3.36-3.18l12.31,13.01l0,0c-1.86,1.76-4.78,1.67-6.54-0.18L976,783.61z"></path>
			<path style="fill:none;stroke:#000000;stroke-linecap:round;stroke-linejoin:round;stroke-miterlimit:10;" d="M968.78,772.61
				L968.78,772.61c0.93-0.88,2.39-0.84,3.27,0.09l7.31,7.73l-3.36,3.18l-7.31-7.73C967.81,774.95,967.85,773.49,968.78,772.61z"></path>
		</g>
	</g>
	<g>
		<g>
			
				<circle style="fill:none;stroke:#000000;stroke-linecap:round;stroke-linejoin:round;stroke-miterlimit:10;" cx="1077.99" cy="859.65" r="19.23"></circle>
		</g>
		<g>
			
				<circle style="fill:none;stroke:#000000;stroke-linecap:round;stroke-linejoin:round;stroke-miterlimit:10;" cx="1077.99" cy="859.65" r="10.95"></circle>
		</g>
		<g>
			
				<ellipse transform="matrix(0.7264 -0.6873 0.6873 0.7264 -267.2481 980.019)" style="fill:none;stroke:#000000;stroke-linecap:round;stroke-linejoin:round;stroke-miterlimit:10;" cx="1097.16" cy="825.64" rx="2.98" ry="4.84"></ellipse>
			
				<line style="fill:none;stroke:#000000;stroke-linecap:round;stroke-linejoin:round;stroke-miterlimit:10;" x1="1100.49" y1="829.16" x2="1115.05" y2="844.55"></line>
		</g>
		<g>
			<path style="fill:none;stroke:#000000;stroke-linecap:round;stroke-linejoin:round;stroke-miterlimit:10;" d="M1043.94,869.34
				l3.33,3.52c1.84,1.94,4.3,2.6,5.49,1.47c1.2-1.13,0.67-3.62-1.16-5.56l-3.33-3.52"></path>
			
				<line style="fill:none;stroke:#000000;stroke-linecap:round;stroke-linejoin:round;stroke-miterlimit:10;" x1="1052.76" y1="874.32" x2="1067.32" y2="889.71"></line>
		</g>
		
			<line style="fill:none;stroke:#000000;stroke-linecap:round;stroke-linejoin:round;stroke-miterlimit:10;" x1="1046.11" y1="867.29" x2="1052.76" y2="874.32"></line>
		<g>
			<path style="fill:none;stroke:#000000;stroke-linecap:round;stroke-linejoin:round;stroke-miterlimit:10;" d="M1100.82,840.18
				l-3.36,3.18l-12.31-13.01l0,0c1.86-1.76,4.78-1.67,6.54,0.18L1100.82,840.18z"></path>
			<path style="fill:none;stroke:#000000;stroke-linecap:round;stroke-linejoin:round;stroke-miterlimit:10;" d="M1108.04,851.18
				L1108.04,851.18c-0.93,0.88-2.39,0.84-3.27-0.09l-7.31-7.73l3.36-3.18l7.31,7.73C1109.01,848.84,1108.97,850.3,1108.04,851.18z"></path>
		</g>
	</g>
	
		<line style="fill:none;stroke:#000000;stroke-linecap:round;stroke-linejoin:round;stroke-miterlimit:10;" x1="1498.92" y1="465.57" x2="1498.92" y2="333.25"></line>
</g>
<g id="floor">
	<g>
		<g>
			<g id="LWPOLYLINE_339_">
				
					<rect x="1262.3" y="466.42" style="fill:none;stroke:#000000;stroke-linecap:round;stroke-linejoin:round;stroke-miterlimit:10;" width="129.52" height="129.25"></rect>
			</g>
			<g id="LWPOLYLINE_338_">
				<polyline style="fill:none;stroke:#000000;stroke-linecap:round;stroke-linejoin:round;stroke-miterlimit:10;" points="
					1363.49,503.26 1327.01,545.32 1327.01,516.77 1290.53,558.83 				"></polyline>
			</g>
			<g id="LWPOLYLINE_337_">
				<path style="fill:none;stroke:#000000;stroke-linecap:round;stroke-linejoin:round;stroke-miterlimit:10;" d="M1327.01,499.32
					c-17.63,0-31.93,14.2-31.93,31.73c0,17.52,14.29,31.73,31.93,31.73c17.64,0,31.93-14.21,31.93-31.73
					C1358.94,513.52,1344.64,499.31,1327.01,499.32z"></path>
			</g>
		</g>
	</g>
	
		<line style="fill:none;stroke:#000000;stroke-linecap:round;stroke-linejoin:round;stroke-miterlimit:10;stroke-dasharray:10,10;" x1="1254.05" y1="965.26" x2="1254.05" y2="604.07"></line>
	<g>
		<path style="fill:none;stroke:#000000;stroke-linecap:round;stroke-linejoin:round;stroke-miterlimit:10;" d="M1702.23,714.22
			c108.75,0,197.77,87.96,197.77,196.71l-196.15,0"></path>
		
			<rect x="1687.19" y="905.99" transform="matrix(-2.479654e-05 -1 1 -2.479654e-05 776.2997 2609.8691)" style="fill:none;stroke:#000000;stroke-linecap:round;stroke-linejoin:round;stroke-miterlimit:10;" width="11.72" height="21.6"></rect>
		
			<rect x="1687.19" y="697.56" transform="matrix(-2.479654e-05 -1 1 -2.479654e-05 984.7288 2401.4246)" style="fill:none;stroke:#000000;stroke-linecap:round;stroke-linejoin:round;stroke-miterlimit:10;" width="11.72" height="21.6"></rect>
	</g>
	<g>
		<path style="fill:none;stroke:#000000;stroke-linecap:round;stroke-linejoin:round;stroke-miterlimit:10;" d="M664.36,983.39
			c0,94.94,76.8,172.66,171.74,172.66V984.8"></path>
		
			<rect x="836.1" y="965.94" transform="matrix(-1 -4.392054e-11 4.392054e-11 -1 1682.4321 1950.7418)" style="fill:none;stroke:#000000;stroke-linecap:round;stroke-linejoin:round;stroke-miterlimit:10;" width="10.23" height="18.86"></rect>
		
			<rect x="653.97" y="965.94" transform="matrix(-1 -4.428736e-11 4.428736e-11 -1 1318.3245 1950.7418)" style="fill:none;stroke:#000000;stroke-linecap:round;stroke-linejoin:round;stroke-miterlimit:10;" width="10.39" height="18.86"></rect>
	</g>
	
		<line style="fill:none;stroke:#000000;stroke-linecap:round;stroke-linejoin:round;stroke-miterlimit:10;stroke-dasharray:10,10;" x1="837.8" y1="1376.85" x2="837.8" y2="982.46"></line>
	<g>
		
			<rect x="-57.44" y="1330.38" transform="matrix(6.123234e-17 -1 1 6.123234e-17 -1230.1122 1501.1799)" style="fill:none;stroke:#000000;stroke-linecap:round;stroke-linejoin:round;stroke-miterlimit:10;" width="385.95" height="70.53"></rect>
		
			<line style="fill:none;stroke:#000000;stroke-linecap:round;stroke-linejoin:round;stroke-miterlimit:10;" x1="115.12" y1="1558.69" x2="115.12" y2="1172.75"></line>
		
			<rect x="120.3" y="1405.51" transform="matrix(6.123234e-17 -1 1 6.123234e-17 -1290.3906 1539.9775)" style="fill:none;stroke:#000000;stroke-linecap:round;stroke-linejoin:round;stroke-miterlimit:10;" width="8.98" height="19.34"></rect>
		
			<rect x="120.3" y="1167.96" transform="matrix(6.123234e-17 -1 1 6.123234e-17 -1052.8357 1302.4227)" style="fill:none;stroke:#000000;stroke-linecap:round;stroke-linejoin:round;stroke-miterlimit:10;" width="8.98" height="19.34"></rect>
		
			<rect x="120.3" y="1544.14" transform="matrix(6.123234e-17 -1 1 6.123234e-17 -1429.0166 1678.6035)" style="fill:none;stroke:#000000;stroke-linecap:round;stroke-linejoin:round;stroke-miterlimit:10;" width="8.98" height="19.34"></rect>
		
			<line style="fill:none;stroke:#000000;stroke-linecap:round;stroke-linejoin:round;stroke-miterlimit:10;" x1="134.47" y1="1410.7" x2="134.47" y2="1182.12"></line>
		
			<rect x="60.02" y="1474.88" transform="matrix(6.123234e-17 -1 1 6.123234e-17 -1359.6501 1609.344)" style="fill:none;stroke:#000000;stroke-linecap:round;stroke-linejoin:round;stroke-miterlimit:10;" width="129.65" height="19.24"></rect>
	</g>
	<g>
		
			<rect x="-57.44" y="656.76" transform="matrix(6.123234e-17 -1 1 6.123234e-17 -556.4936 827.5613)" style="fill:none;stroke:#000000;stroke-linecap:round;stroke-linejoin:round;stroke-miterlimit:10;" width="385.95" height="70.53"></rect>
		
			<line style="fill:none;stroke:#000000;stroke-linecap:round;stroke-linejoin:round;stroke-miterlimit:10;" x1="115.12" y1="885.08" x2="115.12" y2="499.13"></line>
		
			<rect x="120.3" y="731.89" transform="matrix(6.123234e-17 -1 1 6.123234e-17 -616.772 866.3589)" style="fill:none;stroke:#000000;stroke-linecap:round;stroke-linejoin:round;stroke-miterlimit:10;" width="8.98" height="19.34"></rect>
		
			<rect x="120.3" y="494.34" transform="matrix(6.123234e-17 -1 1 6.123234e-17 -379.2171 628.8041)" style="fill:none;stroke:#000000;stroke-linecap:round;stroke-linejoin:round;stroke-miterlimit:10;" width="8.98" height="19.34"></rect>
		
			<rect x="120.3" y="870.52" transform="matrix(6.123234e-17 -1 1 6.123234e-17 -755.398 1004.985)" style="fill:none;stroke:#000000;stroke-linecap:round;stroke-linejoin:round;stroke-miterlimit:10;" width="8.98" height="19.34"></rect>
		
			<line style="fill:none;stroke:#000000;stroke-linecap:round;stroke-linejoin:round;stroke-miterlimit:10;" x1="134.47" y1="737.08" x2="134.47" y2="508.5"></line>
		
			<rect x="60.02" y="801.26" transform="matrix(6.123234e-17 -1 1 6.123234e-17 -686.0316 935.7254)" style="fill:none;stroke:#000000;stroke-linecap:round;stroke-linejoin:round;stroke-miterlimit:10;" width="129.65" height="19.24"></rect>
	</g>
	<g>
		<g id="LWPOLYLINE_292_">
			
				<rect x="780.87" y="336.03" style="fill:none;stroke:#000000;stroke-linecap:round;stroke-linejoin:round;stroke-miterlimit:10;" width="130.23" height="130.65"></rect>
		</g>
		<g id="LWPOLYLINE_148_">
			
				<line style="fill:none;stroke:#000000;stroke-linecap:round;stroke-linejoin:round;stroke-miterlimit:10;" x1="813.25" y1="412.91" x2="813.25" y2="455.93"></line>
		</g>
		<g id="LWPOLYLINE_147_">
			
				<line style="fill:none;stroke:#000000;stroke-linecap:round;stroke-linejoin:round;stroke-miterlimit:10;" x1="834.83" y1="434.42" x2="791.66" y2="434.42"></line>
		</g>
		<g id="LWPOLYLINE_146_">
			
				<line style="fill:none;stroke:#000000;stroke-linecap:round;stroke-linejoin:round;stroke-miterlimit:10;" x1="813.25" y1="348.38" x2="813.25" y2="391.4"></line>
		</g>
		<g id="LWPOLYLINE_145_">
			
				<line style="fill:none;stroke:#000000;stroke-linecap:round;stroke-linejoin:round;stroke-miterlimit:10;" x1="834.83" y1="369.89" x2="791.66" y2="369.89"></line>
		</g>
		<g id="LWPOLYLINE_144_">
			
				<line style="fill:none;stroke:#000000;stroke-linecap:round;stroke-linejoin:round;stroke-miterlimit:10;" x1="878" y1="348.38" x2="878" y2="391.4"></line>
		</g>
		<g id="LWPOLYLINE_143_">
			
				<line style="fill:none;stroke:#000000;stroke-linecap:round;stroke-linejoin:round;stroke-miterlimit:10;" x1="899.59" y1="369.89" x2="856.41" y2="369.89"></line>
		</g>
		<g id="LWPOLYLINE_142_">
			
				<line style="fill:none;stroke:#000000;stroke-linecap:round;stroke-linejoin:round;stroke-miterlimit:10;" x1="878" y1="412.91" x2="878" y2="455.93"></line>
		</g>
		<g id="LWPOLYLINE_141_">
			
				<line style="fill:none;stroke:#000000;stroke-linecap:round;stroke-linejoin:round;stroke-miterlimit:10;" x1="899.59" y1="434.42" x2="856.41" y2="434.42"></line>
		</g>
		
			<ellipse style="fill:none;stroke:#000000;stroke-linecap:round;stroke-linejoin:round;stroke-miterlimit:10;" cx="878" cy="434.42" rx="17.27" ry="17.32"></ellipse>
		
			<ellipse style="fill:none;stroke:#000000;stroke-linecap:round;stroke-linejoin:round;stroke-miterlimit:10;" cx="813.25" cy="434.42" rx="17.27" ry="17.32"></ellipse>
		
			<ellipse style="fill:none;stroke:#000000;stroke-linecap:round;stroke-linejoin:round;stroke-miterlimit:10;" cx="878" cy="369.89" rx="17.27" ry="17.32"></ellipse>
		
			<ellipse style="fill:none;stroke:#000000;stroke-linecap:round;stroke-linejoin:round;stroke-miterlimit:10;" cx="813.25" cy="369.89" rx="17.27" ry="17.32"></ellipse>
	</g>
	<g>
		<g id="LWPOLYLINE_140_">
			
				<rect x="1051.32" y="336.28" style="fill:none;stroke:#000000;stroke-linecap:round;stroke-linejoin:round;stroke-miterlimit:10;" width="129.23" height="130.4"></rect>
		</g>
		<g id="LWPOLYLINE_139_">
			<path style="fill:none;stroke:#000000;stroke-linecap:round;stroke-linejoin:round;stroke-miterlimit:10;" d="M1062.08,448.21
				l0-82.54c0-4.2,3.37-7.61,7.54-7.61c0,0,92.62,0,92.62,0c4.16,0,7.54,3.4,7.54,7.61c0,0,0,82.54,0,82.54
				c0,4.2-3.37,7.61-7.54,7.61c0,0-92.62,0-92.62,0C1065.46,455.82,1062.09,452.41,1062.08,448.21z"></path>
		</g>
		<g id="LWPOLYLINE_138_">
			<path style="fill:none;stroke:#000000;stroke-linecap:round;stroke-linejoin:round;stroke-miterlimit:10;" d="M1094.39,386.83
				c-4.17,0-7.56-3.41-7.56-7.62c0-4.21,3.38-7.63,7.56-7.63c4.17,0,7.56,3.41,7.56,7.62
				C1101.95,383.42,1098.56,386.83,1094.39,386.83z"></path>
		</g>
	</g>
	<g>
		<path style="fill:none;stroke:#000000;stroke-linecap:round;stroke-linejoin:round;stroke-miterlimit:10;" d="M1312.98,970.15
			c0-94.9,76.77-172.58,171.67-172.58v171.17"></path>
		
			<rect x="1484.64" y="968.73" transform="matrix(-1 -1.224647e-16 1.224647e-16 -1 2979.5115 1956.3176)" style="fill:none;stroke:#000000;stroke-linecap:round;stroke-linejoin:round;stroke-miterlimit:10;" width="10.22" height="18.85"></rect>
		
			<rect x="1302.59" y="968.73" transform="matrix(-1 -1.225809e-12 1.225809e-12 -1 2615.5691 1956.3176)" style="fill:none;stroke:#000000;stroke-linecap:round;stroke-linejoin:round;stroke-miterlimit:10;" width="10.39" height="18.85"></rect>
	</g>
	<g>
		<path style="fill:none;stroke:#000000;stroke-linecap:round;stroke-linejoin:round;stroke-miterlimit:10;" d="M1182.61,1185.18
			c-94.38,0-171.64-76.35-171.64-170.73h170.23"></path>
		
			<rect x="1185.49" y="1000" transform="matrix(-1.836970e-16 1 -1 -1.836970e-16 2199.9512 -181.2045)" style="fill:none;stroke:#000000;stroke-linecap:round;stroke-linejoin:round;stroke-miterlimit:10;" width="10.17" height="18.75"></rect>
		
			<rect x="1185.41" y="1180.97" transform="matrix(-2.465767e-12 1 -1 -2.465767e-12 2380.9268 -0.2289)" style="fill:none;stroke:#000000;stroke-linecap:round;stroke-linejoin:round;stroke-miterlimit:10;" width="10.33" height="18.75"></rect>
	</g>
	
		<line style="fill:none;stroke:#000000;stroke-linecap:round;stroke-linejoin:round;stroke-miterlimit:10;stroke-dasharray:10,10;" x1="1611.18" y1="602.86" x2="1385.77" y2="602.86"></line>
	<g>
		<g>
			<g id="LWPOLYLINE_283_">
				
					<rect x="1506.88" y="989.1" style="fill:none;stroke:#000000;stroke-linecap:round;stroke-linejoin:round;stroke-miterlimit:10;" width="149.26" height="365.13"></rect>
			</g>
			<g id="LWPOLYLINE_282_">
				<path style="fill:none;stroke:#000000;stroke-linecap:round;stroke-linejoin:round;stroke-miterlimit:10;" d="M1518.82,1036.88
					v245.64c0,32.88,28.07,59.53,62.68,59.53c34.62,0,62.69-26.65,62.69-59.53v-245.64c0.01-15.71-13.3-28.5-29.85-28.69h-65.67
					c-16.49,0-29.85,12.69-29.85,28.35"></path>
			</g>
			<g id="LWPOLYLINE_281_">
				<path style="fill:none;stroke:#000000;stroke-linecap:round;stroke-linejoin:round;stroke-miterlimit:10;" d="M1535.88,1107.66
					v174.86c0,23.94,20.43,43.34,45.63,43.34s45.63-19.4,45.63-43.34v-172.63c-0.02-23.06-19.03-42.07-43.28-43.27
					C1558.68,1065.37,1537.2,1083.74,1535.88,1107.66z"></path>
			</g>
			<g id="LWPOLYLINE_280_">
				<path style="fill:none;stroke:#000000;stroke-linecap:round;stroke-linejoin:round;stroke-miterlimit:10;" d="M1581.51,1290.45
					c4.61,0,8.35-3.55,8.35-7.93c0-4.39-3.74-7.94-8.35-7.93c-4.62,0-8.36,3.55-8.35,7.93
					C1573.16,1286.9,1576.9,1290.45,1581.51,1290.45z"></path>
			</g>
		</g>
		<g>
			<g id="LWPOLYLINE_279_">
				<path style="fill:none;stroke:#000000;stroke-linecap:round;stroke-linejoin:round;stroke-miterlimit:10;" d="M1325.76,1279.49
					l0-59.62c0-20.75-17.17-37.56-38.35-37.56c-21.18,0-38.36,16.82-38.36,37.56l0,59.62c0,5.19,4.29,9.39,9.59,9.39l57.54,0
					C1321.47,1288.88,1325.76,1284.68,1325.76,1279.49z"></path>
			</g>
			<g id="LWPOLYLINE_278_">
				<path style="fill:none;stroke:#000000;stroke-linecap:round;stroke-linejoin:round;stroke-miterlimit:10;" d="M1256.72,1219.87
					l0.01,33.35c0,16.59,13.74,30.05,30.68,30.05c16.95,0,30.69-13.45,30.69-30.05l-0.01-33.35c0-16.59-13.74-30.05-30.68-30.05
					C1270.46,1189.82,1256.72,1203.28,1256.72,1219.87z"></path>
			</g>
			<g id="LWPOLYLINE_277_">
				<path style="fill:none;stroke:#000000;stroke-linecap:round;stroke-linejoin:round;stroke-miterlimit:10;" d="M1275.89,1231.96
					l0.01,24.37c0,6.22,5.15,11.27,11.51,11.27c6.35,0,11.51-5.05,11.51-11.27l-0.01-24.37c0-6.22-5.15-11.27-11.5-11.27
					C1281.05,1220.7,1275.89,1225.74,1275.89,1231.96z"></path>
			</g>
		</g>
		<g>
			<g id="LWPOLYLINE_276_">
				<path style="fill:none;stroke:#000000;stroke-linecap:round;stroke-linejoin:round;stroke-miterlimit:10;" d="M1500.39,1353.49
					l0-60.21c0-8.48-5.48-16-13.55-18.6c-29.3-9.44-60.82-9.44-90.12,0c-8.07,2.6-13.55,10.12-13.55,18.6v60.21"></path>
			</g>
			<g id="LWPOLYLINE_275_">
				<path style="fill:none;stroke:#000000;stroke-linecap:round;stroke-linejoin:round;stroke-miterlimit:10;" d="M1410.52,1336.65
					c-6.48,0-11.72-5.25-11.72-11.72v-18.76c0-4.29,2.8-8.08,6.9-9.34c23.51-7.2,48.63-7.2,72.14,0c4.1,1.26,6.91,5.05,6.91,9.34
					v18.76c0,6.48-5.25,11.73-11.73,11.73"></path>
			</g>
			<g id="LWPOLYLINE_274_">
				<path style="fill:none;stroke:#000000;stroke-linecap:round;stroke-linejoin:round;stroke-miterlimit:10;" d="M1492.57,1324.93
					c0,6.47-5.25,11.72-11.72,11.72h-78.14c-6.48,0-11.72-5.25-11.72-11.72v-31.65c0-5.09,3.28-9.6,8.13-11.15
					c27.74-8.94,57.59-8.94,85.33,0c4.85,1.56,8.13,6.06,8.13,11.15V1324.93z"></path>
			</g>
			<g id="LWPOLYLINE_273_">
				<path style="fill:none;stroke:#000000;stroke-linecap:round;stroke-linejoin:round;stroke-miterlimit:10;" d="M1441.79,1333.16
					c-2.9,0-5.26-2.35-5.26-5.26c0-2.9,2.36-5.26,5.26-5.26c2.9,0,5.25,2.35,5.26,5.26
					C1447.04,1330.8,1444.69,1333.16,1441.79,1333.16z"></path>
			</g>
		</g>
	</g>
	<g>
		<polygon style="fill-rule:evenodd;clip-rule:evenodd;" points="1245.68,594.89 1245.68,611.16 1262.56,611.16 1262.56,326.01 
			1245.68,326.01 1245.68,537.86 1245.68,594.89 		"></polygon>
		<polygon style="fill-rule:evenodd;clip-rule:evenodd;" points="1494.96,989.25 1688.93,989.25 1688.93,967.6 1494.96,967.6 
			1494.96,989.25 		"></polygon>
		<polygon style="fill-rule:evenodd;clip-rule:evenodd;" points="1563.79,611.16 1688.65,611.16 1688.65,594.01 1563.79,594.01 
			1563.79,611.16 		"></polygon>
		<polygon style="fill-rule:evenodd;clip-rule:evenodd;" points="156.72,984.23 655.14,984.23 655.14,966.31 156.72,966.31 
			156.72,984.23 		"></polygon>
		<polygon style="fill-rule:evenodd;clip-rule:evenodd;" points="1175.78,1004.11 1200.8,1004.11 1200.8,969.64 1175.78,969.64 
			1175.78,1003.72 1175.78,1004.11 		"></polygon>
		<polygon style="fill-rule:evenodd;clip-rule:evenodd;" points="846.24,984.23 1199.09,984.23 1199.09,967.14 846.24,967.14 
			846.24,984.23 		"></polygon>
		<polygon points="1731.29,1019.42 1731.29,922.41 1682.16,922.41 1682.16,1019.42 1682.16,1045.88 1682.16,1223.48 
			1682.16,1424.78 1731.29,1424.78 		"></polygon>
		<polygon points="1730.96,632.08 1688.46,632.08 1682.09,632.08 1682.09,696.36 1682.09,696.36 1682.09,699.58 1682.09,699.58 
			1682.09,703.19 1688.46,703.19 1730.96,703.19 		"></polygon>
		<polygon points="1371.02,1373.62 1371.02,1373.32 1368.34,1373.32 1368.34,1373.66 1357.66,1373.61 1357.66,1305.26 
			1195.26,1305.26 1195.26,1294.58 1195.24,1294.58 1195.24,1291.91 1195.24,1289.34 1368.34,1289.34 1371.02,1289.34 
			1373.58,1289.34 1373.58,1291.91 1373.58,1373.62 		"></polygon>
		<polygon style="fill-rule:evenodd;clip-rule:evenodd;" points="100.06,990.45 100.06,1172.87 170.62,1172.87 170.62,884.85 
			100.06,884.85 100.06,990.45 		"></polygon>
		<polygon style="fill-rule:evenodd;clip-rule:evenodd;" points="100.32,287.68 100.32,337.72 1730.96,337.72 1730.96,287.68 
			146.91,287.68 100.32,287.68 		"></polygon>
		<polygon style="fill-rule:evenodd;clip-rule:evenodd;" points="839,1376.5 839,1427.49 1731.16,1427.49 1731.16,1376.5 
			1603.63,1376.5 839,1376.5 		"></polygon>
		<polygon style="fill-rule:evenodd;clip-rule:evenodd;" points="100.21,1557.85 100.21,1712.39 170.8,1712.39 170.8,1557.85 
			100.21,1557.85 		"></polygon>
		<polygon style="fill-rule:evenodd;clip-rule:evenodd;" points="100,414.17 100,499.36 170.71,499.36 170.71,289.95 100,289.95 
			100,304.91 100,414.17 		"></polygon>
		<polygon points="1730.96,288.54 1688.11,288.54 1681.69,288.54 1681.69,599.36 1681.69,599.36 1681.69,614.9 1681.69,614.9 
			1681.69,632.38 1688.11,632.38 1730.96,632.38 		"></polygon>
		
			<rect x="1235.03" y="920.94" transform="matrix(3.320994e-11 -1 1 3.320994e-11 267.8946 2223.5276)" style="fill-rule:evenodd;clip-rule:evenodd;" width="21.36" height="113.76"></rect>
		
			<rect x="1423.37" y="1125.53" transform="matrix(4.595264e-11 -1 1 4.595264e-11 69.7108 2813.8521)" style="fill-rule:evenodd;clip-rule:evenodd;" width="36.81" height="493.09"></rect>
		<polygon style="fill-rule:evenodd;clip-rule:evenodd;" points="1258.77,611.16 1392.37,611.16 1392.37,594.26 1258.77,594.26 
			1258.77,611.16 		"></polygon>
		<polygon style="fill-rule:evenodd;clip-rule:evenodd;" points="1695.98,1358.89 1695.98,984.38 1656.37,984.38 1656.37,1358.89 
			1695.98,1358.89 		"></polygon>
		<polygon style="fill-rule:evenodd;clip-rule:evenodd;" points="1180.74,465.28 1180.74,335.66 1189.42,335.66 1189.42,465.28 
			1180.74,465.28 		"></polygon>
		<polygon style="fill-rule:evenodd;clip-rule:evenodd;" points="1175.55,1389.12 1200.64,1389.12 1200.64,1195.23 1175.55,1195.23 
			1175.55,1386.94 1175.55,1389.12 		"></polygon>
		<polygon style="fill-rule:evenodd;clip-rule:evenodd;" points="155.54,1664.57 155.54,1712.39 884.87,1712.39 884.87,1664.57 
			780.62,1664.57 155.54,1664.57 		"></polygon>
		<polygon style="fill-rule:evenodd;clip-rule:evenodd;" points="837.42,1376.85 884.87,1376.85 884.87,1697.91 837.42,1697.91 
			837.42,1652.02 837.42,1376.85 		"></polygon>
		
			<rect x="1214.11" y="423.35" transform="matrix(-1.836970e-16 1 -1 -1.836970e-16 1679.6769 -757.3862)" style="fill-rule:evenodd;clip-rule:evenodd;" width="8.84" height="75.58"></rect>
		
			<rect x="1248.6" y="960.52" transform="matrix(-1.836970e-16 1 -1 -1.836970e-16 2223.0313 -285.3146)" style="fill-rule:evenodd;clip-rule:evenodd;" width="11.14" height="16.67"></rect>
	</g>
</g>
</svg>
