<?xml version="1.0" encoding="utf-8"?>
<!-- Generator: Adobe Illustrator 24.1.2, SVG Export Plug-In . SVG Version: 6.00 Build 0)  -->
<svg version="1.1" id="Layer_1" xmlns="http://www.w3.org/2000/svg" xmlns:xlink="http://www.w3.org/1999/xlink" x="0px" y="0px" width="2000px" height="2000px" viewBox="0 0 2000 2000" style="enable-background:new 0 0 2000 2000;" xml:space="preserve">
<path id="background" style="fill:#FFFFFF;" d="M1689.12,100.65v11v85.8v1465.14v59.4h-663.27v-20.32h-10.68
	c-2.85,50.2-23.39,97.48-58.38,133.91c-36.95,38.48-86.64,61.36-139.9,64.42c-0.01,0-0.02,0-0.04,0h0h0c0,0,0,0,0,0
	c-0.09,0-0.17-0.02-0.25-0.05c-0.03-0.01-0.05-0.03-0.08-0.05c-0.04-0.03-0.09-0.05-0.12-0.08c-0.03-0.02-0.04-0.06-0.06-0.09
	c-0.03-0.04-0.06-0.07-0.08-0.11c-0.01-0.03-0.02-0.07-0.03-0.11c-0.01-0.04-0.03-0.08-0.03-0.12c0-0.01,0-0.01,0-0.02
	c0-0.01,0-0.01,0-0.02v-197.69h-10.35v20.32H310.88v-59.4V197.45v-85.8v-11h76.35c0,0,0,0,0,0c0-0.36,0.29-0.65,0.65-0.65h439.98
	c0.36,0,0.65,0.29,0.65,0.65c0,0,0,0,0,0h262.69c0,0,0,0,0,0c0-0.36,0.29-0.65,0.65-0.65h395.98c0.36,0,0.65,0.29,0.65,0.65
	c0,0,0,0,0,0H1689.12z"></path>
<g id="h1">
	<path id="h1_path" style="fill:none;" d="M1236.43,1685.21H786.1v-588h450.33V1685.21z"></path>
	<text id="h1_text" transform="matrix(1 0 0 1 889.3736 1424.9978)" style="font-family: GraphikLCG-Regular; font-size: 40px; text-anchor: middle; text-align: center;"></text>
</g>
<g id="c1">
	<path id="c1_path" style="fill:none;" d="M986.18,100.65v996.56H786.1l0,588H339.24v-577V100.65H986.18z"></path>
	<text id="c1_text" transform="matrix(1 0 0 1 694.1674 822.2275)" style="font-family: GraphikLCG-Regular; font-size: 40px; text-anchor: middle; text-align: center;"></text>
</g>
<g id="s1">
	<path id="s1_path" style="fill:none;" d="M1236.43,1097.21h414.17v588h-414.17V1097.21z"></path>
	<text id="s1_text" transform="matrix(1 0 0 1 1387.203 1375.5155)" style="font-family: GraphikLCG-Regular; font-size: 40px; text-anchor: middle; text-align: center;"></text>
</g>
<g id="r1">
	<path id="r1_path" style="fill:none;" d="M1650.6,1097.21H986.18V100.65h664.42V1097.21z"></path>
	<text id="r1_text" transform="matrix(1 0 0 1 1287.2795 851.9213)" style="font-family: GraphikLCG-Regular; font-size: 40px; text-anchor: middle; text-align: center;"></text>
</g>
<path id="u7" style="fill:#FFFFFF;stroke:#FFFFFF;stroke-linecap:round;stroke-linejoin:round;stroke-miterlimit:10;" d="
	M545.73,894.85c-8.65,0-15.66-7.01-15.66-15.66c0-8.65,7.01-15.66,15.66-15.66c8.65,0,15.66,7.01,15.66,15.66
	C561.38,887.84,554.37,894.85,545.73,894.85z"></path>
<g id="mebel">
	<g>
		<g>
			
				<rect x="952.1" y="411.15" style="fill:none;stroke:#000000;stroke-linecap:round;stroke-linejoin:round;stroke-miterlimit:10;" width="11.58" height="231.54"></rect>
			<polygon style="fill:none;stroke:#000000;stroke-linecap:round;stroke-linejoin:round;stroke-miterlimit:10;" points="
				975.25,440.1 963.67,411.15 963.67,642.7 975.25,613.75 			"></polygon>
		</g>
		
			<rect x="889.37" y="329.95" style="fill:none;stroke:#000000;stroke-linecap:round;stroke-linejoin:round;stroke-miterlimit:10;" width="85.88" height="388.23"></rect>
	</g>
	<g>
		<g>
			
				<rect x="1010.75" y="365.61" transform="matrix(-1 -1.224647e-16 1.224647e-16 -1 2033.0798 962.7554)" style="fill:none;stroke:#000000;stroke-linecap:round;stroke-linejoin:round;stroke-miterlimit:10;" width="11.58" height="231.54"></rect>
			<polygon style="fill:none;stroke:#000000;stroke-linecap:round;stroke-linejoin:round;stroke-miterlimit:10;" points="
				999.17,568.21 1010.75,597.15 1010.75,365.61 999.17,394.55 			"></polygon>
		</g>
		
			<rect x="999.17" y="352.92" transform="matrix(-1 -1.224647e-16 1.224647e-16 -1 2033.7936 965.6101)" style="fill:none;stroke:#000000;stroke-linecap:round;stroke-linejoin:round;stroke-miterlimit:10;" width="35.45" height="259.77"></rect>
	</g>
	<g>
		<path style="fill:none;stroke:#000000;stroke-linecap:round;stroke-linejoin:round;stroke-miterlimit:10;" d="M405.39,517.39
			V308.85c0-2.86,2.32-5.19,5.19-5.19h133.5c2.86,0,5.19,2.32,5.19,5.19v208.54c0,2.86-2.32,5.19-5.19,5.19h-133.5
			C407.71,522.58,405.39,520.26,405.39,517.39z"></path>
		<path style="fill:none;stroke:#000000;stroke-linecap:round;stroke-linejoin:round;stroke-miterlimit:10;" d="M405.39,517.39
			V308.85c0-2.86-2.32-5.19-5.19-5.19h-34.85c-2.86,0-5.19,2.32-5.19,5.19v208.54c0,2.86,2.32,5.19,5.19,5.19h34.85
			C403.07,522.58,405.39,520.26,405.39,517.39z"></path>
		<path style="fill:none;stroke:#000000;stroke-linecap:round;stroke-linejoin:round;stroke-miterlimit:10;" d="M405.39,527.77
			v208.54c0,2.86,2.32,5.19,5.19,5.19h133.5c2.86,0,5.19-2.32,5.19-5.19V527.77c0-2.86-2.32-5.19-5.19-5.19h-133.5
			C407.71,522.58,405.39,524.9,405.39,527.77z"></path>
		<path style="fill:none;stroke:#000000;stroke-linecap:round;stroke-linejoin:round;stroke-miterlimit:10;" d="M405.39,527.77
			v208.54c0,2.86-2.32,5.19-5.19,5.19h-34.85c-2.86,0-5.19-2.32-5.19-5.19V527.77c0-2.86,2.32-5.19,5.19-5.19h34.85
			C403.07,522.58,405.39,524.9,405.39,527.77z"></path>
	</g>
	<g>
		<g>
			<g>
				
					<rect x="1437.71" y="498.03" transform="matrix(3.187020e-06 -1 1 3.187020e-06 1111.5018 2123.5264)" style="fill:none;stroke:#000000;stroke-linecap:round;stroke-linejoin:round;stroke-miterlimit:10;" width="359.62" height="15.95"></rect>
				
					<rect x="1201.66" y="277.94" transform="matrix(3.187020e-06 -1 1 3.187020e-06 875.4592 1887.4817)" style="fill:none;stroke:#000000;stroke-linecap:round;stroke-linejoin:round;stroke-miterlimit:10;" width="359.62" height="456.14"></rect>
				<path style="fill:none;stroke:#000000;stroke-linecap:round;stroke-linejoin:round;stroke-miterlimit:10;" d="M1527.49,512.78
					v-13.53l39.28,0c11.75,0,21.27-9.52,21.27-21.27l0-101.03c0-11.75-9.52-21.27-21.27-21.27l-39.28,0v-13.53l68.76,0
					c2.94,0,5.32,2.38,5.32,5.32l0,317.09c0,2.94-2.38,5.32-5.32,5.32l-68.76,0v-13.53l39.28,0c11.75,0,21.27-9.52,21.27-21.27
					l0-101.03c0-11.75-9.52-21.27-21.27-21.27L1527.49,512.78z"></path>
				<path style="fill:none;stroke:#000000;stroke-linecap:round;stroke-linejoin:round;stroke-miterlimit:10;" d="M1166.7,664.55
					l0-317.09c0-2.94,2.38-5.32,5.32-5.32l355.47,0l0,327.72l-355.47,0C1169.08,669.87,1166.7,667.49,1166.7,664.55z"></path>
			</g>
		</g>
		
			<rect x="1517.59" y="236.23" style="fill:none;stroke:#000000;stroke-linecap:round;stroke-linejoin:round;stroke-miterlimit:10;" width="107.91" height="89.96"></rect>
		
			<rect x="1517.59" y="685.82" style="fill:none;stroke:#000000;stroke-linecap:round;stroke-linejoin:round;stroke-miterlimit:10;" width="107.91" height="89.96"></rect>
	</g>
	<g>
		
			<rect x="1282.58" y="964.37" style="fill:none;stroke:#000000;stroke-linecap:round;stroke-linejoin:round;stroke-miterlimit:10;" width="339.97" height="120.55"></rect>
		
			<line style="fill:none;stroke:#000000;stroke-linecap:round;stroke-linejoin:round;stroke-miterlimit:10;" x1="1282.58" y1="969.44" x2="1622.54" y2="969.44"></line>
	</g>
	<g>
		
			<rect x="1063.87" y="1499.74" transform="matrix(6.123234e-17 -1 1 6.123234e-17 -393.6342 2726.3979)" style="fill:none;stroke:#000000;stroke-linecap:round;stroke-linejoin:round;stroke-miterlimit:10;" width="205.01" height="120.55"></rect>
		
			<line style="fill:none;stroke:#000000;stroke-linecap:round;stroke-linejoin:round;stroke-miterlimit:10;" x1="1111.18" y1="1662.52" x2="1111.18" y2="1457.51"></line>
	</g>
	<g>
		<polygon style="fill:none;stroke:#000000;stroke-linecap:round;stroke-linejoin:round;stroke-miterlimit:10;" points="
			569.34,1662.57 699.45,1662.57 699.45,1532.48 569.34,1532.46 		"></polygon>
		<g>
			
				<line style="fill:none;stroke:#000000;stroke-linecap:round;stroke-linejoin:round;stroke-miterlimit:10;" x1="634.39" y1="1565.66" x2="634.39" y2="1629.36"></line>
			
				<line style="fill:none;stroke:#000000;stroke-linecap:round;stroke-linejoin:round;stroke-miterlimit:10;" x1="602.54" y1="1597.51" x2="666.24" y2="1597.51"></line>
			<polyline style="fill:none;stroke:#000000;stroke-linecap:round;stroke-linejoin:round;stroke-miterlimit:10;" points="
				618.47,1572.74 634.39,1581.59 650.32,1572.74 			"></polyline>
			<polyline style="fill:none;stroke:#000000;stroke-linecap:round;stroke-linejoin:round;stroke-miterlimit:10;" points="
				659.17,1581.59 650.32,1597.51 659.17,1613.44 			"></polyline>
			<polyline style="fill:none;stroke:#000000;stroke-linecap:round;stroke-linejoin:round;stroke-miterlimit:10;" points="
				650.32,1622.29 634.39,1613.44 618.47,1622.29 			"></polyline>
			<polyline style="fill:none;stroke:#000000;stroke-linecap:round;stroke-linejoin:round;stroke-miterlimit:10;" points="
				609.62,1613.44 618.47,1597.51 609.62,1581.59 			"></polyline>
		</g>
	</g>
	<g>
		<polygon style="fill:none;stroke:#000000;stroke-linecap:round;stroke-linejoin:round;stroke-miterlimit:10;" points="
			493.12,1194.01 493.12,1101.39 364.02,1101.39 364,1194.01 		"></polygon>
		<path style="fill:none;stroke:#000000;stroke-linecap:round;stroke-linejoin:round;stroke-miterlimit:10;" d="M457.3,1147.7
			c0.45,8.57-9.48,20.9-23.92,15.15c-9.91-3.95-33.55-15.15-33.55-15.15s23.64-11.2,33.55-15.15
			C447.82,1126.8,457.75,1139.13,457.3,1147.7z"></path>
	</g>
	<path style="fill:none;stroke:#000000;stroke-linecap:round;stroke-linejoin:round;stroke-miterlimit:10;" d="M627.55,621.36
		c11.78,0,35.15,0,46.93,0c12.05,0,18.21-9.88,20.22-22.15c7.33-50.04,7.33-100.88,0-150.92c-2.01-12.27-8.17-22.15-20.22-22.15
		c-11.78,0-35.15,0-46.93,0c-12.05,0-18.21,9.88-20.22,22.15c-7.33,50.04-7.33,100.88,0,150.92
		C609.34,611.48,615.5,621.36,627.55,621.36z"></path>
	
		<rect x="362.9" y="1521.74" style="fill:none;stroke:#000000;stroke-linecap:round;stroke-linejoin:round;stroke-miterlimit:10;" width="130.36" height="140.83"></rect>
	
		<rect x="493.03" y="1532.92" style="fill:none;stroke:#000000;stroke-linecap:round;stroke-linejoin:round;stroke-miterlimit:10;" width="76.12" height="130.84"></rect>
	
		<rect x="362.79" y="1323.64" style="fill:none;stroke:#000000;stroke-linecap:round;stroke-linejoin:round;stroke-miterlimit:10;" width="130.24" height="68.93"></rect>
	
		<rect x="360.5" y="1015.87" style="fill:none;stroke:#000000;stroke-linecap:round;stroke-linejoin:round;stroke-miterlimit:10;" width="132.38" height="85.45"></rect>
	<g>
		<g>
			<g>
				<g>
					<path style="fill:none;stroke:#000000;stroke-linecap:round;stroke-linejoin:round;stroke-miterlimit:10;" d="M705.51,949.14
						c-8.76,0-16.96,2.39-24,6.55c-7.04,4.16-12.92,10.1-17.01,17.19c-0.74,1.29-0.84,2.75-0.41,4.04c0.43,1.29,1.39,2.41,2.74,3.02
						c0.02,0.01,0.03,0.01,0.05,0.02c0.02,0.01,0.03,0.01,0.05,0.02c1.13,0.51,2.35,0.53,3.45,0.15c1.1-0.37,2.07-1.14,2.68-2.21
						c3.23-5.62,7.87-10.32,13.44-13.62c5.57-3.3,12.07-5.19,19.01-5.19s13.44,1.89,19.01,5.19s10.21,8,13.44,13.62
						c0.61,1.07,1.59,1.84,2.68,2.21s2.33,0.36,3.45-0.15c0.02-0.01,0.03-0.01,0.05-0.02c0.02-0.01,0.03-0.01,0.05-0.02
						c1.36-0.61,2.31-1.73,2.74-3.02c0.43-1.29,0.34-2.75-0.41-4.04c-4.1-7.09-9.97-13.02-17.01-17.19S714.27,949.14,705.51,949.14z
						"></path>
				</g>
			</g>
		</g>
		<g>
			<g>
				<g>
					<path style="fill:none;stroke:#000000;stroke-linecap:round;stroke-linejoin:round;stroke-miterlimit:10;" d="M587.23,949.14
						c-8.76,0-16.96,2.39-24,6.55c-7.04,4.16-12.92,10.1-17.01,17.19c-0.74,1.29-0.84,2.75-0.41,4.04c0.43,1.29,1.39,2.41,2.74,3.02
						c0.02,0.01,0.03,0.01,0.05,0.02c0.02,0.01,0.03,0.01,0.05,0.02c1.13,0.51,2.35,0.53,3.45,0.15c1.1-0.37,2.07-1.14,2.68-2.21
						c3.23-5.62,7.87-10.32,13.44-13.62c5.57-3.3,12.07-5.19,19.01-5.19c6.94,0,13.44,1.89,19.01,5.19s10.21,8,13.44,13.62
						c0.61,1.07,1.59,1.84,2.68,2.21c1.1,0.37,2.33,0.36,3.45-0.15c0.02-0.01,0.03-0.01,0.05-0.02c0.02-0.01,0.03-0.01,0.05-0.02
						c1.36-0.61,2.31-1.73,2.74-3.02c0.43-1.29,0.34-2.75-0.41-4.04c-4.1-7.09-9.97-13.02-17.01-17.19
						C604.19,951.53,595.99,949.14,587.23,949.14z"></path>
				</g>
			</g>
		</g>
		<path style="fill:none;stroke:#000000;stroke-linecap:round;stroke-linejoin:round;stroke-miterlimit:10;" d="M673.55,1015.95
			c-3.45-5.67-5.44-12.32-5.44-19.44c0-20.66,16.74-37.4,37.4-37.4c20.66,0,37.4,16.74,37.4,37.4c0,7.12-1.99,13.77-5.44,19.44
			L673.55,1015.95z"></path>
		<path style="fill:none;stroke:#000000;stroke-linecap:round;stroke-linejoin:round;stroke-miterlimit:10;" d="M742.21,980.39
			c3.82,0,6.15-4.14,4.26-7.45c-8.12-14.21-23.42-23.79-40.96-23.79s-32.84,9.58-40.96,23.79c-1.89,3.31,0.44,7.45,4.26,7.45h0
			c1.81,0,3.41-1.04,4.32-2.61c6.47-11.17,18.55-18.68,32.38-18.68c13.83,0,25.91,7.51,32.38,18.68
			C738.8,979.35,740.4,980.39,742.21,980.39L742.21,980.39z"></path>
		<path style="fill:none;stroke:#000000;stroke-linecap:round;stroke-linejoin:round;stroke-miterlimit:10;" d="M555.27,1015.95
			c-3.45-5.67-5.44-12.32-5.44-19.44c0-20.66,16.74-37.4,37.4-37.4s37.4,16.74,37.4,37.4c0,7.12-1.99,13.77-5.44,19.44
			L555.27,1015.95z"></path>
		<path style="fill:none;stroke:#000000;stroke-linecap:round;stroke-linejoin:round;stroke-miterlimit:10;" d="M623.93,980.39
			c3.82,0,6.15-4.14,4.26-7.45c-8.12-14.21-23.42-23.79-40.96-23.79s-32.84,9.58-40.96,23.79c-1.89,3.31,0.44,7.45,4.26,7.45l0,0
			c1.81,0,3.41-1.04,4.32-2.61c6.47-11.17,18.55-18.68,32.38-18.68s25.91,7.51,32.38,18.68
			C620.52,979.35,622.12,980.39,623.93,980.39L623.93,980.39z"></path>
		
			<line style="fill:none;stroke:#000000;stroke-linecap:round;stroke-linejoin:round;stroke-miterlimit:10;" x1="673.55" y1="1015.94" x2="737.47" y2="1015.94"></line>
		<polyline style="fill:none;stroke:#000000;stroke-linecap:round;stroke-linejoin:round;stroke-miterlimit:10;" points="
			737.47,1015.94 773.73,1015.94 773.73,1101.39 492.9,1101.39 492.9,1015.94 673.55,1015.94 		"></polyline>
	</g>
	<g>
		<g>
			<path style="fill:none;stroke:#000000;stroke-miterlimit:10;" d="M431.85,643.25c0.1,0.11,0.21,0.21,0.33,0.31
				c6.35,5.19,12.32,10.91,17.76,17.01s10.45,12.69,14.87,19.57c0.09,0.14,0.18,0.26,0.28,0.37c0.52,0.59,1.29,0.92,2.1,0.9
				c0.46-0.01,1.33-0.15,2.03-0.97l0.04-0.05c10.42-12.75,22.72-23.72,36.57-32.62l0.08-0.05c0.87-0.59,1.11-1.43,1.17-1.89
				c0.11-0.8-0.13-1.6-0.66-2.19c-0.1-0.11-0.21-0.21-0.32-0.31c-6.35-5.19-12.32-10.91-17.76-17.01
				c-5.44-6.1-10.45-12.69-14.87-19.57c-0.09-0.14-0.18-0.26-0.28-0.37c-0.53-0.59-1.29-0.92-2.1-0.9
				c-0.46,0.01-1.33,0.15-2.03,0.97l-0.04,0.05c-10.42,12.75-22.72,23.72-36.57,32.62l-0.08,0.05c-0.87,0.59-1.11,1.43-1.17,1.89
				C431.08,641.86,431.32,642.66,431.85,643.25z"></path>
		</g>
		<path style="fill:none;stroke:#000000;stroke-miterlimit:10;" d="M469.25,680.39l-0.04,0.05c-0.69,0.82-1.56,0.96-2.03,0.97
			c-0.81,0.02-1.57-0.31-2.1-0.9c-0.1-0.11-0.19-0.23-0.28-0.37c-3.89-6.05-8.29-11.82-12.99-17.29
			c-6.05,2.32-12.21,4.37-18.54,5.93l-0.06,0.01c-1.03,0.27-1.54,1-1.74,1.41c-0.36,0.72-0.39,1.55-0.09,2.28
			c0.06,0.14,0.13,0.27,0.21,0.41c4.32,6.95,8.11,14.29,11.29,21.83c3.17,7.54,5.77,15.39,7.73,23.35c0.04,0.15,0.08,0.29,0.14,0.43
			c0.31,0.73,0.92,1.29,1.7,1.53c0.44,0.14,1.3,0.29,2.21-0.25l0.08-0.05c13.98-8.68,29.18-15.08,45.16-19.01l0.06-0.01
			c1.03-0.27,1.54-1,1.74-1.41c0.36-0.72,0.39-1.55,0.09-2.28c-0.06-0.14-0.13-0.27-0.22-0.41c-4.32-6.95-8.11-14.29-11.29-21.83
			c-1.62-3.86-3.09-7.8-4.4-11.79C479.92,668.34,474.35,674.15,469.25,680.39z"></path>
		<path style="fill:none;stroke:#000000;stroke-miterlimit:10;" d="M469.25,680.39l-0.04,0.05c-0.69,0.82-1.56,0.96-2.03,0.97
			c-0.81,0.02-1.57-0.31-2.1-0.9c-0.1-0.11-0.19-0.23-0.28-0.37c-4.42-6.88-9.42-13.47-14.87-19.57c-0.15-0.17-0.32-0.32-0.47-0.49
			c-5.57,2.08-11.22,3.95-17.01,5.38l-0.01,0c-4.07,1-5.97,5.68-3.76,9.24l0.01,0.01c8.48,13.66,14.76,28.56,18.6,44.17l0,0.01
			c1,4.07,5.68,5.97,9.24,3.76l0.01-0.01c13.66-8.48,28.56-14.76,44.17-18.6l0.01,0c4.07-1,5.97-5.68,3.76-9.24l-0.01-0.01
			c-6.66-10.72-11.9-22.23-15.73-34.22C481.7,666.6,475.14,673.18,469.25,680.39z"></path>
	</g>
	<g>
		<g>
			<path style="fill:none;stroke:#000000;stroke-miterlimit:10;" d="M428.64,397.92c0.1-0.11,0.21-0.21,0.33-0.31
				c6.35-5.19,12.32-10.91,17.76-17.01c5.44-6.1,10.45-12.69,14.87-19.57c0.09-0.14,0.18-0.26,0.28-0.37
				c0.52-0.59,1.29-0.92,2.1-0.9c0.46,0.01,1.33,0.15,2.03,0.97l0.04,0.05c10.42,12.75,22.72,23.72,36.57,32.62l0.08,0.05
				c0.87,0.59,1.11,1.43,1.17,1.89c0.11,0.8-0.13,1.6-0.66,2.19c-0.1,0.11-0.21,0.21-0.32,0.31c-6.35,5.19-12.32,10.91-17.76,17.01
				c-5.44,6.1-10.45,12.69-14.87,19.57c-0.09,0.14-0.18,0.26-0.28,0.37c-0.53,0.59-1.29,0.92-2.1,0.9
				c-0.46-0.01-1.33-0.15-2.03-0.97l-0.04-0.05c-10.42-12.75-22.72-23.72-36.57-32.62l-0.08-0.05c-0.87-0.59-1.11-1.43-1.17-1.89
				C427.87,399.31,428.11,398.51,428.64,397.92z"></path>
		</g>
		<path style="fill:none;stroke:#000000;stroke-miterlimit:10;" d="M466.04,360.78l-0.04-0.05c-0.69-0.82-1.56-0.96-2.03-0.97
			c-0.81-0.02-1.57,0.31-2.1,0.9c-0.1,0.11-0.19,0.23-0.28,0.37c-3.89,6.05-8.29,11.82-12.99,17.29
			c-6.05-2.32-12.21-4.37-18.54-5.93l-0.06-0.01c-1.03-0.27-1.54-1-1.74-1.41c-0.36-0.72-0.39-1.55-0.09-2.28
			c0.06-0.14,0.13-0.27,0.21-0.41c4.32-6.95,8.11-14.29,11.29-21.83c3.17-7.54,5.77-15.39,7.73-23.35c0.04-0.15,0.08-0.29,0.14-0.43
			c0.31-0.73,0.92-1.29,1.7-1.53c0.44-0.14,1.3-0.29,2.21,0.25l0.08,0.05c13.98,8.68,29.18,15.08,45.16,19.01l0.06,0.01
			c1.03,0.27,1.54,1,1.74,1.41c0.36,0.72,0.39,1.55,0.09,2.28c-0.06,0.14-0.13,0.27-0.22,0.41c-4.32,6.95-8.11,14.29-11.29,21.83
			c-1.62,3.86-3.09,7.8-4.4,11.79C476.71,372.83,471.14,367.02,466.04,360.78z"></path>
		<path style="fill:none;stroke:#000000;stroke-miterlimit:10;" d="M466.04,360.78l-0.04-0.05c-0.69-0.82-1.56-0.96-2.03-0.97
			c-0.81-0.02-1.57,0.31-2.1,0.9c-0.1,0.11-0.19,0.23-0.28,0.37c-4.42,6.88-9.42,13.47-14.87,19.57c-0.15,0.17-0.32,0.32-0.47,0.49
			c-5.57-2.08-11.22-3.95-17.01-5.38l-0.01,0c-4.07-1-5.97-5.68-3.76-9.24l0.01-0.01c8.48-13.66,14.76-28.56,18.6-44.17l0-0.01
			c1-4.07,5.68-5.97,9.24-3.76l0.01,0.01c13.66,8.48,28.56,14.76,44.17,18.6l0.01,0c4.07,1,5.97,5.68,3.76,9.24l-0.01,0.01
			c-6.66,10.72-11.9,22.23-15.73,34.22C478.49,374.57,471.93,367.99,466.04,360.78z"></path>
	</g>
	<g>
		<path style="fill:none;stroke:#000000;stroke-miterlimit:10;" d="M1264.44,615.58c-0.64,0.98-1.36,1.95-2.17,2.93
			c-11.22,13.51-31.24,17.27-45.76,8.27c-1.68-1.04-3.89-0.45-4.86,1.27l0,0c-0.9,1.6-0.4,3.63,1.13,4.63
			c15.52,10.13,36.62,7.12,48.62-7.43c5.22-6.33,8.11-13.87,8.52-21.49l0,0c0.56-11.2-3.97-22.53-13.26-30.25
			c-5.43-4.51-11.76-7.2-18.27-8.14c-6.51-0.94-13.49-0.35-19.91,1.94"></path>
		<path style="fill:none;stroke:#000000;stroke-miterlimit:10;" d="M1212.14,591.63l-4.01,1.41c-2.12,0.75-4.42-0.5-4.96-2.68l0,0
			c-0.48-1.95,0.63-3.94,2.55-4.55l0.67-0.21"></path>
		<path style="fill:none;stroke:#000000;stroke-miterlimit:10;" d="M1212.5,589.18"></path>
		<path style="fill:none;stroke:#000000;stroke-miterlimit:10;" d="M1208.41,585.2"></path>
		<path style="fill:none;stroke:#000000;stroke-miterlimit:10;" d="M1237.62,588.88c-3.79,6.4-2.29,15.24,3.31,19.8
			c-1.69-4.91-0.82-10.56,2.94-14.75c1.12-1.25,2.42-2.26,3.82-3.04"></path>
		<path style="fill:none;stroke:#000000;stroke-miterlimit:10;" d="M1226.57,573.21"></path>
		<path style="fill:none;stroke:#000000;stroke-miterlimit:10;" d="M1241.74,577.61l-3.69,10.27c0.69-1.62-1.27,3-2.65,6.21
			c-0.82,1.91-3.15,2.76-5.22,3l-17,2.22c-0.88,0.1-1.72-0.12-2.41-0.56c-0.91-0.58-1.56-1.55-1.69-2.7
			c-0.23-2.03,1.23-3.86,3.26-4.1"></path>
		<path style="fill:none;stroke:#000000;stroke-miterlimit:10;" d="M1212.65,568.98c-3.42,1.37-6.04,4.24-7.12,7.76l-8.1,5.46
			c-0.43,0.29-0.31,0.96,0.2,1.08l8.35,1.85c0.76,1.77,1.92,3.31,3.36,4.53c0.14,0.12,6.57,4.66,6.74,4.76c0.59,0.35,1.27,0.6,2,0.7
			c2.92,0.41,5.63-1.63,6.03-4.56c0.01-0.06,0.01-0.12,0.02-0.18c4.17-2.87,6.43-8.25,4.7-13.85c-1.26-4.1-4.79-7.29-8.99-8.15"></path>
		<line style="fill:none;stroke:#000000;stroke-miterlimit:10;" x1="1220.25" y1="587.4" x2="1222.17" y2="584.17"></line>
		<polygon style="fill:none;stroke:#000000;stroke-miterlimit:10;" points="1220.41,590.62 1219.65,593.55 1216.72,592.79 		"></polygon>
		<path style="fill:none;stroke:#000000;stroke-miterlimit:10;" d="M1223.28,573.7c-1.77-3.14-5.1-7.17-8.35-9.54
			c-0.54-0.4-1.27,0.03-1.45,0.68c-0.36,1.32-1.23,6.29-0.84,10.6c0,0-0.1-0.64,0,0"></path>
		<path style="fill:none;stroke:#000000;stroke-miterlimit:10;" d="M1234.98,620.65l12.25-4.09c-0.63-0.38-1.24-0.81-1.82-1.29
			c-1.13-0.94-2.01-2.04-2.79-3.2l-9.45,4.94c-1.72,0.9-2.44,3-1.62,4.76h0c0.25,0.54,0.63,0.95,1.07,1.3
			C1232.98,621.97,1233.82,621.04,1234.98,620.65z"></path>
		<path style="fill:none;stroke:#000000;stroke-miterlimit:10;" d="M1247.69,590.9c-1.4,0.78-2.7,1.79-3.82,3.04
			c-5.65,6.3-4.9,15.97,1.55,21.33c0.58,0.48,1.19,0.91,1.82,1.29l-12.25,4.09c-1.77,0.59-2.9,2.4-2.52,4.23
			c0.44,2.11,2.58,3.36,4.62,2.75l18.01-5.4c0.49-0.15,0.9-0.5,1.12-0.97l1.28-2.8c3.33-0.59,8.11-1.74,11.65-8.96"></path>
	</g>
	<g>
		<g>
			<path style="fill:none;stroke:#000000;stroke-miterlimit:10;" d="M1035.93,273.74c-0.45-1.09-0.83-2.22-1.13-3.37"></path>
			<path style="fill:none;stroke:#000000;stroke-miterlimit:10;" d="M1060.01,238.47c1.86,0.04,3.74,0.28,5.62,0.75
				c0.42,0.1,0.84,0.22,1.25,0.34"></path>
		</g>
		<g>
			<path style="fill:none;stroke:#000000;stroke-miterlimit:10;" d="M1061.94,241.32c1.01,0.11,2.02,0.29,3.04,0.54"></path>
			<path style="fill:none;stroke:#000000;stroke-miterlimit:10;" d="M1038.2,272.09c-0.37-0.96-0.67-1.95-0.91-2.96"></path>
		</g>
		<g>
			<path style="fill:none;stroke:#000000;stroke-miterlimit:10;" d="M1022.8,247.69c-1.98,1.06-3.93,2.56-5.71,4.68
				c1.3,14.01,15.28,17.54,15.28,17.54c2.71,0.84,5.57-0.37,6.89-2.76"></path>
		</g>
		<line style="fill:none;stroke:#000000;stroke-miterlimit:10;" x1="1025.27" y1="255.37" x2="1017.39" y2="252.38"></line>
		<line style="fill:none;stroke:#000000;stroke-miterlimit:10;" x1="1059.29" y1="268.3" x2="1045.7" y2="263.14"></line>
		<g>
			<path style="fill:none;stroke:#000000;stroke-miterlimit:10;" d="M1071.86,263.67C1071.86,263.67,1071.86,263.67,1071.86,263.67
				C1071.85,263.68,1071.84,263.68,1071.86,263.67z"></path>
			<path style="fill:none;stroke:#000000;stroke-miterlimit:10;" d="M1083.16,278.79c6.22-3.66,17.04-12.33,16.72-28.25
				c-3.03-2.89-6.21-4.87-9.37-6.18"></path>
			<path style="fill:none;stroke:#000000;stroke-miterlimit:10;" d="M1071.1,263.22c-2.16,0.96-3.72,2.77-4.57,4.91"></path>
			<path style="fill:none;stroke:#000000;stroke-miterlimit:10;" d="M1057.75,253.7c-0.05,1.36,0.2,2.75,0.79,4.08
				c2.07,4.71,7.86,7.5,12.57,5.43c0.96-0.42,0.59-0.25,0.47-0.21"></path>
			<path style="fill:none;stroke:#000000;stroke-miterlimit:10;" d="M1065.62,244.53c-1.48,0.55-2.32,0.98-2.32,0.98"></path>
		</g>
		<line style="fill:none;stroke:#000000;stroke-miterlimit:10;" x1="1059.44" y1="268.3" x2="1099.87" y2="250.55"></line>
		<g>
			<path style="fill:none;stroke:#000000;stroke-miterlimit:10;" d="M1044.93,251.54C1044.94,251.54,1044.94,251.55,1044.93,251.54
				C1044.95,251.56,1044.94,251.55,1044.93,251.54z"></path>
			<path style="fill:none;stroke:#000000;stroke-miterlimit:10;" d="M1046.06,250.64C1046.06,250.63,1046.06,250.63,1046.06,250.64
				C1046.07,250.64,1046.07,250.65,1046.06,250.64z"></path>
			<path style="fill:none;stroke:#000000;stroke-miterlimit:10;" d="M1030.78,263.67c3.24,4,9.1,4.61,13.1,1.37
				s5.17-9.56,1.94-13.55c-0.66-0.82-0.4-0.5-0.32-0.4c-0.25-0.31-0.45-0.56-0.45-0.56s0.2,0.25,0.45,0.56c-0.08-0.09,0,0,0.32,0.4
				c2.78,3.42,7.89,4.03,11.81,2.1c0.65-0.32,1.28-0.72,1.85-1.18c4-3.24,4.61-9.1,1.37-13.1c0,0-0.22-0.31-0.65-0.83
				c-2.93-3.53-15.51-16.91-34.17-11.42C1015.42,246.69,1030.78,263.67,1030.78,263.67z"></path>
		</g>
		<line style="fill:none;stroke:#000000;stroke-miterlimit:10;" x1="1059.44" y1="268.3" x2="1026.03" y2="227.06"></line>
		<g>
			<path style="fill:none;stroke:#000000;stroke-miterlimit:10;" d="M1041.82,271.34c-1.86-0.29-3.83,0.31-5.21,1.79
				c0,0-10.41,9.99-4.61,22.8c4.92,1.83,9.29,1.44,12.84,0.23"></path>
		</g>
		<line style="fill:none;stroke:#000000;stroke-miterlimit:10;" x1="1041.15" y1="286.73" x2="1032" y2="295.94"></line>
		<line style="fill:none;stroke:#000000;stroke-miterlimit:10;" x1="1059.44" y1="268.3" x2="1056.9" y2="270.86"></line>
		<g>
			<path style="fill:none;stroke:#000000;stroke-miterlimit:10;" d="M1060.17,277.48C1060.17,277.47,1060.17,277.47,1060.17,277.48
				C1060.17,277.45,1060.17,277.46,1060.17,277.48z"></path>
			<path style="fill:none;stroke:#000000;stroke-miterlimit:10;" d="M1058.72,277.47C1058.72,277.47,1058.72,277.47,1058.72,277.47
				C1058.72,277.46,1058.72,277.45,1058.72,277.47z"></path>
			<path style="fill:none;stroke:#000000;stroke-miterlimit:10;" d="M1069.48,267.65c-5.14,0-10.03,4.17-10.03,9.31"></path>
			<path style="fill:none;stroke:#000000;stroke-miterlimit:10;" d="M1059.44,277.48c0.01,0.13,0,0,0-0.51
				c-0.01-5.14-4.89-9.31-10.04-9.31c-5.14,0-9.31,4.17-9.31,9.31c0,0-1.25,22.86,19.35,31.44c8.55-3.56,13.33-9.58,16.01-15.4"></path>
		</g>
		<line style="fill:none;stroke:#000000;stroke-miterlimit:10;" x1="1059.44" y1="285.65" x2="1059.44" y2="308.4"></line>
		<g>
			<path style="fill:none;stroke:#000000;stroke-miterlimit:10;" d="M1068.64,277.02C1068.64,277.02,1068.64,277.01,1068.64,277.02
				C1068.63,277.01,1068.63,277.01,1068.64,277.02z"></path>
			<path style="fill:none;stroke:#000000;stroke-miterlimit:10;" d="M1067.99,277.66C1067.99,277.66,1067.99,277.66,1067.99,277.66
				C1067.99,277.65,1067.99,277.65,1067.99,277.66z"></path>
			<path style="fill:none;stroke:#000000;stroke-miterlimit:10;" d="M1076.73,268.51c-2.29-2.3-6-2.3-8.3-0.02
				c-2.3,2.29-2.63,6.32-0.34,8.62c0.47,0.47,0.28,0.29,0.23,0.23c0.17,0.18,0.32,0.32,0.32,0.32s-0.14-0.14-0.32-0.32
				c0.06,0.05,0,0-0.23-0.23c-2.29-2.29-6.32-1.98-8.62,0.3s-2.3,6-0.02,8.3c0,0,9.6,10.76,22.62,5.43
				c2.01-4.86,1.77-9.24,0.69-12.84C1080.93,272.29,1076.73,268.51,1076.73,268.51z"></path>
		</g>
		<line style="fill:none;stroke:#000000;stroke-miterlimit:10;" x1="1059.26" y1="268.3" x2="1082.07" y2="291.14"></line>
		<g>
			<path style="fill:none;stroke:#000000;stroke-miterlimit:10;" d="M1075.8,247.03C1075.8,247.03,1075.8,247.03,1075.8,247.03
				C1075.8,247.04,1075.8,247.03,1075.8,247.03z"></path>
			<path style="fill:none;stroke:#000000;stroke-miterlimit:10;" d="M1076.51,247.6C1076.51,247.6,1076.51,247.6,1076.51,247.6
				C1076.51,247.61,1076.5,247.61,1076.51,247.6z"></path>
			<path style="fill:none;stroke:#000000;stroke-miterlimit:10;" d="M1066.48,239.9c-2.04,2.52-1.65,6.21,0.87,8.25
				s6.57,1.93,8.61-0.59c0.42-0.52,0.26-0.31,0.2-0.25c0.16-0.19,0.28-0.35,0.28-0.35s-0.13,0.16-0.28,0.35c0.05-0.06,0,0-0.2,0.25
				c-2.03,2.52-1.29,6.5,1.23,8.54c2.52,2.04,6.21,1.65,8.25-0.87c0,0,9.67-10.7,2.98-23.07
				C1074.92,228.2,1066.48,239.9,1066.48,239.9z"></path>
		</g>
		<line style="fill:none;stroke:#000000;stroke-miterlimit:10;" x1="1059.52" y1="268.3" x2="1088.41" y2="232.16"></line>
	</g>
	<g>
		<path style="fill:none;stroke:#000000;stroke-miterlimit:10;" d="M770.71,297.33c-1.12-1.63-2-3.41-2.63-5.29"></path>
		<g>
			<path style="fill:none;stroke:#000000;stroke-miterlimit:10;" d="M806.08,273.85c1.06,1.65,1.89,3.44,2.46,5.32"></path>
			<g>
				<g>
					<g>
						<path style="fill:none;stroke:#000000;stroke-miterlimit:10;" d="M789.89,286.92c1.62,1.7,4.01,2.44,6.3,1.91
							c5.03-1.15,14.48-3.64,24.21-7.89c0.75-0.33,0.58-1.45-0.24-1.51c-10.08-0.69-19.37,0.1-24.66,0.74"></path>
						<path style="fill:none;stroke:#000000;stroke-miterlimit:10;" d="M787.45,284.46c-1.99-1.92-4.81-2.68-7.49-2
							c-5.03,1.29-13.8,3.83-23.01,7.89c-0.76,0.33-0.56,1.46,0.27,1.51c10.09,0.67,19.18-0.22,24.29-0.93
							c1.09-2.35,3.12-4.13,5.62-4.84"></path>
					</g>
					<path style="fill:none;stroke:#000000;stroke-miterlimit:10;" d="M803,256.9c-2.04,10.11-5.23,18.28-7.1,22.55
						c-0.9,2.06-2.47,3.74-4.47,4.77l-1.95,1.01c-0.42,0.22-0.94,0.01-1.1-0.44l-0.6-1.7c-0.97-2.74-0.66-5.76,0.83-8.26
						c2.5-4.2,6.95-11.17,13.02-18.58C802.13,255.63,803.16,256.11,803,256.9z M775.74,315.03c6.29-7.77,10.86-15.49,13.31-20
						c1.34-2.45,1.43-5.38,0.28-7.92l-0.38-0.84c-0.16-0.36-0.56-0.54-0.93-0.43l-0.9,0.26c-2.66,0.76-4.81,2.68-5.84,5.24
						c-1.91,4.75-4.96,13.22-6.93,23.05C774.2,315.18,775.23,315.66,775.74,315.03z"></path>
					<g>
						<path style="fill:none;stroke:#000000;stroke-miterlimit:10;" d="M787.34,281.23c-0.58-1.13-1.45-2.09-2.56-2.75
							c-3.97-2.38-12.4-7.05-22.87-10.54c-0.77-0.26-1.37,0.7-0.81,1.29c5.8,6.05,11.57,10.9,15.66,14.11
							c1.17-0.33,2.27-0.63,3.21-0.87c2.68-0.69,5.5,0.08,7.49,2l0.78,0.75"></path>
						<path style="fill:none;stroke:#000000;stroke-miterlimit:10;" d="M788.96,286.27l0.38,0.84c0.59,1.32,0.84,2.73,0.77,4.13
							c0.65,1.01,1.54,1.86,2.63,2.44c4.38,2.32,12.75,6.43,22.71,9.7c0.77,0.25,1.37-0.71,0.81-1.29
							c-6.06-6.24-12.26-11.07-16.54-14.11c-1.31,0.34-2.53,0.63-3.52,0.86c-2.29,0.53-4.69-0.21-6.3-1.91l-0.84-0.89"></path>
					</g>
					<g>
						<path style="fill:none;stroke:#000000;stroke-miterlimit:10;" d="M789.97,289.15c0.13,0.69,0.17,1.39,0.14,2.09l0,0
							C790.14,290.54,790.1,289.85,789.97,289.15z"></path>
						<path style="fill:none;stroke:#000000;stroke-miterlimit:10;" d="M792.74,293.68c-1.09-0.58-1.98-1.43-2.63-2.44
							c-0.07,1.31-0.41,2.61-1.05,3.79c-0.29,0.54-0.62,1.13-0.98,1.76c2.3,5.62,5.6,12.87,9.69,19.58c0.43,0.7,1.53,0.37,1.46-0.45
							c-0.57-7.43-1.99-14.84-3.34-20.63C794.7,294.7,793.62,294.15,792.74,293.68z"></path>
						<path style="fill:none;stroke:#000000;stroke-miterlimit:10;" d="M789.97,289.14c-0.13-0.69-0.34-1.38-0.63-2.03
							C789.63,287.77,789.84,288.45,789.97,289.14z"></path>
						<path style="fill:none;stroke:#000000;stroke-miterlimit:10;" d="M789.09,274.04c-2.29-5.55-5.52-12.58-9.49-19.11
							c-0.43-0.7-1.53-0.37-1.46,0.45c0.59,7.71,2.1,15.41,3.49,21.28c1.22,0.68,2.31,1.31,3.15,1.81"></path>
						<path style="fill:none;stroke:#000000;stroke-miterlimit:10;" d="M789.97,289.15c0,0,0-0.01,0-0.01
							C789.97,289.15,789.97,289.15,789.97,289.15z"></path>
					</g>
				</g>
				<g>
					<line style="fill:none;stroke:#000000;stroke-miterlimit:10;" x1="781.5" y1="290.93" x2="781.5" y2="290.93"></line>
					<path style="fill:none;stroke:#000000;stroke-miterlimit:10;" d="M759.46,313.77c-0.53,0.88,0.49,1.89,1.37,1.36
						c5.69-3.47,11.79-8.03,16.2-11.47c1.51-5.13,3.1-9.43,4.26-12.33c0.06-0.14,0.15-0.26,0.22-0.4c-1.63,0.23-3.7,0.47-6.04,0.67
						C771.13,296.69,765.04,304.45,759.46,313.77z"></path>
					<path style="fill:none;stroke:#000000;stroke-miterlimit:10;" d="M779.66,267.15c-4.05-4.22-9.21-9.14-15.33-13.93
						c-0.81-0.63-1.93,0.26-1.51,1.19c2.51,5.59,6.29,12.53,9.02,17.4"></path>
					<path style="fill:none;stroke:#000000;stroke-miterlimit:10;" d="M769.77,277.51c-5.96-0.25-13.17-0.28-20.84,0.28
						c-1.05,0.08-1.29,1.5-0.32,1.91c6.68,2.9,13.16,5.02,18.71,6.58"></path>
					<path style="fill:none;stroke:#000000;stroke-miterlimit:10;" d="M793.75,266.78c-0.48-6.58-1.33-14.13-2.87-21.54
						c-0.21-1.02-1.66-1.09-1.93-0.09c-1.83,6.72-3.08,13.59-3.96,19.75"></path>
					<path style="fill:none;stroke:#000000;stroke-miterlimit:10;" d="M783.57,304.2c0.48,6.65,1.34,14.34,2.9,21.86
						c0.21,1.02,1.66,1.09,1.93,0.09c1.83-6.71,3.09-13.6,3.97-19.75c-1.67-3.44-3.12-6.74-4.29-9.61"></path>
					<path style="fill:none;stroke:#000000;stroke-miterlimit:10;" d="M797.82,304.83c4.15,4.04,9.28,8.68,15.2,13.26
						c0.81,0.63,1.94-0.26,1.51-1.19c-3.04-6.66-6.41-12.57-9.46-17.4"></path>
					<path style="fill:none;stroke:#000000;stroke-miterlimit:10;" d="M799.72,287.97"></path>
					<path style="fill:none;stroke:#000000;stroke-miterlimit:10;" d="M828.78,291.6c-6.61-2.88-13.08-5.06-18.67-6.71
						c-3.93,1.32-7.49,2.33-10.39,3.08c2.05,1.46,4.55,3.35,7.25,5.58c6.14,0.36,13.59,0.5,21.46-0.05
						C829.46,293.43,829.73,292.02,828.78,291.6z"></path>
					<path style="fill:none;stroke:#000000;stroke-miterlimit:10;" d="M801.51,279.59c4.19-4.63,10.5-12.27,16.4-22.08
						c0.53-0.88-0.49-1.89-1.36-1.36c-6.25,3.77-11.7,7.57-16.1,10.87"></path>
				</g>
			</g>
			<g>
				<path style="fill:none;stroke:#000000;stroke-miterlimit:10;" d="M791.98,308.91c0.51-0.08,1.01-0.2,1.51-0.32"></path>
				<path style="fill:none;stroke:#000000;stroke-miterlimit:10;" d="M802.04,265.86c-0.34-0.24-0.69-0.48-1.05-0.71"></path>
				<path style="fill:none;stroke:#000000;stroke-miterlimit:10;" d="M811.3,279.19c-0.7-2.61-1.84-5.06-3.35-7.27"></path>
				<path style="fill:none;stroke:#000000;stroke-miterlimit:10;" d="M809.64,295.87c0.34-0.7,0.65-1.42,0.93-2.15"></path>
				<path style="fill:none;stroke:#000000;stroke-miterlimit:10;" d="M798.16,307.03c0.44-0.2,0.86-0.42,1.29-0.65"></path>
				<path style="fill:none;stroke:#000000;stroke-miterlimit:10;" d="M812.08,285.51c0-0.44,0.01-0.88-0.01-1.31"></path>
				<path style="fill:none;stroke:#000000;stroke-miterlimit:10;" d="M765.33,292.07c0.8,2.71,2.07,5.24,3.75,7.5"></path>
				<path style="fill:none;stroke:#000000;stroke-miterlimit:10;" d="M766.79,274.79c-0.41,0.84-0.78,1.71-1.09,2.6"></path>
				<path style="fill:none;stroke:#000000;stroke-miterlimit:10;" d="M775,305.21c0.44,0.3,0.9,0.57,1.37,0.84"></path>
				<path style="fill:none;stroke:#000000;stroke-miterlimit:10;" d="M780.93,308.07c0.5,0.16,1.01,0.31,1.53,0.44
					c0.5,0.12,0.99,0.2,1.49,0.29"></path>
				<path style="fill:none;stroke:#000000;stroke-miterlimit:10;" d="M770.47,269.34c-0.41,0.45-0.79,0.92-1.16,1.4"></path>
				<path style="fill:none;stroke:#000000;stroke-miterlimit:10;" d="M785.5,261.62c-0.68,0.08-1.36,0.19-2.02,0.32"></path>
				<path style="fill:none;stroke:#000000;stroke-miterlimit:10;" d="M796.5,262.93c-0.82-0.3-1.66-0.57-2.53-0.79
					c-0.21-0.05-0.42-0.08-0.63-0.12"></path>
				<path style="fill:none;stroke:#000000;stroke-miterlimit:10;" d="M779.06,263.3c-0.74,0.31-1.47,0.66-2.17,1.04"></path>
				<path style="fill:none;stroke:#000000;stroke-miterlimit:10;" d="M764.36,285.42c0,0.65,0.03,1.29,0.08,1.93"></path>
			</g>
		</g>
	</g>
	<g>
		<g>
			<circle style="fill:none;stroke:#000000;stroke-miterlimit:10;" cx="709.78" cy="1038.44" r="15.61"></circle>
		</g>
		<g>
			<circle style="fill:none;stroke:#000000;stroke-miterlimit:10;" cx="709.78" cy="1038.44" r="8.89"></circle>
		</g>
		<g>
			<ellipse style="fill:none;stroke:#000000;stroke-miterlimit:10;" cx="679.5" cy="1047.79" rx="2.42" ry="3.93"></ellipse>
			<line style="fill:none;stroke:#000000;stroke-miterlimit:10;" x1="679.5" y1="1043.86" x2="679.5" y2="1026.67"></line>
		</g>
		<g>
			<path style="fill:none;stroke:#000000;stroke-miterlimit:10;" d="M735.26,1051.72v-3.93c0-2.17-1.08-3.93-2.42-3.93
				s-2.42,1.76-2.42,3.93v3.93"></path>
			<line style="fill:none;stroke:#000000;stroke-miterlimit:10;" x1="732.84" y1="1043.86" x2="732.84" y2="1026.67"></line>
		</g>
		<line style="fill:none;stroke:#000000;stroke-miterlimit:10;" x1="732.84" y1="1051.72" x2="732.84" y2="1043.86"></line>
		<g>
			<path style="fill:none;stroke:#000000;stroke-miterlimit:10;" d="M685.46,1037.18h3.75v14.54l0,0c-2.07,0-3.75-1.68-3.75-3.75
				V1037.18z"></path>
			<path style="fill:none;stroke:#000000;stroke-miterlimit:10;" d="M687.33,1026.67L687.33,1026.67c1.04,0,1.88,0.84,1.88,1.88
				v8.64h-3.75v-8.64C685.46,1027.51,686.3,1026.67,687.33,1026.67z"></path>
		</g>
	</g>
	<g>
		<g>
			<circle style="fill:none;stroke:#000000;stroke-miterlimit:10;" cx="589.17" cy="1038.44" r="15.61"></circle>
		</g>
		<g>
			<circle style="fill:none;stroke:#000000;stroke-miterlimit:10;" cx="589.17" cy="1038.44" r="8.89"></circle>
		</g>
		<g>
			<ellipse style="fill:none;stroke:#000000;stroke-miterlimit:10;" cx="558.89" cy="1047.79" rx="2.42" ry="3.93"></ellipse>
			<line style="fill:none;stroke:#000000;stroke-miterlimit:10;" x1="558.89" y1="1043.86" x2="558.89" y2="1026.67"></line>
		</g>
		<g>
			<path style="fill:none;stroke:#000000;stroke-miterlimit:10;" d="M614.65,1051.72v-3.93c0-2.17-1.08-3.93-2.42-3.93
				s-2.42,1.76-2.42,3.93v3.93"></path>
			<line style="fill:none;stroke:#000000;stroke-miterlimit:10;" x1="612.23" y1="1043.86" x2="612.23" y2="1026.67"></line>
		</g>
		<line style="fill:none;stroke:#000000;stroke-miterlimit:10;" x1="612.23" y1="1051.72" x2="612.23" y2="1043.86"></line>
		<g>
			<path style="fill:none;stroke:#000000;stroke-miterlimit:10;" d="M564.85,1037.18h3.75v14.54l0,0c-2.07,0-3.75-1.68-3.75-3.75
				V1037.18z"></path>
			<path style="fill:none;stroke:#000000;stroke-miterlimit:10;" d="M566.73,1026.67L566.73,1026.67c1.04,0,1.88,0.84,1.88,1.88
				v8.64h-3.75v-8.64C564.85,1027.51,565.69,1026.67,566.73,1026.67z"></path>
		</g>
	</g>
	<g>
		<path style="fill:none;stroke:#000000;stroke-miterlimit:10;" d="M454.84,1599.83l-35.79,29.06c-9.39,7.62-23.17,6.19-30.79-3.19
			l0,0c-7.62-9.39-6.19-23.17,3.19-30.79l35.79-29.06c9.39-7.62,23.17-6.19,30.79,3.19l0,0
			C465.66,1578.42,464.23,1592.2,454.84,1599.83z"></path>
		<circle style="fill:none;stroke:#000000;stroke-miterlimit:10;" cx="400.03" cy="1610.86" r="8.24"></circle>
		<circle style="fill:none;stroke:#000000;stroke-miterlimit:10;" cx="418.74" cy="1611.56" r="8.24"></circle>
		<circle style="fill:none;stroke:#000000;stroke-miterlimit:10;" cx="412.68" cy="1593.94" r="8.24"></circle>
		<path style="fill:none;stroke:#000000;stroke-miterlimit:10;" d="M431.98,1567.01l-1.65,0.87l3.63,6.27
			c3,14.16-6.3,21.3-11.08,25.73c-1.11,1.02-0.17,2.87,1.31,2.59c5.24-0.97,12.99-3.64,16.27-11c3.75-8.42-1.51-15-4.69-17.98
			L431.98,1567.01z"></path>
		<path style="fill:none;stroke:#000000;stroke-miterlimit:10;" d="M448.28,1574.65l-1.83,0.35l1.64,7.05
			c-1.26,14.42-12.24,18.54-18.1,21.38c-1.36,0.66-1,2.69,0.5,2.86c5.29,0.6,13.49,0.3,18.77-5.78c6.05-6.96,2.93-14.78,0.76-18.57
			L448.28,1574.65z"></path>
	</g>
	<g>
		<g>
			<path style="fill:none;stroke:#000000;stroke-miterlimit:10;" d="M455.31,1042.47l1.14-0.79c1.84-1.27,4.01-1.9,6.24-2.14
				c1.65-0.18,3.25-0.96,4.45-2.39c1.76-2.11,2.06-5.18,0.71-7.57c-2.2-3.88-7.23-4.58-10.38-1.8c-1.18,1.04-1.9,2.39-2.16,3.82
				c-0.38,2.08-1.41,3.99-2.83,5.57l-0.93,1.04c-1.26,1.41-3.47,1.4-4.72-0.02l-3.5-3.97c-1.92-2.17-5.23-2.38-7.41-0.47
				l-29.86,26.32c-2.17,1.92-2.38,5.23-0.47,7.41l14.9,16.9c1.92,2.17,5.23,2.38,7.41,0.47l29.86-26.32
				c2.17-1.92,2.38-5.23,0.47-7.41l-3.5-3.97C453.49,1045.74,453.76,1043.55,455.31,1042.47z"></path>
			<circle style="fill:none;stroke:#000000;stroke-miterlimit:10;" cx="461.84" cy="1032.94" r="3.28"></circle>
		</g>
		<g>
			<path style="fill:none;stroke:#000000;stroke-miterlimit:10;" d="M434.95,1049.18l1.05-3.12c0.66-1.95,2.78-3.01,4.73-2.35
				l6.96,2.34c1.95,0.66,3.01,2.78,2.35,4.73l-1.05,3.12c-0.66,1.95-2.78,3.01-4.73,2.35l-6.96-2.34
				C435.35,1053.25,434.3,1051.14,434.95,1049.18z"></path>
			<path style="fill:none;stroke:#000000;stroke-miterlimit:10;" d="M424.42,1058.47l1.05-3.12c0.66-1.95,2.78-3.01,4.73-2.35
				l6.96,2.34c1.95,0.66,3.01,2.78,2.35,4.73l-1.05,3.12c-0.66,1.95-2.78,3.01-4.73,2.35l-6.96-2.34
				C424.81,1062.54,423.76,1060.43,424.42,1058.47z"></path>
			<path style="fill:none;stroke:#000000;stroke-miterlimit:10;" d="M413.93,1067.72l1.05-3.12c0.66-1.95,2.78-3.01,4.73-2.35
				l6.96,2.34c1.95,0.66,3.01,2.78,2.35,4.73l-1.05,3.12c-0.66,1.95-2.78,3.01-4.73,2.35l-6.96-2.34
				C414.33,1071.79,413.27,1069.67,413.93,1067.72z"></path>
		</g>
	</g>
	<g>
		<polygon style="fill:none;stroke:#000000;stroke-miterlimit:10;" points="667.81,511.95 670.96,517.77 626.94,541.62 
			622.98,534.29 618.99,540.84 650.81,560.21 676.84,517.45 		"></polygon>
		<line style="fill:none;stroke:#000000;stroke-miterlimit:10;" x1="666.12" y1="508.83" x2="674.3" y2="499.82"></line>
		<line style="fill:none;stroke:#000000;stroke-miterlimit:10;" x1="648.33" y1="558.7" x2="674.35" y2="515.94"></line>
		<g>
			<polygon style="fill:none;stroke:#000000;stroke-miterlimit:10;" points="653.22,485.02 667.59,511.54 676.46,501.78 
				648.89,476.73 629.85,497.68 			"></polygon>
			<polygon style="fill:none;stroke:#000000;stroke-miterlimit:10;" points="638.79,535.2 642.79,538.83 653.16,527.42 			"></polygon>
		</g>
		
			<rect x="615.05" y="494.69" transform="matrix(0.8793 -0.4763 0.4763 0.8793 -167.2269 366.8495)" style="fill:none;stroke:#000000;stroke-miterlimit:10;" width="50.06" height="37.25"></rect>
		<line style="fill:none;stroke:#000000;stroke-miterlimit:10;" x1="625.56" y1="539.06" x2="669.57" y2="515.21"></line>
	</g>
	<g>
		<g>
			<circle style="fill:#FFFFFF;stroke:#000000;stroke-miterlimit:10;" cx="1569.8" cy="730.79" r="36.07"></circle>
			<circle style="fill:#FFFFFF;stroke:#000000;stroke-miterlimit:10;" cx="1569.8" cy="730.79" r="12.87"></circle>
		</g>
		<line style="fill:#FFFFFF;stroke:#000000;stroke-miterlimit:10;" x1="1556.93" y1="730.79" x2="1582.66" y2="730.79"></line>
		<line style="fill:#FFFFFF;stroke:#000000;stroke-miterlimit:10;" x1="1569.8" y1="743.66" x2="1569.8" y2="717.92"></line>
	</g>
	<g>
		<g>
			<circle style="fill:#FFFFFF;stroke:#000000;stroke-miterlimit:10;" cx="1569.8" cy="282.26" r="36.07"></circle>
			<circle style="fill:#FFFFFF;stroke:#000000;stroke-miterlimit:10;" cx="1569.8" cy="282.26" r="12.87"></circle>
		</g>
		<line style="fill:#FFFFFF;stroke:#000000;stroke-miterlimit:10;" x1="1556.93" y1="282.26" x2="1582.66" y2="282.26"></line>
		<line style="fill:#FFFFFF;stroke:#000000;stroke-miterlimit:10;" x1="1569.8" y1="295.12" x2="1569.8" y2="269.39"></line>
	</g>
</g>
<g id="floor">
	<g>
		<path d="M797.06,1519.6v-13.2h-96.8v13.2h0v142.99H363.67V197.45h13.2v-85.8h11v-11h-77v11v85.8v1465.14v59.4h494.98v-59.4h-8.8
			V1519.6z M713.46,1662.59V1519.6h61.6v142.99H713.46z"></path>
		<polygon points="975.25,197.45 975.25,846.42 1001.65,846.42 1001.65,197.45 1080.85,197.45 1080.85,111.65 1091.85,111.65 
			1091.85,100.65 827.86,100.65 827.86,111.65 838.86,111.65 838.86,197.45 		"></polygon>
		<polygon points="1487.83,100.65 1487.83,111.65 1498.83,111.65 1498.83,197.45 1625.33,197.45 1625.33,1084.01 1228.24,1084.01 
			1001.65,1084.01 1001.65,1044.41 975.25,1044.41 975.25,1084.01 975.25,1110.41 1228.24,1110.41 1228.24,1260.01 1252.44,1260.01 
			1252.44,1108.21 1625.33,1108.21 1625.33,1662.59 1252.44,1662.59 1252.44,1436 1228.24,1436 1228.24,1662.59 1025.85,1662.59 
			1025.85,1721.99 1689.12,1721.99 1689.12,1662.59 1689.12,197.45 1689.12,111.65 1689.12,100.65 		"></polygon>
	</g>
	<g id="LINE_00000103223586523232124110000010243975526211843769_">
		
			<line style="fill:none;stroke:#000000;stroke-linecap:round;stroke-linejoin:round;stroke-miterlimit:10;" x1="1091.85" y1="100.65" x2="1487.83" y2="100.65"></line>
	</g>
	<g id="LINE_00000031908104987343787550000010170060980746655678_">
		
			<line style="fill:none;stroke:#000000;stroke-linecap:round;stroke-linejoin:round;stroke-miterlimit:10;" x1="1498.83" y1="131.45" x2="1080.85" y2="131.45"></line>
	</g>
	<g id="LINE_00000054956082182722865150000002385138454118054586_">
		
			<line style="fill:none;stroke:#000000;stroke-linecap:round;stroke-linejoin:round;stroke-miterlimit:10;" x1="1091.85" y1="111.65" x2="1091.85" y2="131.45"></line>
	</g>
	<g id="LINE_00000149351141881470641260000009445974355218714506_">
		
			<line style="fill:none;stroke:#000000;stroke-linecap:round;stroke-linejoin:round;stroke-miterlimit:10;" x1="1487.83" y1="111.65" x2="1487.83" y2="131.45"></line>
	</g>
	<g id="LINE_00000013899487238886560320000013738294157341950616_">
		
			<line style="fill:none;stroke:#000000;stroke-linecap:round;stroke-linejoin:round;stroke-miterlimit:10;" x1="1498.83" y1="111.65" x2="1080.85" y2="111.65"></line>
	</g>
	<g id="LINE_00000154425800482905481060000004933526612121331639_">
		
			<line style="fill:none;stroke:#000000;stroke-linecap:round;stroke-linejoin:round;stroke-miterlimit:10;" x1="1475.51" y1="121.55" x2="1104.17" y2="121"></line>
	</g>
	<g id="LINE_00000127763148411730703640000009462106561260850348_">
		
			<line style="fill:none;stroke:#000000;stroke-linecap:round;stroke-linejoin:round;stroke-miterlimit:10;" x1="1475.51" y1="131.45" x2="1475.51" y2="111.65"></line>
	</g>
	<g id="LINE_00000159442401587787624790000018211312978797987741_">
		
			<line style="fill:none;stroke:#000000;stroke-linecap:round;stroke-linejoin:round;stroke-miterlimit:10;" x1="1091.85" y1="111.65" x2="1091.85" y2="131.45"></line>
	</g>
	<g id="LINE_00000141451736807657077220000011953452858066624685_">
		
			<line style="fill:none;stroke:#000000;stroke-linecap:round;stroke-linejoin:round;stroke-miterlimit:10;" x1="1104.17" y1="131.45" x2="1104.17" y2="111.65"></line>
	</g>
	<g id="LINE_00000108309524971977001690000007681262353979346564_">
		
			<line style="fill:none;stroke:#000000;stroke-linecap:round;stroke-linejoin:round;stroke-miterlimit:10;" x1="1297.54" y1="131.45" x2="1282.14" y2="131.45"></line>
	</g>
	<g id="LINE_00000133493658723351573640000009586866631613863555_">
		
			<line style="fill:none;stroke:#000000;stroke-linecap:round;stroke-linejoin:round;stroke-miterlimit:10;" x1="1282.14" y1="111.65" x2="1297.54" y2="111.65"></line>
	</g>
	<g id="LINE_00000006706734476799603070000007111212014188249515_">
		
			<line style="fill:none;stroke:#000000;stroke-linecap:round;stroke-linejoin:round;stroke-miterlimit:10;" x1="1498.83" y1="197.45" x2="1080.85" y2="197.45"></line>
	</g>
	<g id="LINE_00000094591377949131913110000007387365939097939134_">
		
			<line style="fill:none;stroke:#000000;stroke-linecap:round;stroke-linejoin:round;stroke-miterlimit:10;" x1="387.87" y1="100.65" x2="827.86" y2="100.65"></line>
	</g>
	<g id="LINE_00000134938494683782000910000006724968049589860491_">
		
			<line style="fill:none;stroke:#000000;stroke-linecap:round;stroke-linejoin:round;stroke-miterlimit:10;" x1="838.86" y1="131.45" x2="376.87" y2="131.45"></line>
	</g>
	<g id="LINE_00000023995952259831564480000002857016650003800721_">
		
			<line style="fill:none;stroke:#000000;stroke-linecap:round;stroke-linejoin:round;stroke-miterlimit:10;" x1="387.87" y1="111.65" x2="387.87" y2="131.45"></line>
	</g>
	<g id="LINE_00000013886389952730300550000000214870534479760788_">
		
			<line style="fill:none;stroke:#000000;stroke-linecap:round;stroke-linejoin:round;stroke-miterlimit:10;" x1="827.86" y1="111.65" x2="827.86" y2="131.45"></line>
	</g>
	<g id="LINE_00000005953344168040789170000010590167588998096268_">
		
			<line style="fill:none;stroke:#000000;stroke-linecap:round;stroke-linejoin:round;stroke-miterlimit:10;" x1="838.86" y1="111.65" x2="376.87" y2="111.65"></line>
	</g>
	<g id="LINE_00000161601424078504210150000000645727002764706731_">
		
			<line style="fill:none;stroke:#000000;stroke-linecap:round;stroke-linejoin:round;stroke-miterlimit:10;" x1="815.54" y1="121.55" x2="400.19" y2="121"></line>
	</g>
	<g id="LINE_00000162315480327406035730000008831931072914504072_">
		
			<line style="fill:none;stroke:#000000;stroke-linecap:round;stroke-linejoin:round;stroke-miterlimit:10;" x1="815.54" y1="131.45" x2="815.54" y2="111.65"></line>
	</g>
	<g id="LINE_00000168107912260952529920000012715818525542208406_">
		
			<line style="fill:none;stroke:#000000;stroke-linecap:round;stroke-linejoin:round;stroke-miterlimit:10;" x1="387.87" y1="111.65" x2="387.87" y2="131.45"></line>
	</g>
	<g id="LINE_00000183961840069732776010000014413422629967370631_">
		
			<line style="fill:none;stroke:#000000;stroke-linecap:round;stroke-linejoin:round;stroke-miterlimit:10;" x1="400.19" y1="131.45" x2="400.19" y2="111.65"></line>
	</g>
	<g id="LINE_00000148641883456178856560000016944942120864872629_">
		
			<line style="fill:none;stroke:#000000;stroke-linecap:round;stroke-linejoin:round;stroke-miterlimit:10;" x1="593.57" y1="131.45" x2="578.17" y2="131.45"></line>
	</g>
	<g id="LINE_00000149353732799262565830000009157930473576746627_">
		
			<line style="fill:none;stroke:#000000;stroke-linecap:round;stroke-linejoin:round;stroke-miterlimit:10;" x1="578.17" y1="111.65" x2="593.57" y2="111.65"></line>
	</g>
	<g id="LINE_00000060008407890462833480000007310809158463057066_">
		
			<line style="fill:none;stroke:#000000;stroke-linecap:round;stroke-linejoin:round;stroke-miterlimit:10;" x1="838.86" y1="197.45" x2="376.87" y2="197.45"></line>
	</g>
	<g id="LINE_00000034056450688551512850000006176190004198395069_">
		
			<line style="fill:none;stroke:#000000;stroke-linecap:round;stroke-linejoin:round;stroke-miterlimit:10;" x1="816.86" y1="1693.17" x2="816.86" y2="1899.35"></line>
	</g>
	<g id="LWPOLYLINE_00000164509808080604121720000017371000028914681522_">
		
			<rect x="1014.85" y="1683.56" style="fill:none;stroke:#000000;stroke-linecap:round;stroke-linejoin:round;stroke-miterlimit:10;" width="11" height="17.45"></rect>
	</g>
	<g id="ARC_00000091015928095326202410000010355217623727049635_">
		<path style="fill:none;stroke:#000000;stroke-linecap:round;stroke-linejoin:round;stroke-miterlimit:10;" d="M1014.85,1693.17
			c-1.86,109.96-88.2,199.87-197.99,206.18"></path>
	</g>
	<g id="LWPOLYLINE_00000121274625762617941830000004786641458151700146_">
		
			<rect x="805.86" y="1683.56" style="fill:none;stroke:#000000;stroke-linecap:round;stroke-linejoin:round;stroke-miterlimit:10;" width="11" height="17.45"></rect>
	</g>
	<g id="LINE_00000098910552220453444050000017661718146695347598_">
		
			<line style="fill:none;stroke:#000000;stroke-linecap:round;stroke-linejoin:round;stroke-miterlimit:10;" x1="1241.59" y1="1271.01" x2="1081.23" y2="1271.01"></line>
	</g>
	<g id="LWPOLYLINE_00000000932612272202697110000008363124468271828405_">
		
			<rect x="1231.62" y="1425" style="fill:none;stroke:#000000;stroke-linecap:round;stroke-linejoin:round;stroke-miterlimit:10;" width="17.45" height="11"></rect>
	</g>
	<g id="ARC_00000132056943387241706260000004506614689928337081_">
		<path style="fill:none;stroke:#000000;stroke-linecap:round;stroke-linejoin:round;stroke-miterlimit:10;" d="M1081.23,1271.01
			c4.91,85.39,74.84,152.55,160.36,153.99"></path>
	</g>
	<g id="LWPOLYLINE_00000091738157875537619740000014864445167165610656_">
		
			<rect x="1231.62" y="1260.01" style="fill:none;stroke:#000000;stroke-linecap:round;stroke-linejoin:round;stroke-miterlimit:10;" width="17.45" height="11"></rect>
	</g>
	<g id="LINE_00000091700881153600958560000011883486956353622177_">
		
			<line style="fill:none;stroke:#000000;stroke-linecap:round;stroke-linejoin:round;stroke-miterlimit:10;" x1="987.16" y1="1033.41" x2="1170.43" y2="1033.41"></line>
	</g>
	<g id="LWPOLYLINE_00000163067367348043703740000001314463375554197903_">
		
			<rect x="978.63" y="846.42" style="fill:none;stroke:#000000;stroke-linecap:round;stroke-linejoin:round;stroke-miterlimit:10;" width="17.45" height="11"></rect>
	</g>
	<g id="ARC_00000167355849535472707210000001383610013863003043_">
		<path style="fill:none;stroke:#000000;stroke-linecap:round;stroke-linejoin:round;stroke-miterlimit:10;" d="M987.16,857.42
			c97.74,1.65,177.66,78.4,183.27,175.99"></path>
	</g>
	<g id="LWPOLYLINE_00000076571598809301336290000010886367438296812185_">
		
			<rect x="978.63" y="1033.41" style="fill:none;stroke:#000000;stroke-linecap:round;stroke-linejoin:round;stroke-miterlimit:10;" width="17.45" height="11"></rect>
	</g>
	<g id="LINE_00000162326502698217942240000008981337018516752531_">
		<g>
			<g>
				
					<line style="fill:none;stroke:#000000;stroke-linecap:round;stroke-linejoin:round;" x1="786.06" y1="1506.4" x2="786.06" y2="1501.4"></line>
				
					<line style="fill:none;stroke:#000000;stroke-linecap:round;stroke-linejoin:round;stroke-dasharray:10.2355,10.2355;" x1="786.06" y1="1491.16" x2="786.06" y2="1107.33"></line>
				
					<line style="fill:none;stroke:#000000;stroke-linecap:round;stroke-linejoin:round;" x1="786.06" y1="1102.21" x2="786.06" y2="1097.21"></line>
			</g>
		</g>
	</g>
	<g id="LINE_00000048483019327572421290000012978335303723107723_">
		<g>
			<g>
				
					<line style="fill:none;stroke:#000000;stroke-linecap:round;stroke-linejoin:round;" x1="786.06" y1="1097.21" x2="791.06" y2="1097.21"></line>
				
					<line style="fill:none;stroke:#000000;stroke-linecap:round;stroke-linejoin:round;stroke-dasharray:10.5407,10.5407;" x1="801.6" y1="1097.21" x2="964.98" y2="1097.21"></line>
				
					<line style="fill:none;stroke:#000000;stroke-linecap:round;stroke-linejoin:round;" x1="970.25" y1="1097.21" x2="975.25" y2="1097.21"></line>
			</g>
		</g>
	</g>
	<g id="LWPOLYLINE_00000176038827785941204800000009138851755718592160_">
		
			<rect x="363.67" y="1194.01" style="fill:none;stroke:#000000;stroke-linecap:round;stroke-linejoin:round;stroke-miterlimit:10;" width="129.63" height="129.63"></rect>
	</g>
	<g id="LWPOLYLINE_00000167370973021732711610000016700347181756477087_">
		
			<line style="fill:none;stroke:#000000;stroke-linecap:round;stroke-linejoin:round;stroke-miterlimit:10;" x1="396.09" y1="1248.02" x2="396.09" y2="1204.81"></line>
	</g>
	<g id="LWPOLYLINE_00000104678721673561648590000016934400173764274583_">
		
			<line style="fill:none;stroke:#000000;stroke-linecap:round;stroke-linejoin:round;stroke-miterlimit:10;" x1="417.69" y1="1226.42" x2="374.48" y2="1226.42"></line>
	</g>
	<g id="CIRCLE_00000065063764562805101070000006348148088658829992_">
		
			<circle style="fill:none;stroke:#000000;stroke-linecap:round;stroke-linejoin:round;stroke-miterlimit:10;" cx="396.09" cy="1226.42" r="17.29"></circle>
	</g>
	<g id="LWPOLYLINE_00000075126663084292339780000001953788372707428505_">
		
			<line style="fill:none;stroke:#000000;stroke-linecap:round;stroke-linejoin:round;stroke-miterlimit:10;" x1="396.09" y1="1312.84" x2="396.09" y2="1269.63"></line>
	</g>
	<g id="LWPOLYLINE_00000052818003195365531340000012222466987522996128_">
		
			<line style="fill:none;stroke:#000000;stroke-linecap:round;stroke-linejoin:round;stroke-miterlimit:10;" x1="417.69" y1="1291.23" x2="374.48" y2="1291.23"></line>
	</g>
	<g id="CIRCLE_00000024706349032378930730000005413000218775715508_">
		
			<circle style="fill:none;stroke:#000000;stroke-linecap:round;stroke-linejoin:round;stroke-miterlimit:10;" cx="396.09" cy="1291.24" r="17.29"></circle>
	</g>
	<g id="LWPOLYLINE_00000061456948733734955080000007506776681293183620_">
		
			<line style="fill:none;stroke:#000000;stroke-linecap:round;stroke-linejoin:round;stroke-miterlimit:10;" x1="460.9" y1="1312.84" x2="460.9" y2="1269.63"></line>
	</g>
	<g id="LWPOLYLINE_00000059989171793723729690000004964793216432503715_">
		
			<line style="fill:none;stroke:#000000;stroke-linecap:round;stroke-linejoin:round;stroke-miterlimit:10;" x1="482.51" y1="1291.23" x2="439.3" y2="1291.23"></line>
	</g>
	<g id="CIRCLE_00000013177506234427869500000005823297181656428204_">
		
			<circle style="fill:none;stroke:#000000;stroke-linecap:round;stroke-linejoin:round;stroke-miterlimit:10;" cx="460.91" cy="1291.24" r="17.29"></circle>
	</g>
	<g id="LWPOLYLINE_00000126310194824317061550000014207737283440690308_">
		
			<line style="fill:none;stroke:#000000;stroke-linecap:round;stroke-linejoin:round;stroke-miterlimit:10;" x1="460.9" y1="1248.02" x2="460.9" y2="1204.81"></line>
	</g>
	<g id="LWPOLYLINE_00000102503520719149883510000001982199673070957719_">
		
			<line style="fill:none;stroke:#000000;stroke-linecap:round;stroke-linejoin:round;stroke-miterlimit:10;" x1="482.51" y1="1226.42" x2="439.3" y2="1226.42"></line>
	</g>
	<g id="CIRCLE_00000107553170383646934280000009611669265142062976_">
		
			<circle style="fill:none;stroke:#000000;stroke-linecap:round;stroke-linejoin:round;stroke-miterlimit:10;" cx="460.91" cy="1226.42" r="17.29"></circle>
	</g>
	<g id="LWPOLYLINE_00000178907686330411398150000007612592697467225495_">
		
			<rect x="363.67" y="1392" style="fill:none;stroke:#000000;stroke-linecap:round;stroke-linejoin:round;stroke-miterlimit:10;" width="129.63" height="129.63"></rect>
	</g>
	<g id="LWPOLYLINE_00000033353802862223318080000014519649612566234033_">
		<path style="fill:none;stroke:#000000;stroke-linecap:round;stroke-linejoin:round;stroke-miterlimit:10;" d="M474.94,1510.83
			l-82.05,0c0,0,0,0,0,0c-4.18,0-7.56-3.39-7.56-7.56l0-92.91c0,0,0,0,0,0c0-4.18,3.39-7.56,7.56-7.56h82.05c0,0,0,0,0,0
			c4.18,0,7.56,3.39,7.56,7.56v92.91C482.5,1507.45,479.12,1510.83,474.94,1510.83z"></path>
	</g>
	<g id="LWPOLYLINE_00000040577269887566120880000008070598304817577893_">
		<path style="fill:none;stroke:#000000;stroke-linecap:round;stroke-linejoin:round;stroke-miterlimit:10;" d="M413.92,1478.42
			C413.92,1478.42,413.92,1478.42,413.92,1478.42c0,4.19-3.39,7.58-7.58,7.58c0,0,0,0,0,0c-4.19,0-7.58-3.39-7.58-7.58c0,0,0,0,0,0
			c0-4.19,3.39-7.58,7.58-7.58c0,0,0,0,0,0C410.53,1470.84,413.92,1474.24,413.92,1478.42z"></path>
	</g>
	<g id="LWPOLYLINE_00000127725587996917308360000006247836015508617911_">
		
			<line style="fill:none;stroke:#000000;stroke-linecap:round;stroke-linejoin:round;stroke-miterlimit:10;" x1="1625.41" y1="1567.99" x2="1252.44" y2="1567.99"></line>
	</g>
	<g id="LWPOLYLINE_00000114070385660956388030000018260031586426806685_">
		
			<line style="fill:none;stroke:#000000;stroke-linecap:round;stroke-linejoin:round;stroke-miterlimit:10;" x1="1625.33" y1="1578.8" x2="1462.92" y2="1578.8"></line>
	</g>
	<g id="LWPOLYLINE_00000075848825697959096170000011884519632710878627_">
		
			<line style="fill:none;stroke:#000000;stroke-linecap:round;stroke-linejoin:round;stroke-miterlimit:10;" x1="1452.11" y1="1567.99" x2="1452.11" y2="1662.59"></line>
	</g>
	<g id="LWPOLYLINE_00000138538187273961278100000013410223117295030686_">
		
			<line style="fill:none;stroke:#000000;stroke-linecap:round;stroke-linejoin:round;stroke-miterlimit:10;" x1="1462.92" y1="1578.8" x2="1462.92" y2="1662.59"></line>
	</g>
	<g id="LWPOLYLINE_00000179641474409308157320000017499690574617099137_">
		
			<rect x="1500.99" y="1605.13" style="fill:none;stroke:#000000;stroke-linecap:round;stroke-linejoin:round;stroke-miterlimit:10;" width="90.41" height="29.8"></rect>
	</g>
	<g id="LWPOLYLINE_00000080905337008095617410000010963645085937197730_">
		<polyline style="fill:none;stroke:#000000;stroke-linecap:round;stroke-linejoin:round;stroke-miterlimit:10;" points="
			1500.98,1634.93 1507.89,1612.62 1591.39,1605.13 		"></polyline>
	</g>
	<g id="LWPOLYLINE_00000014600151535351826700000011014967499910935735_">
		
			<line style="fill:none;stroke:#000000;stroke-linecap:round;stroke-linejoin:round;stroke-miterlimit:10;" x1="1373.35" y1="1538.11" x2="1315" y2="1538.11"></line>
	</g>
	<g id="LWPOLYLINE_00000074423773561773219720000001697541337437896108_">
		<path style="fill:none;stroke:#000000;stroke-linecap:round;stroke-linejoin:round;stroke-miterlimit:10;" d="M1310.4,1528.38
			v-40.86c0-21.49,17.42-38.91,38.91-38.91c21.49,0,38.91,17.42,38.91,38.91v40.86c0,5.37-4.35,9.72-9.73,9.72h-58.36
			c0,0,0,0-0.01,0C1314.75,1538.11,1310.4,1533.75,1310.4,1528.38z"></path>
	</g>
	<g id="LWPOLYLINE_00000042000028435129016620000003874571885932173232_">
		<path style="fill:none;stroke:#000000;stroke-linecap:round;stroke-linejoin:round;stroke-miterlimit:10;" d="M1380.43,1487.53
			v13.64c0,17.19-13.93,31.12-31.12,31.12c-17.19,0-31.13-13.93-31.13-31.12v-13.64c0-17.19,13.94-31.12,31.12-31.12
			C1366.49,1456.4,1380.43,1470.34,1380.43,1487.53z"></path>
	</g>
	<g id="LWPOLYLINE_00000127730633872733900130000013254786722300126088_">
		<path style="fill:none;stroke:#000000;stroke-linecap:round;stroke-linejoin:round;stroke-miterlimit:10;" d="M1360.98,1500.05
			v13.64c0,0,0,0,0,0c0,6.45-5.23,11.67-11.67,11.67c-6.45,0-11.67-5.23-11.67-11.67v-13.64c0-6.44,5.22-11.67,11.67-11.67
			C1355.75,1488.38,1360.98,1493.61,1360.98,1500.05z"></path>
	</g>
	<g id="LWPOLYLINE_00000091706395065439330000000004917569996660021399_">
		
			<rect x="1287.28" y="1538.11" style="fill:none;stroke:#000000;stroke-linecap:round;stroke-linejoin:round;stroke-miterlimit:10;" width="124.05" height="29.88"></rect>
	</g>
	<g id="LWPOLYLINE_00000053543900454554078240000009610321585885363903_">
		
			<line style="fill:none;stroke:#000000;stroke-linecap:round;stroke-linejoin:round;stroke-miterlimit:10;" x1="1625.33" y1="1286.79" x2="1625.33" y2="1415.19"></line>
	</g>
	<g id="LWPOLYLINE_00000124153331150859819710000006830967519069319326_">
		<path style="fill:none;stroke:#000000;stroke-linecap:round;stroke-linejoin:round;stroke-miterlimit:10;" d="M1625.33,1415.19
			l-65.95,0c-9.29,0-17.52-6-20.37-14.84c-10.33-32.09-10.33-66.62,0-98.72c2.85-8.84,11.08-14.84,20.37-14.84h65.95"></path>
	</g>
	<g id="LWPOLYLINE_00000176019525443948213890000001655029890134723729_">
		<path style="fill:none;stroke:#000000;stroke-linecap:round;stroke-linejoin:round;stroke-miterlimit:10;" d="M1606.88,1316.75
			c0-7.09-5.75-12.84-12.84-12.84h-20.55c-4.7,0-8.85,3.07-10.23,7.57c-7.88,25.75-7.88,53.27,0,79.02
			c1.38,4.49,5.53,7.56,10.23,7.57h20.55c7.09,0,12.84-5.75,12.84-12.84"></path>
	</g>
	<g id="LWPOLYLINE_00000182491153728225794930000014941091593636348847_">
		<path style="fill:none;stroke:#000000;stroke-linecap:round;stroke-linejoin:round;stroke-miterlimit:10;" d="M1594.04,1406.63
			l-34.65,0c-5.57,0-10.51-3.59-12.22-8.9c-9.79-30.39-9.79-63.08,0-93.47c1.71-5.3,6.65-8.9,12.22-8.9h34.66
			c7.09,0,12.84,5.75,12.84,12.84v85.6C1606.88,1400.88,1601.13,1406.63,1594.04,1406.63z"></path>
	</g>
	<g id="LWPOLYLINE_00000114065537877935867560000001936363460858349976_">
		<path style="fill:none;stroke:#000000;stroke-linecap:round;stroke-linejoin:round;stroke-miterlimit:10;" d="M1603.05,1350.99
			c0,3.18-2.58,5.76-5.76,5.76c-3.18,0-5.76-2.58-5.76-5.76c0,0,0,0,0,0c0-3.18,2.58-5.76,5.76-5.76c0,0,0,0,0,0
			C1600.48,1345.23,1603.05,1347.81,1603.05,1350.99z"></path>
	</g>
	<g id="LWPOLYLINE_00000020376053555121596460000014391901187646711218_">
		
			<rect x="1521.63" y="1438.3" style="fill:none;stroke:#000000;stroke-linecap:round;stroke-linejoin:round;stroke-miterlimit:10;" width="103.7" height="129.69"></rect>
	</g>
	<g id="LWPOLYLINE_00000161623347993490771190000003545480634662963620_">
		<polyline style="fill:none;stroke:#000000;stroke-linecap:round;stroke-linejoin:round;stroke-miterlimit:10;" points="
			1607.03,1458.7 1555.45,1503.15 1590.46,1503.15 1538.89,1547.6 		"></polyline>
	</g>
	<g id="LWPOLYLINE_00000115499972902826961290000015144050776725362609_">
		<path style="fill:none;stroke:#000000;stroke-linecap:round;stroke-linejoin:round;stroke-miterlimit:10;" d="M1611.86,1503.15
			c0,21.49-17.42,38.9-38.9,38.9c-21.49,0-38.91-17.42-38.91-38.9c0-21.49,17.42-38.91,38.91-38.91
			C1594.45,1464.24,1611.87,1481.66,1611.86,1503.15z"></path>
	</g>
	<g id="LWPOLYLINE_00000040562649293579404310000018176174351498187961_">
		
			<rect x="1252.44" y="1108.21" style="fill:none;stroke:#000000;stroke-linecap:round;stroke-linejoin:round;stroke-miterlimit:10;" width="372.89" height="153.95"></rect>
	</g>
	<g id="LWPOLYLINE_00000060712660237185969340000011010989955079566486_">
		<path style="fill:none;stroke:#000000;stroke-linecap:round;stroke-linejoin:round;stroke-miterlimit:10;" d="M1304.33,1120.53
			h243.11c35.71,0,64.65,28.95,64.65,64.65c0,35.71-28.94,64.66-64.65,64.66h-243.11c-17.06,0.01-30.96-13.72-31.16-30.78v-67.74
			c0-17.01,13.79-30.79,30.79-30.79"></path>
	</g>
	<g id="LWPOLYLINE_00000099660681082264313020000007669265485680762034_">
		<path style="fill:none;stroke:#000000;stroke-linecap:round;stroke-linejoin:round;stroke-miterlimit:10;" d="M1381.2,1138.12
			h166.24c0,0,0,0,0.01,0c25.99,0,47.06,21.07,47.06,47.07c0,25.99-21.07,47.06-47.07,47.06h-163.81
			c-25.04-0.02-45.69-19.63-47-44.64C1335.27,1161.64,1355.23,1139.48,1381.2,1138.12z"></path>
	</g>
	<g id="LWPOLYLINE_00000005961451834862931020000001148863715324998305_">
		
			<line style="fill:none;stroke:#000000;stroke-linecap:round;stroke-linejoin:round;stroke-miterlimit:10;" x1="1336.56" y1="1185.19" x2="1336.56" y2="1185.13"></line>
	</g>
	<g id="LWPOLYLINE_00000052796555922251788750000008869605560980098227_">
		<path style="fill:none;stroke:#000000;stroke-linecap:round;stroke-linejoin:round;stroke-miterlimit:10;" d="M1556.06,1185.18
			c0,4.76-3.86,8.62-8.62,8.62c0,0-0.01,0-0.01,0c-4.76,0-8.61-3.86-8.61-8.62c0,0,0-0.01,0-0.01c0-4.76,3.86-8.61,8.62-8.61
			C1552.2,1176.57,1556.06,1180.43,1556.06,1185.18z"></path>
	</g>
	<g id="LWPOLYLINE_00000098927094895269724670000015355929552410382515_">
		<path style="fill:none;stroke:#000000;stroke-linecap:round;stroke-linejoin:round;stroke-miterlimit:10;" d="M1547.44,1138.12
			C1547.44,1138.12,1547.44,1138.12,1547.44,1138.12c26,0,47.07,21.07,47.06,47.06c0,0,0,0,0,0.01c0,25.99-21.07,47.06-47.06,47.06"></path>
	</g>
	<g>
		<g id="LWPOLYLINE_00000115502157283085732520000003657412568712975029_">
			
				<rect x="725.14" y="1532.29" style="fill:none;stroke:#000000;stroke-linecap:round;stroke-linejoin:round;stroke-miterlimit:10;" width="38.25" height="117.6"></rect>
		</g>
		<g id="LWPOLYLINE_00000103950309015010614630000006673637169802412695_">
			<polyline style="fill:none;stroke:#000000;stroke-linecap:round;stroke-linejoin:round;stroke-miterlimit:10;" points="
				763.39,1532.29 731.69,1553.32 725.14,1649.89 			"></polyline>
		</g>
	</g>
</g>
</svg>
