<?xml version="1.0" encoding="utf-8"?>
<!-- Generator: Adobe Illustrator 24.1.2, SVG Export Plug-In . SVG Version: 6.00 Build 0)  -->
<svg version="1.0" id="Layer_1" xmlns="http://www.w3.org/2000/svg" xmlns:xlink="http://www.w3.org/1999/xlink" x="0px" y="0px" width="2000px" height="2000px" viewBox="0 0 2000 2000" style="enable-background:new 0 0 2000 2000;" xml:space="preserve">
<path id="background" style="fill:#FFFFFF;" d="M278.17,1663.62v-40.49v-6.08v-398.49v-2.68V1081.5h19.86c0,0,0,0,0,0v-11.22
	C188.63,1069.04,100,980.18,100,871.07c0-0.18,0.07-0.35,0.2-0.47c0.12-0.13,0.29-0.2,0.47-0.2l197.36-0.01v-11.16c0,0,0,0,0,0
	h-19.86V425.29v-8.47V363.9h332.02v-27.52h1289.14v42.2v4.37V556.2c0.37,0,0.67,0.3,0.67,0.67v324.1c0,0.37-0.3,0.67-0.67,0.67
	v100.25v4.36v141.83c0.37,0,0.67,0.3,0.67,0.67v387.28c0,0.37-0.3,0.67-0.67,0.67c0,0,0,0-0.01,0v100.28h0.02v46.57L278.17,1663.62z
	"></path>
<g id="g1">
	<path id="g1_path" style="fill:none;" d="M801.04,1640.69l-0.12-425.83h279.42l0.11,425.83H801.04z"></path>
	<text id="g1_text" transform="matrix(1 0 0 1 942.7073 1407.5228)" style="font-family: GraphikLCG-Regular; font-size: 40px; text-anchor: middle; text-align: center;"></text>
</g>
<g id="g2">
	<path id="g2_path" style="fill:none;" d="M300.51,848.65l-0.18-473.29h411.27l0.16,473.29H300.51z"></path>
	<text id="g2_text" transform="matrix(1 0 0 1 464.893 707.4252)" style="font-family: GraphikLCG-Regular; font-size: 40px; text-anchor: middle; text-align: center;"></text>
</g>
<g id="s1">
	<path id="s1_path" style="fill:none;" d="M301.91,1646.89l-0.22-424.54h501.32l0.92,424.85L301.91,1646.89z"></path>
	<text id="s1_text" transform="matrix(1 0 0 1 563.9876 1396.9369)" style="font-family: GraphikLCG-Regular; font-size: 40px; text-anchor: middle; text-align: center;"></text>
</g>
<g id="h1">
	<path id="h1_path" style="fill:none;" d="M308.78,1093.54V848.65h403.33v374.68H308.78V1093.54L308.78,1093.54z"></path>
	<text id="h1_text" transform="matrix(1 0 0 1 468.9167 1007.6108)" style="font-family: GraphikLCG-Regular; font-size: 40px; text-anchor: middle; text-align: center;"></text>
</g>
<g id="r1">
	<path id="r1_path" style="fill:none;" d="M1080.44,1640.69V949.07h187.85v-0.26h598.93v691.88H1080.44z"></path>
	
		<text id="r1_text" transform="matrix(1 0 0 1 1239.3215 1352.9291)" style="font-family: GraphikLCG-Regular; font-size: 40px; text-anchor: middle; text-align: center;"></text>
</g>
<g id="c1">
	<path id="c1_path" style="fill:none;" d="M712.12,358.93h1155.05l0.06,257.06h-0.07l0.07,332.82h-347.59l0,0h-437.25v266.05
		H712.12V358.93z"></path>
	<text id="c1_text" transform="matrix(1 0 0 1 1326.3281 686.0131)" style="font-family: GraphikLCG-Regular; font-size: 40px; text-anchor: middle; text-align: center;"></text>
</g>
<path id="u7" style="fill:#FFFFFF;stroke:#FFFFFF;stroke-linecap:round;stroke-linejoin:round;stroke-miterlimit:10;" d="
	M1319.24,847.82c-10.8,0-19.55-8.75-19.55-19.55s8.75-19.55,19.55-19.55c10.8,0,19.55,8.75,19.55,19.55
	S1330.04,847.82,1319.24,847.82z"></path>
<path id="u4" style="fill:#FFFFFF;stroke:#FFFFFF;stroke-linecap:round;stroke-linejoin:round;stroke-miterlimit:10;" d="
	M532.61,806.45c-10.8,0-19.55-8.75-19.55-19.55s8.75-19.55,19.55-19.55s19.55,8.75,19.55,19.55S543.41,806.45,532.61,806.45z"></path>
<path id="u1" style="fill:#FFFFFF;stroke:#FFFFFF;stroke-linecap:round;stroke-linejoin:round;stroke-miterlimit:10;" d="
	M1149.31,1383.87c-10.8,0-19.55-8.75-19.55-19.55c0-10.8,8.75-19.55,19.55-19.55c10.8,0,19.55,8.75,19.55,19.55
	C1168.86,1375.11,1160.11,1383.87,1149.31,1383.87z"></path>
<g id="mebel">
	<g>
		
			<rect x="815.63" y="1494.13" transform="matrix(-1 5.845356e-11 -5.845356e-11 -1 1887.3613 3111.1794)" style="fill:none;stroke:#000000;stroke-linecap:round;stroke-linejoin:round;stroke-miterlimit:10;" width="256.1" height="122.93"></rect>
		
			<rect x="815.63" y="1494.13" transform="matrix(-1 5.856014e-11 -5.856014e-11 -1 1887.3613 2992.427)" style="fill:none;stroke:#000000;stroke-linecap:round;stroke-linejoin:round;stroke-miterlimit:10;" width="256.1" height="4.17"></rect>
	</g>
	<g>
		
			<rect x="321.11" y="425.29" style="fill:none;stroke:#000000;stroke-linecap:round;stroke-linejoin:round;stroke-miterlimit:10;" width="255.53" height="125.74"></rect>
		
			<rect x="321.11" y="546.85" style="fill:none;stroke:#000000;stroke-linecap:round;stroke-linejoin:round;stroke-miterlimit:10;" width="255.53" height="4.17"></rect>
	</g>
	<g>
		
			<rect x="218.87" y="653.27" transform="matrix(-5.177186e-11 -1 1 -5.177186e-11 -332.1544 1059.0509)" style="fill:none;stroke:#000000;stroke-linecap:round;stroke-linejoin:round;stroke-miterlimit:10;" width="289.16" height="84.67"></rect>
		
			<rect x="259.12" y="693.52" transform="matrix(-5.187577e-11 -1 1 -5.187577e-11 -291.9052 1099.3)" style="fill:none;stroke:#000000;stroke-linecap:round;stroke-linejoin:round;stroke-miterlimit:10;" width="289.16" height="4.17"></rect>
	</g>
	<g>
		
			<rect x="558.96" y="695.49" transform="matrix(9.220162e-11 1 -1 9.220162e-11 1399.1434 118.8537)" style="fill:none;stroke:#000000;stroke-linecap:round;stroke-linejoin:round;stroke-miterlimit:10;" width="162.36" height="127.01"></rect>
		
			<rect x="497.55" y="756.91" transform="matrix(9.236949e-11 1 -1 9.236949e-11 1337.7262 180.271)" style="fill:none;stroke:#000000;stroke-linecap:round;stroke-linejoin:round;stroke-miterlimit:10;" width="162.36" height="4.17"></rect>
	</g>
	<g>
		<g>
			<path style="fill:none;stroke:#000000;stroke-linecap:round;stroke-linejoin:round;stroke-miterlimit:10;" d="M1438.62,431.61
				l-143.44,0.18c-0.42,0-0.76-0.34-0.76-0.76l-0.06-46.77c0-0.42,0.34-0.76,0.76-0.76l143.44-0.18c0.42,0,0.76,0.34,0.76,0.76
				l0.06,46.77C1439.38,431.27,1439.04,431.61,1438.62,431.61z"></path>
			<path style="fill:none;stroke:#000000;stroke-linecap:round;stroke-linejoin:round;stroke-miterlimit:10;" d="M1438.62,431.61
				l-143.44,0.18c-0.42,0-0.76,0.34-0.76,0.76l0.15,121.45c0,0.42,0.34,0.76,0.76,0.76l143.44-0.18c0.42,0,0.76-0.34,0.76-0.76
				l-0.15-121.45C1439.38,431.95,1439.04,431.61,1438.62,431.61z"></path>
			<path style="fill:none;stroke:#000000;stroke-linecap:round;stroke-linejoin:round;stroke-miterlimit:10;" d="M1583.57,431.43
				l-143.44,0.18c-0.42,0-0.76-0.34-0.76-0.76l-0.06-46.77c0-0.42,0.34-0.76,0.76-0.76l143.44-0.18c0.42,0,0.76,0.34,0.76,0.76
				l0.06,46.77C1584.33,431.09,1583.99,431.43,1583.57,431.43z"></path>
			<path style="fill:none;stroke:#000000;stroke-linecap:round;stroke-linejoin:round;stroke-miterlimit:10;" d="M1583.57,431.43
				l-143.44,0.18c-0.42,0-0.76,0.34-0.76,0.76l0.15,121.45c0,0.42,0.34,0.76,0.76,0.76l143.44-0.18c0.42,0,0.76-0.34,0.76-0.76
				l-0.15-121.45C1584.33,431.76,1583.99,431.43,1583.57,431.43z"></path>
			<path style="fill:none;stroke:#000000;stroke-linecap:round;stroke-linejoin:round;stroke-miterlimit:10;" d="M1738.18,431.23
				l-153.1,0.19c-0.42,0-0.76-0.34-0.76-0.76l-0.06-46.77c0-0.42,0.34-0.76,0.76-0.76l153.1-0.19c0.42,0,0.76,0.34,0.76,0.76
				l0.06,46.77C1738.94,430.89,1738.6,431.23,1738.18,431.23z"></path>
			<path style="fill:none;stroke:#000000;stroke-linecap:round;stroke-linejoin:round;stroke-miterlimit:10;" d="M1738.18,431.23
				l-153.1,0.19c-0.42,0-0.76,0.34-0.76,0.76l0.3,235.07c0,0.42,0.34,0.76,0.76,0.76l153.1-0.19c0.42,0,0.76-0.34,0.76-0.76
				l-0.3-235.07C1738.94,431.57,1738.6,431.23,1738.18,431.23z"></path>
		</g>
	</g>
	<g>
		<path style="fill:none;stroke:#000000;stroke-linecap:round;stroke-linejoin:round;stroke-miterlimit:10;" d="M1632.19,475.77
			c5.36,7.86,9.45,16.51,12.12,25.64l1.24,4.25c0.56,1.9,2.8,2.7,4.44,1.59l3.65-2.49c6.19-4.23,12.71-7.94,19.47-11.12
			c0.8,6.21,2.01,12.36,3.72,18.4l0,0.01c0.94,3.34-1.64,6.63-5.11,6.49l-0.01,0c-13.3-0.51-26.6,1.07-39.4,4.7l-0.01,0
			c-3.34,0.95-6.62-1.64-6.49-5.11l0-0.01c0.51-13.3-1.07-26.61-4.7-39.42l0-0.01c-0.94-3.34,1.64-6.63,5.11-6.49l0.01,0
			c1.17,0.05,2.34-0.02,3.52,0L1632.19,475.77z"></path>
		<path style="fill:none;stroke:#000000;stroke-linecap:round;stroke-linejoin:round;stroke-miterlimit:10;" d="M1679.02,445.09
			l-3.65,2.49c-12.21,8.34-25.66,14.7-39.84,18.85l-4.25,1.24c-1.9,0.56-2.7,2.8-1.59,4.44l2.49,3.65
			c5.36,7.86,9.45,16.51,12.11,25.64l1.24,4.25c0.56,1.9,2.8,2.7,4.44,1.59l3.65-2.49c12.21-8.34,25.66-14.7,39.84-18.85l4.25-1.24
			c1.9-0.56,2.7-2.8,1.59-4.44l-2.49-3.65c-5.36-7.86-9.45-16.51-12.12-25.64l-1.24-4.25
			C1682.91,444.78,1680.66,443.98,1679.02,445.09z"></path>
	</g>
	<g>
		<path style="fill:none;stroke:#000000;stroke-linecap:round;stroke-linejoin:round;stroke-miterlimit:10;" d="M1401.9,476.35
			c-5.32,7.88-9.37,16.56-11.99,25.7l-1.22,4.25c-0.55,1.9-2.79,2.72-4.43,1.61l-3.67-2.48c-6.21-4.2-12.75-7.87-19.53-11.02
			c-0.76,6.21-1.95,12.37-3.63,18.42l0,0.01c-0.93,3.34,1.67,6.62,5.14,6.47l0.01,0c13.3-0.58,26.6,0.94,39.42,4.5l0.01,0
			c3.34,0.93,6.61-1.68,6.46-5.14l0-0.01c-0.58-13.3,0.94-26.61,4.5-39.44l0-0.01c0.93-3.34-1.67-6.62-5.14-6.47l-0.01,0
			c-1.17,0.05-2.34,0-3.52,0.02L1401.9,476.35z"></path>
		<path style="fill:none;stroke:#000000;stroke-linecap:round;stroke-linejoin:round;stroke-miterlimit:10;" d="M1354.91,445.91
			l3.67,2.48c12.25,8.28,25.73,14.57,39.94,18.64l4.25,1.22c1.9,0.55,2.72,2.79,1.61,4.43l-2.48,3.67
			c-5.32,7.88-9.37,16.56-11.99,25.7l-1.22,4.25c-0.55,1.9-2.79,2.72-4.43,1.61l-3.67-2.48c-12.25-8.28-25.73-14.57-39.94-18.64
			l-4.25-1.22c-1.9-0.55-2.72-2.79-1.61-4.43l2.48-3.67c5.32-7.88,9.37-16.56,11.99-25.7l1.22-4.25
			C1351.03,445.62,1353.27,444.8,1354.91,445.91z"></path>
	</g>
	<g>
		<g>
			
				<rect x="1548.81" y="808.99" transform="matrix(8.807248e-11 1 -1 8.807248e-11 2477.9543 -631.6988)" style="fill:none;stroke:#000000;stroke-linecap:round;stroke-linejoin:round;stroke-miterlimit:10;" width="12.04" height="228.27"></rect>
			<polygon style="fill:none;stroke:#000000;stroke-linecap:round;stroke-linejoin:round;stroke-miterlimit:10;" points="
				1640.43,939.67 1668.96,929.15 1440.69,929.15 1469.23,939.67 			"></polygon>
		</g>
		
			<rect x="1533.06" y="790.51" transform="matrix(8.531913e-11 1 -1 8.531913e-11 2472.7322 -637.6937)" style="fill:none;stroke:#000000;stroke-linecap:round;stroke-linejoin:round;stroke-miterlimit:10;" width="44.3" height="254.02"></rect>
	</g>
	
		<rect x="1421.09" y="583.95" transform="matrix(-4.552110e-11 1 -1 -4.552110e-11 2121.7502 -805.6821)" style="fill:none;stroke:#000000;stroke-linecap:round;stroke-linejoin:round;stroke-miterlimit:10;" width="85.25" height="148.18"></rect>
	<g>
		<polygon style="fill:none;stroke:#000000;stroke-linecap:round;stroke-linejoin:round;stroke-miterlimit:10;" points="
			1439.72,640.54 1435.34,638.17 1417.41,671.27 1422.92,674.25 1418,677.25 1403.43,653.32 1435.58,633.75 		"></polygon>
		
			<line style="fill:none;stroke:#000000;stroke-linecap:round;stroke-linejoin:round;stroke-miterlimit:10;" x1="1442.06" y1="641.82" x2="1448.83" y2="635.66"></line>
		
			<line style="fill:none;stroke:#000000;stroke-linecap:round;stroke-linejoin:round;stroke-miterlimit:10;" x1="1404.57" y1="655.19" x2="1436.72" y2="635.62"></line>
		<g>
			<polygon style="fill:none;stroke:#000000;stroke-linecap:round;stroke-linejoin:round;stroke-miterlimit:10;" points="
				1459.97,651.51 1440.02,640.71 1447.36,634.04 1466.2,654.77 1450.45,669.08 			"></polygon>
			<polygon style="fill:none;stroke:#000000;stroke-linecap:round;stroke-linejoin:round;stroke-miterlimit:10;" points="
				1422.24,662.36 1419.51,659.35 1428.09,651.56 			"></polygon>
		</g>
		
			<rect x="1419.87" y="647.39" transform="matrix(0.4763 -0.8793 0.8793 0.4763 171.8759 1611.3652)" style="fill:none;stroke:#000000;stroke-linecap:round;stroke-linejoin:round;stroke-miterlimit:10;" width="37.64" height="28.01"></rect>
		
			<line style="fill:none;stroke:#000000;stroke-linecap:round;stroke-linejoin:round;stroke-miterlimit:10;" x1="1419.33" y1="672.31" x2="1437.26" y2="639.22"></line>
	</g>
	<g>
		<path style="fill:none;stroke:#000000;stroke-linecap:round;stroke-linejoin:round;stroke-miterlimit:10;" d="M1499.45,644.6
			l-7.67,4.11c-0.64,0.34-0.88,1.14-0.54,1.78l5.08,9.47c0.34,0.64,1.14,0.88,1.78,0.54l7.67-4.11c0.39-0.21,0.54-0.7,0.33-1.09
			l-5.56-10.36C1500.33,644.54,1499.84,644.39,1499.45,644.6z"></path>
		
			<line style="fill:none;stroke:#000000;stroke-linecap:round;stroke-linejoin:round;stroke-miterlimit:10;" x1="1495.39" y1="646.78" x2="1501.7" y2="658.56"></line>
		<path style="fill:none;stroke:#000000;stroke-linecap:round;stroke-linejoin:round;stroke-miterlimit:10;" d="M1501.19,642.13
			l1.29-8.61c0.11-0.72,0.77-1.21,1.49-1.1l10.62,1.59c0.72,0.11,1.21,0.77,1.1,1.49l-1.29,8.61c-0.07,0.44-0.47,0.74-0.91,0.68
			l-11.63-1.74C1501.42,642.98,1501.12,642.57,1501.19,642.13z"></path>
		
			<line style="fill:none;stroke:#000000;stroke-linecap:round;stroke-linejoin:round;stroke-miterlimit:10;" x1="1501.87" y1="637.58" x2="1515.09" y2="639.55"></line>
		<path style="fill:none;stroke:#000000;stroke-linecap:round;stroke-linejoin:round;stroke-miterlimit:10;" d="M1518.19,640.72
			c-0.99-0.51-2.01-0.87-3.06-1.1"></path>
		<path style="fill:none;stroke:#000000;stroke-linecap:round;stroke-linejoin:round;stroke-miterlimit:10;" d="M1501.75,658.53
			c0.58,0.93,1.28,1.8,2.11,2.58"></path>
		<g>
			<path style="fill:none;stroke:#000000;stroke-linecap:round;stroke-linejoin:round;stroke-miterlimit:10;" d="M1518.25,640.61
				c-0.57,0.8-0.37,1.91,0.43,2.48c4.87,3.43,6.04,10.18,2.61,15.05s-10.18,6.04-15.05,2.61c-0.8-0.57-1.91-0.37-2.48,0.43
				c-0.57,0.8-0.37,1.91,0.43,2.48c6.47,4.56,15.45,3,20.01-3.47s3-15.45-3.47-20.01C1519.93,639.61,1518.82,639.81,1518.25,640.61z
				"></path>
		</g>
	</g>
	<g>
		<path style="fill:none;stroke:#000000;stroke-linecap:round;stroke-linejoin:round;stroke-miterlimit:10;" d="M1066.57,718.45
			l-25.32,19.24c-20.31,15.43-48.97,13.14-66.57-5.31l-2-2.1c-17.62-18.47-18.53-47.23-2.12-66.79l5.61-6.69l0,0l14.78-17.61
			c4.08,18.24,12.9,35.66,26.74,50.17C1031.53,703.88,1048.53,713.51,1066.57,718.45z"></path>
		<path style="fill:none;stroke:#000000;stroke-linecap:round;stroke-linejoin:round;stroke-miterlimit:10;" d="M972.67,730.28
			l2,2.1c17.6,18.46,46.26,20.74,66.57,5.31l7.01-5.32c2.94-2.23,7.08-1.9,9.62,0.77c2.98,3.13,2.58,8.15-0.86,10.76l-7.17,5.45
			c-26.01,19.76-62.71,16.83-85.25-6.8l-2.56-2.69c-22.56-23.65-23.73-60.49-2.72-85.53l5.75-6.85c2.78-3.31,7.82-3.47,10.8-0.34
			c2.55,2.67,2.68,6.83,0.31,9.66l-5.61,6.69C954.14,683.05,955.06,711.81,972.67,730.28z"></path>
		<polygon style="fill:none;stroke:#000000;stroke-linecap:round;stroke-linejoin:round;stroke-miterlimit:10;" points="
			970.55,663.49 976.16,656.8 976.16,656.8 		"></polygon>
		<path style="fill:none;stroke:#000000;stroke-linecap:round;stroke-linejoin:round;stroke-miterlimit:10;" d="M1122.25,513.04
			l29.94-22.75c20.31-15.43,48.97-13.15,66.57,5.31l2,2.1c17.62,18.47,18.53,47.23,2.13,66.79l-5.62,6.69l0,0l-18.52,22.08
			c-4-18.52-12.87-36.22-26.9-50.93C1157.81,527.61,1140.55,517.91,1122.25,513.04z"></path>
		<path style="fill:none;stroke:#000000;stroke-linecap:round;stroke-linejoin:round;stroke-miterlimit:10;" d="M1220.76,497.7
			l-2-2.1c-17.6-18.46-46.26-20.75-66.57-5.31l-7.01,5.32c-2.94,2.23-7.08,1.9-9.62-0.77c-2.98-3.13-2.58-8.15,0.86-10.76l7.17-5.45
			c26.01-19.76,62.71-16.83,85.25,6.8l2.56,2.69c22.56,23.65,23.73,60.49,2.72,85.53l-5.75,6.85c-2.78,3.31-7.82,3.47-10.8,0.34l0,0
			c-2.55-2.67-2.68-6.83-0.31-9.66l5.62-6.69C1239.29,544.93,1238.38,516.17,1220.76,497.7z"></path>
		<polygon style="fill:none;stroke:#000000;stroke-linecap:round;stroke-linejoin:round;stroke-miterlimit:10;" points="
			1222.89,564.48 1217.27,571.17 1217.27,571.17 		"></polygon>
		<path style="fill:none;stroke:#000000;stroke-linecap:round;stroke-linejoin:round;stroke-miterlimit:10;" d="M978.22,495.75
			l2.1-2c18.47-17.62,47.23-18.53,66.79-2.12l6.69,5.61l0,0l17.61,14.78c-18.24,4.08-35.66,12.9-50.17,26.74
			c-14.52,13.85-24.16,30.85-29.09,48.89l-19.24-25.32C957.48,542.02,959.76,513.35,978.22,495.75z"></path>
		<path style="fill:none;stroke:#000000;stroke-linecap:round;stroke-linejoin:round;stroke-miterlimit:10;" d="M1056.27,480.38
			l6.85,5.75c3.31,2.78,3.47,7.82,0.34,10.8c-2.67,2.55-6.83,2.68-9.66,0.31l-6.69-5.61c-19.55-16.41-48.31-15.49-66.79,2.12l-2.1,2
			c-18.46,17.6-20.75,46.26-5.31,66.57l5.32,7.01c2.23,2.94,1.9,7.08-0.77,9.62c-3.13,2.98-8.15,2.58-10.76-0.86l-5.45-7.17
			c-19.76-26.01-16.83-62.71,6.8-85.25l2.69-2.56C994.4,460.54,1031.23,459.37,1056.27,480.38z"></path>
		<polygon style="fill:none;stroke:#000000;stroke-linecap:round;stroke-linejoin:round;stroke-miterlimit:10;" points="
			1047.11,491.62 1053.8,497.24 1053.8,497.24 		"></polygon>
		<path style="fill:none;stroke:#000000;stroke-linecap:round;stroke-linejoin:round;stroke-miterlimit:10;" d="M1197.52,643.49
			l21.82,28.71c15.43,20.31,13.15,48.97-5.31,66.57l-2.1,2c-18.47,17.62-47.23,18.53-66.79,2.12l-6.69-5.62l0,0l-20.87-17.51
			c18.43-4.03,36.05-12.88,50.71-26.85C1182.94,678.93,1192.63,661.74,1197.52,643.49z"></path>
		<path style="fill:none;stroke:#000000;stroke-linecap:round;stroke-linejoin:round;stroke-miterlimit:10;" d="M1211.92,740.78
			l2.1-2c18.46-17.6,20.74-46.26,5.31-66.57l-5.32-7.01c-2.23-2.94-1.9-7.08,0.77-9.62c3.13-2.98,8.15-2.58,10.76,0.86l5.45,7.17
			c19.76,26.01,16.83,62.71-6.8,85.25l-2.69,2.56c-23.65,22.56-60.49,23.73-85.52,2.72l-6.85-5.75c-3.31-2.78-3.47-7.82-0.34-10.8
			c2.67-2.55,6.83-2.68,9.66-0.31l6.69,5.62C1164.69,759.31,1193.45,758.4,1211.92,740.78z"></path>
		<polygon style="fill:none;stroke:#000000;stroke-linecap:round;stroke-linejoin:round;stroke-miterlimit:10;" points="
			1145.14,742.91 1138.45,737.29 1138.45,737.29 		"></polygon>
		
			<circle style="fill:none;stroke:#000000;stroke-linecap:round;stroke-linejoin:round;stroke-miterlimit:10;" cx="1094.79" cy="615.84" r="106.54"></circle>
	</g>
	<g>
		<g>
			
				<circle style="fill:none;stroke:#000000;stroke-linecap:round;stroke-linejoin:round;stroke-miterlimit:10;" cx="1056.26" cy="567.6" r="27.05"></circle>
		</g>
		<g>
			
				<circle style="fill:none;stroke:#000000;stroke-linecap:round;stroke-linejoin:round;stroke-miterlimit:10;" cx="1056.26" cy="567.6" r="15.4"></circle>
		</g>
		<g>
			
				<ellipse transform="matrix(0.7134 -0.7008 0.7008 0.7134 -136.3482 898.5044)" style="fill:none;stroke:#000000;stroke-linecap:round;stroke-linejoin:round;stroke-miterlimit:10;" cx="1030.19" cy="615.93" rx="4.19" ry="6.81"></ellipse>
			
				<line style="fill:none;stroke:#000000;stroke-linecap:round;stroke-linejoin:round;stroke-miterlimit:10;" x1="1025.42" y1="611.07" x2="1004.54" y2="589.82"></line>
		</g>
		<g>
			<path style="fill:none;stroke:#000000;stroke-linecap:round;stroke-linejoin:round;stroke-miterlimit:10;" d="M1103.88,553.09
				l-4.77-4.86c-2.64-2.68-6.11-3.54-7.76-1.92c-1.65,1.62-0.85,5.11,1.78,7.79l4.77,4.86"></path>
			
				<line style="fill:none;stroke:#000000;stroke-linecap:round;stroke-linejoin:round;stroke-miterlimit:10;" x1="1091.34" y1="546.31" x2="1070.46" y2="525.05"></line>
		</g>
		
			<line style="fill:none;stroke:#000000;stroke-linecap:round;stroke-linejoin:round;stroke-miterlimit:10;" x1="1100.89" y1="556.02" x2="1091.34" y2="546.31"></line>
		<g>
			<path style="fill:none;stroke:#000000;stroke-linecap:round;stroke-linejoin:round;stroke-miterlimit:10;" d="M1024.67,595.58
				l4.64-4.56l17.66,17.98l-4.07,4c-0.31,0.31-0.82,0.3-1.13-0.01L1024.67,595.58z"></path>
			<path style="fill:none;stroke:#000000;stroke-linecap:round;stroke-linejoin:round;stroke-miterlimit:10;" d="M1012.19,582.3
				l4.07-4c0.16-0.15,0.41-0.15,0.56,0.01l12.49,12.71l-4.64,4.56l-12.49-12.71C1012.03,582.71,1012.03,582.46,1012.19,582.3z"></path>
		</g>
	</g>
	<g>
		<g>
			
				<circle style="fill:none;stroke:#000000;stroke-linecap:round;stroke-linejoin:round;stroke-miterlimit:10;" cx="1139.81" cy="655.2" r="27.05"></circle>
		</g>
		<g>
			
				<circle style="fill:none;stroke:#000000;stroke-linecap:round;stroke-linejoin:round;stroke-miterlimit:10;" cx="1139.81" cy="655.2" r="15.4"></circle>
		</g>
		<g>
			
				<ellipse transform="matrix(0.7153 -0.6988 0.6988 0.7153 -164.7889 956.0429)" style="fill:none;stroke:#000000;stroke-linecap:round;stroke-linejoin:round;stroke-miterlimit:10;" cx="1090.96" cy="680.27" rx="4.19" ry="6.81"></ellipse>
			
				<line style="fill:none;stroke:#000000;stroke-linecap:round;stroke-linejoin:round;stroke-miterlimit:10;" x1="1095.71" y1="685.14" x2="1116.54" y2="706.45"></line>
		</g>
		<g>
			<path style="fill:none;stroke:#000000;stroke-linecap:round;stroke-linejoin:round;stroke-miterlimit:10;" d="M1155.3,607.89
				l4.76,4.87c2.63,2.69,3.42,6.18,1.76,7.8c-1.66,1.62-5.13,0.75-7.76-1.94l-4.76-4.87"></path>
			
				<line style="fill:none;stroke:#000000;stroke-linecap:round;stroke-linejoin:round;stroke-miterlimit:10;" x1="1161.82" y1="620.56" x2="1182.64" y2="641.87"></line>
		</g>
		
			<line style="fill:none;stroke:#000000;stroke-linecap:round;stroke-linejoin:round;stroke-miterlimit:10;" x1="1152.3" y1="610.82" x2="1161.82" y2="620.56"></line>
		<g>
			<path style="fill:none;stroke:#000000;stroke-linecap:round;stroke-linejoin:round;stroke-miterlimit:10;" d="M1111.19,686.21
				l4.65-4.55l-17.61-18.02l-4.08,3.99c-0.32,0.31-0.32,0.81-0.01,1.13L1111.19,686.21z"></path>
			<path style="fill:none;stroke:#000000;stroke-linecap:round;stroke-linejoin:round;stroke-miterlimit:10;" d="M1124.2,698.96
				l4.08-3.99c0.16-0.15,0.16-0.41,0.01-0.56l-12.45-12.74l-4.65,4.55l12.45,12.74C1123.79,699.11,1124.05,699.11,1124.2,698.96z"></path>
		</g>
	</g>
	<g>
		<polygon style="fill:none;stroke:#000000;stroke-linecap:round;stroke-linejoin:round;stroke-miterlimit:10;" points="
			1071.97,1206.61 944.72,1206.61 944.72,1081.74 1071.97,1081.72 		"></polygon>
		<g>
			
				<line style="fill:none;stroke:#000000;stroke-linecap:round;stroke-linejoin:round;stroke-miterlimit:10;" x1="1014.6" y1="1113.98" x2="1014.6" y2="1168.81"></line>
			
				<line style="fill:none;stroke:#000000;stroke-linecap:round;stroke-linejoin:round;stroke-miterlimit:10;" x1="1043.62" y1="1141.39" x2="985.58" y2="1141.39"></line>
			<polyline style="fill:none;stroke:#000000;stroke-linecap:round;stroke-linejoin:round;stroke-miterlimit:10;" points="
				1029.11,1120.07 1014.6,1127.68 1000.09,1120.07 			"></polyline>
			<polyline style="fill:none;stroke:#000000;stroke-linecap:round;stroke-linejoin:round;stroke-miterlimit:10;" points="
				992.03,1127.68 1000.09,1141.39 992.03,1155.1 			"></polyline>
			<polyline style="fill:none;stroke:#000000;stroke-linecap:round;stroke-linejoin:round;stroke-miterlimit:10;" points="
				1000.09,1162.72 1014.6,1155.1 1029.11,1162.72 			"></polyline>
			<polyline style="fill:none;stroke:#000000;stroke-linecap:round;stroke-linejoin:round;stroke-miterlimit:10;" points="
				1037.17,1155.1 1029.11,1141.39 1037.17,1127.68 			"></polyline>
		</g>
	</g>
	<g>
		<polygon style="fill:none;stroke:#000000;stroke-linecap:round;stroke-linejoin:round;stroke-miterlimit:10;" points="
			845.47,606.29 845.47,507.68 720.59,507.68 720.58,606.29 		"></polygon>
		<path style="fill:none;stroke:#000000;stroke-linecap:round;stroke-linejoin:round;stroke-miterlimit:10;" d="M763.79,560.05
			l29.41-12.91c1.8-0.7,3.78-1.09,5.85-1.09c8.35,0,15.11,6.27,15.11,14s-6.77,14-15.11,14c-2.08,0-4.05-0.39-5.85-1.09
			L763.79,560.05z"></path>
	</g>
	<g>
		<g>
			<path style="fill:#FFFFFF;stroke:#000000;stroke-linecap:round;stroke-linejoin:round;stroke-miterlimit:10;" d="M895.18,1136.1
				l0.56-0.81c0.91-1.31,1.35-2.86,1.52-4.45c0.13-1.18,0.69-2.32,1.71-3.17c1.5-1.25,3.69-1.47,5.4-0.5
				c2.77,1.57,3.26,5.15,1.28,7.4c-0.74,0.84-1.7,1.35-2.72,1.54c-1.48,0.27-2.84,1.01-3.97,2.01l-0.74,0.66
				c-1,0.9-1,2.47,0.01,3.36l2.83,2.5c1.55,1.37,1.7,3.73,0.33,5.28l-18.76,21.28c-1.37,1.55-3.73,1.7-5.28,0.33l-12.05-10.62
				c-1.55-1.37-1.7-3.73-0.33-5.28l18.76-21.28c1.37-1.55,3.73-1.7,5.28-0.33l2.83,2.5C892.85,1137.4,894.42,1137.21,895.18,1136.1z
				"></path>
			
				<circle style="fill:#FFFFFF;stroke:#000000;stroke-linecap:round;stroke-linejoin:round;stroke-miterlimit:10;" cx="901.98" cy="1131.45" r="2.34"></circle>
		</g>
		<g>
			<path style="fill:#FFFFFF;stroke:#000000;stroke-linecap:round;stroke-linejoin:round;stroke-miterlimit:10;" d="M888.53,1151.24
				l5.97-2.01c0.36-0.12,0.55-0.51,0.43-0.87l-2.93-8.7c-0.12-0.36-0.51-0.55-0.87-0.43l-5.97,2.01c-0.36,0.12-0.55,0.51-0.43,0.87
				l2.93,8.7C887.78,1151.17,888.17,1151.36,888.53,1151.24z"></path>
			<path style="fill:#FFFFFF;stroke:#000000;stroke-linecap:round;stroke-linejoin:round;stroke-miterlimit:10;" d="M881.9,1158.75
				l5.97-2.01c0.36-0.12,0.55-0.51,0.43-0.87l-2.93-8.7c-0.12-0.36-0.51-0.55-0.87-0.43l-5.97,2.01c-0.36,0.12-0.55,0.51-0.43,0.87
				l2.93,8.7C881.16,1158.68,881.55,1158.88,881.9,1158.75z"></path>
			<path style="fill:#FFFFFF;stroke:#000000;stroke-linecap:round;stroke-linejoin:round;stroke-miterlimit:10;" d="M875.32,1166.23
				l5.97-2.01c0.36-0.12,0.55-0.51,0.43-0.87l-2.93-8.7c-0.12-0.36-0.51-0.55-0.87-0.43l-5.97,2.01c-0.36,0.12-0.55,0.51-0.43,0.87
				l2.93,8.7C874.57,1166.16,874.96,1166.35,875.32,1166.23z"></path>
		</g>
	</g>
	
		<rect x="818.89" y="1080.55" transform="matrix(9.462126e-11 -1 1 9.462126e-11 -262.8354 2025.2759)" style="fill:none;stroke:#000000;stroke-linecap:round;stroke-linejoin:round;stroke-miterlimit:10;" width="124.67" height="127.01"></rect>
	
		<rect x="706.82" y="1095.49" transform="matrix(7.238483e-11 -1 1 7.238483e-11 -374.9058 1913.2054)" style="fill:none;stroke:#000000;stroke-linecap:round;stroke-linejoin:round;stroke-miterlimit:10;" width="124.67" height="97.13"></rect>
	
		<rect x="720.81" y="731.14" transform="matrix(-1 -7.234847e-11 7.234847e-11 -1 1566.2841 1559.4045)" style="fill:none;stroke:#000000;stroke-linecap:round;stroke-linejoin:round;stroke-miterlimit:10;" width="124.67" height="97.13"></rect>
	<g>
		
			<ellipse style="fill:none;stroke:#000000;stroke-linecap:round;stroke-linejoin:round;stroke-miterlimit:10;" cx="1282.04" cy="1551.6" rx="7.64" ry="7.76"></ellipse>
		
			<ellipse style="fill:none;stroke:#000000;stroke-linecap:round;stroke-linejoin:round;stroke-miterlimit:10;" cx="1282.04" cy="1551.6" rx="5.4" ry="5.49"></ellipse>
		
			<line style="fill:none;stroke:#000000;stroke-linecap:round;stroke-linejoin:round;stroke-miterlimit:10;" x1="1277.8" y1="1557.58" x2="1274.67" y2="1562.01"></line>
		<path style="fill:none;stroke:#000000;stroke-linecap:round;stroke-linejoin:round;stroke-miterlimit:10;" d="M1288.67,1570.21
			c-5.64,2.07-11.56,1.26-16.37-1.57l2.79-3.95c0.61-0.87,0.42-2.07-0.44-2.69c-0.53-0.39-1.19-0.45-1.76-0.25
			c-0.35,0.13-0.66,0.36-0.9,0.69l-2.78,3.94c-2.38-2.13-4.35-4.81-5.5-8.05c-3.66-10.28,1.58-21.63,11.7-25.34
			c10.12-3.72,21.29,1.6,24.95,11.89C1304.03,1555.15,1298.79,1566.5,1288.67,1570.21z"></path>
		<g>
			<polygon style="fill:none;stroke:#000000;stroke-linecap:round;stroke-linejoin:round;stroke-miterlimit:10;" points="
				1255.35,1592.63 1258.44,1594.88 1254.5,1600.46 1251.41,1598.21 			"></polygon>
			<polygon style="fill:none;stroke:#000000;stroke-linecap:round;stroke-linejoin:round;stroke-miterlimit:10;" points="
				1248.32,1595.95 1245.24,1593.71 1249.18,1588.13 1252.26,1590.38 			"></polygon>
		</g>
		<g>
			<path style="fill:none;stroke:#000000;stroke-linecap:round;stroke-linejoin:round;stroke-miterlimit:10;" d="M1263.82,1580.64
				c1.31,1.31,2.38,2.89,3.04,4.76c2.39,6.7-1.03,14.1-7.63,16.52c-3.42,1.25-7,0.9-10.01-0.63L1263.82,1580.64z"></path>
			<path style="fill:none;stroke:#000000;stroke-linecap:round;stroke-linejoin:round;stroke-miterlimit:10;" d="M1246.14,1599.05
				c-1.36-1.33-2.48-2.95-3.16-4.87c-2.39-6.7,1.03-14.1,7.63-16.52c3.47-1.27,7.11-0.88,10.15,0.71L1246.14,1599.05z"></path>
		</g>
		<g>
			<path style="fill:none;stroke:#000000;stroke-linecap:round;stroke-linejoin:round;stroke-miterlimit:10;" d="M1272.9,1561.76
				c-0.35,0.13-0.66,0.36-0.9,0.69l-29.63,41.93c-0.61,0.87-0.42,2.07,0.44,2.69c0.85,0.62,2.04,0.43,2.65-0.44l29.63-41.93
				c0.61-0.87,0.42-2.07-0.44-2.69C1274.13,1561.62,1273.47,1561.55,1272.9,1561.76z"></path>
		</g>
	</g>
	<g>
		
			<ellipse transform="matrix(0.3512 -0.9363 0.9363 0.3512 -328.8387 2615.7515)" style="fill:none;stroke:#000000;stroke-linecap:round;stroke-linejoin:round;stroke-miterlimit:10;" cx="1722.96" cy="1545.15" rx="7.06" ry="7.17"></ellipse>
		
			<ellipse transform="matrix(0.3512 -0.9363 0.9363 0.3512 -328.8387 2615.7515)" style="fill:none;stroke:#000000;stroke-linecap:round;stroke-linejoin:round;stroke-miterlimit:10;" cx="1722.96" cy="1545.15" rx="4.99" ry="5.07"></ellipse>
		
			<line style="fill:none;stroke:#000000;stroke-linecap:round;stroke-linejoin:round;stroke-miterlimit:10;" x1="1726.76" y1="1550.77" x2="1729.57" y2="1554.92"></line>
		<path style="fill:none;stroke:#000000;stroke-linecap:round;stroke-linejoin:round;stroke-miterlimit:10;" d="M1741.22,1545.45
			c-0.04,5.55-2.66,10.41-6.68,13.66l-2.51-3.69c-0.55-0.81-1.66-1.03-2.47-0.5c-0.51,0.33-0.78,0.88-0.78,1.44
			c0,0.34,0.1,0.69,0.3,1l2.51,3.69c-2.62,1.37-5.57,2.2-8.76,2.15c-10.09-0.17-18.21-8.39-18.14-18.36
			c0.07-9.97,8.3-17.91,18.39-17.74C1733.17,1527.27,1741.29,1535.49,1741.22,1545.45z"></path>
		<g>
			<polygon style="fill:none;stroke:#000000;stroke-linecap:round;stroke-linejoin:round;stroke-miterlimit:10;" points="
				1749.81,1581.58 1752.76,1579.63 1756.31,1584.86 1753.36,1586.8 			"></polygon>
			<polygon style="fill:none;stroke:#000000;stroke-linecap:round;stroke-linejoin:round;stroke-miterlimit:10;" points="
				1750.4,1588.74 1747.46,1590.68 1743.91,1585.45 1746.86,1583.52 			"></polygon>
		</g>
		<g>
			<path style="fill:none;stroke:#000000;stroke-linecap:round;stroke-linejoin:round;stroke-miterlimit:10;" d="M1742.18,1570.35
				c1.56-0.71,3.28-1.12,5.11-1.09c6.58,0.11,11.87,5.47,11.82,11.97c-0.02,3.36-1.49,6.35-3.8,8.46L1742.18,1570.35z"></path>
			<path style="fill:none;stroke:#000000;stroke-linecap:round;stroke-linejoin:round;stroke-miterlimit:10;" d="M1752.37,1591.64
				c-1.59,0.75-3.36,1.19-5.24,1.16c-6.58-0.11-11.87-5.47-11.82-11.97c0.02-3.42,1.54-6.44,3.91-8.55L1752.37,1591.64z"></path>
		</g>
		<g>
			<path style="fill:none;stroke:#000000;stroke-linecap:round;stroke-linejoin:round;stroke-miterlimit:10;" d="M1728.78,1556.36
				c0,0.34,0.1,0.69,0.3,1l26.68,39.26c0.55,0.81,1.66,1.03,2.47,0.5c0.81-0.53,1.03-1.62,0.48-2.44l-26.68-39.26
				c-0.55-0.81-1.66-1.03-2.47-0.5C1729.06,1555.25,1728.78,1555.8,1728.78,1556.36z"></path>
		</g>
	</g>
	<g>
		<g>
			<g>
				<g>
					
						<rect x="1312.35" y="1599.19" transform="matrix(-1 -8.066941e-07 8.066941e-07 -1 3004.604 3216.2405)" style="fill:none;stroke:#000000;stroke-linecap:round;stroke-linejoin:round;stroke-miterlimit:10;" width="379.91" height="17.86"></rect>
					
						<rect x="1312.35" y="1182.4" transform="matrix(-1 -8.066941e-07 8.066941e-07 -1 3004.6047 2781.5945)" style="fill:none;stroke:#000000;stroke-linecap:round;stroke-linejoin:round;stroke-miterlimit:10;" width="379.91" height="416.78"></rect>
					<path style="fill:none;stroke:#000000;stroke-linecap:round;stroke-linejoin:round;stroke-miterlimit:10;" d="M1509.45,1507.31
						h-14.29v43.98c0,13.15-10.06,23.82-22.47,23.82l-106.72,0c-12.41,0-22.47-10.66-22.47-23.82v-43.98h-14.29v76.99
						c0,3.29,2.51,5.95,5.62,5.95l334.97,0c3.1,0,5.62-2.67,5.62-5.95l0-76.99h-14.29v43.98c0,13.15-10.06,23.82-22.47,23.82
						l-106.72,0c-12.41,0-22.47-10.66-22.47-23.82V1507.31z"></path>
					<path style="fill:none;stroke:#000000;stroke-linecap:round;stroke-linejoin:round;stroke-miterlimit:10;" d="M1674.65,1197.29
						l-344.69,0c-0.42,0-0.75,0.34-0.75,0.75l0,309.27l346.2,0l0-309.27C1675.4,1197.62,1675.07,1197.29,1674.65,1197.29z"></path>
				</g>
			</g>
		</g>
		
			<rect x="1227.87" y="1522.18" style="fill:none;stroke:#000000;stroke-linecap:round;stroke-linejoin:round;stroke-miterlimit:10;" width="84.48" height="94.87"></rect>
		
			<rect x="1692.27" y="1522.77" style="fill:none;stroke:#000000;stroke-linecap:round;stroke-linejoin:round;stroke-miterlimit:10;" width="84.48" height="94.28"></rect>
	</g>
	<g>
		<g>
			<path style="fill:none;stroke:#000000;stroke-linecap:round;stroke-linejoin:round;stroke-miterlimit:10;" d="M1612.49,1392.02
				c0.02,0.16,0.02,0.32,0.01,0.49c-0.55,8.94-0.38,17.98,0.48,26.87s2.43,17.8,4.68,26.45c0.05,0.18,0.08,0.34,0.09,0.5
				c0.08,0.86-0.22,1.71-0.83,2.35c-0.35,0.36-1.11,0.96-2.28,0.91l-0.07-0.01c-17.96-1.09-35.89,0.64-53.31,5.16l-0.09,0.03
				c-1.12,0.26-1.97-0.17-2.38-0.46c-0.72-0.51-1.19-1.29-1.27-2.15c-0.02-0.16-0.02-0.32-0.01-0.49
				c0.55-8.94,0.38-17.98-0.48-26.87s-2.43-17.8-4.68-26.45c-0.05-0.18-0.07-0.34-0.09-0.5c-0.08-0.86,0.22-1.72,0.83-2.35
				c0.35-0.36,1.11-0.96,2.28-0.91l0.07,0.01c17.96,1.09,35.89-0.64,53.31-5.16l0.09-0.03c1.12-0.26,1.97,0.17,2.39,0.46
				C1611.94,1390.38,1612.41,1391.16,1612.49,1392.02z"></path>
		</g>
		<path style="fill:none;stroke:#000000;stroke-linecap:round;stroke-linejoin:round;stroke-miterlimit:10;" d="M1614.56,1449.59
			l0.07,0.01c1.17,0.05,1.93-0.55,2.28-0.91c0.61-0.64,0.92-1.49,0.83-2.35c-0.02-0.16-0.04-0.32-0.09-0.5
			c-1.97-7.61-3.33-15.42-4.24-23.25c6.35-3.14,12.57-6.56,18.51-10.49l0.06-0.04c0.99-0.63,1.94-0.49,2.43-0.35
			c0.85,0.25,1.54,0.84,1.9,1.62c0.07,0.15,0.12,0.3,0.17,0.48c2.38,8.62,5.46,17.12,9.15,25.26s8.07,16.05,13,23.52
			c0.09,0.14,0.17,0.28,0.24,0.43c0.36,0.79,0.35,1.7-0.03,2.5c-0.21,0.45-0.73,1.26-1.84,1.59l-0.09,0.02
			c-17.34,4.78-33.75,12.23-48.77,22.15l-0.06,0.04c-0.99,0.63-1.94,0.49-2.43,0.35c-0.85-0.25-1.54-0.84-1.9-1.62
			c-0.07-0.15-0.12-0.3-0.17-0.48c-2.38-8.62-5.46-17.12-9.15-25.26c-1.89-4.16-3.97-8.26-6.2-12.28
			C1596.97,1449.22,1605.76,1449.06,1614.56,1449.59z"></path>
		<path style="fill:none;stroke:#000000;stroke-linecap:round;stroke-linejoin:round;stroke-miterlimit:10;" d="M1614.56,1449.59
			l0.07,0.01c1.17,0.05,1.93-0.55,2.28-0.91c0.61-0.64,0.92-1.49,0.83-2.35c-0.02-0.16-0.04-0.32-0.09-0.5
			c-2.24-8.65-3.82-17.55-4.68-26.45c-0.02-0.25-0.02-0.5-0.04-0.74c5.8-2.92,11.49-6.07,16.93-9.66l0.01-0.01
			c3.82-2.52,8.99-0.58,10.21,3.83l0,0.02c4.67,16.94,11.98,33.04,21.66,47.7l0.01,0.01c2.52,3.82,0.58,8.99-3.83,10.21l-0.02,0
			c-16.94,4.67-33.04,11.98-47.7,21.66l-0.01,0.01c-3.82,2.52-8.99,0.58-10.21-3.83l0-0.02c-3.67-13.3-9.01-26.04-15.8-38.01
			C1594.25,1449.36,1604.4,1448.97,1614.56,1449.59z"></path>
	</g>
	<g>
		<g>
			<path style="fill:none;stroke:#000000;stroke-linecap:round;stroke-linejoin:round;stroke-miterlimit:10;" d="M1396.38,1392.6
				c-0.02,0.16-0.02,0.32-0.01,0.49c0.55,8.94,0.38,17.98-0.48,26.87s-2.43,17.8-4.68,26.45c-0.05,0.18-0.08,0.34-0.09,0.5
				c-0.08,0.86,0.22,1.71,0.83,2.35c0.35,0.36,1.11,0.96,2.28,0.91l0.07-0.01c17.96-1.09,35.89,0.64,53.31,5.16l0.09,0.03
				c1.12,0.26,1.97-0.17,2.38-0.46c0.72-0.51,1.19-1.29,1.27-2.15c0.02-0.16,0.02-0.32,0.01-0.49c-0.55-8.94-0.38-17.98,0.48-26.87
				s2.43-17.8,4.68-26.45c0.05-0.18,0.07-0.34,0.09-0.5c0.08-0.86-0.22-1.72-0.83-2.35c-0.35-0.36-1.11-0.96-2.28-0.91l-0.07,0.01
				c-17.96,1.09-35.89-0.64-53.31-5.16l-0.09-0.03c-1.12-0.26-1.97,0.17-2.39,0.46C1396.93,1390.96,1396.46,1391.74,1396.38,1392.6z
				"></path>
		</g>
		<path style="fill:none;stroke:#000000;stroke-linecap:round;stroke-linejoin:round;stroke-miterlimit:10;" d="M1394.31,1450.18
			l-0.07,0.01c-1.17,0.05-1.93-0.55-2.28-0.91c-0.61-0.64-0.92-1.49-0.83-2.35c0.02-0.16,0.04-0.32,0.09-0.5
			c1.97-7.61,3.33-15.42,4.24-23.25c-6.35-3.14-12.57-6.56-18.51-10.49l-0.06-0.04c-0.99-0.63-1.94-0.49-2.43-0.35
			c-0.85,0.25-1.54,0.84-1.9,1.62c-0.07,0.15-0.12,0.3-0.17,0.48c-2.38,8.62-5.46,17.12-9.15,25.26s-8.07,16.05-13,23.52
			c-0.09,0.14-0.17,0.28-0.24,0.43c-0.36,0.79-0.35,1.7,0.03,2.5c0.21,0.45,0.73,1.26,1.84,1.59l0.09,0.02
			c17.34,4.78,33.75,12.23,48.77,22.15l0.06,0.04c0.99,0.63,1.94,0.49,2.43,0.35c0.85-0.25,1.54-0.84,1.9-1.62
			c0.07-0.15,0.12-0.3,0.17-0.48c2.38-8.62,5.46-17.12,9.15-25.26c1.89-4.16,3.97-8.26,6.2-12.28
			C1411.9,1449.81,1403.11,1449.64,1394.31,1450.18z"></path>
		<path style="fill:none;stroke:#000000;stroke-linecap:round;stroke-linejoin:round;stroke-miterlimit:10;" d="M1394.31,1450.18
			l-0.07,0.01c-1.17,0.05-1.93-0.55-2.28-0.91c-0.61-0.64-0.92-1.49-0.83-2.35c0.02-0.16,0.04-0.32,0.09-0.5
			c2.24-8.65,3.82-17.55,4.68-26.45c0.02-0.25,0.02-0.5,0.04-0.74c-5.8-2.92-11.49-6.07-16.93-9.66l-0.01-0.01
			c-3.82-2.52-8.99-0.58-10.21,3.83l0,0.02c-4.67,16.94-11.98,33.04-21.66,47.7l-0.01,0.01c-2.52,3.82-0.58,8.99,3.83,10.21l0.02,0
			c16.94,4.67,33.04,11.98,47.7,21.66l0.01,0.01c3.82,2.52,8.99,0.58,10.21-3.83l0-0.02c3.67-13.3,9.01-26.04,15.8-38.01
			C1414.62,1449.95,1404.47,1449.56,1394.31,1450.18z"></path>
	</g>
	<g>
		<g>
			
				<circle style="fill:none;stroke:#000000;stroke-linecap:round;stroke-linejoin:round;stroke-miterlimit:10;" cx="1467.3" cy="1299.42" r="17.84"></circle>
			<path style="fill:none;stroke:#000000;stroke-linecap:round;stroke-linejoin:round;stroke-miterlimit:10;" d="M1445.95,1304.04
				l-10.27-21.22c-1.07-2.21-0.12-4.86,2.1-5.89l0,0c2.12-0.98,4.64-0.13,5.73,1.95l8.17,15.63l5.15,12.53L1445.95,1304.04z"></path>
		</g>
		<path style="fill:#FFFFFF;stroke:#000000;stroke-linecap:round;stroke-linejoin:round;stroke-miterlimit:10;" d="M1459.44,1323.04
			L1459.44,1323.04c13.47,0.68,27.08-4.77,36.36-15.94c5.42-6.52,8.66-14.14,9.79-21.96c1.56-10.75-0.38-22.59-6.29-32.24
			l-21.52,16.44c0.26,4.29-1.05,8.69-4.01,12.26c-3,3.61-7.16,5.71-11.49,6.2l-2.75,34.09c-6.74-1.28-12.17-3.35-17.82-8.04
			c-16.24-13.49-20.75-37.56-9.94-55.01c1.25-2.02,0.54-4.68-1.53-5.84l0,0c-1.92-1.08-4.36-0.49-5.57,1.36
			c-12.18,18.65-8.56,44.02,8.93,58.44C1441.22,1319.07,1450.28,1322.55,1459.44,1323.04z"></path>
		<path style="fill:#FFFFFF;stroke:#000000;stroke-linecap:round;stroke-linejoin:round;stroke-miterlimit:10;" d="M1460.03,1315.7"></path>
		<polygon style="fill:#FFFFFF;" points="1476.95,1290.89 1453.95,1290.88 1471.21,1282.61 1473.44,1283.24 		"></polygon>
		<path style="fill:#FFFFFF;stroke:#000000;stroke-linecap:round;stroke-linejoin:round;stroke-miterlimit:10;" d="M1475.54,1242.81
			c2.34-0.58,4.74,0.76,5.47,3.06l3.76,11.87c0.76,2.33-0.55,4.83-2.89,5.54l0,0c-2.24,0.68-4.62-0.51-5.41-2.71l-4.15-11.8
			C1471.43,1246.22,1472.92,1243.46,1475.54,1242.81L1475.54,1242.81z"></path>
		<path style="fill:#FFFFFF;" d="M1447.92,1318.7c9.45,7.85,24.6,4.3,28.75-9.12c1.25-4.05,0.84-8.53-1.13-12.28
			c-6.53-12.44-22.08-13.16-29.93-3.71c-0.58,0.7-1.1,1.43-1.56,2.18l-4.91-14.72c-0.71-2.13-2.89-3.49-5.09-3.03
			c-2.54,0.53-4.04,3.11-3.31,5.55l6.49,21.65c0.18,0.59,0.6,1.08,1.17,1.34l3.36,1.54
			C1442.47,1312.11,1444.54,1315.9,1447.92,1318.7z"></path>
		<path style="fill:#FFFFFF;stroke:#000000;stroke-linecap:round;stroke-linejoin:round;stroke-miterlimit:10;" d="M1476.97,1254.03
			"></path>
		<path style="fill:#FFFFFF;stroke:#000000;stroke-linecap:round;stroke-linejoin:round;stroke-miterlimit:10;" d="M1481.75,1249.1"></path>
		<path style="fill:#FFFFFF;stroke:#000000;stroke-linecap:round;stroke-linejoin:round;stroke-miterlimit:10;" d="M1474.9,1296.32
			c-0.93-1.69-2.15-3.24-3.65-4.59c-7.57-6.8-19.2-5.89-25.64,1.86c-0.58,0.7-1.1,1.43-1.56,2.18l-4.91-14.72
			c-0.71-2.13-2.89-3.49-5.09-3.03c-2.54,0.53-4.04,3.11-3.31,5.55l6.49,21.65c0.18,0.59,0.6,1.08,1.17,1.34l3.36,1.54
			c0.71,4.01,2.1,9.75,10.77,14"></path>
		<path style="fill:none;stroke:#000000;stroke-linecap:round;stroke-linejoin:round;stroke-miterlimit:10;" d="M1445.82,1320.04
			c0,0,15.01,6.79,31.78,0.1"></path>
		<g>
			<path style="fill:#FFFFFF;stroke:#000000;stroke-linecap:round;stroke-linejoin:round;stroke-miterlimit:10;" d="
				M1490.88,1289.17l-12.35-4.44c1.95,0.83-3.6-1.53-7.46-3.18c-2.3-0.99-3.32-3.78-3.61-6.27l-2.67-20.43
				c-0.12-1.05,0.14-2.07,0.67-2.89c0.7-1.09,1.86-1.87,3.25-2.03c2.44-0.28,4.65,1.48,4.92,3.92l0.94,5.06
				c0.94,8.35,8.7,14.2,16.99,12.81l4.6-0.77"></path>
		</g>
		<g>
			<path style="fill:#FFFFFF;stroke:#000000;stroke-linecap:round;stroke-linejoin:round;stroke-miterlimit:10;" d="
				M1501.98,1262.85c1.64-8.04-3.17-15.09-10.06-17.2l-6.56-9.73c-0.35-0.52-1.16-0.37-1.29,0.25l-2.22,10.04
				c-2.33,1-4.34,2.57-5.85,4.54l0,0l-0.04,0.06c-0.21,0.27-0.41,0.55-0.6,0.84l-4.34,6.13l0.04,0c-0.63,0.84-1.07,1.85-1.22,2.97
				c-0.49,3.52,1.96,6.76,5.48,7.25c0.07,0.01,0.15,0.01,0.22,0.02c3.45,5.01,9.92,7.73,16.65,5.65
				C1497.11,1272.13,1500.95,1267.9,1501.98,1262.85z"></path>
			
				<line style="fill:#FFFFFF;stroke:#000000;stroke-linecap:round;stroke-linejoin:round;stroke-miterlimit:10;" x1="1479.1" y1="1263.33" x2="1482.99" y2="1265.65"></line>
			<polygon points="1474.94,1263 1471.42,1262.09 1472.33,1258.57 			"></polygon>
			<path style="fill:#FFFFFF;stroke:#000000;stroke-linecap:round;stroke-linejoin:round;stroke-miterlimit:10;" d="
				M1495.57,1266.98c3.77-2.13,8.62-6.13,11.47-10.04c0.48-0.66-0.04-1.53-0.82-1.74c-1.59-0.43-7.56-1.48-12.74-1.01
				c0,0,0.77-0.11,0,0"></path>
		</g>
	</g>
	<g>
		<g>
			<path style="fill:none;stroke:#000000;stroke-linecap:round;stroke-linejoin:round;stroke-miterlimit:10;" d="M1713.42,1066.66
				c0.11-1.86,0.34-3.72,0.71-5.56"></path>
			<path style="fill:none;stroke:#000000;stroke-linecap:round;stroke-linejoin:round;stroke-miterlimit:10;" d="M1771.77,1033.16
				c2.61,1.33,5.11,2.97,7.46,4.92c0.53,0.44,1.04,0.89,1.54,1.35"></path>
		</g>
		<g>
			<path style="fill:none;stroke:#000000;stroke-linecap:round;stroke-linejoin:round;stroke-miterlimit:10;" d="M1772.55,1038.53
				c1.36,0.85,2.67,1.8,3.94,2.85"></path>
			<path style="fill:none;stroke:#000000;stroke-linecap:round;stroke-linejoin:round;stroke-miterlimit:10;" d="M1717.77,1065.88
				c0.14-1.61,0.39-3.22,0.74-4.82"></path>
		</g>
		<g>
			<path style="fill:none;stroke:#000000;stroke-linecap:round;stroke-linejoin:round;stroke-miterlimit:10;" d="M1712.67,1020.72
				c-3.54,0.14-7.34,0.94-11.31,2.73c-7.77,20.76,9.64,35.37,9.64,35.37c3.26,3.06,8.15,3.29,11.66,0.81"></path>
		</g>
		
			<line style="fill:none;stroke:#000000;stroke-linecap:round;stroke-linejoin:round;stroke-miterlimit:10;" x1="1710.9" y1="1033.31" x2="1701.77" y2="1023.65"></line>
		
			<line style="fill:none;stroke:#000000;stroke-linecap:round;stroke-linejoin:round;stroke-miterlimit:10;" x1="1750.29" y1="1074.99" x2="1734.55" y2="1058.33"></line>
		<g>
			<path style="fill:none;stroke:#000000;stroke-linecap:round;stroke-linejoin:round;stroke-miterlimit:10;" d="M1771.28,1077.04
				c0,0,0.01,0,0.01,0C1771.27,1077.04,1771.26,1077.04,1771.28,1077.04z"></path>
			<path style="fill:none;stroke:#000000;stroke-linecap:round;stroke-linejoin:round;stroke-miterlimit:10;" d="M1776.94,1106.24
				c11.34-0.92,32.62-5.8,43.09-28.6c-2.32-6.17-5.47-11.17-9.05-15.2"></path>
			<path style="fill:none;stroke:#000000;stroke-linecap:round;stroke-linejoin:round;stroke-miterlimit:10;" d="M1770.52,1075.88
				c-3.72-0.12-7.18,1.38-9.86,3.83"></path>
			<path style="fill:none;stroke:#000000;stroke-linecap:round;stroke-linejoin:round;stroke-miterlimit:10;" d="M1758.11,1053.22
				c-1,1.9-1.6,4.04-1.68,6.33c-0.29,8.1,6,16.04,14.1,16.33c1.66,0.06,1.01,0.05,0.81,0.03"></path>
			<path style="fill:none;stroke:#000000;stroke-linecap:round;stroke-linejoin:round;stroke-miterlimit:10;" d="M1775.58,1045.61
				c-2.47-0.23-3.96-0.2-3.96-0.2"></path>
		</g>
		
			<line style="fill:none;stroke:#000000;stroke-linecap:round;stroke-linejoin:round;stroke-miterlimit:10;" x1="1750.5" y1="1075.09" x2="1820.03" y2="1077.65"></line>
		<g>
			<path style="fill:none;stroke:#000000;stroke-linecap:round;stroke-linejoin:round;stroke-miterlimit:10;" d="M1741.42,1041.36
				c0,0,0,0.01,0,0.01C1741.42,1041.39,1741.42,1041.39,1741.42,1041.36z"></path>
			<path style="fill:none;stroke:#000000;stroke-linecap:round;stroke-linejoin:round;stroke-miterlimit:10;" d="M1743.64,1040.85
				c0,0,0-0.01,0-0.01C1743.64,1040.87,1743.64,1040.87,1743.64,1040.85z"></path>
			<path style="fill:none;stroke:#000000;stroke-linecap:round;stroke-linejoin:round;stroke-miterlimit:10;" d="M1713.02,1048.85
				c1.85,7.89,9.75,12.79,17.64,10.94c7.89-1.85,13.89-10.01,12.05-17.9c-0.38-1.61-0.22-0.98-0.18-0.79
				c-0.14-0.61-0.26-1.1-0.26-1.1s0.11,0.49,0.26,1.1c-0.06-0.19,0,0,0.19,0.79c1.6,6.76,8.43,11.13,15.32,11.08
				c1.15-0.01,2.3-0.14,3.43-0.4c7.89-1.85,12.79-9.75,10.94-17.64c0,0-0.1-0.59-0.36-1.62c-1.73-7.02-10.4-34.63-40.63-39.65
				C1702.88,1014.23,1713.02,1048.85,1713.02,1048.85z"></path>
		</g>
		
			<line style="fill:none;stroke:#000000;stroke-linecap:round;stroke-linejoin:round;stroke-miterlimit:10;" x1="1750.5" y1="1075.09" x2="1731.4" y2="993.66"></line>
		<g>
			<path style="fill:none;stroke:#000000;stroke-linecap:round;stroke-linejoin:round;stroke-miterlimit:10;" d="M1723.42,1067.32
				c-2.44-1.69-5.65-2.19-8.62-1.04c0,0-21.62,7.03-22.18,29.19c5.72,5.97,12.19,8.41,18.05,9.13"></path>
		</g>
		
			<line style="fill:none;stroke:#000000;stroke-linecap:round;stroke-linejoin:round;stroke-miterlimit:10;" x1="1711.9" y1="1088.67" x2="1692.61" y2="1095.46"></line>
		
			<line style="fill:none;stroke:#000000;stroke-linecap:round;stroke-linejoin:round;stroke-miterlimit:10;" x1="1750.5" y1="1075.09" x2="1745.14" y2="1076.98"></line>
		<g>
			<path style="fill:none;stroke:#000000;stroke-linecap:round;stroke-linejoin:round;stroke-miterlimit:10;" d="M1745.23,1088.6
				C1745.23,1088.6,1745.23,1088.59,1745.23,1088.6C1745.24,1088.57,1745.24,1088.58,1745.23,1088.6z"></path>
			<path style="fill:none;stroke:#000000;stroke-linecap:round;stroke-linejoin:round;stroke-miterlimit:10;" d="M1743.18,1087.6
				c0,0,0,0.01,0,0.01C1743.19,1087.59,1743.19,1087.58,1743.18,1087.6z"></path>
			<path style="fill:none;stroke:#000000;stroke-linecap:round;stroke-linejoin:round;stroke-miterlimit:10;" d="M1765.18,1081.05
				c-7.3-3.53-17.09-0.97-20.62,6.32"></path>
			<path style="fill:none;stroke:#000000;stroke-linecap:round;stroke-linejoin:round;stroke-miterlimit:10;" d="M1744.2,1088.1
				c-0.08,0.18,0,0,0.35-0.73c3.51-7.3-0.55-16.57-7.84-20.1c-7.3-3.53-16.07-0.48-19.6,6.82c0,0-17.46,31.56,5.88,57.87
				c14.57,0.82,25.48-4.44,33.27-10.86"></path>
		</g>
		
			<line style="fill:none;stroke:#000000;stroke-linecap:round;stroke-linejoin:round;stroke-miterlimit:10;" x1="1738.59" y1="1099.7" x2="1722.98" y2="1131.97"></line>
		<g>
			<path style="fill:none;stroke:#000000;stroke-linecap:round;stroke-linejoin:round;stroke-miterlimit:10;" d="M1757.56,1093.76
				C1757.56,1093.76,1757.56,1093.76,1757.56,1093.76C1757.56,1093.74,1757.56,1093.75,1757.56,1093.76z"></path>
			<path style="fill:none;stroke:#000000;stroke-linecap:round;stroke-linejoin:round;stroke-miterlimit:10;" d="M1756.2,1094.22
				C1756.2,1094.23,1756.21,1094.23,1756.2,1094.22C1756.2,1094.22,1756.2,1094.21,1756.2,1094.22z"></path>
			<path style="fill:none;stroke:#000000;stroke-linecap:round;stroke-linejoin:round;stroke-miterlimit:10;" d="M1774.87,1087.24
				c-1.67-4.83-6.93-7.39-11.76-5.72c-4.83,1.67-8.06,7.17-6.4,11.99c0.34,0.99,0.2,0.6,0.17,0.48c0.12,0.37,0.23,0.67,0.23,0.67
				s-0.1-0.3-0.23-0.67c0.05,0.12,0,0-0.17-0.48c-1.68-4.82-7.61-7.15-12.44-5.49s-7.39,6.93-5.72,11.76c0,0,6.24,21.85,28.35,23.23
				c6.19-5.51,8.86-11.89,9.78-17.74C1778.24,1095.49,1774.87,1087.24,1774.87,1087.24z"></path>
		</g>
		
			<line style="fill:none;stroke:#000000;stroke-linecap:round;stroke-linejoin:round;stroke-miterlimit:10;" x1="1750.24" y1="1074.96" x2="1766.91" y2="1123.01"></line>
		<g>
			<path style="fill:none;stroke:#000000;stroke-linecap:round;stroke-linejoin:round;stroke-miterlimit:10;" d="M1788.3,1056.14
				C1788.3,1056.14,1788.3,1056.14,1788.3,1056.14C1788.28,1056.15,1788.29,1056.14,1788.3,1056.14z"></path>
			<path style="fill:none;stroke:#000000;stroke-linecap:round;stroke-linejoin:round;stroke-miterlimit:10;" d="M1788.91,1057.44
				C1788.91,1057.44,1788.91,1057.44,1788.91,1057.44C1788.9,1057.44,1788.9,1057.45,1788.91,1057.44z"></path>
			<path style="fill:none;stroke:#000000;stroke-linecap:round;stroke-linejoin:round;stroke-miterlimit:10;" d="M1779.96,1039.63
				c-4.62,2.18-6.6,7.68-4.43,12.3c2.18,4.62,7.99,7.25,12.61,5.07c0.95-0.45,0.58-0.26,0.46-0.22c0.36-0.16,0.64-0.3,0.64-0.3
				s-0.29,0.13-0.64,0.3c0.11-0.06,0,0-0.46,0.22c-4.61,2.19-6.3,8.33-4.12,12.95c2.18,4.62,7.68,6.6,12.3,4.43
				c0,0,21.06-8.54,20.05-30.68C1799.96,1028.83,1779.96,1039.63,1779.96,1039.63z"></path>
		</g>
		
			<line style="fill:none;stroke:#000000;stroke-linecap:round;stroke-linejoin:round;stroke-miterlimit:10;" x1="1750.6" y1="1075.14" x2="1816.38" y2="1043.71"></line>
	</g>
</g>
<g id="floor">
	<g>
		<path style="fill-rule:evenodd;clip-rule:evenodd;" d="M320.51,857.12h85.1v-16.93h-85.1v-414.9h256.13v65.62h12.6h4.33h110.07
			v349.27h-128.7v16.93h128.7v10.72h16.93V382.95h1066.87v175.7h111.88v-175.7v-4.37v-42.2H610.19v27.52H278.17v52.92v8.47v433.95
			h42.34V857.12z M703.65,473.97H593.58v-48.69h65.62v-42.34h44.45V473.97z"></path>
		<path style="fill-rule:evenodd;clip-rule:evenodd;" d="M1899.33,1616.95v-105.74h-69.54v105.74l-740.88,0.05v-154.48h-16.93V1617
			l-256.35,0.02v-71.94v-2.58v-8v-5.19v-112.93h-25.08v112.93H619.08v12.01v3.76v46.68H340.3V1231.9h158.87v-25.08H320.51V1081.5
			h-42.34v134.38v2.68v398.49v6.08v40.49l1621.18-0.1v-46.57H1899.33z M800.92,1545.08V1602H634.85v-56.92H800.92z"></path>
		<polygon style="fill-rule:evenodd;clip-rule:evenodd;" points="1088.91,1272.01 1088.91,956.61 1113.25,956.61 1113.25,939.67 
			1071.97,939.67 1071.97,954.99 1071.97,956.61 1071.97,1206.39 720.58,1206.39 720.58,1079.51 703.65,1079.51 703.65,1206.81 
			668.51,1206.81 668.51,1231.9 705.57,1231.9 706.83,1231.9 790.94,1231.9 790.94,1247.03 815.63,1247.03 815.63,1223.32 
			1071.97,1223.32 1071.97,1272.01 		"></polygon>
		<polygon style="fill-rule:evenodd;clip-rule:evenodd;" points="1899.33,1130.18 1899.33,986.24 1899.33,981.88 1899.33,876.17 
			1787.46,876.17 1787.46,939.67 1447.5,939.67 1444.53,939.67 1303.77,939.67 1303.77,956.61 1444.53,956.61 1444.53,986.24 
			1787.46,986.24 1794.46,986.24 1829.79,986.24 1829.79,1130.18 		"></polygon>
	</g>
	<g>
		<path style="fill:none;stroke:#000000;stroke-linecap:round;stroke-linejoin:round;stroke-miterlimit:10;" d="M300.33,1069.67
			c-109.79,0-199.66-88.81-199.67-198.6l198.03,0"></path>
		
			<rect x="303.68" y="854.25" transform="matrix(2.479663e-05 1 -1 2.479663e-05 1174.7385 555.5316)" style="fill:none;stroke:#000000;stroke-linecap:round;stroke-linejoin:round;stroke-miterlimit:10;" width="11.83" height="21.81"></rect>
		
			<rect x="303.69" y="1064.68" transform="matrix(2.479663e-05 1 -1 2.479663e-05 1385.174 765.9514)" style="fill:none;stroke:#000000;stroke-linecap:round;stroke-linejoin:round;stroke-miterlimit:10;" width="11.83" height="21.81"></rect>
	</g>
	<g>
		<path style="fill:none;stroke:#000000;stroke-linecap:round;stroke-linejoin:round;stroke-miterlimit:10;" d="M806.28,1407.36
			c83.65,0,152.12-67.66,152.13-151.31l-150.88,0"></path>
		
			<rect x="794.72" y="1243.24" transform="matrix(-2.479667e-05 1 -1 -2.479667e-05 2050.7883 452.3495)" style="fill:none;stroke:#000000;stroke-linecap:round;stroke-linejoin:round;stroke-miterlimit:10;" width="9.01" height="16.62"></rect>
		
			<rect x="794.71" y="1403.56" transform="matrix(-2.479667e-05 1 -1 -2.479667e-05 2211.1113 612.6846)" style="fill:none;stroke:#000000;stroke-linecap:round;stroke-linejoin:round;stroke-miterlimit:10;" width="9.01" height="16.62"></rect>
	</g>
	<g>
		<path style="fill:none;stroke:#000000;stroke-linecap:round;stroke-linejoin:round;stroke-miterlimit:10;" d="M659.5,1216.53
			c0-83.65-67.66-152.12-151.31-152.13l0,150.88"></path>
		
			<rect x="499.17" y="1215.28" style="fill:none;stroke:#000000;stroke-linecap:round;stroke-linejoin:round;stroke-miterlimit:10;" width="9.01" height="16.62"></rect>
		
			<rect x="659.5" y="1215.28" style="fill:none;stroke:#000000;stroke-linecap:round;stroke-linejoin:round;stroke-miterlimit:10;" width="9.01" height="16.62"></rect>
	</g>
	<g>
		<path style="fill:none;stroke:#000000;stroke-linecap:round;stroke-linejoin:round;stroke-miterlimit:10;" d="M1293.62,956.75
			c0,94.11-76.12,171.14-170.22,171.14l0-169.74"></path>
		
			<rect x="1113.25" y="939.46" style="fill:none;stroke:#000000;stroke-linecap:round;stroke-linejoin:round;stroke-miterlimit:10;" width="10.14" height="18.69"></rect>
		
			<rect x="1293.62" y="939.46" style="fill:none;stroke:#000000;stroke-linecap:round;stroke-linejoin:round;stroke-miterlimit:10;" width="10.14" height="18.69"></rect>
	</g>
	<g>
		<g id="LWPOLYLINE_88_">
			
				<rect x="720.59" y="606.29" style="fill:none;stroke:#000000;stroke-linecap:round;stroke-linejoin:round;stroke-miterlimit:10;" width="124.89" height="124.89"></rect>
		</g>
		<g id="LWPOLYLINE_87_">
			
				<line style="fill:none;stroke:#000000;stroke-linecap:round;stroke-linejoin:round;stroke-miterlimit:10;" x1="793.43" y1="637.52" x2="835.07" y2="637.52"></line>
		</g>
		<g id="LWPOLYLINE_86_">
			
				<line style="fill:none;stroke:#000000;stroke-linecap:round;stroke-linejoin:round;stroke-miterlimit:10;" x1="814.25" y1="658.33" x2="814.25" y2="616.7"></line>
		</g>
		<g id="CIRCLE_176_">
			<path style="fill:none;stroke:#000000;stroke-linecap:round;stroke-linejoin:round;stroke-miterlimit:10;" d="M814.25,620.86
				c9.2,0,16.65,7.46,16.65,16.65s-7.46,16.65-16.65,16.65s-16.65-7.46-16.65-16.65C797.6,628.32,805.05,620.86,814.25,620.86
				L814.25,620.86z"></path>
		</g>
		<g id="LWPOLYLINE_85_">
			
				<line style="fill:none;stroke:#000000;stroke-linecap:round;stroke-linejoin:round;stroke-miterlimit:10;" x1="730.99" y1="637.51" x2="772.62" y2="637.52"></line>
		</g>
		<g id="LWPOLYLINE_84_">
			
				<line style="fill:none;stroke:#000000;stroke-linecap:round;stroke-linejoin:round;stroke-miterlimit:10;" x1="751.8" y1="658.33" x2="751.81" y2="616.7"></line>
		</g>
		<g id="CIRCLE_175_">
			<path style="fill:none;stroke:#000000;stroke-linecap:round;stroke-linejoin:round;stroke-miterlimit:10;" d="M751.8,620.86
				c9.2,0,16.66,7.46,16.66,16.66c0,9.2-7.46,16.66-16.66,16.66c-9.2,0-16.66-7.46-16.66-16.66
				C735.14,628.32,742.6,620.86,751.8,620.86L751.8,620.86z"></path>
		</g>
		<g id="LWPOLYLINE_83_">
			
				<line style="fill:none;stroke:#000000;stroke-linecap:round;stroke-linejoin:round;stroke-miterlimit:10;" x1="730.99" y1="699.96" x2="772.62" y2="699.96"></line>
		</g>
		<g id="LWPOLYLINE_82_">
			
				<line style="fill:none;stroke:#000000;stroke-linecap:round;stroke-linejoin:round;stroke-miterlimit:10;" x1="751.8" y1="720.77" x2="751.8" y2="679.14"></line>
		</g>
		<g id="CIRCLE_174_">
			<path style="fill:none;stroke:#000000;stroke-linecap:round;stroke-linejoin:round;stroke-miterlimit:10;" d="M751.8,683.31
				c9.2,0,16.66,7.46,16.66,16.66c0,9.2-7.46,16.66-16.66,16.66c-9.2,0-16.66-7.46-16.66-16.66
				C735.14,690.77,742.6,683.31,751.8,683.31L751.8,683.31z"></path>
		</g>
		<g id="LWPOLYLINE_81_">
			
				<line style="fill:none;stroke:#000000;stroke-linecap:round;stroke-linejoin:round;stroke-miterlimit:10;" x1="793.43" y1="699.96" x2="835.06" y2="699.96"></line>
		</g>
		<g id="LWPOLYLINE_80_">
			
				<line style="fill:none;stroke:#000000;stroke-linecap:round;stroke-linejoin:round;stroke-miterlimit:10;" x1="814.25" y1="720.78" x2="814.25" y2="679.14"></line>
		</g>
		<g id="CIRCLE_173_">
			<path style="fill:none;stroke:#000000;stroke-linecap:round;stroke-linejoin:round;stroke-miterlimit:10;" d="M814.25,683.31
				c9.2,0,16.65,7.46,16.65,16.65c0,9.2-7.46,16.65-16.65,16.65c-9.2,0-16.65-7.46-16.65-16.65S805.05,683.31,814.25,683.31
				L814.25,683.31z"></path>
		</g>
	</g>
	<g>
		<g id="LWPOLYLINE_17_">
			
				<rect x="720.59" y="382.79" style="fill:none;stroke:#000000;stroke-linecap:round;stroke-linejoin:round;stroke-miterlimit:10;" width="124.89" height="124.89"></rect>
		</g>
		<g id="LWPOLYLINE_16_">
			<path style="fill:none;stroke:#000000;stroke-linecap:round;stroke-linejoin:round;stroke-miterlimit:10;" d="M827.78,393.2
				l-79.05,0c-4.02,0-7.29,3.26-7.29,7.28c0,0,0,89.51,0,89.51c0,4.02,3.26,7.29,7.29,7.29c0,0,79.05,0,79.05,0
				c4.02,0,7.28-3.26,7.28-7.28c0,0,0-89.51,0-89.51C835.07,396.46,831.81,393.2,827.78,393.2z"></path>
		</g>
		<g id="LWPOLYLINE_15_">
			<path style="fill:none;stroke:#000000;stroke-linecap:round;stroke-linejoin:round;stroke-miterlimit:10;" d="M769,424.42
				c0-4.03-3.27-7.3-7.3-7.3c-4.03,0-7.3,3.27-7.3,7.3c0,4.03,3.27,7.3,7.3,7.3C765.73,431.72,769,428.45,769,424.42z"></path>
		</g>
	</g>
	<g>
		<g>
			<g id="LWPOLYLINE_14_">
				<path style="fill:none;stroke:#000000;stroke-linecap:round;stroke-linejoin:round;stroke-miterlimit:10;" d="M493.77,1592.28
					l0-59.8c0-8.43,5.44-15.89,13.46-18.47c29.1-9.38,60.41-9.38,89.51,0c8.02,2.59,13.46,10.05,13.46,18.47l0,59.8"></path>
			</g>
			<g id="LWPOLYLINE_13_">
				<path style="fill:none;stroke:#000000;stroke-linecap:round;stroke-linejoin:round;stroke-miterlimit:10;" d="M583.03,1575.55
					c6.43,0,11.64-5.22,11.64-11.64l0-18.63c0-4.26-2.78-8.03-6.86-9.28c-23.35-7.15-48.31-7.15-71.65,0
					c-4.08,1.25-6.86,5.01-6.86,9.28v18.63c0,6.43,5.21,11.65,11.65,11.65"></path>
			</g>
			<g id="LWPOLYLINE_12_">
				<path style="fill:none;stroke:#000000;stroke-linecap:round;stroke-linejoin:round;stroke-miterlimit:10;" d="M501.53,1563.9
					c0,6.43,5.21,11.64,11.64,11.64l77.61,0c6.44,0,11.64-5.21,11.64-11.64v-31.43c0-5.05-3.26-9.53-8.07-11.08
					c-27.55-8.88-57.2-8.88-84.75,0c-4.81,1.55-8.08,6.02-8.08,11.08L501.53,1563.9z"></path>
			</g>
			<g id="LWPOLYLINE_11_">
				<path style="fill:none;stroke:#000000;stroke-linecap:round;stroke-linejoin:round;stroke-miterlimit:10;" d="M551.98,1572.08
					c2.89,0,5.23-2.33,5.23-5.22c0-2.89-2.34-5.22-5.23-5.22c-2.88,0-5.22,2.34-5.22,5.22
					C546.76,1569.74,549.09,1572.08,551.98,1572.08z"></path>
			</g>
		</g>
		<g>
			<g id="LWPOLYLINE_10_">
				
					<rect x="340.52" y="1230.33" style="fill:none;stroke:#000000;stroke-linecap:round;stroke-linejoin:round;stroke-miterlimit:10;" width="147.34" height="361.43"></rect>
			</g>
			<g id="LWPOLYLINE_9_">
				<path style="fill:none;stroke:#000000;stroke-linecap:round;stroke-linejoin:round;stroke-miterlimit:10;" d="M352.31,1280.23
					l0,234.85c0,34.17,27.7,61.88,61.88,61.88c34.18,0,61.88-27.7,61.88-61.88l0-234.85c0.01-16.33-13.13-29.63-29.46-29.82
					l-64.83,0c-16.28,0-29.47,13.19-29.47,29.47"></path>
			</g>
			<g id="LWPOLYLINE_8_">
				<path style="fill:none;stroke:#000000;stroke-linecap:round;stroke-linejoin:round;stroke-miterlimit:10;" d="M369.15,1353.8
					l0,161.27c0,24.88,20.17,45.05,45.05,45.05c24.88,0,45.04-20.17,45.04-45.05l0-158.95c-0.02-23.97-18.79-43.73-42.72-44.98
					C391.66,1309.84,370.45,1328.94,369.15,1353.8z"></path>
			</g>
			<g id="LWPOLYLINE_7_">
				<path style="fill:none;stroke:#000000;stroke-linecap:round;stroke-linejoin:round;stroke-miterlimit:10;" d="M414.19,1523.32
					c4.55,0,8.25-3.69,8.25-8.25c0-4.56-3.69-8.25-8.25-8.25c-4.56,0-8.25,3.69-8.25,8.25
					C405.95,1519.62,409.64,1523.32,414.19,1523.32z"></path>
			</g>
		</g>
		<g>
			<g id="LWPOLYLINE_6_">
				
					<rect x="576.64" y="550.96" style="fill:none;stroke:#000000;stroke-linecap:round;stroke-linejoin:round;stroke-miterlimit:10;" width="127.01" height="126.86"></rect>
			</g>
			<g id="LWPOLYLINE_5_">
				<polyline style="fill:none;stroke:#000000;stroke-linecap:round;stroke-linejoin:round;stroke-miterlimit:10;" points="
					676.6,586.37 640.14,628.67 640.14,599.95 603.69,642.26 				"></polyline>
			</g>
			<g id="LWPOLYLINE_4_">
				<path style="fill:none;stroke:#000000;stroke-linecap:round;stroke-linejoin:round;stroke-miterlimit:10;" d="M640.14,582.4
					c-17.62,0-31.91,14.29-31.91,31.91c0,17.62,14.29,31.91,31.91,31.92c17.63,0,31.91-14.29,31.92-31.92
					C672.06,596.68,657.77,582.4,640.14,582.4z"></path>
			</g>
		</g>
		<g>
			<g id="LWPOLYLINE_3_">
				<path style="fill:none;stroke:#000000;stroke-linecap:round;stroke-linejoin:round;stroke-miterlimit:10;" d="M668.19,1529.37
					v-73.94c0-19.56,15.86-35.42,35.43-35.43c19.57,0,35.43,15.86,35.43,35.43v73.94"></path>
				
					<line style="fill:none;stroke:#000000;stroke-linecap:round;stroke-linejoin:round;stroke-miterlimit:10;" x1="739.04" y1="1529.37" x2="668.19" y2="1529.37"></line>
			</g>
			<g id="LWPOLYLINE_2_">
				<path style="fill:none;stroke:#000000;stroke-linecap:round;stroke-linejoin:round;stroke-miterlimit:10;" d="M731.96,1455.43
					v24.19c0,15.65-12.69,28.34-28.34,28.34c-15.65,0-28.34-12.69-28.35-28.34l0-24.19c0-15.65,12.69-28.34,28.34-28.34
					C719.26,1427.09,731.95,1439.78,731.96,1455.43z"></path>
			</g>
			<g id="LWPOLYLINE_1_">
				<path style="fill:none;stroke:#000000;stroke-linecap:round;stroke-linejoin:round;stroke-miterlimit:10;" d="M714.24,1469.77
					v12.42c0,5.87-4.76,10.63-10.63,10.63c-5.87,0-10.63-4.76-10.63-10.63v-12.42c0-5.87,4.76-10.63,10.63-10.63
					C709.48,1459.15,714.24,1463.91,714.24,1469.77z"></path>
			</g>
		</g>
	</g>
	<g>
		
			<line style="fill:none;stroke:#000000;stroke-linecap:round;stroke-linejoin:round;stroke-miterlimit:10;" x1="1859.63" y1="556.87" x2="1859.63" y2="879.96"></line>
		
			<line style="fill:none;stroke:#000000;stroke-linecap:round;stroke-linejoin:round;stroke-miterlimit:10;" x1="1787.46" y1="555.86" x2="1787.46" y2="880.97"></line>
		
			<line style="fill:none;stroke:#000000;stroke-linecap:round;stroke-linejoin:round;stroke-miterlimit:10;" x1="1899.33" y1="556.87" x2="1899.33" y2="880.97"></line>
		
			<line style="fill:none;stroke:#000000;stroke-linecap:round;stroke-linejoin:round;stroke-miterlimit:10;" x1="1872.33" y1="556.87" x2="1872.33" y2="880.97"></line>
		
			<line style="fill:none;stroke:#000000;stroke-linecap:round;stroke-linejoin:round;stroke-miterlimit:10;" x1="1859.63" y1="672.22" x2="1872.33" y2="672.22"></line>
		
			<line style="fill:none;stroke:#000000;stroke-linecap:round;stroke-linejoin:round;stroke-miterlimit:10;" x1="1859.63" y1="688.1" x2="1872.33" y2="688.1"></line>
		
			<line style="fill:none;stroke:#000000;stroke-linecap:round;stroke-linejoin:round;stroke-miterlimit:10;" x1="1859.63" y1="868.4" x2="1872.33" y2="868.4"></line>
		
			<line style="fill:none;stroke:#000000;stroke-linecap:round;stroke-linejoin:round;stroke-miterlimit:10;" x1="1859.68" y1="565.7" x2="1872.38" y2="565.7"></line>
		
			<line style="fill:none;stroke:#000000;stroke-linecap:round;stroke-linejoin:round;stroke-miterlimit:10;" x1="1865.83" y1="565.7" x2="1865.83" y2="672.22"></line>
		
			<line style="fill:none;stroke:#000000;stroke-linecap:round;stroke-linejoin:round;stroke-miterlimit:10;" x1="1865.88" y1="688.1" x2="1865.88" y2="868.4"></line>
		<g>
			<path style="fill:none;stroke:#000000;stroke-linecap:round;stroke-linejoin:round;stroke-miterlimit:10;" d="M1859.91,688.1
				c-40.38,0-76.29,19.84-103.7,54.27"></path>
			
				<line style="fill:none;stroke:#000000;stroke-linecap:round;stroke-linejoin:round;stroke-miterlimit:10;" x1="1859.91" y1="876.33" x2="1756.21" y2="742.37"></line>
		</g>
	</g>
	<g>
		
			<line style="fill:none;stroke:#000000;stroke-linecap:round;stroke-linejoin:round;stroke-miterlimit:10;" x1="1859.63" y1="1128.73" x2="1859.63" y2="1515"></line>
		
			<line style="fill:none;stroke:#000000;stroke-linecap:round;stroke-linejoin:round;stroke-miterlimit:10;" x1="1829.79" y1="1127.72" x2="1829.79" y2="1516.01"></line>
		
			<line style="fill:none;stroke:#000000;stroke-linecap:round;stroke-linejoin:round;stroke-miterlimit:10;" x1="1899.33" y1="1128.73" x2="1899.33" y2="1516.01"></line>
		
			<line style="fill:none;stroke:#000000;stroke-linecap:round;stroke-linejoin:round;stroke-miterlimit:10;" x1="1872.33" y1="1128.73" x2="1872.33" y2="1516.01"></line>
		
			<line style="fill:none;stroke:#000000;stroke-linecap:round;stroke-linejoin:round;stroke-miterlimit:10;" x1="1859.63" y1="1266.91" x2="1872.33" y2="1266.91"></line>
		
			<line style="fill:none;stroke:#000000;stroke-linecap:round;stroke-linejoin:round;stroke-miterlimit:10;" x1="1859.63" y1="1282.78" x2="1872.33" y2="1282.78"></line>
		
			<line style="fill:none;stroke:#000000;stroke-linecap:round;stroke-linejoin:round;stroke-miterlimit:10;" x1="1859.63" y1="1501.68" x2="1872.33" y2="1501.68"></line>
		
			<line style="fill:none;stroke:#000000;stroke-linecap:round;stroke-linejoin:round;stroke-miterlimit:10;" x1="1859.68" y1="1139.9" x2="1872.38" y2="1139.9"></line>
		
			<line style="fill:none;stroke:#000000;stroke-linecap:round;stroke-linejoin:round;stroke-miterlimit:10;" x1="1865.83" y1="1139.9" x2="1865.83" y2="1266.91"></line>
		
			<line style="fill:none;stroke:#000000;stroke-linecap:round;stroke-linejoin:round;stroke-miterlimit:10;" x1="1865.88" y1="1282.78" x2="1865.88" y2="1501.68"></line>
	</g>
	
		<line style="fill:none;stroke:#000000;stroke-linecap:round;stroke-linejoin:round;stroke-miterlimit:10;stroke-dasharray:10,10;" x1="583.02" y1="848.65" x2="399.46" y2="848.65"></line>
	
		<line style="fill:none;stroke:#000000;stroke-linecap:round;stroke-linejoin:round;stroke-miterlimit:10;stroke-dasharray:10,10;" x1="712.12" y1="1088.12" x2="712.12" y2="859.23"></line>
	
		<line style="fill:none;stroke:#000000;stroke-linecap:round;stroke-linejoin:round;stroke-miterlimit:10;stroke-dasharray:10,10;" x1="1080.44" y1="1470.49" x2="1080.44" y2="1263.41"></line>
</g>
</svg>
