<?xml version="1.0" encoding="utf-8"?>
<!-- Generator: Adobe Illustrator 24.1.2, SVG Export Plug-In . SVG Version: 6.00 Build 0)  -->
<svg version="1.0" id="Layer_1" xmlns="http://www.w3.org/2000/svg" xmlns:xlink="http://www.w3.org/1999/xlink" x="0px" y="0px" width="2000px" height="2000px" viewBox="0 0 2000 2000" style="enable-background:new 0 0 2000 2000;" xml:space="preserve">
<path id="backgroynd" style="fill:#FFFFFF;" d="M1899.99,986.23v142.1c0.28,0,0.5,0.22,0.5,0.5v387.56c0,0.28-0.22,0.5-0.5,0.5
	c0,0,0,0-0.01,0v100.51h0.02v46.6l-1622.37,0.1v-40.52v-6.08v-398.78v-2.69v-134.48h20.04c0,0,0,0,0,0l0-11.36
	C188.21,1069.04,99.5,980.12,99.5,870.97c0-0.13,0.05-0.26,0.15-0.35s0.22-0.15,0.35-0.15l197.67,0v-11.34c0,0,0,0,0,0h-20.04
	V424.86v-8.47v-52.96H609.9v-27.54h1290.09v42.23v4.37v173.55c0.28,0,0.5,0.22,0.5,0.5v324.33c0,0.28-0.22,0.5-0.5,0.5v100.49
	V986.23z"></path>
<g id="g1">
	<path id="g1_path" style="fill:none;" d="M800.89,1641.15l-0.12-426.14h279.62l0.11,426.14H800.89z"></path>
	<text id="g1_text" transform="matrix(1 0 0 1 942.6675 1407.807)" style="font-family: GraphikLCG-Regular; font-size: 40px; text-anchor: middle; text-align: center;"></text>
</g>
<g id="g2">
	<path id="g2_path" style="fill:none;" d="M299.99,848.53l-0.18-473.64h411.58l0.16,473.64H299.99z"></path>
	<text id="g2_text" transform="matrix(1 0 0 1 464.5072 707.1961)" style="font-family: GraphikLCG-Regular; font-size: 40px; text-anchor: middle; text-align: center;"></text>
</g>
<g id="s1">
	<path id="s1_path" style="fill:none;" d="M301.39,1647.35l-0.22-424.85h501.68l0.92,425.16L301.39,1647.35z"></path>
	<text id="s1_text" transform="matrix(1 0 0 1 563.6705 1397.2152)" style="font-family: GraphikLCG-Regular; font-size: 40px; text-anchor: middle; text-align: center;"></text>
</g>
<g id="h1">
	<path id="h1_path" style="fill:none;" d="M308.27,1093.61V848.53H711.9v374.95H308.27V1093.61L308.27,1093.61z"></path>
	<text id="h1_text" transform="matrix(1 0 0 1 468.527 1007.6025)" style="font-family: GraphikLCG-Regular; font-size: 40px; text-anchor: middle; text-align: center;"></text>
</g>
<g id="r1">
	<path id="r1_path" style="fill:none;" d="M1080.49,1641.15V949.03h187.98v-0.26h599.37v692.38H1080.49z"></path>
	
		<text id="r1_text" transform="matrix(1 0 0 1 1239.4963 1353.1744)" style="font-family: GraphikLCG-Regular; font-size: 40px; text-anchor: middle; text-align: center;"></text>
</g>
<g id="c1">
	<path id="c1_path" style="fill:none;" d="M711.9,358.46h1155.89l0.06,257.25h-0.07l0.07,333.06H1520l0,0h-437.57v266.24H711.9
		V358.46z"></path>
	<text id="c1_text" transform="matrix(1 0 0 1 1326.5713 685.7686)" style="font-family: GraphikLCG-Regular; font-size: 40px; text-anchor: middle; text-align: center;"></text>
</g>
<path id="u3" style="fill:#FFFFFF;stroke:#FFFFFF;stroke-linecap:round;stroke-linejoin:round;stroke-miterlimit:10;" d="
	M532.26,806.3c-10.81,0-19.57-8.76-19.57-19.57s8.76-19.57,19.57-19.57c10.81,0,19.57,8.76,19.57,19.57S543.07,806.3,532.26,806.3z"></path>
<path id="u1" style="fill:#FFFFFF;stroke:#FFFFFF;stroke-linecap:round;stroke-linejoin:round;stroke-miterlimit:10;" d="
	M1149.41,1384.14c-10.81,0-19.57-8.76-19.57-19.57c0-10.81,8.76-19.57,19.57-19.57c10.81,0,19.57,8.76,19.57,19.57
	C1168.98,1375.38,1160.22,1384.14,1149.41,1384.14z"></path>
<g id="mebel">
	<g>
		
			<rect x="815.49" y="1494.48" transform="matrix(-1 -7.623958e-11 7.623958e-11 -1 1887.2662 3111.9844)" style="fill:none;stroke:#000000;stroke-linecap:round;stroke-linejoin:round;stroke-miterlimit:10;" width="256.29" height="123.02"></rect>
		
			<rect x="815.49" y="1494.48" transform="matrix(-1 -7.612590e-11 7.612590e-11 -1 1887.2662 2993.1448)" style="fill:none;stroke:#000000;stroke-linecap:round;stroke-linejoin:round;stroke-miterlimit:10;" width="256.29" height="4.18"></rect>
	</g>
	<g>
		
			<rect x="320.61" y="424.86" style="fill:none;stroke:#000000;stroke-linecap:round;stroke-linejoin:round;stroke-miterlimit:10;" width="255.72" height="125.83"></rect>
		
			<rect x="320.61" y="546.51" style="fill:none;stroke:#000000;stroke-linecap:round;stroke-linejoin:round;stroke-miterlimit:10;" width="255.72" height="4.18"></rect>
	</g>
	<g>
		
			<rect x="218.29" y="653.01" transform="matrix(8.291951e-11 -1 1 8.291951e-11 -332.399 1058.3479)" style="fill:none;stroke:#000000;stroke-linecap:round;stroke-linejoin:round;stroke-miterlimit:10;" width="289.37" height="84.73"></rect>
		
			<rect x="258.57" y="693.28" transform="matrix(8.281915e-11 -1 1 8.281915e-11 -292.1202 1098.6266)" style="fill:none;stroke:#000000;stroke-linecap:round;stroke-linejoin:round;stroke-miterlimit:10;" width="289.37" height="4.18"></rect>
	</g>
	<g>
		
			<rect x="558.63" y="695.26" transform="matrix(-4.248531e-11 1 -1 -4.248531e-11 1398.6902 118.9416)" style="fill:none;stroke:#000000;stroke-linecap:round;stroke-linejoin:round;stroke-miterlimit:10;" width="162.48" height="127.1"></rect>
		
			<rect x="497.17" y="756.73" transform="matrix(-4.230590e-11 1 -1 -4.230590e-11 1337.2278 180.404)" style="fill:none;stroke:#000000;stroke-linecap:round;stroke-linejoin:round;stroke-miterlimit:10;" width="162.48" height="4.18"></rect>
	</g>
	<g>
		<g>
			<path style="fill:none;stroke:#000000;stroke-linecap:round;stroke-linejoin:round;stroke-miterlimit:10;" d="M1451.7,890.93
				l-143.54-0.18c-0.42,0-0.76,0.34-0.76,0.76l-0.06,46.8c0,0.42,0.34,0.76,0.76,0.76l143.54,0.18c0.42,0,0.76-0.34,0.76-0.76
				l0.06-46.8C1452.45,891.27,1452.11,890.93,1451.7,890.93z"></path>
			<path style="fill:none;stroke:#000000;stroke-linecap:round;stroke-linejoin:round;stroke-miterlimit:10;" d="M1451.7,890.93
				l-143.54-0.18c-0.42,0-0.76-0.34-0.76-0.76l0.15-121.54c0-0.42,0.34-0.76,0.76-0.76l143.54,0.18c0.42,0,0.76,0.34,0.76,0.76
				l-0.15,121.54C1452.45,890.59,1452.11,890.93,1451.7,890.93z"></path>
			<path style="fill:none;stroke:#000000;stroke-linecap:round;stroke-linejoin:round;stroke-miterlimit:10;" d="M1596.75,891.11
				l-143.54-0.18c-0.42,0-0.76,0.34-0.76,0.76l-0.06,46.8c0,0.42,0.34,0.76,0.76,0.76l143.54,0.18c0.42,0,0.76-0.34,0.76-0.76
				l0.06-46.8C1597.51,891.45,1597.17,891.11,1596.75,891.11z"></path>
			<path style="fill:none;stroke:#000000;stroke-linecap:round;stroke-linejoin:round;stroke-miterlimit:10;" d="M1596.75,891.11
				l-143.54-0.18c-0.42,0-0.76-0.34-0.76-0.76l0.15-121.54c0-0.42,0.34-0.76,0.76-0.76l143.54,0.18c0.42,0,0.76,0.34,0.76,0.76
				l-0.15,121.54C1597.51,890.77,1597.17,891.11,1596.75,891.11z"></path>
			<path style="fill:none;stroke:#000000;stroke-linecap:round;stroke-linejoin:round;stroke-miterlimit:10;" d="M1751.48,891.31
				l-153.21-0.19c-0.42,0-0.76,0.34-0.76,0.76l-0.06,46.8c0,0.42,0.34,0.76,0.76,0.76l153.21,0.19c0.42,0,0.76-0.34,0.76-0.76
				l0.06-46.8C1752.23,891.65,1751.9,891.31,1751.48,891.31z"></path>
			<path style="fill:none;stroke:#000000;stroke-linecap:round;stroke-linejoin:round;stroke-miterlimit:10;" d="M1751.48,891.31
				l-153.21-0.19c-0.42,0-0.76-0.34-0.76-0.76l0.3-235.24c0-0.42,0.34-0.76,0.76-0.76l153.21,0.19c0.42,0,0.76,0.34,0.76,0.76
				l-0.3,235.24C1752.24,890.97,1751.9,891.31,1751.48,891.31z"></path>
		</g>
	</g>
	<g>
		<path style="fill:none;stroke:#000000;stroke-linecap:round;stroke-linejoin:round;stroke-miterlimit:10;" d="M1645.4,846.74
			c5.36-7.86,9.46-16.52,12.12-25.66l1.24-4.25c0.56-1.9,2.8-2.71,4.44-1.59l3.66,2.5c6.2,4.23,12.72,7.94,19.48,11.13
			c0.8-6.21,2.01-12.37,3.72-18.41l0-0.01c0.95-3.34-1.64-6.63-5.11-6.5l-0.01,0c-13.31,0.52-26.62-1.07-39.43-4.7l-0.01,0
			c-3.34-0.95-6.63,1.64-6.49,5.11l0,0.01c0.51,13.31-1.07,26.63-4.7,39.45l0,0.01c-0.95,3.34,1.64,6.63,5.11,6.5l0.01,0
			c1.17-0.05,2.35,0.02,3.52,0L1645.4,846.74z"></path>
		<path style="fill:none;stroke:#000000;stroke-linecap:round;stroke-linejoin:round;stroke-miterlimit:10;" d="M1692.27,877.43
			l-3.66-2.5c-12.22-8.34-25.67-14.71-39.87-18.86l-4.25-1.24c-1.9-0.56-2.71-2.81-1.59-4.44l2.5-3.66
			c5.36-7.86,9.46-16.52,12.12-25.66l1.24-4.25c0.56-1.9,2.8-2.71,4.44-1.59l3.66,2.5c12.22,8.34,25.67,14.71,39.87,18.86l4.25,1.24
			c1.9,0.56,2.71,2.81,1.59,4.44l-2.5,3.66c-5.36,7.86-9.46,16.52-12.12,25.66l-1.24,4.25
			C1696.16,877.74,1693.91,878.55,1692.27,877.43z"></path>
	</g>
	<g>
		<path style="fill:none;stroke:#000000;stroke-linecap:round;stroke-linejoin:round;stroke-miterlimit:10;" d="M1414.95,846.16
			c-5.32-7.89-9.37-16.57-11.99-25.72l-1.22-4.26c-0.55-1.9-2.79-2.72-4.43-1.61l-3.67,2.48c-6.22,4.2-12.76,7.88-19.54,11.03
			c-0.77-6.21-1.95-12.38-3.63-18.43l0-0.01c-0.93-3.34,1.68-6.62,5.14-6.47l0.01,0c13.31,0.58,26.62-0.94,39.45-4.5l0.01,0
			c3.34-0.93,6.62,1.68,6.47,5.14l0,0.01c-0.58,13.31,0.94,26.63,4.5,39.47l0,0.01c0.93,3.34-1.68,6.62-5.14,6.47l-0.01,0
			c-1.17-0.05-2.35,0-3.52-0.02L1414.95,846.16z"></path>
		<path style="fill:none;stroke:#000000;stroke-linecap:round;stroke-linejoin:round;stroke-miterlimit:10;" d="M1367.92,876.62
			l3.67-2.48c12.26-8.28,25.75-14.58,39.97-18.66l4.25-1.22c1.9-0.55,2.72-2.79,1.61-4.43l-2.48-3.67
			c-5.32-7.89-9.37-16.57-11.99-25.72l-1.22-4.26c-0.55-1.9-2.79-2.72-4.43-1.61l-3.67,2.48c-12.26,8.28-25.75,14.58-39.97,18.66
			l-4.25,1.22c-1.9,0.55-2.72,2.79-1.61,4.43l2.48,3.67c5.32,7.89,9.37,16.57,11.99,25.72l1.22,4.26
			C1364.04,876.91,1366.28,877.73,1367.92,876.62z"></path>
	</g>
	<g>
		<g>
			
				<rect x="1549.2" y="284.83" transform="matrix(2.679493e-10 -1 1 2.679493e-10 1156.1814 1954.2744)" style="fill:none;stroke:#000000;stroke-linecap:round;stroke-linejoin:round;stroke-miterlimit:10;" width="12.05" height="228.44"></rect>
			<polygon style="fill:none;stroke:#000000;stroke-linecap:round;stroke-linejoin:round;stroke-miterlimit:10;" points="
				1640.89,382.49 1669.45,393.02 1441.01,393.02 1469.56,382.49 			"></polygon>
		</g>
		
			<rect x="1533.45" y="277.56" transform="matrix(2.649179e-10 -1 1 2.649179e-10 1150.9553 1960.2738)" style="fill:none;stroke:#000000;stroke-linecap:round;stroke-linejoin:round;stroke-miterlimit:10;" width="44.34" height="254.2"></rect>
	</g>
	
		<rect x="1434.15" y="604.48" transform="matrix(1.340759e-10 -1 1 1.340759e-10 798.1855 2155.4297)" style="fill:none;stroke:#000000;stroke-linecap:round;stroke-linejoin:round;stroke-miterlimit:10;" width="85.32" height="148.29"></rect>
	<g>
		<polygon style="fill:none;stroke:#000000;stroke-linecap:round;stroke-linejoin:round;stroke-miterlimit:10;" points="
			1452.79,696.12 1448.41,698.5 1430.47,665.38 1435.98,662.39 1431.05,659.39 1416.48,683.34 1448.65,702.92 		"></polygon>
		
			<line style="fill:none;stroke:#000000;stroke-linecap:round;stroke-linejoin:round;stroke-miterlimit:10;" x1="1455.14" y1="694.85" x2="1461.92" y2="701.01"></line>
		
			<line style="fill:none;stroke:#000000;stroke-linecap:round;stroke-linejoin:round;stroke-miterlimit:10;" x1="1417.62" y1="681.47" x2="1449.79" y2="701.05"></line>
		<g>
			<polygon style="fill:none;stroke:#000000;stroke-linecap:round;stroke-linejoin:round;stroke-miterlimit:10;" points="
				1473.06,685.15 1453.1,695.96 1460.44,702.63 1479.29,681.89 1463.53,667.56 			"></polygon>
			<polygon style="fill:none;stroke:#000000;stroke-linecap:round;stroke-linejoin:round;stroke-miterlimit:10;" points="
				1435.3,674.29 1432.57,677.3 1441.15,685.1 			"></polygon>
		</g>
		
			<rect x="1432.93" y="661.25" transform="matrix(0.4763 0.8793 -0.8793 0.4763 1354.0085 -922.8732)" style="fill:none;stroke:#000000;stroke-linecap:round;stroke-linejoin:round;stroke-miterlimit:10;" width="37.67" height="28.03"></rect>
		
			<line style="fill:none;stroke:#000000;stroke-linecap:round;stroke-linejoin:round;stroke-miterlimit:10;" x1="1432.39" y1="664.33" x2="1450.33" y2="697.45"></line>
	</g>
	<g>
		<path style="fill:none;stroke:#000000;stroke-linecap:round;stroke-linejoin:round;stroke-miterlimit:10;" d="M1512.57,692.06
			l-7.68-4.12c-0.64-0.34-0.88-1.14-0.54-1.78l5.08-9.48c0.34-0.64,1.14-0.88,1.78-0.54l7.68,4.12c0.39,0.21,0.54,0.7,0.33,1.09
			l-5.56,10.37C1513.44,692.13,1512.96,692.27,1512.57,692.06z"></path>
		
			<line style="fill:none;stroke:#000000;stroke-linecap:round;stroke-linejoin:round;stroke-miterlimit:10;" x1="1508.5" y1="689.89" x2="1514.82" y2="678.1"></line>
		<path style="fill:none;stroke:#000000;stroke-linecap:round;stroke-linejoin:round;stroke-miterlimit:10;" d="M1514.31,694.54
			l1.29,8.62c0.11,0.72,0.77,1.21,1.49,1.1l10.63-1.59c0.72-0.11,1.21-0.77,1.1-1.49l-1.29-8.62c-0.07-0.44-0.47-0.74-0.91-0.68
			l-11.64,1.74C1514.54,693.69,1514.24,694.1,1514.31,694.54z"></path>
		
			<line style="fill:none;stroke:#000000;stroke-linecap:round;stroke-linejoin:round;stroke-miterlimit:10;" x1="1514.99" y1="699.1" x2="1528.22" y2="697.12"></line>
		<path style="fill:none;stroke:#000000;stroke-linecap:round;stroke-linejoin:round;stroke-miterlimit:10;" d="M1531.32,695.95
			c-0.99,0.51-2.02,0.87-3.06,1.1"></path>
		<path style="fill:none;stroke:#000000;stroke-linecap:round;stroke-linejoin:round;stroke-miterlimit:10;" d="M1514.87,678.13
			c0.58-0.93,1.28-1.8,2.11-2.58"></path>
		<g>
			<path style="fill:none;stroke:#000000;stroke-linecap:round;stroke-linejoin:round;stroke-miterlimit:10;" d="M1531.38,696.06
				c-0.57-0.8-0.37-1.92,0.43-2.48c4.87-3.43,6.04-10.19,2.61-15.06c-3.43-4.87-10.19-6.04-15.06-2.61
				c-0.8,0.57-1.92,0.37-2.48-0.43c-0.57-0.8-0.37-1.92,0.43-2.48c6.48-4.56,15.46-3.01,20.03,3.47c4.56,6.48,3.01,15.46-3.47,20.03
				C1533.06,697.06,1531.95,696.86,1531.38,696.06z"></path>
		</g>
	</g>
	<g>
		<path style="fill:none;stroke:#000000;stroke-linecap:round;stroke-linejoin:round;stroke-miterlimit:10;" d="M1066.61,718.24
			l-25.34,19.26c-20.32,15.44-49,13.15-66.62-5.32l-2-2.1c-17.63-18.48-18.54-47.27-2.13-66.83l5.62-6.7l0,0l14.79-17.62
			c4.09,18.25,12.91,35.68,26.76,50.2C1031.54,703.65,1048.55,713.29,1066.61,718.24z"></path>
		<path style="fill:none;stroke:#000000;stroke-linecap:round;stroke-linejoin:round;stroke-miterlimit:10;" d="M972.65,730.07
			l2,2.1c17.62,18.47,46.3,20.76,66.62,5.32l7.01-5.33c2.94-2.23,7.08-1.9,9.63,0.77c2.98,3.13,2.58,8.16-0.86,10.77l-7.18,5.46
			c-26.03,19.78-62.76,16.85-85.32-6.81l-2.57-2.69c-22.58-23.67-23.75-60.53-2.72-85.59l5.75-6.86c2.78-3.31,7.82-3.47,10.81-0.34
			c2.55,2.67,2.68,6.84,0.31,9.67l-5.62,6.7C954.1,682.81,955.02,711.59,972.65,730.07z"></path>
		<polygon style="fill:none;stroke:#000000;stroke-linecap:round;stroke-linejoin:round;stroke-miterlimit:10;" points="
			970.52,663.24 976.14,656.54 976.14,656.54 		"></polygon>
		<path style="fill:none;stroke:#000000;stroke-linecap:round;stroke-linejoin:round;stroke-miterlimit:10;" d="M1122.33,512.67
			l29.96-22.77c20.32-15.44,49-13.15,66.62,5.32l2,2.1c17.63,18.48,18.55,47.27,2.13,66.83l-5.62,6.7l0,0l-18.54,22.09
			c-4.01-18.53-12.88-36.24-26.92-50.97C1157.92,527.26,1140.65,517.55,1122.33,512.67z"></path>
		<path style="fill:none;stroke:#000000;stroke-linecap:round;stroke-linejoin:round;stroke-miterlimit:10;" d="M1220.92,497.32
			l-2-2.1c-17.62-18.47-46.3-20.76-66.62-5.32l-7.01,5.33c-2.94,2.23-7.08,1.9-9.63-0.77c-2.98-3.13-2.58-8.16,0.86-10.77l7.18-5.45
			c26.03-19.78,62.76-16.85,85.32,6.81l2.56,2.69c22.58,23.67,23.75,60.53,2.72,85.59l-5.75,6.86c-2.78,3.31-7.82,3.47-10.81,0.34
			l0,0c-2.55-2.67-2.68-6.84-0.31-9.67l5.62-6.7C1239.46,544.59,1238.55,515.81,1220.92,497.32z"></path>
		<polygon style="fill:none;stroke:#000000;stroke-linecap:round;stroke-linejoin:round;stroke-miterlimit:10;" points="
			1223.05,564.16 1217.43,570.85 1217.43,570.85 		"></polygon>
		<path style="fill:none;stroke:#000000;stroke-linecap:round;stroke-linejoin:round;stroke-miterlimit:10;" d="M978.2,495.37l2.1-2
			c18.48-17.63,47.27-18.54,66.83-2.13l6.7,5.62l0,0l17.62,14.79c-18.25,4.09-35.68,12.91-50.2,26.76
			c-14.53,13.86-24.17,30.87-29.12,48.93L972.88,562C957.44,541.67,959.73,512.99,978.2,495.37z"></path>
		<path style="fill:none;stroke:#000000;stroke-linecap:round;stroke-linejoin:round;stroke-miterlimit:10;" d="M1056.3,479.99
			l6.86,5.75c3.31,2.78,3.47,7.82,0.34,10.81c-2.68,2.55-6.84,2.68-9.67,0.31l-6.7-5.62c-19.57-16.42-48.35-15.5-66.83,2.13l-2.1,2
			c-18.47,17.62-20.76,46.3-5.32,66.62l5.33,7.01c2.23,2.94,1.9,7.08-0.77,9.63c-3.13,2.98-8.16,2.58-10.77-0.86l-5.46-7.18
			c-19.78-26.03-16.85-62.76,6.81-85.32l2.69-2.56C994.38,460.14,1031.24,458.97,1056.3,479.99z"></path>
		<polygon style="fill:none;stroke:#000000;stroke-linecap:round;stroke-linejoin:round;stroke-miterlimit:10;" points="
			1047.13,491.25 1053.83,496.86 1053.83,496.86 		"></polygon>
		<path style="fill:none;stroke:#000000;stroke-linecap:round;stroke-linejoin:round;stroke-miterlimit:10;" d="M1197.66,643.23
			l21.83,28.73c15.44,20.32,13.15,49.01-5.32,66.62l-2.1,2c-18.48,17.63-47.27,18.54-66.83,2.13l-6.7-5.62l0,0l-20.89-17.53
			c18.45-4.03,36.08-12.89,50.74-26.87C1183.07,678.69,1192.76,661.48,1197.66,643.23z"></path>
		<path style="fill:none;stroke:#000000;stroke-linecap:round;stroke-linejoin:round;stroke-miterlimit:10;" d="M1212.07,740.58
			l2.1-2c18.47-17.62,20.76-46.3,5.32-66.62l-5.33-7.01c-2.23-2.94-1.9-7.08,0.77-9.63c3.13-2.98,8.16-2.58,10.77,0.86l5.45,7.18
			c19.78,26.03,16.85,62.76-6.81,85.32l-2.69,2.57c-23.67,22.58-60.53,23.75-85.59,2.72l-6.86-5.75c-3.31-2.78-3.47-7.82-0.34-10.81
			c2.68-2.55,6.84-2.68,9.67-0.31l6.7,5.62C1164.81,759.13,1193.59,758.21,1212.07,740.58z"></path>
		<polygon style="fill:none;stroke:#000000;stroke-linecap:round;stroke-linejoin:round;stroke-miterlimit:10;" points="
			1145.24,742.71 1138.54,737.09 1138.54,737.09 		"></polygon>
		
			<circle style="fill:none;stroke:#000000;stroke-linecap:round;stroke-linejoin:round;stroke-miterlimit:10;" cx="1094.86" cy="615.55" r="106.62"></circle>
	</g>
	<g>
		<g>
			
				<circle style="fill:none;stroke:#000000;stroke-linecap:round;stroke-linejoin:round;stroke-miterlimit:10;" cx="1056.29" cy="567.28" r="27.07"></circle>
		</g>
		<g>
			
				<circle style="fill:none;stroke:#000000;stroke-linecap:round;stroke-linejoin:round;stroke-miterlimit:10;" cx="1056.29" cy="567.28" r="15.41"></circle>
		</g>
		<g>
			
				<ellipse transform="matrix(0.7134 -0.7008 0.7008 0.7134 -136.1419 898.4331)" style="fill:none;stroke:#000000;stroke-linecap:round;stroke-linejoin:round;stroke-miterlimit:10;" cx="1030.21" cy="615.64" rx="4.19" ry="6.81"></ellipse>
			
				<line style="fill:none;stroke:#000000;stroke-linecap:round;stroke-linejoin:round;stroke-miterlimit:10;" x1="1025.43" y1="610.78" x2="1004.53" y2="589.51"></line>
		</g>
		<g>
			<path style="fill:none;stroke:#000000;stroke-linecap:round;stroke-linejoin:round;stroke-miterlimit:10;" d="M1103.95,552.75
				l-4.78-4.86c-2.64-2.68-6.11-3.55-7.77-1.92c-1.65,1.62-0.85,5.11,1.78,7.8l4.78,4.86"></path>
			
				<line style="fill:none;stroke:#000000;stroke-linecap:round;stroke-linejoin:round;stroke-miterlimit:10;" x1="1091.4" y1="545.97" x2="1070.51" y2="524.7"></line>
		</g>
		
			<line style="fill:none;stroke:#000000;stroke-linecap:round;stroke-linejoin:round;stroke-miterlimit:10;" x1="1100.95" y1="555.69" x2="1091.4" y2="545.97"></line>
		<g>
			<path style="fill:none;stroke:#000000;stroke-linecap:round;stroke-linejoin:round;stroke-miterlimit:10;" d="M1024.68,595.28
				l4.64-4.56l17.67,17.99l-4.07,4c-0.31,0.31-0.82,0.3-1.13-0.01L1024.68,595.28z"></path>
			<path style="fill:none;stroke:#000000;stroke-linecap:round;stroke-linejoin:round;stroke-miterlimit:10;" d="M1012.19,581.99
				l4.07-4c0.16-0.15,0.41-0.15,0.56,0.01l12.49,12.72l-4.64,4.56l-12.49-12.72C1012.03,582.4,1012.03,582.15,1012.19,581.99z"></path>
		</g>
	</g>
	<g>
		<g>
			
				<circle style="fill:none;stroke:#000000;stroke-linecap:round;stroke-linejoin:round;stroke-miterlimit:10;" cx="1139.9" cy="654.94" r="27.07"></circle>
		</g>
		<g>
			
				<circle style="fill:none;stroke:#000000;stroke-linecap:round;stroke-linejoin:round;stroke-miterlimit:10;" cx="1139.9" cy="654.94" r="15.41"></circle>
		</g>
		<g>
			
				<ellipse transform="matrix(0.7153 -0.6988 0.6988 0.7153 -164.6036 956.0168)" style="fill:none;stroke:#000000;stroke-linecap:round;stroke-linejoin:round;stroke-miterlimit:10;" cx="1091.02" cy="680.03" rx="4.19" ry="6.81"></ellipse>
			
				<line style="fill:none;stroke:#000000;stroke-linecap:round;stroke-linejoin:round;stroke-miterlimit:10;" x1="1095.78" y1="684.9" x2="1116.62" y2="706.23"></line>
		</g>
		<g>
			<path style="fill:none;stroke:#000000;stroke-linecap:round;stroke-linejoin:round;stroke-miterlimit:10;" d="M1155.41,607.59
				l4.76,4.87c2.63,2.69,3.42,6.19,1.76,7.8c-1.66,1.62-5.13,0.75-7.76-1.94l-4.76-4.87"></path>
			
				<line style="fill:none;stroke:#000000;stroke-linecap:round;stroke-linejoin:round;stroke-miterlimit:10;" x1="1161.93" y1="620.27" x2="1182.77" y2="641.6"></line>
		</g>
		
			<line style="fill:none;stroke:#000000;stroke-linecap:round;stroke-linejoin:round;stroke-miterlimit:10;" x1="1152.41" y1="610.52" x2="1161.93" y2="620.27"></line>
		<g>
			<path style="fill:none;stroke:#000000;stroke-linecap:round;stroke-linejoin:round;stroke-miterlimit:10;" d="M1111.27,685.97
				l4.66-4.55l-17.62-18.04l-4.09,3.99c-0.32,0.31-0.32,0.81-0.01,1.13L1111.27,685.97z"></path>
			<path style="fill:none;stroke:#000000;stroke-linecap:round;stroke-linejoin:round;stroke-miterlimit:10;" d="M1124.29,698.73
				l4.09-3.99c0.16-0.15,0.16-0.41,0.01-0.56l-12.46-12.75l-4.66,4.55l12.46,12.75C1123.88,698.88,1124.13,698.89,1124.29,698.73z"></path>
		</g>
	</g>
	<g>
		<polygon style="fill:none;stroke:#000000;stroke-linecap:round;stroke-linejoin:round;stroke-miterlimit:10;" points="
			1072.01,1206.76 944.68,1206.76 944.68,1081.8 1072.01,1081.78 		"></polygon>
		<g>
			
				<line style="fill:none;stroke:#000000;stroke-linecap:round;stroke-linejoin:round;stroke-miterlimit:10;" x1="1014.61" y1="1114.05" x2="1014.61" y2="1168.93"></line>
			
				<line style="fill:none;stroke:#000000;stroke-linecap:round;stroke-linejoin:round;stroke-miterlimit:10;" x1="1043.65" y1="1141.49" x2="985.57" y2="1141.49"></line>
			<polyline style="fill:none;stroke:#000000;stroke-linecap:round;stroke-linejoin:round;stroke-miterlimit:10;" points="
				1029.13,1120.15 1014.61,1127.77 1000.09,1120.15 			"></polyline>
			<polyline style="fill:none;stroke:#000000;stroke-linecap:round;stroke-linejoin:round;stroke-miterlimit:10;" points="
				992.02,1127.77 1000.09,1141.49 992.02,1155.21 			"></polyline>
			<polyline style="fill:none;stroke:#000000;stroke-linecap:round;stroke-linejoin:round;stroke-miterlimit:10;" points="
				1000.09,1162.83 1014.61,1155.21 1029.13,1162.83 			"></polyline>
			<polyline style="fill:none;stroke:#000000;stroke-linecap:round;stroke-linejoin:round;stroke-miterlimit:10;" points="
				1037.19,1155.21 1029.13,1141.49 1037.19,1127.77 			"></polyline>
		</g>
	</g>
	<g>
		<polygon style="fill:none;stroke:#000000;stroke-linecap:round;stroke-linejoin:round;stroke-miterlimit:10;" points="
			845.35,605.99 845.35,507.31 720.38,507.31 720.37,605.99 		"></polygon>
		<path style="fill:none;stroke:#000000;stroke-linecap:round;stroke-linejoin:round;stroke-miterlimit:10;" d="M763.61,559.72
			l29.43-12.92c1.8-0.7,3.78-1.09,5.86-1.09c8.35,0,15.12,6.27,15.12,14.01c0,7.74-6.77,14.01-15.12,14.01
			c-2.08,0-4.06-0.39-5.86-1.09L763.61,559.72z"></path>
	</g>
	<g>
		<g>
			<path style="fill:#FFFFFF;stroke:#000000;stroke-linecap:round;stroke-linejoin:round;stroke-miterlimit:10;" d="M895.1,1136.2
				l0.56-0.81c0.91-1.32,1.35-2.86,1.52-4.45c0.13-1.18,0.69-2.32,1.71-3.17c1.5-1.26,3.7-1.47,5.4-0.51
				c2.77,1.57,3.26,5.15,1.28,7.4c-0.74,0.84-1.7,1.35-2.72,1.54c-1.49,0.27-2.85,1.01-3.97,2.02l-0.74,0.66
				c-1,0.9-1,2.47,0.01,3.36l2.83,2.5c1.55,1.37,1.7,3.73,0.33,5.28l-18.77,21.3c-1.37,1.55-3.73,1.7-5.28,0.33l-12.06-10.63
				c-1.55-1.37-1.7-3.73-0.33-5.28l18.77-21.3c1.37-1.55,3.73-1.7,5.28-0.33l2.83,2.5C892.77,1137.5,894.33,1137.31,895.1,1136.2z"></path>
			
				<circle style="fill:#FFFFFF;stroke:#000000;stroke-linecap:round;stroke-linejoin:round;stroke-miterlimit:10;" cx="901.9" cy="1131.55" r="2.34"></circle>
		</g>
		<g>
			<path style="fill:#FFFFFF;stroke:#000000;stroke-linecap:round;stroke-linejoin:round;stroke-miterlimit:10;" d="M888.44,1151.35
				l5.97-2.01c0.36-0.12,0.55-0.51,0.43-0.87l-2.93-8.71c-0.12-0.36-0.51-0.55-0.87-0.43l-5.97,2.01c-0.36,0.12-0.55,0.51-0.43,0.87
				l2.93,8.71C887.69,1151.28,888.08,1151.47,888.44,1151.35z"></path>
			<path style="fill:#FFFFFF;stroke:#000000;stroke-linecap:round;stroke-linejoin:round;stroke-miterlimit:10;" d="M881.81,1158.87
				l5.97-2.01c0.36-0.12,0.55-0.51,0.43-0.87l-2.93-8.71c-0.12-0.36-0.51-0.55-0.87-0.43l-5.97,2.01c-0.36,0.12-0.55,0.51-0.43,0.87
				l2.93,8.71C881.06,1158.79,881.45,1158.99,881.81,1158.87z"></path>
			<path style="fill:#FFFFFF;stroke:#000000;stroke-linecap:round;stroke-linejoin:round;stroke-miterlimit:10;" d="M875.22,1166.34
				l5.97-2.01c0.36-0.12,0.55-0.51,0.43-0.87l-2.93-8.71c-0.12-0.36-0.51-0.55-0.87-0.43l-5.97,2.01c-0.36,0.12-0.55,0.51-0.43,0.87
				l2.93,8.71C874.47,1166.27,874.86,1166.47,875.22,1166.34z"></path>
		</g>
	</g>
	
		<rect x="818.75" y="1080.6" transform="matrix(2.293153e-10 -1 1 2.293153e-10 -263.029 2025.2826)" style="fill:none;stroke:#000000;stroke-linecap:round;stroke-linejoin:round;stroke-miterlimit:10;" width="124.76" height="127.1"></rect>
	
		<rect x="706.59" y="1095.55" transform="matrix(2.070735e-10 -1 1 2.070735e-10 -375.1818 1913.1299)" style="fill:none;stroke:#000000;stroke-linecap:round;stroke-linejoin:round;stroke-miterlimit:10;" width="124.76" height="97.2"></rect>
	
		<rect x="720.6" y="730.93" transform="matrix(-1 -2.070443e-10 2.070443e-10 -1 1565.953 1559.0697)" style="fill:none;stroke:#000000;stroke-linecap:round;stroke-linejoin:round;stroke-miterlimit:10;" width="124.76" height="97.2"></rect>
	<g>
		
			<ellipse style="fill:none;stroke:#000000;stroke-linecap:round;stroke-linejoin:round;stroke-miterlimit:10;" cx="1282.25" cy="1552" rx="7.65" ry="7.76"></ellipse>
		
			<ellipse style="fill:none;stroke:#000000;stroke-linecap:round;stroke-linejoin:round;stroke-miterlimit:10;" cx="1282.25" cy="1552" rx="5.41" ry="5.49"></ellipse>
		
			<line style="fill:none;stroke:#000000;stroke-linecap:round;stroke-linejoin:round;stroke-miterlimit:10;" x1="1278" y1="1557.98" x2="1274.86" y2="1562.42"></line>
		<path style="fill:none;stroke:#000000;stroke-linecap:round;stroke-linejoin:round;stroke-miterlimit:10;" d="M1288.88,1570.63
			c-5.64,2.07-11.57,1.26-16.38-1.58l2.79-3.95c0.61-0.87,0.42-2.07-0.44-2.69c-0.53-0.39-1.19-0.46-1.76-0.25
			c-0.35,0.13-0.66,0.36-0.9,0.69l-2.79,3.94c-2.39-2.13-4.35-4.81-5.51-8.06c-3.66-10.29,1.58-21.64,11.71-25.36
			c10.13-3.72,21.31,1.61,24.97,11.89C1304.25,1555.55,1299.01,1566.91,1288.88,1570.63z"></path>
		<g>
			<polygon style="fill:none;stroke:#000000;stroke-linecap:round;stroke-linejoin:round;stroke-miterlimit:10;" points="
				1255.53,1593.06 1258.62,1595.31 1254.68,1600.89 1251.59,1598.64 			"></polygon>
			<polygon style="fill:none;stroke:#000000;stroke-linecap:round;stroke-linejoin:round;stroke-miterlimit:10;" points="
				1248.5,1596.39 1245.41,1594.14 1249.36,1588.56 1252.44,1590.81 			"></polygon>
		</g>
		<g>
			<path style="fill:none;stroke:#000000;stroke-linecap:round;stroke-linejoin:round;stroke-miterlimit:10;" d="M1264.01,1581.06
				c1.31,1.31,2.38,2.89,3.05,4.77c2.39,6.71-1.03,14.11-7.63,16.53c-3.42,1.26-7.01,0.91-10.02-0.63L1264.01,1581.06z"></path>
			<path style="fill:none;stroke:#000000;stroke-linecap:round;stroke-linejoin:round;stroke-miterlimit:10;" d="M1246.31,1599.48
				c-1.36-1.33-2.48-2.95-3.17-4.87c-2.39-6.71,1.03-14.11,7.63-16.53c3.47-1.27,7.12-0.89,10.15,0.71L1246.31,1599.48z"></path>
		</g>
		<g>
			<path style="fill:none;stroke:#000000;stroke-linecap:round;stroke-linejoin:round;stroke-miterlimit:10;" d="M1273.09,1562.16
				c-0.35,0.13-0.66,0.36-0.9,0.69l-29.65,41.96c-0.61,0.87-0.42,2.07,0.44,2.69c0.85,0.62,2.04,0.43,2.65-0.44l29.65-41.96
				c0.61-0.87,0.42-2.07-0.44-2.69C1274.32,1562.02,1273.66,1561.95,1273.09,1562.16z"></path>
		</g>
	</g>
	<g>
		
			<ellipse transform="matrix(0.3512 -0.9363 0.9363 0.3512 -328.8679 2616.499)" style="fill:none;stroke:#000000;stroke-linecap:round;stroke-linejoin:round;stroke-miterlimit:10;" cx="1723.48" cy="1545.54" rx="7.07" ry="7.18"></ellipse>
		
			<ellipse transform="matrix(0.3512 -0.9363 0.9363 0.3512 -328.8679 2616.499)" style="fill:none;stroke:#000000;stroke-linecap:round;stroke-linejoin:round;stroke-miterlimit:10;" cx="1723.48" cy="1545.54" rx="5" ry="5.08"></ellipse>
		
			<line style="fill:none;stroke:#000000;stroke-linecap:round;stroke-linejoin:round;stroke-miterlimit:10;" x1="1727.28" y1="1551.16" x2="1730.1" y2="1555.32"></line>
		<path style="fill:none;stroke:#000000;stroke-linecap:round;stroke-linejoin:round;stroke-miterlimit:10;" d="M1741.76,1545.85
			c-0.04,5.56-2.67,10.42-6.68,13.67l-2.51-3.7c-0.55-0.81-1.66-1.03-2.47-0.5c-0.51,0.33-0.78,0.88-0.78,1.44
			c0,0.34,0.1,0.69,0.3,1l2.51,3.69c-2.62,1.37-5.58,2.2-8.77,2.15c-10.1-0.17-18.22-8.4-18.15-18.37
			c0.07-9.98,8.31-17.93,18.4-17.76C1733.7,1527.65,1741.83,1535.87,1741.76,1545.85z"></path>
		<g>
			<polygon style="fill:none;stroke:#000000;stroke-linecap:round;stroke-linejoin:round;stroke-miterlimit:10;" points="
				1750.35,1582 1753.31,1580.05 1756.86,1585.28 1753.9,1587.22 			"></polygon>
			<polygon style="fill:none;stroke:#000000;stroke-linecap:round;stroke-linejoin:round;stroke-miterlimit:10;" points="
				1750.95,1589.17 1748,1591.11 1744.45,1585.88 1747.4,1583.94 			"></polygon>
		</g>
		<g>
			<path style="fill:none;stroke:#000000;stroke-linecap:round;stroke-linejoin:round;stroke-miterlimit:10;" d="M1742.72,1570.77
				c1.56-0.71,3.28-1.12,5.11-1.09c6.58,0.11,11.88,5.47,11.83,11.98c-0.02,3.37-1.49,6.36-3.8,8.47L1742.72,1570.77z"></path>
			<path style="fill:none;stroke:#000000;stroke-linecap:round;stroke-linejoin:round;stroke-miterlimit:10;" d="M1752.92,1592.06
				c-1.59,0.75-3.36,1.19-5.25,1.16c-6.58-0.11-11.88-5.47-11.83-11.98c0.02-3.42,1.54-6.45,3.91-8.56L1752.92,1592.06z"></path>
		</g>
		<g>
			<path style="fill:none;stroke:#000000;stroke-linecap:round;stroke-linejoin:round;stroke-miterlimit:10;" d="M1729.31,1556.77
				c0,0.34,0.1,0.69,0.3,1l26.7,39.29c0.55,0.81,1.66,1.03,2.47,0.5c0.82-0.53,1.03-1.63,0.48-2.44l-26.7-39.29
				c-0.55-0.81-1.66-1.03-2.47-0.5C1729.59,1555.66,1729.31,1556.2,1729.31,1556.77z"></path>
		</g>
	</g>
	<g>
		<g>
			<g>
				<g>
					
						<rect x="1312.57" y="1599.62" transform="matrix(-1 -8.068288e-07 8.068288e-07 -1 3005.3296 3217.1228)" style="fill:none;stroke:#000000;stroke-linecap:round;stroke-linejoin:round;stroke-miterlimit:10;" width="380.19" height="17.87"></rect>
					
						<rect x="1312.57" y="1182.53" transform="matrix(-1 -8.068288e-07 8.068288e-07 -1 3005.3303 2782.1572)" style="fill:none;stroke:#000000;stroke-linecap:round;stroke-linejoin:round;stroke-miterlimit:10;" width="380.19" height="417.09"></rect>
					<path style="fill:none;stroke:#000000;stroke-linecap:round;stroke-linejoin:round;stroke-miterlimit:10;" d="M1509.82,1507.68
						h-14.31v44.01c0,13.16-10.07,23.83-22.48,23.83h-106.8c-12.42,0-22.48-10.67-22.48-23.83v-44.01h-14.31l0,77.05
						c0,3.29,2.52,5.96,5.62,5.96l335.21,0c3.1,0,5.62-2.67,5.62-5.96v-77.05h-14.31v44.01c0,13.16-10.07,23.83-22.48,23.83h-106.8
						c-12.42,0-22.48-10.67-22.48-23.83V1507.68z"></path>
					<path style="fill:none;stroke:#000000;stroke-linecap:round;stroke-linejoin:round;stroke-miterlimit:10;" d="M1675.14,1197.43
						l-344.95,0c-0.42,0-0.75,0.34-0.75,0.75l0,309.5l346.46,0l0-309.5C1675.89,1197.76,1675.56,1197.43,1675.14,1197.43z"></path>
				</g>
			</g>
		</g>
		
			<rect x="1228.03" y="1522.55" style="fill:none;stroke:#000000;stroke-linecap:round;stroke-linejoin:round;stroke-miterlimit:10;" width="84.55" height="94.94"></rect>
		
			<rect x="1692.77" y="1523.15" style="fill:none;stroke:#000000;stroke-linecap:round;stroke-linejoin:round;stroke-miterlimit:10;" width="84.55" height="94.35"></rect>
	</g>
	<g>
		<g>
			<path style="fill:none;stroke:#000000;stroke-linecap:round;stroke-linejoin:round;stroke-miterlimit:10;" d="M1612.93,1392.3
				c0.02,0.16,0.02,0.33,0.01,0.49c-0.55,8.95-0.38,17.99,0.48,26.89c0.86,8.9,2.44,17.81,4.68,26.47c0.05,0.18,0.08,0.34,0.09,0.5
				c0.08,0.86-0.22,1.72-0.84,2.35c-0.35,0.36-1.11,0.96-2.28,0.91l-0.07-0.01c-17.97-1.09-35.92,0.64-53.35,5.16l-0.09,0.03
				c-1.13,0.26-1.98-0.17-2.39-0.46c-0.72-0.51-1.19-1.29-1.27-2.15c-0.02-0.16-0.02-0.33-0.01-0.49
				c0.55-8.95,0.38-17.99-0.48-26.89c-0.86-8.9-2.44-17.81-4.68-26.47c-0.05-0.18-0.07-0.34-0.09-0.5
				c-0.08-0.86,0.22-1.72,0.84-2.36c0.35-0.36,1.11-0.96,2.28-0.91l0.07,0.01c17.97,1.09,35.92-0.64,53.35-5.16l0.09-0.03
				c1.13-0.26,1.98,0.17,2.39,0.46C1612.39,1390.66,1612.85,1391.44,1612.93,1392.3z"></path>
		</g>
		<path style="fill:none;stroke:#000000;stroke-linecap:round;stroke-linejoin:round;stroke-miterlimit:10;" d="M1615.01,1449.92
			l0.07,0.01c1.17,0.05,1.93-0.55,2.28-0.91c0.61-0.64,0.92-1.5,0.84-2.35c-0.02-0.16-0.04-0.32-0.09-0.5
			c-1.98-7.62-3.34-15.44-4.24-23.27c6.36-3.14,12.58-6.57,18.53-10.49l0.06-0.04c0.99-0.63,1.94-0.49,2.43-0.35
			c0.85,0.25,1.54,0.84,1.9,1.62c0.07,0.15,0.12,0.3,0.17,0.48c2.38,8.63,5.46,17.13,9.16,25.27c3.7,8.15,8.07,16.06,13.01,23.54
			c0.09,0.14,0.17,0.28,0.24,0.43c0.36,0.79,0.35,1.7-0.03,2.5c-0.21,0.45-0.73,1.26-1.84,1.59l-0.09,0.02
			c-17.36,4.79-33.78,12.24-48.8,22.16l-0.06,0.04c-0.99,0.63-1.95,0.49-2.43,0.35c-0.85-0.25-1.54-0.84-1.9-1.62
			c-0.07-0.15-0.12-0.3-0.17-0.48c-2.38-8.63-5.46-17.13-9.16-25.27c-1.89-4.17-3.97-8.27-6.2-12.29
			C1597.41,1449.54,1606.2,1449.38,1615.01,1449.92z"></path>
		<path style="fill:none;stroke:#000000;stroke-linecap:round;stroke-linejoin:round;stroke-miterlimit:10;" d="M1615.01,1449.92
			l0.07,0.01c1.17,0.05,1.93-0.55,2.28-0.91c0.61-0.64,0.92-1.5,0.84-2.35c-0.02-0.16-0.04-0.32-0.09-0.5
			c-2.25-8.66-3.82-17.57-4.68-26.47c-0.02-0.25-0.02-0.5-0.04-0.74c5.81-2.93,11.5-6.08,16.94-9.67l0.01-0.01
			c3.82-2.52,9-0.58,10.21,3.83l0,0.02c4.67,16.95,11.99,33.06,21.68,47.73l0.01,0.01c2.52,3.82,0.58,9-3.83,10.21l-0.02,0
			c-16.95,4.67-33.06,11.99-47.73,21.68l-0.01,0.01c-3.82,2.52-9,0.58-10.21-3.83l0-0.02c-3.67-13.31-9.02-26.06-15.81-38.04
			C1594.68,1449.69,1604.83,1449.3,1615.01,1449.92z"></path>
	</g>
	<g>
		<g>
			<path style="fill:none;stroke:#000000;stroke-linecap:round;stroke-linejoin:round;stroke-miterlimit:10;" d="M1396.66,1392.89
				c-0.02,0.16-0.02,0.33-0.01,0.49c0.55,8.95,0.38,17.99-0.48,26.89c-0.86,8.9-2.44,17.81-4.68,26.47
				c-0.05,0.18-0.08,0.34-0.09,0.5c-0.08,0.86,0.22,1.72,0.84,2.35c0.35,0.36,1.11,0.96,2.28,0.91l0.07-0.01
				c17.97-1.09,35.92,0.64,53.35,5.16l0.09,0.03c1.13,0.26,1.98-0.17,2.39-0.46c0.72-0.51,1.19-1.29,1.27-2.15
				c0.02-0.16,0.02-0.33,0.01-0.49c-0.55-8.95-0.38-17.99,0.48-26.89c0.86-8.9,2.44-17.81,4.68-26.47c0.05-0.18,0.07-0.34,0.09-0.5
				c0.08-0.86-0.22-1.72-0.84-2.36c-0.35-0.36-1.11-0.96-2.28-0.91l-0.07,0.01c-17.97,1.09-35.92-0.64-53.35-5.16l-0.09-0.03
				c-1.13-0.26-1.98,0.17-2.39,0.46C1397.21,1391.24,1396.75,1392.03,1396.66,1392.89z"></path>
		</g>
		<path style="fill:none;stroke:#000000;stroke-linecap:round;stroke-linejoin:round;stroke-miterlimit:10;" d="M1394.59,1450.5
			l-0.07,0.01c-1.17,0.05-1.93-0.55-2.28-0.91c-0.61-0.64-0.92-1.5-0.84-2.35c0.02-0.16,0.04-0.32,0.09-0.5
			c1.98-7.62,3.34-15.44,4.24-23.27c-6.36-3.14-12.58-6.57-18.53-10.49l-0.06-0.04c-0.99-0.63-1.94-0.49-2.43-0.35
			c-0.85,0.25-1.54,0.84-1.9,1.62c-0.07,0.15-0.12,0.3-0.17,0.48c-2.38,8.63-5.46,17.13-9.16,25.27s-8.07,16.06-13.01,23.54
			c-0.09,0.14-0.17,0.28-0.24,0.43c-0.36,0.79-0.35,1.7,0.03,2.5c0.21,0.45,0.73,1.26,1.84,1.59l0.09,0.02
			c17.36,4.79,33.78,12.24,48.8,22.16l0.06,0.04c0.99,0.63,1.95,0.49,2.43,0.35c0.85-0.25,1.54-0.84,1.9-1.62
			c0.07-0.15,0.12-0.3,0.17-0.48c2.38-8.63,5.46-17.13,9.16-25.27c1.89-4.17,3.97-8.27,6.2-12.29
			C1412.19,1450.13,1403.4,1449.97,1394.59,1450.5z"></path>
		<path style="fill:none;stroke:#000000;stroke-linecap:round;stroke-linejoin:round;stroke-miterlimit:10;" d="M1394.59,1450.5
			l-0.07,0.01c-1.17,0.05-1.93-0.55-2.28-0.91c-0.61-0.64-0.92-1.5-0.84-2.35c0.02-0.16,0.04-0.32,0.09-0.5
			c2.25-8.66,3.82-17.57,4.68-26.47c0.02-0.25,0.02-0.5,0.04-0.74c-5.81-2.93-11.5-6.08-16.94-9.67l-0.01-0.01
			c-3.82-2.52-9-0.58-10.21,3.83l0,0.02c-4.67,16.95-11.99,33.06-21.68,47.73l-0.01,0.01c-2.52,3.82-0.58,9,3.83,10.21l0.02,0
			c16.95,4.67,33.06,11.99,47.73,21.68l0.01,0.01c3.82,2.52,9,0.58,10.21-3.83l0-0.02c3.67-13.31,9.02-26.06,15.81-38.04
			C1414.92,1450.27,1404.77,1449.88,1394.59,1450.5z"></path>
	</g>
	<g>
		<path style="fill:none;stroke:#000000;stroke-linecap:round;stroke-linejoin:round;stroke-miterlimit:10;" d="M1768.96,447.9
			c0.71,5.17,0.22,10.52-1.54,15.61"></path>
		<path style="fill:none;stroke:#000000;stroke-linecap:round;stroke-linejoin:round;stroke-miterlimit:10;" d="M1742.48,419.39
			c3.9,0.83,7.72,2.36,11.27,4.64c0.82,0.53,1.61,1.08,2.36,1.66"></path>
		<path style="fill:none;stroke:#000000;stroke-linecap:round;stroke-linejoin:round;stroke-miterlimit:10;" d="M1709.06,431.38
			c0.96-1.21,2-2.34,3.09-3.39"></path>
		<path style="fill:none;stroke:#000000;stroke-linecap:round;stroke-linejoin:round;stroke-miterlimit:10;" d="M1739.45,486.02
			c-1.28,0.15-2.57,0.23-3.87,0.24"></path>
		<path style="fill:none;stroke:#000000;stroke-linecap:round;stroke-linejoin:round;stroke-miterlimit:10;" d="M1765.44,450.35
			c0.26,3.71-0.16,7.49-1.31,11.13"></path>
		<path style="fill:none;stroke:#000000;stroke-linecap:round;stroke-linejoin:round;stroke-miterlimit:10;" d="M1743.35,423.47
			c2.89,0.79,5.71,2.02,8.37,3.73"></path>
		<g>
			<path style="fill:none;stroke:#000000;stroke-linecap:round;stroke-linejoin:round;stroke-miterlimit:10;" d="M1704.05,467.41
				c-2.35,2.46-4.54,5.22-6.5,8.26c-9.44,14.67-10.72,31.55-4.36,42.6c12.69,1.2,27.51-6.96,36.95-21.63
				c2.1-3.27,3.8-6.65,5.1-10.05c0.68-1.77,1.24-3.54,1.7-5.31"></path>
			<path style="fill:none;stroke:#000000;stroke-linecap:round;stroke-linejoin:round;stroke-miterlimit:10;" d="M1736.33,457.93
				c-0.13-0.35-0.27-0.7-0.42-1.04c-0.78-1.83-2.6-3-4.59-2.95c-0.83,0.02-1.67,0.08-2.51,0.17"></path>
			
				<line style="fill:none;stroke:#000000;stroke-linecap:round;stroke-linejoin:round;stroke-miterlimit:10;" x1="1693.19" y1="518.28" x2="1737.15" y2="449.92"></line>
		</g>
		<g>
			<path style="fill:none;stroke:#000000;stroke-linecap:round;stroke-linejoin:round;stroke-miterlimit:10;" d="M1779.86,516.38
				c6.41-11.02,5.19-27.9-4.18-42.61c-8.6-13.5-21.77-21.54-33.69-21.88c-1.99-0.06-3.81,1.1-4.6,2.93
				c-4.72,10.95-2.99,26.28,5.61,39.78C1752.38,509.3,1767.16,517.53,1779.86,516.38z"></path>
			
				<line style="fill:none;stroke:#000000;stroke-linecap:round;stroke-linejoin:round;stroke-miterlimit:10;" x1="1779.86" y1="516.38" x2="1737.29" y2="450.01"></line>
		</g>
		<g>
			<path style="fill:none;stroke:#000000;stroke-linecap:round;stroke-linejoin:round;stroke-miterlimit:10;" d="M1730.84,447.05
				c0.96,0.39,1.93,0.71,2.9,0.97c1.98,0.53,4.1-0.29,5.22-2.01"></path>
			<path style="fill:none;stroke:#000000;stroke-linecap:round;stroke-linejoin:round;stroke-miterlimit:10;" d="M1742.83,436.25
				c1.37-6.81,0.73-14.74-2.26-22.53c-5.13-13.34-15.66-22.36-26.05-23.51c-6.94,7.81-8.72,21.56-3.6,34.9
				c1.07,2.79,2.38,5.4,3.88,7.78"></path>
			
				<line style="fill:none;stroke:#000000;stroke-linecap:round;stroke-linejoin:round;stroke-miterlimit:10;" x1="1737.09" y1="450.03" x2="1714.52" y2="390.21"></line>
		</g>
		<g>
			<path style="fill:none;stroke:#000000;stroke-linecap:round;stroke-linejoin:round;stroke-miterlimit:10;" d="M1783.85,425.54
				c-6.97-4.92-18.3-5.1-28.66,0.29c-8.94,4.65-14.89,12.26-16.34,19.75c-0.43,2.19,0.72,4.4,2.76,5.31
				c6.96,3.11,16.62,2.6,25.55-2.04C1777.52,443.45,1783.87,434.07,1783.85,425.54z"></path>
			
				<line style="fill:none;stroke:#000000;stroke-linecap:round;stroke-linejoin:round;stroke-miterlimit:10;" x1="1783.85" y1="425.54" x2="1737.02" y2="449.97"></line>
		</g>
		<g>
			<path style="fill:none;stroke:#000000;stroke-linecap:round;stroke-linejoin:round;stroke-miterlimit:10;" d="M1685.9,457.35
				c2.92-6.58,10.38-12.1,19.9-13.8c8.53-1.52,16.61,0.38,21.81,4.51c1.43,1.13,2.06,2.89,1.87,4.6c0.39-0.39,0.83-0.75,1.18-1.17
				c0.87-1.01,1.07-2.44,0.5-3.65c-4.19-8.96-14.81-16.22-28.01-18.05c-14.16-1.96-27.15,2.9-33.17,11.44
				C1672.31,447.81,1678.12,453.6,1685.9,457.35z"></path>
		</g>
		
			<line style="fill:none;stroke:#000000;stroke-linecap:round;stroke-linejoin:round;stroke-miterlimit:10;" x1="1697.62" y1="445.89" x2="1669.99" y2="441.23"></line>
		<path style="fill:none;stroke:#000000;stroke-linecap:round;stroke-linejoin:round;stroke-miterlimit:10;" d="M1685.17,459.11
			c4.68,6.11,14.38,9.31,24.74,7.46c8.53-1.52,15.46-6.11,18.9-11.78c1.35-2.23,0.84-5.11-1.2-6.73c-5.2-4.13-13.28-6.03-21.81-4.51
			C1695.44,445.4,1687.45,451.76,1685.17,459.11z"></path>
		
			<line style="fill:none;stroke:#000000;stroke-linecap:round;stroke-linejoin:round;stroke-miterlimit:10;" x1="1685.17" y1="459.11" x2="1737.94" y2="449.82"></line>
	</g>
	<g>
		<g>
			
				<circle style="fill:none;stroke:#000000;stroke-linecap:round;stroke-linejoin:round;stroke-miterlimit:10;" cx="1467.64" cy="1299.63" r="17.85"></circle>
			<path style="fill:none;stroke:#000000;stroke-linecap:round;stroke-linejoin:round;stroke-miterlimit:10;" d="M1446.27,1304.25
				l-10.28-21.24c-1.07-2.21-0.12-4.86,2.11-5.89l0,0c2.12-0.98,4.65-0.13,5.73,1.95l8.18,15.64l5.15,12.54L1446.27,1304.25z"></path>
		</g>
		<path style="fill:#FFFFFF;stroke:#000000;stroke-linecap:round;stroke-linejoin:round;stroke-miterlimit:10;" d="M1459.77,1323.27
			L1459.77,1323.27c13.48,0.68,27.1-4.78,36.39-15.95c5.43-6.53,8.66-14.15,9.79-21.97c1.56-10.76-0.38-22.61-6.3-32.27
			l-21.54,16.45c0.26,4.3-1.05,8.7-4.02,12.27c-3.01,3.62-7.16,5.71-11.49,6.21l-2.75,34.11c-6.74-1.28-12.18-3.35-17.83-8.04
			c-16.25-13.5-20.77-37.58-9.95-55.05c1.25-2.02,0.54-4.68-1.53-5.84l0,0c-1.93-1.08-4.36-0.49-5.57,1.36
			c-12.19,18.67-8.56,44.05,8.94,58.49C1441.53,1319.3,1450.61,1322.78,1459.77,1323.27z"></path>
		<path style="fill:#FFFFFF;stroke:#000000;stroke-linecap:round;stroke-linejoin:round;stroke-miterlimit:10;" d="M1460.36,1315.93
			"></path>
		<polygon style="fill:#FFFFFF;" points="1477.3,1291.1 1454.27,1291.08 1471.55,1282.81 1473.78,1283.45 		"></polygon>
		<path style="fill:#FFFFFF;stroke:#000000;stroke-linecap:round;stroke-linejoin:round;stroke-miterlimit:10;" d="M1475.89,1242.98
			c2.35-0.58,4.74,0.76,5.47,3.06l3.76,11.88c0.76,2.33-0.55,4.83-2.89,5.55l0,0c-2.24,0.68-4.62-0.51-5.41-2.71l-4.15-11.81
			C1471.77,1246.4,1473.27,1243.63,1475.89,1242.98L1475.89,1242.98z"></path>
		<path style="fill:#FFFFFF;" d="M1448.24,1318.93c9.45,7.86,24.62,4.3,28.77-9.13c1.25-4.05,0.84-8.54-1.13-12.29
			c-6.53-12.45-22.09-13.17-29.95-3.72c-0.58,0.7-1.1,1.43-1.56,2.19l-4.92-14.73c-0.71-2.13-2.89-3.49-5.09-3.03
			c-2.54,0.53-4.05,3.11-3.31,5.56l6.5,21.67c0.18,0.6,0.6,1.08,1.17,1.34l3.36,1.54
			C1442.79,1312.33,1444.86,1316.12,1448.24,1318.93z"></path>
		<path style="fill:#FFFFFF;stroke:#000000;stroke-linecap:round;stroke-linejoin:round;stroke-miterlimit:10;" d="M1477.31,1254.21
			"></path>
		<path style="fill:#FFFFFF;stroke:#000000;stroke-linecap:round;stroke-linejoin:round;stroke-miterlimit:10;" d="M1482.09,1249.28
			"></path>
		<path style="fill:#FFFFFF;stroke:#000000;stroke-linecap:round;stroke-linejoin:round;stroke-miterlimit:10;" d="M1475.24,1296.53
			c-0.93-1.69-2.15-3.25-3.65-4.59c-7.58-6.8-19.21-5.9-25.66,1.86c-0.58,0.7-1.1,1.43-1.56,2.19l-4.92-14.73
			c-0.71-2.13-2.89-3.49-5.09-3.03c-2.54,0.53-4.05,3.11-3.31,5.56l6.5,21.67c0.18,0.6,0.6,1.08,1.17,1.34l3.36,1.54
			c0.71,4.01,2.1,9.75,10.78,14.01"></path>
		<path style="fill:none;stroke:#000000;stroke-linecap:round;stroke-linejoin:round;stroke-miterlimit:10;" d="M1446.14,1320.27
			c0,0,15.02,6.79,31.8,0.1"></path>
		<g>
			<path style="fill:#FFFFFF;stroke:#000000;stroke-linecap:round;stroke-linejoin:round;stroke-miterlimit:10;" d="
				M1491.23,1289.38l-12.36-4.44c1.95,0.83-3.61-1.53-7.47-3.19c-2.3-0.99-3.32-3.78-3.61-6.28l-2.68-20.44
				c-0.12-1.05,0.14-2.07,0.67-2.9c0.7-1.09,1.87-1.87,3.25-2.03c2.44-0.28,4.65,1.48,4.93,3.93l0.94,5.06
				c0.95,8.36,8.71,14.21,17.01,12.82l4.61-0.77"></path>
		</g>
		<g>
			<path style="fill:#FFFFFF;stroke:#000000;stroke-linecap:round;stroke-linejoin:round;stroke-miterlimit:10;" d="
				M1502.34,1263.04c1.64-8.05-3.18-15.11-10.07-17.21l-6.57-9.74c-0.35-0.52-1.16-0.37-1.29,0.25l-2.22,10.04
				c-2.33,1-4.34,2.58-5.86,4.55l0,0l-0.04,0.06c-0.21,0.27-0.41,0.55-0.6,0.84l-4.34,6.13l0.04,0c-0.63,0.84-1.07,1.85-1.22,2.97
				c-0.49,3.52,1.96,6.77,5.48,7.26c0.07,0.01,0.15,0.01,0.22,0.02c3.46,5.01,9.93,7.73,16.66,5.65
				C1497.47,1272.33,1501.31,1268.09,1502.34,1263.04z"></path>
			
				<line style="fill:#FFFFFF;stroke:#000000;stroke-linecap:round;stroke-linejoin:round;stroke-miterlimit:10;" x1="1479.45" y1="1263.52" x2="1483.34" y2="1265.84"></line>
			<polygon points="1475.28,1263.19 1471.76,1262.28 1472.67,1258.76 			"></polygon>
			<path style="fill:#FFFFFF;stroke:#000000;stroke-linecap:round;stroke-linejoin:round;stroke-miterlimit:10;" d="
				M1495.93,1267.17c3.78-2.13,8.62-6.14,11.48-10.04c0.48-0.66-0.04-1.53-0.82-1.75c-1.59-0.43-7.57-1.48-12.75-1.01
				c0,0,0.77-0.11,0,0"></path>
		</g>
	</g>
	<g>
		<g>
			<path style="fill:none;stroke:#000000;stroke-linecap:round;stroke-linejoin:round;stroke-miterlimit:10;" d="M1713.93,1066.71
				c0.11-1.86,0.34-3.72,0.71-5.56"></path>
			<path style="fill:none;stroke:#000000;stroke-linecap:round;stroke-linejoin:round;stroke-miterlimit:10;" d="M1772.33,1033.18
				c2.61,1.33,5.12,2.97,7.47,4.93c0.53,0.44,1.04,0.89,1.54,1.35"></path>
		</g>
		<g>
			<path style="fill:none;stroke:#000000;stroke-linecap:round;stroke-linejoin:round;stroke-miterlimit:10;" d="M1773.11,1038.55
				c1.36,0.85,2.68,1.8,3.94,2.86"></path>
			<path style="fill:none;stroke:#000000;stroke-linecap:round;stroke-linejoin:round;stroke-miterlimit:10;" d="M1718.29,1065.92
				c0.14-1.62,0.39-3.23,0.74-4.82"></path>
		</g>
		<g>
			<path style="fill:none;stroke:#000000;stroke-linecap:round;stroke-linejoin:round;stroke-miterlimit:10;" d="M1713.18,1020.73
				c-3.54,0.14-7.34,0.94-11.32,2.73c-7.78,20.77,9.65,35.39,9.65,35.39c3.26,3.06,8.16,3.29,11.67,0.81"></path>
		</g>
		
			<line style="fill:none;stroke:#000000;stroke-linecap:round;stroke-linejoin:round;stroke-miterlimit:10;" x1="1711.41" y1="1033.33" x2="1702.28" y2="1023.66"></line>
		
			<line style="fill:none;stroke:#000000;stroke-linecap:round;stroke-linejoin:round;stroke-miterlimit:10;" x1="1750.83" y1="1075.04" x2="1735.08" y2="1058.37"></line>
		<g>
			<path style="fill:none;stroke:#000000;stroke-linecap:round;stroke-linejoin:round;stroke-miterlimit:10;" d="M1771.84,1077.09
				c0,0,0.01,0,0.01,0C1771.83,1077.09,1771.82,1077.09,1771.84,1077.09z"></path>
			<path style="fill:none;stroke:#000000;stroke-linecap:round;stroke-linejoin:round;stroke-miterlimit:10;" d="M1777.5,1106.31
				c11.35-0.92,32.65-5.8,43.12-28.62c-2.32-6.18-5.47-11.17-9.06-15.21"></path>
			<path style="fill:none;stroke:#000000;stroke-linecap:round;stroke-linejoin:round;stroke-miterlimit:10;" d="M1771.08,1075.93
				c-3.73-0.12-7.18,1.38-9.86,3.83"></path>
			<path style="fill:none;stroke:#000000;stroke-linecap:round;stroke-linejoin:round;stroke-miterlimit:10;" d="M1758.66,1053.25
				c-1,1.9-1.6,4.04-1.69,6.33c-0.29,8.11,6,16.05,14.11,16.34c1.66,0.06,1.01,0.05,0.81,0.03"></path>
			<path style="fill:none;stroke:#000000;stroke-linecap:round;stroke-linejoin:round;stroke-miterlimit:10;" d="M1776.14,1045.63
				c-2.48-0.23-3.97-0.2-3.97-0.2"></path>
		</g>
		
			<line style="fill:none;stroke:#000000;stroke-linecap:round;stroke-linejoin:round;stroke-miterlimit:10;" x1="1751.04" y1="1075.14" x2="1820.62" y2="1077.7"></line>
		<g>
			<path style="fill:none;stroke:#000000;stroke-linecap:round;stroke-linejoin:round;stroke-miterlimit:10;" d="M1741.96,1041.39
				c0,0,0,0.01,0,0.01C1741.96,1041.42,1741.96,1041.41,1741.96,1041.39z"></path>
			<path style="fill:none;stroke:#000000;stroke-linecap:round;stroke-linejoin:round;stroke-miterlimit:10;" d="M1744.18,1040.88
				c0,0,0-0.01,0-0.01C1744.18,1040.89,1744.18,1040.9,1744.18,1040.88z"></path>
			<path style="fill:none;stroke:#000000;stroke-linecap:round;stroke-linejoin:round;stroke-miterlimit:10;" d="M1713.54,1048.88
				c1.85,7.9,9.75,12.8,17.65,10.95c7.9-1.85,13.9-10.01,12.05-17.91c-0.38-1.62-0.22-0.98-0.18-0.79c-0.14-0.61-0.26-1.1-0.26-1.1
				s0.11,0.49,0.26,1.1c-0.06-0.19,0,0,0.19,0.79c1.6,6.76,8.44,11.14,15.33,11.09c1.15-0.01,2.3-0.14,3.43-0.41
				c7.9-1.85,12.8-9.75,10.95-17.65c0,0-0.1-0.59-0.36-1.62c-1.73-7.02-10.41-34.66-40.66-39.68
				C1703.39,1014.24,1713.54,1048.88,1713.54,1048.88z"></path>
		</g>
		
			<line style="fill:none;stroke:#000000;stroke-linecap:round;stroke-linejoin:round;stroke-miterlimit:10;" x1="1751.04" y1="1075.14" x2="1731.93" y2="993.65"></line>
		<g>
			<path style="fill:none;stroke:#000000;stroke-linecap:round;stroke-linejoin:round;stroke-miterlimit:10;" d="M1723.94,1067.36
				c-2.44-1.7-5.65-2.19-8.63-1.04c0,0-21.63,7.03-22.2,29.21c5.72,5.98,12.2,8.42,18.07,9.14"></path>
		</g>
		
			<line style="fill:none;stroke:#000000;stroke-linecap:round;stroke-linejoin:round;stroke-miterlimit:10;" x1="1712.42" y1="1088.73" x2="1693.11" y2="1095.53"></line>
		
			<line style="fill:none;stroke:#000000;stroke-linecap:round;stroke-linejoin:round;stroke-miterlimit:10;" x1="1751.04" y1="1075.14" x2="1745.68" y2="1077.03"></line>
		<g>
			<path style="fill:none;stroke:#000000;stroke-linecap:round;stroke-linejoin:round;stroke-miterlimit:10;" d="M1745.77,1088.66
				C1745.77,1088.66,1745.77,1088.65,1745.77,1088.66C1745.79,1088.63,1745.78,1088.64,1745.77,1088.66z"></path>
			<path style="fill:none;stroke:#000000;stroke-linecap:round;stroke-linejoin:round;stroke-miterlimit:10;" d="M1743.72,1087.66
				c0,0,0,0.01,0,0.01C1743.73,1087.64,1743.73,1087.64,1743.72,1087.66z"></path>
			<path style="fill:none;stroke:#000000;stroke-linecap:round;stroke-linejoin:round;stroke-miterlimit:10;" d="M1765.74,1081.11
				c-7.3-3.53-17.11-0.97-20.64,6.33"></path>
			<path style="fill:none;stroke:#000000;stroke-linecap:round;stroke-linejoin:round;stroke-miterlimit:10;" d="M1744.74,1088.16
				c-0.08,0.18,0,0,0.35-0.73c3.51-7.31-0.55-16.58-7.85-20.11s-16.08-0.48-19.62,6.82c0,0-17.47,31.58,5.88,57.91
				c14.58,0.82,25.5-4.44,33.3-10.87"></path>
		</g>
		
			<line style="fill:none;stroke:#000000;stroke-linecap:round;stroke-linejoin:round;stroke-miterlimit:10;" x1="1739.13" y1="1099.77" x2="1723.51" y2="1132.06"></line>
		<g>
			<path style="fill:none;stroke:#000000;stroke-linecap:round;stroke-linejoin:round;stroke-miterlimit:10;" d="M1758.11,1093.83
				C1758.11,1093.82,1758.11,1093.82,1758.11,1093.83C1758.11,1093.81,1758.11,1093.81,1758.11,1093.83z"></path>
			<path style="fill:none;stroke:#000000;stroke-linecap:round;stroke-linejoin:round;stroke-miterlimit:10;" d="M1756.75,1094.29
				C1756.75,1094.29,1756.75,1094.29,1756.75,1094.29C1756.75,1094.28,1756.75,1094.27,1756.75,1094.29z"></path>
			<path style="fill:none;stroke:#000000;stroke-linecap:round;stroke-linejoin:round;stroke-miterlimit:10;" d="M1775.44,1087.3
				c-1.67-4.83-6.94-7.39-11.77-5.72c-4.83,1.67-8.07,7.17-6.4,12c0.34,0.99,0.2,0.6,0.17,0.48c0.12,0.37,0.23,0.67,0.23,0.67
				s-0.1-0.3-0.23-0.67c0.05,0.12,0,0-0.17-0.48c-1.68-4.83-7.61-7.16-12.44-5.49s-7.39,6.94-5.72,11.77c0,0,6.24,21.87,28.37,23.24
				c6.19-5.51,8.87-11.9,9.79-17.75C1778.81,1095.56,1775.44,1087.3,1775.44,1087.3z"></path>
		</g>
		
			<line style="fill:none;stroke:#000000;stroke-linecap:round;stroke-linejoin:round;stroke-miterlimit:10;" x1="1750.78" y1="1075.01" x2="1767.47" y2="1123.1"></line>
		<g>
			<path style="fill:none;stroke:#000000;stroke-linecap:round;stroke-linejoin:round;stroke-miterlimit:10;" d="M1788.88,1056.17
				C1788.87,1056.18,1788.87,1056.18,1788.88,1056.17C1788.86,1056.18,1788.86,1056.18,1788.88,1056.17z"></path>
			<path style="fill:none;stroke:#000000;stroke-linecap:round;stroke-linejoin:round;stroke-miterlimit:10;" d="M1789.48,1057.48
				C1789.48,1057.48,1789.49,1057.47,1789.48,1057.48C1789.47,1057.48,1789.47,1057.48,1789.48,1057.48z"></path>
			<path style="fill:none;stroke:#000000;stroke-linecap:round;stroke-linejoin:round;stroke-miterlimit:10;" d="M1780.53,1039.65
				c-4.62,2.18-6.61,7.69-4.43,12.31c2.18,4.62,8,7.25,12.62,5.08c0.95-0.45,0.58-0.26,0.46-0.22c0.36-0.16,0.64-0.3,0.64-0.3
				s-0.29,0.13-0.64,0.3c0.11-0.06,0,0-0.46,0.22c-4.62,2.19-6.3,8.34-4.12,12.96c2.18,4.62,7.69,6.61,12.31,4.43
				c0,0,21.07-8.55,20.07-30.7C1800.54,1028.85,1780.53,1039.65,1780.53,1039.65z"></path>
		</g>
		
			<line style="fill:none;stroke:#000000;stroke-linecap:round;stroke-linejoin:round;stroke-miterlimit:10;" x1="1751.15" y1="1075.19" x2="1816.98" y2="1043.73"></line>
	</g>
</g>
<g id="floor">
	
		<rect x="1788.93" y="875.17" transform="matrix(-1.346969e-10 1 -1 -1.346969e-10 2775.1565 -912.8613)" style="fill-rule:evenodd;clip-rule:evenodd;" width="110.16" height="111.96"></rect>
	
		<rect x="1753.91" y="412.24" transform="matrix(-1.346791e-10 1 -1 -1.346791e-10 2312.2249 -1375.7928)" style="fill-rule:evenodd;clip-rule:evenodd;" width="180.2" height="111.96"></rect>
	
		<rect x="437.57" y="203.49" transform="matrix(-1.346942e-10 1 -1 -1.346942e-10 862.4284 -74.1449)" style="fill-rule:evenodd;clip-rule:evenodd;" width="61.43" height="381.31"></rect>
	
		<rect x="1231.64" y="-285.86" transform="matrix(-1.346951e-10 1 -1 -1.346951e-10 1614.1328 -895.7555)" style="fill-rule:evenodd;clip-rule:evenodd;" width="46.6" height="1290.09"></rect>
	
		<rect x="77.45" y="616.57" transform="matrix(-1.346889e-10 1 -1 -1.346889e-10 936.5712 338.9365)" style="fill-rule:evenodd;clip-rule:evenodd;" width="442.74" height="42.37"></rect>
	
		<rect x="352.79" y="804.64" transform="matrix(-1.347049e-10 1 -1 -1.347049e-10 1209.7946 487.268)" style="fill-rule:evenodd;clip-rule:evenodd;" width="16.95" height="87.79"></rect>
	
		<rect x="632.02" y="782.67" transform="matrix(-1.347049e-10 1 -1 -1.347049e-10 1489.0233 208.0393)" style="fill-rule:evenodd;clip-rule:evenodd;" width="16.95" height="131.73"></rect>
	
		<rect x="468.35" y="615.71" transform="matrix(-1.346889e-10 1 -1 -1.346889e-10 1336.0801 -87.7174)" style="fill-rule:evenodd;clip-rule:evenodd;" width="487.09" height="16.95"></rect>
	
		<rect x="550.77" y="448.02" transform="matrix(-1.346969e-10 1 -1 -1.346969e-10 1041.2932 -128.3004)" style="fill-rule:evenodd;clip-rule:evenodd;" width="68.06" height="16.95"></rect>
	
		<rect x="639.34" y="423.18" transform="matrix(-1.347049e-10 1 -1 -1.347049e-10 1129.8676 -165.7598)" style="fill-rule:evenodd;clip-rule:evenodd;" width="16.95" height="117.76"></rect>
	
		<rect x="647.2" y="1135.79" transform="matrix(-1.346960e-10 1 -1 -1.346960e-10 1856.167 432.3695)" style="fill-rule:evenodd;clip-rule:evenodd;" width="129.41" height="16.95"></rect>
	
		<rect x="674.88" y="1200.34" transform="matrix(-1.346711e-10 1 -1 -1.346711e-10 1906.9423 532.078)" style="fill-rule:evenodd;clip-rule:evenodd;" width="25.1" height="38.34"></rect>
	
		<rect x="790.78" y="1222.5" transform="matrix(-1.346969e-10 1 -1 -1.346969e-10 2037.9885 431.7209)" style="fill-rule:evenodd;clip-rule:evenodd;" width="24.71" height="24.71"></rect>
	
		<rect x="882.99" y="1029.63" transform="matrix(-1.347049e-10 1 -1 -1.347049e-10 2106.4675 323.5497)" style="fill-rule:evenodd;clip-rule:evenodd;" width="16.95" height="370.76"></rect>
	
		<rect x="743.56" y="1182.7" transform="matrix(-1.347209e-10 1 -1 -1.347209e-10 1975.6213 477.349)" style="fill-rule:evenodd;clip-rule:evenodd;" width="11.15" height="87.58"></rect>
	
		<rect x="743.83" y="1463.23" transform="matrix(-1.346951e-10 1 -1 -1.346951e-10 2278.7151 672.8439)" style="fill-rule:evenodd;clip-rule:evenodd;" width="118.2" height="25.1"></rect>
	
		<rect x="709.25" y="1439.24" transform="matrix(-1.346800e-10 1 -1 -1.346800e-10 2254.7246 820.4411)" style="fill-rule:evenodd;clip-rule:evenodd;" width="15.78" height="196.69"></rect>
	
		<rect x="593.56" y="1566.95" transform="matrix(-1.346915e-10 1 -1 -1.346915e-10 2201.5256 948.1505)" style="fill-rule:evenodd;clip-rule:evenodd;" width="66.26" height="15.78"></rect>
	
		<rect x="768.85" y="1574.81" transform="matrix(-1.346987e-10 1 -1 -1.346987e-10 2390.2937 774.0427)" style="fill-rule:evenodd;clip-rule:evenodd;" width="78.56" height="14.72"></rect>
	
		<rect x="1065.51" y="829.57" transform="matrix(-1.346951e-10 1 -1 -1.346951e-10 2729.5667 551.9329)" style="fill-rule:evenodd;clip-rule:evenodd;" width="46.6" height="1622.37"></rect>
	
		<rect x="702.05" y="1519.4" transform="matrix(-1.347315e-10 1 -1 -1.347315e-10 2323.4944 900.393)" style="fill-rule:evenodd;clip-rule:evenodd;" width="19.01" height="185.08"></rect>
	
		<rect x="460.75" y="1458.22" transform="matrix(-1.346933e-10 1 -1 -1.346933e-10 2082.2031 1131.4288)" style="fill-rule:evenodd;clip-rule:evenodd;" width="29.26" height="297.2"></rect>
	
		<rect x="230.24" y="1128.95" transform="matrix(-1.346827e-10 1 -1 -1.346827e-10 1448.951 851.3163)" style="fill-rule:evenodd;clip-rule:evenodd;" width="137.16" height="42.37"></rect>
	
		<rect x="395.75" y="1129.02" transform="matrix(-1.347066e-10 1 -1 -1.347066e-10 1627.8136 811.2067)" style="fill-rule:evenodd;clip-rule:evenodd;" width="25.1" height="180.98"></rect>
	
		<rect x="104.95" y="1388.72" transform="matrix(-1.346924e-10 1 -1 -1.346924e-10 1728.5255 1111.0841)" style="fill-rule:evenodd;clip-rule:evenodd;" width="407.55" height="62.17"></rect>
	
		<rect x="1002.11" y="1532.76" transform="matrix(-1.346907e-10 1 -1 -1.346907e-10 2621.7314 460.7425)" style="fill-rule:evenodd;clip-rule:evenodd;" width="156.76" height="16.95"></rect>
	
		<rect x="921.87" y="1105.1" transform="matrix(-1.346889e-10 1 -1 -1.346889e-10 2194.0708 33.0818)" style="fill-rule:evenodd;clip-rule:evenodd;" width="317.26" height="16.95"></rect>
	
		<rect x="1084.2" y="927.44" transform="matrix(-1.346516e-10 1 -1 -1.346516e-10 2040.7695 -144.5806)" style="fill-rule:evenodd;clip-rule:evenodd;" width="16.95" height="41.31"></rect>
	
		<rect x="1367.43" y="876.17" transform="matrix(-1.346516e-10 1 -1 -1.346516e-10 2323.999 -427.8102)" style="fill-rule:evenodd;clip-rule:evenodd;" width="16.95" height="143.85"></rect>
	
		<rect x="1596.64" y="787.83" transform="matrix(-1.346560e-10 1 -1 -1.346560e-10 2582.8696 -657.0236)" style="fill-rule:evenodd;clip-rule:evenodd;" width="46.6" height="350.19"></rect>
	
		<rect x="1790.99" y="1021.27" transform="matrix(-1.346871e-10 1 -1 -1.346871e-10 2921.2615 -809.1237)" style="fill-rule:evenodd;clip-rule:evenodd;" width="148.41" height="69.59"></rect>
	
		<rect x="1809.75" y="1532.23" transform="matrix(-1.346880e-10 1 -1 -1.346880e-10 3432.2083 -298.1708)" style="fill-rule:evenodd;clip-rule:evenodd;" width="110.88" height="69.59"></rect>
	<g>
		<path style="fill:none;stroke:#000000;stroke-linecap:round;stroke-linejoin:round;stroke-miterlimit:10;" d="M299.81,1069.71
			c-109.87,0-199.81-88.87-199.81-198.74l198.17,0"></path>
		
			<rect x="303.16" y="854.13" transform="matrix(2.479649e-05 1 -1 2.479649e-05 1174.1205 555.9403)" style="fill:none;stroke:#000000;stroke-linecap:round;stroke-linejoin:round;stroke-miterlimit:10;" width="11.84" height="21.82"></rect>
		
			<rect x="303.17" y="1064.72" transform="matrix(2.479649e-05 1 -1 2.479649e-05 1384.7104 766.5146)" style="fill:none;stroke:#000000;stroke-linecap:round;stroke-linejoin:round;stroke-miterlimit:10;" width="11.84" height="21.82"></rect>
	</g>
	<g>
		<path style="fill:none;stroke:#000000;stroke-linecap:round;stroke-linejoin:round;stroke-miterlimit:10;" d="M806.13,1407.66
			c83.71,0,152.24-67.71,152.24-151.42l-150.99,0"></path>
		
			<rect x="794.56" y="1243.41" transform="matrix(-2.479680e-05 1 -1 -2.479680e-05 2050.8137 452.6824)" style="fill:none;stroke:#000000;stroke-linecap:round;stroke-linejoin:round;stroke-miterlimit:10;" width="9.02" height="16.63"></rect>
		
			<rect x="794.56" y="1403.85" transform="matrix(-2.479681e-05 1 -1 -2.479681e-05 2211.2546 613.1352)" style="fill:none;stroke:#000000;stroke-linecap:round;stroke-linejoin:round;stroke-miterlimit:10;" width="9.02" height="16.63"></rect>
	</g>
	<g>
		<path style="fill:none;stroke:#000000;stroke-linecap:round;stroke-linejoin:round;stroke-miterlimit:10;" d="M659.24,1216.68
			c0-83.71-67.71-152.24-151.42-152.24l0,150.99"></path>
		
			<rect x="498.79" y="1215.43" style="fill:none;stroke:#000000;stroke-linecap:round;stroke-linejoin:round;stroke-miterlimit:10;" width="9.02" height="16.63"></rect>
		
			<rect x="659.24" y="1215.43" style="fill:none;stroke:#000000;stroke-linecap:round;stroke-linejoin:round;stroke-miterlimit:10;" width="9.02" height="16.63"></rect>
	</g>
	<g>
		<path style="fill:none;stroke:#000000;stroke-linecap:round;stroke-linejoin:round;stroke-miterlimit:10;" d="M1293.83,956.71
			c0,94.17-76.17,171.27-170.35,171.27l0-169.86"></path>
		
			<rect x="1113.33" y="939.41" style="fill:none;stroke:#000000;stroke-linecap:round;stroke-linejoin:round;stroke-miterlimit:10;" width="10.15" height="18.71"></rect>
		
			<rect x="1293.83" y="939.41" style="fill:none;stroke:#000000;stroke-linecap:round;stroke-linejoin:round;stroke-miterlimit:10;" width="10.15" height="18.71"></rect>
	</g>
	<g>
		<g id="LWPOLYLINE_88_">
			
				<rect x="720.37" y="605.99" style="fill:none;stroke:#000000;stroke-linecap:round;stroke-linejoin:round;stroke-miterlimit:10;" width="124.98" height="124.98"></rect>
		</g>
		<g id="LWPOLYLINE_87_">
			
				<line style="fill:none;stroke:#000000;stroke-linecap:round;stroke-linejoin:round;stroke-miterlimit:10;" x1="793.28" y1="637.24" x2="834.94" y2="637.24"></line>
		</g>
		<g id="LWPOLYLINE_86_">
			
				<line style="fill:none;stroke:#000000;stroke-linecap:round;stroke-linejoin:round;stroke-miterlimit:10;" x1="814.11" y1="658.08" x2="814.11" y2="616.41"></line>
		</g>
		<g id="CIRCLE_176_">
			<path style="fill:none;stroke:#000000;stroke-linecap:round;stroke-linejoin:round;stroke-miterlimit:10;" d="M814.11,620.58
				c9.2,0,16.67,7.46,16.67,16.67c0,9.2-7.46,16.67-16.67,16.67c-9.2,0-16.67-7.46-16.67-16.67S804.9,620.58,814.11,620.58
				L814.11,620.58z"></path>
		</g>
		<g id="LWPOLYLINE_85_">
			
				<line style="fill:none;stroke:#000000;stroke-linecap:round;stroke-linejoin:round;stroke-miterlimit:10;" x1="730.79" y1="637.24" x2="772.45" y2="637.24"></line>
		</g>
		<g id="LWPOLYLINE_84_">
			
				<line style="fill:none;stroke:#000000;stroke-linecap:round;stroke-linejoin:round;stroke-miterlimit:10;" x1="751.62" y1="658.07" x2="751.62" y2="616.41"></line>
		</g>
		<g id="CIRCLE_175_">
			<path style="fill:none;stroke:#000000;stroke-linecap:round;stroke-linejoin:round;stroke-miterlimit:10;" d="M751.61,620.58
				c9.21,0,16.67,7.46,16.67,16.67s-7.46,16.67-16.67,16.67c-9.21,0-16.67-7.46-16.67-16.67
				C734.94,628.04,742.4,620.58,751.61,620.58L751.61,620.58z"></path>
		</g>
		<g id="LWPOLYLINE_83_">
			
				<line style="fill:none;stroke:#000000;stroke-linecap:round;stroke-linejoin:round;stroke-miterlimit:10;" x1="730.78" y1="699.73" x2="772.45" y2="699.73"></line>
		</g>
		<g id="LWPOLYLINE_82_">
			
				<line style="fill:none;stroke:#000000;stroke-linecap:round;stroke-linejoin:round;stroke-miterlimit:10;" x1="751.61" y1="720.56" x2="751.62" y2="678.9"></line>
		</g>
		<g id="CIRCLE_174_">
			<path style="fill:none;stroke:#000000;stroke-linecap:round;stroke-linejoin:round;stroke-miterlimit:10;" d="M751.61,683.07
				c9.21,0,16.67,7.46,16.67,16.67c0,9.21-7.46,16.67-16.67,16.67c-9.21,0-16.67-7.46-16.67-16.67S742.4,683.07,751.61,683.07
				L751.61,683.07z"></path>
		</g>
		<g id="LWPOLYLINE_81_">
			
				<line style="fill:none;stroke:#000000;stroke-linecap:round;stroke-linejoin:round;stroke-miterlimit:10;" x1="793.27" y1="699.73" x2="834.94" y2="699.73"></line>
		</g>
		<g id="LWPOLYLINE_80_">
			
				<line style="fill:none;stroke:#000000;stroke-linecap:round;stroke-linejoin:round;stroke-miterlimit:10;" x1="814.1" y1="720.57" x2="814.11" y2="678.9"></line>
		</g>
		<g id="CIRCLE_173_">
			<path style="fill:none;stroke:#000000;stroke-linecap:round;stroke-linejoin:round;stroke-miterlimit:10;" d="M814.11,683.07
				c9.2,0,16.67,7.46,16.67,16.67c0,9.2-7.46,16.67-16.67,16.67c-9.2,0-16.67-7.46-16.67-16.67
				C797.44,690.53,804.9,683.07,814.11,683.07L814.11,683.07z"></path>
		</g>
	</g>
	<g>
		<g id="LWPOLYLINE_17_">
			
				<rect x="720.37" y="382.33" style="fill:none;stroke:#000000;stroke-linecap:round;stroke-linejoin:round;stroke-miterlimit:10;" width="124.98" height="124.98"></rect>
		</g>
		<g id="LWPOLYLINE_16_">
			<path style="fill:none;stroke:#000000;stroke-linecap:round;stroke-linejoin:round;stroke-miterlimit:10;" d="M827.65,392.75
				l-79.1,0c-4.03,0-7.29,3.26-7.29,7.29c0,0,0,89.57,0,89.57c0,4.03,3.26,7.29,7.29,7.29c0,0,79.11,0,79.11,0
				c4.03,0,7.29-3.26,7.29-7.29c0,0,0-89.58,0-89.58C834.94,396.01,831.68,392.75,827.65,392.75z"></path>
		</g>
		<g id="LWPOLYLINE_15_">
			<path style="fill:none;stroke:#000000;stroke-linecap:round;stroke-linejoin:round;stroke-miterlimit:10;" d="M768.82,423.99
				c0-4.04-3.27-7.31-7.31-7.31c-4.04,0-7.31,3.27-7.31,7.31c0,4.04,3.27,7.31,7.31,7.31C765.55,431.3,768.82,428.03,768.82,423.99z
				"></path>
		</g>
	</g>
	<g>
		<g>
			<g id="LWPOLYLINE_14_">
				<path style="fill:none;stroke:#000000;stroke-linecap:round;stroke-linejoin:round;stroke-miterlimit:10;" d="M493.39,1592.71
					l0-59.85c0-8.43,5.44-15.9,13.47-18.49c29.12-9.38,60.45-9.38,89.57,0c8.02,2.59,13.47,10.06,13.47,18.49l0,59.85"></path>
			</g>
			<g id="LWPOLYLINE_13_">
				<path style="fill:none;stroke:#000000;stroke-linecap:round;stroke-linejoin:round;stroke-miterlimit:10;" d="M582.71,1575.96
					c6.44,0,11.65-5.22,11.65-11.65v-18.65c0-4.27-2.78-8.03-6.86-9.28c-23.37-7.16-48.34-7.16-71.71,0
					c-4.08,1.25-6.87,5.02-6.87,9.28v18.65c0,6.44,5.22,11.66,11.66,11.66"></path>
			</g>
			<g id="LWPOLYLINE_12_">
				<path style="fill:none;stroke:#000000;stroke-linecap:round;stroke-linejoin:round;stroke-miterlimit:10;" d="M501.16,1564.31
					c0,6.44,5.22,11.65,11.65,11.65h77.67c6.44,0,11.65-5.22,11.65-11.65v-31.46c0-5.06-3.26-9.54-8.08-11.09
					c-27.57-8.88-57.24-8.88-84.81,0c-4.82,1.55-8.08,6.03-8.08,11.09L501.16,1564.31z"></path>
			</g>
			<g id="LWPOLYLINE_11_">
				<path style="fill:none;stroke:#000000;stroke-linecap:round;stroke-linejoin:round;stroke-miterlimit:10;" d="M551.64,1572.49
					c2.89,0,5.23-2.34,5.23-5.22c0-2.89-2.35-5.23-5.23-5.22c-2.88,0-5.22,2.34-5.22,5.22
					C546.42,1570.15,548.76,1572.49,551.64,1572.49z"></path>
			</g>
		</g>
		<g>
			<g id="LWPOLYLINE_10_">
				
					<rect x="340.03" y="1230.49" style="fill:none;stroke:#000000;stroke-linecap:round;stroke-linejoin:round;stroke-miterlimit:10;" width="147.45" height="361.69"></rect>
			</g>
			<g id="LWPOLYLINE_9_">
				<path style="fill:none;stroke:#000000;stroke-linecap:round;stroke-linejoin:round;stroke-miterlimit:10;" d="M351.83,1280.43
					l0,235.02c0,34.2,27.72,61.92,61.92,61.92c34.2,0,61.93-27.72,61.93-61.92l0-235.02c0.01-16.34-13.14-29.65-29.48-29.84h-64.88
					c-16.29,0-29.49,13.2-29.49,29.49"></path>
			</g>
			<g id="LWPOLYLINE_8_">
				<path style="fill:none;stroke:#000000;stroke-linecap:round;stroke-linejoin:round;stroke-miterlimit:10;" d="M368.68,1354.05
					l0,161.39c0,24.9,20.18,45.08,45.08,45.08c24.9,0,45.08-20.18,45.07-45.08l0-159.07c-0.02-23.98-18.8-43.76-42.75-45.01
					C391.2,1310.06,369.98,1329.17,368.68,1354.05z"></path>
			</g>
			<g id="LWPOLYLINE_7_">
				<path style="fill:none;stroke:#000000;stroke-linecap:round;stroke-linejoin:round;stroke-miterlimit:10;" d="M413.76,1523.7
					c4.56,0,8.25-3.7,8.25-8.25c0-4.56-3.7-8.26-8.25-8.25c-4.56,0-8.26,3.7-8.25,8.25C405.5,1520,409.2,1523.7,413.76,1523.7z"></path>
			</g>
		</g>
		<g>
			<g id="LWPOLYLINE_6_">
				
					<rect x="576.32" y="550.62" style="fill:none;stroke:#000000;stroke-linecap:round;stroke-linejoin:round;stroke-miterlimit:10;" width="127.1" height="126.95"></rect>
			</g>
			<g id="LWPOLYLINE_5_">
				<polyline style="fill:none;stroke:#000000;stroke-linecap:round;stroke-linejoin:round;stroke-miterlimit:10;" points="
					676.36,586.06 639.87,628.39 639.87,599.65 603.39,641.99 				"></polyline>
			</g>
			<g id="LWPOLYLINE_4_">
				<path style="fill:none;stroke:#000000;stroke-linecap:round;stroke-linejoin:round;stroke-miterlimit:10;" d="M639.87,582.09
					c-17.64,0-31.93,14.3-31.93,31.93c0,17.64,14.3,31.94,31.93,31.94c17.64,0,31.94-14.3,31.94-31.94
					C671.81,596.38,657.51,582.09,639.87,582.09z"></path>
			</g>
		</g>
		<g>
			<g id="LWPOLYLINE_3_">
				<path style="fill:none;stroke:#000000;stroke-linecap:round;stroke-linejoin:round;stroke-miterlimit:10;" d="M667.94,1529.75
					v-73.99c0-19.58,15.87-35.45,35.45-35.45c19.58,0,35.45,15.87,35.45,35.45v73.99"></path>
				
					<line style="fill:none;stroke:#000000;stroke-linecap:round;stroke-linejoin:round;stroke-miterlimit:10;" x1="738.85" y1="1529.75" x2="667.94" y2="1529.75"></line>
			</g>
			<g id="LWPOLYLINE_2_">
				<path style="fill:none;stroke:#000000;stroke-linecap:round;stroke-linejoin:round;stroke-miterlimit:10;" d="M731.75,1455.76
					v24.2c0,15.66-12.7,28.36-28.36,28.36c-15.66,0-28.36-12.69-28.37-28.36v-24.2c0-15.66,12.7-28.36,28.36-28.36
					C719.05,1427.4,731.75,1440.1,731.75,1455.76z"></path>
			</g>
			<g id="LWPOLYLINE_1_">
				<path style="fill:none;stroke:#000000;stroke-linecap:round;stroke-linejoin:round;stroke-miterlimit:10;" d="M714.03,1470.11
					l0,12.43c0,5.87-4.76,10.63-10.63,10.63c-5.87,0-10.63-4.76-10.63-10.63v-12.43c0-5.87,4.76-10.63,10.63-10.63
					C709.26,1459.48,714.03,1464.24,714.03,1470.11z"></path>
			</g>
		</g>
	</g>
	<g>
		
			<line style="fill:none;stroke:#000000;stroke-linecap:round;stroke-linejoin:round;stroke-miterlimit:10;" x1="1860.25" y1="556.54" x2="1860.25" y2="879.86"></line>
		
			<line style="fill:none;stroke:#000000;stroke-linecap:round;stroke-linejoin:round;stroke-miterlimit:10;" x1="1788.03" y1="555.53" x2="1788.03" y2="880.87"></line>
		
			<line style="fill:none;stroke:#000000;stroke-linecap:round;stroke-linejoin:round;stroke-miterlimit:10;" x1="1899.99" y1="556.54" x2="1899.99" y2="880.87"></line>
		
			<line style="fill:none;stroke:#000000;stroke-linecap:round;stroke-linejoin:round;stroke-miterlimit:10;" x1="1872.96" y1="556.54" x2="1872.96" y2="880.87"></line>
		
			<line style="fill:none;stroke:#000000;stroke-linecap:round;stroke-linejoin:round;stroke-miterlimit:10;" x1="1860.25" y1="672.35" x2="1872.96" y2="672.35"></line>
		
			<line style="fill:none;stroke:#000000;stroke-linecap:round;stroke-linejoin:round;stroke-miterlimit:10;" x1="1860.25" y1="688.24" x2="1872.96" y2="688.24"></line>
		
			<line style="fill:none;stroke:#000000;stroke-linecap:round;stroke-linejoin:round;stroke-miterlimit:10;" x1="1860.25" y1="868.3" x2="1872.96" y2="868.3"></line>
		
			<line style="fill:none;stroke:#000000;stroke-linecap:round;stroke-linejoin:round;stroke-miterlimit:10;" x1="1860.3" y1="565.37" x2="1873.01" y2="565.37"></line>
		
			<line style="fill:none;stroke:#000000;stroke-linecap:round;stroke-linejoin:round;stroke-miterlimit:10;" x1="1866.46" y1="565.37" x2="1866.46" y2="672.35"></line>
		
			<line style="fill:none;stroke:#000000;stroke-linecap:round;stroke-linejoin:round;stroke-miterlimit:10;" x1="1866.51" y1="688.24" x2="1866.51" y2="868.3"></line>
		<path style="fill:none;stroke:#000000;stroke-linecap:round;stroke-linejoin:round;stroke-miterlimit:10;" d="M1860.25,688.65
			c-40.28,0-76.1,19.79-103.44,54.14"></path>
		
			<line style="fill:none;stroke:#000000;stroke-linecap:round;stroke-linejoin:round;stroke-miterlimit:10;" x1="1860.25" y1="876.42" x2="1756.81" y2="742.79"></line>
	</g>
	<g>
		
			<line style="fill:none;stroke:#000000;stroke-linecap:round;stroke-linejoin:round;stroke-miterlimit:10;" x1="1860.25" y1="1128.82" x2="1860.25" y2="1515.37"></line>
		
			<line style="fill:none;stroke:#000000;stroke-linecap:round;stroke-linejoin:round;stroke-miterlimit:10;" x1="1830.4" y1="1127.81" x2="1830.4" y2="1516.38"></line>
		
			<line style="fill:none;stroke:#000000;stroke-linecap:round;stroke-linejoin:round;stroke-miterlimit:10;" x1="1899.99" y1="1128.82" x2="1899.99" y2="1516.38"></line>
		
			<line style="fill:none;stroke:#000000;stroke-linecap:round;stroke-linejoin:round;stroke-miterlimit:10;" x1="1872.96" y1="1128.82" x2="1872.96" y2="1516.38"></line>
		
			<line style="fill:none;stroke:#000000;stroke-linecap:round;stroke-linejoin:round;stroke-miterlimit:10;" x1="1860.25" y1="1267.1" x2="1872.96" y2="1267.1"></line>
		
			<line style="fill:none;stroke:#000000;stroke-linecap:round;stroke-linejoin:round;stroke-miterlimit:10;" x1="1860.25" y1="1282.98" x2="1872.96" y2="1282.98"></line>
		
			<line style="fill:none;stroke:#000000;stroke-linecap:round;stroke-linejoin:round;stroke-miterlimit:10;" x1="1860.25" y1="1502.05" x2="1872.96" y2="1502.05"></line>
		
			<line style="fill:none;stroke:#000000;stroke-linecap:round;stroke-linejoin:round;stroke-miterlimit:10;" x1="1860.3" y1="1139.99" x2="1873.01" y2="1139.99"></line>
		
			<line style="fill:none;stroke:#000000;stroke-linecap:round;stroke-linejoin:round;stroke-miterlimit:10;" x1="1866.46" y1="1139.99" x2="1866.46" y2="1267.1"></line>
		
			<line style="fill:none;stroke:#000000;stroke-linecap:round;stroke-linejoin:round;stroke-miterlimit:10;" x1="1866.51" y1="1282.98" x2="1866.51" y2="1502.05"></line>
	</g>
	
		<line style="fill:none;stroke:#000000;stroke-linecap:round;stroke-linejoin:round;stroke-miterlimit:10;stroke-dasharray:10,10;" x1="582.71" y1="848.53" x2="399.01" y2="848.53"></line>
	
		<line style="fill:none;stroke:#000000;stroke-linecap:round;stroke-linejoin:round;stroke-miterlimit:10;stroke-dasharray:10,10;" x1="711.9" y1="1088.18" x2="711.9" y2="859.12"></line>
	
		<line style="fill:none;stroke:#000000;stroke-linecap:round;stroke-linejoin:round;stroke-miterlimit:10;stroke-dasharray:10,10;" x1="1080.49" y1="1470.83" x2="1080.49" y2="1263.59"></line>
</g>
</svg>
