<?xml version="1.0" encoding="utf-8"?>
<!-- Generator: Adobe Illustrator 24.1.2, SVG Export Plug-In . SVG Version: 6.00 Build 0)  -->
<svg version="1.1" id="Layer_1" xmlns="http://www.w3.org/2000/svg" xmlns:xlink="http://www.w3.org/1999/xlink" xmlns:a="http://ns.adobe.com/AdobeSVGViewerExtensions/3.0/" x="0px" y="0px" width="2000px" height="2000px" viewBox="0 0 2000 2000" style="enable-background:new 0 0 2000 2000;" xml:space="preserve">
<path id="background" style="fill:#FFFFFF;" d="M1900,834.7v330.02c0.27,0.01,0.49,0.22,0.49,0.5v401c0,0.27-0.22,0.49-0.49,0.5
	v122.66h-42.12v0.01H326.11v0.02h-44.33v-394.58h22.65c0,0,0,0,0,0v-10.99H100c-0.28,0-0.5-0.22-0.5-0.5
	c0-112.8,91.76-204.66,204.93-205.64v-11.2c0-0.01,0-0.02,0.01-0.03h-22.66V310.58h35.72h11.06h1511.59h17.73H1900v122.53
	c0.28,0,0.5,0.22,0.5,0.5V834.2C1900.5,834.48,1900.28,834.7,1900,834.7z"></path>
<g id="g2">
	<path id="g2_path" style="fill:none;" d="M983.91,758.87l0.68-340.03h149.04l-0.68,340.03H983.91z"></path>
	<text id="g2_text" transform="matrix(1 0 0 1 1034.4304 582.9285)" style="font-family: GraphikLCG-Regular; font-size: 40px; text-anchor: middle; text-align: center;"></text>
</g>
<g id="r1">
	<path id="r1_path" style="fill:none;" d="M1256.06,925.82v-0.06l-102.69,0.12l0.05-484.2h285.98v484.13H1256.06z"></path>
	
		<text id="r1_text" transform="matrix(1 0 0 1 1234.8513 687.7352)" style="font-family: GraphikLCG-Regular; font-size: 40px; text-anchor: middle; text-align: center;"></text>
</g>
<g id="h1">
	<path id="h1_path" style="fill:none;" d="M581.16,874.54v430.45l-273.3,0l-0.01-430.45L581.16,874.54z"></path>
	
		<text id="h1_text" transform="matrix(1 0 0 1 425.6146 1112.9597)" style="font-family: GraphikLCG-Regular; font-size: 40px; text-anchor: middle; text-align: center;"></text>
</g>
<g id="c1">
	<path id="c1_path" style="fill:none;" d="M757.11,1332.71V896.7h335.05v436.01H757.11z"></path>
	
		<text id="c1_text" transform="matrix(1 0 0 1 908.8484 1117.5417)" style="font-family: GraphikLCG-Regular; font-size: 40px; text-anchor: middle; text-align: center;"></text>
</g>
<g id="s1">
	<path id="s1_path" style="fill:none;" d="M460.95,774.55V415.88h207.59v358.67H460.95z"></path>
	<text id="s1_text" transform="matrix(1 0 0 1 547.5174 645.7762)" style="font-family: GraphikLCG-Regular; font-size: 40px; text-anchor: middle; text-align: center;"></text>
</g>
<g id="g1">
	<path id="g1_path" style="fill:none;" d="M306.78,1577.42v-262.66H560v262.66H306.78z"></path>
	<text id="g1_text" transform="matrix(1 0 0 1 390.784 1404.7546)" style="font-family: GraphikLCG-Regular; font-size: 40px; text-anchor: middle; text-align: center;"></text>
</g>
<path id="u3" style="fill:#FFFFFF;stroke:#FFFFFF;stroke-linecap:round;stroke-linejoin:round;stroke-miterlimit:10;" d="
	M529.63,1427.82c0,10.03-8.13,18.16-18.16,18.16c-10.03,0-18.16-8.13-18.16-18.16c0-10.03,8.13-18.16,18.16-18.16
	C521.5,1409.66,529.63,1417.79,529.63,1427.82z"></path>
<path id="u7" style="fill:#FFFFFF;stroke:#FFFFFF;stroke-linecap:round;stroke-linejoin:round;stroke-miterlimit:10;" d="
	M1256.24,1196.7c0,10.03-8.13,18.16-18.16,18.16c-10.03,0-18.16-8.13-18.16-18.16c0-10.03,8.13-18.16,18.16-18.16
	C1248.11,1178.54,1256.24,1186.67,1256.24,1196.7z"></path>
<g id="mebel">
	<g>
		<g>
			<g>
				<path style="fill:none;stroke:#000000;stroke-linecap:round;stroke-linejoin:round;stroke-miterlimit:10;" d="M875.95,865.97
					l-7.66,0.67c0.06-0.62,0.08-1.24,0.02-1.88c-0.06-0.64-0.19-1.25-0.35-1.84l7.66-0.67c0.59-0.05,1.12,0.39,1.17,0.98l0.14,1.57
					C876.98,865.4,876.54,865.92,875.95,865.97z"></path>
				
					<circle style="fill:none;stroke:#000000;stroke-linecap:round;stroke-linejoin:round;stroke-miterlimit:10;" cx="857.86" cy="865.69" r="10.49"></circle>
			</g>
			<g>
				<path style="fill:none;stroke:#000000;stroke-linecap:round;stroke-linejoin:round;stroke-miterlimit:10;" d="M816.58,848.71
					l0.67,7.66c-0.62-0.06-1.24-0.08-1.88-0.02s-1.25,0.19-1.84,0.35l-0.67-7.66c-0.05-0.59,0.39-1.12,0.98-1.17l1.57-0.14
					C816,847.68,816.53,848.12,816.58,848.71z"></path>
				
					<circle style="fill:none;stroke:#000000;stroke-linecap:round;stroke-linejoin:round;stroke-miterlimit:10;" cx="816.29" cy="866.8" r="10.49"></circle>
			</g>
		</g>
	</g>
	<g>
		<polygon style="fill:none;stroke:#000000;stroke-linecap:round;stroke-linejoin:round;stroke-miterlimit:10;" points="
			996.65,917.55 1130.79,917.55 1130.79,783.43 996.65,783.41 		"></polygon>
		<g>
			
				<line style="fill:none;stroke:#000000;stroke-linecap:round;stroke-linejoin:round;stroke-miterlimit:10;" x1="1063.72" y1="818.19" x2="1063.72" y2="882.77"></line>
			
				<line style="fill:none;stroke:#000000;stroke-linecap:round;stroke-linejoin:round;stroke-miterlimit:10;" x1="1031.43" y1="850.48" x2="1096.01" y2="850.48"></line>
			<polyline style="fill:none;stroke:#000000;stroke-linecap:round;stroke-linejoin:round;stroke-miterlimit:10;" points="
				1047.57,825.37 1063.72,834.34 1079.86,825.37 			"></polyline>
			<polyline style="fill:none;stroke:#000000;stroke-linecap:round;stroke-linejoin:round;stroke-miterlimit:10;" points="
				1088.83,834.34 1079.86,850.48 1088.83,866.63 			"></polyline>
			<polyline style="fill:none;stroke:#000000;stroke-linecap:round;stroke-linejoin:round;stroke-miterlimit:10;" points="
				1079.86,875.6 1063.72,866.63 1047.57,875.6 			"></polyline>
			<polyline style="fill:none;stroke:#000000;stroke-linecap:round;stroke-linejoin:round;stroke-miterlimit:10;" points="
				1038.6,866.63 1047.57,850.48 1038.6,834.34 			"></polyline>
		</g>
	</g>
	<g>
		<polygon style="fill:none;stroke:#000000;stroke-linecap:round;stroke-linejoin:round;stroke-miterlimit:10;" points="
			832.67,1507.25 832.67,1407.17 698.55,1407.17 698.53,1507.25 		"></polygon>
		<path style="fill:none;stroke:#000000;stroke-linecap:round;stroke-linejoin:round;stroke-miterlimit:10;" d="M737.51,1456.59
			l32.39-14.22c1.98-0.77,4.16-1.2,6.45-1.2c9.19,0,16.64,6.91,16.64,15.42c0,8.52-7.45,15.42-16.64,15.42
			c-2.29,0-4.46-0.43-6.45-1.2L737.51,1456.59z"></path>
	</g>
	<g>
		<polygon style="fill:none;stroke:#000000;stroke-linecap:round;stroke-linejoin:round;stroke-miterlimit:10;" points="
			832.67,1640.54 832.67,1137.69 698.56,1137.69 698.53,1640.54 		"></polygon>
	</g>
	<g>
		<polygon style="fill:none;stroke:#000000;stroke-linecap:round;stroke-linejoin:round;stroke-miterlimit:10;" points="
			698.53,917.55 996.65,917.55 996.65,783.43 698.53,783.41 		"></polygon>
	</g>
	<g>
		<g>
			<g>
				
					<circle style="fill:none;stroke:#000000;stroke-linecap:round;stroke-linejoin:round;stroke-miterlimit:10;" cx="1732.37" cy="425.07" r="8.21"></circle>
				
					<circle style="fill:none;stroke:#000000;stroke-linecap:round;stroke-linejoin:round;stroke-miterlimit:10;" cx="1732.37" cy="425.07" r="5.81"></circle>
				
					<line style="fill:none;stroke:#000000;stroke-linecap:round;stroke-linejoin:round;stroke-miterlimit:10;" x1="1737.16" y1="418.91" x2="1740.7" y2="414.35"></line>
				<path style="fill:none;stroke:#000000;stroke-linecap:round;stroke-linejoin:round;stroke-miterlimit:10;" d="M1753.28,426.34
					c0.39-6.43-2.23-12.29-6.57-16.4l-3.16,4.05c-0.69,0.89-1.98,1.05-2.87,0.35c-0.55-0.43-0.82-1.09-0.78-1.74
					c0.02-0.4,0.16-0.79,0.43-1.13l3.15-4.05c-2.89-1.82-6.2-3.04-9.85-3.26c-11.55-0.7-21.47,8.1-22.17,19.64
					c-0.7,11.55,8.1,21.47,19.64,22.17C1742.65,446.68,1752.58,437.88,1753.28,426.34z"></path>
				<g>
					
						<rect x="1766.13" y="381.63" transform="matrix(0.6142 -0.7891 0.7891 0.6142 379.9281 1544.5498)" style="fill:none;stroke:#000000;stroke-linecap:round;stroke-linejoin:round;stroke-miterlimit:10;" width="7.26" height="4.09"></rect>
					
						<rect x="1759.68" y="376.62" transform="matrix(0.6142 -0.7891 0.7891 0.6142 381.3946 1537.5215)" style="fill:none;stroke:#000000;stroke-linecap:round;stroke-linejoin:round;stroke-miterlimit:10;" width="7.26" height="4.08"></rect>
				</g>
				<g>
					<path style="fill:none;stroke:#000000;stroke-linecap:round;stroke-linejoin:round;stroke-miterlimit:10;" d="M1756.32,397.6
						c1.72,0.96,3.66,1.59,5.76,1.71c7.53,0.46,14-5.28,14.45-12.8c0.24-3.9-1.21-7.49-3.68-10.13L1756.32,397.6z"></path>
					<path style="fill:none;stroke:#000000;stroke-linecap:round;stroke-linejoin:round;stroke-miterlimit:10;" d="M1769.63,373.87
						c-1.76-1.01-3.74-1.68-5.9-1.81c-7.53-0.46-14,5.28-14.45,12.8c-0.24,3.96,1.26,7.59,3.81,10.25L1769.63,373.87z"></path>
				</g>
				<g>
					<path style="fill:none;stroke:#000000;stroke-linecap:round;stroke-linejoin:round;stroke-miterlimit:10;" d="M1739.9,412.61
						c0.02-0.4,0.16-0.79,0.43-1.13l33.56-43.08c0.69-0.89,1.98-1.05,2.87-0.35c0.89,0.69,1.05,1.97,0.36,2.87l-33.56,43.08
						c-0.69,0.89-1.98,1.05-2.87,0.35C1740.14,413.91,1739.87,413.26,1739.9,412.61z"></path>
				</g>
			</g>
			<g>
				
					<circle style="fill:none;stroke:#000000;stroke-linecap:round;stroke-linejoin:round;stroke-miterlimit:10;" cx="1316.85" cy="424.28" r="8.21"></circle>
				
					<circle style="fill:none;stroke:#000000;stroke-linecap:round;stroke-linejoin:round;stroke-miterlimit:10;" cx="1316.85" cy="424.28" r="5.81"></circle>
				
					<line style="fill:none;stroke:#000000;stroke-linecap:round;stroke-linejoin:round;stroke-miterlimit:10;" x1="1311.88" y1="418.27" x2="1308.21" y2="413.82"></line>
				<path style="fill:none;stroke:#000000;stroke-linecap:round;stroke-linejoin:round;stroke-miterlimit:10;" d="M1322.65,404.16
					c-6.19-1.78-12.48-0.5-17.44,2.83l3.27,3.97c0.72,0.87,0.59,2.16-0.28,2.87c-0.54,0.45-1.24,0.56-1.86,0.39
					c-0.38-0.11-0.74-0.33-1.01-0.66l-3.26-3.96c-2.41,2.42-4.32,5.39-5.33,8.9c-3.2,11.12,3.21,22.72,14.33,25.92
					c11.12,3.2,22.72-3.21,25.92-14.33C1340.18,418.97,1333.76,407.36,1322.65,404.16z"></path>
				<g>
					
						<rect x="1282.57" y="375.13" transform="matrix(0.7717 -0.636 0.636 0.7717 52.3931 903.4762)" style="fill:none;stroke:#000000;stroke-linecap:round;stroke-linejoin:round;stroke-miterlimit:10;" width="4.09" height="7.26"></rect>
					
						<rect x="1276.27" y="380.32" transform="matrix(0.7717 -0.636 0.636 0.7717 47.6479 900.6472)" style="fill:none;stroke:#000000;stroke-linecap:round;stroke-linejoin:round;stroke-miterlimit:10;" width="4.08" height="7.26"></rect>
				</g>
				<g>
					<path style="fill:none;stroke:#000000;stroke-linecap:round;stroke-linejoin:round;stroke-miterlimit:10;" d="M1295.27,394.92
						c1.31-1.47,2.35-3.22,2.93-5.24c2.09-7.25-2.09-14.81-9.34-16.9c-3.75-1.08-7.57-0.46-10.69,1.38L1295.27,394.92z"></path>
					<path style="fill:none;stroke:#000000;stroke-linecap:round;stroke-linejoin:round;stroke-miterlimit:10;" d="M1275.02,376.75
						c-1.37,1.5-2.45,3.29-3.05,5.37c-2.09,7.24,2.09,14.81,9.34,16.9c3.81,1.1,7.69,0.43,10.83-1.48L1275.02,376.75z"></path>
				</g>
				<g>
					<path style="fill:none;stroke:#000000;stroke-linecap:round;stroke-linejoin:round;stroke-miterlimit:10;" d="M1306.33,414.21
						c-0.38-0.11-0.74-0.33-1.01-0.66l-34.71-42.15c-0.72-0.87-0.59-2.16,0.28-2.87c0.87-0.72,2.15-0.59,2.87,0.28l34.71,42.15
						c0.72,0.87,0.59,2.16-0.28,2.87C1307.66,414.27,1306.95,414.39,1306.33,414.21z"></path>
				</g>
			</g>
			<g>
				<g>
					<g>
						<g>
							<g>
								<g>
									
										<rect x="1345.17" y="359.29" transform="matrix(-1 -3.375001e-06 3.375001e-06 -1 3050.4165 733.1984)" style="fill:none;stroke:#000000;stroke-linecap:round;stroke-linejoin:round;stroke-miterlimit:10;" width="360.08" height="14.61"></rect>
									
										<rect x="1345.17" y="373.9" transform="matrix(-1 -3.375001e-06 3.375001e-06 -1 3050.4143 1203.4932)" style="fill:none;stroke:#000000;stroke-linecap:round;stroke-linejoin:round;stroke-miterlimit:10;" width="360.08" height="455.69"></rect>
									<path style="fill:none;stroke:#000000;stroke-linecap:round;stroke-linejoin:round;stroke-miterlimit:10;" d="
										M1531.51,449.05l-12.39,0l0-35.97c0-10.76-8.72-19.48-19.48-19.48l-107.99,0c-10.76,0-19.48,8.72-19.48,19.48l0,35.97
										l-12.39,0l0-62.98c0-2.69,2.18-4.87,4.87-4.87l321.12,0c2.69,0,4.87,2.18,4.87,4.87l0,62.98l-12.39,0l0-35.97
										c0-10.76-8.72-19.48-19.48-19.48l-107.78,0c-10.76,0-19.48,8.72-19.48,19.48L1531.51,449.05z"></path>
									<path style="fill:none;stroke:#000000;stroke-linecap:round;stroke-linejoin:round;stroke-miterlimit:10;" d="
										M1686.95,817.41l-323.48,0c-2.04,0-3.69-1.65-3.69-3.69l0-364.67l330.86,0l0,364.67
										C1690.64,815.76,1688.98,817.41,1686.95,817.41z"></path>
								</g>
							</g>
							
								<rect x="1254.56" y="367.51" transform="matrix(1.005445e-06 -1 1 1.005445e-06 895.266 1712.6759)" style="fill:none;stroke:#000000;stroke-linecap:round;stroke-linejoin:round;stroke-miterlimit:10;" width="98.83" height="82.39"></rect>
							
								<rect x="1697.03" y="367.51" transform="matrix(1.005445e-06 -1 1 1.005445e-06 1337.7396 2155.1499)" style="fill:none;stroke:#000000;stroke-linecap:round;stroke-linejoin:round;stroke-miterlimit:10;" width="98.83" height="82.39"></rect>
						</g>
					</g>
				</g>
			</g>
		</g>
		<g>
			<path style="fill:none;stroke:#000000;stroke-linecap:round;stroke-linejoin:round;stroke-miterlimit:10;" d="M1569.16,635.61
				l0.01-0.02c6.44-17.02,15.52-32.92,26.91-47.11l0.01-0.01c2.97-3.7,1.46-9.21-2.97-10.89l-0.02-0.01
				c-17.02-6.44-32.92-15.52-47.11-26.91l-0.01-0.01c-3.7-2.97-9.21-1.46-10.89,2.97l-0.01,0.02c-3.03,8.02-6.7,15.77-10.88,23.23
				c10.02,2.01,20.19,3.24,30.43,3.64l6.04,0.23c2.7,0.1,4.52,2.82,3.58,5.35l-2.09,5.67c-4.5,12.2-7.04,25.02-7.55,38.01
				l-0.23,5.92c1.28,0.97,2.61,1.86,3.87,2.86l0.01,0.01C1561.97,641.55,1567.48,640.04,1569.16,635.61z"></path>
			<path style="fill:none;stroke:#000000;stroke-linecap:round;stroke-linejoin:round;stroke-miterlimit:10;" d="M1478.21,625.36
				l6.04,0.23c20.2,0.78,40.14,4.74,59.11,11.73l5.67,2.09c2.54,0.94,5.25-0.88,5.35-3.58l0.23-6.04
				c0.5-12.99,3.05-25.82,7.54-38.01l2.09-5.67c0.94-2.54-0.88-5.25-3.58-5.35l-6.04-0.23c-20.2-0.78-40.14-4.74-59.11-11.73
				l-5.67-2.09c-2.54-0.94-5.25,0.88-5.35,3.58l-0.23,6.04c-0.5,12.99-3.05,25.82-7.54,38.01l-2.09,5.67
				C1473.69,622.54,1475.5,625.25,1478.21,625.36z"></path>
		</g>
	</g>
	<g>
		<g>
			<g>
				
					<rect x="1500.26" y="967.24" transform="matrix(-1.985569e-06 -1 1 -1.985569e-06 417.4984 2597.1475)" style="fill:none;stroke:#000000;stroke-linecap:round;stroke-linejoin:round;stroke-miterlimit:10;" width="14.12" height="245.18"></rect>
				<polygon style="fill:none;stroke:#000000;stroke-linecap:round;stroke-linejoin:round;stroke-miterlimit:10;" points="
					1410.23,1068.65 1384.73,1082.77 1629.91,1082.77 1604.41,1068.65 				"></polygon>
			</g>
		</g>
		<g>
			
				<rect x="1484.86" y="954.28" transform="matrix(2.423319e-06 1 -1 2.423319e-06 2597.4812 -416.2174)" style="fill:none;stroke:#000000;stroke-linecap:round;stroke-linejoin:round;stroke-miterlimit:10;" width="43.97" height="272.72"></rect>
		</g>
	</g>
	<g>
		<g>
			<g>
				
					<rect x="1500.26" y="876.08" transform="matrix(-1.985613e-06 1 -1 -1.985613e-06 2505.9924 -508.6492)" style="fill:none;stroke:#000000;stroke-linecap:round;stroke-linejoin:round;stroke-miterlimit:10;" width="14.12" height="245.18"></rect>
				<polygon style="fill:none;stroke:#000000;stroke-linecap:round;stroke-linejoin:round;stroke-miterlimit:10;" points="
					1410.23,1019.85 1384.73,1005.73 1629.91,1005.73 1604.41,1019.85 				"></polygon>
			</g>
		</g>
		<g>
			
				<rect x="1484.86" y="861.5" transform="matrix(2.423364e-06 -1 1 2.423364e-06 508.9872 2504.7063)" style="fill:none;stroke:#000000;stroke-linecap:round;stroke-linejoin:round;stroke-miterlimit:10;" width="43.97" height="272.72"></rect>
		</g>
	</g>
	<g>
		<path style="fill:none;stroke:#000000;stroke-linecap:round;stroke-linejoin:round;stroke-miterlimit:10;" d="M1536.08,1321.56
			c0-9.26,0-41.75,0-51.01c0-9.47-8.16-14.31-18.28-15.89c-41.31-5.76-83.28-5.76-124.58,0c-10.13,1.58-18.28,6.42-18.28,15.89
			c0,9.26,0,41.75,0,51.01c0,9.47,8.16,14.31,18.28,15.89c41.31,5.76,83.28,5.76,124.58,0
			C1527.93,1335.87,1536.08,1331.03,1536.08,1321.56z"></path>
		<g>
			<polygon style="fill:none;stroke:#000000;stroke-linecap:round;stroke-linejoin:round;stroke-miterlimit:10;" points="
				1459.28,1279.14 1455.14,1276.9 1438.18,1308.21 1443.39,1311.03 1438.73,1313.87 1424.95,1291.23 1455.37,1272.71 			"></polygon>
			
				<line style="fill:none;stroke:#000000;stroke-linecap:round;stroke-linejoin:round;stroke-miterlimit:10;" x1="1461.5" y1="1280.34" x2="1467.9" y2="1274.52"></line>
			
				<line style="fill:none;stroke:#000000;stroke-linecap:round;stroke-linejoin:round;stroke-miterlimit:10;" x1="1426.03" y1="1293" x2="1456.44" y2="1274.48"></line>
			<g>
				<polygon style="fill:none;stroke:#000000;stroke-linecap:round;stroke-linejoin:round;stroke-miterlimit:10;" points="
					1478.44,1289.52 1459.57,1279.3 1466.51,1272.99 1484.33,1292.6 1469.43,1306.14 				"></polygon>
				<polygon style="fill:none;stroke:#000000;stroke-linecap:round;stroke-linejoin:round;stroke-miterlimit:10;" points="
					1442.74,1299.78 1440.16,1296.94 1448.28,1289.56 				"></polygon>
			</g>
			
				<rect x="1440.5" y="1285.61" transform="matrix(0.4763 -0.8793 0.8793 0.4763 -378.3632 1962.4487)" style="fill:none;stroke:#000000;stroke-linecap:round;stroke-linejoin:round;stroke-miterlimit:10;" width="35.61" height="26.5"></rect>
			
				<line style="fill:none;stroke:#000000;stroke-linecap:round;stroke-linejoin:round;stroke-miterlimit:10;" x1="1440" y1="1309.19" x2="1456.96" y2="1277.88"></line>
		</g>
	</g>
	<g>
		<g>
			<g>
				<path style="fill:none;stroke:#000000;stroke-linecap:round;stroke-linejoin:round;stroke-miterlimit:10;" d="M1414.71,1590.61
					h-138.94c-1.76,0-3.19,1.43-3.19,3.19l0,42.88c0,1.76,1.43,3.19,3.19,3.19l138.94,0c1.76,0,3.19-1.43,3.19-3.19v-42.88
					C1417.9,1592.04,1416.47,1590.61,1414.71,1590.61z"></path>
				<path style="fill:none;stroke:#000000;stroke-linecap:round;stroke-linejoin:round;stroke-miterlimit:10;" d="M1414.71,1590.61
					h-138.94c-1.76,0-3.19-1.43-3.19-3.19v-119.08c0-1.76,1.43-3.19,3.19-3.19l138.94,0c1.76,0,3.19,1.43,3.19,3.19l0,119.08
					C1417.9,1589.18,1416.47,1590.61,1414.71,1590.61z"></path>
				<path style="fill:none;stroke:#000000;stroke-linecap:round;stroke-linejoin:round;stroke-miterlimit:10;" d="M1560.03,1590.61
					h-138.94c-1.76,0-3.19,1.43-3.19,3.19v42.88c0,1.76,1.43,3.19,3.19,3.19l138.94,0c1.76,0,3.19-1.43,3.19-3.19l0-42.88
					C1563.22,1592.04,1561.79,1590.61,1560.03,1590.61z"></path>
				<path style="fill:none;stroke:#000000;stroke-linecap:round;stroke-linejoin:round;stroke-miterlimit:10;" d="M1560.03,1590.61
					h-138.94c-1.76,0-3.19-1.43-3.19-3.19l0-119.08c0-1.76,1.43-3.19,3.19-3.19l138.94,0c1.76,0,3.19,1.43,3.19,3.19v119.08
					C1563.22,1589.18,1561.79,1590.61,1560.03,1590.61z"></path>
				<path style="fill:none;stroke:#000000;stroke-linecap:round;stroke-linejoin:round;stroke-miterlimit:10;" d="M1715.04,1590.61
					l-148.63,0c-1.76,0-3.19,1.43-3.19,3.19v42.88c0,1.76,1.43,3.19,3.19,3.19l148.63,0c1.76,0,3.19-1.43,3.19-3.19l0-42.88
					C1718.23,1592.04,1716.8,1590.61,1715.04,1590.61z"></path>
				<path style="fill:none;stroke:#000000;stroke-linecap:round;stroke-linejoin:round;stroke-miterlimit:10;" d="M1715.04,1590.61
					l-148.63,0c-1.76,0-3.19-1.43-3.19-3.19l0-235c0-1.76,1.43-3.19,3.19-3.19l148.63,0c1.76,0,3.19,1.43,3.19,3.19l0,235
					C1718.23,1589.18,1716.8,1590.61,1715.04,1590.61z"></path>
			</g>
		</g>
		<g>
			<g>
				<path style="fill:none;stroke:#000000;stroke-linecap:round;stroke-linejoin:round;stroke-miterlimit:10;" d="M1681.46,1488.77
					c-0.03,0.14-0.06,0.29-0.11,0.43c-2.68,7.65-4.78,15.55-6.23,23.51s-2.28,16.09-2.46,24.18c0,0.17-0.02,0.32-0.04,0.46
					c-0.14,0.77-0.62,1.44-1.31,1.84c-0.4,0.23-1.2,0.56-2.21,0.23l-0.06-0.02c-15.36-5.39-31.4-8.31-47.68-8.68l-0.09,0
					c-1.04-0.05-1.67-0.64-1.96-0.99c-0.51-0.62-0.71-1.42-0.57-2.19c0.03-0.14,0.06-0.29,0.11-0.43
					c2.68-7.65,4.78-15.55,6.23-23.51s2.28-16.09,2.46-24.18c0-0.17,0.02-0.31,0.05-0.46c0.14-0.77,0.62-1.44,1.31-1.84
					c0.4-0.23,1.2-0.56,2.21-0.23l0.06,0.02c15.36,5.39,31.4,8.31,47.68,8.68l0.09,0c1.04,0.05,1.68,0.64,1.96,0.99
					C1681.39,1487.2,1681.6,1488,1681.46,1488.77z"></path>
			</g>
			<path style="fill:none;stroke:#000000;stroke-linecap:round;stroke-linejoin:round;stroke-miterlimit:10;" d="M1669.03,1539.39
				l0.06,0.02c1.01,0.33,1.81,0,2.21-0.23c0.69-0.4,1.17-1.07,1.31-1.84c0.03-0.14,0.04-0.29,0.05-0.46
				c0.16-7.12,0.91-14.25,2.05-21.28c6.3-1.16,12.56-2.61,18.7-4.55l0.06-0.02c1.01-0.3,1.81,0.05,2.2,0.29
				c0.68,0.42,1.13,1.11,1.25,1.88c0.02,0.14,0.03,0.29,0.03,0.46c-0.06,8.09,0.52,16.25,1.73,24.24c1.21,8,3.06,15.96,5.51,23.69
				c0.04,0.14,0.08,0.29,0.1,0.43c0.12,0.77-0.12,1.56-0.64,2.17c-0.3,0.34-0.95,0.91-1.99,0.93l-0.09,0
				c-16.28-0.12-32.4,2.31-47.92,7.23l-0.06,0.02c-1.01,0.3-1.81-0.05-2.2-0.3c-0.68-0.42-1.13-1.11-1.25-1.88
				c-0.02-0.14-0.03-0.29-0.03-0.46c0.06-8.09-0.52-16.25-1.73-24.24c-0.62-4.09-1.41-8.17-2.36-12.22
				C1653.82,1534.72,1661.51,1536.75,1669.03,1539.39z"></path>
			<path style="fill:none;stroke:#000000;stroke-linecap:round;stroke-linejoin:round;stroke-miterlimit:10;" d="M1669.03,1539.39
				l0.06,0.02c1.01,0.33,1.81,0,2.21-0.23c0.69-0.4,1.17-1.07,1.31-1.84c0.03-0.14,0.04-0.29,0.05-0.46
				c0.18-8.09,1.01-16.22,2.46-24.18c0.04-0.22,0.11-0.44,0.15-0.66c5.77-1.11,11.5-2.45,17.12-4.23l0.01,0
				c3.95-1.25,7.97,1.71,7.94,5.86v0.01c-0.12,15.9,2.26,31.71,7.07,46.87l0,0.01c1.25,3.95-1.71,7.97-5.86,7.94h-0.01
				c-15.9-0.12-31.71,2.26-46.87,7.07l-0.01,0c-3.95,1.25-7.97-1.71-7.94-5.86l0-0.01c0.09-12.48-1.41-24.89-4.36-36.99
				C1651.41,1534.17,1660.34,1536.34,1669.03,1539.39z"></path>
		</g>
		<g>
			<g>
				<path style="fill:none;stroke:#000000;stroke-linecap:round;stroke-linejoin:round;stroke-miterlimit:10;" d="M1378.98,1545.77
					c-0.14-0.03-0.29-0.06-0.43-0.11c-7.65-2.68-15.55-4.78-23.51-6.23s-16.09-2.28-24.18-2.46c-0.17,0-0.32-0.02-0.46-0.04
					c-0.77-0.14-1.44-0.62-1.84-1.31c-0.23-0.4-0.56-1.2-0.23-2.21l0.02-0.06c5.39-15.36,8.31-31.4,8.68-47.68l0-0.09
					c0.05-1.04,0.64-1.67,0.99-1.96c0.62-0.51,1.42-0.71,2.19-0.57c0.14,0.03,0.29,0.06,0.43,0.11c7.65,2.68,15.55,4.78,23.51,6.23
					c7.96,1.45,16.09,2.28,24.18,2.46c0.17,0,0.31,0.02,0.46,0.05c0.77,0.14,1.44,0.62,1.84,1.31c0.23,0.4,0.56,1.2,0.23,2.21
					l-0.02,0.06c-5.39,15.36-8.31,31.4-8.68,47.68l0,0.09c-0.05,1.04-0.64,1.68-0.99,1.96
					C1380.54,1545.7,1379.75,1545.91,1378.98,1545.77z"></path>
			</g>
			<path style="fill:none;stroke:#000000;stroke-linecap:round;stroke-linejoin:round;stroke-miterlimit:10;" d="M1328.35,1533.35
				l-0.02,0.06c-0.33,1.01,0,1.81,0.23,2.21c0.4,0.69,1.07,1.17,1.84,1.31c0.14,0.03,0.29,0.04,0.46,0.05
				c7.12,0.16,14.25,0.91,21.28,2.05c1.16,6.3,2.61,12.56,4.55,18.7l0.02,0.06c0.3,1.01-0.05,1.81-0.29,2.2
				c-0.42,0.68-1.11,1.13-1.88,1.25c-0.14,0.02-0.29,0.03-0.46,0.03c-8.09-0.06-16.25,0.52-24.24,1.73
				c-8,1.21-15.96,3.06-23.69,5.51c-0.14,0.04-0.29,0.08-0.43,0.1c-0.77,0.12-1.56-0.12-2.17-0.64c-0.34-0.3-0.91-0.95-0.93-1.99
				l0-0.09c0.12-16.28-2.31-32.4-7.23-47.92l-0.02-0.06c-0.3-1.01,0.05-1.81,0.29-2.2c0.42-0.68,1.11-1.13,1.88-1.25
				c0.14-0.02,0.29-0.03,0.46-0.03c8.09,0.06,16.25-0.52,24.24-1.73c4.09-0.62,8.17-1.41,12.22-2.36
				C1333.02,1518.14,1330.99,1525.83,1328.35,1533.35z"></path>
			<path style="fill:none;stroke:#000000;stroke-linecap:round;stroke-linejoin:round;stroke-miterlimit:10;" d="M1328.35,1533.35
				l-0.02,0.06c-0.33,1.01,0,1.81,0.23,2.21c0.4,0.69,1.07,1.17,1.84,1.31c0.14,0.03,0.29,0.04,0.46,0.05
				c8.09,0.18,16.22,1.01,24.18,2.46c0.22,0.04,0.44,0.11,0.66,0.15c1.11,5.77,2.45,11.5,4.23,17.12l0,0.01
				c1.25,3.95-1.71,7.97-5.86,7.94h-0.01c-15.9-0.12-31.71,2.26-46.87,7.07l-0.01,0c-3.95,1.25-7.97-1.71-7.94-5.86v-0.01
				c0.12-15.9-2.26-31.71-7.07-46.87l0-0.01c-1.25-3.95,1.71-7.97,5.86-7.94l0.01,0c12.48,0.09,24.89-1.41,36.99-4.36
				C1333.57,1515.73,1331.4,1524.66,1328.35,1533.35z"></path>
		</g>
	</g>
	<g>
		<path style="fill:none;stroke:#000000;stroke-linecap:round;stroke-linejoin:round;stroke-miterlimit:10;" d="M1497.54,1531.35"></path>
		<path style="fill:none;stroke:#000000;stroke-linecap:round;stroke-linejoin:round;stroke-miterlimit:10;" d="M1462.75,1546.18
			c1.61-2.98,3.96-6.3,7.35-9.38c9.35-8.49,18.81-11.13,18.81-11.13c-0.14-1.12-0.1-2.27,0.14-3.42c1.23-5.81,7.02-9.39,12.72-7.96
			c0.51,0.13,1.01,0.29,1.49,0.49l-2.95-10.72c-0.4-1.25,0.16-2.64,1.35-3.18c1.38-0.63,2.98,0.07,3.47,1.47l4.6,14.53
			c0.12,0.34,0.09,0.72-0.09,1.04l-1.05,1.88c1.05,2.13,1.53,4.96-0.25,10.31c-4.52,13.56-19.33,15.28-19.33,15.28l-9.34,9.72"></path>
		<path style="fill:none;stroke:#000000;stroke-linecap:round;stroke-linejoin:round;stroke-miterlimit:10;" d="M1492.98,1503.48
			l9.3,7.75l0.98,3.54c-0.48-0.2-0.97-0.36-1.49-0.49c-1.5-0.38-3-0.39-4.43-0.12l-7.65-6.77c-1.03-0.89-1.18-2.44-0.34-3.51
			C1490.24,1502.75,1491.87,1502.57,1492.98,1503.48z"></path>
		<path style="fill:none;stroke:#000000;stroke-linecap:round;stroke-linejoin:round;stroke-miterlimit:10;" d="M1541.26,1521.71
			c-9.87-6.53-23.74-4.43-31.94,4.52c0.25-1.57,0.25-2.85,0.07-3.93c0.13-0.15,0.22-0.32,0.35-0.47
			c8.73-9.95,23.59-11.62,34.26-4.18c1.06,0.74,1.36,2.17,0.7,3.27C1543.98,1522.11,1542.41,1522.47,1541.26,1521.71z"></path>
		<g>
			<path style="fill:none;stroke:#000000;stroke-linecap:round;stroke-linejoin:round;stroke-miterlimit:10;" d="M1460.63,1559.31
				c-2.86,1.37-5.53,2.51-8.84,4.01c-1.11,0.5-2.47,1.35-3.63,0.96c-0.71-0.24-1.18-0.81-1.38-1.48"></path>
		</g>
		<path style="fill:none;stroke:#000000;stroke-linecap:round;stroke-linejoin:round;stroke-miterlimit:10;" d="M1492.75,1536.89"></path>
		<path style="fill:none;stroke:#000000;stroke-linecap:round;stroke-linejoin:round;stroke-miterlimit:10;" d="M1465.56,1565.19
			c-1.17-1.59-2.65-3.21-3.98-4.68c-1.19-1.32-2.45-2.96-2.25-4.74"></path>
		<path style="fill:none;stroke:#000000;stroke-linecap:round;stroke-linejoin:round;stroke-miterlimit:10;" d="M1477.36,1545.52
			c-5.23-4.79-14.73,0.89-14.73,0.89c-3.89,0.91-13.96,7-19.46,13.63c-0.44,0.53-0.79,1.07-1.05,1.62c-0.52,1.1-0.05,2.42,1.06,2.94
			c1.1,0.52,1.93-0.39,2.94-1.06c4.64-3.06,7.32-4.94,10.9-6.76c0.57-0.29,1.46-0.7,2.32-1.08c1.25-0.56,2.44-1.07,2.44-1.07
			c1.13,0.58,2.78,1.32,4.75,1.86"></path>
		<g>
			<path style="fill:none;stroke:#000000;stroke-linecap:round;stroke-linejoin:round;stroke-miterlimit:10;" d="M1472.89,1570.12
				c2.56,0.14,5.06-0.89,6.78-2.78l6.78-1.03c0.36-0.06,0.48-0.52,0.19-0.74l-4.74-3.68c0.05-1.36-0.22-2.7-0.78-3.91
				c-0.05-0.1-1.59-2.85-1.59-2.85l-0.44-0.82l-0.59-1c-0.07-0.13-0.15-0.26-0.24-0.39c-0.27-0.38-0.61-0.72-1.02-1
				c-1.73-1.14-4.06-0.65-5.2,1.08c-0.02,0.04-0.04,0.08-0.07,0.11c-3.51,0.57-6.56,3.3-7.14,7.37c-0.26,1.82,0.11,3.68,0.99,5.26
				c0.56,1.01,1.33,1.91,2.26,2.61c0.06,0.05,0.13,0.09,0.19,0.14"></path>
			
				<line style="fill:none;stroke:#000000;stroke-linecap:round;stroke-linejoin:round;stroke-miterlimit:10;" x1="1473.55" y1="1556.15" x2="1471.36" y2="1557.63"></line>
			<polygon style="fill:none;stroke:#000000;stroke-linecap:round;stroke-linejoin:round;stroke-miterlimit:10;" points="
				1474.76,1554.04 1476.13,1552.41 1477.75,1553.77 			"></polygon>
			<path style="fill:none;stroke:#000000;stroke-linecap:round;stroke-linejoin:round;stroke-miterlimit:10;" d="M1467.51,1563.93
				c0.18,2.52,1.08,6.08,2.43,8.56c0.23,0.42,0.82,0.36,1.12,0c0.63-0.73,2.67-3.62,3.72-6.47c0,0-0.13,0.43,0,0"></path>
		</g>
		<path style="fill:none;stroke:#000000;stroke-linecap:round;stroke-linejoin:round;stroke-miterlimit:10;" d="M1489.05,1522.24
			c-0.24,1.15-0.28,2.31-0.14,3.42c0,0-2.09,0.61-5.2,2.07c-0.76-2.32-0.75-4.91,0.29-7.33c2.06-4.8,7.29-7.22,12.19-5.93
			C1492.7,1515.55,1489.86,1518.38,1489.05,1522.24z"></path>
	</g>
	<g>
		<g>
			<g>
				<g>
					<path style="fill:none;stroke:#000000;stroke-linecap:round;stroke-linejoin:round;stroke-miterlimit:10;" d="M1188.02,1394.9
						l19.62-25.83c12.27-16.16,10.43-38.97-4.27-52.95l-1.67-1.59c-14.69-13.98-37.54-14.69-53.07-1.65l-24.87,20.88L1188.02,1394.9
						z"></path>
					<path style="fill:none;stroke:#000000;stroke-linecap:round;stroke-linejoin:round;stroke-miterlimit:10;" d="M1135.87,1308.56
						l5.49-4.61c19.89-16.7,49.15-15.79,67.96,2.11l2.14,2.04c18.83,17.91,21.18,47.12,5.47,67.81l-4.3,5.66
						c-2.08,2.74-6.07,3.06-8.56,0.69l0,0c-2.13-2.02-2.39-5.32-0.62-7.66l4.2-5.53c12.27-16.16,10.43-38.97-4.27-52.95l-1.67-1.59
						c-14.69-13.98-37.54-14.69-53.07-1.65l-5.36,4.5c-2.24,1.88-5.55,1.78-7.67-0.24l0,0
						C1133.11,1314.77,1133.24,1310.77,1135.87,1308.56z"></path>
				</g>
				<g>
					<path style="fill:none;stroke:#000000;stroke-linecap:round;stroke-linejoin:round;stroke-miterlimit:10;" d="M988.13,1476.39
						l-19.62,25.83c-12.27,16.16-10.43,38.97,4.27,52.95l1.67,1.59c14.69,13.98,37.54,14.69,53.07,1.65l24.87-20.88L988.13,1476.39z
						"></path>
					<path style="fill:none;stroke:#000000;stroke-linecap:round;stroke-linejoin:round;stroke-miterlimit:10;" d="M1040.29,1562.73
						l-5.49,4.61c-19.89,16.7-49.15,15.79-67.96-2.11l-2.14-2.04c-18.83-17.91-21.18-47.12-5.47-67.81l4.3-5.66
						c2.08-2.74,6.07-3.06,8.56-0.69v0c2.13,2.02,2.39,5.32,0.62,7.66l-4.2,5.53c-12.27,16.16-10.43,38.97,4.27,52.95l1.67,1.59
						c14.69,13.98,37.54,14.69,53.07,1.65l5.36-4.5c2.24-1.88,5.55-1.78,7.67,0.24l0,0
						C1043.04,1556.52,1042.92,1560.52,1040.29,1562.73z"></path>
				</g>
				<g>
					<path style="fill:none;stroke:#000000;stroke-linecap:round;stroke-linejoin:round;stroke-miterlimit:10;" d="M1128.82,1535.59
						l25.83,19.62c16.16,12.27,38.97,10.43,52.95-4.27l1.59-1.67c13.98-14.69,14.69-37.54,1.65-53.07l-20.88-24.87L1128.82,1535.59z
						"></path>
					<path style="fill:none;stroke:#000000;stroke-linecap:round;stroke-linejoin:round;stroke-miterlimit:10;" d="M1215.16,1483.44
						l4.61,5.49c16.7,19.89,15.79,49.15-2.11,67.96l-2.04,2.14c-17.91,18.83-47.12,21.18-67.81,5.47l-5.66-4.3
						c-2.74-2.08-3.06-6.07-0.69-8.56l0,0c2.02-2.13,5.32-2.39,7.66-0.62l5.53,4.2c16.16,12.27,38.97,10.43,52.95-4.27l1.59-1.67
						c13.98-14.69,14.69-37.54,1.65-53.07l-4.5-5.36c-1.88-2.24-1.78-5.55,0.24-7.67l0,0
						C1208.95,1480.68,1212.96,1480.8,1215.16,1483.44z"></path>
				</g>
				<g>
					<path style="fill:none;stroke:#000000;stroke-linecap:round;stroke-linejoin:round;stroke-miterlimit:10;" d="M1047.33,1335.7
						l-25.83-19.62c-16.16-12.27-38.97-10.43-52.95,4.27l-1.59,1.67c-13.98,14.69-14.69,37.54-1.65,53.07l20.88,24.87
						L1047.33,1335.7z"></path>
					<path style="fill:none;stroke:#000000;stroke-linecap:round;stroke-linejoin:round;stroke-miterlimit:10;" d="M960.99,1387.86
						l-4.61-5.49c-16.7-19.89-15.79-49.15,2.11-67.96l2.04-2.14c17.91-18.83,47.12-21.18,67.81-5.47l5.66,4.3
						c2.74,2.08,3.06,6.07,0.69,8.56l0,0c-2.02,2.13-5.32,2.39-7.66,0.62l-5.53-4.2c-16.16-12.27-38.97-10.43-52.95,4.27l-1.59,1.67
						c-13.98,14.69-14.69,37.54-1.65,53.07l4.5,5.36c1.88,2.24,1.78,5.55-0.24,7.67v0C967.21,1390.61,963.2,1390.49,960.99,1387.86z
						"></path>
				</g>
			</g>
			
				<circle style="fill:#FFFFFF;stroke:#000000;stroke-linecap:round;stroke-linejoin:round;stroke-miterlimit:10;" cx="1087.69" cy="1436.05" r="108.6"></circle>
		</g>
		<g>
			<g>
				<g>
					
						<circle style="fill:none;stroke:#000000;stroke-linecap:round;stroke-linejoin:round;stroke-miterlimit:10;" cx="1037.89" cy="1481.69" r="20.03"></circle>
				</g>
				<g>
					
						<circle style="fill:none;stroke:#000000;stroke-linecap:round;stroke-linejoin:round;stroke-miterlimit:10;" cx="1037.89" cy="1481.69" r="11.4"></circle>
				</g>
				<g>
					
						<ellipse transform="matrix(0.7263 -0.6873 0.6873 0.7263 -738.4195 1148.6501)" style="fill:none;stroke:#000000;stroke-linecap:round;stroke-linejoin:round;stroke-miterlimit:10;" cx="1073.31" cy="1501.66" rx="5.04" ry="3.1"></ellipse>
					
						<line style="fill:none;stroke:#000000;stroke-linecap:round;stroke-linejoin:round;stroke-miterlimit:10;" x1="1069.64" y1="1505.12" x2="1053.62" y2="1520.29"></line>
				</g>
				<g>
					<path style="fill:none;stroke:#000000;stroke-linecap:round;stroke-linejoin:round;stroke-miterlimit:10;" d="M1027.8,1446.23
						l-3.66,3.47c-2.02,1.91-2.71,4.47-1.53,5.72c1.18,1.24,3.77,0.7,5.79-1.21l3.66-3.47"></path>
					
						<line style="fill:none;stroke:#000000;stroke-linecap:round;stroke-linejoin:round;stroke-miterlimit:10;" x1="1022.61" y1="1455.42" x2="1006.58" y2="1470.58"></line>
				</g>
				
					<line style="fill:none;stroke:#000000;stroke-linecap:round;stroke-linejoin:round;stroke-miterlimit:10;" x1="1029.93" y1="1448.49" x2="1022.61" y2="1455.42"></line>
				<g>
					<path style="fill:none;stroke:#000000;stroke-linecap:round;stroke-linejoin:round;stroke-miterlimit:10;" d="M1058.16,1505.47
						l-3.31-3.5l13.55-12.82l0.51,0.54c1.55,1.64,1.48,4.22-0.16,5.76L1058.16,1505.47z"></path>
					<path style="fill:none;stroke:#000000;stroke-linecap:round;stroke-linejoin:round;stroke-miterlimit:10;" d="M1046.96,1513.26
						l-0.51-0.54c-0.77-0.82-0.74-2.11,0.08-2.88l8.32-7.87l3.31,3.5l-8.32,7.87C1049.03,1514.11,1047.74,1514.07,1046.96,1513.26z"></path>
				</g>
			</g>
			<g>
				<g>
					
						<circle style="fill:none;stroke:#000000;stroke-linecap:round;stroke-linejoin:round;stroke-miterlimit:10;" cx="1139.06" cy="1394.94" r="20.03"></circle>
				</g>
				<g>
					
						<circle style="fill:none;stroke:#000000;stroke-linecap:round;stroke-linejoin:round;stroke-miterlimit:10;" cx="1139.06" cy="1394.94" r="11.4"></circle>
				</g>
				<g>
					
						<ellipse transform="matrix(0.7264 -0.6873 0.6873 0.7264 -643.038 1134.7867)" style="fill:none;stroke:#000000;stroke-linecap:round;stroke-linejoin:round;stroke-miterlimit:10;" cx="1103.64" cy="1374.97" rx="5.04" ry="3.1"></ellipse>
					
						<line style="fill:none;stroke:#000000;stroke-linecap:round;stroke-linejoin:round;stroke-miterlimit:10;" x1="1107.3" y1="1371.51" x2="1123.33" y2="1356.34"></line>
				</g>
				<g>
					<path style="fill:none;stroke:#000000;stroke-linecap:round;stroke-linejoin:round;stroke-miterlimit:10;" d="M1149.14,1430.4
						l3.66-3.47c2.02-1.91,2.71-4.47,1.53-5.72c-1.18-1.24-3.77-0.7-5.8,1.21l-3.66,3.47"></path>
					
						<line style="fill:none;stroke:#000000;stroke-linecap:round;stroke-linejoin:round;stroke-miterlimit:10;" x1="1154.34" y1="1421.22" x2="1170.36" y2="1406.05"></line>
				</g>
				
					<line style="fill:none;stroke:#000000;stroke-linecap:round;stroke-linejoin:round;stroke-miterlimit:10;" x1="1147.01" y1="1428.15" x2="1154.34" y2="1421.22"></line>
				<g>
					<path style="fill:none;stroke:#000000;stroke-linecap:round;stroke-linejoin:round;stroke-miterlimit:10;" d="M1118.78,1371.17
						l3.31,3.5l-13.55,12.82l-0.51-0.54c-1.55-1.64-1.48-4.22,0.16-5.76L1118.78,1371.17z"></path>
					<path style="fill:none;stroke:#000000;stroke-linecap:round;stroke-linejoin:round;stroke-miterlimit:10;" d="M1129.98,1363.38
						l0.51,0.54c0.77,0.82,0.74,2.11-0.08,2.88l-8.32,7.87l-3.31-3.5l8.32-7.87C1127.92,1362.52,1129.21,1362.56,1129.98,1363.38z"></path>
				</g>
			</g>
			<g>
				<g>
					
						<circle style="fill:none;stroke:#000000;stroke-linecap:round;stroke-linejoin:round;stroke-miterlimit:10;" cx="1129.96" cy="1487.02" r="20.03"></circle>
				</g>
				<g>
					
						<circle style="fill:none;stroke:#000000;stroke-linecap:round;stroke-linejoin:round;stroke-miterlimit:10;" cx="1129.96" cy="1487.02" r="11.4"></circle>
				</g>
				<g>
					
						<ellipse transform="matrix(0.7264 -0.6873 0.6873 0.7264 -683.031 1187.5332)" style="fill:none;stroke:#000000;stroke-linecap:round;stroke-linejoin:round;stroke-miterlimit:10;" cx="1149.93" cy="1451.6" rx="3.1" ry="5.04"></ellipse>
					
						<line style="fill:none;stroke:#000000;stroke-linecap:round;stroke-linejoin:round;stroke-miterlimit:10;" x1="1153.4" y1="1455.26" x2="1168.56" y2="1471.29"></line>
				</g>
				<g>
					<path style="fill:none;stroke:#000000;stroke-linecap:round;stroke-linejoin:round;stroke-miterlimit:10;" d="M1094.5,1497.1
						l3.47,3.66c1.91,2.02,4.47,2.71,5.72,1.53c1.24-1.18,0.7-3.77-1.21-5.79l-3.47-3.66"></path>
					
						<line style="fill:none;stroke:#000000;stroke-linecap:round;stroke-linejoin:round;stroke-miterlimit:10;" x1="1103.69" y1="1502.3" x2="1118.85" y2="1518.32"></line>
				</g>
				
					<line style="fill:none;stroke:#000000;stroke-linecap:round;stroke-linejoin:round;stroke-miterlimit:10;" x1="1096.76" y1="1494.97" x2="1103.69" y2="1502.3"></line>
				<g>
					<path style="fill:none;stroke:#000000;stroke-linecap:round;stroke-linejoin:round;stroke-miterlimit:10;" d="M1153.74,1466.74
						l-3.5,3.31l-12.82-13.55l0.54-0.51c1.64-1.55,4.22-1.48,5.76,0.16L1153.74,1466.74z"></path>
					<path style="fill:none;stroke:#000000;stroke-linecap:round;stroke-linejoin:round;stroke-miterlimit:10;" d="M1161.53,1477.94
						l-0.54,0.51c-0.82,0.77-2.11,0.74-2.88-0.08l-7.87-8.32l3.5-3.31l7.87,8.32C1162.38,1475.88,1162.34,1477.17,1161.53,1477.94z"></path>
				</g>
			</g>
			<g>
				<g>
					
						<circle style="fill:none;stroke:#000000;stroke-linecap:round;stroke-linejoin:round;stroke-miterlimit:10;" cx="1043.63" cy="1389.19" r="20.03"></circle>
				</g>
				<g>
					
						<circle style="fill:none;stroke:#000000;stroke-linecap:round;stroke-linejoin:round;stroke-miterlimit:10;" cx="1043.63" cy="1389.19" r="11.4"></circle>
				</g>
				<g>
					
						<ellipse transform="matrix(0.7264 -0.6873 0.6873 0.7264 -699.0319 1093.3608)" style="fill:none;stroke:#000000;stroke-linecap:round;stroke-linejoin:round;stroke-miterlimit:10;" cx="1023.66" cy="1424.61" rx="3.1" ry="5.04"></ellipse>
					
						<line style="fill:none;stroke:#000000;stroke-linecap:round;stroke-linejoin:round;stroke-miterlimit:10;" x1="1020.19" y1="1420.95" x2="1005.03" y2="1404.92"></line>
				</g>
				<g>
					<path style="fill:none;stroke:#000000;stroke-linecap:round;stroke-linejoin:round;stroke-miterlimit:10;" d="M1079.08,1379.1
						l-3.47-3.66c-1.91-2.02-4.47-2.71-5.72-1.53c-1.24,1.18-0.7,3.77,1.21,5.8l3.47,3.66"></path>
					
						<line style="fill:none;stroke:#000000;stroke-linecap:round;stroke-linejoin:round;stroke-miterlimit:10;" x1="1069.9" y1="1373.91" x2="1054.74" y2="1357.89"></line>
				</g>
				
					<line style="fill:none;stroke:#000000;stroke-linecap:round;stroke-linejoin:round;stroke-miterlimit:10;" x1="1076.83" y1="1381.24" x2="1069.9" y2="1373.91"></line>
				<g>
					<path style="fill:none;stroke:#000000;stroke-linecap:round;stroke-linejoin:round;stroke-miterlimit:10;" d="M1019.85,1409.46
						l3.5-3.31l12.82,13.55l-0.54,0.51c-1.64,1.55-4.22,1.48-5.76-0.16L1019.85,1409.46z"></path>
					<path style="fill:none;stroke:#000000;stroke-linecap:round;stroke-linejoin:round;stroke-miterlimit:10;" d="M1012.06,1398.27
						l0.54-0.51c0.82-0.77,2.11-0.74,2.88,0.08l7.87,8.32l-3.5,3.31l-7.87-8.32C1011.21,1400.33,1011.24,1399.04,1012.06,1398.27z"></path>
				</g>
			</g>
		</g>
	</g>
	<g>
		<g>
			
				<rect x="328.32" y="783.41" style="fill:none;stroke:#000000;stroke-linecap:round;stroke-linejoin:round;stroke-miterlimit:10;" width="133" height="99.69"></rect>
			
				<line style="fill:none;stroke:#000000;stroke-linecap:round;stroke-linejoin:round;stroke-miterlimit:10;" x1="328.32" y1="874.1" x2="461.32" y2="874.19"></line>
		</g>
	</g>
	<g>
		<g>
			<path style="fill:none;stroke:#000000;stroke-linecap:round;stroke-linejoin:round;stroke-miterlimit:10;" d="M1805.13,952.54
				c0.1,1.06,0.13,2.14,0.09,3.21"></path>
			<path style="fill:none;stroke:#000000;stroke-linecap:round;stroke-linejoin:round;stroke-miterlimit:10;" d="M1775.05,976.62
				c-1.59-0.52-3.16-1.23-4.65-2.13c-0.34-0.2-0.67-0.41-0.99-0.63"></path>
		</g>
		<g>
			<path style="fill:none;stroke:#000000;stroke-linecap:round;stroke-linejoin:round;stroke-miterlimit:10;" d="M1774.13,973.65
				c-0.84-0.36-1.67-0.78-2.48-1.27"></path>
			<path style="fill:none;stroke:#000000;stroke-linecap:round;stroke-linejoin:round;stroke-miterlimit:10;" d="M1802.74,953.36
				c0.06,0.93,0.06,1.86,0,2.79"></path>
		</g>
		<g>
			<path style="fill:none;stroke:#000000;stroke-linecap:round;stroke-linejoin:round;stroke-miterlimit:10;" d="M1809.59,978.48
				c1.99-0.39,4.07-1.17,6.16-2.54c2.58-12.43-8.56-19.17-8.56-19.17c-2.11-1.44-4.9-1.15-6.67,0.57"></path>
		</g>
		
			<line style="fill:none;stroke:#000000;stroke-linecap:round;stroke-linejoin:round;stroke-miterlimit:10;" x1="1809.48" y1="971.2" x2="1815.5" y2="975.86"></line>
		
			<line style="fill:none;stroke:#000000;stroke-linecap:round;stroke-linejoin:round;stroke-miterlimit:10;" x1="1783.54" y1="951.06" x2="1793.9" y2="959.1"></line>
		<g>
			<path style="fill:none;stroke:#000000;stroke-linecap:round;stroke-linejoin:round;stroke-miterlimit:10;" d="M1771.47,951.74
				C1771.47,951.74,1771.47,951.74,1771.47,951.74C1771.48,951.74,1771.49,951.74,1771.47,951.74z"></path>
			<path style="fill:none;stroke:#000000;stroke-linecap:round;stroke-linejoin:round;stroke-miterlimit:10;" d="M1765.71,935.71
				c-6.34,1.52-17.96,6.14-21.88,19.96c1.85,3.29,4.07,5.84,6.46,7.81"></path>
			<path style="fill:none;stroke:#000000;stroke-linecap:round;stroke-linejoin:round;stroke-miterlimit:10;" d="M1772.01,952.33
				c2.12-0.26,3.94-1.41,5.24-3.03"></path>
			<path style="fill:none;stroke:#000000;stroke-linecap:round;stroke-linejoin:round;stroke-miterlimit:10;" d="M1781.02,964.07
				c0.4-1.16,0.55-2.43,0.4-3.73c-0.55-4.61-4.8-8.55-9.41-8c-0.94,0.11-0.57,0.06-0.46,0.05"></path>
			<path style="fill:none;stroke:#000000;stroke-linecap:round;stroke-linejoin:round;stroke-miterlimit:10;" d="M1771.8,969.91
				c1.42-0.09,2.26-0.23,2.26-0.23"></path>
		</g>
		
			<line style="fill:none;stroke:#000000;stroke-linecap:round;stroke-linejoin:round;stroke-miterlimit:10;" x1="1783.41" y1="951.02" x2="1743.83" y2="955.67"></line>
		<g>
			<path style="fill:none;stroke:#000000;stroke-linecap:round;stroke-linejoin:round;stroke-miterlimit:10;" d="M1791.5,969.31
				C1791.5,969.31,1791.5,969.31,1791.5,969.31C1791.5,969.3,1791.5,969.3,1791.5,969.31z"></path>
			<path style="fill:none;stroke:#000000;stroke-linecap:round;stroke-linejoin:round;stroke-miterlimit:10;" d="M1790.29,969.8
				C1790.29,969.8,1790.3,969.8,1790.29,969.8C1790.29,969.79,1790.29,969.78,1790.29,969.8z"></path>
			<path style="fill:none;stroke:#000000;stroke-linecap:round;stroke-linejoin:round;stroke-miterlimit:10;" d="M1806.92,962.59
				c-1.74-4.3-6.64-6.38-10.94-4.64c-4.3,1.74-6.99,6.88-5.25,11.19c0.36,0.88,0.21,0.54,0.17,0.43c0.13,0.33,0.24,0.6,0.24,0.6
				s-0.11-0.27-0.24-0.6c0.05,0.1,0,0-0.17-0.43c-1.5-3.68-5.75-5.56-9.64-4.93c-0.65,0.11-1.29,0.28-1.9,0.53
				c-4.3,1.74-6.38,6.64-4.64,10.94c0,0,0.11,0.32,0.35,0.89c1.59,3.82,8.92,18.69,26.47,18.88
				C1815.69,981.29,1806.92,962.59,1806.92,962.59z"></path>
		</g>
		
			<line style="fill:none;stroke:#000000;stroke-linecap:round;stroke-linejoin:round;stroke-miterlimit:10;" x1="1783.41" y1="951.02" x2="1801.35" y2="995.43"></line>
		<g>
			<path style="fill:none;stroke:#000000;stroke-linecap:round;stroke-linejoin:round;stroke-miterlimit:10;" d="M1799.42,953.05
				c1.53,0.75,3.39,0.74,4.97-0.17c0,0,11.62-5.87,10-18.46c-3.76-2.88-7.64-3.69-11.02-3.58"></path>
		</g>
		
			<line style="fill:none;stroke:#000000;stroke-linecap:round;stroke-linejoin:round;stroke-miterlimit:10;" x1="1804.06" y1="939.95" x2="1814.38" y2="934.41"></line>
		
			<line style="fill:none;stroke:#000000;stroke-linecap:round;stroke-linejoin:round;stroke-miterlimit:10;" x1="1783.41" y1="951.02" x2="1786.27" y2="949.48"></line>
		<g>
			<path style="fill:none;stroke:#000000;stroke-linecap:round;stroke-linejoin:round;stroke-miterlimit:10;" d="M1785.21,942.91
				C1785.2,942.91,1785.2,942.92,1785.21,942.91C1785.2,942.93,1785.2,942.93,1785.21,942.91z"></path>
			<path style="fill:none;stroke:#000000;stroke-linecap:round;stroke-linejoin:round;stroke-miterlimit:10;" d="M1786.45,943.3
				C1786.45,943.3,1786.45,943.3,1786.45,943.3C1786.45,943.31,1786.45,943.31,1786.45,943.3z"></path>
			<path style="fill:none;stroke:#000000;stroke-linecap:round;stroke-linejoin:round;stroke-miterlimit:10;" d="M1774.57,948.93
				c4.44,1.36,9.76-0.95,11.12-5.39"></path>
			<path style="fill:none;stroke:#000000;stroke-linecap:round;stroke-linejoin:round;stroke-miterlimit:10;" d="M1785.83,943.1
				c0.03-0.11,0,0-0.13,0.44c-1.35,4.44,1.76,9.33,6.2,10.69c4.44,1.36,9.14-1.14,10.5-5.58c0,0,7.11-19.39-8.4-32.24
				c-8.32,0.82-14.03,4.75-17.88,9.06"></path>
		</g>
		
			<line style="fill:none;stroke:#000000;stroke-linecap:round;stroke-linejoin:round;stroke-miterlimit:10;" x1="1787.99" y1="936.05" x2="1793.99" y2="916.42"></line>
		<g>
			<path style="fill:none;stroke:#000000;stroke-linecap:round;stroke-linejoin:round;stroke-miterlimit:10;" d="M1777.77,941.07
				C1777.77,941.07,1777.77,941.07,1777.77,941.07C1777.78,941.08,1777.78,941.08,1777.77,941.07z"></path>
			<path style="fill:none;stroke:#000000;stroke-linecap:round;stroke-linejoin:round;stroke-miterlimit:10;" d="M1778.5,940.69
				C1778.5,940.69,1778.5,940.69,1778.5,940.69C1778.5,940.7,1778.5,940.7,1778.5,940.69z"></path>
			<path style="fill:none;stroke:#000000;stroke-linecap:round;stroke-linejoin:round;stroke-miterlimit:10;" d="M1768.55,946.28
				c1.37,2.59,4.57,3.57,7.16,2.21c2.59-1.37,3.94-4.76,2.57-7.35c-0.28-0.53-0.17-0.32-0.14-0.26c-0.1-0.2-0.19-0.36-0.19-0.36
				s0.08,0.16,0.19,0.36c-0.04-0.06,0,0,0.14,0.26c1.37,2.58,4.93,3.38,7.52,2.01c2.59-1.37,3.57-4.57,2.21-7.16
				c0,0-5.45-11.82-18.08-10.66c-3.02,3.66-3.97,7.51-3.98,10.9C1765.92,941.91,1768.55,946.28,1768.55,946.28z"></path>
		</g>
		
			<line style="fill:none;stroke:#000000;stroke-linecap:round;stroke-linejoin:round;stroke-miterlimit:10;" x1="1783.57" y1="951.07" x2="1769.92" y2="925.34"></line>
		<g>
			<path style="fill:none;stroke:#000000;stroke-linecap:round;stroke-linejoin:round;stroke-miterlimit:10;" d="M1763.67,965.06
				C1763.67,965.06,1763.68,965.06,1763.67,965.06C1763.68,965.06,1763.68,965.06,1763.67,965.06z"></path>
			<path style="fill:none;stroke:#000000;stroke-linecap:round;stroke-linejoin:round;stroke-miterlimit:10;" d="M1763.22,964.38
				C1763.21,964.38,1763.21,964.38,1763.22,964.38C1763.22,964.38,1763.22,964.37,1763.22,964.38z"></path>
			<path style="fill:none;stroke:#000000;stroke-linecap:round;stroke-linejoin:round;stroke-miterlimit:10;" d="M1769.84,973.68
				c2.42-1.64,3.06-4.93,1.43-7.35s-5.16-3.4-7.58-1.77c-0.5,0.33-0.3,0.2-0.24,0.16c-0.19,0.12-0.34,0.23-0.34,0.23
				s0.15-0.1,0.34-0.23c-0.06,0.04,0,0,0.24-0.16c2.42-1.64,2.83-5.27,1.2-7.69c-1.64-2.42-4.93-3.06-7.35-1.43
				c0,0-11.17,6.68-8.66,19.12C1759.47,981.54,1769.84,973.68,1769.84,973.68z"></path>
		</g>
		
			<line style="fill:none;stroke:#000000;stroke-linecap:round;stroke-linejoin:round;stroke-miterlimit:10;" x1="1783.34" y1="951" x2="1748.87" y2="974.56"></line>
	</g>
	<g>
		
			<circle style="fill:none;stroke:#000000;stroke-linecap:round;stroke-linejoin:round;stroke-miterlimit:10;" cx="616.5" cy="1228.25" r="49.44"></circle>
		
			<circle style="fill:none;stroke:#000000;stroke-linecap:round;stroke-linejoin:round;stroke-miterlimit:10;" cx="616.5" cy="1228.25" r="43.62"></circle>
	</g>
	<g>
		<polyline style="fill:none;stroke:#000000;stroke-linecap:round;stroke-linejoin:round;stroke-miterlimit:10;" points="
			847.08,765.68 847.04,359.37 1148.51,359.35 1148.53,467.91 978.03,467.91 978.05,654.82 		"></polyline>
		
			<line style="fill:none;stroke:#000000;stroke-linecap:round;stroke-linejoin:round;stroke-miterlimit:10;" x1="969.06" y1="459.5" x2="969.07" y2="663.81"></line>
		
			<line style="fill:none;stroke:#000000;stroke-linecap:round;stroke-linejoin:round;stroke-miterlimit:10;" x1="1148.53" y1="459.44" x2="969.04" y2="459.5"></line>
		<path style="fill:none;stroke:#000000;stroke-linecap:round;stroke-linejoin:round;stroke-miterlimit:10;" d="M982.25,672.19"></path>
		<g>
			<polyline style="fill:none;stroke:#000000;stroke-linecap:round;stroke-linejoin:round;stroke-miterlimit:10;" points="
				978.05,654.82 1148.52,654.78 1148.53,765.64 847.08,765.68 			"></polyline>
			
				<line style="fill:none;stroke:#000000;stroke-linecap:round;stroke-linejoin:round;stroke-miterlimit:10;" x1="969.07" y1="663.81" x2="1148.52" y2="663.75"></line>
		</g>
		
			<line style="fill:none;stroke:#000000;stroke-linecap:round;stroke-linejoin:round;stroke-miterlimit:10;" x1="993.22" y1="654.81" x2="993.22" y2="765.65"></line>
		
			<line style="fill:none;stroke:#000000;stroke-linecap:round;stroke-linejoin:round;stroke-miterlimit:10;" x1="993.22" y1="359.37" x2="993.22" y2="467.9"></line>
		
			<line style="fill:none;stroke:#000000;stroke-linecap:round;stroke-linejoin:round;stroke-miterlimit:10;" x1="978.03" y1="557.63" x2="847.04" y2="557.63"></line>
	</g>
	<g>
		<path style="fill:none;stroke:#000000;stroke-linecap:round;stroke-linejoin:round;stroke-miterlimit:10;" d="M1808.92,1119.77
			c-0.45-1.9-1.07-3.75-1.83-5.53"></path>
		<path style="fill:none;stroke:#000000;stroke-linecap:round;stroke-linejoin:round;stroke-miterlimit:10;" d="M1776.9,1160.89
			c6.77-0.11,13.25-2.28,18.64-6.05"></path>
		<path style="fill:none;stroke:#000000;stroke-linecap:round;stroke-linejoin:round;stroke-miterlimit:10;" d="M1749.88,1147.91
			c2.57,3.33,5.78,6.18,9.49,8.37"></path>
		<path style="fill:none;stroke:#000000;stroke-linecap:round;stroke-linejoin:round;stroke-miterlimit:10;" d="M1743.02,1124.29
			c-0.14,1.44-0.18,2.88-0.13,4.3"></path>
		<path style="fill:none;stroke:#000000;stroke-linecap:round;stroke-linejoin:round;stroke-miterlimit:10;" d="M1749.97,1106.8
			c-1.08,1.38-2.06,2.86-2.92,4.42"></path>
		<path style="fill:none;stroke:#000000;stroke-linecap:round;stroke-linejoin:round;stroke-miterlimit:10;" d="M1779.17,1094.06
			c-3.67-0.32-7.29-0.01-10.75,0.83"></path>
		<path style="fill:none;stroke:#000000;stroke-linecap:round;stroke-linejoin:round;stroke-miterlimit:10;" d="M1798.51,1102.35
			c-1.7-1.51-3.56-2.85-5.57-4"></path>
		<path style="fill:none;stroke:#000000;stroke-linecap:round;stroke-linejoin:round;stroke-miterlimit:10;" d="M1800.74,1114.32
			c4.89,0.82,10.72-0.33,16.03-3.64c7.33-4.57,11.48-11.86,10.97-18.16c-5.43-3.23-13.8-2.71-21.13,1.87
			c-6.57,4.1-10.59,10.38-10.98,16.17c-0.01,0.19,0.03,0.38,0.05,0.56"></path>
		<path style="fill:none;stroke:#000000;stroke-linecap:round;stroke-linejoin:round;stroke-miterlimit:10;" d="M1793.29,1102.94
			c1.25,0.86,2.42,1.82,3.51,2.85"></path>
		<path style="fill:none;stroke:#000000;stroke-linecap:round;stroke-linejoin:round;stroke-miterlimit:10;" d="M1768.22,1098.79
			c3.41-0.97,7.02-1.34,10.69-1.02"></path>
		<path style="fill:none;stroke:#000000;stroke-linecap:round;stroke-linejoin:round;stroke-miterlimit:10;" d="M1749.38,1114.83
			c0.55-1.19,1.18-2.33,1.88-3.42"></path>
		<path style="fill:none;stroke:#000000;stroke-linecap:round;stroke-linejoin:round;stroke-miterlimit:10;" d="M1746.59,1127.45
			c0-1.21,0.07-2.43,0.22-3.65"></path>
		<path style="fill:none;stroke:#000000;stroke-linecap:round;stroke-linejoin:round;stroke-miterlimit:10;" d="M1760.34,1152.51
			c-3.29-2.1-6.09-4.8-8.29-7.92"></path>
		<path style="fill:none;stroke:#000000;stroke-linecap:round;stroke-linejoin:round;stroke-miterlimit:10;" d="M1792.13,1152.64
			c-3.81,2.38-8.15,3.91-12.7,4.38"></path>
		<path style="fill:none;stroke:#000000;stroke-linecap:round;stroke-linejoin:round;stroke-miterlimit:10;" d="M1803.25,1114.7
			c0.59,1.24,1.09,2.52,1.5,3.84"></path>
		<path style="fill:none;stroke:#000000;stroke-linecap:round;stroke-linejoin:round;stroke-miterlimit:10;" d="M1784.26,1133.2
			c-1.18,0.4-1.97,1.51-1.96,2.75c0.03,5.81,3.64,12.32,9.95,16.83c7.03,5.02,15.35,6.07,20.97,3.19c0.9-6.25-2.78-13.78-9.81-18.81
			C1797.1,1132.66,1789.77,1131.35,1784.26,1133.2z"></path>
		<path style="fill:none;stroke:#000000;stroke-linecap:round;stroke-linejoin:round;stroke-miterlimit:10;" d="M1758.82,1123.41
			c-0.51,0.32-0.76,0.93-0.61,1.51c0.67,2.72,3.1,5.37,6.57,6.78c3.87,1.56,7.89,1.11,10.21-0.87c-0.28-3.04-2.86-6.16-6.73-7.72
			C1764.79,1121.7,1761.19,1121.92,1758.82,1123.41z"></path>
		
			<line style="fill:none;stroke:#000000;stroke-linecap:round;stroke-linejoin:round;stroke-miterlimit:10;" x1="1755.82" y1="1122.95" x2="1774.99" y2="1130.83"></line>
		<path style="fill:none;stroke:#000000;stroke-linecap:round;stroke-linejoin:round;stroke-miterlimit:10;" d="M1753.79,1128.53
			c-0.4-1.13-1.48-1.88-2.68-1.86c-5.6,0.11-11.85,3.69-16.11,9.84c-4.75,6.86-5.64,14.91-2.78,20.3
			c6.05,0.78,13.27-2.88,18.02-9.74C1754.5,1140.92,1755.66,1133.82,1753.79,1128.53z"></path>
		
			<line style="fill:none;stroke:#000000;stroke-linecap:round;stroke-linejoin:round;stroke-miterlimit:10;" x1="1756.02" y1="1122.89" x2="1732.22" y2="1156.81"></line>
		<path style="fill:none;stroke:#000000;stroke-linecap:round;stroke-linejoin:round;stroke-miterlimit:10;" d="M1749.77,1122.06
			c1.05-0.67,1.55-1.94,1.25-3.14c-1.42-5.63-6.48-11.1-13.68-13.97c-8.03-3.2-16.36-2.23-21.13,1.91
			c0.62,6.29,5.99,12.72,14.02,15.92C1737.43,1125.65,1744.87,1125.17,1749.77,1122.06z"></path>
		
			<line style="fill:none;stroke:#000000;stroke-linecap:round;stroke-linejoin:round;stroke-miterlimit:10;" x1="1755.98" y1="1122.99" x2="1716.22" y2="1106.86"></line>
		
			<line style="fill:none;stroke:#000000;stroke-linecap:round;stroke-linejoin:round;stroke-miterlimit:10;" x1="1755.98" y1="1122.99" x2="1760.73" y2="1080.35"></line>
		<path style="fill:none;stroke:#000000;stroke-linecap:round;stroke-linejoin:round;stroke-miterlimit:10;" d="M1789.05,1111.45
			c0.81,0.25,1.69-0.06,2.18-0.75c2.28-3.24,2.86-8.29,1.14-13.29c-1.92-5.58-6.13-9.45-10.39-10.08c-2.98,3.12-3.92,8.76-2,14.34
			C1781.7,1106.66,1785.26,1110.29,1789.05,1111.45z"></path>
		
			<line style="fill:none;stroke:#000000;stroke-linecap:round;stroke-linejoin:round;stroke-miterlimit:10;" x1="1790.73" y1="1112.74" x2="1781.98" y2="1087.32"></line>
		
			<line style="fill:none;stroke:#000000;stroke-linecap:round;stroke-linejoin:round;stroke-miterlimit:10;" x1="1797.38" y1="1111.12" x2="1827.75" y2="1092.52"></line>
		
			<line style="fill:none;stroke:#000000;stroke-linecap:round;stroke-linejoin:round;stroke-miterlimit:10;" x1="1798.08" y1="1121.67" x2="1822.75" y2="1144.09"></line>
		<path style="fill:none;stroke:#000000;stroke-linecap:round;stroke-linejoin:round;stroke-miterlimit:10;" d="M1765.73,1109.06
			c0.29-1.57,0.84-2.99,1.63-4.19c0.43-1.5,0.77-3.06,0.94-4.7c0.91-8.59-2.29-16.35-7.57-19.82c-5.88,2.3-10.62,9.21-11.53,17.81
			c-0.81,7.7,1.67,14.73,5.99,18.61c0.92,0.83,2.28,0.97,3.36,0.35C1761.46,1115.45,1763.96,1112.61,1765.73,1109.06z"></path>
		
			<line style="fill:none;stroke:#000000;stroke-linecap:round;stroke-linejoin:round;stroke-miterlimit:10;" x1="1778.78" y1="1130.85" x2="1767.98" y2="1103.98"></line>
		
			<line style="fill:none;stroke:#000000;stroke-linecap:round;stroke-linejoin:round;stroke-miterlimit:10;" x1="1778.44" y1="1130.95" x2="1800.5" y2="1111.69"></line>
		<path style="fill:none;stroke:#000000;stroke-linecap:round;stroke-linejoin:round;stroke-miterlimit:10;" d="M1803.41,1137.16
			c2.41,1.72,4.39,3.75,5.97,5.91c4.67,2.06,9.49,2.47,13.37,1.03c1.64-6.1-1.13-14.02-7.52-19.84c-4.62-4.21-10.15-6.39-15.11-6.47
			c-0.85,2.6-2.51,5.21-4.95,7.36c-0.16,0.14-0.34,0.23-0.5,0.36c0.59,3.04,2.04,6.14,4.17,9.02
			C1800.39,1135.24,1801.93,1136.1,1803.41,1137.16z"></path>
		
			<line style="fill:none;stroke:#000000;stroke-linecap:round;stroke-linejoin:round;stroke-miterlimit:10;" x1="1778.46" y1="1130.81" x2="1813.22" y2="1155.97"></line>
		<path style="fill:none;stroke:#000000;stroke-linecap:round;stroke-linejoin:round;stroke-miterlimit:10;" d="M1777.73,1137.05
			c-0.7-1.03-1.99-1.49-3.18-1.15c-5.58,1.6-10.88,6.85-13.5,14.13c-2.93,8.13-1.68,16.42,2.62,21.05
			c6.26-0.83,12.52-6.41,15.45-14.54C1781.74,1149.26,1781,1141.84,1777.73,1137.05z"></path>
		
			<line style="fill:none;stroke:#000000;stroke-linecap:round;stroke-linejoin:round;stroke-miterlimit:10;" x1="1778.46" y1="1130.81" x2="1763.66" y2="1171.09"></line>
		<path style="fill:none;stroke:#000000;stroke-linecap:round;stroke-linejoin:round;stroke-miterlimit:10;" d="M1780.92,1127.46
			c0.08,0.84,0.7,1.54,1.53,1.73c3.87,0.87,8.75-0.53,12.72-4.04c4.42-3.91,6.39-9.28,5.33-13.46c-4.02-1.56-9.59-0.26-14.01,3.64
			C1782.53,1118.84,1780.54,1123.52,1780.92,1127.46z"></path>
		<path style="fill:none;stroke:#000000;stroke-linecap:round;stroke-linejoin:round;stroke-miterlimit:10;" d="M1776.32,1127.4
			c0.81,0.2,1.67-0.15,2.11-0.86c2.07-3.33,2.35-8.35,0.37-13.19c-2.21-5.4-6.58-8.99-10.83-9.36c-2.76,3.25-3.37,8.87-1.16,14.27
			C1768.8,1123.09,1772.52,1126.48,1776.32,1127.4z"></path>
	</g>
	<g>
		<polyline style="fill:none;stroke:#000000;stroke-linecap:round;stroke-linejoin:round;stroke-miterlimit:10;" points="
			680.79,1600.68 459.13,1600.72 459.11,1467.7 547.74,1467.66 		"></polyline>
		
			<line style="fill:none;stroke:#000000;stroke-linecap:round;stroke-linejoin:round;stroke-miterlimit:10;" x1="459.11" y1="1476.71" x2="556.72" y2="1476.65"></line>
		<path style="fill:none;stroke:#000000;stroke-linecap:round;stroke-linejoin:round;stroke-miterlimit:10;" d="M441.6,1482.38"></path>
		<g>
			<polyline style="fill:none;stroke:#000000;stroke-linecap:round;stroke-linejoin:round;stroke-miterlimit:10;" points="
				547.74,1467.66 547.7,1323.58 680.75,1323.57 680.79,1600.68 			"></polyline>
			
				<line style="fill:none;stroke:#000000;stroke-linecap:round;stroke-linejoin:round;stroke-miterlimit:10;" x1="556.72" y1="1476.65" x2="556.66" y2="1323.58"></line>
		</g>
		
			<line style="fill:none;stroke:#000000;stroke-linecap:round;stroke-linejoin:round;stroke-miterlimit:10;" x1="547.72" y1="1444.66" x2="680.76" y2="1444.66"></line>
	</g>
</g>
<g id="floor">
	<g>
		
			<line style="fill:none;stroke:#000000;stroke-linecap:round;stroke-linejoin:round;stroke-miterlimit:10;" x1="1884.48" y1="824.88" x2="1864.53" y2="824.88"></line>
		
			<line style="fill:none;stroke:#000000;stroke-linecap:round;stroke-linejoin:round;stroke-miterlimit:10;" x1="1884.48" y1="711.73" x2="1864.53" y2="711.73"></line>
		
			<line style="fill:none;stroke:#000000;stroke-linecap:round;stroke-linejoin:round;stroke-miterlimit:10;" x1="1884.48" y1="702.42" x2="1864.53" y2="702.42"></line>
		
			<line style="fill:none;stroke:#000000;stroke-linecap:round;stroke-linejoin:round;stroke-miterlimit:10;" x1="1884.48" y1="442.94" x2="1864.53" y2="442.94"></line>
		
			<rect x="1674.21" y="623.93" transform="matrix(-1.836970e-16 1 -1 -1.836970e-16 2508.4167 -1240.5983)" style="fill:none;stroke:#000000;stroke-linecap:round;stroke-linejoin:round;stroke-miterlimit:10;" width="400.59" height="19.95"></rect>
		
			<rect x="1669.78" y="603.98" transform="matrix(-1.836970e-16 1 -1 -1.836970e-16 2503.9832 -1236.1648)" style="fill:none;stroke:#000000;stroke-linecap:round;stroke-linejoin:round;stroke-miterlimit:10;" width="400.59" height="59.85"></rect>
	</g>
	<g>
		
			<rect x="1670.81" y="1356.43" transform="matrix(-1.294159e-11 -1 1 -1.294159e-11 505.5828 3237.0313)" style="fill:none;stroke:#000000;stroke-linecap:round;stroke-linejoin:round;stroke-miterlimit:10;" width="401" height="18.58"></rect>
		
			<rect x="1669.56" y="1335.8" transform="matrix(-4.164129e-11 -1 1 -4.164129e-11 504.341 3235.7893)" style="fill:none;stroke:#000000;stroke-linecap:round;stroke-linejoin:round;stroke-miterlimit:10;" width="401" height="59.85"></rect>
		<g>
			
				<rect x="1866.26" y="1429.6" transform="matrix(6.123234e-17 -1 1 6.123234e-17 432.4164 3310.1975)" style="fill:none;stroke:#000000;stroke-linecap:round;stroke-linejoin:round;stroke-miterlimit:10;" width="10.09" height="18.58"></rect>
		</g>
		
			<line style="fill:none;stroke:#000000;stroke-linecap:round;stroke-linejoin:round;stroke-miterlimit:10;" x1="1862.02" y1="1555.9" x2="1880.6" y2="1555.9"></line>
		
			<line style="fill:none;stroke:#000000;stroke-linecap:round;stroke-linejoin:round;stroke-miterlimit:10;" x1="1862.02" y1="1174.84" x2="1880.6" y2="1174.84"></line>
	</g>
	<g>
		<path style="fill:none;stroke:#000000;stroke-linecap:round;stroke-linejoin:round;stroke-miterlimit:10;" d="M306.26,1078.19
			c-113.42,0-206.26,91.74-206.26,205.16h204.57"></path>
		
			<rect x="309.78" y="1278.5" transform="matrix(8.611784e-11 -1 1 8.611784e-11 -973.5694 1604.6178)" style="fill:none;stroke:#000000;stroke-linecap:round;stroke-linejoin:round;stroke-miterlimit:10;" width="11.49" height="21.18"></rect>
		
			<rect x="309.69" y="1061.76" transform="matrix(9.069907e-11 -1 1 9.069907e-11 -756.8266 1387.875)" style="fill:none;stroke:#000000;stroke-linecap:round;stroke-linejoin:round;stroke-miterlimit:10;" width="11.67" height="21.18"></rect>
	</g>
	<g>
		<path style="fill:none;stroke:#000000;stroke-linecap:round;stroke-linejoin:round;stroke-miterlimit:10;" d="M491.68,778.11
			c0,88.09,71.26,160.2,159.35,160.2V779.42"></path>
		
			<rect x="651.03" y="762.69" transform="matrix(-1 -8.499214e-11 8.499214e-11 -1 1310.9803 1546.0975)" style="fill:none;stroke:#000000;stroke-linecap:round;stroke-linejoin:round;stroke-miterlimit:10;" width="8.92" height="20.73"></rect>
		
			<rect x="482.61" y="762.69" transform="matrix(-1 -8.788271e-11 8.788271e-11 -1 974.2927 1546.0975)" style="fill:none;stroke:#000000;stroke-linecap:round;stroke-linejoin:round;stroke-miterlimit:10;" width="9.07" height="20.73"></rect>
	</g>
	
		<line style="fill:none;stroke:#000000;stroke-linecap:round;stroke-linejoin:round;stroke-miterlimit:10;stroke-dasharray:10,10;" x1="1148.52" y1="774.55" x2="1148.52" y2="351.19"></line>
	
		<line style="fill:none;stroke:#000000;stroke-linecap:round;stroke-linejoin:round;stroke-miterlimit:10;stroke-dasharray:10,10;" x1="689.66" y1="1148.12" x2="689.66" y2="910.17"></line>
	
		<line style="fill:none;stroke:#000000;stroke-linecap:round;stroke-linejoin:round;stroke-miterlimit:10;stroke-dasharray:10,10;" x1="317.62" y1="1315.09" x2="512.16" y2="1315.09"></line>
	<g>
		<path style="fill:none;stroke:#000000;stroke-linecap:round;stroke-linejoin:round;stroke-miterlimit:10;" d="M1348.76,1020.32
			c0-99.02-80.1-180.08-179.12-180.08v179.68"></path>
		
			<rect x="1159.61" y="1019.92" style="fill:none;stroke:#000000;stroke-linecap:round;stroke-linejoin:round;stroke-miterlimit:10;" width="10.03" height="17.73"></rect>
		
			<rect x="1348.76" y="1019.92" style="fill:none;stroke:#000000;stroke-linecap:round;stroke-linejoin:round;stroke-miterlimit:10;" width="10.19" height="17.73"></rect>
	</g>
	<g>
		<g id="LWPOLYLINE_457_">
			
				<rect x="698.52" y="1184.87" style="fill:none;stroke:#000000;stroke-linecap:round;stroke-linejoin:round;stroke-miterlimit:10;" width="134.14" height="133.89"></rect>
		</g>
		<g id="LWPOLYLINE_456_">
			
				<line style="fill:none;stroke:#000000;stroke-linecap:round;stroke-linejoin:round;stroke-miterlimit:10;" x1="777.35" y1="1285.46" x2="821.6" y2="1285.46"></line>
		</g>
		<g id="LWPOLYLINE_455_">
			
				<line style="fill:none;stroke:#000000;stroke-linecap:round;stroke-linejoin:round;stroke-miterlimit:10;" x1="799.47" y1="1263.27" x2="799.47" y2="1307.65"></line>
		</g>
		<g id="LWPOLYLINE_454_">
			
				<line style="fill:none;stroke:#000000;stroke-linecap:round;stroke-linejoin:round;stroke-miterlimit:10;" x1="710.97" y1="1285.46" x2="755.22" y2="1285.46"></line>
		</g>
		<g id="LWPOLYLINE_453_">
			
				<line style="fill:none;stroke:#000000;stroke-linecap:round;stroke-linejoin:round;stroke-miterlimit:10;" x1="733.1" y1="1263.27" x2="733.1" y2="1307.65"></line>
		</g>
		<g id="LWPOLYLINE_452_">
			
				<line style="fill:none;stroke:#000000;stroke-linecap:round;stroke-linejoin:round;stroke-miterlimit:10;" x1="710.97" y1="1218.89" x2="755.22" y2="1218.89"></line>
		</g>
		<g id="LWPOLYLINE_451_">
			
				<line style="fill:none;stroke:#000000;stroke-linecap:round;stroke-linejoin:round;stroke-miterlimit:10;" x1="733.1" y1="1196.7" x2="733.1" y2="1241.08"></line>
		</g>
		<g id="LWPOLYLINE_450_">
			
				<line style="fill:none;stroke:#000000;stroke-linecap:round;stroke-linejoin:round;stroke-miterlimit:10;" x1="777.35" y1="1218.89" x2="821.6" y2="1218.89"></line>
		</g>
		<g id="LWPOLYLINE_449_">
			
				<line style="fill:none;stroke:#000000;stroke-linecap:round;stroke-linejoin:round;stroke-miterlimit:10;" x1="799.47" y1="1196.7" x2="799.47" y2="1241.08"></line>
		</g>
		
			<ellipse style="fill:none;stroke:#000000;stroke-linecap:round;stroke-linejoin:round;stroke-miterlimit:10;" cx="799.47" cy="1218.89" rx="17.81" ry="17.76"></ellipse>
		
			<ellipse style="fill:none;stroke:#000000;stroke-linecap:round;stroke-linejoin:round;stroke-miterlimit:10;" cx="799.47" cy="1285.46" rx="17.81" ry="17.76"></ellipse>
		
			<ellipse style="fill:none;stroke:#000000;stroke-linecap:round;stroke-linejoin:round;stroke-miterlimit:10;" cx="733.1" cy="1218.89" rx="17.81" ry="17.76"></ellipse>
		
			<ellipse style="fill:none;stroke:#000000;stroke-linecap:round;stroke-linejoin:round;stroke-miterlimit:10;" cx="733.1" cy="1285.46" rx="17.81" ry="17.76"></ellipse>
	</g>
	<g>
		<g id="LWPOLYLINE_436_">
			
				<rect x="698.53" y="1507.25" style="fill:none;stroke:#000000;stroke-linecap:round;stroke-linejoin:round;stroke-miterlimit:10;" width="134.14" height="133.37"></rect>
		</g>
		<g id="LWPOLYLINE_435_">
			<path style="fill:none;stroke:#000000;stroke-linecap:round;stroke-linejoin:round;stroke-miterlimit:10;" d="M813.67,1518.36
				l-84.9,0c-4.32,0-7.83,3.48-7.83,7.78c0,0,0,95.59,0,95.59c0,4.3,3.5,7.78,7.82,7.78c0,0,84.91,0,84.91,0
				c4.32,0,7.82-3.48,7.82-7.78c0,0,0-95.59,0-95.59C821.49,1521.85,817.99,1518.37,813.67,1518.36z"></path>
		</g>
		<g id="LWPOLYLINE_434_">
			<path style="fill:none;stroke:#000000;stroke-linecap:round;stroke-linejoin:round;stroke-miterlimit:10;" d="M750.53,1551.71
				c0-4.31-3.51-7.8-7.84-7.8c-4.33,0-7.84,3.49-7.84,7.8c0,4.31,3.51,7.8,7.84,7.8C747.02,1559.51,750.53,1556.02,750.53,1551.71z"></path>
		</g>
	</g>
	<g>
		<g>
			<g id="LWPOLYLINE_433_">
				
					<rect x="673.42" y="385.92" style="fill:none;stroke:#000000;stroke-linecap:round;stroke-linejoin:round;stroke-miterlimit:10;" width="153.04" height="376.96"></rect>
			</g>
			<g id="LWPOLYLINE_432_">
				<path style="fill:none;stroke:#000000;stroke-linecap:round;stroke-linejoin:round;stroke-miterlimit:10;" d="M814.22,711.79
					l0-246.82c0-36.24-28.78-65.62-64.27-65.62c-35.5,0-64.28,29.39-64.28,65.64l0,246.82c-0.01,17.32,13.64,31.42,30.6,31.62
					l67.34-0.01c16.91,0,30.61-14,30.61-31.26"></path>
			</g>
			<g id="LWPOLYLINE_431_">
				<path style="fill:none;stroke:#000000;stroke-linecap:round;stroke-linejoin:round;stroke-miterlimit:10;" d="M796.73,633.77
					l0-168.79c0-26.39-20.95-47.78-46.79-47.77c-25.84,0-46.78,21.4-46.78,47.78l0,166.33c0.02,25.42,19.51,46.38,44.37,47.7
					C773.35,680.39,795.38,660.13,796.73,633.77z"></path>
			</g>
			<g id="LWPOLYLINE_430_">
				<path style="fill:none;stroke:#000000;stroke-linecap:round;stroke-linejoin:round;stroke-miterlimit:10;" d="M749.94,456.23
					c-4.73,0-8.57,3.92-8.57,8.75c0,4.84,3.84,8.75,8.57,8.75c4.74,0,8.57-3.92,8.57-8.75
					C758.51,460.15,754.67,456.23,749.94,456.23z"></path>
			</g>
		</g>
		<g>
			<g id="LWPOLYLINE_429_">
				<path style="fill:none;stroke:#000000;stroke-linecap:round;stroke-linejoin:round;stroke-miterlimit:10;" d="M485.4,460.99
					l-0.01,61.92c0,21.55-17.83,39.01-39.83,39.01c-22,0-39.84-17.47-39.84-39.01l0.01-61.92c0-5.39,4.46-9.75,9.96-9.75l59.76,0
					C480.95,451.24,485.4,455.61,485.4,460.99z"></path>
			</g>
			<g id="LWPOLYLINE_428_">
				<path style="fill:none;stroke:#000000;stroke-linecap:round;stroke-linejoin:round;stroke-miterlimit:10;" d="M413.69,522.91
					l0.01-34.63c0-17.23,14.27-31.2,31.86-31.21c17.6,0,31.87,13.97,31.88,31.21l-0.01,34.63c0,17.23-14.27,31.2-31.86,31.21
					C427.96,554.12,413.69,540.14,413.69,522.91z"></path>
			</g>
			<g id="LWPOLYLINE_427_">
				<path style="fill:none;stroke:#000000;stroke-linecap:round;stroke-linejoin:round;stroke-miterlimit:10;" d="M433.61,510.35
					l0.01-25.31c0-6.46,5.35-11.7,11.95-11.7s11.95,5.24,11.95,11.7l-0.01,25.31c0,6.46-5.35,11.7-11.95,11.7
					C438.96,522.05,433.61,516.81,433.61,510.35z"></path>
			</g>
		</g>
		<g>
			<g id="LWPOLYLINE_423_">
				<path style="fill:none;stroke:#000000;stroke-linecap:round;stroke-linejoin:round;stroke-miterlimit:10;" d="M655.63,385.12
					l-0.14,55.69c-0.02,7.84-5,14.78-12.31,17.16c-26.56,8.65-55.11,8.58-81.63-0.22c-7.31-2.42-12.24-9.39-12.23-17.23l0.14-55.69"></path>
			</g>
			<g id="LWPOLYLINE_422_">
				<path style="fill:none;stroke:#000000;stroke-linecap:round;stroke-linejoin:round;stroke-miterlimit:10;" d="M574.19,400.49
					c-5.86-0.01-10.63,4.83-10.64,10.81l-0.04,17.35c-0.01,3.97,2.52,7.48,6.23,8.65c21.28,6.71,44.03,6.78,65.34,0.17
					c3.72-1.15,6.27-4.65,6.28-8.62l0.04-17.35c0.02-5.99-4.73-10.86-10.59-10.87"></path>
			</g>
			<g id="LWPOLYLINE_421_">
				<path style="fill:none;stroke:#000000;stroke-linecap:round;stroke-linejoin:round;stroke-miterlimit:10;" d="M648.48,411.53
					l-0.08,29.26c-0.01,4.71-2.99,8.87-7.38,10.3c-25.15,8.2-52.18,8.13-77.29-0.21c-4.38-1.46-7.34-5.63-7.33-10.34l0.08-29.26
					c0.01-5.99,4.78-10.83,10.64-10.81l70.78,0.19C643.76,400.67,648.5,405.54,648.48,411.53z"></path>
			</g>
			<g id="LWPOLYLINE_420_">
				<path style="fill:none;stroke:#000000;stroke-linecap:round;stroke-linejoin:round;stroke-miterlimit:10;" d="M602.5,403.79
					c2.63,0.01,4.76,2.19,4.75,4.87c-0.01,2.69-2.15,4.86-4.78,4.85c-2.63-0.01-4.76-2.19-4.75-4.87
					C597.73,405.95,599.87,403.78,602.5,403.79z"></path>
			</g>
		</g>
	</g>
	<g>
		<g id="LWPOLYLINE_480_">
			
				<rect x="326.11" y="1467.72" style="fill:none;stroke:#000000;stroke-linecap:round;stroke-linejoin:round;stroke-miterlimit:10;" width="133" height="133"></rect>
		</g>
		<g>
			<g id="LWPOLYLINE_479_">
				<polyline style="fill:none;stroke:#000000;stroke-linecap:round;stroke-linejoin:round;stroke-miterlimit:10;" points="
					362.04,1495.9 408.27,1534.72 376.95,1534.8 423.19,1573.62 				"></polyline>
			</g>
			<g id="LWPOLYLINE_478_">
				<path style="fill:none;stroke:#000000;stroke-linecap:round;stroke-linejoin:round;stroke-miterlimit:10;" d="M357.81,1534.85
					c0.05,18.82,15.67,34.04,34.89,33.99c19.22-0.05,34.76-15.35,34.71-34.17c-0.05-18.82-15.67-34.04-34.9-34
					C373.3,1500.73,357.76,1516.03,357.81,1534.85z"></path>
			</g>
		</g>
	</g>
	<g id="_x33__1_">
		
			<rect x="281.78" y="310.58" transform="matrix(-1 -1.224647e-16 1.224647e-16 -1 610.3361 1377.0713)" width="46.77" height="755.91"></rect>
		
			<rect x="281.78" y="1294.84" transform="matrix(-1 -1.224647e-16 1.224647e-16 -1 607.8932 2984.2568)" width="44.33" height="394.58"></rect>
		
			<rect x="1058.93" y="890.44" transform="matrix(6.123234e-17 -1 1 6.123234e-17 -581.7009 2748.3245)" width="48.77" height="1549.14"></rect>
		
			<rect x="1808.01" y="1597.39" transform="matrix(-1.836970e-16 1 -1 -1.836970e-16 3497.3948 -242.7534)" width="124.12" height="59.85"></rect>
		
			<rect x="1703.82" y="970.07" transform="matrix(-1.836970e-16 1 -1 -1.836970e-16 2870.0654 -870.0827)" width="332.51" height="59.85"></rect>
		
			<rect x="626.34" y="547.26" transform="matrix(-1.836970e-16 1 -1 -1.836970e-16 1394.454 -279.2018)" width="420.98" height="20.73"></rect>
		
			<rect x="619.76" y="837.65" transform="matrix(-1.836970e-16 1 -1 -1.836970e-16 1536.1721 156.8585)" width="139.8" height="17.73"></rect>
		
			<rect x="430.34" y="1388.54" transform="matrix(-1.836970e-16 1 -1 -1.836970e-16 2087.0588 707.7453)" width="518.62" height="17.73"></rect>
		
			<rect x="1003.66" y="892.81" transform="matrix(-1.836970e-16 1 -1 -1.836970e-16 2041.3296 -237.9795)" width="271.99" height="17.73"></rect>
		
			<rect x="569.6" y="124.52" transform="matrix(-1.836970e-16 1 -1 -1.836970e-16 955.4407 -219.0637)" width="35.3" height="487.34"></rect>
		<rect x="338.3" y="434.72" width="196.07" height="16.51"></rect>
		<rect x="517.86" y="351.02" width="16.51" height="89.13"></rect>
		
			<rect x="126.4" y="545.24" transform="matrix(-1.836970e-16 1 -1 -1.836970e-16 894.5167 221.7363)" width="419.98" height="25.77"></rect>
		
			<rect x="741.56" y="681.08" transform="matrix(-1.836970e-16 1 -1 -1.836970e-16 1524.9681 21.1294)" width="20.73" height="183.93"></rect>
		
			<rect x="394.16" y="694.96" transform="matrix(-1.836970e-16 1 -1 -1.836970e-16 1177.5724 368.5252)" width="20.73" height="156.18"></rect>
		
			<rect x="978.65" y="628.39" transform="matrix(-1.836970e-16 1 -1 -1.836970e-16 1762.0643 -212.9742)" width="17.73" height="292.3"></rect>
		
			<rect x="1586.07" y="804.08" transform="matrix(-1.836970e-16 1 -1 -1.836970e-16 2654.7754 -566.1232)" width="48.77" height="480.5"></rect>
		
			<rect x="1359.11" y="1019.92" transform="matrix(-1 -1.224647e-16 1.224647e-16 -1 2750.1819 2057.6099)" width="31.96" height="17.76"></rect>
		
			<rect x="1808.01" y="342.72" transform="matrix(-1.836970e-16 1 -1 -1.836970e-16 2242.7246 -1497.4235)" width="124.14" height="59.85"></rect>
		
			<rect x="1063.3" y="-435.22" transform="matrix(-1.836970e-16 1 -1 -1.836970e-16 1422.6542 -752.7222)" width="48.77" height="1540.38"></rect>
		
			<rect x="1143.43" y="1021.48" transform="matrix(-1.836970e-16 1 -1 -1.836970e-16 2181.0874 -123.4922)" width="17.72" height="14.63"></rect>
		
			<rect x="585.07" y="1224.28" transform="matrix(-1.836970e-16 1 -1 -1.836970e-16 1908.7024 720.8257)" width="17.73" height="180.98"></rect>
		
			<rect x="497.97" y="1425.51" transform="matrix(-1.836970e-16 1 -1 -1.836970e-16 2112.5483 1102.7527)" width="13.85" height="364.29"></rect>
	</g>
</g>
</svg>
