<?xml version="1.0" encoding="utf-8"?>
<svg version="1.1" id="Layer_1" xmlns="http://www.w3.org/2000/svg" xmlns:xlink="http://www.w3.org/1999/xlink" x="0px" y="0px" width="2000px" height="2000px" viewBox="0 0 2000 2000" style="enable-background:new 0 0 2000 2000;" xml:space="preserve">
    <path id="background" style="fill:#FFFFFF;" d="M1724.613,1028.236v-10.891v-610.84h-38.235H472.422v-43.951h-86.048h-28.657
	l-28.657,53.529l28.657,53.531h28.657v46.808v401.51v46.81h-28.657l-28.657,53.531l28.657,53.529h28.657v4.788H156.962v476.051
	h-28.658l-28.658,53.529l17.38,32.442h39.936h315.46h1213.956h38.235v-424.374v-10.968h175.033
	C1899.646,1106.639,1821.244,1028.236,1724.613,1028.236z"/>
    <g id="s1">
        <path style="fill:none;" d="M1495.949,1248.536h176.964v329.983h-462.61v-328.052h132.704v-7.338h152.942V1248.536z" id="s1_path"/>
        <text transform="matrix(1 0 0 1 1429.2427 1382.5039)" style="font-family:'GraphikLCG-Regular'; font-size:40px;text-anchor:middle;text-align:center;" id="s1_text"></text>
    </g>
    <g id="r1">
        <path style="fill:none;" d="M1193.155,1596.517H386.349v-43.951l0,0v-466.472l0,0v-51.599h392.009v-26.726h225.55h172.098h17.148
		v223.619v365.129H1193.155z" id="r1_path"/>
        <text transform="matrix(1 0 0 1 769.4009 1128.2275)" style="font-family:'GraphikLCG-Regular'; font-size:40px;text-anchor:middle;text-align:center;" id="r1_text"></text>
    </g>
    <g id="c1">
        <path style="fill:none;" d="M1176.007,994.56h-172.098v-2.086h-225.55h-392.01v-42.098l0,0V483.905l0,0v-39.162H1686.43v404.291
		h-263.863v42.098v101.343h-214.118h-32.442V994.56z" id="c1_path"/>
        <text transform="matrix(1 0 0 1 1029.6223 851.1621)" style="font-family:'GraphikLCG-Regular'; font-size:40px;text-anchor:middle;text-align:center;" id="c1_text"></text>
    </g>
    <g id="h1">
        <path style="fill:none;" d="M1210.303,1231.388h-1.854v-223.619v-15.294h214.118v15.294h15.294V891.131h248.569v126.138h23.096
		v196.97h-23.096v17.148h-190.482h-152.942L1210.303,1231.388L1210.303,1231.388z" id="h1_path"/>
        <text transform="matrix(1 0 0 1 1576.8594 1122.2617)" style="font-family:'GraphikLCG-Regular'; font-size:40px;text-anchor:middle;text-align:center;" id="h1_text"></text>
    </g>
    <g id="b1">
        <path style="fill:none;" d="M386.373,1552.641H156.962V1076.59h229.412v476.051H386.373z" id="b1_path"/>
        <text transform="matrix(1 0 0 1 276.4562 1348.1387)" style="font-family:'GraphikLCG-Regular'; font-size:40px;text-anchor:middle;text-align:center;" id="b1_text"></text>
    </g>
    <g id="mebel">
        <path style="fill:#FFFFFF;stroke:#000000;stroke-linecap:round;stroke-linejoin:round;stroke-miterlimit:10;" d="M1127.527,626.348
		l27.776,3.095c17.377,1.936,30.521,16.626,30.521,34.111v1.987c0,17.473-13.127,32.156-30.489,34.107l-27.808,3.125V626.348z"/>
        <path style="fill:#FFFFFF;stroke:#000000;stroke-linecap:round;stroke-linejoin:round;stroke-miterlimit:10;" d="M1150.454,710.181
		l6.133-0.69c22.235-2.499,39.044-21.303,39.044-43.678v-2.543c0-22.391-16.832-41.203-39.085-43.683l-6.09-0.679
		c-2.943-0.328-5.516,1.976-5.516,4.936c0,2.53,1.902,4.657,4.417,4.937l5.948,0.663c17.376,1.936,30.521,16.626,30.521,34.111
		v1.986c0,17.473-13.126,32.156-30.489,34.107l-5.99,0.673c-2.509,0.283-4.407,2.405-4.407,4.93
		C1144.939,708.21,1147.513,710.511,1150.454,710.181"/>
        <path style="fill:#FFFFFF;stroke:#000000;stroke-linecap:round;stroke-linejoin:round;stroke-miterlimit:10;" d="M1127.527,479.603
		l27.776,3.095c17.377,1.937,30.521,16.627,30.521,34.112v1.987c0,17.472-13.127,32.156-30.489,34.107l-27.808,3.125V479.603z"/>
        <path style="fill:#FFFFFF;stroke:#000000;stroke-linecap:round;stroke-linejoin:round;stroke-miterlimit:10;" d="M1150.454,563.436
		l6.133-0.69c22.235-2.499,39.044-21.303,39.044-43.678v-2.543c0-22.391-16.832-41.203-39.085-43.683l-6.09-0.679
		c-2.943-0.328-5.516,1.975-5.516,4.936c0,2.53,1.902,4.657,4.417,4.937l5.947,0.663c17.377,1.936,30.521,16.626,30.521,34.111
		v1.986c0,17.473-13.126,32.156-30.489,34.107l-5.99,0.674c-2.51,0.282-4.407,2.404-4.407,4.929
		C1144.939,561.465,1147.513,563.766,1150.454,563.436"/>
        <path style="fill:#FFFFFF;stroke:#000000;stroke-linecap:round;stroke-linejoin:round;stroke-miterlimit:10;" d="M981.589,555.997
		l-27.776-3.095c-17.377-1.937-30.521-16.627-30.521-34.112v-1.987c0-17.473,13.127-32.156,30.489-34.107l27.807-3.125
		L981.589,555.997L981.589,555.997z"/>
        <path style="fill:#FFFFFF;stroke:#000000;stroke-linecap:round;stroke-linejoin:round;stroke-miterlimit:10;" d="M958.663,472.164
		l-6.133,0.689c-22.235,2.498-39.044,21.303-39.044,43.678v2.543c0,22.391,16.832,41.203,39.085,43.683l6.09,0.679
		c2.943,0.328,5.517-1.976,5.517-4.937c0-2.53-1.902-4.656-4.417-4.936l-5.947-0.663c-17.377-1.936-30.521-16.626-30.521-34.111
		v-1.986c-0.001-17.473,13.126-32.156,30.489-34.107l5.989-0.674c2.509-0.282,4.407-2.404,4.407-4.929
		C964.178,474.134,961.603,471.833,958.663,472.164"/>
        <path style="fill:#FFFFFF;stroke:#000000;stroke-linecap:round;stroke-linejoin:round;stroke-miterlimit:10;" d="M981.589,702.742
		l-27.776-3.096c-17.377-1.936-30.521-16.626-30.521-34.111v-1.987c0-17.473,13.127-32.156,30.489-34.107l27.807-3.125
		L981.589,702.742L981.589,702.742z"/>
        <path style="fill:#FFFFFF;stroke:#000000;stroke-linecap:round;stroke-linejoin:round;stroke-miterlimit:10;" d="M958.663,618.909
		l-6.133,0.689c-22.235,2.498-39.044,21.302-39.044,43.678v2.543c0,22.391,16.832,41.203,39.085,43.683l6.09,0.678
		c2.943,0.328,5.517-1.975,5.517-4.936c0-2.53-1.902-4.656-4.417-4.936l-5.947-0.663c-17.377-1.936-30.521-16.626-30.521-34.111
		v-1.986c0-17.473,13.126-32.156,30.489-34.107l5.989-0.674c2.509-0.282,4.407-2.404,4.407-4.929
		C964.178,620.879,961.604,618.578,958.663,618.909"/>
        <path style="fill:#FFFFFF;stroke:#000000;stroke-linecap:round;stroke-linejoin:round;stroke-miterlimit:10;" d="M981.589,447.114
		v287.169c0,1.299,1.053,2.352,2.352,2.352h141.233c1.299,0,2.351-1.053,2.351-2.352V447.114c0-1.299-1.053-2.352-2.352-2.352
		H983.942C982.642,444.762,981.589,445.815,981.589,447.114z"/>
        <path style="fill:#FFFFFF;stroke:#000000;stroke-linecap:round;stroke-linejoin:round;stroke-miterlimit:10;" d="M1054.558,552.352
		c21.178,0,38.346,17.168,38.346,38.346s-17.168,38.347-38.346,38.347s-38.346-17.169-38.346-38.347
		S1033.38,552.352,1054.558,552.352"/>
        <path style="fill:#FFFFFF;stroke:#000000;stroke-linecap:round;stroke-linejoin:round;stroke-miterlimit:10;" d="M1054.558,552.352
		c21.178,0,38.346,17.168,38.346,38.346s-17.168,38.347-38.346,38.347s-38.346-17.169-38.346-38.347
		S1033.38,552.352,1054.558,552.352"/>
        <path style="fill:#FFFFFF;stroke:#000000;stroke-linecap:round;stroke-linejoin:round;stroke-miterlimit:10;" d="M1036.604,590.019
		c6.085,0,11.019,4.933,11.019,11.018c0,6.086-4.933,11.02-11.019,11.02s-11.018-4.933-11.018-11.02
		C1025.585,594.952,1030.518,590.019,1036.604,590.019"/>
        <path style="fill:#FFFFFF;stroke:#000000;stroke-linecap:round;stroke-linejoin:round;stroke-miterlimit:10;" d="M1036.604,590.019
		c6.085,0,11.019,4.933,11.019,11.018c0,6.086-4.933,11.02-11.019,11.02s-11.018-4.933-11.018-11.02
		C1025.585,594.952,1030.518,590.019,1036.604,590.019"/>
        <path style="fill:#FFFFFF;stroke:#000000;stroke-linecap:round;stroke-linejoin:round;stroke-miterlimit:10;" d="M1058.642,591.359
		c6.085,0,11.018,4.933,11.018,11.018c0,6.086-4.933,11.02-11.018,11.02c-6.086,0-11.018-4.933-11.018-11.02
		C1047.623,596.292,1052.556,591.359,1058.642,591.359"/>
        <path style="fill:#FFFFFF;stroke:#000000;stroke-linecap:round;stroke-linejoin:round;stroke-miterlimit:10;" d="M1058.642,591.359
		c6.085,0,11.018,4.933,11.018,11.018c0,6.086-4.933,11.02-11.018,11.02c-6.086,0-11.018-4.933-11.018-11.02
		C1047.623,596.292,1052.556,591.359,1058.642,591.359"/>
        <path style="fill:#FFFFFF;stroke:#000000;stroke-linecap:round;stroke-linejoin:round;stroke-miterlimit:10;" d="M1049.799,571.159
		c6.086,0,11.019,4.933,11.019,11.018c0,6.086-4.932,11.02-11.019,11.02c-6.085,0-11.018-4.933-11.018-11.02
		C1038.781,576.093,1043.714,571.159,1049.799,571.159"/>
        <path style="fill:#FFFFFF;stroke:#000000;stroke-linecap:round;stroke-linejoin:round;stroke-miterlimit:10;" d="M1049.799,571.159
		c6.086,0,11.019,4.933,11.019,11.018c0,6.086-4.932,11.02-11.019,11.02c-6.085,0-11.018-4.933-11.018-11.02
		C1038.781,576.093,1043.714,571.159,1049.799,571.159"/>
        <path style="fill:#FFFFFF;stroke:#000000;stroke-linecap:round;stroke-linejoin:round;stroke-miterlimit:10;" d="M1046.889,563.959
		l-0.491,2.449l9.571,1.515c17.229,8.824,16.807,24.505,17.375,33.199c0.132,2.011,2.835,2.595,3.799,0.826
		c3.407-6.257,7.171-16.565,2.294-26.176c-5.581-10.997-16.848-11.074-22.629-10.29L1046.889,563.959z"/>
        <path style="fill:#FFFFFF;stroke:#000000;stroke-linecap:round;stroke-linejoin:round;stroke-miterlimit:10;" d="M1046.889,563.959
		l-0.491,2.449l9.571,1.515c17.229,8.824,16.807,24.505,17.375,33.199c0.132,2.011,2.835,2.595,3.799,0.826
		c3.407-6.257,7.171-16.565,2.294-26.176c-5.581-10.997-16.848-11.074-22.629-10.29L1046.889,563.959z"/>
        <path style="fill:#FFFFFF;stroke:#000000;stroke-linecap:round;stroke-linejoin:round;stroke-miterlimit:10;" d="M1603.528,691.162
		c-0.4-7.997,8.429-19.487,21.259-14.114c8.807,3.681,29.804,14.138,29.804,14.138s-21.007,10.438-29.817,14.11
		C1611.939,710.657,1603.121,699.158,1603.528,691.162z"/>
        <path style="fill:#FFFFFF;stroke:#000000;stroke-linecap:round;stroke-linejoin:round;stroke-miterlimit:10;" d="M661.93,481.795
		h172.98c3.043,0,5.51,2.467,5.51,5.509v106.797c0,3.043-2.467,5.51-5.51,5.51l-172.98,0.001c-3.043,0-5.51-2.467-5.51-5.51V487.306
		C656.421,484.262,658.888,481.795,661.93,481.795"/>
        <path style="fill:#FFFFFF;stroke:#000000;stroke-linecap:round;stroke-linejoin:round;stroke-miterlimit:10;" d="M661.93,481.795
		h172.98c3.043,0,5.51-2.467,5.51-5.51l-0.001-26.015c0-3.043-2.466-5.509-5.509-5.509H661.93c-3.043,0-5.51,2.467-5.51,5.51
		l0.001,26.015C656.421,479.329,658.888,481.795,661.93,481.795"/>
        <path style="fill:#FFFFFF;stroke:#000000;stroke-linecap:round;stroke-linejoin:round;stroke-miterlimit:10;" d="M650.911,481.795
		h-172.98c-3.043,0-5.51,2.467-5.51,5.51l0.001,106.797c0,3.042,2.466,5.509,5.51,5.509h172.98c3.042,0,5.509-2.467,5.509-5.51
		V487.304C656.421,484.262,653.954,481.795,650.911,481.795z"/>
        <path style="fill:#FFFFFF;stroke:#000000;stroke-linecap:round;stroke-linejoin:round;stroke-miterlimit:10;" d="M650.911,481.795
		h-172.98c-3.043,0-5.51-2.467-5.51-5.509v-26.015c0-3.043,2.467-5.51,5.509-5.51h172.981c3.043,0,5.509,2.467,5.509,5.51
		l0.001,26.015C656.421,479.329,653.954,481.795,650.911,481.795z"/>
        <path style="fill:#FFFFFF;stroke:#000000;stroke-linecap:round;stroke-linejoin:round;stroke-miterlimit:10;" d="M740.312,699.059
		c0,10.37,0,30.942,0,41.311c-0.001,10.609-8.697,16.03-19.495,17.8c-44.046,6.449-88.798,6.449-132.844,0.001
		c-10.798-1.77-19.495-7.19-19.495-17.799c0-10.37,0-30.942,0-41.312c0.001-10.608,8.696-16.03,19.495-17.799
		c44.046-6.449,88.798-6.45,132.844-0.001C731.615,683.03,740.312,688.45,740.312,699.059"/>
        <path style="fill:#FFFFFF;stroke:#000000;stroke-linecap:round;stroke-linejoin:round;stroke-miterlimit:10;" d="M1448.305,739.429
		l23.006,14.777l-25.703,44.749c-4.354,8.009,7.259,14.755,12.034,6.911l27.44-47.774c1.259-2.193,1.744-4.746,1.375-7.249
		l-4.85-32.916c-1.753-11.898-12.82-20.121-24.717-18.367C1437.026,702.395,1431.595,728.862,1448.305,739.429z"/>
        <path style="fill:#FFFFFF;stroke:#000000;stroke-linecap:round;stroke-linejoin:round;stroke-miterlimit:10;" d="M1448.305,739.429
		l23.006,14.777l-25.703,44.749c-4.354,8.009,7.259,14.755,12.034,6.911l27.44-47.774c1.259-2.193,1.744-4.746,1.375-7.249
		l-4.85-32.916c-1.753-11.898-12.82-20.121-24.717-18.367C1437.026,702.395,1431.595,728.862,1448.305,739.429z"/>
        <path style="fill:#FFFFFF;stroke:#000000;stroke-linecap:round;stroke-linejoin:round;stroke-miterlimit:10;" d="M1468.192,630.995
		c0.084,2.02,1.725,3.63,3.746,3.682c2.178,0.056,3.981-1.706,3.943-3.885c-0.335-18.818,14.502-35.661,33.624-38.675
		c6.558-1.033,11.761-0.153,17.569,1.939c0.315-0.243,0.636-0.481,0.957-0.717c-0.087-0.047-0.166-0.107-0.254-0.154
		c-7.437-3.91-16.211-5.421-25.146-4.044C1482.09,592.306,1467.344,610.59,1468.192,630.995"/>
        <path style="fill:#FFFFFF;stroke:#000000;stroke-linecap:round;stroke-linejoin:round;stroke-miterlimit:10;" d="M1468.192,630.995
		c0.084,2.02,1.725,3.63,3.746,3.682c2.178,0.056,3.981-1.706,3.943-3.885c-0.335-18.818,14.502-35.661,33.624-38.675
		c6.558-1.033,11.761-0.153,17.569,1.939c0.315-0.243,0.636-0.481,0.957-0.717c-0.087-0.047-0.166-0.107-0.254-0.154
		c-7.437-3.91-16.211-5.421-25.146-4.044C1482.09,592.306,1467.344,610.59,1468.192,630.995"/>
        <path style="fill:#FFFFFF;stroke:#000000;stroke-linecap:round;stroke-linejoin:round;stroke-miterlimit:10;" d="M1458.866,676.402
		c-0.118-2.267-1.34-4.428-3.449-5.65l-29.78-17.269c-3.087-1.79-7.045-0.463-8.429,2.827l-12.896,30.648
		c-1.595,3.759,0.403,8.123,4.399,9.338c3.465,1.053,7.141-0.987,8.546-4.326l9.238-21.947l21.701,12.583
		c2.889,1.675,6.686,1.302,8.896-1.202C1458.399,679.925,1458.956,678.133,1458.866,676.402"/>
        <path style="fill:#FFFFFF;stroke:#000000;stroke-linecap:round;stroke-linejoin:round;stroke-miterlimit:10;" d="M1458.866,676.402
		c-0.118-2.267-1.34-4.428-3.449-5.65l-29.78-17.269c-3.087-1.79-7.045-0.463-8.429,2.827l-12.896,30.648
		c-1.595,3.759,0.403,8.123,4.399,9.338c3.465,1.053,7.141-0.987,8.546-4.326l9.238-21.947l21.701,12.583
		c2.889,1.675,6.686,1.302,8.896-1.202C1458.399,679.925,1458.956,678.133,1458.866,676.402"/>
        <path style="fill:#FFFFFF;stroke:#000000;stroke-linecap:round;stroke-linejoin:round;stroke-miterlimit:10;" d="M1459.599,683.649
		c0,0-6.786,5.175-13.781,3.982c-5.964-1.017-10.375-4.893-13.051-10l-0.009,0.008l-0.218-0.447
		c-0.116-0.234-0.235-0.464-0.343-0.703l-11.478-23.476l-17.465,16.186c-2.656,2.462-6.847,2.805-9.57,0.417
		c-3.141-2.754-3.16-7.553-0.158-10.321l24.385-22.606c2.617-2.426,6.769-2.003,8.845,0.901l8.145,11.401
		c5.507-8.886,12.57-13.755,19.091-16.334c9.409-3.721,20.133-3.071,29.036,1.735c0.215,0.116,0.398,0.223,0.547,0.32
		c7.181,4.705,23.929,16.386,25.577,48.345c2.621,50.848-32.909,69.509-32.909,69.509"/>
        <path style="fill:#FFFFFF;stroke:#000000;stroke-linecap:round;stroke-linejoin:round;stroke-miterlimit:10;" d="M1459.599,683.649
		c0,0-6.786,5.175-13.781,3.982c-5.964-1.017-10.375-4.893-13.051-10l-0.009,0.008l-0.218-0.447
		c-0.116-0.234-0.235-0.464-0.343-0.703l-11.478-23.476l-17.465,16.186c-2.656,2.462-6.847,2.805-9.57,0.417
		c-3.141-2.754-3.16-7.553-0.158-10.321l24.385-22.606c2.617-2.426,6.769-2.003,8.845,0.901l8.145,11.401
		c5.507-8.886,12.57-13.755,19.091-16.334c9.409-3.721,20.133-3.071,29.036,1.735c0.215,0.116,0.398,0.223,0.547,0.32
		c7.181,4.705,23.929,16.386,25.577,48.345c2.621,50.848-32.909,69.509-32.909,69.509"/>
        <path style="fill:#FFFFFF;stroke:#000000;stroke-linecap:round;stroke-linejoin:round;stroke-miterlimit:10;" d="M1438.621,775.973
		l11.092-66.47c0.631-3.778-1.924-7.355-5.702-7.986c-3.779-0.631-7.356,1.924-7.986,5.703l-11.092,66.469
		c-0.631,3.779,1.923,7.355,5.702,7.986C1434.414,782.306,1437.99,779.752,1438.621,775.973"/>
        <path style="fill:#FFFFFF;stroke:#000000;stroke-linecap:round;stroke-linejoin:round;stroke-miterlimit:10;" d="M1438.621,775.973
		l11.092-66.47c0.631-3.778-1.924-7.355-5.702-7.986c-3.779-0.631-7.356,1.924-7.986,5.703l-11.092,66.469
		c-0.631,3.779,1.923,7.355,5.702,7.986C1434.414,782.306,1437.99,779.752,1438.621,775.973"/>
        <path style="fill:#FFFFFF;stroke:#000000;stroke-linecap:round;stroke-linejoin:round;stroke-miterlimit:10;" d="M1471.492,702.568
		l-14.472-8.182c-6.875-3.949-15.65-1.577-19.599,5.298l-4.516,7.862c-5.945,10.352-2.374,23.563,7.978,29.509l10.057,5.776
		c5.392,3.097,11.53,3.715,17.093,2.211"/>
        <path style="fill:#FFFFFF;stroke:#000000;stroke-linecap:round;stroke-linejoin:round;stroke-miterlimit:10;" d="M1471.492,702.568
		l-14.472-8.182c-6.875-3.949-15.65-1.577-19.599,5.298l-4.516,7.862c-5.945,10.352-2.374,23.563,7.978,29.509l10.057,5.776
		c5.392,3.097,11.53,3.715,17.093,2.211"/>
        <path style="fill:#FFFFFF;stroke:#000000;stroke-linecap:round;stroke-linejoin:round;stroke-miterlimit:10;" d="M1419.82,736.803
		l8.389-4.067l15.579-15.579c4.905-4.905,13.183-3.51,16.209,2.732l10.626,21.919c3.026,6.241-1.005,13.604-7.894,14.417
		l-21.881,2.582l-8.389,4.067c-4.14,2.008-9.124,0.279-11.13-3.861l-5.371-11.079C1413.952,743.793,1415.68,738.81,1419.82,736.803z
		"/>
        <path style="fill:#FFFFFF;stroke:#000000;stroke-linecap:round;stroke-linejoin:round;stroke-miterlimit:10;" d="M1419.82,736.803
		l8.389-4.067l15.579-15.579c4.905-4.905,13.183-3.51,16.209,2.732l10.626,21.919c3.026,6.241-1.005,13.604-7.894,14.417
		l-21.881,2.582l-8.389,4.067c-4.14,2.008-9.124,0.279-11.13-3.861l-5.371-11.079C1413.952,743.793,1415.68,738.81,1419.82,736.803z
		"/>
        <path style="fill:#FFFFFF;stroke:#000000;stroke-linecap:round;stroke-linejoin:round;stroke-miterlimit:10;" d="M1464.572,738.707
		l-12.473,20.925c-1.214,2.038,0.054,4.652,2.405,4.961l11.621,1.524c5.378,0.706,9.385-4.848,7.019-9.73L1464.572,738.707z"/>
        <path style="fill:#FFFFFF;stroke:#000000;stroke-linecap:round;stroke-linejoin:round;stroke-miterlimit:10;" d="M1464.572,738.707
		l-12.473,20.925c-1.214,2.038,0.054,4.652,2.405,4.961l11.621,1.524c5.378,0.706,9.385-4.848,7.019-9.73L1464.572,738.707z"/>
        <path style="fill:#FFFFFF;stroke:#000000;stroke-linecap:round;stroke-linejoin:round;stroke-miterlimit:10;" d="M1438.125,708.363
		l-6.001,10.068c-1.214,2.037,0.054,4.651,2.405,4.96l24.154,3.169l-8.572-17.682
		C1447.745,703.998,1440.902,703.704,1438.125,708.363z"/>
        <path style="fill:#FFFFFF;stroke:#000000;stroke-linecap:round;stroke-linejoin:round;stroke-miterlimit:10;" d="M1438.125,708.363
		l-6.001,10.068c-1.214,2.037,0.054,4.651,2.405,4.96l24.154,3.169l-8.572-17.682
		C1447.745,703.998,1440.902,703.704,1438.125,708.363z"/>
        <path style="fill:#FFFFFF;stroke:#000000;stroke-linecap:round;stroke-linejoin:round;stroke-miterlimit:10;" d="M1417.561,751.24
		l2.437-4.089c1.405-2.358,4.869-2.209,6.067,0.262l1.934,3.987c1.198,2.471-0.831,5.282-3.553,4.925l-4.719-0.619L1417.561,751.24z
		"/>
        <path style="fill:#FFFFFF;stroke:#000000;stroke-linecap:round;stroke-linejoin:round;stroke-miterlimit:10;" d="M1446.455,743.186
		c-1.401-0.432-2.887,0.353-3.319,1.755c-0.433,1.401,0.353,2.888,1.754,3.319"/>
        <path style="fill:#FFFFFF;stroke:#000000;stroke-linecap:round;stroke-linejoin:round;stroke-miterlimit:10;" d="M1446.455,743.186
		c-1.401-0.432-2.887,0.353-3.319,1.755c-0.433,1.401,0.353,2.888,1.754,3.319"/>
        <path style="fill:#FFFFFF;stroke:#000000;stroke-linecap:round;stroke-linejoin:round;stroke-miterlimit:10;" d="M1438.164,735.689
		c-0.236,1.447,0.747,2.812,2.194,3.047c1.447,0.236,2.812-0.747,3.047-2.194"/>
        <path style="fill:#FFFFFF;stroke:#000000;stroke-linecap:round;stroke-linejoin:round;stroke-miterlimit:10;" d="M1438.164,735.689
		c-0.236,1.447,0.747,2.812,2.194,3.047c1.447,0.236,2.812-0.747,3.047-2.194"/>
        <path style="fill:#FFFFFF;stroke:#000000;stroke-linecap:round;stroke-linejoin:round;stroke-miterlimit:10;" d="M1442.727,755.392
		c0.228-2.146-2.308-4.975-4.164-5.264"/>
        <path style="fill:#FFFFFF;stroke:#000000;stroke-linecap:round;stroke-linejoin:round;stroke-miterlimit:10;" d="M1431.981,733.226
		c1.826,1.15,2.475,4.893,1.553,6.53"/>
        <path style="fill:#FFFFFF;stroke:#000000;stroke-linecap:round;stroke-linejoin:round;stroke-miterlimit:10;" d="M688.655,673.528
		l-71.551-15.548c-2.203-0.479-4.377,0.919-4.857,3.122l-10.065,46.32c-0.479,2.203,0.919,4.378,3.122,4.856l71.551,15.549
		c2.203,0.479,4.378-0.92,4.856-3.123l10.065-46.32C692.257,676.181,690.858,674.008,688.655,673.528"/>
        <path style="fill:#FFFFFF;stroke:#000000;stroke-linecap:round;stroke-linejoin:round;stroke-miterlimit:10;" d="M688.655,673.528
		l-71.551-15.548c-2.203-0.479-4.377,0.919-4.857,3.122l-10.065,46.32c-0.479,2.203,0.919,4.378,3.122,4.856l71.551,15.549
		c2.203,0.479,4.378-0.92,4.856-3.123l10.065-46.32C692.257,676.181,690.858,674.008,688.655,673.528"/>
        <path style="fill:#FFFFFF;stroke:#000000;stroke-linecap:round;stroke-linejoin:round;stroke-miterlimit:10;" d="M680.845,728.694
		l-79.53-17.281l-12.5,14.978c-1.746,2.092-0.648,5.292,2.015,5.871l90.9,19.753c2.664,0.578,4.991-1.876,4.27-4.505
		L680.845,728.694z"/>
        <path style="fill:#FFFFFF;stroke:#000000;stroke-linecap:round;stroke-linejoin:round;stroke-miterlimit:10;" d="M680.845,728.694
		l-79.53-17.281l-12.5,14.978c-1.746,2.092-0.648,5.292,2.015,5.871l90.9,19.753c2.664,0.578,4.991-1.876,4.27-4.505
		L680.845,728.694z"/>
        <path style="fill:#FFFFFF;stroke:#000000;stroke-linecap:round;stroke-linejoin:round;stroke-miterlimit:10;" d="M786.719,1511.747
		h-11.714v34.003c0,10.169-8.243,18.411-18.411,18.411l-87.456,0.001c-10.168,0-18.411-8.244-18.411-18.412v-34.003l-11.714,0.001
		v59.525c0,2.542,2.061,4.603,4.603,4.603l274.495-0.001c2.542,0,4.603-2.061,4.603-4.604l-0.001-59.525h-11.714v34.003
		c0,10.169-8.243,18.411-18.411,18.411l-87.455,0.001c-10.169,0-18.412-8.243-18.412-18.411v-34.003H786.719z"/>
        <path style="fill:#FFFFFF;stroke:#000000;stroke-linecap:round;stroke-linejoin:round;stroke-miterlimit:10;" d="M795.552,1564.161
		h106.615c4.877,0,8.831-3.954,8.831-8.832v-43.583l-124.279,0.001v43.582C786.72,1560.207,790.674,1564.161,795.552,1564.161z"/>
        <path style="fill:#FFFFFF;stroke:#000000;stroke-linecap:round;stroke-linejoin:round;stroke-miterlimit:10;" d="M659.559,1564.162
		h106.615c4.877,0,8.831-3.954,8.831-8.832v-43.583l-124.279,0.001v43.582C650.727,1560.208,654.681,1564.162,659.559,1564.162z"/>
        <path style="fill:#FFFFFF;stroke:#000000;stroke-linecap:round;stroke-linejoin:round;stroke-miterlimit:10;" d="M920.503,1199.418
		l-279.284,0.001c-1.22,0-2.208,0.989-2.208,2.209l0.001,310.121l283.7-0.001l-0.002-310.121
		C922.711,1200.406,921.723,1199.418,920.503,1199.418z"/>
        <path style="fill:#FFFFFF;stroke:#000000;stroke-linecap:round;stroke-linejoin:round;stroke-miterlimit:10;" d="M962.851,1534.897
		c7.109-7.309,18.796-7.473,26.106-0.364c7.309,7.108,7.473,18.796,0.364,26.105c-7.108,7.31-18.796,7.473-26.106,0.365
		C955.906,1553.894,955.744,1542.206,962.851,1534.897"/>
        <path style="fill:#FFFFFF;stroke:#000000;stroke-linecap:round;stroke-linejoin:round;stroke-miterlimit:10;" d="M962.851,1534.897
		c7.109-7.309,18.796-7.473,26.106-0.364c7.309,7.108,7.473,18.796,0.364,26.105c-7.108,7.31-18.796,7.473-26.106,0.365
		C955.906,1553.894,955.744,1542.206,962.851,1534.897"/>
        <path style="fill:#FFFFFF;stroke:#000000;stroke-linecap:round;stroke-linejoin:round;stroke-miterlimit:10;" d="M942.37,1461.985
		c10.905-11.214,28.837-11.465,40.051-0.559c11.215,10.905,11.465,28.837,0.56,40.051c-10.905,11.215-28.837,11.465-40.052,0.56
		C931.715,1491.13,931.465,1473.199,942.37,1461.985z"/>
        <path style="fill:#FFFFFF;stroke:#000000;stroke-linecap:round;stroke-linejoin:round;stroke-miterlimit:10;" d="M942.37,1461.985
		c10.905-11.214,28.837-11.465,40.051-0.559c11.215,10.905,11.465,28.837,0.56,40.051c-10.905,11.215-28.837,11.465-40.052,0.56
		C931.715,1491.13,931.465,1473.199,942.37,1461.985z"/>
        <path style="fill:#FFFFFF;stroke:#000000;stroke-linecap:round;stroke-linejoin:round;stroke-miterlimit:10;" d="M954.715,1473.99
		c4.275-4.396,11.304-4.494,15.7-0.219s4.494,11.304,0.219,15.699c-4.275,4.396-11.304,4.495-15.7,0.22
		C950.539,1485.416,950.441,1478.386,954.715,1473.99"/>
        <path style="fill:#FFFFFF;stroke:#000000;stroke-linecap:round;stroke-linejoin:round;stroke-miterlimit:10;" d="M954.715,1473.99
		c4.275-4.396,11.304-4.494,15.7-0.219s4.494,11.304,0.219,15.699c-4.275,4.396-11.304,4.495-15.7,0.22
		C950.539,1485.416,950.441,1478.386,954.715,1473.99"/>
        <path style="fill:#FFFFFF;stroke:#000000;stroke-linecap:round;stroke-linejoin:round;stroke-miterlimit:10;" d="M957.047,1476.258
		c3.023-3.108,7.993-3.177,11.102-0.155c3.108,3.023,3.178,7.994,0.154,11.101c-3.022,3.108-7.993,3.178-11.101,0.155
		C954.093,1484.336,954.024,1479.366,957.047,1476.258"/>
        <path style="fill:#FFFFFF;stroke:#000000;stroke-linecap:round;stroke-linejoin:round;stroke-miterlimit:10;" d="M957.047,1476.258
		c3.023-3.108,7.993-3.177,11.102-0.155c3.108,3.023,3.178,7.994,0.154,11.101c-3.022,3.108-7.993,3.178-11.101,0.155
		C954.093,1484.336,954.024,1479.366,957.047,1476.258"/>
        <path style="fill:#FFFFFF;stroke:#000000;stroke-linecap:round;stroke-linejoin:round;stroke-miterlimit:10;" d="M968.801,1500.449
		c0.384,0.374,0.666,0.865,0.781,1.434l14.521,72.403c0.298,1.494-0.67,2.949-2.166,3.248c-1.493,0.301-2.947-0.664-3.251-2.163
		l-14.521-72.403c-0.298-1.494,0.67-2.949,2.166-3.248C967.258,1499.532,968.171,1499.837,968.801,1500.449"/>
        <path style="fill:#FFFFFF;stroke:#000000;stroke-linecap:round;stroke-linejoin:round;stroke-miterlimit:10;" d="M968.801,1500.449
		c0.384,0.374,0.666,0.865,0.781,1.434l14.521,72.403c0.298,1.494-0.67,2.949-2.166,3.248c-1.493,0.301-2.947-0.664-3.251-2.163
		l-14.521-72.403c-0.298-1.494,0.67-2.949,2.166-3.248C967.258,1499.532,968.171,1499.837,968.801,1500.449"/>
        <path style="fill:#FFFFFF;stroke:#000000;stroke-linecap:round;stroke-linejoin:round;stroke-miterlimit:10;" d="M594.776,1531.073
		c9.248,4.294,13.263,15.272,8.969,24.519c-4.294,9.247-15.272,13.263-24.519,8.969c-9.248-4.294-13.263-15.272-8.969-24.518
		C574.551,1530.794,585.529,1526.779,594.776,1531.073z"/>
        <path style="fill:#FFFFFF;stroke:#000000;stroke-linecap:round;stroke-linejoin:round;stroke-miterlimit:10;" d="M594.776,1531.073
		c9.248,4.294,13.263,15.272,8.969,24.519c-4.294,9.247-15.272,13.263-24.519,8.969c-9.248-4.294-13.263-15.272-8.969-24.518
		C574.551,1530.794,585.529,1526.779,594.776,1531.073z"/>
        <path style="fill:#FFFFFF;stroke:#000000;stroke-linecap:round;stroke-linejoin:round;stroke-miterlimit:10;" d="M656.827,1487.652
		c14.188,6.589,20.348,23.43,13.76,37.617c-6.588,14.188-23.43,20.348-37.617,13.761c-14.188-6.589-20.348-23.43-13.76-37.618
		C625.797,1487.225,642.639,1481.063,656.827,1487.652"/>
        <path style="fill:#FFFFFF;stroke:#000000;stroke-linecap:round;stroke-linejoin:round;stroke-miterlimit:10;" d="M656.827,1487.652
		c14.188,6.589,20.348,23.43,13.76,37.617c-6.588,14.188-23.43,20.348-37.617,13.761c-14.188-6.589-20.348-23.43-13.76-37.618
		C625.797,1487.225,642.639,1481.063,656.827,1487.652"/>
        <path style="fill:#FFFFFF;stroke:#000000;stroke-linecap:round;stroke-linejoin:round;stroke-miterlimit:10;" d="M649.574,1503.271
		c5.562,2.582,7.976,9.184,5.394,14.746c-2.582,5.562-9.185,7.976-14.746,5.394c-5.562-2.583-7.977-9.184-5.394-14.746
		S644.013,1500.688,649.574,1503.271z"/>
        <path style="fill:#FFFFFF;stroke:#000000;stroke-linecap:round;stroke-linejoin:round;stroke-miterlimit:10;" d="M649.574,1503.271
		c5.562,2.582,7.976,9.184,5.394,14.746c-2.582,5.562-9.185,7.976-14.746,5.394c-5.562-2.583-7.977-9.184-5.394-14.746
		S644.013,1500.688,649.574,1503.271z"/>
        <path style="fill:#FFFFFF;stroke:#000000;stroke-linecap:round;stroke-linejoin:round;stroke-miterlimit:10;" d="M648.205,1506.22
		c3.933,1.826,5.64,6.495,3.814,10.427s-6.494,5.64-10.427,3.813c-3.933-1.825-5.64-6.494-3.814-10.426
		C639.604,1506.102,644.272,1504.394,648.205,1506.22"/>
        <path style="fill:#FFFFFF;stroke:#000000;stroke-linecap:round;stroke-linejoin:round;stroke-miterlimit:10;" d="M648.205,1506.22
		c3.933,1.826,5.64,6.495,3.814,10.427s-6.494,5.64-10.427,3.813c-3.933-1.825-5.64-6.494-3.814-10.426
		C639.604,1506.102,644.272,1504.394,648.205,1506.22"/>
        <path style="fill:#FFFFFF;stroke:#000000;stroke-linecap:round;stroke-linejoin:round;stroke-miterlimit:10;" d="M629.255,1525.307
		c-0.225,0.487-0.596,0.914-1.095,1.211l-63.54,37.627c-1.312,0.775-3.005,0.341-3.781-0.971c-0.778-1.309-0.347-3.002,0.967-3.783
		l63.54-37.626c1.312-0.775,3.005-0.341,3.781,0.971C629.611,1523.548,629.625,1524.511,629.255,1525.307"/>
        <path style="fill:#FFFFFF;stroke:#000000;stroke-linecap:round;stroke-linejoin:round;stroke-miterlimit:10;" d="M629.255,1525.307
		c-0.225,0.487-0.596,0.914-1.095,1.211l-63.54,37.627c-1.312,0.775-3.005,0.341-3.781-0.971c-0.778-1.309-0.347-3.002,0.967-3.783
		l63.54-37.626c1.312-0.775,3.005-0.341,3.781,0.971C629.611,1523.548,629.625,1524.511,629.255,1525.307"/>
        <polyline style="fill:#FFFFFF;stroke:#000000;stroke-linecap:round;stroke-linejoin:round;stroke-miterlimit:10;" points="
		1571.718,647.959 1571.677,734.338 1686.38,734.391 1686.441,648.013 1571.718,647.959 	"/>
        <polyline style="fill:#FFFFFF;stroke:#000000;stroke-linecap:round;stroke-linejoin:round;stroke-miterlimit:10;" points="
		1284.913,444.762 1284.913,559.485 1399.617,559.485 1399.637,444.762 1284.913,444.762 	"/>
        <polyline style="fill:#FFFFFF;stroke:#000000;stroke-linecap:round;stroke-linejoin:round;stroke-miterlimit:10;" points="
		1470.237,712.996 1456.582,719.162 1466.274,740.623 1479.928,734.456 1470.237,712.996 	"/>
        <polyline style="fill:#FFFFFF;stroke:#000000;stroke-linecap:round;stroke-linejoin:round;stroke-miterlimit:10;" points="
		678.63,694.815 617.391,681.508 611.651,707.922 672.889,721.23 678.63,694.815 	"/>
        <polyline style="fill:#FFFFFF;stroke:#000000;stroke-linecap:round;stroke-linejoin:round;stroke-miterlimit:10;" points="
		678.63,694.815 617.391,681.508 611.651,707.922 672.889,721.23 678.63,694.815 	"/>
        <polyline style="fill:#FFFFFF;stroke:#000000;stroke-linecap:round;stroke-linejoin:round;stroke-miterlimit:10;" points="
		664.489,671.747 639.83,666.389 636.586,681.316 661.246,686.674 664.489,671.747 	"/>
        <polyline style="fill:#FFFFFF;stroke:#000000;stroke-linecap:round;stroke-linejoin:round;stroke-miterlimit:10;" points="
		664.489,671.747 639.83,666.389 636.586,681.316 661.246,686.674 664.489,671.747 	"/>
        <polyline style="fill:#FFFFFF;stroke:#000000;stroke-linecap:round;stroke-linejoin:round;stroke-miterlimit:10;" points="
		1437.853,891.154 1686.38,891.154 1686.38,1003.948 1437.853,1003.946 1437.853,891.154 	"/>
        <polyline style="fill:#FFFFFF;stroke:#000000;stroke-linecap:round;stroke-linejoin:round;stroke-miterlimit:10;" points="
		1437.853,998.637 1686.38,998.639 1686.38,1003.948 1437.853,1003.946 1437.853,998.637 	"/>
        <polyline style="fill:#FFFFFF;stroke:#000000;stroke-linecap:round;stroke-linejoin:round;stroke-miterlimit:10;" points="
		1193.151,1214.24 1193.15,1596.589 1080.356,1596.589 1080.358,1214.24 1193.151,1214.24 	"/>
        <polyline style="fill:#FFFFFF;stroke:#000000;stroke-linecap:round;stroke-linejoin:round;stroke-miterlimit:10;" points="
		1085.667,1214.24 1085.666,1596.589 1080.356,1596.589 1080.358,1214.24 1085.667,1214.24 	"/>
        <polyline style="fill:#FFFFFF;stroke:#000000;stroke-linecap:round;stroke-linejoin:round;stroke-miterlimit:10;" points="
		936.522,1582.779 625.204,1582.781 625.204,1596.59 936.522,1596.588 936.522,1582.779 	"/>
        <polyline style="fill:#FFFFFF;stroke:#000000;stroke-linecap:round;stroke-linejoin:round;stroke-miterlimit:10;" points="
		936.522,1582.779 625.204,1582.781 625.202,1187.913 936.521,1187.912 936.522,1582.779 	"/>
        <polyline style="fill:#FFFFFF;stroke:#000000;stroke-linecap:round;stroke-linejoin:round;stroke-miterlimit:10;" points="
		625.204,1596.589 625.204,1503.177 547.323,1503.179 547.323,1596.589 625.204,1596.589 	"/>
        <polyline style="fill:#FFFFFF;stroke:#000000;stroke-linecap:round;stroke-linejoin:round;stroke-miterlimit:10;" points="
		1014.401,1596.589 1014.401,1503.177 936.521,1503.178 936.521,1596.589 1014.401,1596.589 	"/>
        <polyline style="fill:#FFFFFF;stroke:#000000;stroke-linecap:round;stroke-linejoin:round;stroke-miterlimit:10;" points="
		984.661,1549.035 986.596,1558.665 970.356,1561.929 968.422,1552.299 984.661,1549.035 	"/>
        <polyline style="fill:#FFFFFF;stroke:#000000;stroke-linecap:round;stroke-linejoin:round;stroke-miterlimit:10;" points="
		984.661,1549.035 986.596,1558.665 970.356,1561.929 968.422,1552.299 984.661,1549.035 	"/>
        <polyline style="fill:#FFFFFF;stroke:#000000;stroke-linecap:round;stroke-linejoin:round;stroke-miterlimit:10;" points="
		588.638,1556.329 580.189,1561.337 571.742,1547.087 580.191,1542.081 588.638,1556.329 	"/>
        <polyline style="fill:#FFFFFF;stroke:#000000;stroke-linecap:round;stroke-linejoin:round;stroke-miterlimit:10;" points="
		588.638,1556.329 580.189,1561.337 571.742,1547.087 580.191,1542.081 588.638,1556.329 	"/>
        <polyline style="fill:none;stroke:#000000;stroke-linecap:round;stroke-linejoin:round;stroke-miterlimit:10;" points="
		1364.119,488.081 1356.317,502.124 1364.119,516.166 	"/>
        <polyline style="fill:none;stroke:#000000;stroke-linecap:round;stroke-linejoin:round;stroke-miterlimit:10;" points="
		1356.318,523.967 1342.275,516.165 1328.233,523.967 	"/>
        <polyline style="fill:none;stroke:#000000;stroke-linecap:round;stroke-linejoin:round;stroke-miterlimit:10;" points="
		1320.432,516.166 1328.234,502.124 1320.432,488.081 	"/>
        <polyline style="fill:none;stroke:#000000;stroke-linecap:round;stroke-linejoin:round;stroke-miterlimit:10;" points="
		1328.233,480.28 1342.275,488.082 1356.318,480.28 	"/>
        <polyline style="fill:none;stroke:#000000;stroke-linecap:round;stroke-linejoin:round;stroke-miterlimit:10;" points="
		801.15,981.354 801.148,970.247 579.008,970.279 579.01,981.387 801.15,981.354 	"/>
        <polyline style="fill:none;stroke:#000000;stroke-linecap:round;stroke-linejoin:round;stroke-miterlimit:10;" points="
		773.384,992.465 801.15,981.354 579.01,981.386 606.779,992.489 773.384,992.465 	"/>
        <polyline style="fill:none;stroke:#000000;stroke-linecap:round;stroke-linejoin:round;stroke-miterlimit:10;" points="
		782.085,1018.882 782.086,1029.989 1004.227,1029.957 1004.225,1018.849 782.085,1018.882 	"/>
        <polyline style="fill:none;stroke:#000000;stroke-linecap:round;stroke-linejoin:round;stroke-miterlimit:10;" points="
		809.851,1007.771 782.085,1018.882 1004.225,1018.85 976.456,1007.747 809.851,1007.771 	"/>
        <rect x="1571.718" y="444.762" style="fill:#FFFFFF;stroke:#000000;stroke-linecap:round;stroke-linejoin:round;stroke-miterlimit:10;" width="114.662" height="203.197"/>
        <rect x="1399.603" y="444.762" style="fill:#FFFFFF;stroke:#000000;stroke-linecap:round;stroke-linejoin:round;stroke-miterlimit:10;" width="57.367" height="114.724"/>
        <polygon style="fill:#FFFFFF;stroke:#000000;stroke-linecap:round;stroke-linejoin:round;stroke-miterlimit:10;" points="
		823.928,992.477 824.118,950.419 472.612,950.419 472.421,992.477 	"/>
        <line style="fill:none;stroke:#000000;stroke-linecap:round;stroke-linejoin:round;stroke-miterlimit:10;" x1="1476.688" y1="662.182" x2="1436.753" y2="712.347"/>
        <line style="fill:none;stroke:#000000;stroke-linecap:round;stroke-linejoin:round;stroke-miterlimit:10;" x1="1476.688" y1="662.182" x2="1436.753" y2="712.347"/>
        <line style="fill:none;stroke:#000000;stroke-linecap:round;stroke-linejoin:round;stroke-miterlimit:10;" x1="1418.644" y1="753.473" x2="1421.454" y2="752.11"/>
        <line style="fill:none;stroke:#000000;stroke-linecap:round;stroke-linejoin:round;stroke-miterlimit:10;" x1="1418.644" y1="753.473" x2="1421.454" y2="752.11"/>
        <line style="fill:none;stroke:#000000;stroke-linecap:round;stroke-linejoin:round;stroke-miterlimit:10;" x1="976.542" y1="1550.667" x2="978.475" y2="1560.294"/>
        <line style="fill:none;stroke:#000000;stroke-linecap:round;stroke-linejoin:round;stroke-miterlimit:10;" x1="976.542" y1="1550.667" x2="978.475" y2="1560.294"/>
        <line style="fill:none;stroke:#000000;stroke-linecap:round;stroke-linejoin:round;stroke-miterlimit:10;" x1="964.773" y1="1492.073" x2="981.395" y2="1574.828"/>
        <line style="fill:none;stroke:#000000;stroke-linecap:round;stroke-linejoin:round;stroke-miterlimit:10;" x1="964.773" y1="1492.073" x2="981.395" y2="1574.828"/>
        <line style="fill:none;stroke:#000000;stroke-linecap:round;stroke-linejoin:round;stroke-miterlimit:10;" x1="966.873" y1="1502.425" x2="981.394" y2="1574.828"/>
        <line style="fill:none;stroke:#000000;stroke-linecap:round;stroke-linejoin:round;stroke-miterlimit:10;" x1="966.873" y1="1502.425" x2="981.394" y2="1574.828"/>
        <line style="fill:none;stroke:#000000;stroke-linecap:round;stroke-linejoin:round;stroke-miterlimit:10;" x1="584.414" y1="1549.205" x2="575.967" y2="1554.211"/>
        <line style="fill:none;stroke:#000000;stroke-linecap:round;stroke-linejoin:round;stroke-miterlimit:10;" x1="584.414" y1="1549.205" x2="575.967" y2="1554.211"/>
        <line style="fill:none;stroke:#000000;stroke-linecap:round;stroke-linejoin:round;stroke-miterlimit:10;" x1="635.83" y1="1518.738" x2="563.214" y2="1561.767"/>
        <line style="fill:none;stroke:#000000;stroke-linecap:round;stroke-linejoin:round;stroke-miterlimit:10;" x1="635.83" y1="1518.738" x2="563.214" y2="1561.767"/>
        <line style="fill:none;stroke:#000000;stroke-linecap:round;stroke-linejoin:round;stroke-miterlimit:10;" x1="626.754" y1="1524.141" x2="563.214" y2="1561.767"/>
        <line style="fill:none;stroke:#000000;stroke-linecap:round;stroke-linejoin:round;stroke-miterlimit:10;" x1="626.754" y1="1524.141" x2="563.214" y2="1561.767"/>
        <line style="fill:none;stroke:#000000;stroke-linecap:round;stroke-linejoin:round;stroke-miterlimit:10;" x1="1370.36" y1="502.124" x2="1314.19" y2="502.124"/>
        <line style="fill:none;stroke:#000000;stroke-linecap:round;stroke-linejoin:round;stroke-miterlimit:10;" x1="1342.275" y1="474.039" x2="1342.275" y2="530.208"/>
    </g>
    <g id="floor">
        <polygon points="156.961,1638.613 117.026,1638.613 99.646,1606.17 128.304,1552.641 156.961,1552.641 	"/>
        <polygon points="472.422,1638.613 156.961,1638.613 156.961,1552.641 166.539,1552.641 386.373,1552.641 472.422,1552.641 
		472.422,1596.592 	"/>
        <polygon points="1686.377,1638.613 472.422,1638.613 472.422,1596.592 1193.179,1596.592 1210.25,1596.592 1686.377,1596.592 	"/>
        <polygon points="1724.613,1638.613 1686.377,1638.613 1686.377,1596.592 1686.377,1578.517 1686.377,1248.534 1686.377,1231.464 
		1686.377,1214.238 1709.55,1214.238 1724.613,1214.238 	"/>
        <polygon points="1672.937,1578.517 1686.377,1578.517 1686.377,1596.592 1210.25,1596.592 1210.25,1578.517 1343.495,1578.517 
		1363.732,1578.517 1477.28,1578.517 1500.684,1578.517 1615.391,1578.517 	"/>
        <polygon points="1210.25,1578.517 1210.25,1596.592 1193.179,1596.592 1193.179,1231.464 1208.473,1231.464 1210.25,1231.464 
		1210.25,1250.465 1210.25,1254.945 	"/>
        <polygon points="1686.377,1578.517 1672.937,1578.517 1672.937,1397.845 1672.937,1388.267 1672.937,1248.534 1686.377,1248.534 	
		"/>
        <polygon points="472.422,1552.641 386.373,1552.641 386.373,1513.401 434.187,1513.401 447.704,1513.401 472.422,1513.401 	"/>
        <polygon points="1495.895,1231.464 1686.377,1231.464 1686.377,1248.534 1672.937,1248.534 1624.892,1248.534 1615.391,1248.534 
		1495.895,1248.534 1495.895,1243.204 	"/>
        <polygon points="1342.954,1231.464 1342.954,1243.204 1342.954,1250.465 1210.25,1250.465 1210.25,1231.464 	"/>
        <polygon points="434.187,1111.968 386.373,1111.968 386.373,1086.169 386.373,1076.591 386.373,1071.802 386.373,964.743 
		386.373,917.933 434.187,917.933 451.412,917.933 472.422,917.933 472.422,992.473 472.422,1034.57 472.422,1111.968 
		451.412,1111.968 	"/>
        <polygon points="386.373,1071.802 357.716,1071.802 329.059,1018.272 357.716,964.743 386.373,964.743 	"/>
        <polygon points="778.306,1034.57 472.422,1034.57 472.422,992.473 778.306,992.473 778.306,1007.767 	"/>
        <polygon points="1709.55,1017.345 1686.377,1017.345 1686.377,891.13 1686.377,849.109 1686.377,734.403 1686.377,444.741 
		1686.377,406.506 1724.613,406.506 1724.613,1017.345 	"/>
        <polygon points="1422.592,992.473 1422.592,891.13 1437.886,891.13 1437.886,1007.767 1422.592,1007.767 	"/>
        <polygon points="1175.954,992.473 1208.473,992.473 1208.473,1007.767 1193.179,1007.767 1175.954,1007.767 1175.954,994.558 	"/>
        <polygon points="1003.856,994.558 1003.856,1007.767 778.306,1007.767 778.306,992.473 1003.856,992.473 	"/>
        <polygon points="1437.886,891.13 1422.592,891.13 1422.592,849.109 1571.671,849.109 1686.377,849.109 1686.377,891.13 	"/>
        <polygon points="434.187,516.423 386.373,516.423 386.373,469.613 386.373,362.554 472.422,362.554 472.422,406.506 
		472.422,444.741 472.422,516.423 451.412,516.423 	"/>
        <polygon points="386.373,469.613 357.716,469.613 329.059,416.084 357.716,362.554 386.373,362.554 	"/>
        <polygon points="1456.965,444.741 472.422,444.741 472.422,406.506 1686.377,406.506 1686.377,444.741 1571.671,444.741 	"/>
        <rect x="1193.179" y="1007.767" width="15.294" height="223.696"/>
        <rect x="1640.263" y="1268.308" style="fill:none;stroke:#000000;stroke-linecap:round;stroke-linejoin:round;stroke-miterlimit:10;" width="21.937" height="94.468"/>
        <rect x="1500.684" y="1492.468" style="fill:none;stroke:#000000;stroke-linecap:round;stroke-linejoin:round;stroke-miterlimit:10;" width="114.706" height="86.049"/>
        <rect x="1456.965" y="444.741" style="fill:none;stroke:#000000;stroke-linecap:round;stroke-linejoin:round;stroke-miterlimit:10;" width="114.706" height="114.706"/>
        <rect x="1571.671" y="734.403" style="fill:none;stroke:#000000;stroke-linecap:round;stroke-linejoin:round;stroke-miterlimit:10;" width="114.706" height="114.706"/>
        <line style="fill:none;stroke:#000000;stroke-linecap:round;stroke-linejoin:round;stroke-miterlimit:10;" x1="1899.646" y1="1203.27" x2="1724.613" y2="1203.27"/>
        <line style="fill:none;stroke:#000000;stroke-linecap:round;stroke-linejoin:round;stroke-miterlimit:10;" x1="1724.613" y1="1203.27" x2="1724.613" y2="1214.238"/>
        <line style="fill:none;stroke:#000000;stroke-linecap:round;stroke-linejoin:round;stroke-miterlimit:10;" x1="1724.613" y1="1017.345" x2="1724.613" y2="1028.236"/>
        <line style="fill:none;stroke:#000000;stroke-linecap:round;stroke-linejoin:round;stroke-miterlimit:10;" x1="1709.55" y1="1203.27" x2="1709.55" y2="1214.238"/>
        <line style="fill:none;stroke:#000000;stroke-linecap:round;stroke-linejoin:round;stroke-miterlimit:10;" x1="1709.55" y1="1017.345" x2="1709.55" y2="1028.236"/>
        <line style="fill:none;stroke:#000000;stroke-linecap:round;stroke-linejoin:round;stroke-miterlimit:10;" x1="1724.613" y1="1028.236" x2="1709.55" y2="1028.236"/>
        <line style="fill:none;stroke:#000000;stroke-linecap:round;stroke-linejoin:round;stroke-miterlimit:10;" x1="1724.613" y1="1203.27" x2="1709.55" y2="1203.27"/>
        <line style="fill:none;stroke:#000000;stroke-linecap:round;stroke-linejoin:round;stroke-miterlimit:10;" x1="1166.376" y1="1160.709" x2="1166.376" y2="1007.767"/>
        <line style="fill:none;stroke:#000000;stroke-linecap:round;stroke-linejoin:round;stroke-miterlimit:10;" x1="1166.376" y1="1007.767" x2="1175.954" y2="1007.767"/>
        <line style="fill:none;stroke:#000000;stroke-linecap:round;stroke-linejoin:round;stroke-miterlimit:10;" x1="1003.856" y1="1007.767" x2="1013.434" y2="1007.767"/>
        <line style="fill:none;stroke:#000000;stroke-linecap:round;stroke-linejoin:round;stroke-miterlimit:10;" x1="1166.376" y1="994.558" x2="1175.954" y2="994.558"/>
        <line style="fill:none;stroke:#000000;stroke-linecap:round;stroke-linejoin:round;stroke-miterlimit:10;" x1="1003.856" y1="994.558" x2="1013.434" y2="994.558"/>
        <line style="fill:none;stroke:#000000;stroke-linecap:round;stroke-linejoin:round;stroke-miterlimit:10;" x1="1013.434" y1="1007.767" x2="1013.434" y2="994.558"/>
        <line style="fill:none;stroke:#000000;stroke-linecap:round;stroke-linejoin:round;stroke-miterlimit:10;" x1="1166.376" y1="1007.767" x2="1166.376" y2="994.558"/>
        <line style="fill:none;stroke:#000000;stroke-linecap:round;stroke-linejoin:round;stroke-miterlimit:10;" x1="1487.399" y1="1095.515" x2="1487.399" y2="1231.464"/>
        <line style="fill:none;stroke:#000000;stroke-linecap:round;stroke-linejoin:round;stroke-miterlimit:10;" x1="1487.399" y1="1231.464" x2="1495.895" y2="1231.464"/>
        <line style="fill:none;stroke:#000000;stroke-linecap:round;stroke-linejoin:round;stroke-miterlimit:10;" x1="1342.954" y1="1231.464" x2="1351.451" y2="1231.464"/>
        <line style="fill:none;stroke:#000000;stroke-linecap:round;stroke-linejoin:round;stroke-miterlimit:10;" x1="1487.399" y1="1243.204" x2="1495.895" y2="1243.204"/>
        <line style="fill:none;stroke:#000000;stroke-linecap:round;stroke-linejoin:round;stroke-miterlimit:10;" x1="1342.954" y1="1243.204" x2="1351.451" y2="1243.204"/>
        <line style="fill:none;stroke:#000000;stroke-linecap:round;stroke-linejoin:round;stroke-miterlimit:10;" x1="1351.451" y1="1231.464" x2="1351.451" y2="1243.204"/>
        <line style="fill:none;stroke:#000000;stroke-linecap:round;stroke-linejoin:round;stroke-miterlimit:10;" x1="1487.399" y1="1231.464" x2="1487.399" y2="1243.204"/>
        <line style="fill:none;stroke:#000000;stroke-linecap:round;stroke-linejoin:round;stroke-miterlimit:10;" x1="1317.618" y1="1511.084" x2="1317.618" y2="1368.493"/>
        <line style="fill:none;stroke:#000000;stroke-linecap:round;stroke-linejoin:round;stroke-miterlimit:10;" x1="1236.126" y1="1366.407" x2="1236.126" y2="1511.084"/>
        <line style="fill:none;stroke:#000000;stroke-linecap:round;stroke-linejoin:round;stroke-miterlimit:10;" x1="604.045" y1="1503.669" x2="447.704" y2="1503.669"/>
        <line style="fill:none;stroke:#000000;stroke-linecap:round;stroke-linejoin:round;stroke-miterlimit:10;" x1="447.704" y1="1503.669" x2="447.704" y2="1513.401"/>
        <line style="fill:none;stroke:#000000;stroke-linecap:round;stroke-linejoin:round;stroke-miterlimit:10;" x1="447.704" y1="1337.518" x2="447.704" y2="1347.328"/>
        <line style="fill:none;stroke:#000000;stroke-linecap:round;stroke-linejoin:round;stroke-miterlimit:10;" x1="434.187" y1="1503.669" x2="434.187" y2="1513.401"/>
        <line style="fill:none;stroke:#000000;stroke-linecap:round;stroke-linejoin:round;stroke-miterlimit:10;" x1="434.187" y1="1337.518" x2="434.187" y2="1347.328"/>
        <line style="fill:none;stroke:#000000;stroke-linecap:round;stroke-linejoin:round;stroke-miterlimit:10;" x1="447.704" y1="1347.328" x2="434.187" y2="1347.328"/>
        <line style="fill:none;stroke:#000000;stroke-linecap:round;stroke-linejoin:round;stroke-miterlimit:10;" x1="447.704" y1="1503.669" x2="434.187" y2="1503.669"/>
        <line style="fill:none;stroke:#000000;stroke-linecap:round;stroke-linejoin:round;stroke-miterlimit:10;" x1="472.422" y1="1337.518" x2="472.422" y2="1111.968"/>
        <line style="fill:none;stroke:#000000;stroke-linecap:round;stroke-linejoin:round;stroke-miterlimit:10;" x1="442.761" y1="1314.577" x2="442.761" y2="1134.909"/>
        <line style="fill:none;stroke:#000000;stroke-linecap:round;stroke-linejoin:round;stroke-miterlimit:10;" x1="451.412" y1="1121.546" x2="451.412" y2="1111.968"/>
        <line style="fill:none;stroke:#000000;stroke-linecap:round;stroke-linejoin:round;stroke-miterlimit:10;" x1="451.412" y1="1314.577" x2="451.412" y2="1134.909"/>
        <line style="fill:none;stroke:#000000;stroke-linecap:round;stroke-linejoin:round;stroke-miterlimit:10;" x1="451.412" y1="1337.518" x2="451.412" y2="1328.018"/>
        <line style="fill:none;stroke:#000000;stroke-linecap:round;stroke-linejoin:round;stroke-miterlimit:10;" x1="442.761" y1="894.992" x2="442.761" y2="539.364"/>
        <line style="fill:none;stroke:#000000;stroke-linecap:round;stroke-linejoin:round;stroke-miterlimit:10;" x1="451.412" y1="526.001" x2="451.412" y2="516.423"/>
        <line style="fill:none;stroke:#000000;stroke-linecap:round;stroke-linejoin:round;stroke-miterlimit:10;" x1="451.412" y1="894.992" x2="451.412" y2="539.364"/>
        <line style="fill:none;stroke:#000000;stroke-linecap:round;stroke-linejoin:round;stroke-miterlimit:10;" x1="451.412" y1="917.933" x2="451.412" y2="908.355"/>
        <line style="fill:none;stroke:#000000;stroke-linecap:round;stroke-linejoin:round;stroke-miterlimit:10;" x1="386.373" y1="917.933" x2="386.373" y2="516.423"/>
        <line style="fill:none;stroke:#000000;stroke-linecap:round;stroke-linejoin:round;stroke-miterlimit:10;" x1="1615.391" y1="1248.534" x2="1615.391" y2="1271.398"/>
        <line style="fill:none;stroke:#000000;stroke-linecap:round;stroke-linejoin:round;stroke-miterlimit:10;" x1="1615.391" y1="1397.845" x2="1615.391" y2="1492.468"/>
        <line style="fill:none;stroke:#000000;stroke-linecap:round;stroke-linejoin:round;stroke-miterlimit:10;stroke-dasharray:10,10;" x1="1208.473" y1="992.473" x2="1422.592" y2="992.473"/>
        <line style="fill:none;stroke:#000000;stroke-linecap:round;stroke-linejoin:round;stroke-miterlimit:10;" x1="1580.322" y1="1366.407" x2="1544.172" y2="1366.407"/>
        <line style="fill:none;stroke:#000000;stroke-linecap:round;stroke-linejoin:round;stroke-miterlimit:10;" x1="1544.172" y1="1297.584" x2="1580.322" y2="1297.584"/>
        <line style="fill:none;stroke:#000000;stroke-linecap:round;stroke-linejoin:round;stroke-miterlimit:10;" x1="1581.249" y1="750.624" x2="1581.249" y2="832.811"/>
        <line style="fill:none;stroke:#000000;stroke-linecap:round;stroke-linejoin:round;stroke-miterlimit:10;" x1="1660.501" y1="839.531" x2="1587.892" y2="839.531"/>
        <line style="fill:none;stroke:#000000;stroke-linecap:round;stroke-linejoin:round;stroke-miterlimit:10;" x1="1667.221" y1="750.624" x2="1667.221" y2="832.811"/>
        <line style="fill:none;stroke:#000000;stroke-linecap:round;stroke-linejoin:round;stroke-miterlimit:10;" x1="1660.501" y1="743.981" x2="1587.892" y2="743.981"/>
        <line style="fill:none;stroke:#000000;stroke-linecap:round;stroke-linejoin:round;stroke-miterlimit:10;" x1="1363.732" y1="1578.517" x2="1477.28" y2="1578.517"/>
        <line style="fill:none;stroke:#000000;stroke-linecap:round;stroke-linejoin:round;stroke-miterlimit:10;" x1="1363.732" y1="1520.199" x2="1363.732" y2="1578.517"/>
        <line style="fill:none;stroke:#000000;stroke-linecap:round;stroke-linejoin:round;stroke-miterlimit:10;" x1="1378.872" y1="1532.635" x2="1378.872" y2="1550.864"/>
        <line style="fill:none;stroke:#000000;stroke-linecap:round;stroke-linejoin:round;stroke-miterlimit:10;" x1="1371.302" y1="1520.199" x2="1371.302" y2="1550.864"/>
        <line style="fill:none;stroke:#000000;stroke-linecap:round;stroke-linejoin:round;stroke-miterlimit:10;" x1="1462.14" y1="1532.635" x2="1462.14" y2="1550.864"/>
        <line style="fill:none;stroke:#000000;stroke-linecap:round;stroke-linejoin:round;stroke-miterlimit:10;" x1="1477.28" y1="1520.199" x2="1477.28" y2="1578.517"/>
        <line style="fill:none;stroke:#000000;stroke-linecap:round;stroke-linejoin:round;stroke-miterlimit:10;" x1="1469.71" y1="1520.199" x2="1469.71" y2="1550.864"/>
        <path style="fill:none;stroke:#000000;stroke-linecap:round;stroke-linejoin:round;stroke-miterlimit:10;" d="M1724.613,1028.236
		c96.631,0,175.033,78.402,175.033,175.033"/>
        <path style="fill:none;stroke:#000000;stroke-linecap:round;stroke-linejoin:round;stroke-miterlimit:10;" d="M1013.434,1007.767
		c0,84.504,68.515,152.942,152.942,152.942"/>
        <path style="fill:none;stroke:#000000;stroke-linecap:round;stroke-linejoin:round;stroke-miterlimit:10;" d="M1351.451,1231.464
		c0-75.08,60.868-135.948,135.948-135.948"/>
        <path style="fill:none;stroke:#000000;stroke-linecap:round;stroke-linejoin:round;stroke-miterlimit:10;" d="M1269.418,1511.084
		c0,4.171,3.321,7.493,7.493,7.493c4.094,0,7.415-3.322,7.415-7.493c0-4.094-3.322-7.415-7.415-7.415
		C1272.74,1503.669,1269.418,1506.99,1269.418,1511.084z"/>
        <path style="fill:none;stroke:#000000;stroke-linecap:round;stroke-linejoin:round;stroke-miterlimit:10;" d="M1220.909,1299.901
		v211.183c0,30.897,25.027,56.001,56.001,56.001c30.897,0,55.924-25.104,55.924-56.001v-211.183
		c0-14.831-11.895-26.803-26.649-26.958h-58.628c-14.676,0-26.649,11.895-26.649,26.649
		C1220.909,1299.669,1220.909,1299.746,1220.909,1299.901z"/>
        <path style="fill:none;stroke:#000000;stroke-linecap:round;stroke-linejoin:round;stroke-miterlimit:10;" d="M1317.618,1511.084
		c0,22.555-18.229,40.784-40.707,40.784c-22.555,0-40.784-18.229-40.784-40.784"/>
        <path style="fill:none;stroke:#000000;stroke-linecap:round;stroke-linejoin:round;stroke-miterlimit:10;" d="M1317.618,1368.493
		c0-22.478-18.229-40.63-40.707-40.707h-0.077c-21.705,0-39.548,16.994-40.707,38.622"/>
        <path style="fill:none;stroke:#000000;stroke-linecap:round;stroke-linejoin:round;stroke-miterlimit:10;" d="M447.704,1347.328
		c86.281,0,156.34,69.982,156.34,156.34"/>
        <path style="fill:none;stroke:#000000;stroke-linecap:round;stroke-linejoin:round;stroke-miterlimit:10;" d="M1556.222,1304.458
		c15.217,0,27.576,12.359,27.576,27.576c0,15.14-12.359,27.499-27.576,27.499h-12.05c-15.217,0-27.499-12.359-27.499-27.499
		c0-15.217,12.282-27.576,27.499-27.576H1556.222z"/>
        <path style="fill:none;stroke:#000000;stroke-linecap:round;stroke-linejoin:round;stroke-miterlimit:10;" d="M1567.345,1321.684
		c5.716,0,10.351,4.635,10.351,10.351c0,5.639-4.635,10.273-10.351,10.273h-12.05c-5.716,0-10.351-4.635-10.351-10.273
		c0-5.716,4.635-10.351,10.351-10.351H1567.345z"/>
        <path style="fill:none;stroke:#000000;stroke-linecap:round;stroke-linejoin:round;stroke-miterlimit:10;" d="M1544.172,1366.407
		c-19.002,0-34.373-15.371-34.373-34.373s15.371-34.45,34.373-34.45"/>
        <path style="fill:none;stroke:#000000;stroke-linecap:round;stroke-linejoin:round;stroke-miterlimit:10;" d="M1588.896,1357.833
		c0,4.712-3.785,8.574-8.574,8.574"/>
        <path style="fill:none;stroke:#000000;stroke-linecap:round;stroke-linejoin:round;stroke-miterlimit:10;" d="M1580.322,1297.584
		c4.789,0,8.574,3.862,8.574,8.574"/>
        <path style="fill:none;stroke:#000000;stroke-linecap:round;stroke-linejoin:round;stroke-miterlimit:10;" d="M1583.875,1551.791
		c3.012-4.712,4.712-10.351,4.712-16.298c0-16.839-13.672-30.588-30.588-30.588c-10.891,0-20.469,5.716-25.876,14.29
		c-3.012,4.712-4.712,10.351-4.712,16.298c0,16.916,13.672,30.588,30.588,30.588
		C1568.89,1566.081,1578.468,1560.365,1583.875,1551.791z"/>
        <path style="fill:none;stroke:#000000;stroke-linecap:round;stroke-linejoin:round;stroke-miterlimit:10;" d="M1667.221,832.811
		c0,3.708-3.013,6.72-6.72,6.72"/>
        <path style="fill:none;stroke:#000000;stroke-linecap:round;stroke-linejoin:round;stroke-miterlimit:10;" d="M1660.501,743.981
		c3.708,0,6.72,2.935,6.72,6.643"/>
        <path style="fill:none;stroke:#000000;stroke-linecap:round;stroke-linejoin:round;stroke-miterlimit:10;" d="M1587.892,839.531
		c-3.63,0-6.643-3.013-6.643-6.72"/>
        <path style="fill:none;stroke:#000000;stroke-linecap:round;stroke-linejoin:round;stroke-miterlimit:10;" d="M1581.249,750.624
		c0-3.708,3.012-6.643,6.643-6.643"/>
        <path style="fill:none;stroke:#000000;stroke-linecap:round;stroke-linejoin:round;stroke-miterlimit:10;" d="M1385.592,1523.597
		c22.709-6.952,47.118-6.952,69.828,0"/>
        <path style="fill:none;stroke:#000000;stroke-linecap:round;stroke-linejoin:round;stroke-miterlimit:10;" d="M1376.864,1502.201
		c28.348-9.192,58.937-9.192,87.285,0"/>
        <path style="fill:none;stroke:#000000;stroke-linecap:round;stroke-linejoin:round;stroke-miterlimit:10;" d="M1379.181,1509.385
		c26.881-8.651,55.77-8.651,82.65,0"/>
        <path style="fill:none;stroke:#000000;stroke-linecap:round;stroke-linejoin:round;stroke-miterlimit:10;" d="M1382.657,1562.219
		c-6.257,0-11.355-5.098-11.355-11.355"/>
        <path style="fill:none;stroke:#000000;stroke-linecap:round;stroke-linejoin:round;stroke-miterlimit:10;" d="M1390.227,1562.219
		c-6.257,0-11.355-5.098-11.355-11.355"/>
        <path style="fill:none;stroke:#000000;stroke-linecap:round;stroke-linejoin:round;stroke-miterlimit:10;" d="M1378.872,1532.635
		c0-4.094,2.703-7.802,6.72-9.037"/>
        <path style="fill:none;stroke:#000000;stroke-linecap:round;stroke-linejoin:round;stroke-miterlimit:10;" d="M1363.732,1520.199
		c0-8.265,5.33-15.526,13.131-17.998"/>
        <path style="fill:none;stroke:#000000;stroke-linecap:round;stroke-linejoin:round;stroke-miterlimit:10;" d="M1371.302,1520.199
		c0-4.944,3.167-9.269,7.879-10.814"/>
        <path style="fill:none;stroke:#000000;stroke-linecap:round;stroke-linejoin:round;stroke-miterlimit:10;" d="M1469.71,1550.864
		c0,6.257-5.098,11.355-11.355,11.355"/>
        <path style="fill:none;stroke:#000000;stroke-linecap:round;stroke-linejoin:round;stroke-miterlimit:10;" d="M1464.148,1502.201
		c7.802,2.472,13.131,9.733,13.131,17.998"/>
        <path style="fill:none;stroke:#000000;stroke-linecap:round;stroke-linejoin:round;stroke-miterlimit:10;" d="M1461.831,1509.385
		c4.712,1.545,7.879,5.87,7.879,10.814"/>
        <path style="fill:none;stroke:#000000;stroke-linecap:round;stroke-linejoin:round;stroke-miterlimit:10;" d="M1462.14,1550.864
		c0,6.257-5.098,11.355-11.355,11.355"/>
        <path style="fill:none;stroke:#000000;stroke-linecap:round;stroke-linejoin:round;stroke-miterlimit:10;" d="M1455.42,1523.597
		c4.017,1.236,6.72,4.944,6.72,9.037"/>
        <polyline style="fill:none;stroke:#000000;stroke-linecap:round;stroke-linejoin:round;stroke-miterlimit:10;" points="
		1343.495,1578.517 1343.495,1254.945 1210.25,1254.945 	"/>
        <polyline style="fill:none;stroke:#000000;stroke-linecap:round;stroke-linejoin:round;stroke-miterlimit:10;" points="
		472.422,1337.518 451.412,1337.518 447.704,1337.518 434.187,1337.518 	"/>
        <polyline style="fill:none;stroke:#000000;stroke-linecap:round;stroke-linejoin:round;stroke-miterlimit:10;" points="
		434.187,1134.909 442.761,1134.909 451.412,1134.909 451.412,1121.546 443.765,1121.546 434.187,1121.546 	"/>
        <polyline style="fill:none;stroke:#000000;stroke-linecap:round;stroke-linejoin:round;stroke-miterlimit:10;" points="
		434.187,1328.018 443.765,1328.018 451.412,1328.018 451.412,1314.577 442.761,1314.577 434.187,1314.577 	"/>
        <polyline style="fill:none;stroke:#000000;stroke-linecap:round;stroke-linejoin:round;stroke-miterlimit:10;" points="
		434.187,1337.518 434.187,1328.018 434.187,1314.577 434.187,1134.909 434.187,1121.546 434.187,1111.968 	"/>
        <polyline style="fill:none;stroke:#000000;stroke-linecap:round;stroke-linejoin:round;stroke-miterlimit:10;" points="
		434.187,539.364 442.761,539.364 451.412,539.364 451.412,526.001 443.765,526.001 434.187,526.001 	"/>
        <polyline style="fill:none;stroke:#000000;stroke-linecap:round;stroke-linejoin:round;stroke-miterlimit:10;" points="
		434.187,908.355 443.765,908.355 451.412,908.355 451.412,894.992 442.761,894.992 434.187,894.992 	"/>
        <polyline style="fill:none;stroke:#000000;stroke-linecap:round;stroke-linejoin:round;stroke-miterlimit:10;" points="
		434.187,917.933 434.187,908.355 434.187,894.992 434.187,539.364 434.187,526.001 434.187,516.423 	"/>
        <polyline style="fill:none;stroke:#000000;stroke-linecap:round;stroke-linejoin:round;stroke-miterlimit:10;" points="
		156.961,1552.641 156.961,1076.591 386.373,1076.591 	"/>
        <polyline style="fill:none;stroke:#000000;stroke-linecap:round;stroke-linejoin:round;stroke-miterlimit:10;" points="
		166.539,1552.641 166.539,1086.169 386.373,1086.169 	"/>
        <polyline style="fill:none;stroke:#000000;stroke-linecap:round;stroke-linejoin:round;stroke-miterlimit:10;" points="
		1615.391,1392.593 1615.391,1397.845 1672.937,1397.845 	"/>
        <polyline style="fill:none;stroke:#000000;stroke-linecap:round;stroke-linejoin:round;stroke-miterlimit:10;" points="
		1624.892,1248.534 1624.892,1388.267 1672.937,1388.267 	"/>
        <polyline style="fill:none;stroke:#000000;stroke-linecap:round;stroke-linejoin:round;stroke-miterlimit:10;" points="
		1662.2,1362.777 1656.021,1274.874 1640.263,1268.308 	"/>
        <polyline style="fill:none;stroke:#000000;stroke-linecap:round;stroke-linejoin:round;stroke-miterlimit:10;" points="
		1588.896,1357.833 1588.896,1362.391 1588.896,1392.593 1615.391,1392.593 1615.391,1271.398 1588.896,1271.398 1588.896,1306.158 
			"/>
        <polyline style="fill:none;stroke:#000000;stroke-linecap:round;stroke-linejoin:round;stroke-miterlimit:10;" points="
		1588.896,1306.158 1588.896,1310.715 1588.896,1357.833 	"/>
        <polyline style="fill:none;stroke:#000000;stroke-linecap:round;stroke-linejoin:round;stroke-miterlimit:10;" points="
		1523.085,1508.689 1532.122,1519.195 1557.999,1549.242 1557.999,1521.744 1583.875,1551.791 1592.913,1562.296 	"/>
        <polyline style="fill:none;stroke:#000000;stroke-linecap:round;stroke-linejoin:round;stroke-miterlimit:10;" points="
		1523.857,473.475 1527.72,473.475 1543.014,473.475 1558.308,473.475 1562.093,473.475 	"/>
        <polyline style="fill:none;stroke:#000000;stroke-linecap:round;stroke-linejoin:round;stroke-miterlimit:10;" points="
		1543.014,492.555 1543.014,488.77 1543.014,473.475 1543.014,458.181 1543.014,454.319 	"/>
        <polyline style="fill:none;stroke:#000000;stroke-linecap:round;stroke-linejoin:round;stroke-miterlimit:10;" points="
		1466.543,473.475 1470.328,473.475 1485.622,473.475 1500.916,473.475 1504.778,473.475 	"/>
        <polyline style="fill:none;stroke:#000000;stroke-linecap:round;stroke-linejoin:round;stroke-miterlimit:10;" points="
		1485.622,492.555 1485.622,488.77 1485.622,473.475 1485.622,458.181 1485.622,454.319 	"/>
        <polyline style="fill:none;stroke:#000000;stroke-linecap:round;stroke-linejoin:round;stroke-miterlimit:10;" points="
		1466.543,530.79 1470.328,530.79 1485.622,530.79 1500.916,530.79 1504.778,530.79 	"/>
        <polyline style="fill:none;stroke:#000000;stroke-linecap:round;stroke-linejoin:round;stroke-miterlimit:10;" points="
		1485.622,549.946 1485.622,546.084 1485.622,530.79 1485.622,515.496 1485.622,511.711 	"/>
        <polyline style="fill:none;stroke:#000000;stroke-linecap:round;stroke-linejoin:round;stroke-miterlimit:10;" points="
		1523.857,530.79 1527.72,530.79 1543.014,530.79 1558.308,530.79 1562.093,530.79 	"/>
        <polyline style="fill:none;stroke:#000000;stroke-linecap:round;stroke-linejoin:round;stroke-miterlimit:10;" points="
		1543.014,549.946 1543.014,546.084 1543.014,530.79 1543.014,515.496 1543.014,511.711 	"/>
        <polyline style="fill:none;stroke:#000000;stroke-linecap:round;stroke-linejoin:round;stroke-miterlimit:10;" points="
		1382.657,1562.219 1390.227,1562.219 1450.785,1562.219 1458.355,1562.219 	"/>
        <circle style="fill:none;stroke:#000000;stroke-linecap:round;stroke-linejoin:round;stroke-miterlimit:10;" cx="1543.014" cy="473.475" r="15.294"/>
        <circle style="fill:none;stroke:#000000;stroke-linecap:round;stroke-linejoin:round;stroke-miterlimit:10;" cx="1485.622" cy="473.475" r="15.294"/>
        <circle style="fill:none;stroke:#000000;stroke-linecap:round;stroke-linejoin:round;stroke-miterlimit:10;" cx="1485.622" cy="530.79" r="15.294"/>
        <circle style="fill:none;stroke:#000000;stroke-linecap:round;stroke-linejoin:round;stroke-miterlimit:10;" cx="1543.014" cy="530.79" r="15.294"/>
        <circle style="fill:none;stroke:#000000;stroke-linecap:round;stroke-linejoin:round;stroke-miterlimit:10;" cx="1648.605" cy="810.874" r="6.72"/>
        <circle style="fill:none;stroke:#000000;stroke-linecap:round;stroke-linejoin:round;stroke-miterlimit:10;" cx="1420.506" cy="1553.722" r="5.098"/>
    </g>
</svg>