<?xml version="1.0" encoding="utf-8"?>
<!-- Generator: Adobe Illustrator 24.1.2, SVG Export Plug-In . SVG Version: 6.00 Build 0)  -->
<svg version="1.0" id="Layer_1" xmlns="http://www.w3.org/2000/svg" xmlns:xlink="http://www.w3.org/1999/xlink" x="0px" y="0px" width="2000px" height="2000px" viewBox="0 0 2000 2000" style="enable-background:new 0 0 2000 2000;" xml:space="preserve">
<path id="background" style="fill:#FFFFFF;" d="M1734.19,1146.02v9.21h22.39v356.66v11.97v30.01H374.9v-6.4v-35.58v-87.12H274.74
	c-0.28,0-0.5-0.22-0.5-0.5v-328.58c0-0.28,0.22-0.5,0.5-0.5H374.9V904.45h0.15v-0.91c-0.06,0.03-0.13,0.04-0.19,0.04H100
	c-0.28,0-0.5-0.22-0.5-0.5V575.62c0-0.28,0.22-0.5,0.5-0.5h274.85c0.02,0,0.03,0.01,0.05,0.01v-86.97v-41.98v-0.04h49.28v0.04
	h1332.4v26.46v15.52v480.9h-22.39v9.19H1900c0.28,0,0.5,0.22,0.5,0.5C1900.5,1070.37,1826.07,1145.01,1734.19,1146.02z"></path>
<g id="g1">
	<path id="g1_path" style="fill:none;" d="M1376.76,1523.86v-345.82h352.83v345.82H1376.76z"></path>
	<text id="g1_text" transform="matrix(1 0 0 1 1544.881 1297.3639)" style="font-family: GraphikLCG-Regular; font-size: 40px; text-anchor: middle; text-align: center;"></text>
</g>
<g id="g2">
	<path id="g2_path" style="fill:none;" d="M1027.18,869.5V474.24h350.45v209.6v0.42V869.5H1027.18z"></path>
	<text id="g2_text" transform="matrix(1 0 0 1 1147.2618 703.9372)" style="font-family: GraphikLCG-Regular; font-size: 40px; text-anchor: middle; text-align: center;"></text>
</g>
<g id="s1">
	<path id="s1_path" style="fill:none;" d="M1380.19,897.27V481.54h339.89v417.02L1380.19,897.27z"></path>
	<text id="s1_text" transform="matrix(1 0 0 1 1462.2159 744.4362)" style="font-family: GraphikLCG-Regular; font-size: 40px; text-anchor: middle; text-align: center;"></text>
</g>
<g id="c1">
	<path id="c1_path" style="fill:none;" d="M388.49,1530.08V989.36l645.31-0.26v-116.4h342.96v658.02L388.49,1530.08z"></path>
	
		<text id="c1_text" transform="matrix(1 0 0 1 1098.9513 1145.4323)" style="font-family: GraphikLCG-Regular; font-size: 40px; text-anchor: middle; text-align: center;"></text>
</g>
<g id="r1">
	<path id="r1_path" style="fill:none;" d="M1026.98,471.43l0.2,513.14H404.12V471.43H1026.98z"></path>
	<text id="r1_text" transform="matrix(1 0 0 1 905.257 750.2712)" style="font-family: GraphikLCG-Regular; font-size: 40px; text-anchor: middle; text-align: center;"></text>
</g>
<g id="h1">
	<path id="h1_path" style="fill:none;" d="M1724.53,1178.03l-347.78,0.01l0.01-278.02h347.76V1178.03z"></path>
	
		<text id="h1_text" transform="matrix(1 0 0 1 1581.2311 1076.6158)" style="font-family: GraphikLCG-Regular; font-size: 40px; text-anchor: middle; text-align: center;"></text>
</g>
<g id="b1">
	<path id="b1_path" style="fill:none;" d="M375.54,894.21H201.42V584.48h174.12V894.21z"></path>
	<text id="b1_text" transform="matrix(1 0 0 1 265.4475 744.3259)" style="font-family: GraphikLCG-Regular; font-size: 40px; text-anchor: middle; text-align: center;"></text>
</g>
<path id="u7" style="fill:#FFFFFF;stroke:#FFFFFF;stroke-linecap:round;stroke-linejoin:round;stroke-miterlimit:10;" d="
	M898.95,1170.23c-6.07,0-10.98-4.92-10.98-10.98c0-6.07,4.92-10.98,10.98-10.98s10.98,4.92,10.98,10.98
	C909.93,1165.31,905.02,1170.23,898.95,1170.23z"></path>
<path id="u10" style="fill:#FFFFFF;stroke:#FFFFFF;stroke-linecap:round;stroke-linejoin:round;stroke-miterlimit:10;" d="
	M1435.07,865.31c-6.07,0-10.98-4.92-10.98-10.98s4.92-10.98,10.98-10.98c6.07,0,10.98,4.92,10.98,10.98
	S1441.14,865.31,1435.07,865.31z"></path>
<path id="u3" style="fill:#FFFFFF;stroke:#FFFFFF;stroke-linecap:round;stroke-linejoin:round;stroke-miterlimit:10;" d="
	M1518.89,1377.5c-6.07,0-10.98-4.92-10.98-10.98c0-6.07,4.92-10.98,10.98-10.98s10.98,4.92,10.98,10.98
	C1529.87,1372.59,1524.96,1377.5,1518.89,1377.5z"></path>
<path id="u11" style="fill:#FFFFFF;stroke:#FFFFFF;stroke-linecap:round;stroke-linejoin:round;stroke-miterlimit:10;" d="
	M347.77,873.45c-6.07,0-10.98-4.92-10.98-10.98s4.92-10.98,10.98-10.98s10.98,4.92,10.98,10.98S353.84,873.45,347.77,873.45z"></path>
<g id="mebel">
	<g>
		<g>
			
				<rect x="1041.1" y="488.12" style="fill:none;stroke:#000000;stroke-linecap:round;stroke-linejoin:round;stroke-miterlimit:10;" width="331.09" height="108.78"></rect>
			
				<line style="fill:none;stroke:#000000;stroke-linecap:round;stroke-linejoin:round;stroke-miterlimit:10;" x1="1372.19" y1="590.71" x2="1041.12" y2="590.78"></line>
		</g>
		
			<line style="fill:none;stroke:#000000;stroke-linecap:round;stroke-linejoin:round;stroke-miterlimit:10;" x1="1150.97" y1="596.9" x2="1150.97" y2="488.3"></line>
		
			<line style="fill:none;stroke:#000000;stroke-linecap:round;stroke-linejoin:round;stroke-miterlimit:10;" x1="1260.83" y1="596.9" x2="1260.83" y2="488.12"></line>
	</g>
	<g>
		<g>
			
				<rect x="1041.1" y="788.79" style="fill:none;stroke:#000000;stroke-linecap:round;stroke-linejoin:round;stroke-miterlimit:10;" width="331.09" height="75.32"></rect>
			
				<line style="fill:none;stroke:#000000;stroke-linecap:round;stroke-linejoin:round;stroke-miterlimit:10;" x1="1372.19" y1="794.98" x2="1041.12" y2="794.91"></line>
		</g>
		
			<line style="fill:none;stroke:#000000;stroke-linecap:round;stroke-linejoin:round;stroke-miterlimit:10;" x1="1150.97" y1="788.79" x2="1150.97" y2="863.93"></line>
		
			<line style="fill:none;stroke:#000000;stroke-linecap:round;stroke-linejoin:round;stroke-miterlimit:10;" x1="1260.83" y1="788.79" x2="1260.83" y2="864.11"></line>
	</g>
	<g>
		
			<line style="fill:none;stroke:#000000;stroke-linecap:round;stroke-linejoin:round;stroke-miterlimit:10;" x1="1486.09" y1="1406.68" x2="1639.49" y2="1406.57"></line>
		<g>
			<g>
				<polyline style="fill:none;stroke:#000000;stroke-linecap:round;stroke-linejoin:round;stroke-miterlimit:10;" points="
					1492.51,1400.2 1633.04,1400.2 1633.04,1184.99 1716.56,1184.99 1716.56,1519.66 1386.58,1519.66 				"></polyline>
				
					<line style="fill:none;stroke:#000000;stroke-linecap:round;stroke-linejoin:round;stroke-miterlimit:10;" x1="1639.49" y1="1406.57" x2="1639.42" y2="1184.99"></line>
			</g>
		</g>
		
			<line style="fill:none;stroke:#000000;stroke-linecap:round;stroke-linejoin:round;stroke-miterlimit:10;" x1="1492.51" y1="1400.2" x2="1492.51" y2="1294.81"></line>
		
			<line style="fill:none;stroke:#000000;stroke-linecap:round;stroke-linejoin:round;stroke-miterlimit:10;" x1="1486.09" y1="1406.68" x2="1486.09" y2="1294.81"></line>
		
			<line style="fill:none;stroke:#000000;stroke-linecap:round;stroke-linejoin:round;stroke-miterlimit:10;" x1="1492.51" y1="1294.81" x2="1383.51" y2="1294.81"></line>
		
			<line style="fill:none;stroke:#000000;stroke-linecap:round;stroke-linejoin:round;stroke-miterlimit:10;" x1="1573.28" y1="1400.2" x2="1573.28" y2="1519.66"></line>
	</g>
	<g>
		<g>
			<g>
				<path style="fill:none;stroke:#000000;stroke-linecap:round;stroke-linejoin:round;stroke-miterlimit:10;" d="M1144.58,1315.25
					l11.76-23.32c7.36-14.59,2.57-32.38-11.12-41.3l-1.55-1.01c-13.67-8.92-31.87-6.14-42.26,6.45l-16.64,20.17L1144.58,1315.25z"></path>
				<path style="fill:none;stroke:#000000;stroke-linecap:round;stroke-linejoin:round;stroke-miterlimit:10;" d="M1090.67,1254.51
					l3.67-4.45c13.31-16.13,36.61-19.68,54.12-8.26l1.99,1.3c17.52,11.43,23.65,34.21,14.23,52.89l-2.58,5.11
					c-1.25,2.47-4.36,3.31-6.68,1.8l0,0c-1.98-1.29-2.67-3.87-1.61-5.98l2.52-4.99c7.36-14.59,2.57-32.38-11.12-41.3l-1.55-1.01
					c-13.67-8.92-31.87-6.14-42.26,6.45l-3.58,4.34c-1.5,1.82-4.13,2.22-6.11,0.93l0,0
					C1089.4,1259.83,1088.91,1256.64,1090.67,1254.51z"></path>
			</g>
			<g>
				<path style="fill:none;stroke:#000000;stroke-linecap:round;stroke-linejoin:round;stroke-miterlimit:10;" d="M1075.06,1423.71
					l13.71,22.23c8.58,13.91,26.24,19.14,41.01,12.16l1.68-0.79c14.76-6.98,21.92-23.93,16.63-39.38l-8.47-24.74L1075.06,1423.71z"></path>
				<path style="fill:none;stroke:#000000;stroke-linecap:round;stroke-linejoin:round;stroke-miterlimit:10;" d="M1155.04,1409.59
					l1.87,5.46c6.77,19.78-2.4,41.49-21.3,50.43l-2.15,1.02c-18.91,8.94-41.53,2.24-52.51-15.57l-3.01-4.87
					c-1.45-2.35-0.54-5.45,1.97-6.63l0,0c2.14-1.01,4.69-0.25,5.93,1.76l2.94,4.76c8.58,13.91,26.24,19.14,41.01,12.16l1.68-0.79
					c14.76-6.98,21.92-23.93,16.63-39.38l-1.82-5.33c-0.76-2.23,0.27-4.68,2.4-5.69l0,0
					C1151.17,1405.72,1154.15,1406.97,1155.04,1409.59z"></path>
			</g>
			<g>
				<path style="fill:none;stroke:#000000;stroke-linecap:round;stroke-linejoin:round;stroke-miterlimit:10;" d="M1016.65,1312.24
					l-26.05,1.81c-16.3,1.13-29.14,14.33-29.82,30.66l-0.08,1.85c-0.68,16.31,11,30.53,27.14,33.03l25.84,4L1016.65,1312.24z"></path>
				<path style="fill:none;stroke:#000000;stroke-linecap:round;stroke-linejoin:round;stroke-miterlimit:10;" d="M991.98,1389.61
					l-5.7-0.88c-20.66-3.2-35.62-21.41-34.75-42.3l0.1-2.38c0.87-20.9,17.32-37.81,38.19-39.26l5.71-0.4
					c2.76-0.19,5.07,2.06,4.96,4.82v0c-0.1,2.36-1.96,4.27-4.32,4.44l-5.58,0.39c-16.3,1.13-29.14,14.33-29.82,30.66l-0.08,1.85
					c-0.68,16.31,11,30.53,27.14,33.03l5.57,0.86c2.33,0.36,4.02,2.42,3.92,4.77l0,0C997.21,1387.99,994.71,1390.04,991.98,1389.61z
					"></path>
			</g>
			
				<circle style="fill:#FFFFFF;stroke:#000000;stroke-linecap:round;stroke-linejoin:round;stroke-miterlimit:10;" cx="1079.5" cy="1350.04" r="73.83"></circle>
		</g>
		<g>
			<path style="fill:none;stroke:#000000;stroke-linecap:round;stroke-linejoin:round;stroke-miterlimit:10;" d="M1053.4,1311.68
				l3.04,4.89c0.34-0.31,0.71-0.61,1.11-0.86s0.83-0.45,1.26-0.62l-3.04-4.89c-0.24-0.38-0.74-0.5-1.12-0.26l-1,0.62
				C1053.28,1310.8,1053.16,1311.3,1053.4,1311.68z"></path>
			
				<circle style="fill:none;stroke:#000000;stroke-linecap:round;stroke-linejoin:round;stroke-miterlimit:10;" cx="1061.7" cy="1322.39" r="7.86"></circle>
		</g>
		<g>
			<g>
				
					<circle style="fill:none;stroke:#000000;stroke-linecap:round;stroke-linejoin:round;stroke-miterlimit:10;" cx="1102.49" cy="1317.11" r="14.94"></circle>
			</g>
			<g>
				
					<circle style="fill:none;stroke:#000000;stroke-linecap:round;stroke-linejoin:round;stroke-miterlimit:10;" cx="1102.49" cy="1317.11" r="8.51"></circle>
			</g>
			<g>
				
					<ellipse transform="matrix(0.5324 -0.8465 0.8465 0.5324 -606.4462 1520.7164)" style="fill:none;stroke:#000000;stroke-linecap:round;stroke-linejoin:round;stroke-miterlimit:10;" cx="1073.19" cy="1309.26" rx="3.76" ry="2.31"></ellipse>
				
					<line style="fill:none;stroke:#000000;stroke-linecap:round;stroke-linejoin:round;stroke-miterlimit:10;" x1="1075.2" y1="1306.08" x2="1083.96" y2="1292.14"></line>
			</g>
			<g>
				<path style="fill:none;stroke:#000000;stroke-linecap:round;stroke-linejoin:round;stroke-miterlimit:10;" d="M1116.37,1340.85
					l2-3.18c1.11-1.76,1.13-3.74,0.04-4.42c-1.08-0.68-2.86,0.19-3.96,1.95l-2,3.18"></path>
				
					<line style="fill:none;stroke:#000000;stroke-linecap:round;stroke-linejoin:round;stroke-miterlimit:10;" x1="1118.41" y1="1333.25" x2="1127.17" y2="1319.32"></line>
			</g>
			
				<line style="fill:none;stroke:#000000;stroke-linecap:round;stroke-linejoin:round;stroke-miterlimit:10;" x1="1114.41" y1="1339.62" x2="1118.41" y2="1333.25"></line>
			<g>
				<path style="fill:none;stroke:#000000;stroke-linecap:round;stroke-linejoin:round;stroke-miterlimit:10;" d="M1083.43,1303.7
					l3.04,1.91l-7.41,11.78l0,0c-1.68-1.06-2.19-3.28-1.13-4.96L1083.43,1303.7z"></path>
				<path style="fill:none;stroke:#000000;stroke-linecap:round;stroke-linejoin:round;stroke-miterlimit:10;" d="M1090.31,1296.13
					L1090.31,1296.13c0.84,0.53,1.09,1.64,0.56,2.48l-4.4,7l-3.04-1.91l4.4-7C1088.36,1295.86,1089.47,1295.61,1090.31,1296.13z"></path>
			</g>
		</g>
		<g>
			
				<circle style="fill:none;stroke:#000000;stroke-linecap:round;stroke-linejoin:round;stroke-miterlimit:10;" cx="1073.03" cy="1361.85" r="20.4"></circle>
			
				<circle style="fill:none;stroke:#000000;stroke-linecap:round;stroke-linejoin:round;stroke-miterlimit:10;" cx="1066.04" cy="1370.37" r="5.86"></circle>
			
				<circle style="fill:none;stroke:#000000;stroke-linecap:round;stroke-linejoin:round;stroke-miterlimit:10;" cx="1077.26" cy="1366.9" r="5.86"></circle>
			
				<circle style="fill:none;stroke:#000000;stroke-linecap:round;stroke-linejoin:round;stroke-miterlimit:10;" cx="1069.06" cy="1358.5" r="5.86"></circle>
			<path style="fill:none;stroke:#000000;stroke-linecap:round;stroke-linejoin:round;stroke-miterlimit:10;" d="M1064.19,1349.98
				l0.22,1.31l5.05-1.05c10.24,1.15,12.97,9.04,14.89,13.26c0.44,0.98,1.9,0.76,2.05-0.3c0.52-3.76,0.45-9.59-3.78-13.46
				c-4.85-4.42-10.47-2.34-13.2-0.87L1064.19,1349.98z"></path>
		</g>
	</g>
	<g>
		<g>
			
				<rect x="1549.14" y="910.31" style="fill:none;stroke:#000000;stroke-linecap:round;stroke-linejoin:round;stroke-miterlimit:10;" width="166.24" height="55.03"></rect>
			
				<line style="fill:none;stroke:#000000;stroke-linecap:round;stroke-linejoin:round;stroke-miterlimit:10;" x1="1549.14" y1="959.11" x2="1715.37" y2="959.18"></line>
		</g>
		
			<line style="fill:none;stroke:#000000;stroke-linecap:round;stroke-linejoin:round;stroke-miterlimit:10;" x1="1632.26" y1="965.33" x2="1632.26" y2="910.49"></line>
	</g>
	<g>
		<g>
			<g>
				<g>
					
						<rect x="569.64" y="488.12" style="fill:none;stroke:#000000;stroke-linecap:round;stroke-linejoin:round;stroke-miterlimit:10;" width="285.17" height="12.65"></rect>
					
						<rect x="569.64" y="500.77" style="fill:none;stroke:#000000;stroke-linecap:round;stroke-linejoin:round;stroke-miterlimit:10;" width="285.17" height="361.7"></rect>
					<path style="fill:none;stroke:#000000;stroke-linecap:round;stroke-linejoin:round;stroke-miterlimit:10;" d="M706.86,565.83
						l10.73,0l0-31.15c0-9.31,7.55-16.87,16.87-16.87l80.11,0c9.31,0,16.87,7.55,16.87,16.87l0,31.15h10.73l0-54.53
						c0-2.33-1.89-4.22-4.22-4.22l-251.44,0c-2.33,0-4.22,1.89-4.22,4.22l0,54.53h10.73l0-31.15c0-9.31,7.55-16.87,16.87-16.87
						l80.11,0c9.31,0,16.87,7.55,16.87,16.87L706.86,565.83z"></path>
					<path style="fill:none;stroke:#000000;stroke-linecap:round;stroke-linejoin:round;stroke-miterlimit:10;" d="M586.51,851.93
						l251.44,0c2.33,0,4.22-1.89,4.22-4.22l0-281.88l-259.87,0l0,281.88C582.29,850.04,584.18,851.93,586.51,851.93z"></path>
				</g>
			</g>
			
				<rect x="847.7" y="495.23" transform="matrix(-5.026776e-07 -1 1 -5.026776e-07 359.5814 1421.3794)" style="fill:none;stroke:#000000;stroke-linecap:round;stroke-linejoin:round;stroke-miterlimit:10;" width="85.57" height="71.34"></rect>
			
				<rect x="491.19" y="495.23" transform="matrix(-5.026773e-07 -1 1 -5.026773e-07 3.0734 1064.8719)" style="fill:none;stroke:#000000;stroke-linecap:round;stroke-linejoin:round;stroke-miterlimit:10;" width="85.57" height="71.34"></rect>
		</g>
		<g>
			<g>
				
					<circle style="fill:#FFFFFF;stroke:#000000;stroke-linecap:round;stroke-linejoin:round;stroke-miterlimit:10;" cx="532.24" cy="530.11" r="26.69"></circle>
				
					<circle style="fill:#FFFFFF;stroke:#000000;stroke-linecap:round;stroke-linejoin:round;stroke-miterlimit:10;" cx="532.24" cy="530.11" r="9.52"></circle>
			</g>
			
				<line style="fill:#FFFFFF;stroke:#000000;stroke-linecap:round;stroke-linejoin:round;stroke-miterlimit:10;" x1="532.24" y1="520.59" x2="532.24" y2="539.63"></line>
			
				<line style="fill:#FFFFFF;stroke:#000000;stroke-linecap:round;stroke-linejoin:round;stroke-miterlimit:10;" x1="541.76" y1="530.11" x2="522.72" y2="530.11"></line>
		</g>
		<g>
			<g>
				
					<circle style="fill:#FFFFFF;stroke:#000000;stroke-linecap:round;stroke-linejoin:round;stroke-miterlimit:10;" cx="894.28" cy="530.11" r="26.69"></circle>
				
					<circle style="fill:#FFFFFF;stroke:#000000;stroke-linecap:round;stroke-linejoin:round;stroke-miterlimit:10;" cx="894.28" cy="530.11" r="9.52"></circle>
			</g>
			
				<line style="fill:#FFFFFF;stroke:#000000;stroke-linecap:round;stroke-linejoin:round;stroke-miterlimit:10;" x1="894.28" y1="520.59" x2="894.28" y2="539.63"></line>
			
				<line style="fill:#FFFFFF;stroke:#000000;stroke-linecap:round;stroke-linejoin:round;stroke-miterlimit:10;" x1="903.8" y1="530.11" x2="884.76" y2="530.11"></line>
		</g>
	</g>
	<g>
		<path style="fill:none;stroke:#000000;stroke-linecap:round;stroke-linejoin:round;stroke-miterlimit:10;" d="M675.08,719.77
			c1.1-0.3,2.14-0.78,3.11-1.36c7.29-4.38,10.46-13.67,7.44-21.62c-1.57-4.13-4.14-7.04-5.77-8.59c-0.85-0.81-1.84-1.44-2.92-1.89v0
			c-1.09-0.46-2.24-0.73-3.43-0.78c-2.31-0.1-6.29,0.09-10.43,1.94c-7.66,3.41-11.97,11.99-10.13,20.17c0.23,1,0.55,1.98,1.01,2.9"></path>
		<path style="fill:none;stroke:#000000;stroke-linecap:round;stroke-linejoin:round;stroke-miterlimit:10;" d="M678.32,686.89
			c9.04-14.22,5.77-32.98-7.13-43.36c-1.28-1.03-3.13-0.89-4.25,0.32c-1.2,1.3-1.09,3.34,0.26,4.48
			c10.59,8.94,13.4,24.61,7.57,37.36"></path>
		<path style="fill:none;stroke:#000000;stroke-linecap:round;stroke-linejoin:round;stroke-miterlimit:10;" d="M668.53,727.68
			c-0.19-3.54-2.35-6.83-5.83-8.31c-3.45-1.47-7.28-0.75-9.96,1.52"></path>
		<path style="fill:none;stroke:#000000;stroke-linecap:round;stroke-linejoin:round;stroke-miterlimit:10;" d="M649.6,726.08
			c-0.71,3.14,0.23,6.39,2.37,8.67c-0.04,1.66,0.91,3.25,2.54,3.94c1.62,0.69,3.43,0.27,4.59-0.91c3.1-0.05,6.05-1.59,7.82-4.23"></path>
		<path style="fill:none;stroke:#000000;stroke-linecap:round;stroke-linejoin:round;stroke-miterlimit:10;" d="M664.7,733.16
			C665.13,733.26,664.7,733.16,664.7,733.16c2.94,0.49,6.4,0.15,7.33-0.03c0.46-0.09,0.79-0.57,0.54-0.96
			c-1.47-2.36-5.76-6.01-6.13-6.23s-1.56-0.88-2.63,0.87"></path>
		<path style="fill:none;stroke:#000000;stroke-linecap:round;stroke-linejoin:round;stroke-miterlimit:10;" d="M655.5,721.41
			c-2.43-0.53-6.22-0.86-8.94-0.28c-0.46,0.1-0.57,0.67-0.31,1.06c0.52,0.79,2.67,3.52,5.07,5.29l0,0"></path>
		
			<line style="fill:none;stroke:#000000;stroke-linecap:round;stroke-linejoin:round;stroke-miterlimit:10;" x1="661.09" y1="735.1" x2="658.11" y2="735.96"></line>
		
			<line style="fill:none;stroke:#000000;stroke-linecap:round;stroke-linejoin:round;stroke-miterlimit:10;" x1="653.02" y1="731.65" x2="653.9" y2="734.49"></line>
		<polygon style="fill:none;stroke:#000000;stroke-linecap:round;stroke-linejoin:round;stroke-miterlimit:10;" points="
			656.26,737.42 654.09,736.5 654.65,738.25 		"></polygon>
		<path style="fill:none;stroke:#000000;stroke-linecap:round;stroke-linejoin:round;stroke-miterlimit:10;" d="M672.03,733.13
			c0,0-4.93-2.42-8.33-2.95"></path>
		<path style="fill:none;stroke:#000000;stroke-linecap:round;stroke-linejoin:round;stroke-miterlimit:10;" d="M646.12,721.6
			c3.22,0.57,7.48,3.65,7.48,3.65s0.19,0.73-0.6,1.4"></path>
		<g>
			<path style="fill:none;stroke:#000000;stroke-linecap:round;stroke-linejoin:round;stroke-miterlimit:10;" d="M663.26,705.3
				c-4.37,0.18-8.47,2.78-10.29,7.08c-1.2,2.83-1.17,5.86-0.2,8.55"></path>
			<path style="fill:none;stroke:#000000;stroke-linecap:round;stroke-linejoin:round;stroke-miterlimit:10;" d="M668.49,727.6
				c2.6-1.16,4.81-3.25,6.01-6.08c1.8-4.24,0.87-8.92-1.95-12.19"></path>
		</g>
	</g>
	<g>
		<g>
			<g>
				
					<rect x="671.53" y="906.83" transform="matrix(-5.131758e-05 -1 1 -5.131758e-05 -333.7743 1688.9572)" style="fill:none;stroke:#000000;stroke-linecap:round;stroke-linejoin:round;stroke-miterlimit:10;" width="12.04" height="209.05"></rect>
				<polygon style="fill:none;stroke:#000000;stroke-linecap:round;stroke-linejoin:round;stroke-miterlimit:10;" points="
					760.33,993.3 782.07,1005.33 573.02,1005.34 594.77,993.3 				"></polygon>
			</g>
		</g>
		<g>
			
				<rect x="650.37" y="882.71" transform="matrix(3.773117e-05 1 -1 3.773117e-05 1698.0016 342.8924)" style="fill:none;stroke:#000000;stroke-linecap:round;stroke-linejoin:round;stroke-miterlimit:10;" width="54.35" height="275.54"></rect>
		</g>
	</g>
	<g>
		<g>
			<g>
				<path style="fill:none;stroke:#000000;stroke-linecap:round;stroke-linejoin:round;stroke-miterlimit:10;" d="M506.8,1384.21
					c0.14,0.03,0.28,0.06,0.42,0.11c7.45,2.61,15.15,4.65,22.9,6.06c7.75,1.41,15.67,2.22,23.55,2.4c0.16,0,0.31,0.02,0.45,0.04
					c0.75,0.14,1.4,0.6,1.79,1.27c0.22,0.38,0.55,1.17,0.22,2.15l-0.02,0.06c-5.25,14.96-8.09,30.58-8.46,46.43l0,0.09
					c-0.05,1.02-0.62,1.63-0.96,1.91c-0.6,0.49-1.38,0.7-2.13,0.56c-0.14-0.03-0.28-0.06-0.42-0.11c-7.45-2.61-15.15-4.65-22.9-6.06
					c-7.75-1.41-15.67-2.22-23.55-2.4c-0.16,0-0.31-0.02-0.45-0.04c-0.75-0.14-1.4-0.6-1.79-1.27c-0.22-0.39-0.55-1.17-0.22-2.15
					l0.02-0.06c5.25-14.96,8.09-30.58,8.46-46.43l0-0.09c0.05-1.02,0.62-1.63,0.96-1.91
					C505.28,1384.28,506.06,1384.07,506.8,1384.21z"></path>
			</g>
			<path style="fill:none;stroke:#000000;stroke-linecap:round;stroke-linejoin:round;stroke-miterlimit:10;" d="M556.11,1396.31
				l0.02-0.06c0.32-0.98,0-1.77-0.22-2.15c-0.39-0.67-1.05-1.14-1.79-1.27c-0.14-0.03-0.28-0.04-0.45-0.04
				c-6.93-0.16-13.88-0.89-20.73-2c-1.13-6.14-2.54-12.23-4.43-18.21l-0.02-0.06c-0.29-0.99,0.05-1.76,0.29-2.14
				c0.41-0.66,1.08-1.1,1.83-1.22c0.14-0.02,0.28-0.03,0.45-0.03c7.88,0.06,15.82-0.51,23.61-1.68s15.55-2.98,23.07-5.36
				c0.14-0.04,0.28-0.08,0.42-0.1c0.75-0.11,1.52,0.11,2.11,0.62c0.33,0.29,0.89,0.92,0.91,1.94l0,0.09
				c-0.12,15.85,2.25,31.55,7.04,46.67l0.02,0.06c0.29,0.99-0.05,1.77-0.29,2.14c-0.41,0.66-1.08,1.1-1.83,1.22
				c-0.14,0.02-0.29,0.03-0.45,0.03c-7.88-0.06-15.82,0.51-23.61,1.68c-3.98,0.6-7.96,1.38-11.9,2.3
				C551.56,1411.13,553.53,1403.64,556.11,1396.31z"></path>
			<path style="fill:none;stroke:#000000;stroke-linecap:round;stroke-linejoin:round;stroke-miterlimit:10;" d="M556.11,1396.31
				l0.02-0.06c0.32-0.98,0-1.77-0.22-2.15c-0.39-0.67-1.05-1.14-1.79-1.27c-0.14-0.03-0.28-0.04-0.45-0.04
				c-7.88-0.18-15.8-0.99-23.55-2.4c-0.21-0.04-0.43-0.1-0.64-0.14c-1.08-5.62-2.38-11.2-4.12-16.68l0-0.01
				c-1.22-3.84,1.67-7.76,5.7-7.73h0.01c15.48,0.12,30.89-2.21,45.64-6.88l0.01,0c3.84-1.22,7.76,1.67,7.73,5.7v0.01
				c-0.12,15.48,2.21,30.89,6.88,45.64l0,0.01c1.22,3.84-1.67,7.76-5.7,7.73l-0.01,0c-12.15-0.09-24.24,1.37-36.02,4.25
				C551.02,1413.47,553.13,1404.78,556.11,1396.31z"></path>
		</g>
		<g>
			<g>
				<path style="fill:none;stroke:#000000;stroke-linecap:round;stroke-linejoin:round;stroke-miterlimit:10;" d="M839.45,1391.53
					c-0.14,0.04-0.27,0.09-0.41,0.15c-7.15,3.35-14.6,6.15-22.17,8.34c-7.57,2.18-15.37,3.78-23.19,4.76
					c-0.16,0.02-0.3,0.05-0.44,0.09c-0.73,0.21-1.33,0.74-1.66,1.45c-0.18,0.41-0.42,1.22,0,2.16l0.03,0.06
					c6.73,14.35,11.13,29.61,13.09,45.34l0.01,0.09c0.15,1.01,0.78,1.56,1.15,1.8c0.65,0.43,1.44,0.55,2.17,0.34
					c0.14-0.04,0.27-0.09,0.41-0.15c7.15-3.35,14.6-6.15,22.17-8.34s15.37-3.78,23.19-4.76c0.16-0.02,0.3-0.05,0.44-0.09
					c0.73-0.21,1.33-0.74,1.66-1.45c0.18-0.41,0.42-1.22,0-2.16l-0.03-0.06c-6.73-14.35-11.13-29.61-13.09-45.34l-0.01-0.09
					c-0.15-1.01-0.78-1.56-1.15-1.8C840.97,1391.45,840.18,1391.32,839.45,1391.53z"></path>
			</g>
			<path style="fill:none;stroke:#000000;stroke-linecap:round;stroke-linejoin:round;stroke-miterlimit:10;" d="M791.61,1408.53
				l-0.03-0.06c-0.42-0.94-0.18-1.76,0-2.16c0.32-0.71,0.93-1.24,1.66-1.45c0.14-0.04,0.28-0.07,0.44-0.09
				c6.88-0.85,13.72-2.28,20.42-4.08c0.51-6.22,1.29-12.43,2.58-18.57l0.01-0.06c0.19-1.01-0.23-1.75-0.5-2.1
				c-0.48-0.62-1.19-0.99-1.95-1.03c-0.14-0.01-0.29,0-0.45,0.01c-7.83,0.85-15.79,1.09-23.66,0.7c-7.87-0.39-15.77-1.4-23.49-3.01
				c-0.14-0.03-0.29-0.05-0.43-0.05c-0.76-0.04-1.5,0.27-2.04,0.83c-0.3,0.32-0.79,1.01-0.71,2.02l0.01,0.09
				c1.72,15.76,0.94,31.62-2.31,47.14l-0.01,0.06c-0.19,1.01,0.23,1.75,0.5,2.1c0.48,0.62,1.19,0.99,1.94,1.03
				c0.14,0.01,0.29,0,0.45-0.02c7.83-0.85,15.79-1.09,23.66-0.7c4.02,0.2,8.06,0.57,12.07,1.09
				C797.63,1422.82,794.91,1415.57,791.61,1408.53z"></path>
			<path style="fill:none;stroke:#000000;stroke-linecap:round;stroke-linejoin:round;stroke-miterlimit:10;" d="M791.61,1408.53
				l-0.03-0.06c-0.42-0.94-0.18-1.76,0-2.16c0.32-0.71,0.93-1.24,1.66-1.45c0.14-0.04,0.28-0.07,0.44-0.09
				c7.82-0.97,15.62-2.57,23.19-4.76c0.21-0.06,0.41-0.15,0.62-0.21c0.51-5.7,1.24-11.39,2.42-17.01l0-0.01
				c0.83-3.95-2.44-7.55-6.45-7.12l-0.01,0c-15.39,1.68-30.95,0.91-46.1-2.26l-0.01,0c-3.95-0.83-7.55,2.44-7.12,6.45l0,0.01
				c1.68,15.39,0.91,30.95-2.26,46.11l0,0.01c-0.83,3.95,2.44,7.55,6.45,7.12l0.01,0c12.08-1.32,24.26-1.07,36.27,0.6
				C798.4,1425.1,795.42,1416.66,791.61,1408.53z"></path>
		</g>
		<g>
			<g>
				<path style="fill:none;stroke:#000000;stroke-linecap:round;stroke-linejoin:round;stroke-miterlimit:10;" d="M746.49,1465.11
					l120.99,0c1.18,0,2.13,0.96,2.13,2.13l0,42.44c0,1.18-0.96,2.13-2.13,2.13l-120.99,0c-1.18,0-2.13-0.96-2.13-2.13v-42.44
					C744.35,1466.07,745.31,1465.11,746.49,1465.11z"></path>
				<path style="fill:none;stroke:#000000;stroke-linecap:round;stroke-linejoin:round;stroke-miterlimit:10;" d="M746.49,1465.11
					l120.99,0c1.18,0,2.13-0.96,2.13-2.13l0-114.68c0-1.18-0.96-2.13-2.13-2.13l-120.99,0c-1.18,0-2.13,0.96-2.13,2.13l0,114.68
					C744.35,1464.15,745.31,1465.11,746.49,1465.11z"></path>
				<path style="fill:none;stroke:#000000;stroke-linecap:round;stroke-linejoin:round;stroke-miterlimit:10;" d="M621.23,1465.11
					h120.99c1.18,0,2.13,0.96,2.13,2.13v42.44c0,1.18-0.96,2.13-2.13,2.13H621.23c-1.18,0-2.13-0.96-2.13-2.13l0-42.44
					C619.1,1466.07,620.05,1465.11,621.23,1465.11z"></path>
				<path style="fill:none;stroke:#000000;stroke-linecap:round;stroke-linejoin:round;stroke-miterlimit:10;" d="M621.23,1465.11
					h120.99c1.18,0,2.13-0.96,2.13-2.13l0-114.68c0-1.18-0.96-2.13-2.13-2.13l-120.99,0c-1.18,0-2.13,0.96-2.13,2.13l0,114.68
					C619.1,1464.16,620.05,1465.11,621.23,1465.11z"></path>
				<path style="fill:none;stroke:#000000;stroke-linecap:round;stroke-linejoin:round;stroke-miterlimit:10;" d="M487.63,1465.11
					l129.34,0c1.18,0,2.13,0.96,2.13,2.13l0,42.44c0,1.18-0.96,2.13-2.13,2.13H487.63c-1.18,0-2.13-0.96-2.13-2.13l0-42.44
					C485.49,1466.07,486.45,1465.11,487.63,1465.11z"></path>
				<path style="fill:none;stroke:#000000;stroke-linecap:round;stroke-linejoin:round;stroke-miterlimit:10;" d="M487.63,1465.11
					l129.34,0c1.18,0,2.13-0.96,2.13-2.13l0-224.59c0-1.18-0.96-2.13-2.13-2.13l-129.34,0c-1.18,0-2.13,0.96-2.13,2.13l0,224.59
					C485.49,1464.16,486.45,1465.11,487.63,1465.11z"></path>
			</g>
		</g>
	</g>
	<g>
		<path style="fill:none;stroke:#000000;stroke-linecap:round;stroke-linejoin:round;stroke-miterlimit:10;" d="M681.66,1267.69
			c0-7.35,0-33.17,0-40.53c0-7.52,6.48-11.37,14.53-12.62c32.82-4.57,66.17-4.57,98.99,0c8.05,1.26,14.53,5.1,14.53,12.62
			c0,7.35,0,33.17,0,40.53c0,7.52-6.48,11.37-14.53,12.62c-32.82,4.57-66.17,4.57-98.99,0
			C688.15,1279.06,681.66,1275.22,681.66,1267.69z"></path>
		<g>
			<polygon style="fill:none;stroke:#000000;stroke-linecap:round;stroke-linejoin:round;stroke-miterlimit:10;" points="
				721.73,1262.28 717.77,1264.42 701.56,1234.49 706.54,1231.79 702.08,1229.08 688.91,1250.72 717.99,1268.42 			"></polygon>
			
				<line style="fill:none;stroke:#000000;stroke-linecap:round;stroke-linejoin:round;stroke-miterlimit:10;" x1="723.85" y1="1261.13" x2="729.98" y2="1266.69"></line>
			
				<line style="fill:none;stroke:#000000;stroke-linecap:round;stroke-linejoin:round;stroke-miterlimit:10;" x1="689.94" y1="1249.03" x2="719.02" y2="1266.73"></line>
			<g>
				<polygon style="fill:none;stroke:#000000;stroke-linecap:round;stroke-linejoin:round;stroke-miterlimit:10;" points="
					740.05,1252.35 722.01,1262.13 728.65,1268.16 745.69,1249.41 731.44,1236.46 				"></polygon>
				<polygon style="fill:none;stroke:#000000;stroke-linecap:round;stroke-linejoin:round;stroke-miterlimit:10;" points="
					705.92,1242.55 703.45,1245.26 711.21,1252.32 				"></polygon>
			</g>
			
				<rect x="703.78" y="1230.75" transform="matrix(0.4763 0.8793 -0.8793 0.4763 1470.7784 17.3747)" style="fill:none;stroke:#000000;stroke-linecap:round;stroke-linejoin:round;stroke-miterlimit:10;" width="34.05" height="25.34"></rect>
			
				<line style="fill:none;stroke:#000000;stroke-linecap:round;stroke-linejoin:round;stroke-miterlimit:10;" x1="703.3" y1="1233.54" x2="719.51" y2="1263.48"></line>
		</g>
		<g>
			<path style="fill:none;stroke:#000000;stroke-linecap:round;stroke-linejoin:round;stroke-miterlimit:10;" d="M770.69,1249.15
				l-3.47-1.86c-1.77-0.95-2.43-3.14-1.48-4.91l2.28-4.26c0.95-1.77,3.14-2.43,4.91-1.48l3.47,1.86c1.08,0.58,1.49,1.92,0.91,3.01
				l-3.61,6.74C773.11,1249.32,771.77,1249.73,770.69,1249.15z"></path>
			
				<line style="fill:none;stroke:#000000;stroke-linecap:round;stroke-linejoin:round;stroke-miterlimit:10;" x1="768.33" y1="1247.89" x2="774.05" y2="1237.23"></line>
			<path style="fill:none;stroke:#000000;stroke-linecap:round;stroke-linejoin:round;stroke-miterlimit:10;" d="M773.8,1253.57
				l0.58,3.9c0.3,1.98,2.14,3.35,4.12,3.05l4.78-0.72c1.98-0.3,3.35-2.14,3.05-4.12l-0.58-3.9c-0.18-1.21-1.31-2.05-2.52-1.87
				l-7.56,1.13C774.45,1251.23,773.62,1252.36,773.8,1253.57z"></path>
			
				<line style="fill:none;stroke:#000000;stroke-linecap:round;stroke-linejoin:round;stroke-miterlimit:10;" x1="774.2" y1="1256.21" x2="786.15" y2="1254.42"></line>
			<path style="fill:none;stroke:#000000;stroke-linecap:round;stroke-linejoin:round;stroke-miterlimit:10;" d="M788.96,1253.37
				c-0.89,0.46-1.82,0.79-2.77,0.99"></path>
			<path style="fill:none;stroke:#000000;stroke-linecap:round;stroke-linejoin:round;stroke-miterlimit:10;" d="M774.09,1237.26
				c0.52-0.84,1.16-1.63,1.91-2.33"></path>
			<g>
				<path style="fill:none;stroke:#000000;stroke-linecap:round;stroke-linejoin:round;stroke-miterlimit:10;" d="M789.01,1253.47
					c-0.51-0.73-0.34-1.73,0.39-2.24c4.4-3.1,5.46-9.21,2.36-13.61c-3.1-4.4-9.21-5.46-13.61-2.36c-0.73,0.51-1.73,0.34-2.24-0.39
					c-0.51-0.73-0.34-1.73,0.39-2.24c5.86-4.12,13.97-2.72,18.1,3.14c4.13,5.86,2.72,13.98-3.14,18.1
					C790.53,1254.37,789.52,1254.19,789.01,1253.47z"></path>
			</g>
		</g>
	</g>
	<g>
		<polygon style="fill:none;stroke:#000000;stroke-linecap:round;stroke-linejoin:round;stroke-miterlimit:10;" points="
			1150.27,878.71 1150.27,987.53 1041.46,987.53 1041.45,878.71 		"></polygon>
		<g>
			
				<line style="fill:none;stroke:#000000;stroke-linecap:round;stroke-linejoin:round;stroke-miterlimit:10;" x1="1069.66" y1="933.12" x2="1122.05" y2="933.12"></line>
			
				<line style="fill:none;stroke:#000000;stroke-linecap:round;stroke-linejoin:round;stroke-miterlimit:10;" x1="1095.86" y1="906.92" x2="1095.86" y2="959.32"></line>
			<polyline style="fill:none;stroke:#000000;stroke-linecap:round;stroke-linejoin:round;stroke-miterlimit:10;" points="
				1075.48,920.02 1082.76,933.12 1075.48,946.22 			"></polyline>
			<polyline style="fill:none;stroke:#000000;stroke-linecap:round;stroke-linejoin:round;stroke-miterlimit:10;" points="
				1082.76,953.49 1095.86,946.22 1108.96,953.49 			"></polyline>
			<polyline style="fill:none;stroke:#000000;stroke-linecap:round;stroke-linejoin:round;stroke-miterlimit:10;" points="
				1116.23,946.22 1108.96,933.12 1116.23,920.02 			"></polyline>
			<polyline style="fill:none;stroke:#000000;stroke-linecap:round;stroke-linejoin:round;stroke-miterlimit:10;" points="
				1108.96,912.75 1095.86,920.02 1082.76,912.75 			"></polyline>
		</g>
	</g>
	<g>
		<polygon style="fill:none;stroke:#000000;stroke-linecap:round;stroke-linejoin:round;stroke-miterlimit:10;" points="
			1260.32,1320.46 1260.32,1402.41 1370.09,1402.41 1370.11,1320.46 		"></polygon>
		<path style="fill:none;stroke:#000000;stroke-linecap:round;stroke-linejoin:round;stroke-miterlimit:10;" d="M1338.6,1361.43
			l-26.65,10.27c-1.63,0.56-3.42,0.87-5.3,0.87c-7.56,0-13.69-4.99-13.69-11.13c0-6.15,6.13-11.13,13.69-11.13
			c1.88,0,3.67,0.31,5.3,0.87L1338.6,1361.43z"></path>
	</g>
	
		<rect x="1144.64" y="1287.09" transform="matrix(4.447116e-11 -1 1 4.447116e-11 -26.771 2656.699)" style="fill:none;stroke:#000000;stroke-linecap:round;stroke-linejoin:round;stroke-miterlimit:10;" width="340.64" height="109.3"></rect>
	
		<rect x="1205.54" y="823.44" transform="matrix(-1.836970e-16 1 -1 -1.836970e-16 2193.0745 -326.8336)" style="fill:none;stroke:#000000;stroke-linecap:round;stroke-linejoin:round;stroke-miterlimit:10;" width="108.82" height="219.37"></rect>
	<g>
		<path style="fill:none;stroke:#000000;stroke-linecap:round;stroke-linejoin:round;stroke-miterlimit:10;" d="M454.66,1033.12
			c0.7-1.55,1.61-3,2.72-4.31"></path>
		<g>
			<path style="fill:none;stroke:#000000;stroke-linecap:round;stroke-linejoin:round;stroke-miterlimit:10;" d="M487.78,1048.64
				c-0.74,1.51-1.68,2.93-2.81,4.19"></path>
			<g>
				<g>
					<g>
						<path style="fill:none;stroke:#000000;stroke-linecap:round;stroke-linejoin:round;stroke-miterlimit:10;" d="M470.9,1042.58
							c-0.53,1.95,0,4.05,1.41,5.5c3.1,3.19,9.17,9.03,16.65,14.29c0.58,0.41,1.33-0.23,1-0.86c-4.01-7.73-8.75-14.21-11.58-17.82"></path>
						<path style="fill:none;stroke:#000000;stroke-linecap:round;stroke-linejoin:round;stroke-miterlimit:10;" d="M471.62,1039.67
							c0.52-2.32-0.18-4.74-1.88-6.41c-3.2-3.13-9-8.44-16.11-13.41c-0.59-0.41-1.32,0.24-0.99,0.87
							c4.02,7.73,8.75,14.02,11.56,17.47c2.22-0.25,4.43,0.45,6.08,1.97"></path>
					</g>
					<path style="fill:none;stroke:#000000;stroke-linecap:round;stroke-linejoin:round;stroke-miterlimit:10;" d="M498.87,1038.79
						c-8.35,3.03-15.8,4.34-19.78,4.87c-1.92,0.26-3.86-0.14-5.51-1.15l-1.61-0.99c-0.35-0.21-0.43-0.69-0.17-1.01l0.98-1.2
						c1.58-1.94,3.95-3.07,6.45-3.09c4.21-0.04,11.34,0.12,19.51,1.26C499.42,1037.58,499.53,1038.55,498.87,1038.79z
						 M443.87,1044.75c8.54,1.15,16.27,1.06,20.68,0.85c2.4-0.11,4.6-1.35,5.96-3.34l0.45-0.66c0.19-0.28,0.15-0.65-0.1-0.88
						l-0.59-0.55c-1.75-1.62-4.13-2.34-6.47-1.95c-4.35,0.72-11.95,2.27-20.07,5.22C443.08,1043.68,443.18,1044.65,443.87,1044.75z"></path>
					<g>
						<path style="fill:none;stroke:#000000;stroke-linecap:round;stroke-linejoin:round;stroke-miterlimit:10;" d="M473.95,1038.15
							c0.57-0.94,0.89-2.01,0.88-3.12c-0.02-3.99-0.36-12.29-2.48-21.56c-0.16-0.68-1.13-0.7-1.31-0.02
							c-1.86,6.98-2.85,13.4-3.37,17.84c0.77,0.72,1.48,1.39,2.07,1.97c1.7,1.66,2.41,4.08,1.88,6.41l-0.21,0.91"></path>
						<path style="fill:none;stroke:#000000;stroke-linecap:round;stroke-linejoin:round;stroke-miterlimit:10;" d="M470.97,1041.6
							l-0.45,0.66c-0.7,1.03-1.63,1.84-2.7,2.42c-0.45,0.93-0.68,1.96-0.62,3.03c0.25,4.26,0.98,12.27,3.03,21.06
							c0.16,0.68,1.14,0.69,1.31,0.02c1.88-7.25,2.66-13.98,2.99-18.49c-0.84-0.82-1.6-1.58-2.21-2.21
							c-1.41-1.45-1.94-3.54-1.41-5.5l0.27-1.02"></path>
					</g>
					<g>
						<path style="fill:none;stroke:#000000;stroke-linecap:round;stroke-linejoin:round;stroke-miterlimit:10;" d="M469.3,1043.64
							c-0.45,0.4-0.95,0.75-1.48,1.03l0,0C468.35,1044.38,468.85,1044.04,469.3,1043.64z"></path>
						<path style="fill:none;stroke:#000000;stroke-linecap:round;stroke-linejoin:round;stroke-miterlimit:10;" d="M467.2,1047.7
							c-0.06-1.06,0.17-2.1,0.62-3.03c-0.99,0.54-2.1,0.87-3.26,0.92c-0.53,0.03-1.11,0.05-1.73,0.07
							c-3.11,4.21-6.96,9.89-10.08,15.9c-0.33,0.63,0.41,1.29,0.99,0.88c5.22-3.75,10.03-8.11,13.69-11.7
							C467.33,1049.6,467.25,1048.56,467.2,1047.7z"></path>
						<path style="fill:none;stroke:#000000;stroke-linecap:round;stroke-linejoin:round;stroke-miterlimit:10;" d="M469.3,1043.63
							c0.45-0.41,0.86-0.86,1.21-1.38C470.17,1042.77,469.76,1043.23,469.3,1043.63z"></path>
						<path style="fill:none;stroke:#000000;stroke-linecap:round;stroke-linejoin:round;stroke-miterlimit:10;" d="M480.03,1036.21
							c3.06-4.17,6.79-9.7,9.82-15.55c0.33-0.63-0.41-1.29-0.99-0.88c-5.41,3.89-10.4,8.45-14.1,12.1c0.05,1.21,0.07,2.29,0.08,3.13
							"></path>
						<path style="fill:none;stroke:#000000;stroke-linecap:round;stroke-linejoin:round;stroke-miterlimit:10;" d="M469.3,1043.64
							C469.3,1043.63,469.3,1043.63,469.3,1043.64C469.3,1043.63,469.3,1043.63,469.3,1043.64z"></path>
					</g>
				</g>
				<g>
					
						<line style="fill:none;stroke:#000000;stroke-linecap:round;stroke-linejoin:round;stroke-miterlimit:10;" x1="464.2" y1="1038.2" x2="464.2" y2="1038.2"></line>
					<path style="fill:none;stroke:#000000;stroke-linecap:round;stroke-linejoin:round;stroke-miterlimit:10;" d="M437.51,1032.2
						c-0.88,0.01-1.17,1.21-0.39,1.61c5.1,2.63,11.19,5.08,15.7,6.79c4.45-1.19,8.33-1.94,10.98-2.38c0.13-0.02,0.26,0,0.39-0.02
						c-0.9-1.1-2-2.52-3.2-4.15C455.31,1033.14,446.87,1032.13,437.51,1032.2z"></path>
					<path style="fill:none;stroke:#000000;stroke-linecap:round;stroke-linejoin:round;stroke-miterlimit:10;" d="M480.88,1026.19
						c1.3-4.87,2.61-10.88,3.4-17.52c0.1-0.88-1.05-1.31-1.55-0.58c-2.99,4.35-6.41,10.24-8.77,14.43"></path>
					<path style="fill:none;stroke:#000000;stroke-linecap:round;stroke-linejoin:round;stroke-miterlimit:10;" d="M468.82,1023.55
						c-2.49-4.5-5.69-9.82-9.54-15.22c-0.52-0.74-1.68-0.28-1.55,0.62c0.86,6.22,2.19,11.94,3.53,16.72"></path>
					<path style="fill:none;stroke:#000000;stroke-linecap:round;stroke-linejoin:round;stroke-miterlimit:10;" d="M487.46,1036.4
						c4.63-3.3,9.81-7.31,14.57-11.76c0.66-0.61,0.06-1.71-0.8-1.46c-5.76,1.66-11.39,3.82-16.31,5.93"></path>
					<path style="fill:none;stroke:#000000;stroke-linecap:round;stroke-linejoin:round;stroke-miterlimit:10;" d="M455.35,1045.66
						c-4.68,3.33-9.96,7.41-14.8,11.92c-0.66,0.61-0.06,1.71,0.8,1.46c5.76-1.66,11.39-3.81,16.31-5.92
						c1.78-2.77,3.57-5.31,5.15-7.46"></path>
					<path style="fill:none;stroke:#000000;stroke-linecap:round;stroke-linejoin:round;stroke-miterlimit:10;" d="M461.27,1056.44
						c-1.11,4.87-2.23,10.72-2.96,17.12c-0.1,0.88,1.06,1.31,1.56,0.58c3.54-5.22,6.38-10.35,8.58-14.75"></path>
					<path style="fill:none;stroke:#000000;stroke-linecap:round;stroke-linejoin:round;stroke-miterlimit:10;" d="M474.53,1050.28"></path>
					<path style="fill:none;stroke:#000000;stroke-linecap:round;stroke-linejoin:round;stroke-miterlimit:10;" d="M484.87,1073.3
						c-0.84-6.15-2.13-11.9-3.42-16.75c-2.74-2.3-5.07-4.47-6.92-6.27c-0.16,2.16-0.43,4.85-0.86,7.83
						c2.49,4.68,5.72,10.23,9.64,15.78C483.83,1074.62,484.99,1074.19,484.87,1073.3z"></path>
					<path style="fill:none;stroke:#000000;stroke-linecap:round;stroke-linejoin:round;stroke-miterlimit:10;" d="M481.5,1047.85
						c5.28,1.01,13.74,2.24,23.6,2.18c0.88,0,1.17-1.2,0.39-1.61c-5.57-2.91-10.81-5.22-15.21-6.98"></path>
				</g>
			</g>
			<g>
				<path style="fill:none;stroke:#000000;stroke-linecap:round;stroke-linejoin:round;stroke-miterlimit:10;" d="M455.65,1053.96
					c0.29,0.34,0.6,0.65,0.91,0.97"></path>
				<path style="fill:none;stroke:#000000;stroke-linecap:round;stroke-linejoin:round;stroke-miterlimit:10;" d="M491.85,1042.09
					c0.03-0.36,0.05-0.72,0.05-1.09"></path>
				<path style="fill:none;stroke:#000000;stroke-linecap:round;stroke-linejoin:round;stroke-miterlimit:10;" d="M486.18,1054.88
					c1.61-1.68,2.9-3.62,3.86-5.72"></path>
				<path style="fill:none;stroke:#000000;stroke-linecap:round;stroke-linejoin:round;stroke-miterlimit:10;" d="M473.16,1061.12
					c0.67-0.06,1.33-0.15,2-0.28"></path>
				<path style="fill:none;stroke:#000000;stroke-linecap:round;stroke-linejoin:round;stroke-miterlimit:10;" d="M459.81,1057.66
					c0.34,0.23,0.7,0.45,1.06,0.66"></path>
				<path style="fill:none;stroke:#000000;stroke-linecap:round;stroke-linejoin:round;stroke-miterlimit:10;" d="M481.88,1058.28
					c0.32-0.19,0.65-0.39,0.96-0.59"></path>
				<path style="fill:none;stroke:#000000;stroke-linecap:round;stroke-linejoin:round;stroke-miterlimit:10;" d="M456.11,1026.8
					c-1.63,1.8-2.93,3.87-3.84,6.12"></path>
				<path style="fill:none;stroke:#000000;stroke-linecap:round;stroke-linejoin:round;stroke-miterlimit:10;" d="M469.49,1020.14
					c-0.8,0.07-1.6,0.19-2.41,0.36"></path>
				<path style="fill:none;stroke:#000000;stroke-linecap:round;stroke-linejoin:round;stroke-miterlimit:10;" d="M450.77,1039.8
					c-0.02,0.46-0.02,0.92,0,1.38"></path>
				<path style="fill:none;stroke:#000000;stroke-linecap:round;stroke-linejoin:round;stroke-miterlimit:10;" d="M451.32,1045.45
					c0.11,0.44,0.23,0.88,0.37,1.32c0.13,0.42,0.3,0.82,0.45,1.23"></path>
				<path style="fill:none;stroke:#000000;stroke-linecap:round;stroke-linejoin:round;stroke-miterlimit:10;" d="M475.15,1020.41
					c-0.51-0.1-1.03-0.17-1.55-0.23"></path>
				<path style="fill:none;stroke:#000000;stroke-linecap:round;stroke-linejoin:round;stroke-miterlimit:10;" d="M487.57,1028.01
					c-0.36-0.47-0.74-0.92-1.14-1.35"></path>
				<path style="fill:none;stroke:#000000;stroke-linecap:round;stroke-linejoin:round;stroke-miterlimit:10;" d="M491.53,1036.7
					c-0.14-0.74-0.32-1.48-0.55-2.21c-0.06-0.18-0.13-0.34-0.19-0.52"></path>
				<path style="fill:none;stroke:#000000;stroke-linecap:round;stroke-linejoin:round;stroke-miterlimit:10;" d="M483.45,1024.02
					c-0.56-0.41-1.14-0.79-1.74-1.14"></path>
				<path style="fill:none;stroke:#000000;stroke-linecap:round;stroke-linejoin:round;stroke-miterlimit:10;" d="M460.58,1023.11
					c-0.48,0.29-0.94,0.6-1.38,0.93"></path>
			</g>
		</g>
	</g>
</g>
<g id="floor">
	<g>
		
			<rect x="234.65" y="1236.02" transform="matrix(-1.836970e-16 1 -1 -1.836970e-16 1659.512 860.4256)" style="fill:none;stroke:#000000;stroke-linecap:round;stroke-linejoin:round;stroke-miterlimit:10;" width="329.79" height="47.9"></rect>
		
			<rect x="231.14" y="1252.79" transform="matrix(6.123234e-17 -1 1 6.123234e-17 -863.4524 1656.9025)" style="fill:none;stroke:#000000;stroke-linecap:round;stroke-linejoin:round;stroke-miterlimit:10;" width="331.18" height="14.78"></rect>
		
			<rect x="389.02" y="1202.23" transform="matrix(6.123234e-17 -1 1 6.123234e-17 -812.8929 1606.343)" style="fill:none;stroke:#000000;stroke-linecap:round;stroke-linejoin:round;stroke-miterlimit:10;" width="15.41" height="14.78"></rect>
		
			<rect x="392.59" y="1091.45" transform="matrix(6.123234e-17 -1 1 6.123234e-17 -702.1165 1495.5665)" style="fill:none;stroke:#000000;stroke-linecap:round;stroke-linejoin:round;stroke-miterlimit:10;" width="8.28" height="14.78"></rect>
		
			<rect x="392.59" y="1413.42" transform="matrix(6.123234e-17 -1 1 6.123234e-17 -1024.0878 1817.5378)" style="fill:none;stroke:#000000;stroke-linecap:round;stroke-linejoin:round;stroke-miterlimit:10;" width="8.28" height="14.78"></rect>
	</g>
	<g>
		<polyline style="fill:none;stroke:#000000;stroke-linecap:round;stroke-linejoin:round;stroke-miterlimit:10;" points="
			374.9,1095.68 274.74,1095.68 274.74,1424.26 374.9,1424.26 		"></polyline>
		<g>
			<path style="fill:none;stroke:#000000;stroke-linecap:round;stroke-linejoin:round;stroke-miterlimit:10;" d="M358.73,1366.16
				v-212.37c0-10.38-8.42-18.8-18.8-18.8h-30.23c-10.38,0-18.8,8.42-18.8,18.8v212.37c0,10.38,8.42,18.8,18.8,18.8h30.23
				C350.32,1384.95,358.73,1376.54,358.73,1366.16z"></path>
			<g>
				
					<circle style="fill:none;stroke:#000000;stroke-linecap:round;stroke-linejoin:round;stroke-miterlimit:10;" cx="324.82" cy="1182.06" r="2.32"></circle>
				<path style="fill:none;stroke:#000000;stroke-linecap:round;stroke-linejoin:round;stroke-miterlimit:10;" d="M322.65,1182.86
					c0,0-10.03,1.5-8.27,10.61c0.94,4.84,6.19,5.53,8.88,3.64c1.28-0.9,2.1-3.46,1.02-6.03c-2.11-5.02-0.21-6.82-0.21-6.82"></path>
				<path style="fill:none;stroke:#000000;stroke-linecap:round;stroke-linejoin:round;stroke-miterlimit:10;" d="M325.58,1184.25
					c0,0,1.3,10.06,10.44,8.48c4.85-0.84,5.65-6.08,3.81-8.81c-0.87-1.3-3.41-2.17-6.01-1.14c-5.06,2.01-6.83,0.07-6.83,0.07"></path>
				<path style="fill:none;stroke:#000000;stroke-linecap:round;stroke-linejoin:round;stroke-miterlimit:10;" d="M327,1181.27
					c0,0,10.04-1.44,8.33-10.56c-0.91-4.84-6.16-5.56-8.86-3.69c-1.29,0.89-2.12,3.44-1.05,6.02c2.08,5.03,0.16,6.82,0.16,6.82"></path>
				<path style="fill:none;stroke:#000000;stroke-linecap:round;stroke-linejoin:round;stroke-miterlimit:10;" d="M324.03,1179.88
					c0,0-1.47-10.04-10.58-8.3c-4.84,0.92-5.55,6.17-3.66,8.87c0.9,1.29,3.45,2.11,6.03,1.03c5.02-2.1,6.82-0.19,6.82-0.19"></path>
				
					<circle style="fill:none;stroke:#000000;stroke-linecap:round;stroke-linejoin:round;stroke-miterlimit:10;" cx="324.82" cy="1182.06" r="22.95"></circle>
				<path style="fill:none;stroke:#000000;stroke-linecap:round;stroke-linejoin:round;stroke-miterlimit:10;" d="M322.65,1182.86
					c0,0-10.03,1.5-8.27,10.61c0.94,4.84,6.19,5.53,8.88,3.64c1.28-0.9,2.1-3.46,1.02-6.03c-2.11-5.02-0.21-6.82-0.21-6.82"></path>
				<path style="fill:none;stroke:#000000;stroke-linecap:round;stroke-linejoin:round;stroke-miterlimit:10;" d="M325.58,1184.25
					c0,0,1.3,10.06,10.44,8.48c4.85-0.84,5.65-6.08,3.81-8.81c-0.87-1.3-3.41-2.17-6.01-1.14c-5.06,2.01-6.83,0.07-6.83,0.07"></path>
				<path style="fill:none;stroke:#000000;stroke-linecap:round;stroke-linejoin:round;stroke-miterlimit:10;" d="M327,1181.27
					c0,0,10.04-1.44,8.33-10.56c-0.91-4.84-6.16-5.56-8.86-3.69c-1.29,0.89-2.12,3.44-1.05,6.02c2.08,5.03,0.16,6.82,0.16,6.82"></path>
				<path style="fill:none;stroke:#000000;stroke-linecap:round;stroke-linejoin:round;stroke-miterlimit:10;" d="M324.03,1179.88
					c0,0-1.47-10.04-10.58-8.3c-4.84,0.92-5.55,6.17-3.66,8.87c0.9,1.29,3.45,2.11,6.03,1.03c5.02-2.1,6.82-0.19,6.82-0.19"></path>
			</g>
		</g>
	</g>
	<g>
		<path style="fill:none;stroke:#000000;stroke-linecap:round;stroke-linejoin:round;stroke-miterlimit:10;" d="M1732.32,1145.54
			c92.21,0,167.68-74.59,167.68-166.79h-166.31"></path>
		
			<rect x="1719.57" y="964.62" transform="matrix(-9.044872e-11 1 -1 -9.044872e-11 2698.3137 -750.7542)" style="fill:none;stroke:#000000;stroke-linecap:round;stroke-linejoin:round;stroke-miterlimit:10;" width="9.93" height="18.32"></rect>
		
			<rect x="1719.57" y="1141.35" transform="matrix(-8.898411e-11 1 -1 -8.898411e-11 2875.0398 -574.0281)" style="fill:none;stroke:#000000;stroke-linecap:round;stroke-linejoin:round;stroke-miterlimit:10;" width="9.93" height="18.32"></rect>
	</g>
	<g>
		<path style="fill:none;stroke:#000000;stroke-linecap:round;stroke-linejoin:round;stroke-miterlimit:10;" d="M1408.8,906.11
			c0,72.13,58.35,131.17,130.47,131.17v-130.1"></path>
		
			<rect x="1539.28" y="892.86" transform="matrix(-1 8.847488e-11 -8.847488e-11 -1 3086.3254 1800.038)" style="fill:none;stroke:#000000;stroke-linecap:round;stroke-linejoin:round;stroke-miterlimit:10;" width="7.77" height="14.33"></rect>
		
			<rect x="1401.03" y="892.86" transform="matrix(-1 9.011313e-11 -9.011313e-11 -1 2809.8359 1800.038)" style="fill:none;stroke:#000000;stroke-linecap:round;stroke-linejoin:round;stroke-miterlimit:10;" width="7.77" height="14.33"></rect>
	</g>
	<g>
		<path style="fill:none;stroke:#000000;stroke-linecap:round;stroke-linejoin:round;stroke-miterlimit:10;" d="M1374.1,648.29
			c-72.13,0-131.17,58.35-131.17,130.47h130.1"></path>
		
			<rect x="1376.3" y="775.49" transform="matrix(-8.847494e-11 -1 1 -8.847494e-11 597.5386 2162.8413)" style="fill:none;stroke:#000000;stroke-linecap:round;stroke-linejoin:round;stroke-miterlimit:10;" width="7.77" height="14.33"></rect>
		
			<rect x="1376.3" y="637.24" transform="matrix(-9.034722e-11 -1 1 -9.034722e-11 735.7833 2024.5966)" style="fill:none;stroke:#000000;stroke-linecap:round;stroke-linejoin:round;stroke-miterlimit:10;" width="7.77" height="14.33"></rect>
	</g>
	<g>
		<path style="fill:none;stroke:#000000;stroke-linecap:round;stroke-linejoin:round;stroke-miterlimit:10;" d="M861.85,979.75
			c0-81.14,65.64-147.57,146.78-147.57v146.36"></path>
		
			<rect x="1008.63" y="978.54" transform="matrix(-1 -8.323456e-13 8.323456e-13 -1 2026.0065 1973.2028)" style="fill:none;stroke:#000000;stroke-linecap:round;stroke-linejoin:round;stroke-miterlimit:10;" width="8.74" height="16.12"></rect>
		
			<rect x="853.11" y="978.54" transform="matrix(-1 -1.224647e-16 1.224647e-16 -1 1714.9559 1973.2028)" style="fill:none;stroke:#000000;stroke-linecap:round;stroke-linejoin:round;stroke-miterlimit:10;" width="8.74" height="16.12"></rect>
	</g>
	<g>
		<g id="LWPOLYLINE_369_">
			
				<rect x="1383.01" y="1185.39" style="fill:none;stroke:#000000;stroke-linecap:round;stroke-linejoin:round;stroke-miterlimit:10;" width="109.51" height="109.42"></rect>
		</g>
		<g id="LWPOLYLINE_368_">
			<polyline style="fill:none;stroke:#000000;stroke-linecap:round;stroke-linejoin:round;stroke-miterlimit:10;" points="
				1406.95,1215.63 1437.24,1250.77 1437.24,1226.91 1467.52,1262.06 			"></polyline>
		</g>
		<g id="LWPOLYLINE_367_">
			<path style="fill:none;stroke:#000000;stroke-linecap:round;stroke-linejoin:round;stroke-miterlimit:10;" d="M1437.87,1213.72
				c14.64,0,26.51,11.87,26.51,26.51c0,14.64-11.87,26.51-26.51,26.51c-14.64,0-26.51-11.87-26.51-26.51
				C1411.36,1225.58,1423.23,1213.72,1437.87,1213.72z"></path>
		</g>
	</g>
	<g>
		<g>
			<g id="LWPOLYLINE_224_">
				<path style="fill:none;stroke:#000000;stroke-linecap:round;stroke-linejoin:round;stroke-miterlimit:10;" d="M1699.14,734.97
					l-51.86,0c-7.31,0-13.78-4.55-16.02-11.25c-8.13-24.33-8.13-50.51,0-74.84c2.24-6.71,8.71-11.25,16.02-11.25h51.86"></path>
			</g>
			<g id="LWPOLYLINE_223_">
				<path style="fill:none;stroke:#000000;stroke-linecap:round;stroke-linejoin:round;stroke-miterlimit:10;" d="M1684.63,660.33
					c0-5.38-4.52-9.73-10.1-9.73h-16.16c-3.7,0-6.96,2.33-8.04,5.73c-6.2,19.52-6.2,40.39,0,59.91c1.08,3.41,4.35,5.74,8.04,5.74
					h16.16c5.58,0,10.1-4.36,10.1-9.74"></path>
			</g>
			<g id="LWPOLYLINE_222_">
				<path style="fill:none;stroke:#000000;stroke-linecap:round;stroke-linejoin:round;stroke-miterlimit:10;" d="M1674.54,728.48
					c5.58,0,10.1-4.36,10.1-9.74v-64.89c0-5.38-4.52-9.74-10.09-9.73l-27.26,0c-4.38,0-8.26,2.73-9.61,6.75
					c-7.7,23.04-7.7,47.82,0,70.86c1.34,4.02,5.22,6.75,9.61,6.75L1674.54,728.48z"></path>
			</g>
			<g id="LWPOLYLINE_221_">
				<path style="fill:none;stroke:#000000;stroke-linecap:round;stroke-linejoin:round;stroke-miterlimit:10;" d="M1681.63,686.3
					c0-2.41-2.02-4.37-4.53-4.37c-2.5,0-4.53,1.96-4.53,4.37c0,2.41,2.03,4.36,4.53,4.36
					C1679.6,690.66,1681.62,688.71,1681.63,686.3z"></path>
			</g>
		</g>
		<g>
			<g id="LWPOLYLINE_217_">
				
					<rect x="1387.84" y="502.44" style="fill:none;stroke:#000000;stroke-linecap:round;stroke-linejoin:round;stroke-miterlimit:10;" width="311.63" height="127.88"></rect>
			</g>
			<g id="LWPOLYLINE_216_">
				<path style="fill:none;stroke:#000000;stroke-linecap:round;stroke-linejoin:round;stroke-miterlimit:10;" d="M1430.94,620.09
					l203.83,0c29.66,0,53.7-24.05,53.71-53.7c0-29.66-24.04-53.71-53.71-53.71l-203.83,0c-14.18,0-25.71,11.4-25.88,25.57v56.27
					c0,14.13,11.45,25.58,25.58,25.58"></path>
			</g>
			<g id="LWPOLYLINE_215_">
				<path style="fill:none;stroke:#000000;stroke-linecap:round;stroke-linejoin:round;stroke-miterlimit:10;" d="M1494.8,605.48
					h139.97c21.6,0,39.1-17.51,39.1-39.1s-17.51-39.09-39.1-39.09l-137.96,0c-20.8,0.02-37.95,16.31-39.04,37.08
					C1456.64,585.94,1473.22,604.35,1494.8,605.48z"></path>
			</g>
			<g id="LWPOLYLINE_214_">
				<path style="fill:none;stroke:#000000;stroke-linecap:round;stroke-linejoin:round;stroke-miterlimit:10;" d="M1641.93,566.39
					c0-3.95-3.2-7.16-7.16-7.16c-3.96,0-7.16,3.21-7.16,7.16c0,3.96,3.21,7.16,7.16,7.16
					C1638.72,573.54,1641.93,570.34,1641.93,566.39z"></path>
			</g>
		</g>
		<g>
			<g id="LWPOLYLINE_160_">
				<path style="fill:none;stroke:#000000;stroke-linecap:round;stroke-linejoin:round;stroke-miterlimit:10;" d="M1637.18,849.98
					l-51.68-0.01c-17.98,0-32.56-14.88-32.56-33.25c0-18.36,14.58-33.25,32.56-33.25l51.68,0.01c4.49,0,8.14,3.72,8.14,8.31l0,49.88
					C1645.32,846.27,1641.68,849.99,1637.18,849.98z"></path>
			</g>
			<g id="LWPOLYLINE_159_">
				<path style="fill:none;stroke:#000000;stroke-linecap:round;stroke-linejoin:round;stroke-miterlimit:10;" d="M1585.51,790.13
					l28.91,0.01c14.38,0,26.04,11.91,26.05,26.59c0,14.69-11.66,26.6-26.05,26.6l-28.91-0.01c-14.38,0-26.04-11.91-26.05-26.59
					C1559.46,802.05,1571.12,790.14,1585.51,790.13z"></path>
			</g>
			<g id="LWPOLYLINE_158_">
				<path style="fill:none;stroke:#000000;stroke-linecap:round;stroke-linejoin:round;stroke-miterlimit:10;" d="M1595.99,806.76
					l21.13,0.01c5.39,0,9.77,4.46,9.77,9.97c0,5.51-4.37,9.97-9.77,9.97l-21.13-0.01c-5.39,0-9.77-4.46-9.77-9.97
					C1586.22,811.22,1590.59,806.76,1595.99,806.76z"></path>
			</g>
		</g>
	</g>
	
		<line style="fill:none;stroke:#000000;stroke-linecap:round;stroke-linejoin:round;stroke-miterlimit:10;stroke-dasharray:10,10;" x1="1027.18" y1="604.93" x2="1027.18" y2="789.43"></line>
	
		<line style="fill:none;stroke:#000000;stroke-linecap:round;stroke-linejoin:round;stroke-miterlimit:10;stroke-dasharray:10,10;" x1="1376.76" y1="984.03" x2="1376.76" y2="1173.5"></line>
	
		<line style="fill:none;stroke:#000000;stroke-linecap:round;stroke-linejoin:round;stroke-miterlimit:10;stroke-dasharray:10,10;" x1="1645.52" y1="1178.04" x2="1488.3" y2="1178.04"></line>
	<g>
		<g id="LWPOLYLINE_204_">
			
				<rect x="1260.32" y="1211" style="fill:none;stroke:#000000;stroke-linecap:round;stroke-linejoin:round;stroke-miterlimit:10;" width="109.45" height="109.45"></rect>
		</g>
		<g id="LWPOLYLINE_203_">
			
				<line style="fill:none;stroke:#000000;stroke-linecap:round;stroke-linejoin:round;stroke-miterlimit:10;" x1="1324.16" y1="1238.37" x2="1360.65" y2="1238.37"></line>
		</g>
		<g id="LWPOLYLINE_202_">
			
				<line style="fill:none;stroke:#000000;stroke-linecap:round;stroke-linejoin:round;stroke-miterlimit:10;" x1="1342.4" y1="1256.61" x2="1342.4" y2="1220.13"></line>
		</g>
		<g id="CIRCLE_95_">
			<path style="fill:none;stroke:#000000;stroke-linecap:round;stroke-linejoin:round;stroke-miterlimit:10;" d="M1342.4,1223.78
				c8.06,0,14.6,6.53,14.6,14.6s-6.53,14.6-14.6,14.6c-8.06,0-14.6-6.53-14.6-14.6S1334.34,1223.78,1342.4,1223.78L1342.4,1223.78z"></path>
		</g>
		<g id="LWPOLYLINE_201_">
			
				<line style="fill:none;stroke:#000000;stroke-linecap:round;stroke-linejoin:round;stroke-miterlimit:10;" x1="1269.43" y1="1238.37" x2="1305.92" y2="1238.37"></line>
		</g>
		<g id="LWPOLYLINE_200_">
			
				<line style="fill:none;stroke:#000000;stroke-linecap:round;stroke-linejoin:round;stroke-miterlimit:10;" x1="1287.68" y1="1256.61" x2="1287.68" y2="1220.13"></line>
		</g>
		<g id="CIRCLE_94_">
			<path style="fill:none;stroke:#000000;stroke-linecap:round;stroke-linejoin:round;stroke-miterlimit:10;" d="M1287.67,1223.78
				c8.06,0,14.6,6.54,14.6,14.6c0,8.06-6.54,14.6-14.6,14.6c-8.06,0-14.6-6.54-14.6-14.6
				C1273.07,1230.31,1279.61,1223.78,1287.67,1223.78L1287.67,1223.78z"></path>
		</g>
		<g id="LWPOLYLINE_199_">
			
				<line style="fill:none;stroke:#000000;stroke-linecap:round;stroke-linejoin:round;stroke-miterlimit:10;" x1="1269.43" y1="1293.1" x2="1305.92" y2="1293.1"></line>
		</g>
		<g id="LWPOLYLINE_181_">
			
				<line style="fill:none;stroke:#000000;stroke-linecap:round;stroke-linejoin:round;stroke-miterlimit:10;" x1="1287.68" y1="1311.34" x2="1287.68" y2="1274.85"></line>
		</g>
		<g id="CIRCLE_93_">
			<path style="fill:none;stroke:#000000;stroke-linecap:round;stroke-linejoin:round;stroke-miterlimit:10;" d="M1287.67,1278.5
				c8.06,0,14.6,6.54,14.6,14.6c0,8.06-6.54,14.6-14.6,14.6c-8.06,0-14.6-6.54-14.6-14.6
				C1273.07,1285.04,1279.61,1278.5,1287.67,1278.5L1287.67,1278.5z"></path>
		</g>
		<g id="LWPOLYLINE_180_">
			
				<line style="fill:none;stroke:#000000;stroke-linecap:round;stroke-linejoin:round;stroke-miterlimit:10;" x1="1324.16" y1="1293.1" x2="1360.65" y2="1293.1"></line>
		</g>
		<g id="LWPOLYLINE_179_">
			
				<line style="fill:none;stroke:#000000;stroke-linecap:round;stroke-linejoin:round;stroke-miterlimit:10;" x1="1342.4" y1="1311.34" x2="1342.4" y2="1274.85"></line>
		</g>
		<g id="CIRCLE_92_">
			<path style="fill:none;stroke:#000000;stroke-linecap:round;stroke-linejoin:round;stroke-miterlimit:10;" d="M1342.4,1278.5
				c8.06,0,14.6,6.53,14.6,14.6s-6.53,14.6-14.6,14.6c-8.06,0-14.6-6.53-14.6-14.6S1334.34,1278.5,1342.4,1278.5L1342.4,1278.5z"></path>
		</g>
	</g>
	<g>
		<g id="LWPOLYLINE_151_">
			
				<rect x="1260.32" y="1402.43" style="fill:none;stroke:#000000;stroke-linecap:round;stroke-linejoin:round;stroke-miterlimit:10;" width="109.45" height="109.45"></rect>
		</g>
		<g id="LWPOLYLINE_150_">
			<path style="fill:none;stroke:#000000;stroke-linecap:round;stroke-linejoin:round;stroke-miterlimit:10;" d="M1275.82,1411.55
				l69.28,0c3.53,0,6.39,2.86,6.39,6.38c0,0,0,78.45,0,78.45c0,3.53-2.86,6.39-6.38,6.39c0,0-69.28,0-69.28,0
				c-3.53,0-6.38-2.86-6.38-6.38c0,0,0-78.45,0-78.45C1269.44,1414.41,1272.29,1411.55,1275.82,1411.55z"></path>
		</g>
		<g id="LWPOLYLINE_149_">
			<path style="fill:none;stroke:#000000;stroke-linecap:round;stroke-linejoin:round;stroke-miterlimit:10;" d="M1327.34,1438.91
				c0-3.53,2.86-6.4,6.4-6.4c3.53,0,6.4,2.86,6.4,6.4c0,3.53-2.86,6.4-6.4,6.4C1330.21,1445.31,1327.34,1442.45,1327.34,1438.91z"></path>
		</g>
	</g>
	<g>
		
			<rect x="234.38" y="716.46" transform="matrix(-1.836970e-16 1 -1 -1.836970e-16 1139.9656 340.9161)" style="fill:none;stroke:#000000;stroke-linecap:round;stroke-linejoin:round;stroke-miterlimit:10;" width="330.29" height="47.95"></rect>
		
			<rect x="230.02" y="732.9" transform="matrix(6.123234e-17 -1 1 6.123234e-17 -344.3053 1136.2788)" style="fill:none;stroke:#000000;stroke-linecap:round;stroke-linejoin:round;stroke-miterlimit:10;" width="331.94" height="14.78"></rect>
		
			<rect x="388.28" y="890.49" transform="matrix(6.123234e-17 -1 1 6.123234e-17 -501.8925 1293.8661)" style="fill:none;stroke:#000000;stroke-linecap:round;stroke-linejoin:round;stroke-miterlimit:10;" width="15.41" height="14.78"></rect>
		<g>
			<g>
				<path style="fill:none;stroke:#000000;stroke-linecap:round;stroke-linejoin:round;stroke-miterlimit:10;" d="M487.01,669.67
					c-20.8,21.94-51.24,35.63-83.54,35.63"></path>
				
					<line style="fill:none;stroke:#000000;stroke-linecap:round;stroke-linejoin:round;stroke-miterlimit:10;" x1="403.52" y1="589.45" x2="487.01" y2="669.67"></line>
			</g>
			
				<rect x="388.48" y="574.71" transform="matrix(-1.836970e-16 1 -1 -1.836970e-16 978.0622 186.1186)" style="fill:none;stroke:#000000;stroke-linecap:round;stroke-linejoin:round;stroke-miterlimit:10;" width="14.99" height="14.75"></rect>
			
				<rect x="388.48" y="705.4" transform="matrix(-1.836970e-16 1 -1 -1.836970e-16 1108.7627 316.8191)" style="fill:none;stroke:#000000;stroke-linecap:round;stroke-linejoin:round;stroke-miterlimit:10;" width="14.99" height="14.78"></rect>
		</g>
		<g>
			<path style="fill:none;stroke:#000000;stroke-linecap:round;stroke-linejoin:round;stroke-miterlimit:10;" d="M201.43,575.62"></path>
			<path style="fill:none;stroke:#000000;stroke-linecap:round;stroke-linejoin:round;stroke-miterlimit:10;" d="M100,575.62"></path>
			
				<line style="fill:none;stroke:#000000;stroke-linecap:round;stroke-linejoin:round;stroke-miterlimit:10;" x1="201.43" y1="755.23" x2="100" y2="755.23"></line>
			<g>
				<path style="fill:none;stroke:#000000;stroke-linecap:round;stroke-linejoin:round;stroke-miterlimit:10;" d="M184.11,718.33
					v-105.8c0-10.38-8.42-18.8-18.8-18.8h-30.23c-10.38,0-18.8,8.42-18.8,18.8v105.8c0,10.38,8.42,18.8,18.8,18.8h30.23
					C175.69,737.13,184.11,728.71,184.11,718.33z"></path>
				<g>
					
						<circle style="fill:none;stroke:#000000;stroke-linecap:round;stroke-linejoin:round;stroke-miterlimit:10;" cx="150.19" cy="640.8" r="2.32"></circle>
					<path style="fill:none;stroke:#000000;stroke-linecap:round;stroke-linejoin:round;stroke-miterlimit:10;" d="M148.02,641.6
						c0,0-10.03,1.5-8.27,10.61c0.94,4.84,6.19,5.53,8.88,3.64c1.28-0.9,2.1-3.46,1.02-6.03c-2.11-5.02-0.21-6.82-0.21-6.82"></path>
					<path style="fill:none;stroke:#000000;stroke-linecap:round;stroke-linejoin:round;stroke-miterlimit:10;" d="M150.95,642.99
						c0,0,1.3,10.06,10.44,8.48c4.85-0.84,5.65-6.08,3.81-8.81c-0.87-1.3-3.41-2.17-6.01-1.14c-5.06,2.01-6.83,0.07-6.83,0.07"></path>
					<path style="fill:none;stroke:#000000;stroke-linecap:round;stroke-linejoin:round;stroke-miterlimit:10;" d="M152.37,640.01
						c0,0,10.04-1.44,8.33-10.56c-0.91-4.84-6.16-5.56-8.86-3.69c-1.29,0.89-2.12,3.44-1.05,6.02c2.08,5.03,0.16,6.82,0.16,6.82"></path>
					<path style="fill:none;stroke:#000000;stroke-linecap:round;stroke-linejoin:round;stroke-miterlimit:10;" d="M149.4,638.62
						c0,0-1.47-10.04-10.58-8.3c-4.84,0.92-5.55,6.17-3.66,8.87c0.9,1.29,3.45,2.11,6.03,1.03c5.02-2.1,6.82-0.19,6.82-0.19"></path>
					
						<circle style="fill:none;stroke:#000000;stroke-linecap:round;stroke-linejoin:round;stroke-miterlimit:10;" cx="150.19" cy="640.8" r="22.95"></circle>
					<path style="fill:none;stroke:#000000;stroke-linecap:round;stroke-linejoin:round;stroke-miterlimit:10;" d="M148.02,641.6
						c0,0-10.03,1.5-8.27,10.61c0.94,4.84,6.19,5.53,8.88,3.64c1.28-0.9,2.1-3.46,1.02-6.03c-2.11-5.02-0.21-6.82-0.21-6.82"></path>
					<path style="fill:none;stroke:#000000;stroke-linecap:round;stroke-linejoin:round;stroke-miterlimit:10;" d="M150.95,642.99
						c0,0,1.3,10.06,10.44,8.48c4.85-0.84,5.65-6.08,3.81-8.81c-0.87-1.3-3.41-2.17-6.01-1.14c-5.06,2.01-6.83,0.07-6.83,0.07"></path>
					<path style="fill:none;stroke:#000000;stroke-linecap:round;stroke-linejoin:round;stroke-miterlimit:10;" d="M152.37,640.01
						c0,0,10.04-1.44,8.33-10.56c-0.91-4.84-6.16-5.56-8.86-3.69c-1.29,0.89-2.12,3.44-1.05,6.02c2.08,5.03,0.16,6.82,0.16,6.82"></path>
					<path style="fill:none;stroke:#000000;stroke-linecap:round;stroke-linejoin:round;stroke-miterlimit:10;" d="M149.4,638.62
						c0,0-1.47-10.04-10.58-8.3c-4.84,0.92-5.55,6.17-3.66,8.87c0.9,1.29,3.45,2.11,6.03,1.03c5.02-2.1,6.82-0.19,6.82-0.19"></path>
				</g>
			</g>
			<polyline style="fill:none;stroke:#000000;stroke-linecap:round;stroke-linejoin:round;stroke-miterlimit:10;" points="
				374.85,903.07 100,903.07 100,575.62 374.85,575.62 			"></polyline>
			
				<line style="fill:none;stroke:#000000;stroke-linecap:round;stroke-linejoin:round;stroke-miterlimit:10;" x1="201.43" y1="893.95" x2="375.55" y2="893.95"></line>
			
				<line style="fill:none;stroke:#000000;stroke-linecap:round;stroke-linejoin:round;stroke-miterlimit:10;" x1="374.85" y1="584.3" x2="201.43" y2="584.3"></line>
			
				<line style="fill:none;stroke:#000000;stroke-linecap:round;stroke-linejoin:round;stroke-miterlimit:10;" x1="201.43" y1="893.95" x2="201.43" y2="584.3"></line>
		</g>
	</g>
	<g id="_x35_">
		
			<rect x="338.13" y="1461.41" transform="matrix(-1.836970e-16 1 -1 -1.836970e-16 1885.5894 1086.5029)" width="122.84" height="49.28"></rect>
		
			<rect x="303.86" y="975.49" transform="matrix(-1.836970e-16 1 -1 -1.836970e-16 1399.6747 600.5884)" width="191.37" height="49.28"></rect>
		
			<rect x="334.79" y="486.25" transform="matrix(-1.836970e-16 1 -1 -1.836970e-16 910.4288 111.3424)" width="129.5" height="49.28"></rect>
		
			<rect x="1044.75" y="842.03" transform="matrix(-1.836970e-16 1 -1 -1.836970e-16 2598.6162 467.131)" width="41.98" height="1381.68"></rect>
		
			<rect x="1044.75" y="-223.67" transform="matrix(-1.836970e-16 1 -1 -1.836970e-16 1532.9119 -598.5733)" width="41.98" height="1381.68"></rect>
		
			<rect x="1551.28" y="1318.55" transform="matrix(-1.836970e-16 1 -1 -1.836970e-16 3075.1357 -396.0491)" width="368.63" height="41.98"></rect>
		
			<rect x="1487.38" y="699.86" transform="matrix(-1.836970e-16 1 -1 -1.836970e-16 2456.4399 -1014.7449)" width="496.42" height="41.98"></rect>
		
			<rect x="1671.35" y="1138.8" transform="matrix(-1.836970e-16 1 -1 -1.836970e-16 2856.6919 -500.6054)" width="14.6" height="78.49"></rect>
		
			<rect x="1427.77" y="1119.73" transform="matrix(-1.836970e-16 1 -1 -1.836970e-16 2613.116 -257.0294)" width="14.6" height="116.63"></rect>
		
			<rect x="1197.48" y="1342.91" transform="matrix(-1.836970e-16 1 -1 -1.836970e-16 2726.7815 -26.7332)" width="358.56" height="14.24"></rect>
		
			<rect x="1364.28" y="1461.84" transform="matrix(-1.836970e-16 1 -1 -1.836970e-16 2894.9983 40.0934)" width="126.35" height="11.41"></rect>
		
			<rect x="1398.16" y="1388.35" transform="matrix(-1.836970e-16 1 -1 -1.836970e-16 2813.9392 6.2054)" width="11.41" height="43.45"></rect>
		
			<rect x="1374.52" y="886.88" transform="matrix(-1.836970e-16 1 -1 -1.836970e-16 2287.9102 -482.7614)" width="21.63" height="31.39"></rect>
		
			<rect x="1624.45" y="814.36" transform="matrix(-1.836970e-16 1 -1 -1.836970e-16 2537.8354 -732.6868)" width="21.63" height="176.42"></rect>
		
			<rect x="1335.33" y="939.67" transform="matrix(-1.836970e-16 1 -1 -1.836970e-16 2323.5474 -429.9674)" width="82.86" height="14.24"></rect>
		
			<rect x="1504.58" y="674.98" transform="matrix(-1.836970e-16 1 -1 -1.836970e-16 2403.0024 -1024.1039)" width="417.95" height="28.93"></rect>
		
			<rect x="1571.64" y="816.7" transform="matrix(-1.836970e-16 1 -1 -1.836970e-16 2474.7197 -827.725)" width="159.16" height="13.6"></rect>
		
			<rect x="1672.17" y="723.88" transform="matrix(-1.836970e-16 1 -1 -1.836970e-16 2429.6814 -928.2465)" width="13.6" height="53.68"></rect>
		
			<rect x="1537.51" y="315.18" transform="matrix(-1.836970e-16 1 -1 -1.836970e-16 2041.0511 -1063.7672)" width="29.79" height="346.92"></rect>
		
			<rect x="1299.66" y="552.79" transform="matrix(-1.836970e-16 1 -1 -1.836970e-16 1940.7739 -818.1251)" width="159.57" height="17.07"></rect>
		
			<rect x="1324.24" y="831.94" transform="matrix(-1.836970e-16 1 -1 -1.836970e-16 2219.9177 -537.7037)" width="109.14" height="18.34"></rect>
		
			<rect x="1198.17" y="702.5" transform="matrix(-1.836970e-16 1 -1 -1.836970e-16 2076.8843 -334.0663)" width="14.6" height="337.82"></rect>
		
			<rect x="932.79" y="881.16" transform="matrix(-1.836970e-16 1 -1 -1.836970e-16 1922.2659 -145.3372)" width="202.03" height="14.6"></rect>
		
			<rect x="968.46" y="532.29" transform="matrix(-1.836970e-16 1 -1 -1.836970e-16 1573.3884 -494.2146)" width="130.68" height="14.6"></rect>
		
			<rect x="1021.94" y="974.53" transform="matrix(-1.836970e-16 1 -1 -1.836970e-16 2015.6354 -42.8417)" width="14.6" height="23.73"></rect>
		
			<rect x="622.22" y="762.81" transform="matrix(-1.836970e-16 1 -1 -1.836970e-16 1615.9158 356.878)" width="14.6" height="447.17"></rect>
	</g>
</g>
</svg>
