<?xml version="1.0" encoding="utf-8"?>
<!-- Generator: Adobe Illustrator 24.1.2, SVG Export Plug-In . SVG Version: 6.00 Build 0)  -->
<svg version="1.0" id="Layer_1" xmlns="http://www.w3.org/2000/svg" xmlns:xlink="http://www.w3.org/1999/xlink" x="0px" y="0px" width="2000px" height="2000px" viewBox="0 0 2000 2000" style="enable-background:new 0 0 2000 2000;" xml:space="preserve">
<path id="background" style="fill:#FFFFFF;" d="M1900,900.3v187.38c0.28,0,0.5,0.22,0.5,0.5v441.84c0,0.28-0.22,0.5-0.5,0.5v74.37
	v50.38h-113.34H265.02v-1.93v-48.45V1207.3h28.51v-10.25H100c-0.28,0-0.5-0.22-0.5-0.5c0-106.3,86.99-192.81,194.02-193.08v-10.26
	h-28.51v-598.1h-0.12v-50.38h0.12h48.16H1900v0.94v49.44v62.36c0.28,0,0.5,0.22,0.5,0.5V899.8
	C1900.5,900.08,1900.28,900.3,1900,900.3z"></path>
<g id="s1">
	<path id="s1_path" style="fill:none;" d="M310.16,783.05V374.69h477.6v409.86L310.16,783.05z"></path>
	<text id="s1_text" transform="matrix(1 0 0 1 597.8384 681.7236)" style="font-family: GraphikLCG-Regular; font-size: 40px; text-anchor: middle; text-align: center;"></text>
</g>
<g id="f1">
	<path id="f1_path" style="fill:none;" d="M277.91,1621.95l11.18-34.22v-331.1h412.7v365.32H277.91z"></path>
	<text id="f1_text" transform="matrix(1 0 0 1 459.8545 1362.4082)" style="font-family: GraphikLCG-Regular; font-size: 40px; text-anchor: middle; text-align: center;"></text>
</g>
<g id="h1">
	<path id="h1_path" style="fill:none;" d="M701.8,1256.63l-398.2,0.01l0.01-472.08H701.8V1256.63z"></path>
	
		<text id="h1_text" transform="matrix(1 0 0 1 485.5176 1100.3281)" style="font-family: GraphikLCG-Regular; font-size: 40px; text-anchor: middle; text-align: center;"></text>
</g>
<g id="c1">
	<path id="c1_path" style="fill:none;" d="M701.99,1622.46V792.34h448.02v203.11l716.67,0.25v626.15L701.99,1622.46z"></path>
	
		<text id="c1_text" transform="matrix(1 0 0 1 1163.6636 1173.4609)" style="font-family: GraphikLCG-Regular; font-size: 40px; text-anchor: middle; text-align: center;"></text>
</g>
<g id="r1">
	<path id="r1_path" style="fill:none;" d="M1866.42,369.92l0.22,624.34h-717.82l-0.53-624.34H1866.42z"></path>
	
		<text id="r1_text" transform="matrix(1 0 0 1 1225.8247 681.7256)" style="font-family: GraphikLCG-Regular; font-size: 40px; text-anchor: middle; text-align: center;"></text>
</g>
<g id="g1">
	<path id="g1_path" style="fill:none;" d="M787.54,792.34V374.69h361.02v417.64H787.54z"></path>
	<text id="g1_text" transform="matrix(1 0 0 1 985.906 639.5811)" style="font-family: GraphikLCG-Regular; font-size: 40px; text-anchor: middle; text-align: center;"></text>
</g>
<path id="u3" style="fill:#FFFFFF;stroke:#FFFFFF;stroke-linecap:round;stroke-linejoin:round;stroke-miterlimit:10;" d="
	M911.49,583.71c-6.98,0-12.63-5.66-12.63-12.63c0-6.98,5.66-12.63,12.63-12.63c6.98,0,12.63,5.66,12.63,12.63
	C924.12,578.06,918.46,583.71,911.49,583.71z"></path>
<path id="u10" style="fill:#FFFFFF;stroke:#FFFFFF;stroke-linecap:round;stroke-linejoin:round;stroke-miterlimit:10;" d="
	M565.18,597.38c-6.98,0-12.63-5.66-12.63-12.63c0-6.98,5.66-12.63,12.63-12.63c6.98,0,12.63,5.66,12.63,12.63
	C577.81,591.72,572.16,597.38,565.18,597.38z"></path>
<path id="u4" style="fill:#FFFFFF;stroke:#FFFFFF;stroke-linecap:round;stroke-linejoin:round;stroke-miterlimit:10;" d="
	M453.19,1437.93c-6.98,0-12.63-5.66-12.63-12.63s5.66-12.63,12.63-12.63s12.63,5.66,12.63,12.63S460.17,1437.93,453.19,1437.93z"></path>
<path id="u7" style="fill:#FFFFFF;stroke:#FFFFFF;stroke-linecap:round;stroke-linejoin:round;stroke-miterlimit:10;" d="
	M950.61,1083.64c-6.98,0-12.63-5.66-12.63-12.63c0-6.98,5.66-12.63,12.63-12.63c6.98,0,12.63,5.66,12.63,12.63
	C963.24,1077.98,957.59,1083.64,950.61,1083.64z"></path>
<g id="mebel">
	<g>
		<polygon style="fill:none;stroke:#000000;stroke-linecap:round;stroke-linejoin:round;stroke-miterlimit:10;" points="
			836.03,1384.7 836.03,1478.95 709.79,1478.95 709.77,1384.7 		"></polygon>
		<path style="fill:none;stroke:#000000;stroke-linecap:round;stroke-linejoin:round;stroke-miterlimit:10;" d="M746,1431.83
			l30.64,11.81c1.88,0.64,3.94,1,6.1,1c8.7,0,15.75-5.73,15.75-12.8c0-7.07-7.05-12.8-15.75-12.8c-2.16,0-4.22,0.36-6.1,1
			L746,1431.83z"></path>
	</g>
	<g>
		<polygon style="fill:none;stroke:#000000;stroke-linecap:round;stroke-linejoin:round;stroke-miterlimit:10;" points="
			1013.77,926.79 1013.77,800.44 1140.09,800.44 1140.11,926.79 		"></polygon>
		<g>
			
				<line style="fill:none;stroke:#000000;stroke-linecap:round;stroke-linejoin:round;stroke-miterlimit:10;" x1="1107.35" y1="863.61" x2="1046.52" y2="863.61"></line>
			
				<line style="fill:none;stroke:#000000;stroke-linecap:round;stroke-linejoin:round;stroke-miterlimit:10;" x1="1076.94" y1="894.03" x2="1076.94" y2="833.2"></line>
			<polyline style="fill:none;stroke:#000000;stroke-linecap:round;stroke-linejoin:round;stroke-miterlimit:10;" points="
				1100.59,878.82 1092.15,863.61 1100.59,848.41 			"></polyline>
			<polyline style="fill:none;stroke:#000000;stroke-linecap:round;stroke-linejoin:round;stroke-miterlimit:10;" points="
				1092.15,839.96 1076.94,848.41 1061.73,839.96 			"></polyline>
			<polyline style="fill:none;stroke:#000000;stroke-linecap:round;stroke-linejoin:round;stroke-miterlimit:10;" points="
				1053.28,848.41 1061.73,863.61 1053.28,878.82 			"></polyline>
			<polyline style="fill:none;stroke:#000000;stroke-linecap:round;stroke-linejoin:round;stroke-miterlimit:10;" points="
				1061.73,887.27 1076.94,878.82 1092.15,887.27 			"></polyline>
		</g>
	</g>
	<g>
		<g>
			<g>
				<path style="fill:none;stroke:#000000;stroke-linecap:round;stroke-linejoin:round;stroke-miterlimit:10;" d="M960.01,1414.47
					l-10.81,28.02c-6.76,17.53,0.73,37.34,17.41,46l1.89,0.98c16.66,8.66,37.17,3.42,47.63-12.17l16.76-24.97L960.01,1414.47z"></path>
				<path style="fill:none;stroke:#000000;stroke-linecap:round;stroke-linejoin:round;stroke-miterlimit:10;" d="M1028.59,1477.87
					l-3.7,5.51c-13.4,19.96-39.66,26.68-60.99,15.59l-2.43-1.26c-21.35-11.09-30.95-36.47-22.29-58.91l2.37-6.14
					c1.15-2.97,4.62-4.28,7.44-2.81l0,0c2.41,1.25,3.5,4.12,2.52,6.66l-2.31,6c-6.76,17.53,0.73,37.34,17.41,46l1.89,0.98
					c16.66,8.66,37.17,3.42,47.63-12.17l3.61-5.38c1.51-2.25,4.48-3.01,6.88-1.76v0
					C1029.44,1471.63,1030.36,1475.23,1028.59,1477.87z"></path>
			</g>
			<g>
				<path style="fill:none;stroke:#000000;stroke-linecap:round;stroke-linejoin:round;stroke-miterlimit:10;" d="M1027.26,1282.46
					l-18.21-23.88c-11.39-14.94-32.2-18.93-48.31-9.26l-1.83,1.1c-16.1,9.66-22.37,29.88-14.57,46.95l12.5,27.35L1027.26,1282.46z"></path>
				<path style="fill:none;stroke:#000000;stroke-linecap:round;stroke-linejoin:round;stroke-miterlimit:10;" d="M937.34,1307.69
					l-2.76-6.03c-9.99-21.87-1.96-47.76,18.66-60.13l2.34-1.41c20.63-12.38,47.27-7.27,61.86,11.86l3.99,5.24
					c1.93,2.53,1.23,6.18-1.5,7.81l0,0c-2.33,1.4-5.34,0.82-6.99-1.34l-3.9-5.11c-11.39-14.94-32.2-18.93-48.31-9.26l-1.83,1.1
					c-16.1,9.66-22.37,29.88-14.57,46.95l2.69,5.89c1.13,2.47,0.22,5.39-2.11,6.79l0,0C942.2,1311.68,938.66,1310.58,937.34,1307.69
					z"></path>
			</g>
			<g>
				<path style="fill:none;stroke:#000000;stroke-linecap:round;stroke-linejoin:round;stroke-miterlimit:10;" d="M1106.75,1403.4
					l29.61-5.02c18.52-3.14,31.73-19.71,30.65-38.47l-0.12-2.13c-1.07-18.75-16.05-33.69-34.8-34.72l-30.02-1.65L1106.75,1403.4z"></path>
				<path style="fill:none;stroke:#000000;stroke-linecap:round;stroke-linejoin:round;stroke-miterlimit:10;" d="M1126.21,1312.06
					l6.62,0.36c24.01,1.32,43.19,20.46,44.57,44.47l0.16,2.73c1.37,24.02-15.53,45.24-39.26,49.26l-6.49,1.1
					c-3.14,0.53-6.04-1.78-6.22-4.96l0,0c-0.16-2.71,1.76-5.11,4.44-5.57l6.34-1.08c18.52-3.14,31.73-19.71,30.65-38.47l-0.12-2.13
					c-1.07-18.75-16.05-33.69-34.8-34.72l-6.47-0.35c-2.71-0.15-4.88-2.31-5.03-5.02l0,0
					C1120.41,1314.51,1123.03,1311.88,1126.21,1312.06z"></path>
			</g>
			
				<circle style="fill:#FFFFFF;stroke:#000000;stroke-linecap:round;stroke-linejoin:round;stroke-miterlimit:10;" cx="1030.54" cy="1367.27" r="84.91"></circle>
		</g>
		<g>
			<path style="fill:none;stroke:#000000;stroke-linecap:round;stroke-linejoin:round;stroke-miterlimit:10;" d="M1064.76,1408.21
				l-4.04-5.25c-0.36,0.39-0.74,0.77-1.18,1.11c-0.44,0.34-0.9,0.61-1.37,0.85l4.04,5.25c0.31,0.41,0.9,0.48,1.31,0.17l1.07-0.82
				C1065,1409.2,1065.07,1408.62,1064.76,1408.21z"></path>
			
				<circle style="fill:none;stroke:#000000;stroke-linecap:round;stroke-linejoin:round;stroke-miterlimit:10;" cx="1054.04" cy="1396.9" r="9.04"></circle>
		</g>
		<g>
			<g>
				
					<circle style="fill:none;stroke:#000000;stroke-linecap:round;stroke-linejoin:round;stroke-miterlimit:10;" cx="1007.96" cy="1407.57" r="17.18"></circle>
			</g>
			<g>
				
					<circle style="fill:none;stroke:#000000;stroke-linecap:round;stroke-linejoin:round;stroke-miterlimit:10;" cx="1007.96" cy="1407.57" r="9.78"></circle>
			</g>
			<g>
				
					<ellipse transform="matrix(0.4463 -0.8949 0.8949 0.4463 -687.4992 1715.3508)" style="fill:none;stroke:#000000;stroke-linecap:round;stroke-linejoin:round;stroke-miterlimit:10;" cx="1042.38" cy="1413.23" rx="4.33" ry="2.66"></ellipse>
				
					<line style="fill:none;stroke:#000000;stroke-linecap:round;stroke-linejoin:round;stroke-miterlimit:10;" x1="1040.45" y1="1417.1" x2="1032" y2="1434.04"></line>
			</g>
			<g>
				<path style="fill:none;stroke:#000000;stroke-linecap:round;stroke-linejoin:round;stroke-miterlimit:10;" d="M989.39,1381.97
					l-1.93,3.87c-1.07,2.14-0.86,4.4,0.45,5.06s3.25-0.55,4.31-2.68l1.93-3.87"></path>
				
					<line style="fill:none;stroke:#000000;stroke-linecap:round;stroke-linejoin:round;stroke-miterlimit:10;" x1="987.91" y1="1390.9" x2="979.47" y2="1407.83"></line>
			</g>
			
				<line style="fill:none;stroke:#000000;stroke-linecap:round;stroke-linejoin:round;stroke-miterlimit:10;" x1="991.77" y1="1383.15" x2="987.91" y2="1390.9"></line>
			<g>
				<path style="fill:none;stroke:#000000;stroke-linecap:round;stroke-linejoin:round;stroke-miterlimit:10;" d="M1031.3,1420.75
					l-3.7-1.84l7.14-14.32l0,0c2.04,1.02,2.87,3.5,1.85,5.54L1031.3,1420.75z"></path>
				<path style="fill:none;stroke:#000000;stroke-linecap:round;stroke-linejoin:round;stroke-miterlimit:10;" d="M1024.29,1430.19
					L1024.29,1430.19c-1.02-0.51-1.44-1.75-0.93-2.77l4.24-8.51l3.7,1.84l-4.24,8.51
					C1026.55,1430.28,1025.31,1430.7,1024.29,1430.19z"></path>
			</g>
		</g>
		<g>
			
				<circle style="fill:none;stroke:#000000;stroke-linecap:round;stroke-linejoin:round;stroke-miterlimit:10;" cx="1036.6" cy="1353.02" r="23.47"></circle>
			
				<circle style="fill:none;stroke:#000000;stroke-linecap:round;stroke-linejoin:round;stroke-miterlimit:10;" cx="1043.64" cy="1342.48" r="6.74"></circle>
			
				<circle style="fill:none;stroke:#000000;stroke-linecap:round;stroke-linejoin:round;stroke-miterlimit:10;" cx="1031.19" cy="1347.73" r="6.74"></circle>
			
				<circle style="fill:none;stroke:#000000;stroke-linecap:round;stroke-linejoin:round;stroke-miterlimit:10;" cx="1041.52" cy="1356.4" r="6.74"></circle>
			<path style="fill:none;stroke:#000000;stroke-linecap:round;stroke-linejoin:round;stroke-miterlimit:10;" d="M1048.07,1365.6
				l-0.4-1.48l-5.66,1.77c-11.84-0.16-15.87-8.87-18.55-13.48c-0.62-1.07-2.26-0.65-2.31,0.58c-0.17,4.36,0.57,11.03,5.85,14.98
				c6.05,4.51,12.25,1.5,15.2-0.51L1048.07,1365.6z"></path>
		</g>
	</g>
	<g>
		<g>
			<g>
				<g>
					
						<rect x="1346.58" y="394.1" style="fill:none;stroke:#000000;stroke-linecap:round;stroke-linejoin:round;stroke-miterlimit:10;" width="327.94" height="14.55"></rect>
					
						<rect x="1346.58" y="408.65" style="fill:none;stroke:#000000;stroke-linecap:round;stroke-linejoin:round;stroke-miterlimit:10;" width="327.94" height="415.96"></rect>
					<path style="fill:none;stroke:#000000;stroke-linecap:round;stroke-linejoin:round;stroke-miterlimit:10;" d="M1504.38,483.47
						l12.34,0l0-35.82c0-10.71,8.68-19.4,19.39-19.4l92.13,0c10.71,0,19.4,8.68,19.4,19.39l0,35.82l12.34,0l0-62.7
						c0-2.68-2.17-4.85-4.85-4.85l-289.15,0c-2.68,0-4.85,2.17-4.85,4.85l0,62.7l12.34,0l0-35.82c0-10.71,8.68-19.4,19.39-19.4
						l92.13,0c10.71,0,19.39,8.68,19.4,19.39L1504.38,483.47z"></path>
					<path style="fill:none;stroke:#000000;stroke-linecap:round;stroke-linejoin:round;stroke-miterlimit:10;" d="M1365.98,812.48
						l289.15,0c2.68,0,4.85-2.17,4.85-4.85l0-324.16l-298.85,0l0,324.16C1361.13,810.31,1363.3,812.48,1365.98,812.48z"></path>
				</g>
			</g>
			
				<rect x="1666.34" y="402.28" transform="matrix(-5.026777e-07 -1 1 -5.026777e-07 1272.2443 2158.8433)" style="fill:none;stroke:#000000;stroke-linecap:round;stroke-linejoin:round;stroke-miterlimit:10;" width="98.4" height="82.04"></rect>
			
				<rect x="1256.36" y="402.28" transform="matrix(-5.026772e-07 -1 1 -5.026772e-07 862.2612 1748.8607)" style="fill:none;stroke:#000000;stroke-linecap:round;stroke-linejoin:round;stroke-miterlimit:10;" width="98.4" height="82.04"></rect>
		</g>
		<g>
			<g>
				
					<circle style="fill:#FFFFFF;stroke:#000000;stroke-linecap:round;stroke-linejoin:round;stroke-miterlimit:10;" cx="1303.56" cy="442.39" r="30.69"></circle>
				
					<circle style="fill:#FFFFFF;stroke:#000000;stroke-linecap:round;stroke-linejoin:round;stroke-miterlimit:10;" cx="1303.56" cy="442.39" r="10.95"></circle>
			</g>
			
				<line style="fill:#FFFFFF;stroke:#000000;stroke-linecap:round;stroke-linejoin:round;stroke-miterlimit:10;" x1="1303.56" y1="431.44" x2="1303.56" y2="453.34"></line>
			
				<line style="fill:#FFFFFF;stroke:#000000;stroke-linecap:round;stroke-linejoin:round;stroke-miterlimit:10;" x1="1314.51" y1="442.39" x2="1292.62" y2="442.39"></line>
		</g>
		<g>
			<g>
				
					<circle style="fill:#FFFFFF;stroke:#000000;stroke-linecap:round;stroke-linejoin:round;stroke-miterlimit:10;" cx="1719.91" cy="442.39" r="30.69"></circle>
				
					<circle style="fill:#FFFFFF;stroke:#000000;stroke-linecap:round;stroke-linejoin:round;stroke-miterlimit:10;" cx="1719.91" cy="442.39" r="10.95"></circle>
			</g>
			
				<line style="fill:#FFFFFF;stroke:#000000;stroke-linecap:round;stroke-linejoin:round;stroke-miterlimit:10;" x1="1719.91" y1="431.44" x2="1719.91" y2="453.34"></line>
			
				<line style="fill:#FFFFFF;stroke:#000000;stroke-linecap:round;stroke-linejoin:round;stroke-miterlimit:10;" x1="1730.86" y1="442.39" x2="1708.96" y2="442.39"></line>
		</g>
	</g>
	<g>
		<g>
			<g>
				
					<rect x="1532.65" y="900.03" transform="matrix(-5.131758e-05 -1 1 -5.131758e-05 519.4159 2559.8628)" style="fill:none;stroke:#000000;stroke-linecap:round;stroke-linejoin:round;stroke-miterlimit:10;" width="13.84" height="240.41"></rect>
				<polygon style="fill:none;stroke:#000000;stroke-linecap:round;stroke-linejoin:round;stroke-miterlimit:10;" points="
					1634.77,999.47 1659.78,1013.31 1419.37,1013.32 1444.38,999.48 				"></polygon>
			</g>
		</g>
		<g>
			
				<rect x="1507.23" y="891.46" transform="matrix(3.961617e-05 1 -1 3.961617e-05 2569.1458 -507.7959)" style="fill:none;stroke:#000000;stroke-linecap:round;stroke-linejoin:round;stroke-miterlimit:10;" width="62.5" height="278.53"></rect>
		</g>
	</g>
	<g>
		<g>
			
				<rect x="798.04" y="394.66" style="fill:none;stroke:#000000;stroke-linecap:round;stroke-linejoin:round;stroke-miterlimit:10;" width="342.13" height="118.03"></rect>
			
				<line style="fill:none;stroke:#000000;stroke-linecap:round;stroke-linejoin:round;stroke-miterlimit:10;" x1="798.04" y1="505.58" x2="1140.15" y2="505.65"></line>
		</g>
		
			<line style="fill:none;stroke:#000000;stroke-linecap:round;stroke-linejoin:round;stroke-miterlimit:10;" x1="1026.64" y1="512.69" x2="1026.64" y2="394.77"></line>
		
			<line style="fill:none;stroke:#000000;stroke-linecap:round;stroke-linejoin:round;stroke-miterlimit:10;" x1="913.11" y1="512.69" x2="913.11" y2="394.56"></line>
	</g>
	<g>
		<g>
			
				<rect x="313.28" y="800.73" style="fill:none;stroke:#000000;stroke-linecap:round;stroke-linejoin:round;stroke-miterlimit:10;" width="118.03" height="167.83"></rect>
			
				<line style="fill:none;stroke:#000000;stroke-linecap:round;stroke-linejoin:round;stroke-miterlimit:10;" x1="424.19" y1="968.56" x2="424.27" y2="800.74"></line>
		</g>
	</g>
	<g>
		<path style="fill:none;stroke:#000000;stroke-linecap:round;stroke-linejoin:round;stroke-miterlimit:10;" d="M1714.65,1087.79
			c-1.63,1.09-3.15,2.32-4.55,3.67"></path>
		<path style="fill:none;stroke:#000000;stroke-linecap:round;stroke-linejoin:round;stroke-miterlimit:10;" d="M1764.56,1103.4
			c-2.48-6.32-6.81-11.65-12.25-15.39"></path>
		<path style="fill:none;stroke:#000000;stroke-linecap:round;stroke-linejoin:round;stroke-miterlimit:10;" d="M1761.87,1133.36
			c2.22-3.59,3.78-7.6,4.52-11.87"></path>
		<path style="fill:none;stroke:#000000;stroke-linecap:round;stroke-linejoin:round;stroke-miterlimit:10;" d="M1742.1,1148.12
			c1.4-0.38,2.77-0.85,4.09-1.39"></path>
		<path style="fill:none;stroke:#000000;stroke-linecap:round;stroke-linejoin:round;stroke-miterlimit:10;" d="M1723.21,1147.75
			c1.68,0.53,3.41,0.93,5.18,1.19"></path>
		<path style="fill:none;stroke:#000000;stroke-linecap:round;stroke-linejoin:round;stroke-miterlimit:10;" d="M1700.96,1124.79
			c1,3.56,2.55,6.86,4.56,9.81"></path>
		<path style="fill:none;stroke:#000000;stroke-linecap:round;stroke-linejoin:round;stroke-miterlimit:10;" d="M1701.95,1103.71
			c-0.82,2.13-1.43,4.35-1.8,6.65"></path>
		<path style="fill:none;stroke:#000000;stroke-linecap:round;stroke-linejoin:round;stroke-miterlimit:10;" d="M1712.4,1097.39
			c-0.95-4.88-4.08-9.96-9.06-13.78c-6.88-5.28-15.19-6.61-20.92-3.92c-1.12,6.24,2.31,13.92,9.19,19.2
			c6.17,4.73,13.48,6.29,19.06,4.63c0.19-0.06,0.34-0.16,0.51-0.25"></path>
		<path style="fill:none;stroke:#000000;stroke-linecap:round;stroke-linejoin:round;stroke-miterlimit:10;" d="M1704.34,1108.4
			c0.37-1.48,0.86-2.91,1.44-4.3"></path>
		<path style="fill:none;stroke:#000000;stroke-linecap:round;stroke-linejoin:round;stroke-miterlimit:10;" d="M1709.26,1133.42
			c-2.11-2.86-3.73-6.13-4.72-9.68"></path>
		<path style="fill:none;stroke:#000000;stroke-linecap:round;stroke-linejoin:round;stroke-miterlimit:10;" d="M1730.97,1145.47
			c-1.32-0.1-2.61-0.29-3.88-0.56"></path>
		<path style="fill:none;stroke:#000000;stroke-linecap:round;stroke-linejoin:round;stroke-miterlimit:10;" d="M1743.81,1143.65
			c-1.14,0.43-2.31,0.79-3.51,1.08"></path>
		<path style="fill:none;stroke:#000000;stroke-linecap:round;stroke-linejoin:round;stroke-miterlimit:10;" d="M1762.51,1121.91
			c-0.81,3.83-2.37,7.41-4.52,10.58"></path>
		<path style="fill:none;stroke:#000000;stroke-linecap:round;stroke-linejoin:round;stroke-miterlimit:10;" d="M1751.44,1091.99
			c3.58,2.74,6.54,6.28,8.59,10.39"></path>
		<path style="fill:none;stroke:#000000;stroke-linecap:round;stroke-linejoin:round;stroke-miterlimit:10;" d="M1711.88,1094.9
			c0.96-0.99,1.99-1.91,3.08-2.76"></path>
		<path style="fill:none;stroke:#000000;stroke-linecap:round;stroke-linejoin:round;stroke-miterlimit:10;" d="M1735.95,1106.23
			c0.79,0.97,2.11,1.32,3.28,0.88c5.44-2.07,10.3-7.76,12.31-15.27c2.24-8.38,0.29-16.56-4.39-20.83
			c-6.19,1.35-11.97,7.47-14.22,15.84C1730.91,1094.36,1732.27,1101.71,1735.95,1106.23z"></path>
		<path style="fill:none;stroke:#000000;stroke-linecap:round;stroke-linejoin:round;stroke-miterlimit:10;" d="M1735.71,1133.59
			c0.48,0.36,1.14,0.38,1.64,0.04c2.32-1.59,3.96-4.81,4.05-8.56c0.11-4.19-1.73-7.81-4.42-9.28c-2.75,1.34-4.78,4.86-4.89,9.04
			C1732,1128.58,1733.47,1131.88,1735.71,1133.59z"></path>
		
			<line style="fill:none;stroke:#000000;stroke-linecap:round;stroke-linejoin:round;stroke-miterlimit:10;" x1="1736.32" y1="1136.56" x2="1736.98" y2="1115.78"></line>
		<path style="fill:none;stroke:#000000;stroke-linecap:round;stroke-linejoin:round;stroke-miterlimit:10;" d="M1742.29,1136.51
			c-0.92,0.77-1.25,2.06-0.8,3.18c2.08,5.23,7.64,9.83,14.92,11.67c8.12,2.05,15.99,0.05,20.05-4.53
			c-1.39-5.96-7.38-11.46-15.49-13.51C1753.68,1131.48,1746.6,1132.89,1742.29,1136.51z"></path>
		
			<line style="fill:none;stroke:#000000;stroke-linecap:round;stroke-linejoin:round;stroke-miterlimit:10;" x1="1736.21" y1="1136.4" x2="1776.45" y2="1146.82"></line>
		<path style="fill:none;stroke:#000000;stroke-linecap:round;stroke-linejoin:round;stroke-miterlimit:10;" d="M1737.62,1142.57
			c-0.99-0.75-2.37-0.78-3.39-0.07c-4.79,3.31-8.15,10-8.31,17.77c-0.18,8.67,3.67,16.15,9.24,19.18
			c5.69-2.79,9.84-10.11,10.02-18.78C1745.34,1152.89,1742.27,1146.07,1737.62,1142.57z"></path>
		
			<line style="fill:none;stroke:#000000;stroke-linecap:round;stroke-linejoin:round;stroke-miterlimit:10;" x1="1736.32" y1="1136.4" x2="1735.16" y2="1179.44"></line>
		
			<line style="fill:none;stroke:#000000;stroke-linecap:round;stroke-linejoin:round;stroke-miterlimit:10;" x1="1736.32" y1="1136.4" x2="1694.57" y2="1146.95"></line>
		<path style="fill:none;stroke:#000000;stroke-linecap:round;stroke-linejoin:round;stroke-miterlimit:10;" d="M1713.82,1109.39
			c-0.05-0.85-0.65-1.57-1.47-1.79c-3.85-1.01-8.8,0.23-12.89,3.61c-4.57,3.77-6.73,9.09-5.81,13.31c3.98,1.7,9.61,0.6,14.18-3.17
			C1711.91,1117.98,1714.07,1113.36,1713.82,1109.39z"></path>
		
			<line style="fill:none;stroke:#000000;stroke-linecap:round;stroke-linejoin:round;stroke-miterlimit:10;" x1="1714.45" y1="1107.36" x2="1693.64" y2="1124.53"></line>
		
			<line style="fill:none;stroke:#000000;stroke-linecap:round;stroke-linejoin:round;stroke-miterlimit:10;" x1="1710.59" y1="1101.68" x2="1682.42" y2="1079.69"></line>
		
			<line style="fill:none;stroke:#000000;stroke-linecap:round;stroke-linejoin:round;stroke-miterlimit:10;" x1="1720.25" y1="1097.31" x2="1732.63" y2="1066.24"></line>
		<path style="fill:none;stroke:#000000;stroke-linecap:round;stroke-linejoin:round;stroke-miterlimit:10;" d="M1719.79,1132.15
			c-1.58,0.28-3.11,0.27-4.51-0.05c-1.56,0.12-3.15,0.35-4.75,0.77c-8.39,2.18-14.55,7.91-15.96,14.09
			c4.23,4.72,12.4,6.74,20.79,4.56c7.52-1.95,13.25-6.76,15.37-12.18c0.45-1.16,0.11-2.49-0.85-3.28
			C1727.3,1133.9,1723.75,1132.56,1719.79,1132.15z"></path>
		
			<line style="fill:none;stroke:#000000;stroke-linecap:round;stroke-linejoin:round;stroke-miterlimit:10;" x1="1735.67" y1="1112.21" x2="1714.23" y2="1131.82"></line>
		
			<line style="fill:none;stroke:#000000;stroke-linecap:round;stroke-linejoin:round;stroke-miterlimit:10;" x1="1735.88" y1="1112.49" x2="1710.02" y2="1098.54"></line>
		<path style="fill:none;stroke:#000000;stroke-linecap:round;stroke-linejoin:round;stroke-miterlimit:10;" d="M1732.93,1086.85
			c0.77-2.87,1.98-5.45,3.45-7.69c0.3-5.11-1.02-9.79-3.74-12.93c-6.31,0.61-12.77,6-15.99,14.05c-2.33,5.83-2.43,11.79-0.76,16.47
			c2.74-0.12,5.78,0.53,8.66,2.06c0.19,0.1,0.33,0.24,0.52,0.35c2.65-1.63,5.05-4.08,7.01-7.09
			C1732.18,1090.36,1732.45,1088.61,1732.93,1086.85z"></path>
		
			<line style="fill:none;stroke:#000000;stroke-linecap:round;stroke-linejoin:round;stroke-miterlimit:10;" x1="1735.75" y1="1112.53" x2="1747.14" y2="1071.01"></line>
		<path style="fill:none;stroke:#000000;stroke-linecap:round;stroke-linejoin:round;stroke-miterlimit:10;" d="M1741.86,1111.02
			c-0.72,1.02-0.7,2.39,0.04,3.39c3.47,4.68,10.26,7.81,18.03,7.71c8.67-0.11,16.02-4.2,18.86-9.87c-2.98-5.59-10.43-9.5-19.1-9.39
			C1751.92,1102.95,1745.21,1106.25,1741.86,1111.02z"></path>
		
			<line style="fill:none;stroke:#000000;stroke-linecap:round;stroke-linejoin:round;stroke-miterlimit:10;" x1="1735.75" y1="1112.53" x2="1778.8" y2="1112.25"></line>
		<path style="fill:none;stroke:#000000;stroke-linecap:round;stroke-linejoin:round;stroke-miterlimit:10;" d="M1731.73,1111.39
			c0.76-0.37,1.2-1.2,1.09-2.04c-0.54-3.94-3.58-8.04-8.27-10.53c-5.23-2.78-10.97-2.74-14.53-0.27c-0.05,4.33,3.13,9.11,8.36,11.88
			C1723.06,1112.92,1728.16,1113.14,1731.73,1111.39z"></path>
		<path style="fill:none;stroke:#000000;stroke-linecap:round;stroke-linejoin:round;stroke-miterlimit:10;" d="M1733.29,1115.73
			c-0.1-0.83-0.73-1.51-1.55-1.68c-3.85-0.77-8.67,0.73-12.52,4.29c-4.29,3.98-6.13,9.35-4.99,13.47c4.02,1.45,9.52,0.04,13.82-3.93
			C1731.89,1124.32,1733.76,1119.64,1733.29,1115.73z"></path>
	</g>
	<g>
		<path style="fill:none;stroke:#000000;stroke-linecap:round;stroke-linejoin:round;stroke-miterlimit:10;" d="M1719.52,943.53
			c-1.92,1.31-4.01,2.36-6.22,3.1"></path>
		<g>
			<path style="fill:none;stroke:#000000;stroke-linecap:round;stroke-linejoin:round;stroke-miterlimit:10;" d="M1691.9,901.91
				c1.94-1.24,4.04-2.22,6.26-2.89"></path>
			<g>
				<g>
					<g>
						<path style="fill:none;stroke:#000000;stroke-linecap:round;stroke-linejoin:round;stroke-miterlimit:10;" d="M1707.28,920.96
							c2-1.91,2.87-4.72,2.25-7.42c-1.36-5.92-4.29-17.04-9.28-28.48c-0.39-0.88-1.71-0.68-1.78,0.29
							c-0.81,11.86,0.12,22.78,0.87,29.01"></path>
						<path style="fill:none;stroke:#000000;stroke-linecap:round;stroke-linejoin:round;stroke-miterlimit:10;" d="M1704.38,923.84
							c-2.26,2.34-3.16,5.66-2.35,8.81c1.52,5.92,4.51,16.24,9.28,27.07c0.39,0.89,1.72,0.66,1.78-0.31
							c0.79-11.87-0.26-22.56-1.09-28.57c-2.77-1.28-4.86-3.67-5.69-6.62"></path>
					</g>
					<path style="fill:none;stroke:#000000;stroke-linecap:round;stroke-linejoin:round;stroke-miterlimit:10;" d="M1671.97,905.54
						c11.89,2.4,21.5,6.15,26.53,8.35c2.42,1.06,4.4,2.91,5.62,5.26l1.18,2.29c0.26,0.5,0.02,1.11-0.51,1.29l-2,0.71
						c-3.23,1.14-6.78,0.78-9.72-0.97c-4.94-2.94-13.14-8.18-21.86-15.32C1670.47,906.56,1671.03,905.35,1671.97,905.54z
						 M1740.35,937.61c-9.14-7.39-18.23-12.77-23.52-15.66c-2.89-1.57-6.33-1.68-9.32-0.33l-0.99,0.45
						c-0.42,0.19-0.63,0.65-0.51,1.1l0.3,1.06c0.89,3.12,3.15,5.66,6.16,6.87c5.59,2.24,15.55,5.83,27.12,8.15
						C1740.52,939.42,1741.09,938.21,1740.35,937.61z"></path>
					<g>
						<path style="fill:none;stroke:#000000;stroke-linecap:round;stroke-linejoin:round;stroke-miterlimit:10;" d="M1700.58,923.97
							c-1.33,0.69-2.46,1.71-3.24,3.02c-2.8,4.66-8.29,14.59-12.41,26.9c-0.3,0.9,0.83,1.62,1.52,0.96
							c7.12-6.83,12.83-13.61,16.6-18.42c-0.39-1.38-0.74-2.67-1.02-3.77c-0.81-3.15,0.09-6.47,2.35-8.81l0.88-0.92"></path>
						<path style="fill:none;stroke:#000000;stroke-linecap:round;stroke-linejoin:round;stroke-miterlimit:10;" d="M1706.51,922.06
							l0.99-0.45c1.55-0.7,3.21-0.99,4.86-0.9c1.19-0.77,2.19-1.81,2.87-3.09c2.73-5.15,7.57-15,11.41-26.72
							c0.3-0.91-0.84-1.62-1.52-0.95c-7.34,7.13-13.02,14.42-16.6,19.45c0.4,1.55,0.75,2.97,1.02,4.15
							c0.62,2.69-0.25,5.51-2.25,7.42l-1.04,0.99"></path>
					</g>
					<g>
						<path style="fill:none;stroke:#000000;stroke-linecap:round;stroke-linejoin:round;stroke-miterlimit:10;" d="M1709.91,920.87
							c0.81-0.15,1.64-0.2,2.46-0.16l0,0C1711.54,920.67,1710.72,920.72,1709.91,920.87z"></path>
						<path style="fill:none;stroke:#000000;stroke-linecap:round;stroke-linejoin:round;stroke-miterlimit:10;" d="M1715.23,917.62
							c-0.68,1.29-1.68,2.33-2.87,3.09c1.54,0.08,3.07,0.48,4.46,1.24c0.63,0.35,1.33,0.73,2.07,1.15
							c6.61-2.71,15.14-6.59,23.04-11.4c0.83-0.5,0.44-1.8-0.53-1.72c-8.75,0.67-17.46,2.34-24.27,3.93
							C1716.43,915.3,1715.78,916.58,1715.23,917.62z"></path>
						<path style="fill:none;stroke:#000000;stroke-linecap:round;stroke-linejoin:round;stroke-miterlimit:10;" d="M1709.89,920.87
							c-0.82,0.15-1.62,0.4-2.39,0.74C1708.28,921.26,1709.08,921.02,1709.89,920.87z"></path>
						<path style="fill:none;stroke:#000000;stroke-linecap:round;stroke-linejoin:round;stroke-miterlimit:10;" d="M1692.12,921.91
							c-6.53,2.69-14.8,6.5-22.48,11.17c-0.83,0.5-0.44,1.8,0.53,1.72c9.07-0.7,18.13-2.47,25.04-4.11c0.8-1.44,1.54-2.72,2.13-3.71
							"></path>
						<path style="fill:none;stroke:#000000;stroke-linecap:round;stroke-linejoin:round;stroke-miterlimit:10;" d="M1709.91,920.87
							c0,0-0.01,0-0.01,0C1709.9,920.87,1709.9,920.87,1709.91,920.87z"></path>
					</g>
				</g>
				<g>
					
						<line style="fill:none;stroke:#000000;stroke-linecap:round;stroke-linejoin:round;stroke-miterlimit:10;" x1="1712" y1="930.83" x2="1712" y2="930.83"></line>
					<path style="fill:none;stroke:#000000;stroke-linecap:round;stroke-linejoin:round;stroke-miterlimit:10;" d="M1738.87,956.76
						c1.03,0.62,2.22-0.58,1.59-1.61c-4.09-6.69-9.44-13.87-13.5-19.05c-6.04-1.78-11.09-3.65-14.5-5.02
						c-0.17-0.07-0.31-0.18-0.47-0.25c0.26,1.92,0.55,4.35,0.79,7.11C1718.77,943.03,1727.91,950.2,1738.87,956.76z"></path>
					<path style="fill:none;stroke:#000000;stroke-linecap:round;stroke-linejoin:round;stroke-miterlimit:10;" d="M1684.02,933
						c-4.97,4.76-10.76,10.84-16.39,18.03c-0.74,0.95,0.3,2.27,1.4,1.78c6.57-2.95,14.74-7.4,20.47-10.61"></path>
					<path style="fill:none;stroke:#000000;stroke-linecap:round;stroke-linejoin:round;stroke-miterlimit:10;" d="M1696.21,944.64
						c-0.29,7.01-0.33,15.5,0.33,24.52c0.09,1.23,1.76,1.51,2.25,0.38c3.41-7.86,5.91-15.48,7.75-22.01"></path>
					<path style="fill:none;stroke:#000000;stroke-linecap:round;stroke-linejoin:round;stroke-miterlimit:10;" d="M1683.58,916.42
						c-7.74,0.57-16.62,1.57-25.34,3.37c-1.2,0.25-1.28,1.95-0.1,2.27c7.9,2.15,15.99,3.62,23.23,4.66"></path>
					<path style="fill:none;stroke:#000000;stroke-linecap:round;stroke-linejoin:round;stroke-miterlimit:10;" d="M1727.61,928.4
						c7.82-0.56,16.87-1.58,25.72-3.41c1.2-0.25,1.28-1.95,0.1-2.27c-7.9-2.15-15.99-3.63-23.23-4.67
						c-4.04,1.97-7.93,3.67-11.31,5.05"></path>
					<path style="fill:none;stroke:#000000;stroke-linecap:round;stroke-linejoin:round;stroke-miterlimit:10;" d="M1728.35,911.63
						c4.75-4.89,10.21-10.92,15.6-17.88c0.74-0.95-0.31-2.28-1.4-1.78c-7.83,3.58-14.79,7.54-20.47,11.12"></path>
					<path style="fill:none;stroke:#000000;stroke-linecap:round;stroke-linejoin:round;stroke-miterlimit:10;" d="M1708.52,909.4"></path>
					<path style="fill:none;stroke:#000000;stroke-linecap:round;stroke-linejoin:round;stroke-miterlimit:10;" d="M1712.79,875.21
						c-3.38,7.77-5.96,15.39-7.89,21.96c1.56,4.63,2.74,8.81,3.62,12.22c1.71-2.41,3.94-5.35,6.56-8.53
						c0.42-7.22,0.59-15.99-0.06-25.24C1714.94,874.41,1713.27,874.09,1712.79,875.21z"></path>
					<path style="fill:none;stroke:#000000;stroke-linecap:round;stroke-linejoin:round;stroke-miterlimit:10;" d="M1698.66,907.3
						c-5.44-4.93-14.44-12.36-25.98-19.29c-1.03-0.62-2.22,0.58-1.6,1.61c4.43,7.35,8.91,13.76,12.79,18.93"></path>
				</g>
			</g>
			<g>
				<path style="fill:none;stroke:#000000;stroke-linecap:round;stroke-linejoin:round;stroke-miterlimit:10;" d="M1733.15,918.5
					c-0.1-0.6-0.24-1.19-0.37-1.78"></path>
				<path style="fill:none;stroke:#000000;stroke-linecap:round;stroke-linejoin:round;stroke-miterlimit:10;" d="M1682.5,906.67
					c-0.29,0.4-0.57,0.81-0.83,1.23"></path>
				<path style="fill:none;stroke:#000000;stroke-linecap:round;stroke-linejoin:round;stroke-miterlimit:10;" d="M1698.19,895.77
					c-3.07,0.82-5.95,2.17-8.56,3.94"></path>
				<path style="fill:none;stroke:#000000;stroke-linecap:round;stroke-linejoin:round;stroke-miterlimit:10;" d="M1717.81,897.73
					c-0.82-0.4-1.67-0.77-2.53-1.09"></path>
				<path style="fill:none;stroke:#000000;stroke-linecap:round;stroke-linejoin:round;stroke-miterlimit:10;" d="M1730.93,911.24
					c-0.24-0.52-0.5-1.02-0.77-1.52"></path>
				<path style="fill:none;stroke:#000000;stroke-linecap:round;stroke-linejoin:round;stroke-miterlimit:10;" d="M1705.61,894.85
					c-0.52,0-1.03-0.01-1.54,0.01"></path>
				<path style="fill:none;stroke:#000000;stroke-linecap:round;stroke-linejoin:round;stroke-miterlimit:10;" d="M1713.34,949.85
					c3.19-0.94,6.17-2.44,8.82-4.41"></path>
				<path style="fill:none;stroke:#000000;stroke-linecap:round;stroke-linejoin:round;stroke-miterlimit:10;" d="M1693.01,948.14
					c0.99,0.48,2.01,0.92,3.06,1.29"></path>
				<path style="fill:none;stroke:#000000;stroke-linecap:round;stroke-linejoin:round;stroke-miterlimit:10;" d="M1728.79,938.48
					c0.35-0.52,0.67-1.06,0.99-1.61"></path>
				<path style="fill:none;stroke:#000000;stroke-linecap:round;stroke-linejoin:round;stroke-miterlimit:10;" d="M1732.16,931.5
					c0.19-0.59,0.36-1.19,0.51-1.81c0.15-0.59,0.24-1.17,0.34-1.76"></path>
				<path style="fill:none;stroke:#000000;stroke-linecap:round;stroke-linejoin:round;stroke-miterlimit:10;" d="M1686.6,943.8
					c0.53,0.48,1.08,0.93,1.65,1.37"></path>
				<path style="fill:none;stroke:#000000;stroke-linecap:round;stroke-linejoin:round;stroke-miterlimit:10;" d="M1677.51,926.13
					c0.09,0.8,0.22,1.6,0.38,2.38"></path>
				<path style="fill:none;stroke:#000000;stroke-linecap:round;stroke-linejoin:round;stroke-miterlimit:10;" d="M1679.05,913.19
					c-0.36,0.96-0.67,1.95-0.92,2.97c-0.06,0.25-0.09,0.49-0.14,0.74"></path>
				<path style="fill:none;stroke:#000000;stroke-linecap:round;stroke-linejoin:round;stroke-miterlimit:10;" d="M1679.49,933.71
					c0.36,0.87,0.77,1.73,1.22,2.56"></path>
				<path style="fill:none;stroke:#000000;stroke-linecap:round;stroke-linejoin:round;stroke-miterlimit:10;" d="M1705.51,951
					c0.76,0,1.52-0.03,2.27-0.1"></path>
			</g>
		</g>
	</g>
	<g>
		<path style="fill:none;stroke:#000000;stroke-linecap:round;stroke-linejoin:round;stroke-miterlimit:10;" d="M1445.02,709.07
			c0.85,0.56,1.7,1.19,2.56,1.9c11.8,9.8,15.08,27.29,7.22,39.97c-0.91,1.47-0.4,3.4,1.11,4.24l0,0c1.4,0.78,3.17,0.35,4.04-0.99
			c8.85-13.55,6.22-31.98-6.49-42.46c-5.53-4.56-12.12-7.09-18.76-7.44l0,0c-9.79-0.49-19.68,3.47-26.42,11.58
			c-3.94,4.74-6.29,10.27-7.11,15.95c-0.82,5.68-0.3,11.78,1.7,17.39"></path>
		<path style="fill:none;stroke:#000000;stroke-linecap:round;stroke-linejoin:round;stroke-miterlimit:10;" d="M1424.1,754.75
			l1.23,3.51c0.65,1.85-0.43,3.86-2.34,4.33l0,0c-1.7,0.42-3.44-0.55-3.97-2.22l-0.19-0.59"></path>
		<path style="fill:none;stroke:#000000;stroke-linecap:round;stroke-linejoin:round;stroke-miterlimit:10;" d="M1421.96,754.43"></path>
		<path style="fill:none;stroke:#000000;stroke-linecap:round;stroke-linejoin:round;stroke-miterlimit:10;" d="M1418.49,758.01"></path>
		<path style="fill:none;stroke:#000000;stroke-linecap:round;stroke-linejoin:round;stroke-miterlimit:10;" d="M1421.71,732.5
			c5.59,3.31,13.31,2,17.29-2.89c-4.29,1.48-9.22,0.72-12.88-2.56c-1.09-0.98-1.98-2.11-2.65-3.34"></path>
		<path style="fill:none;stroke:#000000;stroke-linecap:round;stroke-linejoin:round;stroke-miterlimit:10;" d="M1408.02,742.14"></path>
		<path style="fill:none;stroke:#000000;stroke-linecap:round;stroke-linejoin:round;stroke-miterlimit:10;" d="M1411.86,728.9
			l8.97,3.23c-1.41-0.6,2.62,1.11,5.42,2.31c1.67,0.72,2.41,2.75,2.62,4.56l1.94,14.84c0.09,0.77-0.1,1.5-0.49,2.1
			c-0.51,0.79-1.35,1.36-2.36,1.47c-1.77,0.2-3.38-1.08-3.58-2.85"></path>
		<path style="fill:none;stroke:#000000;stroke-linecap:round;stroke-linejoin:round;stroke-miterlimit:10;" d="M1404.32,754.3
			c1.2,2.98,3.7,5.28,6.78,6.22l4.77,7.07c0.26,0.38,0.84,0.27,0.94-0.18l1.61-7.29c1.54-0.66,2.89-1.67,3.96-2.93
			c0.1-0.12,4.07-5.74,4.16-5.88c0.31-0.52,0.52-1.11,0.61-1.74c0.36-2.55-1.43-4.91-3.98-5.27c-0.05-0.01-0.11-0.01-0.16-0.01
			c-2.51-3.64-7.21-5.61-12.09-4.11c-3.58,1.1-6.37,4.18-7.11,7.85"></path>
		
			<line style="fill:none;stroke:#000000;stroke-linecap:round;stroke-linejoin:round;stroke-miterlimit:10;" x1="1420.41" y1="747.67" x2="1417.58" y2="745.99"></line>
		<polygon style="fill:none;stroke:#000000;stroke-linecap:round;stroke-linejoin:round;stroke-miterlimit:10;" points="
			1423.23,747.53 1425.78,748.19 1425.12,750.75 		"></polygon>
		<path style="fill:none;stroke:#000000;stroke-linecap:round;stroke-linejoin:round;stroke-miterlimit:10;" d="M1408.45,745.02
			c-2.74,1.55-6.26,4.45-8.34,7.29c-0.35,0.48,0.03,1.11,0.6,1.27c1.16,0.31,5.5,1.07,9.26,0.73c0,0-0.56,0.08,0,0"></path>
		<path style="fill:none;stroke:#000000;stroke-linecap:round;stroke-linejoin:round;stroke-miterlimit:10;" d="M1449.45,734.8
			l-3.57-10.7c-0.33,0.55-0.71,1.08-1.13,1.59c-0.82,0.98-1.78,1.76-2.79,2.44l4.31,8.25c0.79,1.51,2.62,2.13,4.16,1.42v0
			c0.47-0.22,0.83-0.55,1.13-0.93C1450.61,736.55,1449.79,735.82,1449.45,734.8z"></path>
		<path style="fill:none;stroke:#000000;stroke-linecap:round;stroke-linejoin:round;stroke-miterlimit:10;" d="M1423.47,723.7
			c0.68,1.23,1.56,2.36,2.65,3.34c5.5,4.94,13.95,4.28,18.63-1.35c0.42-0.51,0.8-1.04,1.13-1.59l3.57,10.7
			c0.52,1.55,2.1,2.53,3.7,2.2c1.85-0.39,2.94-2.26,2.41-4.03l-4.72-15.73c-0.13-0.43-0.44-0.79-0.85-0.97l-2.44-1.12
			c-0.51-2.91-1.52-7.08-7.82-10.17"></path>
	</g>
	<g>
		
			<line style="fill:none;stroke:#000000;stroke-linecap:round;stroke-linejoin:round;stroke-miterlimit:10;" x1="575.53" y1="1485.83" x2="575.46" y2="1391.18"></line>
		<g>
			
				<line style="fill:none;stroke:#000000;stroke-linecap:round;stroke-linejoin:round;stroke-miterlimit:10;" x1="390.5" y1="1264.65" x2="390.58" y2="1485.9"></line>
			<g>
				<g>
					<polygon style="fill:none;stroke:#000000;stroke-linecap:round;stroke-linejoin:round;stroke-miterlimit:10;" points="
						397.75,1265.28 313.52,1265.28 313.52,1605.32 693.51,1605.32 693.51,1391.18 568.42,1391.18 568.42,1478.66 397.75,1478.66 
											"></polygon>
					
						<line style="fill:none;stroke:#000000;stroke-linecap:round;stroke-linejoin:round;stroke-miterlimit:10;" x1="390.58" y1="1485.9" x2="575.53" y2="1485.83"></line>
				</g>
			</g>
		</g>
	</g>
	<g>
		<g>
			<g>
				<path style="fill:none;stroke:#000000;stroke-linecap:round;stroke-linejoin:round;stroke-miterlimit:10;" d="M1712.06,1459.68
					c-0.16,0.03-0.32,0.07-0.48,0.13c-8.48,2.98-17.26,5.3-26.08,6.91c-8.83,1.61-17.86,2.53-26.83,2.73
					c-0.19,0-0.35,0.02-0.51,0.05c-0.85,0.16-1.6,0.68-2.04,1.45c-0.25,0.44-0.62,1.34-0.25,2.45l0.03,0.07
					c5.98,17.04,9.22,34.84,9.63,52.9l0,0.1c0.06,1.16,0.71,1.86,1.1,2.18c0.69,0.56,1.57,0.79,2.43,0.64
					c0.16-0.03,0.32-0.07,0.48-0.13c8.48-2.98,17.26-5.3,26.08-6.91s17.86-2.53,26.83-2.73c0.18,0,0.35-0.02,0.51-0.05
					c0.85-0.16,1.6-0.68,2.04-1.45c0.26-0.44,0.62-1.33,0.25-2.45l-0.03-0.07c-5.98-17.04-9.22-34.84-9.63-52.9l0-0.1
					c-0.06-1.16-0.71-1.86-1.1-2.18C1713.79,1459.75,1712.91,1459.52,1712.06,1459.68z"></path>
			</g>
			<path style="fill:none;stroke:#000000;stroke-linecap:round;stroke-linejoin:round;stroke-miterlimit:10;" d="M1655.89,1473.46
				l-0.02-0.07c-0.37-1.12,0-2.01,0.25-2.45c0.45-0.77,1.19-1.3,2.04-1.45c0.16-0.03,0.32-0.05,0.51-0.05
				c7.89-0.18,15.81-1.01,23.62-2.28c1.29-6.99,2.89-13.94,5.05-20.75l0.02-0.07c0.33-1.13-0.06-2.01-0.33-2.44
				c-0.47-0.75-1.23-1.26-2.09-1.39c-0.16-0.02-0.32-0.04-0.51-0.03c-8.98,0.07-18.02-0.58-26.9-1.91
				c-8.87-1.34-17.71-3.39-26.28-6.11c-0.16-0.05-0.32-0.09-0.48-0.11c-0.86-0.13-1.73,0.13-2.4,0.71
				c-0.38,0.33-1.01,1.05-1.03,2.21l0,0.1c0.14,18.06-2.56,35.95-8.02,53.17l-0.02,0.07c-0.33,1.13,0.06,2.01,0.33,2.44
				c0.47,0.75,1.23,1.26,2.09,1.39c0.16,0.02,0.32,0.04,0.51,0.03c8.98-0.07,18.02,0.58,26.9,1.91c4.54,0.68,9.07,1.57,13.55,2.62
				C1661.07,1490.34,1658.81,1481.81,1655.89,1473.46z"></path>
			<path style="fill:none;stroke:#000000;stroke-linecap:round;stroke-linejoin:round;stroke-miterlimit:10;" d="M1655.89,1473.46
				l-0.02-0.07c-0.37-1.12,0-2.01,0.25-2.45c0.45-0.77,1.19-1.3,2.04-1.45c0.16-0.03,0.32-0.05,0.51-0.05
				c8.97-0.2,18-1.12,26.83-2.73c0.24-0.04,0.49-0.12,0.73-0.16c1.23-6.4,2.71-12.76,4.69-19l0.01-0.02c1.39-4.38-1.9-8.84-6.5-8.81
				h-0.02c-17.64,0.13-35.19-2.51-52-7.84l-0.02-0.01c-4.38-1.39-8.84,1.9-8.81,6.5v0.02c0.13,17.64-2.51,35.19-7.84,52l-0.01,0.02
				c-1.39,4.38,1.9,8.84,6.5,8.81l0.02,0c13.84-0.11,27.62,1.56,41.04,4.84C1661.68,1493.01,1659.27,1483.11,1655.89,1473.46z"></path>
		</g>
		<g>
			<g>
				<path style="fill:none;stroke:#000000;stroke-linecap:round;stroke-linejoin:round;stroke-miterlimit:10;" d="M1333.07,1468.02
					c0.16,0.05,0.31,0.1,0.46,0.17c8.14,3.82,16.63,7.01,25.26,9.5s17.51,4.31,26.42,5.42c0.18,0.02,0.35,0.06,0.5,0.1
					c0.83,0.24,1.52,0.84,1.89,1.65c0.21,0.46,0.48,1.39,0,2.46l-0.03,0.06c-7.66,16.35-12.68,33.74-14.91,51.66l-0.01,0.1
					c-0.17,1.15-0.89,1.78-1.31,2.06c-0.74,0.49-1.64,0.63-2.48,0.39c-0.16-0.04-0.31-0.1-0.46-0.17
					c-8.14-3.82-16.63-7.01-25.26-9.5s-17.51-4.31-26.42-5.42c-0.18-0.02-0.34-0.06-0.5-0.1c-0.83-0.24-1.52-0.84-1.89-1.65
					c-0.21-0.46-0.48-1.39,0-2.46l0.03-0.06c7.66-16.35,12.68-33.74,14.91-51.66l0.01-0.1c0.17-1.15,0.89-1.78,1.31-2.06
					C1331.34,1467.92,1332.24,1467.78,1333.07,1468.02z"></path>
			</g>
			<path style="fill:none;stroke:#000000;stroke-linecap:round;stroke-linejoin:round;stroke-miterlimit:10;" d="M1387.57,1487.39
				l0.03-0.06c0.48-1.07,0.2-2,0-2.46c-0.37-0.81-1.06-1.41-1.89-1.65c-0.15-0.04-0.32-0.08-0.5-0.1
				c-7.84-0.97-15.63-2.6-23.27-4.64c-0.58-7.09-1.47-14.16-2.94-21.16l-0.02-0.07c-0.22-1.15,0.26-1.99,0.57-2.4
				c0.54-0.7,1.35-1.13,2.22-1.17c0.16-0.01,0.33,0,0.51,0.02c8.92,0.97,17.99,1.24,26.96,0.8c8.96-0.44,17.96-1.59,26.76-3.43
				c0.16-0.03,0.33-0.05,0.49-0.06c0.87-0.04,1.71,0.3,2.32,0.95c0.34,0.37,0.9,1.15,0.8,2.3l-0.01,0.1
				c-1.95,17.96-1.07,36.02,2.63,53.7l0.02,0.07c0.22,1.15-0.26,2-0.57,2.4c-0.54,0.7-1.35,1.13-2.22,1.17
				c-0.16,0.01-0.33,0-0.51-0.02c-8.92-0.97-17.99-1.24-26.96-0.8c-4.59,0.22-9.18,0.65-13.75,1.24
				C1380.71,1503.66,1383.81,1495.4,1387.57,1487.39z"></path>
			<path style="fill:none;stroke:#000000;stroke-linecap:round;stroke-linejoin:round;stroke-miterlimit:10;" d="M1387.57,1487.39
				l0.03-0.06c0.48-1.07,0.2-2,0-2.46c-0.37-0.81-1.06-1.41-1.89-1.65c-0.15-0.04-0.32-0.08-0.5-0.1
				c-8.91-1.11-17.79-2.93-26.42-5.42c-0.24-0.07-0.47-0.17-0.71-0.24c-0.58-6.5-1.42-12.97-2.75-19.38l0-0.02
				c-0.94-4.5,2.78-8.6,7.35-8.11l0.02,0c17.54,1.91,35.26,1.04,52.53-2.57l0.02,0c4.5-0.94,8.6,2.78,8.11,7.35l0,0.02
				c-1.91,17.54-1.04,35.26,2.57,52.53l0,0.02c0.94,4.5-2.78,8.6-7.35,8.11l-0.02,0c-13.76-1.5-27.64-1.22-41.32,0.68
				C1379.84,1506.26,1383.23,1496.65,1387.57,1487.39z"></path>
		</g>
		<g>
			<g>
				<path style="fill:none;stroke:#000000;stroke-linecap:round;stroke-linejoin:round;stroke-miterlimit:10;" d="M1438.98,1551.85
					l-137.84,0c-1.34,0-2.43,1.09-2.43,2.43v48.35c0,1.34,1.09,2.43,2.43,2.43l137.84,0c1.34,0,2.43-1.09,2.43-2.43l0-48.35
					C1441.41,1552.94,1440.33,1551.85,1438.98,1551.85z"></path>
				<path style="fill:none;stroke:#000000;stroke-linecap:round;stroke-linejoin:round;stroke-miterlimit:10;" d="M1438.98,1551.85
					l-137.84,0c-1.34,0-2.43-1.09-2.43-2.43l0-130.65c0-1.34,1.09-2.43,2.43-2.43l137.84,0c1.34,0,2.43,1.09,2.43,2.43v130.65
					C1441.41,1550.76,1440.33,1551.85,1438.98,1551.85z"></path>
				<path style="fill:none;stroke:#000000;stroke-linecap:round;stroke-linejoin:round;stroke-miterlimit:10;" d="M1581.69,1551.85
					l-137.84,0c-1.34,0-2.43,1.09-2.43,2.43v48.35c0,1.34,1.09,2.43,2.43,2.43l137.84,0c1.34,0,2.43-1.09,2.43-2.43v-48.35
					C1584.12,1552.94,1583.03,1551.85,1581.69,1551.85z"></path>
				<path style="fill:none;stroke:#000000;stroke-linecap:round;stroke-linejoin:round;stroke-miterlimit:10;" d="M1581.69,1551.85
					l-137.84,0c-1.34,0-2.43-1.09-2.43-2.43v-130.65c0-1.34,1.09-2.43,2.43-2.43l137.84,0c1.34,0,2.43,1.09,2.43,2.43l0,130.65
					C1584.12,1550.76,1583.03,1551.85,1581.69,1551.85z"></path>
				<path style="fill:none;stroke:#000000;stroke-linecap:round;stroke-linejoin:round;stroke-miterlimit:10;" d="M1733.91,1551.85
					l-147.36,0c-1.34,0-2.43,1.09-2.43,2.43l0,48.35c0,1.34,1.09,2.43,2.43,2.43l147.35,0c1.34,0,2.43-1.09,2.43-2.43v-48.35
					C1736.34,1552.94,1735.25,1551.85,1733.91,1551.85z"></path>
				<path style="fill:none;stroke:#000000;stroke-linecap:round;stroke-linejoin:round;stroke-miterlimit:10;" d="M1733.91,1551.85
					l-147.36,0c-1.34,0-2.43-1.09-2.43-2.43l0-255.88c0-1.34,1.09-2.43,2.43-2.43l147.35,0c1.34,0,2.43,1.09,2.43,2.43l0,255.88
					C1736.34,1550.76,1735.25,1551.85,1733.91,1551.85z"></path>
			</g>
		</g>
	</g>
	
		<rect x="742.36" y="1165.1" transform="matrix(-1.836970e-16 1 -1 -1.836970e-16 2001.1257 456.5477)" style="fill:none;stroke:#000000;stroke-linecap:round;stroke-linejoin:round;stroke-miterlimit:10;" width="59.86" height="127.48"></rect>
	
		<rect x="797.98" y="711.01" transform="matrix(-1.836970e-16 1 -1 -1.836970e-16 1724.7723 2.4566)" style="fill:none;stroke:#000000;stroke-linecap:round;stroke-linejoin:round;stroke-miterlimit:10;" width="126.35" height="305.21"></rect>
</g>
<g id="floor">
	<g>
		
			<rect x="1622.41" y="622.21" transform="matrix(-3.832395e-11 -1 1 -3.832395e-11 1164.4404 2522.2146)" style="fill:none;stroke:#000000;stroke-linecap:round;stroke-linejoin:round;stroke-miterlimit:10;" width="441.83" height="113.34"></rect>
		
			<rect x="1654.15" y="670.39" transform="matrix(3.832827e-11 1 -1 3.832827e-11 2553.9524 -1196.1782)" style="fill:none;stroke:#000000;stroke-linecap:round;stroke-linejoin:round;stroke-miterlimit:10;" width="441.83" height="17"></rect>
		
			<rect x="1866.13" y="760.44" transform="matrix(4.457571e-11 1 -1 4.457571e-11 2644.0081 -1106.1227)" style="fill:none;stroke:#000000;stroke-linecap:round;stroke-linejoin:round;stroke-miterlimit:10;" width="17.87" height="17"></rect>
		
			<rect x="1870.27" y="886.5" transform="matrix(4.548343e-11 1 -1 4.548343e-11 2770.071 -980.0598)" style="fill:none;stroke:#000000;stroke-linecap:round;stroke-linejoin:round;stroke-miterlimit:10;" width="9.6" height="17"></rect>
		
			<rect x="1870.27" y="454.27" transform="matrix(4.472582e-11 1 -1 4.472582e-11 2337.834 -1412.2968)" style="fill:none;stroke:#000000;stroke-linecap:round;stroke-linejoin:round;stroke-miterlimit:10;" width="9.6" height="17"></rect>
	</g>
	<g>
		
			<rect x="1622.41" y="1252.43" transform="matrix(-3.832395e-11 -1 1 -3.832395e-11 534.2221 3152.4331)" style="fill:none;stroke:#000000;stroke-linecap:round;stroke-linejoin:round;stroke-miterlimit:10;" width="441.83" height="113.34"></rect>
		
			<rect x="1654.15" y="1300.6" transform="matrix(3.832827e-11 1 -1 3.832827e-11 3184.1709 -565.9599)" style="fill:none;stroke:#000000;stroke-linecap:round;stroke-linejoin:round;stroke-miterlimit:10;" width="441.83" height="17"></rect>
		
			<rect x="1866.13" y="1390.66" transform="matrix(4.457571e-11 1 -1 4.457571e-11 3274.2263 -475.9044)" style="fill:none;stroke:#000000;stroke-linecap:round;stroke-linejoin:round;stroke-miterlimit:10;" width="17.87" height="17"></rect>
		
			<rect x="1870.27" y="1516.72" transform="matrix(4.548343e-11 1 -1 4.548343e-11 3400.2893 -349.8414)" style="fill:none;stroke:#000000;stroke-linecap:round;stroke-linejoin:round;stroke-miterlimit:10;" width="9.6" height="17"></rect>
		
			<rect x="1870.27" y="1084.49" transform="matrix(4.472582e-11 1 -1 4.472582e-11 2968.0525 -782.0784)" style="fill:none;stroke:#000000;stroke-linecap:round;stroke-linejoin:round;stroke-miterlimit:10;" width="9.6" height="17"></rect>
	</g>
	<g>
		<path style="fill:none;stroke:#000000;stroke-linecap:round;stroke-linejoin:round;stroke-miterlimit:10;" d="M294.02,1003.97
			c-106.46,0-194.02,86.13-194.02,192.59h194.02"></path>
		
			<rect x="297.86" y="1192.71" transform="matrix(-2.063274e-06 -1 1 -2.063274e-06 -898.685 1505.8839)" style="fill:none;stroke:#000000;stroke-linecap:round;stroke-linejoin:round;stroke-miterlimit:10;" width="11.47" height="19.15"></rect>
		
			<rect x="297.86" y="988.66" transform="matrix(-2.063279e-06 -1 1 -2.063279e-06 -694.6326 1301.8302)" style="fill:none;stroke:#000000;stroke-linecap:round;stroke-linejoin:round;stroke-miterlimit:10;" width="11.47" height="19.15"></rect>
	</g>
	<g>
		<path style="fill:none;stroke:#000000;stroke-linecap:round;stroke-linejoin:round;stroke-miterlimit:10;" d="M643.43,790.8
			c0,83.05-67.19,151.36-150.24,151.36V790.8"></path>
		
			<rect x="484.24" y="775.86" style="fill:none;stroke:#000000;stroke-linecap:round;stroke-linejoin:round;stroke-miterlimit:10;" width="8.95" height="14.94"></rect>
		
			<rect x="643.43" y="775.86" style="fill:none;stroke:#000000;stroke-linecap:round;stroke-linejoin:round;stroke-miterlimit:10;" width="8.95" height="14.94"></rect>
	</g>
	<g>
		<path style="fill:none;stroke:#000000;stroke-linecap:round;stroke-linejoin:round;stroke-miterlimit:10;" d="M793.35,601.67
			c83.05,0,151.36,67.19,151.36,150.24H793.35"></path>
		
			<rect x="781.41" y="748.91" transform="matrix(2.063365e-06 -1 1 2.063365e-06 29.5 1542.2559)" style="fill:none;stroke:#000000;stroke-linecap:round;stroke-linejoin:round;stroke-miterlimit:10;" width="8.95" height="14.94"></rect>
		
			<rect x="781.41" y="589.72" transform="matrix(2.063367e-06 -1 1 2.063367e-06 188.6874 1383.0695)" style="fill:none;stroke:#000000;stroke-linecap:round;stroke-linejoin:round;stroke-miterlimit:10;" width="8.95" height="14.94"></rect>
	</g>
	<g>
		<path style="fill:none;stroke:#000000;stroke-linecap:round;stroke-linejoin:round;stroke-miterlimit:10;" d="M1346.12,985.91
			c0-93.1-75.32-169.68-168.42-169.68v169.68"></path>
		
			<rect x="1167.67" y="985.91" style="fill:none;stroke:#000000;stroke-linecap:round;stroke-linejoin:round;stroke-miterlimit:10;" width="10.03" height="16.74"></rect>
		
			<rect x="1346.12" y="985.91" style="fill:none;stroke:#000000;stroke-linecap:round;stroke-linejoin:round;stroke-miterlimit:10;" width="10.03" height="16.74"></rect>
	</g>
	
		<line style="fill:none;stroke:#000000;stroke-linecap:round;stroke-linejoin:round;stroke-miterlimit:10;stroke-dasharray:10,10;" x1="1148.57" y1="788.31" x2="1148.57" y2="524.42"></line>
	
		<line style="fill:none;stroke:#000000;stroke-linecap:round;stroke-linejoin:round;stroke-miterlimit:10;stroke-dasharray:10,10;" x1="701.8" y1="1207.44" x2="701.8" y2="931.83"></line>
	
		<line style="fill:none;stroke:#000000;stroke-linecap:round;stroke-linejoin:round;stroke-miterlimit:10;stroke-dasharray:10,10;" x1="390.74" y1="1256.63" x2="578.71" y2="1256.63"></line>
	<g>
		<g id="LWPOLYLINE_409_">
			
				<rect x="710.09" y="1258.76" style="fill:none;stroke:#000000;stroke-linecap:round;stroke-linejoin:round;stroke-miterlimit:10;" width="125.94" height="125.94"></rect>
		</g>
		<g id="LWPOLYLINE_408_">
			
				<line style="fill:none;stroke:#000000;stroke-linecap:round;stroke-linejoin:round;stroke-miterlimit:10;" x1="741.58" y1="1311.24" x2="741.58" y2="1269.26"></line>
		</g>
		<g id="LWPOLYLINE_407_">
			
				<line style="fill:none;stroke:#000000;stroke-linecap:round;stroke-linejoin:round;stroke-miterlimit:10;" x1="762.57" y1="1290.25" x2="720.59" y2="1290.25"></line>
		</g>
		<g id="CIRCLE_305_">
			<path style="fill:none;stroke:#000000;stroke-linecap:round;stroke-linejoin:round;stroke-miterlimit:10;" d="M724.79,1290.25
				c0-9.28,7.52-16.79,16.79-16.79c9.28,0,16.79,7.52,16.79,16.79c0,9.28-7.52,16.79-16.79,16.79
				C732.31,1307.05,724.79,1299.53,724.79,1290.25L724.79,1290.25z"></path>
		</g>
		<g id="LWPOLYLINE_406_">
			
				<line style="fill:none;stroke:#000000;stroke-linecap:round;stroke-linejoin:round;stroke-miterlimit:10;" x1="741.58" y1="1374.21" x2="741.58" y2="1332.23"></line>
		</g>
		<g id="LWPOLYLINE_405_">
			
				<line style="fill:none;stroke:#000000;stroke-linecap:round;stroke-linejoin:round;stroke-miterlimit:10;" x1="762.57" y1="1353.22" x2="720.59" y2="1353.22"></line>
		</g>
		<g id="CIRCLE_304_">
			<path style="fill:none;stroke:#000000;stroke-linecap:round;stroke-linejoin:round;stroke-miterlimit:10;" d="M724.79,1353.23
				c0-9.28,7.52-16.8,16.8-16.8c9.28,0,16.8,7.52,16.8,16.8c0,9.28-7.52,16.8-16.8,16.8
				C732.31,1370.03,724.79,1362.5,724.79,1353.23L724.79,1353.23z"></path>
		</g>
		<g id="LWPOLYLINE_404_">
			
				<line style="fill:none;stroke:#000000;stroke-linecap:round;stroke-linejoin:round;stroke-miterlimit:10;" x1="804.55" y1="1374.21" x2="804.55" y2="1332.23"></line>
		</g>
		<g id="LWPOLYLINE_403_">
			
				<line style="fill:none;stroke:#000000;stroke-linecap:round;stroke-linejoin:round;stroke-miterlimit:10;" x1="825.54" y1="1353.22" x2="783.56" y2="1353.22"></line>
		</g>
		<g id="CIRCLE_303_">
			<path style="fill:none;stroke:#000000;stroke-linecap:round;stroke-linejoin:round;stroke-miterlimit:10;" d="M787.76,1353.23
				c0-9.28,7.52-16.8,16.8-16.8s16.8,7.52,16.8,16.8c0,9.28-7.52,16.8-16.8,16.8S787.76,1362.5,787.76,1353.23L787.76,1353.23z"></path>
		</g>
		<g id="LWPOLYLINE_402_">
			
				<line style="fill:none;stroke:#000000;stroke-linecap:round;stroke-linejoin:round;stroke-miterlimit:10;" x1="804.55" y1="1311.24" x2="804.55" y2="1269.26"></line>
		</g>
		<g id="LWPOLYLINE_401_">
			
				<line style="fill:none;stroke:#000000;stroke-linecap:round;stroke-linejoin:round;stroke-miterlimit:10;" x1="825.54" y1="1290.25" x2="783.56" y2="1290.25"></line>
		</g>
		<g id="CIRCLE_302_">
			<path style="fill:none;stroke:#000000;stroke-linecap:round;stroke-linejoin:round;stroke-miterlimit:10;" d="M787.76,1290.25
				c0-9.28,7.52-16.79,16.79-16.79s16.79,7.52,16.79,16.79c0,9.28-7.52,16.79-16.79,16.79S787.76,1299.53,787.76,1290.25
				L787.76,1290.25z"></path>
		</g>
	</g>
	<g>
		<g id="LWPOLYLINE_400_">
			
				<rect x="710.09" y="1478.95" style="fill:none;stroke:#000000;stroke-linecap:round;stroke-linejoin:round;stroke-miterlimit:10;" width="125.94" height="125.94"></rect>
		</g>
		<g id="LWPOLYLINE_399_">
			<path style="fill:none;stroke:#000000;stroke-linecap:round;stroke-linejoin:round;stroke-miterlimit:10;" d="M818.19,1489.44
				l-79.71,0c-4.06,0-7.35,3.29-7.35,7.34c0,0,0,90.26,0,90.26c0,4.06,3.29,7.35,7.35,7.35c0,0,79.71,0,79.71,0
				c4.06,0,7.34-3.29,7.35-7.34c0,0,0-90.26,0-90.26C825.53,1492.73,822.24,1489.45,818.19,1489.44z"></path>
		</g>
		<g id="LWPOLYLINE_398_">
			<path style="fill:none;stroke:#000000;stroke-linecap:round;stroke-linejoin:round;stroke-miterlimit:10;" d="M758.91,1520.93
				c0-4.07-3.3-7.36-7.36-7.36c-4.07,0-7.36,3.3-7.36,7.36c0,4.07,3.3,7.36,7.36,7.36C755.61,1528.29,758.91,1525,758.91,1520.93z"></path>
		</g>
	</g>
	<g>
		<g id="LWPOLYLINE_462_">
			
				<rect x="567.57" y="1265.03" style="fill:none;stroke:#000000;stroke-linecap:round;stroke-linejoin:round;stroke-miterlimit:10;" width="126.15" height="126.15"></rect>
		</g>
		<g>
			<g id="LWPOLYLINE_461_">
				<polyline style="fill:none;stroke:#000000;stroke-linecap:round;stroke-linejoin:round;stroke-miterlimit:10;" points="
					668.16,1356.93 631.44,1313.18 631.36,1342.81 594.64,1299.07 				"></polyline>
			</g>
			<g id="LWPOLYLINE_460_">
				<path style="fill:none;stroke:#000000;stroke-linecap:round;stroke-linejoin:round;stroke-miterlimit:10;" d="M631.31,1360.92
					c-17.81-0.05-32.2-14.83-32.16-33.01c0.05-18.18,14.52-32.89,32.33-32.84c17.81,0.05,32.21,14.83,32.16,33.01
					C663.6,1346.27,649.12,1360.97,631.31,1360.92z"></path>
			</g>
		</g>
	</g>
	<g>
		<g>
			<g id="LWPOLYLINE_598_">
				<path style="fill:none;stroke:#000000;stroke-linecap:round;stroke-linejoin:round;stroke-miterlimit:10;" d="M485.18,418.74
					l0.15,55.96c0.02,7.88,5.02,14.85,12.37,17.25c26.69,8.7,55.38,8.62,82.03-0.22c7.34-2.44,12.31-9.43,12.29-17.31l-0.14-55.96"></path>
			</g>
			<g id="LWPOLYLINE_597_">
				<path style="fill:none;stroke:#000000;stroke-linecap:round;stroke-linejoin:round;stroke-miterlimit:10;" d="M567.02,434.17
					c5.89-0.02,10.68,4.85,10.7,10.87l0.04,17.44c0.01,3.99-2.53,7.52-6.26,8.7c-21.38,6.75-44.25,6.81-65.67,0.18
					c-3.74-1.16-6.3-4.67-6.31-8.66l-0.04-17.44c-0.02-6.02,4.75-10.91,10.64-10.93"></path>
			</g>
			<g id="LWPOLYLINE_596_">
				<path style="fill:none;stroke:#000000;stroke-linecap:round;stroke-linejoin:round;stroke-miterlimit:10;" d="M492.36,445.27
					l0.08,29.4c0.01,4.73,3.01,8.91,7.42,10.35c25.27,8.24,52.44,8.17,77.67-0.21c4.4-1.47,7.38-5.66,7.37-10.39l-0.08-29.41
					c-0.01-6.02-4.8-10.88-10.7-10.87L503,434.35C497.11,434.36,492.35,439.25,492.36,445.27z"></path>
			</g>
			<g id="LWPOLYLINE_595_">
				<path style="fill:none;stroke:#000000;stroke-linecap:round;stroke-linejoin:round;stroke-miterlimit:10;" d="M538.58,437.49
					c-2.64,0.01-4.78,2.2-4.78,4.9c0.01,2.7,2.16,4.88,4.8,4.87c2.64-0.01,4.78-2.2,4.77-4.9
					C543.37,439.67,541.22,437.49,538.58,437.49z"></path>
			</g>
		</g>
		<g>
			<g id="LWPOLYLINE_594_">
				
					<rect x="326.71" y="418.95" style="fill:none;stroke:#000000;stroke-linecap:round;stroke-linejoin:round;stroke-miterlimit:10;" width="145.04" height="357.26"></rect>
			</g>
			<g id="LWPOLYLINE_593_">
				<path style="fill:none;stroke:#000000;stroke-linecap:round;stroke-linejoin:round;stroke-miterlimit:10;" d="M460.15,727.8
					l0-233.93c0-34.35-27.27-62.19-60.91-62.19c-33.64,0-60.92,27.85-60.92,62.21l0,233.93c-0.01,16.42,12.93,29.78,29,29.97
					l63.82-0.01c16.02,0,29.01-13.27,29.01-29.63"></path>
			</g>
			<g id="LWPOLYLINE_592_">
				<path style="fill:none;stroke:#000000;stroke-linecap:round;stroke-linejoin:round;stroke-miterlimit:10;" d="M443.58,653.85
					l0-159.97c0-25.01-19.86-45.28-44.34-45.28c-24.49,0-44.34,20.28-44.34,45.29l0,157.64c0.02,24.09,18.49,43.95,42.05,45.21
					C421.42,698.04,442.3,678.84,443.58,653.85z"></path>
			</g>
			<g id="LWPOLYLINE_591_">
				<path style="fill:none;stroke:#000000;stroke-linecap:round;stroke-linejoin:round;stroke-miterlimit:10;" d="M399.23,485.59
					c-4.48,0-8.12,3.71-8.12,8.29c0,4.58,3.64,8.29,8.12,8.29c4.49,0,8.12-3.71,8.12-8.29C407.35,489.3,403.72,485.59,399.23,485.59
					z"></path>
			</g>
		</g>
		<g>
			<g id="LWPOLYLINE_590_">
				<path style="fill:none;stroke:#000000;stroke-linecap:round;stroke-linejoin:round;stroke-miterlimit:10;" d="M723.93,489.09
					l-0.01,58.71c0,20.43-16.91,36.99-37.77,36.99c-20.86,0-37.77-16.56-37.78-36.99l0.01-58.71c0-5.11,4.23-9.25,9.44-9.25l56.66,0
					C719.71,479.85,723.93,483.99,723.93,489.09z"></path>
			</g>
			<g id="LWPOLYLINE_589_">
				<path style="fill:none;stroke:#000000;stroke-linecap:round;stroke-linejoin:round;stroke-miterlimit:10;" d="M655.93,547.8
					l0.01-32.84c0-16.34,13.53-29.59,30.21-29.59c16.69,0,30.22,13.25,30.23,29.59l-0.01,32.84c0,16.34-13.53,29.59-30.21,29.59
					C669.47,577.4,655.94,564.15,655.93,547.8z"></path>
			</g>
			<g id="LWPOLYLINE_588_">
				<path style="fill:none;stroke:#000000;stroke-linecap:round;stroke-linejoin:round;stroke-miterlimit:10;" d="M674.82,535.9
					l0.01-24c0-6.13,5.07-11.1,11.33-11.1c6.26,0,11.33,4.97,11.33,11.1l-0.01,24c0,6.13-5.07,11.09-11.33,11.09
					C679.9,547,674.82,542.03,674.82,535.9z"></path>
			</g>
		</g>
	</g>
	<g>
		
			<rect x="1779.92" y="1535.18" transform="matrix(-1.836970e-16 1 -1 -1.836970e-16 3435.1841 -251.4712)" style="fill:#020200;" width="126.82" height="113.34"></rect>
		
			<rect x="1748.87" y="937.59" transform="matrix(-1.836970e-16 1 -1 -1.836970e-16 2837.5862 -849.0689)" style="fill:#020200;" width="188.91" height="113.34"></rect>
		
			<rect x="1786.66" y="345.67" transform="matrix(-1.836970e-16 1 -1 -1.836970e-16 2245.6743 -1440.9808)" style="fill:#020200;" width="113.34" height="113.34"></rect>
		
			<rect x="66.08" y="1406.24" transform="matrix(-1.836970e-16 1 -1 -1.836970e-16 1719.4156 1141.2274)" style="fill:#020200;" width="446.03" height="48.16"></rect>
		
			<rect x="-35.14" y="644.89" transform="matrix(-1.836970e-16 1 -1 -1.836970e-16 958.0667 379.8784)" style="fill:#020200;" width="648.47" height="48.16"></rect>
		
			<rect x="1057.32" y="812.58" transform="matrix(-1.836970e-16 1 -1 -1.836970e-16 2712.5845 547.5683)" style="fill:#020200;" width="50.38" height="1634.98"></rect>
		
			<rect x="1057.26" y="-447.63" transform="matrix(-1.836970e-16 1 -1 -1.836970e-16 1452.3715 -712.5242)" style="fill:#020200;" width="50.38" height="1635.1"></rect>
		
			<rect x="344.24" y="1210.87" transform="matrix(-1.836970e-16 1 -1 -1.836970e-16 1609.2639 903.998)" style="fill:#020200;" width="16.79" height="91.52"></rect>
		
			<rect x="626.49" y="1189.53" transform="matrix(-1.836970e-16 1 -1 -1.836970e-16 1891.514 621.7479)" style="fill:#020200;" width="16.79" height="134.21"></rect>
		
			<rect x="662.16" y="1451.7" transform="matrix(-1.836970e-16 1 -1 -1.836970e-16 2155.9016 816.9614)" style="fill:#020200;" width="14.62" height="69.47"></rect>
		
			<rect x="576.71" y="1538.46" transform="matrix(-1.836970e-16 1 -1 -1.836970e-16 2188.3384 903.7249)" style="fill:#020200;" width="131.19" height="15.14"></rect>
		
			<rect x="490.28" y="1402.14" transform="matrix(-1.836970e-16 1 -1 -1.836970e-16 2112.228 708.6319)" style="fill:#020200;" width="423.04" height="16.58"></rect>
		
			<rect x="618.73" y="855.67" transform="matrix(-1.836970e-16 1 -1 -1.836970e-16 1565.7577 162.1616)" style="fill:#020200;" width="166.14" height="16.58"></rect>
		
			<rect x="383.72" y="700.22" transform="matrix(-1.836970e-16 1 -1 -1.836970e-16 1184.4569 392.1359)" style="fill:#020200;" width="24.87" height="176.16"></rect>
		
			<rect x="712.66" y="715.36" transform="matrix(-1.836970e-16 1 -1 -1.836970e-16 1513.3931 63.1997)" style="fill:#020200;" width="24.87" height="145.88"></rect>
		
			<rect x="110.45" y="567.44" transform="matrix(-1.836970e-16 1 -1 -1.836970e-16 894.1462 270.1367)" style="fill:#020200;" width="403.1" height="29.41"></rect>
		
			<rect x="536.24" y="167.73" transform="matrix(-1.836970e-16 1 -1 -1.836970e-16 955.2738 -148.5877)" style="fill:#020200;" width="31.38" height="471.22"></rect>
		
			<rect x="768.28" y="770.98" transform="matrix(-1.836970e-16 1 -1 -1.836970e-16 1569.016 -7.4309)" style="fill:#020200;" width="39.88" height="19.63"></rect>
		
			<rect x="686.67" y="481.57" transform="matrix(-1.836970e-16 1 -1 -1.836970e-16 1279.6033 -296.8437)" style="fill:#020200;" width="203.11" height="19.63"></rect>
		
			<rect x="687.87" y="380.6" transform="matrix(-1.836970e-16 1 -1 -1.836970e-16 1168.8196 -222.55)" style="fill:#020200;" width="15.64" height="185.08"></rect>
		
			<rect x="572.87" y="435.04" transform="matrix(-1.836970e-16 1 -1 -1.836970e-16 1053.8242 -168.1053)" style="fill:#020200;" width="76.19" height="15.64"></rect>
		
			<rect x="959.29" y="603.06" transform="matrix(-1.836970e-16 1 -1 -1.836970e-16 1760.0231 -175.3492)" style="fill:#020200;" width="16.79" height="378.55"></rect>
		
			<rect x="1075.27" y="450.38" transform="matrix(-1.836970e-16 1 -1 -1.836970e-16 1607.3372 -689.7941)" style="fill:#020200;" width="146.58" height="16.79"></rect>
		
			<rect x="1039.82" y="885.51" transform="matrix(-1.836970e-16 1 -1 -1.836970e-16 2042.4742 -254.657)" style="fill:#020200;" width="217.49" height="16.79"></rect>
		
			<rect x="1145.42" y="980.62" transform="matrix(-1.836970e-16 1 -1 -1.836970e-16 2148.0718 -159.5544)" style="fill:#020200;" width="16.79" height="27.29"></rect>
		
			<rect x="1567.06" y="775.17" transform="matrix(-1.836970e-16 1 -1 -1.836970e-16 2569.7097 -581.1923)" style="fill:#020200;" width="16.79" height="438.17"></rect>
	</g>
</g>
</svg>
