<?xml version="1.0" encoding="utf-8"?>
<!-- Generator: Adobe Illustrator 24.1.2, SVG Export Plug-In . SVG Version: 6.00 Build 0)  -->
<svg version="1.1" id="Layer_1" xmlns="http://www.w3.org/2000/svg" xmlns:xlink="http://www.w3.org/1999/xlink" xmlns:a="http://ns.adobe.com/AdobeSVGViewerExtensions/3.0/" x="0px" y="0px" width="2000px" height="2000px" viewBox="0 0 2000 2000" style="enable-background:new 0 0 2000 2000;" xml:space="preserve">
<path id="background" style="fill:#FFFFFF;" d="M1900.5,1078c0,0.28-0.22,0.5-0.5,0.5h-178.23v9.52c0,0,0,0.01,0,0.01h19.69v470.63
	v5.3v37.32H324.35h-18.88h-33.32V1436.4c-0.28,0-0.5-0.22-0.5-0.5v-349.73c0-0.28,0.22-0.5,0.5-0.5V911.63H218.4
	c-0.17,0-0.31-0.08-0.41-0.21L99.65,781.72c-0.12-0.13-0.16-0.3-0.12-0.46V580.88c-0.01-0.03-0.01-0.06-0.01-0.09
	c-0.01-0.13,0.03-0.28,0.12-0.38l118.39-129.75c0.1-0.11,0.25-0.16,0.38-0.16c0,0,0,0,0.01,0h53.75v-51.74h33.32v-0.04h1435.99v35.7
	v6.92V888.9h-19.69v9.69C1820.47,899.48,1900.5,979.61,1900.5,1078z"></path>
<g id="r1">
	<path id="r1_path" style="fill:none;" d="M847.46,893.12v-0.05l-80.66,0.11l0.05-422.29h183.31v422.23H847.46z"></path>
	<text id="r1_text" transform="matrix(1 0 0 1 828.5437 687.1161)" style="font-family: GraphikLCG-Regular; font-size: 40px; text-anchor: middle; text-align: center;"></text>
</g>
<g id="h1">
	<path id="h1_path" style="fill:none;" d="M1713.17,845.22v262.87l-223.2,0l-0.01-262.87H1713.17z"></path>
	<text id="h1_text" transform="matrix(1 0 0 1 1570.3419 989.4042)" style="font-family: GraphikLCG-Regular; font-size: 40px; text-anchor: middle; text-align: center;"></text>
</g>
<g id="p1">
	<path id="p1_path" style="fill:none;" d="M1662.34,1130.59v262.87l-223.2,0l-0.01-262.87H1662.34z"></path>
	
		<text id="p1_text" transform="matrix(1 0 0 1 1518.9333 1274.7772)" style="font-family: GraphikLCG-Regular; font-size: 40px; text-anchor: middle; text-align: center;"></text>
</g>
<g id="c1">
	<path id="c1_path" style="fill:none;" d="M992.7,1308.17V927.91h248.61v380.26H992.7z"></path>
	
		<text id="c1_text" transform="matrix(1 0 0 1 1080.5291 1122.1522)" style="font-family: GraphikLCG-Regular; font-size: 40px; text-anchor: middle; text-align: center;"></text>
</g>
<g id="s1">
	<path id="s1_path" style="fill:none;" d="M1366.89,801.9V546.03h181.05V801.9H1366.89z"></path>
	<text id="s1_text" transform="matrix(1 0 0 1 1441.7136 690.9296)" style="font-family: GraphikLCG-Regular; font-size: 40px; text-anchor: middle; text-align: center;"></text>
</g>
<g id="g1">
	<path id="g1_path" style="fill:none;" d="M989.4,801.13V522.06h185.32v279.07H989.4z"></path>
	<text id="g1_text" transform="matrix(1 0 0 1 1027.2654 674.3397)" style="font-family: GraphikLCG-Regular; font-size: 40px; text-anchor: middle; text-align: center;"></text>
</g>
<g id="b1">
	<path id="b1_path" style="fill:none;" d="M119.6,759.33l0.04-167.42h134.01V759.3L119.6,759.33z"></path>
	<text id="b1_text" transform="matrix(1 0 0 1 162.0897 696.7665)" style="font-family: GraphikLCG-Regular; font-size: 40px; text-anchor: middle; text-align: center;"></text>
</g>
<path id="u11" style="fill:#FFFFFF;stroke:#FFFFFF;stroke-linecap:round;stroke-linejoin:round;stroke-miterlimit:10;" d="
	M229.44,843.91c-8.75,0-15.84-7.09-15.84-15.84c0-8.75,7.09-15.84,15.84-15.84s15.84,7.09,15.84,15.84
	C245.27,836.82,238.18,843.91,229.44,843.91z"></path>
<path id="u1" style="fill:#FFFFFF;stroke:#FFFFFF;stroke-linecap:round;stroke-linejoin:round;stroke-miterlimit:10;" d="
	M416.34,560c0,8.75-7.09,15.84-15.84,15.84c-8.75,0-15.84-7.09-15.84-15.84c0-8.75,7.09-15.84,15.84-15.84
	C409.25,544.16,416.34,551.25,416.34,560z"></path>
<path id="u7" style="fill:#FFFFFF;stroke:#FFFFFF;stroke-linecap:round;stroke-linejoin:round;stroke-miterlimit:10;" d="
	M820.36,1193.59c0,8.75-7.09,15.84-15.84,15.84s-15.84-7.09-15.84-15.84c0-8.75,7.09-15.84,15.84-15.84
	S820.36,1184.85,820.36,1193.59z"></path>
<path id="u3" style="fill:#FFFFFF;stroke:#FFFFFF;stroke-linecap:round;stroke-linejoin:round;stroke-miterlimit:10;" d="
	M1581.36,1395.14c0,8.75-7.09,15.84-15.84,15.84s-15.84-7.09-15.84-15.84c0-8.75,7.09-15.84,15.84-15.84
	S1581.36,1386.39,1581.36,1395.14z"></path>
<g id="mebel">
	<g>
		<polygon style="fill:none;stroke:#000000;stroke-linecap:round;stroke-linejoin:round;stroke-miterlimit:10;" points="
			999.07,926.62 999.07,809.63 1116.04,809.63 1116.06,926.62 		"></polygon>
		<g>
			
				<line style="fill:none;stroke:#000000;stroke-linecap:round;stroke-linejoin:round;stroke-miterlimit:10;" x1="1085.73" y1="868.13" x2="1029.4" y2="868.13"></line>
			
				<line style="fill:none;stroke:#000000;stroke-linecap:round;stroke-linejoin:round;stroke-miterlimit:10;" x1="1057.56" y1="896.29" x2="1057.56" y2="839.96"></line>
			<polyline style="fill:none;stroke:#000000;stroke-linecap:round;stroke-linejoin:round;stroke-miterlimit:10;" points="
				1079.47,882.21 1071.65,868.13 1079.47,854.05 			"></polyline>
			<polyline style="fill:none;stroke:#000000;stroke-linecap:round;stroke-linejoin:round;stroke-miterlimit:10;" points="
				1071.65,846.22 1057.56,854.05 1043.48,846.22 			"></polyline>
			<polyline style="fill:none;stroke:#000000;stroke-linecap:round;stroke-linejoin:round;stroke-miterlimit:10;" points="
				1035.66,854.05 1043.48,868.13 1035.66,882.21 			"></polyline>
			<polyline style="fill:none;stroke:#000000;stroke-linecap:round;stroke-linejoin:round;stroke-miterlimit:10;" points="
				1043.48,890.03 1057.56,882.21 1071.65,890.03 			"></polyline>
		</g>
	</g>
	<g>
		<polygon style="fill:none;stroke:#000000;stroke-linecap:round;stroke-linejoin:round;stroke-miterlimit:10;" points="
			1209.19,1355.04 1209.19,1442.33 1326.16,1442.33 1326.18,1355.04 		"></polygon>
		<path style="fill:none;stroke:#000000;stroke-linecap:round;stroke-linejoin:round;stroke-miterlimit:10;" d="M1292.18,1399.23
			l-28.24,12.4c-1.73,0.67-3.63,1.05-5.62,1.05c-8.02,0-14.51-6.02-14.51-13.45s6.5-13.45,14.51-13.45c1.99,0,3.89,0.37,5.62,1.05
			L1292.18,1399.23z"></path>
	</g>
	<g>
		<polygon style="fill:none;stroke:#000000;stroke-linecap:round;stroke-linejoin:round;stroke-miterlimit:10;" points="
			1209.19,1118.96 1209.19,1355.04 1326.16,1355.04 1326.18,1118.96 		"></polygon>
	</g>
	<g>
		<polygon style="fill:none;stroke:#000000;stroke-linecap:round;stroke-linejoin:round;stroke-miterlimit:10;" points="
			1116.05,926.62 1326.18,926.63 1326.18,809.66 1116.05,809.64 		"></polygon>
	</g>
	<g>
		<g>
			<g>
				<path style="fill:none;stroke:#000000;stroke-linecap:round;stroke-linejoin:round;stroke-miterlimit:10;" d="M1209.69,851.86
					l-6.19,2.58c-0.12-0.53-0.26-1.05-0.48-1.57c-0.21-0.51-0.49-0.99-0.78-1.44l6.19-2.58c0.48-0.2,1.03,0.03,1.23,0.51l0.53,1.27
					C1210.4,851.11,1210.17,851.66,1209.69,851.86z"></path>
				
					<circle style="fill:none;stroke:#000000;stroke-linecap:round;stroke-linejoin:round;stroke-miterlimit:10;" cx="1194.58" cy="856.41" r="9.15"></circle>
			</g>
			<g>
				<path style="fill:none;stroke:#000000;stroke-linecap:round;stroke-linejoin:round;stroke-miterlimit:10;" d="M1155.78,853.2
					l2.58,6.19c-0.53,0.12-1.05,0.26-1.57,0.48s-0.99,0.49-1.44,0.78l-2.58-6.19c-0.2-0.48,0.03-1.03,0.51-1.23l1.27-0.53
					C1155.03,852.49,1155.58,852.72,1155.78,853.2z"></path>
				
					<circle style="fill:none;stroke:#000000;stroke-linecap:round;stroke-linejoin:round;stroke-miterlimit:10;" cx="1160.33" cy="868.31" r="9.15"></circle>
			</g>
		</g>
	</g>
	<g>
		<g>
			<path style="fill:none;stroke:#000000;stroke-linecap:round;stroke-linejoin:round;stroke-miterlimit:10;" d="M1284.74,853.12
				l0.73-1.06c1.19-1.72,1.77-3.74,1.99-5.81c0.16-1.53,0.9-3.02,2.23-4.14c1.96-1.64,4.82-1.92,7.05-0.66
				c3.61,2.05,4.26,6.73,1.67,9.66c-0.97,1.09-2.22,1.76-3.56,2.01c-1.94,0.35-3.72,1.32-5.18,2.63l-0.97,0.87
				c-1.31,1.17-1.3,3.23,0.02,4.39l3.7,3.26c2.02,1.78,2.22,4.87,0.43,6.9l-24.5,27.79c-1.78,2.02-4.87,2.22-6.9,0.43l-15.74-13.87
				c-2.02-1.78-2.22-4.87-0.43-6.9l24.5-27.79c1.78-2.02,4.87-2.22,6.9-0.43l3.7,3.26C1281.7,854.82,1283.74,854.57,1284.74,853.12z
				"></path>
			
				<circle style="fill:none;stroke:#000000;stroke-linecap:round;stroke-linejoin:round;stroke-miterlimit:10;" cx="1293.62" cy="847.05" r="3.06"></circle>
		</g>
		<g>
			<path style="fill:none;stroke:#000000;stroke-linecap:round;stroke-linejoin:round;stroke-miterlimit:10;" d="M1277.59,872.38
				l4.72-1.59c1.32-0.44,2.03-1.87,1.59-3.19l-2.79-8.29c-0.44-1.32-1.87-2.03-3.19-1.59l-4.72,1.59c-1.32,0.44-2.03,1.87-1.59,3.19
				l2.79,8.29C1274.84,872.12,1276.27,872.82,1277.59,872.38z"></path>
			<path style="fill:none;stroke:#000000;stroke-linecap:round;stroke-linejoin:round;stroke-miterlimit:10;" d="M1268.94,882.19
				l4.72-1.59c1.32-0.44,2.03-1.87,1.59-3.19l-2.79-8.29c-0.44-1.32-1.87-2.03-3.19-1.59l-4.72,1.59c-1.32,0.44-2.03,1.87-1.59,3.19
				l2.79,8.29C1266.19,881.93,1267.62,882.63,1268.94,882.19z"></path>
			<path style="fill:none;stroke:#000000;stroke-linecap:round;stroke-linejoin:round;stroke-miterlimit:10;" d="M1260.34,891.95
				l4.72-1.59c1.32-0.44,2.03-1.87,1.59-3.19l-2.79-8.29c-0.44-1.32-1.87-2.03-3.19-1.59l-4.72,1.59c-1.32,0.44-2.03,1.87-1.59,3.19
				l2.79,8.29C1257.59,891.69,1259.02,892.39,1260.34,891.95z"></path>
		</g>
	</g>
	<g>
		<g>
			<g>
				
					<circle style="fill:none;stroke:#000000;stroke-linecap:round;stroke-linejoin:round;stroke-miterlimit:10;" cx="804.47" cy="498.75" r="7.16"></circle>
				
					<circle style="fill:none;stroke:#000000;stroke-linecap:round;stroke-linejoin:round;stroke-miterlimit:10;" cx="804.47" cy="498.75" r="5.06"></circle>
				
					<line style="fill:none;stroke:#000000;stroke-linecap:round;stroke-linejoin:round;stroke-miterlimit:10;" x1="808.64" y1="493.37" x2="811.73" y2="489.4"></line>
				<path style="fill:none;stroke:#000000;stroke-linecap:round;stroke-linejoin:round;stroke-miterlimit:10;" d="M822.7,499.86
					c0.34-5.61-1.95-10.72-5.73-14.31l-2.75,3.54c-0.6,0.77-1.72,0.91-2.5,0.31c-0.48-0.37-0.72-0.95-0.68-1.51
					c0.02-0.35,0.14-0.69,0.37-0.99l2.75-3.53c-2.52-1.59-5.41-2.65-8.59-2.85c-10.07-0.61-18.73,7.06-19.34,17.13
					c-0.61,10.07,7.06,18.73,17.13,19.34C813.44,517.6,822.09,509.93,822.7,499.86z"></path>
				<g>
					
						<rect x="833.91" y="460.87" transform="matrix(0.6142 -0.7891 0.7891 0.6142 -42.1778 839.0187)" style="fill:none;stroke:#000000;stroke-linecap:round;stroke-linejoin:round;stroke-miterlimit:10;" width="6.33" height="3.56"></rect>
					
						<rect x="828.29" y="456.5" transform="matrix(0.6142 -0.7891 0.7891 0.6142 -40.8955 832.8909)" style="fill:none;stroke:#000000;stroke-linecap:round;stroke-linejoin:round;stroke-miterlimit:10;" width="6.33" height="3.56"></rect>
				</g>
				<g>
					<path style="fill:none;stroke:#000000;stroke-linecap:round;stroke-linejoin:round;stroke-miterlimit:10;" d="M825.35,474.79
						c1.5,0.83,3.19,1.38,5.02,1.5c6.56,0.4,12.21-4.6,12.6-11.17c0.21-3.4-1.05-6.53-3.21-8.83L825.35,474.79z"></path>
					<path style="fill:none;stroke:#000000;stroke-linecap:round;stroke-linejoin:round;stroke-miterlimit:10;" d="M836.96,454.1
						c-1.54-0.88-3.26-1.46-5.15-1.58c-6.56-0.4-12.21,4.6-12.6,11.17c-0.21,3.45,1.1,6.62,3.32,8.94L836.96,454.1z"></path>
				</g>
				<g>
					<path style="fill:none;stroke:#000000;stroke-linecap:round;stroke-linejoin:round;stroke-miterlimit:10;" d="M811.04,487.88
						c0.02-0.35,0.14-0.69,0.37-0.99l29.27-37.57c0.6-0.77,1.72-0.91,2.5-0.31c0.78,0.6,0.92,1.72,0.31,2.5l-29.27,37.57
						c-0.6,0.77-1.72,0.91-2.5,0.31C811.24,489.02,811,488.45,811.04,487.88z"></path>
				</g>
			</g>
			<g>
				<g>
					<g>
						<g>
							<g>
								<g>
									
										<rect x="466.77" y="441.38" transform="matrix(-1 -3.375001e-06 3.375001e-06 -1 1247.5851 895.508)" style="fill:none;stroke:#000000;stroke-linecap:round;stroke-linejoin:round;stroke-miterlimit:10;" width="314.04" height="12.74"></rect>
									
										<rect x="466.77" y="454.12" transform="matrix(-1 -3.375001e-06 3.375001e-06 -1 1247.5831 1305.6715)" style="fill:none;stroke:#000000;stroke-linecap:round;stroke-linejoin:round;stroke-miterlimit:10;" width="314.04" height="397.42"></rect>
									<path style="fill:none;stroke:#000000;stroke-linecap:round;stroke-linejoin:round;stroke-miterlimit:10;" d="
										M629.29,519.67l-10.81,0l0-31.37c0-9.38-7.61-16.99-16.99-16.99l-94.18,0c-9.38,0-16.99,7.61-16.99,16.99l0,31.37h-10.81
										l0-54.92c0-2.35,1.9-4.25,4.25-4.25l280.06,0c2.35,0,4.25,1.9,4.25,4.25l0,54.92h-10.81l0-31.37
										c0-9.38-7.61-16.99-16.99-16.99l-94,0c-9.38,0-16.99,7.61-16.99,16.99L629.29,519.67z"></path>
									<path style="fill:none;stroke:#000000;stroke-linecap:round;stroke-linejoin:round;stroke-miterlimit:10;" d="
										M764.85,840.93l-282.12,0c-1.78,0-3.22-1.44-3.22-3.22l0-318.05l288.56,0l0,318.05
										C768.07,839.49,766.63,840.93,764.85,840.93z"></path>
								</g>
							</g>
							
								<rect x="773.65" y="448.55" transform="matrix(1.005445e-06 -1 1 1.005445e-06 332.2654 1301.2197)" style="fill:none;stroke:#000000;stroke-linecap:round;stroke-linejoin:round;stroke-miterlimit:10;" width="86.19" height="71.86"></rect>
						</g>
					</g>
				</g>
			</g>
		</g>
		<g>
			<path style="fill:none;stroke:#000000;stroke-linecap:round;stroke-linejoin:round;stroke-miterlimit:10;" d="M662.13,682.37
				l0.01-0.01c5.61-14.84,13.53-28.71,23.47-41.09l0.01-0.01c2.59-3.22,1.27-8.04-2.59-9.5l-0.01-0.01
				c-14.84-5.61-28.71-13.53-41.09-23.47l-0.01-0.01c-3.22-2.59-8.04-1.27-9.5,2.59l-0.01,0.01c-2.65,7-5.85,13.75-9.49,20.26
				c8.74,1.75,17.61,2.83,26.54,3.17l5.27,0.2c2.36,0.09,3.94,2.46,3.12,4.67l-1.82,4.95c-3.92,10.64-6.14,21.83-6.58,33.15
				l-0.2,5.16c1.12,0.84,2.28,1.62,3.37,2.49l0.01,0.01C655.85,687.55,660.66,686.24,662.13,682.37z"></path>
			<path style="fill:none;stroke:#000000;stroke-linecap:round;stroke-linejoin:round;stroke-miterlimit:10;" d="M582.8,673.43
				l5.27,0.2c17.61,0.68,35.01,4.13,51.55,10.23l4.95,1.82c2.21,0.82,4.58-0.77,4.67-3.12l0.2-5.27
				c0.44-11.33,2.66-22.52,6.58-33.15l1.82-4.95c0.82-2.21-0.77-4.58-3.12-4.67l-5.27-0.2c-17.61-0.68-35.01-4.13-51.55-10.23
				l-4.95-1.82c-2.21-0.82-4.58,0.77-4.67,3.12l-0.2,5.27c-0.44,11.33-2.66,22.52-6.58,33.15l-1.82,4.95
				C578.86,670.97,580.44,673.34,582.8,673.43z"></path>
		</g>
	</g>
	<g>
		<g>
			<g>
				
					<rect x="587.29" y="890.39" transform="matrix(-1.985568e-06 -1 1 -1.985568e-06 -403.8535 1590.7544)" style="fill:none;stroke:#000000;stroke-linecap:round;stroke-linejoin:round;stroke-miterlimit:10;" width="12.31" height="213.83"></rect>
				<polygon style="fill:none;stroke:#000000;stroke-linecap:round;stroke-linejoin:round;stroke-miterlimit:10;" points="
					508.78,978.83 486.53,991.15 700.36,991.15 678.12,978.83 				"></polygon>
			</g>
		</g>
		<g>
			
				<rect x="573.86" y="879.15" transform="matrix(2.423319e-06 1 -1 2.423319e-06 1591.1123 405.0341)" style="fill:none;stroke:#000000;stroke-linecap:round;stroke-linejoin:round;stroke-miterlimit:10;" width="38.35" height="237.85"></rect>
		</g>
	</g>
	<g>
		<g>
			<g>
				
					<rect x="603.7" y="838.03" transform="matrix(1.985568e-06 1 -1 1.985568e-06 1554.8022 335.0935)" style="fill:none;stroke:#000000;stroke-linecap:round;stroke-linejoin:round;stroke-miterlimit:10;" width="12.31" height="213.83"></rect>
				<polygon style="fill:none;stroke:#000000;stroke-linecap:round;stroke-linejoin:round;stroke-miterlimit:10;" points="
					694.53,963.42 716.77,951.11 502.94,951.11 525.18,963.42 				"></polygon>
			</g>
		</g>
	</g>
	<g>
		<path style="fill:none;stroke:#000000;stroke-linecap:round;stroke-linejoin:round;stroke-miterlimit:10;" d="M567.69,1265.11
			c0-8.07,0-36.41,0-44.48c0-8.26,7.11-12.48,15.95-13.85c36.03-5.02,72.63-5.02,108.66,0c8.83,1.38,15.94,5.6,15.95,13.85
			c0,8.07,0,36.41,0,44.48c0,8.26-7.11,12.48-15.95,13.85c-36.03,5.02-72.63,5.02-108.66,0
			C574.81,1277.59,567.69,1273.37,567.69,1265.11z"></path>
		<g>
			<polygon style="fill:none;stroke:#000000;stroke-linecap:round;stroke-linejoin:round;stroke-miterlimit:10;" points="
				634.68,1228.11 638.29,1226.16 653.08,1253.46 648.54,1255.93 652.6,1258.4 664.62,1238.66 638.09,1222.51 			"></polygon>
			
				<line style="fill:none;stroke:#000000;stroke-linecap:round;stroke-linejoin:round;stroke-miterlimit:10;" x1="632.74" y1="1229.16" x2="627.15" y2="1224.08"></line>
			
				<line style="fill:none;stroke:#000000;stroke-linecap:round;stroke-linejoin:round;stroke-miterlimit:10;" x1="663.68" y1="1240.2" x2="637.15" y2="1224.05"></line>
			<g>
				<polygon style="fill:none;stroke:#000000;stroke-linecap:round;stroke-linejoin:round;stroke-miterlimit:10;" points="
					617.97,1237.17 634.42,1228.25 628.37,1222.75 612.82,1239.85 625.82,1251.66 				"></polygon>
				<polygon style="fill:none;stroke:#000000;stroke-linecap:round;stroke-linejoin:round;stroke-miterlimit:10;" points="
					649.1,1246.11 651.35,1243.63 644.27,1237.2 				"></polygon>
			</g>
			
				<rect x="620" y="1233.76" transform="matrix(-0.4763 -0.8793 0.8793 -0.4763 -156.7406 2397.2778)" style="fill:none;stroke:#000000;stroke-linecap:round;stroke-linejoin:round;stroke-miterlimit:10;" width="31.06" height="23.11"></rect>
			
				<line style="fill:none;stroke:#000000;stroke-linecap:round;stroke-linejoin:round;stroke-miterlimit:10;" x1="651.49" y1="1254.32" x2="636.7" y2="1227.02"></line>
		</g>
	</g>
	<g>
		<g>
			<g>
				<path style="fill:none;stroke:#000000;stroke-linecap:round;stroke-linejoin:round;stroke-miterlimit:10;" d="M671.63,1512.24
					l136.58,0c1.54,0,2.78,1.25,2.78,2.78l0,40.99c0,1.54-1.25,2.78-2.78,2.78l-136.58,0c-1.54,0-2.78-1.25-2.78-2.78l0-40.99
					C668.85,1513.48,670.09,1512.24,671.63,1512.24z"></path>
				<path style="fill:none;stroke:#000000;stroke-linecap:round;stroke-linejoin:round;stroke-miterlimit:10;" d="M671.63,1512.24
					l136.58,0c1.54,0,2.78-1.25,2.78-2.78l0-112.99c0-1.54-1.25-2.78-2.78-2.78l-136.58,0c-1.54,0-2.78,1.24-2.78,2.78l0,112.99
					C668.85,1510.99,670.09,1512.24,671.63,1512.24z"></path>
				<path style="fill:none;stroke:#000000;stroke-linecap:round;stroke-linejoin:round;stroke-miterlimit:10;" d="M529.49,1512.24
					l136.58,0c1.54,0,2.78,1.25,2.78,2.78v40.99c0,1.54-1.25,2.78-2.78,2.78H529.49c-1.54,0-2.78-1.24-2.78-2.78l0-40.99
					C526.71,1513.48,527.95,1512.24,529.49,1512.24z"></path>
				<path style="fill:none;stroke:#000000;stroke-linecap:round;stroke-linejoin:round;stroke-miterlimit:10;" d="M529.49,1512.24
					l136.58,0c1.54,0,2.78-1.25,2.78-2.78l0-112.99c0-1.54-1.25-2.78-2.78-2.78l-136.58,0c-1.54,0-2.78,1.24-2.78,2.78l0,112.99
					C526.71,1510.99,527.95,1512.24,529.49,1512.24z"></path>
				<path style="fill:none;stroke:#000000;stroke-linecap:round;stroke-linejoin:round;stroke-miterlimit:10;" d="M377.87,1512.24
					l146.05,0c1.54,0,2.78,1.24,2.78,2.78v40.99c0,1.54-1.25,2.78-2.78,2.78l-146.05,0c-1.54,0-2.78-1.24-2.78-2.78l0-40.99
					C375.09,1513.48,376.34,1512.24,377.87,1512.24z"></path>
				<path style="fill:none;stroke:#000000;stroke-linecap:round;stroke-linejoin:round;stroke-miterlimit:10;" d="M377.87,1512.24
					l146.05,0c1.54,0,2.78-1.25,2.78-2.78l0-222.54c0-1.54-1.25-2.78-2.78-2.78l-146.05,0c-1.54,0-2.78,1.24-2.78,2.78l0,222.54
					C375.09,1510.99,376.34,1512.24,377.87,1512.24z"></path>
			</g>
		</g>
		<g>
			<g>
				<path style="fill:none;stroke:#000000;stroke-linecap:round;stroke-linejoin:round;stroke-miterlimit:10;" d="M424.59,1416
					c0.02,0.14,0.06,0.27,0.11,0.41c2.54,7.23,4.51,14.7,5.88,22.22c1.37,7.52,2.15,15.21,2.33,22.85c0,0.16,0.02,0.3,0.04,0.43
					c0.13,0.73,0.58,1.36,1.24,1.74c0.37,0.22,1.14,0.53,2.09,0.22l0.06-0.02c14.52-5.09,29.67-7.85,45.05-8.21l0.08,0
					c0.99-0.05,1.58-0.6,1.85-0.94c0.48-0.59,0.68-1.34,0.54-2.07c-0.02-0.14-0.06-0.27-0.11-0.41c-2.54-7.23-4.51-14.7-5.88-22.22
					c-1.37-7.52-2.15-15.21-2.33-22.85c0-0.16-0.02-0.3-0.04-0.43c-0.13-0.73-0.58-1.36-1.24-1.74c-0.37-0.22-1.14-0.53-2.09-0.22
					l-0.06,0.02c-14.52,5.09-29.67,7.85-45.05,8.21l-0.08,0c-0.99,0.05-1.58,0.6-1.85,0.94
					C424.66,1414.52,424.46,1415.27,424.59,1416z"></path>
			</g>
			<path style="fill:none;stroke:#000000;stroke-linecap:round;stroke-linejoin:round;stroke-miterlimit:10;" d="M436.33,1463.84
				l-0.06,0.02c-0.95,0.31-1.71,0-2.09-0.21c-0.65-0.38-1.1-1.01-1.24-1.74c-0.02-0.14-0.04-0.28-0.04-0.43
				c-0.15-6.72-0.86-13.46-1.94-20.11c-5.96-1.1-11.87-2.46-17.67-4.3l-0.06-0.02c-0.96-0.29-1.71,0.05-2.08,0.28
				c-0.64,0.4-1.07,1.05-1.18,1.78c-0.02,0.14-0.03,0.28-0.03,0.43c0.06,7.64-0.49,15.35-1.63,22.91
				c-1.14,7.56-2.89,15.08-5.2,22.39c-0.04,0.14-0.07,0.27-0.09,0.41c-0.11,0.73,0.11,1.48,0.61,2.05c0.28,0.32,0.89,0.86,1.88,0.88
				l0.08,0c15.38-0.12,30.62,2.18,45.28,6.83l0.06,0.02c0.96,0.28,1.71-0.05,2.08-0.28c0.64-0.4,1.07-1.05,1.18-1.78
				c0.02-0.14,0.03-0.28,0.03-0.43c-0.06-7.64,0.49-15.35,1.63-22.91c0.58-3.87,1.33-7.72,2.23-11.54
				C450.71,1459.43,443.44,1461.34,436.33,1463.84z"></path>
			<path style="fill:none;stroke:#000000;stroke-linecap:round;stroke-linejoin:round;stroke-miterlimit:10;" d="M436.33,1463.84
				l-0.06,0.02c-0.95,0.31-1.71,0-2.09-0.21c-0.65-0.38-1.1-1.01-1.24-1.74c-0.02-0.14-0.04-0.28-0.04-0.43
				c-0.17-7.64-0.96-15.33-2.33-22.85c-0.04-0.21-0.1-0.41-0.14-0.62c-5.45-1.05-10.87-2.31-16.18-4l-0.01,0
				c-3.73-1.18-7.53,1.62-7.5,5.53v0.01c0.11,15.02-2.14,29.97-6.68,44.29l0,0.01c-1.18,3.73,1.62,7.53,5.53,7.5l0.01,0
				c15.02-0.11,29.97,2.14,44.29,6.68l0.01,0c3.73,1.18,7.53-1.62,7.5-5.53l0-0.01c-0.09-11.79,1.33-23.52,4.12-34.96
				C452.99,1458.91,444.55,1460.95,436.33,1463.84z"></path>
		</g>
		<g>
			<g>
				<path style="fill:none;stroke:#000000;stroke-linecap:round;stroke-linejoin:round;stroke-miterlimit:10;" d="M710.43,1469.87
					c0.14-0.02,0.27-0.06,0.41-0.11c7.23-2.54,14.7-4.51,22.22-5.88c7.52-1.37,15.21-2.15,22.85-2.33c0.16,0,0.3-0.02,0.43-0.04
					c0.73-0.13,1.36-0.58,1.74-1.24c0.22-0.37,0.53-1.14,0.22-2.09l-0.02-0.06c-5.09-14.52-7.85-29.67-8.21-45.05l0-0.08
					c-0.05-0.99-0.6-1.58-0.94-1.85c-0.59-0.48-1.34-0.68-2.07-0.54c-0.14,0.02-0.27,0.06-0.41,0.11
					c-7.23,2.54-14.7,4.51-22.22,5.88c-7.52,1.37-15.21,2.15-22.85,2.33c-0.16,0-0.3,0.02-0.43,0.04c-0.73,0.13-1.36,0.58-1.74,1.24
					c-0.22,0.37-0.53,1.14-0.22,2.09l0.02,0.06c5.09,14.52,7.85,29.67,8.21,45.05l0,0.08c0.05,0.99,0.6,1.58,0.94,1.85
					C708.95,1469.8,709.71,1470,710.43,1469.87z"></path>
			</g>
			<path style="fill:none;stroke:#000000;stroke-linecap:round;stroke-linejoin:round;stroke-miterlimit:10;" d="M758.27,1458.13
				l0.02,0.06c0.31,0.95,0,1.71-0.21,2.09c-0.38,0.65-1.01,1.1-1.74,1.24c-0.14,0.02-0.28,0.04-0.43,0.04
				c-6.72,0.15-13.46,0.86-20.11,1.94c-1.1,5.96-2.46,11.87-4.3,17.67l-0.02,0.06c-0.29,0.96,0.05,1.71,0.28,2.08
				c0.4,0.64,1.05,1.07,1.78,1.18c0.14,0.02,0.28,0.03,0.43,0.03c7.64-0.06,15.35,0.49,22.91,1.63s15.08,2.89,22.39,5.2
				c0.14,0.04,0.27,0.07,0.41,0.09c0.73,0.11,1.48-0.11,2.05-0.61c0.32-0.28,0.86-0.9,0.88-1.88l0-0.08
				c-0.12-15.38,2.18-30.62,6.83-45.28l0.02-0.06c0.28-0.96-0.05-1.71-0.28-2.08c-0.4-0.64-1.05-1.07-1.78-1.18
				c-0.14-0.02-0.28-0.03-0.43-0.03c-7.64,0.06-15.35-0.49-22.91-1.63c-3.87-0.58-7.72-1.33-11.54-2.23
				C753.86,1443.75,755.78,1451.02,758.27,1458.13z"></path>
			<path style="fill:none;stroke:#000000;stroke-linecap:round;stroke-linejoin:round;stroke-miterlimit:10;" d="M758.27,1458.13
				l0.02,0.06c0.31,0.95,0,1.71-0.21,2.09c-0.38,0.65-1.01,1.1-1.74,1.24c-0.14,0.02-0.28,0.04-0.43,0.04
				c-7.64,0.17-15.33,0.96-22.85,2.33c-0.21,0.04-0.41,0.1-0.62,0.14c-1.05,5.45-2.31,10.87-4,16.18l0,0.01
				c-1.18,3.73,1.62,7.53,5.53,7.5h0.01c15.02-0.11,29.97,2.14,44.29,6.68l0.01,0c3.73,1.18,7.53-1.62,7.5-5.53v-0.01
				c-0.11-15.02,2.14-29.97,6.68-44.29l0-0.01c1.18-3.73-1.62-7.53-5.53-7.5l-0.01,0c-11.79,0.09-23.52-1.33-34.96-4.12
				C753.34,1441.48,755.39,1449.91,758.27,1458.13z"></path>
		</g>
	</g>
	<g>
		<g>
			<g>
				<g>
					<path style="fill:none;stroke:#000000;stroke-linecap:round;stroke-linejoin:round;stroke-miterlimit:10;" d="M1081.09,1335.75
						l17.11-22.53c10.7-14.1,9.1-33.98-3.72-46.18l-1.46-1.39c-12.81-12.19-32.74-12.81-46.29-1.44l-21.69,18.21L1081.09,1335.75z"></path>
					<path style="fill:none;stroke:#000000;stroke-linecap:round;stroke-linejoin:round;stroke-miterlimit:10;" d="M1035.61,1260.44
						l4.78-4.02c17.35-14.56,42.86-13.77,59.27,1.84l1.87,1.77c16.42,15.62,18.47,41.09,4.77,59.14l-3.75,4.94
						c-1.81,2.39-5.3,2.67-7.47,0.6l0,0c-1.86-1.77-2.09-4.64-0.54-6.68l3.66-4.82c10.7-14.1,9.1-33.98-3.72-46.18l-1.46-1.39
						c-12.81-12.19-32.74-12.81-46.29-1.44l-4.67,3.92c-1.96,1.64-4.84,1.55-6.69-0.21l0,0
						C1033.2,1265.86,1033.31,1262.37,1035.61,1260.44z"></path>
				</g>
				<g>
					<path style="fill:none;stroke:#000000;stroke-linecap:round;stroke-linejoin:round;stroke-miterlimit:10;" d="M906.76,1406.82
						l-17.11,22.53c-10.7,14.1-9.1,33.98,3.72,46.18l1.46,1.39c12.81,12.19,32.74,12.81,46.29,1.43l21.69-18.21L906.76,1406.82z"></path>
					<path style="fill:none;stroke:#000000;stroke-linecap:round;stroke-linejoin:round;stroke-miterlimit:10;" d="M952.25,1482.12
						l-4.78,4.02c-17.35,14.56-42.86,13.77-59.27-1.84l-1.87-1.77c-16.42-15.62-18.48-41.09-4.77-59.14l3.75-4.94
						c1.81-2.39,5.3-2.67,7.47-0.6l0,0c1.86,1.77,2.09,4.64,0.54,6.68l-3.66,4.82c-10.7,14.1-9.1,33.98,3.72,46.18l1.46,1.39
						c12.81,12.19,32.74,12.81,46.29,1.43l4.67-3.92c1.96-1.64,4.84-1.55,6.69,0.21l0,0
						C954.65,1476.7,954.54,1480.19,952.25,1482.12z"></path>
				</g>
				<g>
					<path style="fill:none;stroke:#000000;stroke-linecap:round;stroke-linejoin:round;stroke-miterlimit:10;" d="M1029.46,1458.45
						l22.53,17.11c14.1,10.7,33.98,9.1,46.18-3.72l1.39-1.46c12.19-12.81,12.81-32.74,1.44-46.29l-18.21-21.69L1029.46,1458.45z"></path>
					<path style="fill:none;stroke:#000000;stroke-linecap:round;stroke-linejoin:round;stroke-miterlimit:10;" d="M1104.76,1412.96
						l4.02,4.78c14.56,17.35,13.77,42.86-1.84,59.27l-1.77,1.87c-15.62,16.42-41.09,18.47-59.14,4.77l-4.94-3.75
						c-2.39-1.81-2.67-5.3-0.6-7.47l0,0c1.77-1.86,4.64-2.09,6.68-0.54l4.82,3.66c14.1,10.7,33.98,9.1,46.18-3.72l1.39-1.46
						c12.19-12.81,12.81-32.74,1.44-46.29l-3.92-4.67c-1.64-1.96-1.55-4.84,0.21-6.69l0,0
						C1099.34,1410.56,1102.84,1410.67,1104.76,1412.96z"></path>
				</g>
				<g>
					<path style="fill:none;stroke:#000000;stroke-linecap:round;stroke-linejoin:round;stroke-miterlimit:10;" d="M958.39,1284.11
						l-22.53-17.11c-14.1-10.7-33.98-9.1-46.18,3.72l-1.39,1.46c-12.19,12.81-12.81,32.74-1.43,46.29l18.21,21.69L958.39,1284.11z"></path>
					<path style="fill:none;stroke:#000000;stroke-linecap:round;stroke-linejoin:round;stroke-miterlimit:10;" d="M883.09,1329.6
						l-4.02-4.78c-14.56-17.35-13.77-42.86,1.84-59.27l1.77-1.87c15.62-16.42,41.09-18.48,59.14-4.77l4.94,3.75
						c2.39,1.81,2.67,5.3,0.6,7.47l0,0c-1.77,1.86-4.64,2.09-6.68,0.54l-4.82-3.66c-14.1-10.7-33.98-9.1-46.18,3.72l-1.39,1.46
						c-12.19,12.81-12.81,32.74-1.43,46.29l3.92,4.67c1.64,1.96,1.55,4.84-0.21,6.69l0,0
						C888.51,1332.01,885.02,1331.9,883.09,1329.6z"></path>
				</g>
			</g>
			
				<circle style="fill:#FFFFFF;stroke:#000000;stroke-linecap:round;stroke-linejoin:round;stroke-miterlimit:10;" cx="993.59" cy="1371.63" r="94.72"></circle>
		</g>
		<g>
			<g>
				<g>
					
						<circle style="fill:none;stroke:#000000;stroke-linecap:round;stroke-linejoin:round;stroke-miterlimit:10;" cx="950.16" cy="1411.44" r="17.47"></circle>
				</g>
				<g>
					
						<circle style="fill:none;stroke:#000000;stroke-linecap:round;stroke-linejoin:round;stroke-miterlimit:10;" cx="950.16" cy="1411.44" r="9.95"></circle>
				</g>
				<g>
					
						<ellipse transform="matrix(0.7263 -0.6873 0.6873 0.7263 -713.6268 1065.3125)" style="fill:none;stroke:#000000;stroke-linecap:round;stroke-linejoin:round;stroke-miterlimit:10;" cx="981.04" cy="1428.85" rx="4.4" ry="2.71"></ellipse>
					
						<line style="fill:none;stroke:#000000;stroke-linecap:round;stroke-linejoin:round;stroke-miterlimit:10;" x1="977.85" y1="1431.88" x2="963.87" y2="1445.1"></line>
				</g>
				<g>
					<path style="fill:none;stroke:#000000;stroke-linecap:round;stroke-linejoin:round;stroke-miterlimit:10;" d="M941.36,1380.52
						l-3.19,3.02c-1.76,1.67-2.36,3.9-1.33,4.99c1.03,1.09,3.29,0.61,5.05-1.06l3.19-3.02"></path>
					
						<line style="fill:none;stroke:#000000;stroke-linecap:round;stroke-linejoin:round;stroke-miterlimit:10;" x1="936.83" y1="1388.53" x2="922.85" y2="1401.75"></line>
				</g>
				
					<line style="fill:none;stroke:#000000;stroke-linecap:round;stroke-linejoin:round;stroke-miterlimit:10;" x1="943.22" y1="1382.48" x2="936.83" y2="1388.53"></line>
				<g>
					<path style="fill:none;stroke:#000000;stroke-linecap:round;stroke-linejoin:round;stroke-miterlimit:10;" d="M967.84,1432.18
						l-2.89-3.05l11.82-11.18l0.44,0.47c1.35,1.43,1.29,3.68-0.14,5.03L967.84,1432.18z"></path>
					<path style="fill:none;stroke:#000000;stroke-linecap:round;stroke-linejoin:round;stroke-miterlimit:10;" d="M958.07,1438.97
						l-0.44-0.47c-0.67-0.71-0.64-1.84,0.07-2.51l7.25-6.86l2.89,3.05l-7.25,6.86C959.87,1439.71,958.75,1439.68,958.07,1438.97z"></path>
				</g>
			</g>
			<g>
				<g>
					
						<circle style="fill:none;stroke:#000000;stroke-linecap:round;stroke-linejoin:round;stroke-miterlimit:10;" cx="1038.39" cy="1335.78" r="17.47"></circle>
				</g>
				<g>
					
						<circle style="fill:none;stroke:#000000;stroke-linecap:round;stroke-linejoin:round;stroke-miterlimit:10;" cx="1038.39" cy="1335.78" r="9.95"></circle>
				</g>
				<g>
					
						<ellipse transform="matrix(0.7264 -0.6873 0.6873 0.7264 -630.4393 1053.2189)" style="fill:none;stroke:#000000;stroke-linecap:round;stroke-linejoin:round;stroke-miterlimit:10;" cx="1007.5" cy="1318.37" rx="4.4" ry="2.71"></ellipse>
					
						<line style="fill:none;stroke:#000000;stroke-linecap:round;stroke-linejoin:round;stroke-miterlimit:10;" x1="1010.69" y1="1315.34" x2="1024.67" y2="1302.12"></line>
				</g>
				<g>
					<path style="fill:none;stroke:#000000;stroke-linecap:round;stroke-linejoin:round;stroke-miterlimit:10;" d="M1047.19,1366.71
						l3.19-3.02c1.76-1.67,2.36-3.9,1.33-4.99s-3.29-0.61-5.05,1.06l-3.19,3.02"></path>
					
						<line style="fill:none;stroke:#000000;stroke-linecap:round;stroke-linejoin:round;stroke-miterlimit:10;" x1="1051.71" y1="1358.7" x2="1065.69" y2="1345.47"></line>
				</g>
				
					<line style="fill:none;stroke:#000000;stroke-linecap:round;stroke-linejoin:round;stroke-miterlimit:10;" x1="1045.33" y1="1364.74" x2="1051.71" y2="1358.7"></line>
				<g>
					<path style="fill:none;stroke:#000000;stroke-linecap:round;stroke-linejoin:round;stroke-miterlimit:10;" d="M1020.71,1315.05
						l2.89,3.05l-11.82,11.18l-0.44-0.47c-1.35-1.43-1.29-3.68,0.14-5.03L1020.71,1315.05z"></path>
					<path style="fill:none;stroke:#000000;stroke-linecap:round;stroke-linejoin:round;stroke-miterlimit:10;" d="M1030.47,1308.25
						l0.44,0.47c0.67,0.71,0.64,1.84-0.07,2.51l-7.25,6.86l-2.89-3.05l7.25-6.86C1028.67,1307.51,1029.8,1307.54,1030.47,1308.25z"></path>
				</g>
			</g>
			<g>
				<g>
					
						<circle style="fill:none;stroke:#000000;stroke-linecap:round;stroke-linejoin:round;stroke-miterlimit:10;" cx="1030.45" cy="1416.08" r="17.47"></circle>
				</g>
				<g>
					
						<circle style="fill:none;stroke:#000000;stroke-linecap:round;stroke-linejoin:round;stroke-miterlimit:10;" cx="1030.45" cy="1416.08" r="9.95"></circle>
				</g>
				<g>
					
						<ellipse transform="matrix(0.7264 -0.6873 0.6873 0.7264 -665.3177 1099.2188)" style="fill:none;stroke:#000000;stroke-linecap:round;stroke-linejoin:round;stroke-miterlimit:10;" cx="1047.87" cy="1385.19" rx="2.71" ry="4.4"></ellipse>
					
						<line style="fill:none;stroke:#000000;stroke-linecap:round;stroke-linejoin:round;stroke-miterlimit:10;" x1="1050.89" y1="1388.39" x2="1064.12" y2="1402.37"></line>
				</g>
				<g>
					<path style="fill:none;stroke:#000000;stroke-linecap:round;stroke-linejoin:round;stroke-miterlimit:10;" d="M999.53,1424.88
						l3.02,3.19c1.67,1.76,3.9,2.36,4.99,1.33c1.09-1.03,0.61-3.29-1.06-5.05l-3.02-3.19"></path>
					
						<line style="fill:none;stroke:#000000;stroke-linecap:round;stroke-linejoin:round;stroke-miterlimit:10;" x1="1007.54" y1="1429.41" x2="1020.77" y2="1443.39"></line>
				</g>
				
					<line style="fill:none;stroke:#000000;stroke-linecap:round;stroke-linejoin:round;stroke-miterlimit:10;" x1="1001.5" y1="1423.02" x2="1007.54" y2="1429.41"></line>
				<g>
					<path style="fill:none;stroke:#000000;stroke-linecap:round;stroke-linejoin:round;stroke-miterlimit:10;" d="M1051.19,1398.4
						l-3.05,2.89l-11.18-11.82l0.47-0.44c1.43-1.35,3.68-1.29,5.03,0.14L1051.19,1398.4z"></path>
					<path style="fill:none;stroke:#000000;stroke-linecap:round;stroke-linejoin:round;stroke-miterlimit:10;" d="M1057.99,1408.17
						l-0.47,0.44c-0.71,0.67-1.84,0.64-2.51-0.07l-6.86-7.25l3.05-2.89l6.86,7.25C1058.73,1406.37,1058.7,1407.49,1057.99,1408.17z"></path>
				</g>
			</g>
			<g>
				<g>
					
						<circle style="fill:none;stroke:#000000;stroke-linecap:round;stroke-linejoin:round;stroke-miterlimit:10;" cx="955.16" cy="1330.77" r="17.47"></circle>
				</g>
				<g>
					
						<circle style="fill:none;stroke:#000000;stroke-linecap:round;stroke-linejoin:round;stroke-miterlimit:10;" cx="955.16" cy="1330.77" r="9.95"></circle>
				</g>
				<g>
					
						<ellipse transform="matrix(0.7264 -0.6873 0.6873 0.7264 -679.2727 1017.0873)" style="fill:none;stroke:#000000;stroke-linecap:round;stroke-linejoin:round;stroke-miterlimit:10;" cx="937.74" cy="1361.66" rx="2.71" ry="4.4"></ellipse>
					
						<line style="fill:none;stroke:#000000;stroke-linecap:round;stroke-linejoin:round;stroke-miterlimit:10;" x1="934.72" y1="1358.46" x2="921.5" y2="1344.48"></line>
				</g>
				<g>
					<path style="fill:none;stroke:#000000;stroke-linecap:round;stroke-linejoin:round;stroke-miterlimit:10;" d="M986.08,1321.97
						l-3.02-3.19c-1.67-1.76-3.9-2.36-4.99-1.33c-1.09,1.03-0.61,3.29,1.06,5.05l3.02,3.19"></path>
					
						<line style="fill:none;stroke:#000000;stroke-linecap:round;stroke-linejoin:round;stroke-miterlimit:10;" x1="978.07" y1="1317.44" x2="964.85" y2="1303.46"></line>
				</g>
				
					<line style="fill:none;stroke:#000000;stroke-linecap:round;stroke-linejoin:round;stroke-miterlimit:10;" x1="984.12" y1="1323.83" x2="978.07" y2="1317.44"></line>
				<g>
					<path style="fill:none;stroke:#000000;stroke-linecap:round;stroke-linejoin:round;stroke-miterlimit:10;" d="M934.42,1348.45
						l3.05-2.89l11.18,11.82l-0.47,0.44c-1.43,1.35-3.68,1.29-5.03-0.14L934.42,1348.45z"></path>
					<path style="fill:none;stroke:#000000;stroke-linecap:round;stroke-linejoin:round;stroke-miterlimit:10;" d="M927.63,1338.68
						l0.47-0.44c0.71-0.67,1.84-0.64,2.51,0.07l6.86,7.25l-3.05,2.89l-6.86-7.25C926.88,1340.48,926.92,1339.36,927.63,1338.68z"></path>
				</g>
			</g>
		</g>
	</g>
	<g>
		<path style="fill:none;stroke:#000000;stroke-linecap:round;stroke-linejoin:round;stroke-miterlimit:10;" d="M600.18,1429.28
			c0.86,0,1.7,0.14,2.52,0.36c6.16,1.71,10.31,7.8,9.72,14.16c-0.31,3.3-1.58,5.93-2.46,7.38c-0.45,0.75-1.04,1.41-1.73,1.96h0
			c-0.7,0.55-1.48,0.98-2.32,1.25c-1.65,0.53-4.58,1.19-7.94,0.69c-6.23-0.93-11.08-6.28-11.38-12.57c-0.04-0.77,0-1.54,0.15-2.3"></path>
		<path style="fill:none;stroke:#000000;stroke-linecap:round;stroke-linejoin:round;stroke-miterlimit:10;" d="M609.13,1452.44
			c9.4,8.48,10.79,22.72,3.54,32.82c-0.72,1-2.09,1.27-3.14,0.62c-1.13-0.7-1.46-2.2-0.71-3.3c5.87-8.6,4.76-20.51-2.02-28.57"></path>
		<path style="fill:none;stroke:#000000;stroke-linecap:round;stroke-linejoin:round;stroke-miterlimit:10;" d="M593.86,1424.87
			c0.57,2.6-0.33,5.42-2.55,7.19c-2.21,1.75-5.12,2.01-7.52,0.9"></path>
		<path style="fill:none;stroke:#000000;stroke-linecap:round;stroke-linejoin:round;stroke-miterlimit:10;" d="M580.47,1429.83
			c-1.15-2.13-1.12-4.67-0.03-6.75c-0.36-1.19,0.01-2.54,1.05-3.36s2.43-0.88,3.51-0.26c2.25-0.59,4.7-0.06,6.51,1.49"></path>
		<path style="fill:none;stroke:#000000;stroke-linecap:round;stroke-linejoin:round;stroke-miterlimit:10;" d="M589.98,1421.67
			C590.28,1421.51,589.98,1421.67,589.98,1421.67c2.03-0.95,4.6-1.39,5.31-1.45c0.35-0.03,0.69,0.25,0.59,0.59
			c-0.59,2-2.96,5.51-3.19,5.74c-0.23,0.24-0.96,0.95-2.08-0.11"></path>
		<path style="fill:none;stroke:#000000;stroke-linecap:round;stroke-linejoin:round;stroke-miterlimit:10;" d="M585.68,1432.02
			c-1.65,0.87-4.33,1.87-6.41,1.99c-0.35,0.02-0.55-0.37-0.44-0.7c0.22-0.68,1.23-3.08,2.61-4.85l0,0"></path>
		
			<line style="fill:none;stroke:#000000;stroke-linecap:round;stroke-linejoin:round;stroke-miterlimit:10;" x1="586.98" y1="1420.99" x2="584.65" y2="1420.96"></line>
		
			<line style="fill:none;stroke:#000000;stroke-linecap:round;stroke-linejoin:round;stroke-miterlimit:10;" x1="581.83" y1="1425.11" x2="581.9" y2="1422.88"></line>
		<polygon style="fill:none;stroke:#000000;stroke-linecap:round;stroke-linejoin:round;stroke-miterlimit:10;" points="
			583.02,1420.28 581.63,1421.38 581.69,1420.01 		"></polygon>
		<path style="fill:none;stroke:#000000;stroke-linecap:round;stroke-linejoin:round;stroke-miterlimit:10;" d="M595.29,1420.22
			c0,0-3.09,2.74-5.44,3.81"></path>
		<path style="fill:none;stroke:#000000;stroke-linecap:round;stroke-linejoin:round;stroke-miterlimit:10;" d="M578.85,1433.77
			c2.22-1.06,4.68-4.15,4.68-4.15s-0.01-0.56-0.71-0.9"></path>
		<g>
			<path style="fill:none;stroke:#000000;stroke-linecap:round;stroke-linejoin:round;stroke-miterlimit:10;" d="M594.53,1442.13
				c-3.2,0.75-6.69-0.32-8.87-3.06c-1.44-1.81-2.02-4.01-1.86-6.15"></path>
			<path style="fill:none;stroke:#000000;stroke-linecap:round;stroke-linejoin:round;stroke-miterlimit:10;" d="M593.84,1424.94
				c2.12,0.32,4.13,1.39,5.57,3.2c2.15,2.71,2.42,6.29,1.03,9.22"></path>
		</g>
	</g>
	<g>
		<g>
			
				<rect x="999.07" y="441.38" style="fill:none;stroke:#000000;stroke-linecap:round;stroke-linejoin:round;stroke-miterlimit:10;" width="251.32" height="115.99"></rect>
			
				<line style="fill:none;stroke:#000000;stroke-linecap:round;stroke-linejoin:round;stroke-miterlimit:10;" x1="1250.39" y1="549.52" x2="999.08" y2="549.6"></line>
		</g>
		
			<line style="fill:none;stroke:#000000;stroke-linecap:round;stroke-linejoin:round;stroke-miterlimit:10;" x1="1124.75" y1="557.37" x2="1124.75" y2="441.38"></line>
	</g>
	<g>
		<g>
			
				<rect x="1548.12" y="809.63" style="fill:none;stroke:#000000;stroke-linecap:round;stroke-linejoin:round;stroke-miterlimit:10;" width="154.68" height="75.01"></rect>
			
				<line style="fill:none;stroke:#000000;stroke-linecap:round;stroke-linejoin:round;stroke-miterlimit:10;" x1="1702.79" y1="876.79" x2="1548.13" y2="876.88"></line>
		</g>
	</g>
	<g>
		<g>
			
				<rect x="1341.25" y="1134.43" style="fill:none;stroke:#000000;stroke-linecap:round;stroke-linejoin:round;stroke-miterlimit:10;" width="116" height="194.3"></rect>
			
				<line style="fill:none;stroke:#000000;stroke-linecap:round;stroke-linejoin:round;stroke-miterlimit:10;" x1="1449.39" y1="1134.43" x2="1449.48" y2="1328.72"></line>
		</g>
	</g>
	<g>
		<polyline style="fill:none;stroke:#000000;stroke-linecap:round;stroke-linejoin:round;stroke-miterlimit:10;" points="
			1702.79,1558.73 1401.88,1558.73 1401.87,1444.78 1611.96,1444.78 		"></polyline>
		
			<line style="fill:none;stroke:#000000;stroke-linecap:round;stroke-linejoin:round;stroke-miterlimit:10;" x1="1401.87" y1="1452.63" x2="1619.79" y2="1452.62"></line>
		<path style="fill:none;stroke:#000000;stroke-linecap:round;stroke-linejoin:round;stroke-miterlimit:10;" d="M1627.1,1441.12"></path>
		<g>
			<polyline style="fill:none;stroke:#000000;stroke-linecap:round;stroke-linejoin:round;stroke-miterlimit:10;" points="
				1611.96,1444.78 1611.92,1134.38 1702.76,1134.37 1702.79,1558.73 			"></polyline>
			
				<line style="fill:none;stroke:#000000;stroke-linecap:round;stroke-linejoin:round;stroke-miterlimit:10;" x1="1619.79" y1="1452.62" x2="1619.74" y2="1134.38"></line>
		</g>
		
			<line style="fill:none;stroke:#000000;stroke-linecap:round;stroke-linejoin:round;stroke-miterlimit:10;" x1="1611.94" y1="1299.05" x2="1702.77" y2="1299.05"></line>
		
			<line style="fill:none;stroke:#000000;stroke-linecap:round;stroke-linejoin:round;stroke-miterlimit:10;" x1="1539.8" y1="1444.79" x2="1539.8" y2="1558.76"></line>
	</g>
	<g>
		<path style="fill:none;stroke:#000000;stroke-linecap:round;stroke-linejoin:round;stroke-miterlimit:10;" d="M412.09,1032.44
			c-0.39-1.66-0.93-3.27-1.6-4.82"></path>
		<path style="fill:none;stroke:#000000;stroke-linecap:round;stroke-linejoin:round;stroke-miterlimit:10;" d="M384.16,1068.3
			c5.91-0.09,11.55-1.99,16.26-5.28"></path>
		<path style="fill:none;stroke:#000000;stroke-linecap:round;stroke-linejoin:round;stroke-miterlimit:10;" d="M360.6,1056.98
			c2.24,2.9,5.04,5.39,8.28,7.3"></path>
		<path style="fill:none;stroke:#000000;stroke-linecap:round;stroke-linejoin:round;stroke-miterlimit:10;" d="M354.62,1036.38
			c-0.12,1.26-0.16,2.51-0.11,3.75"></path>
		<path style="fill:none;stroke:#000000;stroke-linecap:round;stroke-linejoin:round;stroke-miterlimit:10;" d="M360.68,1021.12
			c-0.94,1.21-1.8,2.49-2.55,3.86"></path>
		<path style="fill:none;stroke:#000000;stroke-linecap:round;stroke-linejoin:round;stroke-miterlimit:10;" d="M386.15,1010.01
			c-3.2-0.28-6.36-0.01-9.37,0.72"></path>
		<path style="fill:none;stroke:#000000;stroke-linecap:round;stroke-linejoin:round;stroke-miterlimit:10;" d="M403.01,1017.24
			c-1.48-1.31-3.11-2.49-4.86-3.49"></path>
		<path style="fill:none;stroke:#000000;stroke-linecap:round;stroke-linejoin:round;stroke-miterlimit:10;" d="M404.96,1027.68
			c4.26,0.72,9.35-0.28,13.98-3.17c6.4-3.99,10.01-10.34,9.57-15.83c-4.74-2.81-12.03-2.36-18.43,1.63
			c-5.73,3.58-9.23,9.05-9.58,14.1c-0.01,0.17,0.02,0.33,0.04,0.49"></path>
		<path style="fill:none;stroke:#000000;stroke-linecap:round;stroke-linejoin:round;stroke-miterlimit:10;" d="M398.46,1017.76
			c1.09,0.75,2.11,1.59,3.06,2.49"></path>
		<path style="fill:none;stroke:#000000;stroke-linecap:round;stroke-linejoin:round;stroke-miterlimit:10;" d="M376.6,1014.14
			c2.97-0.85,6.13-1.17,9.32-0.89"></path>
		<path style="fill:none;stroke:#000000;stroke-linecap:round;stroke-linejoin:round;stroke-miterlimit:10;" d="M360.17,1028.13
			c0.48-1.04,1.03-2.04,1.64-2.99"></path>
		<path style="fill:none;stroke:#000000;stroke-linecap:round;stroke-linejoin:round;stroke-miterlimit:10;" d="M357.73,1039.13
			c0-1.06,0.06-2.12,0.2-3.19"></path>
		<path style="fill:none;stroke:#000000;stroke-linecap:round;stroke-linejoin:round;stroke-miterlimit:10;" d="M369.73,1060.99
			c-2.87-1.83-5.31-4.19-7.23-6.9"></path>
		<path style="fill:none;stroke:#000000;stroke-linecap:round;stroke-linejoin:round;stroke-miterlimit:10;" d="M397.45,1061.1
			c-3.32,2.08-7.11,3.41-11.08,3.82"></path>
		<path style="fill:none;stroke:#000000;stroke-linecap:round;stroke-linejoin:round;stroke-miterlimit:10;" d="M407.15,1028.01
			c0.51,1.08,0.95,2.2,1.31,3.35"></path>
		<path style="fill:none;stroke:#000000;stroke-linecap:round;stroke-linejoin:round;stroke-miterlimit:10;" d="M390.59,1044.15
			c-1.03,0.35-1.72,1.32-1.71,2.4c0.03,5.06,3.18,10.75,8.68,14.68c6.13,4.38,13.39,5.29,18.29,2.78c0.79-5.45-2.43-12.02-8.56-16.4
			C401.79,1043.67,395.39,1042.54,390.59,1044.15z"></path>
		<path style="fill:none;stroke:#000000;stroke-linecap:round;stroke-linejoin:round;stroke-miterlimit:10;" d="M368.4,1035.61
			c-0.44,0.28-0.66,0.81-0.53,1.32c0.59,2.37,2.71,4.69,5.73,5.91c3.37,1.36,6.88,0.97,8.9-0.76c-0.25-2.65-2.5-5.37-5.87-6.73
			C373.6,1034.12,370.47,1034.31,368.4,1035.61z"></path>
		
			<line style="fill:none;stroke:#000000;stroke-linecap:round;stroke-linejoin:round;stroke-miterlimit:10;" x1="365.78" y1="1035.2" x2="382.5" y2="1042.08"></line>
		<path style="fill:none;stroke:#000000;stroke-linecap:round;stroke-linejoin:round;stroke-miterlimit:10;" d="M364.01,1040.08
			c-0.35-0.99-1.29-1.64-2.34-1.62c-4.89,0.1-10.33,3.22-14.05,8.58c-4.14,5.98-4.92,13-2.43,17.7c5.28,0.68,11.57-2.51,15.72-8.49
			C364.63,1050.88,365.64,1044.69,364.01,1040.08z"></path>
		
			<line style="fill:none;stroke:#000000;stroke-linecap:round;stroke-linejoin:round;stroke-miterlimit:10;" x1="365.96" y1="1035.16" x2="345.2" y2="1064.74"></line>
		<path style="fill:none;stroke:#000000;stroke-linecap:round;stroke-linejoin:round;stroke-miterlimit:10;" d="M360.5,1034.43
			c0.91-0.58,1.36-1.69,1.09-2.74c-1.24-4.91-5.65-9.68-11.93-12.18c-7-2.79-14.26-1.94-18.43,1.67c0.54,5.48,5.23,11.1,12.23,13.89
			C349.74,1037.57,356.23,1037.14,360.5,1034.43z"></path>
		
			<line style="fill:none;stroke:#000000;stroke-linecap:round;stroke-linejoin:round;stroke-miterlimit:10;" x1="365.92" y1="1035.25" x2="331.24" y2="1021.18"></line>
		
			<line style="fill:none;stroke:#000000;stroke-linecap:round;stroke-linejoin:round;stroke-miterlimit:10;" x1="365.92" y1="1035.25" x2="370.07" y2="998.06"></line>
		<path style="fill:none;stroke:#000000;stroke-linecap:round;stroke-linejoin:round;stroke-miterlimit:10;" d="M394.76,1025.17
			c0.71,0.21,1.48-0.05,1.9-0.65c1.99-2.82,2.49-7.23,0.99-11.59c-1.67-4.87-5.34-8.25-9.06-8.79c-2.6,2.72-3.42,7.64-1.74,12.51
			C388.35,1021,391.46,1024.17,394.76,1025.17z"></path>
		
			<line style="fill:none;stroke:#000000;stroke-linecap:round;stroke-linejoin:round;stroke-miterlimit:10;" x1="396.22" y1="1026.31" x2="388.6" y2="1004.14"></line>
		
			<line style="fill:none;stroke:#000000;stroke-linecap:round;stroke-linejoin:round;stroke-miterlimit:10;" x1="402.03" y1="1024.89" x2="428.51" y2="1008.67"></line>
		
			<line style="fill:none;stroke:#000000;stroke-linecap:round;stroke-linejoin:round;stroke-miterlimit:10;" x1="402.64" y1="1034.09" x2="424.15" y2="1053.65"></line>
		<path style="fill:none;stroke:#000000;stroke-linecap:round;stroke-linejoin:round;stroke-miterlimit:10;" d="M374.42,1023.09
			c0.25-1.37,0.73-2.61,1.42-3.65c0.38-1.31,0.67-2.67,0.82-4.1c0.79-7.5-2-14.26-6.6-17.28c-5.13,2-9.26,8.04-10.05,15.53
			c-0.71,6.72,1.46,12.85,5.23,16.23c0.81,0.72,1.99,0.85,2.93,0.31C370.7,1028.67,372.88,1026.19,374.42,1023.09z"></path>
		
			<line style="fill:none;stroke:#000000;stroke-linecap:round;stroke-linejoin:round;stroke-miterlimit:10;" x1="385.8" y1="1042.1" x2="376.39" y2="1018.67"></line>
		
			<line style="fill:none;stroke:#000000;stroke-linecap:round;stroke-linejoin:round;stroke-miterlimit:10;" x1="385.51" y1="1042.19" x2="404.75" y2="1025.39"></line>
		<path style="fill:none;stroke:#000000;stroke-linecap:round;stroke-linejoin:round;stroke-miterlimit:10;" d="M407.28,1047.6
			c2.1,1.5,3.83,3.27,5.2,5.15c4.07,1.8,8.28,2.15,11.66,0.9c1.43-5.32-0.99-12.22-6.56-17.3c-4.03-3.67-8.85-5.58-13.17-5.64
			c-0.74,2.27-2.19,4.54-4.32,6.42c-0.14,0.12-0.3,0.2-0.44,0.31c0.52,2.65,1.78,5.36,3.63,7.87
			C404.65,1045.92,405.99,1046.68,407.28,1047.6z"></path>
		
			<line style="fill:none;stroke:#000000;stroke-linecap:round;stroke-linejoin:round;stroke-miterlimit:10;" x1="385.53" y1="1042.06" x2="415.84" y2="1064"></line>
		<path style="fill:none;stroke:#000000;stroke-linecap:round;stroke-linejoin:round;stroke-miterlimit:10;" d="M384.89,1047.5
			c-0.61-0.89-1.73-1.3-2.77-1c-4.87,1.4-9.48,5.97-11.78,12.33c-2.56,7.09-1.46,14.32,2.28,18.36c5.46-0.72,10.91-5.59,13.47-12.68
			C388.38,1058.15,387.74,1051.68,384.89,1047.5z"></path>
		
			<line style="fill:none;stroke:#000000;stroke-linecap:round;stroke-linejoin:round;stroke-miterlimit:10;" x1="385.53" y1="1042.06" x2="372.62" y2="1077.19"></line>
		<path style="fill:none;stroke:#000000;stroke-linecap:round;stroke-linejoin:round;stroke-miterlimit:10;" d="M387.68,1039.14
			c0.07,0.74,0.61,1.35,1.33,1.51c3.37,0.76,7.64-0.47,11.09-3.52c3.85-3.41,5.57-8.09,4.65-11.74c-3.51-1.36-8.37-0.23-12.22,3.18
			C389.08,1031.62,387.34,1035.7,387.68,1039.14z"></path>
		<path style="fill:none;stroke:#000000;stroke-linecap:round;stroke-linejoin:round;stroke-miterlimit:10;" d="M383.66,1039.09
			c0.71,0.17,1.46-0.13,1.84-0.75c1.81-2.9,2.05-7.28,0.33-11.5c-1.93-4.71-5.74-7.84-9.45-8.17c-2.41,2.83-2.94,7.74-1.01,12.45
			C377.1,1035.33,380.34,1038.28,383.66,1039.09z"></path>
	</g>
	<g>
		<g>
			<g>
				<g>
					<g>
						<path style="fill:none;stroke:#000000;stroke-linecap:round;stroke-linejoin:round;stroke-miterlimit:10;" d="M363.85,924.73
							c-1.22,1.16-1.75,2.89-1.38,4.53c0.83,3.62,2.62,10.42,5.67,17.41c0.24,0.54,1.05,0.41,1.09-0.17
							c0.5-7.25-0.07-13.93-0.53-17.73"></path>
						<path style="fill:none;stroke:#000000;stroke-linecap:round;stroke-linejoin:round;stroke-miterlimit:10;" d="M365.62,922.97
							c1.38-1.43,1.93-3.46,1.44-5.38c-0.93-3.62-2.76-9.93-5.67-16.55c-0.24-0.55-1.05-0.4-1.09,0.19
							c-0.48,7.26,0.16,13.79,0.67,17.47c1.69,0.78,2.97,2.24,3.48,4.05"></path>
					</g>
					<path style="fill:none;stroke:#000000;stroke-linecap:round;stroke-linejoin:round;stroke-miterlimit:10;" d="M385.44,934.15
						c-7.27-1.47-13.14-3.76-16.22-5.11c-1.48-0.65-2.69-1.78-3.43-3.21l-0.72-1.4c-0.16-0.3-0.01-0.68,0.31-0.79l1.22-0.43
						c1.97-0.7,4.14-0.48,5.94,0.59c3.02,1.8,8.03,5,13.37,9.36C386.35,933.53,386.01,934.27,385.44,934.15z M343.63,914.55
						c5.59,4.52,11.14,7.81,14.38,9.57c1.76,0.96,3.87,1.03,5.7,0.2l0.6-0.27c0.26-0.12,0.39-0.4,0.31-0.67l-0.18-0.65
						c-0.54-1.91-1.93-3.46-3.77-4.2c-3.42-1.37-9.51-3.57-16.58-4.98C343.53,913.44,343.18,914.18,343.63,914.55z"></path>
					<g>
						<path style="fill:none;stroke:#000000;stroke-linecap:round;stroke-linejoin:round;stroke-miterlimit:10;" d="M367.94,922.89
							c0.81-0.42,1.5-1.05,1.98-1.84c1.71-2.85,5.07-8.92,7.58-16.44c0.18-0.55-0.51-0.99-0.93-0.58
							c-4.35,4.17-7.84,8.32-10.15,11.26c0.24,0.84,0.45,1.63,0.62,2.31c0.49,1.93-0.05,3.95-1.44,5.38l-0.54,0.56"></path>
						<path style="fill:none;stroke:#000000;stroke-linecap:round;stroke-linejoin:round;stroke-miterlimit:10;" d="M364.32,924.05
							l-0.6,0.27c-0.95,0.43-1.96,0.6-2.97,0.55c-0.72,0.47-1.34,1.1-1.75,1.89c-1.67,3.15-4.63,9.17-6.97,16.33
							c-0.18,0.55,0.51,0.99,0.93,0.58c4.49-4.36,7.96-8.82,10.15-11.89c-0.24-0.94-0.46-1.82-0.62-2.53
							c-0.38-1.65,0.15-3.37,1.38-4.53l0.64-0.61"></path>
					</g>
					<g>
						<path style="fill:none;stroke:#000000;stroke-linecap:round;stroke-linejoin:round;stroke-miterlimit:10;" d="M362.24,924.78
							c-0.5,0.09-1,0.12-1.5,0.1l0,0C361.24,924.91,361.75,924.88,362.24,924.78z"></path>
						<path style="fill:none;stroke:#000000;stroke-linecap:round;stroke-linejoin:round;stroke-miterlimit:10;" d="M358.99,926.77
							c0.42-0.79,1.03-1.42,1.75-1.89c-0.94-0.05-1.87-0.29-2.73-0.76c-0.39-0.21-0.81-0.45-1.26-0.7
							c-4.04,1.65-9.25,4.03-14.08,6.97c-0.51,0.31-0.27,1.1,0.32,1.05c5.35-0.41,10.67-1.43,14.83-2.4
							C358.25,928.19,358.65,927.41,358.99,926.77z"></path>
						<path style="fill:none;stroke:#000000;stroke-linecap:round;stroke-linejoin:round;stroke-miterlimit:10;" d="M362.25,924.78
							c0.5-0.09,0.99-0.24,1.46-0.46C363.24,924.54,362.75,924.69,362.25,924.78z"></path>
						<path style="fill:none;stroke:#000000;stroke-linecap:round;stroke-linejoin:round;stroke-miterlimit:10;" d="M373.11,924.15
							c3.99-1.65,9.05-3.97,13.74-6.83c0.51-0.31,0.27-1.1-0.32-1.05c-5.55,0.42-11.08,1.51-15.31,2.51
							c-0.49,0.88-0.94,1.66-1.3,2.27"></path>
						<path style="fill:none;stroke:#000000;stroke-linecap:round;stroke-linejoin:round;stroke-miterlimit:10;" d="M362.24,924.78
							C362.25,924.78,362.25,924.78,362.24,924.78C362.25,924.78,362.25,924.78,362.24,924.78z"></path>
					</g>
				</g>
				<g>
					
						<line style="fill:none;stroke:#000000;stroke-linecap:round;stroke-linejoin:round;stroke-miterlimit:10;" x1="360.96" y1="918.69" x2="360.96" y2="918.69"></line>
					<path style="fill:none;stroke:#000000;stroke-linecap:round;stroke-linejoin:round;stroke-miterlimit:10;" d="M344.54,902.84
						c-0.63-0.38-1.36,0.36-0.97,0.98c2.5,4.09,5.77,8.48,8.25,11.65c3.69,1.09,6.78,2.23,8.86,3.07c0.1,0.04,0.19,0.11,0.29,0.16
						c-0.16-1.17-0.33-2.66-0.48-4.35C356.82,911.23,351.24,906.85,344.54,902.84z"></path>
					<path style="fill:none;stroke:#000000;stroke-linecap:round;stroke-linejoin:round;stroke-miterlimit:10;" d="M378.07,917.36
						c3.04-2.91,6.58-6.62,10.02-11.02c0.45-0.58-0.18-1.39-0.86-1.09c-4.02,1.81-9.01,4.52-12.51,6.49"></path>
					<path style="fill:none;stroke:#000000;stroke-linecap:round;stroke-linejoin:round;stroke-miterlimit:10;" d="M370.61,910.25
						c0.18-4.29,0.2-9.47-0.2-14.99c-0.05-0.75-1.08-0.92-1.38-0.23c-2.08,4.81-3.61,9.47-4.73,13.45"></path>
					<path style="fill:none;stroke:#000000;stroke-linecap:round;stroke-linejoin:round;stroke-miterlimit:10;" d="M378.34,927.5
						c4.73-0.35,10.16-0.96,15.49-2.06c0.73-0.15,0.78-1.19,0.06-1.39c-4.83-1.31-9.77-2.22-14.2-2.85"></path>
					<path style="fill:none;stroke:#000000;stroke-linecap:round;stroke-linejoin:round;stroke-miterlimit:10;" d="M351.42,920.18
						c-4.78,0.34-10.31,0.96-15.72,2.08c-0.73,0.15-0.78,1.19-0.06,1.39c4.83,1.31,9.78,2.22,14.2,2.85
						c2.47-1.2,4.85-2.24,6.91-3.09"></path>
					<path style="fill:none;stroke:#000000;stroke-linecap:round;stroke-linejoin:round;stroke-miterlimit:10;" d="M350.97,930.43
						c-2.9,2.99-6.24,6.67-9.54,10.93c-0.45,0.58,0.19,1.39,0.86,1.09c4.79-2.19,9.04-4.61,12.51-6.8"></path>
					<path style="fill:none;stroke:#000000;stroke-linecap:round;stroke-linejoin:round;stroke-miterlimit:10;" d="M363.09,931.79"></path>
					<path style="fill:none;stroke:#000000;stroke-linecap:round;stroke-linejoin:round;stroke-miterlimit:10;" d="M360.48,952.69
						c2.07-4.75,3.64-9.41,4.82-13.43c-0.95-2.83-1.68-5.39-2.21-7.47c-1.05,1.47-2.41,3.27-4.01,5.21
						c-0.26,4.42-0.36,9.78,0.03,15.43C359.17,953.18,360.18,953.38,360.48,952.69z"></path>
					<path style="fill:none;stroke:#000000;stroke-linecap:round;stroke-linejoin:round;stroke-miterlimit:10;" d="M369.12,933.08
						c3.33,3.01,8.83,7.55,15.88,11.79c0.63,0.38,1.36-0.35,0.98-0.98c-2.71-4.49-5.45-8.41-7.82-11.58"></path>
				</g>
			</g>
			<g>
				<path style="fill:none;stroke:#000000;stroke-linecap:round;stroke-linejoin:round;stroke-miterlimit:10;" d="M348.03,926.23
					c0.06,0.37,0.14,0.73,0.23,1.09"></path>
				<path style="fill:none;stroke:#000000;stroke-linecap:round;stroke-linejoin:round;stroke-miterlimit:10;" d="M379,933.46
					c0.18-0.25,0.35-0.5,0.51-0.75"></path>
				<path style="fill:none;stroke:#000000;stroke-linecap:round;stroke-linejoin:round;stroke-miterlimit:10;" d="M369.41,940.12
					c1.88-0.5,3.64-1.33,5.23-2.41"></path>
				<path style="fill:none;stroke:#000000;stroke-linecap:round;stroke-linejoin:round;stroke-miterlimit:10;" d="M357.41,938.93
					c0.5,0.25,1.02,0.47,1.55,0.67"></path>
				<path style="fill:none;stroke:#000000;stroke-linecap:round;stroke-linejoin:round;stroke-miterlimit:10;" d="M349.39,930.67
					c0.14,0.32,0.31,0.62,0.47,0.93"></path>
				<path style="fill:none;stroke:#000000;stroke-linecap:round;stroke-linejoin:round;stroke-miterlimit:10;" d="M364.87,940.69
					c0.32,0,0.63,0.01,0.94-0.01"></path>
				<path style="fill:none;stroke:#000000;stroke-linecap:round;stroke-linejoin:round;stroke-miterlimit:10;" d="M360.14,907.06
					c-1.95,0.58-3.77,1.49-5.39,2.7"></path>
				<path style="fill:none;stroke:#000000;stroke-linecap:round;stroke-linejoin:round;stroke-miterlimit:10;" d="M372.57,908.11
					c-0.6-0.3-1.23-0.56-1.87-0.79"></path>
				<path style="fill:none;stroke:#000000;stroke-linecap:round;stroke-linejoin:round;stroke-miterlimit:10;" d="M350.7,914.02
					c-0.21,0.32-0.41,0.65-0.6,0.99"></path>
				<path style="fill:none;stroke:#000000;stroke-linecap:round;stroke-linejoin:round;stroke-miterlimit:10;" d="M348.64,918.28
					c-0.12,0.36-0.22,0.73-0.31,1.1c-0.09,0.36-0.14,0.72-0.21,1.07"></path>
				<path style="fill:none;stroke:#000000;stroke-linecap:round;stroke-linejoin:round;stroke-miterlimit:10;" d="M376.49,910.76
					c-0.32-0.29-0.66-0.57-1.01-0.84"></path>
				<path style="fill:none;stroke:#000000;stroke-linecap:round;stroke-linejoin:round;stroke-miterlimit:10;" d="M382.05,921.57
					c-0.06-0.49-0.13-0.98-0.23-1.46"></path>
				<path style="fill:none;stroke:#000000;stroke-linecap:round;stroke-linejoin:round;stroke-miterlimit:10;" d="M381.1,929.48
					c0.22-0.59,0.41-1.19,0.57-1.82c0.04-0.15,0.05-0.3,0.09-0.45"></path>
				<path style="fill:none;stroke:#000000;stroke-linecap:round;stroke-linejoin:round;stroke-miterlimit:10;" d="M380.84,916.93
					c-0.22-0.53-0.47-1.06-0.75-1.56"></path>
				<path style="fill:none;stroke:#000000;stroke-linecap:round;stroke-linejoin:round;stroke-miterlimit:10;" d="M364.93,906.36
					c-0.47,0-0.93,0.02-1.39,0.06"></path>
			</g>
		</g>
	</g>
	<g>
		<path style="fill:none;stroke:#000000;stroke-linecap:round;stroke-linejoin:round;stroke-miterlimit:10;" d="M193.1,595.81
			c1.65,0.42,3.33,0.7,5.01,0.84"></path>
		<path style="fill:none;stroke:#000000;stroke-linecap:round;stroke-linejoin:round;stroke-miterlimit:10;" d="M174.4,554.38
			c-2.67,5.27-3.63,11.15-2.92,16.84"></path>
		<path style="fill:none;stroke:#000000;stroke-linecap:round;stroke-linejoin:round;stroke-miterlimit:10;" d="M195.41,538.82
			c-3.61,0.63-7.12,1.94-10.32,3.92"></path>
		<path style="fill:none;stroke:#000000;stroke-linecap:round;stroke-linejoin:round;stroke-miterlimit:10;" d="M216.42,543.14
			c-1.06-0.69-2.15-1.31-3.26-1.85"></path>
		<path style="fill:none;stroke:#000000;stroke-linecap:round;stroke-linejoin:round;stroke-miterlimit:10;" d="M227.09,555.62
			c-0.63-1.4-1.37-2.75-2.22-4.05"></path>
		<path style="fill:none;stroke:#000000;stroke-linecap:round;stroke-linejoin:round;stroke-miterlimit:10;" d="M225.03,583.33
			c1.74-2.7,2.98-5.62,3.73-8.63"></path>
		<path style="fill:none;stroke:#000000;stroke-linecap:round;stroke-linejoin:round;stroke-miterlimit:10;" d="M210.77,594.87
			c1.85-0.7,3.65-1.59,5.36-2.67"></path>
		<path style="fill:none;stroke:#000000;stroke-linecap:round;stroke-linejoin:round;stroke-miterlimit:10;" d="M200.63,591.73
			c-2.62,3.44-4.11,8.41-3.72,13.85c0.54,7.52,4.48,13.68,9.54,15.85c4.7-2.88,7.7-9.54,7.16-17.06c-0.49-6.74-3.7-12.39-8.01-15.05
			c-0.14-0.09-0.3-0.13-0.45-0.19"></path>
		<path style="fill:none;stroke:#000000;stroke-linecap:round;stroke-linejoin:round;stroke-miterlimit:10;" d="M212.44,590.6
			c-1.17,0.61-2.39,1.13-3.63,1.55"></path>
		<path style="fill:none;stroke:#000000;stroke-linecap:round;stroke-linejoin:round;stroke-miterlimit:10;" d="M225.84,572.95
			c-0.64,3.02-1.82,5.96-3.56,8.66"></path>
		<path style="fill:none;stroke:#000000;stroke-linecap:round;stroke-linejoin:round;stroke-miterlimit:10;" d="M221.13,551.9
			c0.69,0.91,1.32,1.86,1.88,2.84"></path>
		<path style="fill:none;stroke:#000000;stroke-linecap:round;stroke-linejoin:round;stroke-miterlimit:10;" d="M212.53,544.61
			c0.93,0.49,1.84,1.05,2.73,1.66"></path>
		<path style="fill:none;stroke:#000000;stroke-linecap:round;stroke-linejoin:round;stroke-miterlimit:10;" d="M187.6,545.03
			c2.96-1.68,6.18-2.75,9.48-3.18"></path>
		<path style="fill:none;stroke:#000000;stroke-linecap:round;stroke-linejoin:round;stroke-miterlimit:10;" d="M174.57,569.5
			c-0.29-3.91,0.3-7.87,1.79-11.58"></path>
		<path style="fill:none;stroke:#000000;stroke-linecap:round;stroke-linejoin:round;stroke-miterlimit:10;" d="M199.31,593.5
			c-1.2-0.05-2.39-0.19-3.57-0.4"></path>
		<path style="fill:none;stroke:#000000;stroke-linecap:round;stroke-linejoin:round;stroke-miterlimit:10;" d="M192.76,571.33
			c0.17-1.07-0.36-2.13-1.32-2.63c-4.49-2.34-10.99-2.2-17.03,0.83c-6.74,3.38-10.92,9.38-10.99,14.88
			c4.46,3.24,11.76,3.46,18.5,0.08C187.96,581.46,191.95,576.33,192.76,571.33z"></path>
		<path style="fill:none;stroke:#000000;stroke-linecap:round;stroke-linejoin:round;stroke-miterlimit:10;" d="M210.67,555.68
			c-0.04-0.52-0.41-0.96-0.92-1.09c-2.37-0.59-5.41,0.21-7.9,2.31c-2.78,2.35-4.07,5.64-3.48,8.23c2.46,1.02,5.92,0.3,8.7-2.05
			C209.56,560.98,210.85,558.12,210.67,555.68z"></path>
		
			<line style="fill:none;stroke:#000000;stroke-linecap:round;stroke-linejoin:round;stroke-miterlimit:10;" x1="212.25" y1="553.56" x2="198.37" y2="565.14"></line>
		<path style="fill:none;stroke:#000000;stroke-linecap:round;stroke-linejoin:round;stroke-miterlimit:10;" d="M208.77,549.72
			c1.03,0.15,2.06-0.38,2.53-1.31c2.19-4.37,1.97-10.64-1.04-16.43c-3.36-6.46-9.2-10.42-14.52-10.4
			c-3.07,4.35-3.18,11.41,0.18,17.87C198.92,545.23,203.93,549.01,208.77,549.72z"></path>
		
			<line style="fill:none;stroke:#000000;stroke-linecap:round;stroke-linejoin:round;stroke-miterlimit:10;" x1="212.21" y1="553.74" x2="195.73" y2="521.58"></line>
		<path style="fill:none;stroke:#000000;stroke-linecap:round;stroke-linejoin:round;stroke-miterlimit:10;" d="M215.4,549.26
			c0.09,1.08,0.86,1.99,1.91,2.24c4.92,1.2,11.2-0.48,16.34-4.87c5.73-4.89,8.37-11.71,7.12-17.08c-5.1-2.08-12.25-0.55-17.99,4.34
			C217.64,538.28,214.99,544.21,215.4,549.26z"></path>
		
			<line style="fill:none;stroke:#000000;stroke-linecap:round;stroke-linejoin:round;stroke-miterlimit:10;" x1="212.15" y1="553.66" x2="240.77" y2="529.55"></line>
		
			<line style="fill:none;stroke:#000000;stroke-linecap:round;stroke-linejoin:round;stroke-miterlimit:10;" x1="212.15" y1="553.66" x2="243.11" y2="574.68"></line>
		<path style="fill:none;stroke:#000000;stroke-linecap:round;stroke-linejoin:round;stroke-miterlimit:10;" d="M207.6,583.88
			c-0.52,0.53-0.64,1.33-0.31,1.99c1.57,3.08,5.23,5.58,9.79,6.29c5.08,0.79,9.79-0.88,12.01-3.92c-1.19-3.57-5.17-6.59-10.25-7.38
			C214.28,580.15,210.03,581.42,207.6,583.88z"></path>
		
			<line style="fill:none;stroke:#000000;stroke-linecap:round;stroke-linejoin:round;stroke-miterlimit:10;" x1="205.92" y1="584.64" x2="229.09" y2="588.24"></line>
		
			<line style="fill:none;stroke:#000000;stroke-linecap:round;stroke-linejoin:round;stroke-miterlimit:10;" x1="204.46" y1="590.43" x2="206.45" y2="621.43"></line>
		
			<line style="fill:none;stroke:#000000;stroke-linecap:round;stroke-linejoin:round;stroke-miterlimit:10;" x1="196.04" y1="586.68" x2="168.71" y2="596.59"></line>
		<path style="fill:none;stroke:#000000;stroke-linecap:round;stroke-linejoin:round;stroke-miterlimit:10;" d="M218.93,566.86
			c1.1,0.86,1.97,1.86,2.57,2.96c0.98,0.94,2.05,1.84,3.24,2.64c6.26,4.19,13.54,4.89,18.37,2.23c0.62-5.47-2.79-11.94-9.05-16.14
			c-5.61-3.76-12.04-4.7-16.79-2.95c-1.02,0.38-1.68,1.37-1.64,2.45C215.73,560.96,216.91,564.04,218.93,566.86z"></path>
		
			<line style="fill:none;stroke:#000000;stroke-linecap:round;stroke-linejoin:round;stroke-miterlimit:10;" x1="196.81" y1="568.06" x2="221.93" y2="570.66"></line>
		
			<line style="fill:none;stroke:#000000;stroke-linecap:round;stroke-linejoin:round;stroke-miterlimit:10;" x1="196.87" y1="567.76" x2="202.75" y2="592.61"></line>
		<path style="fill:none;stroke:#000000;stroke-linecap:round;stroke-linejoin:round;stroke-miterlimit:10;" d="M181.93,584.49
			c-2.31,1.16-4.68,1.86-6.98,2.2c-3.49,2.76-5.77,6.32-6.23,9.9c4.04,3.74,11.27,4.83,18.36,2.27c5.13-1.85,9.06-5.23,11.14-9.02
			c-1.66-1.71-2.99-4.06-3.67-6.81c-0.04-0.18-0.04-0.35-0.07-0.53c-2.59-0.78-5.57-0.92-8.65-0.46
			C184.64,582.94,183.34,583.78,181.93,584.49z"></path>
		
			<line style="fill:none;stroke:#000000;stroke-linecap:round;stroke-linejoin:round;stroke-miterlimit:10;" x1="196.97" y1="567.83" x2="163.42" y2="584.41"></line>
		<path style="fill:none;stroke:#000000;stroke-linecap:round;stroke-linejoin:round;stroke-miterlimit:10;" d="M192.46,564.73
			c1.08-0.12,1.96-0.93,2.18-1.99c1.03-4.96-0.86-11.18-5.41-16.17c-5.08-5.57-11.98-7.98-17.3-6.55
			c-1.91,5.17-0.15,12.26,4.93,17.83C181.41,562.85,187.43,565.3,192.46,564.73z"></path>
		
			<line style="fill:none;stroke:#000000;stroke-linecap:round;stroke-linejoin:round;stroke-miterlimit:10;" x1="196.97" y1="567.83" x2="171.92" y2="540.03"></line>
		<path style="fill:none;stroke:#000000;stroke-linecap:round;stroke-linejoin:round;stroke-miterlimit:10;" d="M198.55,571.09
			c-0.68-0.28-1.48-0.09-1.95,0.48c-2.24,2.63-3.15,6.97-2.06,11.45c1.22,5,4.56,8.7,8.21,9.59c2.84-2.47,4.11-7.29,2.89-12.29
			C204.55,575.84,201.75,572.4,198.55,571.09z"></path>
		<path style="fill:none;stroke:#000000;stroke-linecap:round;stroke-linejoin:round;stroke-miterlimit:10;" d="M200.47,567.57
			c-0.48,0.55-0.56,1.35-0.19,1.98c1.72,2.95,5.48,5.21,10.02,5.65c5.06,0.49,9.61-1.42,11.63-4.55c-1.38-3.45-5.47-6.21-10.54-6.7
			C206.86,563.51,202.73,565.01,200.47,567.57z"></path>
	</g>
</g>
<g id="floor">
	<g>
		
			<rect x="122.3" y="672.94" transform="matrix(5.782847e-11 -1 1 5.782847e-11 -383.8827 978.2086)" style="fill:none;stroke:#000000;stroke-linecap:round;stroke-linejoin:round;stroke-miterlimit:10;" width="349.73" height="16.21"></rect>
		
			<rect x="123.38" y="654.95" transform="matrix(8.654683e-11 -1 1 8.654683e-11 -382.7997 979.2916)" style="fill:none;stroke:#000000;stroke-linecap:round;stroke-linejoin:round;stroke-miterlimit:10;" width="349.73" height="52.2"></rect>
		<g>
			
				<rect x="292.76" y="693.38" transform="matrix(4.476870e-11 -1 1 4.476870e-11 -404.3188 998.6447)" style="fill:none;stroke:#000000;stroke-linecap:round;stroke-linejoin:round;stroke-miterlimit:10;" width="8.8" height="16.21"></rect>
			<g>
				<g>
					<path style="fill:none;stroke:#000000;stroke-linecap:round;stroke-linejoin:round;stroke-miterlimit:10;" d="M406.93,749.21
						c-25.33-26.72-62.33-43.38-101.67-43.38"></path>
					
						<line style="fill:none;stroke:#000000;stroke-linecap:round;stroke-linejoin:round;stroke-miterlimit:10;" x1="305.27" y1="846.9" x2="406.93" y2="749.21"></line>
				</g>
			</g>
		</g>
		
			<line style="fill:none;stroke:#000000;stroke-linecap:round;stroke-linejoin:round;stroke-miterlimit:10;" x1="305.27" y1="846.9" x2="289.06" y2="846.9"></line>
		
			<line style="fill:none;stroke:#000000;stroke-linecap:round;stroke-linejoin:round;stroke-miterlimit:10;" x1="305.27" y1="514.57" x2="289.06" y2="514.57"></line>
		<polygon style="fill:none;stroke:#000000;stroke-linecap:round;stroke-linejoin:round;stroke-miterlimit:10;" points="
			273.26,907.26 220.11,907.26 103.9,779.91 103.9,582.22 220.09,454.87 272.92,454.87 272.92,451 218.4,451 218.4,451.02 
			218.39,451 100,580.75 100.03,580.78 100.03,781.37 100.01,781.39 218.4,911.13 218.4,911.13 273.26,911.13 		"></polygon>
	</g>
	<g>
		<path style="fill:none;stroke:#000000;stroke-linecap:round;stroke-linejoin:round;stroke-miterlimit:10;" d="M1720.12,899.07
			c98.92,0,179.88,80.01,179.88,178.93h-178.41"></path>
		
			<rect x="1707.02" y="1073.77" transform="matrix(-4.138461e-11 -1 1 -4.138461e-11 629.0245 2795.0403)" style="fill:none;stroke:#000000;stroke-linecap:round;stroke-linejoin:round;stroke-miterlimit:10;" width="10.02" height="18.48"></rect>
		
			<rect x="1706.94" y="884.74" transform="matrix(-4.538674e-11 -1 1 -4.538674e-11 818.0549 2606.01)" style="fill:none;stroke:#000000;stroke-linecap:round;stroke-linejoin:round;stroke-miterlimit:10;" width="10.18" height="18.48"></rect>
	</g>
	
		<line style="fill:none;stroke:#000000;stroke-linecap:round;stroke-linejoin:round;stroke-miterlimit:10;stroke-dasharray:10,10;" x1="1624.55" y1="1126.7" x2="1452.7" y2="1126.7"></line>
	
		<line style="fill:none;stroke:#000000;stroke-linecap:round;stroke-linejoin:round;stroke-miterlimit:10;stroke-dasharray:10,10;" x1="1333.72" y1="923.98" x2="1333.72" y2="1123.71"></line>
	
		<line style="fill:none;stroke:#000000;stroke-linecap:round;stroke-linejoin:round;stroke-miterlimit:10;stroke-dasharray:10,10;" x1="983.6" y1="549.03" x2="983.6" y2="803.64"></line>
	<g>
		<path style="fill:none;stroke:#000000;stroke-linecap:round;stroke-linejoin:round;stroke-miterlimit:10;" d="M1393.54,805.78
			c0,76.83,62.15,139.72,138.97,139.72V806.93"></path>
		
			<rect x="1532.52" y="792.33" transform="matrix(-1 -8.740310e-11 8.740310e-11 -1 3072.8167 1602.7347)" style="fill:none;stroke:#000000;stroke-linecap:round;stroke-linejoin:round;stroke-miterlimit:10;" width="7.78" height="18.08"></rect>
		
			<rect x="1385.64" y="792.33" transform="matrix(-1 -9.041402e-11 9.041402e-11 -1 2779.1775 1602.7347)" style="fill:none;stroke:#000000;stroke-linecap:round;stroke-linejoin:round;stroke-miterlimit:10;" width="7.91" height="18.08"></rect>
	</g>
	<g>
		<path style="fill:none;stroke:#000000;stroke-linecap:round;stroke-linejoin:round;stroke-miterlimit:10;" d="M1254.25,635.9
			c-76.83,0-139.72,62.15-139.72,138.97h138.57"></path>
		
			<rect x="1254.77" y="769.73" transform="matrix(8.670226e-11 -1 1 8.670226e-11 479.8945 2037.4362)" style="fill:none;stroke:#000000;stroke-linecap:round;stroke-linejoin:round;stroke-miterlimit:10;" width="7.78" height="18.08"></rect>
		
			<rect x="1254.71" y="622.91" transform="matrix(9.041396e-11 -1 1 9.041396e-11 626.7141 1890.6166)" style="fill:none;stroke:#000000;stroke-linecap:round;stroke-linejoin:round;stroke-miterlimit:10;" width="7.91" height="18.08"></rect>
	</g>
	<g>
		<path style="fill:none;stroke:#000000;stroke-linecap:round;stroke-linejoin:round;stroke-miterlimit:10;" d="M808.97,963.67
			c0-86.36,69.86-157.05,156.22-157.05v156.71"></path>
		
			<rect x="965.19" y="963.33" transform="matrix(-1 4.199562e-11 -4.199562e-11 -1 1939.1252 1942.1271)" style="fill:none;stroke:#000000;stroke-linecap:round;stroke-linejoin:round;stroke-miterlimit:10;" width="8.75" height="15.47"></rect>
		
			<rect x="800.08" y="963.33" transform="matrix(-1 4.502564e-11 -4.502564e-11 -1 1609.0474 1942.1271)" style="fill:none;stroke:#000000;stroke-linecap:round;stroke-linejoin:round;stroke-miterlimit:10;" width="8.89" height="15.47"></rect>
	</g>
	<g>
		<g id="LWPOLYLINE_219_">
			
				<rect x="1209.19" y="1193.59" style="fill:none;stroke:#000000;stroke-linecap:round;stroke-linejoin:round;stroke-miterlimit:10;" width="116.99" height="116.77"></rect>
		</g>
		<g id="LWPOLYLINE_218_">
			
				<line style="fill:none;stroke:#000000;stroke-linecap:round;stroke-linejoin:round;stroke-miterlimit:10;" x1="1257.43" y1="1281.33" x2="1218.84" y2="1281.33"></line>
		</g>
		<g id="LWPOLYLINE_217_">
			
				<line style="fill:none;stroke:#000000;stroke-linecap:round;stroke-linejoin:round;stroke-miterlimit:10;" x1="1238.14" y1="1261.97" x2="1238.14" y2="1300.68"></line>
		</g>
		<g id="LWPOLYLINE_216_">
			
				<line style="fill:none;stroke:#000000;stroke-linecap:round;stroke-linejoin:round;stroke-miterlimit:10;" x1="1315.32" y1="1281.33" x2="1276.73" y2="1281.33"></line>
		</g>
		<g id="LWPOLYLINE_215_">
			
				<line style="fill:none;stroke:#000000;stroke-linecap:round;stroke-linejoin:round;stroke-miterlimit:10;" x1="1296.03" y1="1261.97" x2="1296.03" y2="1300.68"></line>
		</g>
		<g id="LWPOLYLINE_214_">
			
				<line style="fill:none;stroke:#000000;stroke-linecap:round;stroke-linejoin:round;stroke-miterlimit:10;" x1="1315.32" y1="1223.27" x2="1276.73" y2="1223.27"></line>
		</g>
		<g id="LWPOLYLINE_213_">
			
				<line style="fill:none;stroke:#000000;stroke-linecap:round;stroke-linejoin:round;stroke-miterlimit:10;" x1="1296.03" y1="1203.91" x2="1296.03" y2="1242.62"></line>
		</g>
		<g id="LWPOLYLINE_212_">
			
				<line style="fill:none;stroke:#000000;stroke-linecap:round;stroke-linejoin:round;stroke-miterlimit:10;" x1="1257.43" y1="1223.27" x2="1218.84" y2="1223.27"></line>
		</g>
		<g id="LWPOLYLINE_211_">
			
				<line style="fill:none;stroke:#000000;stroke-linecap:round;stroke-linejoin:round;stroke-miterlimit:10;" x1="1238.14" y1="1203.91" x2="1238.14" y2="1242.62"></line>
		</g>
		
			<ellipse style="fill:none;stroke:#000000;stroke-linecap:round;stroke-linejoin:round;stroke-miterlimit:10;" cx="1238.14" cy="1223.26" rx="15.54" ry="15.49"></ellipse>
		
			<ellipse style="fill:none;stroke:#000000;stroke-linecap:round;stroke-linejoin:round;stroke-miterlimit:10;" cx="1238.14" cy="1281.33" rx="15.54" ry="15.49"></ellipse>
		
			<ellipse style="fill:none;stroke:#000000;stroke-linecap:round;stroke-linejoin:round;stroke-miterlimit:10;" cx="1296.03" cy="1223.26" rx="15.54" ry="15.49"></ellipse>
		
			<ellipse style="fill:none;stroke:#000000;stroke-linecap:round;stroke-linejoin:round;stroke-miterlimit:10;" cx="1296.03" cy="1281.33" rx="15.54" ry="15.49"></ellipse>
	</g>
	<g>
		<g id="LWPOLYLINE_210_">
			
				<rect x="1209.19" y="1442.33" style="fill:none;stroke:#000000;stroke-linecap:round;stroke-linejoin:round;stroke-miterlimit:10;" width="116.99" height="116.32"></rect>
		</g>
		<g id="LWPOLYLINE_209_">
			<path style="fill:none;stroke:#000000;stroke-linecap:round;stroke-linejoin:round;stroke-miterlimit:10;" d="M1225.76,1452.02
				l74.05,0c3.77,0,6.83,3.04,6.83,6.78c0,0,0,83.37,0,83.37c0,3.75-3.05,6.79-6.82,6.79c0,0-74.05,0-74.05,0
				c-3.77,0-6.82-3.04-6.82-6.78c0,0,0-83.37,0-83.37C1218.94,1455.06,1221.99,1452.02,1225.76,1452.02z"></path>
		</g>
		<g id="LWPOLYLINE_208_">
			<path style="fill:none;stroke:#000000;stroke-linecap:round;stroke-linejoin:round;stroke-miterlimit:10;" d="M1280.83,1481.1
				c0-3.76,3.06-6.8,6.84-6.8c3.78,0,6.84,3.04,6.84,6.8c0,3.76-3.06,6.8-6.84,6.8C1283.89,1487.9,1280.83,1484.86,1280.83,1481.1z"></path>
		</g>
	</g>
	<g>
		<g>
			<g id="LWPOLYLINE_221_">
				
					<rect x="1551.84" y="463.56" style="fill:none;stroke:#000000;stroke-linecap:round;stroke-linejoin:round;stroke-miterlimit:10;" width="133.46" height="328.73"></rect>
			</g>
			<g id="LWPOLYLINE_220_">
				<path style="fill:none;stroke:#000000;stroke-linecap:round;stroke-linejoin:round;stroke-miterlimit:10;" d="M1674.62,747.75
					l0-215.25c0-31.61-25.09-57.23-56.05-57.23c-30.96,0-56.05,25.63-56.05,57.24l0,215.25c0,15.11,11.89,27.4,26.69,27.58
					l58.72-0.01c14.74,0,26.69-12.21,26.69-27.26"></path>
			</g>
			<g id="LWPOLYLINE_195_">
				<path style="fill:none;stroke:#000000;stroke-linecap:round;stroke-linejoin:round;stroke-miterlimit:10;" d="M1659.37,679.71
					l0-147.2c0-23.01-18.27-41.66-40.8-41.66c-22.53,0-40.8,18.66-40.8,41.67l0,145.05c0.02,22.17,17.02,40.44,38.7,41.6
					C1638.98,720.37,1658.19,702.7,1659.37,679.71z"></path>
			</g>
			<g id="LWPOLYLINE_194_">
				<path style="fill:none;stroke:#000000;stroke-linecap:round;stroke-linejoin:round;stroke-miterlimit:10;" d="M1618.57,524.88
					c-4.13,0-7.47,3.42-7.47,7.63c0,4.22,3.35,7.63,7.47,7.63c4.13,0,7.47-3.42,7.47-7.63
					C1626.04,528.3,1622.69,524.88,1618.57,524.88z"></path>
			</g>
		</g>
		<g>
			<g id="LWPOLYLINE_193_">
				<path style="fill:none;stroke:#000000;stroke-linecap:round;stroke-linejoin:round;stroke-miterlimit:10;" d="M1376.79,519.54
					l-0.01,54.01c0,18.79-15.55,34.02-34.74,34.02c-19.19,0-34.74-15.23-34.75-34.03l0.01-54.01c0-4.7,3.89-8.5,8.68-8.5l52.12,0
					C1372.91,511.04,1376.79,514.85,1376.79,519.54z"></path>
			</g>
			<g id="LWPOLYLINE_192_">
				<path style="fill:none;stroke:#000000;stroke-linecap:round;stroke-linejoin:round;stroke-miterlimit:10;" d="M1314.25,573.54
					l0.01-30.21c0-15.03,12.44-27.21,27.79-27.22c15.35,0,27.8,12.19,27.8,27.22l-0.01,30.21c0,15.03-12.44,27.21-27.79,27.22
					C1326.7,600.76,1314.25,588.58,1314.25,573.54z"></path>
			</g>
			<g id="LWPOLYLINE_191_">
				<path style="fill:none;stroke:#000000;stroke-linecap:round;stroke-linejoin:round;stroke-miterlimit:10;" d="M1331.62,562.59
					l0.01-22.08c0-5.64,4.67-10.21,10.42-10.21c5.76,0,10.42,4.57,10.42,10.21l-0.01,22.08c0,5.64-4.67,10.2-10.42,10.2
					C1336.29,572.8,1331.62,568.23,1331.62,562.59z"></path>
			</g>
		</g>
		<g>
			<g id="LWPOLYLINE_190_">
				<path style="fill:none;stroke:#000000;stroke-linecap:round;stroke-linejoin:round;stroke-miterlimit:10;" d="M1530.02,463.62
					l-0.13,48.57c-0.02,6.84-4.36,12.89-10.74,14.97c-23.16,7.55-48.06,7.48-71.19-0.19c-6.37-2.11-10.68-8.19-10.66-15.03
					l0.12-48.57"></path>
			</g>
			<g id="LWPOLYLINE_180_">
				<path style="fill:none;stroke:#000000;stroke-linecap:round;stroke-linejoin:round;stroke-miterlimit:10;" d="M1459,477.02
					c-5.11-0.01-9.27,4.21-9.28,9.43l-0.04,15.13c-0.01,3.46,2.2,6.53,5.44,7.55c18.56,5.86,38.4,5.91,56.99,0.15
					c3.24-1.01,5.46-4.06,5.48-7.52l0.04-15.13c0.01-5.22-4.12-9.47-9.24-9.48"></path>
			</g>
			<g id="LWPOLYLINE_179_">
				<path style="fill:none;stroke:#000000;stroke-linecap:round;stroke-linejoin:round;stroke-miterlimit:10;" d="M1523.79,486.65
					l-0.07,25.52c-0.01,4.1-2.61,7.73-6.44,8.98c-21.93,7.15-45.51,7.09-67.41-0.18c-3.82-1.27-6.4-4.91-6.4-9.02l0.07-25.52
					c0.01-5.22,4.17-9.44,9.28-9.43l61.73,0.17C1519.67,477.19,1523.81,481.43,1523.79,486.65z"></path>
			</g>
			<g id="LWPOLYLINE_178_">
				<path style="fill:none;stroke:#000000;stroke-linecap:round;stroke-linejoin:round;stroke-miterlimit:10;" d="M1483.68,479.9
					c2.29,0.01,4.15,1.91,4.15,4.25c-0.01,2.34-1.87,4.24-4.17,4.23c-2.29-0.01-4.15-1.91-4.14-4.25
					C1479.53,481.79,1481.39,479.9,1483.68,479.9z"></path>
			</g>
		</g>
	</g>
	<g>
		<g id="LWPOLYLINE_177_">
			
				<rect x="1341.26" y="1328.73" style="fill:none;stroke:#000000;stroke-linecap:round;stroke-linejoin:round;stroke-miterlimit:10;" width="116" height="116"></rect>
		</g>
		<g>
			<g id="LWPOLYLINE_176_">
				<polyline style="fill:none;stroke:#000000;stroke-linecap:round;stroke-linejoin:round;stroke-miterlimit:10;" points="
					1372.59,1353.3 1412.92,1387.16 1385.6,1387.23 1425.93,1421.08 				"></polyline>
			</g>
			<g id="LWPOLYLINE_175_">
				<path style="fill:none;stroke:#000000;stroke-linecap:round;stroke-linejoin:round;stroke-miterlimit:10;" d="M1368.91,1387.27
					c0.05,16.41,13.67,29.69,30.43,29.64c16.76-0.04,30.32-13.38,30.28-29.8c-0.05-16.42-13.67-29.69-30.43-29.65
					C1382.41,1357.51,1368.86,1370.86,1368.91,1387.27z"></path>
			</g>
		</g>
	</g>
	<g>
		
			<rect x="122.3" y="1252.93" transform="matrix(1.293525e-11 1 -1 1.293525e-11 1558.1975 963.8716)" style="fill:none;stroke:#000000;stroke-linecap:round;stroke-linejoin:round;stroke-miterlimit:10;" width="349.73" height="16.21"></rect>
		
			<rect x="123.38" y="1234.93" transform="matrix(4.164828e-11 1 -1 4.164828e-11 1559.2805 962.7886)" style="fill:none;stroke:#000000;stroke-linecap:round;stroke-linejoin:round;stroke-miterlimit:10;" width="349.73" height="52.2"></rect>
		<g>
			
				<rect x="292.76" y="1316.7" transform="matrix(-1.836970e-16 1 -1 -1.836970e-16 1621.9612 1027.6353)" style="fill:none;stroke:#000000;stroke-linecap:round;stroke-linejoin:round;stroke-miterlimit:10;" width="8.8" height="16.21"></rect>
		</g>
		
			<line style="fill:none;stroke:#000000;stroke-linecap:round;stroke-linejoin:round;stroke-miterlimit:10;" x1="305.27" y1="1095.18" x2="289.06" y2="1095.18"></line>
		
			<line style="fill:none;stroke:#000000;stroke-linecap:round;stroke-linejoin:round;stroke-miterlimit:10;" x1="305.27" y1="1427.51" x2="289.06" y2="1427.51"></line>
	</g>
	<g id="_x38_">
		
			<rect x="215.19" y="1492.13" transform="matrix(2.928108e-11 -1 1 2.928108e-11 -1219.9788 1816.4707)" width="166.11" height="52.2"></rect>
		
			<rect x="182.28" y="944.96" transform="matrix(4.491369e-11 -1 1 4.491369e-11 -672.8107 1269.3026)" width="231.94" height="52.2"></rect>
		
			<rect x="244.14" y="426.77" transform="matrix(6.902996e-11 -1 1 6.902996e-11 -154.6221 751.1141)" width="108.21" height="52.2"></rect>
		
			<rect x="1002.15" y="861.97" transform="matrix(4.498186e-11 -1 1 4.498186e-11 -556.5051 2603.4353)" width="42.62" height="1435.99"></rect>
		
			<rect x="1002.15" y="-297.97" transform="matrix(4.500317e-11 -1 1 4.500317e-11 603.4354 1443.495)" width="42.62" height="1435.99"></rect>
		
			<rect x="1494.89" y="642.33" transform="matrix(5.167872e-11 -1 1 5.167872e-11 1060.4674 2383.7881)" width="454.48" height="38.67"></rect>
		
			<rect x="1484.16" y="1306.66" transform="matrix(1.989348e-11 -1 1 1.989348e-11 396.1316 3048.124)" width="475.93" height="38.67"></rect>
		
			<rect x="1617.81" y="714.82" transform="matrix(5.939611e-11 -1 1 5.939611e-11 825.4839 2427.4453)" width="17.3" height="172.33"></rect>
		
			<rect x="1522.77" y="614.95" transform="matrix(4.325435e-11 -1 1 4.325435e-11 1070.353 2320.564)" width="345.39" height="20.32"></rect>
		
			<rect x="1472.92" y="226.13" transform="matrix(4.552454e-11 -1 1 4.552454e-11 1037.7039 1936.5801)" width="28.45" height="446.61"></rect>
		
			<rect x="1162.37" y="522.67" transform="matrix(3.334939e-11 -1 1 3.334939e-11 727.7327 1790.3713)" width="193.36" height="17.3"></rect>
		
			<rect x="1250.4" y="792.21" transform="matrix(-1 -3.409729e-11 3.409729e-11 -1 2636.0359 1601.8898)" width="135.23" height="17.48"></rect>
		
			<rect x="983.6" y="794.17" transform="matrix(-1 -4.523993e-11 4.523993e-11 -1 2237.4844 1603.7981)" width="270.28" height="15.47"></rect>
		
			<rect x="973.94" y="963.33" transform="matrix(-1 -4.492641e-11 4.492641e-11 -1 1963.3411 1942.1271)" width="15.47" height="15.47"></rect>
		
			<rect x="318.02" y="963.29" transform="matrix(-1 -4.393476e-11 4.393476e-11 -1 1117.9564 1942.1233)" width="481.92" height="15.54"></rect>
		
			<rect x="902.19" y="881.92" transform="matrix(-4.489583e-11 1 -1 -4.489583e-11 1880.9879 -101.6863)" width="178.29" height="15.47"></rect>
		
			<rect x="1274.34" y="858.71" transform="matrix(-4.670238e-11 1 -1 -4.670238e-11 2199.9729 -467.4645)" width="118.75" height="15.08"></rect>
		
			<rect x="1105.94" y="1339.2" transform="matrix(-3.974528e-11 1 -1 -3.974528e-11 2680.4595 13.022)" width="455.56" height="15.08"></rect>
		
			<rect x="1335" y="1499.47" transform="matrix(-4.491448e-11 1 -1 -4.491448e-11 2901.3389 109.6863)" width="121.66" height="12.08"></rect>
		<rect x="1336.1" y="1444.68" width="65.77" height="12.31"></rect>
		<rect x="1334.59" y="1118.96" width="122.67" height="15.47"></rect>
		<rect x="1611.92" y="1118.96" width="101.84" height="15.47"></rect>
		
			<rect x="927.9" y="486.12" transform="matrix(-4.491537e-11 1 -1 -4.491537e-11 1485.1906 -497.4836)" width="126.88" height="15.47"></rect>
		
			<rect x="1246.98" y="786.08" transform="matrix(3.849904e-11 -1 1 3.849904e-11 464.3175 2053.7866)" width="24.14" height="17.3"></rect>
		
			<rect x="1326.43" y="428.07" transform="matrix(4.733464e-11 -1 1 4.733464e-11 829.0315 1837.5177)" width="13.68" height="152.34"></rect>
		<rect x="1376.24" y="472.5" transform="matrix(4.366114e-11 -1 1 4.366114e-11 928.522 1887.3223)" width="63.37" height="13.8"></rect>
	</g>
</g>
</svg>
