<?xml version="1.0" encoding="utf-8"?>
<!-- Generator: Adobe Illustrator 24.1.2, SVG Export Plug-In . SVG Version: 6.00 Build 0)  -->
<svg version="1.1" id="Layer_1" xmlns="http://www.w3.org/2000/svg" xmlns:xlink="http://www.w3.org/1999/xlink" xmlns:a="http://ns.adobe.com/AdobeSVGViewerExtensions/3.0/" x="0px" y="0px" width="2000px" height="2000px" viewBox="0 0 2000 2000" style="enable-background:new 0 0 2000 2000;" xml:space="preserve">
<path id="background" style="fill:#FFFFFF;" d="M1900.08,783.22l0,360.34c0.19,0.07,0.33,0.25,0.33,0.47v337.13
	c0,0.22-0.14,0.4-0.33,0.47v212.87h-57.2l-207.08,0v0.71h-178.63v-0.2h-264.59v0.2H816.56v-0.89l-252.09,0v0.89H317.62h-50.79h-0.06
	l0-479.9h30.8v-9.84H100.08c-0.28,0-0.5-0.22-0.5-0.5c0-108.8,88.73-197.36,197.99-197.86v-10l-30.8,0l0-692.3l50.84,0v0l1582.47,0
	v140.36c0.19,0.07,0.33,0.25,0.33,0.47v337.13C1900.42,782.98,1900.28,783.16,1900.08,783.22z"></path>
<g id="c1">
	<path id="c1_path" style="fill:none;" d="M911.55,922.94l0.04-335.71h187.19V922.9L911.55,922.94z"></path>
	<text id="c1_text" transform="matrix(1 0 0 1 981.2128 779.5152)" style="font-family: GraphikLCG-Regular; font-size: 40px; text-anchor: middle; text-align: center;"></text>
</g>
<g id="r1">
	<path id="r1_path" style="fill:none;" d="M1384.39,1397.53l0.04-335.71h187.19v335.67L1384.39,1397.53z"></path>
	
		<text id="r1_text" transform="matrix(1 0 0 1 1457.9169 1254.1069)" style="font-family: GraphikLCG-Regular; font-size: 40px; text-anchor: middle; text-align: center;"></text>
</g>
<g id="s1">
	<path id="s1_path" style="fill:none;" d="M489.27,1580.1l0.04-335.71h187.19v335.67L489.27,1580.1z"></path>
	
		<text id="s1_text" transform="matrix(1 0 0 1 556.3798 1393.9526)" style="font-family: GraphikLCG-Regular; font-size: 40px; text-anchor: middle; text-align: center;"></text>
</g>
<g id="g1">
	<path id="g1_path" style="fill:none;" d="M465.52,922.94l0.04-335.71h187.19V922.9L465.52,922.94z"></path>
	<text id="g1_text" transform="matrix(1 0 0 1 558.6581 704.4439)" style="font-family: GraphikLCG-Regular; font-size: 40px; text-anchor: middle; text-align: center;"></text>
</g>
<g id="h1">
	<path id="h1_path" style="fill:none;" d="M371.37,1188.39l0.04-312h187.19v311.96L371.37,1188.39z"></path>
	
		<text id="h1_text" transform="matrix(1 0 0 1 440.4614 1068.6714)" style="font-family: GraphikLCG-Regular; font-size: 40px; text-anchor: middle; text-align: center;"></text>
</g>
<path id="u3" style="fill:#FFFFFF;stroke:#FFFFFF;stroke-linecap:round;stroke-linejoin:round;stroke-miterlimit:10;" d="
	M499.48,556.05c-9.58,0-17.35-7.77-17.35-17.35s7.77-17.35,17.35-17.35c9.58,0,17.35,7.77,17.35,17.35S509.07,556.05,499.48,556.05z
	"></path>
<path id="u7" style="fill:#FFFFFF;stroke:#FFFFFF;stroke-linecap:round;stroke-linejoin:round;stroke-miterlimit:10;" d="
	M1551.92,542.05c-9.58,0-17.35-7.77-17.35-17.35c0-9.58,7.77-17.35,17.35-17.35s17.35,7.77,17.35,17.35
	C1569.27,534.28,1561.5,542.05,1551.92,542.05z"></path>
<g id="mebel">
	<g>
		<polygon style="fill:none;stroke:#000000;stroke-linecap:round;stroke-linejoin:round;stroke-miterlimit:10;" points="
			1107.82,1101.15 980.95,1101.15 980.95,1227.99 1107.82,1228.01 		"></polygon>
		<g>
			
				<line style="fill:none;stroke:#000000;stroke-linecap:round;stroke-linejoin:round;stroke-miterlimit:10;" x1="1044.38" y1="1195.12" x2="1044.38" y2="1134.04"></line>
			
				<line style="fill:none;stroke:#000000;stroke-linecap:round;stroke-linejoin:round;stroke-miterlimit:10;" x1="1074.92" y1="1164.58" x2="1013.84" y2="1164.58"></line>
			<polyline style="fill:none;stroke:#000000;stroke-linecap:round;stroke-linejoin:round;stroke-miterlimit:10;" points="
				1059.65,1188.33 1044.38,1179.85 1029.11,1188.33 			"></polyline>
			<polyline style="fill:none;stroke:#000000;stroke-linecap:round;stroke-linejoin:round;stroke-miterlimit:10;" points="
				1020.63,1179.85 1029.11,1164.58 1020.63,1149.31 			"></polyline>
			<polyline style="fill:none;stroke:#000000;stroke-linecap:round;stroke-linejoin:round;stroke-miterlimit:10;" points="
				1029.11,1140.83 1044.38,1149.31 1059.65,1140.83 			"></polyline>
			<polyline style="fill:none;stroke:#000000;stroke-linecap:round;stroke-linejoin:round;stroke-miterlimit:10;" points="
				1068.14,1149.31 1059.65,1164.58 1068.14,1179.85 			"></polyline>
		</g>
	</g>
	<g>
		<polygon style="fill:none;stroke:#000000;stroke-linecap:round;stroke-linejoin:round;stroke-miterlimit:10;" points="
			847.7,572.02 847.7,477.36 720.86,477.36 720.84,572.02 		"></polygon>
		<path style="fill:none;stroke:#000000;stroke-linecap:round;stroke-linejoin:round;stroke-miterlimit:10;" d="M757.71,524.11
			l30.63-13.45c1.88-0.73,3.94-1.14,6.1-1.14c8.69,0,15.74,6.53,15.74,14.59s-7.05,14.59-15.74,14.59c-2.16,0-4.22-0.41-6.1-1.14
			L757.71,524.11z"></path>
	</g>
	<g>
		<g>
			<path style="fill:none;stroke:#000000;stroke-linecap:round;stroke-linejoin:round;stroke-miterlimit:10;" d="M787,807.13
				l0.8,1.16c1.3,1.88,1.94,4.09,2.18,6.37c0.18,1.68,0.98,3.31,2.44,4.54c2.15,1.79,5.29,2.1,7.72,0.72
				c3.96-2.25,4.67-7.37,1.83-10.59c-1.06-1.2-2.44-1.93-3.9-2.2c-2.13-0.39-4.07-1.44-5.68-2.88l-1.06-0.95
				c-1.44-1.29-1.43-3.54,0.02-4.81l4.05-3.57c2.22-1.96,2.43-5.34,0.48-7.56l-26.85-30.46c-1.96-2.22-5.34-2.43-7.56-0.48
				l-17.24,15.2c-2.22,1.96-2.43,5.34-0.48,7.56l26.85,30.46c1.96,2.22,5.34,2.43,7.56,0.48l4.05-3.57
				C783.67,805.27,785.9,805.54,787,807.13z"></path>
			
				<circle style="fill:none;stroke:#000000;stroke-linecap:round;stroke-linejoin:round;stroke-miterlimit:10;" cx="796.72" cy="813.78" r="3.35"></circle>
		</g>
		<g>
			<path style="fill:none;stroke:#000000;stroke-linecap:round;stroke-linejoin:round;stroke-miterlimit:10;" d="M779.16,786.03
				l5.17,1.74c1.45,0.49,2.22,2.05,1.74,3.5l-3.06,9.08c-0.49,1.45-2.05,2.22-3.5,1.74l-5.17-1.74c-1.45-0.49-2.22-2.05-1.74-3.5
				l3.06-9.08C776.15,786.32,777.71,785.54,779.16,786.03z"></path>
			<path style="fill:none;stroke:#000000;stroke-linecap:round;stroke-linejoin:round;stroke-miterlimit:10;" d="M769.68,775.28
				l5.17,1.74c1.45,0.49,2.22,2.05,1.74,3.5l-3.06,9.08c-0.49,1.45-2.05,2.22-3.5,1.74l-5.17-1.74c-1.45-0.49-2.22-2.05-1.74-3.5
				l3.06-9.08C766.67,775.57,768.24,774.79,769.68,775.28z"></path>
			<path style="fill:none;stroke:#000000;stroke-linecap:round;stroke-linejoin:round;stroke-miterlimit:10;" d="M760.26,764.58
				l5.17,1.74c1.45,0.49,2.22,2.05,1.74,3.5l-3.06,9.08c-0.49,1.45-2.05,2.22-3.5,1.74l-5.17-1.74c-1.45-0.49-2.22-2.05-1.74-3.5
				l3.06-9.08C757.24,764.87,758.81,764.1,760.26,764.58z"></path>
		</g>
	</g>
	<g>
		<polyline style="fill:none;stroke:#000000;stroke-linecap:round;stroke-linejoin:round;stroke-miterlimit:10;" points="
			317.66,350.79 317.62,828.5 444.82,828.51 444.86,477.87 		"></polyline>
		
			<line style="fill:none;stroke:#000000;stroke-linecap:round;stroke-linejoin:round;stroke-miterlimit:10;" x1="436.21" y1="828.51" x2="436.27" y2="469.28"></line>
		<path style="fill:none;stroke:#000000;stroke-linecap:round;stroke-linejoin:round;stroke-miterlimit:10;" d="M450.76,461.27"></path>
		<g>
			<polyline style="fill:none;stroke:#000000;stroke-linecap:round;stroke-linejoin:round;stroke-miterlimit:10;" points="
				444.86,477.87 504.75,477.91 504.77,350.83 317.66,350.79 			"></polyline>
			
				<line style="fill:none;stroke:#000000;stroke-linecap:round;stroke-linejoin:round;stroke-miterlimit:10;" x1="436.27" y1="469.28" x2="504.9" y2="469.34"></line>
		</g>
		
			<line style="fill:none;stroke:#000000;stroke-linecap:round;stroke-linejoin:round;stroke-miterlimit:10;" x1="444.77" y1="569.48" x2="317.62" y2="569.48"></line>
		
			<line style="fill:none;stroke:#000000;stroke-linecap:round;stroke-linejoin:round;stroke-miterlimit:10;" x1="444.77" y1="697.8" x2="317.62" y2="697.8"></line>
	</g>
	<g>
		<g>
			<g>
				
					<rect x="1568.34" y="256.48" transform="matrix(-1.985568e-06 -1 1 -1.985568e-06 1203.7145 1946.1754)" style="fill:none;stroke:#000000;stroke-linecap:round;stroke-linejoin:round;stroke-miterlimit:10;" width="13.22" height="229.5"></rect>
				<polygon style="fill:none;stroke:#000000;stroke-linecap:round;stroke-linejoin:round;stroke-miterlimit:10;" points="
					1484.06,351.41 1460.19,364.62 1689.69,364.62 1665.82,351.41 				"></polygon>
			</g>
		</g>
		<g>
			
				<rect x="1553.32" y="244.99" transform="matrix(2.354673e-06 1 -1 2.354673e-06 1947.134 -1201.8684)" style="fill:none;stroke:#000000;stroke-linecap:round;stroke-linejoin:round;stroke-miterlimit:10;" width="42.36" height="255.28"></rect>
		</g>
	</g>
	<g>
		<g>
			<g>
				<g>
					<g>
						<g>
							<g>
								<g>
									
										<rect x="1370.18" y="1572.49" transform="matrix(-1 3.374956e-06 -3.374956e-06 -1 3084.4844 3158.9351)" style="fill:none;stroke:#000000;stroke-linecap:round;stroke-linejoin:round;stroke-miterlimit:10;" width="344.11" height="13.96"></rect>
									
										<rect x="1370.18" y="1137.01" transform="matrix(-1 3.374956e-06 -3.374956e-06 -1 3084.4822 2709.4971)" style="fill:none;stroke:#000000;stroke-linecap:round;stroke-linejoin:round;stroke-miterlimit:10;" width="344.11" height="435.48"></rect>
									<path style="fill:none;stroke:#000000;stroke-linecap:round;stroke-linejoin:round;stroke-miterlimit:10;" d="
										M1548.26,1500.67h-11.84l0,34.38c0,10.28-8.33,18.62-18.61,18.62l-103.2,0c-10.28,0-18.62-8.33-18.62-18.61l0-34.38h-11.84
										l0,60.18c0,2.57,2.08,4.65,4.65,4.65l306.88,0c2.57,0,4.65-2.08,4.65-4.65l0-60.18h-11.84l0,34.38
										c0,10.28-8.33,18.62-18.61,18.62l-103,0c-10.28,0-18.62-8.33-18.62-18.61L1548.26,1500.67z"></path>
									<path style="fill:none;stroke:#000000;stroke-linecap:round;stroke-linejoin:round;stroke-miterlimit:10;" d="
										M1696.8,1148.65l-309.13,0c-1.95,0-3.53,1.58-3.53,3.53l0,348.5l316.19,0l0-348.5
										C1700.33,1150.22,1698.75,1148.65,1696.8,1148.65z"></path>
								</g>
							</g>
							
								<rect x="1283.59" y="1499.86" transform="matrix(1.005400e-06 1 -1 1.005400e-06 2870.0422 208.4142)" style="fill:none;stroke:#000000;stroke-linecap:round;stroke-linejoin:round;stroke-miterlimit:10;" width="94.44" height="78.74"></rect>
							
								<rect x="1706.44" y="1499.86" transform="matrix(1.005400e-06 1 -1 1.005400e-06 3292.8928 -214.4369)" style="fill:none;stroke:#000000;stroke-linecap:round;stroke-linejoin:round;stroke-miterlimit:10;" width="94.44" height="78.74"></rect>
						</g>
					</g>
				</g>
			</g>
			<g>
				<g>
					
						<circle style="fill:#FFFFFF;stroke:#000000;stroke-linecap:round;stroke-linejoin:round;stroke-miterlimit:10;" cx="1330.81" cy="1541.96" r="25.91"></circle>
					
						<circle style="fill:#FFFFFF;stroke:#000000;stroke-linecap:round;stroke-linejoin:round;stroke-miterlimit:10;" cx="1330.81" cy="1541.96" r="9.24"></circle>
				</g>
				
					<line style="fill:#FFFFFF;stroke:#000000;stroke-linecap:round;stroke-linejoin:round;stroke-miterlimit:10;" x1="1330.81" y1="1532.72" x2="1330.81" y2="1551.21"></line>
				
					<line style="fill:#FFFFFF;stroke:#000000;stroke-linecap:round;stroke-linejoin:round;stroke-miterlimit:10;" x1="1340.06" y1="1541.96" x2="1321.57" y2="1541.96"></line>
			</g>
			<g>
				<g>
					
						<circle style="fill:#FFFFFF;stroke:#000000;stroke-linecap:round;stroke-linejoin:round;stroke-miterlimit:10;" cx="1753.67" cy="1541.96" r="25.91"></circle>
					
						<circle style="fill:#FFFFFF;stroke:#000000;stroke-linecap:round;stroke-linejoin:round;stroke-miterlimit:10;" cx="1753.67" cy="1541.96" r="9.24"></circle>
				</g>
				
					<line style="fill:#FFFFFF;stroke:#000000;stroke-linecap:round;stroke-linejoin:round;stroke-miterlimit:10;" x1="1753.67" y1="1532.72" x2="1753.67" y2="1551.21"></line>
				
					<line style="fill:#FFFFFF;stroke:#000000;stroke-linecap:round;stroke-linejoin:round;stroke-miterlimit:10;" x1="1762.91" y1="1541.96" x2="1744.42" y2="1541.96"></line>
			</g>
		</g>
		<g>
			<g>
				<path style="fill:none;stroke:#000000;stroke-linecap:round;stroke-linejoin:round;stroke-miterlimit:10;" d="M1562.67,1302.56
					c-0.02,0.13-0.06,0.26-0.11,0.4c-2.46,7.02-4.39,14.28-5.72,21.59c-1.33,7.31-2.09,14.78-2.26,22.21c0,0.15-0.02,0.29-0.04,0.42
					c-0.13,0.7-0.57,1.32-1.2,1.69c-0.36,0.21-1.11,0.51-2.03,0.21l-0.05-0.02c-14.11-4.95-28.84-7.63-43.79-7.98l-0.08,0
					c-0.96-0.05-1.54-0.59-1.8-0.91c-0.46-0.57-0.66-1.3-0.53-2.01c0.02-0.13,0.06-0.26,0.1-0.39c2.46-7.02,4.39-14.28,5.72-21.59
					s2.09-14.78,2.26-22.21c0-0.15,0.02-0.29,0.04-0.42c0.13-0.71,0.57-1.32,1.2-1.69c0.36-0.21,1.1-0.51,2.03-0.21l0.05,0.02
					c14.11,4.95,28.84,7.63,43.79,7.98l0.08,0c0.96,0.05,1.54,0.59,1.8,0.91C1562.6,1301.12,1562.8,1301.85,1562.67,1302.56z"></path>
			</g>
			<path style="fill:none;stroke:#000000;stroke-linecap:round;stroke-linejoin:round;stroke-miterlimit:10;" d="M1551.26,1349.06
				l0.06,0.02c0.92,0.31,1.67,0,2.03-0.21c0.64-0.37,1.07-0.99,1.2-1.69c0.02-0.13,0.04-0.27,0.04-0.42
				c0.15-6.54,0.84-13.09,1.89-19.55c5.79-1.07,11.54-2.39,17.18-4.18l0.06-0.02c0.93-0.28,1.66,0.05,2.02,0.27
				c0.62,0.39,1.04,1.02,1.15,1.73c0.02,0.13,0.03,0.27,0.03,0.42c-0.06,7.43,0.48,14.92,1.59,22.27
				c1.11,7.35,2.81,14.66,5.06,21.76c0.04,0.13,0.07,0.27,0.09,0.4c0.11,0.71-0.11,1.43-0.59,1.99c-0.27,0.31-0.87,0.84-1.83,0.85
				l-0.08,0c-14.95-0.11-29.76,2.12-44.01,6.64l-0.06,0.02c-0.93,0.28-1.67-0.05-2.02-0.27c-0.62-0.39-1.04-1.02-1.15-1.73
				c-0.02-0.13-0.03-0.27-0.03-0.42c0.06-7.43-0.48-14.92-1.59-22.27c-0.57-3.76-1.3-7.51-2.17-11.22
				C1537.28,1344.77,1544.34,1346.63,1551.26,1349.06z"></path>
			<path style="fill:none;stroke:#000000;stroke-linecap:round;stroke-linejoin:round;stroke-miterlimit:10;" d="M1551.26,1349.06
				l0.06,0.02c0.92,0.31,1.67,0,2.03-0.21c0.64-0.37,1.07-0.99,1.2-1.69c0.02-0.13,0.04-0.27,0.04-0.42
				c0.17-7.43,0.93-14.9,2.26-22.21c0.04-0.2,0.1-0.4,0.13-0.6c5.3-1.02,10.57-2.25,15.73-3.88l0.01,0
				c3.63-1.15,7.32,1.57,7.29,5.38v0.01c-0.11,14.6,2.08,29.13,6.49,43.05l0,0.01c1.15,3.63-1.57,7.32-5.38,7.29h-0.01
				c-14.6-0.11-29.13,2.08-43.05,6.49l-0.01,0c-3.63,1.15-7.32-1.57-7.29-5.38l0-0.01c0.09-11.46-1.29-22.87-4.01-33.98
				C1535.07,1344.26,1543.27,1346.25,1551.26,1349.06z"></path>
		</g>
	</g>
	<g>
		<path style="fill:none;stroke:#000000;stroke-linecap:round;stroke-linejoin:round;stroke-miterlimit:10;" d="M646.6,957.27"></path>
		<path style="fill:none;stroke:#000000;stroke-linecap:round;stroke-linejoin:round;stroke-miterlimit:10;" d="M608.94,932.4
			l5.4-12.83l2.07,1.2l-5.44-11.13c-0.01,0-0.02,0.02-0.04,0.02l-1.96,1.82c-0.01,0.03-0.04,0.05-0.05,0.08l-7.54,17.91
			c-0.93,2.2,0.24,4.75,2.57,5.46C605.97,935.54,608.12,934.35,608.94,932.4z"></path>
		<path style="fill:none;stroke:#000000;stroke-linecap:round;stroke-linejoin:round;stroke-miterlimit:10;" d="M644.48,897.2"></path>
		<path style="fill:none;stroke:#000000;stroke-linecap:round;stroke-linejoin:round;stroke-miterlimit:10;" d="M643.13,897.06
			c0.02-0.14,0.08-0.27,0.08-0.41c-0.2-11,8.48-20.84,19.65-22.6c3.83-0.6,6.87-0.09,10.27,1.13c0.18-0.14,0.37-0.28,0.56-0.42
			c-0.05-0.03-0.1-0.06-0.15-0.09c-4.35-2.29-9.47-3.17-14.7-2.36c-11.87,1.83-20.4,12.31-20.11,24.07
			C640.22,896.44,641.69,896.67,643.13,897.06z"></path>
		
			<line style="fill:none;stroke:#000000;stroke-linecap:round;stroke-linejoin:round;stroke-miterlimit:10;" x1="643.68" y1="914.99" x2="629.45" y2="932.86"></line>
		<g>
			<path style="fill:none;stroke:#000000;stroke-linecap:round;stroke-linejoin:round;stroke-miterlimit:10;" d="M621.43,981.5
				l1.68-10.08l-0.38,0.04l-4.9,2.38c-1.1,0.53-2.29,0.56-3.39,0.27l-1.01,6.05c-0.37,2.21,1.12,4.3,3.33,4.67
				S621.06,983.71,621.43,981.5z"></path>
		</g>
		<path style="fill:none;stroke:#000000;stroke-linecap:round;stroke-linejoin:round;stroke-miterlimit:10;" d="M609.12,967.04
			l1.42-2.39c0.82-1.38,2.85-1.29,3.55,0.15l1.13,2.33c0.7,1.44-0.49,3.09-2.08,2.88l-2.76-0.36L609.12,967.04z"></path>
		<path style="fill:none;stroke:#000000;stroke-linecap:round;stroke-linejoin:round;stroke-miterlimit:10;" d="M626.01,962.33
			c-0.82-0.25-1.69,0.21-1.94,1.03c-0.25,0.82,0.21,1.69,1.03,1.94"></path>
		<path style="fill:none;stroke:#000000;stroke-linecap:round;stroke-linejoin:round;stroke-miterlimit:10;" d="M621.16,957.95
			c-0.14,0.85,0.44,1.64,1.28,1.78c0.85,0.14,1.64-0.44,1.78-1.28"></path>
		<g>
			<g>
				<path style="fill:none;stroke:#000000;stroke-linecap:round;stroke-linejoin:round;stroke-miterlimit:10;" d="M623.83,969.47
					c0.13-1.25-1.35-2.91-2.43-3.08"></path>
			</g>
		</g>
		<g>
			<g>
				<path style="fill:none;stroke:#000000;stroke-linecap:round;stroke-linejoin:round;stroke-miterlimit:10;" d="M617.55,956.51
					c1.07,0.67,1.45,2.86,0.91,3.82"></path>
			</g>
		</g>
		
			<line style="fill:none;stroke:#000000;stroke-linecap:round;stroke-linejoin:round;stroke-miterlimit:10;" x1="609.75" y1="968.35" x2="611.4" y2="967.55"></line>
		<path style="fill:none;stroke:#000000;stroke-linecap:round;stroke-linejoin:round;stroke-miterlimit:10;" d="M633.69,927.54
			c0,0-3.97,3.02-8.05,2.33c-3.49-0.59-6.06-2.86-7.63-5.84l-0.01,0l-0.13-0.26c-0.07-0.14-0.14-0.27-0.2-0.41l-6.71-13.72
			l-10.21,9.46c-1.55,1.44-4,1.64-5.59,0.24c-1.84-1.61-1.85-4.41-0.09-6.03l14.25-13.21c1.53-1.42,3.96-1.17,5.17,0.53l4.76,6.66
			c3.22-5.19,7.35-8.04,11.16-9.55c5.5-2.17,11.77-1.8,16.97,1.01c0.13,0.07,0.23,0.13,0.32,0.19c4.2,2.75,13.99,9.58,14.95,28.26
			c1.53,29.72-19.23,40.62-19.23,40.62"></path>
		<path style="fill:none;stroke:#000000;stroke-linecap:round;stroke-linejoin:round;stroke-miterlimit:10;" d="M641.61,970.05
			c1.38,2.85-0.96,6.1-4.1,5.69l-0.9-0.12l-11.09,19.31c-2.54,4.68,4.24,8.62,7.03,4.04l16.04-27.92c0.74-1.28,1.02-2.77,0.8-4.24
			l-0.46-3.14"></path>
		<path style="fill:none;stroke:#000000;stroke-linecap:round;stroke-linejoin:round;stroke-miterlimit:10;" d="M640.64,938.59
			l-8.46-4.78c-4.02-2.31-9.15-0.92-11.45,3.1l-2.64,4.6c-2.24,3.9-2.14,8.47-0.19,12.17"></path>
		<path style="fill:none;stroke:#000000;stroke-linecap:round;stroke-linejoin:round;stroke-miterlimit:10;" d="M621.14,941.98
			l-3.51,5.88c-0.71,1.19,0.03,2.72,1.41,2.9l14.12,1.85l-5.01-10.33C626.76,939.43,622.76,939.26,621.14,941.98z"></path>
		<path style="fill:none;stroke:#000000;stroke-linecap:round;stroke-linejoin:round;stroke-miterlimit:10;" d="M633.26,947.69
			c-0.9-1.17-2.17-1.88-3.53-2.15l3.43,7.07l-12.55-1.65l-5.26,5.26l-4.9,2.38c-2.42,1.17-3.43,4.09-2.26,6.51l3.14,6.47
			c1.17,2.42,4.09,3.43,6.51,2.26l4.9-2.38l7.38-0.87l6.48-10.88l3.45,7.11c0.82-1.57,0.96-3.51,0.09-5.3l-0.73-1.51"></path>
		<path style="fill:none;stroke:#000000;stroke-linecap:round;stroke-linejoin:round;stroke-miterlimit:10;" d="M636.6,959.72
			l-7.29,12.23c-0.71,1.19,0.03,2.72,1.41,2.9l6.79,0.89c3.14,0.41,5.49-2.83,4.1-5.69L636.6,959.72z"></path>
	</g>
	<g>
		<g>
			<g>
				
					<rect x="1532.55" y="902.6" transform="matrix(-1.985567e-06 -1 1 -1.985567e-06 521.8126 2556.5154)" style="fill:none;stroke:#000000;stroke-linecap:round;stroke-linejoin:round;stroke-miterlimit:10;" width="13.22" height="229.5"></rect>
				<polygon style="fill:none;stroke:#000000;stroke-linecap:round;stroke-linejoin:round;stroke-miterlimit:10;" points="
					1448.28,997.53 1424.41,1010.74 1653.91,1010.74 1630.04,997.53 				"></polygon>
			</g>
		</g>
	</g>
	<g>
		<g>
			<path style="fill:none;stroke:#000000;stroke-linecap:round;stroke-linejoin:round;stroke-miterlimit:10;" d="M1748.8,434.98
				c1.27-0.53,2.59-0.97,3.93-1.32"></path>
			<path style="fill:none;stroke:#000000;stroke-linecap:round;stroke-linejoin:round;stroke-miterlimit:10;" d="M1789.91,463.04
				c-0.05,2.17-0.33,4.36-0.88,6.56c-0.12,0.49-0.26,0.98-0.4,1.46"></path>
		</g>
		<g>
			<path style="fill:none;stroke:#000000;stroke-linecap:round;stroke-linejoin:round;stroke-miterlimit:10;" d="M1786.59,465.29
				c-0.13,1.18-0.34,2.36-0.63,3.54"></path>
			<path style="fill:none;stroke:#000000;stroke-linecap:round;stroke-linejoin:round;stroke-miterlimit:10;" d="M1750.72,437.63
				c1.12-0.43,2.27-0.78,3.45-1.06"></path>
		</g>
		<g>
			<path style="fill:none;stroke:#000000;stroke-linecap:round;stroke-linejoin:round;stroke-miterlimit:10;" d="M1779.16,419.68
				c-1.23-2.31-2.99-4.58-5.46-6.65c-16.33,1.51-20.45,17.82-20.45,17.82c-0.98,3.16,0.43,6.49,3.22,8.03"></path>
		</g>
		
			<line style="fill:none;stroke:#000000;stroke-linecap:round;stroke-linejoin:round;stroke-miterlimit:10;" x1="1770.2" y1="422.55" x2="1773.7" y2="413.36"></line>
		
			<line style="fill:none;stroke:#000000;stroke-linecap:round;stroke-linejoin:round;stroke-miterlimit:10;" x1="1755.14" y1="462.21" x2="1761.16" y2="446.37"></line>
		<g>
			<path style="fill:none;stroke:#000000;stroke-linecap:round;stroke-linejoin:round;stroke-miterlimit:10;" d="M1760.53,476.86
				C1760.53,476.86,1760.53,476.86,1760.53,476.86C1760.53,476.85,1760.52,476.84,1760.53,476.86z"></path>
			<path style="fill:none;stroke:#000000;stroke-linecap:round;stroke-linejoin:round;stroke-miterlimit:10;" d="M1742.91,490.03
				c4.27,7.25,14.37,19.86,32.93,19.48c3.37-3.53,5.68-7.24,7.21-10.93"></path>
			<path style="fill:none;stroke:#000000;stroke-linecap:round;stroke-linejoin:round;stroke-miterlimit:10;" d="M1761.06,475.98
				c-1.12-2.52-3.23-4.34-5.73-5.33"></path>
			<path style="fill:none;stroke:#000000;stroke-linecap:round;stroke-linejoin:round;stroke-miterlimit:10;" d="M1772.15,460.41
				c-1.59-0.06-3.21,0.23-4.76,0.92c-5.49,2.42-8.75,9.16-6.33,14.65c0.49,1.12,0.29,0.69,0.24,0.55"></path>
			<path style="fill:none;stroke:#000000;stroke-linecap:round;stroke-linejoin:round;stroke-miterlimit:10;" d="M1782.85,469.59
				c-0.64-1.72-1.14-2.7-1.14-2.7"></path>
		</g>
		
			<line style="fill:none;stroke:#000000;stroke-linecap:round;stroke-linejoin:round;stroke-miterlimit:10;" x1="1755.14" y1="462.39" x2="1775.83" y2="509.51"></line>
		<g>
			<path style="fill:none;stroke:#000000;stroke-linecap:round;stroke-linejoin:round;stroke-miterlimit:10;" d="M1774.67,445.47
				C1774.67,445.48,1774.67,445.48,1774.67,445.47C1774.65,445.49,1774.66,445.48,1774.67,445.47z"></path>
			<path style="fill:none;stroke:#000000;stroke-linecap:round;stroke-linejoin:round;stroke-miterlimit:10;" d="M1775.73,446.79
				C1775.73,446.79,1775.73,446.78,1775.73,446.79C1775.72,446.79,1775.71,446.8,1775.73,446.79z"></path>
			<path style="fill:none;stroke:#000000;stroke-linecap:round;stroke-linejoin:round;stroke-miterlimit:10;" d="M1760.54,428.98
				c-4.66,3.77-5.38,10.61-1.6,15.27c3.77,4.66,11.14,6.03,15.8,2.26c0.95-0.77,0.58-0.46,0.47-0.38c0.36-0.29,0.65-0.53,0.65-0.53
				s-0.29,0.23-0.65,0.53c0.11-0.1,0,0-0.46,0.38c-3.99,3.24-4.7,9.2-2.45,13.77c0.38,0.76,0.83,1.49,1.37,2.15
				c3.77,4.66,10.61,5.38,15.27,1.6c0,0,0.36-0.26,0.96-0.76c4.12-3.41,19.71-18.08,13.31-39.83
				C1780.32,411.07,1760.54,428.98,1760.54,428.98z"></path>
		</g>
		
			<line style="fill:none;stroke:#000000;stroke-linecap:round;stroke-linejoin:round;stroke-miterlimit:10;" x1="1755.14" y1="462.39" x2="1803.21" y2="423.44"></line>
		<g>
			<path style="fill:none;stroke:#000000;stroke-linecap:round;stroke-linejoin:round;stroke-miterlimit:10;" d="M1751.59,441.85
				c0.34-2.17-0.36-4.47-2.09-6.08c0,0-11.65-12.13-26.58-5.37c-2.13,5.73-1.68,10.83-0.26,14.96"></path>
		</g>
		
			<line style="fill:none;stroke:#000000;stroke-linecap:round;stroke-linejoin:round;stroke-miterlimit:10;" x1="1733.66" y1="441.06" x2="1722.92" y2="430.4"></line>
		
			<line style="fill:none;stroke:#000000;stroke-linecap:round;stroke-linejoin:round;stroke-miterlimit:10;" x1="1755.14" y1="462.39" x2="1752.15" y2="459.43"></line>
		<g>
			<path style="fill:none;stroke:#000000;stroke-linecap:round;stroke-linejoin:round;stroke-miterlimit:10;" d="M1744.44,463.23
				C1744.44,463.23,1744.45,463.23,1744.44,463.23C1744.47,463.23,1744.46,463.23,1744.44,463.23z"></path>
			<path style="fill:none;stroke:#000000;stroke-linecap:round;stroke-linejoin:round;stroke-miterlimit:10;" d="M1744.45,461.54
				C1744.45,461.54,1744.44,461.55,1744.45,461.54C1744.46,461.55,1744.47,461.54,1744.45,461.54z"></path>
			<path style="fill:none;stroke:#000000;stroke-linecap:round;stroke-linejoin:round;stroke-miterlimit:10;" d="M1755.9,474.09
				c0-6-4.86-11.7-10.86-11.7"></path>
			<path style="fill:none;stroke:#000000;stroke-linecap:round;stroke-linejoin:round;stroke-miterlimit:10;" d="M1744.44,462.39
				c-0.15,0.01,0,0,0.6,0c6-0.01,10.86-5.7,10.86-11.7c0-6-4.86-10.86-10.86-10.86c0,0-26.64-1.46-36.65,22.56
				c4.15,9.96,11.16,15.54,17.95,18.66"></path>
		</g>
		
			<line style="fill:none;stroke:#000000;stroke-linecap:round;stroke-linejoin:round;stroke-miterlimit:10;" x1="1734.91" y1="462.39" x2="1708.39" y2="462.39"></line>
		<g>
			<path style="fill:none;stroke:#000000;stroke-linecap:round;stroke-linejoin:round;stroke-miterlimit:10;" d="M1744.98,473.11
				C1744.98,473.11,1744.98,473.11,1744.98,473.11C1744.99,473.1,1744.99,473.1,1744.98,473.11z"></path>
			<path style="fill:none;stroke:#000000;stroke-linecap:round;stroke-linejoin:round;stroke-miterlimit:10;" d="M1744.23,472.35
				C1744.23,472.35,1744.23,472.35,1744.23,472.35C1744.24,472.35,1744.24,472.34,1744.23,472.35z"></path>
			<path style="fill:none;stroke:#000000;stroke-linecap:round;stroke-linejoin:round;stroke-miterlimit:10;" d="M1754.9,482.54
				c2.68-2.67,2.69-7,0.02-9.67c-2.67-2.68-7.37-3.06-10.05-0.4c-0.55,0.55-0.34,0.33-0.27,0.27c-0.21,0.2-0.37,0.37-0.37,0.37
				s0.17-0.16,0.37-0.37c-0.06,0.07,0,0,0.27-0.27c2.67-2.67,2.31-7.37-0.35-10.05c-2.67-2.68-7-2.69-9.67-0.02
				c0,0-12.54,11.19-6.33,26.36c5.66,2.35,10.78,2.07,14.96,0.8C1750.49,487.44,1754.9,482.54,1754.9,482.54z"></path>
		</g>
		
			<line style="fill:none;stroke:#000000;stroke-linecap:round;stroke-linejoin:round;stroke-miterlimit:10;" x1="1755.14" y1="462.17" x2="1728.51" y2="488.76"></line>
		<g>
			<path style="fill:none;stroke:#000000;stroke-linecap:round;stroke-linejoin:round;stroke-miterlimit:10;" d="M1779.94,481.46
				C1779.94,481.46,1779.93,481.46,1779.94,481.46C1779.93,481.45,1779.93,481.45,1779.94,481.46z"></path>
			<path style="fill:none;stroke:#000000;stroke-linecap:round;stroke-linejoin:round;stroke-miterlimit:10;" d="M1779.27,482.28
				C1779.27,482.28,1779.27,482.28,1779.27,482.28C1779.26,482.28,1779.26,482.27,1779.27,482.28z"></path>
			<path style="fill:none;stroke:#000000;stroke-linecap:round;stroke-linejoin:round;stroke-miterlimit:10;" d="M1788.25,470.58
				c-2.94-2.38-7.24-1.92-9.62,1.02c-2.38,2.94-2.25,7.66,0.68,10.03c0.6,0.49,0.36,0.3,0.29,0.24c0.22,0.19,0.41,0.33,0.41,0.33
				s-0.18-0.15-0.41-0.33c0.08,0.05,0,0-0.29-0.24c-2.94-2.37-7.58-1.51-9.95,1.43c-2.38,2.94-1.92,7.24,1.02,9.62
				c0,0,12.47,11.27,26.89,3.47C1801.88,480.43,1788.25,470.58,1788.25,470.58z"></path>
		</g>
		
			<line style="fill:none;stroke:#000000;stroke-linecap:round;stroke-linejoin:round;stroke-miterlimit:10;" x1="1755.14" y1="462.47" x2="1797.26" y2="496.15"></line>
	</g>
	<g>
		<g>
			<path style="fill:none;stroke:#000000;stroke-linecap:round;stroke-linejoin:round;stroke-miterlimit:10;" d="M1793.93,1094.55
				c0.41,0.75,0.82,1.51,1.19,2.28c0.86-0.72,1.63-1.53,2.38-2.37c-0.72-0.46-1.41-0.96-2.1-1.46
				C1794.92,1093.52,1794.46,1094.07,1793.93,1094.55z"></path>
			<path style="fill:none;stroke:#000000;stroke-linecap:round;stroke-linejoin:round;stroke-miterlimit:10;" d="M1799.55,1072.89
				c0.24,0.67,0.37,1.37,0.54,2.07c0.84-0.06,1.68-0.12,2.53-0.14c-0.24-1.09-0.5-2.18-0.89-3.22
				C1801.01,1072.05,1800.29,1072.47,1799.55,1072.89z"></path>
			<path style="fill:none;stroke:#000000;stroke-linecap:round;stroke-linejoin:round;stroke-miterlimit:10;" d="M1793.23,1063.99
				c0.48,0.39,0.91,0.81,1.35,1.23c0.65-0.52,1.29-1.05,1.96-1.53c-0.7-0.7-1.4-1.4-2.19-2.01
				C1794,1062.46,1793.62,1063.23,1793.23,1063.99z"></path>
			<path style="fill:none;stroke:#000000;stroke-linecap:round;stroke-linejoin:round;stroke-miterlimit:10;" d="M1784.85,1059.98
				c0.28-0.79,0.59-1.56,0.9-2.34c-2.88-0.67-5.76-0.78-8.51-0.35c0.37,0.79,0.76,1.57,1.09,2.38
				C1780.46,1059.43,1782.65,1059.51,1784.85,1059.98z"></path>
			<path style="fill:none;stroke:#000000;stroke-linecap:round;stroke-linejoin:round;stroke-miterlimit:10;" d="M1769.44,1063
				c-0.38-0.75-0.71-1.51-1.05-2.27c-1.27,0.82-2.44,1.78-3.52,2.84c0.72,0.43,1.44,0.85,2.14,1.31
				C1767.76,1064.18,1768.59,1063.58,1769.44,1063z"></path>
			<path style="fill:none;stroke:#000000;stroke-linecap:round;stroke-linejoin:round;stroke-miterlimit:10;" d="M1800.15,1084.12
				c-0.02,0.08-0.01,0.16-0.04,0.25c-0.06,0.24-0.18,0.45-0.25,0.69c0.76,0.37,1.51,0.76,2.25,1.17c0.13-0.41,0.32-0.78,0.43-1.2
				c0.07-0.26,0.06-0.52,0.11-0.78C1801.83,1084.23,1800.99,1084.18,1800.15,1084.12z"></path>
			<path style="fill:none;stroke:#000000;stroke-linecap:round;stroke-linejoin:round;stroke-miterlimit:10;" d="M1761.07,1075.52
				c0.06-0.27,0.05-0.54,0.12-0.81c0.17-0.67,0.45-1.27,0.68-1.91c-0.74-0.41-1.45-0.85-2.17-1.29c-0.34,0.87-0.72,1.72-0.95,2.65
				c-0.12,0.49-0.12,0.98-0.21,1.47C1759.39,1075.58,1760.23,1075.52,1761.07,1075.52z"></path>
			<path style="fill:none;stroke:#000000;stroke-linecap:round;stroke-linejoin:round;stroke-miterlimit:10;" d="M1786.72,1101.22
				c-0.35-0.79-0.7-1.57-1.02-2.37c-2.05,0.54-4.19,0.8-6.38,0.65c-0.29,0.83-0.64,1.63-0.98,2.44
				C1781.23,1102.24,1784.05,1101.98,1786.72,1101.22z"></path>
			<path style="fill:none;stroke:#000000;stroke-linecap:round;stroke-linejoin:round;stroke-miterlimit:10;" d="M1762.42,1087.67
				c-0.39-0.88-0.71-1.77-0.98-2.7c-0.86,0.06-1.71,0.07-2.57,0.08c0.35,1.41,0.83,2.76,1.44,4.06
				C1761.01,1088.62,1761.7,1088.13,1762.42,1087.67z"></path>
			<path style="fill:none;stroke:#000000;stroke-linecap:round;stroke-linejoin:round;stroke-miterlimit:10;" d="M1770.34,1096.63
				c-0.76-0.46-1.5-0.92-2.18-1.47c-0.7,0.52-1.41,1.01-2.13,1.49c1.02,0.88,2.12,1.65,3.3,2.34
				C1769.65,1098.19,1769.98,1097.41,1770.34,1096.63z"></path>
		</g>
		<path style="fill:none;stroke:#000000;stroke-linecap:round;stroke-linejoin:round;stroke-miterlimit:10;" d="M1782.42,1079.83
			c5.14,0.61,10.31,2.05,15.21,4.17c9.35,1.07,19.08-0.29,27.25-4.43c-9.28-4.83-20.46-5.81-30.94-3.85
			c-3.71,1.59-7.55,2.76-11.4,3.42c-0.32,0.14-0.67,0.24-0.99,0.38c0.29,0.14,0.61,0.23,0.9,0.36
			C1782.45,1079.86,1782.43,1079.85,1782.42,1079.83z"></path>
		<path style="fill:none;stroke:#000000;stroke-linecap:round;stroke-linejoin:round;stroke-miterlimit:10;" d="M1782.04,1079.24
			c7.63-12.46,21.19-22.59,35.85-24.32C1810.8,1067.79,1796.36,1076.97,1782.04,1079.24z M1782.42,1079.83
			c8.05,12.06,22.43,21.33,37.08,22.4C1811.81,1089.62,1796.94,1081.54,1782.42,1079.83z"></path>
		<path style="fill:none;stroke:#000000;stroke-linecap:round;stroke-linejoin:round;stroke-miterlimit:10;" d="M1782.03,1080.24
			c0.06-0.1,0.14-0.19,0.2-0.29c-0.69,0.11-1.37,0.31-2.06,0.45c-3.39,1.51-6.98,2.67-10.69,3.46
			c-9.58,4.29-18.15,11.42-23.11,20.41c10.16-1.19,19.75-6.48,27.24-13.72C1776.02,1086.72,1778.84,1083.21,1782.03,1080.24z"></path>
		<path style="fill:none;stroke:#000000;stroke-linecap:round;stroke-linejoin:round;stroke-miterlimit:10;" d="M1781.5,1079.3
			c0.12,0.01,0.24,0.05,0.35,0.06c-8.05-12.06-22.43-21.33-37.08-22.4c5.34,8.73,14.14,15.23,23.86,19
			C1773.1,1076.54,1777.46,1077.64,1781.5,1079.3z"></path>
		<path style="fill:none;stroke:#000000;stroke-linecap:round;stroke-linejoin:round;stroke-miterlimit:10;" d="M1781.54,1078.94
			c0.26,0.24,0.5,0.51,0.76,0.74c0.12-14.5-6.55-30.25-18.07-39.37c-0.51,10.45,3.29,21.02,9.44,29.72
			C1776.66,1072.73,1779.33,1075.72,1781.54,1078.94z"></path>
		<g>
			<path style="fill:none;stroke:#000000;stroke-linecap:round;stroke-linejoin:round;stroke-miterlimit:10;" d="M1781.93,1073.57
				c0.21,1.79,0.32,3.58,0.33,5.35c2.3-3.7,5.17-7.15,8.39-10.27c5.46-8.71,8.61-19.12,7.87-29.14
				C1788.69,1047.7,1783.01,1060.73,1781.93,1073.57z"></path>
			<path style="fill:none;stroke:#000000;stroke-linecap:round;stroke-linejoin:round;stroke-miterlimit:10;" d="M1781.75,1079.15
				c0,0.1-0.01,0.2-0.01,0.3c0.05-0.05,0.1-0.1,0.15-0.16C1781.85,1079.24,1781.8,1079.2,1781.75,1079.15z"></path>
		</g>
		<path style="fill:none;stroke:#000000;stroke-linecap:round;stroke-linejoin:round;stroke-miterlimit:10;" d="M1765.74,1119.68
			c-1.07-14.66,6.02-30.23,16.78-39.94C1782.94,1094.34,1777.1,1110.23,1765.74,1119.68z M1782.53,1079.74
			c0.41,14.61-5.43,30.49-16.78,39.94 M1782.16,1079.54c-13.32-5.71-30.43-5.64-43.3,1.46
			C1752.19,1087.36,1769.07,1086.02,1782.16,1079.54z"></path>
		<g>
			<path style="fill:none;stroke:#000000;stroke-linecap:round;stroke-linejoin:round;stroke-miterlimit:10;" d="M1782.37,1079.89
				c-0.1-0.1-0.21-0.21-0.32-0.31c-0.02,0.01-0.05,0.02-0.08,0.03c0,0.21,0.03,0.43,0.03,0.64
				C1782.13,1080.14,1782.25,1080.01,1782.37,1079.89z"></path>
			<path style="fill:none;stroke:#000000;stroke-linecap:round;stroke-linejoin:round;stroke-miterlimit:10;" d="M1782.34,1085.62
				c1.49,12.65,7.79,25.41,17.7,33.26c0.51-10.45-3.29-21.02-9.44-29.71c-2.99-2.71-5.66-5.7-7.87-8.92
				c-0.07-0.07-0.14-0.14-0.22-0.21C1782.56,1081.88,1782.5,1083.75,1782.34,1085.62z"></path>
		</g>
	</g>
	<g>
		<path style="fill:none;stroke:#000000;stroke-linecap:round;stroke-linejoin:round;stroke-miterlimit:10;" d="M1642.33,671.34
			c0,8.56,0,38.6,0,47.15c0,8.75-7.54,13.23-16.9,14.69c-38.19,5.32-76.99,5.32-115.17,0c-9.36-1.46-16.9-5.93-16.9-14.69
			c0-8.56,0-38.6,0-47.15c0-8.75,7.54-13.23,16.9-14.69c38.19-5.32,76.99-5.32,115.17,0
			C1634.79,658.12,1642.33,662.59,1642.33,671.34z"></path>
		<g>
			<polygon style="fill:none;stroke:#000000;stroke-linecap:round;stroke-linejoin:round;stroke-miterlimit:10;" points="
				1595.71,677.65 1600.32,675.15 1619.18,709.98 1613.39,713.12 1618.57,716.27 1633.9,691.09 1600.06,670.5 			"></polygon>
			
				<line style="fill:none;stroke:#000000;stroke-linecap:round;stroke-linejoin:round;stroke-miterlimit:10;" x1="1593.24" y1="678.98" x2="1586.12" y2="672.51"></line>
			
				<line style="fill:none;stroke:#000000;stroke-linecap:round;stroke-linejoin:round;stroke-miterlimit:10;" x1="1632.7" y1="693.06" x2="1598.86" y2="672.47"></line>
			<g>
				<polygon style="fill:none;stroke:#000000;stroke-linecap:round;stroke-linejoin:round;stroke-miterlimit:10;" points="
					1574.4,689.19 1595.39,677.82 1587.66,670.8 1567.84,692.62 1584.42,707.68 				"></polygon>
				<polygon style="fill:none;stroke:#000000;stroke-linecap:round;stroke-linejoin:round;stroke-miterlimit:10;" points="
					1614.11,700.6 1616.98,697.44 1607.95,689.23 				"></polygon>
			</g>
			
				<rect x="1576.99" y="684.85" transform="matrix(-0.4763 -0.8793 0.8793 -0.4763 1742.2456 2436.8252)" style="fill:none;stroke:#000000;stroke-linecap:round;stroke-linejoin:round;stroke-miterlimit:10;" width="39.61" height="29.48"></rect>
			
				<line style="fill:none;stroke:#000000;stroke-linecap:round;stroke-linejoin:round;stroke-miterlimit:10;" x1="1617.16" y1="711.07" x2="1598.29" y2="676.25"></line>
		</g>
		<g>
			<path style="fill:none;stroke:#000000;stroke-linecap:round;stroke-linejoin:round;stroke-miterlimit:10;" d="M1538.75,692.92
				l4.04,2.17c2.05,1.1,2.83,3.66,1.72,5.71l-2.66,4.96c-1.1,2.05-3.66,2.83-5.71,1.72l-4.04-2.17c-1.26-0.67-1.73-2.24-1.06-3.5
				l4.2-7.84C1535.93,692.72,1537.5,692.24,1538.75,692.92z"></path>
			
				<line style="fill:none;stroke:#000000;stroke-linecap:round;stroke-linejoin:round;stroke-miterlimit:10;" x1="1541.49" y1="694.39" x2="1534.85" y2="706.78"></line>
			<path style="fill:none;stroke:#000000;stroke-linecap:round;stroke-linejoin:round;stroke-miterlimit:10;" d="M1535.13,687.78
				l-0.68-4.53c-0.34-2.3-2.49-3.89-4.8-3.55l-5.56,0.83c-2.3,0.34-3.89,2.49-3.55,4.8l0.68,4.53c0.21,1.41,1.53,2.38,2.94,2.17
				l8.8-1.32C1534.37,690.5,1535.34,689.19,1535.13,687.78z"></path>
			
				<line style="fill:none;stroke:#000000;stroke-linecap:round;stroke-linejoin:round;stroke-miterlimit:10;" x1="1534.67" y1="684.7" x2="1520.76" y2="686.78"></line>
			<path style="fill:none;stroke:#000000;stroke-linecap:round;stroke-linejoin:round;stroke-miterlimit:10;" d="M1517.49,688.01
				c1.04-0.53,2.12-0.92,3.22-1.15"></path>
			<path style="fill:none;stroke:#000000;stroke-linecap:round;stroke-linejoin:round;stroke-miterlimit:10;" d="M1534.8,706.75
				c-0.61,0.98-1.35,1.9-2.22,2.71"></path>
			<g>
				<path style="fill:none;stroke:#000000;stroke-linecap:round;stroke-linejoin:round;stroke-miterlimit:10;" d="M1517.43,687.89
					c0.6,0.85,0.39,2.02-0.45,2.61c-5.12,3.61-6.36,10.71-2.75,15.84s10.71,6.36,15.84,2.75c0.85-0.6,2.02-0.39,2.61,0.45
					c0.6,0.85,0.39,2.01-0.45,2.61c-6.81,4.8-16.26,3.16-21.06-3.65s-3.16-16.26,3.65-21.06
					C1515.67,686.85,1516.84,687.05,1517.43,687.89z"></path>
			</g>
		</g>
	</g>
	
		<rect x="768.63" y="524.47" transform="matrix(-1.836970e-16 1 -1 -1.836970e-16 1372.174 -196.6064)" style="fill:none;stroke:#000000;stroke-linecap:round;stroke-linejoin:round;stroke-miterlimit:10;" width="31.53" height="126.62"></rect>
	
		<rect x="726.56" y="724.32" transform="matrix(-1.836970e-16 1 -1 -1.836970e-16 1572.0166 3.8492)" style="fill:none;stroke:#000000;stroke-linecap:round;stroke-linejoin:round;stroke-miterlimit:10;" width="115.05" height="127.23"></rect>
	
		<rect x="787.58" y="1034.65" transform="matrix(-1.836970e-16 1 -1 -1.836970e-16 2015.598 313.5661)" style="fill:none;stroke:#000000;stroke-linecap:round;stroke-linejoin:round;stroke-miterlimit:10;" width="126.86" height="259.87"></rect>
	<g>
		<g>
			<g>
				<path style="fill:none;stroke:#000000;stroke-linecap:round;stroke-linejoin:round;stroke-miterlimit:10;" d="M1584.21,907.55
					h211.73c3.04,0,5.5-2.46,5.5-5.5v-120.7c0-3.04-2.46-5.5-5.5-5.5h-211.73c-3.04,0-5.5,2.46-5.5,5.5v120.7
					C1578.71,905.09,1581.17,907.55,1584.21,907.55z"></path>
				<path style="fill:none;stroke:#000000;stroke-linecap:round;stroke-linejoin:round;stroke-miterlimit:10;" d="M1584.21,907.55
					h211.73c3.04,0,5.5,2.46,5.5,5.5v33.41c0,3.04-2.46,5.5-5.5,5.5h-211.73c-3.04,0-5.5-2.46-5.5-5.5v-33.41
					C1578.71,910.01,1581.17,907.55,1584.21,907.55z"></path>
				<path style="fill:none;stroke:#000000;stroke-linecap:round;stroke-linejoin:round;stroke-miterlimit:10;" d="M1573.22,907.55
					h-211.16c-3.04,0-5.5-2.46-5.5-5.5v-120.7c0-3.04,2.46-5.5,5.5-5.5h211.16c3.04,0,5.5,2.46,5.5,5.5v120.7
					C1578.71,905.09,1576.25,907.55,1573.22,907.55z"></path>
				<path style="fill:none;stroke:#000000;stroke-linecap:round;stroke-linejoin:round;stroke-miterlimit:10;" d="M1573.22,907.55
					h-211.16c-3.04,0-5.5,2.46-5.5,5.5v33.41c0,3.04,2.46,5.5,5.5,5.5h211.16c3.04,0,5.5-2.46,5.5-5.5v-33.41
					C1578.71,910.01,1576.25,907.55,1573.22,907.55z"></path>
			</g>
		</g>
		<g>
			<path style="fill:none;stroke:#000000;stroke-linecap:round;stroke-linejoin:round;stroke-miterlimit:10;" d="M1402.37,828.18
				l0,0.01c-2.68,12.68-7.34,24.86-13.81,36.09l-0.01,0.01c-1.69,2.93-0.03,6.64,3.28,7.34l0.01,0
				c12.68,2.68,24.86,7.34,36.08,13.81l0.01,0.01c2.93,1.69,6.64,0.03,7.34-3.28l0-0.01c1.26-5.98,3-11.83,5.13-17.53
				c-7.27-0.33-14.56-0.08-21.81,0.75l-4.28,0.49c-1.91,0.22-3.49-1.49-3.1-3.38l0.85-4.22c1.84-9.07,2.23-18.38,1.17-27.57
				l-0.48-4.19c-1.01-0.54-2.04-1.02-3.03-1.59l-0.01-0.01C1406.79,823.22,1403.07,824.88,1402.37,828.18z"></path>
			<path style="fill:none;stroke:#000000;stroke-linecap:round;stroke-linejoin:round;stroke-miterlimit:10;" d="M1467.5,825.49
				l-4.28,0.49c-14.3,1.65-28.77,1.04-42.87-1.82l-4.22-0.85c-1.89-0.38-3.6,1.19-3.38,3.1l0.49,4.28c1.06,9.2,0.67,18.5-1.17,27.57
				l-0.85,4.22c-0.38,1.89,1.19,3.6,3.1,3.38l4.28-0.49c14.3-1.65,28.77-1.04,42.87,1.82l4.22,0.85c1.89,0.38,3.6-1.19,3.38-3.1
				l-0.49-4.28c-1.06-9.2-0.67-18.5,1.17-27.57l0.85-4.22C1470.98,826.98,1469.41,825.27,1467.5,825.49z"></path>
		</g>
		<g>
			<path style="fill:none;stroke:#000000;stroke-linecap:round;stroke-linejoin:round;stroke-miterlimit:10;" d="M1760.22,818.69
				l0,0.01c2.68,12.68,7.34,24.86,13.81,36.09l0.01,0.01c1.69,2.93,0.03,6.64-3.28,7.34l-0.01,0c-12.68,2.68-24.86,7.34-36.08,13.81
				l-0.01,0.01c-2.93,1.69-6.64,0.03-7.34-3.28l0-0.01c-1.26-5.98-3-11.83-5.13-17.53c7.27-0.33,14.56-0.08,21.81,0.75l4.28,0.49
				c1.91,0.22,3.49-1.49,3.1-3.38l-0.85-4.22c-1.84-9.07-2.23-18.38-1.17-27.57l0.48-4.19c1.01-0.54,2.04-1.02,3.03-1.59l0.01-0.01
				C1755.8,813.73,1759.52,815.39,1760.22,818.69z"></path>
			<path style="fill:none;stroke:#000000;stroke-linecap:round;stroke-linejoin:round;stroke-miterlimit:10;" d="M1695.09,816
				l4.28,0.49c14.3,1.65,28.77,1.04,42.87-1.82l4.22-0.85c1.89-0.38,3.6,1.19,3.38,3.1l-0.49,4.28c-1.06,9.2-0.67,18.5,1.17,27.57
				l0.85,4.22c0.38,1.89-1.19,3.6-3.1,3.38l-4.28-0.49c-14.3-1.65-28.77-1.04-42.87,1.82l-4.22,0.85c-1.89,0.38-3.6-1.19-3.38-3.1
				l0.49-4.28c1.06-9.2,0.67-18.5-1.17-27.57l-0.85-4.22C1691.6,817.49,1693.18,815.78,1695.09,816z"></path>
		</g>
	</g>
	<g>
		<g>
			
				<rect x="871.71" y="1247.82" style="fill:none;stroke:#000000;stroke-linecap:round;stroke-linejoin:round;stroke-miterlimit:10;" width="254.48" height="127.09"></rect>
			
				<line style="fill:none;stroke:#000000;stroke-linecap:round;stroke-linejoin:round;stroke-miterlimit:10;" x1="1126.19" y1="1366.31" x2="871.72" y2="1366.4"></line>
		</g>
		
			<line style="fill:none;stroke:#000000;stroke-linecap:round;stroke-linejoin:round;stroke-miterlimit:10;" x1="998.98" y1="1374.91" x2="998.98" y2="1247.82"></line>
	</g>
	<g>
		<g>
			
				<rect x="926.96" y="1505.78" style="fill:none;stroke:#000000;stroke-linecap:round;stroke-linejoin:round;stroke-miterlimit:10;" width="199.23" height="127.09"></rect>
			
				<line style="fill:none;stroke:#000000;stroke-linecap:round;stroke-linejoin:round;stroke-miterlimit:10;" x1="1126.19" y1="1514.39" x2="926.97" y2="1514.3"></line>
		</g>
		
			<line style="fill:none;stroke:#000000;stroke-linecap:round;stroke-linejoin:round;stroke-miterlimit:10;" x1="1026.59" y1="1505.78" x2="1026.59" y2="1632.88"></line>
	</g>
	<g>
		<g>
			<path style="fill:none;stroke:#000000;stroke-linecap:round;stroke-linejoin:round;stroke-miterlimit:10;" d="M1247.99,646.89
				l-2.23,29.2c-1.52,19.81-17.67,35.32-37.53,36.02l-2.26,0.08c-19.87,0.71-37.09-13.64-40-33.3l-0.99-6.73v0l-3.28-22.21
				c12.85,7.25,27.75,11.24,43.58,10.67C1221.11,660.07,1235.69,655.03,1247.99,646.89z"></path>
			<path style="fill:none;stroke:#000000;stroke-linecap:round;stroke-linejoin:round;stroke-miterlimit:10;" d="M1205.97,712.2
				l2.26-0.08c19.86-0.71,36.01-16.21,37.53-36.02l0.52-6.83c0.22-2.86,2.55-5.1,5.42-5.21c3.36-0.12,6.08,2.71,5.82,6.07l-0.54,7
				c-1.94,25.37-22.63,45.23-48.06,46.13l-2.89,0.1c-25.44,0.9-47.5-17.46-51.22-42.65l-1.02-6.89c-0.49-3.33,2.02-6.35,5.39-6.47h0
				c2.87-0.1,5.37,1.97,5.79,4.82l0.99,6.73C1168.88,698.57,1186.11,712.91,1205.97,712.2z"></path>
			<polygon style="fill:none;stroke:#000000;stroke-linecap:round;stroke-linejoin:round;stroke-miterlimit:10;" points="
				1165.98,678.9 1164.99,672.17 1164.99,672.17 			"></polygon>
			<path style="fill:none;stroke:#000000;stroke-linecap:round;stroke-linejoin:round;stroke-miterlimit:10;" d="M1323.51,528.65
				l0.83,2.1c7.29,18.5-0.5,39.52-18.08,48.81l-6.02,3.18l0,0l-15.83,8.37c2.41-14.36,1.16-29.51-4.56-44.04
				c-5.73-14.54-15.16-26.48-26.73-35.34l23.92-6.45C1296.22,500.1,1316.22,510.16,1323.51,528.65z"></path>
			<path style="fill:none;stroke:#000000;stroke-linecap:round;stroke-linejoin:round;stroke-miterlimit:10;" d="M1311.68,589.47
				l-6.16,3.26c-2.98,1.57-6.66,0.21-7.89-2.92c-1.05-2.68,0.07-5.72,2.62-7.06l6.02-3.18c17.58-9.29,25.36-30.31,18.08-48.81
				l-0.83-2.1c-7.28-18.49-27.29-28.55-46.47-23.38l-6.62,1.78c-2.77,0.75-5.66-0.71-6.72-3.38c-1.23-3.13,0.53-6.64,3.78-7.51
				l6.78-1.83c24.57-6.62,50.18,6.27,59.51,29.94l1.06,2.69C1344.16,550.65,1334.19,577.57,1311.68,589.47z"></path>
			<polygon style="fill:none;stroke:#000000;stroke-linecap:round;stroke-linejoin:round;stroke-miterlimit:10;" points="
				1306.26,579.56 1300.24,582.74 1300.24,582.74 			"></polygon>
			<path style="fill:none;stroke:#000000;stroke-linecap:round;stroke-linejoin:round;stroke-miterlimit:10;" d="M1119.54,584.12
				l-23.55-15.31c-16.66-10.83-22.52-32.45-13.61-50.21l1.01-2.02c8.91-17.77,29.76-26.01,48.41-19.12l6.38,2.36l0,0l19.91,7.35
				c-12.46,7.8-23.05,18.92-30.11,33.02C1120.91,554.3,1118.33,569.46,1119.54,584.12z"></path>
			<path style="fill:none;stroke:#000000;stroke-linecap:round;stroke-linejoin:round;stroke-miterlimit:10;" d="M1083.4,516.58
				l-1.01,2.02c-8.9,17.76-3.04,39.38,13.61,50.21l5.74,3.74c2.41,1.57,3.25,4.69,1.97,7.26c-1.51,3.01-5.3,4.04-8.12,2.2
				l-5.88-3.83c-21.33-13.87-28.83-41.55-17.43-64.29l1.3-2.59c11.41-22.76,38.11-33.3,61.99-24.49l6.54,2.41
				c3.16,1.17,4.6,4.82,3.09,7.83c-1.29,2.57-4.31,3.76-7,2.77l-6.38-2.36C1113.15,490.57,1092.31,498.81,1083.4,516.58z"></path>
			<polygon style="fill:none;stroke:#000000;stroke-linecap:round;stroke-linejoin:round;stroke-miterlimit:10;" points="
				1132.02,497.64 1138.39,500.04 1138.38,500.04 			"></polygon>
			
				<circle style="fill:none;stroke:#000000;stroke-linecap:round;stroke-linejoin:round;stroke-miterlimit:10;" cx="1202.64" cy="577.49" r="82.99"></circle>
		</g>
		<g>
			
				<ellipse transform="matrix(0.4234 -0.9059 0.9059 0.4234 169.3426 1421.964)" style="fill:none;stroke:#000000;stroke-linecap:round;stroke-linejoin:round;stroke-miterlimit:10;" cx="1201.8" cy="577.94" rx="31.88" ry="31.04"></ellipse>
			
				<ellipse transform="matrix(0.4234 -0.9059 0.9059 0.4234 176.4789 1405.2955)" style="fill:none;stroke:#000000;stroke-linecap:round;stroke-linejoin:round;stroke-miterlimit:10;" cx="1192.27" cy="564" rx="9.16" ry="8.92"></ellipse>
			
				<ellipse transform="matrix(0.4234 -0.9059 0.9059 0.4234 180.14 1424.1366)" style="fill:none;stroke:#000000;stroke-linecap:round;stroke-linejoin:round;stroke-miterlimit:10;" cx="1208.91" cy="570.55" rx="9.16" ry="8.92"></ellipse>
			
				<ellipse transform="matrix(0.4234 -0.9059 0.9059 0.4234 161.2655 1418.8445)" style="fill:none;stroke:#000000;stroke-linecap:round;stroke-linejoin:round;stroke-miterlimit:10;" cx="1195.31" cy="582.73" rx="9.16" ry="8.92"></ellipse>
			<path style="fill:none;stroke:#000000;stroke-linecap:round;stroke-linejoin:round;stroke-miterlimit:10;" d="M1186.76,595.45
				l0.5-2.01l7.55,2.14c15.74-0.74,20.95-12.69,24.43-19.05c0.8-1.47,2.99-0.98,3.08,0.68c0.3,5.88-0.57,14.93-7.53,20.5
				c-7.96,6.37-16.25,2.57-20.22-0.01L1186.76,595.45z"></path>
		</g>
	</g>
</g>
<g id="floor">
	<g>
		
			<line style="fill:none;stroke:#000000;stroke-linecap:round;stroke-linejoin:round;stroke-miterlimit:10;" x1="1450.35" y1="1679.73" x2="1450.35" y2="1660.66"></line>
		
			<line style="fill:none;stroke:#000000;stroke-linecap:round;stroke-linejoin:round;stroke-miterlimit:10;" x1="1201.4" y1="1679.73" x2="1201.4" y2="1660.66"></line>
		
			<rect x="1191.66" y="1660.66" style="fill:none;stroke:#000000;stroke-linecap:round;stroke-linejoin:round;stroke-miterlimit:10;" width="268.15" height="19.07"></rect>
		
			<rect x="1191.66" y="1632.88" style="fill:none;stroke:#000000;stroke-linecap:round;stroke-linejoin:round;stroke-miterlimit:10;" width="268.15" height="61.62"></rect>
	</g>
	<g>
		<path style="fill:none;stroke:#000000;stroke-linecap:round;stroke-linejoin:round;stroke-miterlimit:10;" d="M1320.97,966.91
			c0,94.98-76.83,172.72-171.81,172.72V967.29"></path>
		
			<rect x="1139.54" y="950.28" style="fill:none;stroke:#000000;stroke-linecap:round;stroke-linejoin:round;stroke-miterlimit:10;" width="9.62" height="17.01"></rect>
		
			<rect x="1320.97" y="950.28" style="fill:none;stroke:#000000;stroke-linecap:round;stroke-linejoin:round;stroke-miterlimit:10;" width="9.77" height="17.01"></rect>
	</g>
	<g>
		<path style="fill:none;stroke:#000000;stroke-linecap:round;stroke-linejoin:round;stroke-miterlimit:10;" d="M532.45,1233.05
			c0-84.38,68.26-153.45,152.64-153.45v153.12"></path>
		
			<rect x="685.09" y="1232.71" transform="matrix(-1 -1.702316e-12 1.702316e-12 -1 1378.7286 2480.531)" style="fill:none;stroke:#000000;stroke-linecap:round;stroke-linejoin:round;stroke-miterlimit:10;" width="8.55" height="15.11"></rect>
		
			<rect x="523.77" y="1232.71" transform="matrix(-1 3.351419e-12 -3.351419e-12 -1 1056.2198 2480.531)" style="fill:none;stroke:#000000;stroke-linecap:round;stroke-linejoin:round;stroke-miterlimit:10;" width="8.68" height="15.11"></rect>
	</g>
	<g>
		<path style="fill:none;stroke:#000000;stroke-linecap:round;stroke-linejoin:round;stroke-miterlimit:10;" d="M298.51,1007.59
			c-109.11,0-198.43,88.26-198.43,197.37h197.99"></path>
		
			<rect x="302.32" y="1200.72" transform="matrix(8.614271e-11 -1 1 8.614271e-11 -902.6469 1518.3424)" style="fill:none;stroke:#000000;stroke-linecap:round;stroke-linejoin:round;stroke-miterlimit:10;" width="11.05" height="19.54"></rect>
		
			<rect x="302.23" y="992.21" transform="matrix(8.860829e-11 -1 1 8.860829e-11 -694.1308 1309.8263)" style="fill:none;stroke:#000000;stroke-linecap:round;stroke-linejoin:round;stroke-miterlimit:10;" width="11.23" height="19.54"></rect>
	</g>
	
		<line style="fill:none;stroke:#000000;stroke-linecap:round;stroke-linejoin:round;stroke-miterlimit:10;stroke-dasharray:10,10;" x1="711.31" y1="828.51" x2="711.31" y2="1104.11"></line>
	
		<line style="fill:none;stroke:#000000;stroke-linecap:round;stroke-linejoin:round;stroke-miterlimit:10;stroke-dasharray:10,10;" x1="645.07" y1="836.98" x2="424.4" y2="836.98"></line>
	<g>
		<g>
			<g id="LWPOLYLINE_944_">
				
					<rect x="706.38" y="1247.93" style="fill:none;stroke:#000000;stroke-linecap:round;stroke-linejoin:round;stroke-miterlimit:10;" width="146.25" height="360.23"></rect>
			</g>
			<g id="LWPOLYLINE_943_">
				<path style="fill:none;stroke:#000000;stroke-linecap:round;stroke-linejoin:round;stroke-miterlimit:10;" d="M840.93,1296.75
					l0,235.87c0,34.64-27.5,62.71-61.42,62.71c-33.92,0-61.42-28.08-61.42-62.72l0-235.87c-0.01-16.55,13.03-30.03,29.24-30.22
					l64.35,0.01c16.15,0,29.25,13.38,29.25,29.87"></path>
			</g>
			<g id="LWPOLYLINE_942_">
				<path style="fill:none;stroke:#000000;stroke-linecap:round;stroke-linejoin:round;stroke-miterlimit:10;" d="M824.21,1371.31
					l0,161.3c0,25.22-20.02,45.66-44.71,45.65c-24.69,0-44.71-20.45-44.71-45.66l0-158.95c0.02-24.29,18.65-44.32,42.4-45.58
					C801.87,1326.76,822.92,1346.12,824.21,1371.31z"></path>
			</g>
			<g id="LWPOLYLINE_941_">
				<path style="fill:none;stroke:#000000;stroke-linecap:round;stroke-linejoin:round;stroke-miterlimit:10;" d="M779.5,1540.97
					c-4.52,0-8.19-3.74-8.19-8.36c0-4.62,3.67-8.36,8.19-8.36c4.53,0,8.19,3.75,8.19,8.36
					C787.69,1537.23,784.02,1540.97,779.5,1540.97z"></path>
			</g>
		</g>
		<g>
			<g id="LWPOLYLINE_940_">
				<path style="fill:none;stroke:#000000;stroke-linecap:round;stroke-linejoin:round;stroke-miterlimit:10;" d="M475.75,1539.45
					l-0.01-58.6c0-20.39-16.88-36.91-37.69-36.91c-20.82,0-37.7,16.53-37.7,36.92l0.01,58.6c0,5.1,4.22,9.23,9.42,9.23l56.55,0
					C471.54,1548.68,475.75,1544.55,475.75,1539.45z"></path>
			</g>
			<g id="LWPOLYLINE_939_">
				<path style="fill:none;stroke:#000000;stroke-linecap:round;stroke-linejoin:round;stroke-miterlimit:10;" d="M407.89,1480.86
					l0.01,32.77c0,16.31,13.5,29.53,30.15,29.53c16.66,0,30.16-13.22,30.16-29.53l-0.01-32.77c0-16.31-13.5-29.53-30.15-29.53
					C421.4,1451.33,407.89,1464.55,407.89,1480.86z"></path>
			</g>
			<g id="LWPOLYLINE_938_">
				<path style="fill:none;stroke:#000000;stroke-linecap:round;stroke-linejoin:round;stroke-miterlimit:10;" d="M426.74,1492.74
					l0.01,23.95c0,6.12,5.06,11.07,11.31,11.07s11.31-4.96,11.31-11.07l-0.01-23.95c0-6.12-5.06-11.07-11.31-11.07
					C431.8,1481.67,426.74,1486.63,426.74,1492.74z"></path>
			</g>
		</g>
		<g>
			<g id="LWPOLYLINE_937_">
				<path style="fill:none;stroke:#000000;stroke-linecap:round;stroke-linejoin:round;stroke-miterlimit:10;" d="M659.18,1608.62
					l-0.14-53.22c-0.02-7.5-4.77-14.12-11.77-16.4c-25.38-8.27-52.67-8.2-78.01,0.21c-6.98,2.32-11.7,8.97-11.68,16.47l0.14,53.22"></path>
			</g>
			<g id="LWPOLYLINE_936_">
				<path style="fill:none;stroke:#000000;stroke-linecap:round;stroke-linejoin:round;stroke-miterlimit:10;" d="M581.36,1593.94
					c-5.6,0.01-10.16-4.61-10.17-10.33l-0.04-16.58c-0.01-3.79,2.41-7.15,5.96-8.27c20.33-6.42,42.08-6.47,62.45-0.17
					c3.55,1.1,5.99,4.44,6,8.24l0.04,16.58c0.02,5.72-4.52,10.37-10.12,10.39"></path>
			</g>
			<g id="LWPOLYLINE_935_">
				<path style="fill:none;stroke:#000000;stroke-linecap:round;stroke-linejoin:round;stroke-miterlimit:10;" d="M652.35,1583.38
					l-0.07-27.96c-0.01-4.5-2.86-8.48-7.06-9.84c-24.03-7.84-49.87-7.77-73.86,0.2c-4.19,1.39-7.02,5.38-7.01,9.88l0.07,27.96
					c0.01,5.72,4.57,10.35,10.17,10.33l67.64-0.18C647.84,1593.76,652.37,1589.11,652.35,1583.38z"></path>
			</g>
			<g id="LWPOLYLINE_934_">
				<path style="fill:none;stroke:#000000;stroke-linecap:round;stroke-linejoin:round;stroke-miterlimit:10;" d="M608.4,1590.78
					c2.51-0.01,4.55-2.09,4.54-4.66c-0.01-2.57-2.05-4.64-4.57-4.63c-2.51,0.01-4.54,2.09-4.54,4.66
					C603.85,1588.71,605.89,1590.79,608.4,1590.78z"></path>
			</g>
		</g>
	</g>
	<g>
		<g id="LWPOLYLINE_59_">
			
				<rect x="504.76" y="350.71" style="fill:none;stroke:#000000;stroke-linecap:round;stroke-linejoin:round;stroke-miterlimit:10;" width="127.1" height="127.1"></rect>
		</g>
		<g>
			<g id="LWPOLYLINE_58_">
				<polyline style="fill:none;stroke:#000000;stroke-linecap:round;stroke-linejoin:round;stroke-miterlimit:10;" points="
					539.09,377.64 583.28,414.74 553.34,414.82 597.53,451.91 				"></polyline>
			</g>
			<g id="LWPOLYLINE_57_">
				<path style="fill:none;stroke:#000000;stroke-linecap:round;stroke-linejoin:round;stroke-miterlimit:10;" d="M535.05,414.87
					c0.05,17.99,14.98,32.53,33.34,32.48c18.37-0.05,33.22-14.67,33.17-32.65c-0.05-17.99-14.98-32.53-33.35-32.49
					C549.85,382.26,535,396.88,535.05,414.87z"></path>
			</g>
		</g>
	</g>
	<g>
		<g id="LWPOLYLINE_56_">
			
				<rect x="721.08" y="603.55" style="fill:none;stroke:#000000;stroke-linecap:round;stroke-linejoin:round;stroke-miterlimit:10;" width="126.62" height="126.86"></rect>
		</g>
		<g id="LWPOLYLINE_55_">
			
				<line style="fill:none;stroke:#000000;stroke-linecap:round;stroke-linejoin:round;stroke-miterlimit:10;" x1="752.56" y1="655.86" x2="752.56" y2="614.01"></line>
		</g>
		<g id="LWPOLYLINE_54_">
			
				<line style="fill:none;stroke:#000000;stroke-linecap:round;stroke-linejoin:round;stroke-miterlimit:10;" x1="773.55" y1="634.94" x2="731.58" y2="634.94"></line>
		</g>
		<g id="LWPOLYLINE_53_">
			
				<line style="fill:none;stroke:#000000;stroke-linecap:round;stroke-linejoin:round;stroke-miterlimit:10;" x1="752.56" y1="718.64" x2="752.56" y2="676.79"></line>
		</g>
		<g id="LWPOLYLINE_52_">
			
				<line style="fill:none;stroke:#000000;stroke-linecap:round;stroke-linejoin:round;stroke-miterlimit:10;" x1="773.55" y1="697.71" x2="731.58" y2="697.71"></line>
		</g>
		<g id="LWPOLYLINE_51_">
			
				<line style="fill:none;stroke:#000000;stroke-linecap:round;stroke-linejoin:round;stroke-miterlimit:10;" x1="815.52" y1="718.64" x2="815.52" y2="676.79"></line>
		</g>
		<g id="LWPOLYLINE_50_">
			
				<line style="fill:none;stroke:#000000;stroke-linecap:round;stroke-linejoin:round;stroke-miterlimit:10;" x1="836.51" y1="697.71" x2="794.53" y2="697.71"></line>
		</g>
		<g id="LWPOLYLINE_49_">
			
				<line style="fill:none;stroke:#000000;stroke-linecap:round;stroke-linejoin:round;stroke-miterlimit:10;" x1="815.52" y1="655.86" x2="815.52" y2="614.01"></line>
		</g>
		<g id="LWPOLYLINE_48_">
			
				<line style="fill:none;stroke:#000000;stroke-linecap:round;stroke-linejoin:round;stroke-miterlimit:10;" x1="836.51" y1="634.94" x2="794.53" y2="634.94"></line>
		</g>
		
			<ellipse style="fill:none;stroke:#000000;stroke-linecap:round;stroke-linejoin:round;stroke-miterlimit:10;" cx="815.53" cy="634.94" rx="16.79" ry="16.85"></ellipse>
		
			<ellipse style="fill:none;stroke:#000000;stroke-linecap:round;stroke-linejoin:round;stroke-miterlimit:10;" cx="752.56" cy="634.94" rx="16.79" ry="16.85"></ellipse>
		
			<ellipse style="fill:none;stroke:#000000;stroke-linecap:round;stroke-linejoin:round;stroke-miterlimit:10;" cx="815.53" cy="697.71" rx="16.79" ry="16.85"></ellipse>
		
			<ellipse style="fill:none;stroke:#000000;stroke-linecap:round;stroke-linejoin:round;stroke-miterlimit:10;" cx="752.56" cy="697.71" rx="16.79" ry="16.85"></ellipse>
	</g>
	<g>
		<g id="LWPOLYLINE_47_">
			
				<rect x="720.84" y="351.23" style="fill:none;stroke:#000000;stroke-linecap:round;stroke-linejoin:round;stroke-miterlimit:10;" width="126.86" height="126.14"></rect>
		</g>
		<g id="LWPOLYLINE_46_">
			<path style="fill:none;stroke:#000000;stroke-linecap:round;stroke-linejoin:round;stroke-miterlimit:10;" d="M829.73,466.85
				l-80.29,0c-4.09,0-7.4-3.29-7.4-7.36c0,0,0-90.4,0-90.4c0-4.06,3.31-7.36,7.4-7.36c0,0,80.3,0,80.3,0c4.09,0,7.4,3.29,7.4,7.36
				c0,0,0,90.41,0,90.41C837.13,463.56,833.82,466.85,829.73,466.85z"></path>
		</g>
		<g id="LWPOLYLINE_45_">
			<path style="fill:none;stroke:#000000;stroke-linecap:round;stroke-linejoin:round;stroke-miterlimit:10;" d="M770.01,435.32
				c0,4.07-3.32,7.38-7.42,7.38c-4.1,0-7.42-3.3-7.42-7.37c0-4.07,3.32-7.38,7.42-7.38C766.69,427.94,770.01,431.25,770.01,435.32z"></path>
		</g>
	</g>
	<g>
		
			<line style="fill:none;stroke:#000000;stroke-linecap:round;stroke-linejoin:round;stroke-miterlimit:10;" x1="1867.33" y1="455.07" x2="1886.4" y2="455.07"></line>
		
			<line style="fill:none;stroke:#000000;stroke-linecap:round;stroke-linejoin:round;stroke-miterlimit:10;" x1="1867.33" y1="558.97" x2="1886.4" y2="558.97"></line>
		
			<line style="fill:none;stroke:#000000;stroke-linecap:round;stroke-linejoin:round;stroke-miterlimit:10;" x1="1867.33" y1="571.67" x2="1886.4" y2="571.67"></line>
		
			<line style="fill:none;stroke:#000000;stroke-linecap:round;stroke-linejoin:round;stroke-miterlimit:10;" x1="1867.33" y1="773.04" x2="1886.4" y2="773.04"></line>
		
			<rect x="1708.3" y="604.66" transform="matrix(-8.880834e-12 -1 1 -8.880834e-12 1262.6718 2491.0554)" style="fill:none;stroke:#000000;stroke-linecap:round;stroke-linejoin:round;stroke-miterlimit:10;" width="337.13" height="19.07"></rect>
		
			<rect x="1702.92" y="585.76" transform="matrix(-8.773365e-12 -1 1 -8.773365e-12 1257.2928 2485.6765)" style="fill:none;stroke:#000000;stroke-linecap:round;stroke-linejoin:round;stroke-miterlimit:10;" width="337.13" height="56.86"></rect>
	</g>
	<g>
		
			<line style="fill:none;stroke:#000000;stroke-linecap:round;stroke-linejoin:round;stroke-miterlimit:10;" x1="1867.33" y1="1153.47" x2="1886.4" y2="1153.47"></line>
		
			<line style="fill:none;stroke:#000000;stroke-linecap:round;stroke-linejoin:round;stroke-miterlimit:10;" x1="1867.33" y1="1257.37" x2="1886.4" y2="1257.37"></line>
		
			<line style="fill:none;stroke:#000000;stroke-linecap:round;stroke-linejoin:round;stroke-miterlimit:10;" x1="1867.33" y1="1270.07" x2="1886.4" y2="1270.07"></line>
		
			<line style="fill:none;stroke:#000000;stroke-linecap:round;stroke-linejoin:round;stroke-miterlimit:10;" x1="1867.33" y1="1471.45" x2="1886.4" y2="1471.45"></line>
		
			<rect x="1708.3" y="1303.06" transform="matrix(-8.880834e-12 -1 1 -8.880834e-12 564.2709 3189.4563)" style="fill:none;stroke:#000000;stroke-linecap:round;stroke-linejoin:round;stroke-miterlimit:10;" width="337.13" height="19.07"></rect>
		
			<rect x="1702.92" y="1284.16" transform="matrix(-8.773365e-12 -1 1 -8.773365e-12 558.8919 3184.0774)" style="fill:none;stroke:#000000;stroke-linecap:round;stroke-linejoin:round;stroke-miterlimit:10;" width="337.13" height="56.86"></rect>
	</g>
	<g id="_x39_">
		
			<rect x="52.25" y="1429.83" transform="matrix(1.355900e-06 1 -1 1.355900e-06 1747.4473 1163.0518)" width="479.9" height="50.84"></rect>
		
			<rect x="-53.96" y="625.53" transform="matrix(5.453776e-07 1 -1 5.453776e-07 943.1499 358.7575)" width="692.3" height="50.84"></rect>
		
			<rect x="1691.45" y="1485.86" transform="matrix(5.453778e-07 1 -1 5.453778e-07 3385.9404 -102.8193)" width="105.86" height="311.41"></rect>
		
			<rect x="1764.82" y="1559.23" transform="matrix(4.874130e-07 1 -1 4.874130e-07 3459.3098 -283.6612)" width="213.33" height="57.2"></rect>
		
			<rect x="1690.24" y="934.86" transform="matrix(4.796710e-07 1 -1 4.796710e-07 2834.9431 -908.0269)" width="362.5" height="57.2"></rect>
		
			<rect x="1801.07" y="346.61" transform="matrix(4.594339e-07 1 -1 4.594339e-07 2246.6978 -1496.2715)" width="140.82" height="57.2"></rect>
		
			<rect x="1631.04" y="1412.74" transform="matrix(5.453780e-07 1 -1 5.453780e-07 3264.1001 -44.5932)" width="46.61" height="394.03"></rect>
		
			<rect x="970.08" y="1088.02" transform="matrix(8.012008e-07 1 -1 8.012008e-07 2214.208 -19.8008)" width="293.85" height="18.38"></rect>
		
			<rect x="1603.5" y="741.2" transform="matrix(5.453775e-07 1 -1 5.453775e-07 2601.0313 -652.5817)" width="46.61" height="466.05"></rect>
		
			<rect x="1358.24" y="919.61" transform="matrix(9.703722e-08 1 -1 9.703722e-08 2325.4614 -407.9595)" width="16.95" height="78.29"></rect>
		
			<rect x="1115.21" y="942.89" transform="matrix(3.932848e-08 1 -1 3.932848e-08 2082.4309 -164.9287)" width="16.95" height="31.73"></rect>
		
			<rect x="658.44" y="783.43" transform="matrix(7.860737e-07 1 -1 7.860737e-07 1503.8969 170.067)" width="16.95" height="107.1"></rect>
		
			<rect x="371.68" y="770.19" transform="matrix(9.804241e-07 1 -1 9.804241e-07 1217.1306 456.8327)" width="16.95" height="133.58"></rect>
		
			<rect x="1060.39" y="-488.28" transform="matrix(5.453777e-07 1 -1 5.453777e-07 1411.7983 -755.5893)" width="46.61" height="1632.78"></rect>
		
			<rect x="458.19" y="583.18" transform="matrix(2.240850e-07 1 -1 2.240850e-07 1303.6493 -117.4758)" width="504.74" height="19.81"></rect>
		
			<rect x="637.61" y="1162.71" transform="matrix(7.752251e-07 1 -1 7.752251e-07 1883.1797 462.054)" width="145.9" height="19.81"></rect>
		
			<rect x="665.52" y="434.87" transform="matrix(2.750719e-07 1 -1 2.750719e-07 1146.1785 -197.9013)" width="13.05" height="78.53"></rect>
		
			<rect x="572.2" y="407.53" transform="matrix(3.215708e-07 1 -1 3.215708e-07 1052.8595 -224.3331)" width="132.8" height="13.46"></rect>
		
			<rect x="402.49" y="1126.15" transform="matrix(5.453761e-07 1 -1 5.453761e-07 1650.3159 825.5185)" width="19.81" height="223.53"></rect>
		
			<rect x="899.8" y="1021.85" transform="matrix(1.318142e-06 1 -1 1.318142e-06 2147.6228 328.2079)" width="19.81" height="432.14"></rect>
		
			<rect x="125.98" y="1413.3" transform="matrix(5.482298e-07 1 -1 5.482298e-07 1759.0352 1102.0358)" width="405.04" height="34.47"></rect>
		
			<rect x="573.84" y="1338.3" transform="matrix(1.585394e-07 1 -1 1.585394e-07 2268.1458 1034.1194)" width="86.36" height="625.66"></rect>
		
			<rect x="666.28" y="1414.36" transform="matrix(5.453776e-07 1 -1 5.453776e-07 2286.79 561.7284)" width="392.49" height="19.81"></rect>
		<rect x="866.76" y="1313.61" transform="matrix(5.453782e-07 1 -1 5.453782e-07 2199.054 448.5282)" width="17" height="20.36"></rect>
		
			<rect x="746.64" y="1440.37" transform="matrix(6.802755e-07 1 -1 6.802755e-07 2370.2119 568.6569)" width="308.28" height="58.13"></rect>
		
			<rect x="478.64" y="1573.8" transform="matrix(5.453776e-07 1 -1 5.453776e-07 2096.585 1066.8228)" width="72.49" height="15.81"></rect>
		
			<rect x="419.62" y="1458.08" transform="matrix(5.453787e-07 1 -1 5.453787e-07 1980.8658 1125.8367)" width="15.78" height="190.55"></rect>
		
			<rect x="973.41" y="1476.03" transform="matrix(-1.836970e-16 1 -1 -1.836970e-16 2668.6121 659.4623)" width="62.32" height="376.02"></rect>
		
			<rect x="384.49" y="1515.22" transform="matrix(-1.836970e-16 1 -1 -1.836970e-16 2079.6887 1248.3856)" width="62.32" height="297.64"></rect>
		
			<rect x="1515.33" y="1574.72" transform="matrix(-1.836970e-16 1 -1 -1.836970e-16 3210.5313 117.5432)" width="62.32" height="178.63"></rect>
	</g>
</g>
</svg>
