<?xml version="1.0" encoding="utf-8"?>
<!-- Generator: Adobe Illustrator 24.1.2, SVG Export Plug-In . SVG Version: 6.00 Build 0)  -->
<svg version="1.0" id="Layer_1" xmlns="http://www.w3.org/2000/svg" xmlns:xlink="http://www.w3.org/1999/xlink" x="0px" y="0px" width="2000px" height="2000px" viewBox="0 0 2000 2000" style="enable-background:new 0 0 2000 2000;" xml:space="preserve">
<path id="background" style="fill:#FFFFFF;" d="M1719.53,1212.16v9.84h25.26v383.4v4.67v39.03H231.07v-38.24v-5.46v-7.07h-73.75
	c0,0,0,0,0,0c-0.02,0-0.04,0-0.07,0c-0.07-0.01-0.14-0.04-0.19-0.07c-0.01,0-0.01-0.01-0.02-0.02c-0.06-0.04-0.11-0.1-0.15-0.17
	c-0.01-0.01-0.02-0.02-0.02-0.03l-57.32-122.07c-0.04-0.09-0.06-0.2-0.04-0.3l77.19-414.54c0-0.01,0-0.01,0.01-0.01
	c0.01-0.04,0.02-0.08,0.04-0.11c0.01-0.02,0.02-0.04,0.03-0.05c0.02-0.03,0.04-0.06,0.07-0.08c0.02-0.02,0.04-0.03,0.06-0.05
	c0.03-0.02,0.05-0.03,0.08-0.05c0.03-0.01,0.06-0.02,0.1-0.03c0.02,0,0.03-0.01,0.05-0.02c0.01,0,0.02,0,0.02,0
	c0.01,0,0.02-0.01,0.03-0.01h53.88V941.99h-73.75c0,0,0,0,0,0c-0.02,0-0.05,0-0.07,0c-0.07-0.01-0.13-0.03-0.19-0.07
	c0,0,0,0-0.01-0.01c-0.07-0.04-0.12-0.1-0.16-0.17c-0.01-0.01-0.02-0.01-0.02-0.02L99.55,826.59c-0.05-0.1-0.06-0.21-0.04-0.32
	l77.19-390.94c0,0,0-0.01,0-0.01c0.01-0.04,0.03-0.08,0.04-0.11c0.01-0.02,0.02-0.04,0.03-0.05c0.02-0.03,0.04-0.06,0.07-0.08
	c0.02-0.02,0.04-0.03,0.06-0.05c0.03-0.02,0.05-0.03,0.08-0.05c0.03-0.01,0.06-0.02,0.1-0.03c0.02,0,0.03-0.01,0.05-0.02
	c0.01,0,0.02,0,0.03,0c0.01,0,0.02-0.01,0.03-0.01h53.88v-34.35v-2.68v-46.99h1513.72v44.7v4.97v618.8h-25.26c0,0,0,0,0,0v10.31
	H1900c0.28,0,0.5,0.22,0.5,0.5C1900.5,1129.87,1819.5,1211.09,1719.53,1212.16z"></path>
<g id="c1">
	<path id="c1_path" style="fill:none;" d="M1041.56,1001.49V877.27l292.81,0.19v749.69l-1049,0.09v-625.75H1041.56z"></path>
	<text id="c1_text" transform="matrix(1 0 0 1 886.4365 1255.9733)" style="font-family: GraphikLCG-Regular; font-size: 40px; text-anchor: middle; text-align: center;"></text>
</g>
<g id="r1">
	<path id="r1_path" style="fill:none;" d="M285.38,1001.49V375.74h756.19v625.75H285.38z"></path>
	<text id="r1_text" transform="matrix(1 0 0 1 643.8945 890.0827)" style="font-family: GraphikLCG-Regular; font-size: 40px; text-anchor: middle; text-align: center;"></text>
</g>
<g id="g1">
	<path id="g1_path" style="fill:none;" d="M1334.37,1636.56V1294.8h387.57v341.77H1334.37z"></path>
	
		<text id="g1_text" transform="matrix(1 0 0 1 1427.0378 1416.6823)" style="font-family: GraphikLCG-Regular; font-size: 40px; text-anchor: middle; text-align: center;"></text>
</g>
<g id="g2">
	<path id="g2_path" style="fill:none;" d="M1041.56,877.33V375.74h296.65v501.59H1041.56z"></path>
	<text id="g2_text" transform="matrix(1 0 0 1 1114.3407 630.3347)" style="font-family: GraphikLCG-Regular; font-size: 40px; text-anchor: middle; text-align: center;"></text>
</g>
<g id="h1">
	<path id="h1_path" style="fill:none;" d="M1334.37,1294.8V853.83h374.01v440.97H1334.37z"></path>
	
		<text id="h1_text" transform="matrix(1 0 0 1 1501.6692 1094.2135)" style="font-family: GraphikLCG-Regular; font-size: 40px; text-anchor: middle; text-align: center;"></text>
</g>
<g id="s1">
	<path id="s1_path" style="fill:none;" d="M1338.21,853.83V375.74h383.73v478.09H1338.21z"></path>
	<text id="s1_text" transform="matrix(1 0 0 1 1462.1658 667.1042)" style="font-family: GraphikLCG-Regular; font-size: 40px; text-anchor: middle; text-align: center;"></text>
</g>
<path id="u1" style="fill:#FFFFFF;stroke:#FFFFFF;stroke-linecap:round;stroke-linejoin:round;stroke-miterlimit:10;" d="
	M837.74,863.62c-10.13,0-18.35-8.22-18.35-18.35c0-10.13,8.22-18.35,18.35-18.35c10.13,0,18.35,8.22,18.35,18.35
	C856.09,855.41,847.88,863.62,837.74,863.62z"></path>
<path id="u3" style="fill:#FFFFFF;stroke:#FFFFFF;stroke-linecap:round;stroke-linejoin:round;stroke-miterlimit:10;" d="
	M1536.97,1460.84c-10.13,0-18.35-8.22-18.35-18.35c0-10.13,8.22-18.35,18.35-18.35c10.13,0,18.35,8.22,18.35,18.35
	C1555.32,1452.63,1547.11,1460.84,1536.97,1460.84z"></path>
<path id="u10" style="fill:#FFFFFF;stroke:#FFFFFF;stroke-linecap:round;stroke-linejoin:round;stroke-miterlimit:10;" d="
	M1378.96,804.62c-10.13,0-18.35-8.22-18.35-18.35s8.22-18.35,18.35-18.35c10.13,0,18.35,8.22,18.35,18.35
	S1389.09,804.62,1378.96,804.62z"></path>
<g id="mebel">
	<g>
		<g>
			
				<rect x="1487.86" y="1394.35" transform="matrix(8.777757e-06 -1 1 8.777757e-06 184.4018 3093.429)" style="fill:none;stroke:#000000;stroke-linecap:round;stroke-linejoin:round;stroke-miterlimit:10;" width="302.15" height="120.32"></rect>
			
				<rect x="1430.25" y="1451.96" transform="matrix(8.777757e-06 -1 1 8.777757e-06 126.7941 3035.8203)" style="fill:none;stroke:#000000;stroke-linecap:round;stroke-linejoin:round;stroke-miterlimit:10;" width="302.15" height="5.11"></rect>
		</g>
	</g>
	<g>
		<g>
			
				<rect x="1508.55" y="1487.04" style="fill:none;stroke:#000000;stroke-linecap:round;stroke-linejoin:round;stroke-miterlimit:10;" width="70.16" height="118.34"></rect>
			
				<rect x="1508.55" y="1487.04" style="fill:none;stroke:#000000;stroke-linecap:round;stroke-linejoin:round;stroke-miterlimit:10;" width="70.16" height="5.11"></rect>
		</g>
	</g>
	<g>
		<g>
			
				<rect x="1049.6" y="400.72" transform="matrix(-1 -9.573831e-06 9.573831e-06 -1 2376.2251 918.2056)" style="fill:none;stroke:#000000;stroke-linecap:round;stroke-linejoin:round;stroke-miterlimit:10;" width="277.02" height="116.76"></rect>
			
				<rect x="1049.6" y="512.37" transform="matrix(-1 -9.573832e-06 9.573832e-06 -1 2376.2241 1029.8574)" style="fill:none;stroke:#000000;stroke-linecap:round;stroke-linejoin:round;stroke-miterlimit:10;" width="277.02" height="5.11"></rect>
		</g>
	</g>
	<g>
		<g>
			
				<rect x="1049.6" y="752.63" transform="matrix(-1 9.573810e-06 -9.573810e-06 -1 2376.2363 1622.0026)" style="fill:none;stroke:#000000;stroke-linecap:round;stroke-linejoin:round;stroke-miterlimit:10;" width="277.02" height="116.76"></rect>
			
				<rect x="1049.6" y="752.63" transform="matrix(-1 9.573810e-06 -9.573810e-06 -1 2376.2356 1510.3508)" style="fill:none;stroke:#000000;stroke-linecap:round;stroke-linejoin:round;stroke-miterlimit:10;" width="277.02" height="5.11"></rect>
		</g>
	</g>
	<g>
		<g>
			
				<circle style="fill:#FFFFFF;stroke:#000000;stroke-linecap:round;stroke-linejoin:round;stroke-miterlimit:10;" cx="373.7" cy="1533.45" r="21.91"></circle>
			
				<circle style="fill:#FFFFFF;stroke:#000000;stroke-linecap:round;stroke-linejoin:round;stroke-miterlimit:10;" cx="373.7" cy="1533.45" r="19.48"></circle>
		</g>
		<g>
			
				<line style="fill:#FFFFFF;stroke:#000000;stroke-linecap:round;stroke-linejoin:round;stroke-miterlimit:10;" x1="416.66" y1="1533.45" x2="374.58" y2="1533.45"></line>
			<path style="fill:#FFFFFF;stroke:#000000;stroke-linecap:round;stroke-linejoin:round;stroke-miterlimit:10;" d="M416.66,1533.48
				c-12.73,6.46-29.34,5.94-42.08-0.05C387.52,1527.58,403.94,1526.85,416.66,1533.48L416.66,1533.48z"></path>
		</g>
		<g>
			
				<line style="fill:#FFFFFF;stroke:#000000;stroke-linecap:round;stroke-linejoin:round;stroke-miterlimit:10;" x1="409.86" y1="1509.51" x2="375.07" y2="1533.18"></line>
			<path style="fill:#FFFFFF;stroke:#000000;stroke-linecap:round;stroke-linejoin:round;stroke-miterlimit:10;" d="M409.88,1509.54
				c-6.89,12.5-20.92,21.42-34.83,23.62C382.46,1521.05,395.63,1511.21,409.88,1509.54L409.88,1509.54z"></path>
		</g>
		<g>
			
				<line style="fill:#FFFFFF;stroke:#000000;stroke-linecap:round;stroke-linejoin:round;stroke-miterlimit:10;" x1="391.04" y1="1494.56" x2="374.79" y2="1533.37"></line>
			<path style="fill:#FFFFFF;stroke:#000000;stroke-linecap:round;stroke-linejoin:round;stroke-miterlimit:10;" d="M391.06,1494.57
				c1.04,14.23-5.85,29.36-16.3,38.79C374.37,1519.17,380.04,1503.74,391.06,1494.57L391.06,1494.57z"></path>
		</g>
		<g>
			
				<line style="fill:#FFFFFF;stroke:#000000;stroke-linecap:round;stroke-linejoin:round;stroke-miterlimit:10;" x1="357.73" y1="1495.35" x2="375.33" y2="1533.57"></line>
			<path style="fill:#FFFFFF;stroke:#000000;stroke-linecap:round;stroke-linejoin:round;stroke-miterlimit:10;" d="M357.75,1495.34
				c11.19,8.86,17.67,24.16,17.55,38.24C364.58,1524.28,357.05,1509.67,357.75,1495.34L357.75,1495.34z"></path>
		</g>
		<g>
			
				<line style="fill:#FFFFFF;stroke:#000000;stroke-linecap:round;stroke-linejoin:round;stroke-miterlimit:10;" x1="338.83" y1="1511.54" x2="374.88" y2="1533.25"></line>
			<path style="fill:#FFFFFF;stroke:#000000;stroke-linecap:round;stroke-linejoin:round;stroke-miterlimit:10;" d="M338.84,1511.52
				c14.24,1.04,28.2,10.04,36.02,21.75C360.77,1531.61,346.32,1523.76,338.84,1511.52L338.84,1511.52z"></path>
		</g>
		<g>
			
				<line style="fill:#FFFFFF;stroke:#000000;stroke-linecap:round;stroke-linejoin:round;stroke-miterlimit:10;" x1="340.42" y1="1557.49" x2="375.22" y2="1533.82"></line>
			<path style="fill:#FFFFFF;stroke:#000000;stroke-linecap:round;stroke-linejoin:round;stroke-miterlimit:10;" d="M340.41,1557.46
				c6.89-12.5,20.92-21.42,34.83-23.62C367.83,1545.95,354.65,1555.79,340.41,1557.46L340.41,1557.46z"></path>
		</g>
		<g>
			
				<line style="fill:#FFFFFF;stroke:#000000;stroke-linecap:round;stroke-linejoin:round;stroke-miterlimit:10;" x1="359.25" y1="1572.44" x2="375.5" y2="1533.63"></line>
			<path style="fill:#FFFFFF;stroke:#000000;stroke-linecap:round;stroke-linejoin:round;stroke-miterlimit:10;" d="M359.22,1572.43
				c-1.04-14.24,5.85-29.36,16.3-38.79C375.92,1547.83,370.25,1563.26,359.22,1572.43L359.22,1572.43z"></path>
		</g>
		<g>
			
				<line style="fill:#FFFFFF;stroke:#000000;stroke-linecap:round;stroke-linejoin:round;stroke-miterlimit:10;" x1="392.56" y1="1571.65" x2="374.96" y2="1533.43"></line>
			<path style="fill:#FFFFFF;stroke:#000000;stroke-linecap:round;stroke-linejoin:round;stroke-miterlimit:10;" d="M392.54,1571.66
				c-11.19-8.86-17.67-24.16-17.55-38.24C385.7,1542.72,393.23,1557.33,392.54,1571.66L392.54,1571.66z"></path>
		</g>
		<g>
			
				<line style="fill:#FFFFFF;stroke:#000000;stroke-linecap:round;stroke-linejoin:round;stroke-miterlimit:10;" x1="411.46" y1="1555.46" x2="375.41" y2="1533.75"></line>
			<path style="fill:#FFFFFF;stroke:#000000;stroke-linecap:round;stroke-linejoin:round;stroke-miterlimit:10;" d="M411.44,1555.48
				c-14.24-1.04-28.2-10.04-36.02-21.75C389.52,1535.39,403.96,1543.24,411.44,1555.48L411.44,1555.48z"></path>
		</g>
		<g>
			
				<line style="fill:#FFFFFF;stroke:#000000;stroke-linecap:round;stroke-linejoin:round;stroke-miterlimit:10;" x1="333.11" y1="1534.89" x2="375.17" y2="1533.42"></line>
			<path style="fill:#FFFFFF;stroke:#000000;stroke-linecap:round;stroke-linejoin:round;stroke-miterlimit:10;" d="M333.11,1534.87
				c12.5-6.9,29.11-6.97,42.06-1.42C362.45,1539.74,346.06,1541.04,333.11,1534.87L333.11,1534.87z"></path>
		</g>
	</g>
	<g>
		<g>
			
				<rect x="569.73" y="1479.8" transform="matrix(-1.836970e-16 1 -1 -1.836970e-16 2164.6594 1014.233)" style="fill:none;stroke:#000000;stroke-linecap:round;stroke-linejoin:round;stroke-miterlimit:10;" width="10.96" height="219.29"></rect>
			<polygon style="fill:none;stroke:#000000;stroke-linecap:round;stroke-linejoin:round;stroke-miterlimit:10;" points="
				657.45,1605.89 684.86,1594.93 465.57,1594.93 492.98,1605.89 			"></polygon>
		</g>
		
			<rect x="538.18" y="1423.4" transform="matrix(-1.836970e-16 1 -1 -1.836970e-16 2143.5125 981.9299)" style="fill:none;stroke:#000000;stroke-linecap:round;stroke-linejoin:round;stroke-miterlimit:10;" width="85.22" height="278.65"></rect>
	</g>
	<g>
		<g>
			
				<circle style="fill:#FFFFFF;stroke:#000000;stroke-linecap:round;stroke-linejoin:round;stroke-miterlimit:10;" cx="846.53" cy="440.5" r="29.73"></circle>
			
				<circle style="fill:#FFFFFF;stroke:#000000;stroke-linecap:round;stroke-linejoin:round;stroke-miterlimit:10;" cx="846.53" cy="440.5" r="10.61"></circle>
		</g>
		
			<line style="fill:#FFFFFF;stroke:#000000;stroke-linecap:round;stroke-linejoin:round;stroke-miterlimit:10;" x1="846.53" y1="451.11" x2="846.53" y2="429.89"></line>
		
			<line style="fill:#FFFFFF;stroke:#000000;stroke-linecap:round;stroke-linejoin:round;stroke-miterlimit:10;" x1="835.92" y1="440.5" x2="857.14" y2="440.5"></line>
	</g>
	<g>
		<g>
			
				<circle style="fill:#FFFFFF;stroke:#000000;stroke-linecap:round;stroke-linejoin:round;stroke-miterlimit:10;" cx="436.89" cy="440.5" r="29.73"></circle>
			
				<circle style="fill:#FFFFFF;stroke:#000000;stroke-linecap:round;stroke-linejoin:round;stroke-miterlimit:10;" cx="436.89" cy="440.5" r="10.61"></circle>
		</g>
		
			<line style="fill:#FFFFFF;stroke:#000000;stroke-linecap:round;stroke-linejoin:round;stroke-miterlimit:10;" x1="436.89" y1="451.11" x2="436.89" y2="429.89"></line>
		
			<line style="fill:#FFFFFF;stroke:#000000;stroke-linecap:round;stroke-linejoin:round;stroke-miterlimit:10;" x1="426.29" y1="440.5" x2="447.5" y2="440.5"></line>
	</g>
	<g>
		<g>
			<g>
				<g>
					
						<rect x="474.28" y="400.57" style="fill:none;stroke:#000000;stroke-linecap:round;stroke-linejoin:round;stroke-miterlimit:10;" width="336.15" height="14.91"></rect>
					
						<rect x="474.28" y="415.48" style="fill:none;stroke:#000000;stroke-linecap:round;stroke-linejoin:round;stroke-miterlimit:10;" width="336.15" height="407.52"></rect>
					<path style="fill:none;stroke:#000000;stroke-linecap:round;stroke-linejoin:round;stroke-miterlimit:10;" d="M636.04,492.18
						h12.65v-36.71c0-10.98,8.9-19.88,19.88-19.88l94.43,0c10.98,0,19.88,8.9,19.88,19.88l0,36.71h12.65l0-64.27
						c0-2.74-2.23-4.97-4.97-4.97l-296.39,0c-2.74,0-4.97,2.23-4.97,4.97l0,64.27h12.65l0-36.71c0-10.98,8.9-19.88,19.88-19.88
						l94.43,0c10.98,0,19.88,8.9,19.88,19.88L636.04,492.18z"></path>
					<path style="fill:none;stroke:#000000;stroke-linecap:round;stroke-linejoin:round;stroke-miterlimit:10;" d="M489.95,810.58
						l304.82,0c0.42,0,0.75-0.34,0.75-0.75l0-317.64l-306.33,0l0,317.64C489.19,810.24,489.53,810.58,489.95,810.58z"></path>
				</g>
			</g>
		</g>
		
			<rect x="810.44" y="400.57" transform="matrix(-1 -4.489443e-11 4.489443e-11 -1 1695.6261 890.7977)" style="fill:none;stroke:#000000;stroke-linecap:round;stroke-linejoin:round;stroke-miterlimit:10;" width="74.75" height="89.65"></rect>
		
			<rect x="399.52" y="400.57" transform="matrix(-1 -4.482160e-11 4.482160e-11 -1 873.7882 890.7977)" style="fill:none;stroke:#000000;stroke-linecap:round;stroke-linejoin:round;stroke-miterlimit:10;" width="74.75" height="89.65"></rect>
	</g>
	<path style="fill:#FFFFFF;stroke:#000000;stroke-linecap:round;stroke-linejoin:round;stroke-miterlimit:10;" d="M628.47,708.55
		l0.01-0.01c14.79-5.58,30.37-8.8,46.16-9.53l0.01,0c4.11-0.19,6.84-4.34,5.39-8.19l-0.01-0.01c-5.58-14.79-8.8-30.37-9.53-46.16
		l0-0.01c-0.19-4.11-4.34-6.84-8.19-5.39l-0.01,0.01c-14.79,5.58-30.37,8.8-46.16,9.53l-0.01,0c-4.11,0.19-6.84,4.34-5.39,8.19
		l0.01,0.01c5.58,14.79,8.8,30.37,9.53,46.16l0,0.01C620.46,707.28,624.61,710.01,628.47,708.55z"></path>
	<path style="fill:#FFFFFF;stroke:#000000;stroke-linecap:round;stroke-linejoin:round;stroke-miterlimit:10;" d="M602.81,695.92
		l4.07-3.32c13.61-11.09,28.88-19.97,45.26-26.3l4.9-1.9c2.19-0.85,2.92-3.59,1.43-5.41l-3.32-4.07
		c-7.13-8.75-12.84-18.58-16.92-29.11l-1.9-4.9c-0.85-2.19-3.59-2.92-5.41-1.43l-4.07,3.32c-13.61,11.09-28.88,19.97-45.26,26.3
		l-4.9,1.9c-2.19,0.85-2.92,3.59-1.43,5.41l3.32,4.07c7.13,8.75,12.84,18.58,16.92,29.11l1.9,4.9
		C598.25,696.68,600.99,697.4,602.81,695.92z"></path>
	<g>
		<g>
			<path style="fill:#FFFFFF;stroke:#000000;stroke-linecap:round;stroke-linejoin:round;stroke-miterlimit:10;" d="
				M1212.38,1138.21l11.95,7.67l-13.34,23.23c-2.26,4.16,3.77,7.66,6.25,3.59l14.25-24.8c0.65-1.14,0.91-2.46,0.71-3.76l-2.52-17.09
				c-0.91-6.18-6.66-10.45-12.83-9.54C1206.52,1118.98,1203.7,1132.72,1212.38,1138.21L1212.38,1138.21z"></path>
			<path style="fill:#FFFFFF;stroke:#000000;stroke-linecap:round;stroke-linejoin:round;stroke-miterlimit:10;" d="
				M1229.71,1135.66"></path>
			<path style="fill:#FFFFFF;stroke:#000000;stroke-linecap:round;stroke-linejoin:round;stroke-miterlimit:10;" d="M1222.7,1081.91
				c0.04,1.05,0.9,1.88,1.95,1.91c1.13,0.03,2.07-0.89,2.05-2.02c-0.17-9.77,7.53-18.52,17.46-20.08c3.41-0.54,6.11-0.08,9.12,1.01
				c0.16-0.13,0.33-0.25,0.5-0.37c-0.05-0.02-0.09-0.06-0.13-0.08c-3.86-2.03-8.42-2.81-13.06-2.1
				C1229.92,1061.82,1222.26,1071.31,1222.7,1081.91z"></path>
			<g>
				<path style="fill:#FFFFFF;stroke:#000000;stroke-linecap:round;stroke-linejoin:round;stroke-miterlimit:10;" d="
					M1217.86,1105.48c-0.06-1.18-0.7-2.3-1.79-2.93l-15.46-8.97c-1.6-0.93-3.66-0.24-4.38,1.47l-6.7,15.91
					c-0.83,1.95,0.21,4.22,2.28,4.85c1.8,0.55,3.71-0.51,4.44-2.25l4.8-11.4l11.27,6.53c1.5,0.87,3.47,0.68,4.62-0.62
					C1217.62,1107.31,1217.91,1106.38,1217.86,1105.48z"></path>
			</g>
			<path style="fill:#FFFFFF;stroke:#000000;stroke-linecap:round;stroke-linejoin:round;stroke-miterlimit:10;" d="
				M1227.83,1082.29"></path>
			<path style="fill:#FFFFFF;stroke:#000000;stroke-linecap:round;stroke-linejoin:round;stroke-miterlimit:10;" d="
				M1218.24,1109.25c0,0-3.52,2.69-7.16,2.07c-3.1-0.53-5.39-2.54-6.78-5.19l0,0l-0.11-0.23c-0.06-0.12-0.12-0.24-0.18-0.36
				l-5.96-12.19l-9.07,8.4c-1.38,1.28-3.55,1.46-4.97,0.22c-1.63-1.43-1.64-3.92-0.08-5.36l12.66-11.74
				c1.36-1.26,3.52-1.04,4.59,0.47l4.23,5.92c2.86-4.61,6.53-7.14,9.91-8.48c4.89-1.93,10.45-1.59,15.08,0.9
				c0.11,0.06,0.21,0.12,0.28,0.17c3.73,2.44,12.42,8.51,13.28,25.1c1.36,26.4-17.09,36.09-17.09,36.09"></path>
			<g>
				<path style="fill:#FFFFFF;stroke:#000000;stroke-linecap:round;stroke-linejoin:round;stroke-miterlimit:10;" d="
					M1207.35,1157.18l5.76-34.51c0.33-1.96-1-3.82-2.96-4.15c-1.96-0.33-3.82,1-4.15,2.96l-5.76,34.51c-0.33,1.96,1,3.82,2.96,4.15
					C1205.17,1160.47,1207.02,1159.14,1207.35,1157.18z"></path>
			</g>
			
				<line style="fill:#FFFFFF;stroke:#000000;stroke-linecap:round;stroke-linejoin:round;stroke-miterlimit:10;" x1="1227.12" y1="1098.1" x2="1206.38" y2="1124.15"></line>
			<path style="fill:#FFFFFF;stroke:#000000;stroke-linecap:round;stroke-linejoin:round;stroke-miterlimit:10;" d="
				M1224.42,1119.07l-7.51-4.25c-3.57-2.05-8.13-0.82-10.18,2.75l-2.34,4.08c-3.09,5.37-1.23,12.23,4.14,15.32l5.22,3
				c2.8,1.61,5.99,1.93,8.87,1.15"></path>
			<g>
				<g>
					<path style="fill:#FFFFFF;stroke:#000000;stroke-linecap:round;stroke-linejoin:round;stroke-miterlimit:10;" d="
						M1197.59,1136.84l4.36-2.11l8.09-8.09c2.55-2.55,6.84-1.82,8.42,1.42l5.52,11.38c1.57,3.24-0.52,7.06-4.1,7.49l-11.36,1.34
						l-4.36,2.11c-2.15,1.04-4.74,0.14-5.78-2.01l-2.79-5.75C1194.54,1140.47,1195.44,1137.89,1197.59,1136.84z"></path>
					<g>
						<path style="fill:#FFFFFF;stroke:#000000;stroke-linecap:round;stroke-linejoin:round;stroke-miterlimit:10;" d="
							M1220.83,1137.83l-6.48,10.86c-0.63,1.06,0.03,2.42,1.25,2.58l6.03,0.79c2.79,0.37,4.87-2.52,3.64-5.05L1220.83,1137.83z"></path>
						<path style="fill:#FFFFFF;stroke:#000000;stroke-linecap:round;stroke-linejoin:round;stroke-miterlimit:10;" d="
							M1207.09,1122.08l-3.12,5.23c-0.63,1.06,0.03,2.42,1.25,2.58l12.54,1.65l-4.45-9.18
							C1212.09,1119.81,1208.54,1119.66,1207.09,1122.08z"></path>
					</g>
					<path style="fill:none;stroke:#000000;stroke-linecap:round;stroke-linejoin:round;stroke-miterlimit:10;" d="M1196.42,1144.34
						l1.27-2.12c0.73-1.22,2.53-1.15,3.15,0.14l1,2.07c0.62,1.28-0.43,2.74-1.84,2.56l-2.45-0.32L1196.42,1144.34z"></path>
					<path style="fill:#FFFFFF;stroke:#000000;stroke-linecap:round;stroke-linejoin:round;stroke-miterlimit:10;" d="
						M1211.42,1140.16c-0.73-0.22-1.5,0.18-1.72,0.91c-0.22,0.73,0.18,1.5,0.91,1.72"></path>
					<path style="fill:#FFFFFF;stroke:#000000;stroke-linecap:round;stroke-linejoin:round;stroke-miterlimit:10;" d="
						M1207.11,1136.27c-0.12,0.75,0.39,1.46,1.14,1.58s1.46-0.39,1.58-1.14"></path>
					<g>
						<g>
							<path style="fill:none;stroke:#000000;stroke-linecap:round;stroke-linejoin:round;stroke-miterlimit:10;" d="
								M1209.48,1146.5c0.12-1.11-1.2-2.58-2.16-2.73"></path>
						</g>
					</g>
					<g>
						<g>
							<path style="fill:none;stroke:#000000;stroke-linecap:round;stroke-linejoin:round;stroke-miterlimit:10;" d="
								M1203.9,1134.99c0.95,0.6,1.29,2.54,0.81,3.39"></path>
						</g>
					</g>
				</g>
				
					<line style="fill:#FFFFFF;stroke:#000000;stroke-linecap:round;stroke-linejoin:round;stroke-miterlimit:10;" x1="1196.98" y1="1145.5" x2="1198.44" y2="1144.79"></line>
			</g>
		</g>
		
			<rect x="1218.85" y="1125.54" transform="matrix(-0.9114 0.4116 -0.4116 -0.9114 2802.8762 1659.7595)" style="fill:#FFFFFF;" width="7.78" height="12.23"></rect>
	</g>
	<g>
		<g>
			
				<circle style="fill:#FFFFFF;stroke:#000000;stroke-linecap:round;stroke-linejoin:round;stroke-miterlimit:10;" cx="379.48" cy="936.15" r="29.38"></circle>
			
				<circle style="fill:#FFFFFF;stroke:#000000;stroke-linecap:round;stroke-linejoin:round;stroke-miterlimit:10;" cx="379.48" cy="936.15" r="26.11"></circle>
		</g>
		<g>
			<g>
				<path style="fill:#FFFFFF;stroke:#000000;stroke-linecap:round;stroke-linejoin:round;stroke-miterlimit:10;" d="M371.15,949.56
					c0.12,0.51,0.56,0.89,1.08,0.94c2.45,0.22,5.35-1.04,7.5-3.52c2.4-2.76,3.18-6.23,2.19-8.72c-2.6-0.63-5.93,0.62-8.33,3.38
					C371.44,944.12,370.59,947.16,371.15,949.56z"></path>
				
					<line style="fill:#FFFFFF;stroke:#000000;stroke-linecap:round;stroke-linejoin:round;stroke-miterlimit:10;" x1="369.91" y1="951.91" x2="381.92" y2="938.26"></line>
			</g>
			<g>
				<path style="fill:#FFFFFF;stroke:#000000;stroke-linecap:round;stroke-linejoin:round;stroke-miterlimit:10;" d="M373.96,955.19
					c-1.05,0.01-1.99,0.69-2.31,1.7c-1.51,4.68-0.32,10.89,3.57,16.18c4.34,5.9,10.76,8.94,16.05,8.1c2.38-4.8,1.4-11.83-2.93-17.74
					C384.45,958.14,378.88,955.15,373.96,955.19z"></path>
				
					<line style="fill:#FFFFFF;stroke:#000000;stroke-linecap:round;stroke-linejoin:round;stroke-miterlimit:10;" x1="369.92" y1="951.73" x2="391.27" y2="981.17"></line>
			</g>
			<g>
				<path style="fill:#FFFFFF;stroke:#000000;stroke-linecap:round;stroke-linejoin:round;stroke-miterlimit:10;" d="M367.44,956.68
					c-0.25-1.06-1.16-1.84-2.25-1.93c-5.08-0.43-11.06,2.21-15.49,7.36c-4.95,5.75-6.52,12.94-4.44,18.08
					c5.39,1.28,12.27-1.34,17.21-7.09C366.9,967.94,368.63,961.63,367.44,956.68z"></path>
				
					<line style="fill:#FFFFFF;stroke:#000000;stroke-linecap:round;stroke-linejoin:round;stroke-miterlimit:10;" x1="369.99" y1="951.79" x2="345.26" y2="980.18"></line>
			</g>
			<g>
				<path style="fill:#FFFFFF;stroke:#000000;stroke-linecap:round;stroke-linejoin:round;stroke-miterlimit:10;" d="M364.6,950.66
					c0.95-0.53,1.46-1.62,1.25-2.69c-0.96-5-5.12-10.05-11.28-12.92c-6.87-3.2-14.22-2.77-18.61,0.62
					c0.23,5.54,4.61,11.45,11.49,14.65C353.61,953.2,360.15,953.14,364.6,950.66z"></path>
				
					<line style="fill:#FFFFFF;stroke:#000000;stroke-linecap:round;stroke-linejoin:round;stroke-miterlimit:10;" x1="369.99" y1="951.79" x2="335.96" y2="935.67"></line>
			</g>
		</g>
		<g>
			<g>
				<path style="fill:#FFFFFF;stroke:#000000;stroke-linecap:round;stroke-linejoin:round;stroke-miterlimit:10;" d="M369.85,921.05
					c0.44-0.6,0.44-1.42,0-2.02c-2.04-2.82-6.06-4.74-10.7-4.74c-5.18,0-9.59,2.38-11.33,5.75c1.74,3.36,6.15,5.75,11.33,5.75
					C363.78,925.79,367.82,923.87,369.85,921.05z"></path>
				
					<line style="fill:#FFFFFF;stroke:#000000;stroke-linecap:round;stroke-linejoin:round;stroke-miterlimit:10;" x1="373.51" y1="920.2" x2="347.82" y2="920.03"></line>
			</g>
			<g>
				<path style="fill:#FFFFFF;stroke:#000000;stroke-linecap:round;stroke-linejoin:round;stroke-miterlimit:10;" d="M371,915.34
					c1,0.42,2.17,0.15,2.89-0.67c3.35-3.83,4.77-10.22,3.25-16.84c-1.7-7.39-6.56-12.91-11.93-14.29
					c-4.23,3.58-6.19,10.68-4.49,18.07C362.24,908.23,366.3,913.35,371,915.34z"></path>
				
					<line style="fill:#FFFFFF;stroke:#000000;stroke-linecap:round;stroke-linejoin:round;stroke-miterlimit:10;" x1="373.42" y1="920.28" x2="365.2" y2="883.54"></line>
			</g>
			<g>
				<path style="fill:#FFFFFF;stroke:#000000;stroke-linecap:round;stroke-linejoin:round;stroke-miterlimit:10;" d="M377.53,916.61
					c-0.14,1.08,0.44,2.13,1.42,2.6c4.6,2.19,11.13,1.82,17.09-1.44c6.65-3.64,10.65-9.82,10.52-15.36
					c-4.6-3.1-11.95-3.06-18.61,0.58C381.99,906.25,378.16,911.55,377.53,916.61z"></path>
				
					<line style="fill:#FFFFFF;stroke:#000000;stroke-linecap:round;stroke-linejoin:round;stroke-miterlimit:10;" x1="373.42" y1="920.28" x2="406.56" y2="902.41"></line>
			</g>
		</g>
		<g>
			<g>
				<path style="fill:#FFFFFF;stroke:#000000;stroke-linecap:round;stroke-linejoin:round;stroke-miterlimit:10;" d="M379.46,936.17
					c0.4-0.62,0.35-1.43-0.11-2c-2.17-2.67-6.26-4.34-10.84-4.07c-5.11,0.29-9.34,2.9-10.86,6.31c1.9,3.22,6.4,5.33,11.51,5.04
					C373.73,941.19,377.6,939.07,379.46,936.17z"></path>
				
					<line style="fill:#FFFFFF;stroke:#000000;stroke-linecap:round;stroke-linejoin:round;stroke-miterlimit:10;" x1="383.02" y1="935.12" x2="357.64" y2="936.41"></line>
			</g>
			<g>
				<path style="fill:#FFFFFF;stroke:#000000;stroke-linecap:round;stroke-linejoin:round;stroke-miterlimit:10;" d="M380.82,932.37
					c0.72,0.17,1.48-0.14,1.87-0.77c1.83-2.96,2.06-7.42,0.28-11.7c-1.98-4.78-5.88-7.95-9.65-8.27c-2.44,2.89-2.96,7.89-0.98,12.67
					C374.12,928.58,377.44,931.57,380.82,932.37z"></path>
				
					<line style="fill:#FFFFFF;stroke:#000000;stroke-linecap:round;stroke-linejoin:round;stroke-miterlimit:10;" x1="383.01" y1="935.43" x2="373.33" y2="911.62"></line>
			</g>
			<g>
				<path style="fill:#FFFFFF;stroke:#000000;stroke-linecap:round;stroke-linejoin:round;stroke-miterlimit:10;" d="M386.54,931.24
					c-0.01,1.09,0.69,2.07,1.72,2.42c4.83,1.63,11.27,0.49,16.8-3.45c6.18-4.4,9.42-11.01,8.63-16.49
					c-4.93-2.53-12.23-1.63-18.41,2.77C389.75,920.43,386.57,926.14,386.54,931.24z"></path>
				
					<line style="fill:#FFFFFF;stroke:#000000;stroke-linecap:round;stroke-linejoin:round;stroke-miterlimit:10;" x1="382.9" y1="935.37" x2="413.7" y2="913.71"></line>
			</g>
			<g>
				<path style="fill:#FFFFFF;stroke:#000000;stroke-linecap:round;stroke-linejoin:round;stroke-miterlimit:10;" d="M387.86,937.76
					c-1.05,0.29-1.8,1.22-1.86,2.31c-0.26,5.09,2.58,10.98,7.87,15.24c5.91,4.75,13.15,6.08,18.22,3.84
					c1.1-5.43-1.75-12.22-7.66-16.97C399.14,937.92,392.78,936.41,387.86,937.76z"></path>
				
					<line style="fill:#FFFFFF;stroke:#000000;stroke-linecap:round;stroke-linejoin:round;stroke-miterlimit:10;" x1="382.9" y1="935.37" x2="412.09" y2="959.15"></line>
			</g>
		</g>
	</g>
	<g>
		<polygon style="fill:none;stroke:#000000;stroke-linecap:round;stroke-linejoin:round;stroke-miterlimit:10;" points="
			613.85,1277.57 615.85,1281.27 587.84,1296.45 585.32,1291.79 582.78,1295.95 603.03,1308.28 619.6,1281.07 		"></polygon>
		
			<line style="fill:none;stroke:#000000;stroke-linecap:round;stroke-linejoin:round;stroke-miterlimit:10;" x1="612.77" y1="1275.58" x2="617.98" y2="1269.85"></line>
		
			<line style="fill:none;stroke:#000000;stroke-linecap:round;stroke-linejoin:round;stroke-miterlimit:10;" x1="601.45" y1="1307.32" x2="618.01" y2="1280.1"></line>
		<g>
			<polygon style="fill:none;stroke:#000000;stroke-linecap:round;stroke-linejoin:round;stroke-miterlimit:10;" points="
				604.56,1260.43 613.71,1277.31 619.35,1271.1 601.81,1255.15 589.69,1268.48 			"></polygon>
			<polygon style="fill:none;stroke:#000000;stroke-linecap:round;stroke-linejoin:round;stroke-miterlimit:10;" points="
				595.38,1292.36 597.93,1294.67 604.53,1287.41 			"></polygon>
		</g>
		
			<rect x="580.27" y="1266.58" transform="matrix(0.8793 -0.4763 0.4763 0.8793 -536.9612 438.3183)" style="fill:none;stroke:#000000;stroke-linecap:round;stroke-linejoin:round;stroke-miterlimit:10;" width="31.86" height="23.71"></rect>
		
			<line style="fill:none;stroke:#000000;stroke-linecap:round;stroke-linejoin:round;stroke-miterlimit:10;" x1="586.96" y1="1294.82" x2="614.97" y2="1279.64"></line>
	</g>
	<g>
		<path style="fill:none;stroke:#000000;stroke-linecap:round;stroke-linejoin:round;stroke-miterlimit:10;" d="M591.98,1047.35
			H405.63c-0.55,0-1,0.45-1,1v118.6c0,0.55,0.45,1,1,1h186.35c0.55,0,1-0.45,1-1v-118.6
			C592.98,1047.79,592.54,1047.35,591.98,1047.35z"></path>
		<path style="fill:none;stroke:#000000;stroke-linecap:round;stroke-linejoin:round;stroke-miterlimit:10;" d="M591.98,1047.35
			H405.63c-0.55,0-1-0.45-1-1v-35.91c0-0.55,0.45-1,1-1h186.35c0.55,0,1,0.45,1,1v35.91
			C592.98,1046.9,592.54,1047.35,591.98,1047.35z"></path>
		<path style="fill:none;stroke:#000000;stroke-linecap:round;stroke-linejoin:round;stroke-miterlimit:10;" d="M593.98,1047.35
			l186.35,0c0.55,0,1,0.45,1,1v118.6c0,0.55-0.45,1-1,1H593.98c-0.55,0-1-0.45-1-1v-118.6
			C592.98,1047.79,593.43,1047.35,593.98,1047.35z"></path>
		<path style="fill:none;stroke:#000000;stroke-linecap:round;stroke-linejoin:round;stroke-miterlimit:10;" d="M593.98,1047.35
			l186.35,0c0.55,0,1-0.45,1-1v-35.91c0-0.55-0.45-1-1-1H593.98c-0.55,0-1,0.45-1,1v35.91
			C592.98,1046.9,593.43,1047.35,593.98,1047.35z"></path>
	</g>
	<path style="fill:none;stroke:#000000;stroke-linecap:round;stroke-linejoin:round;stroke-miterlimit:10;" d="M674.57,1273.1
		c0,9.85,0,29.38,0,39.23c0,10.07-8.26,15.22-18.51,16.9c-41.83,6.12-84.33,6.12-126.15,0c-10.25-1.68-18.51-6.83-18.51-16.9
		c0-9.85,0-29.38,0-39.23c0-10.07,8.26-15.22,18.51-16.9c41.83-6.12,84.33-6.12,126.15,0
		C666.31,1257.88,674.57,1263.03,674.57,1273.1z"></path>
	<g>
		<path style="fill:#FFFFFF;stroke:#000000;stroke-linecap:round;stroke-linejoin:round;stroke-miterlimit:10;" d="M710.29,1105.19
			l0.01,0c11.65,2.87,22.78,7.55,32.97,13.88l0.01,0.01c2.66,1.65,6.15,0.23,6.89-2.81l0-0.01c2.87-11.65,7.55-22.78,13.88-32.97
			l0.01-0.01c1.65-2.66,0.23-6.15-2.81-6.89l-0.01,0c-11.65-2.87-22.78-7.55-32.97-13.88l-0.01-0.01c-2.66-1.65-6.15-0.23-6.89,2.81
			l0,0.01c-2.87,11.65-7.55,22.78-13.88,32.97l-0.01,0.01C705.83,1100.95,707.26,1104.44,710.29,1105.19z"></path>
		<path style="fill:#FFFFFF;stroke:#000000;stroke-linecap:round;stroke-linejoin:round;stroke-miterlimit:10;" d="M710.58,1102.6
			c0.1,0.04,0.21,0.08,0.32,0.11c5.94,1.46,11.8,3.4,17.42,5.77c5.63,2.37,11.11,5.2,16.29,8.42c0.11,0.07,0.21,0.12,0.31,0.16
			c0.54,0.23,1.16,0.2,1.7-0.07c0.31-0.16,0.85-0.53,1.06-1.3l0.01-0.05c2.93-11.93,7.71-23.27,14.19-33.71l0.04-0.06
			c0.4-0.68,0.29-1.32,0.18-1.65c-0.18-0.58-0.6-1.04-1.14-1.27c-0.1-0.04-0.21-0.08-0.32-0.11c-5.94-1.46-11.8-3.4-17.42-5.77
			c-5.63-2.37-11.11-5.2-16.29-8.42c-0.11-0.07-0.21-0.12-0.31-0.16c-0.54-0.23-1.16-0.2-1.7,0.07c-0.31,0.15-0.85,0.53-1.06,1.3
			l-0.01,0.05c-2.93,11.93-7.71,23.27-14.19,33.71l-0.04,0.06c-0.4,0.68-0.29,1.32-0.18,1.65
			C709.62,1101.91,710.04,1102.37,710.58,1102.6z"></path>
	</g>
	<g>
		<path style="fill:#FFFFFF;stroke:#000000;stroke-linecap:round;stroke-linejoin:round;stroke-miterlimit:10;" d="M422.87,1069.33
			l0.01,0c12.91-3.17,25.23-8.36,36.52-15.38l0.01-0.01c2.94-1.83,6.81-0.25,7.64,3.11l0,0.01c3.17,12.91,8.36,25.23,15.38,36.52
			l0.01,0.01c1.83,2.94,0.25,6.81-3.11,7.64l-0.01,0c-12.91,3.17-25.23,8.36-36.52,15.38l-0.01,0.01c-2.94,1.83-6.81,0.25-7.64-3.11
			l0-0.01c-3.17-12.91-8.36-25.23-15.38-36.52l-0.01-0.01C417.93,1074.03,419.51,1070.16,422.87,1069.33z"></path>
		<path style="fill:#FFFFFF;stroke:#000000;stroke-linecap:round;stroke-linejoin:round;stroke-miterlimit:10;" d="M423.19,1072.2
			c0.11-0.05,0.23-0.09,0.35-0.12c6.58-1.62,13.07-3.77,19.3-6.39s12.31-5.76,18.05-9.33c0.12-0.07,0.23-0.13,0.34-0.18
			c0.6-0.25,1.29-0.23,1.89,0.07c0.34,0.17,0.94,0.59,1.17,1.44l0.01,0.05c3.25,13.22,8.54,25.78,15.72,37.34l0.04,0.06
			c0.44,0.75,0.32,1.46,0.2,1.83c-0.2,0.64-0.66,1.15-1.27,1.4c-0.11,0.05-0.23,0.09-0.35,0.12c-6.58,1.62-13.07,3.77-19.3,6.39
			s-12.31,5.76-18.05,9.33c-0.12,0.07-0.23,0.13-0.34,0.18c-0.6,0.25-1.29,0.23-1.89-0.07c-0.34-0.17-0.94-0.59-1.17-1.44
			l-0.01-0.05c-3.25-13.22-8.54-25.78-15.72-37.34l-0.04-0.06c-0.44-0.75-0.32-1.47-0.2-1.83
			C422.13,1072.96,422.59,1072.45,423.19,1072.2z"></path>
	</g>
	<g>
		<path style="fill:#FFFFFF;stroke:#000000;stroke-linecap:round;stroke-linejoin:round;stroke-miterlimit:10;" d="M455.8,1073.16
			c0.12-0.02,0.24-0.04,0.37-0.04c6.77-0.22,13.57-0.97,20.21-2.24c6.64-1.27,13.23-3.08,19.59-5.38c0.13-0.05,0.25-0.08,0.37-0.1
			c0.64-0.12,1.31,0.05,1.83,0.46c0.3,0.24,0.8,0.77,0.84,1.65l0,0.05c0.44,13.6,3,26.99,7.62,39.79l0.03,0.07
			c0.28,0.83,0.01,1.5-0.18,1.83c-0.33,0.58-0.89,0.98-1.53,1.11c-0.12,0.02-0.24,0.04-0.37,0.04c-6.77,0.22-13.57,0.97-20.21,2.24
			c-6.64,1.27-13.23,3.08-19.59,5.38c-0.13,0.05-0.25,0.08-0.37,0.1c-0.64,0.12-1.31-0.05-1.83-0.46c-0.3-0.24-0.8-0.77-0.84-1.65
			l0-0.05c-0.44-13.6-3-26.99-7.62-39.79l-0.03-0.07c-0.28-0.83-0.01-1.5,0.18-1.83C454.6,1073.69,455.16,1073.28,455.8,1073.16z"></path>
	</g>
	<g>
		<path style="fill:#FFFFFF;stroke:#000000;stroke-linecap:round;stroke-linejoin:round;stroke-miterlimit:10;" d="M704.79,1064.86
			c0.08,0.07,0.16,0.15,0.23,0.24c3.87,4.74,8.14,9.19,12.69,13.26s9.47,7.8,14.61,11.1c0.11,0.07,0.2,0.14,0.28,0.21
			c0.44,0.39,0.68,0.96,0.67,1.57c-0.01,0.34-0.11,1-0.72,1.51l-0.04,0.03c-9.51,7.77-17.7,16.96-24.34,27.29l-0.04,0.06
			c-0.44,0.65-1.07,0.83-1.41,0.87c-0.6,0.08-1.19-0.1-1.63-0.49c-0.08-0.07-0.16-0.15-0.23-0.24c-3.87-4.74-8.14-9.19-12.69-13.26
			s-9.47-7.8-14.61-11.1c-0.11-0.07-0.19-0.14-0.28-0.21c-0.44-0.39-0.68-0.96-0.67-1.57c0.01-0.35,0.11-1,0.72-1.51l0.04-0.03
			c9.51-7.77,17.7-16.96,24.34-27.29l0.04-0.06c0.44-0.65,1.07-0.83,1.41-0.87C703.76,1064.29,704.36,1064.47,704.79,1064.86z"></path>
	</g>
	<g>
		<path style="fill:#FFFFFF;stroke:#000000;stroke-linecap:round;stroke-linejoin:round;stroke-miterlimit:10;" d="M661.06,1553.6
			l-7.25,1.33c-0.71,0.13-1.4-0.34-1.53-1.05l-1.65-8.94c-0.13-0.71,0.34-1.4,1.05-1.53l7.25-1.33c0.44-0.08,0.85,0.21,0.93,0.64
			l1.83,9.94C661.79,1553.1,661.5,1553.52,661.06,1553.6z"></path>
		
			<line style="fill:none;stroke:#000000;stroke-linecap:round;stroke-linejoin:round;stroke-miterlimit:10;" x1="657.19" y1="1554.31" x2="655.07" y2="1542.79"></line>
		<path style="fill:#FFFFFF;stroke:#000000;stroke-linecap:round;stroke-linejoin:round;stroke-miterlimit:10;" d="M663.78,1554.39
			l5.4,5.01c0.53,0.49,1.36,0.46,1.85-0.07l6.19-6.67c0.49-0.53,0.46-1.36-0.07-1.85l-5.4-5.01c-0.33-0.3-0.83-0.28-1.13,0.04
			l-6.88,7.41C663.43,1553.58,663.45,1554.09,663.78,1554.39z"></path>
		
			<line style="fill:none;stroke:#000000;stroke-linecap:round;stroke-linejoin:round;stroke-miterlimit:10;" x1="666.67" y1="1557.07" x2="674.64" y2="1548.48"></line>
		<path style="fill:none;stroke:#000000;stroke-linecap:round;stroke-linejoin:round;stroke-miterlimit:10;" d="M655.12,1542.78
			c-0.18-1.44-0.07-2.94,0.36-4.42c1.7-5.85,7.82-9.21,13.67-7.51c5.85,1.7,9.21,7.82,7.51,13.67c-0.43,1.46-1.13,2.77-2.03,3.88"></path>
		<g>
			<path style="fill:#FFFFFF;stroke:#000000;stroke-linecap:round;stroke-linejoin:round;stroke-miterlimit:10;" d="M676.23,1546.03
				c-0.83-0.24-1.3-1.11-1.06-1.93c1.46-5.01-1.43-10.28-6.45-11.74c-5.01-1.46-10.28,1.43-11.74,6.45
				c-0.24,0.83-1.11,1.3-1.94,1.06c-0.83-0.24-1.3-1.11-1.06-1.93c1.94-6.67,8.94-10.51,15.61-8.57c6.67,1.94,10.51,8.94,8.57,15.61
				C677.92,1545.79,677.05,1546.27,676.23,1546.03z"></path>
		</g>
	</g>
	<g>
		<g>
			
				<rect x="1248.66" y="1203.66" transform="matrix(-2.554277e-05 1 -1 -2.554277e-05 2530.4109 -4.7876)" style="fill:none;stroke:#000000;stroke-linecap:round;stroke-linejoin:round;stroke-miterlimit:10;" width="37.87" height="118.24"></rect>
		</g>
	</g>
	<g>
		<polygon style="fill:none;stroke:#000000;stroke-linecap:round;stroke-linejoin:round;stroke-miterlimit:10;" points="
			1208.47,1487.19 1208.47,1399.92 1326.66,1399.92 1326.68,1487.19 		"></polygon>
		<path style="fill:none;stroke:#000000;stroke-linecap:round;stroke-linejoin:round;stroke-miterlimit:10;" d="M1292.22,1443.55
			l-30.12-14.27c-1.84-0.78-3.87-1.21-6-1.21c-8.55,0-15.48,6.93-15.48,15.48c0,8.55,6.93,15.48,15.48,15.48
			c2.13,0,4.15-0.43,6-1.21L1292.22,1443.55z"></path>
	</g>
	<g>
		<polygon style="fill:none;stroke:#000000;stroke-linecap:round;stroke-linejoin:round;stroke-miterlimit:10;" points="
			1165.57,1003.4 1049.66,1003.4 1049.66,885.3 1165.57,885.28 		"></polygon>
		<g>
			
				<line style="fill:none;stroke:#000000;stroke-linecap:round;stroke-linejoin:round;stroke-miterlimit:10;" x1="1107.62" y1="914.86" x2="1107.62" y2="971.61"></line>
			
				<line style="fill:none;stroke:#000000;stroke-linecap:round;stroke-linejoin:round;stroke-miterlimit:10;" x1="1135.99" y1="943.24" x2="1079.24" y2="943.24"></line>
			<polyline style="fill:none;stroke:#000000;stroke-linecap:round;stroke-linejoin:round;stroke-miterlimit:10;" points="
				1121.81,921.17 1107.62,929.05 1093.43,921.17 			"></polyline>
			<polyline style="fill:none;stroke:#000000;stroke-linecap:round;stroke-linejoin:round;stroke-miterlimit:10;" points="
				1085.55,929.05 1093.43,943.24 1085.55,957.42 			"></polyline>
			<polyline style="fill:none;stroke:#000000;stroke-linecap:round;stroke-linejoin:round;stroke-miterlimit:10;" points="
				1093.43,965.31 1107.62,957.42 1121.81,965.31 			"></polyline>
			<polyline style="fill:none;stroke:#000000;stroke-linecap:round;stroke-linejoin:round;stroke-miterlimit:10;" points="
				1129.69,957.42 1121.81,943.24 1129.69,929.05 			"></polyline>
		</g>
	</g>
	<g>
		<g>
			
				<rect x="1165.58" y="885.22" style="fill:none;stroke:#000000;stroke-linecap:round;stroke-linejoin:round;stroke-miterlimit:10;" width="161.05" height="118.24"></rect>
		</g>
	</g>
	<g>
		<g>
			<path style="fill:none;stroke:#000000;stroke-linecap:round;stroke-linejoin:round;stroke-miterlimit:10;" d="M897.66,1525.44
				l-22.33,17.85c-13.97,11.17-34.1,10.05-46.74-2.6l-1.44-1.44c-12.64-12.64-13.76-32.75-2.62-46.72l17.85-22.37L897.66,1525.44z"></path>
			<path style="fill:none;stroke:#000000;stroke-linecap:round;stroke-linejoin:round;stroke-miterlimit:10;" d="M820.45,1481.39
				l-3.94,4.93c-14.27,17.89-12.83,43.64,3.35,59.82l1.84,1.84c16.19,16.19,41.97,17.62,59.86,3.32l4.89-3.91
				c2.37-1.89,2.56-5.42,0.42-7.56l0,0c-1.83-1.83-4.74-1.99-6.76-0.38l-4.78,3.82c-13.97,11.17-34.1,10.05-46.74-2.6l-1.44-1.44
				c-12.64-12.64-13.76-32.75-2.62-46.72l3.84-4.82c1.61-2.02,1.45-4.93-0.38-6.75l0,0
				C825.87,1478.83,822.34,1479.03,820.45,1481.39z"></path>
		</g>
		<g>
			<path style="fill:none;stroke:#000000;stroke-linecap:round;stroke-linejoin:round;stroke-miterlimit:10;" d="M947.95,1364.65
				l22.33-17.85c13.97-11.17,34.1-10.05,46.74,2.6l1.44,1.44c12.64,12.64,13.76,32.75,2.62,46.72l-17.85,22.37L947.95,1364.65z"></path>
			<path style="fill:none;stroke:#000000;stroke-linecap:round;stroke-linejoin:round;stroke-miterlimit:10;" d="M1025.16,1408.7
				l3.94-4.93c14.27-17.89,12.83-43.64-3.35-59.82l-1.84-1.84c-16.19-16.19-41.97-17.62-59.86-3.32l-4.89,3.91
				c-2.37,1.89-2.56,5.42-0.42,7.56h0c1.83,1.83,4.74,1.99,6.76,0.38l4.78-3.82c13.97-11.17,34.1-10.05,46.74,2.6l1.44,1.44
				c12.64,12.64,13.76,32.75,2.62,46.72l-3.84,4.82c-1.61,2.02-1.45,4.93,0.38,6.75l0,0
				C1019.75,1411.26,1023.27,1411.07,1025.16,1408.7z"></path>
		</g>
		<g>
			<path style="fill:none;stroke:#000000;stroke-linecap:round;stroke-linejoin:round;stroke-miterlimit:10;" d="M842.41,1419.9
				l-17.85-22.33c-11.17-13.97-10.05-34.1,2.6-46.74l1.44-1.44c12.64-12.64,32.75-13.76,46.72-2.62l22.37,17.85L842.41,1419.9z"></path>
			<path style="fill:none;stroke:#000000;stroke-linecap:round;stroke-linejoin:round;stroke-miterlimit:10;" d="M886.46,1342.69
				l-4.93-3.94c-17.89-14.27-43.64-12.83-59.82,3.35l-1.84,1.84c-16.19,16.19-17.62,41.97-3.32,59.86l3.91,4.9
				c1.89,2.37,5.42,2.56,7.56,0.42l0,0c1.83-1.83,1.99-4.74,0.38-6.76l-3.82-4.78c-11.17-13.97-10.05-34.1,2.6-46.74l1.44-1.44
				c12.64-12.64,32.75-13.76,46.72-2.62l4.82,3.84c2.02,1.61,4.93,1.45,6.75-0.38h0C889.02,1348.11,888.83,1344.58,886.46,1342.69z"></path>
		</g>
		<g>
			<path style="fill:none;stroke:#000000;stroke-linecap:round;stroke-linejoin:round;stroke-miterlimit:10;" d="M947.84,1525.32
				l22.33,17.85c13.97,11.17,34.1,10.05,46.74-2.6l1.44-1.44c12.64-12.64,13.76-32.75,2.62-46.72l-17.85-22.37L947.84,1525.32z"></path>
			<path style="fill:none;stroke:#000000;stroke-linecap:round;stroke-linejoin:round;stroke-miterlimit:10;" d="M1025.04,1481.28
				l3.94,4.93c14.27,17.89,12.83,43.64-3.35,59.82l-1.84,1.84c-16.19,16.19-41.97,17.62-59.86,3.32l-4.89-3.91
				c-2.37-1.89-2.56-5.42-0.42-7.56l0,0c1.83-1.83,4.74-1.99,6.76-0.38l4.78,3.82c13.97,11.17,34.1,10.05,46.74-2.6l1.44-1.44
				c12.64-12.64,13.76-32.75,2.62-46.72l-3.84-4.82c-1.61-2.02-1.45-4.93,0.38-6.75l0,0
				C1019.63,1478.71,1023.16,1478.91,1025.04,1481.28z"></path>
		</g>
		<path style="fill:none;stroke:#000000;stroke-linecap:round;stroke-linejoin:round;stroke-miterlimit:10;" d="M1027.64,1444.34
			l-104.13-104.13c-0.39-0.39-1.02-0.39-1.41,0l-104.13,104.13c-0.39,0.39-0.39,1.02,0,1.41l104.13,104.13
			c0.39,0.39,1.02,0.39,1.41,0l104.13-104.13C1028.03,1445.36,1028.03,1444.73,1027.64,1444.34z"></path>
	</g>
	<g>
		<path style="fill:#FFFFFF;stroke:#000000;stroke-linecap:round;stroke-linejoin:round;stroke-miterlimit:10;" d="M932.65,1456.18
			l3.95-9.1l3.81,1.65l-3.95,9.1c-0.04,0.09-0.15,0.14-0.24,0.1l-3.47-1.51C932.65,1456.38,932.61,1456.27,932.65,1456.18z"></path>
		
			<circle style="fill:#FFFFFF;stroke:#000000;stroke-linecap:round;stroke-linejoin:round;stroke-miterlimit:10;" cx="942.91" cy="1437.73" r="11.66"></circle>
		
			<circle style="fill:#FFFFFF;stroke:#000000;stroke-linecap:round;stroke-linejoin:round;stroke-miterlimit:10;" cx="942.91" cy="1437.73" r="8.61"></circle>
	</g>
	<g>
		<g>
			
				<circle style="fill:#FFFFFF;stroke:#000000;stroke-linecap:round;stroke-linejoin:round;stroke-miterlimit:10;" cx="887.23" cy="1413.86" r="21.76"></circle>
		</g>
		<g>
			
				<circle style="fill:#FFFFFF;stroke:#000000;stroke-linecap:round;stroke-linejoin:round;stroke-miterlimit:10;" cx="887.23" cy="1413.86" r="12.39"></circle>
		</g>
		<g>
			
				<ellipse transform="matrix(0.7056 -0.7086 0.7086 0.7056 -774.4225 1041.899)" style="fill:#FFFFFF;stroke:#000000;stroke-linecap:round;stroke-linejoin:round;stroke-miterlimit:10;" cx="866.7" cy="1452.95" rx="3.37" ry="5.48"></ellipse>
			
				<line style="fill:#FFFFFF;stroke:#000000;stroke-linecap:round;stroke-linejoin:round;stroke-miterlimit:10;" x1="862.81" y1="1449.09" x2="845.83" y2="1432.18"></line>
		</g>
		<g>
			<path style="fill:#FFFFFF;stroke:#000000;stroke-linecap:round;stroke-linejoin:round;stroke-miterlimit:10;" d="M925.4,1401.76
				l-3.88-3.86c-2.14-2.13-4.95-2.79-6.26-1.48c-1.31,1.32-0.64,4.12,1.5,6.25l3.88,3.86"></path>
			
				<line style="fill:#FFFFFF;stroke:#000000;stroke-linecap:round;stroke-linejoin:round;stroke-miterlimit:10;" x1="915.26" y1="1396.42" x2="898.28" y2="1379.51"></line>
		</g>
		
			<line style="fill:#FFFFFF;stroke:#000000;stroke-linecap:round;stroke-linejoin:round;stroke-miterlimit:10;" x1="923.82" y1="1403.35" x2="916.05" y2="1395.62"></line>
		
			<line style="fill:#FFFFFF;stroke:#000000;stroke-linecap:round;stroke-linejoin:round;stroke-miterlimit:10;" x1="922.23" y1="1404.94" x2="914.47" y2="1397.21"></line>
		<g>
			<path style="fill:#FFFFFF;stroke:#000000;stroke-linecap:round;stroke-linejoin:round;stroke-miterlimit:10;" d="M862.07,1436.63
				l3.69-3.71l14.36,14.3l-3.13,3.14c-0.31,0.31-0.82,0.31-1.13,0L862.07,1436.63z"></path>
			<path style="fill:#FFFFFF;stroke:#000000;stroke-linecap:round;stroke-linejoin:round;stroke-miterlimit:10;" d="M851.97,1426.01
				l3.13-3.14c0.16-0.16,0.41-0.16,0.56,0l10.1,10.06l-3.69,3.71l-10.1-10.06C851.82,1426.42,851.82,1426.17,851.97,1426.01z"></path>
		</g>
	</g>
</g>
<g id="floor">
	<g>
		<polyline style="fill:none;stroke:#000000;stroke-linecap:round;stroke-linejoin:round;stroke-miterlimit:10;" points="
			232.92,435.43 177.19,435.43 100,826.36 157.32,941.49 231.89,941.49 		"></polyline>
		
			<line style="fill:none;stroke:#000000;stroke-linecap:round;stroke-linejoin:round;stroke-miterlimit:10;" x1="157.32" y1="941.49" x2="230.82" y2="435.43"></line>
		
			<line style="fill:none;stroke:#000000;stroke-linecap:round;stroke-linejoin:round;stroke-miterlimit:10;" x1="177.18" y1="435.43" x2="231.06" y2="941.49"></line>
	</g>
	<g>
		<polyline style="fill:none;stroke:#000000;stroke-linecap:round;stroke-linejoin:round;stroke-miterlimit:10;" points="
			232.92,1061.2 177.19,1061.2 100,1475.75 157.32,1597.82 231.89,1597.82 		"></polyline>
		
			<line style="fill:none;stroke:#000000;stroke-linecap:round;stroke-linejoin:round;stroke-miterlimit:10;" x1="157.32" y1="1597.82" x2="230.82" y2="1061.2"></line>
		
			<line style="fill:none;stroke:#000000;stroke-linecap:round;stroke-linejoin:round;stroke-miterlimit:10;" x1="177.18" y1="1061.2" x2="231.06" y2="1597.82"></line>
	</g>
	<g>
		
			<rect x="1627.58" y="1228.94" transform="matrix(-1.836970e-16 1 -1 -1.836970e-16 2931.0208 -339.6381)" style="fill-rule:evenodd;clip-rule:evenodd;" width="15.49" height="133.49"></rect>
		
			<rect x="1357.74" y="1271.38" transform="matrix(-1.836970e-16 1 -1 -1.836970e-16 2661.1787 -69.7961)" style="fill-rule:evenodd;clip-rule:evenodd;" width="15.49" height="48.62"></rect>
		
			<rect x="1326.63" y="1243.84" transform="matrix(-1 -1.224647e-16 1.224647e-16 -1 2668.7476 2732.9211)" style="fill-rule:evenodd;clip-rule:evenodd;" width="15.49" height="245.23"></rect>
		
			<rect x="1326.63" y="850.37" transform="matrix(-1 -1.224647e-16 1.224647e-16 -1 2668.7476 1855.8293)" style="fill-rule:evenodd;clip-rule:evenodd;" width="15.49" height="155.1"></rect>
		
			<rect x="1527.91" y="1393.18" transform="matrix(-1.836970e-16 1 -1 -1.836970e-16 3137.9678 -305.9142)" style="fill-rule:evenodd;clip-rule:evenodd;" width="388.07" height="45.69"></rect>
		
			<rect x="1410.06" y="684.64" transform="matrix(-1.836970e-16 1 -1 -1.836970e-16 2429.4297 -1014.4525)" style="fill-rule:evenodd;clip-rule:evenodd;" width="623.77" height="45.69"></rect>
		
			<rect x="966.08" y="870.38" transform="matrix(-1.836970e-16 1 -1 -1.836970e-16 2615.1663 639.3118)" style="fill-rule:evenodd;clip-rule:evenodd;" width="43.7" height="1513.72"></rect>
		
			<rect x="963.1" y="-381.12" transform="matrix(-1.836970e-16 1 -1 -1.836970e-16 1363.668 -612.1866)" style="fill-rule:evenodd;clip-rule:evenodd;" width="49.66" height="1513.72"></rect>
		
			<rect x="1510.83" y="224.52" transform="matrix(-1.836970e-16 1 -1 -1.836970e-16 1929.3779 -1118.2957)" style="fill-rule:evenodd;clip-rule:evenodd;" width="26.02" height="362.04"></rect>
		
			<rect x="1249.55" y="472.68" transform="matrix(-1.836970e-16 1 -1 -1.836970e-16 1817.0878 -853.9443)" style="fill-rule:evenodd;clip-rule:evenodd;" width="171.93" height="17.78"></rect>
		
			<rect x="229.31" y="399.66" transform="matrix(-1.836970e-16 1 -1 -1.836970e-16 694.3009 168.5895)" style="fill-rule:evenodd;clip-rule:evenodd;" width="67.1" height="63.57"></rect>
		
			<rect x="173.54" y="969.63" transform="matrix(-1.836970e-16 1 -1 -1.836970e-16 1264.2727 738.5613)" style="fill-rule:evenodd;clip-rule:evenodd;" width="178.64" height="63.57"></rect>
		
			<rect x="226.35" y="1542.56" transform="matrix(-1.836970e-16 1 -1 -1.836970e-16 1837.2041 1311.4927)" style="fill-rule:evenodd;clip-rule:evenodd;" width="73" height="63.57"></rect>
		
			<rect x="555.82" y="730.28" transform="matrix(-1.836970e-16 1 -1 -1.836970e-16 1565.2512 437.7285)" style="fill-rule:evenodd;clip-rule:evenodd;" width="15.89" height="542.41"></rect>
		
			<rect x="1023.68" y="983.61" transform="matrix(-1.836970e-16 1 -1 -1.836970e-16 2033.1202 -30.1405)" style="fill-rule:evenodd;clip-rule:evenodd;" width="15.89" height="35.76"></rect>
		
			<rect x="911" y="856.92" transform="matrix(-1.836970e-16 1 -1 -1.836970e-16 1906.4309 -176.695)" style="fill-rule:evenodd;clip-rule:evenodd;" width="261.13" height="15.89"></rect>
		
			<rect x="973.16" y="459.3" transform="matrix(-1.836970e-16 1 -1 -1.836970e-16 1508.8114 -574.3145)" style="fill-rule:evenodd;clip-rule:evenodd;" width="136.81" height="15.89"></rect>
		
			<rect x="1272.99" y="780.09" transform="matrix(-1.836970e-16 1 -1 -1.836970e-16 2124.4995 -546.5326)" style="fill-rule:evenodd;clip-rule:evenodd;" width="125.05" height="17.78"></rect>
		
			<rect x="1338.45" y="849.52" transform="matrix(-1.836970e-16 1 -1 -1.836970e-16 2203.8604 -490.8111)" style="fill-rule:evenodd;clip-rule:evenodd;" width="17.78" height="14"></rect>
		
			<rect x="1179.91" y="737.62" transform="matrix(-1.836970e-16 1 -1 -1.836970e-16 2065.189 -310.5223)" style="fill-rule:evenodd;clip-rule:evenodd;" width="15.89" height="279.43"></rect>
		
			<rect x="1544.67" y="546.95" transform="matrix(-1.836970e-16 1 -1 -1.836970e-16 2255.3369 -1135.1602)" style="fill-rule:evenodd;clip-rule:evenodd;" width="301.15" height="26.27"></rect>
		
			<rect x="1652.19" y="677.91" transform="matrix(-1.836970e-16 1 -1 -1.836970e-16 2362.8555 -955.5292)" style="fill-rule:evenodd;clip-rule:evenodd;" width="14" height="51.5"></rect>
		
			<rect x="1568.3" y="773.7" transform="matrix(-1.836970e-16 1 -1 -1.836970e-16 2421.1521 -859.7373)" style="fill-rule:evenodd;clip-rule:evenodd;" width="144.29" height="14"></rect>
		
			<rect x="1567.02" y="793.88" transform="matrix(-1.836970e-16 1 -1 -1.836970e-16 2432.4309 -719.3817)" style="fill-rule:evenodd;clip-rule:evenodd;" width="17.78" height="125.3"></rect>
		
			<rect x="1660.81" y="824.14" transform="matrix(-1.836970e-16 1 -1 -1.836970e-16 2526.2207 -809.2976)" style="fill-rule:evenodd;clip-rule:evenodd;" width="13.91" height="68.63"></rect>
		
			<rect x="1277.8" y="1546.57" transform="matrix(-1.836970e-16 1 -1 -1.836970e-16 2885.0186 219.9459)" style="fill-rule:evenodd;clip-rule:evenodd;" width="109.48" height="11.82"></rect>
		
			<rect x="1352.45" y="1461.37" transform="matrix(-1.836970e-16 1 -1 -1.836970e-16 2851.4612 134.7394)" style="fill-rule:evenodd;clip-rule:evenodd;" width="11.82" height="63.47"></rect>
		
			<rect x="1329.26" y="1545.81" transform="matrix(-1.836970e-16 1 -1 -1.836970e-16 2935.9575 167.5346)" style="fill-rule:evenodd;clip-rule:evenodd;" width="109.9" height="11.87"></rect>
		
			<line style="fill:none;stroke:#000000;stroke-linecap:round;stroke-linejoin:round;stroke-miterlimit:10;stroke-dasharray:10,10;" x1="1334.37" y1="1257.35" x2="1334.37" y2="991.95"></line>
		
			<line style="fill:none;stroke:#000000;stroke-linecap:round;stroke-linejoin:round;stroke-miterlimit:10;stroke-dasharray:10,10;" x1="1041.56" y1="737.69" x2="1041.56" y2="530.41"></line>
		
			<line style="fill:none;stroke:#000000;stroke-linecap:round;stroke-linejoin:round;stroke-miterlimit:10;stroke-dasharray:10,10;" x1="1384.21" y1="1294.8" x2="1576.17" y2="1294.8"></line>
		<g>
			<g id="LINE_4595_">
				
					<line style="fill:none;stroke:#000000;stroke-linecap:round;stroke-linejoin:round;stroke-miterlimit:10;" x1="231.07" y1="1245.57" x2="231.07" y2="1537.99"></line>
			</g>
			
				<line style="fill:none;stroke:#000000;stroke-linecap:round;stroke-linejoin:round;stroke-miterlimit:10;" x1="245" y1="1537.99" x2="245" y2="1245.57"></line>
			<polyline style="fill:none;stroke:#000000;stroke-linecap:round;stroke-linejoin:round;stroke-miterlimit:10;" points="
				249.48,1537.99 249.48,1404.05 260.85,1404.05 260.85,1537.99 			"></polyline>
			
				<line style="fill:none;stroke:#000000;stroke-linecap:round;stroke-linejoin:round;stroke-miterlimit:10;" x1="258.79" y1="1245.56" x2="258.79" y2="1404.05"></line>
			
				<line style="fill:none;stroke:#000000;stroke-linecap:round;stroke-linejoin:round;stroke-miterlimit:10;" x1="245" y1="1398.48" x2="258.79" y2="1398.48"></line>
			
				<line style="fill:none;stroke:#000000;stroke-linecap:round;stroke-linejoin:round;stroke-miterlimit:10;" x1="245.6" y1="1406.94" x2="249.48" y2="1406.94"></line>
			
				<line style="fill:none;stroke:#000000;stroke-linecap:round;stroke-linejoin:round;stroke-miterlimit:10;" x1="251.89" y1="1398.48" x2="251.89" y2="1245.56"></line>
			
				<line style="fill:none;stroke:#000000;stroke-linecap:round;stroke-linejoin:round;stroke-miterlimit:10;" x1="231.07" y1="1090.74" x2="231.07" y2="1536.4"></line>
			
				<line style="fill:none;stroke:#000000;stroke-linecap:round;stroke-linejoin:round;stroke-miterlimit:10;" x1="294.64" y1="1537.99" x2="294.64" y2="1090.74"></line>
			
				<line style="fill:none;stroke:#000000;stroke-linecap:round;stroke-linejoin:round;stroke-miterlimit:10;" x1="245" y1="1536.41" x2="245" y2="1090.74"></line>
			
				<line style="fill:none;stroke:#000000;stroke-linecap:round;stroke-linejoin:round;stroke-miterlimit:10;" x1="258.79" y1="1224.68" x2="258.79" y2="1402.46"></line>
			
				<line style="fill:none;stroke:#000000;stroke-linecap:round;stroke-linejoin:round;stroke-miterlimit:10;" x1="251.89" y1="1396.89" x2="251.89" y2="1224.68"></line>
			
				<line style="fill:none;stroke:#000000;stroke-linecap:round;stroke-linejoin:round;stroke-miterlimit:10;" x1="294.64" y1="1537.99" x2="231.07" y2="1537.99"></line>
			
				<line style="fill:none;stroke:#000000;stroke-linecap:round;stroke-linejoin:round;stroke-miterlimit:10;" x1="231.07" y1="1090.74" x2="294.64" y2="1090.74"></line>
			<polyline style="fill:none;stroke:#000000;stroke-linecap:round;stroke-linejoin:round;stroke-miterlimit:10;" points="
				249.48,1090.74 249.48,1224.68 260.85,1224.68 260.85,1090.74 			"></polyline>
			
				<line style="fill:none;stroke:#000000;stroke-linecap:round;stroke-linejoin:round;stroke-miterlimit:10;" x1="245" y1="1230.25" x2="258.79" y2="1230.25"></line>
			
				<line style="fill:none;stroke:#000000;stroke-linecap:round;stroke-linejoin:round;stroke-miterlimit:10;" x1="245.6" y1="1221.79" x2="249.48" y2="1221.79"></line>
		</g>
		<g>
			<g id="LINE_3235_">
				
					<line style="fill:none;stroke:#000000;stroke-linecap:round;stroke-linejoin:round;stroke-miterlimit:10;" x1="231.07" y1="619.82" x2="231.07" y2="912.24"></line>
			</g>
			
				<line style="fill:none;stroke:#000000;stroke-linecap:round;stroke-linejoin:round;stroke-miterlimit:10;" x1="245" y1="912.24" x2="245" y2="619.82"></line>
			<polyline style="fill:none;stroke:#000000;stroke-linecap:round;stroke-linejoin:round;stroke-miterlimit:10;" points="
				249.48,912.24 249.48,778.3 260.85,778.3 260.85,912.24 			"></polyline>
			
				<line style="fill:none;stroke:#000000;stroke-linecap:round;stroke-linejoin:round;stroke-miterlimit:10;" x1="258.79" y1="619.82" x2="258.79" y2="778.3"></line>
			
				<line style="fill:none;stroke:#000000;stroke-linecap:round;stroke-linejoin:round;stroke-miterlimit:10;" x1="245" y1="772.73" x2="258.79" y2="772.73"></line>
			
				<line style="fill:none;stroke:#000000;stroke-linecap:round;stroke-linejoin:round;stroke-miterlimit:10;" x1="245.6" y1="781.19" x2="249.48" y2="781.19"></line>
			
				<line style="fill:none;stroke:#000000;stroke-linecap:round;stroke-linejoin:round;stroke-miterlimit:10;" x1="251.89" y1="772.73" x2="251.89" y2="619.82"></line>
			
				<line style="fill:none;stroke:#000000;stroke-linecap:round;stroke-linejoin:round;stroke-miterlimit:10;" x1="231.07" y1="464.99" x2="231.07" y2="910.65"></line>
			
				<line style="fill:none;stroke:#000000;stroke-linecap:round;stroke-linejoin:round;stroke-miterlimit:10;" x1="294.64" y1="912.24" x2="294.64" y2="464.99"></line>
			
				<line style="fill:none;stroke:#000000;stroke-linecap:round;stroke-linejoin:round;stroke-miterlimit:10;" x1="245" y1="910.66" x2="245" y2="464.99"></line>
			
				<line style="fill:none;stroke:#000000;stroke-linecap:round;stroke-linejoin:round;stroke-miterlimit:10;" x1="258.79" y1="598.93" x2="258.79" y2="776.71"></line>
			
				<line style="fill:none;stroke:#000000;stroke-linecap:round;stroke-linejoin:round;stroke-miterlimit:10;" x1="251.89" y1="771.14" x2="251.89" y2="598.93"></line>
			
				<line style="fill:none;stroke:#000000;stroke-linecap:round;stroke-linejoin:round;stroke-miterlimit:10;" x1="294.64" y1="912.24" x2="231.07" y2="912.24"></line>
			
				<line style="fill:none;stroke:#000000;stroke-linecap:round;stroke-linejoin:round;stroke-miterlimit:10;" x1="231.07" y1="464.99" x2="294.64" y2="464.99"></line>
			<polyline style="fill:none;stroke:#000000;stroke-linecap:round;stroke-linejoin:round;stroke-miterlimit:10;" points="
				249.48,464.99 249.48,598.93 260.85,598.93 260.85,464.99 			"></polyline>
			
				<line style="fill:none;stroke:#000000;stroke-linecap:round;stroke-linejoin:round;stroke-miterlimit:10;" x1="245" y1="604.5" x2="258.79" y2="604.5"></line>
			
				<line style="fill:none;stroke:#000000;stroke-linecap:round;stroke-linejoin:round;stroke-miterlimit:10;" x1="245.6" y1="596.04" x2="249.48" y2="596.04"></line>
		</g>
		<g>
			<path style="fill:none;stroke:#000000;stroke-linecap:round;stroke-linejoin:round;stroke-miterlimit:10;" d="M1717.53,1211.68
				c100.34,0,182.47-81.16,182.47-181.5h-180.97"></path>
			
				<rect x="1703.66" y="1014.81" transform="matrix(-8.968133e-11 1 -1 -8.968133e-11 2733.8384 -684.285)" style="fill:none;stroke:#000000;stroke-linecap:round;stroke-linejoin:round;stroke-miterlimit:10;" width="10.81" height="19.93"></rect>
			
				<rect x="1703.66" y="1207.12" transform="matrix(-8.968133e-11 1 -1 -8.968133e-11 2926.1479 -491.9755)" style="fill:none;stroke:#000000;stroke-linecap:round;stroke-linejoin:round;stroke-miterlimit:10;" width="10.81" height="19.93"></rect>
		</g>
		<g>
			<path style="fill:none;stroke:#000000;stroke-linecap:round;stroke-linejoin:round;stroke-miterlimit:10;" d="M844.48,995.5
				c0-88.32,71.44-162.9,159.75-162.9v162.9"></path>
			
				<rect x="1004.24" y="995.5" transform="matrix(-1 -4.511381e-11 4.511381e-11 -1 2017.9883 2004.9395)" style="fill:none;stroke:#000000;stroke-linecap:round;stroke-linejoin:round;stroke-miterlimit:10;" width="9.52" height="13.93"></rect>
			
				<rect x="834.97" y="995.5" transform="matrix(-1 -4.434909e-11 4.434909e-11 -1 1679.4481 2004.9395)" style="fill:none;stroke:#000000;stroke-linecap:round;stroke-linejoin:round;stroke-miterlimit:10;" width="9.52" height="13.93"></rect>
		</g>
		<g>
			<path style="fill:none;stroke:#000000;stroke-linecap:round;stroke-linejoin:round;stroke-miterlimit:10;" d="M1332.02,718
				c-78.5,0-144.8-63.5-144.8-142h144.8"></path>
			
				<rect x="1333.98" y="565.58" transform="matrix(-4.473151e-11 1 -1 -4.473151e-11 1909.981 -766.4462)" style="fill:none;stroke:#000000;stroke-linecap:round;stroke-linejoin:round;stroke-miterlimit:10;" width="8.46" height="12.38"></rect>
			
				<rect x="1333.98" y="716.04" transform="matrix(-4.451657e-11 1 -1 -4.451657e-11 2060.4429 -615.9843)" style="fill:none;stroke:#000000;stroke-linecap:round;stroke-linejoin:round;stroke-miterlimit:10;" width="8.46" height="12.38"></rect>
		</g>
		<g>
			<path style="fill:none;stroke:#000000;stroke-linecap:round;stroke-linejoin:round;stroke-miterlimit:10;" d="M1504.8,860.02
				c0,78.5-63.5,144.8-142,144.8v-144.8"></path>
			
				<rect x="1354.34" y="847.64" style="fill:none;stroke:#000000;stroke-linecap:round;stroke-linejoin:round;stroke-miterlimit:10;" width="8.46" height="12.38"></rect>
			
				<rect x="1504.8" y="847.64" style="fill:none;stroke:#000000;stroke-linecap:round;stroke-linejoin:round;stroke-miterlimit:10;" width="8.46" height="12.38"></rect>
		</g>
		<g>
			<g id="LWPOLYLINE_316_">
				
					<rect x="1208.43" y="1487.19" style="fill:none;stroke:#000000;stroke-linecap:round;stroke-linejoin:round;stroke-miterlimit:10;" width="118.2" height="118.2"></rect>
			</g>
			<g id="LWPOLYLINE_315_">
				<path style="fill:none;stroke:#000000;stroke-linecap:round;stroke-linejoin:round;stroke-miterlimit:10;" d="M1225.17,1497.04
					l74.81,0c3.81,0,6.9,3.08,6.9,6.89c0,0,0,84.72,0,84.72c0,3.81-3.09,6.9-6.9,6.9c0,0-74.82,0-74.82,0
					c-3.81,0-6.89-3.09-6.89-6.89c0,0,0-84.72,0-84.72C1218.28,1500.12,1221.36,1497.04,1225.17,1497.04z"></path>
			</g>
			<g id="LWPOLYLINE_314_">
				<path style="fill:none;stroke:#000000;stroke-linecap:round;stroke-linejoin:round;stroke-miterlimit:10;" d="M1280.81,1526.59
					c0-3.82,3.09-6.91,6.91-6.91c3.82,0,6.91,3.09,6.91,6.91c0,3.82-3.09,6.91-6.91,6.91
					C1283.9,1533.5,1280.81,1530.41,1280.81,1526.59z"></path>
			</g>
		</g>
		<g>
			<g id="LWPOLYLINE_313_">
				
					<rect x="1208.43" y="1281.72" style="fill:none;stroke:#000000;stroke-linecap:round;stroke-linejoin:round;stroke-miterlimit:10;" width="118.2" height="118.2"></rect>
			</g>
			<g id="LWPOLYLINE_312_">
				
					<line style="fill:none;stroke:#000000;stroke-linecap:round;stroke-linejoin:round;stroke-miterlimit:10;" x1="1237.98" y1="1330.97" x2="1237.98" y2="1291.57"></line>
			</g>
			<g id="LWPOLYLINE_311_">
				
					<line style="fill:none;stroke:#000000;stroke-linecap:round;stroke-linejoin:round;stroke-miterlimit:10;" x1="1257.68" y1="1311.27" x2="1218.28" y2="1311.27"></line>
			</g>
			<g id="CIRCLE_214_">
				<path style="fill:none;stroke:#000000;stroke-linecap:round;stroke-linejoin:round;stroke-miterlimit:10;" d="M1222.22,1311.27
					c0-8.71,7.06-15.76,15.76-15.76c8.71,0,15.76,7.06,15.76,15.76s-7.06,15.76-15.76,15.76
					C1229.28,1327.03,1222.22,1319.97,1222.22,1311.27L1222.22,1311.27z"></path>
			</g>
			<g id="LWPOLYLINE_310_">
				
					<line style="fill:none;stroke:#000000;stroke-linecap:round;stroke-linejoin:round;stroke-miterlimit:10;" x1="1237.98" y1="1390.07" x2="1237.98" y2="1350.67"></line>
			</g>
			<g id="LWPOLYLINE_309_">
				
					<line style="fill:none;stroke:#000000;stroke-linecap:round;stroke-linejoin:round;stroke-miterlimit:10;" x1="1257.68" y1="1370.37" x2="1218.28" y2="1370.37"></line>
			</g>
			<g id="CIRCLE_213_">
				<path style="fill:none;stroke:#000000;stroke-linecap:round;stroke-linejoin:round;stroke-miterlimit:10;" d="M1222.22,1370.37
					c0-8.71,7.06-15.77,15.77-15.77s15.77,7.06,15.77,15.77c0,8.71-7.06,15.77-15.77,15.77S1222.22,1379.08,1222.22,1370.37
					L1222.22,1370.37z"></path>
			</g>
			<g id="LWPOLYLINE_308_">
				
					<line style="fill:none;stroke:#000000;stroke-linecap:round;stroke-linejoin:round;stroke-miterlimit:10;" x1="1297.08" y1="1390.07" x2="1297.08" y2="1350.67"></line>
			</g>
			<g id="LWPOLYLINE_307_">
				
					<line style="fill:none;stroke:#000000;stroke-linecap:round;stroke-linejoin:round;stroke-miterlimit:10;" x1="1316.78" y1="1370.37" x2="1277.38" y2="1370.37"></line>
			</g>
			<g id="CIRCLE_212_">
				<path style="fill:none;stroke:#000000;stroke-linecap:round;stroke-linejoin:round;stroke-miterlimit:10;" d="M1281.32,1370.37
					c0-8.71,7.06-15.77,15.77-15.77s15.77,7.06,15.77,15.77c0,8.71-7.06,15.77-15.77,15.77S1281.32,1379.08,1281.32,1370.37
					L1281.32,1370.37z"></path>
			</g>
			<g id="LWPOLYLINE_306_">
				
					<line style="fill:none;stroke:#000000;stroke-linecap:round;stroke-linejoin:round;stroke-miterlimit:10;" x1="1297.08" y1="1330.97" x2="1297.08" y2="1291.57"></line>
			</g>
			<g id="LWPOLYLINE_305_">
				
					<line style="fill:none;stroke:#000000;stroke-linecap:round;stroke-linejoin:round;stroke-miterlimit:10;" x1="1316.78" y1="1311.27" x2="1277.38" y2="1311.27"></line>
			</g>
			<g id="CIRCLE_211_">
				<path style="fill:none;stroke:#000000;stroke-linecap:round;stroke-linejoin:round;stroke-miterlimit:10;" d="M1281.32,1311.27
					c0-8.71,7.06-15.76,15.76-15.76c8.71,0,15.76,7.06,15.76,15.76s-7.06,15.76-15.76,15.76
					C1288.38,1327.03,1281.32,1319.97,1281.32,1311.27L1281.32,1311.27z"></path>
			</g>
		</g>
		<g>
			<g>
				<g id="LWPOLYLINE_304_">
					<path style="fill:none;stroke:#000000;stroke-linecap:round;stroke-linejoin:round;stroke-miterlimit:10;" d="M1599.01,801.97
						h-42.47c-18.2,0-32.95-14.75-32.95-32.95c0-18.2,14.75-32.95,32.95-32.95h42.47c4.55,0,8.24,3.69,8.24,8.24v49.43
						C1607.25,798.28,1603.56,801.97,1599.01,801.97z"></path>
				</g>
				<g id="LWPOLYLINE_303_">
					<path style="fill:none;stroke:#000000;stroke-linecap:round;stroke-linejoin:round;stroke-miterlimit:10;" d="M1556.54,742.65
						h19.42c14.56,0,26.36,11.8,26.36,26.36c0,14.56-11.8,26.36-26.36,26.37h-19.42c-14.56,0-26.36-11.8-26.36-26.36
						C1530.18,754.46,1541.98,742.65,1556.54,742.65z"></path>
				</g>
				<g id="LWPOLYLINE_302_">
					<path style="fill:none;stroke:#000000;stroke-linecap:round;stroke-linejoin:round;stroke-miterlimit:10;" d="M1567.15,759.13
						h11.55c5.46,0,9.88,4.43,9.88,9.88c0,5.46-4.43,9.88-9.88,9.88h-11.55c-5.46,0-9.88-4.43-9.88-9.88
						C1557.26,763.56,1561.69,759.13,1567.15,759.13z"></path>
				</g>
				<g id="LWPOLYLINE_301_">
					<polyline style="fill:none;stroke:#000000;stroke-linecap:round;stroke-linejoin:round;stroke-miterlimit:10;" points="
						1607.25,793.73 1607.25,821.55 1632.56,821.55 1632.56,716.48 1607.25,716.48 1607.25,744.3 					"></polyline>
				</g>
			</g>
			<g>
				<g id="LWPOLYLINE_300_">
					<path style="fill:none;stroke:#000000;stroke-linecap:round;stroke-linejoin:round;stroke-miterlimit:10;" d="M1682.99,684.25
						l-53.58,0c-7.55,0-14.23-4.87-16.55-12.05c-8.39-26.07-8.39-54.12,0-80.2c2.31-7.18,9-12.05,16.55-12.06l53.58,0"></path>
				</g>
				<g id="LWPOLYLINE_299_">
					<path style="fill:none;stroke:#000000;stroke-linecap:round;stroke-linejoin:round;stroke-miterlimit:10;" d="M1668,604.28
						c0-5.76-4.67-10.43-10.43-10.43h-16.7c-3.82,0-7.19,2.49-8.31,6.15c-6.41,20.92-6.41,43.28,0,64.2
						c1.12,3.65,4.49,6.14,8.31,6.15h16.7c5.76,0,10.43-4.67,10.43-10.43"></path>
				</g>
				<g id="LWPOLYLINE_298_">
					<path style="fill:none;stroke:#000000;stroke-linecap:round;stroke-linejoin:round;stroke-miterlimit:10;" d="M1657.56,677.3
						l-28.15,0c-4.53,0-8.54-2.92-9.93-7.23c-7.95-24.69-7.95-51.25,0-75.94c1.39-4.31,5.4-7.23,9.93-7.23h28.16
						c5.76,0,10.43,4.67,10.43,10.43v69.54C1667.99,672.63,1663.32,677.3,1657.56,677.3z"></path>
				</g>
				<g id="LWPOLYLINE_297_">
					<path style="fill:none;stroke:#000000;stroke-linecap:round;stroke-linejoin:round;stroke-miterlimit:10;" d="M1664.89,632.1
						c0,2.58-2.09,4.68-4.68,4.68c-2.58,0-4.68-2.1-4.68-4.68c0-2.58,2.09-4.68,4.68-4.68
						C1662.8,627.42,1664.89,629.51,1664.89,632.1z"></path>
				</g>
			</g>
			<g>
				<g id="LWPOLYLINE_296_">
					
						<rect x="1345.98" y="418.55" style="fill:none;stroke:#000000;stroke-linecap:round;stroke-linejoin:round;stroke-miterlimit:10;" width="336.06" height="140.24"></rect>
				</g>
				<g id="LWPOLYLINE_295_">
					<path style="fill:none;stroke:#000000;stroke-linecap:round;stroke-linejoin:round;stroke-miterlimit:10;" d="M1393.25,429.77
						l217.85,0c32.53,0,58.89,26.37,58.89,58.89c0,32.53-26.37,58.9-58.89,58.9l-217.85,0c-15.54,0-28.2-12.5-28.38-28.04v-61.7
						c0-15.49,12.56-28.05,28.05-28.05"></path>
				</g>
				<g id="LWPOLYLINE_294_">
					<path style="fill:none;stroke:#000000;stroke-linecap:round;stroke-linejoin:round;stroke-miterlimit:10;" d="M1463.27,445.8
						l147.82,0c23.68,0,42.88,19.2,42.87,42.87c0,23.68-19.2,42.87-42.87,42.87l-145.61,0c-22.81-0.02-41.62-17.88-42.81-40.66
						C1421.43,467.22,1439.61,447.03,1463.27,445.8z"></path>
				</g>
				<g id="LWPOLYLINE_293_">
					<path style="fill:none;stroke:#000000;stroke-linecap:round;stroke-linejoin:round;stroke-miterlimit:10;" d="M1618.94,488.67
						c0,4.33-3.51,7.85-7.85,7.85c-4.34,0-7.85-3.52-7.85-7.85c0-4.34,3.52-7.85,7.85-7.85
						C1615.43,480.82,1618.94,484.33,1618.94,488.67z"></path>
				</g>
			</g>
		</g>
		<g>
			<g id="LWPOLYLINE_319_">
				
					<rect x="1390.15" y="1487.04" style="fill:none;stroke:#000000;stroke-linecap:round;stroke-linejoin:round;stroke-miterlimit:10;" width="118.4" height="118.5"></rect>
			</g>
			<g id="LWPOLYLINE_318_">
				<polyline style="fill:none;stroke:#000000;stroke-linecap:round;stroke-linejoin:round;stroke-miterlimit:10;" points="
					1418,1584.1 1461.88,1546.29 1432.09,1546.29 1475.97,1508.48 				"></polyline>
			</g>
			<g id="LWPOLYLINE_317_">
				<path style="fill:none;stroke:#000000;stroke-linecap:round;stroke-linejoin:round;stroke-miterlimit:10;" d="M1413.88,1546.29
					c0-18.28,14.82-33.1,33.1-33.1c18.28,0,33.1,14.82,33.1,33.1c0,18.28-14.82,33.1-33.1,33.1
					C1428.7,1579.39,1413.88,1564.57,1413.88,1546.29z"></path>
			</g>
		</g>
	</g>
</g>
</svg>
