<?xml version="1.0" encoding="utf-8"?>
<!-- Generator: Adobe Illustrator 24.1.2, SVG Export Plug-In . SVG Version: 6.00 Build 0)  -->
<svg version="1.1" id="Layer_1" xmlns="http://www.w3.org/2000/svg" xmlns:xlink="http://www.w3.org/1999/xlink" xmlns:a="http://ns.adobe.com/AdobeSVGViewerExtensions/3.0/" x="0px" y="0px" width="2000px" height="2000px" viewBox="0 0 2000 2000" style="enable-background:new 0 0 2000 2000;" xml:space="preserve">
<path id="background" style="fill-rule:evenodd;clip-rule:evenodd;fill:#FFFFFF;" d="M1719.15,1075.73v10.23h26.49v513.48v16.3
	v29.13H235.79v-19.66v-25.76v-95.03c-0.15-0.09-0.26-0.24-0.26-0.43v-0.45h-109.6c-0.28,0-0.5-0.22-0.5-0.5v-355.56
	c0-0.28,0.22-0.5,0.5-0.5h109.23v-58.18l-37.71-145.1l50.8-13.2c-0.03-0.01-0.06-0.01-0.08-0.03l-38.81,9.86c0,0,0,0,0,0
	c0,0,0,0,0,0l-11.74,2.98c-0.04,0.01-0.08,0.02-0.12,0.02c-0.22,0-0.42-0.15-0.48-0.37l-59.69-228.49l-0.04,0.01L100,571.04
	l33.35-48.13c-0.08-0.07-0.14-0.17-0.16-0.27c-0.02-0.13,0-0.27,0.08-0.38l67.93-98.07c0.08-0.11,0.19-0.18,0.32-0.21
	c0.05-0.01,0.09,0,0.14,0l34.13-49.37v-19.29h1509.84v29.77v15.65v483.77h-26.49v10.21H1900c0.28,0,0.5,0.22,0.5,0.5
	C1900.5,994.59,1819.19,1075.46,1719.15,1075.73z"></path>
<g id="c1">
	<path id="c1_path" style="fill:none;" d="M948.11,899.26h0.04l-0.08-196.67l330.55,0.07v428.96H948.11V899.26z"></path>
	
		<text id="c1_text" transform="matrix(1 0 0 1 1091.8707 893.5469)" style="font-family: GraphikLCG-Regular; font-size: 40px; text-anchor: middle; text-align: center;"></text>
</g>
<g id="h1">
	<path id="h1_path" style="fill:none;" d="M1671.21,1126.24h-279.18l0-327.02l279.18-0.01l0,180.52h0V1126.24z"></path>
	
		<text id="h1_text" transform="matrix(1 0 0 1 1500.0957 939.3516)" style="font-family: GraphikLCG-Regular; font-size: 40px; text-anchor: middle; text-align: center;"></text>
</g>
<g id="s1">
	<path id="s1_path" style="fill:none;" d="M1340.76,1494.42V1243.5h239.6v250.92H1340.76z"></path>
	
		<text id="s1_text" transform="matrix(1 0 0 1 1439.4674 1389.1777)" style="font-family: GraphikLCG-Regular; font-size: 40px; text-anchor: middle; text-align: center;"></text>
</g>
<g id="g1">
	<path id="g1_path" style="fill:none;" d="M922.75,1506.84v-274.3h295.8v274.3H922.75z"></path>
	
		<text id="g1_text" transform="matrix(1 0 0 1 1039.0739 1382.4336)" style="font-family: GraphikLCG-Regular; font-size: 40px; text-anchor: middle; text-align: center;"></text>
</g>
<g id="g2">
	<path id="g2_path" style="fill:none;" d="M1378.1,791.23V431.01h298.27v360.21H1378.1z"></path>
	<text id="g2_text" transform="matrix(1 0 0 1 1510.5913 635.002)" style="font-family: GraphikLCG-Regular; font-size: 40px; text-anchor: middle; text-align: center;"></text>
</g>
<g id="r1">
	<path id="r1_path" style="fill:none;" d="M826.72,1190.71h-0.05l0.1,145.5l-399.61-0.05v-317.35h399.55V1190.71z"></path>
	
		<text id="r1_text" transform="matrix(1 0 0 1 565.7741 1137.7246)" style="font-family: GraphikLCG-Regular; font-size: 40px; text-anchor: middle; text-align: center;"></text>
</g>
<path id="u7" style="fill:#FFFFFF;stroke:#FFFFFF;stroke-linecap:round;stroke-linejoin:round;stroke-miterlimit:10;" d="
	M485.22,850.2c-8.47,0-15.33-6.86-15.33-15.33s6.86-15.33,15.33-15.33c8.47,0,15.33,6.86,15.33,15.33S493.68,850.2,485.22,850.2z"></path>
<path id="u1" style="fill:#FFFFFF;stroke:#FFFFFF;stroke-linecap:round;stroke-linejoin:round;stroke-miterlimit:10;" d="
	M846.59,1366.16c-8.47,0-15.33-6.86-15.33-15.33s6.86-15.33,15.33-15.33s15.33,6.86,15.33,15.33S855.06,1366.16,846.59,1366.16z"></path>
<path id="u3" style="fill:#FFFFFF;stroke:#FFFFFF;stroke-linecap:round;stroke-linejoin:round;stroke-miterlimit:10;" d="
	M1586.4,524.6c-8.47,0-15.33-6.86-15.33-15.33s6.86-15.33,15.33-15.33s15.33,6.86,15.33,15.33S1594.87,524.6,1586.4,524.6z"></path>
<g id="mebel">
	<g>
		<g>
			
				<rect x="916.16" y="1482.5" style="fill:none;stroke:#000000;stroke-linecap:round;stroke-linejoin:round;stroke-miterlimit:10;" width="328.88" height="118.04"></rect>
			
				<line style="fill:none;stroke:#000000;stroke-linecap:round;stroke-linejoin:round;stroke-miterlimit:10;" x1="916.17" y1="1490.09" x2="1245.03" y2="1490.01"></line>
		</g>
		
			<line style="fill:none;stroke:#000000;stroke-linecap:round;stroke-linejoin:round;stroke-miterlimit:10;" x1="1135.91" y1="1482.5" x2="1135.91" y2="1600.31"></line>
		
			<line style="fill:none;stroke:#000000;stroke-linecap:round;stroke-linejoin:round;stroke-miterlimit:10;" x1="1026.78" y1="1482.5" x2="1026.78" y2="1600.54"></line>
	</g>
	<g>
		<g>
			
				<rect x="1563.19" y="1142.5" style="fill:none;stroke:#000000;stroke-linecap:round;stroke-linejoin:round;stroke-miterlimit:10;" width="137.73" height="80.82"></rect>
			
				<line style="fill:none;stroke:#000000;stroke-linecap:round;stroke-linejoin:round;stroke-miterlimit:10;" x1="1563.19" y1="1150.09" x2="1700.91" y2="1150.01"></line>
		</g>
		
			<line style="fill:none;stroke:#000000;stroke-linecap:round;stroke-linejoin:round;stroke-miterlimit:10;" x1="1632.05" y1="1142.5" x2="1632.05" y2="1223.1"></line>
	</g>
	<g>
		<g>
			
				<rect x="1342.24" y="584.12" style="fill:none;stroke:#000000;stroke-linecap:round;stroke-linejoin:round;stroke-miterlimit:10;" width="118.41" height="206.41"></rect>
			
				<line style="fill:none;stroke:#000000;stroke-linecap:round;stroke-linejoin:round;stroke-miterlimit:10;" x1="1453.06" y1="584.12" x2="1453.14" y2="790.52"></line>
		</g>
		
			<line style="fill:none;stroke:#000000;stroke-linecap:round;stroke-linejoin:round;stroke-miterlimit:10;" x1="1460.65" y1="687.33" x2="1342.47" y2="687.33"></line>
	</g>
	<g>
		<g>
			<g>
				<path style="fill:none;stroke:#000000;stroke-linecap:round;stroke-linejoin:round;stroke-miterlimit:10;" d="M684.68,445.6
					l141.28,0c1.31,0,2.38-1.06,2.38-2.38v-40.9c0-1.31-1.06-2.38-2.38-2.38l-141.28,0c-1.31,0-2.38,1.06-2.38,2.38l0,40.9
					C682.31,444.54,683.37,445.6,684.68,445.6z"></path>
				<path style="fill:none;stroke:#000000;stroke-linecap:round;stroke-linejoin:round;stroke-miterlimit:10;" d="M684.68,445.6
					l141.28,0c1.31,0,2.38,1.06,2.38,2.38l0,128.93c0,1.31-1.06,2.38-2.38,2.38l-141.28,0c-1.31,0-2.38-1.06-2.38-2.38l0-128.93
					C682.31,446.66,683.37,445.6,684.68,445.6z"></path>
				<path style="fill:none;stroke:#000000;stroke-linecap:round;stroke-linejoin:round;stroke-miterlimit:10;" d="M538.65,445.6
					l141.28,0c1.31,0,2.38-1.06,2.38-2.38l0-40.9c0-1.31-1.06-2.38-2.38-2.38l-141.28,0c-1.31,0-2.38,1.06-2.38,2.38l0,40.9
					C536.27,444.54,537.34,445.6,538.65,445.6z"></path>
				<path style="fill:none;stroke:#000000;stroke-linecap:round;stroke-linejoin:round;stroke-miterlimit:10;" d="M538.65,445.6
					l141.28,0c1.31,0,2.38,1.06,2.38,2.38l0,128.93c0,1.31-1.06,2.38-2.38,2.38l-141.28,0c-1.31,0-2.38-1.06-2.38-2.38l0-128.93
					C536.27,446.66,537.34,445.6,538.65,445.6z"></path>
				<path style="fill:none;stroke:#000000;stroke-linecap:round;stroke-linejoin:round;stroke-miterlimit:10;" d="M380.6,445.6
					l153.3,0c1.31,0,2.38-1.06,2.38-2.38v-40.9c0-1.31-1.06-2.38-2.38-2.38l-153.3,0c-1.31,0-2.38,1.06-2.38,2.38l0,40.9
					C378.22,444.54,379.29,445.6,380.6,445.6z"></path>
				<path style="fill:none;stroke:#000000;stroke-linecap:round;stroke-linejoin:round;stroke-miterlimit:10;" d="M380.6,445.6
					l153.3,0c1.31,0,2.38,1.06,2.38,2.38l0,247.94c0,1.31-1.06,2.38-2.38,2.38l-153.3,0c-1.31,0-2.38-1.06-2.38-2.38l0-247.94
					C378.22,446.66,379.29,445.6,380.6,445.6z"></path>
			</g>
		</g>
		<g>
			<g>
				<path style="fill:none;stroke:#000000;stroke-linecap:round;stroke-linejoin:round;stroke-miterlimit:10;" d="M408.12,537.74
					c0.18,0.04,0.35,0.07,0.54,0.09c9.91,0.78,19.81,2.35,29.45,4.67c9.64,2.32,19.18,5.42,28.34,9.22
					c0.19,0.08,0.36,0.14,0.54,0.18c0.93,0.22,1.92,0.02,2.71-0.55c0.45-0.33,1.22-1.07,1.35-2.36l0-0.08
					c1.57-19.9,6.25-39.33,13.9-57.77l0.04-0.1c0.46-1.19,0.11-2.2-0.14-2.69c-0.45-0.87-1.23-1.5-2.17-1.73
					c-0.17-0.04-0.35-0.07-0.54-0.09c-9.91-0.78-19.81-2.35-29.45-4.67c-9.64-2.32-19.17-5.42-28.34-9.22
					c-0.19-0.08-0.36-0.13-0.53-0.18c-0.93-0.22-1.92-0.02-2.71,0.55c-0.45,0.33-1.22,1.07-1.35,2.36l0,0.08
					c-1.57,19.9-6.25,39.33-13.9,57.77l-0.04,0.1c-0.46,1.19-0.11,2.2,0.14,2.69C406.41,536.89,407.19,537.52,408.12,537.74z"></path>
			</g>
			<path style="fill:none;stroke:#000000;stroke-linecap:round;stroke-linejoin:round;stroke-miterlimit:10;" d="M471.05,548.91
				l0,0.08c-0.13,1.29-0.9,2.03-1.35,2.36c-0.79,0.58-1.78,0.78-2.71,0.55c-0.17-0.04-0.35-0.1-0.54-0.18
				c-8.06-3.34-16.43-6.04-24.89-8.25c-4.43,6.49-9.15,12.79-14.38,18.72l-0.05,0.06c-0.84,0.99-0.84,2.06-0.76,2.61
				c0.14,0.97,0.68,1.82,1.49,2.34c0.15,0.1,0.31,0.18,0.5,0.26c9.1,3.94,17.96,8.64,26.33,13.95c8.37,5.32,16.39,11.34,23.83,17.92
				c0.14,0.12,0.29,0.23,0.44,0.33c0.81,0.51,1.81,0.64,2.75,0.36c0.53-0.16,1.49-0.61,2.03-1.77l0.04-0.1
				c7.93-18.31,18.65-35.19,31.86-50.15l0.05-0.06c0.84-0.99,0.84-2.06,0.76-2.61c-0.14-0.97-0.68-1.82-1.49-2.33
				c-0.15-0.1-0.31-0.18-0.5-0.26c-9.1-3.94-17.96-8.64-26.33-13.95c-4.28-2.72-8.46-5.63-12.53-8.7
				C473.36,529.53,471.82,539.16,471.05,548.91z"></path>
			<path style="fill:none;stroke:#000000;stroke-linecap:round;stroke-linejoin:round;stroke-miterlimit:10;" d="M471.05,548.91
				l0,0.08c-0.13,1.29-0.9,2.03-1.35,2.36c-0.79,0.58-1.78,0.78-2.71,0.55c-0.17-0.04-0.35-0.1-0.54-0.18
				c-9.16-3.8-18.69-6.9-28.34-9.22c-0.27-0.06-0.54-0.1-0.81-0.16c-4.11,5.92-8.45,11.69-13.23,17.11l-0.01,0.01
				c-3.36,3.81-2.03,9.78,2.63,11.8l0.02,0.01c17.89,7.74,34.44,18.26,49.05,31.16l0.01,0.01c3.81,3.36,9.78,2.03,11.8-2.63
				l0.01-0.02c7.74-17.89,18.26-34.44,31.16-49.05l0.01-0.01c3.36-3.81,2.03-9.78-2.63-11.8l-0.02-0.01
				c-14.04-6.08-27.22-13.92-39.32-23.23C473.94,526.56,471.94,537.64,471.05,548.91z"></path>
		</g>
	</g>
	<g>
		<polygon style="fill:none;stroke:#000000;stroke-linecap:round;stroke-linejoin:round;stroke-miterlimit:10;" points="
			1208.45,608.41 1208.45,519.15 1327.18,519.15 1327.2,608.41 		"></polygon>
		<path style="fill:none;stroke:#000000;stroke-linecap:round;stroke-linejoin:round;stroke-miterlimit:10;" d="M1293.32,565.27
			l-28.88-12.68c-1.77-0.69-3.71-1.07-5.75-1.07c-8.2,0-14.84,6.16-14.84,13.76c0,7.6,6.65,13.76,14.84,13.76
			c2.04,0,3.98-0.38,5.75-1.07L1293.32,565.27z"></path>
	</g>
	<g>
		<polygon style="fill:none;stroke:#000000;stroke-linecap:round;stroke-linejoin:round;stroke-miterlimit:10;" points="
			1050.4,1105.01 931.58,1105.01 931.58,1223.82 1050.4,1223.84 		"></polygon>
		<g>
			
				<line style="fill:none;stroke:#000000;stroke-linecap:round;stroke-linejoin:round;stroke-miterlimit:10;" x1="990.99" y1="1193.03" x2="990.99" y2="1135.82"></line>
			
				<line style="fill:none;stroke:#000000;stroke-linecap:round;stroke-linejoin:round;stroke-miterlimit:10;" x1="1019.6" y1="1164.43" x2="962.39" y2="1164.43"></line>
			<polyline style="fill:none;stroke:#000000;stroke-linecap:round;stroke-linejoin:round;stroke-miterlimit:10;" points="
				1005.29,1186.67 990.99,1178.73 976.69,1186.67 			"></polyline>
			<polyline style="fill:none;stroke:#000000;stroke-linecap:round;stroke-linejoin:round;stroke-miterlimit:10;" points="
				968.74,1178.73 976.69,1164.43 968.74,1150.12 			"></polyline>
			<polyline style="fill:none;stroke:#000000;stroke-linecap:round;stroke-linejoin:round;stroke-miterlimit:10;" points="
				976.69,1142.18 990.99,1150.12 1005.29,1142.18 			"></polyline>
			<polyline style="fill:none;stroke:#000000;stroke-linecap:round;stroke-linejoin:round;stroke-miterlimit:10;" points="
				1013.24,1150.12 1005.29,1164.43 1013.24,1178.73 			"></polyline>
		</g>
	</g>
	<g>
		<g>
			<g>
				<g>
					<path style="fill:none;stroke:#000000;stroke-linecap:round;stroke-linejoin:round;stroke-miterlimit:10;" d="M905.17,658.63
						l-17.18,22.63c-10.75,14.16-9.14,34.13,3.74,46.38l1.46,1.39c12.87,12.24,32.88,12.86,46.49,1.44l21.79-18.29L905.17,658.63z"></path>
					<path style="fill:none;stroke:#000000;stroke-linecap:round;stroke-linejoin:round;stroke-miterlimit:10;" d="M950.86,734.26
						l-4.81,4.03c-17.42,14.63-43.05,13.83-59.53-1.85l-1.87-1.78c-16.49-15.69-18.55-41.27-4.79-59.4l3.77-4.96
						c1.82-2.4,5.32-2.68,7.5-0.6h0c1.86,1.77,2.1,4.66,0.54,6.71l-3.68,4.85c-10.75,14.16-9.14,34.13,3.74,46.38l1.46,1.39
						c12.87,12.24,32.88,12.86,46.49,1.44l4.69-3.94c1.97-1.65,4.86-1.56,6.72,0.21v0C953.27,728.82,953.16,732.32,950.86,734.26z"></path>
				</g>
				<g>
					<path style="fill:none;stroke:#000000;stroke-linecap:round;stroke-linejoin:round;stroke-miterlimit:10;" d="M1080.26,587.25
						l17.18-22.63c10.75-14.16,9.14-34.13-3.74-46.38l-1.46-1.39c-12.87-12.24-32.88-12.86-46.49-1.44l-21.79,18.29L1080.26,587.25z
						"></path>
					<path style="fill:none;stroke:#000000;stroke-linecap:round;stroke-linejoin:round;stroke-miterlimit:10;" d="M1034.58,511.62
						l4.8-4.03c17.42-14.63,43.05-13.83,59.53,1.85l1.87,1.78c16.49,15.69,18.56,41.27,4.79,59.4l-3.77,4.96
						c-1.82,2.4-5.32,2.68-7.5,0.6v0c-1.86-1.77-2.1-4.66-0.54-6.71l3.68-4.85c10.75-14.16,9.14-34.13-3.74-46.38l-1.46-1.39
						c-12.87-12.24-32.88-12.86-46.49-1.44l-4.69,3.94c-1.97,1.65-4.86,1.56-6.72-0.21l0,0
						C1032.17,517.06,1032.27,513.56,1034.58,511.62z"></path>
				</g>
				<g>
					<path style="fill:none;stroke:#000000;stroke-linecap:round;stroke-linejoin:round;stroke-miterlimit:10;" d="M957.03,535.39
						l-22.63-17.18c-14.16-10.75-34.13-9.14-46.38,3.74l-1.39,1.46c-12.24,12.87-12.86,32.88-1.44,46.49l18.29,21.79L957.03,535.39z
						"></path>
					<path style="fill:none;stroke:#000000;stroke-linecap:round;stroke-linejoin:round;stroke-miterlimit:10;" d="M881.4,581.08
						l-4.03-4.81c-14.63-17.42-13.83-43.05,1.85-59.53l1.78-1.87c15.69-16.49,41.27-18.55,59.4-4.79l4.96,3.77
						c2.4,1.82,2.68,5.32,0.6,7.5l0,0c-1.77,1.86-4.66,2.1-6.71,0.54l-4.85-3.68c-14.16-10.75-34.13-9.14-46.38,3.74l-1.39,1.46
						c-12.24,12.87-12.86,32.88-1.44,46.49l3.94,4.69c1.65,1.97,1.56,4.86-0.21,6.72v0C886.84,583.49,883.33,583.38,881.4,581.08z"></path>
				</g>
				<g>
					<path style="fill:none;stroke:#000000;stroke-linecap:round;stroke-linejoin:round;stroke-miterlimit:10;" d="M1028.41,710.49
						l22.63,17.18c14.16,10.75,34.13,9.14,46.38-3.74l1.39-1.46c12.24-12.87,12.86-32.88,1.44-46.49l-18.29-21.79L1028.41,710.49z"></path>
					<path style="fill:none;stroke:#000000;stroke-linecap:round;stroke-linejoin:round;stroke-miterlimit:10;" d="M1104.04,664.8
						l4.03,4.8c14.63,17.42,13.83,43.05-1.85,59.53l-1.78,1.87c-15.69,16.49-41.27,18.56-59.4,4.79l-4.96-3.77
						c-2.4-1.82-2.68-5.32-0.6-7.5l0,0c1.77-1.86,4.66-2.1,6.71-0.54l4.85,3.68c14.16,10.75,34.13,9.14,46.38-3.74l1.39-1.46
						c12.24-12.87,12.86-32.88,1.44-46.49l-3.94-4.69c-1.65-1.97-1.56-4.86,0.21-6.72l0,0
						C1098.59,662.39,1102.1,662.5,1104.04,664.8z"></path>
				</g>
			</g>
			
				<circle style="fill:#FFFFFF;stroke:#000000;stroke-linecap:round;stroke-linejoin:round;stroke-miterlimit:10;" cx="993.05" cy="622.59" r="95.13"></circle>
		</g>
		<g>
			<g>
				<g>
					
						<circle style="fill:none;stroke:#000000;stroke-linecap:round;stroke-linejoin:round;stroke-miterlimit:10;" cx="1036.68" cy="582.61" r="17.54"></circle>
				</g>
				<g>
					
						<circle style="fill:none;stroke:#000000;stroke-linecap:round;stroke-linejoin:round;stroke-miterlimit:10;" cx="1036.68" cy="582.61" r="9.99"></circle>
				</g>
				<g>
					
						<ellipse transform="matrix(0.7263 -0.6873 0.6873 0.7263 -113.219 845.8629)" style="fill:none;stroke:#000000;stroke-linecap:round;stroke-linejoin:round;stroke-miterlimit:10;" cx="1005.66" cy="565.12" rx="4.42" ry="2.72"></ellipse>
					
						<line style="fill:none;stroke:#000000;stroke-linecap:round;stroke-linejoin:round;stroke-miterlimit:10;" x1="1008.86" y1="562.08" x2="1022.9" y2="548.8"></line>
				</g>
				<g>
					<path style="fill:none;stroke:#000000;stroke-linecap:round;stroke-linejoin:round;stroke-miterlimit:10;" d="M1045.52,613.67
						l3.21-3.04c1.77-1.68,2.37-3.92,1.34-5.01c-1.03-1.09-3.3-0.61-5.08,1.06l-3.21,3.04"></path>
					
						<line style="fill:none;stroke:#000000;stroke-linecap:round;stroke-linejoin:round;stroke-miterlimit:10;" x1="1050.06" y1="605.62" x2="1064.1" y2="592.34"></line>
				</g>
				
					<line style="fill:none;stroke:#000000;stroke-linecap:round;stroke-linejoin:round;stroke-miterlimit:10;" x1="1043.65" y1="611.69" x2="1050.06" y2="605.62"></line>
				<g>
					<path style="fill:none;stroke:#000000;stroke-linecap:round;stroke-linejoin:round;stroke-miterlimit:10;" d="M1018.92,561.78
						l2.9,3.06l-11.87,11.23l-0.25-0.27c-1.46-1.55-1.39-3.98,0.15-5.45L1018.92,561.78z"></path>
					<path style="fill:none;stroke:#000000;stroke-linecap:round;stroke-linejoin:round;stroke-miterlimit:10;" d="M1028.83,555.06
						l0.25,0.27c0.73,0.77,0.7,1.99-0.08,2.72l-7.18,6.8l-2.9-3.06l7.18-6.8C1026.88,554.25,1028.1,554.29,1028.83,555.06z"></path>
				</g>
			</g>
			<g>
				<g>
					
						<circle style="fill:none;stroke:#000000;stroke-linecap:round;stroke-linejoin:round;stroke-miterlimit:10;" cx="948.06" cy="658.59" r="17.54"></circle>
				</g>
				<g>
					
						<circle style="fill:none;stroke:#000000;stroke-linecap:round;stroke-linejoin:round;stroke-miterlimit:10;" cx="948.06" cy="658.59" r="9.99"></circle>
				</g>
				<g>
					
						<ellipse transform="matrix(0.7264 -0.6873 0.6873 0.7264 -196.7661 857.9396)" style="fill:none;stroke:#000000;stroke-linecap:round;stroke-linejoin:round;stroke-miterlimit:10;" cx="979.09" cy="676.08" rx="4.42" ry="2.72"></ellipse>
					
						<line style="fill:none;stroke:#000000;stroke-linecap:round;stroke-linejoin:round;stroke-miterlimit:10;" x1="975.88" y1="679.12" x2="961.84" y2="692.4"></line>
				</g>
				<g>
					<path style="fill:none;stroke:#000000;stroke-linecap:round;stroke-linejoin:round;stroke-miterlimit:10;" d="M939.23,627.53
						l-3.21,3.04c-1.77,1.68-2.37,3.92-1.34,5.01c1.03,1.09,3.3,0.62,5.08-1.06l3.21-3.04"></path>
					
						<line style="fill:none;stroke:#000000;stroke-linecap:round;stroke-linejoin:round;stroke-miterlimit:10;" x1="934.68" y1="635.58" x2="920.64" y2="648.86"></line>
				</g>
				
					<line style="fill:none;stroke:#000000;stroke-linecap:round;stroke-linejoin:round;stroke-miterlimit:10;" x1="941.1" y1="629.51" x2="934.68" y2="635.58"></line>
				<g>
					<path style="fill:none;stroke:#000000;stroke-linecap:round;stroke-linejoin:round;stroke-miterlimit:10;" d="M965.82,679.42
						l-2.9-3.07l11.87-11.23l0.25,0.27c1.46,1.55,1.39,3.98-0.15,5.45L965.82,679.42z"></path>
					<path style="fill:none;stroke:#000000;stroke-linecap:round;stroke-linejoin:round;stroke-miterlimit:10;" d="M955.92,686.14
						l-0.25-0.27c-0.73-0.77-0.7-1.99,0.08-2.72l7.18-6.8l2.9,3.07l-7.18,6.8C957.87,686.95,956.65,686.91,955.92,686.14z"></path>
				</g>
			</g>
			<g>
				<g>
					
						<circle style="fill:none;stroke:#000000;stroke-linecap:round;stroke-linejoin:round;stroke-miterlimit:10;" cx="956.03" cy="577.94" r="17.54"></circle>
				</g>
				<g>
					
						<circle style="fill:none;stroke:#000000;stroke-linecap:round;stroke-linejoin:round;stroke-miterlimit:10;" cx="956.03" cy="577.94" r="9.99"></circle>
				</g>
				<g>
					
						<ellipse transform="matrix(0.7264 -0.6873 0.6873 0.7264 -161.7343 811.6816)" style="fill:none;stroke:#000000;stroke-linecap:round;stroke-linejoin:round;stroke-miterlimit:10;" cx="938.54" cy="608.97" rx="2.72" ry="4.42"></ellipse>
					
						<line style="fill:none;stroke:#000000;stroke-linecap:round;stroke-linejoin:round;stroke-miterlimit:10;" x1="935.5" y1="605.76" x2="922.22" y2="591.72"></line>
				</g>
				<g>
					<path style="fill:none;stroke:#000000;stroke-linecap:round;stroke-linejoin:round;stroke-miterlimit:10;" d="M987.09,569.11
						l-3.04-3.21c-1.68-1.77-3.92-2.37-5.01-1.34c-1.09,1.03-0.62,3.3,1.06,5.08l3.04,3.21"></path>
					
						<line style="fill:none;stroke:#000000;stroke-linecap:round;stroke-linejoin:round;stroke-miterlimit:10;" x1="979.05" y1="564.56" x2="965.76" y2="550.52"></line>
				</g>
				
					<line style="fill:none;stroke:#000000;stroke-linecap:round;stroke-linejoin:round;stroke-miterlimit:10;" x1="985.12" y1="570.98" x2="979.05" y2="564.56"></line>
				<g>
					<path style="fill:none;stroke:#000000;stroke-linecap:round;stroke-linejoin:round;stroke-miterlimit:10;" d="M935.2,595.7
						l3.07-2.9l11.23,11.87l-0.27,0.25c-1.55,1.46-3.98,1.39-5.45-0.15L935.2,595.7z"></path>
					<path style="fill:none;stroke:#000000;stroke-linecap:round;stroke-linejoin:round;stroke-miterlimit:10;" d="M928.48,585.8
						l0.27-0.25c0.77-0.73,1.99-0.7,2.72,0.08l6.8,7.18l-3.07,2.9l-6.8-7.18C927.68,587.74,927.71,586.53,928.48,585.8z"></path>
				</g>
			</g>
			<g>
				<g>
					
						<circle style="fill:none;stroke:#000000;stroke-linecap:round;stroke-linejoin:round;stroke-miterlimit:10;" cx="1031.65" cy="663.63" r="17.54"></circle>
				</g>
				<g>
					
						<circle style="fill:none;stroke:#000000;stroke-linecap:round;stroke-linejoin:round;stroke-miterlimit:10;" cx="1031.65" cy="663.63" r="9.99"></circle>
				</g>
				<g>
					
						<ellipse transform="matrix(0.7264 -0.6873 0.6873 0.7264 -147.7186 894.1702)" style="fill:none;stroke:#000000;stroke-linecap:round;stroke-linejoin:round;stroke-miterlimit:10;" cx="1049.15" cy="632.61" rx="2.72" ry="4.42"></ellipse>
					
						<line style="fill:none;stroke:#000000;stroke-linecap:round;stroke-linejoin:round;stroke-miterlimit:10;" x1="1052.18" y1="635.82" x2="1065.46" y2="649.85"></line>
				</g>
				<g>
					<path style="fill:none;stroke:#000000;stroke-linecap:round;stroke-linejoin:round;stroke-miterlimit:10;" d="M1000.59,672.47
						l3.04,3.21c1.68,1.77,3.92,2.37,5.01,1.34c1.09-1.03,0.62-3.3-1.06-5.08l-3.04-3.21"></path>
					
						<line style="fill:none;stroke:#000000;stroke-linecap:round;stroke-linejoin:round;stroke-miterlimit:10;" x1="1008.64" y1="677.01" x2="1021.92" y2="691.05"></line>
				</g>
				
					<line style="fill:none;stroke:#000000;stroke-linecap:round;stroke-linejoin:round;stroke-miterlimit:10;" x1="1002.57" y1="670.6" x2="1008.64" y2="677.01"></line>
				<g>
					<path style="fill:none;stroke:#000000;stroke-linecap:round;stroke-linejoin:round;stroke-miterlimit:10;" d="M1052.48,645.87
						l-3.07,2.9l-11.23-11.87l0.27-0.25c1.55-1.46,3.98-1.39,5.44,0.15L1052.48,645.87z"></path>
					<path style="fill:none;stroke:#000000;stroke-linecap:round;stroke-linejoin:round;stroke-miterlimit:10;" d="M1059.2,655.78
						l-0.27,0.25c-0.77,0.73-1.99,0.7-2.72-0.08l-6.8-7.18l3.07-2.9l6.8,7.18C1060.01,653.83,1059.97,655.05,1059.2,655.78z"></path>
				</g>
			</g>
		</g>
		<g>
			<path style="fill:none;stroke:#000000;stroke-linecap:round;stroke-linejoin:round;stroke-miterlimit:10;" d="M992.57,646.19
				l-23.26-28.64c-4.1-5.05-3.33-12.46,1.72-16.56l4.58-3.72c5.05-4.1,12.46-3.33,16.56,1.72l23.26,28.64
				c4.1,5.05,3.33,12.46-1.72,16.56l-4.58,3.72C1004.08,652,996.67,651.23,992.57,646.19z"></path>
			
				<circle style="fill:none;stroke:#000000;stroke-linecap:round;stroke-linejoin:round;stroke-miterlimit:10;" cx="983.29" cy="607.04" r="5.54"></circle>
			
				<circle style="fill:none;stroke:#000000;stroke-linecap:round;stroke-linejoin:round;stroke-miterlimit:10;" cx="982.82" cy="619.62" r="5.54"></circle>
			
				<circle style="fill:none;stroke:#000000;stroke-linecap:round;stroke-linejoin:round;stroke-miterlimit:10;" cx="994.67" cy="615.55" r="5.54"></circle>
			<path style="fill:none;stroke:#000000;stroke-linecap:round;stroke-linejoin:round;stroke-miterlimit:10;" d="M1012.78,628.52
				l-0.58-1.11l-4.21,2.44c-9.52,2.02-14.32-4.24-17.3-7.45c-0.69-0.74-1.93-0.11-1.74,0.88c0.65,3.52,2.45,8.74,7.4,10.94
				c5.66,2.52,10.08-1.02,12.09-3.16L1012.78,628.52z"></path>
			<path style="fill:none;stroke:#000000;stroke-linecap:round;stroke-linejoin:round;stroke-miterlimit:10;" d="M1007.64,639.49
				l-0.23-1.23l-4.74,1.11c-9.69-0.85-12.46-8.23-14.37-12.17c-0.44-0.91-1.81-0.67-1.93,0.33c-0.4,3.56-0.2,9.07,3.89,12.62
				c4.68,4.06,9.94,1.97,12.48,0.51L1007.64,639.49z"></path>
		</g>
	</g>
	<g>
		<path style="fill:none;stroke:#000000;stroke-linecap:round;stroke-linejoin:round;stroke-miterlimit:10;" d="M573.92,666.67
			c0,8.85,0,39.91,0,48.76c0,9.05,7.8,13.68,17.48,15.19c39.49,5.5,79.6,5.5,119.09,0c9.68-1.51,17.48-6.13,17.48-15.19
			c0-8.85,0-39.91,0-48.76c0-9.05-7.8-13.68-17.48-15.19c-39.49-5.5-79.6-5.5-119.09,0C581.72,653,573.92,657.62,573.92,666.67z"></path>
		<g>
			<polygon style="fill:none;stroke:#000000;stroke-linecap:round;stroke-linejoin:round;stroke-miterlimit:10;" points="
				647.64,707.16 652.63,709.86 673.03,672.18 666.76,668.79 672.37,665.37 688.95,692.61 652.35,714.89 			"></polygon>
			
				<line style="fill:none;stroke:#000000;stroke-linecap:round;stroke-linejoin:round;stroke-miterlimit:10;" x1="644.97" y1="705.71" x2="637.26" y2="712.72"></line>
			
				<line style="fill:none;stroke:#000000;stroke-linecap:round;stroke-linejoin:round;stroke-miterlimit:10;" x1="687.65" y1="690.48" x2="651.05" y2="712.76"></line>
			<g>
				<polygon style="fill:none;stroke:#000000;stroke-linecap:round;stroke-linejoin:round;stroke-miterlimit:10;" points="
					624.59,694.67 647.29,706.97 638.94,714.56 617.5,690.96 635.43,674.67 				"></polygon>
				<polygon style="fill:none;stroke:#000000;stroke-linecap:round;stroke-linejoin:round;stroke-miterlimit:10;" points="
					667.54,682.33 670.65,685.74 660.88,694.62 				"></polygon>
			</g>
			
				<rect x="627.39" y="667.48" transform="matrix(-0.4763 0.8793 -0.8793 -0.4763 1558.7712 438.4657)" style="fill:none;stroke:#000000;stroke-linecap:round;stroke-linejoin:round;stroke-miterlimit:10;" width="42.84" height="31.88"></rect>
			
				<line style="fill:none;stroke:#000000;stroke-linecap:round;stroke-linejoin:round;stroke-miterlimit:10;" x1="670.84" y1="671" x2="650.44" y2="708.67"></line>
		</g>
	</g>
	<g>
		<g>
			<g>
				
					<rect x="586.68" y="943.24" transform="matrix(-1.985567e-06 -1 1 -1.985567e-06 -451.7798 1636.7881)" style="fill:none;stroke:#000000;stroke-linecap:round;stroke-linejoin:round;stroke-miterlimit:10;" width="11.64" height="202.08"></rect>
				<polygon style="fill:none;stroke:#000000;stroke-linecap:round;stroke-linejoin:round;stroke-miterlimit:10;" points="
					512.48,1026.83 491.46,1038.47 693.54,1038.46 672.52,1026.83 				"></polygon>
			</g>
		</g>
		<g>
			
				<rect x="572.7" y="928.01" transform="matrix(2.044532e-06 1 -1 2.044532e-06 1639.011 454.0049)" style="fill:none;stroke:#000000;stroke-linecap:round;stroke-linejoin:round;stroke-miterlimit:10;" width="39.61" height="236.99"></rect>
		</g>
	</g>
	<g>
		<g>
			<g>
				
					<rect x="561.28" y="892.45" transform="matrix(1.985567e-06 1 -1 1.985567e-06 1560.5865 426.3947)" style="fill:none;stroke:#000000;stroke-linecap:round;stroke-linejoin:round;stroke-miterlimit:10;" width="11.64" height="202.08"></rect>
				<polygon style="fill:none;stroke:#000000;stroke-linecap:round;stroke-linejoin:round;stroke-miterlimit:10;" points="
					647.12,1010.95 668.14,999.31 466.05,999.31 487.07,1010.95 				"></polygon>
			</g>
		</g>
		<g>
			
				<rect x="547.29" y="872.77" transform="matrix(-2.044532e-06 -1 1 -2.044532e-06 -424.1694 1558.3635)" style="fill:none;stroke:#000000;stroke-linecap:round;stroke-linejoin:round;stroke-miterlimit:10;" width="39.61" height="236.99"></rect>
		</g>
	</g>
	<g>
		<g>
			<path style="fill:none;stroke:#000000;stroke-linecap:round;stroke-linejoin:round;stroke-miterlimit:10;" d="M622.99,1308.45"></path>
			<path style="fill:none;stroke:#000000;stroke-linecap:round;stroke-linejoin:round;stroke-miterlimit:10;" d="M636.58,1276.55
				c-2.73,1.48-5.77,3.63-8.6,6.74c-7.78,8.57-10.21,17.24-10.21,17.24c-1.02-0.13-2.08-0.1-3.14,0.13
				c-5.33,1.12-8.61,6.43-7.3,11.67c0.12,0.47,0.27,0.93,0.45,1.36l-9.83-2.71c-1.15-0.37-2.42,0.15-2.92,1.24
				c-0.57,1.27,0.06,2.73,1.35,3.18l13.32,4.22c0.31,0.11,0.66,0.08,0.95-0.08l1.73-0.97c1.96,0.96,4.55,1.41,9.45-0.23
				c12.43-4.14,14.01-17.72,14.01-17.72l8.91-8.57"></path>
			<path style="fill:none;stroke:#000000;stroke-linecap:round;stroke-linejoin:round;stroke-miterlimit:10;" d="M597.42,1304.27
				l7.11,8.52l3.25,0.9c-0.18-0.44-0.33-0.89-0.45-1.36c-0.35-1.38-0.36-2.75-0.11-4.06l-6.2-7.02c-0.82-0.95-2.24-1.08-3.22-0.31
				C596.76,1301.76,596.6,1303.25,597.42,1304.27z"></path>
			<path style="fill:none;stroke:#000000;stroke-linecap:round;stroke-linejoin:round;stroke-miterlimit:10;" d="M614.14,1348.53
				c-5.99-9.05-4.06-21.77,4.14-29.29c-1.44,0.23-2.61,0.23-3.6,0.06c-0.14,0.12-0.29,0.2-0.43,0.32c-9.12,8-10.65,21.63-3.84,31.41
				c0.68,0.97,1.99,1.25,3,0.64C614.51,1351.03,614.84,1349.59,614.14,1348.53z"></path>
			<g>
				<path style="fill:none;stroke:#000000;stroke-linecap:round;stroke-linejoin:round;stroke-miterlimit:10;" d="M648.62,1274.61
					c1.26-2.62,2.3-5.07,3.67-8.1c0.46-1.02,1.23-2.27,0.88-3.33c-0.22-0.65-0.74-1.08-1.36-1.27"></path>
			</g>
			<path style="fill:none;stroke:#000000;stroke-linecap:round;stroke-linejoin:round;stroke-miterlimit:10;" d="M628.06,1304.06"></path>
			<path style="fill:none;stroke:#000000;stroke-linecap:round;stroke-linejoin:round;stroke-miterlimit:10;" d="M654.01,1279.13
				c-1.46-1.08-2.94-2.43-4.29-3.65c-1.21-1.09-2.72-2.25-4.35-2.07"></path>
			<path style="fill:none;stroke:#000000;stroke-linecap:round;stroke-linejoin:round;stroke-miterlimit:10;" d="M635.98,1289.95
				c-4.39-4.8,0.81-13.5,0.81-13.5c0.84-3.56,6.42-12.8,12.5-17.84c0.48-0.4,0.98-0.73,1.48-0.97c1.01-0.48,2.22-0.04,2.7,0.97
				c0.48,1.01-0.35,1.77-0.97,2.7c-2.81,4.26-4.53,6.71-6.2,9.99c-0.26,0.52-0.64,1.34-0.99,2.12c-0.52,1.15-0.98,2.23-0.98,2.23
				c0.53,1.03,1.21,2.55,1.71,4.35"></path>
			<g>
				<path style="fill:none;stroke:#000000;stroke-linecap:round;stroke-linejoin:round;stroke-miterlimit:10;" d="M658.53,1285.85
					c0.12,2.34-0.82,4.64-2.55,6.22l-0.94,6.21c-0.05,0.33-0.48,0.44-0.68,0.18l-3.37-4.35c-1.25,0.05-2.48-0.21-3.59-0.72
					c-0.1-0.04-2.62-1.46-2.62-1.46l-0.75-0.41l-0.92-0.54c-0.12-0.06-0.24-0.14-0.36-0.22c-0.35-0.24-0.66-0.56-0.91-0.94
					c-1.04-1.59-0.6-3.72,0.99-4.76c0.03-0.02,0.07-0.04,0.1-0.06c0.52-3.21,3.03-6.01,6.76-6.55c1.67-0.24,3.37,0.1,4.82,0.91
					c0.93,0.51,1.75,1.22,2.39,2.07c0.04,0.06,0.09,0.12,0.13,0.17"></path>
				
					<line style="fill:none;stroke:#000000;stroke-linecap:round;stroke-linejoin:round;stroke-miterlimit:10;" x1="645.72" y1="1286.45" x2="647.08" y2="1284.44"></line>
				<polygon style="fill:none;stroke:#000000;stroke-linecap:round;stroke-linejoin:round;stroke-miterlimit:10;" points="
					643.78,1287.57 642.29,1288.82 643.54,1290.31 				"></polygon>
				<path style="fill:none;stroke:#000000;stroke-linecap:round;stroke-linejoin:round;stroke-miterlimit:10;" d="M652.85,1280.91
					c2.31,0.16,5.57,0.99,7.85,2.23c0.38,0.21,0.33,0.75,0,1.03c-0.67,0.57-3.32,2.45-5.93,3.41c0,0,0.4-0.12,0,0"></path>
			</g>
			<path style="fill:none;stroke:#000000;stroke-linecap:round;stroke-linejoin:round;stroke-miterlimit:10;" d="M614.63,1300.66
				c1.06-0.22,2.11-0.26,3.14-0.13c0,0,0.56-1.91,1.9-4.77c-2.13-0.7-4.5-0.69-6.72,0.26c-4.4,1.89-6.62,6.68-5.44,11.18
				C608.49,1304.01,611.09,1301.41,614.63,1300.66z"></path>
		</g>
		<g>
			<g>
				<g>
					
						<circle style="fill:none;stroke:#000000;stroke-linecap:round;stroke-linejoin:round;stroke-miterlimit:10;" cx="454.25" cy="1543.45" r="7.01"></circle>
					
						<circle style="fill:none;stroke:#000000;stroke-linecap:round;stroke-linejoin:round;stroke-miterlimit:10;" cx="454.25" cy="1543.45" r="4.95"></circle>
					
						<line style="fill:none;stroke:#000000;stroke-linecap:round;stroke-linejoin:round;stroke-miterlimit:10;" x1="450.17" y1="1548.72" x2="447.14" y2="1552.6"></line>
					<path style="fill:none;stroke:#000000;stroke-linecap:round;stroke-linejoin:round;stroke-miterlimit:10;" d="M436.4,1542.37
						c-0.33,5.49,1.91,10.49,5.61,14l2.7-3.46c0.59-0.76,1.69-0.89,2.45-0.3c0.47,0.37,0.7,0.93,0.67,1.48
						c-0.02,0.34-0.14,0.67-0.36,0.96l-2.69,3.45c2.46,1.55,5.29,2.6,8.4,2.79c9.85,0.6,18.33-6.91,18.92-16.76
						c0.6-9.85-6.91-18.33-16.76-18.92C445.47,1525.01,437,1532.52,436.4,1542.37z"></path>
					<g>
						
							<rect x="419.24" y="1577.04" transform="matrix(0.6142 -0.7891 0.7891 0.6142 -1082.9237 942.2989)" style="fill:none;stroke:#000000;stroke-linecap:round;stroke-linejoin:round;stroke-miterlimit:10;" width="6.2" height="3.49"></rect>
						
							<rect x="424.74" y="1581.33" transform="matrix(0.6142 -0.7891 0.7891 0.6142 -1084.1771 948.2833)" style="fill:none;stroke:#000000;stroke-linecap:round;stroke-linejoin:round;stroke-miterlimit:10;" width="6.2" height="3.48"></rect>
					</g>
					<g>
						<path style="fill:none;stroke:#000000;stroke-linecap:round;stroke-linejoin:round;stroke-miterlimit:10;" d="M433.81,1566.9
							c-1.47-0.82-3.12-1.36-4.91-1.46c-6.42-0.39-11.95,4.5-12.33,10.93c-0.2,3.33,1.03,6.39,3.14,8.65L433.81,1566.9z"></path>
						<path style="fill:none;stroke:#000000;stroke-linecap:round;stroke-linejoin:round;stroke-miterlimit:10;" d="M422.45,1587.15
							c1.5,0.86,3.19,1.43,5.04,1.54c6.42,0.39,11.95-4.5,12.33-10.93c0.2-3.38-1.08-6.48-3.25-8.75L422.45,1587.15z"></path>
					</g>
					<g>
						<path style="fill:none;stroke:#000000;stroke-linecap:round;stroke-linejoin:round;stroke-miterlimit:10;" d="M447.82,1554.09
							c-0.02,0.34-0.14,0.67-0.36,0.96l-28.64,36.77c-0.59,0.76-1.69,0.89-2.45,0.3c-0.76-0.59-0.9-1.68-0.3-2.45l28.64-36.77
							c0.59-0.76,1.69-0.89,2.45-0.3C447.62,1552.98,447.85,1553.54,447.82,1554.09z"></path>
					</g>
				</g>
				<g>
					
						<circle style="fill:none;stroke:#000000;stroke-linecap:round;stroke-linejoin:round;stroke-miterlimit:10;" cx="808.89" cy="1544.13" r="7.01"></circle>
					
						<circle style="fill:none;stroke:#000000;stroke-linecap:round;stroke-linejoin:round;stroke-miterlimit:10;" cx="808.89" cy="1544.13" r="4.95"></circle>
					
						<line style="fill:none;stroke:#000000;stroke-linecap:round;stroke-linejoin:round;stroke-miterlimit:10;" x1="813.14" y1="1549.26" x2="816.27" y2="1553.06"></line>
					<path style="fill:none;stroke:#000000;stroke-linecap:round;stroke-linejoin:round;stroke-miterlimit:10;" d="M803.94,1561.31
						c5.28,1.52,10.65,0.43,14.89-2.41l-2.79-3.39c-0.61-0.74-0.5-1.84,0.24-2.45c0.46-0.38,1.06-0.48,1.59-0.33
						c0.33,0.09,0.63,0.28,0.86,0.57l2.78,3.38c2.05-2.06,3.69-4.6,4.55-7.59c2.73-9.49-2.74-19.39-12.23-22.13
						c-9.49-2.73-19.39,2.74-22.13,12.23C788.98,1548.67,794.46,1558.57,803.94,1561.31z"></path>
					<g>
						
							<rect x="834.66" y="1579.88" transform="matrix(0.7717 -0.636 0.636 0.7717 -815.8069 893.3468)" style="fill:none;stroke:#000000;stroke-linecap:round;stroke-linejoin:round;stroke-miterlimit:10;" width="3.49" height="6.2"></rect>
						
							<rect x="840.04" y="1575.45" transform="matrix(0.7717 -0.636 0.636 0.7717 -811.7557 895.7471)" style="fill:none;stroke:#000000;stroke-linecap:round;stroke-linejoin:round;stroke-miterlimit:10;" width="3.48" height="6.2"></rect>
					</g>
					<g>
						<path style="fill:none;stroke:#000000;stroke-linecap:round;stroke-linejoin:round;stroke-miterlimit:10;" d="M827.31,1569.19
							c-1.12,1.26-2,2.75-2.5,4.48c-1.78,6.18,1.79,12.64,7.97,14.42c3.2,0.92,6.46,0.39,9.12-1.18L827.31,1569.19z"></path>
						<path style="fill:none;stroke:#000000;stroke-linecap:round;stroke-linejoin:round;stroke-miterlimit:10;" d="M844.6,1584.7
							c1.17-1.28,2.09-2.81,2.6-4.58c1.78-6.18-1.79-12.64-7.97-14.42c-3.25-0.94-6.56-0.36-9.24,1.26L844.6,1584.7z"></path>
					</g>
					<g>
						<path style="fill:none;stroke:#000000;stroke-linecap:round;stroke-linejoin:round;stroke-miterlimit:10;" d="M817.87,1552.72
							c0.33,0.09,0.63,0.28,0.86,0.57l29.63,35.98c0.61,0.74,0.5,1.84-0.24,2.45c-0.74,0.61-1.84,0.51-2.45-0.24l-29.63-35.98
							c-0.61-0.74-0.5-1.84,0.24-2.45C816.74,1552.67,817.34,1552.57,817.87,1552.72z"></path>
					</g>
				</g>
				<g>
					<g>
						<g>
							<g>
								<g>
									<g>
										
											<rect x="477.4" y="1587.13" style="fill:none;stroke:#000000;stroke-linecap:round;stroke-linejoin:round;stroke-miterlimit:10;" width="307.32" height="12.47"></rect>
										
											<rect x="477.4" y="1184.93" style="fill:none;stroke:#000000;stroke-linecap:round;stroke-linejoin:round;stroke-miterlimit:10;" width="307.32" height="402.2"></rect>
										<path style="fill:none;stroke:#000000;stroke-linecap:round;stroke-linejoin:round;stroke-miterlimit:10;" d="
											M625.68,1522.99h10.58l0,30.7c0,9.18,7.44,16.63,16.63,16.63l92.17,0c9.18,0,16.63-7.44,16.63-16.63l0-30.7l10.58,0
											l0,53.75c0,2.3-1.86,4.16-4.16,4.16l-274.07,0c-2.3,0-4.16-1.86-4.16-4.16l0-53.75h10.58l0,30.7
											c0,9.18,7.44,16.63,16.63,16.63l91.99,0c9.18,0,16.63-7.44,16.63-16.63L625.68,1522.99z"></path>
										<path style="fill:none;stroke:#000000;stroke-linecap:round;stroke-linejoin:round;stroke-miterlimit:10;" d="
											M492.74,1195.32l276.64,0c1.59,0,2.87,1.29,2.87,2.87l0,324.8l-282.39,0l0-324.8
											C489.87,1196.6,491.15,1195.32,492.74,1195.32z"></path>
									</g>
								</g>
								
									<rect x="777.71" y="1522.26" transform="matrix(-1.005490e-06 1 -1 -1.005490e-06 2377.3076 737.5421)" style="fill:none;stroke:#000000;stroke-linecap:round;stroke-linejoin:round;stroke-miterlimit:10;" width="84.35" height="70.32"></rect>
								
									<rect x="400.06" y="1522.26" transform="matrix(-1.005490e-06 1 -1 -1.005490e-06 1999.6605 1115.1888)" style="fill:none;stroke:#000000;stroke-linecap:round;stroke-linejoin:round;stroke-miterlimit:10;" width="84.35" height="70.32"></rect>
							</g>
						</g>
					</g>
				</g>
			</g>
		</g>
	</g>
	
		<rect x="1129.1" y="687.76" transform="matrix(-1.836970e-16 1 -1 -1.836970e-16 2014.7115 -520.6909)" style="fill:none;stroke:#000000;stroke-linecap:round;stroke-linejoin:round;stroke-miterlimit:10;" width="277.2" height="118.5"></rect>
	
		<rect x="1130.52" y="1024.9" transform="matrix(-1.836970e-16 1 -1 -1.836970e-16 2353.7273 -25.5023)" style="fill:none;stroke:#000000;stroke-linecap:round;stroke-linejoin:round;stroke-miterlimit:10;" width="118.2" height="278.42"></rect>
	<g>
		<polyline style="fill:none;stroke:#000000;stroke-linecap:round;stroke-linejoin:round;stroke-miterlimit:10;" points="
			1701.37,402.55 1701.4,790.52 1622.47,790.53 1622.43,465.46 		"></polyline>
		
			<line style="fill:none;stroke:#000000;stroke-linecap:round;stroke-linejoin:round;stroke-miterlimit:10;" x1="1630.06" y1="790.53" x2="1630.01" y2="457.97"></line>
		<path style="fill:none;stroke:#000000;stroke-linecap:round;stroke-linejoin:round;stroke-miterlimit:10;" d="M1622.45,583.63"></path>
		<path style="fill:none;stroke:#000000;stroke-linecap:round;stroke-linejoin:round;stroke-miterlimit:10;" d="M1701.39,583.63"></path>
		<g>
			<polyline style="fill:none;stroke:#000000;stroke-linecap:round;stroke-linejoin:round;stroke-miterlimit:10;" points="
				1622.43,465.46 1467.52,465.5 1467.51,398.91 1702.72,398.87 			"></polyline>
			
				<line style="fill:none;stroke:#000000;stroke-linecap:round;stroke-linejoin:round;stroke-miterlimit:10;" x1="1630.01" y1="457.94" x2="1467.52" y2="457.99"></line>
		</g>
		
			<line style="fill:none;stroke:#000000;stroke-linecap:round;stroke-linejoin:round;stroke-miterlimit:10;" x1="1555.1" y1="465.48" x2="1555.1" y2="399"></line>
		
			<line style="fill:none;stroke:#000000;stroke-linecap:round;stroke-linejoin:round;stroke-miterlimit:10;" x1="1622.45" y1="552.83" x2="1701.4" y2="552.83"></line>
		
			<line style="fill:none;stroke:#000000;stroke-linecap:round;stroke-linejoin:round;stroke-miterlimit:10;" x1="1622.45" y1="665.73" x2="1701.4" y2="665.73"></line>
	</g>
	<g>
		<g>
			<path style="fill:none;stroke:#000000;stroke-linecap:round;stroke-linejoin:round;stroke-miterlimit:10;" d="M286.69,594.22
				c0.45,0.92,0.84,1.87,1.17,2.85"></path>
			<path style="fill:none;stroke:#000000;stroke-linecap:round;stroke-linejoin:round;stroke-miterlimit:10;" d="M267.84,626.06
				c-1.61,0.07-3.25-0.04-4.9-0.33c-0.37-0.07-0.74-0.14-1.1-0.23"></path>
		</g>
		<g>
			<path style="fill:none;stroke:#000000;stroke-linecap:round;stroke-linejoin:round;stroke-miterlimit:10;" d="M266.02,623.7
				c-0.88-0.04-1.77-0.14-2.66-0.3"></path>
			<path style="fill:none;stroke:#000000;stroke-linecap:round;stroke-linejoin:round;stroke-miterlimit:10;" d="M284.81,595.77
				c0.37,0.81,0.69,1.65,0.95,2.51"></path>
		</g>
		<g>
			<path style="fill:none;stroke:#000000;stroke-linecap:round;stroke-linejoin:round;stroke-miterlimit:10;" d="M299.49,616
				c1.66-1.02,3.26-2.44,4.67-4.37c-1.91-12.04-14.2-14.31-14.2-14.31c-2.39-0.58-4.79,0.63-5.8,2.77"></path>
		</g>
		
			<line style="fill:none;stroke:#000000;stroke-linecap:round;stroke-linejoin:round;stroke-miterlimit:10;" x1="296.93" y1="609.5" x2="303.91" y2="611.65"></line>
		
			<line style="fill:none;stroke:#000000;stroke-linecap:round;stroke-linejoin:round;stroke-miterlimit:10;" x1="266.79" y1="600.23" x2="278.83" y2="603.93"></line>
		<g>
			<path style="fill:none;stroke:#000000;stroke-linecap:round;stroke-linejoin:round;stroke-miterlimit:10;" d="M256.19,604.93
				C256.19,604.93,256.19,604.93,256.19,604.93C256.2,604.93,256.2,604.93,256.19,604.93z"></path>
			<path style="fill:none;stroke:#000000;stroke-linecap:round;stroke-linejoin:round;stroke-miterlimit:10;" d="M245.57,592.49
				c-5.18,3.51-14.04,11.61-12.87,25.36c2.78,2.33,5.64,3.86,8.45,4.82"></path>
			<path style="fill:none;stroke:#000000;stroke-linecap:round;stroke-linejoin:round;stroke-miterlimit:10;" d="M256.87,605.28
				c1.81-0.95,3.06-2.61,3.68-4.5"></path>
			<path style="fill:none;stroke:#000000;stroke-linecap:round;stroke-linejoin:round;stroke-miterlimit:10;" d="M268.95,612.76
				c-0.03-1.18-0.33-2.37-0.91-3.48c-2.06-3.95-7.22-6.05-11.17-3.99c-0.81,0.42-0.49,0.25-0.4,0.2"></path>
			<path style="fill:none;stroke:#000000;stroke-linecap:round;stroke-linejoin:round;stroke-miterlimit:10;" d="M262.65,621.14
				c1.25-0.56,1.95-0.98,1.95-0.98"></path>
		</g>
		
			<line style="fill:none;stroke:#000000;stroke-linecap:round;stroke-linejoin:round;stroke-miterlimit:10;" x1="266.66" y1="600.23" x2="232.7" y2="617.85"></line>
		<g>
			<path style="fill:none;stroke:#000000;stroke-linecap:round;stroke-linejoin:round;stroke-miterlimit:10;" d="M280.14,613.91
				C280.14,613.91,280.14,613.91,280.14,613.91C280.13,613.9,280.13,613.9,280.14,613.91z"></path>
			<path style="fill:none;stroke:#000000;stroke-linecap:round;stroke-linejoin:round;stroke-miterlimit:10;" d="M279.22,614.76
				C279.22,614.76,279.22,614.76,279.22,614.76C279.21,614.75,279.21,614.75,279.22,614.76z"></path>
			<path style="fill:none;stroke:#000000;stroke-linecap:round;stroke-linejoin:round;stroke-miterlimit:10;" d="M291.7,602.64
				c-3.02-3.27-8.13-3.48-11.4-0.46c-3.27,3.02-3.94,8.55-0.91,11.83c0.62,0.67,0.37,0.41,0.3,0.33c0.23,0.25,0.42,0.46,0.42,0.46
				s-0.19-0.21-0.42-0.46c0.08,0.08,0,0-0.3-0.33c-2.6-2.8-7.05-3.04-10.33-1.15c-0.55,0.32-1.06,0.69-1.53,1.12
				c-3.27,3.02-3.48,8.13-0.46,11.4c0,0,0.21,0.25,0.61,0.68c2.73,2.89,14.36,13.75,30.18,7.96
				C305.93,616.45,291.7,602.64,291.7,602.64z"></path>
		</g>
		
			<line style="fill:none;stroke:#000000;stroke-linecap:round;stroke-linejoin:round;stroke-miterlimit:10;" x1="266.66" y1="600.23" x2="297.86" y2="634.02"></line>
		<g>
			<path style="fill:none;stroke:#000000;stroke-linecap:round;stroke-linejoin:round;stroke-miterlimit:10;" d="M281.72,596.62
				c1.63,0.15,3.29-0.48,4.41-1.84c0,0,8.44-9.22,2.71-19.97c-4.35-1.31-8.11-0.72-11.11,0.52"></path>
		</g>
		
			<line style="fill:none;stroke:#000000;stroke-linecap:round;stroke-linejoin:round;stroke-miterlimit:10;" x1="281.45" y1="583.28" x2="288.84" y2="574.8"></line>
		
			<line style="fill:none;stroke:#000000;stroke-linecap:round;stroke-linejoin:round;stroke-miterlimit:10;" x1="266.66" y1="600.23" x2="268.71" y2="597.88"></line>
		<g>
			<path style="fill:none;stroke:#000000;stroke-linecap:round;stroke-linejoin:round;stroke-miterlimit:10;" d="M265.52,592.34
				C265.52,592.35,265.52,592.35,265.52,592.34C265.52,592.36,265.52,592.36,265.52,592.34z"></path>
			<path style="fill:none;stroke:#000000;stroke-linecap:round;stroke-linejoin:round;stroke-miterlimit:10;" d="M266.77,592.27
				C266.77,592.27,266.77,592.26,266.77,592.27C266.77,592.28,266.77,592.28,266.77,592.27z"></path>
			<path style="fill:none;stroke:#000000;stroke-linecap:round;stroke-linejoin:round;stroke-miterlimit:10;" d="M258.02,601.36
				c4.45-0.29,8.44-4.17,8.15-8.61"></path>
			<path style="fill:none;stroke:#000000;stroke-linecap:round;stroke-linejoin:round;stroke-miterlimit:10;" d="M266.15,592.3
				c-0.01-0.11,0,0,0.03,0.44c0.3,4.45,4.75,7.78,9.2,7.49c4.45-0.29,7.82-4.13,7.53-8.57c0,0-0.2-19.83-18.49-26.1
				c-7.19,3.56-10.99,9.03-12.98,14.21"></path>
		</g>
		
			<line style="fill:none;stroke:#000000;stroke-linecap:round;stroke-linejoin:round;stroke-miterlimit:10;" x1="265.69" y1="585.24" x2="264.42" y2="565.57"></line>
		<g>
			<path style="fill:none;stroke:#000000;stroke-linecap:round;stroke-linejoin:round;stroke-miterlimit:10;" d="M258.22,593.21
				C258.22,593.22,258.22,593.22,258.22,593.21C258.23,593.22,258.23,593.22,258.22,593.21z"></path>
			<path style="fill:none;stroke:#000000;stroke-linecap:round;stroke-linejoin:round;stroke-miterlimit:10;" d="M258.75,592.63
				C258.75,592.62,258.75,592.62,258.75,592.63C258.75,592.63,258.75,592.63,258.75,592.63z"></path>
			<path style="fill:none;stroke:#000000;stroke-linecap:round;stroke-linejoin:round;stroke-miterlimit:10;" d="M251.71,601.03
				c2.11,1.86,5.32,1.66,7.18-0.45c1.86-2.11,1.92-5.61-0.19-7.47c-0.43-0.38-0.26-0.23-0.21-0.19c-0.16-0.14-0.29-0.26-0.29-0.26
				s0.13,0.12,0.29,0.26c-0.05-0.04,0,0,0.21,0.18c2.11,1.85,5.58,1.36,7.44-0.74c1.86-2.11,1.66-5.32-0.45-7.18
				c0,0-8.9-8.77-19.86-3.43c-1.47,4.31-1.02,8.09,0.12,11.14C247.86,597.99,251.71,601.03,251.71,601.03z"></path>
		</g>
		
			<line style="fill:none;stroke:#000000;stroke-linecap:round;stroke-linejoin:round;stroke-miterlimit:10;" x1="266.82" y1="600.22" x2="245.83" y2="581.75"></line>
		<g>
			<path style="fill:none;stroke:#000000;stroke-linecap:round;stroke-linejoin:round;stroke-miterlimit:10;" d="M253.71,619.54
				C253.71,619.54,253.71,619.54,253.71,619.54C253.71,619.53,253.71,619.54,253.71,619.54z"></path>
			<path style="fill:none;stroke:#000000;stroke-linecap:round;stroke-linejoin:round;stroke-miterlimit:10;" d="M253.06,619.09
				C253.06,619.09,253.06,619.09,253.06,619.09C253.07,619.08,253.07,619.08,253.06,619.09z"></path>
			<path style="fill:none;stroke:#000000;stroke-linecap:round;stroke-linejoin:round;stroke-miterlimit:10;" d="M262.17,625.19
				c1.62-2.29,1.08-5.46-1.22-7.09s-5.79-1.3-7.41,0.99c-0.33,0.47-0.21,0.28-0.16,0.23c-0.13,0.18-0.23,0.32-0.23,0.32
				s0.1-0.14,0.23-0.32c-0.04,0.06,0,0,0.16-0.23c1.62-2.3,0.75-5.69-1.54-7.31c-2.29-1.62-5.46-1.08-7.09,1.22
				c0,0-7.76,9.79-1.28,20.11C255.53,635.77,262.17,625.19,262.17,625.19z"></path>
		</g>
		
			<line style="fill:none;stroke:#000000;stroke-linecap:round;stroke-linejoin:round;stroke-miterlimit:10;" x1="266.6" y1="600.24" x2="243.64" y2="633.1"></line>
	</g>
	<g>
		<g>
			<path style="fill:none;stroke:#000000;stroke-linecap:round;stroke-linejoin:round;stroke-miterlimit:10;" d="M390.33,1080.72
				c0.72,0.25,1.44,0.49,2.17,0.7c-0.53,0.78-1.14,1.5-1.8,2.2c-0.5-0.53-1.03-1.03-1.56-1.53
				C389.55,1081.64,389.98,1081.2,390.33,1080.72z"></path>
			<path style="fill:none;stroke:#000000;stroke-linecap:round;stroke-linejoin:round;stroke-miterlimit:10;" d="M371.86,1087.79
				c0.62,0.11,1.26,0.14,1.9,0.19c0.05,0.69,0.11,1.38,0.2,2.06c-1-0.07-1.99-0.15-2.96-0.35
				C371.3,1089.07,371.58,1088.43,371.86,1087.79z"></path>
			<path style="fill:none;stroke:#000000;stroke-linecap:round;stroke-linejoin:round;stroke-miterlimit:10;" d="M363.17,1083.71
				c0.4,0.34,0.83,0.65,1.26,0.95c-0.38,0.58-0.76,1.17-1.11,1.77c-0.71-0.48-1.42-0.97-2.06-1.54
				C361.92,1084.51,362.55,1084.11,363.17,1083.71z"></path>
			<path style="fill:none;stroke:#000000;stroke-linecap:round;stroke-linejoin:round;stroke-miterlimit:10;" d="M358.56,1077.39
				c-0.66,0.32-1.31,0.66-1.95,1c-0.96-2.25-1.42-4.57-1.4-6.85c0.75,0.21,1.49,0.43,2.25,0.61
				C357.51,1073.9,357.86,1075.66,358.56,1077.39z"></path>
			<path style="fill:none;stroke:#000000;stroke-linecap:round;stroke-linejoin:round;stroke-miterlimit:10;" d="M359.27,1064.57
				c-0.71-0.22-1.43-0.4-2.15-0.59c0.57-1.12,1.26-2.18,2.07-3.18c0.47,0.53,0.94,1.07,1.43,1.58
				C360.1,1063.07,359.67,1063.82,359.27,1064.57z"></path>
			<path style="fill:none;stroke:#000000;stroke-linecap:round;stroke-linejoin:round;stroke-miterlimit:10;" d="M381.89,1086.97
				c0.07-0.03,0.14-0.03,0.21-0.06c0.21-0.08,0.38-0.2,0.58-0.28c0.43,0.57,0.87,1.13,1.32,1.69c-0.35,0.15-0.65,0.35-1.01,0.49
				c-0.22,0.08-0.46,0.11-0.68,0.18C382.2,1088.31,382.05,1087.64,381.89,1086.97z"></path>
			<path style="fill:none;stroke:#000000;stroke-linecap:round;stroke-linejoin:round;stroke-miterlimit:10;" d="M369.29,1056.34
				c-0.23,0.08-0.47,0.1-0.7,0.19c-0.57,0.21-1.07,0.52-1.6,0.77c-0.45-0.55-0.94-1.08-1.42-1.6c0.73-0.37,1.43-0.78,2.23-1.08
				c0.42-0.16,0.85-0.21,1.27-0.34C369.13,1054.97,369.19,1055.66,369.29,1056.34z"></path>
			<path style="fill:none;stroke:#000000;stroke-linecap:round;stroke-linejoin:round;stroke-miterlimit:10;" d="M395.33,1074.11
				c-0.74-0.19-1.48-0.39-2.23-0.55c0.22-1.72,0.18-3.48-0.23-5.24c0.69-0.33,1.36-0.71,2.03-1.07
				C395.53,1069.54,395.65,1071.85,395.33,1074.11z"></path>
			<path style="fill:none;stroke:#000000;stroke-linecap:round;stroke-linejoin:round;stroke-miterlimit:10;" d="M380.23,1056.01
				c-0.83-0.21-1.66-0.37-2.51-0.48c-0.06-0.7-0.16-1.4-0.25-2.09c1.29,0.12,2.55,0.35,3.78,0.7
				C380.89,1054.76,380.54,1055.38,380.23,1056.01z"></path>
			<path style="fill:none;stroke:#000000;stroke-linecap:round;stroke-linejoin:round;stroke-miterlimit:10;" d="M389.17,1061.38
				c-0.5-0.56-1.01-1.11-1.58-1.6c0.37-0.62,0.71-1.26,1.05-1.9c0.91,0.72,1.73,1.52,2.49,2.4
				C390.47,1060.64,389.81,1061,389.17,1061.38z"></path>
		</g>
		<path style="fill:none;stroke:#000000;stroke-linecap:round;stroke-linejoin:round;stroke-miterlimit:10;" d="M375.83,1073.12
			c1.19,4.09,3.13,8.11,5.63,11.82c2.14,7.44,2.18,15.47-0.45,22.57c-5.47-6.95-7.75-15.89-7.36-24.59
			c0.93-3.19,1.48-6.43,1.57-9.62c0.08-0.28,0.13-0.57,0.21-0.84c0.16,0.22,0.28,0.46,0.44,0.69
			C375.86,1073.13,375.84,1073.12,375.83,1073.12z"></path>
		<path style="fill:none;stroke:#000000;stroke-linecap:round;stroke-linejoin:round;stroke-miterlimit:10;" d="M358.28,1104.72
			c-0.34-12.07,6.9-24.22,16.97-31.85C375.07,1084.73,368.78,1097.48,358.28,1104.72z M400.39,1100.52
			c-2.81-11.74-12.86-22.29-24.56-27.41C379.19,1084.66,388.25,1095.76,400.39,1100.52z"></path>
		<path style="fill:none;stroke:#000000;stroke-linecap:round;stroke-linejoin:round;stroke-miterlimit:10;" d="M376.14,1072.75
			c-0.08,0.06-0.15,0.14-0.24,0.2c0.01-0.57,0.1-1.14,0.14-1.72c0.9-2.92,1.47-5.96,1.71-9.05c2.58-8.25,7.8-16.02,15.13-21.08
			c0.24,8.37-3.22,16.73-8.69,23.64C381.11,1067.13,378.37,1069.82,376.14,1072.75z"></path>
		<path style="fill:none;stroke:#000000;stroke-linecap:round;stroke-linejoin:round;stroke-miterlimit:10;" d="M375.24,1072.43
			c0.03,0.09,0.07,0.19,0.1,0.28c-11.71-5.11-21.75-15.67-24.56-27.41c8.42,3.3,15.29,9.67,19.87,17.1
			C371.73,1065.95,373.26,1069.36,375.24,1072.43z"></path>
		<path style="fill:none;stroke:#000000;stroke-linecap:round;stroke-linejoin:round;stroke-miterlimit:10;" d="M374.93,1072.5
			c0.24,0.18,0.51,0.34,0.75,0.53c-12.83,1.79-27.63-1.78-37.18-10.04c9.19-1.63,19.04,0.21,27.53,4.18
			C368.8,1069.28,371.79,1071.09,374.93,1072.5z"></path>
		<g>
			<path style="fill:none;stroke:#000000;stroke-linecap:round;stroke-linejoin:round;stroke-miterlimit:10;" d="M370.22,1073.45
				c1.62-0.04,3.21-0.16,4.78-0.35c-2.99,2.3-5.68,5.01-8.03,7.99c-7.02,5.44-15.84,9.19-24.81,9.76
				C348.16,1081.93,358.98,1075.81,370.22,1073.45z"></path>
			<path style="fill:none;stroke:#000000;stroke-linecap:round;stroke-linejoin:round;stroke-miterlimit:10;" d="M375.14,1072.65
				c0.09-0.01,0.18-0.03,0.26-0.04c-0.04,0.05-0.08,0.1-0.12,0.14C375.24,1072.72,375.19,1072.69,375.14,1072.65z"></path>
		</g>
		<path style="fill:none;stroke:#000000;stroke-linecap:round;stroke-linejoin:round;stroke-miterlimit:10;" d="M375.76,1073.21
			c7.23-9.84,20.12-17.39,33.24-18.23C402.08,1065.27,388.75,1071.84,375.76,1073.21z M409,1054.98
			c-6.92,10.29-20.25,16.86-33.24,18.23 M371.32,1037.73c-4.65,11.24-2.54,25.09,4.22,35.21
			C379.61,1061.59,378.65,1047.77,371.32,1037.73z"></path>
		<g>
			<path style="fill:none;stroke:#000000;stroke-linecap:round;stroke-linejoin:round;stroke-miterlimit:10;" d="M375.88,1073.07
				c-0.11-0.07-0.21-0.15-0.31-0.22c0.01-0.02,0.01-0.04,0.02-0.07c0.19-0.03,0.38-0.03,0.57-0.05
				C376.07,1072.85,375.96,1072.95,375.88,1073.07z"></path>
			<path style="fill:none;stroke:#000000;stroke-linecap:round;stroke-linejoin:round;stroke-miterlimit:10;" d="M380.95,1072.38
				c11.39-0.26,23.5,3.34,31.72,10.45c-9.19,1.63-19.04-0.21-27.52-4.18c-2.78-2.11-5.77-3.92-8.91-5.33
				c-0.07-0.05-0.14-0.1-0.21-0.15C377.66,1072.99,379.31,1072.72,380.95,1072.38z"></path>
		</g>
	</g>
	<g>
		<g>
			<g>
				<path style="fill:none;stroke:#000000;stroke-linecap:round;stroke-linejoin:round;stroke-miterlimit:10;" d="M1239.29,656.67
					l5.92-1.72c-0.22-0.44-0.42-0.9-0.56-1.4c-0.14-0.49-0.22-0.99-0.27-1.48l-5.92,1.72c-0.46,0.13-0.72,0.61-0.59,1.07l0.35,1.21
					C1238.35,656.54,1238.83,656.8,1239.29,656.67z"></path>
				
					<circle style="fill:none;stroke:#000000;stroke-linecap:round;stroke-linejoin:round;stroke-miterlimit:10;" cx="1252.73" cy="651.21" r="8.41"></circle>
			</g>
			<g>
				<path style="fill:none;stroke:#000000;stroke-linecap:round;stroke-linejoin:round;stroke-miterlimit:10;" d="M1278.65,626.57
					l1.72,5.92c0.44-0.22,0.9-0.42,1.4-0.56c0.49-0.14,0.99-0.22,1.48-0.27l-1.72-5.92c-0.13-0.46-0.61-0.72-1.07-0.59l-1.21,0.35
					C1278.78,625.63,1278.52,626.11,1278.65,626.57z"></path>
				
					<circle style="fill:none;stroke:#000000;stroke-linecap:round;stroke-linejoin:round;stroke-miterlimit:10;" cx="1284.1" cy="640.01" r="8.41"></circle>
			</g>
		</g>
	</g>
</g>
<g id="floor">
	<g>
		<path style="fill:none;stroke:#000000;stroke-linecap:round;stroke-linejoin:round;stroke-miterlimit:10;" d="M1247.24,1400.33
			c-78.02,0-142.19-63.12-142.19-141.14h142.19"></path>
		
			<rect x="1250.05" y="1247.97" transform="matrix(-2.063500e-06 1 -1 -2.063500e-06 2509.2439 0.7394)" style="fill:none;stroke:#000000;stroke-linecap:round;stroke-linejoin:round;stroke-miterlimit:10;" width="8.41" height="14.03"></rect>
		
			<rect x="1250.05" y="1397.52" transform="matrix(-2.063502e-06 1 -1 -2.063502e-06 2658.7869 150.2834)" style="fill:none;stroke:#000000;stroke-linecap:round;stroke-linejoin:round;stroke-miterlimit:10;" width="8.41" height="14.03"></rect>
	</g>
	<g>
		<path style="fill:none;stroke:#000000;stroke-linecap:round;stroke-linejoin:round;stroke-miterlimit:10;" d="M1390.6,1226.28
			c0-78.02,63.12-142.19,141.14-142.19l0,142.19"></path>
		
			<rect x="1531.74" y="1226.28" transform="matrix(-1 -2.063500e-06 2.063500e-06 -1 3071.8801 2466.5999)" style="fill:none;stroke:#000000;stroke-linecap:round;stroke-linejoin:round;stroke-miterlimit:10;" width="8.41" height="14.03"></rect>
		
			<rect x="1382.19" y="1226.28" transform="matrix(-1 -2.063501e-06 2.063501e-06 -1 2772.7935 2466.5989)" style="fill:none;stroke:#000000;stroke-linecap:round;stroke-linejoin:round;stroke-miterlimit:10;" width="8.41" height="14.03"></rect>
	</g>
	<g>
		<path style="fill:none;stroke:#000000;stroke-linecap:round;stroke-linejoin:round;stroke-miterlimit:10;" d="M737.8,1026.92
			c0,87.9,71.11,160.2,159.02,160.2l0-160.2"></path>
		
			<rect x="896.82" y="1011.11" transform="matrix(-1 2.063456e-06 -2.063456e-06 -1 1803.1055 2038.0273)" style="fill:none;stroke:#000000;stroke-linecap:round;stroke-linejoin:round;stroke-miterlimit:10;" width="9.47" height="15.81"></rect>
		
			<rect x="728.33" y="1011.11" transform="matrix(-1 2.063457e-06 -2.063457e-06 -1 1466.1403 2038.0284)" style="fill:none;stroke:#000000;stroke-linecap:round;stroke-linejoin:round;stroke-miterlimit:10;" width="9.47" height="15.81"></rect>
	</g>
	<g>
		<path style="fill:none;stroke:#000000;stroke-linecap:round;stroke-linejoin:round;stroke-miterlimit:10;" d="M1718.65,1075.23
			c99.51,0,181.35-80.5,181.35-180.01h-181.35"></path>
		
			<rect x="1704.34" y="880.92" transform="matrix(2.063229e-06 1 -1 2.063229e-06 2599.5696 -819.8337)" style="fill:none;stroke:#000000;stroke-linecap:round;stroke-linejoin:round;stroke-miterlimit:10;" width="10.72" height="17.9"></rect>
		
			<rect x="1704.34" y="1071.65" transform="matrix(2.063233e-06 1 -1 2.063233e-06 2790.2927 -629.1117)" style="fill:none;stroke:#000000;stroke-linecap:round;stroke-linejoin:round;stroke-miterlimit:10;" width="10.72" height="17.9"></rect>
	</g>
	
		<line style="fill:none;stroke:#000000;stroke-linecap:round;stroke-linejoin:round;stroke-miterlimit:10;stroke-dasharray:10,10;" x1="1333.29" y1="890.43" x2="1333.29" y2="1108.17"></line>
	
		<line style="fill:none;stroke:#000000;stroke-linecap:round;stroke-linejoin:round;stroke-miterlimit:10;stroke-dasharray:10,10;" x1="1629.9" y1="799.21" x2="1460.85" y2="799.21"></line>
	
		<line style="fill:none;stroke:#000000;stroke-linecap:round;stroke-linejoin:round;stroke-miterlimit:10;stroke-dasharray:10,10;" x1="916.16" y1="1237.04" x2="916.16" y2="1604.54"></line>
	<g>
		<polygon style="fill:none;stroke:#000000;stroke-linecap:round;stroke-linejoin:round;stroke-miterlimit:10;" points="
			133.68,522.54 201.61,424.47 277.2,476.9 209.5,574.95 		"></polygon>
		
			<rect x="156.21" y="497.86" transform="matrix(0.5661 -0.8244 0.8244 0.5661 -324.1688 397.8063)" style="fill:none;stroke:#000000;stroke-linecap:round;stroke-linejoin:round;stroke-miterlimit:10;" width="119.12" height="17.91"></rect>
		
			<line style="fill:none;stroke:#000000;stroke-linecap:round;stroke-linejoin:round;stroke-miterlimit:10;" x1="195.1" y1="552.72" x2="180.36" y2="542.61"></line>
		
			<line style="fill:none;stroke:#000000;stroke-linecap:round;stroke-linejoin:round;stroke-miterlimit:10;" x1="251.34" y1="470.78" x2="236.6" y2="460.67"></line>
	</g>
	<g>
		<polygon style="fill:none;stroke:#000000;stroke-linecap:round;stroke-linejoin:round;stroke-miterlimit:10;" points="
			197.48,942.8 137.65,713.75 227,691.06 286.84,920.11 		"></polygon>
		<polygon style="fill:none;stroke:#000000;stroke-linecap:round;stroke-linejoin:round;stroke-miterlimit:10;" points="
			205.97,696.51 265.81,925.56 248.47,930.05 188.63,701 		"></polygon>
		
			<line style="fill:none;stroke:#000000;stroke-linecap:round;stroke-linejoin:round;stroke-miterlimit:10;" x1="263.98" y1="918.49" x2="246.68" y2="922.98"></line>
		
			<line style="fill:none;stroke:#000000;stroke-linecap:round;stroke-linejoin:round;stroke-miterlimit:10;" x1="236.96" y1="815.49" x2="219.77" y2="819.94"></line>
		
			<line style="fill:none;stroke:#000000;stroke-linecap:round;stroke-linejoin:round;stroke-miterlimit:10;" x1="240.33" y1="828.17" x2="223.02" y2="832.65"></line>
		
			<line style="fill:none;stroke:#000000;stroke-linecap:round;stroke-linejoin:round;stroke-miterlimit:10;" x1="234.7" y1="806.8" x2="217.52" y2="811.25"></line>
		
			<line style="fill:none;stroke:#000000;stroke-linecap:round;stroke-linejoin:round;stroke-miterlimit:10;" x1="231.31" y1="794.01" x2="214.01" y2="798.5"></line>
		
			<line style="fill:none;stroke:#000000;stroke-linecap:round;stroke-linejoin:round;stroke-miterlimit:10;" x1="207.85" y1="703.77" x2="190.55" y2="708.26"></line>
		<g>
			<path style="fill:none;stroke:#000000;stroke-linecap:round;stroke-linejoin:round;stroke-miterlimit:10;" d="M298.69,756.05
				c-13.51,24.49-36.51,43.55-65.43,51.08"></path>
			
				<line style="fill:none;stroke:#000000;stroke-linecap:round;stroke-linejoin:round;stroke-miterlimit:10;" x1="207.34" y1="703.94" x2="298.69" y2="756.05"></line>
		</g>
		<g>
			<path style="fill:none;stroke:#000000;stroke-linecap:round;stroke-linejoin:round;stroke-miterlimit:10;" d="M318.49,828.43
				c-23.75-14.84-53.17-20.31-82.13-12.8"></path>
			
				<line style="fill:none;stroke:#000000;stroke-linecap:round;stroke-linejoin:round;stroke-miterlimit:10;" x1="263.96" y1="918.53" x2="318.49" y2="828.43"></line>
		</g>
		
			<line style="fill:none;stroke:#000000;stroke-linecap:round;stroke-linejoin:round;stroke-miterlimit:10;" x1="149.69" y1="710.69" x2="209.23" y2="939.82"></line>
	</g>
	<g>
		
			<rect x="102.87" y="1279.57" transform="matrix(-4.490471e-11 1 -1 -4.490471e-11 1606.8521 1043.5422)" style="fill:none;stroke:#000000;stroke-linecap:round;stroke-linejoin:round;stroke-miterlimit:10;" width="357.56" height="91.25"></rect>
		
			<rect x="117.28" y="1316.12" transform="matrix(-4.490648e-11 1 -1 -4.490648e-11 1622.7435 1027.7478)" style="fill:none;stroke:#000000;stroke-linecap:round;stroke-linejoin:round;stroke-miterlimit:10;" width="360.43" height="18.26"></rect>
		
			<rect x="290.86" y="1327.08" transform="matrix(-4.485319e-11 1 -1 -4.485319e-11 1633.7079 1038.7122)" style="fill:none;stroke:#000000;stroke-linecap:round;stroke-linejoin:round;stroke-miterlimit:10;" width="13.28" height="18.26"></rect>
		
			<rect x="290.86" y="1305.48" transform="matrix(-4.471641e-11 1 -1 -4.471641e-11 1612.1071 1017.1112)" style="fill:none;stroke:#000000;stroke-linecap:round;stroke-linejoin:round;stroke-miterlimit:10;" width="13.28" height="18.26"></rect>
		
			<rect x="294.31" y="1491.54" transform="matrix(-4.522179e-11 1 -1 -4.522179e-11 1798.1638 1202.6821)" style="fill:none;stroke:#000000;stroke-linecap:round;stroke-linejoin:round;stroke-miterlimit:10;" width="6.86" height="17.77"></rect>
		
			<rect x="294.14" y="1141.58" transform="matrix(-4.479013e-11 1 -1 -4.479013e-11 1448.2042 852.7225)" style="fill:none;stroke:#000000;stroke-linecap:round;stroke-linejoin:round;stroke-miterlimit:10;" width="7.21" height="17.77"></rect>
		<g>
			<path style="fill:none;stroke:#000000;stroke-linecap:round;stroke-linejoin:round;stroke-miterlimit:10;" d="M424.73,1380.94
				c-29.83-31.64-71.78-51.37-118.1-51.37"></path>
			
				<line style="fill:none;stroke:#000000;stroke-linecap:round;stroke-linejoin:round;stroke-miterlimit:10;" x1="306.79" y1="1496.77" x2="424.73" y2="1380.94"></line>
		</g>
		<g>
			<path style="fill:none;stroke:#000000;stroke-linecap:round;stroke-linejoin:round;stroke-miterlimit:10;" d="M424.73,1269.61
				c-29.83,31.64-71.78,51.37-118.1,51.37"></path>
			
				<line style="fill:none;stroke:#000000;stroke-linecap:round;stroke-linejoin:round;stroke-miterlimit:10;" x1="306.79" y1="1153.78" x2="424.73" y2="1269.61"></line>
		</g>
		
			<line style="fill:none;stroke:#000000;stroke-linecap:round;stroke-linejoin:round;stroke-miterlimit:10;" x1="247.88" y1="1145.03" x2="247.88" y2="1503.37"></line>
	</g>
	<g>
		<g>
			<path style="fill:none;stroke:#000000;stroke-linecap:round;stroke-linejoin:round;stroke-miterlimit:10;" d="M215.59,1435.07
				v-219.65c0-10.17-8.25-18.42-18.42-18.42h-33.49c-10.17,0-18.42,8.25-18.42,18.42v219.65c0,10.17,8.25,18.42,18.42,18.42h33.49
				C207.34,1453.49,215.59,1445.24,215.59,1435.07z"></path>
			<g>
				
					<circle style="fill:none;stroke:#000000;stroke-linecap:round;stroke-linejoin:round;stroke-miterlimit:10;" cx="180.62" cy="1241.59" r="2.42"></circle>
				<path style="fill:none;stroke:#000000;stroke-linecap:round;stroke-linejoin:round;stroke-miterlimit:10;" d="M178.35,1242.42
					c0,0-10.47,1.57-8.63,11.07c0.98,5.05,6.46,5.77,9.27,3.8c1.34-0.94,2.19-3.61,1.06-6.29c-2.2-5.24-0.21-7.12-0.21-7.12"></path>
				<path style="fill:none;stroke:#000000;stroke-linecap:round;stroke-linejoin:round;stroke-miterlimit:10;" d="M181.41,1243.88
					c0,0,1.36,10.5,10.9,8.85c5.07-0.88,5.89-6.34,3.98-9.19c-0.91-1.36-3.56-2.26-6.27-1.19c-5.28,2.1-7.12,0.07-7.12,0.07"></path>
				<path style="fill:none;stroke:#000000;stroke-linecap:round;stroke-linejoin:round;stroke-miterlimit:10;" d="M182.89,1240.77
					c0,0,10.48-1.51,8.7-11.02c-0.95-5.05-6.42-5.81-9.25-3.85c-1.34,0.93-2.21,3.59-1.1,6.29c2.17,5.25,0.17,7.12,0.17,7.12"></path>
				<path style="fill:none;stroke:#000000;stroke-linecap:round;stroke-linejoin:round;stroke-miterlimit:10;" d="M179.79,1239.32
					c0,0-1.54-10.47-11.05-8.66c-5.05,0.96-5.79,6.44-3.82,9.26c0.94,1.34,3.6,2.2,6.29,1.08c5.24-2.19,7.12-0.19,7.12-0.19"></path>
				
					<circle style="fill:none;stroke:#000000;stroke-linecap:round;stroke-linejoin:round;stroke-miterlimit:10;" cx="180.62" cy="1241.59" r="23.95"></circle>
				<path style="fill:none;stroke:#000000;stroke-linecap:round;stroke-linejoin:round;stroke-miterlimit:10;" d="M178.35,1242.42
					c0,0-10.47,1.57-8.63,11.07c0.98,5.05,6.46,5.77,9.27,3.8c1.34-0.94,2.19-3.61,1.06-6.29c-2.2-5.24-0.21-7.12-0.21-7.12"></path>
				<path style="fill:none;stroke:#000000;stroke-linecap:round;stroke-linejoin:round;stroke-miterlimit:10;" d="M181.41,1243.88
					c0,0,1.36,10.5,10.9,8.85c5.07-0.88,5.89-6.34,3.98-9.19c-0.91-1.36-3.56-2.26-6.27-1.19c-5.28,2.1-7.12,0.07-7.12,0.07"></path>
				<path style="fill:none;stroke:#000000;stroke-linecap:round;stroke-linejoin:round;stroke-miterlimit:10;" d="M182.89,1240.77
					c0,0,10.48-1.51,8.7-11.02c-0.95-5.05-6.42-5.81-9.25-3.85c-1.34,0.93-2.21,3.59-1.1,6.29c2.17,5.25,0.17,7.12,0.17,7.12"></path>
				<path style="fill:none;stroke:#000000;stroke-linecap:round;stroke-linejoin:round;stroke-miterlimit:10;" d="M179.79,1239.32
					c0,0-1.54-10.47-11.05-8.66c-5.05,0.96-5.79,6.44-3.82,9.26c0.94,1.34,3.6,2.2,6.29,1.08c5.24-2.19,7.12-0.19,7.12-0.19"></path>
			</g>
		</g>
		<polyline style="fill:none;stroke:#000000;stroke-linecap:round;stroke-linejoin:round;stroke-miterlimit:10;" points="
			235.77,1147.46 125.93,1147.46 125.93,1503.03 235.77,1503.03 		"></polyline>
	</g>
	<g>
		<g id="LWPOLYLINE_324_">
			
				<rect x="1342.55" y="466.02" style="fill:none;stroke:#000000;stroke-linecap:round;stroke-linejoin:round;stroke-miterlimit:10;" width="118.1" height="118.1"></rect>
		</g>
		<g>
			<g id="LWPOLYLINE_323_">
				<polyline style="fill:none;stroke:#000000;stroke-linecap:round;stroke-linejoin:round;stroke-miterlimit:10;" points="
					1374.62,560.2 1415.57,525.82 1387.83,525.75 1428.78,491.37 				"></polyline>
			</g>
			<g id="LWPOLYLINE_322_">
				<path style="fill:none;stroke:#000000;stroke-linecap:round;stroke-linejoin:round;stroke-miterlimit:10;" d="M1370.88,525.7
					c0.05-16.67,13.88-30.15,30.9-30.1c17.02,0.04,30.79,13.59,30.75,30.26c-0.05,16.67-13.88,30.15-30.91,30.11
					C1384.59,555.92,1370.83,542.37,1370.88,525.7z"></path>
			</g>
		</g>
	</g>
	<g>
		<g>
			<g id="LWPOLYLINE_433_">
				<path style="fill:none;stroke:#000000;stroke-linecap:round;stroke-linejoin:round;stroke-miterlimit:10;" d="M1431.33,1576.17
					l0.14-52.52c0.02-7.4,4.71-13.94,11.61-16.19c25.05-8.16,51.97-8.09,76.98,0.21c6.89,2.29,11.55,8.85,11.53,16.25l-0.13,52.52"></path>
			</g>
			<g id="LWPOLYLINE_432_">
				<path style="fill:none;stroke:#000000;stroke-linecap:round;stroke-linejoin:round;stroke-miterlimit:10;" d="M1508.13,1561.68
					c5.53,0.01,10.02-4.55,10.04-10.2l0.04-16.36c0.01-3.74-2.38-7.06-5.88-8.16c-20.07-6.33-41.53-6.39-61.62-0.16
					c-3.51,1.09-5.91,4.39-5.92,8.13l-0.04,16.36c-0.01,5.65,4.46,10.24,9.99,10.25"></path>
			</g>
			<g id="LWPOLYLINE_431_">
				<path style="fill:none;stroke:#000000;stroke-linecap:round;stroke-linejoin:round;stroke-miterlimit:10;" d="M1438.07,1551.27
					l0.07-27.59c0.01-4.44,2.82-8.36,6.96-9.71c23.72-7.73,49.21-7.66,72.89,0.2c4.13,1.38,6.93,5.31,6.92,9.75l-0.07,27.6
					c-0.01,5.65-4.51,10.21-10.04,10.2l-66.75-0.18C1442.52,1561.51,1438.05,1556.92,1438.07,1551.27z"></path>
			</g>
			<g id="LWPOLYLINE_430_">
				<path style="fill:none;stroke:#000000;stroke-linecap:round;stroke-linejoin:round;stroke-miterlimit:10;" d="M1481.44,1558.57
					c-2.48-0.01-4.49-2.06-4.48-4.6c0.01-2.53,2.03-4.58,4.51-4.57c2.48,0.01,4.48,2.06,4.48,4.6
					C1485.93,1556.53,1483.92,1558.57,1481.44,1558.57z"></path>
			</g>
		</g>
		<g>
			<g id="LWPOLYLINE_429_">
				
					<rect x="1552.01" y="1240.95" style="fill:none;stroke:#000000;stroke-linecap:round;stroke-linejoin:round;stroke-miterlimit:10;" width="136.25" height="335.61"></rect>
			</g>
			<g id="LWPOLYLINE_428_">
				<path style="fill:none;stroke:#000000;stroke-linecap:round;stroke-linejoin:round;stroke-miterlimit:10;" d="M1677.36,1286.43
					l0,219.75c0,32.27-25.62,58.42-57.22,58.42c-31.6,0-57.22-26.16-57.23-58.43l0-219.75c0-15.42,12.14-27.98,27.25-28.15
					l59.95,0.01c15.05,0,27.25,12.46,27.25,27.83"></path>
			</g>
			<g id="LWPOLYLINE_427_">
				<path style="fill:none;stroke:#000000;stroke-linecap:round;stroke-linejoin:round;stroke-miterlimit:10;" d="M1661.79,1355.9
					l0,150.27c0,23.5-18.65,42.53-41.66,42.53c-23,0-41.65-19.05-41.65-42.54l0-148.08c0.02-22.63,17.37-41.29,39.5-42.47
					C1640.98,1314.39,1660.59,1332.43,1661.79,1355.9z"></path>
			</g>
			<g id="LWPOLYLINE_426_">
				<path style="fill:none;stroke:#000000;stroke-linecap:round;stroke-linejoin:round;stroke-miterlimit:10;" d="M1620.14,1513.96
					c-4.21,0-7.63-3.49-7.63-7.79c0-4.31,3.42-7.79,7.63-7.79c4.22,0,7.63,3.49,7.63,7.79
					C1627.76,1510.47,1624.35,1513.96,1620.14,1513.96z"></path>
			</g>
		</g>
		<g>
			<g>
				<g id="LWPOLYLINE_425_">
					<path style="fill:none;stroke:#000000;stroke-linecap:round;stroke-linejoin:round;stroke-miterlimit:10;" d="M1370.66,1519.92
						l-0.01-55.1c0-19.17-15.87-34.71-35.45-34.71c-19.58,0-35.45,15.54-35.45,34.72l0.01,55.1c0,4.79,3.97,8.68,8.86,8.68l53.18,0
						C1366.7,1528.6,1370.66,1524.71,1370.66,1519.92z"></path>
				</g>
				<g id="LWPOLYLINE_424_">
					<path style="fill:none;stroke:#000000;stroke-linecap:round;stroke-linejoin:round;stroke-miterlimit:10;" d="M1306.85,1464.82
						l0.01,30.82c0,15.34,12.69,27.77,28.35,27.77c15.66,0,28.36-12.43,28.36-27.77l-0.01-30.82c0-15.34-12.69-27.77-28.35-27.77
						C1319.55,1437.05,1306.85,1449.49,1306.85,1464.82z"></path>
				</g>
				<g id="LWPOLYLINE_423_">
					<path style="fill:none;stroke:#000000;stroke-linecap:round;stroke-linejoin:round;stroke-miterlimit:10;" d="M1324.57,1476
						l0.01,22.53c0,5.75,4.76,10.41,10.63,10.41c5.87,0,10.63-4.66,10.63-10.41l-0.01-22.53c0-5.75-4.76-10.41-10.63-10.41
						C1329.33,1465.58,1324.57,1470.25,1324.57,1476z"></path>
				</g>
			</g>
		</g>
	</g>
	<g>
		<g id="LWPOLYLINE_242_">
			
				<rect x="1208.45" y="686.64" style="fill:none;stroke:#000000;stroke-linecap:round;stroke-linejoin:round;stroke-miterlimit:10;" width="118.5" height="118.5"></rect>
		</g>
		<g id="LWPOLYLINE_241_">
			
				<line style="fill:none;stroke:#000000;stroke-linecap:round;stroke-linejoin:round;stroke-miterlimit:10;" x1="1238.08" y1="736.02" x2="1238.08" y2="696.52"></line>
		</g>
		<g id="LWPOLYLINE_240_">
			
				<line style="fill:none;stroke:#000000;stroke-linecap:round;stroke-linejoin:round;stroke-miterlimit:10;" x1="1257.83" y1="716.27" x2="1218.33" y2="716.27"></line>
		</g>
		<g id="CIRCLE_209_">
			<path style="fill:none;stroke:#000000;stroke-linecap:round;stroke-linejoin:round;stroke-miterlimit:10;" d="M1222.28,716.27
				c0-8.73,7.07-15.8,15.8-15.8c8.73,0,15.8,7.07,15.8,15.8s-7.07,15.8-15.8,15.8C1229.36,732.07,1222.28,725,1222.28,716.27
				L1222.28,716.27z"></path>
		</g>
		<g id="LWPOLYLINE_239_">
			
				<line style="fill:none;stroke:#000000;stroke-linecap:round;stroke-linejoin:round;stroke-miterlimit:10;" x1="1238.08" y1="795.27" x2="1238.08" y2="755.77"></line>
		</g>
		<g id="LWPOLYLINE_238_">
			
				<line style="fill:none;stroke:#000000;stroke-linecap:round;stroke-linejoin:round;stroke-miterlimit:10;" x1="1257.83" y1="775.52" x2="1218.33" y2="775.52"></line>
		</g>
		<g id="CIRCLE_208_">
			<path style="fill:none;stroke:#000000;stroke-linecap:round;stroke-linejoin:round;stroke-miterlimit:10;" d="M1222.28,775.52
				c0-8.73,7.08-15.81,15.81-15.81s15.81,7.08,15.81,15.81c0,8.73-7.08,15.81-15.81,15.81S1222.28,784.25,1222.28,775.52
				L1222.28,775.52z"></path>
		</g>
		<g id="LWPOLYLINE_237_">
			
				<line style="fill:none;stroke:#000000;stroke-linecap:round;stroke-linejoin:round;stroke-miterlimit:10;" x1="1297.33" y1="795.27" x2="1297.33" y2="755.77"></line>
		</g>
		<g id="LWPOLYLINE_236_">
			
				<line style="fill:none;stroke:#000000;stroke-linecap:round;stroke-linejoin:round;stroke-miterlimit:10;" x1="1317.08" y1="775.52" x2="1277.58" y2="775.52"></line>
		</g>
		<g id="CIRCLE_207_">
			<path style="fill:none;stroke:#000000;stroke-linecap:round;stroke-linejoin:round;stroke-miterlimit:10;" d="M1281.53,775.52
				c0-8.73,7.08-15.81,15.81-15.81c8.73,0,15.81,7.08,15.81,15.81c0,8.73-7.08,15.81-15.81,15.81
				C1288.61,791.33,1281.53,784.25,1281.53,775.52L1281.53,775.52z"></path>
		</g>
		<g id="LWPOLYLINE_235_">
			
				<line style="fill:none;stroke:#000000;stroke-linecap:round;stroke-linejoin:round;stroke-miterlimit:10;" x1="1297.33" y1="736.02" x2="1297.33" y2="696.52"></line>
		</g>
		<g id="LWPOLYLINE_234_">
			
				<line style="fill:none;stroke:#000000;stroke-linecap:round;stroke-linejoin:round;stroke-miterlimit:10;" x1="1317.08" y1="716.27" x2="1277.58" y2="716.27"></line>
		</g>
		<g id="CIRCLE_206_">
			<path style="fill:none;stroke:#000000;stroke-linecap:round;stroke-linejoin:round;stroke-miterlimit:10;" d="M1281.53,716.27
				c0-8.73,7.07-15.8,15.8-15.8c8.73,0,15.8,7.07,15.8,15.8s-7.07,15.8-15.8,15.8C1288.6,732.07,1281.53,725,1281.53,716.27
				L1281.53,716.27z"></path>
		</g>
	</g>
	<g>
		<g id="LWPOLYLINE_233_">
			
				<rect x="1208.45" y="400.65" style="fill:none;stroke:#000000;stroke-linecap:round;stroke-linejoin:round;stroke-miterlimit:10;" width="118.5" height="118.5"></rect>
		</g>
		<g id="LWPOLYLINE_232_">
			<path style="fill:none;stroke:#000000;stroke-linecap:round;stroke-linejoin:round;stroke-miterlimit:10;" d="M1225.24,509.27
				l75,0c3.82,0,6.91-3.09,6.91-6.91c0,0,0-84.93,0-84.93c0-3.82-3.09-6.91-6.91-6.91c0,0-75,0-75,0c-3.82,0-6.91,3.09-6.91,6.91
				c0,0,0,84.93,0,84.93C1218.33,506.18,1221.42,509.27,1225.24,509.27z"></path>
		</g>
		<g id="LWPOLYLINE_231_">
			<path style="fill:none;stroke:#000000;stroke-linecap:round;stroke-linejoin:round;stroke-miterlimit:10;" d="M1281.02,479.65
				c0,3.83,3.1,6.93,6.93,6.93c3.83,0,6.93-3.1,6.93-6.93c0-3.83-3.1-6.93-6.93-6.93C1284.12,472.72,1281.02,475.82,1281.02,479.65z
				"></path>
		</g>
	</g>
	<g>
		
			<rect x="1458.04" y="1328.13" transform="matrix(-1.836970e-16 1 -1 -1.836970e-16 3073.7688 -372.0814)" style="fill-rule:evenodd;clip-rule:evenodd;" width="529.78" height="45.42"></rect>
		
			<rect x="1473.21" y="612.09" transform="matrix(-1.836970e-16 1 -1 -1.836970e-16 2357.7227 -1088.1277)" style="fill-rule:evenodd;clip-rule:evenodd;" width="499.42" height="45.42"></rect>
		
			<rect x="220.44" y="1518.02" transform="matrix(-1.836970e-16 1 -1 -1.836970e-16 1845.6448 1282.2216)" style="fill-rule:evenodd;clip-rule:evenodd;" width="122.53" height="91.83"></rect>
		
			<rect x="968" y="-376.9" transform="matrix(-1.836970e-16 1 -1 -1.836970e-16 1368.7401 -612.6908)" style="fill-rule:evenodd;clip-rule:evenodd;" width="45.42" height="1509.84"></rect>
		
			<rect x="968" y="867.23" transform="matrix(-1.836970e-16 1 -1 -1.836970e-16 2612.8657 631.4349)" style="fill-rule:evenodd;clip-rule:evenodd;" width="45.42" height="1509.84"></rect>
		<polygon style="fill-rule:evenodd;clip-rule:evenodd;" points="277.38,477.57 333.65,396.17 242.78,364.5 201.08,424.82 		"></polygon>
		<polygon style="fill-rule:evenodd;clip-rule:evenodd;" points="176.3,623.79 210.28,575.32 133.73,522.36 100,571.04 		"></polygon>
		<polygon style="fill-rule:evenodd;clip-rule:evenodd;" points="227.2,691.08 199.66,585.11 100,571.04 137.27,714.45 		"></polygon>
		
			<rect x="186.11" y="958.34" transform="matrix(0.2515 0.9678 -0.9678 0.2515 1168.0967 499.1261)" style="fill-rule:evenodd;clip-rule:evenodd;" width="150.45" height="92.92"></rect>
		
			<rect x="215.78" y="1035.33" transform="matrix(-6.848495e-11 1 -1 -6.848495e-11 1362.9546 800.1638)" style="fill-rule:evenodd;clip-rule:evenodd;" width="131.24" height="92.47"></rect>
		
			<rect x="1433.11" y="427.8" transform="matrix(-1.836970e-16 1 -1 -1.836970e-16 1896.5468 -1033.0544)" style="fill-rule:evenodd;clip-rule:evenodd;" width="63.39" height="7.9"></rect>
		
			<rect x="1401.56" y="398.72" transform="matrix(-1.836970e-16 1 -1 -1.836970e-16 1867.4652 -943.5459)" style="fill-rule:evenodd;clip-rule:evenodd;" width="7.9" height="126.48"></rect>
		
			<rect x="508.9" y="807.06" transform="matrix(-1.836970e-16 1 -1 -1.836970e-16 1535.6013 502.0104)" style="fill-rule:evenodd;clip-rule:evenodd;" width="15.8" height="423.49"></rect>
		
			<rect x="911.22" y="1005.97" transform="matrix(-1.836970e-16 1 -1 -1.836970e-16 1937.9303 99.6814)" style="fill-rule:evenodd;clip-rule:evenodd;" width="15.8" height="25.67"></rect>
		
			<rect x="817.4" y="1122.47" transform="matrix(-1.836970e-16 1 -1 -1.836970e-16 2054.4324 206.3089)" style="fill-rule:evenodd;clip-rule:evenodd;" width="213.33" height="15.8"></rect>
		
			<rect x="1078.95" y="1060.43" transform="matrix(-1.836970e-16 1 -1 -1.836970e-16 2318.2546 144.2657)" style="fill-rule:evenodd;clip-rule:evenodd;" width="16.1" height="341.66"></rect>
		
			<rect x="1306.61" y="1165.35" transform="matrix(-1.836970e-16 1 -1 -1.836970e-16 2547.5024 -83.4022)" style="fill-rule:evenodd;clip-rule:evenodd;" width="17.68" height="133.39"></rect>
		
			<rect x="1244" y="1233.09" transform="matrix(-1.836970e-16 1 -1 -1.836970e-16 2494.7649 -10.9153)" style="fill-rule:evenodd;clip-rule:evenodd;" width="17.68" height="17.68"></rect>
		
			<rect x="1151.66" y="1501.1" transform="matrix(-1.836970e-16 1 -1 -1.836970e-16 2762.7813 257.1011)" style="fill-rule:evenodd;clip-rule:evenodd;" width="202.37" height="17.68"></rect>
		
			<rect x="1613.27" y="1150.09" transform="matrix(-1.836970e-16 1 -1 -1.836970e-16 2854.1548 -390.0546)" style="fill-rule:evenodd;clip-rule:evenodd;" width="17.68" height="163.92"></rect>
		
			<rect x="1525.3" y="1398.63" transform="matrix(-1.836970e-16 1 -1 -1.836970e-16 3107.7275 -289.6385)" style="fill-rule:evenodd;clip-rule:evenodd;" width="346.76" height="20.84"></rect>
		
			<rect x="1459.47" y="1373.01" transform="matrix(-1.836970e-16 1 -1 -1.836970e-16 3075.2004 117.161)" style="fill-rule:evenodd;clip-rule:evenodd;" width="39.11" height="446.34"></rect>
		
			<rect x="1326.85" y="1457.24" transform="matrix(-1.836970e-16 1 -1 -1.836970e-16 2869.0156 201.3914)" style="fill-rule:evenodd;clip-rule:evenodd;" width="13.92" height="155.92"></rect>
		
			<rect x="1383.61" y="1555.2" transform="matrix(-1.836970e-16 1 -1 -1.836970e-16 2966.9724 157.1772)" style="fill-rule:evenodd;clip-rule:evenodd;" width="42.58" height="13.75"></rect>
		
			<rect x="1084.35" y="637.96" transform="matrix(-1.836970e-16 1 -1 -1.836970e-16 1980.7047 -688.9944)" style="fill-rule:evenodd;clip-rule:evenodd;" width="501.01" height="15.8"></rect>
		
			<rect x="1264.56" y="1156.24" transform="matrix(-1.836970e-16 1 -1 -1.836970e-16 2498.5991 -170.7048)" style="fill-rule:evenodd;clip-rule:evenodd;" width="140.19" height="15.4"></rect>
		
			<rect x="1390.84" y="733.53" transform="matrix(-1.836970e-16 1 -1 -1.836970e-16 2196.3513 -601.1264)" style="fill-rule:evenodd;clip-rule:evenodd;" width="15.8" height="128.17"></rect>
		
			<rect x="1665.08" y="745.45" transform="matrix(-1.836970e-16 1 -1 -1.836970e-16 2470.5916 -875.3666)" style="fill-rule:evenodd;clip-rule:evenodd;" width="15.8" height="104.32"></rect>
	</g>
</g>
</svg>
