<?xml version="1.0" encoding="utf-8"?>
<!-- Generator: Adobe Illustrator 24.1.2, SVG Export Plug-In . SVG Version: 6.00 Build 0)  -->
<svg version="1.1" id="Layer_1" xmlns="http://www.w3.org/2000/svg" xmlns:xlink="http://www.w3.org/1999/xlink" xmlns:a="http://ns.adobe.com/AdobeSVGViewerExtensions/3.0/" x="0px" y="0px" width="2000px" height="2000px" viewBox="0 0 2000 2000" style="enable-background:new 0 0 2000 2000;" xml:space="preserve">
<path id="background" style="fill-rule:evenodd;clip-rule:evenodd;fill:#FFFFFF;" d="M1782.42,921.31v212.95
	c0.09-0.13,0.23-0.23,0.41-0.23h54.17c0.17,0,0.32,0.08,0.41,0.22l62.54,91.47c0.09,0.13,0.11,0.29,0.06,0.44l-60.9,177.28
	c-0.07,0.2-0.26,0.34-0.47,0.34h-55.8c-0.06,0-0.13-0.01-0.18-0.04c-0.06,0.02-0.12,0.04-0.18,0.04h-0.04v85v15.64v25.46H614.55
	v-32.03v-9.07v-50.04H99.91v-12.84V1403V741.83h22.45h12.39h115.26v23.66h0h9.21c0.27-90.52,73.45-164.09,163.37-164.09
	c0.28,0,0.5,0.22,0.5,0.5v163.59h9.19v-23.66h216.04V513.1v-23.35v-19.63h1134.09v7.92v35.06v83.65h54.59c0.18,0,0.34,0.1,0.43,0.25
	l62.9,109.41c0.07,0.12,0.08,0.26,0.05,0.39l-63.14,212.93c-0.06,0.21-0.26,0.36-0.48,0.36h-54v0.76
	C1782.77,921.06,1782.62,921.24,1782.42,921.31z"></path>
<g id="c1">
	<path id="c1_path" style="fill:none;" d="M1162.98,897.2v-0.04l-175.24,0.07l0.06-284.01h382.21V897.2H1162.98z"></path>
	<text id="c1_text" transform="matrix(1 0 0 1 1167.2803 770.3171)" style="font-family: GraphikLCG-Regular; font-size: 40px; text-anchor: middle; text-align: center;"></text>
</g>
<g id="h1">
	<path id="h1_path" style="fill:none;" d="M623.68,777.57v220.49H218.61l-0.01-220.49l223.61,0v0H623.68z"></path>
	<text id="h1_text" transform="matrix(1 0 0 1 415.5713 894.5671)" style="font-family: GraphikLCG-Regular; font-size: 40px; text-anchor: middle; text-align: center;"></text>
</g>
<g id="s1">
	<path id="s1_path" style="fill:none;" d="M576.69,1326.98h-287.6v-225.36h287.6V1326.98z"></path>
	<text id="s1_text" transform="matrix(1 0 0 1 389.4668 1204.6404)" style="font-family: GraphikLCG-Regular; font-size: 40px; text-anchor: middle; text-align: center;"></text>
</g>
<g id="g1">
	<path id="g1_path" style="fill:none;" d="M918.13,1352.5H641.36v-254.82h276.77V1352.5z"></path>
	<text id="g1_text" transform="matrix(1 0 0 1 763.1494 1271.9294)" style="font-family: GraphikLCG-Regular; font-size: 40px; text-anchor: middle; text-align: center;"></text>
</g>
<g id="r1">
	<path id="r1_path" style="fill:none;" d="M1122.58,1126.4v0.03l153.41-0.07l-0.05,272.03h-334.6v-272H1122.58z"></path>
	
		<text id="r1_text" transform="matrix(1 0 0 1 1085.5508 1301.5017)" style="font-family: GraphikLCG-Regular; font-size: 40px; text-anchor: middle; text-align: center;"></text>
</g>
<path id="u7" style="fill:#FFFFFF;stroke:#FFFFFF;stroke-linecap:round;stroke-linejoin:round;stroke-miterlimit:10;" d="
	M1611.45,893.43c0,7.66-6.21,13.87-13.87,13.87s-13.87-6.21-13.87-13.87s6.21-13.87,13.87-13.87S1611.45,885.77,1611.45,893.43z"></path>
<path id="u1" style="fill:#FFFFFF;stroke:#FFFFFF;stroke-linecap:round;stroke-linejoin:round;stroke-miterlimit:10;" d="
	M1637.63,1278.09c0,7.66-6.21,13.87-13.87,13.87c-7.66,0-13.87-6.21-13.87-13.87s6.21-13.87,13.87-13.87
	C1631.42,1264.22,1637.63,1270.43,1637.63,1278.09z"></path>
<g id="mebel">
	<g>
		<g>
			
				<rect x="134.48" y="782.61" style="fill:none;stroke:#000000;stroke-linecap:round;stroke-linejoin:round;stroke-miterlimit:10;" width="113.99" height="280.83"></rect>
			
				<line style="fill:none;stroke:#000000;stroke-linecap:round;stroke-linejoin:round;stroke-miterlimit:10;" x1="241.6" y1="782.61" x2="241.68" y2="1063.42"></line>
		</g>
		
			<line style="fill:none;stroke:#000000;stroke-linecap:round;stroke-linejoin:round;stroke-miterlimit:10;" x1="248.47" y1="970.25" x2="134.69" y2="970.25"></line>
		
			<line style="fill:none;stroke:#000000;stroke-linecap:round;stroke-linejoin:round;stroke-miterlimit:10;" x1="248.47" y1="877.07" x2="134.48" y2="877.07"></line>
	</g>
	<g>
		<g>
			
				<rect x="649.45" y="1381.85" style="fill:none;stroke:#000000;stroke-linecap:round;stroke-linejoin:round;stroke-miterlimit:10;" width="270.39" height="107.97"></rect>
			
				<line style="fill:none;stroke:#000000;stroke-linecap:round;stroke-linejoin:round;stroke-miterlimit:10;" x1="649.45" y1="1388.72" x2="919.83" y2="1388.64"></line>
		</g>
		
			<line style="fill:none;stroke:#000000;stroke-linecap:round;stroke-linejoin:round;stroke-miterlimit:10;" x1="784.64" y1="1381.85" x2="784.64" y2="1489.61"></line>
	</g>
	<g>
		<g>
			
				<rect x="649.94" y="1014.72" style="fill:none;stroke:#000000;stroke-linecap:round;stroke-linejoin:round;stroke-miterlimit:10;" width="268.4" height="73.09"></rect>
			
				<line style="fill:none;stroke:#000000;stroke-linecap:round;stroke-linejoin:round;stroke-miterlimit:10;" x1="918.33" y1="1080.94" x2="649.95" y2="1081.01"></line>
		</g>
		
			<line style="fill:none;stroke:#000000;stroke-linecap:round;stroke-linejoin:round;stroke-miterlimit:10;" x1="784.14" y1="1087.81" x2="784.14" y2="1014.93"></line>
	</g>
	<g>
		
			<rect x="1377.05" y="779.41" transform="matrix(0.6252 0.7805 -0.7805 0.6252 1146.7814 -787.5168)" style="fill:none;stroke:#000000;stroke-linecap:round;stroke-linejoin:round;stroke-miterlimit:10;" width="32.48" height="41.52"></rect>
		
			<line style="fill:none;stroke:#000000;stroke-linecap:round;stroke-linejoin:round;stroke-miterlimit:10;" x1="1370.02" y1="794.84" x2="1373.28" y2="798.92"></line>
		
			<line style="fill:none;stroke:#000000;stroke-linecap:round;stroke-linejoin:round;stroke-miterlimit:10;" x1="1374.65" y1="791.14" x2="1377.91" y2="795.21"></line>
		
			<line style="fill:none;stroke:#000000;stroke-linecap:round;stroke-linejoin:round;stroke-miterlimit:10;" x1="1383.91" y1="783.72" x2="1387.17" y2="787.79"></line>
		<g>
			<path style="fill:#FFFFFF;stroke:#000000;stroke-linecap:round;stroke-linejoin:round;stroke-miterlimit:10;" d="M1329.7,789.52
				l-2.01,0.02c-2.71,0.03-4.88,2.26-4.85,4.97l0.03,2.45c0.03,2.71,2.26,4.88,4.97,4.85l2.01-0.02c1.66-0.02,2.99-1.38,2.97-3.04
				l-0.08-6.25C1332.72,790.83,1331.36,789.5,1329.7,789.52z"></path>
			
				<line style="fill:none;stroke:#000000;stroke-linecap:round;stroke-linejoin:round;stroke-miterlimit:10;" x1="1327.74" y1="789.55" x2="1327.89" y2="801.81"></line>
			<path style="fill:#FFFFFF;stroke:#000000;stroke-linecap:round;stroke-linejoin:round;stroke-miterlimit:10;" d="M1335.77,786.39
				l1.18-1.63c1.59-2.19,4.66-2.68,6.86-1.08l1.98,1.44c2.19,1.59,2.68,4.66,1.08,6.86l-1.18,1.63c-0.98,1.34-2.85,1.64-4.2,0.66
				l-5.06-3.68C1335.09,789.61,1334.79,787.73,1335.77,786.39z"></path>
			
				<line style="fill:none;stroke:#000000;stroke-linecap:round;stroke-linejoin:round;stroke-miterlimit:10;" x1="1336.92" y1="784.8" x2="1346.84" y2="792.01"></line>
			<path style="fill:none;stroke:#000000;stroke-linecap:round;stroke-linejoin:round;stroke-miterlimit:10;" d="M1327.94,801.8
				c0.11,1.51,0.52,3.03,1.26,4.46c2.93,5.66,9.89,7.88,15.56,4.95c5.66-2.93,7.88-9.89,4.95-15.56c-0.73-1.42-1.72-2.62-2.87-3.58"></path>
			<g>
				<path style="fill:#FFFFFF;stroke:#000000;stroke-linecap:round;stroke-linejoin:round;stroke-miterlimit:10;" d="
					M1348.96,794.21c-0.8,0.41-1.12,1.4-0.7,2.2c2.51,4.85,0.6,10.85-4.25,13.35c-4.85,2.51-10.85,0.6-13.35-4.25
					c-0.41-0.8-1.4-1.11-2.2-0.7c-0.8,0.41-1.11,1.4-0.7,2.2c3.34,6.45,11.3,8.99,17.76,5.65c6.46-3.34,8.99-11.3,5.65-17.76
					C1350.75,794.11,1349.77,793.8,1348.96,794.21z"></path>
			</g>
		</g>
		
			<line style="fill:none;stroke:#000000;stroke-linecap:round;stroke-linejoin:round;stroke-miterlimit:10;" x1="1379.28" y1="787.43" x2="1382.54" y2="791.5"></line>
		
			<line style="fill:none;stroke:#000000;stroke-linecap:round;stroke-linejoin:round;stroke-miterlimit:10;" x1="1388.54" y1="780.01" x2="1391.8" y2="784.08"></line>
		
			<line style="fill:none;stroke:#000000;stroke-linecap:round;stroke-linejoin:round;stroke-miterlimit:10;" x1="1393.17" y1="776.3" x2="1396.43" y2="780.38"></line>
		
			<rect x="1381.33" y="800.7" transform="matrix(0.6252 0.7805 -0.7805 0.6252 1148.0928 -781.8552)" style="fill:none;stroke:#000000;stroke-linecap:round;stroke-linejoin:round;stroke-miterlimit:10;" width="13.43" height="7.34"></rect>
		<path style="fill:none;stroke:#000000;stroke-linecap:round;stroke-linejoin:round;stroke-miterlimit:10;" d="M1440.74,775.57
			c0,8.28,0,37.37,0,45.65c0,8.47-7.3,12.81-16.36,14.22c-36.97,5.15-74.54,5.15-111.51,0c-9.06-1.41-16.36-5.74-16.36-14.22
			c0-8.28,0-37.37,0-45.65c0-8.48,7.3-12.81,16.36-14.22c36.97-5.15,74.54-5.15,111.51,0
			C1433.44,762.76,1440.74,767.09,1440.74,775.57z"></path>
	</g>
	<g>
		<g>
			<g>
				<path style="fill:none;stroke:#000000;stroke-linecap:round;stroke-linejoin:round;stroke-miterlimit:10;" d="M1366.47,554.4
					l-127.84,0c-1.19,0-2.15-0.96-2.15-2.15l0-37.01c0-1.19,0.96-2.15,2.15-2.15l127.84,0c1.19,0,2.15,0.96,2.15,2.15v37.01
					C1368.62,553.44,1367.66,554.4,1366.47,554.4z"></path>
				<path style="fill:none;stroke:#000000;stroke-linecap:round;stroke-linejoin:round;stroke-miterlimit:10;" d="M1366.47,554.4
					l-127.84,0c-1.19,0-2.15,0.96-2.15,2.15v116.65c0,1.19,0.96,2.15,2.15,2.15l127.84,0c1.19,0,2.15-0.96,2.15-2.15l0-116.65
					C1368.62,555.37,1367.66,554.4,1366.47,554.4z"></path>
				<path style="fill:none;stroke:#000000;stroke-linecap:round;stroke-linejoin:round;stroke-miterlimit:10;" d="M1498.6,554.4
					l-127.84,0c-1.19,0-2.15-0.96-2.15-2.15l0-37.01c0-1.19,0.96-2.15,2.15-2.15l127.84,0c1.19,0,2.15,0.96,2.15,2.15v37.01
					C1500.75,553.44,1499.79,554.4,1498.6,554.4z"></path>
				<path style="fill:none;stroke:#000000;stroke-linecap:round;stroke-linejoin:round;stroke-miterlimit:10;" d="M1498.6,554.4
					l-127.84,0c-1.19,0-2.15,0.96-2.15,2.15v116.65c0,1.19,0.96,2.15,2.15,2.15l127.84,0c1.19,0,2.15-0.96,2.15-2.15l0-116.65
					C1500.75,555.37,1499.79,554.4,1498.6,554.4z"></path>
				<path style="fill:none;stroke:#000000;stroke-linecap:round;stroke-linejoin:round;stroke-miterlimit:10;" d="M1641.61,554.4
					l-138.71,0c-1.19,0-2.15-0.96-2.15-2.15v-37.01c0-1.19,0.96-2.15,2.15-2.15l138.71,0c1.19,0,2.15,0.96,2.15,2.15v37.01
					C1643.76,553.44,1642.8,554.4,1641.61,554.4z"></path>
				<path style="fill:none;stroke:#000000;stroke-linecap:round;stroke-linejoin:round;stroke-miterlimit:10;" d="M1641.61,554.4
					l-138.71,0c-1.19,0-2.15,0.96-2.15,2.15l0,224.34c0,1.19,0.96,2.15,2.15,2.15l138.71,0c1.19,0,2.15-0.96,2.15-2.15l0-224.34
					C1643.76,555.37,1642.8,554.4,1641.61,554.4z"></path>
			</g>
		</g>
		<g>
			<g>
				<path style="fill:none;stroke:#000000;stroke-linecap:round;stroke-linejoin:round;stroke-miterlimit:10;" d="M1616.7,637.78
					c-0.16,0.04-0.32,0.06-0.49,0.08c-8.96,0.71-17.92,2.13-26.65,4.23c-8.72,2.1-17.35,4.91-25.64,8.35
					c-0.17,0.07-0.33,0.12-0.49,0.16c-0.84,0.2-1.74,0.02-2.45-0.5c-0.41-0.3-1.11-0.97-1.22-2.14l0-0.07
					c-1.42-18-5.65-35.59-12.57-52.27l-0.04-0.09c-0.42-1.08-0.1-1.99,0.13-2.43c0.4-0.79,1.12-1.36,1.96-1.56
					c0.16-0.04,0.32-0.06,0.49-0.08c8.96-0.71,17.92-2.13,26.65-4.23c8.72-2.1,17.35-4.91,25.64-8.35c0.17-0.07,0.33-0.12,0.48-0.16
					c0.84-0.2,1.74-0.02,2.46,0.5c0.41,0.3,1.11,0.97,1.22,2.14l0,0.07c1.42,18,5.65,35.59,12.57,52.27l0.04,0.09
					c0.42,1.08,0.1,1.99-0.12,2.44C1618.26,637,1617.55,637.57,1616.7,637.78z"></path>
			</g>
			<path style="fill:none;stroke:#000000;stroke-linecap:round;stroke-linejoin:round;stroke-miterlimit:10;" d="M1559.77,647.88
				l0,0.07c0.11,1.17,0.81,1.84,1.22,2.14c0.72,0.52,1.61,0.7,2.45,0.5c0.16-0.04,0.31-0.09,0.49-0.16
				c7.29-3.03,14.87-5.47,22.52-7.46c4.01,5.87,8.28,11.58,13.01,16.94l0.05,0.05c0.76,0.89,0.76,1.86,0.69,2.36
				c-0.13,0.88-0.62,1.65-1.35,2.11c-0.14,0.09-0.28,0.16-0.45,0.24c-8.24,3.57-16.25,7.81-23.82,12.62s-14.83,10.26-21.57,16.21
				c-0.13,0.11-0.26,0.21-0.39,0.3c-0.73,0.46-1.64,0.58-2.49,0.32c-0.48-0.15-1.35-0.55-1.84-1.6l-0.04-0.09
				c-7.18-16.57-16.87-31.84-28.83-45.38l-0.05-0.05c-0.76-0.89-0.76-1.86-0.69-2.37c0.13-0.88,0.62-1.65,1.35-2.11
				c0.14-0.09,0.28-0.16,0.45-0.24c8.24-3.57,16.25-7.81,23.82-12.62c3.87-2.46,7.66-5.1,11.34-7.87
				C1557.68,630.35,1559.07,639.06,1559.77,647.88z"></path>
			<path style="fill:none;stroke:#000000;stroke-linecap:round;stroke-linejoin:round;stroke-miterlimit:10;" d="M1559.77,647.88
				l0,0.07c0.11,1.17,0.81,1.84,1.22,2.14c0.72,0.52,1.61,0.7,2.45,0.5c0.16-0.04,0.31-0.09,0.49-0.16
				c8.29-3.44,16.91-6.25,25.64-8.35c0.24-0.06,0.49-0.09,0.73-0.15c3.72,5.36,7.64,10.58,11.97,15.48l0.01,0.01
				c3.04,3.44,1.83,8.85-2.38,10.68l-0.01,0.01c-16.18,7.01-31.16,16.52-44.38,28.19l-0.01,0.01c-3.44,3.04-8.85,1.83-10.68-2.38
				l-0.01-0.01c-7.01-16.18-16.52-31.16-28.19-44.38l-0.01-0.01c-3.04-3.44-1.83-8.85,2.38-10.68l0.02-0.01
				c12.7-5.5,24.63-12.6,35.58-21.02C1557.16,627.66,1558.96,637.69,1559.77,647.88z"></path>
		</g>
	</g>
	<g>
		<polygon style="fill:none;stroke:#000000;stroke-linecap:round;stroke-linejoin:round;stroke-miterlimit:10;" points="
			984.63,619.86 903.86,619.86 903.86,512.43 984.63,512.41 		"></polygon>
		<path style="fill:none;stroke:#000000;stroke-linecap:round;stroke-linejoin:round;stroke-miterlimit:10;" d="M945.59,543.07
			l-11.48,26.13c-0.62,1.6-0.97,3.36-0.97,5.2c0,7.42,5.57,13.43,12.45,13.43c6.87,0,12.45-6.01,12.45-13.43
			c0-1.85-0.35-3.6-0.97-5.2L945.59,543.07z"></path>
	</g>
	<g>
		<polygon style="fill:none;stroke:#000000;stroke-linecap:round;stroke-linejoin:round;stroke-miterlimit:10;" points="
			1086.66,512.34 1086.66,619.86 1194.16,619.86 1194.17,512.34 		"></polygon>
		<g>
			
				<line style="fill:none;stroke:#000000;stroke-linecap:round;stroke-linejoin:round;stroke-miterlimit:10;" x1="1166.3" y1="566.1" x2="1114.53" y2="566.1"></line>
			
				<line style="fill:none;stroke:#000000;stroke-linecap:round;stroke-linejoin:round;stroke-miterlimit:10;" x1="1140.41" y1="540.22" x2="1140.41" y2="591.98"></line>
			<polyline style="fill:none;stroke:#000000;stroke-linecap:round;stroke-linejoin:round;stroke-miterlimit:10;" points="
				1160.54,553.16 1153.36,566.1 1160.54,579.04 			"></polyline>
			<polyline style="fill:none;stroke:#000000;stroke-linecap:round;stroke-linejoin:round;stroke-miterlimit:10;" points="
				1153.36,586.23 1140.41,579.04 1127.47,586.23 			"></polyline>
			<polyline style="fill:none;stroke:#000000;stroke-linecap:round;stroke-linejoin:round;stroke-miterlimit:10;" points="
				1120.28,579.04 1127.47,566.1 1120.28,553.16 			"></polyline>
			<polyline style="fill:none;stroke:#000000;stroke-linecap:round;stroke-linejoin:round;stroke-miterlimit:10;" points="
				1127.47,545.97 1140.41,553.16 1153.36,545.97 			"></polyline>
		</g>
	</g>
	<g>
		<g>
			<g>
				<g>
					<path style="fill:none;stroke:#000000;stroke-linecap:round;stroke-linejoin:round;stroke-miterlimit:10;" d="M1009.6,895.2
						l20.47,15.55c12.81,9.73,30.88,8.27,41.97-3.38l1.26-1.32c11.08-11.64,11.64-29.75,1.3-42.06l-16.55-19.71L1009.6,895.2z"></path>
					<path style="fill:none;stroke:#000000;stroke-linecap:round;stroke-linejoin:round;stroke-miterlimit:10;" d="M1078.03,853.86
						l3.65,4.35c13.23,15.76,12.52,38.95-1.67,53.87l-1.61,1.7c-14.2,14.92-37.34,16.79-53.75,4.33l-4.49-3.41
						c-2.17-1.65-2.42-4.81-0.55-6.79l0,0c1.6-1.69,4.22-1.9,6.07-0.49l4.38,3.33c12.81,9.73,30.88,8.27,41.97-3.38l1.26-1.32
						c11.08-11.64,11.64-29.75,1.3-42.06l-3.56-4.25c-1.49-1.78-1.41-4.4,0.19-6.08l0,0
						C1073.11,851.68,1076.28,851.78,1078.03,853.86z"></path>
				</g>
				<g>
					<path style="fill:none;stroke:#000000;stroke-linecap:round;stroke-linejoin:round;stroke-miterlimit:10;" d="M945.01,736.77
						l-20.47-15.55c-12.81-9.73-30.88-8.27-41.97,3.38l-1.26,1.32c-11.08,11.65-11.64,29.75-1.3,42.06l16.55,19.71L945.01,736.77z"></path>
					<path style="fill:none;stroke:#000000;stroke-linecap:round;stroke-linejoin:round;stroke-miterlimit:10;" d="M876.58,778.11
						l-3.65-4.35c-13.24-15.76-12.52-38.95,1.67-53.87l1.61-1.7c14.2-14.92,37.34-16.79,53.74-4.33l4.49,3.41
						c2.17,1.65,2.42,4.81,0.55,6.79l0,0c-1.6,1.69-4.22,1.9-6.07,0.49l-4.38-3.33c-12.81-9.73-30.88-8.27-41.97,3.38l-1.26,1.32
						c-11.08,11.65-11.64,29.75-1.3,42.06l3.56,4.25c1.49,1.78,1.41,4.4-0.19,6.08l0,0C881.51,780.3,878.33,780.2,876.58,778.11z"></path>
				</g>
				<g>
					<path style="fill:none;stroke:#000000;stroke-linecap:round;stroke-linejoin:round;stroke-miterlimit:10;" d="M898.09,848.28
						l-15.55,20.47c-9.73,12.81-8.27,30.88,3.38,41.97l1.32,1.26c11.64,11.08,29.75,11.64,42.06,1.3l19.71-16.55L898.09,848.28z"></path>
					<path style="fill:none;stroke:#000000;stroke-linecap:round;stroke-linejoin:round;stroke-miterlimit:10;" d="M939.43,916.71
						l-4.35,3.65c-15.76,13.23-38.95,12.52-53.87-1.67l-1.7-1.61c-14.92-14.2-16.79-37.34-4.33-53.75l3.41-4.49
						c1.65-2.17,4.81-2.42,6.79-0.55l0,0c1.69,1.6,1.9,4.22,0.49,6.07l-3.33,4.38c-9.73,12.81-8.27,30.88,3.38,41.97l1.32,1.26
						c11.64,11.08,29.75,11.64,42.06,1.3l4.25-3.56c1.78-1.49,4.4-1.41,6.08,0.19l0,0C941.61,911.79,941.52,914.96,939.43,916.71z"></path>
				</g>
				<g>
					<path style="fill:none;stroke:#000000;stroke-linecap:round;stroke-linejoin:round;stroke-miterlimit:10;" d="M1056.52,783.7
						l15.55-20.47c9.73-12.81,8.27-30.88-3.38-41.97l-1.32-1.26c-11.65-11.08-29.75-11.64-42.06-1.3l-19.71,16.55L1056.52,783.7z"></path>
					<path style="fill:none;stroke:#000000;stroke-linecap:round;stroke-linejoin:round;stroke-miterlimit:10;" d="M1015.18,715.27
						l4.35-3.65c15.76-13.24,38.95-12.52,53.87,1.67l1.7,1.61c14.92,14.2,16.79,37.34,4.33,53.75l-3.41,4.49
						c-1.65,2.17-4.81,2.42-6.79,0.55l0,0c-1.69-1.6-1.9-4.22-0.49-6.07l3.33-4.38c9.73-12.81,8.27-30.88-3.38-41.97l-1.32-1.26
						c-11.65-11.08-29.75-11.64-42.06-1.3l-4.25,3.56c-1.78,1.49-4.4,1.41-6.08-0.19l0,0C1013,720.19,1013.1,717.02,1015.18,715.27z
						"></path>
				</g>
			</g>
			
				<circle style="fill:#FFFFFF;stroke:#000000;stroke-linecap:round;stroke-linejoin:round;stroke-miterlimit:10;" cx="976.99" cy="815.68" r="86.07"></circle>
		</g>
		<g>
			<g>
				<g>
					
						<circle style="fill:none;stroke:#000000;stroke-linecap:round;stroke-linejoin:round;stroke-miterlimit:10;" cx="940.81" cy="776.21" r="15.87"></circle>
				</g>
				<g>
					
						<circle style="fill:none;stroke:#000000;stroke-linecap:round;stroke-linejoin:round;stroke-miterlimit:10;" cx="940.81" cy="776.21" r="9.04"></circle>
				</g>
				<g>
					
						<ellipse transform="matrix(0.7263 -0.6873 0.6873 0.7263 -299.6798 855.8657)" style="fill:none;stroke:#000000;stroke-linecap:round;stroke-linejoin:round;stroke-miterlimit:10;" cx="924.99" cy="804.28" rx="2.46" ry="4"></ellipse>
					
						<line style="fill:none;stroke:#000000;stroke-linecap:round;stroke-linejoin:round;stroke-miterlimit:10;" x1="922.24" y1="801.38" x2="910.22" y2="788.68"></line>
				</g>
				<g>
					<path style="fill:none;stroke:#000000;stroke-linecap:round;stroke-linejoin:round;stroke-miterlimit:10;" d="M968.92,768.21
						l-2.75-2.9c-1.52-1.6-3.55-2.15-4.53-1.21c-0.99,0.93-0.56,2.99,0.96,4.59l2.75,2.9"></path>
					
						<line style="fill:none;stroke:#000000;stroke-linecap:round;stroke-linejoin:round;stroke-miterlimit:10;" x1="961.64" y1="764.1" x2="949.62" y2="751.4"></line>
				</g>
				
					<line style="fill:none;stroke:#000000;stroke-linecap:round;stroke-linejoin:round;stroke-miterlimit:10;" x1="967.13" y1="769.91" x2="961.64" y2="764.1"></line>
				<g>
					<path style="fill:none;stroke:#000000;stroke-linecap:round;stroke-linejoin:round;stroke-miterlimit:10;" d="M921.97,792.28
						l2.77-2.62l10.16,10.74l-0.24,0.23c-1.4,1.32-3.6,1.26-4.93-0.14L921.97,792.28z"></path>
					<path style="fill:none;stroke:#000000;stroke-linecap:round;stroke-linejoin:round;stroke-miterlimit:10;" d="M915.89,783.32
						l0.24-0.23c0.7-0.66,1.8-0.63,2.46,0.07l6.15,6.5l-2.77,2.62l-6.15-6.5C915.16,785.08,915.19,783.98,915.89,783.32z"></path>
				</g>
			</g>
			<g>
				<g>
					
						<circle style="fill:none;stroke:#000000;stroke-linecap:round;stroke-linejoin:round;stroke-miterlimit:10;" cx="1009.57" cy="856.39" r="15.87"></circle>
				</g>
				<g>
					
						<circle style="fill:none;stroke:#000000;stroke-linecap:round;stroke-linejoin:round;stroke-miterlimit:10;" cx="1009.57" cy="856.39" r="9.04"></circle>
				</g>
				<g>
					
						<ellipse transform="matrix(0.7264 -0.6873 0.6873 0.7264 -288.729 931.4238)" style="fill:none;stroke:#000000;stroke-linecap:round;stroke-linejoin:round;stroke-miterlimit:10;" cx="1025.39" cy="828.32" rx="2.46" ry="4"></ellipse>
					
						<line style="fill:none;stroke:#000000;stroke-linecap:round;stroke-linejoin:round;stroke-miterlimit:10;" x1="1028.14" y1="831.22" x2="1040.16" y2="843.93"></line>
				</g>
				<g>
					<path style="fill:none;stroke:#000000;stroke-linecap:round;stroke-linejoin:round;stroke-miterlimit:10;" d="M981.46,864.39
						l2.75,2.9c1.52,1.6,3.55,2.15,4.53,1.21s0.56-2.99-0.96-4.59l-2.75-2.9"></path>
					
						<line style="fill:none;stroke:#000000;stroke-linecap:round;stroke-linejoin:round;stroke-miterlimit:10;" x1="988.74" y1="868.5" x2="1000.76" y2="881.2"></line>
				</g>
				
					<line style="fill:none;stroke:#000000;stroke-linecap:round;stroke-linejoin:round;stroke-miterlimit:10;" x1="983.25" y1="862.7" x2="988.74" y2="868.5"></line>
				<g>
					<path style="fill:none;stroke:#000000;stroke-linecap:round;stroke-linejoin:round;stroke-miterlimit:10;" d="M1028.41,840.32
						l-2.77,2.62l-10.16-10.74l0.24-0.23c1.4-1.32,3.6-1.26,4.93,0.14L1028.41,840.32z"></path>
					<path style="fill:none;stroke:#000000;stroke-linecap:round;stroke-linejoin:round;stroke-miterlimit:10;" d="M1034.49,849.29
						l-0.24,0.23c-0.7,0.66-1.8,0.63-2.46-0.07l-6.15-6.5l2.77-2.62l6.15,6.5C1035.22,847.52,1035.19,848.63,1034.49,849.29z"></path>
				</g>
			</g>
			<g>
				<g>
					
						<circle style="fill:none;stroke:#000000;stroke-linecap:round;stroke-linejoin:round;stroke-miterlimit:10;" cx="936.59" cy="849.18" r="15.87"></circle>
				</g>
				<g>
					
						<circle style="fill:none;stroke:#000000;stroke-linecap:round;stroke-linejoin:round;stroke-miterlimit:10;" cx="936.59" cy="849.18" r="9.04"></circle>
				</g>
				<g>
					
						<ellipse transform="matrix(0.7264 -0.6873 0.6873 0.7264 -330.5641 899.6961)" style="fill:none;stroke:#000000;stroke-linecap:round;stroke-linejoin:round;stroke-miterlimit:10;" cx="964.66" cy="865.01" rx="4" ry="2.46"></ellipse>
					
						<line style="fill:none;stroke:#000000;stroke-linecap:round;stroke-linejoin:round;stroke-miterlimit:10;" x1="961.76" y1="867.76" x2="949.06" y2="879.77"></line>
				</g>
				<g>
					<path style="fill:none;stroke:#000000;stroke-linecap:round;stroke-linejoin:round;stroke-miterlimit:10;" d="M928.6,821.08
						l-2.9,2.75c-1.6,1.52-2.15,3.55-1.21,4.53c0.93,0.99,2.99,0.56,4.59-0.96l2.9-2.75"></path>
					
						<line style="fill:none;stroke:#000000;stroke-linecap:round;stroke-linejoin:round;stroke-miterlimit:10;" x1="924.48" y1="828.36" x2="911.78" y2="840.38"></line>
				</g>
				
					<line style="fill:none;stroke:#000000;stroke-linecap:round;stroke-linejoin:round;stroke-miterlimit:10;" x1="930.29" y1="822.87" x2="924.48" y2="828.36"></line>
				<g>
					<path style="fill:none;stroke:#000000;stroke-linecap:round;stroke-linejoin:round;stroke-miterlimit:10;" d="M952.66,868.03
						l-2.62-2.77l10.74-10.16l0.23,0.24c1.32,1.4,1.26,3.6-0.14,4.93L952.66,868.03z"></path>
					<path style="fill:none;stroke:#000000;stroke-linecap:round;stroke-linejoin:round;stroke-miterlimit:10;" d="M943.7,874.11
						l-0.23-0.24c-0.66-0.7-0.63-1.8,0.07-2.46l6.5-6.15l2.62,2.77l-6.5,6.15C945.46,874.84,944.36,874.81,943.7,874.11z"></path>
				</g>
			</g>
			<g>
				<g>
					
						<circle style="fill:none;stroke:#000000;stroke-linecap:round;stroke-linejoin:round;stroke-miterlimit:10;" cx="1014.13" cy="780.76" r="15.87"></circle>
				</g>
				<g>
					
						<circle style="fill:none;stroke:#000000;stroke-linecap:round;stroke-linejoin:round;stroke-miterlimit:10;" cx="1014.13" cy="780.76" r="9.04"></circle>
				</g>
				<g>
					
						<ellipse transform="matrix(0.7264 -0.6873 0.6873 0.7264 -255.9273 887.0145)" style="fill:none;stroke:#000000;stroke-linecap:round;stroke-linejoin:round;stroke-miterlimit:10;" cx="986.05" cy="764.93" rx="4" ry="2.46"></ellipse>
					
						<line style="fill:none;stroke:#000000;stroke-linecap:round;stroke-linejoin:round;stroke-miterlimit:10;" x1="988.96" y1="762.18" x2="1001.66" y2="750.17"></line>
				</g>
				<g>
					<path style="fill:none;stroke:#000000;stroke-linecap:round;stroke-linejoin:round;stroke-miterlimit:10;" d="M1022.12,808.86
						l2.9-2.75c1.6-1.52,2.15-3.55,1.21-4.53c-0.93-0.99-2.99-0.56-4.59,0.96l-2.9,2.75"></path>
					
						<line style="fill:none;stroke:#000000;stroke-linecap:round;stroke-linejoin:round;stroke-miterlimit:10;" x1="1026.23" y1="801.58" x2="1038.94" y2="789.56"></line>
				</g>
				
					<line style="fill:none;stroke:#000000;stroke-linecap:round;stroke-linejoin:round;stroke-miterlimit:10;" x1="1020.43" y1="807.07" x2="1026.23" y2="801.58"></line>
				<g>
					<path style="fill:none;stroke:#000000;stroke-linecap:round;stroke-linejoin:round;stroke-miterlimit:10;" d="M998.06,761.91
						l2.62,2.77l-10.74,10.16l-0.23-0.24c-1.32-1.4-1.26-3.6,0.14-4.93L998.06,761.91z"></path>
					<path style="fill:none;stroke:#000000;stroke-linecap:round;stroke-linejoin:round;stroke-miterlimit:10;" d="M1007.02,755.83
						l0.23,0.24c0.66,0.7,0.63,1.8-0.07,2.46l-6.5,6.15l-2.62-2.77l6.5-6.15C1005.26,755.1,1006.36,755.13,1007.02,755.83z"></path>
				</g>
			</g>
		</g>
		<g>
			<path style="fill:none;stroke:#000000;stroke-linecap:round;stroke-linejoin:round;stroke-miterlimit:10;" d="M998.34,816.12
				l-25.91,21.04c-4.57,3.71-11.27,3.01-14.98-1.55l-3.36-4.14c-3.71-4.57-3.01-11.27,1.55-14.98l25.91-21.04
				c4.57-3.71,11.27-3.01,14.98,1.55l3.36,4.14C1003.6,805.71,1002.91,812.41,998.34,816.12z"></path>
			
				<circle style="fill:none;stroke:#000000;stroke-linecap:round;stroke-linejoin:round;stroke-miterlimit:10;" cx="962.92" cy="824.52" r="5.01"></circle>
			
				<circle style="fill:none;stroke:#000000;stroke-linecap:round;stroke-linejoin:round;stroke-miterlimit:10;" cx="974.3" cy="824.94" r="5.01"></circle>
			
				<circle style="fill:none;stroke:#000000;stroke-linecap:round;stroke-linejoin:round;stroke-miterlimit:10;" cx="970.62" cy="814.22" r="5.01"></circle>
			<path style="fill:none;stroke:#000000;stroke-linecap:round;stroke-linejoin:round;stroke-miterlimit:10;" d="M982.36,797.84
				l-1.01,0.53l2.21,3.81c1.82,8.61-3.83,12.96-6.74,15.65c-0.67,0.62-0.1,1.75,0.8,1.58c3.19-0.59,7.9-2.22,9.9-6.69
				c2.28-5.12-0.92-9.12-2.85-10.94L982.36,797.84z"></path>
			<path style="fill:none;stroke:#000000;stroke-linecap:round;stroke-linejoin:round;stroke-miterlimit:10;" d="M992.28,802.48
				l-1.12,0.21l1,4.29c-0.77,8.77-7.45,11.28-11.01,13.01c-0.82,0.4-0.61,1.64,0.3,1.74c3.22,0.36,8.21,0.18,11.42-3.52
				c3.68-4.23,1.78-8.99,0.46-11.3L992.28,802.48z"></path>
		</g>
	</g>
	<g>
		<g>
			<g>
				
					<rect x="1388.32" y="893.79" transform="matrix(1.985566e-06 1 -1 1.985566e-06 2378.7937 -408.3794)" style="fill:none;stroke:#000000;stroke-linecap:round;stroke-linejoin:round;stroke-miterlimit:10;" width="10.53" height="182.85"></rect>
				<polygon style="fill:none;stroke:#000000;stroke-linecap:round;stroke-linejoin:round;stroke-miterlimit:10;" points="
					1465.99,1001 1485.01,990.47 1302.16,990.47 1321.18,1001 				"></polygon>
			</g>
		</g>
		<g>
			
				<rect x="1367.49" y="840.99" transform="matrix(-1.754458e-06 -1 1 -1.754458e-06 418.5772 2368.6008)" style="fill:none;stroke:#000000;stroke-linecap:round;stroke-linejoin:round;stroke-miterlimit:10;" width="52.2" height="268.04"></rect>
		</g>
	</g>
	<g>
		<g>
			
				<rect x="1388.23" y="939.6" transform="matrix(-1.985569e-06 -1 1 -1.985569e-06 362.4734 2424.5266)" style="fill:none;stroke:#000000;stroke-linecap:round;stroke-linejoin:round;stroke-miterlimit:10;" width="10.53" height="182.85"></rect>
			<polygon style="fill:none;stroke:#000000;stroke-linecap:round;stroke-linejoin:round;stroke-miterlimit:10;" points="
				1321.09,1015.23 1302.07,1025.76 1484.92,1025.76 1465.9,1015.23 			"></polygon>
		</g>
	</g>
	<g>
		<g>
			<g>
				<g>
					<g>
						<g>
							<g>
								<g>
									<g>
										
											<rect x="1254.72" y="1477.77" transform="matrix(-1 3.375001e-06 -3.375001e-06 -1 2787.0002 2966.8015)" style="fill:none;stroke:#000000;stroke-linecap:round;stroke-linejoin:round;stroke-miterlimit:10;" width="277.55" height="11.26"></rect>
										
											<rect x="1254.72" y="1114.63" transform="matrix(-1 3.375001e-06 -3.375001e-06 -1 2786.9983 2592.3967)" style="fill:none;stroke:#000000;stroke-linecap:round;stroke-linejoin:round;stroke-miterlimit:10;" width="277.55" height="363.14"></rect>
										<path style="fill:none;stroke:#000000;stroke-linecap:round;stroke-linejoin:round;stroke-miterlimit:10;" d="
											M1398.36,1419.85h-9.55l0,27.73c0,8.29-6.72,15.01-15.01,15.01l-83.24,0c-8.29,0-15.01-6.72-15.01-15.01l0-27.73l-9.55,0
											l0,48.54c0,2.07,1.68,3.75,3.75,3.75l247.52,0c2.07,0,3.75-1.68,3.75-3.75l0-48.54h-9.55l0,27.73
											c0,8.29-6.72,15.01-15.01,15.01l-83.07,0c-8.29,0-15.01-6.72-15.01-15.01L1398.36,1419.85z"></path>
										<path style="fill:none;stroke:#000000;stroke-linecap:round;stroke-linejoin:round;stroke-miterlimit:10;" d="
											M1518.42,1124.01l-249.84,0c-1.43,0-2.59,1.16-2.59,2.59l0,293.24l255.03,0l0-293.24
											C1521.01,1125.17,1519.85,1124.01,1518.42,1124.01z"></path>
									</g>
								</g>
								
									<rect x="1184.88" y="1419.19" transform="matrix(1.005445e-06 1 -1 1.005445e-06 2673.9141 227.9762)" style="fill:none;stroke:#000000;stroke-linecap:round;stroke-linejoin:round;stroke-miterlimit:10;" width="76.17" height="63.51"></rect>
								
									<rect x="1525.94" y="1419.19" transform="matrix(1.005445e-06 1 -1 1.005445e-06 3014.9712 -113.0813)" style="fill:none;stroke:#000000;stroke-linecap:round;stroke-linejoin:round;stroke-miterlimit:10;" width="76.17" height="63.51"></rect>
							</g>
						</g>
					</g>
					<g>
						<g>
							
								<circle style="fill:#FFFFFF;stroke:#000000;stroke-linecap:round;stroke-linejoin:round;stroke-miterlimit:10;" cx="1222.97" cy="1450.95" r="22.66"></circle>
							
								<circle style="fill:#FFFFFF;stroke:#000000;stroke-linecap:round;stroke-linejoin:round;stroke-miterlimit:10;" cx="1222.97" cy="1450.95" r="8.08"></circle>
						</g>
						
							<line style="fill:#FFFFFF;stroke:#000000;stroke-linecap:round;stroke-linejoin:round;stroke-miterlimit:10;" x1="1231.05" y1="1450.95" x2="1214.89" y2="1450.94"></line>
						
							<line style="fill:#FFFFFF;stroke:#000000;stroke-linecap:round;stroke-linejoin:round;stroke-miterlimit:10;" x1="1222.97" y1="1459.03" x2="1222.97" y2="1442.86"></line>
					</g>
					<g>
						<g>
							
								<circle style="fill:#FFFFFF;stroke:#000000;stroke-linecap:round;stroke-linejoin:round;stroke-miterlimit:10;" cx="1564.03" cy="1450.95" r="22.66"></circle>
							
								<circle style="fill:#FFFFFF;stroke:#000000;stroke-linecap:round;stroke-linejoin:round;stroke-miterlimit:10;" cx="1564.03" cy="1450.95" r="8.08"></circle>
						</g>
						
							<line style="fill:#FFFFFF;stroke:#000000;stroke-linecap:round;stroke-linejoin:round;stroke-miterlimit:10;" x1="1572.11" y1="1450.95" x2="1555.94" y2="1450.94"></line>
						
							<line style="fill:#FFFFFF;stroke:#000000;stroke-linecap:round;stroke-linejoin:round;stroke-miterlimit:10;" x1="1564.02" y1="1459.03" x2="1564.03" y2="1442.86"></line>
					</g>
				</g>
			</g>
		</g>
		<g>
			<path style="fill:none;stroke:#000000;stroke-linecap:round;stroke-linejoin:round;stroke-miterlimit:10;" d="M1365.19,1208.7
				c0.72,0.47,1.44,1,2.16,1.6c9.97,8.29,12.74,23.06,6.11,33.78c-0.77,1.24-0.33,2.87,0.94,3.59l0,0c1.18,0.66,2.68,0.3,3.42-0.84
				c7.48-11.46,5.25-27.03-5.49-35.89c-4.67-3.85-10.24-5.99-15.86-6.29l0,0c-8.27-0.42-16.63,2.93-22.33,9.79
				c-3.33,4-5.32,8.68-6.01,13.48c-0.69,4.8-0.25,9.96,1.43,14.7"></path>
			<path style="fill:none;stroke:#000000;stroke-linecap:round;stroke-linejoin:round;stroke-miterlimit:10;" d="M1347.51,1247.3
				l1.04,2.96c0.55,1.56-0.37,3.26-1.98,3.66l0,0c-1.44,0.36-2.91-0.47-3.36-1.88l-0.16-0.5"></path>
			<path style="fill:none;stroke:#000000;stroke-linecap:round;stroke-linejoin:round;stroke-miterlimit:10;" d="M1345.7,1247.03"></path>
			<path style="fill:none;stroke:#000000;stroke-linecap:round;stroke-linejoin:round;stroke-miterlimit:10;" d="M1342.76,1250.06"></path>
			<path style="fill:none;stroke:#000000;stroke-linecap:round;stroke-linejoin:round;stroke-miterlimit:10;" d="M1345.48,1228.5
				c4.73,2.8,11.25,1.69,14.61-2.45c-3.62,1.25-7.8,0.6-10.88-2.17c-0.92-0.83-1.67-1.78-2.24-2.82"></path>
			<path style="fill:none;stroke:#000000;stroke-linecap:round;stroke-linejoin:round;stroke-miterlimit:10;" d="M1333.91,1236.65"></path>
			<path style="fill:none;stroke:#000000;stroke-linecap:round;stroke-linejoin:round;stroke-miterlimit:10;" d="M1337.16,1225.45
				l7.58,2.73c-1.2-0.51,2.21,0.94,4.58,1.96c1.41,0.61,2.04,2.32,2.21,3.85l1.64,12.55c0.07,0.65-0.09,1.27-0.41,1.78
				c-0.43,0.67-1.15,1.15-2,1.25c-1.5,0.17-2.85-0.91-3.02-2.41"></path>
			<path style="fill:none;stroke:#000000;stroke-linecap:round;stroke-linejoin:round;stroke-miterlimit:10;" d="M1330.79,1246.92
				c1.01,2.52,3.13,4.46,5.73,5.26l4.03,5.98c0.22,0.32,0.71,0.23,0.79-0.15l1.36-6.16c1.3-0.56,2.45-1.41,3.34-2.48
				c0.09-0.1,3.44-4.85,3.51-4.97c0.26-0.44,0.44-0.94,0.52-1.47c0.3-2.16-1.21-4.15-3.36-4.45c-0.05-0.01-0.09-0.01-0.14-0.01
				c-2.12-3.07-6.09-4.75-10.22-3.47c-3.02,0.93-5.38,3.53-6.01,6.64"></path>
			
				<line style="fill:none;stroke:#000000;stroke-linecap:round;stroke-linejoin:round;stroke-miterlimit:10;" x1="1344.39" y1="1241.32" x2="1342" y2="1239.9"></line>
			<polygon style="fill:none;stroke:#000000;stroke-linecap:round;stroke-linejoin:round;stroke-miterlimit:10;" points="
				1346.77,1241.2 1348.93,1241.76 1348.37,1243.92 			"></polygon>
			<path style="fill:none;stroke:#000000;stroke-linecap:round;stroke-linejoin:round;stroke-miterlimit:10;" d="M1334.27,1239.08
				c-2.32,1.31-5.29,3.77-7.05,6.16c-0.29,0.4,0.02,0.94,0.5,1.07c0.98,0.26,4.65,0.91,7.83,0.62c0,0-0.47,0.07,0,0"></path>
			<path style="fill:none;stroke:#000000;stroke-linecap:round;stroke-linejoin:round;stroke-miterlimit:10;" d="M1368.93,1230.44
				l-3.02-9.04c-0.28,0.46-0.6,0.91-0.96,1.34c-0.69,0.83-1.5,1.49-2.36,2.06l3.65,6.98c0.67,1.27,2.21,1.8,3.52,1.2v0
				c0.4-0.18,0.7-0.47,0.96-0.79C1369.91,1231.91,1369.22,1231.3,1368.93,1230.44z"></path>
			<path style="fill:none;stroke:#000000;stroke-linecap:round;stroke-linejoin:round;stroke-miterlimit:10;" d="M1346.97,1221.06
				c0.57,1.04,1.32,1.99,2.24,2.82c4.65,4.17,11.79,3.62,15.75-1.14c0.36-0.43,0.67-0.88,0.96-1.34l3.02,9.04
				c0.44,1.31,1.77,2.14,3.12,1.86c1.56-0.33,2.48-1.91,2.03-3.41l-3.99-13.3c-0.11-0.37-0.37-0.67-0.72-0.82l-2.06-0.94
				c-0.43-2.46-1.29-5.98-6.61-8.6"></path>
		</g>
	</g>
	
		<rect x="984.63" y="512.34" style="fill:none;stroke:#000000;stroke-linecap:round;stroke-linejoin:round;stroke-miterlimit:10;" width="102.03" height="107.51"></rect>
	
		<rect x="689.43" y="512.34" style="fill:none;stroke:#000000;stroke-linecap:round;stroke-linejoin:round;stroke-miterlimit:10;" width="107.22" height="270.59"></rect>
	<g>
		<g>
			<path style="fill:none;stroke:#000000;stroke-linecap:round;stroke-linejoin:round;stroke-miterlimit:10;" d="M1690.57,1050.09
				c0.22-0.65,0.44-1.3,0.63-1.96c0.7,0.48,1.35,1.04,1.99,1.63c-0.47,0.46-0.93,0.93-1.38,1.41
				C1691.4,1050.8,1691.01,1050.41,1690.57,1050.09z"></path>
			<path style="fill:none;stroke:#000000;stroke-linecap:round;stroke-linejoin:round;stroke-miterlimit:10;" d="M1696.97,1066.8
				c0.1-0.56,0.13-1.14,0.18-1.72c0.62-0.05,1.25-0.1,1.87-0.18c-0.06,0.9-0.13,1.8-0.31,2.68
				C1698.13,1067.31,1697.55,1067.06,1696.97,1066.8z"></path>
			<path style="fill:none;stroke:#000000;stroke-linecap:round;stroke-linejoin:round;stroke-miterlimit:10;" d="M1693.28,1074.66
				c0.31-0.36,0.58-0.75,0.86-1.14c0.53,0.34,1.06,0.69,1.6,1c-0.44,0.64-0.88,1.28-1.4,1.86
				C1694,1075.8,1693.64,1075.23,1693.28,1074.66z"></path>
			<path style="fill:none;stroke:#000000;stroke-linecap:round;stroke-linejoin:round;stroke-miterlimit:10;" d="M1687.56,1078.84
				c0.29,0.6,0.6,1.18,0.91,1.77c-2.04,0.87-4.13,1.29-6.2,1.26c0.19-0.68,0.39-1.35,0.55-2.04
				C1684.4,1079.79,1686,1079.47,1687.56,1078.84z"></path>
			<path style="fill:none;stroke:#000000;stroke-linecap:round;stroke-linejoin:round;stroke-miterlimit:10;" d="M1675.96,1078.2
				c-0.2,0.64-0.36,1.29-0.53,1.94c-1.01-0.51-1.97-1.14-2.88-1.87c0.48-0.42,0.96-0.85,1.43-1.29
				C1674.61,1077.45,1675.28,1077.84,1675.96,1078.2z"></path>
			<path style="fill:none;stroke:#000000;stroke-linecap:round;stroke-linejoin:round;stroke-miterlimit:10;" d="M1696.22,1057.73
				c-0.02-0.06-0.03-0.13-0.05-0.19c-0.07-0.19-0.18-0.34-0.25-0.53c0.52-0.39,1.03-0.78,1.53-1.19c0.14,0.31,0.32,0.59,0.44,0.91
				c0.08,0.2,0.1,0.41,0.17,0.62C1697.44,1057.45,1696.83,1057.59,1696.22,1057.73z"></path>
			<path style="fill:none;stroke:#000000;stroke-linecap:round;stroke-linejoin:round;stroke-miterlimit:10;" d="M1668.51,1069.13
				c0.07,0.21,0.09,0.43,0.17,0.64c0.19,0.52,0.47,0.97,0.7,1.45c-0.5,0.41-0.97,0.85-1.45,1.29c-0.34-0.66-0.71-1.3-0.97-2.02
				c-0.14-0.38-0.19-0.77-0.31-1.15C1667.27,1069.28,1667.9,1069.22,1668.51,1069.13z"></path>
			<path style="fill:none;stroke:#000000;stroke-linecap:round;stroke-linejoin:round;stroke-miterlimit:10;" d="M1684.59,1045.57
				c-0.18,0.67-0.35,1.34-0.5,2.02c-1.56-0.2-3.15-0.16-4.74,0.21c-0.3-0.63-0.64-1.23-0.97-1.84
				C1680.46,1045.39,1682.55,1045.28,1684.59,1045.57z"></path>
			<path style="fill:none;stroke:#000000;stroke-linecap:round;stroke-linejoin:round;stroke-miterlimit:10;" d="M1668.22,1059.23
				c-0.19,0.75-0.34,1.5-0.43,2.27c-0.63,0.05-1.26,0.14-1.89,0.23c0.11-1.17,0.32-2.3,0.63-3.42
				C1667.08,1058.63,1667.64,1058.95,1668.22,1059.23z"></path>
			<path style="fill:none;stroke:#000000;stroke-linecap:round;stroke-linejoin:round;stroke-miterlimit:10;" d="M1673.08,1051.14
				c-0.51,0.45-1,0.91-1.44,1.43c-0.56-0.34-1.14-0.64-1.72-0.95c0.65-0.82,1.38-1.56,2.17-2.25
				C1672.4,1049.97,1672.73,1050.56,1673.08,1051.14z"></path>
		</g>
		<path style="fill:none;stroke:#000000;stroke-linecap:round;stroke-linejoin:round;stroke-miterlimit:10;" d="M1683.69,1063.21
			c3.7-1.08,7.34-2.83,10.7-5.1c6.73-1.93,14-1.97,20.42,0.41c-6.29,4.94-14.37,7.01-22.25,6.66c-2.88-0.84-5.82-1.34-8.71-1.42
			c-0.25-0.07-0.51-0.12-0.76-0.19c0.2-0.14,0.42-0.25,0.62-0.39C1683.71,1063.19,1683.7,1063.2,1683.69,1063.21z"></path>
		<path style="fill:none;stroke:#000000;stroke-linecap:round;stroke-linejoin:round;stroke-miterlimit:10;" d="M1712.29,1079.09
			c-10.92,0.31-21.92-6.25-28.82-15.36C1694.2,1063.9,1705.74,1069.59,1712.29,1079.09z M1708.49,1040.99
			c-10.62,2.54-20.17,11.63-24.8,22.23C1694.14,1060.17,1704.18,1051.98,1708.49,1040.99z"></path>
		<path style="fill:none;stroke:#000000;stroke-linecap:round;stroke-linejoin:round;stroke-miterlimit:10;" d="M1683.36,1062.93
			c0.06,0.07,0.12,0.14,0.18,0.21c-0.51-0.01-1.04-0.09-1.55-0.12c-2.64-0.82-5.39-1.33-8.19-1.54
			c-7.47-2.34-14.49-7.06-19.07-13.69c7.57-0.21,15.14,2.91,21.39,7.86C1678.28,1058.43,1680.71,1060.92,1683.36,1062.93z"></path>
		<path style="fill:none;stroke:#000000;stroke-linecap:round;stroke-linejoin:round;stroke-miterlimit:10;" d="M1683.07,1063.75
			c0.08-0.03,0.17-0.06,0.25-0.09c-4.63,10.59-14.18,19.68-24.8,22.23c2.99-7.62,8.75-13.84,15.47-17.98
			C1677.21,1066.92,1680.29,1065.54,1683.07,1063.75z"></path>
		<path style="fill:none;stroke:#000000;stroke-linecap:round;stroke-linejoin:round;stroke-miterlimit:10;" d="M1683.14,1064.03
			c0.17-0.22,0.31-0.46,0.48-0.68c1.62,11.6-1.61,25-9.09,33.64c-1.47-8.32,0.19-17.22,3.78-24.91
			C1680.22,1069.57,1681.86,1066.86,1683.14,1064.03z"></path>
		<g>
			<path style="fill:none;stroke:#000000;stroke-linecap:round;stroke-linejoin:round;stroke-miterlimit:10;" d="M1683.99,1068.29
				c-0.03-1.46-0.14-2.9-0.32-4.33c2.08,2.7,4.54,5.14,7.23,7.27c4.92,6.35,8.32,14.33,8.83,22.45
				C1691.66,1088.25,1686.13,1078.46,1683.99,1068.29z"></path>
			<path style="fill:none;stroke:#000000;stroke-linecap:round;stroke-linejoin:round;stroke-miterlimit:10;" d="M1683.27,1063.83
				c-0.01-0.08-0.03-0.16-0.04-0.24c0.04,0.03,0.09,0.07,0.13,0.11C1683.34,1063.75,1683.3,1063.79,1683.27,1063.83z"></path>
		</g>
		<path style="fill:none;stroke:#000000;stroke-linecap:round;stroke-linejoin:round;stroke-miterlimit:10;" d="M1683.78,1063.28
			c-8.9-6.54-15.74-18.21-16.49-30.08C1676.59,1039.46,1682.54,1051.52,1683.78,1063.28z M1667.28,1033.2
			c9.31,6.26,15.26,18.32,16.49,30.08 M1651.67,1067.3c10.17,4.21,22.71,2.3,31.86-3.82
			C1673.26,1059.79,1660.76,1060.66,1651.67,1067.3z"></path>
		<g>
			<path style="fill:none;stroke:#000000;stroke-linecap:round;stroke-linejoin:round;stroke-miterlimit:10;" d="M1683.65,1063.17
				c-0.07,0.1-0.13,0.19-0.2,0.28c-0.02-0.01-0.04-0.01-0.06-0.02c-0.02-0.17-0.02-0.35-0.04-0.52
				C1683.45,1063,1683.55,1063.09,1683.65,1063.17z"></path>
			<path style="fill:none;stroke:#000000;stroke-linecap:round;stroke-linejoin:round;stroke-miterlimit:10;" d="M1683.02,1058.58
				c-0.24-10.31,3.03-21.26,9.46-28.7c1.47,8.32-0.19,17.22-3.78,24.9c-1.91,2.51-3.55,5.22-4.82,8.06
				c-0.05,0.06-0.09,0.13-0.14,0.19C1683.58,1061.55,1683.34,1060.06,1683.02,1058.58z"></path>
		</g>
	</g>
	<g>
		<g>
			<path style="fill:none;stroke:#000000;stroke-linecap:round;stroke-linejoin:round;stroke-miterlimit:10;" d="M723.87,607.88
				l-0.82,0.73c-1.33,1.18-2.97,1.89-4.71,2.3c-1.28,0.3-2.47,1.08-3.27,2.33c-1.18,1.83-1.11,4.29,0.19,6.03
				c2.12,2.84,6.14,2.89,8.36,0.39c0.82-0.93,1.26-2.07,1.32-3.22c0.09-1.68,0.72-3.28,1.68-4.67l0.63-0.91
				c0.85-1.23,2.59-1.44,3.72-0.45l3.15,2.79c1.73,1.52,4.36,1.36,5.88-0.36l20.93-23.68c1.52-1.73,1.36-4.36-0.36-5.88
				l-13.41-11.85c-1.73-1.52-4.36-1.36-5.88,0.36l-20.93,23.68c-1.52,1.73-1.36,4.36,0.36,5.88l3.15,2.79
				C724.99,605.13,724.99,606.88,723.87,607.88z"></path>
			
				<circle style="fill:none;stroke:#000000;stroke-linecap:round;stroke-linejoin:round;stroke-miterlimit:10;" cx="719.67" cy="616.04" r="2.61"></circle>
		</g>
		<g>
			<path style="fill:none;stroke:#000000;stroke-linecap:round;stroke-linejoin:round;stroke-miterlimit:10;" d="M739.42,599.79
				l-0.84,4.16c-0.24,1.16-1.37,1.92-2.54,1.68l-7.31-1.48c-1.16-0.24-1.92-1.37-1.68-2.54l0.84-4.16c0.24-1.16,1.37-1.92,2.54-1.68
				l7.31,1.48C738.9,597.49,739.65,598.63,739.42,599.79z"></path>
			<path style="fill:none;stroke:#000000;stroke-linecap:round;stroke-linejoin:round;stroke-miterlimit:10;" d="M746.81,591.43
				l-0.84,4.16c-0.24,1.16-1.37,1.92-2.54,1.68l-7.31-1.48c-1.16-0.24-1.92-1.37-1.68-2.54l0.84-4.16c0.24-1.16,1.37-1.92,2.54-1.68
				l7.31,1.48C746.29,589.13,747.04,590.27,746.81,591.43z"></path>
			<path style="fill:none;stroke:#000000;stroke-linecap:round;stroke-linejoin:round;stroke-miterlimit:10;" d="M754.16,583.11
				l-0.84,4.16c-0.24,1.16-1.37,1.92-2.54,1.68l-7.31-1.48c-1.16-0.24-1.92-1.37-1.68-2.54l0.84-4.16c0.24-1.16,1.37-1.92,2.54-1.68
				l7.31,1.48C753.64,580.81,754.39,581.95,754.16,583.11z"></path>
		</g>
	</g>
	<g>
		<g>
			<g>
				<path style="fill:none;stroke:#000000;stroke-linecap:round;stroke-linejoin:round;stroke-miterlimit:10;" d="M1036.87,588.04
					l-2.33-5.07c-0.37,0.26-0.75,0.5-1.17,0.69s-0.85,0.33-1.29,0.44l2.33,5.07c0.18,0.39,0.65,0.57,1.04,0.38l1.04-0.48
					C1036.88,588.9,1037.05,588.43,1036.87,588.04z"></path>
				
					<circle style="fill:none;stroke:#000000;stroke-linecap:round;stroke-linejoin:round;stroke-miterlimit:10;" cx="1030.18" cy="576.75" r="7.61"></circle>
			</g>
			<g>
				<path style="fill:none;stroke:#000000;stroke-linecap:round;stroke-linejoin:round;stroke-miterlimit:10;" d="M1004.65,556.86
					l5.07-2.33c-0.26-0.37-0.5-0.75-0.69-1.17c-0.19-0.42-0.33-0.85-0.44-1.29l-5.07,2.33c-0.39,0.18-0.57,0.65-0.38,1.04l0.48,1.04
					C1003.79,556.87,1004.26,557.05,1004.65,556.86z"></path>
				
					<circle style="fill:none;stroke:#000000;stroke-linecap:round;stroke-linejoin:round;stroke-miterlimit:10;" cx="1015.94" cy="550.18" r="7.61"></circle>
			</g>
		</g>
	</g>
</g>
<g id="floor">
	<g>
		<path style="fill:none;stroke:#000000;stroke-linecap:round;stroke-linejoin:round;stroke-miterlimit:10;" d="M421.09,1065.17
			c0-70.6-57.11-128.66-127.71-128.66v128.66"></path>
		
			<rect x="285.78" y="1065.17" style="fill:none;stroke:#000000;stroke-linecap:round;stroke-linejoin:round;stroke-miterlimit:10;" width="7.61" height="12.7"></rect>
		
			<rect x="421.09" y="1065.17" style="fill:none;stroke:#000000;stroke-linecap:round;stroke-linejoin:round;stroke-miterlimit:10;" width="7.61" height="12.7"></rect>
	</g>
	<g>
		<path style="fill:none;stroke:#000000;stroke-linecap:round;stroke-linejoin:round;stroke-miterlimit:10;" d="M647.71,1229.19
			c70.6,0,128.66-57.11,128.66-127.71H647.71"></path>
		
			<rect x="637.56" y="1091.33" transform="matrix(2.063457e-06 1 -1 2.063457e-06 1739.0464 456.3166)" style="fill:none;stroke:#000000;stroke-linecap:round;stroke-linejoin:round;stroke-miterlimit:10;" width="7.61" height="12.7"></rect>
		
			<rect x="637.56" y="1226.64" transform="matrix(2.063457e-06 1 -1 2.063457e-06 1874.3556 591.625)" style="fill:none;stroke:#000000;stroke-linecap:round;stroke-linejoin:round;stroke-miterlimit:10;" width="7.61" height="12.7"></rect>
	</g>
	<g>
		<path style="fill:none;stroke:#000000;stroke-linecap:round;stroke-linejoin:round;stroke-miterlimit:10;" d="M1102.76,1015.24
			c0,79.54-64.34,144.95-143.88,144.95v-144.95"></path>
		
			<rect x="950.31" y="1000.94" style="fill:none;stroke:#000000;stroke-linecap:round;stroke-linejoin:round;stroke-miterlimit:10;" width="8.57" height="14.3"></rect>
		
			<rect x="1102.76" y="1000.94" style="fill:none;stroke:#000000;stroke-linecap:round;stroke-linejoin:round;stroke-miterlimit:10;" width="8.57" height="14.3"></rect>
	</g>
	<g>
		<path style="fill:none;stroke:#000000;stroke-linecap:round;stroke-linejoin:round;stroke-miterlimit:10;" d="M259.72,765.99
			c0-90.04,72.84-164.09,162.87-164.09v164.09"></path>
		
			<rect x="422.59" y="765.99" transform="matrix(-1 -2.063275e-06 2.063275e-06 -1 854.8695 1548.176)" style="fill:none;stroke:#000000;stroke-linecap:round;stroke-linejoin:round;stroke-miterlimit:10;" width="9.7" height="16.19"></rect>
		
			<rect x="250.02" y="765.99" transform="matrix(-1 -2.063278e-06 2.063278e-06 -1 509.7323 1548.1749)" style="fill:none;stroke:#000000;stroke-linecap:round;stroke-linejoin:round;stroke-miterlimit:10;" width="9.7" height="16.19"></rect>
	</g>
	
		<line style="fill:none;stroke:#000000;stroke-linecap:round;stroke-linejoin:round;stroke-miterlimit:10;stroke-dasharray:10,10;" x1="918.34" y1="1303.83" x2="918.34" y2="1010.4"></line>
	
		<line style="fill:none;stroke:#000000;stroke-linecap:round;stroke-linejoin:round;stroke-miterlimit:10;stroke-dasharray:10,10;" x1="643.15" y1="1004.72" x2="643.15" y2="775.41"></line>
	<g>
		<g id="LWPOLYLINE_190_">
			
				<rect x="689.43" y="652.48" style="fill:none;stroke:#000000;stroke-linecap:round;stroke-linejoin:round;stroke-miterlimit:10;" width="107.22" height="107.22"></rect>
		</g>
		<g id="LWPOLYLINE_189_">
			
				<line style="fill:none;stroke:#000000;stroke-linecap:round;stroke-linejoin:round;stroke-miterlimit:10;" x1="734.11" y1="732.89" x2="698.36" y2="732.89"></line>
		</g>
		<g id="LWPOLYLINE_188_">
			
				<line style="fill:none;stroke:#000000;stroke-linecap:round;stroke-linejoin:round;stroke-miterlimit:10;" x1="716.23" y1="715.02" x2="716.23" y2="750.76"></line>
		</g>
		<g id="CIRCLE_193_">
			<path style="fill:none;stroke:#000000;stroke-linecap:round;stroke-linejoin:round;stroke-miterlimit:10;" d="M716.23,747.19
				c-7.9,0-14.3-6.4-14.3-14.3c0-7.9,6.4-14.3,14.3-14.3c7.9,0,14.3,6.4,14.3,14.3C730.53,740.78,724.13,747.19,716.23,747.19
				L716.23,747.19z"></path>
		</g>
		<g id="LWPOLYLINE_187_">
			
				<line style="fill:none;stroke:#000000;stroke-linecap:round;stroke-linejoin:round;stroke-miterlimit:10;" x1="787.71" y1="732.89" x2="751.97" y2="732.89"></line>
		</g>
		<g id="LWPOLYLINE_186_">
			
				<line style="fill:none;stroke:#000000;stroke-linecap:round;stroke-linejoin:round;stroke-miterlimit:10;" x1="769.84" y1="715.02" x2="769.84" y2="750.76"></line>
		</g>
		<g id="CIRCLE_192_">
			<path style="fill:none;stroke:#000000;stroke-linecap:round;stroke-linejoin:round;stroke-miterlimit:10;" d="M769.85,747.19
				c-7.9,0-14.3-6.4-14.3-14.3s6.4-14.3,14.3-14.3s14.3,6.4,14.3,14.3S777.75,747.19,769.85,747.19L769.85,747.19z"></path>
		</g>
		<g id="LWPOLYLINE_185_">
			
				<line style="fill:none;stroke:#000000;stroke-linecap:round;stroke-linejoin:round;stroke-miterlimit:10;" x1="787.71" y1="679.28" x2="751.97" y2="679.28"></line>
		</g>
		<g id="LWPOLYLINE_184_">
			
				<line style="fill:none;stroke:#000000;stroke-linecap:round;stroke-linejoin:round;stroke-miterlimit:10;" x1="769.84" y1="661.41" x2="769.84" y2="697.15"></line>
		</g>
		<g id="CIRCLE_191_">
			<path style="fill:none;stroke:#000000;stroke-linecap:round;stroke-linejoin:round;stroke-miterlimit:10;" d="M769.85,693.58
				c-7.9,0-14.3-6.4-14.3-14.3s6.4-14.3,14.3-14.3s14.3,6.4,14.3,14.3S777.75,693.58,769.85,693.58L769.85,693.58z"></path>
		</g>
		<g id="LWPOLYLINE_183_">
			
				<line style="fill:none;stroke:#000000;stroke-linecap:round;stroke-linejoin:round;stroke-miterlimit:10;" x1="734.11" y1="679.28" x2="698.36" y2="679.28"></line>
		</g>
		<g id="LWPOLYLINE_182_">
			
				<line style="fill:none;stroke:#000000;stroke-linecap:round;stroke-linejoin:round;stroke-miterlimit:10;" x1="716.23" y1="661.41" x2="716.23" y2="697.15"></line>
		</g>
		<g id="CIRCLE_190_">
			<path style="fill:none;stroke:#000000;stroke-linecap:round;stroke-linejoin:round;stroke-miterlimit:10;" d="M716.23,693.58
				c-7.9,0-14.3-6.4-14.3-14.3c0-7.9,6.4-14.3,14.3-14.3c7.9,0,14.3,6.4,14.3,14.3C730.53,687.18,724.13,693.58,716.23,693.58
				L716.23,693.58z"></path>
		</g>
	</g>
	<g>
		<g id="LWPOLYLINE_181_">
			
				<rect x="796.65" y="512.64" style="fill:none;stroke:#000000;stroke-linecap:round;stroke-linejoin:round;stroke-miterlimit:10;" width="107.22" height="107.22"></rect>
		</g>
		<g id="LWPOLYLINE_168_">
			<path style="fill:none;stroke:#000000;stroke-linecap:round;stroke-linejoin:round;stroke-miterlimit:10;" d="M805.58,527.83
				l0,67.86c0,3.45,2.8,6.26,6.25,6.26c0,0,76.84,0,76.84,0c3.45,0,6.26-2.8,6.26-6.25c0,0,0-67.86,0-67.86
				c0-3.45-2.8-6.25-6.25-6.25c0,0-76.85,0-76.85,0C808.38,521.57,805.58,524.37,805.58,527.83z"></path>
		</g>
		<g id="LWPOLYLINE_167_">
			<path style="fill:none;stroke:#000000;stroke-linecap:round;stroke-linejoin:round;stroke-miterlimit:10;" d="M832.38,578.29
				c-3.46,0-6.27,2.81-6.27,6.27c0,3.46,2.81,6.27,6.27,6.27c3.46,0,6.27-2.81,6.27-6.27C838.65,581.1,835.85,578.29,832.38,578.29z
				"></path>
		</g>
	</g>
	<g>
		
			<rect x="1594.73" y="733.3" transform="matrix(-1.836970e-16 1 -1 -1.836970e-16 2515.5684 -996.8093)" style="fill:none;stroke:#000000;stroke-linecap:round;stroke-linejoin:round;stroke-miterlimit:10;" width="322.92" height="52.17"></rect>
		
			<rect x="1595.66" y="753.26" transform="matrix(-1.836970e-16 1 -1 -1.836970e-16 2518.7341 -999.5284)" style="fill:none;stroke:#000000;stroke-linecap:round;stroke-linejoin:round;stroke-miterlimit:10;" width="326.94" height="12.69"></rect>
		
			<rect x="1752.43" y="675.57" transform="matrix(-1.836970e-16 1 -1 -1.836970e-16 2441.0479 -1077.2147)" style="fill:none;stroke:#000000;stroke-linecap:round;stroke-linejoin:round;stroke-miterlimit:10;" width="13.41" height="12.69"></rect>
		
			<rect x="1752.43" y="829.25" transform="matrix(-1.836970e-16 1 -1 -1.836970e-16 2594.7258 -923.5367)" style="fill:none;stroke:#000000;stroke-linecap:round;stroke-linejoin:round;stroke-miterlimit:10;" width="13.41" height="12.69"></rect>
		
			<rect x="1756.18" y="911.55" transform="matrix(-1.836970e-16 1 -1 -1.836970e-16 2677.0208 -841.2418)" style="fill:none;stroke:#000000;stroke-linecap:round;stroke-linejoin:round;stroke-miterlimit:10;" width="5.9" height="12.69"></rect>
		
			<rect x="1756.06" y="594.84" transform="matrix(-1.836970e-16 1 -1 -1.836970e-16 2360.3198 -1157.9427)" style="fill:none;stroke:#000000;stroke-linecap:round;stroke-linejoin:round;stroke-miterlimit:10;" width="6.15" height="12.69"></rect>
	</g>
	<g>
		<g>
			<path style="fill:none;stroke:#000000;stroke-linecap:round;stroke-linejoin:round;stroke-miterlimit:10;" d="M1794.28,808.34
				V668.2c0-9.2,7.46-16.66,16.66-16.66h30.3c9.2,0,16.66,7.46,16.66,16.66v140.13c0,9.2-7.46,16.66-16.66,16.66h-30.3
				C1801.74,825,1794.28,817.54,1794.28,808.34z"></path>
			<g>
				
					<circle style="fill:none;stroke:#000000;stroke-linecap:round;stroke-linejoin:round;stroke-miterlimit:10;" cx="1825.92" cy="691.88" r="2.19"></circle>
				<path style="fill:none;stroke:#000000;stroke-linecap:round;stroke-linejoin:round;stroke-miterlimit:10;" d="M1827.97,692.64
					c0,0,9.47,1.42,7.81,10.02c-0.89,4.57-5.84,5.22-8.39,3.43c-1.21-0.85-1.98-3.26-0.96-5.69c1.99-4.74,0.19-6.44,0.19-6.44"></path>
				<path style="fill:none;stroke:#000000;stroke-linecap:round;stroke-linejoin:round;stroke-miterlimit:10;" d="M1825.2,693.95
					c0,0-1.23,9.5-9.86,8c-4.58-0.79-5.33-5.74-3.6-8.32c0.83-1.23,3.22-2.05,5.67-1.07c4.78,1.9,6.45,0.07,6.45,0.07"></path>
				<path style="fill:none;stroke:#000000;stroke-linecap:round;stroke-linejoin:round;stroke-miterlimit:10;" d="M1823.86,691.14
					c0,0-9.48-1.36-7.87-9.97c0.86-4.57,5.81-5.25,8.37-3.48c1.22,0.84,2,3.25,0.99,5.69c-1.97,4.75-0.16,6.44-0.16,6.44"></path>
				<path style="fill:none;stroke:#000000;stroke-linecap:round;stroke-linejoin:round;stroke-miterlimit:10;" d="M1826.67,689.82
					c0,0,1.39-9.48,9.99-7.84c4.57,0.87,5.24,5.83,3.46,8.38c-0.85,1.21-3.26,1.99-5.69,0.98c-4.74-1.98-6.44-0.18-6.44-0.18"></path>
				
					<circle style="fill:none;stroke:#000000;stroke-linecap:round;stroke-linejoin:round;stroke-miterlimit:10;" cx="1825.92" cy="691.88" r="21.67"></circle>
				<path style="fill:none;stroke:#000000;stroke-linecap:round;stroke-linejoin:round;stroke-miterlimit:10;" d="M1827.97,692.64
					c0,0,9.47,1.42,7.81,10.02c-0.89,4.57-5.84,5.22-8.39,3.43c-1.21-0.85-1.98-3.26-0.96-5.69c1.99-4.74,0.19-6.44,0.19-6.44"></path>
				<path style="fill:none;stroke:#000000;stroke-linecap:round;stroke-linejoin:round;stroke-miterlimit:10;" d="M1825.2,693.95
					c0,0-1.23,9.5-9.86,8c-4.58-0.79-5.33-5.74-3.6-8.32c0.83-1.23,3.22-2.05,5.67-1.07c4.78,1.9,6.45,0.07,6.45,0.07"></path>
				<path style="fill:none;stroke:#000000;stroke-linecap:round;stroke-linejoin:round;stroke-miterlimit:10;" d="M1823.86,691.14
					c0,0-9.48-1.36-7.87-9.97c0.86-4.57,5.81-5.25,8.37-3.48c1.22,0.84,2,3.25,0.99,5.69c-1.97,4.75-0.16,6.44-0.16,6.44"></path>
				<path style="fill:none;stroke:#000000;stroke-linecap:round;stroke-linejoin:round;stroke-miterlimit:10;" d="M1826.67,689.82
					c0,0,1.39-9.48,9.99-7.84c4.57,0.87,5.24,5.83,3.46,8.38c-0.85,1.21-3.26,1.99-5.69,0.98c-4.74-1.98-6.44-0.18-6.44-0.18"></path>
			</g>
		</g>
		<polyline style="fill:none;stroke:#000000;stroke-linecap:round;stroke-linejoin:round;stroke-miterlimit:10;" points="
			1782.27,597.25 1837.01,597.25 1899.91,706.65 1836.77,919.58 1782.27,919.58 		"></polyline>
	</g>
	<g>
		
			<rect x="1622.13" y="1242.95" transform="matrix(-1.836970e-16 1 -1 -1.836970e-16 3025.4104 -487.3483)" style="fill:none;stroke:#000000;stroke-linecap:round;stroke-linejoin:round;stroke-miterlimit:10;" width="268.49" height="52.17"></rect>
		
			<rect x="1623.07" y="1262.91" transform="matrix(-1.836970e-16 1 -1 -1.836970e-16 3028.5762 -490.0674)" style="fill:none;stroke:#000000;stroke-linecap:round;stroke-linejoin:round;stroke-miterlimit:10;" width="272.51" height="12.69"></rect>
		
			<rect x="1752.62" y="1209.25" transform="matrix(-1.836970e-16 1 -1 -1.836970e-16 2974.9175 -543.7263)" style="fill:none;stroke:#000000;stroke-linecap:round;stroke-linejoin:round;stroke-miterlimit:10;" width="13.41" height="12.69"></rect>
		
			<rect x="1752.62" y="1316.52" transform="matrix(-1.836970e-16 1 -1 -1.836970e-16 3082.1848 -436.4588)" style="fill:none;stroke:#000000;stroke-linecap:round;stroke-linejoin:round;stroke-miterlimit:10;" width="13.41" height="12.69"></rect>
		
			<rect x="1756.37" y="1393.98" transform="matrix(-1.836970e-16 1 -1 -1.836970e-16 3159.6494 -358.9943)" style="fill:none;stroke:#000000;stroke-linecap:round;stroke-linejoin:round;stroke-miterlimit:10;" width="5.9" height="12.69"></rect>
		
			<rect x="1756.25" y="1131.71" transform="matrix(-1.836970e-16 1 -1 -1.836970e-16 2897.3755 -621.2681)" style="fill:none;stroke:#000000;stroke-linecap:round;stroke-linejoin:round;stroke-miterlimit:10;" width="6.15" height="12.69"></rect>
	</g>
	<g>
		<g>
			<path style="fill:none;stroke:#000000;stroke-linecap:round;stroke-linejoin:round;stroke-miterlimit:10;" d="M1791.92,1317.82
				v-127.13c0-9.2,7.46-16.66,16.66-16.66h30.3c9.2,0,16.66,7.46,16.66,16.66v127.13c0,9.2-7.46,16.66-16.66,16.66h-30.3
				C1799.39,1334.49,1791.92,1327.03,1791.92,1317.82z"></path>
			<g>
				
					<circle style="fill:none;stroke:#000000;stroke-linecap:round;stroke-linejoin:round;stroke-miterlimit:10;" cx="1823.57" cy="1214.37" r="2.19"></circle>
				<path style="fill:none;stroke:#000000;stroke-linecap:round;stroke-linejoin:round;stroke-miterlimit:10;" d="M1825.62,1215.12
					c0,0,9.47,1.42,7.81,10.02c-0.89,4.57-5.84,5.22-8.39,3.43c-1.21-0.85-1.98-3.26-0.96-5.69c1.99-4.74,0.19-6.44,0.19-6.44"></path>
				<path style="fill:none;stroke:#000000;stroke-linecap:round;stroke-linejoin:round;stroke-miterlimit:10;" d="M1822.85,1216.44
					c0,0-1.23,9.5-9.86,8c-4.58-0.79-5.33-5.74-3.6-8.32c0.83-1.23,3.22-2.05,5.67-1.07c4.78,1.9,6.45,0.07,6.45,0.07"></path>
				<path style="fill:none;stroke:#000000;stroke-linecap:round;stroke-linejoin:round;stroke-miterlimit:10;" d="M1821.51,1213.62
					c0,0-9.48-1.36-7.87-9.97c0.86-4.57,5.81-5.25,8.37-3.48c1.22,0.84,2,3.25,0.99,5.69c-1.97,4.75-0.16,6.44-0.16,6.44"></path>
				<path style="fill:none;stroke:#000000;stroke-linecap:round;stroke-linejoin:round;stroke-miterlimit:10;" d="M1824.31,1212.31
					c0,0,1.39-9.48,9.99-7.84c4.57,0.87,5.24,5.83,3.46,8.38c-0.85,1.21-3.26,1.99-5.69,0.98c-4.74-1.98-6.44-0.18-6.44-0.18"></path>
				
					<circle style="fill:none;stroke:#000000;stroke-linecap:round;stroke-linejoin:round;stroke-miterlimit:10;" cx="1823.57" cy="1214.37" r="21.67"></circle>
				<path style="fill:none;stroke:#000000;stroke-linecap:round;stroke-linejoin:round;stroke-miterlimit:10;" d="M1825.62,1215.12
					c0,0,9.47,1.42,7.81,10.02c-0.89,4.57-5.84,5.22-8.39,3.43c-1.21-0.85-1.98-3.26-0.96-5.69c1.99-4.74,0.19-6.44,0.19-6.44"></path>
				<path style="fill:none;stroke:#000000;stroke-linecap:round;stroke-linejoin:round;stroke-miterlimit:10;" d="M1822.85,1216.44
					c0,0-1.23,9.5-9.86,8c-4.58-0.79-5.33-5.74-3.6-8.32c0.83-1.23,3.22-2.05,5.67-1.07c4.78,1.9,6.45,0.07,6.45,0.07"></path>
				<path style="fill:none;stroke:#000000;stroke-linecap:round;stroke-linejoin:round;stroke-miterlimit:10;" d="M1821.51,1213.62
					c0,0-9.48-1.36-7.87-9.97c0.86-4.57,5.81-5.25,8.37-3.48c1.22,0.84,2,3.25,0.99,5.69c-1.97,4.75-0.16,6.44-0.16,6.44"></path>
				<path style="fill:none;stroke:#000000;stroke-linecap:round;stroke-linejoin:round;stroke-miterlimit:10;" d="M1824.31,1212.31
					c0,0,1.39-9.48,9.99-7.84c4.57,0.87,5.24,5.83,3.46,8.38c-0.85,1.21-3.26,1.99-5.69,0.98c-4.74-1.98-6.44-0.18-6.44-0.18"></path>
			</g>
		</g>
		<polyline style="fill:none;stroke:#000000;stroke-linecap:round;stroke-linejoin:round;stroke-miterlimit:10;" points="
			1782.83,1134.53 1836.99,1134.53 1899.54,1226 1838.63,1403.28 1782.83,1403.28 		"></polyline>
	</g>
	<g>
		<g>
			<g id="LWPOLYLINE_383_">
				<path style="fill:none;stroke:#000000;stroke-linecap:round;stroke-linejoin:round;stroke-miterlimit:10;" d="M284.27,1382.94
					l0.12-47.52c0.02-6.69,4.26-12.61,10.51-14.65c22.66-7.38,47.03-7.32,69.65,0.19c6.23,2.07,10.45,8.01,10.43,14.7l-0.12,47.52"></path>
			</g>
			<g id="LWPOLYLINE_382_">
				<path style="fill:none;stroke:#000000;stroke-linecap:round;stroke-linejoin:round;stroke-miterlimit:10;" d="M353.76,1369.83
					c5,0.01,9.07-4.12,9.08-9.23l0.04-14.81c0.01-3.39-2.15-6.38-5.32-7.38c-18.16-5.73-37.57-5.78-55.76-0.15
					c-3.17,0.99-5.35,3.97-5.36,7.35l-0.04,14.81c-0.01,5.11,4.03,9.26,9.04,9.28"></path>
			</g>
			<g id="LWPOLYLINE_381_">
				<path style="fill:none;stroke:#000000;stroke-linecap:round;stroke-linejoin:round;stroke-miterlimit:10;" d="M290.37,1360.41
					l0.07-24.97c0.01-4.02,2.55-7.57,6.3-8.79c21.46-7,44.53-6.94,65.95,0.18c3.74,1.24,6.27,4.81,6.26,8.82l-0.06,24.97
					c-0.01,5.11-4.08,9.24-9.08,9.23l-60.4-0.16C294.39,1369.67,290.35,1365.52,290.37,1360.41z"></path>
			</g>
			<g id="LWPOLYLINE_380_">
				<path style="fill:none;stroke:#000000;stroke-linecap:round;stroke-linejoin:round;stroke-miterlimit:10;" d="M329.61,1367.01
					c-2.24-0.01-4.06-1.87-4.06-4.16c0.01-2.29,1.83-4.14,4.08-4.14c2.24,0.01,4.06,1.87,4.05,4.16
					C333.67,1365.17,331.85,1367.02,329.61,1367.01z"></path>
			</g>
		</g>
		<g>
			<g id="LWPOLYLINE_379_">
				
					<rect x="151.25" y="1078.8" style="fill:none;stroke:#000000;stroke-linecap:round;stroke-linejoin:round;stroke-miterlimit:10;" width="123.28" height="303.66"></rect>
			</g>
			<g id="LWPOLYLINE_378_">
				<path style="fill:none;stroke:#000000;stroke-linecap:round;stroke-linejoin:round;stroke-miterlimit:10;" d="M264.67,1119.95
					l0,198.83c0,29.2-23.18,52.86-51.77,52.86c-28.6,0-51.78-23.67-51.78-52.87l0-198.83c0-13.95,10.99-25.31,24.65-25.47
					l54.24,0.01c13.62,0,24.66,11.28,24.66,25.18"></path>
			</g>
			<g id="LWPOLYLINE_377_">
				<path style="fill:none;stroke:#000000;stroke-linecap:round;stroke-linejoin:round;stroke-miterlimit:10;" d="M250.58,1182.81
					l0,135.97c0,21.26-16.88,38.49-37.69,38.48c-20.81,0-37.69-17.24-37.69-38.49l0-133.99c0.02-20.48,15.72-37.36,35.74-38.43
					C231.75,1145.25,249.49,1161.57,250.58,1182.81z"></path>
			</g>
			<g id="LWPOLYLINE_376_">
				<path style="fill:none;stroke:#000000;stroke-linecap:round;stroke-linejoin:round;stroke-miterlimit:10;" d="M212.89,1325.82
					c-3.81,0-6.9-3.16-6.9-7.05c0-3.9,3.09-7.05,6.9-7.05c3.82,0,6.9,3.16,6.9,7.05C219.79,1322.67,216.7,1325.82,212.89,1325.82z"></path>
			</g>
		</g>
		<g>
			<g id="LWPOLYLINE_375_">
				
					<rect x="391.31" y="1302.05" style="fill:none;stroke:#000000;stroke-linecap:round;stroke-linejoin:round;stroke-miterlimit:10;" width="107.18" height="80.38"></rect>
			</g>
			<g>
				<g id="LWPOLYLINE_374_">
					<polyline style="fill:none;stroke:#000000;stroke-linecap:round;stroke-linejoin:round;stroke-miterlimit:10;" points="
						475.76,1366.53 444.93,1329.81 444.87,1354.68 414.04,1317.96 					"></polyline>
				</g>
				<g id="LWPOLYLINE_373_">
					<path style="fill:none;stroke:#000000;stroke-linecap:round;stroke-linejoin:round;stroke-miterlimit:10;" d="M444.83,1369.89
						c-14.95-0.04-27.03-12.45-27-27.71c0.04-15.26,12.19-27.61,27.14-27.57c14.95,0.04,27.04,12.45,27,27.72
						C471.93,1357.59,459.78,1369.93,444.83,1369.89z"></path>
				</g>
			</g>
		</g>
		<g>
			<g>
				<g id="LWPOLYLINE_364_">
					<path style="fill:none;stroke:#000000;stroke-linecap:round;stroke-linejoin:round;stroke-miterlimit:10;" d="M601.59,1331.22
						l-0.01-49.86c0-17.35-14.36-31.41-32.07-31.41c-17.71,0-32.07,14.06-32.08,31.41l0.01,49.86c0,4.34,3.59,7.85,8.02,7.85
						l48.11,0C598,1339.07,601.59,1335.55,601.59,1331.22z"></path>
				</g>
				<g id="LWPOLYLINE_363_">
					<path style="fill:none;stroke:#000000;stroke-linecap:round;stroke-linejoin:round;stroke-miterlimit:10;" d="M543.85,1281.36
						l0.01,27.88c0,13.88,11.49,25.12,25.66,25.12c14.17,0,25.66-11.25,25.66-25.13l-0.01-27.88c0-13.88-11.49-25.12-25.66-25.12
						C555.34,1256.23,543.85,1267.48,543.85,1281.36z"></path>
				</g>
				<g id="LWPOLYLINE_362_">
					<path style="fill:none;stroke:#000000;stroke-linecap:round;stroke-linejoin:round;stroke-miterlimit:10;" d="M559.89,1291.47
						l0.01,20.38c0,5.2,4.31,9.42,9.62,9.42c5.31,0,9.62-4.22,9.62-9.42l-0.01-20.38c0-5.2-4.31-9.42-9.62-9.42
						C564.19,1282.05,559.89,1286.27,559.89,1291.47z"></path>
				</g>
			</g>
		</g>
	</g>
	<g>
		<rect x="1729.7" y="478.04" style="fill-rule:evenodd;clip-rule:evenodd;" width="52.72" height="120.58"></rect>
		<rect x="1729.7" y="920.33" style="fill-rule:evenodd;clip-rule:evenodd;" width="52.72" height="214.63"></rect>
		<rect x="1729.7" y="1403" style="fill-rule:evenodd;clip-rule:evenodd;" width="52.72" height="101.42"></rect>
		<rect x="648.33" y="489.75" style="fill-rule:evenodd;clip-rule:evenodd;" width="41.1" height="293.18"></rect>
		<rect x="648.33" y="470.12" style="fill-rule:evenodd;clip-rule:evenodd;" width="1134.09" height="42.98"></rect>
		<rect x="432.29" y="741.83" style="fill-rule:evenodd;clip-rule:evenodd;" width="230.99" height="41.1"></rect>
		<rect x="122.36" y="741.83" style="fill-rule:evenodd;clip-rule:evenodd;" width="127.65" height="41.1"></rect>
		<rect x="99.91" y="741.83" style="fill-rule:evenodd;clip-rule:evenodd;" width="34.85" height="684.07"></rect>
		<rect x="99.91" y="1403" style="fill-rule:evenodd;clip-rule:evenodd;" width="555.74" height="35.74"></rect>
		<rect x="614.55" y="1435.83" style="fill-rule:evenodd;clip-rule:evenodd;" width="41.1" height="62.01"></rect>
		<rect x="614.55" y="1488.78" style="fill-rule:evenodd;clip-rule:evenodd;" width="1167.86" height="41.1"></rect>
		<rect x="918.34" y="1303.83" style="fill-rule:evenodd;clip-rule:evenodd;" width="14.3" height="187.42"></rect>
		<rect x="148.16" y="1382.36" style="fill-rule:evenodd;clip-rule:evenodd;" width="496.38" height="31.33"></rect>
		<rect x="129.71" y="1062.59" style="fill-rule:evenodd;clip-rule:evenodd;" width="22.11" height="348.62"></rect>
		<rect x="145.07" y="1062.59" style="fill-rule:evenodd;clip-rule:evenodd;" width="140.68" height="15.99"></rect>
		<rect x="428.71" y="1062.59" style="fill-rule:evenodd;clip-rule:evenodd;" width="215.26" height="15.99"></rect>
		<rect x="498.49" y="1338.58" style="fill-rule:evenodd;clip-rule:evenodd;" width="12.48" height="50.28"></rect>
		<rect x="509.38" y="1338.58" style="fill-rule:evenodd;clip-rule:evenodd;" width="135.16" height="12.6"></rect>
		<rect x="634.3" y="1236.82" style="fill-rule:evenodd;clip-rule:evenodd;" width="15.99" height="179.93"></rect>
		<rect x="634.3" y="1065.42" style="fill-rule:evenodd;clip-rule:evenodd;" width="15.99" height="28.44"></rect>
		<rect x="636.36" y="1000.94" style="fill-rule:evenodd;clip-rule:evenodd;" width="13.94" height="70.91"></rect>
		<rect x="646.9" y="1000.94" style="fill-rule:evenodd;clip-rule:evenodd;" width="303.6" height="14.3"></rect>
		<rect x="1111.33" y="1000.94" style="fill-rule:evenodd;clip-rule:evenodd;" width="621.77" height="14.3"></rect>
	</g>
</g>
</svg>
