<?xml version="1.0" encoding="utf-8"?>
<!-- Generator: Adobe Illustrator 24.1.2, SVG Export Plug-In . SVG Version: 6.00 Build 0)  -->
<svg version="1.0" id="Layer_1" xmlns="http://www.w3.org/2000/svg" xmlns:xlink="http://www.w3.org/1999/xlink" x="0px" y="0px" width="2000px" height="2000px" viewBox="0 0 2000 2000" style="enable-background:new 0 0 2000 2000;" xml:space="preserve">
<path id="background" style="fill-rule:evenodd;clip-rule:evenodd;fill:#FFFFFF;" d="M1900.41,738.79v565.39
	c0,0.28-0.22,0.5-0.5,0.5h0v198.88h-53.15h-44.29h-552.91v12.4v22.13v15.23H677.49v-5.57h-7.33l0,164.08c0,0.13-0.05,0.26-0.15,0.35
	s-0.22,0.15-0.35,0.15c-90.67,0-164.53-73.66-165.53-164.57h-7.41v7.18H138.89h-9.24H99.91V413.77v-40.18v-39.06v-19.84V288h45.88
	v26.68H199v0.34h371.78v-0.34h53.37V288h53.15v26.68h48.37c0.08-0.06,0.17-0.1,0.28-0.1h380.83c0.11,0,0.2,0.04,0.28,0.1h48.61V288
	h53.15v26.68h46.73c0-0.28,0.22-0.5,0.5-0.5h297.51c0.28,0,0.5,0.22,0.5,0.5v345.55h0.25v77.78h80.22v0.28h265.4
	C1900.19,738.29,1900.41,738.52,1900.41,738.79z"></path>
<g id="r1">
	<path id="r1_path" style="fill:none;" d="M521.92,793.24l-236.43-0.03V661.38h236.4L521.92,793.24z"></path>
	<text id="r1_text" transform="matrix(1 0 0 1 364.1532 739.1772)" style="font-family: GraphikLCG-Regular; font-size: 40px; text-anchor: middle; text-align: center;"></text>
</g>
<g id="c1">
	<path id="c1_path" style="fill:none;" d="M1201.96,982.68l-236.43-0.03V850.83h236.4L1201.96,982.68z"></path>
	
		<text id="c1_text" transform="matrix(1 0 0 1 1040.3124 928.6245)" style="font-family: GraphikLCG-Regular; font-size: 40px; text-anchor: middle; text-align: center;"></text>
</g>
<g id="s1">
	<path id="s1_path" style="fill:none;" d="M1198.12,1353.85l-236.43-0.03V1222h236.4L1198.12,1353.85z"></path>
	
		<text id="s1_text" transform="matrix(1 0 0 1 993.6942 1310.1548)" style="font-family: GraphikLCG-Regular; font-size: 40px; text-anchor: middle; text-align: center;"></text>
</g>
<g id="h1">
	<path id="h1_path" style="fill:none;" d="M670.21,1499.03l-236.43-0.03v-131.83h236.4L670.21,1499.03z"></path>
	
		<text id="h1_text" transform="matrix(1 0 0 1 523.7078 1436.3062)" style="font-family: GraphikLCG-Regular; font-size: 40px; text-anchor: middle; text-align: center;"></text>
</g>
<g id="r2">
	<path id="r2_path" style="fill:none;" d="M1656.75,1028.55l-236.43-0.03V896.69h236.4L1656.75,1028.55z"></path>
	<text id="r2_text" transform="matrix(1 0 0 1 1495.8837 974.4868)" style="font-family: GraphikLCG-Regular; font-size: 40px; text-anchor: middle; text-align: center;"></text>
</g>
<g id="s2">
	<path id="s2_path" style="fill:none;" d="M434.48,1358.11l-236.43-0.03v-131.83h236.4L434.48,1358.11z"></path>
	<text id="s2_text" transform="matrix(1 0 0 1 271.5252 1304.0503)" style="font-family: GraphikLCG-Regular; font-size: 40px; text-anchor: middle; text-align: center;"></text>
</g>
<path id="u7" style="fill:#FFFFFF;stroke:#FFFFFF;stroke-linecap:round;stroke-linejoin:round;stroke-miterlimit:10;" d="
	M915.79,489.69c0,4.56-3.7,8.26-8.26,8.26s-8.26-3.7-8.26-8.26c0-4.56,3.7-8.26,8.26-8.26S915.79,485.12,915.79,489.69z"></path>
<path id="u2" style="fill:#FFFFFF;stroke:#FFFFFF;stroke-linecap:round;stroke-linejoin:round;stroke-miterlimit:10;" d="
	M256.32,898.38c0,4.56-3.7,8.26-8.26,8.26c-4.56,0-8.26-3.7-8.26-8.26s3.7-8.26,8.26-8.26
	C252.62,890.12,256.32,893.82,256.32,898.38z"></path>
<path id="u9" style="fill:#FFFFFF;stroke:#FFFFFF;stroke-linecap:round;stroke-linejoin:round;stroke-miterlimit:10;" d="
	M1005,1372.98c0,4.56-3.7,8.26-8.26,8.26c-4.56,0-8.26-3.7-8.26-8.26c0-4.56,3.7-8.26,8.26-8.26
	C1001.3,1364.72,1005,1368.42,1005,1372.98z"></path>
<g id="mebel">
	<g>
		<polygon style="fill:none;stroke:#000000;stroke-linecap:round;stroke-linejoin:round;stroke-miterlimit:10;" points="
			879.57,1071.39 789.15,1071.38 789.15,1177.67 879.57,1177.69 		"></polygon>
		<path style="fill:none;stroke:#000000;stroke-linecap:round;stroke-linejoin:round;stroke-miterlimit:10;" d="M834.36,1147.18
			l-11.33-25.8c-0.62-1.58-0.96-3.31-0.96-5.14c0-7.32,5.5-13.26,12.29-13.26s12.29,5.94,12.29,13.26c0,1.82-0.34,3.56-0.96,5.14
			L834.36,1147.18z"></path>
	</g>
	<g>
		<polygon style="fill:none;stroke:#000000;stroke-linecap:round;stroke-linejoin:round;stroke-miterlimit:10;" points="
			789.15,1071.38 682.85,1071.38 682.85,1177.67 789.15,1177.69 		"></polygon>
		<g>
			
				<line style="fill:none;stroke:#000000;stroke-linecap:round;stroke-linejoin:round;stroke-miterlimit:10;" x1="736" y1="1150.13" x2="736" y2="1098.95"></line>
			
				<line style="fill:none;stroke:#000000;stroke-linecap:round;stroke-linejoin:round;stroke-miterlimit:10;" x1="761.59" y1="1124.54" x2="710.41" y2="1124.54"></line>
			<polyline style="fill:none;stroke:#000000;stroke-linecap:round;stroke-linejoin:round;stroke-miterlimit:10;" points="
				748.79,1144.44 736,1137.33 723.2,1144.44 			"></polyline>
			<polyline style="fill:none;stroke:#000000;stroke-linecap:round;stroke-linejoin:round;stroke-miterlimit:10;" points="
				716.09,1137.33 723.2,1124.54 716.09,1111.74 			"></polyline>
			<polyline style="fill:none;stroke:#000000;stroke-linecap:round;stroke-linejoin:round;stroke-miterlimit:10;" points="
				723.2,1104.63 736,1111.74 748.79,1104.63 			"></polyline>
			<polyline style="fill:none;stroke:#000000;stroke-linecap:round;stroke-linejoin:round;stroke-miterlimit:10;" points="
				755.9,1111.74 748.79,1124.54 755.9,1137.33 			"></polyline>
		</g>
	</g>
	<g>
		<g>
			<path style="fill:none;stroke:#000000;stroke-linecap:round;stroke-linejoin:round;stroke-miterlimit:10;" d="M1006.52,1093.64
				l2.81,6.48c-0.55,0.13-1.1,0.29-1.64,0.52s-1.03,0.53-1.5,0.84l-2.81-6.48c-0.22-0.5,0.01-1.09,0.52-1.31l1.32-0.57
				C1005.72,1092.91,1006.31,1093.14,1006.52,1093.64z"></path>
			
				<circle style="fill:none;stroke:#000000;stroke-linecap:round;stroke-linejoin:round;stroke-miterlimit:10;" cx="1011.52" cy="1109.48" r="9.63"></circle>
		</g>
		<g>
			<path style="fill:none;stroke:#000000;stroke-linecap:round;stroke-linejoin:round;stroke-miterlimit:10;" d="M1008.72,1150.33
				l6.48-2.81c0.13,0.55,0.29,1.1,0.52,1.64s0.53,1.03,0.84,1.5l-6.48,2.81c-0.5,0.22-1.09-0.01-1.31-0.52l-0.57-1.32
				C1007.99,1151.14,1008.22,1150.55,1008.72,1150.33z"></path>
			
				<circle style="fill:none;stroke:#000000;stroke-linecap:round;stroke-linejoin:round;stroke-miterlimit:10;" cx="1024.55" cy="1145.33" r="9.63"></circle>
		</g>
	</g>
	
		<rect x="976.72" y="1071.39" style="fill:none;stroke:#000000;stroke-linecap:round;stroke-linejoin:round;stroke-miterlimit:10;" width="245.88" height="107.38"></rect>
	<g>
		<g>
			<g>
				<g>
					<g>
						
							<rect x="1406.01" y="1451.73" style="fill:none;stroke:#000000;stroke-linecap:round;stroke-linejoin:round;stroke-miterlimit:10;" width="291.29" height="12.92"></rect>
						
							<rect x="1406.02" y="1082.27" style="fill:none;stroke:#000000;stroke-linecap:round;stroke-linejoin:round;stroke-miterlimit:10;" width="291.29" height="369.46"></rect>
						<path style="fill:none;stroke:#000000;stroke-linecap:round;stroke-linejoin:round;stroke-miterlimit:10;" d="
							M1546.18,1385.27l10.96,0l0,31.81c0,9.51,7.71,17.23,17.23,17.23l81.83,0c9.51,0,17.23-7.71,17.23-17.23l0-31.81l10.96,0
							l0,55.7c0,2.38-1.93,4.31-4.31,4.31l-256.83-0.01c-2.38,0-4.31-1.93-4.31-4.31l0-55.7l10.96,0l0,31.81
							c0,9.51,7.71,17.23,17.23,17.23l81.83,0c9.51,0,17.23-7.71,17.23-17.23L1546.18,1385.27z"></path>
						<path style="fill:none;stroke:#000000;stroke-linecap:round;stroke-linejoin:round;stroke-miterlimit:10;" d="
							M1419.82,1093.03l263.69,0.01c0.48,0,0.88,0.39,0.88,0.88l-0.01,291.36l-265.45-0.01l0.01-291.36
							C1418.94,1093.42,1419.34,1093.03,1419.82,1093.03z"></path>
					</g>
				</g>
				
					<rect x="1690.03" y="1384.52" transform="matrix(-2.994427e-05 1 -1 -2.994427e-05 3154.7393 -312.7388)" style="fill:none;stroke:#000000;stroke-linecap:round;stroke-linejoin:round;stroke-miterlimit:10;" width="87.4" height="72.87"></rect>
				
					<rect x="1325.88" y="1384.51" transform="matrix(-2.994427e-05 1 -1 -2.994427e-05 2790.5625 51.4051)" style="fill:none;stroke:#000000;stroke-linecap:round;stroke-linejoin:round;stroke-miterlimit:10;" width="87.4" height="72.87"></rect>
			</g>
			<g>
				
					<circle style="fill:none;stroke:#000000;stroke-linecap:round;stroke-linejoin:round;stroke-miterlimit:10;" cx="1371.19" cy="1404.95" r="6.3"></circle>
				
					<circle style="fill:none;stroke:#000000;stroke-linecap:round;stroke-linejoin:round;stroke-miterlimit:10;" cx="1371.19" cy="1404.95" r="4.46"></circle>
				
					<line style="fill:none;stroke:#000000;stroke-linecap:round;stroke-linejoin:round;stroke-miterlimit:10;" x1="1369.86" y1="1410.79" x2="1368.88" y2="1415.11"></line>
				<path style="fill:none;stroke:#000000;stroke-linecap:round;stroke-linejoin:round;stroke-miterlimit:10;" d="M1356.23,1410.85
					c1.82,4.6,5.54,7.82,9.9,9.28l0.88-3.84c0.19-0.84,1.03-1.37,1.88-1.18c0.52,0.12,0.92,0.49,1.11,0.95
					c0.11,0.28,0.14,0.6,0.07,0.92l-0.88,3.84c2.6,0.33,5.3,0.1,7.91-0.93c8.26-3.26,12.31-12.6,9.04-20.86
					c-3.26-8.26-12.6-12.31-20.86-9.04C1357.02,1393.26,1352.97,1402.6,1356.23,1410.85z"></path>
				<g>
					
						<rect x="1355.84" y="1444.31" transform="matrix(0.2227 -0.9749 0.9749 0.2227 -353.5613 2448.3025)" style="fill:none;stroke:#000000;stroke-linecap:round;stroke-linejoin:round;stroke-miterlimit:10;" width="5.58" height="3.14"></rect>
					
						<rect x="1361.95" y="1445.71" transform="matrix(0.2228 -0.9749 0.9749 0.2228 -350.1774 2455.3374)" style="fill:none;stroke:#000000;stroke-linecap:round;stroke-linejoin:round;stroke-miterlimit:10;" width="5.58" height="3.13"></rect>
				</g>
				<g>
					<path style="fill:none;stroke:#000000;stroke-linecap:round;stroke-linejoin:round;stroke-miterlimit:10;" d="M1363.45,1431.83
						c-1.51-0.1-3.06,0.08-4.56,0.68c-5.38,2.13-8.02,8.22-5.89,13.6c1.1,2.79,3.27,4.82,5.85,5.85L1363.45,1431.83z"></path>
					<path style="fill:none;stroke:#000000;stroke-linecap:round;stroke-linejoin:round;stroke-miterlimit:10;" d="M1361.9,1452.66
						c1.55,0.13,3.15-0.05,4.69-0.66c5.38-2.13,8.02-8.22,5.89-13.6c-1.12-2.83-3.34-4.87-5.97-5.89L1361.9,1452.66z"></path>
				</g>
				<g>
					<path style="fill:none;stroke:#000000;stroke-linecap:round;stroke-linejoin:round;stroke-miterlimit:10;" d="M1370,1416.06
						c0.11,0.28,0.14,0.6,0.07,0.92l-9.36,40.86c-0.19,0.84-1.03,1.37-1.88,1.18c-0.84-0.19-1.37-1.03-1.18-1.88l9.35-40.86
						c0.19-0.84,1.03-1.37,1.88-1.18C1369.41,1415.23,1369.81,1415.6,1370,1416.06z"></path>
				</g>
			</g>
			<g>
				
					<circle style="fill:none;stroke:#000000;stroke-linecap:round;stroke-linejoin:round;stroke-miterlimit:10;" cx="1724.33" cy="1409.52" r="6.3"></circle>
				
					<circle style="fill:none;stroke:#000000;stroke-linecap:round;stroke-linejoin:round;stroke-miterlimit:10;" cx="1724.33" cy="1409.52" r="4.46"></circle>
				
					<line style="fill:none;stroke:#000000;stroke-linecap:round;stroke-linejoin:round;stroke-miterlimit:10;" x1="1727.53" y1="1414.59" x2="1729.88" y2="1418.34"></line>
				<path style="fill:none;stroke:#000000;stroke-linecap:round;stroke-linejoin:round;stroke-miterlimit:10;" d="M1717.94,1424.27
					c4.54,1.97,9.45,1.61,13.56-0.44l-2.1-3.34c-0.46-0.73-0.24-1.7,0.5-2.16c0.45-0.29,1-0.31,1.46-0.11
					c0.28,0.12,0.53,0.33,0.7,0.6l2.09,3.34c2.07-1.6,3.82-3.68,4.94-6.25c3.53-8.15-0.21-17.62-8.36-21.15
					c-8.15-3.53-17.61,0.21-21.15,8.36C1706.05,1411.27,1709.79,1420.74,1717.94,1424.27z"></path>
				<g>
					
						<rect x="1742.83" y="1444.56" transform="matrix(0.8468 -0.5318 0.5318 0.8468 -502.5922 1149.3909)" style="fill:none;stroke:#000000;stroke-linecap:round;stroke-linejoin:round;stroke-miterlimit:10;" width="3.14" height="5.58"></rect>
					
						<rect x="1748.14" y="1441.23" transform="matrix(0.8469 -0.5318 0.5318 0.8469 -500.0042 1151.6921)" style="fill:none;stroke:#000000;stroke-linecap:round;stroke-linejoin:round;stroke-miterlimit:10;" width="3.13" height="5.58"></rect>
				</g>
				<g>
					<path style="fill:none;stroke:#000000;stroke-linecap:round;stroke-linejoin:round;stroke-miterlimit:10;" d="M1737.87,1434
						c-1.14,0.99-2.1,2.22-2.75,3.7c-2.3,5.31,0.14,11.48,5.45,13.78c2.75,1.19,5.72,1.09,8.27,0L1737.87,1434z"></path>
					<path style="fill:none;stroke:#000000;stroke-linecap:round;stroke-linejoin:round;stroke-miterlimit:10;" d="M1751.5,1449.83
						c1.19-1.01,2.19-2.26,2.85-3.79c2.3-5.31-0.14-11.48-5.45-13.78c-2.79-1.21-5.81-1.08-8.39,0.06L1751.5,1449.83z"></path>
				</g>
				<g>
					<path style="fill:none;stroke:#000000;stroke-linecap:round;stroke-linejoin:round;stroke-miterlimit:10;" d="M1731.35,1418.22
						c0.28,0.12,0.53,0.33,0.7,0.6l22.28,35.51c0.46,0.73,0.24,1.7-0.5,2.16c-0.73,0.46-1.7,0.24-2.16-0.49l-22.28-35.51
						c-0.46-0.73-0.24-1.7,0.5-2.16C1730.35,1418.05,1730.89,1418.02,1731.35,1418.22z"></path>
				</g>
			</g>
		</g>
		<g>
			<path style="fill:none;stroke:#000000;stroke-linecap:round;stroke-linejoin:round;stroke-miterlimit:10;" d="M1534.61,1228.37
				c-2.28,9.19-5.99,17.96-11,26l-2.33,3.74c-1.04,1.67-0.15,3.87,1.76,4.35l4.28,1.06c7.25,1.79,14.32,4.17,21.17,7.08
				c-4.08,4.71-7.84,9.69-11.19,14.96l-0.01,0.01c-1.85,2.92-6.01,3.18-8.21,0.51l-0.01-0.01c-8.44-10.21-18.43-19.03-29.62-26.13
				l-0.01-0.01c-2.91-1.85-3.17-6.01-0.51-8.21l0.01-0.01c10.22-8.44,19.04-18.44,26.15-29.63l0.01-0.01
				c1.85-2.92,6.01-3.18,8.21-0.51l0.01,0.01c0.74,0.9,1.57,1.73,2.34,2.61L1534.61,1228.37z"></path>
			<path style="fill:none;stroke:#000000;stroke-linecap:round;stroke-linejoin:round;stroke-miterlimit:10;" d="M1588.45,1242.8
				l-4.28-1.06c-14.29-3.53-27.93-9.3-40.42-17.08l-3.74-2.33c-1.67-1.04-3.87-0.15-4.35,1.76l-1.06,4.28
				c-2.28,9.19-5.99,17.96-11,26l-2.33,3.74c-1.04,1.67-0.15,3.87,1.76,4.35l4.28,1.06c14.29,3.53,27.93,9.3,40.42,17.08l3.74,2.33
				c1.67,1.04,3.87,0.15,4.35-1.76l1.06-4.28c2.28-9.19,5.99-17.96,11-26l2.33-3.74C1591.26,1245.47,1590.36,1243.27,1588.45,1242.8
				z"></path>
		</g>
	</g>
	<g>
		<g>
			<g>
				
					<rect x="1521.24" y="751.16" transform="matrix(-1.930571e-06 -1 1 -1.930571e-06 670.6382 2384.0085)" style="fill:none;stroke:#000000;stroke-linecap:round;stroke-linejoin:round;stroke-miterlimit:10;" width="12.15" height="211.05"></rect>
				<polygon style="fill:none;stroke:#000000;stroke-linecap:round;stroke-linejoin:round;stroke-miterlimit:10;" points="
					1443.75,838.46 1421.8,850.61 1632.85,850.61 1610.89,838.46 				"></polygon>
			</g>
		</g>
	</g>
	<g>
		
			<rect x="138.46" y="458.1" style="fill:none;stroke:#000000;stroke-linecap:round;stroke-linejoin:round;stroke-miterlimit:10;" width="180.26" height="14"></rect>
		
			<rect x="138.38" y="472.1" style="fill:none;stroke:#000000;stroke-linecap:round;stroke-linejoin:round;stroke-miterlimit:10;" width="180.26" height="354.5"></rect>
		<path style="fill:none;stroke:#000000;stroke-linecap:round;stroke-linejoin:round;stroke-miterlimit:10;" d="M150.51,544.11
			l-0.11,266.13c0,2.58,1.8,4.67,4.03,4.67l148.04,0.06c2.22,0,4.03-2.09,4.03-4.67l0.11-266.13L150.51,544.11z"></path>
		<path style="fill:none;stroke:#000000;stroke-linecap:round;stroke-linejoin:round;stroke-miterlimit:10;" d="M174.18,544.12
			l-23.67-0.01l0.03-60.37c0-2.58,1.81-4.67,4.03-4.67l148.04,0.06c2.22,0,4.03,2.09,4.03,4.67l-0.03,60.37l-23.67-0.01l0.01-34.48
			c0-10.31-7.21-18.67-16.1-18.68l-76.53-0.03c-8.9,0-16.11,8.35-16.12,18.66L174.18,544.12z"></path>
	</g>
	<g>
		
			<circle style="fill:none;stroke:#000000;stroke-linecap:round;stroke-linejoin:round;stroke-miterlimit:10;" cx="212.58" cy="686.15" r="11"></circle>
		<g>
			
				<circle style="fill:none;stroke:#000000;stroke-linecap:round;stroke-linejoin:round;stroke-miterlimit:10;" cx="214.81" cy="683.64" r="1.18"></circle>
			
				<circle style="fill:none;stroke:#000000;stroke-linecap:round;stroke-linejoin:round;stroke-miterlimit:10;" cx="209.72" cy="687.91" r="1.18"></circle>
		</g>
		<polygon style="fill:none;stroke:#000000;stroke-linecap:round;stroke-linejoin:round;stroke-miterlimit:10;" points="
			216.51,687.13 212.87,690.19 216.22,690.48 		"></polygon>
		<path style="fill:none;stroke:#000000;stroke-linecap:round;stroke-linejoin:round;stroke-miterlimit:10;" d="M239.53,718.21
			L239.53,718.21c5.16-4.34,5.12-12.29-0.08-16.58l-10.16-8.38c-2.36-1.94-5.77-1.93-8.11,0.04l-3.05,2.56
			c-2.34,1.97-2.94,5.32-1.43,7.98l6.51,11.46C226.54,721.14,234.37,722.55,239.53,718.21z"></path>
		<path style="fill:none;stroke:#000000;stroke-linecap:round;stroke-linejoin:round;stroke-miterlimit:10;" d="M210,712.41
			l5.84-11.41l0.13,0.06c0.05,0.95,0.24,1.89,0.74,2.77l2.68,4.72l-3.52,6.87c-0.83,1.62-2.82,2.26-4.44,1.43
			C209.81,716.02,209.17,714.03,210,712.41z"></path>
		<path style="fill:none;stroke:#000000;stroke-linecap:round;stroke-linejoin:round;stroke-miterlimit:10;" d="M240.96,694.32
			l-7.55,2.34l-4.13-3.41c-0.73-0.6-1.57-0.95-2.44-1.18l-0.08-0.26l12.25-3.79c1.74-0.54,3.59,0.44,4.12,2.17
			C243.68,691.94,242.7,693.78,240.96,694.32z"></path>
		<path style="fill:none;stroke:#000000;stroke-linecap:round;stroke-linejoin:round;stroke-miterlimit:10;" d="M239.23,718.41
			l6.65,7.31c1.57,1.73,1.45,4.41-0.28,5.98c-1.73,1.57-4.41,1.45-5.98-0.28l-10.2-11.21C232.67,721.2,236.32,720.69,239.23,718.41z
			"></path>
		<path style="fill:none;stroke:#000000;stroke-linecap:round;stroke-linejoin:round;stroke-miterlimit:10;" d="M242.44,705.6
			l0.2-0.29l12.96,8.65c1.94,1.3,2.47,3.93,1.17,5.87c-1.3,1.94-3.93,2.47-5.87,1.17l-8.88-5.93
			C243.61,712.14,243.78,708.64,242.44,705.6z"></path>
		<path style="fill:none;stroke:#000000;stroke-linecap:round;stroke-linejoin:round;stroke-miterlimit:10;" d="M209.43,675.61
			l-5.08-16.51c-0.77-2.49,0.72-5.12,3.26-5.73c2.53-0.62,5.06,1.03,5.53,3.6l3.42,18.97C214.28,675.06,211.78,674.91,209.43,675.61
			z"></path>
		<path style="fill:none;stroke:#000000;stroke-linecap:round;stroke-linejoin:round;stroke-miterlimit:10;" d="M187.57,664.8
			c2-1.68,4.99-1.33,6.55,0.77l10.04,13.52c-1.8,2.14-2.65,4.82-2.54,7.5l-14.43-15.21C185.41,669.49,185.58,666.48,187.57,664.8z"></path>
	</g>
	<g>
		<g>
			<path style="fill:none;stroke:#000000;stroke-linecap:round;stroke-linejoin:round;stroke-miterlimit:10;" d="M440.45,512.96
				c-11.49,0-20.98,17.29-20.98,38.62c0,21.33,9.61,38.62,20.98,38.62h61.47c4.83,0,8.75-3.92,8.75-8.75v-59.74
				c0-4.83-3.92-8.75-8.75-8.75H440.45z"></path>
			<path style="fill:none;stroke:#000000;stroke-linecap:round;stroke-linejoin:round;stroke-miterlimit:10;" d="M440.45,498.92
				c-19.17,0-34.99,23.58-34.99,52.66c0,29.09,16.03,52.66,34.99,52.66h47.4c7.76,0,14.04-6.29,14.04-14.04l0,0h-61.44
				c-11.37,0-20.98-17.29-20.98-38.62c0-21.33,9.49-38.62,20.98-38.62h61.44l0,0c0-7.76-6.29-14.04-14.04-14.04H440.45z"></path>
		</g>
		
			<rect x="472.11" y="493.55" transform="matrix(4.437613e-10 1 -1 4.437613e-10 1124.8521 -32.6882)" style="fill:none;stroke:#000000;stroke-linecap:round;stroke-linejoin:round;stroke-miterlimit:10;" width="213.31" height="105.06"></rect>
		<g>
			<path style="fill:none;stroke:#000000;stroke-linecap:round;stroke-linejoin:round;stroke-miterlimit:10;" d="M539.23,523.97
				l0,75.09c0,0.5,0.4,0.9,0.9,0.9l50.69,0c0.5,0,0.9-0.4,0.9-0.9v-75.09c0-0.5-0.4-0.9-0.9-0.9l-50.69,0
				C539.64,523.07,539.23,523.47,539.23,523.97z"></path>
			
				<rect x="544.06" y="548.74" transform="matrix(-5.760504e-07 -1 1 -5.760504e-07 12.1526 1135.1797)" style="fill:none;stroke:#000000;stroke-linecap:round;stroke-linejoin:round;stroke-miterlimit:10;" width="59.21" height="25.54"></rect>
			
				<rect x="537.73" y="554.3" transform="matrix(-5.760516e-07 -1 1 -5.760516e-07 -11.8601 1111.167)" style="fill:none;stroke:#000000;stroke-linecap:round;stroke-linejoin:round;stroke-miterlimit:10;" width="23.84" height="14.43"></rect>
			<path style="fill:none;stroke:#000000;stroke-linecap:round;stroke-linejoin:round;stroke-miterlimit:10;" d="M591.73,523.07
				v76.89l16.34,8.54c2.28,1.19,5.02-0.46,5.02-3.04v-87.88c0-2.58-2.73-4.23-5.02-3.04L591.73,523.07z"></path>
		</g>
		<g>
			<g>
				<g>
					<g>
						<g>
							<path style="fill:none;stroke:#000000;stroke-linecap:round;stroke-linejoin:round;stroke-miterlimit:10;" d="M589.25,474.07
								c-0.71,0.67-1.01,1.67-0.79,2.62c0.48,2.09,1.51,6.01,3.27,10.05c0.14,0.31,0.6,0.24,0.63-0.1
								c0.29-4.19-0.04-8.04-0.31-10.23"></path>
							<path style="fill:none;stroke:#000000;stroke-linecap:round;stroke-linejoin:round;stroke-miterlimit:10;" d="M590.27,473.06
								c0.8-0.82,1.11-2,0.83-3.11c-0.53-2.09-1.59-5.73-3.27-9.55c-0.14-0.32-0.61-0.23-0.63,0.11c-0.28,4.19,0.09,7.96,0.39,10.08
								c0.98,0.45,1.71,1.29,2.01,2.33"></path>
						</g>
						<path style="fill:none;stroke:#000000;stroke-linecap:round;stroke-linejoin:round;stroke-miterlimit:10;" d="M601.7,479.51
							c-4.19-0.85-7.59-2.17-9.36-2.95c-0.85-0.37-1.55-1.03-1.98-1.85l-0.42-0.81c-0.09-0.18-0.01-0.39,0.18-0.46l0.71-0.25
							c1.14-0.4,2.39-0.27,3.43,0.34c1.74,1.04,4.64,2.89,7.71,5.4C602.23,479.15,602.03,479.58,601.7,479.51z M577.58,468.2
							c3.22,2.61,6.43,4.51,8.3,5.53c1.02,0.55,2.23,0.59,3.29,0.12l0.35-0.16c0.15-0.07,0.22-0.23,0.18-0.39l-0.11-0.37
							c-0.31-1.1-1.11-2-2.17-2.42c-1.97-0.79-5.49-2.06-9.57-2.87C577.52,467.56,577.32,467.99,577.58,468.2z"></path>
						<g>
							<path style="fill:none;stroke:#000000;stroke-linecap:round;stroke-linejoin:round;stroke-miterlimit:10;" d="M591.61,473.01
								c0.47-0.24,0.87-0.6,1.14-1.06c0.99-1.65,2.93-5.15,4.38-9.49c0.11-0.32-0.29-0.57-0.54-0.34c-2.51,2.41-4.53,4.8-5.86,6.5
								c0.14,0.49,0.26,0.94,0.36,1.33c0.28,1.11-0.03,2.28-0.83,3.11l-0.31,0.32"></path>
							<path style="fill:none;stroke:#000000;stroke-linecap:round;stroke-linejoin:round;stroke-miterlimit:10;" d="M589.52,473.68
								l-0.35,0.16c-0.55,0.25-1.13,0.35-1.71,0.32c-0.42,0.27-0.77,0.64-1.01,1.09c-0.96,1.82-2.67,5.29-4.02,9.43
								c-0.1,0.32,0.29,0.57,0.54,0.34c2.59-2.51,4.59-5.09,5.86-6.86c-0.14-0.55-0.26-1.05-0.36-1.46
								c-0.22-0.95,0.09-1.94,0.79-2.62l0.37-0.35"></path>
						</g>
						<g>
							<path style="fill:none;stroke:#000000;stroke-linecap:round;stroke-linejoin:round;stroke-miterlimit:10;" d="M588.32,474.1
								c-0.29,0.05-0.58,0.07-0.87,0.06l0,0C587.74,474.17,588.03,474.16,588.32,474.1z"></path>
							<path style="fill:none;stroke:#000000;stroke-linecap:round;stroke-linejoin:round;stroke-miterlimit:10;" d="M586.44,475.25
								c0.24-0.45,0.59-0.82,1.01-1.09c-0.54-0.03-1.08-0.17-1.57-0.44c-0.22-0.12-0.47-0.26-0.73-0.4
								c-2.33,0.95-5.34,2.33-8.13,4.02c-0.29,0.18-0.15,0.63,0.19,0.61c3.09-0.24,6.16-0.83,8.56-1.39
								C586.02,476.07,586.25,475.62,586.44,475.25z"></path>
							<path style="fill:none;stroke:#000000;stroke-linecap:round;stroke-linejoin:round;stroke-miterlimit:10;" d="M588.32,474.1
								c0.29-0.05,0.57-0.14,0.84-0.26C588.9,473.96,588.61,474.05,588.32,474.1z"></path>
							<path style="fill:none;stroke:#000000;stroke-linecap:round;stroke-linejoin:round;stroke-miterlimit:10;" d="M594.59,473.74
								c2.3-0.95,5.22-2.29,7.93-3.94c0.29-0.18,0.15-0.63-0.19-0.61c-3.2,0.25-6.4,0.87-8.83,1.45c-0.28,0.51-0.54,0.96-0.75,1.31"></path>
							<path style="fill:none;stroke:#000000;stroke-linecap:round;stroke-linejoin:round;stroke-miterlimit:10;" d="M588.32,474.1
								C588.32,474.1,588.32,474.1,588.32,474.1C588.32,474.1,588.32,474.1,588.32,474.1z"></path>
						</g>
					</g>
					<g>
						
							<line style="fill:none;stroke:#000000;stroke-linecap:round;stroke-linejoin:round;stroke-miterlimit:10;" x1="587.58" y1="470.59" x2="587.58" y2="470.59"></line>
						<path style="fill:none;stroke:#000000;stroke-linecap:round;stroke-linejoin:round;stroke-miterlimit:10;" d="M578.1,461.44
							c-0.36-0.22-0.78,0.21-0.56,0.57c1.44,2.36,3.33,4.89,4.76,6.72c2.13,0.63,3.91,1.29,5.12,1.77c0.06,0.02,0.11,0.06,0.17,0.09
							c-0.09-0.68-0.19-1.54-0.28-2.51C585.19,466.28,581.97,463.76,578.1,461.44z"></path>
						<path style="fill:none;stroke:#000000;stroke-linecap:round;stroke-linejoin:round;stroke-miterlimit:10;" d="M597.45,469.82
							c1.75-1.68,3.8-3.82,5.78-6.36c0.26-0.33-0.11-0.8-0.49-0.63c-2.32,1.04-5.2,2.61-7.22,3.74"></path>
						<path style="fill:none;stroke:#000000;stroke-linecap:round;stroke-linejoin:round;stroke-miterlimit:10;" d="M593.15,465.72
							c0.1-2.47,0.12-5.47-0.11-8.65c-0.03-0.43-0.62-0.53-0.79-0.13c-1.2,2.77-2.09,5.46-2.73,7.76"></path>
						<path style="fill:none;stroke:#000000;stroke-linecap:round;stroke-linejoin:round;stroke-miterlimit:10;" d="M597.61,475.67
							c2.73-0.2,5.86-0.55,8.94-1.19c0.42-0.09,0.45-0.69,0.04-0.8c-2.79-0.76-5.64-1.28-8.2-1.64"></path>
						<path style="fill:none;stroke:#000000;stroke-linecap:round;stroke-linejoin:round;stroke-miterlimit:10;" d="M582.07,471.45
							c-2.76,0.2-5.95,0.56-9.07,1.2c-0.42,0.09-0.45,0.69-0.04,0.8c2.79,0.76,5.64,1.28,8.2,1.65c1.43-0.69,2.8-1.29,3.99-1.78"></path>
						<path style="fill:none;stroke:#000000;stroke-linecap:round;stroke-linejoin:round;stroke-miterlimit:10;" d="M581.81,477.36
							c-1.68,1.72-3.6,3.85-5.5,6.31c-0.26,0.34,0.11,0.8,0.5,0.63c2.76-1.26,5.22-2.66,7.22-3.92"></path>
						<path style="fill:none;stroke:#000000;stroke-linecap:round;stroke-linejoin:round;stroke-miterlimit:10;" d="M588.81,478.15"></path>
						<path style="fill:none;stroke:#000000;stroke-linecap:round;stroke-linejoin:round;stroke-miterlimit:10;" d="M587.3,490.21
							c1.19-2.74,2.1-5.43,2.78-7.75c-0.55-1.63-0.97-3.11-1.28-4.31c-0.6,0.85-1.39,1.89-2.32,3.01c-0.15,2.55-0.21,5.64,0.02,8.91
							C586.54,490.49,587.13,490.6,587.3,490.21z"></path>
						<path style="fill:none;stroke:#000000;stroke-linecap:round;stroke-linejoin:round;stroke-miterlimit:10;" d="M592.29,478.89
							c1.92,1.74,5.09,4.36,9.16,6.81c0.36,0.22,0.78-0.2,0.56-0.57c-1.56-2.59-3.14-4.85-4.51-6.68"></path>
					</g>
				</g>
				<g>
					<path style="fill:none;stroke:#000000;stroke-linecap:round;stroke-linejoin:round;stroke-miterlimit:10;" d="M580.12,474.94
						c0.03,0.21,0.08,0.42,0.13,0.63"></path>
					<path style="fill:none;stroke:#000000;stroke-linecap:round;stroke-linejoin:round;stroke-miterlimit:10;" d="M597.99,479.11
						c0.1-0.14,0.2-0.29,0.29-0.44"></path>
					<path style="fill:none;stroke:#000000;stroke-linecap:round;stroke-linejoin:round;stroke-miterlimit:10;" d="M592.45,482.96
						c1.08-0.29,2.1-0.76,3.02-1.39"></path>
					<path style="fill:none;stroke:#000000;stroke-linecap:round;stroke-linejoin:round;stroke-miterlimit:10;" d="M585.53,482.27
						c0.29,0.14,0.59,0.27,0.89,0.38"></path>
					<path style="fill:none;stroke:#000000;stroke-linecap:round;stroke-linejoin:round;stroke-miterlimit:10;" d="M580.9,477.5
						c0.08,0.18,0.18,0.36,0.27,0.53"></path>
					<path style="fill:none;stroke:#000000;stroke-linecap:round;stroke-linejoin:round;stroke-miterlimit:10;" d="M589.83,483.28
						c0.18,0,0.36,0,0.54,0"></path>
					<path style="fill:none;stroke:#000000;stroke-linecap:round;stroke-linejoin:round;stroke-miterlimit:10;" d="M587.11,463.88
						c-1.12,0.33-2.18,0.86-3.11,1.56"></path>
					<path style="fill:none;stroke:#000000;stroke-linecap:round;stroke-linejoin:round;stroke-miterlimit:10;" d="M594.28,464.48
						c-0.35-0.17-0.71-0.32-1.08-0.45"></path>
					<path style="fill:none;stroke:#000000;stroke-linecap:round;stroke-linejoin:round;stroke-miterlimit:10;" d="M581.66,467.89
						c-0.12,0.18-0.24,0.37-0.35,0.57"></path>
					<path style="fill:none;stroke:#000000;stroke-linecap:round;stroke-linejoin:round;stroke-miterlimit:10;" d="M580.47,470.35
						c-0.07,0.21-0.13,0.42-0.18,0.64c-0.05,0.21-0.08,0.41-0.12,0.62"></path>
					<path style="fill:none;stroke:#000000;stroke-linecap:round;stroke-linejoin:round;stroke-miterlimit:10;" d="M596.54,466.01
						c-0.19-0.17-0.38-0.33-0.58-0.48"></path>
					<path style="fill:none;stroke:#000000;stroke-linecap:round;stroke-linejoin:round;stroke-miterlimit:10;" d="M599.75,472.25
						c-0.03-0.28-0.08-0.56-0.13-0.84"></path>
					<path style="fill:none;stroke:#000000;stroke-linecap:round;stroke-linejoin:round;stroke-miterlimit:10;" d="M599.2,476.81
						c0.13-0.34,0.24-0.69,0.33-1.05c0.02-0.09,0.03-0.17,0.05-0.26"></path>
					<path style="fill:none;stroke:#000000;stroke-linecap:round;stroke-linejoin:round;stroke-miterlimit:10;" d="M599.05,469.57
						c-0.13-0.31-0.27-0.61-0.43-0.9"></path>
					<path style="fill:none;stroke:#000000;stroke-linecap:round;stroke-linejoin:round;stroke-miterlimit:10;" d="M589.87,463.47
						c-0.27,0-0.54,0.01-0.8,0.03"></path>
				</g>
			</g>
		</g>
	</g>
	<g>
		
			<rect x="134.19" y="951.8" style="fill:none;stroke:#000000;stroke-linecap:round;stroke-linejoin:round;stroke-miterlimit:10;" width="337.05" height="108.68"></rect>
		
			<line style="fill:none;stroke:#000000;stroke-linecap:round;stroke-linejoin:round;stroke-miterlimit:10;" x1="134.15" y1="963.69" x2="471.2" y2="963.43"></line>
		
			<line style="fill:none;stroke:#000000;stroke-linecap:round;stroke-linejoin:round;stroke-miterlimit:10;" x1="361.79" y1="1060.48" x2="361.7" y2="951.76"></line>
		
			<line style="fill:none;stroke:#000000;stroke-linecap:round;stroke-linejoin:round;stroke-miterlimit:10;" x1="248.1" y1="1059.77" x2="248.01" y2="951.84"></line>
	</g>
	<g>
		
			<rect x="596.82" y="1299.2" transform="matrix(-3.485477e-04 -1 1 -3.485477e-04 -589.5797 2117.7017)" style="fill:none;stroke:#000000;stroke-linecap:round;stroke-linejoin:round;stroke-miterlimit:10;" width="333.74" height="108.68"></rect>
		
			<line style="fill:none;stroke:#000000;stroke-linecap:round;stroke-linejoin:round;stroke-miterlimit:10;" x1="721.17" y1="1520.43" x2="721.04" y2="1186.68"></line>
		
			<line style="fill:none;stroke:#000000;stroke-linecap:round;stroke-linejoin:round;stroke-miterlimit:10;" x1="818.05" y1="1295.06" x2="709.33" y2="1295.11"></line>
		
			<line style="fill:none;stroke:#000000;stroke-linecap:round;stroke-linejoin:round;stroke-miterlimit:10;" x1="817.3" y1="1407.64" x2="709.37" y2="1407.68"></line>
	</g>
	<g>
		
			<rect x="1225.4" y="787.4" transform="matrix(-1 6.356952e-04 -6.356952e-04 -1 2634.1865 1680.2738)" style="fill:none;stroke:#000000;stroke-linecap:round;stroke-linejoin:round;stroke-miterlimit:10;" width="182.85" height="106.31"></rect>
		
			<line style="fill:none;stroke:#000000;stroke-linecap:round;stroke-linejoin:round;stroke-miterlimit:10;" x1="1408.25" y1="881.89" x2="1225.4" y2="882.02"></line>
		
			<line style="fill:none;stroke:#000000;stroke-linecap:round;stroke-linejoin:round;stroke-miterlimit:10;" x1="1316.81" y1="788.14" x2="1316.84" y2="893.69"></line>
	</g>
	<g>
		<path style="fill:none;stroke:#000000;stroke-linecap:round;stroke-linejoin:round;stroke-miterlimit:10;" d="M943.01,956.89"></path>
		<path style="fill:none;stroke:#000000;stroke-linecap:round;stroke-linejoin:round;stroke-miterlimit:10;" d="M891.63,992.22
			L878,978.65l2.61-2.03l-17.09,1.2c0,0.02,0.01,0.04,0.01,0.06l1.31,3.46c0.03,0.03,0.04,0.08,0.07,0.11l19.04,18.94
			c2.33,2.33,6.2,2.16,8.32-0.46C894.11,997.66,893.7,994.29,891.63,992.22z"></path>
		<path style="fill:none;stroke:#000000;stroke-linecap:round;stroke-linejoin:round;stroke-miterlimit:10;" d="M864.97,928.45"></path>
		<path style="fill:none;stroke:#000000;stroke-linecap:round;stroke-linejoin:round;stroke-miterlimit:10;" d="M864.08,930.1
			c-0.17-0.1-0.3-0.24-0.49-0.32c-14.19-5.45-22.3-21.67-18.76-36.9c1.21-5.22,3.45-8.85,6.78-12.57c-0.09-0.31-0.17-0.62-0.25-0.93
			c-0.06,0.05-0.13,0.09-0.19,0.14c-5.18,4.38-8.97,10.49-10.65,17.6c-3.81,16.16,5.18,32.51,20.4,38.24
			C861.78,933.51,862.84,931.74,864.08,930.1z"></path>
		
			<line style="fill:none;stroke:#000000;stroke-linecap:round;stroke-linejoin:round;stroke-miterlimit:10;" x1="887.34" y1="938.7" x2="902.85" y2="966.19"></line>
		<g>
			<path style="fill:none;stroke:#000000;stroke-linecap:round;stroke-linejoin:round;stroke-miterlimit:10;" d="M960.99,1001.69
				l-12.04-7.38l-0.14,0.51l0.5,7.51c0.11,1.69-0.47,3.23-1.42,4.48l7.23,4.43c2.64,1.62,6.09,0.79,7.71-1.85
				C964.46,1006.76,963.63,1003.31,960.99,1001.69z"></path>
		</g>
		<path style="fill:none;stroke:#000000;stroke-linecap:round;stroke-linejoin:round;stroke-miterlimit:10;" d="M936.09,1009.96
			l-2.32-3.06c-1.34-1.77-0.18-4.32,2.03-4.46l3.57-0.24c2.21-0.15,3.7,2.22,2.61,4.15l-1.89,3.35L936.09,1009.96z"></path>
		<path style="fill:none;stroke:#000000;stroke-linecap:round;stroke-linejoin:round;stroke-miterlimit:10;" d="M938.82,985.89
			c-0.75,0.92-0.61,2.27,0.31,3.02c0.92,0.75,2.27,0.61,3.02-0.31"></path>
		<path style="fill:none;stroke:#000000;stroke-linecap:round;stroke-linejoin:round;stroke-miterlimit:10;" d="M930.69,989.82
			c1.01,0.62,2.33,0.29,2.95-0.72c0.62-1.01,0.29-2.33-0.72-2.95"></path>
		<g>
			<g>
				<path style="fill:none;stroke:#000000;stroke-linecap:round;stroke-linejoin:round;stroke-miterlimit:10;" d="M946.83,992.38
					c-1.54-0.82-4.42,0.22-5.2,1.52"></path>
			</g>
		</g>
		<g>
			<g>
				<path style="fill:none;stroke:#000000;stroke-linecap:round;stroke-linejoin:round;stroke-miterlimit:10;" d="M926.97,993.71
					c1.41-1.02,4.41-0.37,5.36,0.82"></path>
			</g>
		</g>
		
			<line style="fill:none;stroke:#000000;stroke-linecap:round;stroke-linejoin:round;stroke-miterlimit:10;" x1="938.09" y1="1009.83" x2="937.92" y2="1007.31"></line>
		<path style="fill:none;stroke:#000000;stroke-linecap:round;stroke-linejoin:round;stroke-miterlimit:10;" d="M898.23,958
			c0,0,1.82,6.65-1.2,11.52c-2.57,4.16-6.81,6.28-11.44,6.74l0,0.01l-0.4,0.03c-0.21,0.02-0.42,0.04-0.63,0.04l-21.05,1.48
			l6.82,17.98c1.04,2.73,0.02,5.98-2.59,7.29c-3.01,1.52-6.61,0.08-7.77-3.01l-9.53-25.11c-1.02-2.69,0.55-5.68,3.36-6.35l11-2.64
			c-4.98-6.82-6.49-13.58-6.44-19.24c0.07-8.17,3.8-16,10.1-21.21c0.15-0.13,0.29-0.23,0.41-0.31c5.7-3.95,19.52-12.95,43.95-4.49
			c38.86,13.45,42.06,45.71,42.06,45.71"></path>
		<path style="fill:none;stroke:#000000;stroke-linecap:round;stroke-linejoin:round;stroke-miterlimit:10;" d="M956.79,969.91
			c4.37-0.29,7.31,4.39,5.16,8.2l-0.62,1.09l18.98,24.22c4.68,5.69,13.25-0.96,8.82-6.91l-27.45-35.02
			c-1.26-1.61-3.02-2.74-5.01-3.23l-4.27-1.04"></path>
		<path style="fill:none;stroke:#000000;stroke-linecap:round;stroke-linejoin:round;stroke-miterlimit:10;" d="M916,954.83
			l-10.51,8.35c-5.04,3.95-5.92,11.24-1.97,16.28l4.52,5.76c3.83,4.89,9.74,7.14,15.49,6.56"></path>
		<path style="fill:none;stroke:#000000;stroke-linecap:round;stroke-linejoin:round;stroke-miterlimit:10;" d="M910.22,981.57
			l5.72,7.54c1.16,1.53,3.5,1.37,4.44-0.3l9.69-17.12l-15.84,1.06C909.87,973.04,907.58,978.08,910.22,981.57z"></path>
		<path style="fill:none;stroke:#000000;stroke-linecap:round;stroke-linejoin:round;stroke-miterlimit:10;" d="M923.82,969.01
			c-1.96,0.55-3.54,1.81-4.58,3.41l10.84-0.72l-8.62,15.23l4.01,9.46l0.5,7.51c0.25,3.71,3.45,6.51,7.16,6.27l9.92-0.66
			c3.71-0.25,6.51-3.45,6.27-7.16l-0.5-7.51l2.71-9.91l-10.57-13.94l10.89-0.73c-1.59-1.87-4-3.05-6.74-2.86l-2.31,0.15"></path>
		<path style="fill:none;stroke:#000000;stroke-linecap:round;stroke-linejoin:round;stroke-miterlimit:10;" d="M940.96,970.97
			l11.89,15.68c1.16,1.53,3.5,1.37,4.44-0.3l4.66-8.24c2.16-3.81-0.79-8.5-5.16-8.2L940.96,970.97z"></path>
	</g>
	<g>
		<path style="fill:none;stroke:#000000;stroke-linecap:round;stroke-linejoin:round;stroke-miterlimit:10;" d="M1754.15,899.08
			c0.72,2.75,0.81,5.67,0.19,8.53"></path>
		<path style="fill:none;stroke:#000000;stroke-linecap:round;stroke-linejoin:round;stroke-miterlimit:10;" d="M1737.98,885.4
			c2.16,0.19,4.32,0.77,6.39,1.77c0.48,0.23,0.94,0.48,1.39,0.75"></path>
		<path style="fill:none;stroke:#000000;stroke-linecap:round;stroke-linejoin:round;stroke-miterlimit:10;" d="M1720.71,894.06
			c0.44-0.72,0.93-1.4,1.45-2.03"></path>
		<path style="fill:none;stroke:#000000;stroke-linecap:round;stroke-linejoin:round;stroke-miterlimit:10;" d="M1740.7,921.6
			c-0.68,0.17-1.38,0.29-2.08,0.38"></path>
		<path style="fill:none;stroke:#000000;stroke-linecap:round;stroke-linejoin:round;stroke-miterlimit:10;" d="M1752.41,900.63
			c0.38,1.99,0.4,4.05,0.02,6.1"></path>
		<path style="fill:none;stroke:#000000;stroke-linecap:round;stroke-linejoin:round;stroke-miterlimit:10;" d="M1738.72,887.55
			c1.61,0.24,3.22,0.72,4.76,1.47"></path>
		<g>
			<path style="fill:none;stroke:#000000;stroke-linecap:round;stroke-linejoin:round;stroke-miterlimit:10;" d="M1720.36,913.86
				c-1.11,1.48-2.11,3.12-2.97,4.89c-4.14,8.54-3.73,17.74,0.43,23.3c6.94-0.18,14.41-5.56,18.55-14.1c0.92-1.9,1.62-3.84,2.1-5.76
				c0.25-1,0.44-2,0.57-2.98"></path>
			<path style="fill:none;stroke:#000000;stroke-linecap:round;stroke-linejoin:round;stroke-miterlimit:10;" d="M1737.18,906.62
				c-0.09-0.18-0.19-0.36-0.29-0.53c-0.54-0.94-1.6-1.45-2.67-1.29c-0.45,0.07-0.9,0.15-1.34,0.26"></path>
			
				<line style="fill:none;stroke:#000000;stroke-linecap:round;stroke-linejoin:round;stroke-miterlimit:10;" x1="1717.81" y1="942.04" x2="1737.1" y2="902.25"></line>
		</g>
		<g>
			<path style="fill:none;stroke:#000000;stroke-linecap:round;stroke-linejoin:round;stroke-miterlimit:10;" d="M1764.51,935.36
				c2.74-6.37,0.98-15.41-5.04-22.75c-5.53-6.73-13.17-10.22-19.63-9.62c-1.08,0.1-1.99,0.84-2.29,1.88
				c-1.84,6.22,0.1,14.39,5.63,21.12C1749.2,933.33,1757.73,936.81,1764.51,935.36z"></path>
			
				<line style="fill:none;stroke:#000000;stroke-linecap:round;stroke-linejoin:round;stroke-miterlimit:10;" x1="1764.51" y1="935.36" x2="1737.18" y2="902.29"></line>
		</g>
		<g>
			<path style="fill:none;stroke:#000000;stroke-linecap:round;stroke-linejoin:round;stroke-miterlimit:10;" d="M1733.5,901.1
				c0.54,0.15,1.09,0.26,1.63,0.33c1.11,0.15,2.19-0.42,2.69-1.42"></path>
			<path style="fill:none;stroke:#000000;stroke-linecap:round;stroke-linejoin:round;stroke-miterlimit:10;" d="M1739.27,894.49
				c0.3-3.77-0.57-8.01-2.69-12.03c-3.64-6.87-9.92-11.06-15.61-11c-3.24,4.67-3.31,12.22,0.34,19.09c0.76,1.44,1.64,2.76,2.6,3.95"></path>
			
				<line style="fill:none;stroke:#000000;stroke-linecap:round;stroke-linejoin:round;stroke-miterlimit:10;" x1="1737.07" y1="902.3" x2="1720.97" y2="871.46"></line>
		</g>
		<g>
			<path style="fill:none;stroke:#000000;stroke-linecap:round;stroke-linejoin:round;stroke-miterlimit:10;" d="M1760.74,886.02
				c-4.09-2.2-10.22-1.56-15.46,2.03c-4.52,3.09-7.24,7.6-7.54,11.74c-0.09,1.21,0.68,2.33,1.84,2.69
				c3.96,1.22,9.15,0.32,13.67-2.77C1758.49,896.11,1761.31,890.63,1760.74,886.02z"></path>
			
				<line style="fill:none;stroke:#000000;stroke-linecap:round;stroke-linejoin:round;stroke-miterlimit:10;" x1="1760.74" y1="886.02" x2="1737.03" y2="902.28"></line>
		</g>
		<g>
			<path style="fill:none;stroke:#000000;stroke-linecap:round;stroke-linejoin:round;stroke-miterlimit:10;" d="M1709.89,909.6
				c1.15-3.75,4.82-7.22,9.85-8.76c4.51-1.38,9-0.88,12.08,1.01c0.85,0.52,1.3,1.43,1.31,2.37c0.19-0.24,0.4-0.46,0.56-0.71
				c0.4-0.6,0.42-1.39,0.03-2c-2.85-4.57-9.06-7.8-16.31-7.92c-7.78-0.13-14.48,3.34-17.17,8.35
				C1701.93,905.34,1705.44,908.09,1709.89,909.6z"></path>
		</g>
		
			<line style="fill:none;stroke:#000000;stroke-linecap:round;stroke-linejoin:round;stroke-miterlimit:10;" x1="1715.48" y1="902.65" x2="1700.25" y2="901.94"></line>
		<path style="fill:none;stroke:#000000;stroke-linecap:round;stroke-linejoin:round;stroke-miterlimit:10;" d="M1709.61,910.6
			c2.93,2.99,8.37,4.09,13.85,2.41c4.51-1.38,7.95-4.31,9.44-7.6c0.59-1.29,0.12-2.82-1.09-3.56c-3.08-1.89-7.57-2.39-12.08-1.01
			C1714.26,902.52,1710.36,906.48,1709.61,910.6z"></path>
		
			<line style="fill:none;stroke:#000000;stroke-linecap:round;stroke-linejoin:round;stroke-miterlimit:10;" x1="1709.61" y1="910.6" x2="1737.52" y2="902.14"></line>
	</g>
	<g>
		<path style="fill:none;stroke:#000000;stroke-linecap:round;stroke-linejoin:round;stroke-miterlimit:10;" d="M710.9,823.55
			c1.43-2.45,3.44-4.58,5.9-6.17"></path>
		<path style="fill:none;stroke:#000000;stroke-linecap:round;stroke-linejoin:round;stroke-miterlimit:10;" d="M712.66,844.65
			c-1.39-1.66-2.51-3.6-3.27-5.77c-0.17-0.5-0.32-1-0.45-1.51"></path>
		<path style="fill:none;stroke:#000000;stroke-linecap:round;stroke-linejoin:round;stroke-miterlimit:10;" d="M731,850.74
			c-0.82,0.19-1.64,0.33-2.46,0.41"></path>
		<path style="fill:none;stroke:#000000;stroke-linecap:round;stroke-linejoin:round;stroke-miterlimit:10;" d="M736.34,817.14
			c0.6,0.37,1.18,0.77,1.74,1.2"></path>
		<path style="fill:none;stroke:#000000;stroke-linecap:round;stroke-linejoin:round;stroke-miterlimit:10;" d="M713.23,823.68
			c1.13-1.68,2.58-3.15,4.3-4.33"></path>
		<path style="fill:none;stroke:#000000;stroke-linecap:round;stroke-linejoin:round;stroke-miterlimit:10;" d="M713.66,842.61
			c-0.97-1.31-1.77-2.78-2.33-4.41"></path>
		<g>
			<path style="fill:none;stroke:#000000;stroke-linecap:round;stroke-linejoin:round;stroke-miterlimit:10;" d="M745.25,836.99
				c1.83-0.26,3.7-0.71,5.56-1.36c8.97-3.11,15.18-9.91,16.17-16.78c-5.03-4.78-14.12-6.26-23.09-3.15c-2,0.69-3.86,1.57-5.56,2.59
				c-0.88,0.53-1.72,1.1-2.51,1.7"></path>
			<path style="fill:none;stroke:#000000;stroke-linecap:round;stroke-linejoin:round;stroke-miterlimit:10;" d="M728.24,830.21
				c-0.06,0.19-0.12,0.39-0.17,0.59c-0.28,1.05,0.1,2.16,0.97,2.8c0.36,0.27,0.74,0.53,1.13,0.77"></path>
			
				<line style="fill:none;stroke:#000000;stroke-linecap:round;stroke-linejoin:round;stroke-miterlimit:10;" x1="766.98" y1="818.86" x2="725.2" y2="833.37"></line>
		</g>
		<g>
			<path style="fill:none;stroke:#000000;stroke-linecap:round;stroke-linejoin:round;stroke-miterlimit:10;" d="M729.23,790.57
				c-6.44,2.57-11.59,10.2-12.52,19.65c-0.85,8.67,2.09,16.53,7.08,20.68c0.83,0.69,2,0.81,2.95,0.29
				c5.7-3.1,10.11-10.25,10.96-18.92C738.62,802.83,735.05,794.34,729.23,790.57z"></path>
			
				<line style="fill:none;stroke:#000000;stroke-linecap:round;stroke-linejoin:round;stroke-miterlimit:10;" x1="729.23" y1="790.57" x2="725.17" y2="833.28"></line>
		</g>
		<g>
			<path style="fill:none;stroke:#000000;stroke-linecap:round;stroke-linejoin:round;stroke-miterlimit:10;" d="M726.94,836.72
				c-0.28-0.49-0.59-0.95-0.92-1.39c-0.67-0.89-1.85-1.25-2.91-0.89"></path>
			<path style="fill:none;stroke:#000000;stroke-linecap:round;stroke-linejoin:round;stroke-miterlimit:10;" d="M718.18,837.31
				c-2.87,2.45-5.26,6.07-6.6,10.41c-2.29,7.44-0.8,14.84,3.26,18.82c5.6-1.01,10.98-6.3,13.26-13.74c0.48-1.56,0.79-3.11,0.95-4.63
				"></path>
			
				<line style="fill:none;stroke:#000000;stroke-linecap:round;stroke-linejoin:round;stroke-miterlimit:10;" x1="725.26" y1="833.34" x2="714.84" y2="866.54"></line>
		</g>
		<g>
			<path style="fill:none;stroke:#000000;stroke-linecap:round;stroke-linejoin:round;stroke-miterlimit:10;" d="M697.01,828.12
				c1.33,4.45,6.12,8.33,12.37,9.5c5.39,1.01,10.49-0.25,13.63-2.97c0.92-0.8,1.17-2.12,0.6-3.2c-1.94-3.67-6.24-6.7-11.63-7.71
				C705.74,822.58,699.87,824.46,697.01,828.12z"></path>
			
				<line style="fill:none;stroke:#000000;stroke-linecap:round;stroke-linejoin:round;stroke-miterlimit:10;" x1="697.01" y1="828.12" x2="725.27" y2="833.39"></line>
		</g>
		<g>
			<path style="fill:none;stroke:#000000;stroke-linecap:round;stroke-linejoin:round;stroke-miterlimit:10;" d="M749.64,847.4
				c-3.46,1.84-8.51,1.7-13.16-0.77c-4.17-2.21-6.99-5.74-7.83-9.26c-0.23-0.97,0.09-1.93,0.74-2.6c-0.3,0.04-0.61,0.04-0.9,0.1
				c-0.71,0.14-1.28,0.69-1.44,1.39c-1.21,5.25,0.89,11.92,5.93,17.14c5.4,5.59,12.6,7.88,18.05,6.24
				C752.25,856.05,751.71,851.62,749.64,847.4z"></path>
		</g>
		
			<line style="fill:none;stroke:#000000;stroke-linecap:round;stroke-linejoin:round;stroke-miterlimit:10;" x1="740.77" y1="848.37" x2="751.04" y2="859.64"></line>
		<path style="fill:none;stroke:#000000;stroke-linecap:round;stroke-linejoin:round;stroke-miterlimit:10;" d="M750.54,846.89
			c0.05-4.19-3.03-8.81-8.09-11.5c-4.17-2.21-8.67-2.58-12.05-1.3c-1.33,0.5-2.07,1.91-1.75,3.29c0.84,3.51,3.66,7.04,7.83,9.26
			C741.54,849.31,747.1,849.27,750.54,846.89z"></path>
		
			<line style="fill:none;stroke:#000000;stroke-linecap:round;stroke-linejoin:round;stroke-miterlimit:10;" x1="750.54" y1="846.89" x2="724.82" y2="833.15"></line>
	</g>
	<g>
		<g>
			<g>
				
					<rect x="699.32" y="482.46" transform="matrix(-1 1.001494e-04 -1.001494e-04 -1 1413.7245 1226.9865)" style="fill:none;stroke:#000000;stroke-linecap:round;stroke-linejoin:round;stroke-miterlimit:10;" width="15.02" height="262.13"></rect>
				<polygon style="fill:none;stroke:#000000;stroke-linecap:round;stroke-linejoin:round;stroke-miterlimit:10;" points="
					684.29,509.73 699.31,482.46 699.33,744.6 684.31,717.33 				"></polygon>
			</g>
		</g>
		<g>
			
				<rect x="684.29" y="467.93" style="fill:none;stroke:#000000;stroke-linecap:round;stroke-linejoin:round;stroke-miterlimit:10;" width="55.57" height="291.2"></rect>
		</g>
	</g>
	<g>
		<path style="fill:none;stroke:#000000;stroke-linecap:round;stroke-linejoin:round;stroke-miterlimit:10;" d="M844.86,687.39
			c8.42,0,37.97,0,46.39,0c8.61,0,13.01-7.42,14.45-16.63c5.23-37.57,5.23-75.74,0-113.31c-1.44-9.21-5.84-16.63-14.45-16.63
			c-8.42,0-37.97,0-46.39,0c-8.61,0-13.01,7.42-14.45,16.63c-5.23,37.57-5.23,75.74,0,113.31
			C831.85,679.97,836.25,687.39,844.86,687.39z"></path>
		<g>
			<polygon style="fill:none;stroke:#000000;stroke-linecap:round;stroke-linejoin:round;stroke-miterlimit:10;" points="
				854.04,616.25 851.75,620.46 883.61,637.72 886.49,632.42 889.37,637.16 866.34,651.18 847.5,620.23 			"></polygon>
			
				<line style="fill:none;stroke:#000000;stroke-linecap:round;stroke-linejoin:round;stroke-miterlimit:10;" x1="855.26" y1="613.99" x2="849.33" y2="607.47"></line>
			
				<line style="fill:none;stroke:#000000;stroke-linecap:round;stroke-linejoin:round;stroke-miterlimit:10;" x1="868.14" y1="650.09" x2="849.3" y2="619.13"></line>
			<g>
				<polygon style="fill:none;stroke:#000000;stroke-linecap:round;stroke-linejoin:round;stroke-miterlimit:10;" points="
					864.6,596.75 854.2,615.95 847.77,608.89 867.73,590.75 881.51,605.92 				"></polygon>
				<polygon style="fill:none;stroke:#000000;stroke-linecap:round;stroke-linejoin:round;stroke-miterlimit:10;" points="
					875.04,633.08 872.14,635.7 864.64,627.44 				"></polygon>
			</g>
			
				<rect x="855.99" y="603.75" transform="matrix(-0.8793 -0.4763 0.4763 -0.8793 1348.6818 1576.3092)" style="fill:none;stroke:#000000;stroke-linecap:round;stroke-linejoin:round;stroke-miterlimit:10;" width="36.24" height="26.97"></rect>
			
				<line style="fill:none;stroke:#000000;stroke-linecap:round;stroke-linejoin:round;stroke-miterlimit:10;" x1="884.62" y1="635.87" x2="852.76" y2="618.61"></line>
		</g>
	</g>
	<g>
		<g>
			<path style="fill:none;stroke:#000000;stroke-linecap:round;stroke-linejoin:round;stroke-miterlimit:10;" d="M1093.85,617.26
				l0.02-182.09c0-0.87-0.71-1.58-1.58-1.58l-118.69-0.02c-0.87,0-1.58,0.71-1.58,1.58L972,617.24c0,0.87,0.71,1.58,1.58,1.58
				l118.69,0.02C1093.14,618.84,1093.85,618.13,1093.85,617.26z"></path>
			<path style="fill:none;stroke:#000000;stroke-linecap:round;stroke-linejoin:round;stroke-miterlimit:10;" d="M1093.85,617.26
				l0.02-182.09c0-0.87,0.71-1.58,1.58-1.58l35.14,0c0.87,0,1.58,0.71,1.58,1.58l-0.02,182.09c0,0.87-0.71,1.58-1.58,1.58l-35.14,0
				C1094.56,618.84,1093.85,618.13,1093.85,617.26z"></path>
			<path style="fill:none;stroke:#000000;stroke-linecap:round;stroke-linejoin:round;stroke-miterlimit:10;" d="M1093.85,620.42
				l-0.02,181.62c0,0.87-0.71,1.58-1.58,1.58l-118.69-0.02c-0.87,0-1.58-0.71-1.58-1.58L972,620.4c0-0.87,0.71-1.58,1.58-1.58
				l118.69,0.02C1093.14,618.84,1093.85,619.55,1093.85,620.42z"></path>
			<path style="fill:none;stroke:#000000;stroke-linecap:round;stroke-linejoin:round;stroke-miterlimit:10;" d="M1093.85,620.42
				l-0.02,181.62c0,0.87,0.71,1.58,1.58,1.58l35.14,0c0.87,0,1.58-0.71,1.58-1.58l0.02-181.62c0-0.87-0.71-1.58-1.58-1.58l-35.14,0
				C1094.56,618.84,1093.85,619.55,1093.85,620.42z"></path>
		</g>
		<g>
			<g>
				<path style="fill:none;stroke:#000000;stroke-linecap:round;stroke-linejoin:round;stroke-miterlimit:10;" d="M1069.96,521.68
					c-0.08-0.09-0.17-0.18-0.27-0.26c-5.32-4.35-10.32-9.14-14.89-14.26c-4.56-5.12-8.75-10.64-12.46-16.41
					c-0.08-0.12-0.15-0.22-0.24-0.31c-0.44-0.49-1.08-0.77-1.76-0.75c-0.39,0.01-1.12,0.13-1.7,0.81l-0.03,0.04
					c-8.73,10.68-19.05,19.88-30.66,27.34l-0.06,0.04c-0.73,0.5-0.93,1.2-0.98,1.58c-0.09,0.67,0.11,1.34,0.55,1.83
					c0.08,0.09,0.17,0.18,0.27,0.26c5.32,4.35,10.32,9.14,14.89,14.26c4.56,5.12,8.75,10.64,12.46,16.41
					c0.08,0.12,0.15,0.22,0.23,0.31c0.44,0.49,1.08,0.77,1.76,0.76c0.39-0.01,1.12-0.13,1.7-0.81l0.03-0.04
					c8.73-10.68,19.05-19.88,30.66-27.34l0.06-0.04c0.73-0.5,0.93-1.2,0.98-1.58C1070.6,522.84,1070.4,522.17,1069.96,521.68z"></path>
			</g>
			<path style="fill:none;stroke:#000000;stroke-linecap:round;stroke-linejoin:round;stroke-miterlimit:10;" d="M1038.61,490.54
				l0.03-0.04c0.58-0.68,1.31-0.8,1.7-0.81c0.68-0.01,1.32,0.26,1.76,0.75c0.08,0.09,0.16,0.19,0.24,0.31
				c3.26,5.08,6.95,9.91,10.88,14.49c5.07-1.94,10.24-3.66,15.54-4.97l0.05-0.01c0.87-0.23,1.29-0.84,1.46-1.18
				c0.3-0.61,0.33-1.3,0.07-1.91c-0.05-0.11-0.11-0.23-0.18-0.35c-3.62-5.82-6.8-11.98-9.46-18.3s-4.84-12.9-6.48-19.57
				c-0.03-0.12-0.07-0.24-0.12-0.36c-0.26-0.61-0.77-1.08-1.42-1.28c-0.37-0.12-1.09-0.24-1.85,0.21l-0.06,0.04
				c-11.72,7.28-24.46,12.64-37.86,15.93l-0.05,0.01c-0.87,0.23-1.29,0.84-1.46,1.19c-0.3,0.61-0.33,1.3-0.07,1.91
				c0.05,0.11,0.11,0.23,0.18,0.35c3.62,5.82,6.8,11.98,9.46,18.3c1.36,3.23,2.59,6.53,3.69,9.88
				C1029.66,500.64,1034.33,495.77,1038.61,490.54z"></path>
			<path style="fill:none;stroke:#000000;stroke-linecap:round;stroke-linejoin:round;stroke-miterlimit:10;" d="M1038.61,490.54
				l0.03-0.04c0.58-0.68,1.31-0.8,1.7-0.81c0.68-0.01,1.32,0.26,1.76,0.75c0.08,0.09,0.16,0.19,0.24,0.31
				c3.71,5.77,7.9,11.29,12.46,16.41c0.13,0.14,0.27,0.27,0.4,0.41c4.67-1.74,9.4-3.31,14.26-4.5l0.01,0
				c3.41-0.84,5.01-4.76,3.16-7.74l-0.01-0.01c-7.11-11.45-12.37-23.94-15.58-37.03l0-0.01c-0.84-3.41-4.76-5.01-7.74-3.16
				l-0.01,0.01c-11.45,7.11-23.94,12.37-37.03,15.58l-0.01,0c-3.41,0.84-5.01,4.76-3.16,7.74l0.01,0.01
				c5.58,8.99,9.97,18.63,13.18,28.69C1028.17,502.1,1033.67,496.59,1038.61,490.54z"></path>
		</g>
		<g>
			<g>
				<path style="fill:none;stroke:#000000;stroke-linecap:round;stroke-linejoin:round;stroke-miterlimit:10;" d="M1068.49,727.14
					c-0.08,0.09-0.17,0.18-0.27,0.26c-5.32,4.35-10.33,9.14-14.89,14.26c-4.56,5.12-8.76,10.63-12.46,16.4
					c-0.08,0.12-0.15,0.22-0.24,0.31c-0.44,0.49-1.08,0.77-1.76,0.75c-0.39-0.01-1.12-0.13-1.7-0.81l-0.03-0.04
					c-8.73-10.68-19.04-19.88-30.65-27.34l-0.06-0.04c-0.73-0.5-0.93-1.2-0.98-1.58c-0.09-0.67,0.11-1.34,0.55-1.83
					c0.08-0.09,0.17-0.18,0.27-0.26c5.32-4.35,10.33-9.14,14.89-14.26c4.56-5.12,8.76-10.63,12.46-16.4
					c0.08-0.12,0.15-0.22,0.23-0.31c0.44-0.49,1.08-0.77,1.76-0.76c0.39,0.01,1.12,0.13,1.7,0.81l0.03,0.04
					c8.73,10.68,19.04,19.88,30.65,27.34l0.06,0.04c0.73,0.5,0.93,1.2,0.98,1.58C1069.13,725.98,1068.93,726.65,1068.49,727.14z"></path>
			</g>
			<path style="fill:none;stroke:#000000;stroke-linecap:round;stroke-linejoin:round;stroke-miterlimit:10;" d="M1037.14,758.27
				l0.03,0.04c0.58,0.68,1.31,0.8,1.7,0.81c0.68,0.01,1.32-0.26,1.76-0.75c0.08-0.09,0.16-0.19,0.24-0.31
				c3.26-5.08,6.95-9.91,10.89-14.49c5.07,1.94,10.24,3.66,15.54,4.97l0.05,0.01c0.87,0.23,1.29,0.84,1.46,1.19
				c0.3,0.61,0.33,1.3,0.07,1.91c-0.05,0.11-0.11,0.23-0.18,0.35c-3.62,5.82-6.8,11.98-9.46,18.3c-2.66,6.32-4.84,12.9-6.48,19.57
				c-0.03,0.12-0.07,0.24-0.12,0.36c-0.26,0.61-0.77,1.08-1.42,1.28c-0.37,0.12-1.09,0.24-1.85-0.21l-0.06-0.04
				c-11.72-7.28-24.46-12.64-37.85-15.94l-0.05-0.01c-0.87-0.23-1.29-0.84-1.46-1.19c-0.3-0.61-0.33-1.3-0.07-1.91
				c0.05-0.11,0.11-0.23,0.18-0.35c3.62-5.82,6.8-11.98,9.46-18.3c1.36-3.23,2.59-6.53,3.69-9.88
				C1028.2,748.17,1032.86,753.04,1037.14,758.27z"></path>
			<path style="fill:none;stroke:#000000;stroke-linecap:round;stroke-linejoin:round;stroke-miterlimit:10;" d="M1037.14,758.27
				l0.03,0.04c0.58,0.68,1.31,0.8,1.7,0.81c0.68,0.01,1.32-0.26,1.76-0.75c0.08-0.09,0.16-0.19,0.24-0.31
				c3.71-5.77,7.9-11.29,12.46-16.4c0.13-0.14,0.27-0.27,0.4-0.41c4.67,1.75,9.4,3.31,14.25,4.51l0.01,0
				c3.41,0.84,5.01,4.76,3.15,7.74l-0.01,0.01c-7.11,11.45-12.37,23.94-15.59,37.03l0,0.01c-0.84,3.41-4.76,5.01-7.74,3.15
				l-0.01-0.01c-11.45-7.11-23.94-12.37-37.03-15.59l-0.01,0c-3.41-0.84-5.01-4.76-3.15-7.74l0.01-0.01
				c5.58-8.98,9.98-18.63,13.19-28.68C1026.7,746.71,1032.2,752.23,1037.14,758.27z"></path>
		</g>
	</g>
	<g>
		<g>
			<g>
				<g>
					<path style="fill:none;stroke:#000000;stroke-linecap:round;stroke-linejoin:round;stroke-miterlimit:10;" d="M1331.93,678.71
						l21.04,17.12c13.16,10.71,32.28,9.81,44.38-2.09l1.38-1.35c12.09-11.89,13.33-30.97,2.86-44.31l-16.76-21.37L1331.93,678.71z"></path>
					<path style="fill:none;stroke:#000000;stroke-linecap:round;stroke-linejoin:round;stroke-miterlimit:10;" d="M1405.56,637.54
						l3.7,4.71c13.4,17.09,11.82,41.52-3.66,56.75l-1.76,1.73c-15.5,15.24-39.97,16.39-56.83,2.67l-4.61-3.75
						c-2.23-1.81-2.39-5.16-0.34-7.18l0,0c1.75-1.72,4.52-1.85,6.42-0.3l4.51,3.67c13.16,10.71,32.28,9.81,44.38-2.09l1.38-1.35
						c12.09-11.89,13.33-30.97,2.86-44.31l-3.61-4.6c-1.51-1.93-1.33-4.69,0.41-6.4l0,0
						C1400.44,635.06,1403.79,635.28,1405.56,637.54z"></path>
				</g>
				<g>
					<path style="fill:none;stroke:#000000;stroke-linecap:round;stroke-linejoin:round;stroke-miterlimit:10;" d="M1269.42,509.36
						l-21.04-17.12c-13.16-10.71-32.28-9.81-44.38,2.09l-1.37,1.35c-12.09,11.89-13.32,30.97-2.86,44.31l16.76,21.37L1269.42,509.36
						z"></path>
					<path style="fill:none;stroke:#000000;stroke-linecap:round;stroke-linejoin:round;stroke-miterlimit:10;" d="M1195.8,550.54
						l-3.7-4.71c-13.4-17.09-11.82-41.52,3.66-56.75l1.76-1.73c15.5-15.24,39.97-16.39,56.83-2.67l4.61,3.75
						c2.23,1.81,2.39,5.16,0.34,7.18l0,0c-1.75,1.72-4.52,1.85-6.42,0.3l-4.51-3.67c-13.16-10.71-32.28-9.81-44.38,2.09l-1.37,1.35
						c-12.09,11.89-13.32,30.97-2.86,44.31l3.61,4.6c1.51,1.93,1.33,4.69-0.41,6.4l0,0C1200.91,553.02,1197.57,552.8,1195.8,550.54z
						"></path>
				</g>
				<g>
					<path style="fill:none;stroke:#000000;stroke-linecap:round;stroke-linejoin:round;stroke-miterlimit:10;" d="M1216,625.3
						l-17.12,21.04c-10.71,13.16-9.81,32.28,2.09,44.38l1.35,1.37c11.89,12.09,30.97,13.33,44.31,2.86l21.37-16.76L1216,625.3z"></path>
					<path style="fill:none;stroke:#000000;stroke-linecap:round;stroke-linejoin:round;stroke-miterlimit:10;" d="M1257.18,698.92
						l-4.71,3.7c-17.09,13.4-41.52,11.82-56.75-3.66l-1.73-1.76c-15.24-15.5-16.39-39.97-2.67-56.83l3.75-4.61
						c1.81-2.23,5.16-2.39,7.18-0.34l0,0c1.72,1.75,1.85,4.52,0.3,6.42l-3.67,4.51c-10.71,13.16-9.81,32.28,2.09,44.38l1.35,1.37
						c11.89,12.09,30.97,13.33,44.31,2.86l4.6-3.61c1.93-1.51,4.69-1.33,6.4,0.41l0,0C1259.65,693.8,1259.44,697.15,1257.18,698.92z
						"></path>
				</g>
				<g>
					<path style="fill:none;stroke:#000000;stroke-linecap:round;stroke-linejoin:round;stroke-miterlimit:10;" d="M1385.35,562.78
						l17.12-21.04c10.71-13.16,9.81-32.28-2.09-44.38l-1.35-1.37c-11.89-12.09-30.97-13.32-44.31-2.86l-21.37,16.76L1385.35,562.78z
						"></path>
					<path style="fill:none;stroke:#000000;stroke-linecap:round;stroke-linejoin:round;stroke-miterlimit:10;" d="M1344.17,489.16
						l4.71-3.7c17.09-13.4,41.52-11.82,56.75,3.66l1.73,1.76c15.24,15.5,16.39,39.97,2.67,56.83l-3.75,4.61
						c-1.81,2.23-5.16,2.39-7.18,0.34l0,0c-1.72-1.75-1.85-4.52-0.3-6.42l3.67-4.51c10.71-13.16,9.81-32.28-2.09-44.38l-1.35-1.37
						c-11.89-12.09-30.97-13.32-44.31-2.86l-4.6,3.61c-1.93,1.51-4.69,1.33-6.4-0.41l0,0
						C1341.7,494.27,1341.91,490.93,1344.17,489.16z"></path>
				</g>
			</g>
			
				<circle style="fill:#FFFFFF;stroke:#000000;stroke-linecap:round;stroke-linejoin:round;stroke-miterlimit:10;" cx="1300.35" cy="593.71" r="90.82"></circle>
		</g>
		<g>
			<g>
				<g>
					
						<circle style="fill:none;stroke:#000000;stroke-linecap:round;stroke-linejoin:round;stroke-miterlimit:10;" cx="1263.6" cy="550.8" r="16.75"></circle>
				</g>
				<g>
					
						<circle style="fill:none;stroke:#000000;stroke-linecap:round;stroke-linejoin:round;stroke-miterlimit:10;" cx="1263.6" cy="550.8" r="9.54"></circle>
				</g>
				<g>
					
						<ellipse transform="matrix(0.7489 -0.6626 0.6626 0.7489 -71.4251 971.177)" style="fill:none;stroke:#000000;stroke-linecap:round;stroke-linejoin:round;stroke-miterlimit:10;" cx="1245.92" cy="579.85" rx="2.59" ry="4.22"></ellipse>
					
						<line style="fill:none;stroke:#000000;stroke-linecap:round;stroke-linejoin:round;stroke-miterlimit:10;" x1="1243.12" y1="576.69" x2="1230.9" y2="562.87"></line>
				</g>
				<g>
					<path style="fill:none;stroke:#000000;stroke-linecap:round;stroke-linejoin:round;stroke-miterlimit:10;" d="M1293.51,543.36
						l-2.79-3.16c-1.54-1.74-3.66-2.39-4.74-1.44c-1.07,0.95-0.69,3.13,0.85,4.88l2.79,3.16"></path>
					
						<line style="fill:none;stroke:#000000;stroke-linecap:round;stroke-linejoin:round;stroke-miterlimit:10;" x1="1285.98" y1="538.77" x2="1273.76" y2="524.95"></line>
				</g>
				
					<line style="fill:none;stroke:#000000;stroke-linecap:round;stroke-linejoin:round;stroke-miterlimit:10;" x1="1291.57" y1="545.08" x2="1285.98" y2="538.77"></line>
				<g>
					<path style="fill:none;stroke:#000000;stroke-linecap:round;stroke-linejoin:round;stroke-miterlimit:10;" d="M1243.16,567.08
						l3.02-2.67l10.34,11.69l-2.26,2c-0.42,0.37-1.06,0.33-1.43-0.09L1243.16,567.08z"></path>
					<path style="fill:none;stroke:#000000;stroke-linecap:round;stroke-linejoin:round;stroke-miterlimit:10;" d="M1236.06,558.3
						l2.26-2c0.21-0.19,0.53-0.17,0.72,0.04l7.14,8.07l-3.02,2.67l-7.14-8.07C1235.83,558.8,1235.85,558.48,1236.06,558.3z"></path>
				</g>
			</g>
			<g>
				<g>
					
						<circle style="fill:none;stroke:#000000;stroke-linecap:round;stroke-linejoin:round;stroke-miterlimit:10;" cx="1333.27" cy="637.79" r="16.75"></circle>
				</g>
				<g>
					
						<circle style="fill:none;stroke:#000000;stroke-linecap:round;stroke-linejoin:round;stroke-miterlimit:10;" cx="1333.27" cy="637.79" r="9.54"></circle>
				</g>
				<g>
					
						<ellipse transform="matrix(0.749 -0.6626 0.6626 0.749 -64.2127 1047.9984)" style="fill:none;stroke:#000000;stroke-linecap:round;stroke-linejoin:round;stroke-miterlimit:10;" cx="1350.95" cy="608.74" rx="2.59" ry="4.22"></ellipse>
					
						<line style="fill:none;stroke:#000000;stroke-linecap:round;stroke-linejoin:round;stroke-miterlimit:10;" x1="1353.75" y1="611.9" x2="1365.97" y2="625.72"></line>
				</g>
				<g>
					<path style="fill:none;stroke:#000000;stroke-linecap:round;stroke-linejoin:round;stroke-miterlimit:10;" d="M1303.35,645.22
						l2.79,3.16c1.54,1.74,3.66,2.39,4.74,1.44c1.07-0.95,0.69-3.13-0.85-4.88l-2.79-3.16"></path>
					
						<line style="fill:none;stroke:#000000;stroke-linecap:round;stroke-linejoin:round;stroke-miterlimit:10;" x1="1310.88" y1="649.82" x2="1323.11" y2="663.64"></line>
				</g>
				
					<line style="fill:none;stroke:#000000;stroke-linecap:round;stroke-linejoin:round;stroke-miterlimit:10;" x1="1305.3" y1="643.51" x2="1310.88" y2="649.82"></line>
				<g>
					<path style="fill:none;stroke:#000000;stroke-linecap:round;stroke-linejoin:round;stroke-miterlimit:10;" d="M1353.71,621.51
						l-3.02,2.67l-10.34-11.69l2.26-2c0.42-0.37,1.06-0.33,1.43,0.09L1353.71,621.51z"></path>
					<path style="fill:none;stroke:#000000;stroke-linecap:round;stroke-linejoin:round;stroke-miterlimit:10;" d="M1360.81,630.29
						l-2.26,2c-0.21,0.19-0.53,0.17-0.72-0.04l-7.14-8.07l3.02-2.67l7.14,8.07C1361.03,629.78,1361.02,630.1,1360.81,630.29z"></path>
				</g>
			</g>
			<g>
				<g>
					
						<circle style="fill:none;stroke:#000000;stroke-linecap:round;stroke-linejoin:round;stroke-miterlimit:10;" cx="1256.57" cy="627.61" r="16.75"></circle>
				</g>
				<g>
					
						<circle style="fill:none;stroke:#000000;stroke-linecap:round;stroke-linejoin:round;stroke-miterlimit:10;" cx="1256.57" cy="627.61" r="9.54"></circle>
				</g>
				<g>
					
						<ellipse transform="matrix(0.749 -0.6626 0.6626 0.749 -104.8403 1013.8495)" style="fill:none;stroke:#000000;stroke-linecap:round;stroke-linejoin:round;stroke-miterlimit:10;" cx="1285.61" cy="645.29" rx="4.22" ry="2.59"></ellipse>
					
						<line style="fill:none;stroke:#000000;stroke-linecap:round;stroke-linejoin:round;stroke-miterlimit:10;" x1="1282.46" y1="648.08" x2="1268.64" y2="660.31"></line>
				</g>
				<g>
					<path style="fill:none;stroke:#000000;stroke-linecap:round;stroke-linejoin:round;stroke-miterlimit:10;" d="M1249.13,597.69
						l-3.16,2.79c-1.74,1.54-2.39,3.66-1.44,4.74c0.95,1.07,3.13,0.69,4.88-0.85l3.16-2.79"></path>
					
						<line style="fill:none;stroke:#000000;stroke-linecap:round;stroke-linejoin:round;stroke-miterlimit:10;" x1="1244.53" y1="605.22" x2="1230.72" y2="617.45"></line>
				</g>
				
					<line style="fill:none;stroke:#000000;stroke-linecap:round;stroke-linejoin:round;stroke-miterlimit:10;" x1="1250.85" y1="599.63" x2="1244.53" y2="605.22"></line>
				<g>
					<path style="fill:none;stroke:#000000;stroke-linecap:round;stroke-linejoin:round;stroke-miterlimit:10;" d="M1272.85,648.05
						l-2.67-3.02l11.69-10.34l2,2.26c0.37,0.42,0.33,1.06-0.09,1.43L1272.85,648.05z"></path>
					<path style="fill:none;stroke:#000000;stroke-linecap:round;stroke-linejoin:round;stroke-miterlimit:10;" d="M1264.07,655.14
						l-2-2.26c-0.19-0.21-0.17-0.53,0.04-0.71l8.07-7.14l2.67,3.02l-8.07,7.14C1264.57,655.37,1264.25,655.35,1264.07,655.14z"></path>
				</g>
			</g>
			<g>
				<g>
					
						<circle style="fill:none;stroke:#000000;stroke-linecap:round;stroke-linejoin:round;stroke-miterlimit:10;" cx="1340.75" cy="558.19" r="16.75"></circle>
				</g>
				<g>
					
						<circle style="fill:none;stroke:#000000;stroke-linecap:round;stroke-linejoin:round;stroke-miterlimit:10;" cx="1340.75" cy="558.19" r="9.54"></circle>
				</g>
				<g>
					
						<ellipse transform="matrix(0.749 -0.6626 0.6626 0.749 -28.8592 1004.8335)" style="fill:none;stroke:#000000;stroke-linecap:round;stroke-linejoin:round;stroke-miterlimit:10;" cx="1311.7" cy="540.5" rx="4.22" ry="2.59"></ellipse>
					
						<line style="fill:none;stroke:#000000;stroke-linecap:round;stroke-linejoin:round;stroke-miterlimit:10;" x1="1314.86" y1="537.71" x2="1328.68" y2="525.48"></line>
				</g>
				<g>
					<path style="fill:none;stroke:#000000;stroke-linecap:round;stroke-linejoin:round;stroke-miterlimit:10;" d="M1348.19,588.1
						l3.16-2.79c1.74-1.54,2.39-3.66,1.44-4.74c-0.95-1.07-3.13-0.69-4.88,0.85l-3.16,2.79"></path>
					
						<line style="fill:none;stroke:#000000;stroke-linecap:round;stroke-linejoin:round;stroke-miterlimit:10;" x1="1352.78" y1="580.57" x2="1366.6" y2="568.35"></line>
				</g>
				
					<line style="fill:none;stroke:#000000;stroke-linecap:round;stroke-linejoin:round;stroke-miterlimit:10;" x1="1346.47" y1="586.16" x2="1352.78" y2="580.57"></line>
				<g>
					<path style="fill:none;stroke:#000000;stroke-linecap:round;stroke-linejoin:round;stroke-miterlimit:10;" d="M1324.47,537.75
						l2.67,3.02l-11.69,10.34l-2-2.26c-0.37-0.42-0.33-1.06,0.09-1.43L1324.47,537.75z"></path>
					<path style="fill:none;stroke:#000000;stroke-linecap:round;stroke-linejoin:round;stroke-miterlimit:10;" d="M1333.25,530.65
						l2,2.26c0.19,0.21,0.17,0.53-0.04,0.72l-8.07,7.14l-2.67-3.02l8.07-7.14C1332.75,530.42,1333.07,530.44,1333.25,530.65z"></path>
				</g>
			</g>
		</g>
		<g>
			<path style="fill:none;stroke:#000000;stroke-linecap:round;stroke-linejoin:round;stroke-miterlimit:10;" d="M1329.34,590
				l-41.05,31.11c-1.36,1.03-3.3,0.77-4.34-0.6l-13.24-17.46c-1.03-1.36-0.77-3.3,0.6-4.34l41.05-31.11c1.36-1.03,3.3-0.77,4.34,0.6
				l13.24,17.46C1330.97,587.03,1330.71,588.97,1329.34,590z"></path>
			
				<circle style="fill:none;stroke:#000000;stroke-linecap:round;stroke-linejoin:round;stroke-miterlimit:10;" cx="1285.21" cy="602.53" r="5.29"></circle>
			
				<circle style="fill:none;stroke:#000000;stroke-linecap:round;stroke-linejoin:round;stroke-miterlimit:10;" cx="1297.19" cy="603.37" r="5.29"></circle>
			
				<circle style="fill:none;stroke:#000000;stroke-linecap:round;stroke-linejoin:round;stroke-miterlimit:10;" cx="1293.69" cy="591.94" r="5.29"></circle>
			<path style="fill:none;stroke:#000000;stroke-linecap:round;stroke-linejoin:round;stroke-miterlimit:10;" d="M1306.64,575.07
				l-1.08,0.52l2.19,4.1c1.62,9.15-4.5,13.53-7.66,16.27c-0.73,0.63-0.17,1.84,0.79,1.69c3.38-0.51,8.41-2.06,10.68-6.71
				c2.59-5.32-0.65-9.65-2.62-11.64L1306.64,575.07z"></path>
			<path style="fill:none;stroke:#000000;stroke-linecap:round;stroke-linejoin:round;stroke-miterlimit:10;" d="M1316.94,580.33
				l-1.18,0.18l0.9,4.56c-1.12,9.22-8.25,11.63-12.07,13.33c-0.88,0.39-0.7,1.71,0.26,1.85c3.38,0.5,8.65,0.48,12.17-3.3
				c4.03-4.34,2.2-9.42,0.88-11.9L1316.94,580.33z"></path>
		</g>
	</g>
</g>
<g id="floor">
	<g>
		<path style="fill:none;stroke:#000000;stroke-linecap:round;stroke-linejoin:round;stroke-miterlimit:10;" d="M504.6,1545.9
			c0,91.24,73.81,165.93,165.05,165.93l0-164.58"></path>
		
			<rect x="669.66" y="1529.13" transform="matrix(-1 4.036501e-06 -4.036501e-06 -1 1349.1534 3076.3809)" style="fill:none;stroke:#000000;stroke-linecap:round;stroke-linejoin:round;stroke-miterlimit:10;" width="9.83" height="18.13"></rect>
		
			<rect x="494.77" y="1529.13" transform="matrix(-1 4.036503e-06 -4.036503e-06 -1 999.3841 3076.3828)" style="fill:none;stroke:#000000;stroke-linecap:round;stroke-linejoin:round;stroke-miterlimit:10;" width="9.83" height="18.13"></rect>
	</g>
	
		<line style="fill:none;stroke:#000000;stroke-linecap:round;stroke-linejoin:round;stroke-miterlimit:10;stroke-dasharray:10,10;" x1="677.49" y1="1079.86" x2="677.49" y2="861.42"></line>
	<g>
		<path style="fill:none;stroke:#000000;stroke-linecap:round;stroke-linejoin:round;stroke-miterlimit:10;" d="M475.95,1214.89
			c71.36,0,132.14,57.73,132.14,129.09l-132.14,0"></path>
		
			<rect x="468.57" y="1340.61" transform="matrix(-7.283727e-06 -1 1 -7.283727e-06 -875.4112 1820.2515)" style="fill:none;stroke:#000000;stroke-linecap:round;stroke-linejoin:round;stroke-miterlimit:10;" width="7.69" height="14.44"></rect>
		
			<rect x="468.57" y="1203.82" transform="matrix(-7.283721e-06 -1 1 -7.283721e-06 -738.6287 1683.4706)" style="fill:none;stroke:#000000;stroke-linecap:round;stroke-linejoin:round;stroke-miterlimit:10;" width="7.69" height="14.44"></rect>
	</g>
	<g>
		<path style="fill:none;stroke:#000000;stroke-linecap:round;stroke-linejoin:round;stroke-miterlimit:10;" d="M1226.14,1212.59
			c71.36,0,132.14,57.73,132.14,129.09l-132.14,0"></path>
		
			<rect x="1218.75" y="1338.3" transform="matrix(-7.283729e-06 -1 1 -7.283729e-06 -122.917 2568.1338)" style="fill:none;stroke:#000000;stroke-linecap:round;stroke-linejoin:round;stroke-miterlimit:10;" width="7.69" height="14.44"></rect>
		
			<rect x="1218.76" y="1201.52" transform="matrix(-7.283722e-06 -1 1 -7.283722e-06 13.8655 2431.3528)" style="fill:none;stroke:#000000;stroke-linecap:round;stroke-linejoin:round;stroke-miterlimit:10;" width="7.69" height="14.44"></rect>
	</g>
	<g>
		<path style="fill:none;stroke:#000000;stroke-linecap:round;stroke-linejoin:round;stroke-miterlimit:10;" d="M504.23,882.28
			c0-80.14,64.82-148.38,144.96-148.38l0,148.38"></path>
		
			<rect x="649.2" y="879.32" transform="matrix(-1 -4.495305e-07 4.495305e-07 -1 1307.0278 1772.8135)" style="fill:none;stroke:#000000;stroke-linecap:round;stroke-linejoin:round;stroke-miterlimit:10;" width="8.63" height="14.17"></rect>
		
			<rect x="495.6" y="879.13" transform="matrix(-1 -4.535367e-07 4.535367e-07 -1 999.8353 1772.6226)" style="fill:none;stroke:#000000;stroke-linecap:round;stroke-linejoin:round;stroke-miterlimit:10;" width="8.63" height="14.36"></rect>
	</g>
	<g>
		<path style="fill:none;stroke:#000000;stroke-linecap:round;stroke-linejoin:round;stroke-miterlimit:10;" d="M1229.07,1062.19
			c80.14,0,148.38-64.82,148.38-144.96l-148.38,0"></path>
		
			<rect x="1220.63" y="905.83" transform="matrix(-6.379828e-06 1 -1 -6.379828e-06 2137.8691 -312.0245)" style="fill:none;stroke:#000000;stroke-linecap:round;stroke-linejoin:round;stroke-miterlimit:10;" width="8.63" height="14.17"></rect>
		
			<rect x="1220.72" y="1059.33" transform="matrix(-6.375823e-06 1 -1 -6.375823e-06 2291.5598 -158.5217)" style="fill:none;stroke:#000000;stroke-linecap:round;stroke-linejoin:round;stroke-miterlimit:10;" width="8.63" height="14.36"></rect>
	</g>
	<g>
		<g id="LWPOLYLINE_135_">
			
				<rect x="1047.78" y="1071.39" style="fill:none;stroke:#000000;stroke-linecap:round;stroke-linejoin:round;stroke-miterlimit:10;" width="106.3" height="106.3"></rect>
		</g>
		<g id="LWPOLYLINE_134_">
			
				<line style="fill:none;stroke:#000000;stroke-linecap:round;stroke-linejoin:round;stroke-miterlimit:10;" x1="1074.35" y1="1115.68" x2="1074.35" y2="1080.25"></line>
		</g>
		<g id="LWPOLYLINE_10_">
			
				<line style="fill:none;stroke:#000000;stroke-linecap:round;stroke-linejoin:round;stroke-miterlimit:10;" x1="1092.07" y1="1097.96" x2="1056.64" y2="1097.96"></line>
		</g>
		<g id="CIRCLE_152_">
			<path style="fill:none;stroke:#000000;stroke-linecap:round;stroke-linejoin:round;stroke-miterlimit:10;" d="M1060.18,1097.96
				c0-7.83,6.35-14.18,14.18-14.18c7.83,0,14.18,6.35,14.18,14.18s-6.35,14.18-14.18,14.18
				C1066.53,1112.14,1060.18,1105.79,1060.18,1097.96L1060.18,1097.96z"></path>
		</g>
		<g id="LWPOLYLINE_9_">
			
				<line style="fill:none;stroke:#000000;stroke-linecap:round;stroke-linejoin:round;stroke-miterlimit:10;" x1="1074.35" y1="1168.83" x2="1074.35" y2="1133.4"></line>
		</g>
		<g id="LWPOLYLINE_8_">
			
				<line style="fill:none;stroke:#000000;stroke-linecap:round;stroke-linejoin:round;stroke-miterlimit:10;" x1="1092.07" y1="1151.11" x2="1056.64" y2="1151.11"></line>
		</g>
		<g id="CIRCLE_151_">
			<path style="fill:none;stroke:#000000;stroke-linecap:round;stroke-linejoin:round;stroke-miterlimit:10;" d="M1060.18,1151.12
				c0-7.83,6.35-14.18,14.18-14.18s14.18,6.35,14.18,14.18s-6.35,14.18-14.18,14.18S1060.18,1158.95,1060.18,1151.12
				L1060.18,1151.12z"></path>
		</g>
		<g id="LWPOLYLINE_7_">
			
				<line style="fill:none;stroke:#000000;stroke-linecap:round;stroke-linejoin:round;stroke-miterlimit:10;" x1="1127.5" y1="1168.83" x2="1127.5" y2="1133.4"></line>
		</g>
		<g id="LWPOLYLINE_6_">
			
				<line style="fill:none;stroke:#000000;stroke-linecap:round;stroke-linejoin:round;stroke-miterlimit:10;" x1="1145.22" y1="1151.11" x2="1109.79" y2="1151.11"></line>
		</g>
		<g id="CIRCLE_150_">
			<path style="fill:none;stroke:#000000;stroke-linecap:round;stroke-linejoin:round;stroke-miterlimit:10;" d="M1113.33,1151.12
				c0-7.83,6.35-14.18,14.18-14.18s14.18,6.35,14.18,14.18s-6.35,14.18-14.18,14.18S1113.33,1158.95,1113.33,1151.12
				L1113.33,1151.12z"></path>
		</g>
		<g id="LWPOLYLINE_5_">
			
				<line style="fill:none;stroke:#000000;stroke-linecap:round;stroke-linejoin:round;stroke-miterlimit:10;" x1="1127.5" y1="1115.68" x2="1127.5" y2="1080.25"></line>
		</g>
		<g id="LWPOLYLINE_4_">
			
				<line style="fill:none;stroke:#000000;stroke-linecap:round;stroke-linejoin:round;stroke-miterlimit:10;" x1="1145.22" y1="1097.96" x2="1109.79" y2="1097.96"></line>
		</g>
		<g id="CIRCLE_149_">
			<path style="fill:none;stroke:#000000;stroke-linecap:round;stroke-linejoin:round;stroke-miterlimit:10;" d="M1113.33,1097.96
				c0-7.83,6.35-14.18,14.18-14.18c7.83,0,14.18,6.35,14.18,14.18s-6.35,14.18-14.18,14.18
				C1119.68,1112.14,1113.33,1105.79,1113.33,1097.96L1113.33,1097.96z"></path>
		</g>
	</g>
	<g>
		<g id="LWPOLYLINE_3_">
			
				<rect x="870.42" y="1071.39" style="fill:none;stroke:#000000;stroke-linecap:round;stroke-linejoin:round;stroke-miterlimit:10;" width="106.3" height="106.3"></rect>
		</g>
		<g id="LWPOLYLINE_2_">
			<path style="fill:none;stroke:#000000;stroke-linecap:round;stroke-linejoin:round;stroke-miterlimit:10;" d="M879.28,1086.44
				l0,67.28c0,3.42,2.77,6.2,6.2,6.2c0,0,76.19,0,76.19,0c3.43,0,6.2-2.78,6.2-6.2c0,0,0-67.28,0-67.28c0-3.42-2.78-6.2-6.2-6.2
				c0,0-76.19,0-76.19,0C882.05,1080.24,879.28,1083.02,879.28,1086.44z"></path>
		</g>
		<g id="LWPOLYLINE_1_">
			<path style="fill:none;stroke:#000000;stroke-linecap:round;stroke-linejoin:round;stroke-miterlimit:10;" d="M905.85,1136.48
				c-3.43,0-6.22,2.78-6.22,6.21c0,3.43,2.78,6.22,6.21,6.22c3.43,0,6.22-2.78,6.22-6.21
				C912.07,1139.26,909.28,1136.48,905.85,1136.48z"></path>
		</g>
	</g>
	<g>
		<g>
			<g id="LWPOLYLINE_374_">
				<path style="fill:none;stroke:#000000;stroke-linecap:round;stroke-linejoin:round;stroke-miterlimit:10;" d="M157.44,1226.02
					l47.13,0c6.64,0,12.52,4.19,14.55,10.38c7.38,22.46,7.38,46.62,0,69.08c-2.04,6.19-7.92,10.38-14.55,10.39l-47.13,0"></path>
			</g>
			<g id="LWPOLYLINE_373_">
				<path style="fill:none;stroke:#000000;stroke-linecap:round;stroke-linejoin:round;stroke-miterlimit:10;" d="M170.62,1294.91
					c0,4.96,4.11,8.98,9.18,8.98l14.69,0c3.36,0,6.33-2.15,7.31-5.3c5.64-18.02,5.64-37.28,0-55.3c-0.99-3.14-3.95-5.29-7.31-5.29
					l-14.69,0c-5.07,0-9.18,4.02-9.18,8.99"></path>
			</g>
			<g id="LWPOLYLINE_372_">
				<path style="fill:none;stroke:#000000;stroke-linecap:round;stroke-linejoin:round;stroke-miterlimit:10;" d="M179.8,1232.01
					l24.76,0c3.98,0,7.51,2.51,8.73,6.23c7,21.27,6.99,44.15,0,65.41c-1.22,3.71-4.75,6.23-8.73,6.23l-24.77,0
					c-5.07,0-9.18-4.02-9.18-8.98l0-59.91C170.62,1236.03,174.73,1232.01,179.8,1232.01z"></path>
			</g>
			<g id="LWPOLYLINE_371_">
				<path style="fill:none;stroke:#000000;stroke-linecap:round;stroke-linejoin:round;stroke-miterlimit:10;" d="M173.35,1270.95
					c0-2.23,1.84-4.03,4.11-4.03c2.27,0,4.11,1.81,4.11,4.03c0,2.23-1.84,4.03-4.11,4.03
					C175.19,1274.98,173.35,1273.17,173.35,1270.95z"></path>
			</g>
		</g>
		<g>
			<g id="LWPOLYLINE_370_">
				
					<rect x="157.88" y="1073.02" style="fill:none;stroke:#000000;stroke-linecap:round;stroke-linejoin:round;stroke-miterlimit:10;" width="306.28" height="122.27"></rect>
			</g>
			<g id="LWPOLYLINE_369_">
				<path style="fill:none;stroke:#000000;stroke-linecap:round;stroke-linejoin:round;stroke-miterlimit:10;" d="M423.35,1185.5
					l-202.3,0.01c-28.96,0-52.43-22.99-52.43-51.35c0-28.36,23.48-51.35,52.44-51.36l202.3-0.01c13.84-0.01,25.11,10.9,25.27,24.45
					l0,53.8c0,13.51-11.18,24.46-24.97,24.46"></path>
			</g>
			<g id="LWPOLYLINE_368_">
				<path style="fill:none;stroke:#000000;stroke-linecap:round;stroke-linejoin:round;stroke-miterlimit:10;" d="M361.01,1171.53
					l-139.96,0.01c-21.09,0-38.17-16.74-38.17-37.38c0-20.64,17.09-37.38,38.17-37.38l137.99-0.01
					c20.31,0.01,37.05,15.59,38.11,35.45C398.26,1152.85,382.07,1170.45,361.01,1171.53z"></path>
			</g>
			<g id="LWPOLYLINE_367_">
				<path style="fill:none;stroke:#000000;stroke-linecap:round;stroke-linejoin:round;stroke-miterlimit:10;" d="M214.06,1134.16
					c0-3.78,3.13-6.84,6.99-6.84c3.86,0,6.99,3.07,6.99,6.84c0,3.78-3.13,6.85-6.99,6.84C217.19,1141,214.06,1137.94,214.06,1134.16
					z"></path>
			</g>
		</g>
		<g>
			<g id="LWPOLYLINE_366_">
				<path style="fill:none;stroke:#000000;stroke-linecap:round;stroke-linejoin:round;stroke-miterlimit:10;" d="M407.32,1438.1
					l-0.01-49.45c0-17.21-14.24-31.15-31.81-31.15c-17.57,0-31.81,13.95-31.81,31.15l0.01,49.45c0,4.3,3.56,7.79,7.95,7.79l47.72,0
					C403.76,1445.89,407.32,1442.4,407.32,1438.1z"></path>
			</g>
			<g id="LWPOLYLINE_365_">
				<path style="fill:none;stroke:#000000;stroke-linecap:round;stroke-linejoin:round;stroke-miterlimit:10;" d="M350.05,1388.66
					l0.01,27.66c0,13.76,11.39,24.92,25.45,24.92c14.06,0,25.45-11.16,25.45-24.92l-0.01-27.66c0-13.76-11.39-24.92-25.45-24.92
					C361.45,1363.74,350.05,1374.89,350.05,1388.66z"></path>
			</g>
			<g id="LWPOLYLINE_364_">
				<path style="fill:none;stroke:#000000;stroke-linecap:round;stroke-linejoin:round;stroke-miterlimit:10;" d="M365.96,1398.68
					l0.01,20.21c0,5.16,4.27,9.35,9.54,9.34c5.27,0,9.54-4.18,9.54-9.35l-0.01-20.21c0-5.16-4.27-9.34-9.54-9.34
					C370.23,1389.34,365.96,1393.52,365.96,1398.68z"></path>
			</g>
		</g>
		<g>
			<g id="LWPOLYLINE_352_">
				
					<rect x="157.94" y="1339.59" style="fill:none;stroke:#000000;stroke-linecap:round;stroke-linejoin:round;stroke-miterlimit:10;" width="79.73" height="106.3"></rect>
			</g>
			<g>
				<g id="LWPOLYLINE_351_">
					<polyline style="fill:none;stroke:#000000;stroke-linecap:round;stroke-linejoin:round;stroke-miterlimit:10;" points="
						221.89,1362.13 185.47,1392.71 210.14,1392.77 173.71,1423.35 					"></polyline>
				</g>
				<g id="LWPOLYLINE_350_">
					<path style="fill:none;stroke:#000000;stroke-linecap:round;stroke-linejoin:round;stroke-miterlimit:10;" d="M225.22,1392.82
						c-0.04,14.83-12.35,26.81-27.48,26.77c-15.14-0.04-27.38-12.09-27.35-26.92c0.04-14.83,12.35-26.82,27.49-26.78
						C213.02,1365.94,225.26,1377.99,225.22,1392.82z"></path>
				</g>
			</g>
		</g>
	</g>
	<g>
		<g>
			<g id="LWPOLYLINE_363_">
				<path style="fill:none;stroke:#000000;stroke-linecap:round;stroke-linejoin:round;stroke-miterlimit:10;" d="M962.01,1497.33
					l0-47.13c0-6.64,4.19-12.52,10.38-14.55c22.46-7.38,46.62-7.38,69.08,0c6.19,2.04,10.38,7.92,10.39,14.55l0,47.13"></path>
			</g>
			<g id="LWPOLYLINE_362_">
				<path style="fill:none;stroke:#000000;stroke-linecap:round;stroke-linejoin:round;stroke-miterlimit:10;" d="M1030.9,1484.15
					c4.96,0,8.98-4.11,8.98-9.18l0-14.69c0-3.36-2.15-6.33-5.3-7.31c-18.02-5.64-37.28-5.64-55.3,0c-3.14,0.99-5.29,3.95-5.29,7.31
					l0,14.69c0,5.07,4.02,9.18,8.99,9.18"></path>
			</g>
			<g id="LWPOLYLINE_361_">
				<path style="fill:none;stroke:#000000;stroke-linecap:round;stroke-linejoin:round;stroke-miterlimit:10;" d="M968,1474.97
					l0-24.76c0-3.98,2.51-7.51,6.23-8.73c21.27-7,44.15-6.99,65.41,0c3.71,1.22,6.23,4.75,6.23,8.73l0,24.77
					c0,5.07-4.02,9.18-8.98,9.18l-59.91,0C972.02,1484.14,968,1480.04,968,1474.97z"></path>
			</g>
			<g id="LWPOLYLINE_360_">
				<path style="fill:none;stroke:#000000;stroke-linecap:round;stroke-linejoin:round;stroke-miterlimit:10;" d="M1006.94,1481.42
					c-2.23,0-4.03-1.84-4.03-4.11c0-2.27,1.81-4.11,4.03-4.11c2.23,0,4.03,1.84,4.03,4.11
					C1010.97,1479.57,1009.16,1481.42,1006.94,1481.42z"></path>
			</g>
		</g>
		<g>
			<g id="LWPOLYLINE_359_">
				
					<rect x="832" y="1191.19" style="fill:none;stroke:#000000;stroke-linecap:round;stroke-linejoin:round;stroke-miterlimit:10;" width="122.27" height="306.28"></rect>
			</g>
			<g id="LWPOLYLINE_358_">
				<path style="fill:none;stroke:#000000;stroke-linecap:round;stroke-linejoin:round;stroke-miterlimit:10;" d="M944.48,1232
					l0.01,202.3c0,28.96-22.99,52.43-51.35,52.43c-28.36,0-51.35-23.48-51.36-52.44l-0.01-202.3c-0.01-13.84,10.9-25.11,24.45-25.27
					l53.8,0c13.51,0,24.46,11.18,24.46,24.97"></path>
			</g>
			<g id="LWPOLYLINE_357_">
				<path style="fill:none;stroke:#000000;stroke-linecap:round;stroke-linejoin:round;stroke-miterlimit:10;" d="M930.51,1294.34
					l0.01,139.96c0,21.09-16.74,38.17-37.38,38.17c-20.64,0-37.38-17.09-37.38-38.17l-0.01-137.99
					c0.01-20.31,15.59-37.05,35.45-38.11C911.83,1257.09,929.43,1273.28,930.51,1294.34z"></path>
			</g>
			<g id="LWPOLYLINE_356_">
				<path style="fill:none;stroke:#000000;stroke-linecap:round;stroke-linejoin:round;stroke-miterlimit:10;" d="M893.14,1441.29
					c-3.78,0-6.84-3.13-6.84-6.99c0-3.86,3.07-6.99,6.84-6.99c3.78,0,6.85,3.13,6.84,6.99
					C899.98,1438.16,896.92,1441.29,893.14,1441.29z"></path>
			</g>
		</g>
		<g>
			<g id="LWPOLYLINE_355_">
				<path style="fill:none;stroke:#000000;stroke-linecap:round;stroke-linejoin:round;stroke-miterlimit:10;" d="M1169.93,1436.86
					l-0.01-49.45c0-17.21-14.24-31.15-31.81-31.15c-17.57,0-31.81,13.95-31.81,31.16l0.01,49.45c0,4.3,3.56,7.79,7.95,7.79l47.72,0
					C1166.37,1444.64,1169.93,1441.16,1169.93,1436.86z"></path>
			</g>
			<g id="LWPOLYLINE_354_">
				<path style="fill:none;stroke:#000000;stroke-linecap:round;stroke-linejoin:round;stroke-miterlimit:10;" d="M1112.66,1387.42
					l0.01,27.66c0,13.76,11.39,24.92,25.45,24.92c14.06,0,25.45-11.16,25.45-24.92l-0.01-27.66c0-13.76-11.39-24.92-25.45-24.92
					C1124.06,1362.49,1112.66,1373.65,1112.66,1387.42z"></path>
			</g>
			<g id="LWPOLYLINE_353_">
				<path style="fill:none;stroke:#000000;stroke-linecap:round;stroke-linejoin:round;stroke-miterlimit:10;" d="M1128.57,1397.44
					l0.01,20.21c0,5.16,4.27,9.35,9.54,9.34s9.54-4.18,9.54-9.35l-0.01-20.22c0-5.16-4.27-9.34-9.54-9.34
					C1132.84,1388.1,1128.57,1392.28,1128.57,1397.44z"></path>
			</g>
		</g>
	</g>
	<g>
		
			<rect x="867.66" y="173.37" transform="matrix(-1.836970e-16 1 -1 -1.836970e-16 1280.1469 -552.5751)" style="fill:none;stroke:#000000;stroke-linecap:round;stroke-linejoin:round;stroke-miterlimit:10;" width="97.41" height="380.83"></rect>
		
			<rect x="908.21" y="191.61" transform="matrix(-1.836970e-16 1 -1 -1.836970e-16 1298.3862 -534.3356)" style="fill:none;stroke:#000000;stroke-linecap:round;stroke-linejoin:round;stroke-miterlimit:10;" width="16.3" height="380.83"></rect>
		
			<line style="fill:none;stroke:#000000;stroke-linecap:round;stroke-linejoin:round;stroke-miterlimit:10;" x1="738.07" y1="374.23" x2="738.07" y2="390.18"></line>
		
			<line style="fill:none;stroke:#000000;stroke-linecap:round;stroke-linejoin:round;stroke-miterlimit:10;" x1="1096.13" y1="374.05" x2="1096.13" y2="390.18"></line>
		
			<rect x="938.91" y="373.88" transform="matrix(-1 -1.224647e-16 1.224647e-16 -1 1892.9496 764.0507)" style="fill:none;stroke:#000000;stroke-linecap:round;stroke-linejoin:round;stroke-miterlimit:10;" width="15.13" height="16.3"></rect>
	</g>
	<g>
		
			<rect x="336.26" y="173.81" transform="matrix(-1.836970e-16 1 -1 -1.836970e-16 749.1914 -20.7487)" style="fill:none;stroke:#000000;stroke-linecap:round;stroke-linejoin:round;stroke-miterlimit:10;" width="97.41" height="380.83"></rect>
		
			<rect x="376.82" y="192.05" transform="matrix(-1.836970e-16 1 -1 -1.836970e-16 767.4308 -2.5093)" style="fill:none;stroke:#000000;stroke-linecap:round;stroke-linejoin:round;stroke-miterlimit:10;" width="16.3" height="380.83"></rect>
		
			<line style="fill:none;stroke:#000000;stroke-linecap:round;stroke-linejoin:round;stroke-miterlimit:10;" x1="206.68" y1="374.67" x2="206.68" y2="390.61"></line>
		
			<line style="fill:none;stroke:#000000;stroke-linecap:round;stroke-linejoin:round;stroke-miterlimit:10;" x1="564.74" y1="374.49" x2="564.74" y2="390.61"></line>
		
			<rect x="407.52" y="374.31" transform="matrix(-1 -1.224647e-16 1.224647e-16 -1 830.1678 764.9215)" style="fill:none;stroke:#000000;stroke-linecap:round;stroke-linejoin:round;stroke-miterlimit:10;" width="15.13" height="16.3"></rect>
	</g>
	<g>
		<polygon style="fill:none;stroke:#000000;stroke-linecap:round;stroke-linejoin:round;stroke-miterlimit:10;" points="
			1256.04,314.68 1256.04,412.12 1462.99,412.12 1462.99,666.8 1553.54,666.8 1553.54,314.68 		"></polygon>
		<polygon style="fill:none;stroke:#000000;stroke-linecap:round;stroke-linejoin:round;stroke-miterlimit:10;" points="
			1256.04,374.89 1256.04,389.24 1484.92,389.24 1484.92,666.8 1499.09,666.8 1499.09,374.89 		"></polygon>
		
			<line style="fill:none;stroke:#000000;stroke-linecap:round;stroke-linejoin:round;stroke-miterlimit:10;" x1="1471.98" y1="375.07" x2="1471.98" y2="389.05"></line>
		
			<line style="fill:none;stroke:#000000;stroke-linecap:round;stroke-linejoin:round;stroke-miterlimit:10;" x1="1485.18" y1="401.98" x2="1498.74" y2="401.98"></line>
		
			<line style="fill:none;stroke:#000000;stroke-linecap:round;stroke-linejoin:round;stroke-miterlimit:10;" x1="1485.01" y1="652.54" x2="1498.97" y2="652.54"></line>
		
			<line style="fill:none;stroke:#000000;stroke-linecap:round;stroke-linejoin:round;stroke-miterlimit:10;" x1="1269.46" y1="374.97" x2="1269.46" y2="388.85"></line>
	</g>
	<g>
		<polygon style="fill:none;stroke:#000000;stroke-linecap:round;stroke-linejoin:round;stroke-miterlimit:10;" points="
			1614.24,738.79 1614.24,838.27 1803.34,838.27 1803.34,1304.18 1899.91,1304.18 1899.91,738.79 		"></polygon>
		<polyline style="fill:none;stroke:#000000;stroke-linecap:round;stroke-linejoin:round;stroke-miterlimit:10;" points="
			1614.24,794.33 1837.9,794.81 1838.08,1304.18 		"></polyline>
		<polyline style="fill:none;stroke:#000000;stroke-linecap:round;stroke-linejoin:round;stroke-miterlimit:10;" points="
			1614.24,809.34 1823.73,808.98 1823.73,1304.18 		"></polyline>
		
			<line style="fill:none;stroke:#000000;stroke-linecap:round;stroke-linejoin:round;stroke-miterlimit:10;" x1="1642.35" y1="794.63" x2="1642.35" y2="808.98"></line>
		
			<line style="fill:none;stroke:#000000;stroke-linecap:round;stroke-linejoin:round;stroke-miterlimit:10;" x1="1823.73" y1="1262.35" x2="1837.9" y2="1262.35"></line>
		
			<rect x="1823.53" y="1106.19" style="fill:none;stroke:#000000;stroke-linecap:round;stroke-linejoin:round;stroke-miterlimit:10;" width="14.44" height="14.44"></rect>
		
			<line style="fill:none;stroke:#000000;stroke-linecap:round;stroke-linejoin:round;stroke-miterlimit:10;" x1="1823.73" y1="820.76" x2="1837.9" y2="820.76"></line>
		
			<line style="fill:none;stroke:#000000;stroke-linecap:round;stroke-linejoin:round;stroke-miterlimit:10;" x1="1811.5" y1="794.81" x2="1811.5" y2="808.7"></line>
	</g>
	<g>
		<rect x="1219.81" y="1464.58" style="fill-rule:evenodd;clip-rule:evenodd;" width="626.95" height="38.98"></rect>
		<rect x="1802.47" y="1269.69" style="fill-rule:evenodd;clip-rule:evenodd;" width="97.44" height="233.87"></rect>
		<rect x="677.49" y="1515.96" style="fill-rule:evenodd;clip-rule:evenodd;" width="572.07" height="37.37"></rect>
		<rect x="1538.54" y="738.01" style="fill-rule:evenodd;clip-rule:evenodd;" width="95.97" height="101.16"></rect>
		<rect x="1462.3" y="660.23" style="fill-rule:evenodd;clip-rule:evenodd;" width="91.99" height="133.89"></rect>
		<rect x="1102.7" y="314.68" style="fill-rule:evenodd;clip-rule:evenodd;" width="159.45" height="97.44"></rect>
		<rect x="99.91" y="373.58" style="fill-rule:evenodd;clip-rule:evenodd;" width="38.98" height="1181.36"></rect>
		<rect x="129.65" y="1515.61" style="fill-rule:evenodd;clip-rule:evenodd;" width="367.07" height="39.33"></rect>
		<rect x="463.55" y="1350.31" style="fill-rule:evenodd;clip-rule:evenodd;" width="18.87" height="193.77"></rect>
		<rect x="1217.86" y="780.65" style="fill-rule:evenodd;clip-rule:evenodd;" width="335.83" height="14.17"></rect>
		<rect x="1217.86" y="782.02" style="fill-rule:evenodd;clip-rule:evenodd;" width="14.17" height="127.97"></rect>
		<rect x="99.91" y="314.68" style="fill-rule:evenodd;clip-rule:evenodd;" width="99.09" height="99.09"></rect>
		<rect x="570.78" y="314.68" style="fill-rule:evenodd;clip-rule:evenodd;" width="159.91" height="97.44"></rect>
		<rect x="631.13" y="396.57" style="fill-rule:evenodd;clip-rule:evenodd;" width="53.15" height="299.02"></rect>
		<rect x="670.1" y="583.99" style="fill-rule:evenodd;clip-rule:evenodd;" width="14.17" height="298.93"></rect>
		<rect x="656.18" y="879.19" style="fill-rule:evenodd;clip-rule:evenodd;" width="28.1" height="14.17"></rect>
		<rect x="467.95" y="889.3" style="fill-rule:evenodd;clip-rule:evenodd;" width="14.17" height="179.29"></rect>
		<rect x="119.4" y="1504.89" style="fill-rule:evenodd;clip-rule:evenodd;" width="353.59" height="39.19"></rect>
		<rect x="130.73" y="1064.38" style="fill-rule:evenodd;clip-rule:evenodd;" width="27.15" height="464.83"></rect>
		<rect x="132.27" y="1445.89" style="fill-rule:evenodd;clip-rule:evenodd;" width="140.77" height="13.2"></rect>
		<rect x="261.97" y="1449.23" style="fill-rule:evenodd;clip-rule:evenodd;" width="11.07" height="71.77"></rect>
		<rect x="132.83" y="1058.35" style="fill-rule:evenodd;clip-rule:evenodd;" width="349.29" height="14.95"></rect>
		<rect x="463.26" y="1066.95" style="fill-rule:evenodd;clip-rule:evenodd;" width="18.87" height="142.47"></rect>
		<rect x="817.63" y="1186.8" style="fill-rule:evenodd;clip-rule:evenodd;" width="14.44" height="346.15"></rect>
		<rect x="825.78" y="1496.91" style="fill-rule:evenodd;clip-rule:evenodd;" width="423.78" height="41.18"></rect>
		<rect x="1213.16" y="1348" style="fill-rule:evenodd;clip-rule:evenodd;" width="18.87" height="159.2"></rect>
		<rect x="1069.66" y="1444.65" style="fill-rule:evenodd;clip-rule:evenodd;" width="11.07" height="56.53"></rect>
		<rect x="1073.71" y="1444.65" style="fill-rule:evenodd;clip-rule:evenodd;" width="148.31" height="11.07"></rect>
		<rect x="670.1" y="1070.48" style="fill-rule:evenodd;clip-rule:evenodd;" width="14.17" height="113.64"></rect>
		<rect x="670.1" y="1177.03" style="fill-rule:evenodd;clip-rule:evenodd;" width="558.56" height="14.44"></rect>
		<rect x="1217.86" y="1069.71" style="fill-rule:evenodd;clip-rule:evenodd;" width="14.17" height="129.16"></rect>
		<rect x="1213.16" y="1186.38" style="fill-rule:evenodd;clip-rule:evenodd;" width="18.87" height="19.88"></rect>
		<rect x="467.95" y="879.06" style="fill-rule:evenodd;clip-rule:evenodd;" width="28.77" height="14.43"></rect>
		<rect x="1408.26" y="789.91" style="fill-rule:evenodd;clip-rule:evenodd;" width="136.73" height="49.21"></rect>
		<rect x="1155.66" y="288" style="fill-rule:evenodd;clip-rule:evenodd;" width="53.15" height="59.36"></rect>
		<rect x="624.15" y="288" style="fill-rule:evenodd;clip-rule:evenodd;" width="53.15" height="62.02"></rect>
		<rect x="99.91" y="288" style="fill-rule:evenodd;clip-rule:evenodd;" width="45.88" height="46.52"></rect>
		<rect x="272.91" y="1445.89" style="fill-rule:evenodd;clip-rule:evenodd;" width="191.06" height="2.13"></rect>
	</g>
</g>
</svg>
