<?xml version="1.0" encoding="utf-8"?>
<!-- Generator: Adobe Illustrator 24.1.2, SVG Export Plug-In . SVG Version: 6.00 Build 0)  -->
<svg version="1.0" id="Layer_1" xmlns="http://www.w3.org/2000/svg" xmlns:xlink="http://www.w3.org/1999/xlink" x="0px" y="0px" width="2000px" height="2000px" viewBox="0 0 2000 2000" style="enable-background:new 0 0 2000 2000;" xml:space="preserve">
<path id="background" style="fill:#FFFFFF;" d="M1900.48,1239.59l0.02,221.91c0,0.28-0.22,0.5-0.5,0.5l-117.88,0.02v333.16
	c0,0.28-0.22,0.5-0.5,0.5h0v102.29h-39.64h-19.54h-351.38v-1.84H300.27v0.23h-40.69v-494.01h22.68v-9.22
	c-100.96-1.07-182.77-83.53-182.77-184.75c0-0.28,0.22-0.5,0.5-0.5h182.27v-8.96h-22.68V751.34h31.39h9.29h761.94V259.42v-13.75
	v-23.29h660.34V102.22h57.58c0.01-0.27,0.23-0.48,0.5-0.48l119.34-0.02c0.13,0,0.26,0.05,0.35,0.15s0.15,0.22,0.15,0.35l0.02,221.91
	c0,0.28-0.22,0.5-0.5,0.5l-117.88,0.02V685.6c0,0.28-0.22,0.5-0.5,0.5h0v105.09v9.1v104.95h0c0.28,0,0.5,0.22,0.5,0.5v333.37
	l117.86-0.02c0.13,0,0.26,0.05,0.35,0.15S1900.48,1239.45,1900.48,1239.59z"></path>
<g id="h1">
	<path id="h1_path" style="fill:none;" d="M700.15,1147.94v291.65l-200.29,0l-0.01-291.65l110.56,0v0H700.15z"></path>
	<text id="h1_text" transform="matrix(1 0 0 1 580.7611 1297.1838)" style="font-family: GraphikLCG-Regular; font-size: 40px; text-anchor: middle; text-align: center;"></text>
</g>
<g id="c1">
	<path id="c1_path" style="fill:none;" d="M1253.54,1185.27V859.8h250.1v325.46H1253.54z"></path>
	
		<text id="c1_text" transform="matrix(1 0 0 1 1365.0063 1027.8879)" style="font-family: GraphikLCG-Regular; font-size: 40px; text-anchor: middle; text-align: center;"></text>
</g>
<g id="r1">
	<path id="r1_path" style="fill:none;" d="M1330.8,739.55v-0.05l-115.84,0.09l0.04-361.43h252.66v361.39H1330.8z"></path>
	<text id="r1_text" transform="matrix(1 0 0 1 1314.1521 565.0716)" style="font-family: GraphikLCG-Regular; font-size: 40px; text-anchor: middle; text-align: center;"></text>
</g>
<g id="s1">
	<path id="s1_path" style="fill:none;" d="M358.78,1144.11V893.73h211.1v250.39H358.78z"></path>
	<text id="s1_text" transform="matrix(1 0 0 1 435.201 1066.0383)" style="font-family: GraphikLCG-Regular; font-size: 40px; text-anchor: middle; text-align: center;"></text>
</g>
<g id="r2">
	<path id="r2_path" style="fill:none;" d="M1235.71,1432.71l-0.02,396.14h-173.49l0,0h-45.58v-396.13L1235.71,1432.71z"></path>
	
		<text id="r2_text" transform="matrix(1 0 0 1 1105.6302 1618.7444)" style="font-family: GraphikLCG-Regular; font-size: 40px; text-anchor: middle; text-align: center;"></text>
</g>
<g id="s2">
	<path id="s2_path" style="fill:none;" d="M526.35,1817.91v-288.5h176.63v288.5H526.35z"></path>
	<text id="s2_text" transform="matrix(1 0 0 1 598.9779 1661.092)" style="font-family: GraphikLCG-Regular; font-size: 40px; text-anchor: middle; text-align: center;"></text>
</g>
<path id="u2" style="fill:#FFFFFF;stroke:#FFFFFF;stroke-linecap:round;stroke-linejoin:round;stroke-miterlimit:10;" d="
	M1628.17,552.29c-7.49,0-13.56-6.07-13.56-13.56c0-7.49,6.07-13.56,13.56-13.56c7.49,0,13.56,6.07,13.56,13.56
	C1641.73,546.22,1635.66,552.29,1628.17,552.29z"></path>
<path id="u7" style="fill:#FFFFFF;stroke:#FFFFFF;stroke-linecap:round;stroke-linejoin:round;stroke-miterlimit:10;" d="
	M979.76,1077.45c-7.49,0-13.56-6.07-13.56-13.56c0-7.49,6.07-13.56,13.56-13.56s13.56,6.07,13.56,13.56
	C993.31,1071.38,987.24,1077.45,979.76,1077.45z"></path>
<path id="u1" style="fill:#FFFFFF;stroke:#FFFFFF;stroke-linecap:round;stroke-linejoin:round;stroke-miterlimit:10;" d="
	M1647.54,1609.8c-7.49,0-13.56-6.07-13.56-13.56c0-7.49,6.07-13.56,13.56-13.56s13.56,6.07,13.56,13.56
	C1661.1,1603.73,1655.03,1609.8,1647.54,1609.8z"></path>
<g id="mebel">
	<g>
		<g>
			
				<rect x="1099.13" y="259.11" style="fill:none;stroke:#000000;stroke-linecap:round;stroke-linejoin:round;stroke-miterlimit:10;" width="93.11" height="514.43"></rect>
			
				<line style="fill:none;stroke:#000000;stroke-linecap:round;stroke-linejoin:round;stroke-miterlimit:10;" x1="1182.29" y1="259.12" x2="1182.36" y2="773.52"></line>
		</g>
		
			<line style="fill:none;stroke:#000000;stroke-linecap:round;stroke-linejoin:round;stroke-miterlimit:10;" x1="1192.24" y1="602.84" x2="1099.13" y2="602.84"></line>
		
			<line style="fill:none;stroke:#000000;stroke-linecap:round;stroke-linejoin:round;stroke-miterlimit:10;" x1="1192.24" y1="432.14" x2="1099.13" y2="432.14"></line>
	</g>
	<g>
		<g>
			
				<rect x="300.27" y="1407.22" style="fill:none;stroke:#000000;stroke-linecap:round;stroke-linejoin:round;stroke-miterlimit:10;" width="399.46" height="111.62"></rect>
			
				<line style="fill:none;stroke:#000000;stroke-linecap:round;stroke-linejoin:round;stroke-miterlimit:10;" x1="300.28" y1="1417.17" x2="699.72" y2="1417.1"></line>
		</g>
		
			<line style="fill:none;stroke:#000000;stroke-linecap:round;stroke-linejoin:round;stroke-miterlimit:10;" x1="567.19" y1="1407.22" x2="567.19" y2="1518.84"></line>
		
			<line style="fill:none;stroke:#000000;stroke-linecap:round;stroke-linejoin:round;stroke-miterlimit:10;" x1="434.63" y1="1407.22" x2="434.63" y2="1518.84"></line>
	</g>
	<g>
		<g>
			
				<rect x="714.63" y="1747.51" style="fill:none;stroke:#000000;stroke-linecap:round;stroke-linejoin:round;stroke-miterlimit:10;" width="307.46" height="111.62"></rect>
			
				<line style="fill:none;stroke:#000000;stroke-linecap:round;stroke-linejoin:round;stroke-miterlimit:10;" x1="714.64" y1="1757.46" x2="1022.08" y2="1757.38"></line>
		</g>
		
			<line style="fill:none;stroke:#000000;stroke-linecap:round;stroke-linejoin:round;stroke-miterlimit:10;" x1="920.07" y1="1747.51" x2="920.07" y2="1859.12"></line>
		
			<line style="fill:none;stroke:#000000;stroke-linecap:round;stroke-linejoin:round;stroke-miterlimit:10;" x1="818.04" y1="1747.51" x2="818.04" y2="1859.12"></line>
	</g>
	<g>
		<g>
			<g>
				<g>
					<path style="fill:none;stroke:#000000;stroke-linecap:round;stroke-linejoin:round;stroke-miterlimit:10;" d="M1075.94,1257.63
						l5.42,25.4c3.39,15.89,18.18,26.7,34.35,25.09l1.84-0.18c16.16-1.61,28.53-15.09,28.74-31.33l0.33-26L1075.94,1257.63z"></path>
					<path style="fill:none;stroke:#000000;stroke-linecap:round;stroke-linejoin:round;stroke-miterlimit:10;" d="M1155.57,1271.12
						l-0.07,5.73c-0.27,20.79-16.11,38.06-36.8,40.12l-2.35,0.23c-20.71,2.06-39.65-11.78-43.99-32.13l-1.19-5.57
						c-0.57-2.69,1.32-5.28,4.06-5.56l0,0c2.34-0.23,4.48,1.33,4.97,3.63l1.16,5.44c3.39,15.89,18.18,26.7,34.35,25.09l1.84-0.18
						c16.16-1.61,28.53-15.09,28.74-31.33l0.07-5.6c0.03-2.35,1.82-4.3,4.15-4.53l0,0
						C1153.24,1266.2,1155.61,1268.37,1155.57,1271.12z"></path>
				</g>
				<g>
					<path style="fill:none;stroke:#000000;stroke-linecap:round;stroke-linejoin:round;stroke-miterlimit:10;" d="M1130.99,1093.79
						l-5.42-25.4c-3.39-15.89-18.18-26.69-34.35-25.09l-1.84,0.18c-16.16,1.61-28.53,15.1-28.74,31.33l-0.33,26L1130.99,1093.79z"></path>
					<path style="fill:none;stroke:#000000;stroke-linecap:round;stroke-linejoin:round;stroke-miterlimit:10;" d="M1051.36,1080.3
						l0.07-5.73c0.27-20.79,16.11-38.06,36.8-40.12l2.35-0.23c20.71-2.06,39.65,11.78,43.99,32.13l1.19,5.57
						c0.57,2.69-1.32,5.28-4.06,5.56l0,0c-2.34,0.23-4.48-1.33-4.97-3.63l-1.16-5.44c-3.39-15.89-18.18-26.69-34.35-25.09
						l-1.84,0.18c-16.16,1.61-28.53,15.1-28.74,31.33l-0.07,5.6c-0.03,2.35-1.82,4.3-4.15,4.53l0,0
						C1053.69,1085.22,1051.32,1083.05,1051.36,1080.3z"></path>
				</g>
				<g>
					<path style="fill:none;stroke:#000000;stroke-linecap:round;stroke-linejoin:round;stroke-miterlimit:10;" d="M1021.55,1148.19
						l-25.4,5.42c-15.89,3.39-26.7,18.18-25.09,34.35l0.18,1.84c1.61,16.16,15.09,28.53,31.33,28.74l26,0.33L1021.55,1148.19z"></path>
					<path style="fill:none;stroke:#000000;stroke-linecap:round;stroke-linejoin:round;stroke-miterlimit:10;" d="M1008.06,1227.82
						l-5.73-0.07c-20.79-0.27-38.06-16.11-40.12-36.8l-0.23-2.35c-2.06-20.71,11.78-39.65,32.13-43.99l5.57-1.19
						c2.69-0.57,5.28,1.32,5.56,4.06l0,0c0.23,2.34-1.33,4.48-3.63,4.97l-5.44,1.16c-15.89,3.39-26.7,18.18-25.09,34.35l0.18,1.84
						c1.61,16.16,15.09,28.53,31.33,28.74l5.6,0.07c2.35,0.03,4.3,1.82,4.53,4.15l0,0
						C1012.98,1225.49,1010.81,1227.85,1008.06,1227.82z"></path>
				</g>
				<g>
					<path style="fill:none;stroke:#000000;stroke-linecap:round;stroke-linejoin:round;stroke-miterlimit:10;" d="M1185.38,1203.23
						l25.4-5.42c15.89-3.39,26.69-18.18,25.09-34.35l-0.18-1.84c-1.61-16.16-15.1-28.53-31.33-28.74l-26-0.33L1185.38,1203.23z"></path>
					<path style="fill:none;stroke:#000000;stroke-linecap:round;stroke-linejoin:round;stroke-miterlimit:10;" d="M1198.87,1123.6
						l5.73,0.07c20.79,0.27,38.06,16.11,40.12,36.8l0.23,2.35c2.06,20.71-11.78,39.65-32.13,43.99l-5.57,1.19
						c-2.69,0.57-5.28-1.32-5.56-4.06l0,0c-0.23-2.34,1.33-4.48,3.63-4.97l5.44-1.16c15.89-3.39,26.69-18.18,25.09-34.35l-0.18-1.84
						c-1.61-16.16-15.1-28.53-31.33-28.74l-5.6-0.07c-2.35-0.03-4.3-1.82-4.53-4.15l0,0
						C1193.96,1125.93,1196.12,1123.57,1198.87,1123.6z"></path>
				</g>
			</g>
			
				<circle style="fill:#FFFFFF;stroke:#000000;stroke-linecap:round;stroke-linejoin:round;stroke-miterlimit:10;" cx="1103.42" cy="1175.27" r="86.95"></circle>
		</g>
		<g>
			<g>
				<g>
					
						<circle style="fill:none;stroke:#000000;stroke-linecap:round;stroke-linejoin:round;stroke-miterlimit:10;" cx="1101.77" cy="1121.2" r="16.04"></circle>
				</g>
				<g>
					
						<circle style="fill:none;stroke:#000000;stroke-linecap:round;stroke-linejoin:round;stroke-miterlimit:10;" cx="1101.77" cy="1121.2" r="9.13"></circle>
				</g>
				<g>
					
						<ellipse transform="matrix(0.9989 -0.0465 0.0465 0.9989 -51.5446 51.0887)" style="fill:none;stroke:#000000;stroke-linecap:round;stroke-linejoin:round;stroke-miterlimit:10;" cx="1071.15" cy="1132.25" rx="2.48" ry="4.04"></ellipse>
					
						<line style="fill:none;stroke:#000000;stroke-linecap:round;stroke-linejoin:round;stroke-miterlimit:10;" x1="1070.96" y1="1128.22" x2="1070.13" y2="1110.57"></line>
				</g>
				<g>
					<path style="fill:none;stroke:#000000;stroke-linecap:round;stroke-linejoin:round;stroke-miterlimit:10;" d="M1128.55,1133.62
						l-0.19-4.03c-0.1-2.23-1.3-3.98-2.67-3.92c-1.37,0.06-2.4,1.92-2.29,4.15l0.19,4.03"></path>
					
						<line style="fill:none;stroke:#000000;stroke-linecap:round;stroke-linejoin:round;stroke-miterlimit:10;" x1="1125.69" y1="1125.67" x2="1124.87" y2="1108.02"></line>
				</g>
				
					<line style="fill:none;stroke:#000000;stroke-linecap:round;stroke-linejoin:round;stroke-miterlimit:10;" x1="1126.07" y1="1133.73" x2="1125.69" y2="1125.67"></line>
				<g>
					<path style="fill:none;stroke:#000000;stroke-linecap:round;stroke-linejoin:round;stroke-miterlimit:10;" d="M1076.75,1121.07
						l3.85-0.18l0.7,14.92l-2.73,0.13c-0.62,0.03-1.14-0.45-1.17-1.07L1076.75,1121.07z"></path>
					<path style="fill:none;stroke:#000000;stroke-linecap:round;stroke-linejoin:round;stroke-miterlimit:10;" d="M1076.81,1110.26
						l2.73-0.13c0.31-0.01,0.57,0.22,0.59,0.53l0.48,10.23l-3.85,0.18l-0.48-10.23C1076.26,1110.54,1076.5,1110.27,1076.81,1110.26z
						"></path>
				</g>
			</g>
			<g>
				<g>
					
						<circle style="fill:none;stroke:#000000;stroke-linecap:round;stroke-linejoin:round;stroke-miterlimit:10;" cx="1101.51" cy="1227.91" r="16.04"></circle>
				</g>
				<g>
					
						<circle style="fill:none;stroke:#000000;stroke-linecap:round;stroke-linejoin:round;stroke-miterlimit:10;" cx="1101.51" cy="1227.91" r="9.13"></circle>
				</g>
				<g>
					
						<ellipse transform="matrix(0.9989 -0.0465 0.0465 0.9989 -55.3884 53.9901)" style="fill:none;stroke:#000000;stroke-linecap:round;stroke-linejoin:round;stroke-miterlimit:10;" cx="1132.13" cy="1216.86" rx="2.48" ry="4.04"></ellipse>
					
						<line style="fill:none;stroke:#000000;stroke-linecap:round;stroke-linejoin:round;stroke-miterlimit:10;" x1="1132.32" y1="1220.89" x2="1133.14" y2="1238.54"></line>
				</g>
				<g>
					<path style="fill:none;stroke:#000000;stroke-linecap:round;stroke-linejoin:round;stroke-miterlimit:10;" d="M1074.73,1215.49
						l0.19,4.03c0.1,2.23,1.3,3.98,2.67,3.92c1.37-0.06,2.4-1.92,2.29-4.15l-0.19-4.03"></path>
					
						<line style="fill:none;stroke:#000000;stroke-linecap:round;stroke-linejoin:round;stroke-miterlimit:10;" x1="1077.59" y1="1223.44" x2="1078.41" y2="1241.09"></line>
				</g>
				
					<line style="fill:none;stroke:#000000;stroke-linecap:round;stroke-linejoin:round;stroke-miterlimit:10;" x1="1077.21" y1="1215.38" x2="1077.59" y2="1223.44"></line>
				<g>
					<path style="fill:none;stroke:#000000;stroke-linecap:round;stroke-linejoin:round;stroke-miterlimit:10;" d="M1126.53,1228.04
						l-3.85,0.18l-0.7-14.92l2.73-0.13c0.62-0.03,1.14,0.45,1.17,1.07L1126.53,1228.04z"></path>
					<path style="fill:none;stroke:#000000;stroke-linecap:round;stroke-linejoin:round;stroke-miterlimit:10;" d="M1126.47,1238.85
						l-2.73,0.13c-0.31,0.01-0.57-0.22-0.59-0.53l-0.48-10.23l3.85-0.18l0.48,10.23
						C1127.02,1238.57,1126.78,1238.84,1126.47,1238.85z"></path>
				</g>
			</g>
			<g>
				<g>
					
						<circle style="fill:none;stroke:#000000;stroke-linecap:round;stroke-linejoin:round;stroke-miterlimit:10;" cx="1050.42" cy="1174.27" r="16.04"></circle>
				</g>
				<g>
					
						<circle style="fill:none;stroke:#000000;stroke-linecap:round;stroke-linejoin:round;stroke-miterlimit:10;" cx="1050.42" cy="1174.27" r="9.13"></circle>
				</g>
				<g>
					
						<ellipse transform="matrix(0.9989 -0.0465 0.0465 0.9989 -54.8842 50.6662)" style="fill:none;stroke:#000000;stroke-linecap:round;stroke-linejoin:round;stroke-miterlimit:10;" cx="1061.46" cy="1204.89" rx="4.04" ry="2.48"></ellipse>
					
						<line style="fill:none;stroke:#000000;stroke-linecap:round;stroke-linejoin:round;stroke-miterlimit:10;" x1="1057.43" y1="1205.08" x2="1039.78" y2="1205.9"></line>
				</g>
				<g>
					<path style="fill:none;stroke:#000000;stroke-linecap:round;stroke-linejoin:round;stroke-miterlimit:10;" d="M1062.83,1147.49
						l-4.03,0.19c-2.23,0.1-3.98,1.3-3.92,2.67c0.06,1.37,1.92,2.4,4.15,2.29l4.03-0.19"></path>
					
						<line style="fill:none;stroke:#000000;stroke-linecap:round;stroke-linejoin:round;stroke-miterlimit:10;" x1="1054.88" y1="1150.34" x2="1037.24" y2="1151.17"></line>
				</g>
				
					<line style="fill:none;stroke:#000000;stroke-linecap:round;stroke-linejoin:round;stroke-miterlimit:10;" x1="1062.95" y1="1149.97" x2="1054.88" y2="1150.34"></line>
				<g>
					<path style="fill:none;stroke:#000000;stroke-linecap:round;stroke-linejoin:round;stroke-miterlimit:10;" d="M1050.29,1199.28
						l-0.18-3.85l14.92-0.69l0.13,2.73c0.03,0.62-0.45,1.14-1.07,1.17L1050.29,1199.28z"></path>
					<path style="fill:none;stroke:#000000;stroke-linecap:round;stroke-linejoin:round;stroke-miterlimit:10;" d="M1039.47,1199.23
						l-0.13-2.73c-0.01-0.31,0.22-0.57,0.53-0.59l10.23-0.48l0.18,3.85l-10.23,0.48
						C1039.75,1199.77,1039.49,1199.54,1039.47,1199.23z"></path>
				</g>
			</g>
			<g>
				<g>
					
						<circle style="fill:none;stroke:#000000;stroke-linecap:round;stroke-linejoin:round;stroke-miterlimit:10;" cx="1154.87" cy="1173.03" r="16.04"></circle>
				</g>
				<g>
					
						<circle style="fill:none;stroke:#000000;stroke-linecap:round;stroke-linejoin:round;stroke-miterlimit:10;" cx="1154.87" cy="1173.03" r="9.13"></circle>
				</g>
				<g>
					
						<ellipse transform="matrix(0.9989 -0.0465 0.0465 0.9989 -51.8893 54.429)" style="fill:none;stroke:#000000;stroke-linecap:round;stroke-linejoin:round;stroke-miterlimit:10;" cx="1143.83" cy="1142.41" rx="4.04" ry="2.48"></ellipse>
					
						<line style="fill:none;stroke:#000000;stroke-linecap:round;stroke-linejoin:round;stroke-miterlimit:10;" x1="1147.86" y1="1142.22" x2="1165.51" y2="1141.4"></line>
				</g>
				<g>
					<path style="fill:none;stroke:#000000;stroke-linecap:round;stroke-linejoin:round;stroke-miterlimit:10;" d="M1142.46,1199.81
						l4.03-0.19c2.23-0.1,3.98-1.3,3.92-2.67c-0.06-1.37-1.92-2.4-4.15-2.29l-4.03,0.19"></path>
					
						<line style="fill:none;stroke:#000000;stroke-linecap:round;stroke-linejoin:round;stroke-miterlimit:10;" x1="1150.41" y1="1196.95" x2="1168.06" y2="1196.13"></line>
				</g>
				
					<line style="fill:none;stroke:#000000;stroke-linecap:round;stroke-linejoin:round;stroke-miterlimit:10;" x1="1142.35" y1="1197.33" x2="1150.41" y2="1196.95"></line>
				<g>
					<path style="fill:none;stroke:#000000;stroke-linecap:round;stroke-linejoin:round;stroke-miterlimit:10;" d="M1155.01,1148.01
						l0.18,3.85l-14.92,0.69l-0.13-2.73c-0.03-0.62,0.45-1.14,1.07-1.17L1155.01,1148.01z"></path>
					<path style="fill:none;stroke:#000000;stroke-linecap:round;stroke-linejoin:round;stroke-miterlimit:10;" d="M1165.82,1148.07
						l0.13,2.73c0.01,0.31-0.22,0.57-0.53,0.59l-10.23,0.48l-0.18-3.85l10.23-0.48C1165.54,1147.52,1165.8,1147.76,1165.82,1148.07z
						"></path>
				</g>
			</g>
		</g>
		<g>
			<path style="fill:none;stroke:#000000;stroke-linecap:round;stroke-linejoin:round;stroke-miterlimit:10;" d="M1126.81,1189.9
				l-48.38-1.41c-1.89-0.06-3.38-1.63-3.32-3.52l0.59-20.06c0.06-1.89,1.63-3.38,3.52-3.32l48.38,1.41
				c1.89,0.06,3.38,1.63,3.32,3.52l-0.59,20.06C1130.28,1188.47,1128.7,1189.95,1126.81,1189.9z"></path>
			
				<circle style="fill:none;stroke:#000000;stroke-linecap:round;stroke-linejoin:round;stroke-miterlimit:10;" cx="1086.83" cy="1172.75" r="5.06"></circle>
			
				<circle style="fill:none;stroke:#000000;stroke-linecap:round;stroke-linejoin:round;stroke-miterlimit:10;" cx="1095.26" cy="1180.58" r="5.06"></circle>
			
				<circle style="fill:none;stroke:#000000;stroke-linecap:round;stroke-linejoin:round;stroke-miterlimit:10;" cx="1099.51" cy="1169.95" r="5.06"></circle>
			<path style="fill:none;stroke:#000000;stroke-linecap:round;stroke-linejoin:round;stroke-miterlimit:10;" d="M1119.3,1165.15
				l-1.12-0.26l-0.82,4.38c-4.28,7.79-11.48,7.39-15.48,7.53c-0.93,0.03-1.23,1.27-0.43,1.73c2.83,1.65,7.51,3.52,11.99,1.4
				c5.13-2.42,5.31-7.59,5.03-10.25L1119.3,1165.15z"></path>
			<path style="fill:none;stroke:#000000;stroke-linecap:round;stroke-linejoin:round;stroke-miterlimit:10;" d="M1123.83,1175.25
				l-0.99-0.57l-2.06,3.94c-6.37,6.21-13.14,3.72-17,2.69c-0.89-0.24-1.55,0.85-0.92,1.53c2.22,2.4,6.16,5.55,11.06,4.84
				c5.61-0.82,7.29-5.71,7.8-8.34L1123.83,1175.25z"></path>
		</g>
	</g>
	<g>
		<g>
			<g>
				<path style="fill:none;stroke:#000000;stroke-linecap:round;stroke-linejoin:round;stroke-miterlimit:10;" d="M1497.15,1307.7
					h166.53c0.67,0,1.21-0.54,1.21-1.21v-118.11c0-0.67-0.54-1.21-1.21-1.21h-166.53c-0.67,0-1.21,0.54-1.21,1.21v118.11
					C1495.95,1307.16,1496.49,1307.7,1497.15,1307.7z"></path>
				<path style="fill:none;stroke:#000000;stroke-linecap:round;stroke-linejoin:round;stroke-miterlimit:10;" d="M1497.15,1307.7
					h166.53c0.67,0,1.21,0.54,1.21,1.21v46.21c0,0.67-0.54,1.21-1.21,1.21h-166.53c-0.67,0-1.21-0.54-1.21-1.21v-46.21
					C1495.95,1308.24,1496.49,1307.7,1497.15,1307.7z"></path>
				<path style="fill:none;stroke:#000000;stroke-linecap:round;stroke-linejoin:round;stroke-miterlimit:10;" d="M1494.74,1307.7
					h-161.76c-0.67,0-1.21-0.54-1.21-1.21v-118.11c0-0.67,0.54-1.21,1.21-1.21h161.76c0.67,0,1.21,0.54,1.21,1.21v118.11
					C1495.95,1307.16,1495.41,1307.7,1494.74,1307.7z"></path>
				<path style="fill:none;stroke:#000000;stroke-linecap:round;stroke-linejoin:round;stroke-miterlimit:10;" d="M1494.74,1307.7
					h-161.76c-0.67,0-1.21,0.54-1.21,1.21v46.21c0,0.67,0.54,1.21,1.21,1.21h161.76c0.67,0,1.21-0.54,1.21-1.21v-46.21
					C1495.95,1308.24,1495.41,1307.7,1494.74,1307.7z"></path>
			</g>
		</g>
		<g>
			<path style="fill:none;stroke:#000000;stroke-linecap:round;stroke-linejoin:round;stroke-miterlimit:10;" d="M1368.63,1227.14
				l0,0.01c-3.08,14.58-8.44,28.59-15.88,41.5l-0.01,0.01c-1.94,3.36-0.03,7.64,3.77,8.44l0.01,0c14.58,3.08,28.59,8.44,41.5,15.88
				l0.01,0.01c3.36,1.94,7.64,0.03,8.44-3.77l0-0.01c1.45-6.87,3.45-13.6,5.89-20.17c-8.36-0.37-16.75-0.09-25.09,0.87l-4.92,0.57
				c-2.2,0.25-4.01-1.71-3.57-3.89l0.98-4.85c2.11-10.43,2.57-21.14,1.35-31.71l-0.56-4.82c-1.16-0.62-2.35-1.17-3.49-1.83
				l-0.01-0.01C1373.7,1221.43,1369.43,1223.34,1368.63,1227.14z"></path>
			<path style="fill:none;stroke:#000000;stroke-linecap:round;stroke-linejoin:round;stroke-miterlimit:10;" d="M1443.53,1224.05
				l-4.92,0.57c-16.44,1.9-33.09,1.19-49.31-2.09l-4.85-0.98c-2.17-0.44-4.14,1.37-3.89,3.57l0.57,4.92
				c1.22,10.58,0.77,21.28-1.35,31.71l-0.98,4.85c-0.44,2.17,1.37,4.14,3.57,3.89l4.92-0.57c16.44-1.9,33.09-1.19,49.31,2.09
				l4.85,0.98c2.17,0.44,4.14-1.37,3.89-3.57l-0.57-4.92c-1.22-10.58-0.77-21.28,1.35-31.71l0.98-4.85
				C1447.54,1225.76,1445.73,1223.8,1443.53,1224.05z"></path>
		</g>
		<g>
			<path style="fill:none;stroke:#000000;stroke-linecap:round;stroke-linejoin:round;stroke-miterlimit:10;" d="M1632.45,1222.99
				l0,0.01c3.08,14.58,8.44,28.59,15.88,41.5l0.01,0.01c1.94,3.36,0.03,7.64-3.77,8.44l-0.01,0c-14.58,3.08-28.59,8.44-41.5,15.88
				l-0.01,0.01c-3.36,1.94-7.64,0.03-8.44-3.77l0-0.01c-1.45-6.87-3.45-13.6-5.89-20.17c8.36-0.37,16.75-0.09,25.09,0.87l4.92,0.57
				c2.2,0.25,4.01-1.71,3.57-3.89l-0.98-4.85c-2.11-10.43-2.57-21.14-1.35-31.71l0.56-4.82c1.16-0.62,2.35-1.17,3.49-1.83l0.01-0.01
				C1627.37,1217.28,1631.65,1219.19,1632.45,1222.99z"></path>
			<path style="fill:none;stroke:#000000;stroke-linecap:round;stroke-linejoin:round;stroke-miterlimit:10;" d="M1557.55,1219.9
				l4.92,0.57c16.44,1.9,33.09,1.19,49.31-2.09l4.85-0.98c2.17-0.44,4.14,1.37,3.89,3.57l-0.57,4.92
				c-1.22,10.58-0.77,21.28,1.35,31.71l0.98,4.85c0.44,2.17-1.37,4.14-3.57,3.89l-4.92-0.57c-16.44-1.9-33.09-1.19-49.31,2.09
				l-4.85,0.98c-2.17,0.44-4.14-1.37-3.89-3.57l0.57-4.92c1.22-10.58,0.77-21.28-1.35-31.71l-0.98-4.85
				C1553.54,1221.61,1555.34,1219.64,1557.55,1219.9z"></path>
		</g>
	</g>
	<g>
		<g>
			<g>
				
					<rect x="1492.21" y="700.33" transform="matrix(1.985611e-06 -1 1 1.985611e-06 691.6231 2305.041)" style="fill:none;stroke:#000000;stroke-linecap:round;stroke-linejoin:round;stroke-miterlimit:10;" width="12.25" height="212.76"></rect>
				<polygon style="fill:none;stroke:#000000;stroke-linecap:round;stroke-linejoin:round;stroke-miterlimit:10;" points="
					1582.58,788.33 1604.72,800.58 1391.95,800.58 1414.08,788.33 				"></polygon>
			</g>
		</g>
		<g>
			
				<rect x="1478.84" y="685.11" transform="matrix(-2.676195e-06 1 -1 -2.676195e-06 2309.6804 -690.5096)" style="fill:none;stroke:#000000;stroke-linecap:round;stroke-linejoin:round;stroke-miterlimit:10;" width="42.5" height="248.94"></rect>
		</g>
	</g>
	<g>
		<polygon style="fill:none;stroke:#000000;stroke-linecap:round;stroke-linejoin:round;stroke-miterlimit:10;" points="
			1099.52,897.65 989.05,897.65 989.05,787.2 1099.52,787.19 		"></polygon>
		<g>
			
				<line style="fill:none;stroke:#000000;stroke-linecap:round;stroke-linejoin:round;stroke-miterlimit:10;" x1="1044.29" y1="815.83" x2="1044.29" y2="869.01"></line>
			
				<line style="fill:none;stroke:#000000;stroke-linecap:round;stroke-linejoin:round;stroke-miterlimit:10;" x1="1070.88" y1="842.42" x2="1017.69" y2="842.42"></line>
			<polyline style="fill:none;stroke:#000000;stroke-linecap:round;stroke-linejoin:round;stroke-miterlimit:10;" points="
				1057.58,821.74 1044.29,829.12 1030.99,821.74 			"></polyline>
			<polyline style="fill:none;stroke:#000000;stroke-linecap:round;stroke-linejoin:round;stroke-miterlimit:10;" points="
				1023.6,829.12 1030.99,842.42 1023.6,855.71 			"></polyline>
			<polyline style="fill:none;stroke:#000000;stroke-linecap:round;stroke-linejoin:round;stroke-miterlimit:10;" points="
				1030.99,863.1 1044.29,855.71 1057.58,863.1 			"></polyline>
			<polyline style="fill:none;stroke:#000000;stroke-linecap:round;stroke-linejoin:round;stroke-miterlimit:10;" points="
				1064.97,855.71 1057.58,842.42 1064.97,829.12 			"></polyline>
		</g>
	</g>
	<g>
		<polygon style="fill:none;stroke:#000000;stroke-linecap:round;stroke-linejoin:round;stroke-miterlimit:10;" points="
			747.81,1032.15 747.81,949.56 637.12,949.56 637.11,1032.15 		"></polygon>
		<path style="fill:none;stroke:#000000;stroke-linecap:round;stroke-linejoin:round;stroke-miterlimit:10;" d="M669.28,992.23
			l26.73-11.74c1.64-0.64,3.43-0.99,5.32-0.99c7.59,0,13.73,5.7,13.73,12.73c0,7.03-6.15,12.73-13.73,12.73
			c-1.89,0-3.68-0.35-5.32-0.99L669.28,992.23z"></path>
	</g>
	<polygon style="fill:none;stroke:#000000;stroke-linecap:round;stroke-linejoin:round;stroke-miterlimit:10;" points="
		747.81,897.66 747.81,1140.64 638.7,1140.64 638.7,788.34 1099.52,788.34 1099.52,897.66 	"></polygon>
	<g>
		<g>
			<g>
				<path style="fill:none;stroke:#000000;stroke-linecap:round;stroke-linejoin:round;stroke-miterlimit:10;" d="M952.78,821.55
					l2.21,5.3c-0.45,0.1-0.9,0.22-1.34,0.41s-0.84,0.42-1.23,0.67l-2.21-5.3c-0.17-0.41,0.02-0.88,0.43-1.06l1.08-0.45
					C952.14,820.95,952.61,821.14,952.78,821.55z"></path>
				
					<circle style="fill:none;stroke:#000000;stroke-linecap:round;stroke-linejoin:round;stroke-miterlimit:10;" cx="956.67" cy="834.49" r="7.83"></circle>
			</g>
			<g>
				<path style="fill:none;stroke:#000000;stroke-linecap:round;stroke-linejoin:round;stroke-miterlimit:10;" d="M953.92,867.69
					l5.3-2.21c0.1,0.45,0.22,0.9,0.41,1.34s0.42,0.84,0.67,1.23l-5.3,2.21c-0.41,0.17-0.88-0.02-1.06-0.43l-0.45-1.08
					C953.32,868.34,953.51,867.86,953.92,867.69z"></path>
				
					<circle style="fill:none;stroke:#000000;stroke-linecap:round;stroke-linejoin:round;stroke-miterlimit:10;" cx="966.86" cy="863.8" r="7.83"></circle>
			</g>
		</g>
	</g>
	<g>
		<g>
			<path style="fill:none;stroke:#000000;stroke-linecap:round;stroke-linejoin:round;stroke-miterlimit:10;" d="M684.93,862.27
				l-0.63,0.91c-1.01,1.47-1.51,3.2-1.7,4.97c-0.14,1.31-0.77,2.59-1.91,3.54c-1.68,1.4-4.13,1.64-6.03,0.56
				c-3.09-1.75-3.65-5.76-1.43-8.27c0.83-0.94,1.9-1.51,3.04-1.72c1.66-0.3,3.18-1.13,4.44-2.25l0.83-0.74
				c1.12-1,1.11-2.76-0.01-3.76l-3.17-2.79c-1.73-1.53-1.9-4.17-0.37-5.9l20.97-23.79c1.53-1.73,4.17-1.9,5.9-0.37l13.47,11.87
				c1.73,1.53,1.9,4.17,0.37,5.9l-20.97,23.79c-1.53,1.73-4.17,1.9-5.9,0.37l-3.17-2.79C687.53,860.81,685.78,861.03,684.93,862.27z
				"></path>
			
				<circle style="fill:none;stroke:#000000;stroke-linecap:round;stroke-linejoin:round;stroke-miterlimit:10;" cx="677.33" cy="867.46" r="2.62"></circle>
		</g>
		<g>
			<path style="fill:none;stroke:#000000;stroke-linecap:round;stroke-linejoin:round;stroke-miterlimit:10;" d="M692.44,845.31
				l-6.82,2.3c-0.36,0.12-0.55,0.51-0.43,0.87l3.33,9.88c0.12,0.36,0.51,0.55,0.87,0.43l6.82-2.3c0.36-0.12,0.55-0.51,0.43-0.87
				l-3.33-9.88C693.19,845.39,692.8,845.19,692.44,845.31z"></path>
			<path style="fill:none;stroke:#000000;stroke-linecap:round;stroke-linejoin:round;stroke-miterlimit:10;" d="M699.84,836.92
				l-6.82,2.3c-0.36,0.12-0.55,0.51-0.43,0.87l3.33,9.88c0.12,0.36,0.51,0.55,0.87,0.43l6.82-2.3c0.36-0.12,0.55-0.51,0.43-0.87
				l-3.33-9.88C700.59,836.99,700.2,836.8,699.84,836.92z"></path>
			<path style="fill:none;stroke:#000000;stroke-linecap:round;stroke-linejoin:round;stroke-miterlimit:10;" d="M707.21,828.56
				l-6.82,2.3c-0.36,0.12-0.55,0.51-0.43,0.87l3.33,9.88c0.12,0.36,0.51,0.55,0.87,0.43l6.82-2.3c0.36-0.12,0.55-0.51,0.43-0.87
				l-3.33-9.88C707.96,828.64,707.57,828.44,707.21,828.56z"></path>
		</g>
	</g>
	<g>
		<g>
			<g>
				<path style="fill:none;stroke:#000000;stroke-linecap:round;stroke-linejoin:round;stroke-miterlimit:10;" d="M1552.3,536.82
					c0-12.69-19.1-23.17-42.66-23.17c-23.56,0-42.66,10.61-42.66,23.17v67.9c0,5.34,4.33,9.67,9.67,9.67h65.99
					c5.34,0,9.67-4.33,9.67-9.67V536.82z"></path>
				<path style="fill:none;stroke:#000000;stroke-linecap:round;stroke-linejoin:round;stroke-miterlimit:10;" d="M1567.81,536.82
					c0-21.17-26.05-38.65-58.18-38.65c-32.13,0-58.18,17.7-58.18,38.65v52.36c0,8.57,6.95,15.51,15.51,15.51l0,0v-67.87
					c0-12.56,19.1-23.17,42.66-23.17c23.56,0,42.66,10.48,42.66,23.17v67.87l0,0c8.57,0,15.51-6.95,15.51-15.51V536.82z"></path>
			</g>
			
				<rect x="1410.61" y="636.14" transform="matrix(-1 2.132271e-10 -2.132271e-10 -1 3056.8657 1383.785)" style="fill:none;stroke:#000000;stroke-linecap:round;stroke-linejoin:round;stroke-miterlimit:10;" width="235.64" height="111.5"></rect>
		</g>
		<g>
			
				<rect x="1430.97" y="659.21" transform="matrix(-0.7 -0.7142 0.7142 -0.7 1973.9575 2187.3025)" style="fill:none;stroke:#000000;stroke-linecap:round;stroke-linejoin:round;stroke-miterlimit:10;" width="30.96" height="39.58"></rect>
			
				<line style="fill:none;stroke:#000000;stroke-linecap:round;stroke-linejoin:round;stroke-miterlimit:10;" x1="1448.83" y1="701.63" x2="1445.35" y2="698.08"></line>
			
				<line style="fill:none;stroke:#000000;stroke-linecap:round;stroke-linejoin:round;stroke-miterlimit:10;" x1="1452.87" y1="697.67" x2="1449.39" y2="694.12"></line>
			
				<line style="fill:none;stroke:#000000;stroke-linecap:round;stroke-linejoin:round;stroke-miterlimit:10;" x1="1460.95" y1="689.76" x2="1457.47" y2="686.2"></line>
			
				<line style="fill:none;stroke:#000000;stroke-linecap:round;stroke-linejoin:round;stroke-miterlimit:10;" x1="1456.91" y1="693.71" x2="1453.43" y2="690.16"></line>
			
				<line style="fill:none;stroke:#000000;stroke-linecap:round;stroke-linejoin:round;stroke-miterlimit:10;" x1="1464.99" y1="685.8" x2="1461.51" y2="682.25"></line>
			
				<line style="fill:none;stroke:#000000;stroke-linecap:round;stroke-linejoin:round;stroke-miterlimit:10;" x1="1469.02" y1="681.84" x2="1465.54" y2="678.29"></line>
			
				<rect x="1435.48" y="679.98" transform="matrix(-0.7 -0.7142 0.7142 -0.7 1962.9912 2191.6521)" style="fill:none;stroke:#000000;stroke-linecap:round;stroke-linejoin:round;stroke-miterlimit:10;" width="12.8" height="6.99"></rect>
		</g>
		<g>
			<path style="fill:none;stroke:#000000;stroke-linecap:round;stroke-linejoin:round;stroke-miterlimit:10;" d="M1484.15,652.9
				h75.26c0.33,0,0.6,0.27,0.6,0.6v51.01c0,0.33-0.27,0.6-0.6,0.6l-75.26,0c-0.33,0-0.6-0.27-0.6-0.6v-51.01
				C1483.56,653.17,1483.83,652.9,1484.15,652.9z"></path>
			
				<rect x="1492.35" y="674.44" transform="matrix(-1 -5.759833e-07 5.759833e-07 -1 3043.5713 1374.2745)" style="fill:none;stroke:#000000;stroke-linecap:round;stroke-linejoin:round;stroke-miterlimit:10;" width="58.87" height="25.39"></rect>
			
				<rect x="1509.93" y="656.08" transform="matrix(-1 -5.759833e-07 5.759833e-07 -1 3043.5713 1326.5208)" style="fill:none;stroke:#000000;stroke-linecap:round;stroke-linejoin:round;stroke-miterlimit:10;" width="23.71" height="14.35"></rect>
			<path style="fill:none;stroke:#000000;stroke-linecap:round;stroke-linejoin:round;stroke-miterlimit:10;" d="M1483.56,705.1
				l76.45,0l8.49,16.24c1.19,2.27-0.46,4.99-3.02,4.99l-87.39,0c-2.56,0-4.21-2.72-3.02-4.99L1483.56,705.1z"></path>
		</g>
		<g>
			
				<circle style="fill:none;stroke:#000000;stroke-linecap:round;stroke-linejoin:round;stroke-miterlimit:10;" cx="1599.82" cy="688.63" r="7.13"></circle>
			
				<circle style="fill:none;stroke:#000000;stroke-linecap:round;stroke-linejoin:round;stroke-miterlimit:10;" cx="1599.82" cy="688.63" r="5.04"></circle>
			
				<line style="fill:none;stroke:#000000;stroke-linecap:round;stroke-linejoin:round;stroke-miterlimit:10;" x1="1603.76" y1="694.15" x2="1606.66" y2="698.23"></line>
			<path style="fill:none;stroke:#000000;stroke-linecap:round;stroke-linejoin:round;stroke-miterlimit:10;" d="M1593.55,705.7
				c5.25,1.93,10.78,1.21,15.28-1.36l-2.58-3.64c-0.57-0.8-0.38-1.9,0.42-2.47c0.49-0.35,1.11-0.41,1.64-0.22
				c0.32,0.12,0.62,0.33,0.83,0.64l2.58,3.63c2.24-1.94,4.08-4.4,5.17-7.37c3.47-9.43-1.37-19.88-10.79-23.35
				c-9.43-3.47-19.88,1.37-23.35,10.79C1579.29,691.78,1584.12,702.23,1593.55,705.7z"></path>
			<g>
				
					<rect x="1623.13" y="726.91" transform="matrix(0.8154 -0.5789 0.5789 0.8154 -122.656 1075.5305)" style="fill:none;stroke:#000000;stroke-linecap:round;stroke-linejoin:round;stroke-miterlimit:10;" width="3.55" height="6.31"></rect>
				
					<rect x="1628.92" y="722.81" transform="matrix(0.8154 -0.5789 0.5789 0.8154 -119.2128 1078.1113)" style="fill:none;stroke:#000000;stroke-linecap:round;stroke-linejoin:round;stroke-miterlimit:10;" width="3.54" height="6.31"></rect>
			</g>
			<g>
				<path style="fill:none;stroke:#000000;stroke-linecap:round;stroke-linejoin:round;stroke-miterlimit:10;" d="M1616.69,715.41
					c-1.23,1.2-2.23,2.65-2.87,4.36c-2.26,6.15,0.89,12.96,7.04,15.22c3.18,1.17,6.53,0.87,9.34-0.53L1616.69,715.41z"></path>
				<path style="fill:none;stroke:#000000;stroke-linecap:round;stroke-linejoin:round;stroke-miterlimit:10;" d="M1633.1,732.41
					c1.28-1.21,2.33-2.69,2.98-4.46c2.26-6.15-0.89-12.96-7.04-15.22c-3.23-1.19-6.63-0.85-9.47,0.6L1633.1,732.41z"></path>
			</g>
			<g>
				<path style="fill:none;stroke:#000000;stroke-linecap:round;stroke-linejoin:round;stroke-miterlimit:10;" d="M1608.31,698.01
					c0.32,0.12,0.62,0.33,0.83,0.64l27.44,38.68c0.57,0.8,0.38,1.9-0.42,2.47c-0.8,0.57-1.9,0.38-2.47-0.42l-27.44-38.68
					c-0.57-0.8-0.38-1.9,0.42-2.47C1607.16,697.87,1607.78,697.81,1608.31,698.01z"></path>
			</g>
		</g>
	</g>
	<g>
		<g>
			
				<rect x="1556.34" y="345.44" transform="matrix(-2.256267e-04 1 -1 -2.256267e-04 2002.7997 -1296.9478)" style="fill:none;stroke:#000000;stroke-linecap:round;stroke-linejoin:round;stroke-miterlimit:10;" width="186.78" height="14.51"></rect>
			
				<rect x="1365.42" y="168.99" transform="matrix(-2.256267e-04 1 -1 -2.256267e-04 1811.7952 -1106.0699)" style="fill:none;stroke:#000000;stroke-linecap:round;stroke-linejoin:round;stroke-miterlimit:10;" width="186.78" height="367.33"></rect>
			<path style="fill:none;stroke:#000000;stroke-linecap:round;stroke-linejoin:round;stroke-miterlimit:10;" d="M1567.85,271.81
				l-275.76-0.06c-2.67,0-4.84,1.87-4.84,4.17l-0.03,153.39c0,2.3,2.16,4.17,4.84,4.17l275.76,0.06L1567.85,271.81z"></path>
			<path style="fill:none;stroke:#000000;stroke-linecap:round;stroke-linejoin:round;stroke-miterlimit:10;" d="M1567.84,296.34
				l0.01-24.53l62.55,0.01c2.67,0,4.84,1.87,4.84,4.17l-0.03,153.39c0,2.31-2.17,4.17-4.84,4.17l-62.55-0.01l0.01-24.53l35.73,0.01
				c10.69,0,19.35-7.47,19.35-16.69l0.02-79.3c0-9.22-8.66-16.7-19.34-16.7L1567.84,296.34z"></path>
		</g>
		<g>
			
				<circle style="fill:none;stroke:#000000;stroke-linecap:round;stroke-linejoin:round;stroke-miterlimit:10;" cx="1436.41" cy="364.61" r="10.11"></circle>
			<g>
				
					<circle style="fill:none;stroke:#000000;stroke-linecap:round;stroke-linejoin:round;stroke-miterlimit:10;" cx="1438.72" cy="362.57" r="1.08"></circle>
				
					<circle style="fill:none;stroke:#000000;stroke-linecap:round;stroke-linejoin:round;stroke-miterlimit:10;" cx="1434.79" cy="367.23" r="1.08"></circle>
			</g>
			<polygon style="fill:none;stroke:#000000;stroke-linecap:round;stroke-linejoin:round;stroke-miterlimit:10;" points="
				1435.51,361 1432.7,364.34 1432.43,361.27 			"></polygon>
			<path style="fill:none;stroke:#000000;stroke-linecap:round;stroke-linejoin:round;stroke-miterlimit:10;" d="M1406.97,339.85
				L1406.97,339.85c3.98-4.74,11.29-4.7,15.23,0.08l7.7,9.34c1.79,2.17,1.77,5.3-0.04,7.44l-2.35,2.8c-1.81,2.15-4.89,2.7-7.33,1.31
				l-10.52-5.98C1404.27,351.78,1402.98,344.59,1406.97,339.85z"></path>
			<path style="fill:none;stroke:#000000;stroke-linecap:round;stroke-linejoin:round;stroke-miterlimit:10;" d="M1412.29,366.98
				l10.48-5.36l-0.06-0.12c-0.87-0.05-1.74-0.22-2.54-0.68l-4.33-2.46l-6.31,3.23c-1.49,0.76-2.08,2.59-1.32,4.07
				C1408.98,367.15,1410.8,367.74,1412.29,366.98z"></path>
			<path style="fill:none;stroke:#000000;stroke-linecap:round;stroke-linejoin:round;stroke-miterlimit:10;" d="M1428.91,338.54
				l-2.15,6.93l3.13,3.79c0.55,0.67,0.87,1.44,1.08,2.24l0.24,0.07l3.49-11.25c0.5-1.6-0.4-3.29-2-3.79
				C1431.1,336.05,1429.41,336.94,1428.91,338.54z"></path>
			<path style="fill:none;stroke:#000000;stroke-linecap:round;stroke-linejoin:round;stroke-miterlimit:10;" d="M1406.79,340.13
				l-6.71-6.11c-1.59-1.45-4.05-1.33-5.49,0.26c-1.44,1.59-1.33,4.05,0.26,5.49l10.29,9.37
				C1404.22,346.15,1404.69,342.79,1406.79,340.13z"></path>
			<path style="fill:none;stroke:#000000;stroke-linecap:round;stroke-linejoin:round;stroke-miterlimit:10;" d="M1418.55,337.18
				l0.27-0.18l-7.94-11.91c-1.19-1.79-3.6-2.27-5.39-1.08c-1.79,1.19-2.27,3.6-1.08,5.39l5.44,8.16
				C1412.55,336.1,1415.77,335.95,1418.55,337.18z"></path>
			<path style="fill:none;stroke:#000000;stroke-linecap:round;stroke-linejoin:round;stroke-miterlimit:10;" d="M1446.09,367.51
				l15.16,4.67c2.29,0.71,4.7-0.66,5.27-2.99s-0.95-4.65-3.3-5.08l-17.42-3.15C1446.6,363.05,1446.73,365.35,1446.09,367.51z"></path>
			<path style="fill:none;stroke:#000000;stroke-linecap:round;stroke-linejoin:round;stroke-miterlimit:10;" d="M1456.01,387.59
				c1.54-1.83,1.22-4.59-0.7-6.02l-12.42-9.23c-1.97,1.65-4.43,2.43-6.89,2.33l13.97,13.26
				C1451.7,389.58,1454.47,389.42,1456.01,387.59z"></path>
		</g>
	</g>
	<g>
		<g>
			<g>
				<g>
					<g>
						<g>
							<g>
								
									<rect x="1257.89" y="1845.3" style="fill:none;stroke:#000000;stroke-linecap:round;stroke-linejoin:round;stroke-miterlimit:10;" width="294.92" height="11.97"></rect>
								
									<rect x="1257.9" y="1447.51" style="fill:none;stroke:#000000;stroke-linecap:round;stroke-linejoin:round;stroke-miterlimit:10;" width="294.92" height="397.79"></rect>
								<path style="fill:none;stroke:#000000;stroke-linecap:round;stroke-linejoin:round;stroke-miterlimit:10;" d="
									M1400.19,1783.75h10.15l0,29.46c0,8.81,7.14,15.95,15.95,15.95l88.45,0c8.81,0,15.95-7.14,15.95-15.95l0-29.46l10.15,0
									l0,51.58c0,2.2-1.79,3.99-3.99,3.99l-263.01,0c-2.2,0-3.99-1.79-3.99-3.99l0-51.58h10.15l0,29.46
									c0,8.81,7.14,15.95,15.95,15.95l88.27,0c8.81,0,15.95-7.14,15.95-15.95L1400.19,1783.75z"></path>
								<path style="fill:none;stroke:#000000;stroke-linecap:round;stroke-linejoin:round;stroke-miterlimit:10;" d="
									M1270.74,1457.48l269.23,0c0.48,0,0.88,0.39,0.88,0.88l0,325.39l-270.99,0l0-325.39
									C1269.86,1457.88,1270.25,1457.48,1270.74,1457.48z"></path>
							</g>
						</g>
						
							<rect x="1546.08" y="1783.05" transform="matrix(-1.005535e-06 1 -1 -1.005535e-06 3403.3518 230.2447)" style="fill:none;stroke:#000000;stroke-linecap:round;stroke-linejoin:round;stroke-miterlimit:10;" width="80.94" height="67.48"></rect>
						
							<rect x="1183.68" y="1783.05" transform="matrix(-1.005535e-06 1 -1 -1.005535e-06 3040.9507 592.6455)" style="fill:none;stroke:#000000;stroke-linecap:round;stroke-linejoin:round;stroke-miterlimit:10;" width="80.94" height="67.48"></rect>
					</g>
				</g>
			</g>
			<g>
				<g>
					
						<circle style="fill:#FFFFFF;stroke:#000000;stroke-linecap:round;stroke-linejoin:round;stroke-miterlimit:10;" cx="1587.24" cy="1815.13" r="20.24"></circle>
					
						<circle style="fill:#FFFFFF;stroke:#000000;stroke-linecap:round;stroke-linejoin:round;stroke-miterlimit:10;" cx="1587.24" cy="1815.13" r="7.22"></circle>
				</g>
				
					<line style="fill:#FFFFFF;stroke:#000000;stroke-linecap:round;stroke-linejoin:round;stroke-miterlimit:10;" x1="1587.24" y1="1822.35" x2="1587.24" y2="1807.91"></line>
				
					<line style="fill:#FFFFFF;stroke:#000000;stroke-linecap:round;stroke-linejoin:round;stroke-miterlimit:10;" x1="1580.02" y1="1815.13" x2="1594.46" y2="1815.13"></line>
			</g>
			<g>
				<g>
					
						<circle style="fill:#FFFFFF;stroke:#000000;stroke-linecap:round;stroke-linejoin:round;stroke-miterlimit:10;" cx="1224.15" cy="1815.13" r="20.24"></circle>
					
						<circle style="fill:#FFFFFF;stroke:#000000;stroke-linecap:round;stroke-linejoin:round;stroke-miterlimit:10;" cx="1224.15" cy="1815.13" r="7.22"></circle>
				</g>
				
					<line style="fill:#FFFFFF;stroke:#000000;stroke-linecap:round;stroke-linejoin:round;stroke-miterlimit:10;" x1="1224.15" y1="1822.35" x2="1224.15" y2="1807.91"></line>
				
					<line style="fill:#FFFFFF;stroke:#000000;stroke-linecap:round;stroke-linejoin:round;stroke-miterlimit:10;" x1="1216.93" y1="1815.13" x2="1231.37" y2="1815.13"></line>
			</g>
		</g>
		<g>
			<g>
				<path style="fill:none;stroke:#000000;stroke-linecap:round;stroke-linejoin:round;stroke-miterlimit:10;" d="M1391.61,1675.11
					c0.02-0.13,0.06-0.25,0.1-0.38c2.36-6.73,4.21-13.69,5.48-20.7c1.28-7.01,2.01-14.17,2.17-21.29c0-0.15,0.02-0.28,0.04-0.4
					c0.12-0.68,0.54-1.27,1.15-1.62c0.35-0.2,1.06-0.49,1.95-0.2l0.05,0.02c13.53,4.75,27.65,7.32,41.98,7.65l0.08,0
					c0.92,0.04,1.47,0.56,1.73,0.87c0.44,0.55,0.63,1.25,0.51,1.92c-0.02,0.13-0.06,0.25-0.1,0.38c-2.36,6.73-4.21,13.69-5.48,20.7
					s-2.01,14.17-2.17,21.29c0,0.15-0.02,0.28-0.04,0.4c-0.12,0.68-0.54,1.27-1.15,1.62c-0.35,0.2-1.06,0.49-1.94,0.2l-0.05-0.02
					c-13.53-4.75-27.65-7.32-41.98-7.65l-0.08,0c-0.92-0.04-1.48-0.56-1.73-0.87C1391.67,1676.49,1391.48,1675.78,1391.61,1675.11z"></path>
			</g>
			<path style="fill:none;stroke:#000000;stroke-linecap:round;stroke-linejoin:round;stroke-miterlimit:10;" d="M1402.55,1630.53
				l-0.05-0.02c-0.89-0.29-1.6,0-1.95,0.2c-0.61,0.35-1.03,0.95-1.15,1.62c-0.02,0.13-0.04,0.26-0.04,0.4
				c-0.14,6.27-0.8,12.55-1.81,18.74c-5.55,1.02-11.06,2.3-16.47,4.01l-0.05,0.02c-0.89,0.27-1.6-0.05-1.94-0.26
				c-0.6-0.37-1-0.98-1.1-1.66c-0.02-0.13-0.03-0.26-0.03-0.4c0.05-7.12-0.46-14.3-1.52-21.35s-2.69-14.06-4.85-20.86
				c-0.04-0.13-0.07-0.25-0.09-0.38c-0.1-0.68,0.1-1.38,0.56-1.91c0.26-0.3,0.83-0.8,1.75-0.82l0.08,0
				c14.33,0.11,28.53-2.03,42.19-6.36l0.05-0.02c0.89-0.27,1.6,0.05,1.94,0.26c0.6,0.37,1,0.98,1.1,1.66
				c0.02,0.13,0.03,0.26,0.03,0.41c-0.05,7.12,0.46,14.3,1.52,21.35c0.54,3.6,1.24,7.19,2.08,10.76
				C1415.94,1634.64,1409.17,1632.85,1402.55,1630.53z"></path>
			<path style="fill:none;stroke:#000000;stroke-linecap:round;stroke-linejoin:round;stroke-miterlimit:10;" d="M1402.55,1630.53
				l-0.05-0.02c-0.89-0.29-1.6,0-1.95,0.2c-0.61,0.35-1.03,0.95-1.15,1.62c-0.02,0.13-0.04,0.26-0.04,0.4
				c-0.16,7.12-0.89,14.28-2.17,21.29c-0.04,0.19-0.09,0.39-0.13,0.58c-5.08,0.98-10.13,2.15-15.08,3.72l-0.01,0
				c-3.48,1.1-7.02-1.51-6.99-5.16v-0.01c0.11-14-1.99-27.93-6.22-41.27l0-0.01c-1.1-3.48,1.51-7.02,5.16-6.99h0.01
				c14,0.11,27.93-1.99,41.27-6.22l0.01,0c3.48-1.1,7.02,1.51,6.99,5.16l0,0.01c-0.08,10.99,1.24,21.92,3.84,32.57
				C1418.06,1635.13,1410.2,1633.22,1402.55,1630.53z"></path>
		</g>
	</g>
	<g>
		<g>
			<path style="fill:none;stroke:#000000;stroke-linecap:round;stroke-linejoin:round;stroke-miterlimit:10;" d="M1023.36,1617.83"></path>
			<path style="fill:none;stroke:#000000;stroke-linecap:round;stroke-linejoin:round;stroke-miterlimit:10;" d="M998.29,1630.68
				l1.96-0.21c0.01-0.01,0.02,0,0.03-0.01l-3.56-8.4l-0.33,1.73l-9.74-3.19c-1.48-0.48-3.18,0.13-3.82,1.56
				c-0.73,1.64,0.12,3.52,1.79,4.06l13.59,4.45C998.24,1630.68,998.26,1630.67,998.29,1630.68z"></path>
			<path style="fill:none;stroke:#000000;stroke-linecap:round;stroke-linejoin:round;stroke-miterlimit:10;" d="M1001.14,1609.88
				c0,0-3.45,0.05-5.03,2.66c-1.35,2.22-1.34,4.75-0.43,7.06l-0.01,0l0.08,0.2c0.04,0.1,0.08,0.21,0.13,0.31l4.39,10.35l-10.18,1.11
				c-1.55,0.17-2.84,1.43-2.83,2.99c0.01,1.8,1.56,3.16,3.31,2.96l14.22-1.55c1.53-0.17,2.56-1.63,2.2-3.13l-1.41-5.86
				c4.44,0.72,8.01-0.2,10.69-1.6c3.86-2.01,6.68-5.67,7.62-9.92c0.02-0.1,0.04-0.19,0.05-0.27c0.5-3.66,1.42-12.4-8.49-21.94
				c-10.99-10.58-22.13-10.74-27.88-9.87"></path>
			<path style="fill:none;stroke:#000000;stroke-linecap:round;stroke-linejoin:round;stroke-miterlimit:10;" d="M1049.91,1612.55
				c0.01-0.04,0.01-0.08,0.02-0.13c-0.17,0.04-0.33,0.07-0.5,0.11c-0.96,2.48-2.14,4.42-4.32,6.25c-6.37,5.36-16.03,5.43-22.05,0.02
				c-0.08-0.07-0.18-0.1-0.27-0.16c-0.48,0.99-1.06,1.92-1.74,2.77c6.4,5.84,16.34,6.15,23.08,0.44
				C1047.1,1619.34,1049.08,1616.07,1049.91,1612.55z"></path>
			<path style="fill:none;stroke:#000000;stroke-linecap:round;stroke-linejoin:round;stroke-miterlimit:10;" d="M976.15,1587.74
				l2.04-6.78l-24.89-8.85c-3.66-1.4-1.76-6.85,2-5.63c0,0,27.88,9.91,27.88,9.91l4.4,6.99l3.4,5.4"></path>
			
				<line style="fill:none;stroke:#000000;stroke-linecap:round;stroke-linejoin:round;stroke-miterlimit:10;" x1="1013.08" y1="1609.69" x2="991.11" y2="1610.04"></line>
			<path style="fill:none;stroke:#000000;stroke-linecap:round;stroke-linejoin:round;stroke-miterlimit:10;" d="M987.08,1584.49"></path>
			<g>
				<g>
					<g>
						<path style="fill:none;stroke:#000000;stroke-linecap:round;stroke-linejoin:round;stroke-miterlimit:10;" d="M979.68,1584.87
							c-2.24,1.06-4.07,2.98-4.97,5.5l-1.67,4.7c0,0,0,0,0,0l0.47-1.33c0.66-1.86,2.71-2.84,4.58-2.18l3.78,1.34l5.47,0.04"></path>
						<path style="fill:none;stroke:#000000;stroke-linecap:round;stroke-linejoin:round;stroke-miterlimit:10;" d="M981.96,1608.08
							l-4.27-3.42l-3.57-1.27c1.07,1.59,2.62,2.88,4.57,3.57l3.21,1.14L981.96,1608.08z"></path>
					</g>
					<path style="fill:none;stroke:#000000;stroke-linecap:round;stroke-linejoin:round;stroke-miterlimit:10;" d="M973.51,1593.75
						c0.14-0.41,0.38-0.75,0.64-1.06l-16.2-5.76c-1.55-0.55-3.26,0.26-3.81,1.81c-0.55,1.55,0.26,3.26,1.81,3.81l15.97,5.68
						L973.51,1593.75z"></path>
					<path style="fill:none;stroke:#000000;stroke-linecap:round;stroke-linejoin:round;stroke-miterlimit:10;" d="M972.27,1597.25
						l1.23,1.63c0.71,0.94,2.19,0.71,2.58-0.4l0.64-1.8c0.4-1.11-0.6-2.22-1.75-1.94l-1.99,0.49L972.27,1597.25z"></path>
					<path style="fill:none;stroke:#000000;stroke-linecap:round;stroke-linejoin:round;stroke-miterlimit:10;" d="M986.88,1599.99
						c-0.58,0.25-1.25-0.01-1.5-0.59c-0.25-0.58,0.01-1.25,0.59-1.5"></path>
					<path style="fill:none;stroke:#000000;stroke-linecap:round;stroke-linejoin:round;stroke-miterlimit:10;" d="M983.68,1603.59
						c-0.17-0.61,0.19-1.24,0.79-1.41c0.61-0.17,1.24,0.19,1.41,0.79"></path>
				</g>
				<g>
					<g>
						
							<circle style="fill:none;stroke:#000000;stroke-linecap:round;stroke-linejoin:round;stroke-miterlimit:10;" cx="983.51" cy="1596.61" r="0.91"></circle>
						<path style="fill:none;stroke:#000000;stroke-linecap:round;stroke-linejoin:round;stroke-miterlimit:10;" d="M982.96,1594.33
							c1.18,0.71,1.62,1.4,1.45,2.43"></path>
					</g>
					<g>
						
							<circle style="fill:none;stroke:#000000;stroke-linecap:round;stroke-linejoin:round;stroke-miterlimit:10;" cx="981.3" cy="1602.83" r="0.91"></circle>
						<path style="fill:none;stroke:#000000;stroke-linecap:round;stroke-linejoin:round;stroke-miterlimit:10;" d="M979.43,1604.25
							c1.37,0.2,2.14-0.06,2.66-0.97"></path>
					</g>
				</g>
				
					<line style="fill:none;stroke:#000000;stroke-linecap:round;stroke-linejoin:round;stroke-miterlimit:10;" x1="972.63" y1="1596.24" x2="973.89" y2="1596.69"></line>
			</g>
			<path style="fill:none;stroke:#000000;stroke-linecap:round;stroke-linejoin:round;stroke-miterlimit:10;" d="M991.89,1608.65
				c0,0,7.96-3.56,8.87-12.58"></path>
		</g>
		<path style="fill:none;stroke:#000000;stroke-linecap:round;stroke-linejoin:round;stroke-miterlimit:10;" d="M992.96,1600.39
			l-6.32-8.36c-0.62-0.81-0.2-1.99,0.79-2.23l4.9-1.2c2.27-0.56,4.24,1.63,3.46,3.83L992.96,1600.39z"></path>
		<path style="fill:none;stroke:#000000;stroke-linecap:round;stroke-linejoin:round;stroke-miterlimit:10;" d="M991.89,1608.65
			l3.51-9.87c0.49-1.38,0.24-2.78-0.49-3.87l-1.95,5.48l-5.62-7.43l-5.47-0.04l-3.78-1.34c-1.86-0.66-3.91,0.31-4.58,2.18
			l-1.77,4.99c-0.66,1.87,0.31,3.91,2.18,4.58l3.78,1.34l4.27,3.42l9.05-2.22l-1.95,5.48
			C990.32,1610.96,991.4,1610.03,991.89,1608.65z"></path>
		<path style="fill:none;stroke:#000000;stroke-linecap:round;stroke-linejoin:round;stroke-miterlimit:10;" d="M983.08,1614.61
			l-3.04-4.02c-0.62-0.81-0.2-1.99,0.79-2.23l10.18-2.49l-2.83,7.96C987.4,1616.02,984.49,1616.47,983.08,1614.61z"></path>
	</g>
	<g>
		<g>
			<path style="fill:none;stroke:#000000;stroke-linecap:round;stroke-linejoin:round;stroke-miterlimit:10;" d="M1664.69,1396.46
				c0.18-0.53,0.36-1.07,0.52-1.61c0.58,0.39,1.11,0.85,1.63,1.33c-0.39,0.37-0.76,0.76-1.13,1.16
				C1665.37,1397.04,1665.05,1396.72,1664.69,1396.46z"></path>
			<path style="fill:none;stroke:#000000;stroke-linecap:round;stroke-linejoin:round;stroke-miterlimit:10;" d="M1669.93,1410.16
				c0.08-0.46,0.1-0.94,0.14-1.41c0.51-0.04,1.02-0.08,1.53-0.15c-0.05,0.74-0.11,1.48-0.26,2.2
				C1670.88,1410.57,1670.41,1410.37,1669.93,1410.16z"></path>
			<path style="fill:none;stroke:#000000;stroke-linecap:round;stroke-linejoin:round;stroke-miterlimit:10;" d="M1666.91,1416.6
				c0.25-0.3,0.48-0.62,0.7-0.94c0.43,0.28,0.87,0.56,1.31,0.82c-0.36,0.53-0.72,1.05-1.14,1.53
				C1667.5,1417.53,1667.2,1417.07,1666.91,1416.6z"></path>
			<path style="fill:none;stroke:#000000;stroke-linecap:round;stroke-linejoin:round;stroke-miterlimit:10;" d="M1662.22,1420.03
				c0.23,0.49,0.49,0.97,0.74,1.45c-1.67,0.71-3.39,1.05-5.08,1.04c0.15-0.56,0.32-1.11,0.45-1.67
				C1659.63,1420.81,1660.94,1420.55,1662.22,1420.03z"></path>
			<path style="fill:none;stroke:#000000;stroke-linecap:round;stroke-linejoin:round;stroke-miterlimit:10;" d="M1652.71,1419.5
				c-0.16,0.53-0.3,1.06-0.44,1.59c-0.83-0.42-1.62-0.94-2.36-1.54c0.39-0.35,0.79-0.69,1.17-1.06
				C1651.6,1418.89,1652.15,1419.21,1652.71,1419.5z"></path>
			<path style="fill:none;stroke:#000000;stroke-linecap:round;stroke-linejoin:round;stroke-miterlimit:10;" d="M1669.32,1402.72
				c-0.02-0.05-0.02-0.11-0.04-0.16c-0.06-0.15-0.15-0.28-0.21-0.43c0.42-0.32,0.84-0.64,1.25-0.98c0.11,0.26,0.26,0.48,0.36,0.75
				c0.06,0.17,0.08,0.34,0.14,0.5C1670.32,1402.5,1669.82,1402.61,1669.32,1402.72z"></path>
			<path style="fill:none;stroke:#000000;stroke-linecap:round;stroke-linejoin:round;stroke-miterlimit:10;" d="M1646.61,1412.07
				c0.06,0.17,0.08,0.35,0.14,0.52c0.16,0.42,0.38,0.79,0.57,1.19c-0.41,0.34-0.8,0.7-1.19,1.05c-0.28-0.54-0.58-1.06-0.8-1.65
				c-0.12-0.31-0.16-0.63-0.25-0.95C1645.59,1412.19,1646.1,1412.14,1646.61,1412.07z"></path>
			<path style="fill:none;stroke:#000000;stroke-linecap:round;stroke-linejoin:round;stroke-miterlimit:10;" d="M1659.79,1392.76
				c-0.14,0.55-0.29,1.1-0.41,1.65c-1.28-0.16-2.58-0.13-3.88,0.17c-0.25-0.51-0.53-1.01-0.8-1.51
				C1656.4,1392.61,1658.12,1392.51,1659.79,1392.76z"></path>
			<path style="fill:none;stroke:#000000;stroke-linecap:round;stroke-linejoin:round;stroke-miterlimit:10;" d="M1646.37,1403.96
				c-0.16,0.61-0.28,1.23-0.35,1.86c-0.52,0.04-1.04,0.12-1.55,0.19c0.09-0.96,0.26-1.89,0.52-2.8
				C1645.44,1403.46,1645.9,1403.72,1646.37,1403.96z"></path>
			<path style="fill:none;stroke:#000000;stroke-linecap:round;stroke-linejoin:round;stroke-miterlimit:10;" d="M1650.35,1397.32
				c-0.41,0.37-0.82,0.75-1.18,1.17c-0.46-0.28-0.93-0.53-1.41-0.78c0.54-0.67,1.13-1.28,1.78-1.85
				C1649.8,1396.36,1650.06,1396.85,1650.35,1397.32z"></path>
		</g>
		<path style="fill:none;stroke:#000000;stroke-linecap:round;stroke-linejoin:round;stroke-miterlimit:10;" d="M1659.05,1407.22
			c3.03-0.88,6.01-2.32,8.77-4.18c5.52-1.58,11.48-1.61,16.74,0.34c-5.15,4.05-11.78,5.75-18.24,5.46c-2.36-0.69-4.77-1.1-7.14-1.17
			c-0.21-0.06-0.42-0.09-0.63-0.16c0.16-0.12,0.34-0.21,0.51-0.32C1659.06,1407.2,1659.06,1407.21,1659.05,1407.22z"></path>
		<path style="fill:none;stroke:#000000;stroke-linecap:round;stroke-linejoin:round;stroke-miterlimit:10;" d="M1682.5,1420.23
			c-8.95,0.25-17.97-5.12-23.62-12.59C1667.66,1407.78,1677.12,1412.45,1682.5,1420.23z M1679.38,1389
			c-8.71,2.09-16.54,9.54-20.33,18.22C1667.62,1404.72,1675.85,1398.01,1679.38,1389z"></path>
		<path style="fill:none;stroke:#000000;stroke-linecap:round;stroke-linejoin:round;stroke-miterlimit:10;" d="M1658.78,1406.99
			c0.05,0.06,0.1,0.11,0.15,0.17c-0.42-0.01-0.85-0.07-1.27-0.1c-2.17-0.67-4.42-1.09-6.72-1.27c-6.12-1.91-11.88-5.79-15.63-11.22
			c6.2-0.18,12.41,2.39,17.54,6.44C1654.61,1403.3,1656.61,1405.34,1658.78,1406.99z"></path>
		<path style="fill:none;stroke:#000000;stroke-linecap:round;stroke-linejoin:round;stroke-miterlimit:10;" d="M1658.54,1407.66
			c0.07-0.02,0.14-0.05,0.21-0.07c-3.79,8.68-11.62,16.13-20.33,18.22c2.45-6.24,7.17-11.34,12.68-14.74
			C1653.74,1410.26,1656.26,1409.13,1658.54,1407.66z"></path>
		<path style="fill:none;stroke:#000000;stroke-linecap:round;stroke-linejoin:round;stroke-miterlimit:10;" d="M1658.6,1407.88
			c0.14-0.18,0.26-0.38,0.39-0.56c1.33,9.51-1.32,20.49-7.45,27.58c-1.21-6.82,0.16-14.12,3.1-20.42
			C1656.21,1412.43,1657.55,1410.21,1658.6,1407.88z"></path>
		<g>
			<path style="fill:none;stroke:#000000;stroke-linecap:round;stroke-linejoin:round;stroke-miterlimit:10;" d="M1659.3,1411.38
				c-0.03-1.2-0.12-2.38-0.26-3.55c1.7,2.22,3.72,4.21,5.92,5.96c4.03,5.21,6.82,11.75,7.24,18.4
				C1665.59,1427.74,1661.05,1419.71,1659.3,1411.38z"></path>
			<path style="fill:none;stroke:#000000;stroke-linecap:round;stroke-linejoin:round;stroke-miterlimit:10;" d="M1658.71,1407.73
				c-0.01-0.06-0.02-0.13-0.03-0.2c0.04,0.03,0.07,0.06,0.11,0.09C1658.76,1407.66,1658.73,1407.69,1658.71,1407.73z"></path>
		</g>
		<path style="fill:none;stroke:#000000;stroke-linecap:round;stroke-linejoin:round;stroke-miterlimit:10;" d="M1659.12,1407.27
			c-7.3-5.36-12.9-14.93-13.52-24.66C1653.23,1387.75,1658.11,1397.63,1659.12,1407.27z M1645.6,1382.61
			c7.63,5.13,12.51,15.02,13.52,24.66 M1632.81,1410.57c8.34,3.45,18.61,1.88,26.12-3.13
			C1650.5,1404.41,1640.26,1405.13,1632.81,1410.57z"></path>
		<g>
			<path style="fill:none;stroke:#000000;stroke-linecap:round;stroke-linejoin:round;stroke-miterlimit:10;" d="M1659.02,1407.18
				c-0.05,0.08-0.11,0.16-0.16,0.23c-0.02-0.01-0.03-0.01-0.05-0.01c-0.02-0.14-0.02-0.28-0.04-0.42
				C1658.85,1407.04,1658.93,1407.12,1659.02,1407.18z"></path>
			<path style="fill:none;stroke:#000000;stroke-linecap:round;stroke-linejoin:round;stroke-miterlimit:10;" d="M1658.5,1403.42
				c-0.2-8.45,2.48-17.43,7.75-23.53c1.21,6.82-0.16,14.12-3.1,20.42c-1.56,2.06-2.91,4.28-3.95,6.61c-0.04,0.05-0.08,0.1-0.11,0.16
				C1658.96,1405.86,1658.76,1404.64,1658.5,1403.42z"></path>
		</g>
	</g>
</g>
<g id="floor">
	
		<line style="fill:none;stroke:#000000;stroke-linecap:round;stroke-linejoin:round;stroke-miterlimit:10;stroke-dasharray:10,10;" x1="699.74" y1="1365.61" x2="699.74" y2="1145.92"></line>
	<g>
		<g>
			<g id="LWPOLYLINE_458_">
				<path style="fill:none;stroke:#000000;stroke-linecap:round;stroke-linejoin:round;stroke-miterlimit:10;" d="M537.02,1857.82
					l-0.13-50.4c-0.02-7.1-4.52-13.37-11.14-15.53c-24.04-7.83-49.88-7.76-73.87,0.2c-6.61,2.19-11.08,8.49-11.06,15.59l0.13,50.4"></path>
			</g>
			<g id="LWPOLYLINE_457_">
				<path style="fill:none;stroke:#000000;stroke-linecap:round;stroke-linejoin:round;stroke-miterlimit:10;" d="M463.32,1843.92
					c-5.31,0.01-9.62-4.37-9.63-9.79l-0.04-15.7c-0.01-3.59,2.28-6.77,5.64-7.83c19.26-6.08,39.85-6.13,59.14-0.16
					c3.37,1.04,5.67,4.21,5.68,7.8l0.04,15.7c0.01,5.42-4.28,9.82-9.58,9.84"></path>
			</g>
			<g id="LWPOLYLINE_456_">
				<path style="fill:none;stroke:#000000;stroke-linecap:round;stroke-linejoin:round;stroke-miterlimit:10;" d="M530.55,1833.93
					l-0.07-26.48c-0.01-4.26-2.71-8.03-6.68-9.32c-22.76-7.42-47.23-7.36-69.95,0.19c-3.96,1.32-6.65,5.1-6.64,9.36l0.07,26.48
					c0.01,5.42,4.33,9.8,9.63,9.79l64.06-0.17C526.28,1843.75,530.56,1839.34,530.55,1833.93z"></path>
			</g>
			<g id="LWPOLYLINE_455_">
				<path style="fill:none;stroke:#000000;stroke-linecap:round;stroke-linejoin:round;stroke-miterlimit:10;" d="M488.93,1840.93
					c2.38-0.01,4.31-1.98,4.3-4.41c-0.01-2.43-1.94-4.39-4.33-4.39c-2.38,0.01-4.3,1.98-4.3,4.41
					C484.62,1838.97,486.55,1840.93,488.93,1840.93z"></path>
			</g>
		</g>
		<g>
			<g id="LWPOLYLINE_454_">
				
					<rect x="300.27" y="1537.32" style="fill:none;stroke:#000000;stroke-linecap:round;stroke-linejoin:round;stroke-miterlimit:10;" width="127.96" height="319.95"></rect>
			</g>
			<g id="LWPOLYLINE_453_">
				<path style="fill:none;stroke:#000000;stroke-linecap:round;stroke-linejoin:round;stroke-miterlimit:10;" d="M310.51,1580.03
					l0,211.14c0,30.3,24.06,54.87,53.74,54.87c29.68,0,53.74-24.57,53.74-54.88l0-211.14c0-14.48-11.4-26.27-25.59-26.44l-56.3,0.01
					c-14.13,0-25.59,11.7-25.59,26.14"></path>
			</g>
			<g id="LWPOLYLINE_452_">
				<path style="fill:none;stroke:#000000;stroke-linecap:round;stroke-linejoin:round;stroke-miterlimit:10;" d="M325.13,1645.27
					l0,145.89c0,22.07,17.52,39.95,39.12,39.94c21.6,0,39.12-17.89,39.12-39.95l0-143.83c-0.02-21.25-16.32-38.78-37.1-39.88
					C344.68,1606.29,326.26,1623.23,325.13,1645.27z"></path>
			</g>
			<g id="LWPOLYLINE_451_">
				<path style="fill:none;stroke:#000000;stroke-linecap:round;stroke-linejoin:round;stroke-miterlimit:10;" d="M364.25,1798.48
					c3.96,0,7.16-3.28,7.16-7.31c0-4.04-3.21-7.31-7.16-7.31c-3.96,0-7.16,3.28-7.16,7.31
					C357.09,1795.2,360.3,1798.48,364.25,1798.48z"></path>
			</g>
		</g>
		<g>
			<g id="LWPOLYLINE_450_">
				
					<rect x="441.22" y="1537.34" style="fill:none;stroke:#000000;stroke-linecap:round;stroke-linejoin:round;stroke-miterlimit:10;" width="113.67" height="85.25"></rect>
			</g>
			<g>
				<g id="LWPOLYLINE_449_">
					<polyline style="fill:none;stroke:#000000;stroke-linecap:round;stroke-linejoin:round;stroke-miterlimit:10;" points="
						465.33,1605.72 498.02,1566.77 498.09,1593.15 530.79,1554.21 					"></polyline>
				</g>
				<g id="LWPOLYLINE_448_">
					<path style="fill:none;stroke:#000000;stroke-linecap:round;stroke-linejoin:round;stroke-miterlimit:10;" d="M498.14,1609.28
						c15.85-0.04,28.67-13.2,28.63-29.39c-0.04-16.19-12.93-29.28-28.78-29.24c-15.86,0.04-28.68,13.2-28.64,29.4
						C469.39,1596.23,482.28,1609.32,498.14,1609.28z"></path>
				</g>
			</g>
		</g>
		<g>
			
				<rect x="550.03" y="1813.97" style="fill:none;stroke:#000000;stroke-linecap:round;stroke-linejoin:round;stroke-miterlimit:10;" width="146.01" height="45.15"></rect>
			<g>
				<g id="LWPOLYLINE_447_">
					<path style="fill:none;stroke:#000000;stroke-linecap:round;stroke-linejoin:round;stroke-miterlimit:10;" d="M588.42,1805.82
						l0.01-51.75c0-18.01,14.91-32.6,33.29-32.6c18.39,0,33.3,14.6,33.3,32.61l-0.01,51.75c0,4.5-3.73,8.15-8.32,8.15l-49.95,0
						C592.14,1813.97,588.42,1810.32,588.42,1805.82z"></path>
				</g>
				<g id="LWPOLYLINE_446_">
					<path style="fill:none;stroke:#000000;stroke-linecap:round;stroke-linejoin:round;stroke-miterlimit:10;" d="M648.36,1754.07
						l-0.01,28.95c0,14.4-11.92,26.08-26.63,26.08c-14.71,0-26.64-11.68-26.64-26.08l0.01-28.95c0-14.4,11.92-26.08,26.63-26.08
						C636.43,1727.98,648.36,1739.66,648.36,1754.07z"></path>
				</g>
				<g id="LWPOLYLINE_445_">
					<path style="fill:none;stroke:#000000;stroke-linecap:round;stroke-linejoin:round;stroke-miterlimit:10;" d="M631.71,1764.56
						l-0.01,21.16c0,5.4-4.47,9.78-9.99,9.78c-5.52,0-9.99-4.38-9.99-9.78l0.01-21.16c0-5.4,4.47-9.78,9.99-9.78
						C627.24,1754.78,631.71,1759.16,631.71,1764.56z"></path>
				</g>
			</g>
		</g>
	</g>
	<g>
		<g>
			<g id="LWPOLYLINE_220_">
				<path style="fill:none;stroke:#000000;stroke-linecap:round;stroke-linejoin:round;stroke-miterlimit:10;" d="M621.29,1016.07
					l-50.4,0.13c-7.1,0.02-13.37,4.52-15.53,11.14c-7.83,24.04-7.76,49.88,0.2,73.87c2.19,6.61,8.49,11.08,15.59,11.06l50.4-0.13"></path>
			</g>
			<g id="LWPOLYLINE_219_">
				<path style="fill:none;stroke:#000000;stroke-linecap:round;stroke-linejoin:round;stroke-miterlimit:10;" d="M607.39,1089.77
					c0.01,5.31-4.37,9.62-9.79,9.63l-15.7,0.04c-3.59,0.01-6.77-2.28-7.83-5.64c-6.08-19.26-6.13-39.85-0.16-59.14
					c1.04-3.37,4.21-5.67,7.8-5.68l15.7-0.04c5.42-0.01,9.82,4.28,9.84,9.58"></path>
			</g>
			<g id="LWPOLYLINE_218_">
				<path style="fill:none;stroke:#000000;stroke-linecap:round;stroke-linejoin:round;stroke-miterlimit:10;" d="M597.4,1022.53
					l-26.48,0.07c-4.26,0.01-8.03,2.71-9.32,6.68c-7.42,22.76-7.36,47.23,0.19,69.95c1.32,3.96,5.1,6.65,9.36,6.64l26.48-0.07
					c5.42-0.01,9.8-4.33,9.79-9.63l-0.17-64.06C607.22,1026.81,602.81,1022.52,597.4,1022.53z"></path>
			</g>
			<g id="LWPOLYLINE_217_">
				<path style="fill:none;stroke:#000000;stroke-linecap:round;stroke-linejoin:round;stroke-miterlimit:10;" d="M604.4,1064.15
					c-0.01-2.38-1.98-4.31-4.41-4.3c-2.43,0.01-4.39,1.94-4.39,4.33c0.01,2.38,1.98,4.3,4.41,4.3
					C602.44,1068.47,604.41,1066.53,604.4,1064.15z"></path>
			</g>
		</g>
		<g>
			<g>
				<g id="LWPOLYLINE_213_">
					<path style="fill:none;stroke:#000000;stroke-linecap:round;stroke-linejoin:round;stroke-miterlimit:10;" d="M434.09,897.01
						l-0.01,51.75c0,18.01-14.91,32.6-33.29,32.6c-18.39,0-33.3-14.6-33.3-32.61L367.5,897c0-4.5,3.73-8.15,8.32-8.15l49.95,0
						C430.36,888.86,434.09,892.51,434.09,897.01z"></path>
				</g>
				<g id="LWPOLYLINE_212_">
					<path style="fill:none;stroke:#000000;stroke-linecap:round;stroke-linejoin:round;stroke-miterlimit:10;" d="M374.15,948.76
						l0.01-28.95c0-14.4,11.92-26.08,26.63-26.08c14.71,0,26.64,11.68,26.64,26.08l-0.01,28.95c0,14.4-11.92,26.08-26.63,26.08
						C386.08,974.84,374.15,963.16,374.15,948.76z"></path>
				</g>
				<g id="LWPOLYLINE_200_">
					<path style="fill:none;stroke:#000000;stroke-linecap:round;stroke-linejoin:round;stroke-miterlimit:10;" d="M390.8,938.26
						l0.01-21.16c0-5.4,4.47-9.78,9.99-9.78c5.52,0,9.99,4.38,9.99,9.78l-0.01,21.16c0,5.4-4.47,9.78-9.99,9.78
						C395.27,948.04,390.8,943.66,390.8,938.26z"></path>
				</g>
			</g>
		</g>
		<g>
			<g id="CIRCLE_2_">
				<path style="fill:none;stroke:#000000;stroke-linecap:round;stroke-linejoin:round;stroke-miterlimit:10;" d="M600.85,850.66
					c0,3.93-3.18,7.11-7.11,7.11c-3.93,0-7.11-3.18-7.11-7.11c0-3.93,3.18-7.11,7.11-7.11
					C597.67,843.55,600.85,846.73,600.85,850.66L600.85,850.66z"></path>
			</g>
			<g id="LWPOLYLINE_199_">
				<path style="fill:none;stroke:#000000;stroke-linecap:round;stroke-linejoin:round;stroke-miterlimit:10;" d="M481.9,929.05
					c0,19.62,15.9,35.52,35.52,35.52c0,0,80.77,0,80.77,0c7.36,0,13.32-5.96,13.32-13.32V846.22c0-7.36-5.96-13.32-13.32-13.32
					H495.22c-7.36,0-13.32,5.96-13.32,13.32V929.05z"></path>
			</g>
			<g id="LWPOLYLINE_198_">
				<path style="fill:none;stroke:#000000;stroke-linecap:round;stroke-linejoin:round;stroke-miterlimit:10;" d="M473.02,824.02
					l0,105.03c0,24.52,19.88,44.4,44.4,44.4c0,0,102.97,0,102.97,0l0-149.43L473.02,824.02v105.02c0,24.52,19.88,44.4,44.4,44.4
					c0,0,102.97,0,102.97,0"></path>
			</g>
		</g>
	</g>
	<g>
		<g id="LWPOLYLINE_484_">
			
				<rect x="807" y="788.34" style="fill:none;stroke:#000000;stroke-linecap:round;stroke-linejoin:round;stroke-miterlimit:10;" width="108.91" height="109.32"></rect>
		</g>
		<g id="LWPOLYLINE_483_">
			
				<line style="fill:none;stroke:#000000;stroke-linecap:round;stroke-linejoin:round;stroke-miterlimit:10;" x1="834.08" y1="852.66" x2="834.08" y2="888.66"></line>
		</g>
		<g id="LWPOLYLINE_482_">
			
				<line style="fill:none;stroke:#000000;stroke-linecap:round;stroke-linejoin:round;stroke-miterlimit:10;" x1="852.13" y1="870.66" x2="816.03" y2="870.66"></line>
		</g>
		<g id="LWPOLYLINE_481_">
			
				<line style="fill:none;stroke:#000000;stroke-linecap:round;stroke-linejoin:round;stroke-miterlimit:10;" x1="834.08" y1="798.67" x2="834.08" y2="834.67"></line>
		</g>
		<g id="LWPOLYLINE_480_">
			
				<line style="fill:none;stroke:#000000;stroke-linecap:round;stroke-linejoin:round;stroke-miterlimit:10;" x1="852.13" y1="816.67" x2="816.03" y2="816.67"></line>
		</g>
		<g id="LWPOLYLINE_479_">
			
				<line style="fill:none;stroke:#000000;stroke-linecap:round;stroke-linejoin:round;stroke-miterlimit:10;" x1="888.23" y1="798.67" x2="888.23" y2="834.67"></line>
		</g>
		<g id="LWPOLYLINE_478_">
			
				<line style="fill:none;stroke:#000000;stroke-linecap:round;stroke-linejoin:round;stroke-miterlimit:10;" x1="906.28" y1="816.67" x2="870.18" y2="816.67"></line>
		</g>
		<g id="LWPOLYLINE_477_">
			
				<line style="fill:none;stroke:#000000;stroke-linecap:round;stroke-linejoin:round;stroke-miterlimit:10;" x1="888.23" y1="852.66" x2="888.23" y2="888.66"></line>
		</g>
		<g id="LWPOLYLINE_476_">
			
				<line style="fill:none;stroke:#000000;stroke-linecap:round;stroke-linejoin:round;stroke-miterlimit:10;" x1="906.28" y1="870.66" x2="870.18" y2="870.66"></line>
		</g>
		
			<ellipse style="fill:none;stroke:#000000;stroke-linecap:round;stroke-linejoin:round;stroke-miterlimit:10;" cx="888.23" cy="870.66" rx="14.44" ry="14.49"></ellipse>
		
			<ellipse style="fill:none;stroke:#000000;stroke-linecap:round;stroke-linejoin:round;stroke-miterlimit:10;" cx="834.08" cy="870.66" rx="14.44" ry="14.49"></ellipse>
		
			<ellipse style="fill:none;stroke:#000000;stroke-linecap:round;stroke-linejoin:round;stroke-miterlimit:10;" cx="888.23" cy="816.67" rx="14.44" ry="14.49"></ellipse>
		
			<ellipse style="fill:none;stroke:#000000;stroke-linecap:round;stroke-linejoin:round;stroke-miterlimit:10;" cx="834.08" cy="816.67" rx="14.44" ry="14.49"></ellipse>
	</g>
	<g>
		<g id="LWPOLYLINE_475_">
			
				<rect x="638.71" y="1032.15" style="fill:none;stroke:#000000;stroke-linecap:round;stroke-linejoin:round;stroke-miterlimit:10;" width="109.11" height="108.49"></rect>
		</g>
		<g id="LWPOLYLINE_474_">
			<path style="fill:none;stroke:#000000;stroke-linecap:round;stroke-linejoin:round;stroke-miterlimit:10;" d="M732.37,1131.6
				l-69.06,0c-3.52,0-6.37-2.83-6.37-6.33c0,0,0-77.76,0-77.76c0-3.5,2.85-6.33,6.36-6.33c0,0,69.06,0,69.06,0
				c3.51,0,6.36,2.83,6.36,6.33c0,0,0,77.76,0,77.76C738.73,1128.77,735.88,1131.6,732.37,1131.6z"></path>
		</g>
		<g id="LWPOLYLINE_473_">
			<path style="fill:none;stroke:#000000;stroke-linecap:round;stroke-linejoin:round;stroke-miterlimit:10;" d="M681.01,1104.48
				c0,3.5-2.86,6.34-6.38,6.34c-3.52,0-6.38-2.84-6.38-6.34c0-3.5,2.86-6.34,6.38-6.34
				C678.15,1098.14,681.01,1100.98,681.01,1104.48z"></path>
		</g>
	</g>
	<g>
		<path style="fill:none;stroke:#000000;stroke-linecap:round;stroke-linejoin:round;stroke-miterlimit:10;" d="M708.65,1581.86
			c73.51,0,133.68,59.46,133.68,132.97H709.75"></path>
		
			<rect x="699.18" y="1711.69" transform="matrix(4.446405e-11 -1 1 4.446405e-11 -1015.645 2421.4521)" style="fill:none;stroke:#000000;stroke-linecap:round;stroke-linejoin:round;stroke-miterlimit:10;" width="7.45" height="13.73"></rect>
		
			<rect x="699.12" y="1571.22" transform="matrix(4.689766e-11 -1 1 4.689766e-11 -875.1757 2280.9827)" style="fill:none;stroke:#000000;stroke-linecap:round;stroke-linejoin:round;stroke-miterlimit:10;" width="7.56" height="13.73"></rect>
	</g>
	<g>
		<path style="fill:none;stroke:#000000;stroke-linecap:round;stroke-linejoin:round;stroke-miterlimit:10;" d="M507.91,1150.76
			c0,73.51-59.46,133.68-132.97,133.68v-132.58"></path>
		
			<rect x="367.5" y="1138.15" style="fill:none;stroke:#000000;stroke-linecap:round;stroke-linejoin:round;stroke-miterlimit:10;" width="7.45" height="13.73"></rect>
		
			<rect x="507.91" y="1138.15" style="fill:none;stroke:#000000;stroke-linecap:round;stroke-linejoin:round;stroke-miterlimit:10;" width="7.56" height="13.73"></rect>
	</g>
	<g>
		<path style="fill:none;stroke:#000000;stroke-linecap:round;stroke-linejoin:round;stroke-miterlimit:10;" d="M284.26,1392.63
			c-101.32,0-184.26-82.4-184.26-184.27h182.75"></path>
		
			<rect x="286.75" y="1194.84" transform="matrix(-1.143269e-12 1 -1 -1.143269e-12 1495.1134 912.0663)" style="fill:none;stroke:#000000;stroke-linecap:round;stroke-linejoin:round;stroke-miterlimit:10;" width="9.54" height="17.5"></rect>
		
			<rect x="286.68" y="1388.73" transform="matrix(-5.632888e-13 1 -1 -5.632888e-13 1689.0057 1105.9587)" style="fill:none;stroke:#000000;stroke-linecap:round;stroke-linejoin:round;stroke-miterlimit:10;" width="9.7" height="17.5"></rect>
	</g>
	<g>
		<path style="fill:none;stroke:#000000;stroke-linecap:round;stroke-linejoin:round;stroke-miterlimit:10;" d="M998.23,1370.57
			c0,82.68-66.88,150.36-149.56,150.36V1371.8"></path>
		
			<rect x="840.29" y="1356.1" style="fill:none;stroke:#000000;stroke-linecap:round;stroke-linejoin:round;stroke-miterlimit:10;" width="8.38" height="15.44"></rect>
		
			<rect x="998.23" y="1356.1" style="fill:none;stroke:#000000;stroke-linecap:round;stroke-linejoin:round;stroke-miterlimit:10;" width="8.51" height="15.44"></rect>
	</g>
	<g>
		<path style="fill:none;stroke:#000000;stroke-linecap:round;stroke-linejoin:round;stroke-miterlimit:10;" d="M1353.31,773.86
			c0-82.68-66.88-150.36-149.56-150.36v149.12"></path>
		
			<rect x="1195.37" y="772.9" style="fill:none;stroke:#000000;stroke-linecap:round;stroke-linejoin:round;stroke-miterlimit:10;" width="8.38" height="15.44"></rect>
		
			<rect x="1353.31" y="772.9" style="fill:none;stroke:#000000;stroke-linecap:round;stroke-linejoin:round;stroke-miterlimit:10;" width="8.51" height="15.44"></rect>
	</g>
	<g>
		
			<rect x="1584.88" y="1598.42" transform="matrix(-5.088925e-11 1 -1 -5.088925e-11 3380.0437 -124.1369)" style="fill:none;stroke:#000000;stroke-linecap:round;stroke-linejoin:round;stroke-miterlimit:10;" width="334.42" height="59.06"></rect>
		
			<line style="fill:none;stroke:#000000;stroke-linecap:round;stroke-linejoin:round;stroke-miterlimit:10;" x1="1759.73" y1="1460.74" x2="1759.73" y2="1795.16"></line>
		
			<line style="fill:none;stroke:#000000;stroke-linecap:round;stroke-linejoin:round;stroke-miterlimit:10;" x1="1746.67" y1="1795.16" x2="1746.67" y2="1460.74"></line>
		
			<line style="fill:none;stroke:#000000;stroke-linecap:round;stroke-linejoin:round;stroke-miterlimit:10;" x1="1759.73" y1="1781.4" x2="1746.67" y2="1781.4"></line>
		
			<line style="fill:none;stroke:#000000;stroke-linecap:round;stroke-linejoin:round;stroke-miterlimit:10;" x1="1759.73" y1="1474.43" x2="1746.67" y2="1474.43"></line>
		
			<line style="fill:none;stroke:#000000;stroke-linecap:round;stroke-linejoin:round;stroke-miterlimit:10;" x1="1759.73" y1="1624.2" x2="1746.67" y2="1624.34"></line>
		
			<line style="fill:none;stroke:#000000;stroke-linecap:round;stroke-linejoin:round;stroke-miterlimit:10;" x1="1759.73" y1="1637.58" x2="1746.67" y2="1637.58"></line>
	</g>
	<g>
		
			<rect x="1584.82" y="1043.35" transform="matrix(-5.088393e-11 1 -1 -5.088393e-11 2824.9766 -679.0868)" style="fill:none;stroke:#000000;stroke-linecap:round;stroke-linejoin:round;stroke-miterlimit:10;" width="334.42" height="59.18"></rect>
		
			<line style="fill:none;stroke:#000000;stroke-linecap:round;stroke-linejoin:round;stroke-miterlimit:10;" x1="1759.64" y1="905.73" x2="1759.64" y2="1240.16"></line>
		
			<line style="fill:none;stroke:#000000;stroke-linecap:round;stroke-linejoin:round;stroke-miterlimit:10;" x1="1746.58" y1="1240.16" x2="1746.58" y2="905.73"></line>
		
			<line style="fill:none;stroke:#000000;stroke-linecap:round;stroke-linejoin:round;stroke-miterlimit:10;" x1="1759.64" y1="1226.39" x2="1746.58" y2="1226.39"></line>
		
			<line style="fill:none;stroke:#000000;stroke-linecap:round;stroke-linejoin:round;stroke-miterlimit:10;" x1="1759.64" y1="919.42" x2="1746.58" y2="919.42"></line>
		
			<line style="fill:none;stroke:#000000;stroke-linecap:round;stroke-linejoin:round;stroke-miterlimit:10;" x1="1759.64" y1="1069.19" x2="1746.58" y2="1069.33"></line>
		
			<line style="fill:none;stroke:#000000;stroke-linecap:round;stroke-linejoin:round;stroke-miterlimit:10;" x1="1759.64" y1="1082.57" x2="1746.58" y2="1082.57"></line>
	</g>
	<g>
		
			<rect x="1571.05" y="475.02" transform="matrix(-4.702213e-11 1 -1 -4.702213e-11 2256.6465 -1247.4169)" style="fill:none;stroke:#000000;stroke-linecap:round;stroke-linejoin:round;stroke-miterlimit:10;" width="361.96" height="59.18"></rect>
		
			<line style="fill:none;stroke:#000000;stroke-linecap:round;stroke-linejoin:round;stroke-miterlimit:10;" x1="1759.57" y1="323.63" x2="1759.57" y2="685.6"></line>
		
			<line style="fill:none;stroke:#000000;stroke-linecap:round;stroke-linejoin:round;stroke-miterlimit:10;" x1="1746.51" y1="685.6" x2="1746.51" y2="323.63"></line>
		
			<line style="fill:none;stroke:#000000;stroke-linecap:round;stroke-linejoin:round;stroke-miterlimit:10;" x1="1759.57" y1="671.83" x2="1746.51" y2="671.83"></line>
		
			<line style="fill:none;stroke:#000000;stroke-linecap:round;stroke-linejoin:round;stroke-miterlimit:10;" x1="1759.57" y1="337.32" x2="1746.51" y2="337.32"></line>
		
			<line style="fill:none;stroke:#000000;stroke-linecap:round;stroke-linejoin:round;stroke-miterlimit:10;" x1="1759.57" y1="514.63" x2="1746.51" y2="514.77"></line>
		
			<line style="fill:none;stroke:#000000;stroke-linecap:round;stroke-linejoin:round;stroke-miterlimit:10;" x1="1759.57" y1="528.01" x2="1746.51" y2="528.01"></line>
	</g>
	<g>
		<polyline style="fill:none;stroke:#000000;stroke-linecap:round;stroke-linejoin:round;stroke-miterlimit:10;" points="
			1780.64,1239.6 1899.98,1239.59 1900,1461.49 1780.85,1461.51 		"></polyline>
		<g>
			<path style="fill:none;stroke:#000000;stroke-linecap:round;stroke-linejoin:round;stroke-miterlimit:10;" d="M1803.5,1434.86
				v-167.3c0-3.31,2.69-6,6-6h56.06c3.31,0,6,2.69,6,6v167.3c0,3.31-2.69,6-6,6h-56.06
				C1806.18,1440.86,1803.5,1438.17,1803.5,1434.86z"></path>
			<g>
				
					<circle style="fill:none;stroke:#000000;stroke-linecap:round;stroke-linejoin:round;stroke-miterlimit:10;" cx="1837.52" cy="1304.25" r="2.33"></circle>
				<path style="fill:none;stroke:#000000;stroke-linecap:round;stroke-linejoin:round;stroke-miterlimit:10;" d="M1839.71,1305.05
					c0,0,10.07,1.51,8.3,10.65c-0.94,4.85-6.21,5.55-8.91,3.65c-1.29-0.9-2.11-3.47-1.02-6.05c2.12-5.03,0.21-6.85,0.21-6.85"></path>
				<path style="fill:none;stroke:#000000;stroke-linecap:round;stroke-linejoin:round;stroke-miterlimit:10;" d="M1836.77,1306.44
					c0,0-1.31,10.1-10.48,8.51c-4.87-0.84-5.67-6.1-3.83-8.84c0.88-1.31,3.42-2.18,6.03-1.14c5.08,2.02,6.85,0.07,6.85,0.07"></path>
				<path style="fill:none;stroke:#000000;stroke-linecap:round;stroke-linejoin:round;stroke-miterlimit:10;" d="M1835.34,1303.46
					c0,0-10.08-1.45-8.36-10.6c0.91-4.86,6.18-5.58,8.89-3.7c1.29,0.9,2.13,3.45,1.06,6.04c-2.09,5.05-0.17,6.85-0.17,6.85"></path>
				<path style="fill:none;stroke:#000000;stroke-linecap:round;stroke-linejoin:round;stroke-miterlimit:10;" d="M1838.32,1302.06
					c0,0,1.48-10.07,10.62-8.33c4.86,0.93,5.56,6.19,3.68,8.9c-0.9,1.29-3.46,2.12-6.05,1.04c-5.04-2.1-6.85-0.19-6.85-0.19"></path>
				
					<circle style="fill:none;stroke:#000000;stroke-linecap:round;stroke-linejoin:round;stroke-miterlimit:10;" cx="1837.52" cy="1304.25" r="23.03"></circle>
				<path style="fill:none;stroke:#000000;stroke-linecap:round;stroke-linejoin:round;stroke-miterlimit:10;" d="M1839.71,1305.05
					c0,0,10.07,1.51,8.3,10.65c-0.94,4.85-6.21,5.55-8.91,3.65c-1.29-0.9-2.11-3.47-1.02-6.05c2.12-5.03,0.21-6.85,0.21-6.85"></path>
				<path style="fill:none;stroke:#000000;stroke-linecap:round;stroke-linejoin:round;stroke-miterlimit:10;" d="M1836.77,1306.44
					c0,0-1.31,10.1-10.48,8.51c-4.87-0.84-5.67-6.1-3.83-8.84c0.88-1.31,3.42-2.18,6.03-1.14c5.08,2.02,6.85,0.07,6.85,0.07"></path>
				<path style="fill:none;stroke:#000000;stroke-linecap:round;stroke-linejoin:round;stroke-miterlimit:10;" d="M1835.34,1303.46
					c0,0-10.08-1.45-8.36-10.6c0.91-4.86,6.18-5.58,8.89-3.7c1.29,0.9,2.13,3.45,1.06,6.04c-2.09,5.05-0.17,6.85-0.17,6.85"></path>
				<path style="fill:none;stroke:#000000;stroke-linecap:round;stroke-linejoin:round;stroke-miterlimit:10;" d="M1838.32,1302.06
					c0,0,1.48-10.07,10.62-8.33c4.86,0.93,5.56,6.19,3.68,8.9c-0.9,1.29-3.46,2.12-6.05,1.04c-5.04-2.1-6.85-0.19-6.85-0.19"></path>
			</g>
		</g>
	</g>
	<g>
		<polyline style="fill:none;stroke:#000000;stroke-linecap:round;stroke-linejoin:round;stroke-miterlimit:10;" points="
			1780.64,102.24 1899.98,102.22 1900,324.13 1780.85,324.15 		"></polyline>
		<g>
			<path style="fill:none;stroke:#000000;stroke-linecap:round;stroke-linejoin:round;stroke-miterlimit:10;" d="M1803.5,297.49
				v-167.3c0-3.31,2.69-6,6-6h56.06c3.31,0,6,2.69,6,6v167.3c0,3.31-2.69,6-6,6h-56.06C1806.18,303.49,1803.5,300.8,1803.5,297.49z"></path>
			<g>
				
					<circle style="fill:none;stroke:#000000;stroke-linecap:round;stroke-linejoin:round;stroke-miterlimit:10;" cx="1837.52" cy="166.88" r="2.33"></circle>
				<path style="fill:none;stroke:#000000;stroke-linecap:round;stroke-linejoin:round;stroke-miterlimit:10;" d="M1839.71,167.68
					c0,0,10.07,1.51,8.3,10.65c-0.94,4.85-6.21,5.55-8.91,3.65c-1.29-0.9-2.11-3.47-1.02-6.05c2.12-5.03,0.21-6.85,0.21-6.85"></path>
				<path style="fill:none;stroke:#000000;stroke-linecap:round;stroke-linejoin:round;stroke-miterlimit:10;" d="M1836.77,169.08
					c0,0-1.31,10.1-10.48,8.51c-4.87-0.84-5.67-6.1-3.83-8.84c0.88-1.31,3.42-2.18,6.03-1.14c5.08,2.02,6.85,0.07,6.85,0.07"></path>
				<path style="fill:none;stroke:#000000;stroke-linecap:round;stroke-linejoin:round;stroke-miterlimit:10;" d="M1835.34,166.09
					c0,0-10.08-1.45-8.36-10.6c0.91-4.86,6.18-5.58,8.89-3.7c1.29,0.9,2.13,3.45,1.06,6.04c-2.09,5.05-0.17,6.85-0.17,6.85"></path>
				<path style="fill:none;stroke:#000000;stroke-linecap:round;stroke-linejoin:round;stroke-miterlimit:10;" d="M1838.32,164.7
					c0,0,1.48-10.07,10.62-8.33c4.86,0.93,5.56,6.19,3.68,8.9c-0.9,1.29-3.46,2.12-6.05,1.04c-5.04-2.1-6.85-0.19-6.85-0.19"></path>
				
					<circle style="fill:none;stroke:#000000;stroke-linecap:round;stroke-linejoin:round;stroke-miterlimit:10;" cx="1837.52" cy="166.88" r="23.03"></circle>
				<path style="fill:none;stroke:#000000;stroke-linecap:round;stroke-linejoin:round;stroke-miterlimit:10;" d="M1839.71,167.68
					c0,0,10.07,1.51,8.3,10.65c-0.94,4.85-6.21,5.55-8.91,3.65c-1.29-0.9-2.11-3.47-1.02-6.05c2.12-5.03,0.21-6.85,0.21-6.85"></path>
				<path style="fill:none;stroke:#000000;stroke-linecap:round;stroke-linejoin:round;stroke-miterlimit:10;" d="M1836.77,169.08
					c0,0-1.31,10.1-10.48,8.51c-4.87-0.84-5.67-6.1-3.83-8.84c0.88-1.31,3.42-2.18,6.03-1.14c5.08,2.02,6.85,0.07,6.85,0.07"></path>
				<path style="fill:none;stroke:#000000;stroke-linecap:round;stroke-linejoin:round;stroke-miterlimit:10;" d="M1835.34,166.09
					c0,0-10.08-1.45-8.36-10.6c0.91-4.86,6.18-5.58,8.89-3.7c1.29,0.9,2.13,3.45,1.06,6.04c-2.09,5.05-0.17,6.85-0.17,6.85"></path>
				<path style="fill:none;stroke:#000000;stroke-linecap:round;stroke-linejoin:round;stroke-miterlimit:10;" d="M1838.32,164.7
					c0,0,1.48-10.07,10.62-8.33c4.86,0.93,5.56,6.19,3.68,8.9c-0.9,1.29-3.46,2.12-6.05,1.04c-5.04-2.1-6.85-0.19-6.85-0.19"></path>
			</g>
		</g>
	</g>
	<g id="_x32_">
		
			<rect x="32.92" y="1628.99" transform="matrix(-1.836970e-16 1 -1 -1.836970e-16 1929.2687 1369.406)" width="494.01" height="40.69"></rect>
		
			<rect x="56.15" y="954.78" transform="matrix(-1.836970e-16 1 -1 -1.836970e-16 1255.0529 695.1902)" width="447.56" height="40.69"></rect>
		
			<rect x="1700.25" y="1816.59" transform="matrix(-1.836970e-16 1 -1 -1.836970e-16 3598.207 94.1437)" width="103.56" height="59.18"></rect>
		
			<rect x="1641.13" y="183.65" transform="matrix(-1.836970e-16 1 -1 -1.836970e-16 1965.2738 -1538.9066)" width="221.92" height="59.06"></rect>
		
			<rect x="1694.27" y="712.94" transform="matrix(-1.836970e-16 1 -1 -1.836970e-16 2494.5623 -1009.501)" width="115.51" height="59.18"></rect>
		
			<rect x="1694.27" y="819.35" transform="matrix(-1.836970e-16 1 -1 -1.836970e-16 2600.9727 -903.0905)" width="115.51" height="59.18"></rect>
		
			<rect x="1641.13" y="1321.02" transform="matrix(-1.836970e-16 1 -1 -1.836970e-16 3102.6377 -401.5427)" width="221.92" height="59.06"></rect>
		
			<rect x="1371.06" y="1857.27" transform="matrix(-1 -1.224647e-16 1.224647e-16 -1 3113.0415 3755.2212)" width="370.92" height="40.69"></rect>
		
			<rect x="1371.06" y="747.64" transform="matrix(-1 -1.224647e-16 1.224647e-16 -1 3108.3723 1535.9825)" width="366.25" height="40.69"></rect>
		
			<rect x="290.98" y="1859.12" transform="matrix(-1 -1.224647e-16 1.224647e-16 -1 1682.7722 3755.2373)" width="1100.81" height="36.99"></rect>
		
			<rect x="290.98" y="751.34" transform="matrix(-1 -1.224647e-16 1.224647e-16 -1 1390.1832 1539.6754)" width="808.22" height="36.99"></rect>
		
			<rect x="450.93" y="1701.32" transform="matrix(-1.836970e-16 1 -1 -1.836970e-16 2315.9717 1406.3232)" width="7.78" height="319.66"></rect>
		
			<rect x="823.98" y="483.9" transform="matrix(-1.836970e-16 1 -1 -1.836970e-16 1583.0988 -578.3203)" width="513.45" height="36.99"></rect>
		
			<rect x="1387.68" y="-103.09" transform="matrix(-1.836970e-16 1 -1 -1.836970e-16 1647.0963 -1165.3018)" width="37.04" height="687.97"></rect>
		
			<rect x="1361.32" y="774.04" transform="matrix(-1.836970e-16 1 -1 -1.836970e-16 2149.6604 -587.7787)" width="14.79" height="13.81"></rect>
		
			<rect x="1137.87" y="730.83" transform="matrix(-1.836970e-16 1 -1 -1.836970e-16 1926.2014 -364.3266)" width="14.79" height="100.21"></rect>
		
			<rect x="1365.98" y="996.85" transform="matrix(-1.836970e-16 1 -1 -1.836970e-16 2736.8713 -9.885)" width="14.79" height="733.29"></rect>
		
			<rect x="768.35" y="1298.95" transform="matrix(-1.836970e-16 1 -1 -1.836970e-16 2139.2429 587.7433)" width="14.79" height="129.08"></rect>
		
			<rect x="616.09" y="1439.75" transform="matrix(-1.836970e-16 1 -1 -1.836970e-16 2154.2813 740.0087)" width="182.1" height="14.79"></rect>
		
			<rect x="488.81" y="1324.56" transform="matrix(-1.836970e-16 1 -1 -1.836970e-16 2026.1456 1030.0289)" width="18.49" height="407.06"></rect>
		
			<rect x="685.43" y="1545.21" transform="matrix(-1.836970e-16 1 -1 -1.836970e-16 2259.7473 849.1734)" width="39.72" height="18.49"></rect>
		
			<rect x="635.29" y="1783.02" transform="matrix(-1.836970e-16 1 -1 -1.836970e-16 2497.6477 1086.9778)" width="140.08" height="18.59"></rect>
		
			<rect x="322.46" y="1110.4" transform="matrix(-1.836970e-16 1 -1 -1.836970e-16 1477.9001 815.6857)" width="17.29" height="72.78"></rect>
		
			<rect x="122.38" y="948.93" transform="matrix(-1.836970e-16 1 -1 -1.836970e-16 1266.4974 655.0098)" width="366.72" height="23.64"></rect>
		
			<rect x="385.62" y="802.49" transform="matrix(-1.836970e-16 1 -1 -1.836970e-16 1274.4747 489.451)" width="13.78" height="158.95"></rect>
		
			<rect x="430.81" y="838.67" transform="matrix(-1.836970e-16 1 -1 -1.836970e-16 1310.6619 380.4625)" width="68.58" height="13.78"></rect>
		
			<rect x="444.7" y="961.39" transform="matrix(-1.836970e-16 1 -1 -1.836970e-16 1600.1395 339.977)" width="370.76" height="17.33"></rect>
		
			<rect x="440.24" y="638.5" transform="matrix(-1.836970e-16 1 -1 -1.836970e-16 1265.2886 341.356)" width="43.45" height="329.65"></rect>
		
			<rect x="563.5" y="1090.1" transform="matrix(-1.836970e-16 1 -1 -1.836970e-16 1718.9393 574.6466)" width="17.29" height="113.39"></rect>
		
			<rect x="686.11" y="1091.88" transform="matrix(-1.836970e-16 1 -1 -1.836970e-16 1841.5481 454.5345)" width="14.79" height="112.33"></rect>
	</g>
</g>
</svg>
