<?xml version="1.0" encoding="utf-8"?>
<!-- Generator: Adobe Illustrator 24.1.2, SVG Export Plug-In . SVG Version: 6.00 Build 0)  -->
<svg version="1.0" id="Layer_1" xmlns="http://www.w3.org/2000/svg" xmlns:xlink="http://www.w3.org/1999/xlink" x="0px" y="0px" width="2000px" height="2000px" viewBox="0 0 2000 2000" style="enable-background:new 0 0 2000 2000;" xml:space="preserve">
<path id="background" style="fill:#FFFFFF;" d="M1900.41,436.86v359.1c0,0.28-0.22,0.5-0.5,0.5h-0.52v334.99h0.5v500.45v9.72h-8.87
	h-108.95v82.34v91.26h-112.55h-156.9c-0.02,0.26-0.23,0.47-0.49,0.47h-184.33c-0.27,0-0.5-0.22-0.5-0.49H987.32
	c0,0.27-0.22,0.49-0.5,0.49H802.49c-0.27,0-0.5-0.22-0.5-0.49H658.34v0c0,0.28-0.22,0.5-0.5,0.5h-359.1c-0.28,0-0.5-0.22-0.5-0.5v0
	H148.43h-2.07H99.91V336.48h40.7h7.82h125.73v24.61H284c1.05-97.66,80.39-176.79,177.78-176.79c0.28,0,0.5,0.22,0.5,0.5v176.29h9.82
	v-24.61h5.26v-0.97H1899.4v46.56v1.95v52.34h0.52C1900.19,436.36,1900.41,436.59,1900.41,436.86z"></path>
<g id="c1">
	<path id="c1_path" style="fill:none;" d="M124.02,941.14h361.68l0.31-35.62h260.52l0.22,102.64h412.58v753.27H124.02V941.14z"></path>
	<text id="c1_text" transform="matrix(1 0 0 1 863.9006 1317.7292)" style="font-family: GraphikLCG-Regular; font-size: 40px; text-anchor: middle; text-align: center;"></text>
</g>
<g id="r1">
	<path id="r1_path" style="fill:none;" d="M1733.56,1762.15h-574.23v-753.99h574.23V1762.15z"></path>
	
		<text id="r1_text" transform="matrix(1 0 0 1 1465.802 1362.2019)" style="font-family: GraphikLCG-Regular; font-size: 40px; text-anchor: middle; text-align: center;"></text>
</g>
<g id="r2">
	<path id="r2_path" style="fill:none;" d="M1864.06,1005.55h-661.08V360.92h661.08V1005.55z"></path>
	<text id="r2_text" transform="matrix(1 0 0 1 1489.2795 868.8524)" style="font-family: GraphikLCG-Regular; font-size: 40px; text-anchor: middle; text-align: center;"></text>
</g>
<g id="g1">
	<path id="g1_path" style="fill:none;" d="M1202.98,1005.55H746.75V748.18h456.23V1005.55z"></path>
	<text id="g1_text" transform="matrix(1 0 0 1 1082.0549 855.9539)" style="font-family: GraphikLCG-Regular; font-size: 40px; text-anchor: middle; text-align: center;"></text>
</g>
<g id="h1">
	<path id="h1_path" style="fill:none;" d="M488.53,941.14H129.36V370.66h359.17V941.14z"></path>
	<text id="h1_text" transform="matrix(1 0 0 1 321.8596 726.0945)" style="font-family: GraphikLCG-Regular; font-size: 40px; text-anchor: middle; text-align: center;"></text>
</g>
<g id="s1">
	<path id="s1_path" style="fill:none;" d="M749.71,905.51H488.53V370.66h261.18V905.51z"></path>
	<text id="s1_text" transform="matrix(1 0 0 1 566.0676 633.5359)" style="font-family: GraphikLCG-Regular; font-size: 40px; text-anchor: middle; text-align: center;"></text>
</g>
<g id="s2">
	<path id="s2_path" style="fill:none;" d="M1194.75,748.18h-448V370.66h448V748.18z"></path>
	<text id="s2_text" transform="matrix(1 0 0 1 916.6682 633.5359)" style="font-family: GraphikLCG-Regular; font-size: 40px; text-anchor: middle; text-align: center;"></text>
</g>
<g id="b1">
	<path id="b1_path" style="fill:none;" d="M1894.49,1637.47h-154.2v-506.02h154.2V1637.47z"></path>
	<text id="b1_text" transform="matrix(1 0 0 1 1818.1858 1400.905)" style="font-family: GraphikLCG-Regular; font-size: 40px; text-anchor: middle; text-align: center;"></text>
</g>
<path id="u1" style="fill:#FFFFFF;stroke:#FFFFFF;stroke-linecap:round;stroke-linejoin:round;stroke-miterlimit:10;" d="
	M1376.4,827.76c0,9.9-8.03,17.93-17.93,17.93c-9.9,0-17.93-8.03-17.93-17.93c0-9.9,8.03-17.93,17.93-17.93
	C1368.37,809.84,1376.4,817.86,1376.4,827.76z"></path>
<path id="u5" style="fill:#FFFFFF;stroke:#FFFFFF;stroke-linecap:round;stroke-linejoin:round;stroke-miterlimit:10;" d="
	M323.2,858.79c0,9.9-8.03,17.93-17.93,17.93c-9.9,0-17.93-8.03-17.93-17.93c0-9.9,8.03-17.93,17.93-17.93
	C315.17,840.86,323.2,848.89,323.2,858.79z"></path>
<path id="u7" style="fill:#FFFFFF;stroke:#FFFFFF;stroke-linecap:round;stroke-linejoin:round;stroke-miterlimit:10;" d="
	M467.02,1196.73c0,9.9-8.03,17.93-17.93,17.93s-17.93-8.03-17.93-17.93s8.03-17.93,17.93-17.93S467.02,1186.83,467.02,1196.73z"></path>
<g id="mebel">
	<g>
		<g>
			
				<rect x="677.12" y="835.8" transform="matrix(-4.223864e-06 1 -1 -4.223864e-06 1677.0875 80.4646)" style="fill:none;stroke:#000000;stroke-linecap:round;stroke-linejoin:round;stroke-miterlimit:10;" width="242.38" height="85.95"></rect>
			
				<rect x="717.6" y="876.28" transform="matrix(-4.223863e-06 1 -1 -4.223863e-06 1717.5684 39.9842)" style="fill:none;stroke:#000000;stroke-linecap:round;stroke-linejoin:round;stroke-miterlimit:10;" width="242.38" height="4.99"></rect>
		</g>
	</g>
	<g>
		<g>
			
				<rect x="1203.81" y="384.41" transform="matrix(-1 -5.663905e-06 5.663905e-06 -1 2588.3777 885.2103)" style="fill:none;stroke:#000000;stroke-linecap:round;stroke-linejoin:round;stroke-miterlimit:10;" width="180.75" height="116.38"></rect>
			
				<rect x="1203.81" y="495.8" transform="matrix(-1 -5.663905e-06 5.663905e-06 -1 2588.3772 996.6024)" style="fill:none;stroke:#000000;stroke-linecap:round;stroke-linejoin:round;stroke-miterlimit:10;" width="180.75" height="4.99"></rect>
		</g>
	</g>
	<g>
		<g>
			
				<circle style="fill:#FFFFFF;stroke:#000000;stroke-linecap:round;stroke-linejoin:round;stroke-miterlimit:10;" cx="1741.96" cy="425.45" r="30.85"></circle>
			
				<circle style="fill:#FFFFFF;stroke:#000000;stroke-linecap:round;stroke-linejoin:round;stroke-miterlimit:10;" cx="1741.96" cy="425.45" r="11.01"></circle>
		</g>
		
			<line style="fill:#FFFFFF;stroke:#000000;stroke-linecap:round;stroke-linejoin:round;stroke-miterlimit:10;" x1="1741.96" y1="436.46" x2="1741.96" y2="414.44"></line>
		
			<line style="fill:#FFFFFF;stroke:#000000;stroke-linecap:round;stroke-linejoin:round;stroke-miterlimit:10;" x1="1752.97" y1="425.45" x2="1730.96" y2="425.45"></line>
	</g>
	<g>
		<g>
			<g>
				<g>
					
						<rect x="1392.63" y="384.02" transform="matrix(-1 7.610183e-07 -7.610183e-07 -1 3095.7974 781.8164)" style="fill:none;stroke:#000000;stroke-linecap:round;stroke-linejoin:round;stroke-miterlimit:10;" width="310.54" height="13.77"></rect>
					
						<rect x="1392.63" y="397.8" transform="matrix(-1 7.610183e-07 -7.610183e-07 -1 3095.7981 1187.595)" style="fill:none;stroke:#000000;stroke-linecap:round;stroke-linejoin:round;stroke-miterlimit:10;" width="310.54" height="392"></rect>
					<path style="fill:none;stroke:#000000;stroke-linecap:round;stroke-linejoin:round;stroke-miterlimit:10;" d="M1553.74,468.65
						l-11.68,0v-33.92c0-10.14-8.22-18.37-18.37-18.37l-87.24,0c-10.14,0-18.37,8.22-18.37,18.37v33.92h-11.68l0-59.38
						c0-2.54,2.06-4.59,4.59-4.59l273.81,0c2.54,0,4.59,2.06,4.59,4.59v59.38h-11.68v-33.92c0-10.14-8.22-18.37-18.37-18.37
						l-87.24,0c-10.14,0-18.37,8.22-18.37,18.37V468.65z"></path>
					<path style="fill:none;stroke:#000000;stroke-linecap:round;stroke-linejoin:round;stroke-miterlimit:10;" d="M1688.64,778.32
						l-281.48,0c-0.42,0-0.75-0.34-0.75-0.75l0-308.92l282.99,0l0,308.92C1689.39,777.99,1689.06,778.32,1688.64,778.32z"></path>
				</g>
			</g>
		</g>
		
			<rect x="1703.18" y="384.02" style="fill:none;stroke:#000000;stroke-linecap:round;stroke-linejoin:round;stroke-miterlimit:10;" width="77.57" height="93.03"></rect>
	</g>
	<path style="fill:#FFFFFF;stroke:#000000;stroke-linecap:round;stroke-linejoin:round;stroke-miterlimit:10;" d="M1512.61,705.05
		l-0.01-0.01c-15.35-5.79-31.51-9.13-47.89-9.88l-0.02,0c-4.27-0.2-7.1-4.5-5.59-8.5l0.01-0.01c5.79-15.35,9.13-31.51,9.88-47.89
		l0-0.02c0.2-4.27,4.5-7.1,8.5-5.59l0.01,0.01c15.35,5.79,31.51,9.13,47.89,9.88l0.02,0c4.27,0.2,7.1,4.5,5.59,8.5l-0.01,0.01
		c-5.79,15.35-9.13,31.51-9.88,47.89l0,0.02C1520.91,703.73,1516.61,706.56,1512.61,705.05z"></path>
	<path style="fill:#FFFFFF;stroke:#000000;stroke-linecap:round;stroke-linejoin:round;stroke-miterlimit:10;" d="M1549.28,700.66
		l-4.23-3.44c-14.12-11.51-29.97-20.72-46.96-27.29l-5.08-1.97c-2.27-0.88-3.03-3.72-1.49-5.61l3.44-4.23
		c7.4-9.08,13.33-19.28,17.55-30.2l1.97-5.08c0.88-2.27,3.72-3.03,5.61-1.49l4.23,3.44c14.12,11.51,29.97,20.72,46.96,27.29
		l5.08,1.97c2.27,0.88,3.03,3.72,1.49,5.61l-3.44,4.23c-7.4,9.08-13.33,19.28-17.55,30.2l-1.97,5.08
		C1554.01,701.45,1551.17,702.2,1549.28,700.66z"></path>
	<g>
		<g>
			
				<circle style="fill:#FFFFFF;stroke:#000000;stroke-linecap:round;stroke-linejoin:round;stroke-miterlimit:10;" cx="1752.11" cy="895.9" r="21.41"></circle>
			
				<circle style="fill:#FFFFFF;stroke:#000000;stroke-linecap:round;stroke-linejoin:round;stroke-miterlimit:10;" cx="1752.11" cy="895.9" r="19.03"></circle>
		</g>
		<g>
			
				<line style="fill:#FFFFFF;stroke:#000000;stroke-linecap:round;stroke-linejoin:round;stroke-miterlimit:10;" x1="1752.11" y1="853.94" x2="1752.11" y2="895.04"></line>
			<path style="fill:#FFFFFF;stroke:#000000;stroke-linecap:round;stroke-linejoin:round;stroke-miterlimit:10;" d="M1752.14,853.94
				c6.31,12.43,5.81,28.66-0.05,41.11C1746.38,882.41,1745.67,866.36,1752.14,853.94L1752.14,853.94z"></path>
		</g>
		<g>
			
				<line style="fill:#FFFFFF;stroke:#000000;stroke-linecap:round;stroke-linejoin:round;stroke-miterlimit:10;" x1="1728.73" y1="860.58" x2="1751.85" y2="894.57"></line>
			<path style="fill:#FFFFFF;stroke:#000000;stroke-linecap:round;stroke-linejoin:round;stroke-miterlimit:10;" d="M1728.75,860.57
				c12.21,6.74,20.92,20.44,23.07,34.02C1740,887.35,1730.39,874.48,1728.75,860.57L1728.75,860.57z"></path>
		</g>
		<g>
			
				<line style="fill:#FFFFFF;stroke:#000000;stroke-linecap:round;stroke-linejoin:round;stroke-miterlimit:10;" x1="1714.12" y1="878.97" x2="1752.04" y2="894.84"></line>
			<path style="fill:#FFFFFF;stroke:#000000;stroke-linecap:round;stroke-linejoin:round;stroke-miterlimit:10;" d="M1714.13,878.94
				c13.91-1.02,28.68,5.71,37.9,15.92C1738.17,895.26,1723.09,889.71,1714.13,878.94L1714.13,878.94z"></path>
		</g>
		<g>
			
				<line style="fill:#FFFFFF;stroke:#000000;stroke-linecap:round;stroke-linejoin:round;stroke-miterlimit:10;" x1="1714.9" y1="911.51" x2="1752.23" y2="894.32"></line>
			<path style="fill:#FFFFFF;stroke:#000000;stroke-linecap:round;stroke-linejoin:round;stroke-miterlimit:10;" d="M1714.88,911.49
				c8.66-10.93,23.61-17.26,37.36-17.15C1743.16,904.81,1728.88,912.17,1714.88,911.49L1714.88,911.49z"></path>
		</g>
		<g>
			
				<line style="fill:#FFFFFF;stroke:#000000;stroke-linecap:round;stroke-linejoin:round;stroke-miterlimit:10;" x1="1730.71" y1="929.97" x2="1751.92" y2="894.76"></line>
			<path style="fill:#FFFFFF;stroke:#000000;stroke-linecap:round;stroke-linejoin:round;stroke-miterlimit:10;" d="M1730.69,929.96
				c1.01-13.91,9.81-27.55,21.25-35.19C1750.31,908.54,1742.64,922.65,1730.69,929.96L1730.69,929.96z"></path>
		</g>
		<g>
			
				<line style="fill:#FFFFFF;stroke:#000000;stroke-linecap:round;stroke-linejoin:round;stroke-miterlimit:10;" x1="1775.59" y1="928.41" x2="1752.48" y2="894.42"></line>
			<path style="fill:#FFFFFF;stroke:#000000;stroke-linecap:round;stroke-linejoin:round;stroke-miterlimit:10;" d="M1775.57,928.43
				c-12.21-6.74-20.92-20.44-23.07-34.02C1764.32,901.64,1773.94,914.51,1775.57,928.43L1775.57,928.43z"></path>
		</g>
		<g>
			
				<line style="fill:#FFFFFF;stroke:#000000;stroke-linecap:round;stroke-linejoin:round;stroke-miterlimit:10;" x1="1790.21" y1="910.03" x2="1752.29" y2="894.15"></line>
			<path style="fill:#FFFFFF;stroke:#000000;stroke-linecap:round;stroke-linejoin:round;stroke-miterlimit:10;" d="M1790.2,910.05
				c-13.91,1.02-28.68-5.71-37.9-15.92C1766.16,893.74,1781.23,899.28,1790.2,910.05L1790.2,910.05z"></path>
		</g>
		<g>
			
				<line style="fill:#FFFFFF;stroke:#000000;stroke-linecap:round;stroke-linejoin:round;stroke-miterlimit:10;" x1="1789.43" y1="877.48" x2="1752.09" y2="894.68"></line>
			<path style="fill:#FFFFFF;stroke:#000000;stroke-linecap:round;stroke-linejoin:round;stroke-miterlimit:10;" d="M1789.44,877.51
				c-8.66,10.93-23.61,17.26-37.36,17.15C1761.17,884.18,1775.44,876.82,1789.44,877.51L1789.44,877.51z"></path>
		</g>
		<g>
			
				<line style="fill:#FFFFFF;stroke:#000000;stroke-linecap:round;stroke-linejoin:round;stroke-miterlimit:10;" x1="1773.61" y1="859.02" x2="1752.41" y2="894.24"></line>
			<path style="fill:#FFFFFF;stroke:#000000;stroke-linecap:round;stroke-linejoin:round;stroke-miterlimit:10;" d="M1773.64,859.04
				c-1.01,13.91-9.81,27.55-21.25,35.19C1754.01,880.46,1761.68,866.34,1773.64,859.04L1773.64,859.04z"></path>
		</g>
		<g>
			
				<line style="fill:#FFFFFF;stroke:#000000;stroke-linecap:round;stroke-linejoin:round;stroke-miterlimit:10;" x1="1753.52" y1="935.55" x2="1752.08" y2="894.47"></line>
			<path style="fill:#FFFFFF;stroke:#000000;stroke-linecap:round;stroke-linejoin:round;stroke-miterlimit:10;" d="M1753.5,935.56
				c-6.74-12.21-6.81-28.44-1.39-41.08C1758.26,906.9,1759.53,922.91,1753.5,935.56L1753.5,935.56z"></path>
		</g>
	</g>
	<g>
		<g>
			
				<rect x="1546.5" y="879.43" transform="matrix(-1.836970e-16 1 -1 -1.836970e-16 2535.801 -567.6539)" style="fill:none;stroke:#000000;stroke-linecap:round;stroke-linejoin:round;stroke-miterlimit:10;" width="10.46" height="209.28"></rect>
			<polygon style="fill:none;stroke:#000000;stroke-linecap:round;stroke-linejoin:round;stroke-miterlimit:10;" points="
				1630.21,999.77 1656.37,989.31 1447.09,989.31 1473.25,999.77 			"></polygon>
		</g>
		
			<rect x="1530.39" y="859.39" transform="matrix(-1.836970e-16 1 -1 -1.836970e-16 2529.6245 -577.9664)" style="fill:none;stroke:#000000;stroke-linecap:round;stroke-linejoin:round;stroke-miterlimit:10;" width="46.81" height="232.87"></rect>
	</g>
	<g>
		<g>
			
				<rect x="1131.75" y="1244.93" style="fill:none;stroke:#000000;stroke-linecap:round;stroke-linejoin:round;stroke-miterlimit:10;" width="10.46" height="209.28"></rect>
			<polygon style="fill:none;stroke:#000000;stroke-linecap:round;stroke-linejoin:round;stroke-miterlimit:10;" points="
				1152.68,1271.09 1142.21,1244.93 1142.21,1454.21 1152.68,1428.05 			"></polygon>
		</g>
		
			<rect x="1111.25" y="1233.22" style="fill:none;stroke:#000000;stroke-linecap:round;stroke-linejoin:round;stroke-miterlimit:10;" width="40.9" height="232.87"></rect>
	</g>
	<g>
		<g>
			
				<rect x="1455.61" y="1015.68" transform="matrix(-1 -4.850345e-06 4.850345e-06 -1 3124.6802 2130.2627)" style="fill:none;stroke:#000000;stroke-linecap:round;stroke-linejoin:round;stroke-miterlimit:10;" width="213.46" height="98.9"></rect>
			
				<rect x="1455.61" y="1109.53" transform="matrix(-1 -4.850344e-06 4.850344e-06 -1 3124.6792 2224.1216)" style="fill:none;stroke:#000000;stroke-linecap:round;stroke-linejoin:round;stroke-miterlimit:10;" width="213.46" height="5.05"></rect>
		</g>
	</g>
	<g>
		<g>
			
				<rect x="492.88" y="914.91" transform="matrix(-1 -4.204404e-06 4.204404e-06 -1 1232.0138 1924.1957)" style="fill:none;stroke:#000000;stroke-linecap:round;stroke-linejoin:round;stroke-miterlimit:10;" width="246.26" height="94.36"></rect>
			
				<rect x="492.88" y="1004.23" transform="matrix(-1 -4.204403e-06 4.204403e-06 -1 1232.0127 2013.5143)" style="fill:none;stroke:#000000;stroke-linecap:round;stroke-linejoin:round;stroke-miterlimit:10;" width="246.26" height="5.05"></rect>
		</g>
	</g>
	<g>
		<g>
			<polygon style="fill:none;stroke:#000000;stroke-linecap:round;stroke-linejoin:round;stroke-miterlimit:10;" points="
				148.43,554.99 148.43,381.11 264.12,380.96 264.12,554.84 			"></polygon>
			
				<rect x="174.66" y="465.38" transform="matrix(-5.954561e-06 1 -1 -5.954561e-06 729.5024 206.3027)" style="fill:none;stroke:#000000;stroke-linecap:round;stroke-linejoin:round;stroke-miterlimit:10;" width="173.88" height="5.05"></rect>
		</g>
	</g>
	<g>
		<g>
			<polygon style="fill:none;stroke:#000000;stroke-linecap:round;stroke-linejoin:round;stroke-miterlimit:10;" points="
				148.43,753.8 148.43,554.99 264.12,554.84 264.12,753.65 			"></polygon>
			
				<rect x="162.2" y="651.72" transform="matrix(-5.207871e-06 1 -1 -5.207871e-06 915.8483 392.6498)" style="fill:none;stroke:#000000;stroke-linecap:round;stroke-linejoin:round;stroke-miterlimit:10;" width="198.81" height="5.05"></rect>
		</g>
	</g>
	<g>
		
			<rect x="1168.2" y="1668.5" transform="matrix(-1 -4.494683e-11 4.494683e-11 -1 2539.9675 3350.6506)" style="fill:none;stroke:#000000;stroke-linecap:round;stroke-linejoin:round;stroke-miterlimit:10;" width="203.56" height="13.65"></rect>
		
			<rect x="1168.2" y="1297.33" transform="matrix(-1 -4.494683e-11 4.494683e-11 -1 2539.9675 2965.8279)" style="fill:none;stroke:#000000;stroke-linecap:round;stroke-linejoin:round;stroke-miterlimit:10;" width="203.56" height="371.18"></rect>
		<path style="fill:none;stroke:#000000;stroke-linecap:round;stroke-linejoin:round;stroke-miterlimit:10;" d="M1358.12,1598.31
			v-285.06c0-2.51-2.04-4.55-4.55-4.55H1186.4c-2.51,0-4.55,2.04-4.55,4.55v285.06H1358.12z"></path>
		<path style="fill:none;stroke:#000000;stroke-linecap:round;stroke-linejoin:round;stroke-miterlimit:10;" d="M1212.58,1650.1
			h114.81c2.21,0,4-1.79,4-4v-47.8h-122.81v47.8C1208.58,1648.31,1210.37,1650.1,1212.58,1650.1z"></path>
		<path style="fill:none;stroke:#000000;stroke-linecap:round;stroke-linejoin:round;stroke-miterlimit:10;" d="M1331.39,1598.31
			h26.73v58.82c0,2.51-2.04,4.55-4.55,4.55H1186.4c-2.51,0-4.55-2.04-4.55-4.55v-58.82h26.73v33.6c0,10.05,8.15,18.19,18.19,18.19
			h86.42c10.05,0,18.19-8.15,18.19-18.19V1598.31z"></path>
	</g>
	<g>
		<path style="fill:none;stroke:#000000;stroke-linecap:round;stroke-linejoin:round;stroke-miterlimit:10;" d="M1551.71,1678.62
			l0-256.78c0-0.55,0.45-1,1-1l115.25,0c0.55,0,1,0.45,1,1l0,256.78c0,0.55-0.45,1-1,1l-115.25,0
			C1552.16,1679.62,1551.71,1679.17,1551.71,1678.62z"></path>
		<g>
			<g>
				<path style="fill:none;stroke:#000000;stroke-linecap:round;stroke-linejoin:round;stroke-miterlimit:10;" d="M1524.19,1637.01
					c2.73,2.73,1.83,7.51-1.82,8.79c-17.61,6.19-37.83,2.1-51.69-11.77l-2.04-2.04c-13.87-13.87-17.96-34.08-11.77-51.69
					c1.28-3.64,6.06-4.54,8.79-1.82l0,0c1.45,1.45,1.86,3.57,1.26,5.53c-4.19,13.81-0.73,29.3,10.03,40.06l1.64,1.64
					c10.76,10.76,26.25,14.22,40.06,10.03C1520.62,1635.15,1522.74,1635.55,1524.19,1637.01L1524.19,1637.01z"></path>
			</g>
			<path style="fill:none;stroke:#000000;stroke-linecap:round;stroke-linejoin:round;stroke-miterlimit:10;" d="M1551.71,1621.82
				c-2.36,0.64-4.97-0.13-6.6-2.16l-1.4-1.75c-2.18-2.73-1.74-6.71,0.99-8.89l7-5.59V1621.82z"></path>
			<path style="fill:none;stroke:#000000;stroke-linecap:round;stroke-linejoin:round;stroke-miterlimit:10;" d="M1551.71,1603.43
				l-7,5.59c-2.73,2.18-3.17,6.16-0.99,8.89l0.7,0.87l-12.38,9.89c-15.97,12.77-38.99,11.49-53.45-2.97l-1.64-1.64
				c-14.45-14.45-15.74-37.45-2.99-53.42l32.24-40.41c3.36-3.36,8.81-3.36,12.16,0l33.35,33.34L1551.71,1603.43"></path>
			<path style="fill:none;stroke:#000000;stroke-linecap:round;stroke-linejoin:round;stroke-miterlimit:10;" d="M1508.32,1537.67
				l-9.8-7.84c-0.5-0.4-1.24-0.32-1.64,0.18l-18.11,22.65c-0.4,0.5-0.32,1.24,0.18,1.64l9.8,7.84c0.5,0.4,1.24,0.32,1.64-0.18
				l18.11-22.65C1508.91,1538.81,1508.83,1538.08,1508.32,1537.67z"></path>
		</g>
	</g>
	<g>
		<path style="fill:#FFFFFF;stroke:#000000;stroke-linecap:round;stroke-linejoin:round;stroke-miterlimit:10;" d="M1230.89,1430.92
			l-14.68-23.11c-0.44-0.7-0.24-1.62,0.46-2.07l11.15-7.09c0.7-0.44,1.62-0.24,2.07,0.46l14.68,23.11c0.44,0.7,0.24,1.62-0.46,2.07
			l-11.15,7.09C1232.26,1431.82,1231.34,1431.62,1230.89,1430.92z"></path>
		<path style="fill:#FFFFFF;stroke:#000000;stroke-linecap:round;stroke-linejoin:round;stroke-miterlimit:10;" d="M1236.36,1426.51
			l-1.99-23.66c-0.06-0.71,0.47-1.34,1.19-1.4l11.42-0.96c0.71-0.06,1.34,0.47,1.4,1.19l1.99,23.66c0.06,0.71-0.47,1.34-1.19,1.4
			l-11.42,0.96C1237.05,1427.76,1236.42,1427.23,1236.36,1426.51z"></path>
		<path style="fill:#FFFFFF;stroke:#000000;stroke-linecap:round;stroke-linejoin:round;stroke-miterlimit:10;" d="M1225.66,1439.29
			l-25.29-10.48c-0.76-0.32-1.64,0.05-1.96,0.81l-5.06,12.21c-0.32,0.76,0.05,1.64,0.81,1.96l25.29,10.48
			c0.76,0.32,1.64-0.05,1.96-0.81l5.06-12.21C1226.78,1440.49,1226.42,1439.61,1225.66,1439.29z"></path>
		<path style="fill:#FFFFFF;stroke:#000000;stroke-linecap:round;stroke-linejoin:round;stroke-miterlimit:10;" d="M1222.54,1444.41
			l-23.39,4.06c-0.71,0.12-1.18,0.8-1.06,1.5l1.96,11.29c0.12,0.71,0.8,1.18,1.5,1.06l23.39-4.06c0.71-0.12,1.18-0.8,1.06-1.5
			l-1.96-11.29C1223.92,1444.76,1223.24,1444.29,1222.54,1444.41z"></path>
		
			<ellipse transform="matrix(0.6112 -0.7915 0.7915 0.6112 -659.9265 1541.6261)" style="fill:#FFFFFF;stroke:#000000;stroke-linecap:round;stroke-linejoin:round;stroke-miterlimit:10;" cx="1239.2" cy="1442.53" rx="25.54" ry="20.59"></ellipse>
		<path style="fill:#FFFFFF;stroke:#000000;stroke-linecap:round;stroke-linejoin:round;stroke-miterlimit:10;" d="M1243.04,1428.88
			l10.62-13.75c0.44-0.57,1.25-0.67,1.82-0.23l9.07,7c0.57,0.44,0.67,1.25,0.23,1.82l-10.62,13.75c-0.44,0.57-1.25,0.67-1.82,0.23
			l-9.07-7C1242.7,1430.26,1242.6,1429.45,1243.04,1428.88z"></path>
		<path style="fill:#FFFFFF;stroke:#000000;stroke-linecap:round;stroke-linejoin:round;stroke-miterlimit:10;" d="M1216.03,1463.85
			l10.62-13.75c0.44-0.57,1.25-0.67,1.82-0.23l9.07,7c0.57,0.44,0.67,1.25,0.23,1.82l-10.62,13.75c-0.44,0.57-1.25,0.67-1.82,0.23
			l-9.07-7C1215.7,1465.23,1215.59,1464.42,1216.03,1463.85z"></path>
		<path style="fill:#FFFFFF;stroke:#000000;stroke-linecap:round;stroke-linejoin:round;stroke-miterlimit:10;" d="M1217.86,1439.86
			c-4.78-3.69-5.66-10.55-1.97-15.33c3.69-4.78,10.55-5.66,15.33-1.97L1217.86,1439.86z"></path>
		<path d="M1218.3,1422.87c1.22,0.94,1.44,2.69,0.5,3.9c-0.94,1.22-2.69,1.44-3.9,0.5l1-2.75L1218.3,1422.87z"></path>
		<path d="M1231.81,1422.56c1.22,0.94,1.44,2.69,0.5,3.9c-0.94,1.22-2.69,1.44-3.9,0.5L1231.81,1422.56z"></path>
		<path d="M1221.44,1435.98c1.22,0.94,1.44,2.69,0.5,3.9s-2.69,1.44-3.9,0.5L1221.44,1435.98z"></path>
	</g>
	<g>
		<g>
			<path style="fill:none;stroke:#000000;stroke-linecap:round;stroke-linejoin:round;stroke-miterlimit:10;" d="M1092.16,1573.11
				l9-25.61l-10.96-3.85c-2.22,6.33-9.15,9.65-15.48,7.43s-9.65-9.15-7.43-15.48l-9.97-3.5l-9,25.61L1092.16,1573.11z"></path>
			
				<rect x="1066.34" y="1505.44" transform="matrix(-0.9485 0.3168 -0.3168 -0.9485 2574.3899 2625.106)" style="fill:none;stroke:#000000;stroke-linecap:round;stroke-linejoin:round;stroke-miterlimit:10;" width="14.94" height="32.73"></rect>
			<g>
				
					<rect x="1014.74" y="1543.97" transform="matrix(-0.8654 -0.5011 0.5011 -0.8654 1136.9484 3419.374)" style="fill:none;stroke:#000000;stroke-linecap:round;stroke-linejoin:round;stroke-miterlimit:10;" width="26.01" height="26.01"></rect>
				
					<line style="fill:none;stroke:#000000;stroke-linecap:round;stroke-linejoin:round;stroke-miterlimit:10;" x1="1032.48" y1="1574.75" x2="1023.01" y2="1539.21"></line>
				
					<line style="fill:none;stroke:#000000;stroke-linecap:round;stroke-linejoin:round;stroke-miterlimit:10;" x1="1009.97" y1="1561.72" x2="1045.52" y2="1552.24"></line>
			</g>
			<path style="fill:none;stroke:#000000;stroke-linecap:round;stroke-linejoin:round;stroke-miterlimit:10;" d="M1103.23,1533.8
				l14.14,17.2c-1.08,0.63-1.64,1.91-1.23,3.14c0.47,1.41,2,2.17,3.41,1.7c1.41-0.47,2.17-2,1.7-3.41
				c-0.41-1.23-1.62-1.91-2.86-1.77l0.97-22.25L1103.23,1533.8z"></path>
			<path style="fill:none;stroke:#000000;stroke-linecap:round;stroke-linejoin:round;stroke-miterlimit:10;" d="M1031.86,1499.41
				l0.62,22.26c-1.24-0.16-2.46,0.5-2.89,1.72c-0.49,1.4,0.24,2.94,1.65,3.43s2.94-0.25,3.43-1.65c0.43-1.22-0.11-2.51-1.18-3.15
				l14.41-16.98L1031.86,1499.41z"></path>
			
				<circle style="fill:#FFFFFF;stroke:#000000;stroke-linecap:round;stroke-linejoin:round;stroke-miterlimit:10;" cx="1077.47" cy="1487.66" r="7.87"></circle>
		</g>
		<polygon style="fill:none;stroke:#000000;stroke-linecap:round;stroke-linejoin:round;stroke-miterlimit:10;" points="
			1090.3,1527.88 1105.79,1527.9 1113.55,1514.5 1105.82,1501.07 1090.33,1501.05 1082.57,1514.46 		"></polygon>
	</g>
	<g>
		<path style="fill:#FFFFFF;stroke:#000000;stroke-linecap:round;stroke-linejoin:round;stroke-miterlimit:10;" d="M1570.04,1609.2
			v-72.85c0-0.33,0.27-0.6,0.6-0.6h49.36c0.33,0,0.6,0.27,0.6,0.6v72.85c0,0.33-0.27,0.6-0.6,0.6h-49.36
			C1570.3,1609.8,1570.04,1609.53,1570.04,1609.2z"></path>
		
			<rect x="1574.69" y="1560.48" transform="matrix(1.113871e-07 1 -1 1.113871e-07 3175.9688 -30.4153)" style="fill:#FFFFFF;stroke:#000000;stroke-linecap:round;stroke-linejoin:round;stroke-miterlimit:10;" width="57.01" height="24.59"></rect>
		
			<rect x="1568.59" y="1565.83" transform="matrix(1.113888e-07 1 -1 1.113888e-07 3152.8455 -7.2922)" style="fill:#FFFFFF;stroke:#000000;stroke-linecap:round;stroke-linejoin:round;stroke-miterlimit:10;" width="22.96" height="13.9"></rect>
		<path style="fill:#FFFFFF;stroke:#000000;stroke-linecap:round;stroke-linejoin:round;stroke-miterlimit:10;" d="M1620.59,1609.8
			v-74.04l15.73-8.22c2.2-1.15,4.83,0.45,4.83,2.93v84.63c0,2.48-2.63,4.07-4.83,2.93L1620.59,1609.8z"></path>
	</g>
	<g>
		
			<rect x="1571.71" y="1452.86" transform="matrix(-2.721686e-06 -1 1 -2.721686e-06 139.5856 3087.3738)" style="fill:#FFFFFF;stroke:#000000;stroke-linecap:round;stroke-linejoin:round;stroke-miterlimit:10;" width="83.52" height="42.07"></rect>
		
			<rect x="1573.02" y="1470.12" transform="matrix(-2.721687e-06 -1 1 -2.721687e-06 122.2394 3070.0278)" style="fill:#FFFFFF;stroke:#000000;stroke-linecap:round;stroke-linejoin:round;stroke-miterlimit:10;" width="46.21" height="7.54"></rect>
		
			<rect x="1567.63" y="1464.73" transform="matrix(-2.721687e-06 -1 1 -2.721687e-06 116.844 3064.6326)" style="fill:#FFFFFF;stroke:#000000;stroke-linecap:round;stroke-linejoin:round;stroke-miterlimit:10;" width="46.21" height="18.33"></rect>
		
			<line style="fill:none;stroke:#000000;stroke-linecap:round;stroke-linejoin:round;stroke-miterlimit:10;" x1="1593.61" y1="1497" x2="1634.51" y2="1497"></line>
		
			<line style="fill:none;stroke:#000000;stroke-linecap:round;stroke-linejoin:round;stroke-miterlimit:10;" x1="1593.61" y1="1450.79" x2="1634.51" y2="1450.79"></line>
		<path style="fill:none;stroke:#000000;stroke-linecap:round;stroke-linejoin:round;stroke-miterlimit:10;" d="M1646.4,1451.94
			l0,43.9c0,0.64-0.52,1.16-1.16,1.16h-10.74l0-46.21h10.74C1645.89,1450.79,1646.4,1451.31,1646.4,1451.94z"></path>
		
			<rect x="1569.76" y="1461.13" transform="matrix(-2.721688e-06 -1 1 -2.721688e-06 113.2459 3061.0344)" style="fill:#FFFFFF;stroke:#000000;stroke-linecap:round;stroke-linejoin:round;stroke-miterlimit:10;" width="34.75" height="25.53"></rect>
		
			<circle style="fill:#FFFFFF;stroke:#000000;stroke-linecap:round;stroke-linejoin:round;stroke-miterlimit:10;" cx="1626.02" cy="1506.61" r="2.8"></circle>
	</g>
	<path style="fill:#FFFFFF;stroke:#000000;stroke-linecap:round;stroke-linejoin:round;stroke-miterlimit:10;" d="M1598,1633.97
		l-22.65,0c-1.05,0-1.9-0.85-1.9-1.9v-11.77c0-1.05,0.85-1.9,1.9-1.9l22.65,0c1.05,0,1.9,0.85,1.9,1.9l0,11.77
		C1599.9,1633.12,1599.05,1633.97,1598,1633.97z"></path>
	<g>
		<g>
			<g>
				
					<circle style="fill:#FFFFFF;stroke:#000000;stroke-linecap:round;stroke-linejoin:round;stroke-miterlimit:10;" cx="972.69" cy="1671.47" r="19.09"></circle>
			</g>
			<g>
				
					<circle style="fill:#FFFFFF;stroke:#000000;stroke-linecap:round;stroke-linejoin:round;stroke-miterlimit:10;" cx="972.69" cy="1671.47" r="17.05"></circle>
			</g>
		</g>
		<g>
			<g>
				<path style="fill:#FFFFFF;stroke:#000000;stroke-linecap:round;stroke-linejoin:round;stroke-miterlimit:10;" d="
					M964.87,1654.87C964.87,1654.87,964.87,1654.87,964.87,1654.87C964.88,1654.88,964.88,1654.88,964.87,1654.87z"></path>
				<path style="fill:#FFFFFF;stroke:#000000;stroke-linecap:round;stroke-linejoin:round;stroke-miterlimit:10;" d="
					M965.51,1654.63C965.51,1654.63,965.51,1654.63,965.51,1654.63C965.52,1654.64,965.52,1654.64,965.51,1654.63z"></path>
				<path style="fill:#FFFFFF;stroke:#000000;stroke-linecap:round;stroke-linejoin:round;stroke-miterlimit:10;" d="
					M956.73,1658.17c0.85,2.27,3.38,3.43,5.65,2.58c2.27-0.85,3.74-3.5,2.89-5.77c-0.17-0.47-0.1-0.28-0.08-0.23
					c-0.06-0.18-0.12-0.32-0.12-0.32s0.05,0.14,0.12,0.32c-0.02-0.05,0,0,0.09,0.23c0.86,2.27,3.7,3.31,5.97,2.46
					s3.43-3.38,2.58-5.65c0,0-3.22-10.31-13.74-10.69C952.4,1648.28,956.73,1658.17,956.73,1658.17z"></path>
			</g>
			
				<line style="fill:#FFFFFF;stroke:#000000;stroke-linecap:round;stroke-linejoin:round;stroke-miterlimit:10;" x1="969.91" y1="1673.17" x2="960.08" y2="1641.09"></line>
		</g>
		<g>
			<g>
				<path style="fill:#FFFFFF;stroke:#000000;stroke-linecap:round;stroke-linejoin:round;stroke-miterlimit:10;" d="M979.06,1677.7
					C979.06,1677.69,979.06,1677.69,979.06,1677.7C979.05,1677.69,979.05,1677.69,979.06,1677.7z"></path>
				<path style="fill:#FFFFFF;stroke:#000000;stroke-linecap:round;stroke-linejoin:round;stroke-miterlimit:10;" d="
					M978.54,1678.64C978.54,1678.65,978.54,1678.65,978.54,1678.64C978.53,1678.64,978.53,1678.64,978.54,1678.64z"></path>
				<path style="fill:#FFFFFF;stroke:#000000;stroke-linecap:round;stroke-linejoin:round;stroke-miterlimit:10;" d="
					M985.36,1665.25c-3.39-1.83-7.62-0.57-9.45,2.81c-1.83,3.39-0.83,8.09,2.56,9.92c0.69,0.37,0.42,0.23,0.34,0.18
					c0.26,0.14,0.47,0.26,0.47,0.26s-0.21-0.12-0.47-0.25c0.09,0.04,0,0-0.34-0.18c-3.39-1.82-7.87-0.1-9.7,3.29
					c-1.83,3.39-0.57,7.62,2.81,9.45c0,0,14.6,8.96,27.59-1.54C1000.85,1672.56,985.36,1665.25,985.36,1665.25z"></path>
			</g>
			
				<line style="fill:#FFFFFF;stroke:#000000;stroke-linecap:round;stroke-linejoin:round;stroke-miterlimit:10;" x1="970.11" y1="1673.43" x2="999.16" y2="1689.18"></line>
		</g>
		<g>
			<g>
				<path style="fill:#FFFFFF;stroke:#000000;stroke-linecap:round;stroke-linejoin:round;stroke-miterlimit:10;" d="
					M973.36,1657.16C973.36,1657.16,973.35,1657.16,973.36,1657.16C973.35,1657.18,973.35,1657.17,973.36,1657.16z"></path>
				<path style="fill:#FFFFFF;stroke:#000000;stroke-linecap:round;stroke-linejoin:round;stroke-miterlimit:10;" d="
					M974.41,1657.41C974.41,1657.41,974.41,1657.41,974.41,1657.41C974.41,1657.42,974.41,1657.42,974.41,1657.41z"></path>
				<path style="fill:#FFFFFF;stroke:#000000;stroke-linecap:round;stroke-linejoin:round;stroke-miterlimit:10;" d="
					M959.69,1654.36c-0.88,3.75,1.45,7.5,5.2,8.38c3.75,0.88,8.02-1.33,8.9-5.08c0.18-0.77,0.11-0.46,0.09-0.37
					c0.07-0.29,0.12-0.52,0.12-0.52s-0.06,0.23-0.12,0.52c0.02-0.09,0,0-0.09,0.37c-0.87,3.75,1.98,7.62,5.73,8.5
					c3.75,0.88,7.5-1.45,8.38-5.2c0,0,4.81-16.44-8.74-26.21C962.68,1637.49,959.69,1654.36,959.69,1654.36z"></path>
			</g>
			
				<line style="fill:#FFFFFF;stroke:#000000;stroke-linecap:round;stroke-linejoin:round;stroke-miterlimit:10;" x1="970.11" y1="1673.43" x2="979.16" y2="1634.75"></line>
		</g>
		<g>
			<g>
				<path style="fill:#FFFFFF;stroke:#000000;stroke-linecap:round;stroke-linejoin:round;stroke-miterlimit:10;" d="
					M955.67,1671.56C955.67,1671.56,955.67,1671.56,955.67,1671.56C955.68,1671.56,955.68,1671.56,955.67,1671.56z"></path>
				<path style="fill:#FFFFFF;stroke:#000000;stroke-linecap:round;stroke-linejoin:round;stroke-miterlimit:10;" d="
					M955.73,1670.88C955.73,1670.88,955.73,1670.88,955.73,1670.88C955.74,1670.88,955.74,1670.88,955.73,1670.88z"></path>
				<path style="fill:#FFFFFF;stroke:#000000;stroke-linecap:round;stroke-linejoin:round;stroke-miterlimit:10;" d="
					M955.11,1680.33c2.42,0.22,4.55-1.56,4.77-3.98c0.22-2.42-1.53-4.89-3.94-5.11c-0.49-0.05-0.3-0.03-0.24-0.02
					c-0.19-0.02-0.34-0.03-0.34-0.03s0.15,0.02,0.34,0.03c-0.06,0,0,0,0.24,0.02c2.42,0.21,4.58-1.9,4.8-4.31
					c0.22-2.42-1.56-4.55-3.98-4.77c0,0-10.68-1.57-15.6,7.74C944.32,1679.94,955.11,1680.33,955.11,1680.33z"></path>
			</g>
			
				<line style="fill:#FFFFFF;stroke:#000000;stroke-linecap:round;stroke-linejoin:round;stroke-miterlimit:10;" x1="970.11" y1="1673.43" x2="941.17" y2="1669.89"></line>
		</g>
		<g>
			<g>
				<path style="fill:#FFFFFF;stroke:#000000;stroke-linecap:round;stroke-linejoin:round;stroke-miterlimit:10;" d="
					M965.02,1678.07C965.02,1678.07,965.02,1678.07,965.02,1678.07C965.03,1678.06,965.03,1678.06,965.02,1678.07z"></path>
				<path style="fill:#FFFFFF;stroke:#000000;stroke-linecap:round;stroke-linejoin:round;stroke-miterlimit:10;" d="
					M964.36,1677.21C964.35,1677.21,964.35,1677.21,964.36,1677.21C964.36,1677.21,964.36,1677.2,964.36,1677.21z"></path>
				<path style="fill:#FFFFFF;stroke:#000000;stroke-linecap:round;stroke-linejoin:round;stroke-miterlimit:10;" d="
					M973.87,1688.85c3.04-2.36,3.59-6.74,1.23-9.78s-7.07-4.02-10.11-1.66c-0.62,0.48-0.38,0.29-0.3,0.23
					c-0.24,0.18-0.42,0.33-0.42,0.33s0.19-0.15,0.42-0.33c-0.07,0.06,0,0,0.3-0.24c3.04-2.37,3.26-7.17,0.9-10.21
					s-6.74-3.59-9.78-1.23c0,0-14.09,9.75-9.7,25.87C960.93,1700.08,973.87,1688.85,973.87,1688.85z"></path>
			</g>
			
				<line style="fill:#FFFFFF;stroke:#000000;stroke-linecap:round;stroke-linejoin:round;stroke-miterlimit:10;" x1="970.11" y1="1673.43" x2="946.4" y2="1691.84"></line>
		</g>
		<g>
			<g>
				<path style="fill:#FFFFFF;stroke:#000000;stroke-linecap:round;stroke-linejoin:round;stroke-miterlimit:10;" d="
					M969.18,1682.87C969.18,1682.87,969.18,1682.87,969.18,1682.87C969.18,1682.86,969.18,1682.86,969.18,1682.87z"></path>
				<path style="fill:#FFFFFF;stroke:#000000;stroke-linecap:round;stroke-linejoin:round;stroke-miterlimit:10;" d="M968.5,1682.78
					C968.5,1682.78,968.5,1682.78,968.5,1682.78C968.5,1682.77,968.5,1682.77,968.5,1682.78z"></path>
				<path style="fill:#FFFFFF;stroke:#000000;stroke-linecap:round;stroke-linejoin:round;stroke-miterlimit:10;" d="
					M977.92,1683.74c0.31-2.41-1.39-4.61-3.8-4.91s-4.94,1.35-5.25,3.75c-0.06,0.49-0.04,0.3-0.03,0.24
					c-0.03,0.19-0.04,0.34-0.04,0.34s0.02-0.15,0.04-0.34c0,0.06,0,0,0.03-0.24c0.3-2.41-1.73-4.65-4.14-4.96
					c-2.41-0.31-4.61,1.39-4.91,3.8c0,0-1.96,10.62,7.17,15.86C977.14,1694.51,977.92,1683.74,977.92,1683.74z"></path>
			</g>
			
				<line style="fill:#FFFFFF;stroke:#000000;stroke-linecap:round;stroke-linejoin:round;stroke-miterlimit:10;" x1="970.02" y1="1673.32" x2="966.98" y2="1697.29"></line>
		</g>
		<g>
			<g>
				<path style="fill:#FFFFFF;stroke:#000000;stroke-linecap:round;stroke-linejoin:round;stroke-miterlimit:10;" d="
					M990.19,1673.34C990.19,1673.34,990.19,1673.34,990.19,1673.34C990.18,1673.34,990.19,1673.34,990.19,1673.34z"></path>
				<path style="fill:#FFFFFF;stroke:#000000;stroke-linecap:round;stroke-linejoin:round;stroke-miterlimit:10;" d="
					M990.18,1674.02C990.18,1674.02,990.18,1674.02,990.18,1674.02C990.17,1674.02,990.17,1674.02,990.18,1674.02z"></path>
				<path style="fill:#FFFFFF;stroke:#000000;stroke-linecap:round;stroke-linejoin:round;stroke-miterlimit:10;" d="
					M990.13,1664.55c-2.42-0.05-4.43,1.88-4.48,4.3c-0.05,2.43,1.87,4.77,4.3,4.82c0.5,0.01,0.3,0.01,0.24,0.01
					c0.19,0.01,0.34,0.01,0.34,0.01s-0.15,0-0.34-0.01c0.06,0,0,0-0.24,0c-2.43-0.04-4.44,2.22-4.49,4.64
					c-0.05,2.42,1.88,4.43,4.3,4.48c0,0,10.76,0.81,15-8.83C1000.92,1664.18,990.13,1664.55,990.13,1664.55z"></path>
			</g>
			
				<line style="fill:#FFFFFF;stroke:#000000;stroke-linecap:round;stroke-linejoin:round;stroke-miterlimit:10;" x1="970.14" y1="1673.47" x2="1004.77" y2="1673.97"></line>
		</g>
	</g>
	<g>
		<g>
			<path style="fill:none;stroke:#000000;stroke-linecap:round;stroke-linejoin:round;stroke-miterlimit:10;" d="M711.58,1284.21
				v-152c0-0.55-0.45-1-1-1h-49.07c-0.55,0-1,0.45-1,1v152c0,0.55,0.45,1,1,1h49.07C711.14,1285.21,711.58,1284.76,711.58,1284.21z"></path>
			<path style="fill:none;stroke:#000000;stroke-linecap:round;stroke-linejoin:round;stroke-miterlimit:10;" d="M711.58,1284.21
				v-152c0-0.55,0.45-1,1-1H830.4c0.55,0,1,0.45,1,1v152c0,0.55-0.45,1-1,1H712.58C712.03,1285.21,711.58,1284.76,711.58,1284.21z"></path>
			<path style="fill:none;stroke:#000000;stroke-linecap:round;stroke-linejoin:round;stroke-miterlimit:10;" d="M711.58,1438.2
				v-152c0-0.55-0.45-1-1-1h-49.07c-0.55,0-1,0.45-1,1v152c0,0.55,0.45,1,1,1h49.07C711.14,1439.2,711.58,1438.76,711.58,1438.2z"></path>
			<path style="fill:none;stroke:#000000;stroke-linecap:round;stroke-linejoin:round;stroke-miterlimit:10;" d="M711.58,1438.2
				v-152c0-0.55,0.45-1,1-1H830.4c0.55,0,1,0.45,1,1v152c0,0.55-0.45,1-1,1H712.58C712.03,1439.2,711.58,1438.76,711.58,1438.2z"></path>
			<path style="fill:none;stroke:#000000;stroke-linecap:round;stroke-linejoin:round;stroke-miterlimit:10;" d="M711.58,1592.2
				v-152c0-0.55-0.45-1-1-1h-49.07c-0.55,0-1,0.45-1,1v152c0,0.55,0.45,1,1,1h49.07C711.14,1593.2,711.58,1592.75,711.58,1592.2z"></path>
			<path style="fill:none;stroke:#000000;stroke-linecap:round;stroke-linejoin:round;stroke-miterlimit:10;" d="M711.58,1592.2
				v-152c0-0.55,0.45-1,1-1h186.37c0.55,0,1,0.45,1,1v152c0,0.55-0.45,1-1,1H712.58C712.03,1593.2,711.58,1592.75,711.58,1592.2z"></path>
		</g>
	</g>
	<g>
		<g>
			<g>
				<path style="fill:none;stroke:#000000;stroke-linecap:round;stroke-linejoin:round;stroke-miterlimit:10;" d="M508.7,1350.26
					l-28.84-3.21c-18.04-2.01-31.69-17.26-31.69-35.42v-2.06c0-18.14,13.63-33.39,31.66-35.41l28.87-3.24L508.7,1350.26z"></path>
				<path style="fill:none;stroke:#000000;stroke-linecap:round;stroke-linejoin:round;stroke-miterlimit:10;" d="M484.89,1263.22
					l-6.37,0.72c-23.09,2.59-40.54,22.12-40.54,45.35v2.64c0,23.25,17.48,42.78,40.58,45.36l6.32,0.7c3.06,0.34,5.73-2.05,5.73-5.13
					v0c0-2.63-1.97-4.83-4.59-5.13l-6.18-0.69c-18.04-2.01-31.69-17.26-31.69-35.42v-2.06c0-18.14,13.63-33.39,31.66-35.41l6.22-0.7
					c2.61-0.29,4.58-2.5,4.58-5.12l0,0C490.62,1265.26,487.94,1262.87,484.89,1263.22z"></path>
			</g>
			<g>
				<path style="fill:none;stroke:#000000;stroke-linecap:round;stroke-linejoin:round;stroke-miterlimit:10;" d="M508.7,1502.63
					l-28.84-3.21c-18.04-2.01-31.69-17.26-31.69-35.42v-2.06c0-18.14,13.63-33.39,31.66-35.41l28.87-3.24L508.7,1502.63z"></path>
				<path style="fill:none;stroke:#000000;stroke-linecap:round;stroke-linejoin:round;stroke-miterlimit:10;" d="M484.89,1415.59
					l-6.37,0.72c-23.09,2.59-40.54,22.12-40.54,45.35v2.64c0,23.25,17.48,42.78,40.58,45.36l6.32,0.7c3.06,0.34,5.73-2.05,5.73-5.13
					l0,0c0-2.63-1.97-4.83-4.59-5.13l-6.18-0.69c-18.04-2.01-31.69-17.26-31.69-35.42v-2.06c0-18.14,13.63-33.39,31.66-35.41
					l6.22-0.7c2.61-0.29,4.58-2.5,4.58-5.12l0,0C490.62,1417.63,487.94,1415.24,484.89,1415.59z"></path>
			</g>
		</g>
		<g>
			<g>
				<path style="fill:none;stroke:#000000;stroke-linecap:round;stroke-linejoin:round;stroke-miterlimit:10;" d="M536.96,1241.24
					l3.21-28.84c2.01-18.04,17.26-31.69,35.42-31.69h2.06c18.14,0,33.39,13.63,35.41,31.66l3.24,28.87H536.96z"></path>
				<path style="fill:none;stroke:#000000;stroke-linecap:round;stroke-linejoin:round;stroke-miterlimit:10;" d="M624,1217.44
					l-0.72-6.37c-2.59-23.09-22.12-40.54-45.35-40.54h-2.64c-23.25,0-42.78,17.48-45.36,40.58l-0.7,6.32
					c-0.34,3.06,2.05,5.73,5.13,5.73l0,0c2.63,0,4.83-1.97,5.13-4.59l0.69-6.18c2.01-18.04,17.26-31.69,35.42-31.69h2.06
					c18.14,0,33.39,13.63,35.41,31.66l0.7,6.22c0.29,2.61,2.5,4.58,5.12,4.58l0,0C621.96,1223.16,624.34,1220.49,624,1217.44z"></path>
			</g>
		</g>
		<path style="fill:none;stroke:#000000;stroke-linecap:round;stroke-linejoin:round;stroke-miterlimit:10;" d="M660.52,1531.33
			v-289.09c0-0.55-0.45-1-1-1H509.99c-0.55,0-1,0.45-1,1v289.09c0,0.55,0.45,1,1,1h149.53
			C660.07,1532.33,660.52,1531.88,660.52,1531.33z"></path>
		<g>
			<path style="fill:none;stroke:#000000;stroke-linecap:round;stroke-linejoin:round;stroke-miterlimit:10;" d="M616.28,1532.33
				l-3.21,28.84c-2.01,18.04-17.26,31.69-35.42,31.69h-2.06c-18.14,0-33.39-13.63-35.41-31.66l-3.24-28.87H616.28z"></path>
			<path style="fill:none;stroke:#000000;stroke-linecap:round;stroke-linejoin:round;stroke-miterlimit:10;" d="M529.23,1556.14
				l0.72,6.37c2.59,23.09,22.12,40.54,45.35,40.54h2.64c23.25,0,42.78-17.48,45.36-40.58l0.7-6.32c0.34-3.06-2.05-5.73-5.13-5.73
				l0,0c-2.63,0-4.83,1.97-5.13,4.59l-0.69,6.18c-2.01,18.04-17.26,31.69-35.42,31.69h-2.06c-18.14,0-33.39-13.63-35.41-31.66
				l-0.7-6.22c-0.29-2.61-2.5-4.58-5.12-4.58l0,0C531.28,1550.41,528.89,1553.08,529.23,1556.14z"></path>
		</g>
	</g>
	<path style="fill:#FFFFFF;stroke:#000000;stroke-linecap:round;stroke-linejoin:round;stroke-miterlimit:10;" d="M815.4,1536.49
		l-0.01-0.01c-15.35-5.79-31.51-9.13-47.89-9.88l-0.02,0c-4.27-0.2-7.1-4.5-5.59-8.5l0.01-0.01c5.79-15.35,9.13-31.51,9.88-47.89
		l0-0.02c0.2-4.27,4.5-7.1,8.5-5.59l0.01,0.01c15.35,5.79,31.51,9.13,47.89,9.88l0.02,0c4.27,0.2,7.1,4.5,5.59,8.5l-0.01,0.01
		c-5.79,15.35-9.13,31.51-9.88,47.89l0,0.02C823.71,1535.16,819.4,1538,815.4,1536.49z"></path>
	<path style="fill:#FFFFFF;stroke:#000000;stroke-linecap:round;stroke-linejoin:round;stroke-miterlimit:10;" d="M843.63,1536.09
		l-4.23-3.44c-14.12-11.51-29.97-20.72-46.96-27.29l-5.08-1.97c-2.27-0.88-3.03-3.72-1.49-5.61l3.44-4.23
		c7.4-9.08,13.33-19.28,17.55-30.2l1.97-5.08c0.88-2.27,3.72-3.03,5.61-1.49l4.23,3.44c14.12,11.51,29.97,20.72,46.96,27.29
		l5.08,1.97c2.27,0.88,3.03,3.72,1.49,5.61l-3.44,4.23c-7.4,9.08-13.33,19.28-17.55,30.2l-1.97,5.08
		C848.36,1536.88,845.52,1537.63,843.63,1536.09z"></path>
	<g>
		<path style="fill:#FFFFFF;stroke:#000000;stroke-linecap:round;stroke-linejoin:round;stroke-miterlimit:10;" d="M585.4,1269.45
			l7.78,1.36l-0.57,3.27l-7.78-1.36c-0.1-0.02-0.17-0.11-0.15-0.21l0.51-2.91C585.21,1269.5,585.3,1269.43,585.4,1269.45z"></path>
		
			<circle style="fill:#FFFFFF;stroke:#000000;stroke-linecap:round;stroke-linejoin:round;stroke-miterlimit:10;" cx="601.63" cy="1273.98" r="9.32"></circle>
		
			<circle style="fill:#FFFFFF;stroke:#000000;stroke-linecap:round;stroke-linejoin:round;stroke-miterlimit:10;" cx="601.63" cy="1273.98" r="6.89"></circle>
	</g>
	<g>
		<path style="fill:#FFFFFF;stroke:#000000;stroke-linecap:round;stroke-linejoin:round;stroke-miterlimit:10;" d="M573.77,1509.38
			l0-7.89h3.32l0,7.89c0,0.1-0.08,0.18-0.18,0.18h-2.95C573.85,1509.57,573.77,1509.48,573.77,1509.38z"></path>
		
			<circle style="fill:#FFFFFF;stroke:#000000;stroke-linecap:round;stroke-linejoin:round;stroke-miterlimit:10;" cx="575.43" cy="1492.62" r="9.32"></circle>
		
			<circle style="fill:#FFFFFF;stroke:#000000;stroke-linecap:round;stroke-linejoin:round;stroke-miterlimit:10;" cx="575.43" cy="1492.62" r="6.89"></circle>
	</g>
	<g>
		<g>
			
				<circle style="fill:#FFFFFF;stroke:#000000;stroke-linecap:round;stroke-linejoin:round;stroke-miterlimit:10;" cx="537.47" cy="1302.76" r="15.69"></circle>
		</g>
		<g>
			
				<circle style="fill:#FFFFFF;stroke:#000000;stroke-linecap:round;stroke-linejoin:round;stroke-miterlimit:10;" cx="537.47" cy="1302.76" r="8.94"></circle>
		</g>
		<g>
			
				<ellipse style="fill:#FFFFFF;stroke:#000000;stroke-linecap:round;stroke-linejoin:round;stroke-miterlimit:10;" cx="546.87" cy="1333.2" rx="3.95" ry="2.43"></ellipse>
			
				<line style="fill:#FFFFFF;stroke:#000000;stroke-linecap:round;stroke-linejoin:round;stroke-miterlimit:10;" x1="542.92" y1="1333.2" x2="525.63" y2="1333.2"></line>
		</g>
		<g>
			<path style="fill:#FFFFFF;stroke:#000000;stroke-linecap:round;stroke-linejoin:round;stroke-miterlimit:10;" d="M550.82,1277.14
				h-3.95c-2.18,0-3.95,1.09-3.95,2.43c0,1.34,1.77,2.43,3.95,2.43l3.95,0"></path>
			
				<line style="fill:#FFFFFF;stroke:#000000;stroke-linecap:round;stroke-linejoin:round;stroke-miterlimit:10;" x1="542.92" y1="1279.58" x2="525.63" y2="1279.57"></line>
		</g>
		
			<line style="fill:#FFFFFF;stroke:#000000;stroke-linecap:round;stroke-linejoin:round;stroke-miterlimit:10;" x1="550.82" y1="1278.76" x2="542.92" y2="1278.76"></line>
		
			<line style="fill:#FFFFFF;stroke:#000000;stroke-linecap:round;stroke-linejoin:round;stroke-miterlimit:10;" x1="550.82" y1="1280.39" x2="542.92" y2="1280.39"></line>
		<g>
			<path style="fill:#FFFFFF;stroke:#000000;stroke-linecap:round;stroke-linejoin:round;stroke-miterlimit:10;" d="M536.2,1327.21
				l0-3.77l14.62,0l0,2.98c0,0.44-0.36,0.8-0.8,0.8L536.2,1327.21z"></path>
			<path style="fill:#FFFFFF;stroke:#000000;stroke-linecap:round;stroke-linejoin:round;stroke-miterlimit:10;" d="M525.63,1326.81
				l0-2.98c0-0.22,0.18-0.4,0.4-0.4l10.17,0l0,3.77l-10.17,0C525.81,1327.21,525.63,1327.03,525.63,1326.81z"></path>
		</g>
	</g>
	<g>
		<g>
			
				<circle style="fill:#FFFFFF;stroke:#000000;stroke-linecap:round;stroke-linejoin:round;stroke-miterlimit:10;" cx="537.8" cy="1459.3" r="15.69"></circle>
		</g>
		<g>
			
				<circle style="fill:#FFFFFF;stroke:#000000;stroke-linecap:round;stroke-linejoin:round;stroke-miterlimit:10;" cx="537.8" cy="1459.3" r="8.94"></circle>
		</g>
		<g>
			
				<ellipse style="fill:#FFFFFF;stroke:#000000;stroke-linecap:round;stroke-linejoin:round;stroke-miterlimit:10;" cx="547.21" cy="1489.74" rx="3.95" ry="2.43"></ellipse>
			
				<line style="fill:#FFFFFF;stroke:#000000;stroke-linecap:round;stroke-linejoin:round;stroke-miterlimit:10;" x1="543.26" y1="1489.74" x2="525.97" y2="1489.74"></line>
		</g>
		<g>
			<path style="fill:#FFFFFF;stroke:#000000;stroke-linecap:round;stroke-linejoin:round;stroke-miterlimit:10;" d="M551.16,1433.68
				h-3.95c-2.18,0-3.95,1.09-3.95,2.43s1.77,2.43,3.95,2.43l3.95,0"></path>
			
				<line style="fill:#FFFFFF;stroke:#000000;stroke-linecap:round;stroke-linejoin:round;stroke-miterlimit:10;" x1="543.26" y1="1436.12" x2="525.97" y2="1436.11"></line>
		</g>
		
			<line style="fill:#FFFFFF;stroke:#000000;stroke-linecap:round;stroke-linejoin:round;stroke-miterlimit:10;" x1="551.16" y1="1435.3" x2="543.26" y2="1435.3"></line>
		
			<line style="fill:#FFFFFF;stroke:#000000;stroke-linecap:round;stroke-linejoin:round;stroke-miterlimit:10;" x1="551.16" y1="1436.93" x2="543.26" y2="1436.93"></line>
		<g>
			<path style="fill:#FFFFFF;stroke:#000000;stroke-linecap:round;stroke-linejoin:round;stroke-miterlimit:10;" d="M536.54,1483.75
				l0-3.77l14.62,0l0,2.98c0,0.44-0.36,0.8-0.8,0.8L536.54,1483.75z"></path>
			<path style="fill:#FFFFFF;stroke:#000000;stroke-linecap:round;stroke-linejoin:round;stroke-miterlimit:10;" d="M525.97,1483.35
				l0-2.98c0-0.22,0.18-0.4,0.4-0.4l10.17,0l0,3.77l-10.17,0C526.15,1483.75,525.97,1483.57,525.97,1483.35z"></path>
		</g>
	</g>
	<g>
		
			<circle style="fill:#FFFFFF;stroke:#000000;stroke-linecap:round;stroke-linejoin:round;stroke-miterlimit:10;" cx="607.01" cy="1439.2" r="14.43"></circle>
		
			<circle style="fill:#FFFFFF;stroke:#000000;stroke-linecap:round;stroke-linejoin:round;stroke-miterlimit:10;" cx="603.12" cy="1432.45" r="4.15"></circle>
		
			<circle style="fill:#FFFFFF;stroke:#000000;stroke-linecap:round;stroke-linejoin:round;stroke-miterlimit:10;" cx="602.61" cy="1440.74" r="4.15"></circle>
		
			<circle style="fill:#FFFFFF;stroke:#000000;stroke-linecap:round;stroke-linejoin:round;stroke-miterlimit:10;" cx="610.21" cy="1437.41" r="4.15"></circle>
		<path style="fill:#FFFFFF;stroke:#000000;stroke-linecap:round;stroke-linejoin:round;stroke-miterlimit:10;" d="M617.07,1436.32
			l-0.92-0.18l-0.57,3.6c-3.32,6.49-9.22,6.33-12.5,6.54c-0.76,0.05-0.98,1.07-0.31,1.43c2.36,1.28,6.24,2.7,9.85,0.86
			c4.14-2.1,4.17-6.34,3.87-8.52L617.07,1436.32z"></path>
	</g>
	<g>
		<path style="fill:#FFFFFF;stroke:#000000;stroke-linecap:round;stroke-linejoin:round;stroke-miterlimit:10;" d="M234.07,1263.05
			l-32.79,26.63c-1.47,1.19-3.62,0.97-4.81-0.5l-10.76-13.25c-1.19-1.47-0.97-3.62,0.5-4.81l32.79-26.63
			c1.47-1.19,3.62-0.97,4.81,0.5l10.76,13.25C235.76,1259.71,235.53,1261.86,234.07,1263.05z"></path>
		
			<circle style="fill:#FFFFFF;stroke:#000000;stroke-linecap:round;stroke-linejoin:round;stroke-miterlimit:10;" cx="197.51" cy="1274.46" r="4.5"></circle>
		
			<circle style="fill:#FFFFFF;stroke:#000000;stroke-linecap:round;stroke-linejoin:round;stroke-miterlimit:10;" cx="207.73" cy="1274.84" r="4.5"></circle>
		
			<circle style="fill:#FFFFFF;stroke:#000000;stroke-linecap:round;stroke-linejoin:round;stroke-miterlimit:10;" cx="204.42" cy="1265.22" r="4.5"></circle>
		<path style="fill:#FFFFFF;stroke:#000000;stroke-linecap:round;stroke-linejoin:round;stroke-miterlimit:10;" d="M214.95,1250.51
			l-0.9,0.47l1.98,3.42c1.64,7.73-3.44,11.63-6.05,14.05c-0.6,0.56-0.09,1.57,0.72,1.42c2.86-0.53,7.1-1.99,8.89-6.01
			c2.05-4.6-0.83-8.19-2.56-9.82L214.95,1250.51z"></path>
		<path style="fill:#FFFFFF;stroke:#000000;stroke-linecap:round;stroke-linejoin:round;stroke-miterlimit:10;" d="M223.86,1254.68
			l-1,0.19l0.9,3.85c-0.69,7.87-6.68,10.12-9.89,11.67c-0.74,0.36-0.55,1.47,0.27,1.56c2.89,0.33,7.37,0.17,10.25-3.16
			c3.3-3.8,1.6-8.07,0.41-10.14L223.86,1254.68z"></path>
	</g>
	<g>
		<g>
			<path style="fill:#FFFFFF;stroke:#000000;stroke-linecap:round;stroke-linejoin:round;stroke-miterlimit:10;" d="M620.62,1353.43
				l0.73-0.51c1.18-0.82,2.58-1.22,4.01-1.37c1.06-0.11,2.09-0.62,2.86-1.54c1.13-1.35,1.32-3.33,0.45-4.86
				c-1.41-2.49-4.64-2.94-6.67-1.15c-0.76,0.67-1.22,1.53-1.38,2.45c-0.24,1.34-0.91,2.56-1.81,3.58l-0.6,0.67
				c-0.81,0.9-2.23,0.9-3.03-0.01l-2.25-2.55c-1.23-1.4-3.36-1.53-4.76-0.3l-19.17,16.9c-1.4,1.23-1.53,3.36-0.3,4.76l9.57,10.85
				c1.23,1.4,3.36,1.53,4.76,0.3l19.17-16.9c1.4-1.23,1.53-3.36,0.3-4.76l-2.25-2.55C619.45,1355.53,619.62,1354.12,620.62,1353.43z
				"></path>
			
				<circle style="fill:#FFFFFF;stroke:#000000;stroke-linecap:round;stroke-linejoin:round;stroke-miterlimit:10;" cx="624.81" cy="1347.31" r="2.11"></circle>
		</g>
		<g>
			<path style="fill:#FFFFFF;stroke:#000000;stroke-linecap:round;stroke-linejoin:round;stroke-miterlimit:10;" d="M607,1359.36
				l1.77-5.25c0.12-0.36,0.51-0.55,0.87-0.43l7.71,2.6c0.36,0.12,0.55,0.51,0.43,0.87l-1.77,5.25c-0.12,0.36-0.51,0.55-0.87,0.43
				l-7.71-2.6C607.08,1360.11,606.88,1359.72,607,1359.36z"></path>
			<path style="fill:#FFFFFF;stroke:#000000;stroke-linecap:round;stroke-linejoin:round;stroke-miterlimit:10;" d="M600.24,1365.33
				l1.77-5.25c0.12-0.36,0.51-0.55,0.87-0.43l7.71,2.6c0.36,0.12,0.55,0.51,0.43,0.87l-1.77,5.25c-0.12,0.36-0.51,0.55-0.87,0.43
				l-7.71-2.6C600.31,1366.08,600.12,1365.69,600.24,1365.33z"></path>
			<path style="fill:#FFFFFF;stroke:#000000;stroke-linecap:round;stroke-linejoin:round;stroke-miterlimit:10;" d="M593.5,1371.26
				l1.77-5.25c0.12-0.36,0.51-0.55,0.87-0.43l7.71,2.6c0.36,0.12,0.55,0.51,0.43,0.87l-1.77,5.25c-0.12,0.36-0.51,0.55-0.87,0.43
				l-7.71-2.6C593.58,1372.01,593.38,1371.62,593.5,1371.26z"></path>
		</g>
	</g>
	<g>
		<polygon style="fill:none;stroke:#000000;stroke-linecap:round;stroke-linejoin:round;stroke-miterlimit:10;" points="
			263.82,1597.61 263.82,1710.84 148.44,1710.84 148.43,1597.61 		"></polygon>
		<g>
			
				<line style="fill:none;stroke:#000000;stroke-linecap:round;stroke-linejoin:round;stroke-miterlimit:10;" x1="177.32" y1="1654.22" x2="232.76" y2="1654.22"></line>
			
				<line style="fill:none;stroke:#000000;stroke-linecap:round;stroke-linejoin:round;stroke-miterlimit:10;" x1="205.04" y1="1626.5" x2="205.04" y2="1681.94"></line>
			<polyline style="fill:none;stroke:#000000;stroke-linecap:round;stroke-linejoin:round;stroke-miterlimit:10;" points="
				183.48,1640.36 191.18,1654.22 183.48,1668.08 			"></polyline>
			<polyline style="fill:none;stroke:#000000;stroke-linecap:round;stroke-linejoin:round;stroke-miterlimit:10;" points="
				191.18,1675.78 205.04,1668.08 218.9,1675.78 			"></polyline>
			<polyline style="fill:none;stroke:#000000;stroke-linecap:round;stroke-linejoin:round;stroke-miterlimit:10;" points="
				226.6,1668.08 218.9,1654.22 226.6,1640.36 			"></polyline>
			<polyline style="fill:none;stroke:#000000;stroke-linecap:round;stroke-linejoin:round;stroke-miterlimit:10;" points="
				218.9,1632.66 205.04,1640.36 191.18,1632.66 			"></polyline>
		</g>
	</g>
	<g>
		<g>
			
				<rect x="92.44" y="1204.95" transform="matrix(4.169469e-06 -1 1 4.169469e-06 -1056.8315 1468.7841)" style="fill:none;stroke:#000000;stroke-linecap:round;stroke-linejoin:round;stroke-miterlimit:10;" width="227.07" height="115.73"></rect>
		</g>
	</g>
	<g>
		<g>
			
				<rect x="153.05" y="1486.84" transform="matrix(-3.772400e-06 -1 1 -3.772400e-06 -1338.752 1750.663)" style="fill:none;stroke:#000000;stroke-linecap:round;stroke-linejoin:round;stroke-miterlimit:10;" width="105.8" height="115.73"></rect>
		</g>
	</g>
	<g>
		<polygon style="fill:none;stroke:#000000;stroke-linecap:round;stroke-linejoin:round;stroke-miterlimit:10;" points="
			263.89,1064.01 263.89,1149.26 148.12,1149.26 148.11,1064.01 		"></polygon>
		<path style="fill:none;stroke:#000000;stroke-linecap:round;stroke-linejoin:round;stroke-miterlimit:10;" d="M182.08,1106.63
			l29.42,13.94c1.8,0.76,3.78,1.18,5.86,1.18c8.35,0,15.12-6.77,15.12-15.12c0-8.35-6.77-15.12-15.12-15.12
			c-2.08,0-4.06,0.42-5.86,1.18L182.08,1106.63z"></path>
	</g>
	<g>
		<g>
			<path style="fill:#FFFFFF;stroke:#000000;stroke-linecap:round;stroke-linejoin:round;stroke-miterlimit:10;" d="M451.58,1144.26
				l7.5-11.67l22.7,13.04c4.06,2.21,7.48-3.68,3.51-6.1l-24.23-13.92c-1.11-0.64-2.41-0.88-3.68-0.7l-16.7,2.46
				c-6.03,0.89-10.21,6.5-9.32,12.54C432.8,1149.98,446.22,1152.73,451.58,1144.26L451.58,1144.26z"></path>
			<path style="fill:#FFFFFF;stroke:#000000;stroke-linecap:round;stroke-linejoin:round;stroke-miterlimit:10;" d="M449.09,1127.33
				"></path>
			<path style="fill:#FFFFFF;stroke:#000000;stroke-linecap:round;stroke-linejoin:round;stroke-miterlimit:10;" d="M396.58,1134.17
				c1.02-0.04,1.84-0.87,1.87-1.9c0.03-1.1-0.87-2.02-1.97-2c-9.54,0.17-18.09-7.36-19.62-17.05c-0.52-3.33-0.08-5.97,0.98-8.91
				c-0.12-0.16-0.24-0.32-0.36-0.49c-0.02,0.04-0.05,0.08-0.08,0.13c-1.98,3.77-2.75,8.22-2.05,12.75
				C376.96,1127.12,386.23,1134.6,396.58,1134.17z"></path>
			<g>
				<path style="fill:#FFFFFF;stroke:#000000;stroke-linecap:round;stroke-linejoin:round;stroke-miterlimit:10;" d="M419.61,1138.9
					c-1.15,0.06-2.25,0.68-2.87,1.75l-8.76,15.1c-0.91,1.57-0.24,3.57,1.43,4.28l15.55,6.54c1.91,0.81,4.12-0.2,4.74-2.23
					c0.53-1.76-0.5-3.62-2.19-4.33l-11.13-4.69l6.38-11.01c0.85-1.47,0.66-3.39-0.61-4.51
					C421.4,1139.14,420.49,1138.85,419.61,1138.9z"></path>
			</g>
			<path style="fill:#FFFFFF;stroke:#000000;stroke-linecap:round;stroke-linejoin:round;stroke-miterlimit:10;" d="M396.96,1129.17
				"></path>
			<path style="fill:#FFFFFF;stroke:#000000;stroke-linecap:round;stroke-linejoin:round;stroke-miterlimit:10;" d="M423.29,1138.53
				c0,0,2.62,3.44,2.02,6.99c-0.52,3.03-2.48,5.26-5.07,6.62l0,0l-0.23,0.11c-0.12,0.06-0.24,0.12-0.36,0.17l-11.91,5.82l8.21,8.86
				c1.25,1.35,1.42,3.47,0.21,4.85c-1.4,1.59-3.83,1.6-5.23,0.08l-11.47-12.37c-1.23-1.33-1.02-3.43,0.46-4.49l5.78-4.13
				c-4.51-2.79-6.98-6.38-8.29-9.68c-1.89-4.77-1.56-10.21,0.88-14.73c0.06-0.11,0.11-0.2,0.16-0.28
				c2.39-3.64,8.31-12.14,24.52-12.97c25.79-1.33,35.26,16.69,35.26,16.69"></path>
			<g>
				<path style="fill:#FFFFFF;stroke:#000000;stroke-linecap:round;stroke-linejoin:round;stroke-miterlimit:10;" d="
					M470.12,1149.17l-33.71-5.63c-1.92-0.32-3.73,0.98-4.05,2.89c-0.32,1.92,0.98,3.73,2.89,4.05l33.71,5.63
					c1.92,0.32,3.73-0.98,4.05-2.89C473.33,1151.3,472.03,1149.49,470.12,1149.17z"></path>
			</g>
			
				<line style="fill:#FFFFFF;stroke:#000000;stroke-linecap:round;stroke-linejoin:round;stroke-miterlimit:10;" x1="412.4" y1="1129.86" x2="437.84" y2="1150.12"></line>
			<path style="fill:#FFFFFF;stroke:#000000;stroke-linecap:round;stroke-linejoin:round;stroke-miterlimit:10;" d="M432.88,1132.5
				l-4.15,7.34c-2,3.49-0.8,7.94,2.69,9.94l3.99,2.29c5.25,3.02,11.95,1.2,14.97-4.05l2.93-5.1c1.57-2.73,1.88-5.85,1.12-8.67"></path>
			<g>
				<g>
					<path style="fill:#FFFFFF;stroke:#000000;stroke-linecap:round;stroke-linejoin:round;stroke-miterlimit:10;" d="
						M450.25,1158.7l-2.06-4.26l-7.9-7.9c-2.49-2.49-1.78-6.69,1.39-8.22l11.12-5.39c3.17-1.53,6.9,0.51,7.31,4l1.31,11.1l2.06,4.26
						c1.02,2.1,0.14,4.63-1.96,5.65l-5.62,2.72C453.79,1161.68,451.27,1160.8,450.25,1158.7z"></path>
					<g>
						<path style="fill:#FFFFFF;stroke:#000000;stroke-linecap:round;stroke-linejoin:round;stroke-miterlimit:10;" d="
							M451.21,1136.01l10.61,6.33c1.03,0.62,2.36-0.03,2.52-1.22l0.77-5.89c0.36-2.73-2.46-4.76-4.94-3.56L451.21,1136.01z"></path>
						<path style="fill:#FFFFFF;stroke:#000000;stroke-linecap:round;stroke-linejoin:round;stroke-miterlimit:10;" d="
							M435.82,1149.42l5.11,3.04c1.03,0.62,2.36-0.03,2.52-1.22l1.61-12.25l-8.97,4.35
							C433.61,1144.54,433.46,1148.01,435.82,1149.42z"></path>
					</g>
					<path style="fill:none;stroke:#000000;stroke-linecap:round;stroke-linejoin:round;stroke-miterlimit:10;" d="M457.57,1159.85
						l-2.07-1.24c-1.2-0.71-1.12-2.47,0.13-3.08l2.02-0.98c1.25-0.61,2.68,0.42,2.5,1.8l-0.31,2.39L457.57,1159.85z"></path>
					<path style="fill:#FFFFFF;stroke:#000000;stroke-linecap:round;stroke-linejoin:round;stroke-miterlimit:10;" d="
						M453.49,1145.2c-0.22,0.71,0.18,1.46,0.89,1.68s1.46-0.18,1.68-0.89"></path>
					<path style="fill:#FFFFFF;stroke:#000000;stroke-linecap:round;stroke-linejoin:round;stroke-miterlimit:10;" d="
						M449.68,1149.4c0.73,0.12,1.43-0.38,1.55-1.11c0.12-0.73-0.38-1.43-1.11-1.55"></path>
					<g>
						<g>
							<path style="fill:none;stroke:#000000;stroke-linecap:round;stroke-linejoin:round;stroke-miterlimit:10;" d="
								M459.68,1147.09c-1.09-0.12-2.52,1.17-2.67,2.11"></path>
						</g>
					</g>
					<g>
						<g>
							<path style="fill:none;stroke:#000000;stroke-linecap:round;stroke-linejoin:round;stroke-miterlimit:10;" d="
								M448.43,1152.54c0.58-0.93,2.48-1.26,3.31-0.79"></path>
						</g>
					</g>
				</g>
				
					<line style="fill:#FFFFFF;stroke:#000000;stroke-linecap:round;stroke-linejoin:round;stroke-miterlimit:10;" x1="458.7" y1="1159.3" x2="458.01" y2="1157.88"></line>
			</g>
		</g>
		
			<rect x="441.38" y="1128.17" transform="matrix(0.4116 0.9114 -0.9114 0.4116 1295.5747 261.6237)" style="fill:#FFFFFF;" width="7.6" height="11.94"></rect>
	</g>
</g>
<g id="floor">
	<rect x="477.36" y="335.51" style="fill-rule:evenodd;clip-rule:evenodd;" width="1422.04" height="48.51"></rect>
	<rect x="140.61" y="336.48" style="fill-rule:evenodd;clip-rule:evenodd;" width="133.55" height="44.63"></rect>
	<rect x="472.1" y="336.48" style="fill-rule:evenodd;clip-rule:evenodd;" width="6.46" height="44.63"></rect>
	<rect x="99.91" y="336.48" style="fill-rule:evenodd;clip-rule:evenodd;" width="48.51" height="1478.72"></rect>
	<rect x="146.36" y="1723.99" style="fill-rule:evenodd;clip-rule:evenodd;" width="152.9" height="91.21"></rect>
	<rect x="656.94" y="1723.99" style="fill-rule:evenodd;clip-rule:evenodd;" width="145.84" height="91.21"></rect>
	<rect x="986.83" y="1723.99" style="fill-rule:evenodd;clip-rule:evenodd;" width="342.48" height="91.21"></rect>
	<rect x="1032.06" y="1626.91" style="fill-rule:evenodd;clip-rule:evenodd;" width="122.56" height="99.83"></rect>
	<rect x="1152.14" y="1214.59" style="fill-rule:evenodd;clip-rule:evenodd;" width="16.06" height="512.2"></rect>
	<rect x="1152.68" y="1014.76" style="fill-rule:evenodd;clip-rule:evenodd;" width="15.52" height="25.18"></rect>
	
		<rect x="1420.43" y="722.7" transform="matrix(-1.836970e-16 1 -1 -1.836970e-16 2436.1067 -420.2702)" style="fill-rule:evenodd;clip-rule:evenodd;" width="15.52" height="570.43"></rect>
	<rect x="1711.28" y="947.75" style="fill-rule:evenodd;clip-rule:evenodd;" width="105.21" height="187.24"></rect>
	<rect x="1808.19" y="795.43" style="fill-rule:evenodd;clip-rule:evenodd;" width="91.21" height="339.78"></rect>
	<rect x="1808.19" y="382.07" style="fill-rule:evenodd;clip-rule:evenodd;" width="91.21" height="54.7"></rect>
	<rect x="1509.93" y="1723.97" style="fill-rule:evenodd;clip-rule:evenodd;" width="272.15" height="91.26"></rect>
	<rect x="1669.52" y="1319.04" style="fill-rule:evenodd;clip-rule:evenodd;" width="112.55" height="496.19"></rect>
	<rect x="145.23" y="936.99" style="fill-rule:evenodd;clip-rule:evenodd;" width="109.41" height="11.55"></rect>
	<rect x="145.23" y="869.46" style="fill-rule:evenodd;clip-rule:evenodd;" width="109.41" height="11.55"></rect>
	<rect x="489.58" y="448.64" style="fill-rule:evenodd;clip-rule:evenodd;" width="161.5" height="12.13"></rect>
	<rect x="770.58" y="448.64" style="fill-rule:evenodd;clip-rule:evenodd;" width="152.53" height="12.13"></rect>
	<rect x="252.35" y="869.46" style="fill-rule:evenodd;clip-rule:evenodd;" width="11.55" height="79.08"></rect>
	<rect x="476.95" y="381.11" style="fill-rule:evenodd;clip-rule:evenodd;" width="17.37" height="196.1"></rect>
	<rect x="476.95" y="732.45" style="fill-rule:evenodd;clip-rule:evenodd;" width="17.37" height="165.73"></rect>
	
		<rect x="607.41" y="767.66" transform="matrix(-1.836970e-16 1 -1 -1.836970e-16 1522.3291 290.7139)" style="fill-rule:evenodd;clip-rule:evenodd;" width="16.79" height="277.71"></rect>
	<rect x="488.68" y="382.38" style="fill-rule:evenodd;clip-rule:evenodd;" width="172.54" height="16.2"></rect>
	<rect x="650.3" y="396.71" style="fill-rule:evenodd;clip-rule:evenodd;" width="12.13" height="64.06"></rect>
	<rect x="910.98" y="382.38" style="fill-rule:evenodd;clip-rule:evenodd;" width="12.13" height="68.11"></rect>
	<rect x="660" y="382.99" style="fill-rule:evenodd;clip-rule:evenodd;" width="69.14" height="19.56"></rect>
	<rect x="766.43" y="382.99" style="fill-rule:evenodd;clip-rule:evenodd;" width="145.94" height="15.58"></rect>
	<rect x="727.59" y="382.38" style="fill-rule:evenodd;clip-rule:evenodd;" width="44.54" height="359.39"></rect>
	<rect x="920.68" y="382.08" style="fill-rule:evenodd;clip-rule:evenodd;" width="283.13" height="30.18"></rect>
	<rect x="1186.44" y="410.43" style="fill-rule:evenodd;clip-rule:evenodd;" width="17.37" height="332.56"></rect>
	<rect x="1007.91" y="740.22" style="fill-rule:evenodd;clip-rule:evenodd;" width="195.9" height="17.37"></rect>
	<rect x="476.95" y="912.93" style="fill-rule:evenodd;clip-rule:evenodd;" width="15.52" height="36"></rect>
	<rect x="739.14" y="913.85" style="fill-rule:evenodd;clip-rule:evenodd;" width="15.52" height="87.83"></rect>
	
		<rect x="845.97" y="893.33" transform="matrix(-1.836970e-16 1 -1 -1.836970e-16 1861.6493 154.1873)" style="fill-rule:evenodd;clip-rule:evenodd;" width="15.52" height="229.18"></rect>
	<rect x="727.59" y="755.74" style="fill-rule:evenodd;clip-rule:evenodd;" width="27.17" height="143.21"></rect>
	<rect x="727.59" y="740.22" style="fill-rule:evenodd;clip-rule:evenodd;" width="125.07" height="17.37"></rect>
	
		<line style="fill:none;stroke:#000000;stroke-linecap:round;stroke-linejoin:round;stroke-miterlimit:10;stroke-dasharray:10,10;" x1="1203.94" y1="1004.5" x2="1203.81" y2="742.98"></line>
	
		<line style="fill:none;stroke:#000000;stroke-linecap:round;stroke-linejoin:round;stroke-miterlimit:10;stroke-dasharray:10,10;" x1="483.95" y1="941.86" x2="254.19" y2="941.86"></line>
	<g>
		<path style="fill:none;stroke:#000000;stroke-linecap:round;stroke-linejoin:round;stroke-miterlimit:10;" d="M284.47,363.05
			c0-98.02,79.29-178.25,177.3-178.25v176.79"></path>
		
			<rect x="461.77" y="361.59" transform="matrix(-1 4.452382e-11 -4.452382e-11 -1 934.1101 742.6487)" style="fill:none;stroke:#000000;stroke-linecap:round;stroke-linejoin:round;stroke-miterlimit:10;" width="10.56" height="19.47"></rect>
		
			<rect x="273.91" y="361.59" transform="matrix(-1 4.572952e-11 -4.572952e-11 -1 558.3829 742.6487)" style="fill:none;stroke:#000000;stroke-linecap:round;stroke-linejoin:round;stroke-miterlimit:10;" width="10.56" height="19.47"></rect>
	</g>
	<g>
		<path style="fill:none;stroke:#000000;stroke-linecap:round;stroke-linejoin:round;stroke-miterlimit:10;" d="M1166.29,1205.29
			c86.27,0,159.14-69.79,159.14-156.06h-159.14"></path>
		
			<rect x="1154.83" y="1037.78" transform="matrix(-1.836970e-16 1 -1 -1.836970e-16 2204.0681 -114.897)" style="fill:none;stroke:#000000;stroke-linecap:round;stroke-linejoin:round;stroke-miterlimit:10;" width="9.3" height="13.61"></rect>
		
			<rect x="1154.83" y="1203.14" transform="matrix(-1.836970e-16 1 -1 -1.836970e-16 2369.425 50.4599)" style="fill:none;stroke:#000000;stroke-linecap:round;stroke-linejoin:round;stroke-miterlimit:10;" width="9.3" height="13.61"></rect>
	</g>
	<g>
		<path style="fill:none;stroke:#000000;stroke-linecap:round;stroke-linejoin:round;stroke-miterlimit:10;" d="M1133.68,1002.07
			c0-86.27-69.79-159.14-156.06-159.14v159.14"></path>
		
			<rect x="968.32" y="1002.07" style="fill:none;stroke:#000000;stroke-linecap:round;stroke-linejoin:round;stroke-miterlimit:10;" width="9.3" height="13.61"></rect>
		
			<rect x="1133.68" y="1002.07" style="fill:none;stroke:#000000;stroke-linecap:round;stroke-linejoin:round;stroke-miterlimit:10;" width="9.3" height="13.61"></rect>
	</g>
	<g>
		<path style="fill:none;stroke:#000000;stroke-linecap:round;stroke-linejoin:round;stroke-miterlimit:10;" d="M482.63,724.19
			c-76.69,0-141.45-62.03-141.45-138.72h141.45"></path>
		
			<rect x="484.54" y="575.29" transform="matrix(-3.764474e-11 1 -1 -3.764474e-11 1070.0126 92.6633)" style="fill:none;stroke:#000000;stroke-linecap:round;stroke-linejoin:round;stroke-miterlimit:10;" width="8.26" height="12.1"></rect>
		
			<rect x="484.54" y="722.27" transform="matrix(-4.711094e-11 1 -1 -4.711094e-11 1216.9961 239.6468)" style="fill:none;stroke:#000000;stroke-linecap:round;stroke-linejoin:round;stroke-miterlimit:10;" width="8.26" height="12.1"></rect>
	</g>
	<g>
		<path style="fill:none;stroke:#000000;stroke-linecap:round;stroke-linejoin:round;stroke-miterlimit:10;" d="M999.65,752.31
			c0,76.69-62.03,141.45-138.72,141.45V752.31"></path>
		
			<rect x="852.66" y="740.22" style="fill:none;stroke:#000000;stroke-linecap:round;stroke-linejoin:round;stroke-miterlimit:10;" width="8.26" height="12.1"></rect>
		
			<rect x="999.65" y="740.22" style="fill:none;stroke:#000000;stroke-linecap:round;stroke-linejoin:round;stroke-miterlimit:10;" width="8.26" height="12.1"></rect>
	</g>
	<g>
		<g>
			<g id="LWPOLYLINE_216_">
				<path style="fill:none;stroke:#000000;stroke-linecap:round;stroke-linejoin:round;stroke-miterlimit:10;" d="M815.67,493.48
					v41.49c0,17.78,14.41,32.19,32.19,32.19c17.78,0,32.19-14.41,32.19-32.19v-41.49c0-4.44-3.6-8.05-8.05-8.05l-48.29,0
					C819.27,485.44,815.67,489.04,815.67,493.48z"></path>
			</g>
			<g id="LWPOLYLINE_215_">
				<path style="fill:none;stroke:#000000;stroke-linecap:round;stroke-linejoin:round;stroke-miterlimit:10;" d="M873.61,534.97
					V516c0-14.22-11.53-25.75-25.75-25.75c-14.22,0-25.75,11.53-25.76,25.75v18.98c0,14.22,11.53,25.75,25.75,25.75
					C862.08,560.72,873.61,549.2,873.61,534.97z"></path>
			</g>
			<g id="LWPOLYLINE_214_">
				<path style="fill:none;stroke:#000000;stroke-linecap:round;stroke-linejoin:round;stroke-miterlimit:10;" d="M857.52,524.61
					v-11.29c0-5.33-4.32-9.66-9.66-9.66c-5.33,0-9.66,4.32-9.66,9.66l0,11.29c0,5.33,4.32,9.65,9.66,9.66
					C853.19,534.27,857.52,529.95,857.52,524.61z"></path>
			</g>
			<g id="LWPOLYLINE_213_">
				<polyline style="fill:none;stroke:#000000;stroke-linecap:round;stroke-linejoin:round;stroke-miterlimit:10;" points="
					823.71,485.43 796.54,485.43 796.54,460.71 899.17,460.71 899.17,485.43 872,485.43 				"></polyline>
			</g>
		</g>
		<g>
			<g id="LWPOLYLINE_212_">
				<path style="fill:none;stroke:#000000;stroke-linecap:round;stroke-linejoin:round;stroke-miterlimit:10;" d="M929.4,411.75
					l0,56.48c0,7.96,5.13,15,12.71,17.44c27.48,8.85,57.05,8.85,84.54,0c7.57-2.44,12.71-9.49,12.71-17.44v-56.48"></path>
			</g>
			<g id="LWPOLYLINE_211_">
				<path style="fill:none;stroke:#000000;stroke-linecap:round;stroke-linejoin:round;stroke-miterlimit:10;" d="M1013.69,427.56
					c6.07,0,10.99,4.92,10.99,11v17.6c0,4.03-2.63,7.58-6.48,8.76c-22.05,6.75-45.62,6.75-67.67,0c-3.85-1.18-6.48-4.73-6.48-8.76
					v-17.6c0-6.07,4.92-11,11-11"></path>
			</g>
			<g id="LWPOLYLINE_210_">
				<path style="fill:none;stroke:#000000;stroke-linecap:round;stroke-linejoin:round;stroke-miterlimit:10;" d="M936.73,438.55
					l0,29.68c0,4.77,3.08,9,7.62,10.47c26.02,8.38,54.02,8.38,80.04,0c4.54-1.47,7.62-5.69,7.62-10.46v-29.68
					c0-6.07-4.92-11-10.99-11l-73.31,0C941.65,427.56,936.73,432.48,936.73,438.55z"></path>
			</g>
			<g id="LWPOLYLINE_209_">
				<path style="fill:none;stroke:#000000;stroke-linecap:round;stroke-linejoin:round;stroke-miterlimit:10;" d="M984.37,430.83
					c-2.72,0-4.93,2.21-4.94,4.93c0,2.72,2.21,4.93,4.94,4.93c2.72,0,4.93-2.21,4.93-4.93C989.3,433.04,987.1,430.83,984.37,430.83z
					"></path>
			</g>
		</g>
		<g>
			<g id="LWPOLYLINE_208_">
				
					<rect x="1049.45" y="411.92" style="fill:none;stroke:#000000;stroke-linecap:round;stroke-linejoin:round;stroke-miterlimit:10;" width="136.99" height="328.29"></rect>
			</g>
			<g id="LWPOLYLINE_207_">
				<path style="fill:none;stroke:#000000;stroke-linecap:round;stroke-linejoin:round;stroke-miterlimit:10;" d="M1175.48,694.04
					V481.23c0-31.77-25.76-57.53-57.53-57.53c-31.78,0-57.54,25.76-57.54,57.53v212.81c0,15.19,12.21,27.55,27.39,27.73h60.28
					c15.13,0,27.4-12.27,27.4-27.4"></path>
			</g>
			<g id="LWPOLYLINE_206_">
				<path style="fill:none;stroke:#000000;stroke-linecap:round;stroke-linejoin:round;stroke-miterlimit:10;" d="M1159.83,625.64
					V481.23c0-23.14-18.75-41.88-41.88-41.88c-23.13,0-41.88,18.75-41.88,41.88v142.25c0.02,22.28,17.47,40.66,39.72,41.82
					C1138.9,666.51,1158.62,648.75,1159.83,625.64z"></path>
			</g>
			<g id="LWPOLYLINE_205_">
				<path style="fill:none;stroke:#000000;stroke-linecap:round;stroke-linejoin:round;stroke-miterlimit:10;" d="M1117.95,473.56
					c-4.23,0-7.67,3.43-7.67,7.67c0,4.24,3.43,7.67,7.67,7.67c4.24,0,7.67-3.43,7.67-7.67
					C1125.61,477,1122.18,473.56,1117.95,473.56z"></path>
			</g>
		</g>
	</g>
	<g>
		<g id="LWPOLYLINE_201_">
			
				<rect x="148.43" y="948.54" style="fill:none;stroke:#000000;stroke-linecap:round;stroke-linejoin:round;stroke-miterlimit:10;" width="115.47" height="115.47"></rect>
		</g>
		<g id="LWPOLYLINE_200_">
			<path style="fill:none;stroke:#000000;stroke-linecap:round;stroke-linejoin:round;stroke-miterlimit:10;" d="M247.54,1054.38
				l-73.08,0c-3.72,0-6.74-3.01-6.74-6.73c0,0,0-82.76,0-82.76c0-3.72,3.01-6.74,6.74-6.74c0,0,73.09,0,73.09,0
				c3.72,0,6.73,3.01,6.73,6.73c0,0,0,82.76,0,82.76C254.27,1051.37,251.26,1054.38,247.54,1054.38z"></path>
		</g>
		<g id="LWPOLYLINE_199_">
			<path style="fill:none;stroke:#000000;stroke-linecap:round;stroke-linejoin:round;stroke-miterlimit:10;" d="M193.18,1025.52
				c0,3.73-3.02,6.75-6.75,6.75c-3.73,0-6.75-3.02-6.75-6.75c0-3.73,3.02-6.75,6.75-6.75
				C190.16,1018.76,193.18,1021.79,193.18,1025.52z"></path>
		</g>
	</g>
	<g>
		<g id="LWPOLYLINE_198_">
			
				<rect x="148.43" y="1376.34" style="fill:none;stroke:#000000;stroke-linecap:round;stroke-linejoin:round;stroke-miterlimit:10;" width="115.47" height="115.47"></rect>
		</g>
		<g id="LWPOLYLINE_197_">
			
				<line style="fill:none;stroke:#000000;stroke-linecap:round;stroke-linejoin:round;stroke-miterlimit:10;" x1="196.54" y1="1462.93" x2="158.05" y2="1462.93"></line>
		</g>
		<g id="LWPOLYLINE_196_">
			
				<line style="fill:none;stroke:#000000;stroke-linecap:round;stroke-linejoin:round;stroke-miterlimit:10;" x1="177.29" y1="1443.69" x2="177.29" y2="1482.18"></line>
		</g>
		<g id="CIRCLE_199_">
			<path style="fill:none;stroke:#000000;stroke-linecap:round;stroke-linejoin:round;stroke-miterlimit:10;" d="M177.3,1478.33
				c-8.5,0-15.4-6.89-15.4-15.4s6.89-15.4,15.4-15.4s15.4,6.89,15.4,15.4S185.8,1478.33,177.3,1478.33L177.3,1478.33z"></path>
		</g>
		<g id="LWPOLYLINE_195_">
			
				<line style="fill:none;stroke:#000000;stroke-linecap:round;stroke-linejoin:round;stroke-miterlimit:10;" x1="254.28" y1="1462.93" x2="215.78" y2="1462.93"></line>
		</g>
		<g id="LWPOLYLINE_194_">
			
				<line style="fill:none;stroke:#000000;stroke-linecap:round;stroke-linejoin:round;stroke-miterlimit:10;" x1="235.03" y1="1443.69" x2="235.03" y2="1482.18"></line>
		</g>
		<g id="CIRCLE_198_">
			<path style="fill:none;stroke:#000000;stroke-linecap:round;stroke-linejoin:round;stroke-miterlimit:10;" d="M235.03,1478.33
				c-8.51,0-15.4-6.9-15.4-15.4c0-8.51,6.9-15.4,15.4-15.4c8.51,0,15.4,6.9,15.4,15.4C250.44,1471.43,243.54,1478.33,235.03,1478.33
				L235.03,1478.33z"></path>
		</g>
		<g id="LWPOLYLINE_193_">
			
				<line style="fill:none;stroke:#000000;stroke-linecap:round;stroke-linejoin:round;stroke-miterlimit:10;" x1="254.28" y1="1405.2" x2="215.78" y2="1405.2"></line>
		</g>
		<g id="LWPOLYLINE_192_">
			
				<line style="fill:none;stroke:#000000;stroke-linecap:round;stroke-linejoin:round;stroke-miterlimit:10;" x1="235.03" y1="1385.95" x2="235.03" y2="1424.45"></line>
		</g>
		<g id="CIRCLE_197_">
			<path style="fill:none;stroke:#000000;stroke-linecap:round;stroke-linejoin:round;stroke-miterlimit:10;" d="M235.03,1420.59
				c-8.51,0-15.4-6.9-15.4-15.4c0-8.51,6.9-15.4,15.4-15.4c8.51,0,15.4,6.9,15.4,15.4C250.44,1413.7,243.54,1420.59,235.03,1420.59
				L235.03,1420.59z"></path>
		</g>
		<g id="LWPOLYLINE_191_">
			
				<line style="fill:none;stroke:#000000;stroke-linecap:round;stroke-linejoin:round;stroke-miterlimit:10;" x1="196.54" y1="1405.2" x2="158.05" y2="1405.2"></line>
		</g>
		<g id="LWPOLYLINE_190_">
			
				<line style="fill:none;stroke:#000000;stroke-linecap:round;stroke-linejoin:round;stroke-miterlimit:10;" x1="177.29" y1="1385.95" x2="177.29" y2="1424.45"></line>
		</g>
		<g id="CIRCLE_196_">
			<path style="fill:none;stroke:#000000;stroke-linecap:round;stroke-linejoin:round;stroke-miterlimit:10;" d="M177.3,1420.59
				c-8.5,0-15.4-6.89-15.4-15.4s6.89-15.4,15.4-15.4s15.4,6.89,15.4,15.4S185.8,1420.59,177.3,1420.59L177.3,1420.59z"></path>
		</g>
	</g>
	<g>
		<g>
			<g id="LWPOLYLINE_189_">
				<path style="fill:none;stroke:#000000;stroke-linecap:round;stroke-linejoin:round;stroke-miterlimit:10;" d="M539.05,493.43
					v41.6c0,17.83,14.45,32.28,32.28,32.28c17.83,0,32.28-14.45,32.28-32.28v-41.6c0-4.46-3.61-8.07-8.07-8.07h-48.42
					C542.66,485.36,539.05,488.97,539.05,493.43z"></path>
			</g>
			<g id="LWPOLYLINE_188_">
				<path style="fill:none;stroke:#000000;stroke-linecap:round;stroke-linejoin:round;stroke-miterlimit:10;" d="M597.15,535.03
					V516c0-14.26-11.56-25.82-25.82-25.82c-14.26,0-25.82,11.56-25.83,25.82v19.03c0,14.26,11.56,25.82,25.82,25.82
					C585.59,560.85,597.15,549.29,597.15,535.03z"></path>
			</g>
			<g id="LWPOLYLINE_187_">
				<path style="fill:none;stroke:#000000;stroke-linecap:round;stroke-linejoin:round;stroke-miterlimit:10;" d="M581.01,524.64
					l0-11.32c0-5.35-4.34-9.68-9.68-9.68c-5.35,0-9.68,4.33-9.68,9.68l0,11.32c0,5.35,4.33,9.68,9.68,9.68
					C576.68,534.32,581.01,529.99,581.01,524.64z"></path>
			</g>
			<g id="LWPOLYLINE_186_">
				<polyline style="fill:none;stroke:#000000;stroke-linecap:round;stroke-linejoin:round;stroke-miterlimit:10;" points="
					547.12,485.36 519.87,485.36 519.87,460.57 622.79,460.57 622.79,485.36 595.54,485.36 				"></polyline>
			</g>
		</g>
		<g>
			<g id="LWPOLYLINE_185_">
				<path style="fill:none;stroke:#000000;stroke-linecap:round;stroke-linejoin:round;stroke-miterlimit:10;" d="M729.36,627.25
					l-52.26,0c-7.36,0-13.88,4.75-16.14,11.76c-8.19,25.43-8.19,52.79,0,78.22c2.26,7.01,8.78,11.76,16.14,11.76h52.26"></path>
			</g>
			<g id="LWPOLYLINE_184_">
				<path style="fill:none;stroke:#000000;stroke-linecap:round;stroke-linejoin:round;stroke-miterlimit:10;" d="M714.74,705.25
					c0,5.62-4.56,10.17-10.17,10.17h-16.28c-3.73,0-7.02-2.43-8.1-6c-6.25-20.41-6.25-42.21,0-62.62c1.09-3.56,4.38-5.99,8.1-6
					h16.28c5.62,0,10.18,4.56,10.18,10.18"></path>
			</g>
			<g id="LWPOLYLINE_183_">
				<path style="fill:none;stroke:#000000;stroke-linecap:round;stroke-linejoin:round;stroke-miterlimit:10;" d="M704.56,634.03
					l-27.46,0c-4.42,0-8.33,2.85-9.69,7.05c-7.76,24.08-7.76,49.99,0,74.07c1.36,4.2,5.27,7.05,9.68,7.05h27.46
					c5.62,0,10.17-4.55,10.18-10.17l0-67.83C714.74,638.58,710.18,634.03,704.56,634.03z"></path>
			</g>
			<g id="LWPOLYLINE_182_">
				<path style="fill:none;stroke:#000000;stroke-linecap:round;stroke-linejoin:round;stroke-miterlimit:10;" d="M711.71,678.12
					c0-2.52-2.04-4.57-4.56-4.57c-2.52,0-4.56,2.05-4.56,4.57c0,2.52,2.04,4.56,4.56,4.56
					C709.67,682.68,711.71,680.64,711.71,678.12z"></path>
			</g>
		</g>
		<g>
			<g>
				<g id="CIRCLE_195_">
					<path style="fill:none;stroke:#000000;stroke-linecap:round;stroke-linejoin:round;stroke-miterlimit:10;" d="M698.5,876.14
						c-4.29,0-7.76-3.48-7.76-7.76c0-4.29,3.48-7.76,7.76-7.76c4.29,0,7.76,3.48,7.76,7.76
						C706.27,872.67,702.79,876.14,698.5,876.14L698.5,876.14z"></path>
				</g>
				<g id="LWPOLYLINE_181_">
					<path style="fill:none;stroke:#000000;stroke-linecap:round;stroke-linejoin:round;stroke-miterlimit:10;" d="M542.26,747.95
						c-21.42,0-38.79,17.37-38.79,38.79c0,0,0,86.49,0,86.49c0,8.03,6.51,14.55,14.55,14.55h185.33c8.03,0,14.55-6.51,14.55-14.55
						V762.5c0-8.03-6.51-14.54-14.55-14.55H542.26z"></path>
				</g>
				<g id="LWPOLYLINE_180_">
					<path style="fill:none;stroke:#000000;stroke-linecap:round;stroke-linejoin:round;stroke-miterlimit:10;" d="M727.59,738.26
						l-185.33,0c-26.78,0-48.48,21.71-48.48,48.49c0,0,0,110.73,0,110.73l233.82,0L727.59,738.26H542.27
						c-26.78,0-48.49,21.71-48.49,48.49c0,0,0,110.73,0,110.73"></path>
				</g>
			</g>
		</g>
	</g>
	<g>
		<g id="LWPOLYLINE_204_">
			
				<rect x="148.28" y="753.8" style="fill:none;stroke:#000000;stroke-linecap:round;stroke-linejoin:round;stroke-miterlimit:10;" width="115.76" height="115.66"></rect>
		</g>
		<g id="LWPOLYLINE_203_">
			<polyline style="fill:none;stroke:#000000;stroke-linecap:round;stroke-linejoin:round;stroke-miterlimit:10;" points="
				243.1,842.25 206.16,799.39 206.16,828.49 169.22,785.62 			"></polyline>
		</g>
		<g id="LWPOLYLINE_202_">
			<path style="fill:none;stroke:#000000;stroke-linecap:round;stroke-linejoin:round;stroke-miterlimit:10;" d="M206.15,846.27
				c-17.86,0-32.33-14.48-32.33-32.33c0-17.86,14.47-32.33,32.33-32.34c17.86,0,32.34,14.48,32.34,32.34
				C238.49,831.8,224.01,846.27,206.15,846.27z"></path>
		</g>
	</g>
	<g>
		<g id="LINE_3475_">
			
				<line style="fill:none;stroke:#000000;stroke-linecap:round;stroke-linejoin:round;stroke-miterlimit:10;" x1="1861.88" y1="795.43" x2="1861.88" y2="436.57"></line>
		</g>
		<g id="LINE_3474_">
			
				<line style="fill:none;stroke:#000000;stroke-linecap:round;stroke-linejoin:round;stroke-miterlimit:10;" x1="1845.38" y1="795.43" x2="1845.38" y2="436.57"></line>
		</g>
		
			<rect x="1846.74" y="780.5" transform="matrix(-1.836970e-16 1 -1 -1.836970e-16 2642.3755 -1064.885)" style="fill:none;stroke:#000000;stroke-linecap:round;stroke-linejoin:round;stroke-miterlimit:10;" width="13.78" height="16.5"></rect>
		
			<rect x="1846.84" y="607.72" transform="matrix(-1.836970e-16 1 -1 -1.836970e-16 2469.6001 -1237.6604)" style="fill:none;stroke:#000000;stroke-linecap:round;stroke-linejoin:round;stroke-miterlimit:10;" width="13.58" height="16.5"></rect>
		
			<rect x="1847.01" y="435.19" transform="matrix(-1.836970e-16 1 -1 -1.836970e-16 2297.071 -1410.1895)" style="fill:none;stroke:#000000;stroke-linecap:round;stroke-linejoin:round;stroke-miterlimit:10;" width="13.25" height="16.5"></rect>
		
			<line style="fill:none;stroke:#000000;stroke-linecap:round;stroke-linejoin:round;stroke-miterlimit:10;" x1="1851.27" y1="609.18" x2="1851.27" y2="450.07"></line>
		
			<line style="fill:none;stroke:#000000;stroke-linecap:round;stroke-linejoin:round;stroke-miterlimit:10;" x1="1851.27" y1="781.86" x2="1851.27" y2="622.76"></line>
		
			<rect x="1674.76" y="570.81" transform="matrix(6.123234e-17 -1 1 6.123234e-17 1237.8933 2470.7244)" style="fill:none;stroke:#000000;stroke-linecap:round;stroke-linejoin:round;stroke-miterlimit:10;" width="359.1" height="91.21"></rect>
	</g>
	<g>
		<g id="LINE_3471_">
			
				<line style="fill:none;stroke:#000000;stroke-linecap:round;stroke-linejoin:round;stroke-miterlimit:10;" x1="299.27" y1="1777.17" x2="658.13" y2="1777.17"></line>
		</g>
		<g id="LINE_3470_">
			
				<line style="fill:none;stroke:#000000;stroke-linecap:round;stroke-linejoin:round;stroke-miterlimit:10;" x1="299.27" y1="1760.67" x2="658.13" y2="1760.67"></line>
		</g>
		
			<rect x="299.07" y="1760.67" transform="matrix(-1 -1.224647e-16 1.224647e-16 -1 611.9097 3537.835)" style="fill:none;stroke:#000000;stroke-linecap:round;stroke-linejoin:round;stroke-miterlimit:10;" width="13.78" height="16.5"></rect>
		
			<rect x="471.94" y="1760.67" transform="matrix(-1 -1.224647e-16 1.224647e-16 -1 957.4606 3537.835)" style="fill:none;stroke:#000000;stroke-linecap:round;stroke-linejoin:round;stroke-miterlimit:10;" width="13.58" height="16.5"></rect>
		
			<rect x="644.63" y="1760.67" transform="matrix(-1 -1.224647e-16 1.224647e-16 -1 1302.5187 3537.835)" style="fill:none;stroke:#000000;stroke-linecap:round;stroke-linejoin:round;stroke-miterlimit:10;" width="13.25" height="16.5"></rect>
		
			<line style="fill:none;stroke:#000000;stroke-linecap:round;stroke-linejoin:round;stroke-miterlimit:10;" x1="485.52" y1="1766.56" x2="644.63" y2="1766.56"></line>
		
			<line style="fill:none;stroke:#000000;stroke-linecap:round;stroke-linejoin:round;stroke-miterlimit:10;" x1="312.84" y1="1766.56" x2="471.94" y2="1766.56"></line>
		
			<rect x="298.73" y="1723.99" style="fill:none;stroke:#000000;stroke-linecap:round;stroke-linejoin:round;stroke-miterlimit:10;" width="359.1" height="91.21"></rect>
	</g>
	<g>
		<g id="LINE_3467_">
			
				<line style="fill:none;stroke:#000000;stroke-linecap:round;stroke-linejoin:round;stroke-miterlimit:10;" x1="986.58" y1="1777.12" x2="802.49" y2="1777.12"></line>
		</g>
		<g id="LINE_3466_">
			
				<line style="fill:none;stroke:#000000;stroke-linecap:round;stroke-linejoin:round;stroke-miterlimit:10;" x1="986.58" y1="1760.62" x2="802.49" y2="1760.62"></line>
		</g>
		
			<rect x="973.04" y="1760.62" style="fill:none;stroke:#000000;stroke-linecap:round;stroke-linejoin:round;stroke-miterlimit:10;" width="13.78" height="16.5"></rect>
		
			<rect x="802.78" y="1760.62" style="fill:none;stroke:#000000;stroke-linecap:round;stroke-linejoin:round;stroke-miterlimit:10;" width="13.25" height="16.5"></rect>
		
			<line style="fill:none;stroke:#000000;stroke-linecap:round;stroke-linejoin:round;stroke-miterlimit:10;" x1="973.04" y1="1766.51" x2="816.03" y2="1766.51"></line>
		
			<rect x="802.49" y="1723.99" transform="matrix(-1 -1.224647e-16 1.224647e-16 -1 1789.3142 3539.1809)" style="fill:none;stroke:#000000;stroke-linecap:round;stroke-linejoin:round;stroke-miterlimit:10;" width="184.33" height="91.21"></rect>
	</g>
	<g>
		<g id="LINE_9614_">
			
				<line style="fill:none;stroke:#000000;stroke-linecap:round;stroke-linejoin:round;stroke-miterlimit:10;" x1="1511.88" y1="1777.12" x2="1327.79" y2="1777.12"></line>
		</g>
		<g id="LINE_9613_">
			
				<line style="fill:none;stroke:#000000;stroke-linecap:round;stroke-linejoin:round;stroke-miterlimit:10;" x1="1511.88" y1="1760.62" x2="1327.79" y2="1760.62"></line>
		</g>
		
			<rect x="1498.35" y="1760.62" style="fill:none;stroke:#000000;stroke-linecap:round;stroke-linejoin:round;stroke-miterlimit:10;" width="13.78" height="16.5"></rect>
		
			<rect x="1328.08" y="1760.62" style="fill:none;stroke:#000000;stroke-linecap:round;stroke-linejoin:round;stroke-miterlimit:10;" width="13.25" height="16.5"></rect>
		
			<line style="fill:none;stroke:#000000;stroke-linecap:round;stroke-linejoin:round;stroke-miterlimit:10;" x1="1498.35" y1="1766.51" x2="1341.33" y2="1766.51"></line>
		
			<rect x="1327.79" y="1723.99" transform="matrix(-1 -1.224647e-16 1.224647e-16 -1 2839.9163 3539.1809)" style="fill:none;stroke:#000000;stroke-linecap:round;stroke-linejoin:round;stroke-miterlimit:10;" width="184.33" height="91.21"></rect>
	</g>
	<rect x="1669.07" y="1006.18" style="fill-rule:evenodd;clip-rule:evenodd;" width="112.43" height="129.04"></rect>
	<g>
		<g id="LINE_3473_">
			
				<line style="fill:none;stroke:#000000;stroke-linecap:round;stroke-linejoin:round;stroke-miterlimit:10;" x1="1740.86" y1="1318.8" x2="1740.86" y2="1134.71"></line>
		</g>
		<g id="LINE_3472_">
			
				<line style="fill:none;stroke:#000000;stroke-linecap:round;stroke-linejoin:round;stroke-miterlimit:10;" x1="1724.36" y1="1318.8" x2="1724.36" y2="1134.71"></line>
		</g>
		
			<rect x="1725.72" y="1303.9" transform="matrix(-1.836970e-16 1 -1 -1.836970e-16 3044.7632 -420.459)" style="fill:none;stroke:#000000;stroke-linecap:round;stroke-linejoin:round;stroke-miterlimit:10;" width="13.78" height="16.5"></rect>
		
			<rect x="1725.99" y="1133.37" transform="matrix(-1.836970e-16 1 -1 -1.836970e-16 2874.2322 -590.9898)" style="fill:none;stroke:#000000;stroke-linecap:round;stroke-linejoin:round;stroke-miterlimit:10;" width="13.25" height="16.5"></rect>
		
			<line style="fill:none;stroke:#000000;stroke-linecap:round;stroke-linejoin:round;stroke-miterlimit:10;" x1="1730.25" y1="1305.26" x2="1730.25" y2="1148.25"></line>
		<polyline style="fill:none;stroke:#000000;stroke-linecap:round;stroke-linejoin:round;stroke-miterlimit:10;" points="
			1669.04,1319.04 1782.07,1319.04 1782.07,1134.71 1669.04,1134.71 		"></polyline>
		<g>
			<path style="fill:none;stroke:#000000;stroke-linecap:round;stroke-linejoin:round;stroke-miterlimit:10;" d="M1725.66,1148.25
				c-86.8,0-160.11,70.22-160.11,157.02h160.11"></path>
		</g>
		
			<line style="fill:none;stroke:#000000;stroke-linecap:round;stroke-linejoin:round;stroke-miterlimit:10;" x1="1669.04" y1="1134.71" x2="1669.04" y2="1158.43"></line>
		
			<line style="fill:none;stroke:#000000;stroke-linecap:round;stroke-linejoin:round;stroke-miterlimit:10;" x1="1669.04" y1="1319.04" x2="1669.04" y2="1305.26"></line>
	</g>
	<polygon points="1899.89,1631.91 1899.89,1131.45 1891.02,1131.45 1891.02,1631.91 1778.48,1631.91 1778.48,1641.63 
		1891.02,1641.63 1899.89,1641.63 	"></polygon>
</g>
</svg>
