<?xml version="1.0" encoding="utf-8"?>
<!-- Generator: Adobe Illustrator 24.1.2, SVG Export Plug-In . SVG Version: 6.00 Build 0)  -->
<svg version="1.0" id="Layer_1" xmlns="http://www.w3.org/2000/svg" xmlns:xlink="http://www.w3.org/1999/xlink" x="0px" y="0px" width="2000px" height="2000px" viewBox="0 0 2000 2000" style="enable-background:new 0 0 2000 2000;" xml:space="preserve">
<path id="background" style="fill:#FFFFFF;" d="M1899.35,1310.47C1899.35,1310.47,1899.35,1310.47,1899.35,1310.47l0,251.72h-49.59
	h-47.82H918.86c0,0,0,0,0,0c0,0.36-0.29,0.65-0.65,0.65H777.26c-0.36,0-0.65-0.29-0.65-0.65c0,0,0,0,0,0h-7.16l-165.59,0l-162.05,0
	l0-16.23c0,0,0,0,0,0h-8.21l0,159.02c0,0.01,0,0.01,0,0.02c0,0.01,0,0.01,0,0.02c0,0.04-0.02,0.08-0.03,0.12
	c-0.01,0.04-0.01,0.07-0.03,0.11c-0.02,0.04-0.05,0.08-0.08,0.11c-0.02,0.03-0.04,0.06-0.06,0.09c-0.04,0.03-0.08,0.06-0.12,0.08
	c-0.03,0.02-0.05,0.04-0.08,0.05c-0.08,0.03-0.16,0.05-0.25,0.05c0,0,0,0,0,0h0h0c-0.01,0-0.02,0-0.04,0
	c-42.91-2.47-82.94-20.9-112.71-51.9c-28.16-29.32-44.7-67.37-47.02-107.77h-8.47l0,16.23l-79.7,0l-44.28,0l-40.73,0l0-47.82
	l0-1121.94l0-97.41l273.86,0c0-0.36,0.29-0.65,0.65-0.65l265.65,0c0.36,0,0.65,0.29,0.65,0.65c0,0,0,0,0,0l175.8,0c0,0,0,0,0,0
	c0-0.36,0.29-0.65,0.65-0.65h132.83c0.36,0,0.65,0.29,0.65,0.65l414.89,0c0-0.36,0.29-0.65,0.65-0.65l265.65,0
	c0.36,0,0.65,0.29,0.65,0.65l252.6,0h14.17l0,49.59l0,47.82l0,155.2c0.36,0,0.65,0.29,0.65,0.65l0,318.78
	c0,0.36-0.29,0.65-0.65,0.65l0,0l0,175.8c0.36,0,0.65,0.29,0.65,0.65l0,265.65C1900,1310.18,1899.71,1310.47,1899.35,1310.47z"></path>
<g id="h2">
	<path id="h2_path" style="fill:none;" d="M593.68,1531.26H137.43v-339.28h456.25V1531.26z"></path>
	<text id="h2_text" transform="matrix(1 0 0 1 363.3855 1417.9635)" style="font-family: GraphikLCG-Regular; font-size: 40px; text-anchor: middle; text-align: center;"></text>
</g>
<g id="h1">
	<path id="h1_path" style="fill:none;" d="M1231.84,1191.98H815.05V975.1h416.79V1191.98z"></path>
	<text id="h1_text" transform="matrix(1 0 0 1 1115.613 1095.7682)" style="font-family: GraphikLCG-Regular; font-size: 40px; text-anchor: middle; text-align: center;"></text>
</g>
<g id="c1">
	<path id="c1_path" style="fill:none;" d="M1004.57,295.03V975.1H815.05v216.88H137.43V972.7V295.03H1004.57z"></path>
	<text id="c1_text" transform="matrix(1 0 0 1 528.5336 1052.0723)" style="font-family: GraphikLCG-Regular; font-size: 40px; text-anchor: middle; text-align: center;"></text>
</g>
<g id="s2">
	<path id="s2_path" style="fill:none;" d="M1126.42,1531.26H804.91v-339.28h321.51V1531.26z"></path>
	<text id="s2_text" transform="matrix(1 0 0 1 933.6599 1298.5905)" style="font-family: GraphikLCG-Regular; font-size: 40px; text-anchor: middle; text-align: center;"></text>
</g>
<g id="s1">
	<path id="s1_path" style="fill:none;" d="M593.68,1191.98h211.23v339.28H593.68V1191.98z"></path>
	<text id="s1_text" transform="matrix(1 0 0 1 639.823 1298.5914)" style="font-family: GraphikLCG-Regular; font-size: 40px; text-anchor: middle; text-align: center;"></text>
</g>
<g id="r2">
	<path id="r2_path" style="fill:none;" d="M1899.28,975.1h-894.71V295.03h894.71V975.1z"></path>
	<text id="r2_text" transform="matrix(1 0 0 1 1237.1638 596.7786)" style="font-family: GraphikLCG-Regular; font-size: 40px; text-anchor: middle; text-align: center;"></text>
</g>
<g id="r1">
	<path id="r1_path" style="fill:none;" d="M1899.28,975.1v212.86v343.3h-772.87v-339.28h105.42V975.1H1899.28z"></path>
	<text id="r1_text" transform="matrix(1 0 0 1 1494.3811 1209.6783)" style="font-family: GraphikLCG-Regular; font-size: 40px; text-anchor: middle; text-align: center;"></text>
</g>
<path id="u7" style="fill:#FFFFFF;stroke:#FFFFFF;stroke-linecap:round;stroke-linejoin:round;stroke-miterlimit:10;" d="
	M376.86,520.02c-8.65,0-15.66-7.01-15.66-15.66c0-8.65,7.01-15.66,15.66-15.66c8.65,0,15.66,7.01,15.66,15.66
	C392.52,513.01,385.51,520.02,376.86,520.02z"></path>
<path id="u8" style="fill:#FFFFFF;stroke:#FFFFFF;stroke-linecap:round;stroke-linejoin:round;stroke-miterlimit:10;" d="
	M385.56,1306.97c-8.65,0-15.66-7.01-15.66-15.66s7.01-15.66,15.66-15.66c8.65,0,15.66,7.01,15.66,15.66
	S394.2,1306.97,385.56,1306.97z"></path>
<path id="u9" style="fill:#FFFFFF;stroke:#FFFFFF;stroke-linecap:round;stroke-linejoin:round;stroke-miterlimit:10;" d="
	M709.47,1333.06c-8.65,0-15.66-7.01-15.66-15.66s7.01-15.66,15.66-15.66c8.65,0,15.66,7.01,15.66,15.66
	S718.12,1333.06,709.47,1333.06z"></path>
<g id="mebel">
	<g>
		<g>
			
				<rect x="1576.61" y="318.47" transform="matrix(6.123234e-17 -1 1 6.123234e-17 1167.96 1993.0668)" style="fill:none;stroke:#000000;stroke-linecap:round;stroke-linejoin:round;stroke-miterlimit:10;" width="7.8" height="188.17"></rect>
			<polygon style="fill:none;stroke:#000000;stroke-linecap:round;stroke-linejoin:round;stroke-miterlimit:10;" points="
				1509.95,400.85 1486.43,408.65 1674.6,408.65 1651.08,400.85 			"></polygon>
		</g>
		
			<rect x="1562.95" y="277.28" transform="matrix(6.123234e-17 -1 1 6.123234e-17 1162.1071 1998.9197)" style="fill:none;stroke:#000000;stroke-linecap:round;stroke-linejoin:round;stroke-miterlimit:10;" width="35.12" height="282.25"></rect>
	</g>
	<g>
		<g>
			
				<rect x="970.7" y="600.32" style="fill:none;stroke:#000000;stroke-linecap:round;stroke-linejoin:round;stroke-miterlimit:10;" width="12.51" height="188.17"></rect>
			<polygon style="fill:none;stroke:#000000;stroke-linecap:round;stroke-linejoin:round;stroke-miterlimit:10;" points="
				991.01,623.84 983.21,600.32 983.21,788.49 991.01,764.97 			"></polygon>
		</g>
		
			<rect x="922.01" y="537.28" style="fill:none;stroke:#000000;stroke-linecap:round;stroke-linejoin:round;stroke-miterlimit:10;" width="69" height="318.01"></rect>
	</g>
	<g>
		<g>
			
				<rect x="1496.49" y="903.29" transform="matrix(6.123234e-17 -1 1 6.123234e-17 503.0188 2497.7727)" style="fill:none;stroke:#000000;stroke-linecap:round;stroke-linejoin:round;stroke-miterlimit:10;" width="7.8" height="188.17"></rect>
			<polygon style="fill:none;stroke:#000000;stroke-linecap:round;stroke-linejoin:round;stroke-miterlimit:10;" points="
				1429.83,985.67 1406.31,993.47 1594.48,993.47 1570.96,985.67 			"></polygon>
		</g>
		
			<rect x="1483.72" y="897.93" transform="matrix(6.123234e-17 -1 1 6.123234e-17 498.0482 2504.5078)" style="fill:none;stroke:#000000;stroke-linecap:round;stroke-linejoin:round;stroke-miterlimit:10;" width="35.12" height="210.6"></rect>
	</g>
	<g>
		<g>
			<g>
				
					<rect x="1404.95" y="952.04" style="fill:none;stroke:#000000;stroke-linecap:round;stroke-linejoin:round;stroke-miterlimit:10;" width="281.36" height="12.48"></rect>
				
					<rect x="1404.95" y="595.17" style="fill:none;stroke:#000000;stroke-linecap:round;stroke-linejoin:round;stroke-miterlimit:10;" width="281.36" height="356.87"></rect>
				<path style="fill:none;stroke:#000000;stroke-linecap:round;stroke-linejoin:round;stroke-miterlimit:10;" d="M1540.34,887.84
					h10.59l0,30.73c0,9.19,7.45,16.64,16.64,16.64l79.04,0c9.19,0,16.64-7.45,16.64-16.64l0-30.73l10.59,0l0,53.8
					c0,2.3-1.86,4.16-4.16,4.16l-248.08,0c-2.3,0-4.16-1.86-4.16-4.16l0-53.8l10.59,0v30.73c0,9.19,7.45,16.64,16.64,16.64l79.04,0
					c9.19,0,16.64-7.45,16.64-16.64L1540.34,887.84z"></path>
				<path style="fill:none;stroke:#000000;stroke-linecap:round;stroke-linejoin:round;stroke-miterlimit:10;" d="M1421.59,605.57
					l248.08,0c2.3,0,4.16,1.86,4.16,4.16l0,278.11l-256.4,0l0-278.11C1417.43,607.43,1419.29,605.57,1421.59,605.57z"></path>
			</g>
		</g>
		
			<rect x="1679.29" y="887.12" transform="matrix(-5.027222e-07 1 -1 -5.027222e-07 2643.8125 -799.1942)" style="fill:none;stroke:#000000;stroke-linecap:round;stroke-linejoin:round;stroke-miterlimit:10;" width="84.42" height="70.39"></rect>
		
			<rect x="1327.55" y="887.12" transform="matrix(-5.027224e-07 1 -1 -5.027224e-07 2292.0679 -447.45)" style="fill:none;stroke:#000000;stroke-linecap:round;stroke-linejoin:round;stroke-miterlimit:10;" width="84.42" height="70.39"></rect>
	</g>
	<g>
		
			<rect x="1666.26" y="1399.87" transform="matrix(-2.169133e-05 1 -1 -2.169133e-05 3180.6895 -366.4937)" style="fill:none;stroke:#000000;stroke-linecap:round;stroke-linejoin:round;stroke-miterlimit:10;" width="214.65" height="14.39"></rect>
		
			<rect x="1476.95" y="1224.94" transform="matrix(-2.169133e-05 1 -1 -2.169133e-05 2991.3633 -177.1798)" style="fill:none;stroke:#000000;stroke-linecap:round;stroke-linejoin:round;stroke-miterlimit:10;" width="214.65" height="364.25"></rect>
		<path style="fill:none;stroke:#000000;stroke-linecap:round;stroke-linejoin:round;stroke-miterlimit:10;" d="M1692.38,1314.13
			l-273.45-0.01c-2.65,0-4.8,2.15-4.8,4.8l0,176.28c0,2.65,2.15,4.8,4.8,4.8l273.45,0.01L1692.38,1314.13z"></path>
		<path style="fill:none;stroke:#000000;stroke-linecap:round;stroke-linejoin:round;stroke-miterlimit:10;" d="M1692.38,1342.31
			l0-28.19l62.03,0c2.65,0,4.8,2.15,4.8,4.8l0,176.28c0,2.65-2.15,4.8-4.8,4.8l-62.03,0l0-28.19l35.43,0
			c10.6,0,19.19-8.59,19.19-19.18l0-91.13c0-10.6-8.59-19.19-19.18-19.19L1692.38,1342.31z"></path>
	</g>
	<g>
		
			<rect x="916.16" y="495.09" transform="matrix(-1.836970e-16 1 -1 -1.836970e-16 1608.0924 -516.199)" style="fill:none;stroke:#000000;stroke-linecap:round;stroke-linejoin:round;stroke-miterlimit:10;" width="291.96" height="101.72"></rect>
		
			<line style="fill:none;stroke:#000000;stroke-linecap:round;stroke-linejoin:round;stroke-miterlimit:10;" x1="1108.73" y1="399.97" x2="1108.73" y2="691.93"></line>
	</g>
	<g>
		
			<rect x="1029.32" y="1309.46" transform="matrix(-1.836970e-16 1 -1 -1.836970e-16 2545.2876 175.3493)" style="fill:none;stroke:#000000;stroke-linecap:round;stroke-linejoin:round;stroke-miterlimit:10;" width="311.29" height="101.72"></rect>
		
			<line style="fill:none;stroke:#000000;stroke-linecap:round;stroke-linejoin:round;stroke-miterlimit:10;" x1="1231.55" y1="1204.67" x2="1231.55" y2="1515.97"></line>
	</g>
	<g>
		
			<rect x="166.72" y="1263.21" transform="matrix(-1.836970e-16 1 -1 -1.836970e-16 1557.7438 1074.5403)" style="fill:none;stroke:#000000;stroke-linecap:round;stroke-linejoin:round;stroke-miterlimit:10;" width="149.77" height="105.87"></rect>
		
			<line style="fill:none;stroke:#000000;stroke-linecap:round;stroke-linejoin:round;stroke-miterlimit:10;" x1="290.26" y1="1241.26" x2="290.26" y2="1391.02"></line>
	</g>
	<path style="fill:none;stroke:#000000;stroke-linecap:round;stroke-linejoin:round;stroke-miterlimit:10;" d="M1798.81,1083.97
		h-188.74c-1.89,0-3.42-1.53-3.42-3.42v-91.57c0-1.89,1.53-3.42,3.42-3.42h188.74c1.89,0,3.42,1.53,3.42,3.42v91.57
		C1802.23,1082.44,1800.7,1083.97,1798.81,1083.97z"></path>
	<g>
		<path style="fill:none;stroke:#000000;stroke-linecap:round;stroke-linejoin:round;stroke-miterlimit:10;" d="M1680.05,1156.2
			c0,9.6,14.45,17.53,32.27,17.53c17.82,0,32.27-8.03,32.27-17.53v-51.36c0-4.04-3.27-7.31-7.31-7.31h-49.91
			c-4.04,0-7.31,3.27-7.31,7.31V1156.2z"></path>
		<path style="fill:none;stroke:#000000;stroke-linecap:round;stroke-linejoin:round;stroke-miterlimit:10;" d="M1668.31,1156.2
			c0,16.01,19.7,29.23,44,29.23s44-13.39,44-29.23v-39.6c0-6.48-5.25-11.73-11.73-11.73l0,0v51.33c0,9.5-14.45,17.53-32.27,17.53
			c-17.82,0-32.27-7.93-32.27-17.53v-51.33l0,0c-6.48,0-11.73,5.25-11.73,11.73V1156.2z"></path>
	</g>
	<g>
		
			<circle style="fill:none;stroke:#000000;stroke-linecap:round;stroke-linejoin:round;stroke-miterlimit:10;" cx="237.17" cy="1452.05" r="39.92"></circle>
		
			<circle style="fill:none;stroke:#000000;stroke-linecap:round;stroke-linejoin:round;stroke-miterlimit:10;" cx="237.17" cy="1452.05" r="35.22"></circle>
	</g>
	<g>
		<polygon style="fill:none;stroke:#000000;stroke-linecap:round;stroke-linejoin:round;stroke-miterlimit:10;" points="
			187.56,519.83 292.84,519.83 292.84,414.57 187.56,414.55 		"></polygon>
		<g>
			
				<line style="fill:none;stroke:#000000;stroke-linecap:round;stroke-linejoin:round;stroke-miterlimit:10;" x1="240.2" y1="441.42" x2="240.2" y2="492.97"></line>
			
				<line style="fill:none;stroke:#000000;stroke-linecap:round;stroke-linejoin:round;stroke-miterlimit:10;" x1="214.43" y1="467.19" x2="265.97" y2="467.19"></line>
			<polyline style="fill:none;stroke:#000000;stroke-linecap:round;stroke-linejoin:round;stroke-miterlimit:10;" points="
				227.31,447.15 240.2,454.31 253.09,447.15 			"></polyline>
			<polyline style="fill:none;stroke:#000000;stroke-linecap:round;stroke-linejoin:round;stroke-miterlimit:10;" points="
				260.25,454.31 253.09,467.19 260.25,480.08 			"></polyline>
			<polyline style="fill:none;stroke:#000000;stroke-linecap:round;stroke-linejoin:round;stroke-miterlimit:10;" points="
				253.09,487.24 240.2,480.08 227.31,487.24 			"></polyline>
			<polyline style="fill:none;stroke:#000000;stroke-linecap:round;stroke-linejoin:round;stroke-miterlimit:10;" points="
				220.15,480.08 227.31,467.19 220.15,454.31 			"></polyline>
		</g>
	</g>
	<g>
		<polygon style="fill:none;stroke:#000000;stroke-linecap:round;stroke-linejoin:round;stroke-miterlimit:10;" points="
			292.78,1050.21 292.78,969.44 187.71,969.44 187.7,1050.21 		"></polygon>
		<path style="fill:none;stroke:#000000;stroke-linecap:round;stroke-linejoin:round;stroke-miterlimit:10;" d="M263.62,1009.82
			c0.37,7.48-7.71,18.23-19.47,13.21c-8.07-3.44-27.3-13.21-27.3-13.21s19.24-9.77,27.3-13.21
			C255.91,991.6,263.99,1002.35,263.62,1009.82z"></path>
	</g>
	<g>
		<path style="fill:none;stroke:#000000;stroke-linecap:round;stroke-linejoin:round;stroke-miterlimit:10;" d="M704.19,709.53
			v-198.9c0-2.52,2.04-4.56,4.56-4.56h107.86c2.52,0,4.56,2.04,4.56,4.56v198.9c0,2.52-2.04,4.56-4.56,4.56H708.74
			C706.23,714.08,704.19,712.04,704.19,709.53z"></path>
		<path style="fill:none;stroke:#000000;stroke-linecap:round;stroke-linejoin:round;stroke-miterlimit:10;" d="M704.19,709.53
			v-198.9c0-2.52-2.04-4.56-4.56-4.56h-27.66c-2.52,0-4.56,2.04-4.56,4.56v198.9c0,2.52,2.04,4.56,4.56,4.56h27.66
			C702.15,714.08,704.19,712.04,704.19,709.53z"></path>
		<path style="fill:none;stroke:#000000;stroke-linecap:round;stroke-linejoin:round;stroke-miterlimit:10;" d="M704.19,718.64
			v198.9c0,2.52,2.04,4.56,4.56,4.56h107.86c2.52,0,4.56-2.04,4.56-4.56v-198.9c0-2.52-2.04-4.56-4.56-4.56H708.74
			C706.23,714.08,704.19,716.12,704.19,718.64z"></path>
		<path style="fill:none;stroke:#000000;stroke-linecap:round;stroke-linejoin:round;stroke-miterlimit:10;" d="M704.19,718.64
			v198.9c0,2.52-2.04,4.56-4.56,4.56h-27.66c-2.52,0-4.56-2.04-4.56-4.56v-198.9c0-2.52,2.04-4.56,4.56-4.56h27.66
			C702.15,714.08,704.19,716.12,704.19,718.64z"></path>
	</g>
	<g>
		<g>
			<path style="fill:none;stroke:#000000;stroke-linecap:round;stroke-linejoin:round;stroke-miterlimit:10;" d="M635.93,787.52
				l-2.8,25.15c-1.75,15.73-15.05,27.63-30.88,27.63h-1.8c-15.82,0-29.11-11.88-30.88-27.6l-2.83-25.17H635.93z"></path>
			<path style="fill:none;stroke:#000000;stroke-linecap:round;stroke-linejoin:round;stroke-miterlimit:10;" d="M560.04,808.27
				l0.62,5.55c2.26,20.13,19.29,35.35,39.54,35.35h2.3c20.27,0,37.3-15.24,39.55-35.38l0.61-5.51c0.3-2.66-1.79-4.99-4.47-4.99l0,0
				c-2.29,0-4.21,1.72-4.47,4l-0.6,5.38c-1.75,15.73-15.05,27.63-30.88,27.63h-1.8c-15.82,0-29.11-11.88-30.88-27.6l-0.61-5.42
				c-0.26-2.27-2.18-3.99-4.46-3.99l0,0C561.82,803.28,559.74,805.61,560.04,808.27z"></path>
		</g>
		<g>
			<path style="fill:none;stroke:#000000;stroke-linecap:round;stroke-linejoin:round;stroke-miterlimit:10;" d="M566.77,655.4
				l2.8-25.15c1.75-15.73,15.05-27.63,30.88-27.63h1.8c15.82,0,29.11,11.88,30.88,27.6l2.83,25.17L566.77,655.4z"></path>
			<path style="fill:none;stroke:#000000;stroke-linecap:round;stroke-linejoin:round;stroke-miterlimit:10;" d="M642.67,634.64
				l-0.62-5.55c-2.26-20.13-19.29-35.35-39.54-35.35h-2.3c-20.27,0-37.3,15.24-39.55,35.38l-0.61,5.51
				c-0.3,2.66,1.79,4.99,4.47,4.99l0,0c2.29,0,4.22-1.72,4.47-4l0.6-5.38c1.75-15.73,15.05-27.63,30.88-27.63h1.8
				c15.82,0,29.11,11.88,30.88,27.6l0.61,5.42c0.26,2.27,2.18,3.99,4.46,3.99l0,0C640.88,639.64,642.96,637.3,642.67,634.64z"></path>
		</g>
		<g>
			<path style="fill:none;stroke:#000000;stroke-linecap:round;stroke-linejoin:round;stroke-miterlimit:10;" d="M535.29,756.04
				l-25.15-2.8c-15.73-1.75-27.63-15.05-27.63-30.88v-1.8c0-15.82,11.88-29.11,27.6-30.88l25.17-2.83V756.04z"></path>
			<path style="fill:none;stroke:#000000;stroke-linecap:round;stroke-linejoin:round;stroke-miterlimit:10;" d="M514.54,680.14
				l-5.55,0.62c-20.13,2.26-35.35,19.29-35.35,39.54v2.3c0,20.27,15.24,37.3,35.38,39.55l5.51,0.61c2.66,0.3,4.99-1.79,4.99-4.47
				l0,0c0-2.29-1.72-4.22-4-4.47l-5.38-0.6c-15.73-1.75-27.63-15.05-27.63-30.88v-1.8c0-15.82,11.88-29.11,27.6-30.88l5.42-0.61
				c2.27-0.26,3.99-2.18,3.99-4.46v0C519.53,681.93,517.2,679.84,514.54,680.14z"></path>
		</g>
		<path style="fill:none;stroke:#000000;stroke-linecap:round;stroke-linejoin:round;stroke-miterlimit:10;" d="M662.97,655.4
			H539.73c-2.45,0-4.44,1.99-4.44,4.44v123.24c0,2.45,1.99,4.44,4.44,4.44h123.24c2.45,0,4.44-1.99,4.44-4.44V659.84
			C667.41,657.39,665.42,655.4,662.97,655.4z"></path>
	</g>
	
		<rect x="184.34" y="519.97" style="fill:none;stroke:#000000;stroke-linecap:round;stroke-linejoin:round;stroke-miterlimit:10;" width="108" height="158.82"></rect>
	
		<rect x="184.7" y="863.02" style="fill:none;stroke:#000000;stroke-linecap:round;stroke-linejoin:round;stroke-miterlimit:10;" width="108" height="106.59"></rect>
	
		<rect x="187.87" y="782.2" style="fill:none;stroke:#000000;stroke-linecap:round;stroke-linejoin:round;stroke-miterlimit:10;" width="104.82" height="80.47"></rect>
	
		<rect x="182.89" y="1154.86" style="fill:none;stroke:#000000;stroke-linecap:round;stroke-linejoin:round;stroke-miterlimit:10;" width="110.12" height="21.53"></rect>
	<g>
		<g>
			<path style="fill:none;stroke:#000000;stroke-miterlimit:10;" d="M727.33,871.98c0.12,0.01,0.23,0,0.35-0.01
				c6.38-0.64,12.86-0.78,19.25-0.42c6.39,0.37,12.81,1.24,19.07,2.6c0.13,0.03,0.25,0.04,0.36,0.05c0.62,0.04,1.22-0.21,1.66-0.66
				c0.25-0.26,0.66-0.82,0.59-1.66l-0.01-0.05c-1.29-12.82-0.55-25.71,2.19-38.3l0.02-0.07c0.16-0.81-0.18-1.41-0.4-1.69
				c-0.38-0.5-0.96-0.81-1.58-0.85c-0.11-0.01-0.23,0-0.35,0.01c-6.38,0.64-12.86,0.78-19.25,0.42c-6.39-0.37-12.81-1.24-19.07-2.6
				c-0.13-0.03-0.25-0.04-0.36-0.05c-0.62-0.04-1.22,0.21-1.66,0.66c-0.25,0.26-0.65,0.82-0.59,1.66l0.01,0.05
				c1.29,12.82,0.55,25.71-2.19,38.3l-0.02,0.07c-0.16,0.81,0.18,1.41,0.4,1.69C726.14,871.63,726.72,871.94,727.33,871.98z"></path>
		</g>
		<path style="fill:none;stroke:#000000;stroke-miterlimit:10;" d="M768.6,871.84l0.01,0.05c0.07,0.84-0.34,1.4-0.59,1.66
			c-0.44,0.46-1.04,0.7-1.66,0.66c-0.11-0.01-0.23-0.02-0.36-0.05c-5.51-1.2-11.13-1.95-16.76-2.38c-2.07,4.64-4.34,9.18-6.98,13.55
			l-0.03,0.04c-0.42,0.72-0.3,1.4-0.18,1.75c0.2,0.6,0.64,1.08,1.22,1.31c0.11,0.04,0.22,0.08,0.35,0.11
			c6.24,1.46,12.4,3.42,18.34,5.84c5.93,2.42,11.72,5.32,17.2,8.65c0.1,0.06,0.21,0.11,0.31,0.16c0.57,0.23,1.22,0.2,1.79-0.09
			c0.32-0.17,0.88-0.56,1.09-1.36l0.02-0.07c2.93-12.55,7.8-24.5,14.48-35.53l0.03-0.04c0.42-0.72,0.3-1.41,0.18-1.75
			c-0.2-0.6-0.64-1.08-1.21-1.31c-0.11-0.04-0.22-0.08-0.35-0.11c-6.24-1.46-12.4-3.42-18.34-5.84c-3.03-1.24-6.02-2.61-8.96-4.09
			C767.84,859.26,767.97,865.55,768.6,871.84z"></path>
		<path style="fill:none;stroke:#000000;stroke-miterlimit:10;" d="M768.6,871.84l0.01,0.05c0.07,0.84-0.34,1.4-0.59,1.66
			c-0.44,0.46-1.04,0.7-1.66,0.66c-0.11-0.01-0.23-0.02-0.36-0.05c-6.26-1.36-12.67-2.24-19.07-2.6c-0.18-0.01-0.36,0-0.53-0.01
			c-1.93,4.24-4.02,8.4-6.44,12.39l-0.01,0.01c-1.7,2.81-0.16,6.45,3.03,7.2l0.01,0c12.26,2.86,23.98,7.64,34.75,14.16l0.01,0.01
			c2.81,1.7,6.45,0.16,7.2-3.03l0-0.01c2.86-12.26,7.64-23.98,14.16-34.75l0.01-0.01c1.7-2.81,0.16-6.45-3.03-7.2l-0.01,0
			c-9.62-2.25-18.89-5.72-27.66-10.24C767.87,857.3,767.87,864.58,768.6,871.84z"></path>
	</g>
	<g>
		<g>
			<path style="fill:none;stroke:#000000;stroke-miterlimit:10;" d="M718.86,548.41c0.12-0.01,0.23,0,0.35,0.01
				c6.38,0.64,12.86,0.78,19.25,0.42c6.39-0.37,12.81-1.24,19.07-2.6c0.13-0.03,0.25-0.04,0.36-0.05c0.62-0.04,1.22,0.21,1.66,0.66
				c0.25,0.26,0.66,0.82,0.59,1.66l-0.01,0.05c-1.29,12.82-0.55,25.71,2.19,38.3l0.02,0.07c0.16,0.81-0.18,1.41-0.4,1.69
				c-0.38,0.5-0.96,0.81-1.58,0.85c-0.11,0.01-0.23,0-0.35-0.01c-6.38-0.64-12.86-0.78-19.25-0.42c-6.39,0.37-12.81,1.24-19.07,2.6
				c-0.13,0.03-0.25,0.04-0.36,0.05c-0.62,0.04-1.22-0.21-1.66-0.66c-0.25-0.26-0.65-0.82-0.59-1.66l0.01-0.05
				c1.29-12.82,0.55-25.71-2.19-38.3l-0.02-0.07c-0.16-0.81,0.18-1.41,0.4-1.69C717.67,548.76,718.25,548.45,718.86,548.41z"></path>
		</g>
		<path style="fill:none;stroke:#000000;stroke-miterlimit:10;" d="M760.13,548.55l0.01-0.05c0.07-0.84-0.34-1.4-0.59-1.66
			c-0.44-0.46-1.04-0.7-1.66-0.66c-0.11,0.01-0.23,0.02-0.36,0.05c-5.51,1.2-11.13,1.95-16.76,2.38c-2.07-4.64-4.34-9.18-6.98-13.55
			l-0.03-0.04c-0.42-0.72-0.3-1.4-0.18-1.75c0.2-0.6,0.64-1.08,1.22-1.31c0.11-0.04,0.22-0.08,0.35-0.11
			c6.24-1.46,12.4-3.42,18.34-5.84c5.93-2.42,11.72-5.32,17.2-8.65c0.1-0.06,0.21-0.11,0.31-0.16c0.57-0.23,1.22-0.2,1.79,0.09
			c0.32,0.17,0.88,0.56,1.09,1.36l0.02,0.07c2.93,12.55,7.8,24.5,14.48,35.53l0.03,0.04c0.42,0.72,0.3,1.41,0.18,1.75
			c-0.2,0.6-0.64,1.08-1.21,1.31c-0.11,0.04-0.22,0.08-0.35,0.11c-6.24,1.46-12.4,3.42-18.34,5.84c-3.03,1.24-6.02,2.61-8.96,4.09
			C759.37,561.13,759.5,554.84,760.13,548.55z"></path>
		<path style="fill:none;stroke:#000000;stroke-miterlimit:10;" d="M760.13,548.55l0.01-0.05c0.07-0.84-0.34-1.4-0.59-1.66
			c-0.44-0.46-1.04-0.7-1.66-0.66c-0.11,0.01-0.23,0.02-0.36,0.05c-6.26,1.36-12.67,2.24-19.07,2.6c-0.18,0.01-0.36,0-0.53,0.01
			c-1.93-4.24-4.02-8.4-6.44-12.39l-0.01-0.01c-1.7-2.81-0.16-6.45,3.03-7.2l0.01,0c12.26-2.86,23.98-7.64,34.75-14.16l0.01-0.01
			c2.81-1.7,6.45-0.16,7.2,3.03l0,0.01c2.86,12.26,7.64,23.98,14.16,34.75l0.01,0.01c1.7,2.81,0.16,6.45-3.03,7.2l-0.01,0
			c-9.62,2.25-18.89,5.72-27.66,10.24C759.4,563.09,759.4,555.81,760.13,548.55z"></path>
	</g>
	<g>
		<path style="fill:none;stroke:#000000;stroke-miterlimit:10;" d="M731.86,1099.46"></path>
		<path style="fill:none;stroke:#000000;stroke-miterlimit:10;" d="M699.5,1148.45l-16.69-7.02l1.56-2.69l-14.49,7.08
			c0.01,0.02,0.02,0.03,0.03,0.05l2.37,2.55c0.04,0.02,0.06,0.05,0.1,0.07l23.31,9.81c2.86,1.21,6.18-0.31,7.1-3.34
			C703.59,1152.31,702.04,1149.52,699.5,1148.45z"></path>
		<path style="fill:none;stroke:#000000;stroke-miterlimit:10;" d="M653.7,1102.22"></path>
		<path style="fill:none;stroke:#000000;stroke-miterlimit:10;" d="M653.52,1103.97c-0.18-0.03-0.35-0.11-0.54-0.1
			c-14.31,0.25-27.12-11.03-29.41-25.57c-0.79-4.99-0.12-8.94,1.47-13.36c-0.19-0.24-0.37-0.48-0.55-0.73
			c-0.04,0.07-0.08,0.13-0.12,0.19c-2.97,5.66-4.12,12.33-3.08,19.12c2.38,15.45,16.01,26.54,31.32,26.16
			C652.72,1107.76,653.01,1105.84,653.52,1103.97z"></path>
		<line style="fill:none;stroke:#000000;stroke-miterlimit:10;" x1="676.85" y1="1103.26" x2="700.1" y2="1121.77"></line>
		<g>
			<path style="fill:none;stroke:#000000;stroke-miterlimit:10;" d="M763.38,1132.2l-13.11-2.19l0.06,0.49l3.09,6.38
				c0.69,1.43,0.73,2.98,0.35,4.41l7.88,1.31c2.87,0.48,5.59-1.46,6.07-4.34S766.25,1132.68,763.38,1132.2z"></path>
		</g>
		<path style="fill:none;stroke:#000000;stroke-miterlimit:10;" d="M744.57,1148.22l-3.11-1.85c-1.79-1.07-1.68-3.7,0.2-4.61
			l3.03-1.47c1.88-0.91,4.02,0.63,3.75,2.7l-0.47,3.59L744.57,1148.22z"></path>
		<path style="fill:none;stroke:#000000;stroke-miterlimit:10;" d="M738.45,1126.25c-0.33,1.07,0.27,2.2,1.33,2.52
			c1.07,0.33,2.2-0.27,2.52-1.33"></path>
		<path style="fill:none;stroke:#000000;stroke-miterlimit:10;" d="M732.75,1132.55c1.1,0.18,2.14-0.57,2.32-1.67
			c0.18-1.1-0.57-2.14-1.67-2.32"></path>
		<g>
			<g>
				<path style="fill:none;stroke:#000000;stroke-miterlimit:10;" d="M747.73,1129.08c-1.63-0.17-3.78,1.76-4,3.17"></path>
			</g>
		</g>
		<g>
			<g>
				<path style="fill:none;stroke:#000000;stroke-miterlimit:10;" d="M730.87,1137.25c0.87-1.39,3.72-1.88,4.97-1.18"></path>
			</g>
		</g>
		<line style="fill:none;stroke:#000000;stroke-miterlimit:10;" x1="746.27" y1="1147.39" x2="745.23" y2="1145.26"></line>
		<path style="fill:none;stroke:#000000;stroke-miterlimit:10;" d="M693.17,1116.25c0,0,3.94,5.16,3.03,10.48
			c-0.77,4.54-3.72,7.89-7.6,9.92l0.01,0.01l-0.34,0.17c-0.18,0.09-0.35,0.18-0.53,0.26l-17.85,8.73l12.31,13.28
			c1.87,2.02,2.13,5.21,0.32,7.28c-2.09,2.39-5.74,2.4-7.85,0.12l-17.19-18.54c-1.84-1.99-1.52-5.15,0.68-6.73l8.67-6.19
			c-6.76-4.19-10.46-9.56-12.42-14.52c-2.83-7.15-2.34-15.31,1.32-22.08c0.09-0.16,0.17-0.3,0.24-0.42
			c3.58-5.46,12.46-18.2,36.76-19.45c38.66-1.99,52.85,25.02,52.85,25.02"></path>
		<path style="fill:none;stroke:#000000;stroke-miterlimit:10;" d="M748.49,1105.95c3.71-1.8,7.94,1.25,7.4,5.34l-0.15,1.17
			l25.12,14.43c6.09,3.31,11.22-5.52,5.26-9.15l-36.33-20.87c-1.67-0.96-3.61-1.33-5.51-1.05l-4.09,0.6"></path>
		<path style="fill:none;stroke:#000000;stroke-miterlimit:10;" d="M707.56,1107.21l-6.22,11.01c-3,5.23-1.2,11.9,4.03,14.9
			l5.98,3.43c5.07,2.91,11.02,2.79,15.84,0.25"></path>
		<path style="fill:none;stroke:#000000;stroke-miterlimit:10;" d="M711.97,1132.58l7.66,4.56c1.55,0.92,3.54-0.04,3.77-1.83
			l2.41-18.37l-13.44,6.52C708.65,1125.27,708.42,1130.47,711.97,1132.58z"></path>
		<path style="fill:none;stroke:#000000;stroke-miterlimit:10;" d="M719.4,1116.81c-1.52,1.17-2.45,2.83-2.79,4.6l9.2-4.46
			l-2.14,16.33l6.84,6.84l3.09,6.38c1.53,3.15,5.32,4.46,8.46,2.94l8.42-4.08c3.15-1.53,4.46-5.32,2.94-8.46l-3.09-6.38l-1.13-9.61
			l-14.15-8.43l9.25-4.48c-2.05-1.07-4.57-1.24-6.89-0.12l-1.96,0.95"></path>
		<path style="fill:none;stroke:#000000;stroke-miterlimit:10;" d="M735.04,1112.47l15.91,9.48c1.55,0.92,3.54-0.04,3.77-1.83
			l1.16-8.84c0.54-4.09-3.69-7.14-7.4-5.34L735.04,1112.47z"></path>
	</g>
	<g>
		<g>
			<path style="fill:none;stroke:#000000;stroke-miterlimit:10;" d="M640.12,418.91c1.15-0.11,2.31-0.14,3.47-0.09"></path>
			<path style="fill:none;stroke:#000000;stroke-miterlimit:10;" d="M666.14,451.42c-0.57,1.72-1.33,3.41-2.3,5.03
				c-0.22,0.36-0.44,0.72-0.68,1.07"></path>
		</g>
		<g>
			<path style="fill:none;stroke:#000000;stroke-miterlimit:10;" d="M662.93,452.4c-0.39,0.91-0.85,1.81-1.37,2.68"></path>
			<path style="fill:none;stroke:#000000;stroke-miterlimit:10;" d="M641.01,421.5c1-0.07,2.01-0.07,3.01,0"></path>
		</g>
		<g>
			<path style="fill:none;stroke:#000000;stroke-miterlimit:10;" d="M668.14,414.1c-0.42-2.15-1.27-4.4-2.74-6.66
				c-13.43-2.78-20.71,9.25-20.71,9.25c-1.56,2.28-1.24,5.3,0.61,7.21"></path>
		</g>
		<line style="fill:none;stroke:#000000;stroke-miterlimit:10;" x1="660.28" y1="414.21" x2="665.32" y2="407.71"></line>
		<line style="fill:none;stroke:#000000;stroke-miterlimit:10;" x1="638.52" y1="442.25" x2="647.22" y2="431.05"></line>
		<g>
			<path style="fill:none;stroke:#000000;stroke-miterlimit:10;" d="M639.26,455.28C639.26,455.28,639.26,455.28,639.26,455.28
				C639.26,455.27,639.25,455.26,639.26,455.28z"></path>
			<path style="fill:none;stroke:#000000;stroke-miterlimit:10;" d="M621.94,461.5c1.64,6.85,6.63,19.4,21.57,23.64
				c3.56-2,6.31-4.4,8.44-6.98"></path>
			<path style="fill:none;stroke:#000000;stroke-miterlimit:10;" d="M639.9,454.7c-0.28-2.29-1.52-4.26-3.28-5.66"></path>
			<path style="fill:none;stroke:#000000;stroke-miterlimit:10;" d="M652.58,444.97c-1.25-0.43-2.62-0.6-4.03-0.43
				c-4.98,0.59-9.24,5.19-8.65,10.17c0.12,1.02,0.07,0.62,0.06,0.5"></path>
			<path style="fill:none;stroke:#000000;stroke-miterlimit:10;" d="M658.89,454.93c-0.09-1.54-0.25-2.44-0.25-2.44"></path>
		</g>
		<line style="fill:none;stroke:#000000;stroke-miterlimit:10;" x1="638.48" y1="442.39" x2="643.51" y2="485.14"></line>
		<g>
			<path style="fill:none;stroke:#000000;stroke-miterlimit:10;" d="M658.25,433.64C658.24,433.64,658.24,433.64,658.25,433.64
				C658.23,433.64,658.23,433.64,658.25,433.64z"></path>
			<path style="fill:none;stroke:#000000;stroke-miterlimit:10;" d="M658.77,434.95C658.77,434.95,658.77,434.94,658.77,434.95
				C658.76,434.95,658.75,434.95,658.77,434.95z"></path>
			<path style="fill:none;stroke:#000000;stroke-miterlimit:10;" d="M650.98,416.98c-4.65,1.88-6.9,7.17-5.02,11.82
				c1.88,4.65,7.43,7.55,12.08,5.67c0.95-0.38,0.58-0.23,0.46-0.19c0.36-0.14,0.65-0.26,0.65-0.26s-0.29,0.11-0.65,0.26
				c0.11-0.05,0,0-0.46,0.19c-3.98,1.62-6.01,6.21-5.33,10.42c0.11,0.7,0.3,1.39,0.57,2.06c1.88,4.65,7.17,6.9,11.82,5.02
				c0,0,0.35-0.12,0.96-0.37c4.13-1.72,20.19-9.64,20.39-28.6C671.18,407.51,650.98,416.98,650.98,416.98z"></path>
		</g>
		<line style="fill:none;stroke:#000000;stroke-miterlimit:10;" x1="638.48" y1="442.39" x2="686.46" y2="422.99"></line>
		<g>
			<path style="fill:none;stroke:#000000;stroke-miterlimit:10;" d="M640.67,425.09c0.81-1.65,0.8-3.66-0.18-5.37
				c0,0-6.35-12.55-19.95-10.8c-3.11,4.06-3.99,8.25-3.87,11.9"></path>
		</g>
		<line style="fill:none;stroke:#000000;stroke-miterlimit:10;" x1="626.52" y1="420.07" x2="620.54" y2="408.92"></line>
		<line style="fill:none;stroke:#000000;stroke-miterlimit:10;" x1="638.48" y1="442.39" x2="636.82" y2="439.29"></line>
		<g>
			<path style="fill:none;stroke:#000000;stroke-miterlimit:10;" d="M629.72,440.44C629.72,440.44,629.72,440.45,629.72,440.44
				C629.74,440.45,629.74,440.45,629.72,440.44z"></path>
			<path style="fill:none;stroke:#000000;stroke-miterlimit:10;" d="M630.14,439.1C630.14,439.1,630.14,439.1,630.14,439.1
				C630.15,439.1,630.15,439.1,630.14,439.1z"></path>
			<path style="fill:none;stroke:#000000;stroke-miterlimit:10;" d="M636.23,451.93c1.47-4.8-1.03-10.55-5.82-12.01"></path>
			<path style="fill:none;stroke:#000000;stroke-miterlimit:10;" d="M629.93,439.77c-0.12-0.03,0,0,0.48,0.15
				c4.8,1.46,10.08-1.9,11.55-6.7c1.47-4.8-1.23-9.87-6.03-11.34c0,0-20.95-7.69-34.83,9.08c0.88,8.98,5.13,15.16,9.79,19.32"></path>
		</g>
		<line style="fill:none;stroke:#000000;stroke-miterlimit:10;" x1="622.31" y1="437.44" x2="601.1" y2="430.95"></line>
		<g>
			<path style="fill:none;stroke:#000000;stroke-miterlimit:10;" d="M627.73,448.47C627.73,448.47,627.74,448.47,627.73,448.47
				C627.74,448.47,627.74,448.47,627.73,448.47z"></path>
			<path style="fill:none;stroke:#000000;stroke-miterlimit:10;" d="M627.32,447.69C627.32,447.69,627.32,447.69,627.32,447.69
				C627.33,447.68,627.33,447.68,627.32,447.69z"></path>
			<path style="fill:none;stroke:#000000;stroke-miterlimit:10;" d="M633.36,458.44c2.79-1.48,3.86-4.94,2.38-7.73
				c-1.48-2.79-5.15-4.25-7.94-2.78c-0.57,0.3-0.35,0.18-0.28,0.15c-0.22,0.11-0.39,0.21-0.39,0.21s0.17-0.09,0.39-0.21
				c-0.07,0.04,0,0,0.28-0.15c2.79-1.48,3.65-5.33,2.18-8.12c-1.48-2.79-4.94-3.86-7.73-2.38c0,0-12.77,5.88-11.52,19.54
				c3.95,3.26,8.11,4.29,11.77,4.3C628.63,461.28,633.36,458.44,633.36,458.44z"></path>
		</g>
		<line style="fill:none;stroke:#000000;stroke-miterlimit:10;" x1="638.53" y1="442.21" x2="610.73" y2="456.96"></line>
		<g>
			<path style="fill:none;stroke:#000000;stroke-miterlimit:10;" d="M653.65,463.71C653.65,463.71,653.65,463.7,653.65,463.71
				C653.64,463.7,653.65,463.7,653.65,463.71z"></path>
			<path style="fill:none;stroke:#000000;stroke-miterlimit:10;" d="M652.91,464.2C652.91,464.2,652.91,464.2,652.91,464.2
				C652.91,464.2,652.91,464.19,652.91,464.2z"></path>
			<path style="fill:none;stroke:#000000;stroke-miterlimit:10;" d="M662.96,457.04c-1.77-2.62-5.32-3.31-7.94-1.54
				c-2.62,1.77-3.68,5.57-1.91,8.19c0.36,0.54,0.22,0.33,0.18,0.26c0.13,0.2,0.25,0.37,0.25,0.37s-0.11-0.16-0.25-0.36
				c0.05,0.06,0,0-0.18-0.26c-1.77-2.61-5.69-3.06-8.31-1.29c-2.62,1.77-3.31,5.32-1.54,7.94c0,0,7.22,12.07,20.66,9.35
				C671.45,468.25,662.96,457.04,662.96,457.04z"></path>
		</g>
		<line style="fill:none;stroke:#000000;stroke-miterlimit:10;" x1="638.46" y1="442.45" x2="663.91" y2="479.7"></line>
	</g>
	<g>
		<path style="fill:none;stroke:#000000;stroke-miterlimit:10;" d="M1290.89,435.11c0.09,1.52,0.31,3.02,0.66,4.5"></path>
		<path style="fill:none;stroke:#000000;stroke-miterlimit:10;" d="M1321.04,407.84c-5.22-0.83-10.49-0.04-15.14,2.13"></path>
		<path style="fill:none;stroke:#000000;stroke-miterlimit:10;" d="M1340.04,421.46c-1.53-2.9-3.6-5.53-6.17-7.71"></path>
		<path style="fill:none;stroke:#000000;stroke-miterlimit:10;" d="M1342.13,440.53c0.3-1.09,0.53-2.19,0.68-3.29"></path>
		<path style="fill:none;stroke:#000000;stroke-miterlimit:10;" d="M1334.43,453.04c1.02-0.92,1.97-1.92,2.84-3"></path>
		<path style="fill:none;stroke:#000000;stroke-miterlimit:10;" d="M1310.27,458.88c2.78,0.74,5.6,1,8.37,0.81"></path>
		<path style="fill:none;stroke:#000000;stroke-miterlimit:10;" d="M1296.54,449.9c1.1,1.39,2.35,2.67,3.74,3.83"></path>
		<path style="fill:none;stroke:#000000;stroke-miterlimit:10;" d="M1296.43,440.41c-3.64-1.29-8.28-1.2-12.81,0.63
			c-6.25,2.52-10.42,7.56-10.88,12.47c3.74,3.21,10.24,3.94,16.49,1.42c5.6-2.26,9.53-6.55,10.62-10.94
			c0.04-0.15,0.03-0.29,0.04-0.44"></path>
		<path style="fill:none;stroke:#000000;stroke-miterlimit:10;" d="M1300.63,450.15c-0.84-0.83-1.61-1.72-2.31-2.66"></path>
		<path style="fill:none;stroke:#000000;stroke-miterlimit:10;" d="M1319.33,456.73c-2.75,0.29-5.58,0.08-8.35-0.66"></path>
		<path style="fill:none;stroke:#000000;stroke-miterlimit:10;" d="M1335.96,446.94c-0.59,0.84-1.22,1.63-1.9,2.38"></path>
		<path style="fill:none;stroke:#000000;stroke-miterlimit:10;" d="M1339.81,437.62c-0.16,0.93-0.38,1.86-0.67,2.78"></path>
		<path style="fill:none;stroke:#000000;stroke-miterlimit:10;" d="M1332.62,416.52c2.24,2.05,4.03,4.51,5.3,7.2"></path>
		<path style="fill:none;stroke:#000000;stroke-miterlimit:10;" d="M1308.22,412.13c3.25-1.32,6.79-1.9,10.35-1.65"></path>
		<path style="fill:none;stroke:#000000;stroke-miterlimit:10;" d="M1294.56,439.78c-0.28-1.03-0.5-2.09-0.64-3.15"></path>
		<path style="fill:none;stroke:#000000;stroke-miterlimit:10;" d="M1311.64,428.12c0.96-0.15,1.72-0.89,1.88-1.85
			c0.76-4.46-1.14-9.96-5.37-14.27c-4.73-4.81-10.98-6.73-15.68-5.28c-1.54,4.68,0.28,10.97,5,15.77
			C1301.7,426.81,1307.16,428.8,1311.64,428.12z"></path>
		<path style="fill:none;stroke:#000000;stroke-miterlimit:10;" d="M1329.87,439.07c0.43-0.18,0.71-0.61,0.67-1.08
			c-0.15-2.18-1.66-4.55-4.14-6.09c-2.76-1.72-5.91-1.92-7.96-0.71c-0.19,2.37,1.37,5.12,4.13,6.84
			C1325.06,439.58,1327.85,439.9,1329.87,439.07z"></path>
		<line style="fill:none;stroke:#000000;stroke-miterlimit:10;" x1="1332.11" y1="439.84" x2="1318.45" y2="431.2"></line>
		<path style="fill:none;stroke:#000000;stroke-miterlimit:10;" d="M1334.42,435.82c0.15,0.92,0.89,1.65,1.81,1.79
			c4.32,0.67,9.6-1.24,13.7-5.39c4.58-4.63,6.35-10.69,4.88-15.22c-4.54-1.42-10.58,0.42-15.16,5.05
			C1335.55,426.21,1333.7,431.51,1334.42,435.82z"></path>
		<line style="fill:none;stroke:#000000;stroke-miterlimit:10;" x1="1331.95" y1="439.85" x2="1354.81" y2="417.01"></line>
		<path style="fill:none;stroke:#000000;stroke-miterlimit:10;" d="M1336.64,441.34c-0.89,0.37-1.46,1.28-1.39,2.24
			c0.33,4.52,3.48,9.4,8.62,12.57c5.74,3.54,12.27,3.92,16.49,1.38c0.37-4.91-2.89-10.58-8.62-14.12
			C1346.6,440.24,1340.82,439.61,1336.64,441.34z"></path>
		<line style="fill:none;stroke:#000000;stroke-miterlimit:10;" x1="1332" y1="439.78" x2="1360.37" y2="457.54"></line>
		<line style="fill:none;stroke:#000000;stroke-miterlimit:10;" x1="1332" y1="439.78" x2="1322.59" y2="471.9"></line>
		<path style="fill:none;stroke:#000000;stroke-miterlimit:10;" d="M1305.03,444.19c-0.59-0.3-1.31-0.18-1.78,0.28
			c-2.19,2.18-3.31,5.99-2.67,10.06c0.72,4.54,3.43,8.09,6.62,9.15c2.71-1.99,4.19-6.2,3.47-10.75
			C1310.03,448.86,1307.79,445.59,1305.03,444.19z"></path>
		<line style="fill:none;stroke:#000000;stroke-miterlimit:10;" x1="1303.92" y1="442.97" x2="1307.21" y2="463.68"></line>
		<line style="fill:none;stroke:#000000;stroke-miterlimit:10;" x1="1298.59" y1="443.32" x2="1272.74" y2="453.51"></line>
		<line style="fill:none;stroke:#000000;stroke-miterlimit:10;" x1="1299.47" y1="435.12" x2="1283.54" y2="414.56"></line>
		<path style="fill:none;stroke:#000000;stroke-miterlimit:10;" d="M1322.63,449.17c-0.43,1.17-1.05,2.19-1.81,3
			c-0.53,1.09-1.01,2.25-1.36,3.48c-1.85,6.48-0.45,12.87,3.14,16.25c4.83-0.97,9.4-5.65,11.26-12.13c1.66-5.81,0.7-11.54-2.1-15.1
			c-0.6-0.76-1.62-1.05-2.53-0.73C1326.77,444.83,1324.47,446.68,1322.63,449.17z"></path>
		<line style="fill:none;stroke:#000000;stroke-miterlimit:10;" x1="1315.54" y1="430.67" x2="1320.21" y2="452.77"></line>
		<line style="fill:none;stroke:#000000;stroke-miterlimit:10;" x1="1315.81" y1="430.63" x2="1296.26" y2="442.46"></line>
		<path style="fill:none;stroke:#000000;stroke-miterlimit:10;" d="M1297.47,422.5c-1.62-1.65-2.87-3.47-3.79-5.34
			c-3.31-2.21-6.96-3.18-10.14-2.59c-2.08,4.47-1.02,10.92,3.1,16.25c2.98,3.86,6.94,6.28,10.73,7.01c1-1.89,2.63-3.66,4.8-4.99
			c0.14-0.09,0.29-0.13,0.43-0.21c-0.05-2.41-0.74-4.99-1.98-7.49C1299.53,424.38,1298.46,423.51,1297.47,422.5z"></path>
		<line style="fill:none;stroke:#000000;stroke-miterlimit:10;" x1="1315.78" y1="430.74" x2="1292.46" y2="406.73"></line>
		<path style="fill:none;stroke:#000000;stroke-miterlimit:10;" d="M1317.18,426.05c0.4,0.88,1.33,1.41,2.29,1.31
			c4.5-0.48,9.28-3.79,12.28-9.04c3.35-5.85,3.51-12.39,0.83-16.53c-4.92-0.21-10.48,3.24-13.83,9.09
			C1315.75,416.13,1315.31,421.92,1317.18,426.05z"></path>
		<line style="fill:none;stroke:#000000;stroke-miterlimit:10;" x1="1315.78" y1="430.74" x2="1332.58" y2="401.79"></line>
		<path style="fill:none;stroke:#000000;stroke-miterlimit:10;" d="M1313.43,432.98c0.05-0.66-0.33-1.28-0.94-1.53
			c-2.85-1.19-6.8-0.77-10.31,1.38c-3.92,2.41-6.16,6.27-5.91,9.62c2.88,1.74,7.34,1.5,11.26-0.91
			C1311.04,439.39,1313.2,436.07,1313.43,432.98z"></path>
		<path style="fill:none;stroke:#000000;stroke-miterlimit:10;" d="M1316.96,433.65c-0.6-0.26-1.3-0.11-1.74,0.38
			c-2.04,2.28-2.93,6.1-2.07,10.08c0.97,4.45,3.85,7.79,7.06,8.66c2.56-2.12,3.79-6.36,2.82-10.81
			C1322.16,437.98,1319.76,434.87,1316.96,433.65z"></path>
	</g>
	<g>
		<g>
			<circle style="fill:none;stroke:#000000;stroke-miterlimit:10;" cx="601.13" cy="768.64" r="14.32"></circle>
		</g>
		<g>
			<circle style="fill:none;stroke:#000000;stroke-miterlimit:10;" cx="601.13" cy="768.64" r="8.15"></circle>
		</g>
		<g>
			<ellipse style="fill:none;stroke:#000000;stroke-miterlimit:10;" cx="628.91" cy="760.06" rx="2.22" ry="3.6"></ellipse>
			<line style="fill:none;stroke:#000000;stroke-miterlimit:10;" x1="628.91" y1="763.66" x2="628.91" y2="779.44"></line>
		</g>
		<g>
			<path style="fill:none;stroke:#000000;stroke-miterlimit:10;" d="M577.76,756.45v3.6c0,1.99,0.99,3.6,2.22,3.6
				c1.23,0,2.22-1.61,2.22-3.6v-3.6"></path>
			<line style="fill:none;stroke:#000000;stroke-miterlimit:10;" x1="579.98" y1="763.66" x2="579.98" y2="779.44"></line>
		</g>
		<line style="fill:none;stroke:#000000;stroke-miterlimit:10;" x1="579.98" y1="756.45" x2="579.98" y2="763.66"></line>
		<g>
			<path style="fill:none;stroke:#000000;stroke-miterlimit:10;" d="M623.44,769.79H620v-13.34l0,0c1.9,0,3.44,1.54,3.44,3.44
				V769.79z"></path>
			<path style="fill:none;stroke:#000000;stroke-miterlimit:10;" d="M621.72,779.44L621.72,779.44c-0.95,0-1.72-0.77-1.72-1.72
				v-7.92h3.44v7.92C623.44,778.67,622.67,779.44,621.72,779.44z"></path>
		</g>
	</g>
	<g>
		<g>
			<circle style="fill:none;stroke:#000000;stroke-miterlimit:10;" cx="601.13" cy="673.7" r="14.32"></circle>
		</g>
		<g>
			<circle style="fill:none;stroke:#000000;stroke-miterlimit:10;" cx="601.13" cy="673.7" r="8.15"></circle>
		</g>
		<g>
			<ellipse style="fill:none;stroke:#000000;stroke-miterlimit:10;" cx="628.91" cy="682.28" rx="2.22" ry="3.6"></ellipse>
			<line style="fill:none;stroke:#000000;stroke-miterlimit:10;" x1="628.91" y1="678.67" x2="628.91" y2="662.9"></line>
		</g>
		<g>
			<path style="fill:none;stroke:#000000;stroke-miterlimit:10;" d="M577.76,685.88v-3.6c0-1.99,0.99-3.6,2.22-3.6
				c1.23,0,2.22,1.61,2.22,3.6v3.6"></path>
			<line style="fill:none;stroke:#000000;stroke-miterlimit:10;" x1="579.98" y1="678.67" x2="579.98" y2="662.9"></line>
		</g>
		<line style="fill:none;stroke:#000000;stroke-miterlimit:10;" x1="579.98" y1="685.88" x2="579.98" y2="678.67"></line>
		<g>
			<path style="fill:none;stroke:#000000;stroke-miterlimit:10;" d="M623.44,672.54H620v13.34l0,0c1.9,0,3.44-1.54,3.44-3.44V672.54
				z"></path>
			<path style="fill:none;stroke:#000000;stroke-miterlimit:10;" d="M621.72,662.9L621.72,662.9c-0.95,0-1.72,0.77-1.72,1.72v7.92
				h3.44v-7.92C623.44,663.67,622.67,662.9,621.72,662.9z"></path>
		</g>
	</g>
	<g>
		<g>
			<circle style="fill:none;stroke:#000000;stroke-miterlimit:10;" cx="553.79" cy="715.74" r="14.32"></circle>
		</g>
		<g>
			<circle style="fill:none;stroke:#000000;stroke-miterlimit:10;" cx="553.79" cy="715.74" r="8.15"></circle>
		</g>
		<g>
			<ellipse style="fill:none;stroke:#000000;stroke-miterlimit:10;" cx="562.38" cy="743.52" rx="3.6" ry="2.22"></ellipse>
			<line style="fill:none;stroke:#000000;stroke-miterlimit:10;" x1="558.77" y1="743.52" x2="543" y2="743.52"></line>
		</g>
		<g>
			<path style="fill:none;stroke:#000000;stroke-miterlimit:10;" d="M565.98,692.37h-3.6c-1.99,0-3.6,0.99-3.6,2.22
				c0,1.23,1.61,2.22,3.6,2.22h3.6"></path>
			<line style="fill:none;stroke:#000000;stroke-miterlimit:10;" x1="558.77" y1="694.59" x2="543" y2="694.59"></line>
		</g>
		<line style="fill:none;stroke:#000000;stroke-miterlimit:10;" x1="565.98" y1="694.59" x2="558.77" y2="694.59"></line>
		<g>
			<path style="fill:none;stroke:#000000;stroke-miterlimit:10;" d="M552.64,738.05v-3.44h13.34l0,0c0,1.9-1.54,3.44-3.44,3.44
				H552.64z"></path>
			<path style="fill:none;stroke:#000000;stroke-miterlimit:10;" d="M543,736.33L543,736.33c0-0.95,0.77-1.72,1.72-1.72h7.92v3.44
				h-7.92C543.77,738.05,543,737.28,543,736.33z"></path>
		</g>
	</g>
	<g>
		<g>
			
				<rect x="959.75" y="820.41" transform="matrix(-0.5197 -0.8544 0.8544 -0.5197 749.2637 2091.6514)" style="fill:none;stroke:#000000;stroke-miterlimit:10;" width="5.69" height="29.59"></rect>
			<g>
				
					<rect x="949.05" y="814.65" transform="matrix(-0.2879 -0.9577 0.9577 -0.2879 431.5624 1979.8114)" style="fill:none;stroke:#000000;stroke-miterlimit:10;" width="5.69" height="29.59"></rect>
				
					<rect x="939.03" y="802.96" transform="matrix(-0.2879 -0.9577 0.9577 -0.2879 438.2306 1961.3969)" style="fill:none;stroke:#000000;stroke-miterlimit:10;" width="18.72" height="29.59"></rect>
			</g>
		</g>
		<polygon style="fill:none;stroke:#000000;stroke-miterlimit:10;" points="964.03,809.1 961.66,810.54 966.89,827.91 
			944.86,834.53 948.47,840.47 973.76,825.09 		"></polygon>
	</g>
	<g>
		<path style="fill:none;stroke:#000000;stroke-miterlimit:10;" d="M1735.45,1067.09h-58.91c-1.81,0-3.28-1.47-3.28-3.28v-38.14
			c0-1.81,1.47-3.28,3.28-3.28l58.91,0c1.81,0,3.28,1.47,3.28,3.28v38.14C1738.74,1065.62,1737.27,1067.09,1735.45,1067.09z"></path>
		<rect x="1680.79" y="1026.89" style="fill:none;stroke:#000000;stroke-miterlimit:10;" width="50.42" height="21.75"></rect>
		<rect x="1695.85" y="1052.07" style="fill:none;stroke:#000000;stroke-miterlimit:10;" width="20.3" height="12.29"></rect>
		<path style="fill:none;stroke:#000000;stroke-miterlimit:10;" d="M1738.74,1022.38l-65.48,0l-7.27-13.91
			c-1.02-1.94,0.39-4.27,2.59-4.27l74.84,0c2.19,0,3.6,2.33,2.59,4.27L1738.74,1022.38z"></path>
	</g>
	<g>
		<circle style="fill:none;stroke:#000000;stroke-miterlimit:10;" cx="1377.01" cy="903.64" r="7.3"></circle>
		<circle style="fill:none;stroke:#000000;stroke-miterlimit:10;" cx="1377.01" cy="903.64" r="5.16"></circle>
		<line style="fill:none;stroke:#000000;stroke-miterlimit:10;" x1="1373.09" y1="909.37" x2="1370.19" y2="913.6"></line>
		<path style="fill:none;stroke:#000000;stroke-miterlimit:10;" d="M1358.38,903.64c0,5.73,2.64,10.79,6.71,14.21l2.59-3.77
			c0.57-0.83,1.7-1.04,2.53-0.47c0.51,0.35,0.79,0.92,0.79,1.5c0,0.35-0.1,0.71-0.32,1.03l-2.58,3.76c2.66,1.46,5.67,2.37,8.92,2.37
			c10.29,0,18.63-8.34,18.63-18.63c0-10.29-8.34-18.63-18.63-18.63C1366.72,885.01,1358.38,893.35,1358.38,903.64z"></path>
		<g>
			
				<rect x="1342.81" y="940.58" transform="matrix(0.5655 -0.8248 0.8248 0.5655 -192.379 1519.6403)" style="fill:none;stroke:#000000;stroke-miterlimit:10;" width="6.46" height="3.63"></rect>
			
				<rect x="1348.8" y="944.69" transform="matrix(0.5655 -0.8248 0.8248 0.5655 -193.1668 1526.3588)" style="fill:none;stroke:#000000;stroke-miterlimit:10;" width="6.46" height="3.63"></rect>
		</g>
		<g>
			<path style="fill:none;stroke:#000000;stroke-miterlimit:10;" d="M1357.22,929.31c-1.58-0.76-3.33-1.21-5.2-1.21
				c-6.71,0-12.14,5.44-12.14,12.14c0,3.47,1.47,6.58,3.81,8.8L1357.22,929.31z"></path>
			<path style="fill:none;stroke:#000000;stroke-miterlimit:10;" d="M1346.68,951.1c1.62,0.8,3.41,1.29,5.34,1.29
				c6.71,0,12.14-5.44,12.14-12.14c0-3.53-1.53-6.68-3.93-8.89L1346.68,951.1z"></path>
		</g>
		<g>
			<path style="fill:none;stroke:#000000;stroke-miterlimit:10;" d="M1370.99,915.11c0,0.35-0.1,0.71-0.32,1.03l-27.48,40.05
				c-0.57,0.83-1.7,1.04-2.53,0.47c-0.83-0.57-1.04-1.69-0.47-2.53l27.48-40.05c0.57-0.83,1.7-1.04,2.53-0.47
				C1370.71,913.96,1370.99,914.53,1370.99,915.11z"></path>
		</g>
	</g>
	<g>
		<circle style="fill:none;stroke:#000000;stroke-miterlimit:10;" cx="1715.33" cy="903.64" r="7.3"></circle>
		<circle style="fill:none;stroke:#000000;stroke-miterlimit:10;" cx="1715.33" cy="903.64" r="5.16"></circle>
		<line style="fill:none;stroke:#000000;stroke-miterlimit:10;" x1="1719.24" y1="909.37" x2="1722.14" y2="913.6"></line>
		<path style="fill:none;stroke:#000000;stroke-miterlimit:10;" d="M1733.96,903.64c0,5.73-2.64,10.79-6.71,14.21l-2.59-3.77
			c-0.57-0.83-1.7-1.04-2.53-0.47c-0.51,0.35-0.79,0.92-0.79,1.5c0,0.35,0.1,0.71,0.32,1.03l2.58,3.76
			c-2.66,1.46-5.67,2.37-8.92,2.37c-10.29,0-18.63-8.34-18.63-18.63c0-10.29,8.34-18.63,18.63-18.63
			C1725.62,885.01,1733.96,893.35,1733.96,903.64z"></path>
		<g>
			
				<rect x="1744.48" y="939.17" transform="matrix(0.8248 -0.5655 0.5655 0.8248 -226.8886 1152.6537)" style="fill:none;stroke:#000000;stroke-miterlimit:10;" width="3.63" height="6.46"></rect>
			
				<rect x="1738.49" y="943.28" transform="matrix(0.8248 -0.5655 0.5655 0.8248 -230.2606 1149.9957)" style="fill:none;stroke:#000000;stroke-miterlimit:10;" width="3.63" height="6.46"></rect>
		</g>
		<g>
			<path style="fill:none;stroke:#000000;stroke-miterlimit:10;" d="M1735.11,929.31c1.58-0.76,3.33-1.21,5.2-1.21
				c6.71,0,12.14,5.44,12.14,12.14c0,3.47-1.47,6.58-3.81,8.8L1735.11,929.31z"></path>
			<path style="fill:none;stroke:#000000;stroke-miterlimit:10;" d="M1745.66,951.1c-1.62,0.8-3.41,1.29-5.34,1.29
				c-6.71,0-12.14-5.44-12.14-12.14c0-3.53,1.53-6.68,3.93-8.89L1745.66,951.1z"></path>
		</g>
		<g>
			<path style="fill:none;stroke:#000000;stroke-miterlimit:10;" d="M1721.34,915.11c0,0.35,0.1,0.71,0.32,1.03l27.48,40.05
				c0.57,0.83,1.7,1.04,2.53,0.47c0.83-0.57,1.04-1.69,0.47-2.53l-27.48-40.05c-0.57-0.83-1.7-1.04-2.53-0.47
				C1721.62,913.96,1721.34,914.53,1721.34,915.11z"></path>
		</g>
	</g>
	<g>
		<path style="fill:none;stroke:#000000;stroke-miterlimit:10;" d="M1611.02,1450.21l2.6-3.79c1.71-2.48,5.11-3.11,7.59-1.4l0,0
			c2.48,1.71,3.11,5.11,1.4,7.59l-2.6,3.79c-1.71,2.48-5.11,3.11-7.59,1.4v0C1609.94,1456.09,1609.31,1452.69,1611.02,1450.21z"></path>
		<path style="fill:none;stroke:#000000;stroke-miterlimit:10;" d="M1613.41,1446.41l-1.32-9.44c-0.42-2.98-3.17-5.07-6.16-4.65
			c-2.98,0.42-5.07,3.17-4.65,6.16l1.27,9.08"></path>
		<path style="fill:none;stroke:#000000;stroke-miterlimit:10;" d="M1591.57,1478.47l2.6-3.79c1.71-2.48,5.11-3.11,7.59-1.4l0,0
			c2.48,1.71,3.11,5.11,1.4,7.59l-2.6,3.79c-1.71,2.48-5.11,3.11-7.59,1.4l0,0C1590.49,1484.35,1589.87,1480.96,1591.57,1478.47z"></path>
		<path style="fill:none;stroke:#000000;stroke-miterlimit:10;" d="M1591.57,1478.47l2.6-3.79c1.71-2.48,5.11-3.11,7.59-1.4l0,0
			c2.48,1.71,3.11,5.11,1.4,7.59l-2.6,3.79c-1.71,2.48-5.11,3.11-7.59,1.4l0,0C1590.49,1484.35,1589.87,1480.96,1591.57,1478.47z"></path>
		<path style="fill:none;stroke:#000000;stroke-miterlimit:10;" d="M1589.45,1463.46c-3.86-2.66-4.84-7.94-2.18-11.8
			s7.94-4.84,11.8-2.18L1589.45,1463.46z"></path>
		<path style="fill:none;stroke:#000000;stroke-miterlimit:10;" d="M1601.35,1437.4l-1.33-1.86c-2.02-2.83-5.95-3.48-8.78-1.46
			c-2.83,2.02-3.48,5.95-1.46,8.78l3.72,5.2"></path>
		<path style="fill:none;stroke:#000000;stroke-miterlimit:10;" d="M1603.17,1480.87l-1.6,2.33c6.26,0.45,13.22-3,17.71-9.52
			c4.49-6.53,5.23-14.26,2.56-19.94l-1.83,2.66c-1.71,2.48-5.11,3.11-7.59,1.4c-2.48-1.71-3.11-5.11-1.4-7.59l2.51-3.64
			c-4.6-1.33-9.9-0.2-14.47,2.91c0,0-9.61,13.98-9.62,13.98c-1.27,5.38-0.44,10.73,2.45,14.55l2.28-3.31
			c1.71-2.48,5.11-3.11,7.59-1.4C1604.25,1474.99,1604.88,1478.39,1603.17,1480.87z"></path>
		<path style="fill:none;stroke:#000000;stroke-miterlimit:10;" d="M1589.06,1450.27c0.98,0.68,1.23,2.02,0.56,3
			c-0.68,0.98-2.02,1.23-3,0.56l0.66-2.17L1589.06,1450.27z"></path>
		<path style="fill:none;stroke:#000000;stroke-miterlimit:10;" d="M1599.52,1449.45c0.98,0.68,1.23,2.02,0.56,3
			c-0.68,0.98-2.02,1.23-3,0.56L1599.52,1449.45z"></path>
		<path style="fill:none;stroke:#000000;stroke-miterlimit:10;" d="M1592.06,1460.3c0.98,0.68,1.23,2.02,0.56,3s-2.02,1.23-3,0.56
			L1592.06,1460.3z"></path>
		<path style="fill:none;stroke:#000000;stroke-miterlimit:10;" d="M1586.33,1459.48l-6.07-2.13c-3.28-1.15-6.87,0.57-8.02,3.85
			c-1.15,3.28,0.57,6.87,3.85,8.02l2.76,0.96c0.23-0.09,0.55-0.19,0.8-0.25l9.26-2.14"></path>
		<path style="fill:none;stroke:#000000;stroke-miterlimit:10;" d="M1579.64,1469.93c-0.28,0.06-0.54,0.15-0.8,0.25
			c-2.46,0.98-3.91,3.63-3.29,6.3c0.68,2.94,3.61,4.77,6.54,4.09l9.29-2.14c0.11-0.03,0.2-0.1,0.31-0.13l0.2-0.29"></path>
	</g>
	<g>
		<circle style="fill:none;stroke:#000000;stroke-miterlimit:10;" cx="1525.43" cy="1079.21" r="16.84"></circle>
		<circle style="fill:none;stroke:#000000;stroke-miterlimit:10;" cx="1525.43" cy="1079.21" r="12.35"></circle>
		<circle style="fill:none;stroke:#000000;stroke-miterlimit:10;" cx="1525.43" cy="1079.21" r="7.85"></circle>
		<path style="fill:none;stroke:#000000;stroke-miterlimit:10;" d="M1563.91,1052.94c-6.8,0.27-12.11,6.03-11.84,12.84
			c0.27,6.8,6.03,12.11,12.84,11.84c6.8-0.27,12.11-6.03,11.84-12.84C1576.48,1057.97,1570.72,1052.66,1563.91,1052.94z
			 M1564.73,1073.12c-4.33,0.17-7.99-3.2-8.17-7.53c-0.17-4.33,3.2-7.99,7.53-8.17c4.33-0.17,7.99,3.2,8.17,7.53
			S1569.06,1072.95,1564.73,1073.12z"></path>
		<circle style="fill:none;stroke:#000000;stroke-miterlimit:10;" cx="1525.43" cy="1079.21" r="3.36"></circle>
		<g>
			<g>
				<path style="fill:none;stroke:#000000;stroke-miterlimit:10;" d="M1561.68,1109.29l-10.25,0.41c-1.15,0.05-2.11-0.85-2.16-1.99
					l-0.41-10.25c-0.05-1.15,0.85-2.11,1.99-2.16l10.25-0.41c1.15-0.05,2.11,0.85,2.16,1.99l0.41,10.25
					C1563.72,1108.28,1562.82,1109.24,1561.68,1109.29z"></path>
				<g>
					<path d="M1555.06,1098.03l2.1-0.08l3.19,8.5l-1.66,0.07l-0.77-2.1l-3.29,0.13l-0.59,2.16l-1.51,0.06L1555.06,1098.03z
						 M1554.95,1103.36l2.54-0.1l-1.43-3.95L1554.95,1103.36z"></path>
				</g>
			</g>
			<g>
				<path style="fill:none;stroke:#000000;stroke-miterlimit:10;" d="M1582.37,1116l-7.58,6.91c-0.85,0.77-2.16,0.71-2.93-0.13
					l-6.91-7.58c-0.77-0.85-0.71-2.16,0.13-2.93l7.58-6.91c0.85-0.77,2.16-0.71,2.93,0.13l6.91,7.58
					C1583.28,1113.91,1583.22,1115.23,1582.37,1116z"></path>
				<g>
					<path d="M1568.42,1113.14l2.28-2.08c1.31-1.2,2.54-1.4,3.6-0.25l0.03,0.04c0.58,0.63,0.75,1.39,0.23,2.27
						c1.03-0.6,1.87-0.5,2.64,0.34l0.03,0.04c1.08,1.18,0.84,2.5-0.56,3.77l-2.45,2.24L1568.42,1113.14z M1573.01,1113.88
						c0.78-0.72,0.83-1.28,0.23-1.93l-0.03-0.04c-0.55-0.61-1.13-0.55-1.89,0.14l-0.96,0.88l1.67,1.84L1573.01,1113.88z
						 M1575.77,1116.56c0.79-0.72,0.83-1.41,0.23-2.07l-0.03-0.04c-0.6-0.66-1.27-0.66-2.14,0.14l-1.07,0.98l1.86,2.04
						L1575.77,1116.56z"></path>
				</g>
			</g>
			<g>
				<path style="fill:none;stroke:#000000;stroke-miterlimit:10;" d="M1577.88,1101.43l-10.25,0.41c-1.15,0.05-2.11-0.85-2.16-1.99
					l-0.41-10.25c-0.05-1.15,0.85-2.11,1.99-2.16l10.25-0.41c1.15-0.05,2.11,0.85,2.16,1.99l0.41,10.25
					C1579.92,1100.41,1579.02,1101.38,1577.88,1101.43z"></path>
				<g>
					<path d="M1568.78,1094.64l0-0.1c-0.1-2.59,1.61-4.47,4-4.57c1.98-0.08,3.55,0.85,3.82,2.86l-1.63,0.07
						c-0.23-1.14-0.89-1.7-2.13-1.65c-1.52,0.06-2.46,1.28-2.38,3.21l0,0.1c0.08,1.94,1.05,3.05,2.64,2.98
						c1.19-0.05,2.01-0.68,2.13-1.91l1.57-0.06c-0.17,2.08-1.6,3.19-3.65,3.27C1570.47,1098.95,1568.89,1097.29,1568.78,1094.64z"></path>
				</g>
			</g>
		</g>
	</g>
	<g>
		<circle style="fill:none;stroke:#000000;stroke-miterlimit:10;" cx="1580.67" cy="1416.88" r="5.88"></circle>
		<g>
			<circle style="fill:none;stroke:#000000;stroke-miterlimit:10;" cx="1579.04" cy="1416.13" r="0.63"></circle>
			<circle style="fill:none;stroke:#000000;stroke-miterlimit:10;" cx="1582.45" cy="1417.13" r="0.63"></circle>
		</g>
		<polygon style="fill:none;stroke:#000000;stroke-miterlimit:10;" points="1578.96,1418.2 1581.4,1418.92 1579.82,1419.78 		"></polygon>
		<path style="fill:none;stroke:#000000;stroke-miterlimit:10;" d="M1574.39,1438.34L1574.39,1438.34
			c-3.45-1.01-5.14-4.91-3.52-8.12l3.17-6.28c0.73-1.46,2.4-2.18,3.97-1.72l2.04,0.6c1.57,0.46,2.58,1.97,2.41,3.59l-0.72,7
			C1581.36,1436.98,1577.84,1439.35,1574.39,1438.34z"></path>
		<path style="fill:none;stroke:#000000;stroke-miterlimit:10;" d="M1587.58,1429.16l-5.31-4.32l-0.05,0.06
			c0.18,0.48,0.29,0.98,0.23,1.51l-0.3,2.88l3.19,2.6c0.75,0.61,1.86,0.5,2.48-0.25
			C1588.44,1430.88,1588.33,1429.77,1587.58,1429.16z"></path>
		<path style="fill:none;stroke:#000000;stroke-miterlimit:10;" d="M1568.56,1426.97l4.19-0.48l1.29-2.55
			c0.23-0.45,0.56-0.8,0.94-1.1l-0.02-0.15l-6.8,0.78c-0.97,0.11-1.66,0.98-1.55,1.95S1567.59,1427.08,1568.56,1426.97z"></path>
		<path style="fill:none;stroke:#000000;stroke-miterlimit:10;" d="M1574.58,1438.37l-1.68,5c-0.4,1.18,0.24,2.46,1.42,2.86
			c1.18,0.4,2.46-0.24,2.86-1.42l2.58-7.67C1578.38,1438.33,1576.49,1438.86,1574.58,1438.37z"></path>
		<path style="fill:none;stroke:#000000;stroke-miterlimit:10;" d="M1570.26,1432.8l-0.16-0.1l-4.48,7.01
			c-0.67,1.05-0.36,2.45,0.69,3.12c1.05,0.67,2.45,0.36,3.12-0.69l3.07-4.8C1571.09,1436.25,1570.25,1434.57,1570.26,1432.8z"></path>
		<path style="fill:none;stroke:#000000;stroke-miterlimit:10;" d="M1579.95,1411.05l-1.06-9.16c-0.16-1.38-1.45-2.35-2.82-2.1
			s-2.25,1.59-1.93,2.94l2.4,10.01C1577.46,1411.82,1578.65,1411.21,1579.95,1411.05z"></path>
		<path style="fill:none;stroke:#000000;stroke-miterlimit:10;" d="M1588.31,1401.07c-1.34-0.39-2.73,0.42-3.04,1.78l-2.01,8.77
			c1.34,0.66,2.33,1.79,2.85,3.12l3.79-10.53C1590.38,1402.9,1589.65,1401.46,1588.31,1401.07z"></path>
	</g>
	<g>
		<polygon style="fill:none;stroke:#000000;stroke-miterlimit:10;" points="865.51,1130.27 869.86,1135.02 867.24,1140.94 
			859.39,1132.36 		"></polygon>
		<g>
			
				<rect x="857.47" y="1133.1" transform="matrix(0.7375 -0.6754 0.6754 0.7375 -543.2105 880.4089)" style="fill:none;stroke:#000000;stroke-miterlimit:10;" width="6.72" height="11.63"></rect>
			<polygon style="fill:none;stroke:#000000;stroke-miterlimit:10;" points="845.63,1145.48 827.69,1164.9 832.04,1169.66 
				852.96,1153.49 			"></polygon>
		</g>
		<line style="fill:none;stroke:#000000;stroke-miterlimit:10;" x1="835.59" y1="1162.04" x2="829.87" y2="1167.28"></line>
		<path style="fill:none;stroke:#000000;stroke-miterlimit:10;" d="M824.54,1161.46l3.15,3.44l5.3-5.71l-2.72-2.97
			c-1.45-1.58-3.9-1.69-5.48-0.24l0,0C823.2,1157.42,823.09,1159.88,824.54,1161.46z"></path>
		<path style="fill:none;stroke:#000000;stroke-miterlimit:10;" d="M835.2,1173.1l-3.15-3.44l6.15-4.78l2.72,2.98
			c1.45,1.58,1.34,4.04-0.24,5.48l0,0C839.1,1174.79,836.65,1174.68,835.2,1173.1z"></path>
		<path style="fill:none;stroke:#000000;stroke-miterlimit:10;" d="M865.47,1167.15l-32.36-35.33c-2.29-2.5-2.12-6.39,0.38-8.68l0,0
			c2.5-2.29,6.39-2.12,8.68,0.38l32.36,35.33c2.29,2.5,2.12,6.39-0.38,8.68h0C871.65,1169.83,867.77,1169.66,865.47,1167.15z"></path>
	</g>
	<g>
		<circle style="fill:none;stroke:#000000;stroke-miterlimit:10;" cx="530.08" cy="1468.23" r="23.56"></circle>
		<g>
			<path style="fill:none;stroke:#000000;stroke-miterlimit:10;" d="M538.66,1489.04c-7.27,0-13.16-9.32-13.16-20.83
				c0-11.5,5.89-20.83,13.16-20.83c1.66,0,3.24,0.51,4.7,1.39c-3.78-2.59-8.35-4.11-13.28-4.11c-13.01,0-23.56,10.55-23.56,23.56
				s10.55,23.56,23.56,23.56c5.05,0,9.73-1.61,13.56-4.32C542.1,1488.48,540.42,1489.04,538.66,1489.04z"></path>
		</g>
		<path style="fill:none;stroke:#000000;stroke-miterlimit:10;" d="M537.38,1488.93c-6.67-1.02-11.88-9.9-11.88-20.72
			c0-10.79,5.19-19.67,11.83-20.72"></path>
		<path style="fill:none;stroke:#000000;stroke-miterlimit:10;" d="M530.9,1444.67c-7.49,0-13.57,10.55-13.57,23.56
			s6.08,23.56,13.57,23.56"></path>
	</g>
	<g>
		<g>
			<path style="fill:none;stroke:#000000;stroke-miterlimit:10;" d="M887.4,426.03l-7.29,20.75l8.88,3.12
				c1.8-5.12,7.41-7.82,12.54-6.02s7.82,7.41,6.02,12.54l8.07,2.84l7.29-20.75L887.4,426.03z"></path>
			
				<rect x="896.21" y="454.32" transform="matrix(0.9485 -0.3168 0.3168 0.9485 -101.6498 309.8821)" style="fill:none;stroke:#000000;stroke-miterlimit:10;" width="12.1" height="26.51"></rect>
			<g>
				
					<rect x="929.04" y="428.56" transform="matrix(0.8654 0.5011 -0.5011 0.8654 346.5017 -411.7119)" style="fill:none;stroke:#000000;stroke-miterlimit:10;" width="21.07" height="21.07"></rect>
				<line style="fill:none;stroke:#000000;stroke-miterlimit:10;" x1="935.74" y1="424.7" x2="943.41" y2="453.49"></line>
				<line style="fill:none;stroke:#000000;stroke-miterlimit:10;" x1="953.97" y1="435.25" x2="925.18" y2="442.93"></line>
			</g>
			<path style="fill:none;stroke:#000000;stroke-miterlimit:10;" d="M878.43,457.87l-11.46-13.93c0.87-0.51,1.33-1.54,0.99-2.54
				c-0.38-1.14-1.62-1.76-2.76-1.38c-1.14,0.38-1.76,1.62-1.38,2.76c0.33,1,1.32,1.55,2.32,1.43l-0.78,18.02L878.43,457.87z"></path>
			<path style="fill:none;stroke:#000000;stroke-miterlimit:10;" d="M936.24,485.72l-0.5-18.03c1,0.13,1.99-0.41,2.34-1.4
				c0.4-1.14-0.2-2.38-1.34-2.78c-1.14-0.4-2.38,0.2-2.78,1.34c-0.35,0.99,0.09,2.03,0.95,2.55l-11.67,13.76L936.24,485.72z"></path>
			<circle style="fill:none;stroke:#000000;stroke-miterlimit:10;" cx="899.29" cy="495.24" r="6.37"></circle>
		</g>
		<polygon style="fill:none;stroke:#000000;stroke-miterlimit:10;" points="888.9,462.66 876.36,462.64 870.07,473.5 876.33,484.37 
			888.88,484.39 895.16,473.53 		"></polygon>
	</g>
</g>
<g id="floor">
	<g>
		<polygon points="1849.76,875.92 1801.94,875.92 1801.94,964.47 1203.34,964.47 1203.34,985.72 1801.94,985.72 1801.94,1035.31 
			1849.76,1035.31 1849.76,1044.16 1899.35,1044.16 1899.35,867.06 1849.76,867.06 		"></polygon>
		<polygon points="1899.35,1309.82 1849.76,1309.82 1849.76,1318.67 1801.94,1318.67 1801.94,1514.37 791.58,1514.37 
			791.58,1517.91 769.45,1517.91 769.45,1517.91 603.86,1517.91 603.86,1514.37 441.81,1514.37 441.81,1562.19 603.86,1562.19 
			760.35,1562.19 760.35,1562.19 800.68,1562.19 800.68,1562.19 1801.94,1562.19 1816.99,1562.19 1849.76,1562.19 1899.35,1562.19 
					"></polygon>
		<polygon points="1640.78,344.62 1640.78,392.43 1801.94,392.43 1801.94,539.43 1849.76,539.43 1849.76,548.28 1899.35,548.28 
			1899.35,392.43 1899.35,344.61 1899.35,295.03 1885.18,295.03 1631.92,295.03 1631.92,344.62 		"></polygon>
		<polygon points="958.94,344.62 958.94,392.43 1357.42,392.43 1357.42,344.62 1366.27,344.62 1366.27,295.03 950.09,295.03 
			950.09,344.62 		"></polygon>
		<polygon points="649.01,344.62 649.01,392.44 808.4,392.43 808.4,344.62 817.26,344.62 817.26,295.03 640.16,295.03 
			640.16,344.62 		"></polygon>
		<polygon points="374.51,295.03 100,295.03 100,392.44 100,392.44 100,1531.26 100,1531.26 100,1562.19 140.74,1562.19 
			185.01,1562.19 264.71,1562.19 264.71,1514.37 188.55,1514.37 188.55,392.44 365.65,392.44 365.65,344.62 374.51,344.62 		"></polygon>
		<rect x="990.82" y="392.43" width="21.25" height="572.04"></rect>
		<rect x="990.82" y="964.47" width="53.13" height="21.25"></rect>
		<rect x="1219.28" y="985.72" width="21.25" height="28.34"></rect>
		<rect x="1219.28" y="1173.45" width="21.25" height="33.65"></rect>
		<polygon points="1219.28,1185.85 1134.27,1185.85 1038.64,1185.85 1038.64,1205.33 1114.79,1205.33 1114.79,1514.37 
			1134.27,1514.37 1134.27,1207.1 1219.28,1207.1 		"></polygon>
		<rect x="791.58" y="1205.33" width="29.22" height="309.04"></rect>
		<rect x="603.85" y="1185.85" width="293.1" height="19.48"></rect>
		<rect x="584.37" y="1185.85" width="19.48" height="24.79"></rect>
		<rect x="584.37" y="1352.32" width="19.48" height="162.05"></rect>
		<polygon points="284.19,1176.02 188.55,1176.02 188.55,1186.65 284.19,1186.65 284.19,1230.92 188.55,1230.92 188.55,1241.55 
			284.19,1241.55 294.81,1241.55 294.81,1176.02 		"></polygon>
	</g>
	<g id="LWPOLYLINE_00000078738071990563368640000012952237448577176984_">
		
			<line style="fill:none;stroke:#000000;stroke-linecap:round;stroke-linejoin:round;stroke-miterlimit:10;" x1="777.26" y1="1562.19" x2="918.21" y2="1562.19"></line>
	</g>
	<g id="LWPOLYLINE_00000036215223789325518260000000711258051826018953_">
		
			<line style="fill:none;stroke:#000000;stroke-linecap:round;stroke-linejoin:round;stroke-miterlimit:10;" x1="670.47" y1="1427.44" x2="717.45" y2="1427.44"></line>
	</g>
	<g id="LWPOLYLINE_00000026153490968467232170000009996723402377833910_">
		<path style="fill:none;stroke:#000000;stroke-linecap:round;stroke-linejoin:round;stroke-miterlimit:10;" d="M721.15,1419.61
			l0-32.89c0-17.3-14.02-31.32-31.32-31.32c-17.3,0-31.32,14.02-31.32,31.32l0,32.89c0,4.32,3.51,7.83,7.83,7.83l46.99,0
			C717.64,1427.44,721.15,1423.94,721.15,1419.61C721.15,1419.62,721.15,1419.62,721.15,1419.61z"></path>
	</g>
	<g id="LWPOLYLINE_00000136410054619177989060000002547146271297423293_">
		<path style="fill:none;stroke:#000000;stroke-linecap:round;stroke-linejoin:round;stroke-miterlimit:10;" d="M664.77,1386.72
			l0,10.98c0,13.84,11.22,25.06,25.06,25.05c13.84,0,25.05-11.22,25.05-25.05v-10.98c0-13.84-11.22-25.06-25.06-25.05
			C675.99,1361.67,664.77,1372.89,664.77,1386.72z"></path>
	</g>
	<g id="LWPOLYLINE_00000132064722507749294140000002361390563912958869_">
		<path style="fill:none;stroke:#000000;stroke-linecap:round;stroke-linejoin:round;stroke-miterlimit:10;" d="M680.43,1396.8
			v10.98c0,5.19,4.21,9.4,9.4,9.4c5.19,0,9.4-4.21,9.4-9.4c0,0,0,0,0,0l0-10.98c0-5.19-4.21-9.4-9.4-9.39
			C684.64,1387.41,680.43,1391.62,680.43,1396.8z"></path>
	</g>
	<g id="LWPOLYLINE_00000082345571897896294590000010979478858946446510_">
		
			<rect x="639.89" y="1427.44" style="fill:none;stroke:#000000;stroke-linecap:round;stroke-linejoin:round;stroke-miterlimit:10;" width="99.86" height="24.06"></rect>
	</g>
	<g id="LWPOLYLINE_00000089563141376469152860000016438787758912241028_">
		
			<line style="fill:none;stroke:#000000;stroke-linecap:round;stroke-linejoin:round;stroke-miterlimit:10;" x1="603.86" y1="1451.5" x2="791.58" y2="1451.5"></line>
	</g>
	<g id="LWPOLYLINE_00000166662348358510423640000008476579197937315200_">
		
			<line style="fill:none;stroke:#000000;stroke-linecap:round;stroke-linejoin:round;stroke-miterlimit:10;" x1="791.58" y1="1312.98" x2="791.58" y2="1241.1"></line>
	</g>
	<g id="LWPOLYLINE_00000033329649357141322860000000927528899703554713_">
		<path style="fill:none;stroke:#000000;stroke-linecap:round;stroke-linejoin:round;stroke-miterlimit:10;" d="M791.58,1241.1
			l-36.92,0c-5.2,0-9.81,3.36-11.4,8.31c-5.78,17.97-5.78,37.3,0,55.27c1.59,4.95,6.2,8.31,11.4,8.31l36.92,0"></path>
	</g>
	<g id="LWPOLYLINE_00000062870849577118284010000011136368270933160889_">
		<path style="fill:none;stroke:#000000;stroke-linecap:round;stroke-linejoin:round;stroke-miterlimit:10;" d="M781.25,1296.21
			c0,3.97-3.22,7.19-7.19,7.19h-11.5c-2.63,0-4.96-1.72-5.73-4.24c-4.41-14.42-4.41-29.82,0-44.24c0.77-2.52,3.09-4.23,5.73-4.24
			h11.5c3.97,0,7.19,3.22,7.19,7.19"></path>
	</g>
	<g id="LWPOLYLINE_00000003809918460837923790000012458610892635913629_">
		<path style="fill:none;stroke:#000000;stroke-linecap:round;stroke-linejoin:round;stroke-miterlimit:10;" d="M774.06,1245.89
			l-19.4,0c-3.12,0-5.89,2.01-6.84,4.98c-5.48,17.01-5.48,35.32,0,52.33c0.96,2.97,3.72,4.98,6.84,4.98h19.4
			c3.97,0,7.19-3.22,7.19-7.19l0-47.92C781.25,1249.11,778.03,1245.89,774.06,1245.89z"></path>
	</g>
	<g id="LWPOLYLINE_00000060003218774673842210000004408138241967308478_">
		<path style="fill:none;stroke:#000000;stroke-linecap:round;stroke-linejoin:round;stroke-miterlimit:10;" d="M779.11,1277.04
			c0-1.78-1.44-3.23-3.22-3.23c-1.78,0-3.22,1.45-3.22,3.23c0,1.78,1.44,3.22,3.22,3.22c0,0,0,0,0,0
			C777.67,1280.27,779.11,1278.82,779.11,1277.04C779.11,1277.04,779.11,1277.04,779.11,1277.04z"></path>
	</g>
	<g id="LWPOLYLINE_00000007408617932762319960000006152443560324011420_">
		
			<rect x="820.8" y="1390.44" style="fill:none;stroke:#000000;stroke-linecap:round;stroke-linejoin:round;stroke-miterlimit:10;" width="293.99" height="123.93"></rect>
	</g>
	<g id="LWPOLYLINE_00000124865347599984949980000016406489657741337022_">
		<path style="fill:none;stroke:#000000;stroke-linecap:round;stroke-linejoin:round;stroke-miterlimit:10;" d="M856.38,1504.45
			l195.71,0c28.75,0,52.05-23.31,52.05-52.05c0-28.74-23.3-52.05-52.05-52.05l-195.71,0c-13.74,0-24.92,11.05-25.08,24.78l0,54.53
			c0,13.69,11.1,24.79,24.79,24.79"></path>
	</g>
	<g id="SPLINE_00000063610525818948737070000001641093065784354727_">
		<path style="fill:none;stroke:#000000;stroke-linecap:round;stroke-linejoin:round;stroke-miterlimit:10;" d="M856.09,1504.45
			c0.1,0,0.2,0,0.29,0"></path>
	</g>
	<g id="LWPOLYLINE_00000032646174516701696390000005681266305548864136_">
		<path style="fill:none;stroke:#000000;stroke-linecap:round;stroke-linejoin:round;stroke-miterlimit:10;" d="M918.26,1490.29
			l133.83,0c20.93,0,37.89-16.96,37.89-37.89c0-20.92-16.96-37.89-37.89-37.89c0,0,0,0,0,0l-131.88,0
			c-20.94,0.02-37.9,17-37.89,37.94C882.34,1472.62,898.13,1489.24,918.26,1490.29z"></path>
	</g>
	<g id="LWPOLYLINE_00000008106691563194870690000016887165723542640258_">
		
			<line style="fill:none;stroke:#000000;stroke-linecap:round;stroke-linejoin:round;stroke-miterlimit:10;" x1="882.33" y1="1452.4" x2="882.33" y2="1452.45"></line>
	</g>
	<g id="LWPOLYLINE_00000087382021292904443820000000816792388647562683_">
		<path style="fill:none;stroke:#000000;stroke-linecap:round;stroke-linejoin:round;stroke-miterlimit:10;" d="M1059.03,1452.4
			c0-3.83-3.11-6.94-6.94-6.94c-3.83,0-6.93,3.1-6.94,6.93c0,0,0,0,0,0.01c0,3.83,3.1,6.93,6.93,6.94c0,0,0,0,0.01,0
			C1055.92,1459.34,1059.03,1456.23,1059.03,1452.4z"></path>
	</g>
	<g id="LWPOLYLINE_00000087412421419877037970000016960554808190413500_">
		<path style="fill:none;stroke:#000000;stroke-linecap:round;stroke-linejoin:round;stroke-miterlimit:10;" d="M1052.09,1490.29
			c20.92,0,37.89-16.96,37.89-37.88c0,0,0,0,0,0c0-20.92-16.96-37.89-37.88-37.89c0,0,0,0,0,0"></path>
	</g>
	<g id="LWPOLYLINE_00000143578931175611358190000009587518905927310471_">
		
			<line style="fill:none;stroke:#000000;stroke-linecap:round;stroke-linejoin:round;stroke-miterlimit:10;" x1="820.8" y1="1232.01" x2="820.8" y2="1335.37"></line>
	</g>
	<g id="LWPOLYLINE_00000047018697406342144400000014972425368655201929_">
		<path style="fill:none;stroke:#000000;stroke-linecap:round;stroke-linejoin:round;stroke-miterlimit:10;" d="M820.81,1335.37
			l53.09,0c7.48,0,14.1-4.83,16.4-11.94c8.32-25.84,8.32-53.63,0-79.47c-2.29-7.12-8.92-11.94-16.4-11.95l-53.09,0"></path>
	</g>
	<g id="LWPOLYLINE_00000048491340816926234130000006003470767436185014_">
		<path style="fill:none;stroke:#000000;stroke-linecap:round;stroke-linejoin:round;stroke-miterlimit:10;" d="M835.66,1256.13
			c0-5.71,4.63-10.34,10.34-10.34l16.54,0c3.79,0,7.13,2.47,8.23,6.09c6.35,20.73,6.35,42.89,0,63.62
			c-1.11,3.62-4.45,6.09-8.23,6.09l-16.54,0c-5.71,0-10.34-4.63-10.34-10.34"></path>
	</g>
	<g id="LWPOLYLINE_00000036234186862149369290000013387311913276126142_">
		<path style="fill:none;stroke:#000000;stroke-linecap:round;stroke-linejoin:round;stroke-miterlimit:10;" d="M846,1328.48l27.9,0
			c4.49,0,8.46-2.89,9.84-7.16c7.88-24.46,7.88-50.78,0-75.25c-1.38-4.27-5.35-7.16-9.84-7.17H846c-5.71,0-10.34,4.63-10.34,10.34
			l0,68.91C835.66,1323.86,840.29,1328.48,846,1328.48z"></path>
	</g>
	<g id="LWPOLYLINE_00000145026067610355018000000012999918457877735587_">
		<path style="fill:none;stroke:#000000;stroke-linecap:round;stroke-linejoin:round;stroke-miterlimit:10;" d="M838.74,1283.69
			c0,2.56,2.07,4.64,4.63,4.64c2.56,0,4.64-2.08,4.63-4.64c0-2.56-2.07-4.63-4.63-4.63c0,0,0,0,0,0
			C840.82,1279.05,838.74,1281.13,838.74,1283.69C838.74,1283.69,838.74,1283.69,838.74,1283.69z"></path>
	</g>
	<g id="LWPOLYLINE_00000127021759822644610420000005981033930477054864_">
		
			<rect x="1031.31" y="1233.37" style="fill:none;stroke:#000000;stroke-linecap:round;stroke-linejoin:round;stroke-miterlimit:10;" width="83.48" height="104.41"></rect>
	</g>
	<g id="LWPOLYLINE_00000072271407913848118380000002951577400943316110_">
		<polyline style="fill:none;stroke:#000000;stroke-linecap:round;stroke-linejoin:round;stroke-miterlimit:10;" points="
			1100.06,1321.36 1058.54,1285.58 1086.73,1285.58 1045.2,1249.79 		"></polyline>
	</g>
	<g id="LWPOLYLINE_00000158709387505215726830000007415866242602557359_">
		<path style="fill:none;stroke:#000000;stroke-linecap:round;stroke-linejoin:round;stroke-miterlimit:10;" d="M1103.95,1285.57
			c0-17.3-14.02-31.32-31.32-31.32c-17.3,0-31.32,14.02-31.33,31.32c0,17.3,14.03,31.32,31.33,31.33
			C1089.93,1316.9,1103.96,1302.87,1103.95,1285.57z"></path>
	</g>
	<g id="LWPOLYLINE_00000083798633587700104910000010077878205752131261_">
		
			<rect x="188.55" y="678.36" style="fill:none;stroke:#000000;stroke-linecap:round;stroke-linejoin:round;stroke-miterlimit:10;" width="104.36" height="104.36"></rect>
	</g>
	<g id="LWPOLYLINE_00000126297281762368065060000003426615739025919367_">
		
			<line style="fill:none;stroke:#000000;stroke-linecap:round;stroke-linejoin:round;stroke-miterlimit:10;" x1="249.42" y1="704.45" x2="284.21" y2="704.45"></line>
	</g>
	<g id="LWPOLYLINE_00000125564385831745023500000002940327231892172434_">
		
			<line style="fill:none;stroke:#000000;stroke-linecap:round;stroke-linejoin:round;stroke-miterlimit:10;" x1="266.82" y1="721.85" x2="266.82" y2="687.06"></line>
	</g>
	<g id="CIRCLE_00000011015655657888900350000002348283627096401809_">
		
			<circle style="fill:none;stroke:#000000;stroke-linecap:round;stroke-linejoin:round;stroke-miterlimit:10;" cx="266.82" cy="704.46" r="13.92"></circle>
	</g>
	<g id="LWPOLYLINE_00000128485670098950710260000016311585112740187533_">
		
			<line style="fill:none;stroke:#000000;stroke-linecap:round;stroke-linejoin:round;stroke-miterlimit:10;" x1="197.24" y1="704.45" x2="232.03" y2="704.45"></line>
	</g>
	<g id="LWPOLYLINE_00000031921580201014600020000005796119978723576253_">
		
			<line style="fill:none;stroke:#000000;stroke-linecap:round;stroke-linejoin:round;stroke-miterlimit:10;" x1="214.64" y1="721.85" x2="214.64" y2="687.06"></line>
	</g>
	<g id="CIRCLE_00000074429900635714721420000014623432830586944672_">
		
			<circle style="fill:none;stroke:#000000;stroke-linecap:round;stroke-linejoin:round;stroke-miterlimit:10;" cx="214.63" cy="704.46" r="13.92"></circle>
	</g>
	<g id="LWPOLYLINE_00000145047423978346967700000004755444344823941793_">
		
			<line style="fill:none;stroke:#000000;stroke-linecap:round;stroke-linejoin:round;stroke-miterlimit:10;" x1="197.24" y1="756.63" x2="232.03" y2="756.63"></line>
	</g>
	<g id="LWPOLYLINE_00000104671910729534628350000007875736856658285701_">
		
			<line style="fill:none;stroke:#000000;stroke-linecap:round;stroke-linejoin:round;stroke-miterlimit:10;" x1="214.64" y1="774.03" x2="214.64" y2="739.24"></line>
	</g>
	<g id="CIRCLE_00000098923074128719446430000004744031942721108394_">
		
			<circle style="fill:none;stroke:#000000;stroke-linecap:round;stroke-linejoin:round;stroke-miterlimit:10;" cx="214.63" cy="756.64" r="13.92"></circle>
	</g>
	<g id="LWPOLYLINE_00000067937112075146283040000006905232061894879423_">
		
			<line style="fill:none;stroke:#000000;stroke-linecap:round;stroke-linejoin:round;stroke-miterlimit:10;" x1="249.42" y1="756.63" x2="284.21" y2="756.63"></line>
	</g>
	<g id="LWPOLYLINE_00000149346251303167479230000001537886391080081588_">
		
			<line style="fill:none;stroke:#000000;stroke-linecap:round;stroke-linejoin:round;stroke-miterlimit:10;" x1="266.82" y1="774.03" x2="266.82" y2="739.24"></line>
	</g>
	<g id="CIRCLE_00000038410721341804834260000008343287607774730171_">
		
			<circle style="fill:none;stroke:#000000;stroke-linecap:round;stroke-linejoin:round;stroke-miterlimit:10;" cx="266.82" cy="756.64" r="13.92"></circle>
	</g>
	<g id="LWPOLYLINE_00000029750025713792309950000001778552579822720684_">
		
			<rect x="188.55" y="1050.27" style="fill:none;stroke:#000000;stroke-linecap:round;stroke-linejoin:round;stroke-miterlimit:10;" width="104.36" height="104.36"></rect>
	</g>
	<g id="LWPOLYLINE_00000126281624007521059230000007208574525898866310_">
		<path style="fill:none;stroke:#000000;stroke-linecap:round;stroke-linejoin:round;stroke-miterlimit:10;" d="M278.13,1058.97
			l-66.05,0c-3.36,0-6.09,2.72-6.09,6.09c0,0,0,0,0,0l0,74.79c0,3.36,2.72,6.09,6.09,6.09c0,0,0,0,0,0l66.05,0
			c3.36,0,6.09-2.72,6.09-6.09c0,0,0,0,0,0l0-74.79C284.21,1061.69,281.49,1058.97,278.13,1058.97z"></path>
	</g>
	<g id="LWPOLYLINE_00000005227686960558621530000015285128469625063866_">
		<path style="fill:none;stroke:#000000;stroke-linecap:round;stroke-linejoin:round;stroke-miterlimit:10;" d="M229.01,1085.06
			c0-3.37-2.73-6.1-6.1-6.1c0,0,0,0,0,0c-3.37,0-6.1,2.73-6.1,6.1c0,0,0,0,0,0c0,3.37,2.73,6.1,6.1,6.1c0,0,0,0,0,0
			C226.27,1091.16,229.01,1088.43,229.01,1085.06C229.01,1085.06,229.01,1085.06,229.01,1085.06z"></path>
	</g>
	<g id="LINE_00000011003060341204961980000006852585483648410010_">
		<g>
			<g>
				
					<line style="fill:none;stroke:#000000;stroke-linecap:round;stroke-linejoin:round;" x1="990.82" y1="975.1" x2="985.82" y2="975.1"></line>
				
					<line style="fill:none;stroke:#000000;stroke-linecap:round;stroke-linejoin:round;stroke-dasharray:9.7513,9.7513;" x1="976.07" y1="975.1" x2="824.92" y2="975.1"></line>
				
					<line style="fill:none;stroke:#000000;stroke-linecap:round;stroke-linejoin:round;" x1="820.05" y1="975.1" x2="815.05" y2="975.1"></line>
			</g>
		</g>
	</g>
	<g id="LINE_00000132059643529176357540000006264903227006603926_">
		<g>
			<g>
				
					<line style="fill:none;stroke:#000000;stroke-linecap:round;stroke-linejoin:round;" x1="815.05" y1="975.1" x2="815.05" y2="980.1"></line>
				
					<line style="fill:none;stroke:#000000;stroke-linecap:round;stroke-linejoin:round;stroke-dasharray:9.5595,9.5595;" x1="815.05" y1="989.66" x2="815.05" y2="1176.07"></line>
				
					<line style="fill:none;stroke:#000000;stroke-linecap:round;stroke-linejoin:round;" x1="815.05" y1="1180.85" x2="815.05" y2="1185.85"></line>
			</g>
		</g>
	</g>
	<g id="LINE_00000179605063016367047980000001743872277811941287_">
		<g>
			<g>
				
					<line style="fill:none;stroke:#000000;stroke-linecap:round;stroke-linejoin:round;" x1="584.37" y1="1191.98" x2="579.37" y2="1191.98"></line>
				
					<line style="fill:none;stroke:#000000;stroke-linecap:round;stroke-linejoin:round;stroke-dasharray:10.3541,10.3541;" x1="569.02" y1="1191.98" x2="304.99" y2="1191.98"></line>
				
					<line style="fill:none;stroke:#000000;stroke-linecap:round;stroke-linejoin:round;" x1="299.81" y1="1191.98" x2="294.81" y2="1191.98"></line>
			</g>
		</g>
	</g>
	<g id="LINE_00000046307143074089182040000014634819434566938041_">
		
			<line style="fill:none;stroke:#000000;stroke-linecap:round;stroke-linejoin:round;stroke-miterlimit:10;" x1="1899.35" y1="548.28" x2="1899.35" y2="867.06"></line>
	</g>
	<g id="LINE_00000064328397061266052920000006165359706195481736_">
		
			<line style="fill:none;stroke:#000000;stroke-linecap:round;stroke-linejoin:round;stroke-miterlimit:10;" x1="1833.82" y1="875.92" x2="1833.82" y2="539.43"></line>
	</g>
	<g id="LINE_00000151515929522827452730000009515144886100605865_">
		
			<line style="fill:none;stroke:#000000;stroke-linecap:round;stroke-linejoin:round;stroke-miterlimit:10;" x1="1849.76" y1="548.28" x2="1833.82" y2="548.28"></line>
	</g>
	<g id="LINE_00000175297339793866574960000015323327003446032040_">
		
			<line style="fill:none;stroke:#000000;stroke-linecap:round;stroke-linejoin:round;stroke-miterlimit:10;" x1="1849.76" y1="867.06" x2="1833.82" y2="867.06"></line>
	</g>
	<g id="LINE_00000138574282634436438180000015264704427348789390_">
		
			<line style="fill:none;stroke:#000000;stroke-linecap:round;stroke-linejoin:round;stroke-miterlimit:10;" x1="1849.76" y1="875.92" x2="1849.76" y2="539.43"></line>
	</g>
	<g id="LINE_00000089563832460916046750000012421173036153160373_">
		
			<line style="fill:none;stroke:#000000;stroke-linecap:round;stroke-linejoin:round;stroke-miterlimit:10;" x1="1841.79" y1="857.15" x2="1842.23" y2="558.2"></line>
	</g>
	<g id="LINE_00000066473431141805047110000004066466777666162062_">
		
			<line style="fill:none;stroke:#000000;stroke-linecap:round;stroke-linejoin:round;stroke-miterlimit:10;" x1="1833.82" y1="857.15" x2="1849.76" y2="857.15"></line>
	</g>
	<g id="LINE_00000143607314676040301510000018134610439245837987_">
		
			<line style="fill:none;stroke:#000000;stroke-linecap:round;stroke-linejoin:round;stroke-miterlimit:10;" x1="1849.76" y1="548.28" x2="1833.82" y2="548.28"></line>
	</g>
	<g id="LINE_00000086674509853777918290000002700041983540864443_">
		
			<line style="fill:none;stroke:#000000;stroke-linecap:round;stroke-linejoin:round;stroke-miterlimit:10;" x1="1833.82" y1="558.2" x2="1849.76" y2="558.2"></line>
	</g>
	<g id="LINE_00000058553219927380579290000015261686514398107821_">
		
			<line style="fill:none;stroke:#000000;stroke-linecap:round;stroke-linejoin:round;stroke-miterlimit:10;" x1="1801.94" y1="875.92" x2="1801.94" y2="539.43"></line>
	</g>
	<g id="LINE_00000079465219850195562780000017120602081364433319_">
		
			<line style="fill:none;stroke:#000000;stroke-linecap:round;stroke-linejoin:round;stroke-miterlimit:10;" x1="1899.35" y1="1044.17" x2="1899.35" y2="1309.82"></line>
	</g>
	<g id="LINE_00000014631579953389402570000011176522883757996440_">
		
			<line style="fill:none;stroke:#000000;stroke-linecap:round;stroke-linejoin:round;stroke-miterlimit:10;" x1="1833.82" y1="1318.67" x2="1833.82" y2="1035.31"></line>
	</g>
	<g id="LINE_00000112604895121943223880000016793390834538829962_">
		
			<line style="fill:none;stroke:#000000;stroke-linecap:round;stroke-linejoin:round;stroke-miterlimit:10;" x1="1849.76" y1="1044.17" x2="1833.82" y2="1044.17"></line>
	</g>
	<g id="LINE_00000101094791336692786600000009191745839709216427_">
		
			<line style="fill:none;stroke:#000000;stroke-linecap:round;stroke-linejoin:round;stroke-miterlimit:10;" x1="1849.76" y1="1309.82" x2="1833.82" y2="1309.82"></line>
	</g>
	<g id="LINE_00000006676153849750680210000006117896050924834720_">
		
			<line style="fill:none;stroke:#000000;stroke-linecap:round;stroke-linejoin:round;stroke-miterlimit:10;" x1="1849.76" y1="1318.67" x2="1849.76" y2="1035.31"></line>
	</g>
	<g id="LINE_00000024689415817179024550000012678736112926296475_">
		
			<line style="fill:none;stroke:#000000;stroke-linecap:round;stroke-linejoin:round;stroke-miterlimit:10;" x1="1841.79" y1="1299.9" x2="1842.23" y2="1054.08"></line>
	</g>
	<g id="LINE_00000078028756366218394090000002149563679912100027_">
		
			<line style="fill:none;stroke:#000000;stroke-linecap:round;stroke-linejoin:round;stroke-miterlimit:10;" x1="1833.82" y1="1299.9" x2="1849.76" y2="1299.9"></line>
	</g>
	<g id="LINE_00000125605359589518670180000005952624316313192076_">
		
			<line style="fill:none;stroke:#000000;stroke-linecap:round;stroke-linejoin:round;stroke-miterlimit:10;" x1="1849.76" y1="1044.17" x2="1833.82" y2="1044.17"></line>
	</g>
	<g id="LINE_00000121268808674571835800000002031807852121321863_">
		
			<line style="fill:none;stroke:#000000;stroke-linecap:round;stroke-linejoin:round;stroke-miterlimit:10;" x1="1833.82" y1="1054.08" x2="1849.76" y2="1054.08"></line>
	</g>
	<g id="LINE_00000044152463091066935980000004911044725586208949_">
		
			<line style="fill:none;stroke:#000000;stroke-linecap:round;stroke-linejoin:round;stroke-miterlimit:10;" x1="1801.94" y1="1318.67" x2="1801.94" y2="1035.31"></line>
	</g>
	<g id="LINE_00000103248399643219385030000010949474950604393135_">
		
			<line style="fill:none;stroke:#000000;stroke-linecap:round;stroke-linejoin:round;stroke-miterlimit:10;" x1="374.51" y1="295.03" x2="640.16" y2="295.03"></line>
	</g>
	<g id="LINE_00000148630712351094180210000010666163288887880064_">
		
			<line style="fill:none;stroke:#000000;stroke-linecap:round;stroke-linejoin:round;stroke-miterlimit:10;" x1="649.01" y1="360.56" x2="365.65" y2="360.56"></line>
	</g>
	<g id="LINE_00000094598912843292331100000011378553278470667918_">
		
			<line style="fill:none;stroke:#000000;stroke-linecap:round;stroke-linejoin:round;stroke-miterlimit:10;" x1="374.51" y1="344.62" x2="374.51" y2="360.56"></line>
	</g>
	<g id="LINE_00000080923071503636452360000004689515709233919877_">
		
			<line style="fill:none;stroke:#000000;stroke-linecap:round;stroke-linejoin:round;stroke-miterlimit:10;" x1="640.16" y1="344.62" x2="640.16" y2="360.56"></line>
	</g>
	<g id="LINE_00000026867464898533758800000002021841378513940624_">
		
			<line style="fill:none;stroke:#000000;stroke-linecap:round;stroke-linejoin:round;stroke-miterlimit:10;" x1="649.01" y1="344.62" x2="365.65" y2="344.62"></line>
	</g>
	<g id="LINE_00000168105410706673206600000010546054822891604355_">
		
			<line style="fill:none;stroke:#000000;stroke-linecap:round;stroke-linejoin:round;stroke-miterlimit:10;" x1="630.24" y1="352.59" x2="384.43" y2="352.15"></line>
	</g>
	<g id="LINE_00000053516223403867533490000003275479720623418808_">
		
			<line style="fill:none;stroke:#000000;stroke-linecap:round;stroke-linejoin:round;stroke-miterlimit:10;" x1="630.24" y1="360.56" x2="630.24" y2="344.62"></line>
	</g>
	<g id="LINE_00000078042446445190202390000000069437190801174719_">
		
			<line style="fill:none;stroke:#000000;stroke-linecap:round;stroke-linejoin:round;stroke-miterlimit:10;" x1="374.51" y1="344.62" x2="374.51" y2="360.56"></line>
	</g>
	<g id="LINE_00000076603960413016887350000014029728341575792273_">
		
			<line style="fill:none;stroke:#000000;stroke-linecap:round;stroke-linejoin:round;stroke-miterlimit:10;" x1="384.43" y1="360.56" x2="384.43" y2="344.62"></line>
	</g>
	<g id="LINE_00000057856476099198757300000017463150130788808882_">
		
			<line style="fill:none;stroke:#000000;stroke-linecap:round;stroke-linejoin:round;stroke-miterlimit:10;" x1="649.01" y1="392.44" x2="365.65" y2="392.44"></line>
	</g>
	<g id="LINE_00000039121827278059356410000000154143932435467912_">
		
			<line style="fill:none;stroke:#000000;stroke-linecap:round;stroke-linejoin:round;stroke-miterlimit:10;" x1="817.26" y1="295.03" x2="950.09" y2="295.03"></line>
	</g>
	<g id="LINE_00000047739565397034464680000009323306034216035002_">
		
			<line style="fill:none;stroke:#000000;stroke-linecap:round;stroke-linejoin:round;stroke-miterlimit:10;" x1="958.94" y1="360.56" x2="808.4" y2="360.56"></line>
	</g>
	<g id="LINE_00000125576814548473614720000004006772458653297067_">
		
			<line style="fill:none;stroke:#000000;stroke-linecap:round;stroke-linejoin:round;stroke-miterlimit:10;" x1="817.26" y1="344.62" x2="817.26" y2="360.56"></line>
	</g>
	<g id="LINE_00000139282037266702414670000005796450156598460844_">
		
			<line style="fill:none;stroke:#000000;stroke-linecap:round;stroke-linejoin:round;stroke-miterlimit:10;" x1="950.09" y1="344.62" x2="950.09" y2="360.56"></line>
	</g>
	<g id="LINE_00000016798249385936853080000014373353334784294548_">
		
			<line style="fill:none;stroke:#000000;stroke-linecap:round;stroke-linejoin:round;stroke-miterlimit:10;" x1="958.94" y1="344.62" x2="808.4" y2="344.62"></line>
	</g>
	<g id="LINE_00000106840819588863896460000017385778152786686354_">
		
			<line style="fill:none;stroke:#000000;stroke-linecap:round;stroke-linejoin:round;stroke-miterlimit:10;" x1="940.17" y1="352.59" x2="827.18" y2="352.14"></line>
	</g>
	<g id="LINE_00000083075436382797151730000015103117984264909958_">
		
			<line style="fill:none;stroke:#000000;stroke-linecap:round;stroke-linejoin:round;stroke-miterlimit:10;" x1="940.17" y1="360.56" x2="940.17" y2="344.62"></line>
	</g>
	<g id="LINE_00000168822770270393181400000018013424516729965727_">
		
			<line style="fill:none;stroke:#000000;stroke-linecap:round;stroke-linejoin:round;stroke-miterlimit:10;" x1="817.26" y1="344.62" x2="817.26" y2="360.56"></line>
	</g>
	<g id="LINE_00000147938633375497735960000014817343107879962277_">
		
			<line style="fill:none;stroke:#000000;stroke-linecap:round;stroke-linejoin:round;stroke-miterlimit:10;" x1="827.18" y1="360.56" x2="827.18" y2="344.62"></line>
	</g>
	<g id="LINE_00000014596649991456442270000006901544434673833883_">
		
			<line style="fill:none;stroke:#000000;stroke-linecap:round;stroke-linejoin:round;stroke-miterlimit:10;" x1="958.94" y1="392.43" x2="808.4" y2="392.43"></line>
	</g>
	<g id="LINE_00000122711701132453092140000014085932242984731034_">
		
			<line style="fill:none;stroke:#000000;stroke-linecap:round;stroke-linejoin:round;stroke-miterlimit:10;" x1="1366.27" y1="295.03" x2="1631.92" y2="295.03"></line>
	</g>
	<g id="LINE_00000131363970477445532190000013063912229342876081_">
		
			<line style="fill:none;stroke:#000000;stroke-linecap:round;stroke-linejoin:round;stroke-miterlimit:10;" x1="1640.78" y1="360.55" x2="1357.42" y2="360.56"></line>
	</g>
	<g id="LINE_00000127025021772699344630000014899525343100346007_">
		
			<line style="fill:none;stroke:#000000;stroke-linecap:round;stroke-linejoin:round;stroke-miterlimit:10;" x1="1366.27" y1="344.62" x2="1366.27" y2="360.56"></line>
	</g>
	<g id="LINE_00000034063416781310321480000005596298393883705755_">
		
			<line style="fill:none;stroke:#000000;stroke-linecap:round;stroke-linejoin:round;stroke-miterlimit:10;" x1="1631.92" y1="344.62" x2="1631.92" y2="360.55"></line>
	</g>
	<g id="LINE_00000168099058048398027280000008625418807124083860_">
		
			<line style="fill:none;stroke:#000000;stroke-linecap:round;stroke-linejoin:round;stroke-miterlimit:10;" x1="1640.78" y1="344.62" x2="1357.42" y2="344.62"></line>
	</g>
	<g id="LINE_00000180348025667949742900000012447781078756136601_">
		
			<line style="fill:none;stroke:#000000;stroke-linecap:round;stroke-linejoin:round;stroke-miterlimit:10;" x1="1622.01" y1="352.59" x2="1376.19" y2="352.14"></line>
	</g>
	<g id="LINE_00000041996279998053148580000011671989096422151345_">
		
			<line style="fill:none;stroke:#000000;stroke-linecap:round;stroke-linejoin:round;stroke-miterlimit:10;" x1="1622.01" y1="360.55" x2="1622.01" y2="344.62"></line>
	</g>
	<g id="LINE_00000176001116832487846850000004566953717807483818_">
		
			<line style="fill:none;stroke:#000000;stroke-linecap:round;stroke-linejoin:round;stroke-miterlimit:10;" x1="1366.27" y1="344.62" x2="1366.27" y2="360.56"></line>
	</g>
	<g id="LINE_00000133490213728590257650000016361503762263241876_">
		
			<line style="fill:none;stroke:#000000;stroke-linecap:round;stroke-linejoin:round;stroke-miterlimit:10;" x1="1376.19" y1="360.56" x2="1376.19" y2="344.62"></line>
	</g>
	<g id="LINE_00000053531457347952800080000007985576392548329602_">
		
			<line style="fill:none;stroke:#000000;stroke-linecap:round;stroke-linejoin:round;stroke-miterlimit:10;" x1="1640.78" y1="392.43" x2="1357.42" y2="392.43"></line>
	</g>
	<g id="LINE_00000163751364380644459310000010938927228851852706_">
		
			<line style="fill:none;stroke:#000000;stroke-linecap:round;stroke-linejoin:round;stroke-miterlimit:10;" x1="1231.32" y1="1022.91" x2="1378.86" y2="1022.91"></line>
	</g>
	<g id="LWPOLYLINE_00000036231295170798910870000017447751833961863613_">
		
			<rect x="1222.88" y="1164.59" style="fill:none;stroke:#000000;stroke-linecap:round;stroke-linejoin:round;stroke-miterlimit:10;" width="14.05" height="8.86"></rect>
	</g>
	<g id="ARC_00000066507203011591075100000005552594589700217525_">
		<path style="fill:none;stroke:#000000;stroke-linecap:round;stroke-linejoin:round;stroke-miterlimit:10;" d="M1231.32,1164.59
			c78.68-1.33,143.03-63.12,147.54-141.68"></path>
	</g>
	<g id="LWPOLYLINE_00000095335009515764343810000016388526450358732206_">
		
			<rect x="1222.88" y="1014.06" style="fill:none;stroke:#000000;stroke-linecap:round;stroke-linejoin:round;stroke-miterlimit:10;" width="14.05" height="8.86"></rect>
	</g>
	<g id="LINE_00000004534274345382125070000016532898122002079112_">
		
			<line style="fill:none;stroke:#000000;stroke-linecap:round;stroke-linejoin:round;stroke-miterlimit:10;" x1="1052.81" y1="973.69" x2="1052.81" y2="826.15"></line>
	</g>
	<g id="LWPOLYLINE_00000155132279902843412480000005396570387243990718_">
		
			<rect x="1194.49" y="968.07" style="fill:none;stroke:#000000;stroke-linecap:round;stroke-linejoin:round;stroke-miterlimit:10;" width="8.86" height="14.05"></rect>
	</g>
	<g id="ARC_00000056402735430297122460000013432766606947361676_">
		<path style="fill:none;stroke:#000000;stroke-linecap:round;stroke-linejoin:round;stroke-miterlimit:10;" d="M1194.49,973.69
			c-1.33-78.68-63.12-143.03-141.68-147.54"></path>
	</g>
	<g id="LWPOLYLINE_00000016062645686931416760000007916069859544305832_">
		
			<rect x="1043.95" y="968.07" style="fill:none;stroke:#000000;stroke-linecap:round;stroke-linejoin:round;stroke-miterlimit:10;" width="8.86" height="14.05"></rect>
	</g>
	<g id="LINE_00000065049977153559688480000007011969726281124018_">
		
			<line style="fill:none;stroke:#000000;stroke-linecap:round;stroke-linejoin:round;stroke-miterlimit:10;" x1="1029.78" y1="1193.48" x2="1029.78" y2="1064.38"></line>
	</g>
	<g id="LWPOLYLINE_00000166662348563779196460000008563091584523835021_">
		
			<rect x="896.96" y="1188.56" style="fill:none;stroke:#000000;stroke-linecap:round;stroke-linejoin:round;stroke-miterlimit:10;" width="8.86" height="14.05"></rect>
	</g>
	<g id="ARC_00000183207027658362207050000000383051202777700527_">
		<path style="fill:none;stroke:#000000;stroke-linecap:round;stroke-linejoin:round;stroke-miterlimit:10;" d="M905.81,1193.48
			c1.16-68.85,55.22-125.15,123.97-129.1"></path>
	</g>
	<g id="LWPOLYLINE_00000138574038953783495930000017407444440165737909_">
		
			<rect x="1029.78" y="1188.56" style="fill:none;stroke:#000000;stroke-linecap:round;stroke-linejoin:round;stroke-miterlimit:10;" width="8.86" height="14.05"></rect>
	</g>
	<g id="LINE_00000140711006601976735170000002376977470963867276_">
		
			<line style="fill:none;stroke:#000000;stroke-linecap:round;stroke-linejoin:round;stroke-miterlimit:10;" x1="592" y1="1219.5" x2="462.9" y2="1219.5"></line>
	</g>
	<g id="LWPOLYLINE_00000176727621990909004480000012708584030754993288_">
		
			<rect x="587.09" y="1343.47" style="fill:none;stroke:#000000;stroke-linecap:round;stroke-linejoin:round;stroke-miterlimit:10;" width="14.05" height="8.86"></rect>
	</g>
	<g id="ARC_00000133521678787769817980000012429320949779018124_">
		<path style="fill:none;stroke:#000000;stroke-linecap:round;stroke-linejoin:round;stroke-miterlimit:10;" d="M592,1343.47
			c-68.85-1.16-125.15-55.22-129.1-123.97"></path>
	</g>
	<g id="LWPOLYLINE_00000182529102761494990820000006115271458579571585_">
		
			<rect x="587.09" y="1210.64" style="fill:none;stroke:#000000;stroke-linecap:round;stroke-linejoin:round;stroke-miterlimit:10;" width="14.05" height="8.86"></rect>
	</g>
	<g id="LINE_00000075871663509713837190000005058750858028779445_">
		
			<line style="fill:none;stroke:#000000;stroke-linecap:round;stroke-linejoin:round;stroke-miterlimit:10;" x1="432.95" y1="1538.99" x2="432.95" y2="1704.97"></line>
	</g>
	<g id="LWPOLYLINE_00000174583110107166094420000017402245671380818583_">
		
			<rect x="264.71" y="1531.26" style="fill:none;stroke:#000000;stroke-linecap:round;stroke-linejoin:round;stroke-miterlimit:10;" width="8.86" height="14.05"></rect>
	</g>
	<g id="ARC_00000134235295111195328760000001540743668908606593_">
		<path style="fill:none;stroke:#000000;stroke-linecap:round;stroke-linejoin:round;stroke-miterlimit:10;" d="M432.95,1704.97
			c-88.39-5.08-157.9-77.46-159.39-165.98"></path>
	</g>
	<g id="LWPOLYLINE_00000090265186287435685850000015956731272324576668_">
		
			<rect x="432.95" y="1531.26" style="fill:none;stroke:#000000;stroke-linecap:round;stroke-linejoin:round;stroke-miterlimit:10;" width="8.86" height="14.05"></rect>
	</g>
	<g>
		<g id="LWPOLYLINE_00000114043486915986733160000014894175169695883419_">
			
				<rect x="195.3" y="1193.07" style="fill:none;stroke:#000000;stroke-linecap:round;stroke-linejoin:round;stroke-miterlimit:10;" width="80.78" height="31.42"></rect>
		</g>
		<g id="LWPOLYLINE_00000120539557775561152160000001668806650030299291_">
			<polyline style="fill:none;stroke:#000000;stroke-linecap:round;stroke-linejoin:round;stroke-miterlimit:10;" points="
				276.09,1224.49 261.64,1198.46 195.3,1193.07 			"></polyline>
		</g>
	</g>
</g>
</svg>
