<?xml version="1.0" encoding="utf-8"?>
<!-- Generator: Adobe Illustrator 24.1.2, SVG Export Plug-In . SVG Version: 6.00 Build 0)  -->
<svg version="1.0" id="Layer_1" xmlns="http://www.w3.org/2000/svg" xmlns:xlink="http://www.w3.org/1999/xlink" x="0px" y="0px" width="2000px" height="2000px" viewBox="0 0 2000 2000" style="enable-background:new 0 0 2000 2000;" xml:space="preserve">
<path id="background" style="fill:#FFFFFF;" d="M693.72,1565.06H278.31c0,0,0,0-0.01,0h0c-0.03,0-0.05-0.03-0.09-0.04
	c-0.09-0.02-0.18-0.03-0.25-0.1c0,0,0,0,0-0.01c-0.09-0.09-0.14-0.21-0.14-0.34v-151.05c0-0.26,0.21-0.48,0.48-0.48h2.58V1236.5
	c-0.02,0-0.03,0.02-0.05,0.02c-0.26,0-0.48-0.21-0.48-0.48v-186.08c0-0.26,0.21-0.48,0.48-0.48c0.02,0,0.03,0.02,0.05,0.02v-169.1
	h-180.4c-0.26,0-0.48-0.21-0.48-0.48V633.39c0-0.26,0.21-0.48,0.48-0.48h180.4v-39.01v-2.51v-30.75h1257.86v15.69c0,0,0,0,0,0h8.01
	c0.88-78.12,64.34-141.41,142.25-141.41c0.13,0,0.25,0.05,0.34,0.14c0.09,0.09,0.14,0.21,0.14,0.34l0,140.93h7.97c0,0,0,0,0,0
	v-14.18h28.72h1.44h28.8v39.3h113.37h1.35H1900v909.67v13.44v27.38h-162.42c-0.07,0.17-0.21,0.3-0.4,0.3h-364.78
	c-0.19,0-0.33-0.13-0.4-0.3h-38.93h-7.48h-81.14h-1.98h-33.86c0,0.02,0.02,0.03,0.02,0.05c0,0.26-0.21,0.48-0.48,0.48H872.97
	c-0.16,0-0.28-0.09-0.37-0.22h-178.4v12.34C694.19,1564.85,693.98,1565.06,693.72,1565.06z"></path>
<g id="g1">
	<path id="g1_path" style="fill:none;" d="M852.56,1000.22l-0.08-422.16h188.31l0.07,422.16H852.56z"></path>
	<text id="g1_text" transform="matrix(1 0 0 1 895.8357 841.5771)" style="font-family: GraphikLCG-Regular; font-size: 40px; text-anchor: middle; text-align: center;"></text>
</g>
<g id="s1">
	<path id="s1_path" style="fill:none;" d="M1040.95,1000.22l-0.09-415.15h204.4l0.5,415.15H1040.95z"></path>
	<text id="s1_text" transform="matrix(1 0 0 1 1092.635 816.4599)" style="font-family: GraphikLCG-Regular; font-size: 40px; text-anchor: middle; text-align: center;"></text>
</g>
<g id="s2">
	<path id="s2_path" style="fill:none;" d="M1245.76,1000.22l-0.12-395.54h280.13l0.69,395.54H1245.76z"></path>
	<text id="s2_text" transform="matrix(1 0 0 1 1369.3239 807.4755)" style="font-family: GraphikLCG-Regular; font-size: 40px; text-anchor: middle; text-align: center;"></text>
</g>
<g id="h1">
	<path id="h1_path" style="fill:none;" d="M1526.45,867.34V582.23h217.83v34.36h142.07v383.64h-359.89V867.34L1526.45,867.34z"></path>
	<text id="h1_text" transform="matrix(1 0 0 1 1653.8883 825.2724)" style="font-family: GraphikLCG-Regular; font-size: 40px; text-anchor: middle; text-align: center;"></text>
</g>
<g id="r1">
	<path id="r1_path" style="fill:none;" d="M305.46,1537.68v-498.42h132.04v-0.19h421.01v219.7l0,0v278.91H305.46z"></path>
	<text id="r1_text" transform="matrix(1 0 0 1 577.8752 1351.1981)" style="font-family: GraphikLCG-Regular; font-size: 40px; text-anchor: middle; text-align: center;"></text>
</g>
<g id="r2">
	<path id="r2_path" style="fill:none;" d="M493.29,577.28L493.29,577.28h359.19v461.79H603.36l0,0H305.51V867.39h-0.04V577.28
		H493.29z"></path>
	<text id="r2_text" transform="matrix(1 0 0 1 595.2341 972.4579)" style="font-family: GraphikLCG-Regular; font-size: 40px; text-anchor: middle; text-align: center;"></text>
</g>
<g id="c1">
	<path id="c1_path" style="fill:none;" d="M858.52,1000.22h1027.82l0.05,230.74h-0.06l0.06,300.88h-545.52v0.01h-208.32v-0.01
		H858.52V1000.22z"></path>
	
		<text id="c1_text" transform="matrix(1 0 0 1 1314.1163 1277.4735)" style="font-family: GraphikLCG-Regular; font-size: 40px; text-anchor: middle; text-align: center;"></text>
</g>
<g id="b1">
	<path id="b1_path" style="fill:none;" d="M114.06,962.51l0.03-397.08h171.06l0,397.08H114.06z"></path>
	<text id="b1_text" transform="matrix(1 0 0 1 182.4778 771.7265)" style="font-family: GraphikLCG-Regular; font-size: 40px; text-anchor: middle; text-align: center;"></text>
</g>
<path id="u11" style="fill:#FFFFFF;stroke:#FFFFFF;stroke-linecap:round;stroke-linejoin:round;stroke-miterlimit:10;" d="
	M161.62,831.28c-7.71,0-13.96-6.25-13.96-13.96s6.25-13.96,13.96-13.96s13.96,6.25,13.96,13.96S169.33,831.28,161.62,831.28z"></path>
<path id="u9" style="fill:#FFFFFF;stroke:#FFFFFF;stroke-linecap:round;stroke-linejoin:round;stroke-miterlimit:10;" d="
	M1437.25,803.87c-7.71,0-13.96-6.25-13.96-13.96s6.25-13.96,13.96-13.96s13.96,6.25,13.96,13.96S1444.96,803.87,1437.25,803.87z"></path>
<path id="u1" style="fill:#FFFFFF;stroke:#FFFFFF;stroke-linecap:round;stroke-linejoin:round;stroke-miterlimit:10;" d="
	M923.4,737.09c-7.71,0-13.96-6.25-13.96-13.96c0-7.71,6.25-13.96,13.96-13.96c7.71,0,13.96,6.25,13.96,13.96
	C937.37,730.84,931.11,737.09,923.4,737.09z"></path>
<path id="u8" style="fill:#FFFFFF;stroke:#FFFFFF;stroke-linecap:round;stroke-linejoin:round;stroke-miterlimit:10;" d="
	M1719.57,913.35c-7.71,0-13.96-6.25-13.96-13.96s6.25-13.96,13.96-13.96s13.96,6.25,13.96,13.96S1727.29,913.35,1719.57,913.35z"></path>
<g id="mebel">
	<g>
		
			<rect x="1662.86" y="746.75" transform="matrix(4.724760e-11 -1 1 4.724760e-11 1031.1581 2616.52)" style="fill:none;stroke:#000000;stroke-linecap:round;stroke-linejoin:round;stroke-miterlimit:10;" width="321.97" height="91.86"></rect>
		
			<rect x="1618.42" y="791.19" transform="matrix(4.734352e-11 -1 1 4.734352e-11 986.7198 2572.0818)" style="fill:none;stroke:#000000;stroke-linecap:round;stroke-linejoin:round;stroke-miterlimit:10;" width="321.97" height="2.98"></rect>
	</g>
	<g>
		
			<rect x="852.48" y="593.91" style="fill:none;stroke:#000000;stroke-linecap:round;stroke-linejoin:round;stroke-miterlimit:10;" width="175.95" height="92.1"></rect>
		
			<rect x="852.48" y="683.03" style="fill:none;stroke:#000000;stroke-linecap:round;stroke-linejoin:round;stroke-miterlimit:10;" width="175.95" height="2.98"></rect>
	</g>
	<g>
		
			<rect x="711.52" y="1360.28" transform="matrix(4.795435e-11 1 -1 4.795435e-11 2192.7283 619.9283)" style="fill:none;stroke:#000000;stroke-linecap:round;stroke-linejoin:round;stroke-miterlimit:10;" width="149.75" height="92.1"></rect>
		
			<rect x="666.96" y="1404.84" transform="matrix(4.811244e-11 1 -1 4.811244e-11 2148.1687 664.4878)" style="fill:none;stroke:#000000;stroke-linecap:round;stroke-linejoin:round;stroke-miterlimit:10;" width="149.75" height="2.98"></rect>
	</g>
	<g>
		<path style="fill:none;stroke:#000000;stroke-linecap:round;stroke-linejoin:round;stroke-miterlimit:10;" d="M530.28,765.75
			c1.14-7.98,1.02-16.09-0.36-24.04l-0.64-3.7c-0.29-1.65,1.12-3.1,2.78-2.87l3.71,0.53c6.29,0.91,12.63,1.29,18.97,1.19
			c-1.71-5.02-3.08-10.16-4.04-15.39l0-0.01c-0.53-2.89-3.72-4.43-6.31-3.03l-0.01,0c-9.93,5.36-20.64,9.12-31.74,11.14l-0.01,0
			c-2.89,0.53-4.43,3.72-3.03,6.31l0,0.01c5.36,9.93,9.12,20.65,11.15,31.75l0,0.01c0.53,2.89,3.72,4.43,6.31,3.03l0.01-0.01
			c0.88-0.47,1.79-0.86,2.68-1.31L530.28,765.75z"></path>
		<path style="fill:none;stroke:#000000;stroke-linecap:round;stroke-linejoin:round;stroke-miterlimit:10;" d="M577.38,771.6
			l-3.71-0.53c-12.41-1.78-25.01-1.6-37.36,0.54l-3.69,0.64c-1.65,0.29-3.1-1.12-2.87-2.78l0.53-3.71
			c1.14-7.98,1.02-16.09-0.36-24.04l-0.64-3.7c-0.29-1.65,1.12-3.1,2.78-2.87l3.71,0.53c12.41,1.78,25.01,1.6,37.36-0.54l3.69-0.64
			c1.65-0.29,3.1,1.12,2.87,2.78l-0.53,3.71c-1.14,7.98-1.02,16.09,0.36,24.04l0.64,3.7C580.45,770.39,579.04,771.84,577.38,771.6z"></path>
	</g>
	<g>
		<path style="fill:none;stroke:#000000;stroke-linecap:round;stroke-linejoin:round;stroke-miterlimit:10;" d="M683.06,766.28
			c-1.14-7.98-1.02-16.09,0.36-24.04l0.64-3.7c0.29-1.65-1.12-3.1-2.78-2.87l-3.71,0.53c-6.29,0.91-12.63,1.29-18.97,1.19
			c1.71-5.02,3.08-10.16,4.04-15.39l0-0.01c0.53-2.89,3.72-4.43,6.31-3.03l0.01,0c9.93,5.36,20.64,9.12,31.74,11.14l0.01,0
			c2.89,0.53,4.43,3.72,3.03,6.31l0,0.01c-5.36,9.93-9.12,20.65-11.15,31.75l0,0.01c-0.53,2.89-3.72,4.43-6.31,3.03l-0.01-0.01
			c-0.88-0.47-1.79-0.86-2.68-1.31L683.06,766.28z"></path>
		<path style="fill:none;stroke:#000000;stroke-linecap:round;stroke-linejoin:round;stroke-miterlimit:10;" d="M635.96,772.13
			l3.71-0.53c12.41-1.78,25.01-1.6,37.36,0.54l3.69,0.64c1.65,0.29,3.1-1.12,2.87-2.78l-0.53-3.71c-1.14-7.98-1.02-16.09,0.36-24.04
			l0.64-3.7c0.29-1.65-1.12-3.1-2.78-2.87l-3.71,0.53c-12.41,1.78-25.01,1.6-37.36-0.54l-3.69-0.64c-1.65-0.29-3.1,1.12-2.87,2.78
			l0.53,3.71c1.14,7.98,1.02,16.09-0.36,24.04l-0.64,3.7C632.89,770.92,634.3,772.37,635.96,772.13z"></path>
	</g>
	<g>
		<g>
			<g>
				<g>
					
						<rect x="469.27" y="593.86" transform="matrix(-1 8.391739e-07 -8.391739e-07 -1 1211.3108 1201.053)" style="fill:none;stroke:#000000;stroke-linecap:round;stroke-linejoin:round;stroke-miterlimit:10;" width="272.77" height="13.34"></rect>
					
						<rect x="469.27" y="607.2" transform="matrix(-1 8.391739e-07 -8.391739e-07 -1 1211.3113 1517.5872)" style="fill:none;stroke:#000000;stroke-linecap:round;stroke-linejoin:round;stroke-miterlimit:10;" width="272.77" height="303.19"></rect>
					<path style="fill:none;stroke:#000000;stroke-linecap:round;stroke-linejoin:round;stroke-miterlimit:10;" d="M610.79,675.83
						l-10.26,0l0-32.85c0-9.82-7.22-17.79-16.13-17.79l-76.63,0c-8.91,0-16.13,7.96-16.13,17.79l0,32.85h-10.26l0-57.51
						c0-2.46,1.81-4.45,4.03-4.45l240.51,0c2.23,0,4.03,1.99,4.03,4.45l0,57.51h-10.26v-32.85c0-9.82-7.22-17.79-16.13-17.79
						l-76.63,0c-8.91,0-16.13,7.96-16.13,17.79V675.83z"></path>
					<path style="fill:none;stroke:#000000;stroke-linecap:round;stroke-linejoin:round;stroke-miterlimit:10;" d="M729.19,899.27
						l-247.06,0c-0.42,0-0.75-0.34-0.75-0.75l0-222.69l248.57,0l0,222.69C729.94,898.94,729.6,899.27,729.19,899.27z"></path>
				</g>
			</g>
		</g>
		
			<rect x="408.61" y="593.86" style="fill:none;stroke:#000000;stroke-linecap:round;stroke-linejoin:round;stroke-miterlimit:10;" width="60.66" height="80.22"></rect>
		
			<rect x="742.04" y="593.86" style="fill:none;stroke:#000000;stroke-linecap:round;stroke-linejoin:round;stroke-miterlimit:10;" width="60.66" height="80.22"></rect>
	</g>
	<g>
		<g>
			
				<circle style="fill:#FFFFFF;stroke:#000000;stroke-linecap:round;stroke-linejoin:round;stroke-miterlimit:10;" cx="767.9" cy="628.66" r="21.46"></circle>
			
				<circle style="fill:#FFFFFF;stroke:#000000;stroke-linecap:round;stroke-linejoin:round;stroke-miterlimit:10;" cx="767.9" cy="628.66" r="7.66"></circle>
		</g>
		
			<line style="fill:#FFFFFF;stroke:#000000;stroke-linecap:round;stroke-linejoin:round;stroke-miterlimit:10;" x1="767.9" y1="621" x2="767.9" y2="636.31"></line>
		
			<line style="fill:#FFFFFF;stroke:#000000;stroke-linecap:round;stroke-linejoin:round;stroke-miterlimit:10;" x1="760.25" y1="628.66" x2="775.56" y2="628.66"></line>
	</g>
	<g>
		<g>
			
				<circle style="fill:#FFFFFF;stroke:#000000;stroke-linecap:round;stroke-linejoin:round;stroke-miterlimit:10;" cx="436.94" cy="628.66" r="21.46"></circle>
			
				<circle style="fill:#FFFFFF;stroke:#000000;stroke-linecap:round;stroke-linejoin:round;stroke-miterlimit:10;" cx="436.94" cy="628.66" r="7.66"></circle>
		</g>
		
			<line style="fill:#FFFFFF;stroke:#000000;stroke-linecap:round;stroke-linejoin:round;stroke-miterlimit:10;" x1="436.94" y1="621" x2="436.94" y2="636.31"></line>
		
			<line style="fill:#FFFFFF;stroke:#000000;stroke-linecap:round;stroke-linejoin:round;stroke-miterlimit:10;" x1="429.29" y1="628.66" x2="444.6" y2="628.66"></line>
	</g>
	<g>
		<g>
			
				<rect x="872.11" y="1254.76" transform="matrix(-1 -1.330683e-10 1.330683e-10 -1 1752.8091 2672.5249)" style="fill:none;stroke:#000000;stroke-linecap:round;stroke-linejoin:round;stroke-miterlimit:10;" width="8.6" height="163"></rect>
			<polygon style="fill:none;stroke:#000000;stroke-linecap:round;stroke-linejoin:round;stroke-miterlimit:10;" points="
				864.59,1275.14 872.11,1254.76 872.11,1417.76 864.59,1397.39 			"></polygon>
		</g>
		
			<rect x="864.59" y="1245.29" transform="matrix(-1 -1.302901e-10 1.302901e-10 -1 1760.8191 2671.9731)" style="fill:none;stroke:#000000;stroke-linecap:round;stroke-linejoin:round;stroke-miterlimit:10;" width="31.64" height="181.39"></rect>
	</g>
	<g>
		<g>
			
				<rect x="601.08" y="939.71" transform="matrix(8.800675e-11 1 -1 8.800675e-11 1626.5887 415.8295)" style="fill:none;stroke:#000000;stroke-linecap:round;stroke-linejoin:round;stroke-miterlimit:10;" width="8.6" height="163"></rect>
			<polygon style="fill:none;stroke:#000000;stroke-linecap:round;stroke-linejoin:round;stroke-miterlimit:10;" points="
				666.51,1033.02 686.88,1025.51 523.88,1025.51 544.25,1033.02 			"></polygon>
		</g>
		
			<rect x="589.84" y="926.51" transform="matrix(8.538396e-11 1 -1 8.538396e-11 1622.8597 411.5486)" style="fill:none;stroke:#000000;stroke-linecap:round;stroke-linejoin:round;stroke-miterlimit:10;" width="31.64" height="181.39"></rect>
	</g>
	<g>
		<polygon style="fill:none;stroke:#000000;stroke-linecap:round;stroke-linejoin:round;stroke-miterlimit:10;" points="
			1780.59,1507 1780.59,1416.14 1869.76,1416.14 1869.77,1507 		"></polygon>
		<g>
			
				<line style="fill:none;stroke:#000000;stroke-linecap:round;stroke-linejoin:round;stroke-miterlimit:10;" x1="1846.74" y1="1466.04" x2="1807.58" y2="1466.04"></line>
			
				<line style="fill:none;stroke:#000000;stroke-linecap:round;stroke-linejoin:round;stroke-miterlimit:10;" x1="1827.16" y1="1486.76" x2="1827.16" y2="1445.31"></line>
			<polyline style="fill:none;stroke:#000000;stroke-linecap:round;stroke-linejoin:round;stroke-miterlimit:10;" points="
				1842.39,1476.4 1836.95,1466.04 1842.39,1455.67 			"></polyline>
			<polyline style="fill:none;stroke:#000000;stroke-linecap:round;stroke-linejoin:round;stroke-miterlimit:10;" points="
				1836.95,1449.92 1827.16,1455.67 1817.37,1449.92 			"></polyline>
			<polyline style="fill:none;stroke:#000000;stroke-linecap:round;stroke-linejoin:round;stroke-miterlimit:10;" points="
				1811.93,1455.67 1817.37,1466.04 1811.93,1476.4 			"></polyline>
			<polyline style="fill:none;stroke:#000000;stroke-linecap:round;stroke-linejoin:round;stroke-miterlimit:10;" points="
				1817.37,1482.15 1827.16,1476.4 1836.95,1482.15 			"></polyline>
		</g>
	</g>
	<g>
		<polygon style="fill:none;stroke:#000000;stroke-linecap:round;stroke-linejoin:round;stroke-miterlimit:10;" points="
			1780.58,1166.17 1780.58,1095.75 1869.76,1095.75 1869.77,1166.17 		"></polygon>
		<path style="fill:none;stroke:#000000;stroke-linecap:round;stroke-linejoin:round;stroke-miterlimit:10;" d="M1838.91,1133.14
			l-21-9.22c-1.29-0.5-2.7-0.78-4.18-0.78c-5.96,0-10.79,4.48-10.79,10c0,5.52,4.83,10,10.79,10c1.48,0,2.89-0.28,4.18-0.78
			L1838.91,1133.14z"></path>
	</g>
	<g>
		<g>
			<path style="fill:#FFFFFF;stroke:#000000;stroke-linecap:round;stroke-linejoin:round;stroke-miterlimit:10;" d="
				M1830.94,1389.53l0.58,0.4c0.94,0.65,2.04,0.97,3.18,1.09c0.84,0.09,1.65,0.49,2.26,1.22c0.9,1.07,1.05,2.64,0.36,3.85
				c-1.12,1.97-3.68,2.33-5.28,0.91c-0.6-0.53-0.96-1.22-1.1-1.94c-0.19-1.06-0.72-2.03-1.44-2.83l-0.47-0.53
				c-0.64-0.72-1.76-0.71-2.4,0.01l-1.78,2.02c-0.98,1.11-2.66,1.21-3.77,0.24l-15.2-13.4c-1.11-0.98-1.21-2.66-0.24-3.77l7.58-8.6
				c0.98-1.11,2.66-1.21,3.77-0.24l15.2,13.4c1.11,0.98,1.21,2.66,0.24,3.77l-1.78,2.02
				C1830.01,1387.87,1830.14,1388.98,1830.94,1389.53z"></path>
			
				<circle style="fill:#FFFFFF;stroke:#000000;stroke-linecap:round;stroke-linejoin:round;stroke-miterlimit:10;" cx="1834.26" cy="1394.38" r="1.67"></circle>
		</g>
		<g>
			<path style="fill:#FFFFFF;stroke:#000000;stroke-linecap:round;stroke-linejoin:round;stroke-miterlimit:10;" d="
				M1820.19,1384.96l1.31,3.89c0.12,0.36,0.51,0.55,0.87,0.43l5.84-1.97c0.36-0.12,0.55-0.51,0.43-0.87l-1.31-3.89
				c-0.12-0.36-0.51-0.55-0.87-0.43l-5.84,1.97C1820.26,1384.22,1820.07,1384.6,1820.19,1384.96z"></path>
			<path style="fill:#FFFFFF;stroke:#000000;stroke-linecap:round;stroke-linejoin:round;stroke-miterlimit:10;" d="
				M1814.82,1380.24l1.31,3.89c0.12,0.36,0.51,0.55,0.87,0.43l5.84-1.97c0.36-0.12,0.55-0.51,0.43-0.87l-1.31-3.89
				c-0.12-0.36-0.51-0.55-0.87-0.43l-5.84,1.97C1814.9,1379.49,1814.7,1379.88,1814.82,1380.24z"></path>
			<path style="fill:#FFFFFF;stroke:#000000;stroke-linecap:round;stroke-linejoin:round;stroke-miterlimit:10;" d="
				M1809.49,1375.53l1.31,3.89c0.12,0.36,0.51,0.55,0.87,0.43l5.84-1.97c0.36-0.12,0.55-0.51,0.43-0.87l-1.31-3.89
				c-0.12-0.36-0.51-0.55-0.87-0.43l-5.84,1.97C1809.56,1374.78,1809.37,1375.17,1809.49,1375.53z"></path>
		</g>
	</g>
	
		<rect x="1780.59" y="1345.16" style="fill:none;stroke:#000000;stroke-linecap:round;stroke-linejoin:round;stroke-miterlimit:10;" width="89.18" height="70.94"></rect>
	
		<rect x="1780.59" y="1165.71" style="fill:none;stroke:#000000;stroke-linecap:round;stroke-linejoin:round;stroke-miterlimit:10;" width="89.18" height="90.26"></rect>
	<g>
		<path style="fill:none;stroke:#000000;stroke-linecap:round;stroke-linejoin:round;stroke-miterlimit:10;" d="M1201.04,1269.47
			l0-152.07c0-0.67-0.54-1.21-1.21-1.21l-103.58,0c-0.67,0-1.21,0.54-1.21,1.21l0,152.07c0,0.67,0.54,1.21,1.21,1.21l103.58,0
			C1200.5,1270.67,1201.04,1270.13,1201.04,1269.47z"></path>
		<path style="fill:none;stroke:#000000;stroke-linecap:round;stroke-linejoin:round;stroke-miterlimit:10;" d="M1201.04,1269.47
			l0-152.07c0-0.67,0.54-1.21,1.21-1.21h30.9c0.67,0,1.21,0.54,1.21,1.21l0,152.07c0,0.67-0.54,1.21-1.21,1.21l-30.9,0
			C1201.58,1270.67,1201.04,1270.13,1201.04,1269.47z"></path>
		<path style="fill:none;stroke:#000000;stroke-linecap:round;stroke-linejoin:round;stroke-miterlimit:10;" d="M1201.04,1271.88
			l0,151.73c0,0.67-0.54,1.21-1.21,1.21l-103.58,0c-0.67,0-1.21-0.54-1.21-1.21l0-151.73c0-0.67,0.54-1.21,1.21-1.21l103.58,0
			C1200.5,1270.67,1201.04,1271.21,1201.04,1271.88z"></path>
		<path style="fill:none;stroke:#000000;stroke-linecap:round;stroke-linejoin:round;stroke-miterlimit:10;" d="M1201.04,1271.88
			l0,151.73c0,0.67,0.54,1.21,1.21,1.21l30.9,0c0.67,0,1.21-0.54,1.21-1.21l0-151.73c0-0.67-0.54-1.21-1.21-1.21l-30.9,0
			C1201.58,1270.67,1201.04,1271.21,1201.04,1271.88z"></path>
	</g>
	<g>
		<g>
			<path style="fill:none;stroke:#000000;stroke-linecap:round;stroke-linejoin:round;stroke-miterlimit:10;" d="M1147.33,1228.57
				l0.01,0c12.94-3.03,26.28-3.99,39.52-2.86l0.01,0c3.45,0.29,6.18-2.87,5.39-6.24l0-0.01c-3.03-12.94-3.99-26.28-2.86-39.52
				l0-0.01c0.29-3.45-2.86-6.18-6.24-5.39l-0.01,0c-6.1,1.43-12.29,2.35-18.52,2.86c2.86,6.89,6.26,13.56,10.18,19.94l2.32,3.76
				c1.04,1.68,0.13,3.89-1.79,4.35l-4.29,1.04c-9.23,2.24-18.04,5.92-26.12,10.9l-3.68,2.27c-0.07,1.17-0.06,2.34-0.16,3.51l0,0.01
				C1140.8,1226.63,1143.96,1229.36,1147.33,1228.57z"></path>
			<path style="fill:none;stroke:#000000;stroke-linecap:round;stroke-linejoin:round;stroke-miterlimit:10;" d="M1116.52,1169.25
				l2.32,3.76c7.75,12.56,13.47,26.27,16.95,40.62l1.04,4.29c0.47,1.92,2.67,2.83,4.35,1.79l3.76-2.32
				c8.08-4.98,16.9-8.66,26.12-10.9l4.29-1.04c1.92-0.47,2.83-2.67,1.79-4.35l-2.32-3.76c-7.75-12.56-13.47-26.27-16.95-40.62
				l-1.04-4.29c-0.47-1.92-2.67-2.83-4.35-1.79l-3.76,2.32c-8.08,4.98-16.9,8.66-26.12,10.9l-4.29,1.04
				C1116.39,1165.36,1115.49,1167.57,1116.52,1169.25z"></path>
		</g>
	</g>
	<g>
		<g>
			<path style="fill:none;stroke:#000000;stroke-linecap:round;stroke-linejoin:round;stroke-miterlimit:10;" d="M1147.33,1301.18
				l0.01,0c12.94,3.03,26.28,3.99,39.52,2.86l0.01,0c3.45-0.29,6.18,2.86,5.39,6.24l0,0.01c-3.03,12.94-3.99,26.28-2.86,39.52
				l0,0.01c0.29,3.45-2.86,6.18-6.24,5.39l-0.01,0c-6.1-1.43-12.29-2.35-18.52-2.86c2.86-6.89,6.25-13.56,10.18-19.94l2.32-3.76
				c1.04-1.68,0.13-3.89-1.79-4.35l-4.29-1.04c-9.23-2.24-18.04-5.92-26.12-10.9l-3.68-2.27c-0.07-1.17-0.06-2.34-0.16-3.51l0-0.01
				C1140.8,1303.13,1143.96,1300.4,1147.33,1301.18z"></path>
			<path style="fill:none;stroke:#000000;stroke-linecap:round;stroke-linejoin:round;stroke-miterlimit:10;" d="M1116.52,1360.51
				l2.32-3.76c7.75-12.56,13.47-26.27,16.95-40.62l1.04-4.29c0.47-1.92,2.67-2.83,4.35-1.79l3.76,2.32
				c8.08,4.98,16.9,8.66,26.12,10.9l4.29,1.04c1.92,0.47,2.83,2.67,1.79,4.35l-2.32,3.76c-7.75,12.56-13.47,26.27-16.95,40.62
				l-1.04,4.29c-0.47,1.92-2.67,2.83-4.35,1.79l-3.76-2.32c-8.08-4.98-16.9-8.66-26.12-10.9l-4.29-1.04
				C1116.39,1364.4,1115.49,1362.19,1116.52,1360.51z"></path>
		</g>
	</g>
	<g>
		<g>
			<path style="fill:none;stroke:#000000;stroke-linecap:round;stroke-linejoin:round;stroke-miterlimit:10;" d="M1468.88,1196.36
				l-18.96-1.95c-11.86-1.22-20.84-10.49-20.84-21.51v-1.25c0-11.02,8.96-20.28,20.81-21.51l18.98-1.97V1196.36z"></path>
			<path style="fill:none;stroke:#000000;stroke-linecap:round;stroke-linejoin:round;stroke-miterlimit:10;" d="M1453.23,1143.48
				l-4.19,0.43c-15.18,1.58-26.65,13.44-26.65,27.55v1.6c0,14.12,11.49,25.99,26.68,27.55l4.16,0.43c2.01,0.21,3.77-1.25,3.77-3.11
				l0,0c0-1.6-1.3-2.94-3.02-3.11l-4.06-0.42c-11.86-1.22-20.84-10.49-20.84-21.51v-1.25c0-11.02,8.96-20.28,20.81-21.51l4.09-0.42
				c1.71-0.18,3.01-1.52,3.01-3.11l0,0C1457,1144.73,1455.24,1143.27,1453.23,1143.48z"></path>
		</g>
		<g>
			<path style="fill:none;stroke:#000000;stroke-linecap:round;stroke-linejoin:round;stroke-miterlimit:10;" d="M1468.88,1289.66
				l-18.96-1.95c-11.86-1.22-20.84-10.49-20.84-21.51v-1.25c0-11.02,8.96-20.28,20.81-21.51l18.98-1.97V1289.66z"></path>
			<path style="fill:none;stroke:#000000;stroke-linecap:round;stroke-linejoin:round;stroke-miterlimit:10;" d="M1453.23,1236.79
				l-4.19,0.43c-15.18,1.58-26.65,13.44-26.65,27.55v1.6c0,14.12,11.49,25.99,26.68,27.55l4.16,0.43c2.01,0.21,3.77-1.25,3.77-3.11
				l0,0c0-1.6-1.3-2.94-3.02-3.11l-4.06-0.42c-11.86-1.22-20.84-10.49-20.84-21.51v-1.25c0-11.02,8.96-20.28,20.81-21.51l4.09-0.42
				c1.71-0.18,3.01-1.52,3.01-3.11l0,0C1457,1238.03,1455.24,1236.58,1453.23,1236.79z"></path>
		</g>
		<g>
			<path style="fill:none;stroke:#000000;stroke-linecap:round;stroke-linejoin:round;stroke-miterlimit:10;" d="M1468.88,1383.17
				l-18.96-1.95c-11.86-1.22-20.84-10.49-20.84-21.51v-1.25c0-11.02,8.96-20.28,20.81-21.51l18.98-1.97V1383.17z"></path>
			<path style="fill:none;stroke:#000000;stroke-linecap:round;stroke-linejoin:round;stroke-miterlimit:10;" d="M1453.23,1330.29
				l-4.19,0.43c-15.18,1.58-26.65,13.44-26.65,27.55v1.6c0,14.12,11.49,25.99,26.68,27.55l4.16,0.43c2.01,0.21,3.77-1.25,3.77-3.11
				l0,0c0-1.6-1.3-2.94-3.02-3.11l-4.06-0.42c-11.86-1.22-20.84-10.49-20.84-21.51v-1.25c0-11.02,8.96-20.28,20.81-21.51l4.09-0.42
				c1.71-0.18,3.01-1.52,3.01-3.11l0,0C1457,1331.53,1455.24,1330.08,1453.23,1330.29z"></path>
		</g>
		<g>
			<path style="fill:none;stroke:#000000;stroke-linecap:round;stroke-linejoin:round;stroke-miterlimit:10;" d="M1561.92,1196.36
				l18.96-1.95c11.86-1.22,20.84-10.49,20.84-21.51v-1.25c0-11.02-8.96-20.28-20.81-21.51l-18.98-1.97V1196.36z"></path>
			<path style="fill:none;stroke:#000000;stroke-linecap:round;stroke-linejoin:round;stroke-miterlimit:10;" d="M1577.57,1143.48
				l4.19,0.43c15.18,1.58,26.65,13.44,26.65,27.55v1.6c0,14.12-11.49,25.99-26.68,27.55l-4.16,0.43c-2.01,0.21-3.77-1.25-3.77-3.11
				l0,0c0-1.6,1.3-2.94,3.02-3.11l4.06-0.42c11.86-1.22,20.84-10.49,20.84-21.51v-1.25c0-11.02-8.96-20.28-20.81-21.51l-4.09-0.42
				c-1.71-0.18-3.01-1.52-3.01-3.11l0,0C1573.81,1144.72,1575.57,1143.27,1577.57,1143.48z"></path>
		</g>
		<g>
			<path style="fill:none;stroke:#000000;stroke-linecap:round;stroke-linejoin:round;stroke-miterlimit:10;" d="M1561.92,1289.76
				l18.96-1.95c11.86-1.22,20.84-10.49,20.84-21.51v-1.25c0-11.02-8.96-20.28-20.81-21.51l-18.98-1.97V1289.76z"></path>
			<path style="fill:none;stroke:#000000;stroke-linecap:round;stroke-linejoin:round;stroke-miterlimit:10;" d="M1577.57,1236.89
				l4.19,0.43c15.18,1.58,26.65,13.44,26.65,27.55v1.6c0,14.12-11.49,25.99-26.68,27.55l-4.16,0.43c-2.01,0.21-3.77-1.25-3.77-3.11
				l0,0c0-1.6,1.3-2.94,3.02-3.11l4.06-0.42c11.86-1.22,20.84-10.49,20.84-21.51v-1.25c0-11.02-8.96-20.28-20.81-21.51l-4.09-0.42
				c-1.71-0.18-3.01-1.52-3.01-3.11l0,0C1573.81,1238.13,1575.57,1236.68,1577.57,1236.89z"></path>
		</g>
		<g>
			<path style="fill:none;stroke:#000000;stroke-linecap:round;stroke-linejoin:round;stroke-miterlimit:10;" d="M1561.92,1383.16
				l18.96-1.95c11.86-1.22,20.84-10.49,20.84-21.51v-1.25c0-11.02-8.96-20.28-20.81-21.51l-18.98-1.97V1383.16z"></path>
			<path style="fill:none;stroke:#000000;stroke-linecap:round;stroke-linejoin:round;stroke-miterlimit:10;" d="M1577.57,1330.29
				l4.19,0.43c15.18,1.58,26.65,13.44,26.65,27.55v1.6c0,14.12-11.49,25.99-26.68,27.55l-4.16,0.43c-2.01,0.21-3.77-1.25-3.77-3.11
				l0,0c0-1.6,1.3-2.94,3.02-3.11l4.06-0.42c11.86-1.22,20.84-10.49,20.84-21.51v-1.25c0-11.02-8.96-20.28-20.81-21.51l-4.09-0.42
				c-1.71-0.18-3.01-1.52-3.01-3.11l0,0C1573.81,1331.53,1575.57,1330.08,1577.57,1330.29z"></path>
		</g>
		<path style="fill:none;stroke:#000000;stroke-linecap:round;stroke-linejoin:round;stroke-miterlimit:10;" d="M1561.88,1403.77
			v-276.41c0-0.61-0.49-1.1-1.1-1.1h-90.79c-0.61,0-1.1,0.49-1.1,1.1v276.41c0,0.61,0.49,1.1,1.1,1.1h90.79
			C1561.38,1404.88,1561.88,1404.38,1561.88,1403.77z"></path>
	</g>
	<g>
		<g>
			
				<circle style="fill:#FFFFFF;stroke:#000000;stroke-linecap:round;stroke-linejoin:round;stroke-miterlimit:10;" cx="1484.35" cy="1268.71" r="8.7"></circle>
		</g>
		<g>
			
				<circle style="fill:#FFFFFF;stroke:#000000;stroke-linecap:round;stroke-linejoin:round;stroke-miterlimit:10;" cx="1484.35" cy="1268.71" r="4.95"></circle>
		</g>
		<g>
			
				<ellipse transform="matrix(0.0227 -0.9997 0.9997 0.0227 169.9882 2745.2793)" style="fill:#FFFFFF;stroke:#000000;stroke-linecap:round;stroke-linejoin:round;stroke-miterlimit:10;" cx="1489.18" cy="1285.69" rx="1.35" ry="2.19"></ellipse>
			
				<line style="fill:#FFFFFF;stroke:#000000;stroke-linecap:round;stroke-linejoin:round;stroke-miterlimit:10;" x1="1486.99" y1="1285.64" x2="1477.41" y2="1285.43"></line>
		</g>
		<g>
			<path style="fill:#FFFFFF;stroke:#000000;stroke-linecap:round;stroke-linejoin:round;stroke-miterlimit:10;" d="M1492.07,1254.7
				l-2.19-0.05c-1.21-0.03-2.2,0.55-2.22,1.3c-0.02,0.74,0.95,1.37,2.16,1.4l2.19,0.05"></path>
			
				<line style="fill:#FFFFFF;stroke:#000000;stroke-linecap:round;stroke-linejoin:round;stroke-miterlimit:10;" x1="1487.66" y1="1255.94" x2="1478.09" y2="1255.72"></line>
		</g>
		
			<line style="fill:#FFFFFF;stroke:#000000;stroke-linecap:round;stroke-linejoin:round;stroke-miterlimit:10;" x1="1492.05" y1="1255.59" x2="1487.67" y2="1255.49"></line>
		
			<line style="fill:#FFFFFF;stroke:#000000;stroke-linecap:round;stroke-linejoin:round;stroke-miterlimit:10;" x1="1492.03" y1="1256.49" x2="1487.65" y2="1256.39"></line>
		<g>
			<path style="fill:#FFFFFF;stroke:#000000;stroke-linecap:round;stroke-linejoin:round;stroke-miterlimit:10;" d="
				M1483.34,1282.24l0.05-2.09l8.1,0.18l-0.03,1.32c-0.01,0.42-0.36,0.76-0.79,0.75L1483.34,1282.24z"></path>
			<path style="fill:#FFFFFF;stroke:#000000;stroke-linecap:round;stroke-linejoin:round;stroke-miterlimit:10;" d="M1477.5,1281.72
				l0.03-1.32c0-0.21,0.18-0.38,0.39-0.38l5.47,0.12l-0.05,2.09l-5.47-0.12C1477.66,1282.11,1477.49,1281.94,1477.5,1281.72z"></path>
		</g>
	</g>
	<g>
		<g>
			
				<circle style="fill:#FFFFFF;stroke:#000000;stroke-linecap:round;stroke-linejoin:round;stroke-miterlimit:10;" cx="1484.35" cy="1359.76" r="8.7"></circle>
		</g>
		<g>
			
				<circle style="fill:#FFFFFF;stroke:#000000;stroke-linecap:round;stroke-linejoin:round;stroke-miterlimit:10;" cx="1484.35" cy="1359.76" r="4.95"></circle>
		</g>
		<g>
			
				<ellipse transform="matrix(0.0227 -0.9997 0.9997 0.0227 78.9679 2834.2549)" style="fill:#FFFFFF;stroke:#000000;stroke-linecap:round;stroke-linejoin:round;stroke-miterlimit:10;" cx="1489.18" cy="1376.74" rx="1.35" ry="2.19"></ellipse>
			
				<line style="fill:#FFFFFF;stroke:#000000;stroke-linecap:round;stroke-linejoin:round;stroke-miterlimit:10;" x1="1486.99" y1="1376.69" x2="1477.41" y2="1376.47"></line>
		</g>
		<g>
			<path style="fill:#FFFFFF;stroke:#000000;stroke-linecap:round;stroke-linejoin:round;stroke-miterlimit:10;" d="
				M1492.07,1345.74l-2.19-0.05c-1.21-0.03-2.2,0.55-2.22,1.3c-0.02,0.74,0.95,1.37,2.16,1.4l2.19,0.05"></path>
			
				<line style="fill:#FFFFFF;stroke:#000000;stroke-linecap:round;stroke-linejoin:round;stroke-miterlimit:10;" x1="1487.66" y1="1346.99" x2="1478.09" y2="1346.77"></line>
		</g>
		
			<line style="fill:#FFFFFF;stroke:#000000;stroke-linecap:round;stroke-linejoin:round;stroke-miterlimit:10;" x1="1492.05" y1="1346.64" x2="1487.67" y2="1346.54"></line>
		
			<line style="fill:#FFFFFF;stroke:#000000;stroke-linecap:round;stroke-linejoin:round;stroke-miterlimit:10;" x1="1492.03" y1="1347.53" x2="1487.65" y2="1347.44"></line>
		<g>
			<path style="fill:#FFFFFF;stroke:#000000;stroke-linecap:round;stroke-linejoin:round;stroke-miterlimit:10;" d="
				M1483.34,1373.28l0.05-2.09l8.1,0.18l-0.03,1.32c-0.01,0.42-0.36,0.76-0.79,0.75L1483.34,1373.28z"></path>
			<path style="fill:#FFFFFF;stroke:#000000;stroke-linecap:round;stroke-linejoin:round;stroke-miterlimit:10;" d="M1477.5,1372.77
				l0.03-1.32c0-0.21,0.18-0.38,0.39-0.38l5.47,0.12l-0.05,2.09l-5.47-0.12C1477.66,1373.16,1477.49,1372.98,1477.5,1372.77z"></path>
		</g>
	</g>
	<g>
		<g>
			
				<circle style="fill:#FFFFFF;stroke:#000000;stroke-linecap:round;stroke-linejoin:round;stroke-miterlimit:10;" cx="1484.35" cy="1171.75" r="8.7"></circle>
		</g>
		<g>
			
				<circle style="fill:#FFFFFF;stroke:#000000;stroke-linecap:round;stroke-linejoin:round;stroke-miterlimit:10;" cx="1484.35" cy="1171.75" r="4.95"></circle>
		</g>
		<g>
			
				<ellipse transform="matrix(0.0227 -0.9997 0.9997 0.0227 266.9287 2650.5166)" style="fill:#FFFFFF;stroke:#000000;stroke-linecap:round;stroke-linejoin:round;stroke-miterlimit:10;" cx="1489.18" cy="1188.73" rx="1.35" ry="2.19"></ellipse>
			
				<line style="fill:#FFFFFF;stroke:#000000;stroke-linecap:round;stroke-linejoin:round;stroke-miterlimit:10;" x1="1486.99" y1="1188.68" x2="1477.41" y2="1188.46"></line>
		</g>
		<g>
			<path style="fill:#FFFFFF;stroke:#000000;stroke-linecap:round;stroke-linejoin:round;stroke-miterlimit:10;" d="
				M1492.07,1157.73l-2.19-0.05c-1.21-0.03-2.2,0.55-2.22,1.3c-0.02,0.74,0.95,1.37,2.16,1.4l2.19,0.05"></path>
			
				<line style="fill:#FFFFFF;stroke:#000000;stroke-linecap:round;stroke-linejoin:round;stroke-miterlimit:10;" x1="1487.66" y1="1158.98" x2="1478.09" y2="1158.76"></line>
		</g>
		
			<line style="fill:#FFFFFF;stroke:#000000;stroke-linecap:round;stroke-linejoin:round;stroke-miterlimit:10;" x1="1492.05" y1="1158.63" x2="1487.67" y2="1158.53"></line>
		
			<line style="fill:#FFFFFF;stroke:#000000;stroke-linecap:round;stroke-linejoin:round;stroke-miterlimit:10;" x1="1492.03" y1="1159.53" x2="1487.65" y2="1159.43"></line>
		<g>
			<path style="fill:#FFFFFF;stroke:#000000;stroke-linecap:round;stroke-linejoin:round;stroke-miterlimit:10;" d="
				M1483.34,1185.28l0.05-2.09l8.1,0.18l-0.03,1.32c-0.01,0.42-0.36,0.76-0.79,0.75L1483.34,1185.28z"></path>
			<path style="fill:#FFFFFF;stroke:#000000;stroke-linecap:round;stroke-linejoin:round;stroke-miterlimit:10;" d="M1477.5,1184.76
				l0.03-1.32c0-0.21,0.18-0.38,0.39-0.38l5.47,0.12l-0.05,2.09l-5.47-0.12C1477.66,1185.15,1477.49,1184.97,1477.5,1184.76z"></path>
		</g>
	</g>
	<g>
		<g>
			
				<circle style="fill:#FFFFFF;stroke:#000000;stroke-linecap:round;stroke-linejoin:round;stroke-miterlimit:10;" cx="1548.19" cy="1171.75" r="8.7"></circle>
		</g>
		<g>
			
				<circle style="fill:#FFFFFF;stroke:#000000;stroke-linecap:round;stroke-linejoin:round;stroke-miterlimit:10;" cx="1548.19" cy="1171.75" r="4.95"></circle>
		</g>
		<g>
			
				<ellipse transform="matrix(0.9997 -0.0227 0.0227 0.9997 -26.6055 35.3667)" style="fill:#FFFFFF;stroke:#000000;stroke-linecap:round;stroke-linejoin:round;stroke-miterlimit:10;" cx="1543.37" cy="1188.73" rx="2.19" ry="1.35"></ellipse>
			
				<line style="fill:#FFFFFF;stroke:#000000;stroke-linecap:round;stroke-linejoin:round;stroke-miterlimit:10;" x1="1545.55" y1="1188.68" x2="1555.13" y2="1188.46"></line>
		</g>
		<g>
			<path style="fill:#FFFFFF;stroke:#000000;stroke-linecap:round;stroke-linejoin:round;stroke-miterlimit:10;" d="
				M1540.47,1157.73l2.19-0.05c1.21-0.03,2.2,0.55,2.22,1.3c0.02,0.74-0.95,1.37-2.16,1.4l-2.19,0.05"></path>
			
				<line style="fill:#FFFFFF;stroke:#000000;stroke-linecap:round;stroke-linejoin:round;stroke-miterlimit:10;" x1="1544.88" y1="1158.98" x2="1554.45" y2="1158.76"></line>
		</g>
		
			<line style="fill:#FFFFFF;stroke:#000000;stroke-linecap:round;stroke-linejoin:round;stroke-miterlimit:10;" x1="1540.49" y1="1158.63" x2="1544.87" y2="1158.53"></line>
		
			<line style="fill:#FFFFFF;stroke:#000000;stroke-linecap:round;stroke-linejoin:round;stroke-miterlimit:10;" x1="1540.51" y1="1159.53" x2="1544.89" y2="1159.43"></line>
		<g>
			<path style="fill:#FFFFFF;stroke:#000000;stroke-linecap:round;stroke-linejoin:round;stroke-miterlimit:10;" d="M1549.2,1185.28
				l-0.05-2.09l-8.1,0.18l0.03,1.32c0.01,0.42,0.36,0.76,0.79,0.75L1549.2,1185.28z"></path>
			<path style="fill:#FFFFFF;stroke:#000000;stroke-linecap:round;stroke-linejoin:round;stroke-miterlimit:10;" d="
				M1555.05,1184.76l-0.03-1.32c0-0.21-0.18-0.38-0.39-0.38l-5.47,0.12l0.05,2.09l5.47-0.12
				C1554.88,1185.15,1555.05,1184.97,1555.05,1184.76z"></path>
		</g>
	</g>
	<g>
		<g>
			
				<circle style="fill:#FFFFFF;stroke:#000000;stroke-linecap:round;stroke-linejoin:round;stroke-miterlimit:10;" cx="1548.19" cy="1262.15" r="8.7"></circle>
		</g>
		<g>
			
				<circle style="fill:#FFFFFF;stroke:#000000;stroke-linecap:round;stroke-linejoin:round;stroke-miterlimit:10;" cx="1548.19" cy="1262.15" r="4.95"></circle>
		</g>
		<g>
			
				<ellipse transform="matrix(0.9997 -0.0227 0.0227 0.9997 -28.659 35.39)" style="fill:#FFFFFF;stroke:#000000;stroke-linecap:round;stroke-linejoin:round;stroke-miterlimit:10;" cx="1543.37" cy="1279.13" rx="2.19" ry="1.35"></ellipse>
			
				<line style="fill:#FFFFFF;stroke:#000000;stroke-linecap:round;stroke-linejoin:round;stroke-miterlimit:10;" x1="1545.55" y1="1279.08" x2="1555.13" y2="1278.86"></line>
		</g>
		<g>
			<path style="fill:#FFFFFF;stroke:#000000;stroke-linecap:round;stroke-linejoin:round;stroke-miterlimit:10;" d="
				M1540.47,1248.13l2.19-0.05c1.21-0.03,2.2,0.55,2.22,1.3c0.02,0.74-0.95,1.37-2.16,1.4l-2.19,0.05"></path>
			
				<line style="fill:#FFFFFF;stroke:#000000;stroke-linecap:round;stroke-linejoin:round;stroke-miterlimit:10;" x1="1544.88" y1="1249.38" x2="1554.45" y2="1249.16"></line>
		</g>
		
			<line style="fill:#FFFFFF;stroke:#000000;stroke-linecap:round;stroke-linejoin:round;stroke-miterlimit:10;" x1="1540.49" y1="1249.03" x2="1544.87" y2="1248.93"></line>
		
			<line style="fill:#FFFFFF;stroke:#000000;stroke-linecap:round;stroke-linejoin:round;stroke-miterlimit:10;" x1="1540.51" y1="1249.92" x2="1544.89" y2="1249.82"></line>
		<g>
			<path style="fill:#FFFFFF;stroke:#000000;stroke-linecap:round;stroke-linejoin:round;stroke-miterlimit:10;" d="M1549.2,1275.67
				l-0.05-2.09l-8.1,0.18l0.03,1.32c0.01,0.42,0.36,0.76,0.79,0.75L1549.2,1275.67z"></path>
			<path style="fill:#FFFFFF;stroke:#000000;stroke-linecap:round;stroke-linejoin:round;stroke-miterlimit:10;" d="
				M1555.05,1275.16l-0.03-1.32c0-0.21-0.18-0.38-0.39-0.38l-5.47,0.12l0.05,2.09l5.47-0.12
				C1554.88,1275.54,1555.05,1275.37,1555.05,1275.16z"></path>
		</g>
	</g>
	<g>
		<g>
			
				<circle style="fill:#FFFFFF;stroke:#000000;stroke-linecap:round;stroke-linejoin:round;stroke-miterlimit:10;" cx="1548.19" cy="1356.94" r="8.7"></circle>
		</g>
		<g>
			
				<circle style="fill:#FFFFFF;stroke:#000000;stroke-linecap:round;stroke-linejoin:round;stroke-miterlimit:10;" cx="1548.19" cy="1356.94" r="4.95"></circle>
		</g>
		<g>
			
				<ellipse transform="matrix(0.9997 -0.0227 0.0227 0.9997 -30.8123 35.4145)" style="fill:#FFFFFF;stroke:#000000;stroke-linecap:round;stroke-linejoin:round;stroke-miterlimit:10;" cx="1543.37" cy="1373.91" rx="2.19" ry="1.35"></ellipse>
			
				<line style="fill:#FFFFFF;stroke:#000000;stroke-linecap:round;stroke-linejoin:round;stroke-miterlimit:10;" x1="1545.55" y1="1373.86" x2="1555.13" y2="1373.65"></line>
		</g>
		<g>
			<path style="fill:#FFFFFF;stroke:#000000;stroke-linecap:round;stroke-linejoin:round;stroke-miterlimit:10;" d="
				M1540.47,1342.92l2.19-0.05c1.21-0.03,2.2,0.55,2.22,1.3c0.02,0.74-0.95,1.37-2.16,1.4l-2.19,0.05"></path>
			
				<line style="fill:#FFFFFF;stroke:#000000;stroke-linecap:round;stroke-linejoin:round;stroke-miterlimit:10;" x1="1544.88" y1="1344.16" x2="1554.45" y2="1343.95"></line>
		</g>
		
			<line style="fill:#FFFFFF;stroke:#000000;stroke-linecap:round;stroke-linejoin:round;stroke-miterlimit:10;" x1="1540.49" y1="1343.81" x2="1544.87" y2="1343.71"></line>
		
			<line style="fill:#FFFFFF;stroke:#000000;stroke-linecap:round;stroke-linejoin:round;stroke-miterlimit:10;" x1="1540.51" y1="1344.71" x2="1544.89" y2="1344.61"></line>
		<g>
			<path style="fill:#FFFFFF;stroke:#000000;stroke-linecap:round;stroke-linejoin:round;stroke-miterlimit:10;" d="M1549.2,1370.46
				l-0.05-2.09l-8.1,0.18l0.03,1.32c0.01,0.42,0.36,0.76,0.79,0.75L1549.2,1370.46z"></path>
			<path style="fill:#FFFFFF;stroke:#000000;stroke-linecap:round;stroke-linejoin:round;stroke-miterlimit:10;" d="
				M1555.05,1369.94l-0.03-1.32c0-0.21-0.18-0.38-0.39-0.38l-5.47,0.12l0.05,2.09l5.47-0.12
				C1554.88,1370.33,1555.05,1370.16,1555.05,1369.94z"></path>
		</g>
	</g>
	<g>
		
			<circle style="fill:#FFFFFF;stroke:#000000;stroke-linecap:round;stroke-linejoin:round;stroke-miterlimit:10;" cx="1516.51" cy="1267.1" r="12.75"></circle>
		
			<circle style="fill:#FFFFFF;stroke:#000000;stroke-linecap:round;stroke-linejoin:round;stroke-miterlimit:10;" cx="1522.33" cy="1270.78" r="3.66"></circle>
		
			<circle style="fill:#FFFFFF;stroke:#000000;stroke-linecap:round;stroke-linejoin:round;stroke-miterlimit:10;" cx="1519.32" cy="1264.09" r="3.66"></circle>
		
			<circle style="fill:#FFFFFF;stroke:#000000;stroke-linecap:round;stroke-linejoin:round;stroke-miterlimit:10;" cx="1514.74" cy="1269.82" r="3.66"></circle>
		<path style="fill:#FFFFFF;stroke:#000000;stroke-linecap:round;stroke-linejoin:round;stroke-miterlimit:10;" d="M1509.83,1273.49
			l0.8-0.23l-1.03-3.05c-0.07-6.43,4.61-8.73,7.08-10.25c0.57-0.35,0.33-1.24-0.34-1.25c-2.37-0.03-5.98,0.45-8.06,3.37
			c-2.37,3.34-0.65,6.67,0.47,8.25L1509.83,1273.49z"></path>
	</g>
	<g>
		<path style="fill:none;stroke:#000000;stroke-linecap:round;stroke-linejoin:round;stroke-miterlimit:10;" d="M1519.63,1319.52
			l2.15-3.15c-0.28-0.12-0.56-0.27-0.82-0.44c-0.26-0.18-0.49-0.38-0.71-0.6l-2.15,3.15c-0.17,0.24-0.1,0.58,0.14,0.74l0.64,0.44
			C1519.13,1319.83,1519.46,1319.77,1519.63,1319.52z"></path>
		
			<circle style="fill:none;stroke:#000000;stroke-linecap:round;stroke-linejoin:round;stroke-miterlimit:10;" cx="1523.89" cy="1311.63" r="5.2"></circle>
	</g>
	<g>
		<path style="fill:none;stroke:#000000;stroke-linecap:round;stroke-linejoin:round;stroke-miterlimit:10;" d="M1494.94,1227.41
			l2.15-3.15c-0.28-0.12-0.56-0.27-0.82-0.44c-0.26-0.18-0.49-0.38-0.71-0.6l-2.15,3.15c-0.17,0.24-0.1,0.58,0.14,0.74l0.64,0.44
			C1494.44,1227.72,1494.77,1227.65,1494.94,1227.41z"></path>
		
			<circle style="fill:none;stroke:#000000;stroke-linecap:round;stroke-linejoin:round;stroke-miterlimit:10;" cx="1499.19" cy="1219.51" r="5.2"></circle>
	</g>
	<g>
		<path style="fill:none;stroke:#000000;stroke-linecap:round;stroke-linejoin:round;stroke-miterlimit:10;" d="M467.48,1351.32
			c0-8.79-13.23-16.06-29.56-16.06c-16.33,0-29.56,7.35-29.56,16.06v47.05c0,3.7,3,6.7,6.7,6.7h45.73c3.7,0,6.7-3,6.7-6.7V1351.32z"></path>
		<path style="fill:none;stroke:#000000;stroke-linecap:round;stroke-linejoin:round;stroke-miterlimit:10;" d="M478.23,1351.32
			c0-14.67-18.05-26.78-40.31-26.78c-22.26,0-40.31,12.27-40.31,26.78v36.28c0,5.94,4.81,10.75,10.75,10.75l0,0v-47.03
			c0-8.7,13.23-16.06,29.56-16.06c16.33,0,29.56,7.26,29.56,16.06v47.03l0,0c5.94,0,10.75-4.81,10.75-10.75V1351.32z"></path>
	</g>
	
		<rect x="361.21" y="1412.32" transform="matrix(-1 1.659669e-13 -1.659669e-13 -1 875.8326 2893.2122)" style="fill:none;stroke:#000000;stroke-linecap:round;stroke-linejoin:round;stroke-miterlimit:10;" width="153.4" height="68.57"></rect>
	<g>
		<path style="fill:none;stroke:#000000;stroke-linecap:round;stroke-linejoin:round;stroke-miterlimit:10;" d="M440.68,1419.69
			h57.05c0.5,0,0.9,0.4,0.9,0.9l0,38.38c0,0.5-0.4,0.9-0.9,0.9h-57.05c-0.5,0-0.9-0.4-0.9-0.9l0-38.38
			C439.78,1420.09,440.18,1419.69,440.68,1419.69z"></path>
		
			<rect x="446.54" y="1436.27" transform="matrix(-1 -5.759835e-07 5.759835e-07 -1 938.4064 2892.0889)" style="fill:none;stroke:#000000;stroke-linecap:round;stroke-linejoin:round;stroke-miterlimit:10;" width="45.32" height="19.55"></rect>
		
			<rect x="460.08" y="1422.14" transform="matrix(-1 -5.759844e-07 5.759844e-07 -1 938.4064 2855.3286)" style="fill:none;stroke:#000000;stroke-linecap:round;stroke-linejoin:round;stroke-miterlimit:10;" width="18.25" height="11.05"></rect>
		<path style="fill:none;stroke:#000000;stroke-linecap:round;stroke-linejoin:round;stroke-miterlimit:10;" d="M439.78,1459.87
			h58.85l6.53,12.5c0.91,1.75-0.35,3.84-2.33,3.84l-67.27,0c-1.97,0-3.24-2.09-2.33-3.84L439.78,1459.87z"></path>
	</g>
	<g>
		
			<rect x="333.28" y="1120.21" transform="matrix(5.027647e-05 1 -1 5.027647e-05 1541.1975 711.7942)" style="fill:none;stroke:#000000;stroke-linecap:round;stroke-linejoin:round;stroke-miterlimit:10;" width="162.81" height="12.65"></rect>
		
			<rect x="493.4" y="972.73" transform="matrix(5.027647e-05 1 -1 5.027647e-05 1701.3037 551.6653)" style="fill:none;stroke:#000000;stroke-linecap:round;stroke-linejoin:round;stroke-miterlimit:10;" width="162.81" height="307.59"></rect>
		<path style="fill:none;stroke:#000000;stroke-linecap:round;stroke-linejoin:round;stroke-miterlimit:10;" d="M486.07,1056.04
			l227.78-0.01c2.33,0,4.22,1.63,4.22,3.64l0.01,133.71c0,2.01-1.89,3.64-4.22,3.64l-227.78,0.01L486.07,1056.04z"></path>
		<path style="fill:none;stroke:#000000;stroke-linecap:round;stroke-linejoin:round;stroke-miterlimit:10;" d="M486.07,1077.42
			l0-21.38l-54.52,0c-2.33,0-4.22,1.63-4.22,3.64l0.01,133.71c0,2.01,1.89,3.64,4.22,3.64l54.52,0l0-21.38l-31.14,0
			c-9.31,0-16.86-6.51-16.87-14.55l0-69.12c0-8.04,7.55-14.55,16.86-14.55L486.07,1077.42z"></path>
	</g>
	<g>
		<g>
			<polygon style="fill:none;stroke:#000000;stroke-linecap:round;stroke-linejoin:round;stroke-miterlimit:10;" points="
				394.47,1424.08 391.9,1419.99 371.32,1433.85 373.9,1437.94 			"></polygon>
			<g>
				<polygon style="fill:none;stroke:#000000;stroke-linecap:round;stroke-linejoin:round;stroke-miterlimit:10;" points="
					393.39,1431.64 389.9,1428.35 373.36,1447.12 376.85,1450.4 				"></polygon>
			</g>
			<g>
				<polygon style="fill:none;stroke:#000000;stroke-linecap:round;stroke-linejoin:round;stroke-miterlimit:10;" points="
					421.79,1444.74 399.99,1450.71 404.29,1467.49 426.08,1461.52 				"></polygon>
				
					<line style="fill:none;stroke:#000000;stroke-linecap:round;stroke-linejoin:round;stroke-miterlimit:10;" x1="400.33" y1="1452.02" x2="422.12" y2="1446.05"></line>
			</g>
		</g>
		<polygon style="fill:none;stroke:#000000;stroke-linecap:round;stroke-linejoin:round;stroke-miterlimit:10;" points="
			389.9,1428.35 377.05,1442.93 373.9,1437.94 394.47,1424.08 402.95,1437.54 401.02,1438.84 		"></polygon>
		<polygon style="fill:none;stroke:#000000;stroke-linecap:round;stroke-linejoin:round;stroke-miterlimit:10;" points="
			404.86,1442.46 389.9,1428.35 373.36,1447.12 388.32,1461.22 		"></polygon>
	</g>
	<g>
		
			<circle style="fill:none;stroke:#000000;stroke-linecap:round;stroke-linejoin:round;stroke-miterlimit:10;" cx="657.36" cy="1146.38" r="8.21"></circle>
		<g>
			
				<circle style="fill:none;stroke:#000000;stroke-linecap:round;stroke-linejoin:round;stroke-miterlimit:10;" cx="655.49" cy="1148.05" r="0.88"></circle>
			
				<circle style="fill:none;stroke:#000000;stroke-linecap:round;stroke-linejoin:round;stroke-miterlimit:10;" cx="658.68" cy="1144.26" r="0.88"></circle>
		</g>
		<polygon style="fill:none;stroke:#000000;stroke-linecap:round;stroke-linejoin:round;stroke-miterlimit:10;" points="
			658.09,1149.32 660.37,1146.61 660.59,1149.1 		"></polygon>
		<path style="fill:none;stroke:#000000;stroke-linecap:round;stroke-linejoin:round;stroke-miterlimit:10;" d="M681.27,1166.49
			L681.27,1166.49c-3.23,3.85-9.17,3.82-12.36-0.06l-6.25-7.58c-1.45-1.76-1.44-4.3,0.03-6.04l1.91-2.27
			c1.47-1.74,3.97-2.19,5.95-1.07l8.54,4.86C683.46,1156.81,684.5,1162.64,681.27,1166.49z"></path>
		<path style="fill:none;stroke:#000000;stroke-linecap:round;stroke-linejoin:round;stroke-miterlimit:10;" d="M676.95,1144.47
			l-8.51,4.35l0.05,0.09c0.71,0.04,1.41,0.18,2.06,0.55l3.52,2l5.12-2.62c1.21-0.62,1.69-2.1,1.07-3.31
			C679.64,1144.33,678.15,1143.85,676.95,1144.47z"></path>
		<path style="fill:none;stroke:#000000;stroke-linecap:round;stroke-linejoin:round;stroke-miterlimit:10;" d="M663.45,1167.55
			l1.74-5.63l-2.54-3.08c-0.45-0.54-0.71-1.17-0.88-1.82l-0.2-0.06l-2.83,9.13c-0.4,1.3,0.32,2.67,1.62,3.08
			C661.67,1169.58,663.05,1168.85,663.45,1167.55z"></path>
		<path style="fill:none;stroke:#000000;stroke-linecap:round;stroke-linejoin:round;stroke-miterlimit:10;" d="M681.41,1166.27
			l5.45,4.96c1.29,1.17,3.29,1.08,4.46-0.21c1.17-1.29,1.08-3.29-0.21-4.46l-8.36-7.61C683.5,1161.38,683.12,1164.1,681.41,1166.27z
			"></path>
		<path style="fill:none;stroke:#000000;stroke-linecap:round;stroke-linejoin:round;stroke-miterlimit:10;" d="M671.86,1168.66
			l-0.22,0.15l6.45,9.67c0.97,1.45,2.93,1.84,4.38,0.87c1.45-0.97,1.84-2.93,0.87-4.38l-4.42-6.62
			C676.74,1169.54,674.12,1169.66,671.86,1168.66z"></path>
		<path style="fill:none;stroke:#000000;stroke-linecap:round;stroke-linejoin:round;stroke-miterlimit:10;" d="M649.5,1144.03
			l-12.31-3.79c-1.86-0.57-3.82,0.54-4.28,2.43c-0.46,1.89,0.77,3.78,2.68,4.12l14.15,2.55
			C649.09,1147.65,648.98,1145.78,649.5,1144.03z"></path>
		<path style="fill:none;stroke:#000000;stroke-linecap:round;stroke-linejoin:round;stroke-miterlimit:10;" d="M641.45,1127.73
			c-1.25,1.49-0.99,3.72,0.57,4.88l10.08,7.49c1.6-1.34,3.6-1.97,5.6-1.89l-11.34-10.76
			C644.95,1126.12,642.7,1126.24,641.45,1127.73z"></path>
	</g>
	<g>
		<g>
			<polygon style="fill:none;stroke:#000000;stroke-linecap:round;stroke-linejoin:round;stroke-miterlimit:10;" points="
				698.97,1396.81 693.57,1396.95 691.27,1392.05 701,1391.79 			"></polygon>
			<g>
				
					<rect x="691.2" y="1386.3" transform="matrix(0.9996 -0.0266 0.0266 0.9996 -36.6789 18.9934)" style="fill:none;stroke:#000000;stroke-linecap:round;stroke-linejoin:round;stroke-miterlimit:10;" width="9.73" height="5.63"></rect>
				<polygon style="fill:none;stroke:#000000;stroke-linecap:round;stroke-linejoin:round;stroke-miterlimit:10;" points="
					700.26,1375.89 697.83,1353.89 692.43,1354.04 691.17,1376.13 				"></polygon>
			</g>
			
				<line style="fill:none;stroke:#000000;stroke-linecap:round;stroke-linejoin:round;stroke-miterlimit:10;" x1="695.3" y1="1360.46" x2="695.13" y2="1353.97"></line>
			<path style="fill:none;stroke:#000000;stroke-linecap:round;stroke-linejoin:round;stroke-miterlimit:10;" d="M701.73,1353.79
				l-3.9,0.1l0.7,6.48l3.38-0.09c1.79-0.05,3.21-1.54,3.16-3.34l0,0C705.02,1355.16,703.53,1353.74,701.73,1353.79z"></path>
			<path style="fill:none;stroke:#000000;stroke-linecap:round;stroke-linejoin:round;stroke-miterlimit:10;" d="M688.52,1354.14
				l3.9-0.1l-0.36,6.51l-3.38,0.09c-1.79,0.05-3.29-1.37-3.34-3.16l0,0C685.31,1355.68,686.73,1354.19,688.52,1354.14z"></path>
			<path style="fill:none;stroke:#000000;stroke-linecap:round;stroke-linejoin:round;stroke-miterlimit:10;" d="M672.18,1376.64
				l47.08-1.25c0.91-0.02,1.67,0.7,1.7,1.61l0.19,6.98c0.02,0.91-0.7,1.67-1.61,1.7l-47.08,1.25c-0.91,0.02-1.67-0.7-1.7-1.61
				l-0.19-6.98C670.54,1377.42,671.26,1376.66,672.18,1376.64z"></path>
		</g>
		<g>
			
				<circle style="fill:none;stroke:#000000;stroke-linecap:round;stroke-linejoin:round;stroke-miterlimit:10;" cx="655.19" cy="1412.72" r="13.42"></circle>
			<g>
				<path style="fill:none;stroke:#000000;stroke-linecap:round;stroke-linejoin:round;stroke-miterlimit:10;" d="M643.03,1408.64
					c2.71-3.13,8.92-2.18,13.87,2.12c4.95,4.29,6.76,10.31,4.04,13.44c-0.62,0.71-1.43,1.2-2.35,1.5c2.53-0.66,4.88-2.06,6.73-4.18
					c4.86-5.6,4.26-14.07-1.34-18.93c-5.6-4.86-14.07-4.26-18.93,1.34c-1.89,2.17-2.94,4.78-3.21,7.45
					C641.99,1410.33,642.38,1409.4,643.03,1408.64z"></path>
			</g>
			<path style="fill:none;stroke:#000000;stroke-linecap:round;stroke-linejoin:round;stroke-miterlimit:10;" d="M643.55,1408.13
				c2.93-2.49,8.7-1.41,13.35,2.63c4.64,4.03,6.52,9.58,4.49,12.83"></path>
			<path style="fill:none;stroke:#000000;stroke-linecap:round;stroke-linejoin:round;stroke-miterlimit:10;" d="M665.01,1421.87
				c2.8-3.22,0.53-9.78-5.07-14.63c-5.6-4.86-12.4-6.18-15.2-2.96"></path>
		</g>
	</g>
	<g>
		<g>
			<path style="fill:none;stroke:#000000;stroke-linecap:round;stroke-linejoin:round;stroke-miterlimit:10;" d="M1015.06,1185.52"></path>
			<path style="fill:none;stroke:#000000;stroke-linecap:round;stroke-linejoin:round;stroke-miterlimit:10;" d="M987.52,1170.42
				l1.42,1.68c0.01,0.01,0.02,0.02,0.03,0.02l5.52-8.54l-1.8,0.78l-3.15-10.98c-0.48-1.67-2.11-2.85-3.82-2.55
				c-1.97,0.35-3.17,2.31-2.63,4.2l4.39,15.33C987.49,1170.38,987.51,1170.39,987.52,1170.42z"></path>
			<path style="fill:none;stroke:#000000;stroke-linecap:round;stroke-linejoin:round;stroke-miterlimit:10;" d="M1008.5,1160.05
				c0,0-2.21-3.15-5.61-2.98c-2.9,0.14-5.22,1.74-6.79,4.02l0,0l-0.13,0.2c-0.07,0.1-0.14,0.21-0.2,0.32l-6.81,10.53l-7.39-8.71
				c-1.12-1.32-3.1-1.73-4.53-0.74c-1.65,1.13-1.94,3.42-0.66,4.91l10.32,12.16c1.11,1.3,3.11,1.34,4.26,0.08l4.53-4.96
				c2.12,4.55,5.2,7.27,8.16,8.87c4.27,2.31,9.41,2.61,13.93,0.83c0.11-0.04,0.2-0.08,0.28-0.12c3.69-1.83,12.33-6.44,14.94-21.56
				c2.89-16.76-3.92-27.14-8.33-31.9"></path>
			<path style="fill:none;stroke:#000000;stroke-linecap:round;stroke-linejoin:round;stroke-miterlimit:10;" d="M1036.54,1206.72
				c0.04-0.02,0.09-0.04,0.13-0.06c-0.14-0.13-0.28-0.26-0.42-0.4c-2.89,0.66-5.41,0.79-8.48-0.08
				c-8.93-2.53-15.04-11.39-13.81-20.34c0.02-0.12-0.02-0.23-0.02-0.34c-1.21,0.18-2.43,0.22-3.65,0.13
				c-1.38,9.56,4.54,18.93,14.03,21.58C1028.51,1208.38,1032.77,1208.16,1036.54,1206.72z"></path>
			<path style="fill:none;stroke:#000000;stroke-linecap:round;stroke-linejoin:round;stroke-miterlimit:10;" d="M1013.31,1123.13
				l7.53-2.36l-7.4-28.5c-1-4.26,5.23-5.91,6.44-1.67c0,0,8.29,31.94,8.29,31.94l-3.7,8.43l-2.86,6.51"></path>
			
				<line style="fill:none;stroke:#000000;stroke-linecap:round;stroke-linejoin:round;stroke-miterlimit:10;" x1="1016.15" y1="1170.95" x2="1002.08" y2="1150.89"></line>
			<path style="fill:none;stroke:#000000;stroke-linecap:round;stroke-linejoin:round;stroke-miterlimit:10;" d="M1023.14,1131.19"></path>
			<g>
				<g>
					<g>
						<path style="fill:none;stroke:#000000;stroke-linecap:round;stroke-linejoin:round;stroke-miterlimit:10;" d="M1018.16,1124.6
							c-2.38-1.4-5.3-1.89-8.19-1.14l-5.38,1.4c0,0,0,0,0,0l1.53-0.4c2.14-0.55,4.32,0.73,4.87,2.86l1.12,4.33l3.38,5.08"></path>
						<path style="fill:none;stroke:#000000;stroke-linecap:round;stroke-linejoin:round;stroke-miterlimit:10;" d="M998.17,1141.22
							l0.49-6.08l-1.06-4.09c-0.8,1.98-1.02,4.22-0.44,6.45l0.95,3.67L998.17,1141.22z"></path>
					</g>
					<path style="fill:none;stroke:#000000;stroke-linecap:round;stroke-linejoin:round;stroke-miterlimit:10;" d="M1006.11,1124.46
						c0.47-0.12,0.93-0.12,1.38-0.08l-4.82-18.56c-0.46-1.78-2.28-2.85-4.06-2.38c-1.78,0.46-2.85,2.28-2.38,4.06l4.75,18.29
						L1006.11,1124.46z"></path>
					<path style="fill:none;stroke:#000000;stroke-linecap:round;stroke-linejoin:round;stroke-miterlimit:10;" d="M1002.1,1125.5
						l-0.74,2.16c-0.42,1.25,0.71,2.47,1.98,2.13l2.06-0.53c1.27-0.33,1.67-1.95,0.69-2.83l-1.69-1.53L1002.1,1125.5z"></path>
					<path style="fill:none;stroke:#000000;stroke-linecap:round;stroke-linejoin:round;stroke-miterlimit:10;" d="M1008.7,1140.7
						c-0.59-0.38-0.77-1.16-0.39-1.76c0.38-0.59,1.16-0.77,1.76-0.39"></path>
					<path style="fill:none;stroke:#000000;stroke-linecap:round;stroke-linejoin:round;stroke-miterlimit:10;" d="M1003.39,1140
						c0.46-0.54,1.26-0.6,1.79-0.15c0.54,0.46,0.6,1.26,0.15,1.79"></path>
				</g>
				<g>
					<g>
						
							<circle style="fill:none;stroke:#000000;stroke-linecap:round;stroke-linejoin:round;stroke-miterlimit:10;" cx="1009.72" cy="1135.47" r="1.02"></circle>
						<path style="fill:none;stroke:#000000;stroke-linecap:round;stroke-linejoin:round;stroke-miterlimit:10;" d="
							M1011.48,1133.54c0.08,1.54-0.28,2.37-1.33,2.86"></path>
					</g>
					<g>
						
							<circle style="fill:none;stroke:#000000;stroke-linecap:round;stroke-linejoin:round;stroke-miterlimit:10;" cx="1002.6" cy="1137.32" r="1.02"></circle>
						<path style="fill:none;stroke:#000000;stroke-linecap:round;stroke-linejoin:round;stroke-miterlimit:10;" d="
							M1000.12,1136.49c0.67,1.38,1.4,1.93,2.55,1.85"></path>
					</g>
				</g>
				
					<line style="fill:none;stroke:#000000;stroke-linecap:round;stroke-linejoin:round;stroke-miterlimit:10;" x1="1003.25" y1="1125.2" x2="1003.63" y2="1126.65"></line>
			</g>
			<path style="fill:none;stroke:#000000;stroke-linecap:round;stroke-linejoin:round;stroke-miterlimit:10;" d="M1003.85,1150.74
				c0,0,8.27,5.12,17.16,0.32"></path>
		</g>
		<path style="fill:none;stroke:#000000;stroke-linecap:round;stroke-linejoin:round;stroke-miterlimit:10;" d="M1012.15,1146.56
			l3.76-11.06c0.37-1.08,1.72-1.43,2.56-0.66l4.17,3.77c1.93,1.74,1.15,4.94-1.37,5.59L1012.15,1146.56z"></path>
		<path style="fill:none;stroke:#000000;stroke-linecap:round;stroke-linejoin:round;stroke-miterlimit:10;" d="M1003.85,1150.74
			l11.31-2.94c1.58-0.41,2.72-1.52,3.26-2.87l-6.27,1.63l3.35-9.84l-3.38-5.08l-1.12-4.33c-0.55-2.14-2.74-3.42-4.87-2.86
			l-5.72,1.48c-2.14,0.55-3.42,2.74-2.86,4.87l1.12,4.33l-0.49,6.08l7.71,6.97l-6.27,1.63
			C1000.74,1150.73,1002.28,1151.15,1003.85,1150.74z"></path>
		<path style="fill:none;stroke:#000000;stroke-linecap:round;stroke-linejoin:round;stroke-miterlimit:10;" d="M992.84,1146.34
			l1.81-5.32c0.37-1.08,1.72-1.43,2.56-0.66l8.67,7.83l-9.12,2.37C994.24,1151.21,992,1148.8,992.84,1146.34z"></path>
	</g>
</g>
<g id="floor">
	<g>
		<path style="fill:none;stroke:#000000;stroke-linecap:round;stroke-linejoin:round;stroke-miterlimit:10;" d="M1547.18,577.99
			c0-78.4,63.41-142.58,141.81-142.58l0,141.41"></path>
		
			<rect x="1689" y="576.82" transform="matrix(-1 2.479662e-05 -2.479662e-05 -1 3386.4602 1169.1716)" style="fill:none;stroke:#000000;stroke-linecap:round;stroke-linejoin:round;stroke-miterlimit:10;" width="8.45" height="15.57"></rect>
		
			<rect x="1538.73" y="576.82" transform="matrix(-1 2.479663e-05 -2.479663e-05 -1 3085.9314 1169.1827)" style="fill:none;stroke:#000000;stroke-linecap:round;stroke-linejoin:round;stroke-miterlimit:10;" width="8.45" height="15.57"></rect>
	</g>
	<g>
		<path style="fill:none;stroke:#000000;stroke-linecap:round;stroke-linejoin:round;stroke-miterlimit:10;" d="M1531.49,872.71
			c59.73,0,108.63-48.32,108.63-108.05l-107.74,0"></path>
		
			<rect x="1523.24" y="755.5" transform="matrix(-2.479667e-05 1 -1 -2.479667e-05 2287.9292 -764.9977)" style="fill:none;stroke:#000000;stroke-linecap:round;stroke-linejoin:round;stroke-miterlimit:10;" width="6.44" height="11.87"></rect>
		
			<rect x="1523.23" y="869.99" transform="matrix(-2.479667e-05 1 -1 -2.479667e-05 2402.4131 -650.5054)" style="fill:none;stroke:#000000;stroke-linecap:round;stroke-linejoin:round;stroke-miterlimit:10;" width="6.44" height="11.87"></rect>
	</g>
	<g>
		<path style="fill:none;stroke:#000000;stroke-linecap:round;stroke-linejoin:round;stroke-miterlimit:10;" d="M1035.2,857.59
			c-59.73,0-108.63-48.32-108.63-108.05l107.74,0"></path>
		
			<rect x="1037.02" y="740.39" transform="matrix(2.479662e-05 1 -1 2.479662e-05 1786.5338 -293.9323)" style="fill:none;stroke:#000000;stroke-linecap:round;stroke-linejoin:round;stroke-miterlimit:10;" width="6.44" height="11.87"></rect>
		
			<rect x="1037.02" y="854.88" transform="matrix(2.479663e-05 1 -1 2.479663e-05 1901.0234 -179.4512)" style="fill:none;stroke:#000000;stroke-linecap:round;stroke-linejoin:round;stroke-miterlimit:10;" width="6.44" height="11.87"></rect>
	</g>
	<g>
		<path style="fill:none;stroke:#000000;stroke-linecap:round;stroke-linejoin:round;stroke-miterlimit:10;" d="M882.39,994.52
			c0-67.2,54.36-122.21,121.55-122.21l0,121.21"></path>
		
			<rect x="1003.95" y="993.52" transform="matrix(-1 2.479667e-05 -2.479667e-05 -1 2015.1689 2000.3634)" style="fill:none;stroke:#000000;stroke-linecap:round;stroke-linejoin:round;stroke-miterlimit:10;" width="7.24" height="13.35"></rect>
		
			<rect x="875.15" y="993.52" transform="matrix(-1 2.479667e-05 -2.479667e-05 -1 1757.5736 2000.373)" style="fill:none;stroke:#000000;stroke-linecap:round;stroke-linejoin:round;stroke-miterlimit:10;" width="7.24" height="13.35"></rect>
	</g>
	<g>
		<path style="fill:none;stroke:#000000;stroke-linecap:round;stroke-linejoin:round;stroke-miterlimit:10;" d="M852.22,1221.53
			c-67.2,0-122.21-54.36-122.21-121.55l121.21,0"></path>
		
			<rect x="854.27" y="1089.68" transform="matrix(2.479667e-05 1 -1 2.479667e-05 1954.222 238.4324)" style="fill:none;stroke:#000000;stroke-linecap:round;stroke-linejoin:round;stroke-miterlimit:10;" width="7.24" height="13.35"></rect>
		
			<rect x="854.27" y="1218.47" transform="matrix(2.479667e-05 1 -1 2.479667e-05 2083.0229 367.2237)" style="fill:none;stroke:#000000;stroke-linecap:round;stroke-linejoin:round;stroke-miterlimit:10;" width="7.24" height="13.35"></rect>
	</g>
	<g>
		<g id="LWPOLYLINE_272_">
			
				<rect x="1780.59" y="1255.98" style="fill:none;stroke:#000000;stroke-linecap:round;stroke-linejoin:round;stroke-miterlimit:10;" width="89.18" height="89.18"></rect>
		</g>
		<g id="LWPOLYLINE_271_">
			
				<line style="fill:none;stroke:#000000;stroke-linecap:round;stroke-linejoin:round;stroke-miterlimit:10;" x1="1817.75" y1="1278.28" x2="1788.02" y2="1278.28"></line>
		</g>
		<g id="LWPOLYLINE_270_">
			
				<line style="fill:none;stroke:#000000;stroke-linecap:round;stroke-linejoin:round;stroke-miterlimit:10;" x1="1802.88" y1="1293.14" x2="1802.88" y2="1263.41"></line>
		</g>
		<g id="CIRCLE_203_">
			<path style="fill:none;stroke:#000000;stroke-linecap:round;stroke-linejoin:round;stroke-miterlimit:10;" d="M1802.88,1266.39
				c-6.57,0-11.89,5.32-11.89,11.89c0,6.57,5.32,11.89,11.89,11.89c6.57,0,11.89-5.32,11.89-11.89
				C1814.78,1271.71,1809.45,1266.39,1802.88,1266.39L1802.88,1266.39z"></path>
		</g>
		<g id="LWPOLYLINE_269_">
			
				<line style="fill:none;stroke:#000000;stroke-linecap:round;stroke-linejoin:round;stroke-miterlimit:10;" x1="1862.34" y1="1278.28" x2="1832.61" y2="1278.28"></line>
		</g>
		<g id="LWPOLYLINE_268_">
			
				<line style="fill:none;stroke:#000000;stroke-linecap:round;stroke-linejoin:round;stroke-miterlimit:10;" x1="1847.47" y1="1293.14" x2="1847.47" y2="1263.41"></line>
		</g>
		<g id="CIRCLE_202_">
			<path style="fill:none;stroke:#000000;stroke-linecap:round;stroke-linejoin:round;stroke-miterlimit:10;" d="M1847.48,1266.39
				c-6.57,0-11.9,5.33-11.9,11.9c0,6.57,5.33,11.9,11.9,11.9c6.57,0,11.9-5.33,11.9-11.9
				C1859.37,1271.71,1854.05,1266.39,1847.48,1266.39L1847.48,1266.39z"></path>
		</g>
		<g id="LWPOLYLINE_267_">
			
				<line style="fill:none;stroke:#000000;stroke-linecap:round;stroke-linejoin:round;stroke-miterlimit:10;" x1="1862.34" y1="1322.87" x2="1832.61" y2="1322.87"></line>
		</g>
		<g id="LWPOLYLINE_266_">
			
				<line style="fill:none;stroke:#000000;stroke-linecap:round;stroke-linejoin:round;stroke-miterlimit:10;" x1="1847.47" y1="1337.73" x2="1847.47" y2="1308"></line>
		</g>
		<g id="CIRCLE_201_">
			<path style="fill:none;stroke:#000000;stroke-linecap:round;stroke-linejoin:round;stroke-miterlimit:10;" d="M1847.48,1310.98
				c-6.57,0-11.9,5.33-11.9,11.9c0,6.57,5.33,11.9,11.9,11.9c6.57,0,11.9-5.33,11.9-11.9
				C1859.37,1316.3,1854.05,1310.98,1847.48,1310.98L1847.48,1310.98z"></path>
		</g>
		<g id="LWPOLYLINE_265_">
			
				<line style="fill:none;stroke:#000000;stroke-linecap:round;stroke-linejoin:round;stroke-miterlimit:10;" x1="1817.75" y1="1322.87" x2="1788.02" y2="1322.87"></line>
		</g>
		<g id="LWPOLYLINE_264_">
			
				<line style="fill:none;stroke:#000000;stroke-linecap:round;stroke-linejoin:round;stroke-miterlimit:10;" x1="1802.88" y1="1337.73" x2="1802.88" y2="1308.01"></line>
		</g>
		<g id="CIRCLE_200_">
			<path style="fill:none;stroke:#000000;stroke-linecap:round;stroke-linejoin:round;stroke-miterlimit:10;" d="M1802.88,1310.98
				c-6.57,0-11.89,5.32-11.89,11.89c0,6.57,5.32,11.89,11.89,11.89c6.57,0,11.89-5.32,11.89-11.89
				C1814.78,1316.3,1809.45,1310.98,1802.88,1310.98L1802.88,1310.98z"></path>
		</g>
	</g>
	<g>
		<g id="LWPOLYLINE_263_">
			
				<rect x="1780.59" y="1006.57" style="fill:none;stroke:#000000;stroke-linecap:round;stroke-linejoin:round;stroke-miterlimit:10;" width="89.18" height="89.18"></rect>
		</g>
		<g id="LWPOLYLINE_262_">
			<path style="fill:none;stroke:#000000;stroke-linecap:round;stroke-linejoin:round;stroke-miterlimit:10;" d="M1793.22,1014
				l56.44,0c2.87,0,5.2,2.33,5.2,5.2c0,0,0,63.92,0,63.92c0,2.87-2.33,5.2-5.2,5.2c0,0-56.45,0-56.45,0c-2.87,0-5.2-2.33-5.2-5.2
				c0,0,0-63.92,0-63.92C1788.02,1016.33,1790.35,1014,1793.22,1014z"></path>
		</g>
		<g id="LWPOLYLINE_261_">
			<path style="fill:none;stroke:#000000;stroke-linecap:round;stroke-linejoin:round;stroke-miterlimit:10;" d="M1835.2,1036.3
				c0-2.88,2.33-5.21,5.21-5.21c2.88,0,5.21,2.33,5.21,5.21c0,2.88-2.33,5.21-5.21,5.21
				C1837.53,1041.51,1835.2,1039.18,1835.2,1036.3z"></path>
		</g>
	</g>
	
		<line style="fill:none;stroke:#000000;stroke-linecap:round;stroke-linejoin:round;stroke-miterlimit:10;stroke-dasharray:10,10;" x1="852.48" y1="996.89" x2="852.48" y2="588.51"></line>
	
		<line style="fill:none;stroke:#000000;stroke-linecap:round;stroke-linejoin:round;stroke-miterlimit:10;stroke-dasharray:10,10;" x1="1528" y1="1000.22" x2="1704.27" y2="1000.22"></line>
	
		<line style="fill:none;stroke:#000000;stroke-linecap:round;stroke-linejoin:round;stroke-miterlimit:10;stroke-dasharray:4,4;" x1="636.02" y1="1037.18" x2="798.93" y2="1037.18"></line>
	<g>
		<g>
			<g id="LWPOLYLINE_260_">
				<path style="fill:none;stroke:#000000;stroke-linecap:round;stroke-linejoin:round;stroke-miterlimit:10;" d="M1262.87,868.03
					l42.7,0c6.02,0,11.35-3.88,13.19-9.61c6.69-20.78,6.7-43.14,0-63.92c-1.85-5.73-7.17-9.61-13.19-9.61h-42.71"></path>
			</g>
			<g id="LWPOLYLINE_259_">
				<path style="fill:none;stroke:#000000;stroke-linecap:round;stroke-linejoin:round;stroke-miterlimit:10;" d="M1274.82,804.29
					c0-4.59,3.72-8.31,8.31-8.31l13.31,0c3.04,0,5.73,1.99,6.62,4.9c5.11,16.67,5.11,34.49,0,51.17c-0.89,2.91-3.58,4.9-6.62,4.9
					h-13.31c-4.59,0-8.32-3.72-8.32-8.32"></path>
			</g>
			<g id="LWPOLYLINE_258_">
				<path style="fill:none;stroke:#000000;stroke-linecap:round;stroke-linejoin:round;stroke-miterlimit:10;" d="M1283.13,862.49
					c-4.59,0-8.31-3.72-8.31-8.31v-55.42c0-4.6,3.72-8.31,8.31-8.31h22.45c3.61,0,6.81,2.33,7.91,5.76
					c6.34,19.67,6.34,40.84,0,60.52c-1.1,3.44-4.3,5.77-7.91,5.77H1283.13z"></path>
			</g>
			<g id="LWPOLYLINE_257_">
				<path style="fill:none;stroke:#000000;stroke-linecap:round;stroke-linejoin:round;stroke-miterlimit:10;" d="M1277.3,826.47
					c0-2.06,1.67-3.73,3.73-3.73c2.06,0,3.73,1.67,3.73,3.73c0,2.06-1.67,3.73-3.73,3.73
					C1278.97,830.19,1277.3,828.53,1277.3,826.47z"></path>
			</g>
		</g>
		<g>
			<g id="LWPOLYLINE_256_">
				
					<rect x="1263.41" y="887.52" style="fill:none;stroke:#000000;stroke-linecap:round;stroke-linejoin:round;stroke-miterlimit:10;" width="257.01" height="105.21"></rect>
			</g>
			<g id="LWPOLYLINE_255_">
				<path style="fill:none;stroke:#000000;stroke-linecap:round;stroke-linejoin:round;stroke-miterlimit:10;" d="M1484.79,984.32
					l-167.7,0c-24.4,0-44.18-19.78-44.19-44.19c0-24.4,19.78-44.19,44.19-44.19l167.7,0c11.66,0,21.16,9.38,21.29,21.04v46.29
					c0,11.62-9.42,21.04-21.04,21.04"></path>
			</g>
			<g id="LWPOLYLINE_254_">
				<path style="fill:none;stroke:#000000;stroke-linecap:round;stroke-linejoin:round;stroke-miterlimit:10;" d="M1432.26,972.3
					l-115.16,0c-17.77,0-32.17-14.4-32.17-32.17s14.4-32.16,32.17-32.16l113.51,0c17.11,0.01,31.23,13.42,32.12,30.51
					C1463.65,956.22,1450.01,971.37,1432.26,972.3z"></path>
			</g>
			<g id="LWPOLYLINE_253_">
				<path style="fill:none;stroke:#000000;stroke-linecap:round;stroke-linejoin:round;stroke-miterlimit:10;" d="M1311.2,940.13
					c0-3.25,2.64-5.89,5.89-5.89c3.26,0,5.89,2.64,5.89,5.89c0,3.26-2.64,5.89-5.89,5.89
					C1313.84,946.02,1311.2,943.38,1311.2,940.13z"></path>
			</g>
		</g>
		<g>
			<g id="LWPOLYLINE_252_">
				
					<rect x="1286.28" y="632" style="fill:none;stroke:#000000;stroke-linecap:round;stroke-linejoin:round;stroke-miterlimit:10;" width="90.59" height="68.76"></rect>
			</g>
			<g id="LWPOLYLINE_251_">
				<polyline style="fill:none;stroke:#000000;stroke-linecap:round;stroke-linejoin:round;stroke-miterlimit:10;" points="
					1311.67,692.04 1341.88,666.01 1321.37,666.01 1351.58,639.98 				"></polyline>
			</g>
			<g id="LWPOLYLINE_250_">
				<path style="fill:none;stroke:#000000;stroke-linecap:round;stroke-linejoin:round;stroke-miterlimit:10;" d="M1308.84,666.01
					c0-12.58,10.2-22.79,22.79-22.79c12.58,0,22.79,10.2,22.79,22.79c0,12.59-10.2,22.79-22.79,22.79
					C1319.04,688.8,1308.84,678.59,1308.84,666.01z"></path>
			</g>
		</g>
		<g>
			<g id="LWPOLYLINE_249_">
				<path style="fill:none;stroke:#000000;stroke-linecap:round;stroke-linejoin:round;stroke-miterlimit:10;" d="M1433.25,676.37
					v52.8c0,13.97,11.33,25.3,25.3,25.3c13.97,0,25.3-11.33,25.3-25.3v-52.8"></path>
				
					<line style="fill:none;stroke:#000000;stroke-linecap:round;stroke-linejoin:round;stroke-miterlimit:10;" x1="1483.84" y1="676.37" x2="1433.25" y2="676.37"></line>
			</g>
			<g id="LWPOLYLINE_248_">
				<path style="fill:none;stroke:#000000;stroke-linecap:round;stroke-linejoin:round;stroke-miterlimit:10;" d="M1478.78,729.16
					v-17.27c0-11.18-9.06-20.23-20.24-20.24c-11.18,0-20.24,9.06-20.24,20.24v17.27c0,11.18,9.06,20.23,20.24,20.24
					C1469.72,749.4,1478.78,740.34,1478.78,729.16z"></path>
			</g>
			<g id="LWPOLYLINE_247_">
				<path style="fill:none;stroke:#000000;stroke-linecap:round;stroke-linejoin:round;stroke-miterlimit:10;" d="M1466.13,718.92
					v-8.87c0-4.19-3.4-7.59-7.59-7.59s-7.59,3.4-7.59,7.59v8.87c0,4.19,3.4,7.59,7.59,7.59
					C1462.73,726.51,1466.13,723.11,1466.13,718.92z"></path>
			</g>
		</g>
	</g>
	<g>
		<g>
			<g id="LWPOLYLINE_246_">
				<path style="fill:none;stroke:#000000;stroke-linecap:round;stroke-linejoin:round;stroke-miterlimit:10;" d="M1228.73,860.48
					l-42.66,0c-6.01,0-11.33-3.88-13.18-9.6c-6.69-20.76-6.69-43.09,0-63.85c1.84-5.72,7.17-9.6,13.18-9.6l42.66,0"></path>
			</g>
			<g id="LWPOLYLINE_245_">
				<path style="fill:none;stroke:#000000;stroke-linecap:round;stroke-linejoin:round;stroke-miterlimit:10;" d="M1216.8,796.8
					c0-4.59-3.72-8.3-8.31-8.3h-13.29c-3.04,0-5.72,1.99-6.62,4.89c-5.1,16.66-5.1,34.46,0,51.11c0.89,2.91,3.58,4.89,6.62,4.89
					h13.29c4.59,0,8.31-3.72,8.31-8.31"></path>
			</g>
			<g id="LWPOLYLINE_244_">
				<path style="fill:none;stroke:#000000;stroke-linecap:round;stroke-linejoin:round;stroke-miterlimit:10;" d="M1208.49,854.94
					c4.59,0,8.31-3.72,8.31-8.31v-55.36c0-4.59-3.72-8.31-8.3-8.31h-22.42c-3.61,0-6.8,2.33-7.9,5.76c-6.33,19.65-6.33,40.8,0,60.46
					c1.1,3.43,4.3,5.76,7.9,5.76H1208.49z"></path>
			</g>
			<g id="LWPOLYLINE_243_">
				<path style="fill:none;stroke:#000000;stroke-linecap:round;stroke-linejoin:round;stroke-miterlimit:10;" d="M1214.32,818.95
					c0-2.06-1.67-3.73-3.72-3.73c-2.06,0-3.73,1.67-3.72,3.73c0,2.06,1.67,3.72,3.72,3.72
					C1212.66,822.67,1214.32,821.01,1214.32,818.95z"></path>
			</g>
		</g>
		<g>
			<g id="LWPOLYLINE_242_">
				<path style="fill:none;stroke:#000000;stroke-linecap:round;stroke-linejoin:round;stroke-miterlimit:10;" d="M1133.29,656.87
					V709c0,13.79-11.18,24.98-24.98,24.98c-13.8,0-24.98-11.18-24.98-24.98v-52.13"></path>
				
					<line style="fill:none;stroke:#000000;stroke-linecap:round;stroke-linejoin:round;stroke-miterlimit:10;" x1="1083.33" y1="656.87" x2="1133.29" y2="656.87"></line>
			</g>
			<g id="LWPOLYLINE_241_">
				<path style="fill:none;stroke:#000000;stroke-linecap:round;stroke-linejoin:round;stroke-miterlimit:10;" d="M1088.33,709
					v-17.05c0-11.03,8.95-19.98,19.98-19.98c11.04,0,19.98,8.94,19.99,19.98V709c0,11.03-8.95,19.98-19.98,19.98
					C1097.28,728.98,1088.33,720.03,1088.33,709z"></path>
			</g>
			<g id="LWPOLYLINE_240_">
				<path style="fill:none;stroke:#000000;stroke-linecap:round;stroke-linejoin:round;stroke-miterlimit:10;" d="M1100.82,698.88
					v-8.76c0-4.14,3.35-7.49,7.49-7.49c4.14,0,7.49,3.35,7.49,7.49v8.76c0,4.14-3.35,7.49-7.49,7.49
					C1104.17,706.38,1100.82,703.02,1100.82,698.88z"></path>
			</g>
		</g>
		<g>
			<g id="CIRCLE_199_">
				<path style="fill:none;stroke:#000000;stroke-linecap:round;stroke-linejoin:round;stroke-miterlimit:10;" d="M1210.82,969.26
					c0-3.41-2.77-6.18-6.18-6.18c-3.41,0-6.18,2.77-6.18,6.18c0,3.41,2.77,6.18,6.18,6.18
					C1208.06,975.44,1210.82,972.68,1210.82,969.26L1210.82,969.26z"></path>
			</g>
			<g id="LWPOLYLINE_239_">
				<path style="fill:none;stroke:#000000;stroke-linecap:round;stroke-linejoin:round;stroke-miterlimit:10;" d="M1053.89,909.9
					c0-17.06,13.83-30.88,30.88-30.88c0,0,123.73,0,123.73,0c6.4,0,11.58,5.19,11.58,11.58v82.52c0,6.4-5.19,11.58-11.58,11.58
					h-143.03c-6.4,0-11.58-5.19-11.58-11.58V909.9z"></path>
			</g>
			<g id="LWPOLYLINE_238_">
				<path style="fill:none;stroke:#000000;stroke-linecap:round;stroke-linejoin:round;stroke-miterlimit:10;" d="M1046.17,992.42
					l0-82.52c0-21.32,17.28-38.6,38.6-38.6c0,0,143.03,0,143.03,0l0,121.13L1046.17,992.42V909.9c0-21.32,17.28-38.6,38.6-38.6
					c0,0,143.03,0,143.03,0"></path>
			</g>
		</g>
	</g>
	<g>
		
			<line style="fill:none;stroke:#000000;stroke-linecap:round;stroke-linejoin:round;stroke-miterlimit:10;" x1="1369.76" y1="1533.33" x2="1737.17" y2="1533.33"></line>
		
			<line style="fill:none;stroke:#000000;stroke-linecap:round;stroke-linejoin:round;stroke-miterlimit:10;" x1="1372.39" y1="1551.77" x2="1737.17" y2="1551.77"></line>
		
			<line style="fill:none;stroke:#000000;stroke-linecap:round;stroke-linejoin:round;stroke-miterlimit:10;" x1="1369.76" y1="1540.88" x2="1737.17" y2="1540.88"></line>
		
			<line style="fill:none;stroke:#000000;stroke-linecap:round;stroke-linejoin:round;stroke-miterlimit:10;" x1="1453.42" y1="1533.33" x2="1453.42" y2="1540.88"></line>
		
			<line style="fill:none;stroke:#000000;stroke-linecap:round;stroke-linejoin:round;stroke-miterlimit:10;" x1="1464.76" y1="1533.33" x2="1464.76" y2="1540.88"></line>
		
			<line style="fill:none;stroke:#000000;stroke-linecap:round;stroke-linejoin:round;stroke-miterlimit:10;" x1="1641.36" y1="1533.33" x2="1641.36" y2="1540.88"></line>
		
			<line style="fill:none;stroke:#000000;stroke-linecap:round;stroke-linejoin:round;stroke-miterlimit:10;" x1="1652.7" y1="1533.33" x2="1652.7" y2="1540.88"></line>
		
			<line style="fill:none;stroke:#000000;stroke-linecap:round;stroke-linejoin:round;stroke-miterlimit:10;" x1="1728.24" y1="1533.33" x2="1728.24" y2="1540.88"></line>
		
			<line style="fill:none;stroke:#000000;stroke-linecap:round;stroke-linejoin:round;stroke-miterlimit:10;" x1="1377.81" y1="1533.33" x2="1377.81" y2="1540.88"></line>
		
			<line style="fill:none;stroke:#000000;stroke-linecap:round;stroke-linejoin:round;stroke-miterlimit:10;" x1="1377.81" y1="1537.1" x2="1453.42" y2="1537.1"></line>
		
			<line style="fill:none;stroke:#000000;stroke-linecap:round;stroke-linejoin:round;stroke-miterlimit:10;" x1="1464.76" y1="1537.1" x2="1641.36" y2="1537.1"></line>
		
			<line style="fill:none;stroke:#000000;stroke-linecap:round;stroke-linejoin:round;stroke-miterlimit:10;" x1="1652.7" y1="1537.1" x2="1728.24" y2="1537.1"></line>
		
			<line style="fill:none;stroke:#000000;stroke-linecap:round;stroke-linejoin:round;stroke-miterlimit:10;" x1="1371.57" y1="1511.93" x2="1736.91" y2="1511.93"></line>
	</g>
	<g>
		
			<line style="fill:none;stroke:#000000;stroke-linecap:round;stroke-linejoin:round;stroke-miterlimit:10;" x1="872.92" y1="1532.55" x2="1207.39" y2="1532.55"></line>
		
			<line style="fill:none;stroke:#000000;stroke-linecap:round;stroke-linejoin:round;stroke-miterlimit:10;" x1="872.2" y1="1511.25" x2="1208.15" y2="1511.25"></line>
		
			<line style="fill:none;stroke:#000000;stroke-linecap:round;stroke-linejoin:round;stroke-miterlimit:10;" x1="872.97" y1="1551.99" x2="1208.15" y2="1551.99"></line>
		
			<line style="fill:none;stroke:#000000;stroke-linecap:round;stroke-linejoin:round;stroke-miterlimit:10;" x1="872.92" y1="1541.62" x2="1208.15" y2="1541.62"></line>
		
			<line style="fill:none;stroke:#000000;stroke-linecap:round;stroke-linejoin:round;stroke-miterlimit:10;" x1="1112.6" y1="1532.55" x2="1112.6" y2="1541.62"></line>
		
			<line style="fill:none;stroke:#000000;stroke-linecap:round;stroke-linejoin:round;stroke-miterlimit:10;" x1="1124.65" y1="1532.55" x2="1124.65" y2="1541.62"></line>
		
			<line style="fill:none;stroke:#000000;stroke-linecap:round;stroke-linejoin:round;stroke-miterlimit:10;" x1="1197.28" y1="1532.55" x2="1197.28" y2="1541.62"></line>
		
			<line style="fill:none;stroke:#000000;stroke-linecap:round;stroke-linejoin:round;stroke-miterlimit:10;" x1="967.28" y1="1532.59" x2="967.28" y2="1541.66"></line>
		
			<line style="fill:none;stroke:#000000;stroke-linecap:round;stroke-linejoin:round;stroke-miterlimit:10;" x1="967.28" y1="1536.98" x2="1112.6" y2="1536.98"></line>
		
			<line style="fill:none;stroke:#000000;stroke-linecap:round;stroke-linejoin:round;stroke-miterlimit:10;" x1="1124.65" y1="1537.02" x2="1197.28" y2="1537.02"></line>
	</g>
	
		<line style="fill:none;stroke:#000000;stroke-linecap:round;stroke-linejoin:round;stroke-miterlimit:10;" x1="881.77" y1="1532.55" x2="881.77" y2="1541.62"></line>
	
		<line style="fill:none;stroke:#000000;stroke-linecap:round;stroke-linejoin:round;stroke-miterlimit:10;" x1="959" y1="1532.55" x2="959" y2="1541.62"></line>
	
		<line style="fill:none;stroke:#000000;stroke-linecap:round;stroke-linejoin:round;stroke-miterlimit:10;" x1="881.77" y1="1537.02" x2="958.6" y2="1537.02"></line>
	<g>
		
			<line style="fill:none;stroke:#000000;stroke-linecap:round;stroke-linejoin:round;stroke-miterlimit:10;" x1="311.32" y1="1541.78" x2="703.39" y2="1541.78"></line>
		
			<line style="fill:none;stroke:#000000;stroke-linecap:round;stroke-linejoin:round;stroke-miterlimit:10;" x1="311.32" y1="1536.43" x2="703.39" y2="1536.43"></line>
		
			<line style="fill:none;stroke:#000000;stroke-linecap:round;stroke-linejoin:round;stroke-miterlimit:10;" x1="685.85" y1="1541.78" x2="685.85" y2="1531.13"></line>
		
			<line style="fill:none;stroke:#000000;stroke-linecap:round;stroke-linejoin:round;stroke-miterlimit:10;" x1="310.98" y1="1541.72" x2="310.98" y2="1531.14"></line>
		
			<line style="fill:none;stroke:#000000;stroke-linecap:round;stroke-linejoin:round;stroke-miterlimit:10;" x1="360.96" y1="1482.01" x2="698.85" y2="1482.01"></line>
		
			<line style="fill:none;stroke:#000000;stroke-linecap:round;stroke-linejoin:round;stroke-miterlimit:10;" x1="310.98" y1="1531.13" x2="703.39" y2="1531.13"></line>
		
			<line style="fill:none;stroke:#000000;stroke-linecap:round;stroke-linejoin:round;stroke-miterlimit:10;" x1="300.4" y1="1541.78" x2="703.39" y2="1541.78"></line>
		
			<line style="fill:none;stroke:#000000;stroke-linecap:round;stroke-linejoin:round;stroke-miterlimit:10;" x1="278.3" y1="1564.59" x2="693.72" y2="1564.59"></line>
		<g>
			
				<line style="fill:none;stroke:#000000;stroke-linecap:round;stroke-linejoin:round;stroke-miterlimit:10;" x1="310.98" y1="1531.13" x2="310.98" y2="1408.66"></line>
			
				<line style="fill:none;stroke:#000000;stroke-linecap:round;stroke-linejoin:round;stroke-miterlimit:10;" x1="360.9" y1="1482.01" x2="360.9" y2="1407.94"></line>
			
				<line style="fill:none;stroke:#000000;stroke-linecap:round;stroke-linejoin:round;stroke-miterlimit:10;" x1="300.4" y1="1541.78" x2="300.4" y2="1407.94"></line>
			
				<line style="fill:none;stroke:#000000;stroke-linecap:round;stroke-linejoin:round;stroke-miterlimit:10;" x1="310.98" y1="1422.27" x2="300.4" y2="1422.27"></line>
			
				<line style="fill:none;stroke:#000000;stroke-linecap:round;stroke-linejoin:round;stroke-miterlimit:10;" x1="310.98" y1="1531.13" x2="300.36" y2="1531.13"></line>
			
				<line style="fill:none;stroke:#000000;stroke-linecap:round;stroke-linejoin:round;stroke-miterlimit:10;" x1="305.69" y1="1531.13" x2="305.69" y2="1422.27"></line>
		</g>
		
			<line style="fill:none;stroke:#000000;stroke-linecap:round;stroke-linejoin:round;stroke-miterlimit:10;" x1="278.3" y1="1564.59" x2="278.3" y2="1413.54"></line>
		
			<line style="fill:none;stroke:#000000;stroke-linecap:round;stroke-linejoin:round;stroke-miterlimit:10;" x1="693.72" y1="1552.08" x2="693.72" y2="1564.59"></line>
		
			<line style="fill:none;stroke:#000000;stroke-linecap:round;stroke-linejoin:round;stroke-miterlimit:10;" x1="300.4" y1="1541.78" x2="278.3" y2="1564.59"></line>
		
			<line style="fill:none;stroke:#000000;stroke-linecap:round;stroke-linejoin:round;stroke-miterlimit:10;" x1="283.26" y1="1413.54" x2="278.3" y2="1413.54"></line>
	</g>
	<g>
		<path style="fill-rule:evenodd;clip-rule:evenodd;" d="M1871.12,601.47h-1.35H1756.4v-39.3h-28.8h-1.44h-28.72v30.23h28.72v9.07
			v0.82v29.41h143.6v321.97h-90.69v10.93v1.16v28.72h-81.63v12.09h172.32v504.56h-134.62v40.81H1900v-27.38v-13.44V601.47H1871.12z
			 M1791.17,994.48v-28.72h78.6v28.72H1791.17z"></path>
		<polygon style="fill-rule:evenodd;clip-rule:evenodd;" points="1333.06,1455.51 1242.46,1455.51 1242.46,1481.2 1191.07,1481.2 
			1191.07,1551.94 1242.46,1551.94 1244.44,1551.94 1325.59,1551.94 1333.06,1551.94 1372.37,1551.94 1372.37,1511.04 
			1333.06,1511.04 		"></polygon>
		<polygon style="fill-rule:evenodd;clip-rule:evenodd;" points="864.57,1282.97 864.57,1281.78 864.57,1228.77 852.48,1228.77 
			852.48,1281.78 831.31,1281.78 831.31,1481.2 692.25,1481.2 692.25,1552.25 873.64,1552.25 873.64,1481.2 864.57,1481.2 		"></polygon>
		<polygon style="fill-rule:evenodd;clip-rule:evenodd;" points="361.21,1234.82 280.88,1234.82 280.88,1413.18 361.21,1413.18 
			361.21,1401.09 367.26,1401.09 367.26,1265.05 361.21,1265.05 		"></polygon>
		<path style="fill-rule:evenodd;clip-rule:evenodd;" d="M1538.73,560.65H280.88v30.75v2.51v51.39h50.11v-51.39h697.44V743.1h17.91
			v-86.24h181.39v335.87h-181.39V864.03h-17.91v128.71h-17.23v14.13h509.33h4.81h13.4V879.14h-18.21v113.59h-256.97V632h134.53
			v44.36h9.37h1.89h111.18v81.85h18.5V588.76h-0.28V560.65z M1046.34,645.6v-33.33h182.3v15.8h-0.91v17.53H1046.34z M1409.34,665.1
			V632h111.18v33.1H1409.34z"></path>
		<path style="fill-rule:evenodd;clip-rule:evenodd;" d="M862.79,993.72h-10.31v39.3H424.7v-46.1v-4.44v-48.47h-93.72v-61.97h-50.11
			v181.39h47.2h2.9h30.23v-8.31h491.26v47.61h12.09v-85.86h10.58v-13.35h-12.37V993.72z M361.21,986.92h51.39v46.1h-51.39V986.92z"></path>
	</g>
	
		<line style="fill:none;stroke:#000000;stroke-linecap:round;stroke-linejoin:round;stroke-miterlimit:10;" x1="301.35" y1="1235.17" x2="301.35" y2="1049.9"></line>
	
		<line style="fill:none;stroke:#000000;stroke-linecap:round;stroke-linejoin:round;stroke-miterlimit:10;" x1="280.83" y1="1236.05" x2="280.83" y2="1049.97"></line>
	
		<line style="fill:none;stroke:#000000;stroke-linecap:round;stroke-linejoin:round;stroke-miterlimit:10;" x1="361.17" y1="1235.33" x2="361.17" y2="1049.33"></line>
	
		<line style="fill:none;stroke:#000000;stroke-linecap:round;stroke-linejoin:round;stroke-miterlimit:10;" x1="310.42" y1="1235.17" x2="310.42" y2="1049.18"></line>
	
		<line style="fill:none;stroke:#000000;stroke-linecap:round;stroke-linejoin:round;stroke-miterlimit:10;" x1="301.35" y1="1057.9" x2="310.42" y2="1057.9"></line>
	
		<line style="fill:none;stroke:#000000;stroke-linecap:round;stroke-linejoin:round;stroke-miterlimit:10;" x1="301.39" y1="1227.2" x2="310.45" y2="1227.2"></line>
	
		<line style="fill:none;stroke:#000000;stroke-linecap:round;stroke-linejoin:round;stroke-miterlimit:10;" x1="305.94" y1="1057.9" x2="305.94" y2="1227.2"></line>
	<g>
		<path style="fill:none;stroke:#000000;stroke-linecap:round;stroke-linejoin:round;stroke-miterlimit:10;" d="M310.42,1227.15
			c36.31,0,68.59-17.84,93.24-48.8"></path>
		
			<line style="fill:none;stroke:#000000;stroke-linecap:round;stroke-linejoin:round;stroke-miterlimit:10;" x1="310.42" y1="1057.9" x2="403.66" y2="1178.35"></line>
	</g>
	<g>
		<path style="fill:none;stroke:#000000;stroke-linecap:round;stroke-linejoin:round;stroke-miterlimit:10;" d="M1464.83,1533.21
			c0-43.34,18.63-81.88,50.94-111.3"></path>
		
			<line style="fill:none;stroke:#000000;stroke-linecap:round;stroke-linejoin:round;stroke-miterlimit:10;" x1="1641.53" y1="1533.21" x2="1515.78" y2="1421.91"></line>
	</g>
	<g>
		
			<line style="fill:none;stroke:#000000;stroke-linecap:round;stroke-linejoin:round;stroke-miterlimit:10;" x1="300.73" y1="872.21" x2="300.73" y2="640.11"></line>
		
			<line style="fill:none;stroke:#000000;stroke-linecap:round;stroke-linejoin:round;stroke-miterlimit:10;" x1="280.97" y1="872.72" x2="280.97" y2="639.39"></line>
		
			<line style="fill:none;stroke:#000000;stroke-linecap:round;stroke-linejoin:round;stroke-miterlimit:10;" x1="331.08" y1="872.8" x2="331.08" y2="639.39"></line>
		
			<line style="fill:none;stroke:#000000;stroke-linecap:round;stroke-linejoin:round;stroke-miterlimit:10;" x1="309.8" y1="872.21" x2="309.8" y2="639.39"></line>
		
			<line style="fill:none;stroke:#000000;stroke-linecap:round;stroke-linejoin:round;stroke-miterlimit:10;" x1="300.73" y1="788.21" x2="309.8" y2="788.21"></line>
		
			<line style="fill:none;stroke:#000000;stroke-linecap:round;stroke-linejoin:round;stroke-miterlimit:10;" x1="300.73" y1="776.88" x2="309.8" y2="776.88"></line>
		
			<line style="fill:none;stroke:#000000;stroke-linecap:round;stroke-linejoin:round;stroke-miterlimit:10;" x1="300.73" y1="648.12" x2="309.8" y2="648.12"></line>
		
			<line style="fill:none;stroke:#000000;stroke-linecap:round;stroke-linejoin:round;stroke-miterlimit:10;" x1="300.77" y1="864.23" x2="309.84" y2="864.23"></line>
		
			<line style="fill:none;stroke:#000000;stroke-linecap:round;stroke-linejoin:round;stroke-miterlimit:10;" x1="305.16" y1="864.23" x2="305.16" y2="788.21"></line>
		
			<line style="fill:none;stroke:#000000;stroke-linecap:round;stroke-linejoin:round;stroke-miterlimit:10;" x1="305.2" y1="776.88" x2="305.2" y2="648.12"></line>
	</g>
	<path style="fill:none;stroke:#000000;stroke-linecap:round;stroke-linejoin:round;stroke-miterlimit:10;" d="M309.69,777.17
		c29.36,0,55.46-14.87,75.38-40.67"></path>
	
		<line style="fill:none;stroke:#000000;stroke-linecap:round;stroke-linejoin:round;stroke-miterlimit:10;" x1="310.01" y1="642.73" x2="385.07" y2="736.5"></line>
	<polygon style="fill:none;stroke:#000000;stroke-linecap:round;stroke-linejoin:round;stroke-miterlimit:10;" points="
		109.4,870.87 109.4,642.46 280.89,642.46 280.89,633.39 109.4,633.39 106.68,633.39 100.48,633.39 100.48,870.87 100.48,875.41 
		100.48,879.94 281.39,879.94 281.39,870.87 	"></polygon>
</g>
</svg>
