<?xml version="1.0" encoding="utf-8"?>
<!-- Generator: Adobe Illustrator 24.1.2, SVG Export Plug-In . SVG Version: 6.00 Build 0)  -->
<svg version="1.0" id="Layer_1" xmlns="http://www.w3.org/2000/svg" xmlns:xlink="http://www.w3.org/1999/xlink" x="0px" y="0px" width="2000px" height="2000px" viewBox="0 0 2000 2000" style="enable-background:new 0 0 2000 2000;" xml:space="preserve">
<path id="background" style="fill:#FFFFFF;" d="M1900.06,478.71v1187.43h-34.9v0.34h-64.58c-0.09,0.1-0.22,0.16-0.36,0.16h-374.12
	c-0.21,0-0.39-0.13-0.46-0.32h-155.05c-0.07,0.19-0.25,0.32-0.46,0.32H895.99c-0.21,0-0.39-0.13-0.46-0.32H714.4
	c-0.07,0.19-0.25,0.32-0.46,0.32H340.21c-0.21,0-0.39-0.13-0.46-0.32H158.47h-58.41v-58.76v-154.61c-0.19-0.07-0.32-0.25-0.32-0.46
	v-319.94c0-0.21,0.13-0.39,0.32-0.46V922.3c-0.19-0.07-0.32-0.25-0.32-0.46V601.89c0-0.21,0.13-0.39,0.32-0.46v-87.15v-35.53h58.76
	h1420v16.6c0.08-0.06,0.18-0.1,0.29-0.1h9.22c0.99-89.68,73.85-162.34,163.29-162.34c0.28,0,0.5,0.22,0.5,0.5v161.84h9v-16.53h99.79
	h22.27H1900.06z"></path>
<g id="c1">
	<path id="c1_path" style="fill:none;" d="M1868.2,1636.94H831.03V1115.6H606.72V924.68l1261.48,0V1636.94z"></path>
	
		<text id="c1_text" transform="matrix(1 0 0 1 1553.2185 1098.0199)" style="font-family: GraphikLCG-Regular; font-size: 40px; text-anchor: middle; text-align: center;"></text>
</g>
<g id="r1">
	<path id="r1_path" style="fill:none;" d="M901.43,498.19v427.06H603.8v89.73H133.3l-0.12-207.36h0.09V499.35L901.43,498.19z"></path>
	<text id="r1_text" transform="matrix(1 0 0 1 601.2626 701.8285)" style="font-family: GraphikLCG-Regular; font-size: 40px; text-anchor: middle; text-align: center;"></text>
</g>
<g id="h1">
	<path id="h1_path" style="fill:none;" d="M1770.17,923.98l-246.46,0V752.42h0v-248.8h352.63l0.03,420.35h-106.18
		L1770.17,923.98z"></path>
	
		<text id="h1_text" transform="matrix(1 0 0 1 1661.7894 622.5472)" style="font-family: GraphikLCG-Regular; font-size: 40px; text-anchor: middle; text-align: center;"></text>
</g>
<g id="s1">
	<path id="s1_path" style="fill:none;" d="M1233.42,926.17V506.93h289.19v419.24H1233.42z"></path>
	<text id="s1_text" transform="matrix(1 0 0 1 1417.6552 724.4105)" style="font-family: GraphikLCG-Regular; font-size: 40px; text-anchor: middle; text-align: center;"></text>
</g>
<g id="s2">
	<path id="s2_path" style="fill:none;" d="M900.91,923.05V514.93h332.51v408.12H900.91z"></path>
	<text id="s2_text" transform="matrix(1 0 0 1 994.8344 756.8558)" style="font-family: GraphikLCG-Regular; font-size: 40px; text-anchor: middle; text-align: center;"></text>
</g>
<g id="r2">
	<path id="r2_path" style="fill:none;" d="M124.92,1629.54v-367.4h-0.08l0.11-247.14H603.8v102.79h227.23v513.14L124.92,1629.54z
		"></path>
	<text id="r2_text" transform="matrix(1 0 0 1 528.6392 1335.1215)" style="font-family: GraphikLCG-Regular; font-size: 40px; text-anchor: middle; text-align: center;"></text>
</g>
<path id="u7" style="fill:#FFFFFF;stroke:#FFFFFF;stroke-linecap:round;stroke-linejoin:round;stroke-miterlimit:10;" d="
	M1680.5,1365.56c-6.74,0-12.21-5.47-12.21-12.21c0-6.74,5.47-12.21,12.21-12.21c6.74,0,12.21,5.47,12.21,12.21
	C1692.71,1360.09,1687.24,1365.56,1680.5,1365.56z"></path>
<path id="u1" style="fill:#FFFFFF;stroke:#FFFFFF;stroke-linecap:round;stroke-linejoin:round;stroke-miterlimit:10;" d="
	M215.48,793.41c-6.74,0-12.21-5.47-12.21-12.21s5.47-12.21,12.21-12.21s12.21,5.47,12.21,12.21S222.23,793.41,215.48,793.41z"></path>
<path id="u9" style="fill:#FFFFFF;stroke:#FFFFFF;stroke-linecap:round;stroke-linejoin:round;stroke-miterlimit:10;" d="
	M1467.65,576.84c-6.74,0-12.21-5.47-12.21-12.21s5.47-12.21,12.21-12.21c6.74,0,12.21,5.47,12.21,12.21
	S1474.39,576.84,1467.65,576.84z"></path>
<g id="mebel">
	<g>
		<g>
			<g>
				
					<rect x="849.76" y="1254.88" transform="matrix(-1 5.131758e-05 -5.131758e-05 -1 1711.3402 2713.9131)" style="fill:none;stroke:#000000;stroke-linecap:round;stroke-linejoin:round;stroke-miterlimit:10;" width="11.76" height="204.2"></rect>
				<polygon style="fill:none;stroke:#000000;stroke-linecap:round;stroke-linejoin:round;stroke-miterlimit:10;" points="
					837.99,1276.12 849.75,1254.88 849.76,1459.08 838,1437.84 				"></polygon>
			</g>
		</g>
		<g>
			
				<rect x="838" y="1204.32" style="fill:none;stroke:#000000;stroke-linecap:round;stroke-linejoin:round;stroke-miterlimit:10;" width="65.04" height="318.25"></rect>
		</g>
	</g>
	<g>
		<g>
			<g>
				
					<rect x="412.26" y="433.19" transform="matrix(-5.131758e-05 -1 1 -5.131758e-05 -117.1304 953.4547)" style="fill:none;stroke:#000000;stroke-linecap:round;stroke-linejoin:round;stroke-miterlimit:10;" width="11.76" height="204.2"></rect>
				<polygon style="fill:none;stroke:#000000;stroke-linecap:round;stroke-linejoin:round;stroke-miterlimit:10;" points="
					499,517.65 520.24,529.41 316.04,529.42 337.28,517.66 				"></polygon>
			</g>
		</g>
	</g>
	<g>
		<polygon style="fill:none;stroke:#000000;stroke-linecap:round;stroke-linejoin:round;stroke-miterlimit:10;" points="
			1755.27,1096.14 1755.27,1176.19 1860.9,1176.19 1860.92,1096.14 		"></polygon>
		<path style="fill:none;stroke:#000000;stroke-linecap:round;stroke-linejoin:round;stroke-miterlimit:10;" d="M1830.6,1136.16
			l-25.64,10.03c-1.57,0.55-3.29,0.85-5.1,0.85c-7.28,0-13.18-4.87-13.18-10.88c0-6.01,5.9-10.88,13.18-10.88
			c1.81,0,3.53,0.3,5.1,0.85L1830.6,1136.16z"></path>
	</g>
	<g>
		<polygon style="fill:none;stroke:#000000;stroke-linecap:round;stroke-linejoin:round;stroke-miterlimit:10;" points="
			1755.27,1380.95 1755.27,1486.6 1860.9,1486.6 1860.92,1380.95 		"></polygon>
		<g>
			
				<line style="fill:none;stroke:#000000;stroke-linecap:round;stroke-linejoin:round;stroke-miterlimit:10;" x1="1833.52" y1="1433.78" x2="1782.66" y2="1433.78"></line>
			
				<line style="fill:none;stroke:#000000;stroke-linecap:round;stroke-linejoin:round;stroke-miterlimit:10;" x1="1808.09" y1="1408.34" x2="1808.09" y2="1459.21"></line>
			<polyline style="fill:none;stroke:#000000;stroke-linecap:round;stroke-linejoin:round;stroke-miterlimit:10;" points="
				1827.87,1421.06 1820.81,1433.78 1827.87,1446.49 			"></polyline>
			<polyline style="fill:none;stroke:#000000;stroke-linecap:round;stroke-linejoin:round;stroke-miterlimit:10;" points="
				1820.81,1453.56 1808.09,1446.49 1795.38,1453.56 			"></polyline>
			<polyline style="fill:none;stroke:#000000;stroke-linecap:round;stroke-linejoin:round;stroke-miterlimit:10;" points="
				1788.31,1446.49 1795.38,1433.78 1788.31,1421.06 			"></polyline>
			<polyline style="fill:none;stroke:#000000;stroke-linecap:round;stroke-linejoin:round;stroke-miterlimit:10;" points="
				1795.38,1414 1808.09,1421.06 1820.81,1414 			"></polyline>
		</g>
	</g>
	<g>
		<path style="fill:none;stroke:#000000;stroke-linecap:round;stroke-linejoin:round;stroke-miterlimit:10;" d="M359.07,715.36"></path>
		<path style="fill:none;stroke:#000000;stroke-linecap:round;stroke-linejoin:round;stroke-miterlimit:10;" d="M330.03,698.21
			c1.08,2.82,2.77,6.03,5.41,9.15c7.28,8.59,15.34,12.03,15.34,12.03c-0.26,0.97-0.36,2-0.28,3.04c0.41,5.28,5.11,9.12,10.33,8.52
			c0.47-0.05,0.93-0.14,1.37-0.26l-3.86,9.14c-0.5,1.06-0.17,2.35,0.83,2.97c1.15,0.71,2.64,0.28,3.24-0.9l5.76-12.31
			c0.15-0.29,0.16-0.63,0.04-0.93l-0.71-1.79c1.17-1.76,1.93-4.21,0.98-9.15c-2.42-12.52-15.32-15.76-15.32-15.76l-7.13-9.68"></path>
		<path style="fill:none;stroke:#000000;stroke-linecap:round;stroke-linejoin:round;stroke-miterlimit:10;" d="M351.8,739.49
			l9.12-5.78l1.28-3.02c-0.44,0.12-0.9,0.21-1.37,0.26c-1.37,0.16-2.7-0.01-3.93-0.41l-7.55,5.09c-1.02,0.67-1.33,2.02-0.71,3.07
			C349.29,739.81,350.71,740.16,351.8,739.49z"></path>
		<path style="fill:none;stroke:#000000;stroke-linecap:round;stroke-linejoin:round;stroke-miterlimit:10;" d="M396.62,728.98
			c-9.49,4.63-21.51,1.16-27.73-7.71c0.04,1.42-0.11,2.55-0.4,3.48c0.09,0.15,0.16,0.31,0.26,0.46c6.56,9.82,19.51,13.02,29.82,7.69
			c1.02-0.53,1.45-1.76,1-2.81C399.07,728.94,397.73,728.44,396.62,728.98z"></path>
		<g>
			<path style="fill:none;stroke:#000000;stroke-linecap:round;stroke-linejoin:round;stroke-miterlimit:10;" d="M329.68,686.34
				c-2.37-1.55-4.6-2.86-7.35-4.57c-0.92-0.57-2.03-1.48-3.1-1.27c-0.66,0.13-1.14,0.58-1.39,1.15"></path>
		</g>
		<path style="fill:none;stroke:#000000;stroke-linecap:round;stroke-linejoin:round;stroke-miterlimit:10;" d="M355.48,709.91"></path>
		<path style="fill:none;stroke:#000000;stroke-linecap:round;stroke-linejoin:round;stroke-miterlimit:10;" d="M334.72,681.72
			c-1.22,1.27-2.72,2.53-4.06,3.68c-1.2,1.03-2.51,2.34-2.55,3.93"></path>
		<path style="fill:none;stroke:#000000;stroke-linecap:round;stroke-linejoin:round;stroke-miterlimit:10;" d="M342.87,700.48
			c-5.19,3.63-12.92-2.5-12.92-2.5c-3.33-1.26-11.53-7.82-15.63-14.32c-0.33-0.52-0.58-1.04-0.74-1.55
			c-0.33-1.04,0.24-2.15,1.28-2.48c1.04-0.33,1.66,0.57,2.48,1.28c3.75,3.25,5.9,5.22,8.85,7.25c0.47,0.32,1.21,0.79,1.92,1.23
			c1.04,0.64,2.03,1.23,2.03,1.23c1.06-0.38,2.61-0.84,4.42-1.09"></path>
		<g>
			<path style="fill:none;stroke:#000000;stroke-linecap:round;stroke-linejoin:round;stroke-miterlimit:10;" d="M341.78,678.21
				c2.28,0.18,4.37,1.38,5.68,3.25l5.87,1.7c0.31,0.09,0.37,0.51,0.08,0.68l-4.62,2.7c-0.11,1.21-0.51,2.36-1.15,3.37
				c-0.05,0.09-1.74,2.34-1.74,2.34l-0.49,0.67l-0.64,0.82c-0.08,0.11-0.16,0.22-0.25,0.32c-0.28,0.31-0.62,0.57-1.02,0.76
				c-1.66,0.8-3.67,0.11-4.47-1.56c-0.02-0.04-0.03-0.07-0.05-0.11c-3.03-0.91-5.42-3.68-5.46-7.35c-0.02-1.64,0.53-3.24,1.49-4.54
				c0.61-0.83,1.39-1.53,2.3-2.04c0.06-0.03,0.12-0.07,0.18-0.1"></path>
			
				<line style="fill:none;stroke:#000000;stroke-linecap:round;stroke-linejoin:round;stroke-miterlimit:10;" x1="340.74" y1="690.64" x2="338.97" y2="689.08"></line>
			<polygon style="fill:none;stroke:#000000;stroke-linecap:round;stroke-linejoin:round;stroke-miterlimit:10;" points="
				341.57,692.65 342.58,694.25 344.18,693.23 			"></polygon>
			<path style="fill:none;stroke:#000000;stroke-linecap:round;stroke-linejoin:round;stroke-miterlimit:10;" d="M336.3,683.06
				c0.45-2.21,1.66-5.25,3.14-7.29c0.25-0.34,0.77-0.23,1,0.13c0.47,0.72,1.94,3.51,2.53,6.16c0,0-0.07-0.4,0,0"></path>
		</g>
		<path style="fill:none;stroke:#000000;stroke-linecap:round;stroke-linejoin:round;stroke-miterlimit:10;" d="M350.5,722.43
			c-0.08-1.05,0.02-2.07,0.28-3.04c0,0-1.78-0.78-4.36-2.43c-0.94,1.97-1.24,4.25-0.6,6.52c1.26,4.48,5.61,7.23,10.09,6.66
			C352.96,728.78,350.77,725.94,350.5,722.43z"></path>
	</g>
	<g>
		<g>
			<path style="fill:none;stroke:#000000;stroke-linecap:round;stroke-linejoin:round;stroke-miterlimit:10;" d="M993.86,1103.55"></path>
			<path style="fill:none;stroke:#000000;stroke-linecap:round;stroke-linejoin:round;stroke-miterlimit:10;" d="M955.58,1101.42
				l2.45,1.1c0.01,0,0.03,0.01,0.04,0.01l1.59-12.31l-1.58,1.81l-9.25-10.43c-1.41-1.59-3.83-2.03-5.55-0.79
				c-1.99,1.42-2.28,4.22-0.68,6l12.91,14.57C955.52,1101.39,955.56,1101.4,955.58,1101.42z"></path>
			<path style="fill:none;stroke:#000000;stroke-linecap:round;stroke-linejoin:round;stroke-miterlimit:10;" d="M973.22,1078.95
				c0,0-4.09-2.3-7.74-0.33c-3.12,1.69-4.83,4.66-5.36,8l-0.01,0l-0.04,0.29c-0.02,0.15-0.04,0.3-0.06,0.45l-1.95,15.18l-12.73-5.69
				c-1.94-0.87-4.32-0.27-5.39,1.57c-1.22,2.12-0.33,4.78,1.85,5.75l17.77,7.95c1.91,0.85,4.13-0.16,4.74-2.16l2.37-7.85
				c4.72,3.89,9.56,5.27,13.66,5.47c5.92,0.3,11.74-2.08,15.77-6.42c0.1-0.1,0.18-0.2,0.24-0.28c3.1-3.96,10.19-13.58,5.1-31.62
				c-5.64-19.98-18.61-27.83-25.97-30.75"></path>
			<path style="fill:none;stroke:#000000;stroke-linecap:round;stroke-linejoin:round;stroke-miterlimit:10;" d="M1028.68,1115.59
				c0.04-0.04,0.07-0.09,0.11-0.13c-0.22-0.07-0.44-0.14-0.67-0.22c-2.83,2.25-5.55,3.72-9.38,4.38
				c-11.17,1.92-22.56-4.63-25.91-15.13c-0.04-0.14-0.14-0.24-0.21-0.37c-1.24,0.83-2.56,1.52-3.95,2.07
				c3.51,11.25,14.97,18.45,26.82,16.37C1020.71,1121.64,1025.29,1119.15,1028.68,1115.59z"></path>
			<path style="fill:none;stroke:#000000;stroke-linecap:round;stroke-linejoin:round;stroke-miterlimit:10;" d="M959.08,1035.77
				l7.05-6.56l-23.16-27.49c-3.34-4.16,2.65-9.26,6.21-5.24c0,0,25.95,30.8,25.95,30.8l0.36,11.23l0.28,8.68"></path>
			
				<line style="fill:none;stroke:#000000;stroke-linecap:round;stroke-linejoin:round;stroke-miterlimit:10;" x1="987.38" y1="1086.93" x2="961.33" y2="1072.24"></line>
			<path style="fill:none;stroke:#000000;stroke-linecap:round;stroke-linejoin:round;stroke-miterlimit:10;" d="M974.15,1039.47"></path>
			<g>
				<g>
					<g>
						<path style="fill:none;stroke:#000000;stroke-linecap:round;stroke-linejoin:round;stroke-miterlimit:10;" d="M965.19,1034.82
							c-3.36-0.29-6.83,0.71-9.62,3.05l-5.19,4.38c0,0,0,0,0,0l1.47-1.24c2.06-1.74,5.14-1.47,6.87,0.59l3.52,4.17l6.4,3.81"></path>
						<path style="fill:none;stroke:#000000;stroke-linecap:round;stroke-linejoin:round;stroke-miterlimit:10;" d="M951.93,1063.66
							l-2.67-6.95l-3.33-3.95c0.17,2.6,1.1,5.18,2.91,7.33l2.99,3.54L951.93,1063.66z"></path>
					</g>
					<path style="fill:none;stroke:#000000;stroke-linecap:round;stroke-linejoin:round;stroke-miterlimit:10;" d="M951.85,1041.01
						c0.45-0.38,0.96-0.62,1.48-0.81l-15.08-17.9c-1.45-1.72-4.01-1.93-5.72-0.49c-1.72,1.45-1.93,4.01-0.49,5.72l14.86,17.64
						L951.85,1041.01z"></path>
					<path style="fill:none;stroke:#000000;stroke-linecap:round;stroke-linejoin:round;stroke-miterlimit:10;" d="M947.98,1044.27
						l0.33,2.77c0.19,1.6,2.08,2.34,3.31,1.31l1.98-1.67c1.23-1.04,0.81-3.02-0.73-3.48l-2.67-0.79L947.98,1044.27z"></path>
					<path style="fill:none;stroke:#000000;stroke-linecap:round;stroke-linejoin:round;stroke-miterlimit:10;" d="M963.26,1057.53
						c-0.85-0.1-1.46-0.88-1.36-1.73c0.1-0.85,0.88-1.46,1.73-1.36"></path>
					<path style="fill:none;stroke:#000000;stroke-linecap:round;stroke-linejoin:round;stroke-miterlimit:10;" d="M957.03,1059.57
						c0.22-0.83,1.07-1.33,1.9-1.11c0.83,0.22,1.33,1.07,1.11,1.9"></path>
				</g>
				<g>
					<g>
						
							<circle style="fill:none;stroke:#000000;stroke-linecap:round;stroke-linejoin:round;stroke-miterlimit:10;" cx="961.63" cy="1051.24" r="1.24"></circle>
						<path style="fill:none;stroke:#000000;stroke-linecap:round;stroke-linejoin:round;stroke-miterlimit:10;" d="M962.54,1048.18
							c0.9,1.65,0.94,2.76,0.04,3.85"></path>
					</g>
					<g>
						
							<circle style="fill:none;stroke:#000000;stroke-linecap:round;stroke-linejoin:round;stroke-miterlimit:10;" cx="954.76" cy="1057.03" r="1.24"></circle>
						<path style="fill:none;stroke:#000000;stroke-linecap:round;stroke-linejoin:round;stroke-miterlimit:10;" d="M951.59,1057.41
							c1.47,1.17,2.56,1.39,3.78,0.69"></path>
					</g>
				</g>
				
					<line style="fill:none;stroke:#000000;stroke-linecap:round;stroke-linejoin:round;stroke-miterlimit:10;" x1="949.09" y1="1043.33" x2="950.27" y2="1044.73"></line>
			</g>
			<path style="fill:none;stroke:#000000;stroke-linecap:round;stroke-linejoin:round;stroke-miterlimit:10;" d="M963.2,1071.15
				c0,0,11.8,1.28,19.06-8.68"></path>
		</g>
		<path style="fill:none;stroke:#000000;stroke-linecap:round;stroke-linejoin:round;stroke-miterlimit:10;" d="M970.13,1062.18
			l-1.68-14.16c-0.16-1.38,1.14-2.48,2.47-2.08l6.58,1.95c3.04,0.9,3.86,4.83,1.43,6.88L970.13,1062.18z"></path>
		<path style="fill:none;stroke:#000000;stroke-linecap:round;stroke-linejoin:round;stroke-miterlimit:10;" d="M963.2,1071.15
			l10.91-9.19c1.52-1.28,2.19-3.11,2.08-4.88l-6.05,5.1l-1.5-12.6l-6.4-3.81l-3.52-4.17c-1.74-2.06-4.81-2.32-6.87-0.59l-5.51,4.64
			c-2.06,1.74-2.32,4.81-0.59,6.87l3.52,4.17l2.67,6.95l12.16,3.61l-6.05,5.1C959.77,1072.78,961.68,1072.43,963.2,1071.15z"></path>
		<path style="fill:none;stroke:#000000;stroke-linecap:round;stroke-linejoin:round;stroke-miterlimit:10;" d="M948.76,1072.1
			l-0.81-6.81c-0.16-1.38,1.14-2.47,2.47-2.08l13.67,4.06l-8.8,7.41C952.86,1076.73,949.13,1075.26,948.76,1072.1z"></path>
	</g>
	<g>
		<path style="fill:none;stroke:#000000;stroke-linecap:round;stroke-linejoin:round;stroke-miterlimit:10;" d="M193.59,584.86
			c1.19,0.9,2.46,1.7,3.77,2.38"></path>
		<path style="fill:none;stroke:#000000;stroke-linecap:round;stroke-linejoin:round;stroke-miterlimit:10;" d="M192.51,544.96
			c-3.95,3.36-6.73,7.8-8.08,12.65"></path>
		<path style="fill:none;stroke:#000000;stroke-linecap:round;stroke-linejoin:round;stroke-miterlimit:10;" d="M214.81,539.49
			c-3.14-0.72-6.42-0.85-9.69-0.33"></path>
		<path style="fill:none;stroke:#000000;stroke-linecap:round;stroke-linejoin:round;stroke-miterlimit:10;" d="M230.36,550.12
			c-0.62-0.92-1.29-1.79-2.02-2.61"></path>
		<path style="fill:none;stroke:#000000;stroke-linecap:round;stroke-linejoin:round;stroke-miterlimit:10;" d="M234.76,563.85
			c-0.03-1.34-0.17-2.69-0.42-4.04"></path>
		<path style="fill:none;stroke:#000000;stroke-linecap:round;stroke-linejoin:round;stroke-miterlimit:10;" d="M223.69,585.6
			c2.32-1.6,4.32-3.54,5.95-5.72"></path>
		<path style="fill:none;stroke:#000000;stroke-linecap:round;stroke-linejoin:round;stroke-miterlimit:10;" d="M208.22,590.1
			c1.74,0.06,3.5-0.05,5.24-0.34"></path>
		<path style="fill:none;stroke:#000000;stroke-linecap:round;stroke-linejoin:round;stroke-miterlimit:10;" d="M201.08,584.11
			c-3.29,1.89-6.18,5.41-7.71,9.96c-2.11,6.27-1.02,12.6,2.35,16.08c4.78-0.73,9.48-5.11,11.59-11.39
			c1.89-5.62,1.21-11.29-1.38-14.91c-0.09-0.12-0.2-0.21-0.3-0.31"></path>
		<path style="fill:none;stroke:#000000;stroke-linecap:round;stroke-linejoin:round;stroke-miterlimit:10;" d="M211.02,587.21
			c-1.16,0.1-2.32,0.1-3.46,0.02"></path>
		<path style="fill:none;stroke:#000000;stroke-linecap:round;stroke-linejoin:round;stroke-miterlimit:10;" d="M227.87,577.46
			c-1.54,2.23-3.5,4.21-5.82,5.81"></path>
		<path style="fill:none;stroke:#000000;stroke-linecap:round;stroke-linejoin:round;stroke-miterlimit:10;" d="M231.2,558.81
			c0.25,0.97,0.44,1.96,0.56,2.94"></path>
		<path style="fill:none;stroke:#000000;stroke-linecap:round;stroke-linejoin:round;stroke-miterlimit:10;" d="M226.71,549.99
			c0.59,0.72,1.14,1.47,1.65,2.27"></path>
		<path style="fill:none;stroke:#000000;stroke-linecap:round;stroke-linejoin:round;stroke-miterlimit:10;" d="M206.38,541.86
			c2.96-0.36,5.94-0.13,8.76,0.65"></path>
		<path style="fill:none;stroke:#000000;stroke-linecap:round;stroke-linejoin:round;stroke-miterlimit:10;" d="M187.52,557.26
			c1.09-3.26,2.92-6.27,5.38-8.77"></path>
		<path style="fill:none;stroke:#000000;stroke-linecap:round;stroke-linejoin:round;stroke-miterlimit:10;" d="M199.41,585.1
			c-0.95-0.45-1.87-0.96-2.76-1.54"></path>
		<path style="fill:none;stroke:#000000;stroke-linecap:round;stroke-linejoin:round;stroke-miterlimit:10;" d="M201.63,564.92
			c0.5-0.81,0.43-1.85-0.18-2.58c-2.84-3.42-8.15-5.51-14.07-5.11c-6.6,0.45-12.03,3.88-13.95,8.32c2.51,4.14,8.35,6.8,14.96,6.35
			C194.31,571.49,199.28,568.69,201.63,564.92z"></path>
		<path style="fill:none;stroke:#000000;stroke-linecap:round;stroke-linejoin:round;stroke-miterlimit:10;" d="M221.44,558.33
			c0.14-0.44-0.01-0.92-0.37-1.19c-1.72-1.28-4.45-1.67-7.18-0.81c-3.05,0.96-5.21,3.18-5.61,5.49c1.65,1.66,4.69,2.25,7.74,1.29
			C218.75,562.24,220.77,560.36,221.44,558.33z"></path>
		
			<line style="fill:none;stroke:#000000;stroke-linecap:round;stroke-linejoin:round;stroke-miterlimit:10;" x1="223.44" y1="557.14" x2="208.27" y2="561.81"></line>
		<path style="fill:none;stroke:#000000;stroke-linecap:round;stroke-linejoin:round;stroke-miterlimit:10;" d="M221.93,552.85
			c0.79,0.47,1.79,0.39,2.49-0.21c3.26-2.79,5.21-7.95,4.74-13.66c-0.53-6.37-3.92-11.56-8.23-13.36
			c-3.96,2.48-6.45,8.16-5.92,14.53C215.48,545.87,218.25,550.63,221.93,552.85z"></path>
		
			<line style="fill:none;stroke:#000000;stroke-linecap:round;stroke-linejoin:round;stroke-miterlimit:10;" x1="223.35" y1="557.27" x2="220.92" y2="525.63"></line>
		<path style="fill:none;stroke:#000000;stroke-linecap:round;stroke-linejoin:round;stroke-miterlimit:10;" d="M227.46,554.73
			c-0.3,0.9,0.02,1.9,0.79,2.47c3.58,2.64,9.23,3.41,14.88,1.6c6.3-2.02,10.76-6.64,11.56-11.41c-3.42-3.42-9.73-4.61-16.04-2.59
			C233,546.59,228.84,550.5,227.46,554.73z"></path>
		
			<line style="fill:none;stroke:#000000;stroke-linecap:round;stroke-linejoin:round;stroke-miterlimit:10;" x1="223.33" y1="557.19" x2="254.69" y2="547.38"></line>
		
			<line style="fill:none;stroke:#000000;stroke-linecap:round;stroke-linejoin:round;stroke-miterlimit:10;" x1="223.33" y1="557.19" x2="241.27" y2="584.72"></line>
		<path style="fill:none;stroke:#000000;stroke-linecap:round;stroke-linejoin:round;stroke-miterlimit:10;" d="M209.39,580.12
			c-0.6,0.25-0.97,0.86-0.93,1.51c0.23,3.03,2.35,6.3,5.8,8.42c3.85,2.37,8.22,2.61,11.05,0.9c0.24-3.29-1.95-7.09-5.8-9.45
			C216.07,579.37,212.19,578.95,209.39,580.12z"></path>
		
			<line style="fill:none;stroke:#000000;stroke-linecap:round;stroke-linejoin:round;stroke-miterlimit:10;" x1="207.77" y1="580.17" x2="225.31" y2="590.94"></line>
		
			<line style="fill:none;stroke:#000000;stroke-linecap:round;stroke-linejoin:round;stroke-miterlimit:10;" x1="204.62" y1="584.36" x2="195.71" y2="610.14"></line>
		
			<line style="fill:none;stroke:#000000;stroke-linecap:round;stroke-linejoin:round;stroke-miterlimit:10;" x1="199.07" y1="578.46" x2="173.57" y2="577.21"></line>
		<path style="fill:none;stroke:#000000;stroke-linecap:round;stroke-linejoin:round;stroke-miterlimit:10;" d="M224.35,570.18
			c0.6,1.07,0.96,2.18,1.08,3.27c0.47,1.1,1.03,2.18,1.73,3.24c3.65,5.52,9.31,8.55,14.12,8.04c2.36-4.22,1.8-10.62-1.85-16.14
			c-3.27-4.95-8.16-7.9-12.6-8.09c-0.95-0.04-1.82,0.54-2.16,1.43C223.76,564.32,223.66,567.21,224.35,570.18z"></path>
		
			<line style="fill:none;stroke:#000000;stroke-linecap:round;stroke-linejoin:round;stroke-miterlimit:10;" x1="206.02" y1="563.64" x2="225.48" y2="574.27"></line>
		
			<line style="fill:none;stroke:#000000;stroke-linecap:round;stroke-linejoin:round;stroke-miterlimit:10;" x1="206.17" y1="563.42" x2="202.5" y2="585.55"></line>
		<path style="fill:none;stroke:#000000;stroke-linecap:round;stroke-linejoin:round;stroke-miterlimit:10;" d="M188.39,571.9
			c-2.26,0.15-4.42-0.08-6.4-0.59c-3.76,1.05-6.81,3.16-8.41,5.9c2,4.4,7.49,7.74,14.1,8.07c4.78,0.24,9.12-1.16,12.08-3.53
			c-0.76-1.95-1.05-4.3-0.66-6.76c0.03-0.16,0.09-0.3,0.12-0.46c-1.83-1.51-4.2-2.64-6.85-3.31
			C191.11,571.57,189.78,571.8,188.39,571.9z"></path>
		
			<line style="fill:none;stroke:#000000;stroke-linecap:round;stroke-linejoin:round;stroke-miterlimit:10;" x1="206.23" y1="563.51" x2="173.43" y2="565.55"></line>
		<path style="fill:none;stroke:#000000;stroke-linecap:round;stroke-linejoin:round;stroke-miterlimit:10;" d="M203.63,559.47
			c0.91,0.27,1.9-0.09,2.44-0.87c2.52-3.66,3.1-9.34,1.11-14.93c-2.22-6.23-7-10.53-11.79-11.18c-3.3,3.54-4.28,9.88-2.06,16.12
			C195.31,554.2,199.36,558.23,203.63,559.47z"></path>
		
			<line style="fill:none;stroke:#000000;stroke-linecap:round;stroke-linejoin:round;stroke-miterlimit:10;" x1="206.23" y1="563.51" x2="195.38" y2="532.49"></line>
		<path style="fill:none;stroke:#000000;stroke-linecap:round;stroke-linejoin:round;stroke-miterlimit:10;" d="M206.4,566.69
			c-0.46-0.46-1.17-0.57-1.74-0.28c-2.71,1.37-4.92,4.58-5.56,8.58c-0.71,4.46,0.74,8.6,3.4,10.56c3.14-1.03,5.8-4.51,6.51-8.97
			C209.65,572.57,208.55,568.84,206.4,566.69z"></path>
		<path style="fill:none;stroke:#000000;stroke-linecap:round;stroke-linejoin:round;stroke-miterlimit:10;" d="M209.15,564.49
			c-0.58,0.28-0.91,0.9-0.83,1.54c0.39,2.97,2.67,6.08,6.2,7.98c3.93,2.12,8.27,2.11,10.96,0.27c0.06-3.26-2.32-6.89-6.26-9
			C215.7,563.37,211.85,563.18,209.15,564.49z"></path>
	</g>
	<g>
		<g>
			
				<rect x="657.89" y="517.65" style="fill:none;stroke:#000000;stroke-linecap:round;stroke-linejoin:round;stroke-miterlimit:10;" width="224.47" height="109.02"></rect>
			
				<line style="fill:none;stroke:#000000;stroke-linecap:round;stroke-linejoin:round;stroke-miterlimit:10;" x1="657.89" y1="620.62" x2="882.35" y2="620.68"></line>
		</g>
		
			<line style="fill:none;stroke:#000000;stroke-linecap:round;stroke-linejoin:round;stroke-miterlimit:10;" x1="807.87" y1="626.67" x2="807.87" y2="517.65"></line>
		
			<line style="fill:none;stroke:#000000;stroke-linecap:round;stroke-linejoin:round;stroke-miterlimit:10;" x1="733.39" y1="626.67" x2="733.39" y2="517.65"></line>
	</g>
	<g>
		<g>
			
				<rect x="693.79" y="1321.9" style="fill:none;stroke:#000000;stroke-linecap:round;stroke-linejoin:round;stroke-miterlimit:10;" width="105.65" height="244.41"></rect>
			
				<line style="fill:none;stroke:#000000;stroke-linecap:round;stroke-linejoin:round;stroke-miterlimit:10;" x1="699.83" y1="1321.91" x2="699.77" y2="1566.31"></line>
		</g>
		
			<line style="fill:none;stroke:#000000;stroke-linecap:round;stroke-linejoin:round;stroke-miterlimit:10;" x1="693.79" y1="1485.21" x2="799.44" y2="1485.21"></line>
		
			<line style="fill:none;stroke:#000000;stroke-linecap:round;stroke-linejoin:round;stroke-miterlimit:10;" x1="693.79" y1="1404.11" x2="799.44" y2="1404.11"></line>
	</g>
	<g>
		<g>
			<path style="fill:none;stroke:#000000;stroke-linecap:round;stroke-linejoin:round;stroke-miterlimit:10;" d="M602.98,1524.64
				l-23.53,8.27l-3.54-10.07c5.81-2.04,8.87-8.41,6.83-14.22c-2.04-5.81-8.41-8.87-14.22-6.83l-3.22-9.16l23.53-8.27L602.98,1524.64
				z"></path>
			
				<rect x="548.99" y="1492.75" transform="matrix(0.3168 -0.9485 0.9485 0.3168 -1050.3572 1557.4032)" style="fill:none;stroke:#000000;stroke-linecap:round;stroke-linejoin:round;stroke-miterlimit:10;" width="13.73" height="30.07"></rect>
			<g>
				
					<rect x="576.22" y="1453.51" transform="matrix(-0.5011 -0.8654 0.8654 -0.5011 -385.3027 2708.7886)" style="fill:none;stroke:#000000;stroke-linecap:round;stroke-linejoin:round;stroke-miterlimit:10;" width="23.9" height="23.9"></rect>
				
					<line style="fill:none;stroke:#000000;stroke-linecap:round;stroke-linejoin:round;stroke-miterlimit:10;" x1="604.49" y1="1469.81" x2="571.84" y2="1461.11"></line>
				
					<line style="fill:none;stroke:#000000;stroke-linecap:round;stroke-linejoin:round;stroke-miterlimit:10;" x1="592.52" y1="1449.13" x2="583.81" y2="1481.79"></line>
			</g>
			<path style="fill:none;stroke:#000000;stroke-linecap:round;stroke-linejoin:round;stroke-miterlimit:10;" d="M566.87,1534.81
				l15.8,12.99c0.58-0.99,1.75-1.5,2.88-1.13c1.3,0.43,2,1.84,1.56,3.13c-0.43,1.3-1.84,2-3.13,1.56c-1.13-0.38-1.76-1.49-1.63-2.63
				l-20.44,0.89L566.87,1534.81z"></path>
			<path style="fill:none;stroke:#000000;stroke-linecap:round;stroke-linejoin:round;stroke-miterlimit:10;" d="M535.28,1469.24
				l20.45,0.57c-0.15-1.14,0.46-2.26,1.58-2.66c1.29-0.45,2.7,0.22,3.16,1.51c0.45,1.29-0.23,2.7-1.51,3.16
				c-1.12,0.39-2.3-0.1-2.9-1.08l-15.6,13.24L535.28,1469.24z"></path>
			
				<circle style="fill:none;stroke:#000000;stroke-linecap:round;stroke-linejoin:round;stroke-miterlimit:10;" cx="524.48" cy="1511.14" r="7.23"></circle>
		</g>
		<polygon style="fill:none;stroke:#000000;stroke-linecap:round;stroke-linejoin:round;stroke-miterlimit:10;" points="
			561.44,1522.93 561.45,1537.16 549.14,1544.29 536.81,1537.19 536.79,1522.96 549.1,1515.83 		"></polygon>
	</g>
	<g>
		<g>
			<path style="fill:none;stroke:#000000;stroke-linecap:round;stroke-linejoin:round;stroke-miterlimit:10;" d="M352.83,1393.92
				c0-9.91-14.91-18.09-33.3-18.09s-33.3,8.29-33.3,18.09v53.01c0,4.17,3.38,7.55,7.55,7.55h51.52c4.17,0,7.55-3.38,7.55-7.55
				V1393.92z"></path>
			<path style="fill:none;stroke:#000000;stroke-linecap:round;stroke-linejoin:round;stroke-miterlimit:10;" d="M364.94,1393.92
				c0-16.53-20.33-30.17-45.41-30.17s-45.41,13.82-45.41,30.17v40.87c0,6.69,5.42,12.11,12.11,12.11l0,0v-52.98
				c0-9.8,14.91-18.09,33.3-18.09s33.3,8.18,33.3,18.09v52.98h0c6.69,0,12.11-5.42,12.11-12.11V1393.92z"></path>
		</g>
		
			<rect x="232.8" y="1464.81" transform="matrix(-1 5.127577e-10 -5.127577e-10 -1 639.2797 3031.322)" style="fill:none;stroke:#000000;stroke-linecap:round;stroke-linejoin:round;stroke-miterlimit:10;" width="173.67" height="101.7"></rect>
		<g>
			<path style="fill:none;stroke:#000000;stroke-linecap:round;stroke-linejoin:round;stroke-miterlimit:10;" d="M343.37,1503.78
				l-56.92-30.85c-0.38-0.2-0.85-0.06-1.05,0.31l-20.83,38.43c-0.2,0.38-0.06,0.85,0.31,1.05l56.92,30.85
				c0.38,0.2,0.85,0.06,1.05-0.31l20.83-38.43C343.89,1504.45,343.75,1503.98,343.37,1503.78z"></path>
			
				<rect x="275.23" y="1503.44" transform="matrix(0.8792 0.4765 -0.4765 0.8792 757.9691 39.6707)" style="fill:none;stroke:#000000;stroke-linecap:round;stroke-linejoin:round;stroke-miterlimit:10;" width="51.05" height="22.02"></rect>
			
				<rect x="300.35" y="1490.03" transform="matrix(0.8792 0.4765 -0.4765 0.8792 750.4866 32.7696)" style="fill:none;stroke:#000000;stroke-linecap:round;stroke-linejoin:round;stroke-miterlimit:10;" width="20.56" height="12.44"></rect>
			<path style="fill:none;stroke:#000000;stroke-linecap:round;stroke-linejoin:round;stroke-miterlimit:10;" d="M322.48,1543.95
				l-58.29-31.59l-13.18,8.88c-1.84,1.24-1.71,3.99,0.24,5.05l66.63,36.11c1.95,1.06,4.33-0.33,4.36-2.55L322.48,1543.95z"></path>
		</g>
		<g>
			<g>
				
					<circle style="fill:#FFFFFF;stroke:#000000;stroke-linecap:round;stroke-linejoin:round;stroke-miterlimit:10;" cx="378.62" cy="1528.56" r="19.1"></circle>
				
					<circle style="fill:#FFFFFF;stroke:#000000;stroke-linecap:round;stroke-linejoin:round;stroke-miterlimit:10;" cx="378.62" cy="1528.56" r="6.82"></circle>
			</g>
			
				<line style="fill:#FFFFFF;stroke:#000000;stroke-linecap:round;stroke-linejoin:round;stroke-miterlimit:10;" x1="378.62" y1="1521.74" x2="378.62" y2="1535.37"></line>
			
				<line style="fill:#FFFFFF;stroke:#000000;stroke-linecap:round;stroke-linejoin:round;stroke-miterlimit:10;" x1="371.8" y1="1528.56" x2="385.43" y2="1528.56"></line>
		</g>
	</g>
	<path style="fill:none;stroke:#000000;stroke-linecap:round;stroke-linejoin:round;stroke-miterlimit:10;" d="M1081.72,1220.54
		c-7.48,0-22.31,0-29.79,0c-7.65,0-11.56,6.27-12.83,14.06c-4.65,31.76-4.65,64.02,0,95.78c1.28,7.79,5.18,14.06,12.83,14.06
		c7.48,0,22.31,0,29.79,0c7.65,0,11.56-6.27,12.83-14.06c4.65-31.76,4.65-64.02,0-95.78
		C1093.28,1226.81,1089.37,1220.54,1081.72,1220.54z"></path>
	<g>
		<path style="fill:none;stroke:#000000;stroke-linecap:round;stroke-linejoin:round;stroke-miterlimit:10;" d="M1090.27,1325.17
			l-2.48-4.4c-0.31,0.26-0.64,0.5-1.01,0.71c-0.37,0.21-0.74,0.36-1.13,0.49l2.48,4.4c0.19,0.34,0.62,0.46,0.97,0.27l0.9-0.51
			C1090.34,1325.95,1090.46,1325.51,1090.27,1325.17z"></path>
		
			<circle style="fill:none;stroke:#000000;stroke-linecap:round;stroke-linejoin:round;stroke-miterlimit:10;" cx="1083.41" cy="1315.49" r="6.88"></circle>
	</g>
	<g>
		<path style="fill:none;stroke:#000000;stroke-linecap:round;stroke-linejoin:round;stroke-miterlimit:10;" d="M1047,1239.83
			l0.96,4.95c0.38-0.15,0.77-0.27,1.18-0.35c0.41-0.08,0.82-0.11,1.23-0.11l-0.96-4.95c-0.07-0.38-0.45-0.64-0.83-0.56l-1.01,0.2
			C1047.18,1239.07,1046.92,1239.44,1047,1239.83z"></path>
		
			<circle style="fill:none;stroke:#000000;stroke-linecap:round;stroke-linejoin:round;stroke-miterlimit:10;" cx="1050.45" cy="1251.19" r="6.88"></circle>
	</g>
	<g>
		<g>
			
				<rect x="1056.89" y="1285.38" transform="matrix(0.3818 -0.9242 0.9242 0.3818 -546.653 1783.2231)" style="fill:none;stroke:#000000;stroke-linecap:round;stroke-linejoin:round;stroke-miterlimit:10;" width="5.72" height="29.78"></rect>
			<g>
				
					<rect x="1055.2" y="1273.27" transform="matrix(0.6022 -0.7983 0.7983 0.6022 -607.5021 1357.0852)" style="fill:none;stroke:#000000;stroke-linecap:round;stroke-linejoin:round;stroke-miterlimit:10;" width="5.72" height="29.78"></rect>
				
					<rect x="1056.04" y="1263.47" transform="matrix(0.6022 -0.7983 0.7983 0.6022 -596.7349 1359.0892)" style="fill:none;stroke:#000000;stroke-linecap:round;stroke-linejoin:round;stroke-miterlimit:10;" width="18.83" height="29.78"></rect>
			</g>
		</g>
		<polygon style="fill:none;stroke:#000000;stroke-linecap:round;stroke-linejoin:round;stroke-miterlimit:10;" points="
			1081.8,1285.9 1079.22,1284.84 1068.23,1299.41 1049.75,1285.48 1047.08,1291.94 1074.61,1303.31 		"></polygon>
	</g>
	<g>
		<g>
			<g>
				<path style="fill:none;stroke:#000000;stroke-linecap:round;stroke-linejoin:round;stroke-miterlimit:10;" d="M1204.57,1527.67
					c0.03-0.14,0.06-0.28,0.11-0.42c2.59-7.38,4.61-15.02,6.01-22.7c1.4-7.68,2.2-15.54,2.38-23.35c0-0.16,0.02-0.3,0.04-0.44
					c0.13-0.74,0.6-1.39,1.26-1.78c0.38-0.22,1.16-0.54,2.13-0.22l0.06,0.02c14.83,5.2,30.32,8.02,46.03,8.38l0.09,0
					c1.01,0.05,1.62,0.62,1.89,0.96c0.49,0.6,0.69,1.37,0.55,2.11c-0.03,0.14-0.06,0.28-0.11,0.41c-2.59,7.38-4.61,15.02-6.01,22.7
					c-1.4,7.68-2.2,15.54-2.38,23.35c0,0.16-0.02,0.3-0.04,0.44c-0.14,0.74-0.6,1.39-1.26,1.78c-0.38,0.22-1.16,0.54-2.13,0.22
					l-0.06-0.02c-14.83-5.2-30.32-8.02-46.03-8.38l-0.08,0c-1.01-0.05-1.62-0.62-1.9-0.96
					C1204.64,1529.18,1204.44,1528.41,1204.57,1527.67z"></path>
			</g>
			<path style="fill:none;stroke:#000000;stroke-linecap:round;stroke-linejoin:round;stroke-miterlimit:10;" d="M1216.57,1478.79
				l-0.06-0.02c-0.97-0.32-1.75,0-2.13,0.22c-0.67,0.39-1.13,1.04-1.26,1.78c-0.03,0.14-0.04,0.28-0.04,0.44
				c-0.16,6.87-0.88,13.76-1.98,20.55c-6.09,1.12-12.13,2.52-18.06,4.4l-0.06,0.02c-0.98,0.29-1.75-0.05-2.12-0.28
				c-0.66-0.41-1.1-1.07-1.21-1.82c-0.02-0.14-0.03-0.28-0.03-0.44c0.06-7.81-0.5-15.69-1.67-23.41
				c-1.16-7.72-2.95-15.41-5.32-22.87c-0.04-0.14-0.08-0.28-0.1-0.42c-0.11-0.75,0.11-1.51,0.62-2.09c0.29-0.33,0.91-0.88,1.92-0.9
				l0.09,0c15.72,0.12,31.28-2.23,46.27-6.98l0.06-0.02c0.98-0.29,1.75,0.05,2.13,0.28c0.66,0.41,1.1,1.07,1.21,1.82
				c0.02,0.14,0.03,0.28,0.03,0.44c-0.06,7.81,0.5,15.69,1.67,23.41c0.6,3.95,1.36,7.89,2.28,11.8
				C1231.26,1483.3,1223.83,1481.34,1216.57,1478.79z"></path>
			<path style="fill:none;stroke:#000000;stroke-linecap:round;stroke-linejoin:round;stroke-miterlimit:10;" d="M1216.57,1478.79
				l-0.06-0.02c-0.97-0.32-1.75,0-2.13,0.22c-0.67,0.39-1.13,1.04-1.26,1.78c-0.03,0.14-0.04,0.28-0.04,0.44
				c-0.18,7.81-0.98,15.66-2.38,23.35c-0.04,0.21-0.1,0.42-0.14,0.63c-5.57,1.07-11.11,2.36-16.53,4.08l-0.01,0
				c-3.81,1.21-7.69-1.66-7.66-5.65v-0.01c0.12-15.35-2.19-30.62-6.83-45.25l0-0.01c-1.21-3.81,1.66-7.69,5.65-7.66h0.01
				c15.35,0.12,30.62-2.19,45.25-6.83l0.01,0c3.81-1.21,7.69,1.66,7.66,5.65l0,0.01c-0.09,12.05,1.36,24.04,4.21,35.72
				C1233.58,1483.83,1224.96,1481.74,1216.57,1478.79z"></path>
		</g>
		<g>
			<g>
				<path style="fill:none;stroke:#000000;stroke-linecap:round;stroke-linejoin:round;stroke-miterlimit:10;" d="M1211.83,1197.87
					c0.04,0.14,0.09,0.27,0.15,0.4c3.32,7.09,6.1,14.48,8.26,21.98s3.75,15.24,4.72,22.99c0.02,0.16,0.05,0.3,0.09,0.44
					c0.21,0.72,0.73,1.32,1.44,1.64c0.4,0.18,1.21,0.42,2.14,0l0.06-0.03c14.23-6.67,29.36-11.04,44.95-12.97l0.08-0.01
					c1-0.15,1.55-0.78,1.79-1.14c0.42-0.65,0.55-1.43,0.34-2.16c-0.04-0.13-0.09-0.27-0.15-0.4c-3.32-7.09-6.1-14.48-8.26-21.98
					s-3.75-15.24-4.72-22.99c-0.02-0.16-0.05-0.3-0.09-0.43c-0.21-0.72-0.73-1.32-1.44-1.64c-0.4-0.18-1.21-0.42-2.14,0l-0.06,0.03
					c-14.23,6.67-29.36,11.04-44.95,12.97l-0.08,0.01c-1,0.15-1.55,0.78-1.79,1.14C1211.75,1196.36,1211.62,1197.15,1211.83,1197.87
					z"></path>
			</g>
			<path style="fill:none;stroke:#000000;stroke-linecap:round;stroke-linejoin:round;stroke-miterlimit:10;" d="M1228.69,1245.3
				l-0.06,0.03c-0.93,0.42-1.74,0.18-2.14,0c-0.7-0.32-1.23-0.92-1.44-1.64c-0.04-0.13-0.07-0.28-0.09-0.44
				c-0.85-6.82-2.26-13.6-4.04-20.25c-6.17-0.51-12.32-1.28-18.41-2.56l-0.06-0.01c-1-0.19-1.74,0.23-2.09,0.5
				c-0.61,0.47-0.98,1.18-1.02,1.93c-0.01,0.14,0,0.28,0.01,0.44c0.85,7.76,1.08,15.66,0.7,23.46c-0.38,7.8-1.39,15.63-2.99,23.29
				c-0.03,0.14-0.05,0.29-0.05,0.43c-0.04,0.75,0.26,1.49,0.83,2.02c0.32,0.3,1,0.78,2,0.7l0.08-0.01
				c15.63-1.7,31.35-0.93,46.73,2.29l0.06,0.01c1,0.19,1.74-0.23,2.09-0.5c0.61-0.47,0.98-1.18,1.02-1.93
				c0.01-0.14,0-0.28-0.01-0.44c-0.85-7.76-1.08-15.66-0.7-23.46c0.2-3.99,0.56-7.99,1.08-11.96
				C1242.85,1239.33,1235.66,1242.03,1228.69,1245.3z"></path>
			<path style="fill:none;stroke:#000000;stroke-linecap:round;stroke-linejoin:round;stroke-miterlimit:10;" d="M1228.69,1245.3
				l-0.06,0.03c-0.93,0.42-1.74,0.18-2.14,0c-0.7-0.32-1.23-0.92-1.44-1.64c-0.04-0.13-0.07-0.28-0.09-0.44
				c-0.96-7.75-2.55-15.48-4.72-22.99c-0.06-0.21-0.14-0.41-0.2-0.62c-5.65-0.51-11.29-1.23-16.86-2.4l-0.01,0
				c-3.91-0.82-7.49,2.42-7.05,6.4l0,0.01c1.66,15.26,0.91,30.69-2.24,45.71l0,0.01c-0.82,3.91,2.42,7.49,6.4,7.05l0.01,0
				c15.26-1.66,30.69-0.91,45.71,2.24l0.01,0c3.91,0.82,7.49-2.42,7.06-6.4l0-0.01c-1.3-11.98-1.07-24.05,0.59-35.96
				C1245.11,1238.57,1236.74,1241.52,1228.69,1245.3z"></path>
		</g>
		<g>
			<g>
				<path style="fill:none;stroke:#000000;stroke-linecap:round;stroke-linejoin:round;stroke-miterlimit:10;" d="M1284.78,1291.41
					l0-122.69c0-0.41,0.33-0.75,0.75-0.75h44.81c0.41,0,0.75,0.33,0.75,0.75l0,122.69c0,0.41-0.33,0.75-0.75,0.75h-44.81
					C1285.11,1292.16,1284.78,1291.82,1284.78,1291.41z"></path>
				<path style="fill:none;stroke:#000000;stroke-linecap:round;stroke-linejoin:round;stroke-miterlimit:10;" d="M1284.78,1291.41
					l0-122.69c0-0.41-0.33-0.75-0.75-0.75l-116.43,0c-0.41,0-0.75,0.33-0.75,0.75v122.69c0,0.41,0.33,0.75,0.75,0.75l116.43,0
					C1284.45,1292.16,1284.78,1291.82,1284.78,1291.41z"></path>
				<path style="fill:none;stroke:#000000;stroke-linecap:round;stroke-linejoin:round;stroke-miterlimit:10;" d="M1284.78,1415.59
					l0-122.69c0-0.41,0.33-0.75,0.75-0.75l44.81,0c0.41,0,0.75,0.33,0.75,0.75v122.69c0,0.41-0.33,0.75-0.75,0.75l-44.81,0
					C1285.11,1416.34,1284.78,1416,1284.78,1415.59z"></path>
				<path style="fill:none;stroke:#000000;stroke-linecap:round;stroke-linejoin:round;stroke-miterlimit:10;" d="M1284.78,1415.59
					l0-122.69c0-0.41-0.33-0.75-0.75-0.75H1167.6c-0.41,0-0.75,0.33-0.75,0.75l0,122.69c0,0.41,0.33,0.75,0.75,0.75h116.43
					C1284.45,1416.34,1284.78,1416,1284.78,1415.59z"></path>
				<path style="fill:none;stroke:#000000;stroke-linecap:round;stroke-linejoin:round;stroke-miterlimit:10;" d="M1284.78,1548.05
					l0-130.97c0-0.41,0.33-0.75,0.75-0.75l44.81,0c0.41,0,0.75,0.33,0.75,0.75l0,130.97c0,0.41-0.33,0.75-0.75,0.75h-44.81
					C1285.11,1548.8,1284.78,1548.47,1284.78,1548.05z"></path>
				<path style="fill:none;stroke:#000000;stroke-linecap:round;stroke-linejoin:round;stroke-miterlimit:10;" d="M1284.78,1548.05
					l0-130.97c0-0.41-0.33-0.75-0.75-0.75l-225.4,0c-0.41,0-0.75,0.33-0.75,0.75l0,130.97c0,0.41,0.33,0.75,0.75,0.75l225.4,0
					C1284.45,1548.8,1284.78,1548.47,1284.78,1548.05z"></path>
			</g>
		</g>
	</g>
	
		<rect x="1759.34" y="1278.46" transform="matrix(-1.836970e-16 1 -1 -1.836970e-16 3139.4583 -476.8113)" style="fill:none;stroke:#000000;stroke-linecap:round;stroke-linejoin:round;stroke-miterlimit:10;" width="97.59" height="105.73"></rect>
	<g>
		<g>
			
				<rect x="111.42" y="1097.12" transform="matrix(8.404766e-06 1 -1 8.404766e-06 1298.4994 908.598)" style="fill:none;stroke:#000000;stroke-linecap:round;stroke-linejoin:round;stroke-miterlimit:10;" width="167.06" height="12.86"></rect>
			
				<rect x="280.62" y="940.78" transform="matrix(8.404766e-06 1 -1 8.404766e-06 1467.7009 739.3943)" style="fill:none;stroke:#000000;stroke-linecap:round;stroke-linejoin:round;stroke-miterlimit:10;" width="167.06" height="325.55"></rect>
			<path style="fill:none;stroke:#000000;stroke-linecap:round;stroke-linejoin:round;stroke-miterlimit:10;" d="M267.53,1032.21
				l244.39,0c2.37,0,4.29,1.82,4.29,4.06l0,134.57c0,2.24-1.92,4.06-4.29,4.06l-244.39,0L267.53,1032.21z"></path>
			<path style="fill:none;stroke:#000000;stroke-linecap:round;stroke-linejoin:round;stroke-miterlimit:10;" d="M267.53,1056.07
				l0-23.86l-55.44,0c-2.37,0-4.29,1.82-4.29,4.06l0,134.57c0,2.24,1.92,4.06,4.29,4.06l55.44,0l0-23.86l-31.67,0
				c-9.47,0-17.15-7.27-17.15-16.24l0-62.48c0-8.97,7.68-16.24,17.15-16.24H267.53z"></path>
		</g>
		<g>
			<path style="fill:none;stroke:#000000;stroke-linecap:round;stroke-linejoin:round;stroke-miterlimit:10;" d="M362.11,1080.83
				l-7.75,10.71c-0.71,0.98-2.07,1.2-3.05,0.49l-6.49-4.69c-0.98-0.71-1.2-2.07-0.49-3.05l7.75-10.71c0.71-0.98,2.07-1.2,3.05-0.49
				l6.49,4.69C362.6,1078.48,362.82,1079.85,362.11,1080.83z"></path>
			<path style="fill:none;stroke:#000000;stroke-linecap:round;stroke-linejoin:round;stroke-miterlimit:10;" d="M356.95,1088.32
				l1.24,10.75c0.39,3.4,3.46,5.83,6.86,5.44c3.4-0.39,5.83-3.47,5.44-6.86l-1.2-10.33"></path>
			<path style="fill:none;stroke:#000000;stroke-linecap:round;stroke-linejoin:round;stroke-miterlimit:10;" d="M384.92,1049.29
				l-7.75,10.71c-0.71,0.98-2.07,1.2-3.05,0.49l-6.49-4.69c-0.98-0.71-1.2-2.07-0.49-3.05l7.75-10.71c0.71-0.98,2.07-1.2,3.05-0.49
				l6.49,4.69C385.41,1046.94,385.63,1048.31,384.92,1049.29z"></path>
			<path style="fill:none;stroke:#000000;stroke-linecap:round;stroke-linejoin:round;stroke-miterlimit:10;" d="M384.92,1049.29
				l-7.75,10.71c-0.71,0.98-2.07,1.2-3.05,0.49l-6.49-4.69c-0.98-0.71-1.2-2.07-0.49-3.05l7.75-10.71c0.71-0.98,2.07-1.2,3.05-0.49
				l6.49,4.69C385.41,1046.94,385.63,1048.31,384.92,1049.29z"></path>
			<path style="fill:none;stroke:#000000;stroke-linecap:round;stroke-linejoin:round;stroke-miterlimit:10;" d="M384.58,1069.62
				c4.31,3.12,5.27,9.13,2.16,13.44c-3.12,4.31-9.13,5.27-13.44,2.16L384.58,1069.62z"></path>
			<path style="fill:none;stroke:#000000;stroke-linecap:round;stroke-linejoin:round;stroke-miterlimit:10;" d="M370.39,1098.87
				l1.46,2.14c2.22,3.26,6.66,4.1,9.92,1.89c3.26-2.22,4.1-6.66,1.89-9.92l-4.08-5.99"></path>
			<path style="fill:none;stroke:#000000;stroke-linecap:round;stroke-linejoin:round;stroke-miterlimit:10;" d="M369.49,1049.5
				l1.88-2.6c-7.09-0.68-15.07,3.05-20.34,10.33c-5.27,7.28-6.31,16.03-3.44,22.55l2.14-2.97c2-2.77,5.87-3.39,8.64-1.39
				c2.77,2,3.39,5.87,1.39,8.64l-2.94,4.07c5.19,1.64,11.22,0.49,16.48-2.91c0,0,11.28-15.6,11.28-15.6
				c1.59-6.07,0.78-12.15-2.4-16.57l-2.68,3.7c-2,2.77-5.87,3.39-8.64,1.39C368.1,1056.14,367.48,1052.27,369.49,1049.5z"></path>
			<path style="fill:none;stroke:#000000;stroke-linecap:round;stroke-linejoin:round;stroke-miterlimit:10;" d="M384.67,1084.59
				c-1.1-0.79-1.34-2.33-0.55-3.42c0.79-1.1,2.33-1.34,3.42-0.55l-0.8,2.45L384.67,1084.59z"></path>
			<path style="fill:none;stroke:#000000;stroke-linecap:round;stroke-linejoin:round;stroke-miterlimit:10;" d="M372.79,1085.24
				c-1.1-0.79-1.34-2.33-0.55-3.42c0.79-1.1,2.33-1.34,3.42-0.55L372.79,1085.24z"></path>
			<path style="fill:none;stroke:#000000;stroke-linecap:round;stroke-linejoin:round;stroke-miterlimit:10;" d="M381.54,1073.13
				c-1.1-0.79-1.34-2.33-0.55-3.42c0.79-1.1,2.33-1.34,3.42-0.55L381.54,1073.13z"></path>
			<path style="fill:none;stroke:#000000;stroke-linecap:round;stroke-linejoin:round;stroke-miterlimit:10;" d="M388.02,1074.22
				l6.83,2.58c3.69,1.39,7.81-0.47,9.2-4.15c1.39-3.69-0.47-7.81-4.15-9.2l-3.11-1.17c-0.26,0.09-0.63,0.2-0.91,0.26l-10.56,2.18"></path>
			<path style="fill:none;stroke:#000000;stroke-linecap:round;stroke-linejoin:round;stroke-miterlimit:10;" d="M395.88,1062.54
				c0.31-0.06,0.62-0.15,0.91-0.26c2.82-1.04,4.53-4.02,3.9-7.05c-0.69-3.35-3.96-5.5-7.31-4.81l-10.6,2.18
				c-0.13,0.03-0.23,0.1-0.35,0.14l-0.23,0.32"></path>
		</g>
	</g>
	<g>
		<g>
			<g>
				<path style="fill:none;stroke:#000000;stroke-linecap:round;stroke-linejoin:round;stroke-miterlimit:10;" d="M1586.76,1286.08
					l19.84-13.59c12.41-8.5,16.45-24.98,9.37-38.26l-0.8-1.51c-7.07-13.27-22.98-19.11-36.96-13.56l-22.38,8.88L1586.76,1286.08z"></path>
				<path style="fill:none;stroke:#000000;stroke-linecap:round;stroke-linejoin:round;stroke-miterlimit:10;" d="M1570.24,1213.14
					l4.94-1.96c17.9-7.1,38.27,0.37,47.33,17.36l1.03,1.93c9.06,17,3.89,38.1-12,48.99l-4.35,2.98c-2.1,1.44-4.99,0.73-6.19-1.52
					l0,0c-1.02-1.92-0.44-4.31,1.36-5.54l4.25-2.91c12.41-8.5,16.45-24.98,9.37-38.26l-0.8-1.51
					c-7.07-13.27-22.98-19.11-36.96-13.56l-4.82,1.91c-2.02,0.8-4.32-0.04-5.34-1.96l0,0
					C1566.85,1216.87,1567.87,1214.08,1570.24,1213.14z"></path>
			</g>
			<g>
				<path style="fill:none;stroke:#000000;stroke-linecap:round;stroke-linejoin:round;stroke-miterlimit:10;" d="M1427.07,1296.7
					l-19.84,13.59c-12.41,8.5-16.45,24.98-9.37,38.26l0.8,1.51c7.07,13.27,22.98,19.11,36.96,13.56l22.38-8.88L1427.07,1296.7z"></path>
				<path style="fill:none;stroke:#000000;stroke-linecap:round;stroke-linejoin:round;stroke-miterlimit:10;" d="M1443.59,1369.64
					l-4.94,1.96c-17.9,7.1-38.27-0.37-47.33-17.36l-1.03-1.93c-9.06-17-3.9-38.1,12-48.99l4.35-2.98c2.1-1.44,4.99-0.73,6.19,1.52v0
					c1.02,1.92,0.44,4.31-1.36,5.54l-4.25,2.91c-12.41,8.5-16.45,24.98-9.37,38.26l0.8,1.51c7.07,13.27,22.98,19.11,36.96,13.56
					l4.82-1.91c2.02-0.8,4.32,0.04,5.34,1.96l0,0C1446.98,1365.91,1445.96,1368.7,1443.59,1369.64z"></path>
			</g>
			<g>
				<path style="fill:none;stroke:#000000;stroke-linecap:round;stroke-linejoin:round;stroke-miterlimit:10;" d="M1512.23,1371.23
					l13.59,19.84c8.5,12.41,24.98,16.45,38.26,9.37l1.51-0.8c13.27-7.07,19.11-22.98,13.56-36.96l-8.88-22.38L1512.23,1371.23z"></path>
				<path style="fill:none;stroke:#000000;stroke-linecap:round;stroke-linejoin:round;stroke-miterlimit:10;" d="M1585.17,1354.71
					l1.96,4.94c7.1,17.9-0.37,38.27-17.36,47.33l-1.93,1.03c-17,9.06-38.1,3.89-48.99-12l-2.98-4.35c-1.44-2.1-0.73-4.99,1.52-6.19
					l0,0c1.92-1.02,4.31-0.44,5.54,1.36l2.91,4.25c8.5,12.41,24.98,16.45,38.26,9.37l1.51-0.8c13.27-7.07,19.11-22.98,13.56-36.96
					l-1.91-4.82c-0.8-2.02,0.04-4.32,1.96-5.34l0,0C1581.44,1351.32,1584.23,1352.35,1585.17,1354.71z"></path>
			</g>
			<g>
				<path style="fill:none;stroke:#000000;stroke-linecap:round;stroke-linejoin:round;stroke-miterlimit:10;" d="M1501.6,1211.55
					l-13.59-19.84c-8.5-12.41-24.98-16.45-38.26-9.37l-1.51,0.8c-13.27,7.07-19.11,22.98-13.56,36.96l8.88,22.38L1501.6,1211.55z"></path>
				<path style="fill:none;stroke:#000000;stroke-linecap:round;stroke-linejoin:round;stroke-miterlimit:10;" d="M1428.66,1228.07
					l-1.96-4.94c-7.1-17.9,0.37-38.27,17.36-47.33l1.93-1.03c17-9.06,38.1-3.9,48.99,12l2.98,4.35c1.44,2.1,0.73,4.99-1.52,6.19l0,0
					c-1.92,1.02-4.31,0.44-5.54-1.36l-2.91-4.25c-8.5-12.41-24.98-16.45-38.26-9.37l-1.51,0.8c-13.27,7.07-19.11,22.98-13.56,36.96
					l1.91,4.82c0.8,2.02-0.04,4.32-1.96,5.34l0,0C1432.39,1231.46,1429.6,1230.44,1428.66,1228.07z"></path>
			</g>
			
				<circle style="fill:#FFFFFF;stroke:#000000;stroke-linecap:round;stroke-linejoin:round;stroke-miterlimit:10;" cx="1506.55" cy="1291.58" r="80.52"></circle>
		</g>
		<g>
			<g>
				
					<circle style="fill:none;stroke:#000000;stroke-linecap:round;stroke-linejoin:round;stroke-miterlimit:10;" cx="1462.17" cy="1320.13" r="14.67"></circle>
			</g>
			<g>
				
					<circle style="fill:none;stroke:#000000;stroke-linecap:round;stroke-linejoin:round;stroke-miterlimit:10;" cx="1462.17" cy="1320.13" r="8.35"></circle>
			</g>
			<g>
				
					<ellipse transform="matrix(0.8812 -0.4727 0.4727 0.8812 -437.2143 841.7885)" style="fill:none;stroke:#000000;stroke-linecap:round;stroke-linejoin:round;stroke-miterlimit:10;" cx="1456.47" cy="1290.91" rx="3.69" ry="2.27"></ellipse>
				
					<line style="fill:none;stroke:#000000;stroke-linecap:round;stroke-linejoin:round;stroke-miterlimit:10;" x1="1453.22" y1="1292.65" x2="1438.98" y2="1300.29"></line>
			</g>
			<g>
				<path style="fill:none;stroke:#000000;stroke-linecap:round;stroke-linejoin:round;stroke-miterlimit:10;" d="M1484.49,1335.33
					l-3.25,1.75c-1.8,0.96-3.73,0.85-4.33-0.26s0.38-2.78,2.18-3.75l3.25-1.75"></path>
				
					<line style="fill:none;stroke:#000000;stroke-linecap:round;stroke-linejoin:round;stroke-miterlimit:10;" x1="1476.91" y1="1336.82" x2="1462.67" y2="1344.45"></line>
			</g>
			
				<line style="fill:none;stroke:#000000;stroke-linecap:round;stroke-linejoin:round;stroke-miterlimit:10;" x1="1483.41" y1="1333.33" x2="1476.91" y2="1336.82"></line>
			<g>
				<path style="fill:none;stroke:#000000;stroke-linecap:round;stroke-linejoin:round;stroke-miterlimit:10;" d="M1450.33,1300.56
					l1.67,3.11l12.04-6.46l-1.08-2.01c-0.33-0.61-1.08-0.83-1.69-0.51L1450.33,1300.56z"></path>
				<path style="fill:none;stroke:#000000;stroke-linecap:round;stroke-linejoin:round;stroke-miterlimit:10;" d="M1441.92,1305.77
					l1.08,2.01c0.16,0.3,0.54,0.42,0.84,0.25l8.16-4.37l-1.67-3.11l-8.16,4.37C1441.87,1305.09,1441.76,1305.47,1441.92,1305.77z"></path>
			</g>
		</g>
		<g>
			<g>
				
					<circle style="fill:none;stroke:#000000;stroke-linecap:round;stroke-linejoin:round;stroke-miterlimit:10;" cx="1553.96" cy="1263.33" r="14.67"></circle>
			</g>
			<g>
				
					<circle style="fill:none;stroke:#000000;stroke-linecap:round;stroke-linejoin:round;stroke-miterlimit:10;" cx="1553.96" cy="1263.33" r="8.35"></circle>
			</g>
			<g>
				
					<ellipse transform="matrix(0.8812 -0.4727 0.4727 0.8812 -425.7454 890.811)" style="fill:none;stroke:#000000;stroke-linecap:round;stroke-linejoin:round;stroke-miterlimit:10;" cx="1559.66" cy="1292.55" rx="3.69" ry="2.27"></ellipse>
				
					<line style="fill:none;stroke:#000000;stroke-linecap:round;stroke-linejoin:round;stroke-miterlimit:10;" x1="1562.92" y1="1290.81" x2="1577.16" y2="1283.17"></line>
			</g>
			<g>
				<path style="fill:none;stroke:#000000;stroke-linecap:round;stroke-linejoin:round;stroke-miterlimit:10;" d="M1531.65,1248.14
					l3.25-1.75c1.8-0.96,3.73-0.85,4.33,0.26c0.59,1.11-0.38,2.78-2.18,3.75l-3.25,1.75"></path>
				
					<line style="fill:none;stroke:#000000;stroke-linecap:round;stroke-linejoin:round;stroke-miterlimit:10;" x1="1539.23" y1="1246.65" x2="1553.47" y2="1239.01"></line>
			</g>
			
				<line style="fill:none;stroke:#000000;stroke-linecap:round;stroke-linejoin:round;stroke-miterlimit:10;" x1="1532.72" y1="1250.14" x2="1539.23" y2="1246.65"></line>
			<g>
				<path style="fill:none;stroke:#000000;stroke-linecap:round;stroke-linejoin:round;stroke-miterlimit:10;" d="M1565.81,1282.91
					l-1.67-3.11l-12.04,6.46l1.08,2.01c0.33,0.61,1.08,0.83,1.69,0.51L1565.81,1282.91z"></path>
				<path style="fill:none;stroke:#000000;stroke-linecap:round;stroke-linejoin:round;stroke-miterlimit:10;" d="M1574.22,1277.69
					l-1.08-2.01c-0.16-0.3-0.54-0.42-0.84-0.25l-8.16,4.37l1.67,3.11l8.16-4.37C1574.26,1278.37,1574.38,1277.99,1574.22,1277.69z"></path>
			</g>
		</g>
		<g>
			<g>
				
					<circle style="fill:none;stroke:#000000;stroke-linecap:round;stroke-linejoin:round;stroke-miterlimit:10;" cx="1479.67" cy="1245.84" r="14.67"></circle>
			</g>
			<g>
				
					<circle style="fill:none;stroke:#000000;stroke-linecap:round;stroke-linejoin:round;stroke-miterlimit:10;" cx="1479.67" cy="1245.84" r="8.35"></circle>
			</g>
			<g>
				
					<ellipse transform="matrix(0.8812 -0.4727 0.4727 0.8812 -406.9883 860.5359)" style="fill:none;stroke:#000000;stroke-linecap:round;stroke-linejoin:round;stroke-miterlimit:10;" cx="1508.89" cy="1240.14" rx="2.27" ry="3.69"></ellipse>
				
					<line style="fill:none;stroke:#000000;stroke-linecap:round;stroke-linejoin:round;stroke-miterlimit:10;" x1="1507.15" y1="1236.88" x2="1499.51" y2="1222.64"></line>
			</g>
			<g>
				<path style="fill:none;stroke:#000000;stroke-linecap:round;stroke-linejoin:round;stroke-miterlimit:10;" d="M1464.47,1268.15
					l-1.75-3.25c-0.96-1.8-0.85-3.73,0.26-4.33c1.11-0.59,2.78,0.38,3.75,2.18l1.75,3.25"></path>
				
					<line style="fill:none;stroke:#000000;stroke-linecap:round;stroke-linejoin:round;stroke-miterlimit:10;" x1="1462.98" y1="1260.57" x2="1455.35" y2="1246.33"></line>
			</g>
			
				<line style="fill:none;stroke:#000000;stroke-linecap:round;stroke-linejoin:round;stroke-miterlimit:10;" x1="1466.47" y1="1267.08" x2="1462.98" y2="1260.57"></line>
			<g>
				<path style="fill:none;stroke:#000000;stroke-linecap:round;stroke-linejoin:round;stroke-miterlimit:10;" d="M1499.24,1233.99
					l-3.11,1.67l6.46,12.04l2.01-1.08c0.61-0.33,0.83-1.08,0.51-1.69L1499.24,1233.99z"></path>
				<path style="fill:none;stroke:#000000;stroke-linecap:round;stroke-linejoin:round;stroke-miterlimit:10;" d="M1494.03,1225.58
					l-2.01,1.08c-0.3,0.16-0.42,0.54-0.25,0.84l4.37,8.16l3.11-1.67l-4.37-8.16C1494.71,1225.54,1494.33,1225.42,1494.03,1225.58z"></path>
			</g>
		</g>
		<g>
			<g>
				
					<circle style="fill:none;stroke:#000000;stroke-linecap:round;stroke-linejoin:round;stroke-miterlimit:10;" cx="1536.47" cy="1337.62" r="14.67"></circle>
			</g>
			<g>
				
					<circle style="fill:none;stroke:#000000;stroke-linecap:round;stroke-linejoin:round;stroke-miterlimit:10;" cx="1536.47" cy="1337.62" r="8.35"></circle>
			</g>
			<g>
				
					<ellipse transform="matrix(0.8812 -0.4727 0.4727 0.8812 -455.9735 872.0631)" style="fill:none;stroke:#000000;stroke-linecap:round;stroke-linejoin:round;stroke-miterlimit:10;" cx="1507.25" cy="1343.33" rx="2.27" ry="3.69"></ellipse>
				
					<line style="fill:none;stroke:#000000;stroke-linecap:round;stroke-linejoin:round;stroke-miterlimit:10;" x1="1508.99" y1="1346.58" x2="1516.63" y2="1360.82"></line>
			</g>
			<g>
				<path style="fill:none;stroke:#000000;stroke-linecap:round;stroke-linejoin:round;stroke-miterlimit:10;" d="M1551.66,1315.31
					l1.75,3.25c0.96,1.8,0.85,3.73-0.26,4.33c-1.11,0.59-2.78-0.38-3.75-2.18l-1.75-3.25"></path>
				
					<line style="fill:none;stroke:#000000;stroke-linecap:round;stroke-linejoin:round;stroke-miterlimit:10;" x1="1553.15" y1="1322.89" x2="1560.79" y2="1337.13"></line>
			</g>
			
				<line style="fill:none;stroke:#000000;stroke-linecap:round;stroke-linejoin:round;stroke-miterlimit:10;" x1="1549.66" y1="1316.38" x2="1553.15" y2="1322.89"></line>
			<g>
				<path style="fill:none;stroke:#000000;stroke-linecap:round;stroke-linejoin:round;stroke-miterlimit:10;" d="M1516.89,1349.47
					l3.11-1.67l-6.46-12.04l-2.01,1.08c-0.61,0.33-0.83,1.08-0.51,1.69L1516.89,1349.47z"></path>
				<path style="fill:none;stroke:#000000;stroke-linecap:round;stroke-linejoin:round;stroke-miterlimit:10;" d="M1522.11,1357.88
					l2.01-1.08c0.3-0.16,0.42-0.54,0.25-0.84l-4.37-8.16l-3.11,1.67l4.37,8.16C1521.43,1357.93,1521.81,1358.04,1522.11,1357.88z"></path>
			</g>
		</g>
	</g>
	<g>
		<g>
			
				<rect x="1761.32" y="514.15" style="fill:none;stroke:#000000;stroke-linecap:round;stroke-linejoin:round;stroke-miterlimit:10;" width="99.6" height="300.83"></rect>
			
				<line style="fill:none;stroke:#000000;stroke-linecap:round;stroke-linejoin:round;stroke-miterlimit:10;" x1="1767.36" y1="814.97" x2="1767.3" y2="514.16"></line>
		</g>
		
			<line style="fill:none;stroke:#000000;stroke-linecap:round;stroke-linejoin:round;stroke-miterlimit:10;" x1="1761.32" y1="613.97" x2="1860.92" y2="613.97"></line>
		
			<line style="fill:none;stroke:#000000;stroke-linecap:round;stroke-linejoin:round;stroke-miterlimit:10;" x1="1761.32" y1="713.79" x2="1860.92" y2="713.79"></line>
	</g>
	<g>
		<path style="fill:none;stroke:#000000;stroke-linecap:round;stroke-linejoin:round;stroke-miterlimit:10;" d="M1805.95,1522.5
			c-1.49,0.09-2.97,0.3-4.41,0.64"></path>
		<path style="fill:none;stroke:#000000;stroke-linecap:round;stroke-linejoin:round;stroke-miterlimit:10;" d="M1832.66,1552.16
			c0.83-5.12,0.06-10.3-2.06-14.87"></path>
		<path style="fill:none;stroke:#000000;stroke-linecap:round;stroke-linejoin:round;stroke-miterlimit:10;" d="M1819.25,1570.79
			c2.85-1.49,5.44-3.53,7.58-6.04"></path>
		<path style="fill:none;stroke:#000000;stroke-linecap:round;stroke-linejoin:round;stroke-miterlimit:10;" d="M1800.52,1572.8
			c1.07,0.3,2.15,0.52,3.22,0.67"></path>
		<path style="fill:none;stroke:#000000;stroke-linecap:round;stroke-linejoin:round;stroke-miterlimit:10;" d="M1788.26,1565.21
			c0.9,1,1.88,1.94,2.94,2.8"></path>
		<path style="fill:none;stroke:#000000;stroke-linecap:round;stroke-linejoin:round;stroke-miterlimit:10;" d="M1782.57,1541.48
			c-0.73,2.73-0.99,5.5-0.82,8.22"></path>
		<path style="fill:none;stroke:#000000;stroke-linecap:round;stroke-linejoin:round;stroke-miterlimit:10;" d="M1791.42,1528.01
			c-1.36,1.08-2.63,2.3-3.77,3.67"></path>
		<path style="fill:none;stroke:#000000;stroke-linecap:round;stroke-linejoin:round;stroke-miterlimit:10;" d="M1800.74,1527.93
			c1.28-3.57,1.19-8.13-0.59-12.58c-2.47-6.14-7.4-10.25-12.22-10.71c-3.16,3.66-3.89,10.04-1.43,16.19
			c2.21,5.51,6.41,9.37,10.72,10.45c0.14,0.04,0.29,0.03,0.43,0.04"></path>
		<path style="fill:none;stroke:#000000;stroke-linecap:round;stroke-linejoin:round;stroke-miterlimit:10;" d="M1791.16,1532.03
			c0.82-0.83,1.7-1.58,2.62-2.26"></path>
		<path style="fill:none;stroke:#000000;stroke-linecap:round;stroke-linejoin:round;stroke-miterlimit:10;" d="M1784.67,1550.38
			c-0.28-2.7-0.07-5.48,0.66-8.2"></path>
		<path style="fill:none;stroke:#000000;stroke-linecap:round;stroke-linejoin:round;stroke-miterlimit:10;" d="M1794.24,1566.73
			c-0.82-0.58-1.6-1.2-2.33-1.88"></path>
		<path style="fill:none;stroke:#000000;stroke-linecap:round;stroke-linejoin:round;stroke-miterlimit:10;" d="M1803.38,1570.53
			c-0.91-0.16-1.82-0.38-2.73-0.66"></path>
		<path style="fill:none;stroke:#000000;stroke-linecap:round;stroke-linejoin:round;stroke-miterlimit:10;" d="M1824.12,1563.51
			c-2.02,2.2-4.44,3.95-7.08,5.19"></path>
		<path style="fill:none;stroke:#000000;stroke-linecap:round;stroke-linejoin:round;stroke-miterlimit:10;" d="M1828.48,1539.56
			c1.29,3.19,1.85,6.67,1.6,10.17"></path>
		<path style="fill:none;stroke:#000000;stroke-linecap:round;stroke-linejoin:round;stroke-miterlimit:10;" d="M1801.36,1526.09
			c1.01-0.28,2.05-0.48,3.1-0.62"></path>
		<path style="fill:none;stroke:#000000;stroke-linecap:round;stroke-linejoin:round;stroke-miterlimit:10;" d="M1812.77,1542.89
			c0.14,0.94,0.87,1.69,1.81,1.85c4.38,0.75,9.78-1.1,14.02-5.25c4.73-4.63,6.63-10.76,5.21-15.39c-4.59-1.52-10.77,0.25-15.5,4.88
			C1814.08,1533.13,1812.11,1538.49,1812.77,1542.89z"></path>
		<path style="fill:none;stroke:#000000;stroke-linecap:round;stroke-linejoin:round;stroke-miterlimit:10;" d="M1801.98,1560.76
			c0.17,0.43,0.6,0.69,1.06,0.66c2.14-0.14,4.47-1.62,5.99-4.05c1.7-2.71,1.9-5.8,0.71-7.81c-2.33-0.19-5.03,1.33-6.73,4.04
			C1801.49,1556.04,1801.17,1558.77,1801.98,1560.76z"></path>
		
			<line style="fill:none;stroke:#000000;stroke-linecap:round;stroke-linejoin:round;stroke-miterlimit:10;" x1="1801.22" y1="1562.96" x2="1809.73" y2="1549.57"></line>
		<path style="fill:none;stroke:#000000;stroke-linecap:round;stroke-linejoin:round;stroke-miterlimit:10;" d="M1805.16,1565.24
			c-0.91,0.15-1.62,0.87-1.76,1.77c-0.67,4.24,1.19,9.43,5.26,13.47c4.54,4.5,10.48,6.25,14.93,4.82c1.4-4.46-0.39-10.39-4.93-14.9
			C1814.6,1566.37,1809.4,1564.54,1805.16,1565.24z"></path>
		
			<line style="fill:none;stroke:#000000;stroke-linecap:round;stroke-linejoin:round;stroke-miterlimit:10;" x1="1801.21" y1="1562.8" x2="1823.59" y2="1585.3"></line>
		<path style="fill:none;stroke:#000000;stroke-linecap:round;stroke-linejoin:round;stroke-miterlimit:10;" d="M1799.74,1567.41
			c-0.36-0.88-1.25-1.43-2.2-1.36c-4.44,0.31-9.24,3.4-12.36,8.44c-3.49,5.62-3.87,12.04-1.39,16.19c4.82,0.38,10.4-2.81,13.89-8.44
			C1800.8,1577.19,1801.43,1571.52,1799.74,1567.41z"></path>
		
			<line style="fill:none;stroke:#000000;stroke-linecap:round;stroke-linejoin:round;stroke-miterlimit:10;" x1="1801.28" y1="1562.85" x2="1783.78" y2="1590.67"></line>
		
			<line style="fill:none;stroke:#000000;stroke-linecap:round;stroke-linejoin:round;stroke-miterlimit:10;" x1="1801.28" y1="1562.85" x2="1769.76" y2="1553.55"></line>
		<path style="fill:none;stroke:#000000;stroke-linecap:round;stroke-linejoin:round;stroke-miterlimit:10;" d="M1797,1536.36
			c0.29-0.58,0.18-1.28-0.27-1.75c-2.14-2.16-5.87-3.27-9.87-2.64c-4.46,0.7-7.95,3.35-9,6.48c1.95,2.66,6.08,4.13,10.55,3.43
			C1792.41,1541.26,1795.63,1539.07,1797,1536.36z"></path>
		
			<line style="fill:none;stroke:#000000;stroke-linecap:round;stroke-linejoin:round;stroke-miterlimit:10;" x1="1798.21" y1="1535.27" x2="1777.87" y2="1538.46"></line>
		
			<line style="fill:none;stroke:#000000;stroke-linecap:round;stroke-linejoin:round;stroke-miterlimit:10;" x1="1797.88" y1="1530.04" x2="1787.92" y2="1504.64"></line>
		
			<line style="fill:none;stroke:#000000;stroke-linecap:round;stroke-linejoin:round;stroke-miterlimit:10;" x1="1805.93" y1="1530.93" x2="1826.14" y2="1515.33"></line>
		<path style="fill:none;stroke:#000000;stroke-linecap:round;stroke-linejoin:round;stroke-miterlimit:10;" d="M1792.07,1553.63
			c-1.15-0.43-2.14-1.03-2.94-1.79c-1.07-0.53-2.2-0.99-3.42-1.34c-6.36-1.83-12.63-0.47-15.96,3.05
			c0.94,4.74,5.52,9.25,11.88,11.08c5.7,1.64,11.33,0.72,14.83-2.03c0.75-0.59,1.04-1.59,0.72-2.49
			C1796.33,1557.71,1794.52,1555.44,1792.07,1553.63z"></path>
		
			<line style="fill:none;stroke:#000000;stroke-linecap:round;stroke-linejoin:round;stroke-miterlimit:10;" x1="1810.26" y1="1546.71" x2="1788.55" y2="1551.25"></line>
		
			<line style="fill:none;stroke:#000000;stroke-linecap:round;stroke-linejoin:round;stroke-miterlimit:10;" x1="1810.29" y1="1546.98" x2="1798.73" y2="1527.76"></line>
		<path style="fill:none;stroke:#000000;stroke-linecap:round;stroke-linejoin:round;stroke-miterlimit:10;" d="M1818.32,1528.98
			c1.62-1.59,3.42-2.81,5.25-3.71c2.18-3.24,3.13-6.83,2.57-9.95c-4.38-2.05-10.72-1.03-15.97,3.01c-3.8,2.92-6.18,6.8-6.9,10.52
			c1.85,0.99,3.59,2.59,4.89,4.72c0.09,0.14,0.12,0.29,0.2,0.43c2.37-0.04,4.91-0.72,7.36-1.93
			C1816.46,1531,1817.32,1529.96,1818.32,1528.98z"></path>
		
			<line style="fill:none;stroke:#000000;stroke-linecap:round;stroke-linejoin:round;stroke-miterlimit:10;" x1="1810.19" y1="1546.95" x2="1833.82" y2="1524.11"></line>
		<path style="fill:none;stroke:#000000;stroke-linecap:round;stroke-linejoin:round;stroke-miterlimit:10;" d="M1814.79,1548.33
			c-0.87,0.39-1.39,1.3-1.29,2.24c0.46,4.42,3.7,9.12,8.85,12.08c5.74,3.3,12.16,3.47,16.23,0.85c0.22-4.83-3.16-10.3-8.89-13.6
			C1824.54,1546.95,1818.85,1546.51,1814.79,1548.33z"></path>
		
			<line style="fill:none;stroke:#000000;stroke-linecap:round;stroke-linejoin:round;stroke-miterlimit:10;" x1="1810.19" y1="1546.95" x2="1838.57" y2="1563.5"></line>
		<path style="fill:none;stroke:#000000;stroke-linecap:round;stroke-linejoin:round;stroke-miterlimit:10;" d="M1807.99,1544.64
			c0.65,0.05,1.26-0.32,1.51-0.92c1.17-2.8,0.77-6.67-1.34-10.13c-2.35-3.86-6.14-6.06-9.43-5.83c-1.71,2.82-1.49,7.2,0.87,11.06
			C1801.7,1542.27,1804.97,1544.4,1807.99,1544.64z"></path>
		<path style="fill:none;stroke:#000000;stroke-linecap:round;stroke-linejoin:round;stroke-miterlimit:10;" d="M1807.33,1548.1
			c0.26-0.59,0.11-1.28-0.37-1.71c-2.23-2.01-5.98-2.89-9.89-2.05c-4.37,0.94-7.66,3.76-8.51,6.91c2.08,2.52,6.24,3.73,10.6,2.79
			C1803.07,1553.2,1806.12,1550.85,1807.33,1548.1z"></path>
	</g>
	<g>
		<g>
			<g>
				<g>
					
						<rect x="249.29" y="993.51" style="fill:none;stroke:#000000;stroke-linecap:round;stroke-linejoin:round;stroke-miterlimit:10;" width="278.55" height="12.36"></rect>
					
						<rect x="249.29" y="640.2" style="fill:none;stroke:#000000;stroke-linecap:round;stroke-linejoin:round;stroke-miterlimit:10;" width="278.55" height="353.31"></rect>
					<path style="fill:none;stroke:#000000;stroke-linecap:round;stroke-linejoin:round;stroke-miterlimit:10;" d="M383.33,929.95
						l10.48,0l0,30.42c0,9.1,7.38,16.47,16.47,16.47l78.25,0c9.1,0,16.47-7.38,16.47-16.47l0-30.42l10.48,0l0,53.26
						c0,2.27-1.84,4.12-4.12,4.12l-245.6,0c-2.27,0-4.12-1.84-4.12-4.12l0-53.26h10.48l0,30.42c0,9.1,7.38,16.47,16.47,16.47
						l78.25,0c9.1,0,16.47-7.38,16.47-16.47L383.33,929.95z"></path>
					<path style="fill:none;stroke:#000000;stroke-linecap:round;stroke-linejoin:round;stroke-miterlimit:10;" d="M263.1,650.5
						l250.93,0c0.8,0,1.45,0.65,1.45,1.45l0,278l-253.84,0l0-278C261.65,651.15,262.3,650.5,263.1,650.5z"></path>
				</g>
			</g>
			
				<rect x="520.9" y="929.23" transform="matrix(-5.027222e-07 1 -1 -5.027222e-07 1526.7627 401.3889)" style="fill:none;stroke:#000000;stroke-linecap:round;stroke-linejoin:round;stroke-miterlimit:10;" width="83.58" height="69.68"></rect>
			
				<rect x="172.66" y="929.23" transform="matrix(-5.027223e-07 1 -1 -5.027223e-07 1178.5275 749.6237)" style="fill:none;stroke:#000000;stroke-linecap:round;stroke-linejoin:round;stroke-miterlimit:10;" width="83.58" height="69.68"></rect>
			<g>
				<g>
					
						<circle style="fill:#FFFFFF;stroke:#000000;stroke-linecap:round;stroke-linejoin:round;stroke-miterlimit:10;" cx="214.45" cy="964.08" r="26.07"></circle>
					
						<circle style="fill:#FFFFFF;stroke:#000000;stroke-linecap:round;stroke-linejoin:round;stroke-miterlimit:10;" cx="214.45" cy="964.08" r="9.3"></circle>
				</g>
				
					<line style="fill:#FFFFFF;stroke:#000000;stroke-linecap:round;stroke-linejoin:round;stroke-miterlimit:10;" x1="214.45" y1="973.37" x2="214.45" y2="954.78"></line>
				
					<line style="fill:#FFFFFF;stroke:#000000;stroke-linecap:round;stroke-linejoin:round;stroke-miterlimit:10;" x1="223.75" y1="964.08" x2="205.15" y2="964.08"></line>
			</g>
			<g>
				<g>
					
						<circle style="fill:#FFFFFF;stroke:#000000;stroke-linecap:round;stroke-linejoin:round;stroke-miterlimit:10;" cx="562.69" cy="964.08" r="26.07"></circle>
					
						<circle style="fill:#FFFFFF;stroke:#000000;stroke-linecap:round;stroke-linejoin:round;stroke-miterlimit:10;" cx="562.69" cy="964.08" r="9.3"></circle>
				</g>
				
					<line style="fill:#FFFFFF;stroke:#000000;stroke-linecap:round;stroke-linejoin:round;stroke-miterlimit:10;" x1="562.69" y1="973.37" x2="562.69" y2="954.78"></line>
				
					<line style="fill:#FFFFFF;stroke:#000000;stroke-linecap:round;stroke-linejoin:round;stroke-miterlimit:10;" x1="571.99" y1="964.08" x2="553.39" y2="964.08"></line>
			</g>
		</g>
	</g>
	<g>
		<g>
			<path style="fill:none;stroke:#000000;stroke-linecap:round;stroke-linejoin:round;stroke-miterlimit:10;" d="M1419.4,1577.75
				c0.32,0.59,0.64,1.17,0.93,1.77c0.67-0.56,1.27-1.19,1.85-1.85c-0.56-0.36-1.1-0.75-1.63-1.14
				C1420.17,1576.95,1419.82,1577.38,1419.4,1577.75z"></path>
			<path style="fill:none;stroke:#000000;stroke-linecap:round;stroke-linejoin:round;stroke-miterlimit:10;" d="M1423.78,1560.89
				c0.18,0.52,0.29,1.07,0.42,1.61c0.66-0.05,1.31-0.09,1.97-0.11c-0.19-0.85-0.39-1.7-0.69-2.5
				C1424.92,1560.24,1424.35,1560.56,1423.78,1560.89z"></path>
			<path style="fill:none;stroke:#000000;stroke-linecap:round;stroke-linejoin:round;stroke-miterlimit:10;" d="M1418.86,1553.96
				c0.37,0.3,0.71,0.63,1.05,0.96c0.5-0.4,1.01-0.81,1.53-1.19c-0.54-0.55-1.09-1.09-1.71-1.56
				C1419.46,1552.78,1419.16,1553.37,1418.86,1553.96z"></path>
			<path style="fill:none;stroke:#000000;stroke-linecap:round;stroke-linejoin:round;stroke-miterlimit:10;" d="M1412.33,1550.85
				c0.21-0.61,0.46-1.21,0.7-1.82c-2.24-0.52-4.48-0.6-6.63-0.27c0.29,0.62,0.59,1.22,0.85,1.85
				C1408.92,1550.41,1410.62,1550.48,1412.33,1550.85z"></path>
			<path style="fill:none;stroke:#000000;stroke-linecap:round;stroke-linejoin:round;stroke-miterlimit:10;" d="M1400.34,1553.19
				c-0.29-0.58-0.55-1.18-0.82-1.77c-0.99,0.64-1.9,1.38-2.74,2.21c0.56,0.33,1.12,0.66,1.66,1.02
				C1399.03,1554.11,1399.68,1553.64,1400.34,1553.19z"></path>
			<path style="fill:none;stroke:#000000;stroke-linecap:round;stroke-linejoin:round;stroke-miterlimit:10;" d="M1424.25,1569.64
				c-0.02,0.06-0.01,0.13-0.03,0.19c-0.05,0.19-0.14,0.35-0.19,0.54c0.59,0.29,1.18,0.59,1.75,0.91c0.1-0.32,0.25-0.6,0.33-0.93
				c0.05-0.2,0.04-0.41,0.09-0.61C1425.55,1569.72,1424.9,1569.68,1424.25,1569.64z"></path>
			<path style="fill:none;stroke:#000000;stroke-linecap:round;stroke-linejoin:round;stroke-miterlimit:10;" d="M1393.83,1562.94
				c0.04-0.21,0.04-0.42,0.09-0.63c0.13-0.52,0.35-0.99,0.53-1.48c-0.57-0.32-1.13-0.66-1.69-1.01c-0.26,0.68-0.56,1.34-0.74,2.06
				c-0.09,0.38-0.1,0.76-0.16,1.14C1392.51,1562.99,1393.17,1562.94,1393.83,1562.94z"></path>
			<path style="fill:none;stroke:#000000;stroke-linecap:round;stroke-linejoin:round;stroke-miterlimit:10;" d="M1413.79,1582.95
				c-0.27-0.61-0.55-1.22-0.79-1.85c-1.6,0.42-3.26,0.62-4.96,0.51c-0.23,0.64-0.5,1.27-0.76,1.9
				C1409.52,1583.74,1411.71,1583.53,1413.79,1582.95z"></path>
			<path style="fill:none;stroke:#000000;stroke-linecap:round;stroke-linejoin:round;stroke-miterlimit:10;" d="M1394.87,1572.4
				c-0.3-0.68-0.55-1.38-0.76-2.1c-0.67,0.04-1.33,0.05-2,0.06c0.28,1.09,0.65,2.14,1.12,3.16
				C1393.77,1573.14,1394.31,1572.75,1394.87,1572.4z"></path>
			<path style="fill:none;stroke:#000000;stroke-linecap:round;stroke-linejoin:round;stroke-miterlimit:10;" d="M1401.04,1579.37
				c-0.59-0.36-1.17-0.72-1.7-1.14c-0.54,0.4-1.1,0.78-1.66,1.16c0.79,0.68,1.65,1.28,2.57,1.82
				C1400.5,1580.59,1400.76,1579.98,1401.04,1579.37z"></path>
		</g>
		<path style="fill:none;stroke:#000000;stroke-linecap:round;stroke-linejoin:round;stroke-miterlimit:10;" d="M1410.45,1566.29
			c4,0.47,8.03,1.6,11.84,3.25c7.28,0.83,14.85-0.22,21.21-3.45c-7.22-3.76-15.93-4.52-24.08-3c-2.89,1.23-5.87,2.15-8.87,2.66
			c-0.25,0.11-0.52,0.19-0.77,0.3c0.23,0.11,0.47,0.18,0.7,0.28C1410.46,1566.32,1410.45,1566.31,1410.45,1566.29z"></path>
		<path style="fill:none;stroke:#000000;stroke-linecap:round;stroke-linejoin:round;stroke-miterlimit:10;" d="M1410.15,1565.84
			c5.94-9.7,16.49-17.59,27.91-18.93C1432.53,1556.92,1421.29,1564.07,1410.15,1565.84z M1410.45,1566.29
			c6.27,9.38,17.46,16.6,28.87,17.43C1433.32,1573.92,1421.74,1567.63,1410.45,1566.29z"></path>
		<path style="fill:none;stroke:#000000;stroke-linecap:round;stroke-linejoin:round;stroke-miterlimit:10;" d="M1410.14,1566.61
			c0.05-0.08,0.11-0.15,0.16-0.23c-0.53,0.08-1.07,0.24-1.6,0.35c-2.64,1.17-5.43,2.08-8.32,2.7c-7.46,3.34-14.13,8.89-17.99,15.88
			c7.91-0.93,15.37-5.04,21.21-10.68C1405.46,1571.65,1407.65,1568.93,1410.14,1566.61z"></path>
		<path style="fill:none;stroke:#000000;stroke-linecap:round;stroke-linejoin:round;stroke-miterlimit:10;" d="M1409.72,1565.88
			c0.09,0.01,0.18,0.04,0.28,0.05c-6.27-9.38-17.46-16.6-28.87-17.43c4.15,6.8,11.01,11.85,18.57,14.79
			C1403.19,1563.74,1406.58,1564.59,1409.72,1565.88z"></path>
		<path style="fill:none;stroke:#000000;stroke-linecap:round;stroke-linejoin:round;stroke-miterlimit:10;" d="M1409.76,1565.6
			c0.2,0.18,0.39,0.39,0.59,0.57c0.1-11.28-5.1-23.55-14.07-30.65c-0.4,8.14,2.56,16.36,7.35,23.13
			C1405.96,1560.77,1408.04,1563.09,1409.76,1565.6z"></path>
		<g>
			<path style="fill:none;stroke:#000000;stroke-linecap:round;stroke-linejoin:round;stroke-miterlimit:10;" d="M1410.06,1561.42
				c0.16,1.4,0.25,2.79,0.26,4.17c1.79-2.88,4.02-5.57,6.53-8c4.25-6.78,6.7-14.88,6.13-22.68
				C1415.32,1541.28,1410.9,1551.42,1410.06,1561.42z"></path>
			<path style="fill:none;stroke:#000000;stroke-linecap:round;stroke-linejoin:round;stroke-miterlimit:10;" d="M1409.92,1565.77
				c0,0.08-0.01,0.16-0.01,0.23c0.04-0.04,0.08-0.08,0.12-0.12C1410,1565.84,1409.96,1565.8,1409.92,1565.77z"></path>
		</g>
		<path style="fill:none;stroke:#000000;stroke-linecap:round;stroke-linejoin:round;stroke-miterlimit:10;" d="M1397.46,1597.31
			c-0.83-11.41,4.69-23.53,13.06-31.09C1410.84,1577.59,1406.3,1589.96,1397.46,1597.31z M1410.53,1566.22
			c0.32,11.37-4.23,23.74-13.06,31.09 M1410.24,1566.07c-10.37-4.45-23.69-4.39-33.7,1.14
			C1386.91,1572.16,1400.05,1571.11,1410.24,1566.07z"></path>
		<g>
			<path style="fill:none;stroke:#000000;stroke-linecap:round;stroke-linejoin:round;stroke-miterlimit:10;" d="M1410.41,1566.34
				c-0.08-0.08-0.16-0.16-0.25-0.24c-0.02,0.01-0.04,0.02-0.06,0.03c0,0.17,0.02,0.33,0.02,0.5
				C1410.22,1566.54,1410.31,1566.43,1410.41,1566.34z"></path>
			<path style="fill:none;stroke:#000000;stroke-linecap:round;stroke-linejoin:round;stroke-miterlimit:10;" d="M1410.38,1570.8
				c1.16,9.84,6.06,19.78,13.78,25.89c0.4-8.14-2.56-16.36-7.35-23.13c-2.33-2.11-4.41-4.44-6.12-6.95
				c-0.06-0.05-0.11-0.11-0.17-0.16C1410.55,1567.89,1410.5,1569.34,1410.38,1570.8z"></path>
		</g>
	</g>
</g>
<g id="floor">
	<g>
		<path style="fill:none;stroke:#000000;stroke-linecap:round;stroke-linejoin:round;stroke-miterlimit:10;" d="M785.73,916.38
			c0-78.69-63.65-143.1-142.34-143.1V915.2"></path>
		
			<rect x="634.92" y="915.2" style="fill:none;stroke:#000000;stroke-linecap:round;stroke-linejoin:round;stroke-miterlimit:10;" width="8.48" height="15.63"></rect>
		
			<rect x="785.73" y="915.2" style="fill:none;stroke:#000000;stroke-linecap:round;stroke-linejoin:round;stroke-miterlimit:10;" width="8.48" height="15.63"></rect>
	</g>
	<g>
		<path style="fill:none;stroke:#000000;stroke-linecap:round;stroke-linejoin:round;stroke-miterlimit:10;" d="M637.06,1123.39
			c0,78.69,63.65,143.1,142.34,143.1v-141.92"></path>
		
			<rect x="779.39" y="1108.93" transform="matrix(-1 4.741617e-11 -4.741617e-11 -1 1567.2644 2233.4897)" style="fill:none;stroke:#000000;stroke-linecap:round;stroke-linejoin:round;stroke-miterlimit:10;" width="8.48" height="15.63"></rect>
		
			<rect x="628.58" y="1108.93" transform="matrix(-1 4.376887e-11 -4.376887e-11 -1 1265.636 2233.4897)" style="fill:none;stroke:#000000;stroke-linecap:round;stroke-linejoin:round;stroke-miterlimit:10;" width="8.48" height="15.63"></rect>
	</g>
	<g>
		<path style="fill:none;stroke:#000000;stroke-linecap:round;stroke-linejoin:round;stroke-miterlimit:10;" d="M889.83,778.44
			c-70.16,0-127.6-56.76-127.6-126.92h126.55"></path>
		
			<rect x="891.97" y="640.77" transform="matrix(-9.119212e-11 1 -1 -9.119212e-11 1543.4902 -248.0141)" style="fill:none;stroke:#000000;stroke-linecap:round;stroke-linejoin:round;stroke-miterlimit:10;" width="7.56" height="13.94"></rect>
		
			<rect x="891.97" y="775.25" transform="matrix(-9.263541e-11 1 -1 -9.263541e-11 1677.9707 -113.5336)" style="fill:none;stroke:#000000;stroke-linecap:round;stroke-linejoin:round;stroke-miterlimit:10;" width="7.56" height="13.94"></rect>
	</g>
	<g>
		<path style="fill:none;stroke:#000000;stroke-linecap:round;stroke-linejoin:round;stroke-miterlimit:10;" d="M1520.66,771.22
			c70.16,0,127.6-56.76,127.6-126.92H1521.7"></path>
		
			<rect x="1510.95" y="633.55" transform="matrix(9.143246e-11 1 -1 9.143246e-11 2155.2573 -874.211)" style="fill:none;stroke:#000000;stroke-linecap:round;stroke-linejoin:round;stroke-miterlimit:10;" width="7.56" height="13.94"></rect>
		
			<rect x="1510.95" y="768.03" transform="matrix(9.287664e-11 1 -1 9.287664e-11 2289.7378 -739.7305)" style="fill:none;stroke:#000000;stroke-linecap:round;stroke-linejoin:round;stroke-miterlimit:10;" width="7.56" height="13.94"></rect>
	</g>
	<g>
		<path style="fill:none;stroke:#000000;stroke-linecap:round;stroke-linejoin:round;stroke-miterlimit:10;" d="M1588.81,497.09
			c0-90.01,72.81-163.68,162.81-163.68v162.34"></path>
		
			<rect x="1751.62" y="495.74" transform="matrix(-1 -1.224647e-16 1.224647e-16 -1 3512.9343 1009.3679)" style="fill:none;stroke:#000000;stroke-linecap:round;stroke-linejoin:round;stroke-miterlimit:10;" width="9.7" height="17.88"></rect>
		
			<rect x="1579.11" y="495.74" transform="matrix(-1 -1.224647e-16 1.224647e-16 -1 3167.916 1009.3679)" style="fill:none;stroke:#000000;stroke-linecap:round;stroke-linejoin:round;stroke-miterlimit:10;" width="9.7" height="17.88"></rect>
	</g>
	
		<line style="fill:none;stroke:#000000;stroke-linecap:round;stroke-linejoin:round;stroke-miterlimit:10;stroke-dasharray:10,10;" x1="1762.1" y1="923.98" x2="1532.66" y2="923.98"></line>
	<g>
		<g id="LWPOLYLINE_75_">
			
				<rect x="1755.05" y="1176.47" style="fill:none;stroke:#000000;stroke-linecap:round;stroke-linejoin:round;stroke-miterlimit:10;" width="106.19" height="106.19"></rect>
		</g>
		<g id="LWPOLYLINE_74_">
			
				<line style="fill:none;stroke:#000000;stroke-linecap:round;stroke-linejoin:round;stroke-miterlimit:10;" x1="1781.6" y1="1238.42" x2="1781.6" y2="1273.82"></line>
		</g>
		<g id="LWPOLYLINE_73_">
			
				<line style="fill:none;stroke:#000000;stroke-linecap:round;stroke-linejoin:round;stroke-miterlimit:10;" x1="1799.3" y1="1256.12" x2="1763.9" y2="1256.12"></line>
		</g>
		<g id="CIRCLE_127_">
			<path style="fill:none;stroke:#000000;stroke-linecap:round;stroke-linejoin:round;stroke-miterlimit:10;" d="M1767.44,1256.12
				c0,7.82,6.34,14.16,14.16,14.16c7.82,0,14.16-6.34,14.16-14.16c0-7.82-6.34-14.16-14.16-14.16
				C1773.78,1241.95,1767.44,1248.29,1767.44,1256.12L1767.44,1256.12z"></path>
		</g>
		<g id="LWPOLYLINE_72_">
			
				<line style="fill:none;stroke:#000000;stroke-linecap:round;stroke-linejoin:round;stroke-miterlimit:10;" x1="1781.6" y1="1185.32" x2="1781.6" y2="1220.72"></line>
		</g>
		<g id="LWPOLYLINE_71_">
			
				<line style="fill:none;stroke:#000000;stroke-linecap:round;stroke-linejoin:round;stroke-miterlimit:10;" x1="1799.3" y1="1203.02" x2="1763.9" y2="1203.02"></line>
		</g>
		<g id="CIRCLE_126_">
			<path style="fill:none;stroke:#000000;stroke-linecap:round;stroke-linejoin:round;stroke-miterlimit:10;" d="M1767.44,1203.01
				c0,7.82,6.34,14.17,14.17,14.17c7.82,0,14.17-6.34,14.17-14.17c0-7.82-6.34-14.17-14.17-14.17
				C1773.79,1188.85,1767.44,1195.19,1767.44,1203.01L1767.44,1203.01z"></path>
		</g>
		<g id="LWPOLYLINE_70_">
			
				<line style="fill:none;stroke:#000000;stroke-linecap:round;stroke-linejoin:round;stroke-miterlimit:10;" x1="1834.7" y1="1185.32" x2="1834.7" y2="1220.72"></line>
		</g>
		<g id="LWPOLYLINE_69_">
			
				<line style="fill:none;stroke:#000000;stroke-linecap:round;stroke-linejoin:round;stroke-miterlimit:10;" x1="1852.4" y1="1203.02" x2="1817" y2="1203.02"></line>
		</g>
		<g id="CIRCLE_125_">
			<path style="fill:none;stroke:#000000;stroke-linecap:round;stroke-linejoin:round;stroke-miterlimit:10;" d="M1820.54,1203.01
				c0,7.82,6.34,14.17,14.17,14.17c7.82,0,14.17-6.34,14.17-14.17c0-7.82-6.34-14.17-14.17-14.17
				C1826.88,1188.85,1820.54,1195.19,1820.54,1203.01L1820.54,1203.01z"></path>
		</g>
		<g id="LWPOLYLINE_68_">
			
				<line style="fill:none;stroke:#000000;stroke-linecap:round;stroke-linejoin:round;stroke-miterlimit:10;" x1="1834.7" y1="1238.42" x2="1834.7" y2="1273.82"></line>
		</g>
		<g id="LWPOLYLINE_67_">
			
				<line style="fill:none;stroke:#000000;stroke-linecap:round;stroke-linejoin:round;stroke-miterlimit:10;" x1="1852.4" y1="1256.12" x2="1817" y2="1256.12"></line>
		</g>
		<g id="CIRCLE_124_">
			<path style="fill:none;stroke:#000000;stroke-linecap:round;stroke-linejoin:round;stroke-miterlimit:10;" d="M1820.54,1256.12
				c0,7.82,6.34,14.16,14.16,14.16c7.82,0,14.16-6.34,14.16-14.16c0-7.82-6.34-14.16-14.16-14.16
				C1826.88,1241.95,1820.54,1248.29,1820.54,1256.12L1820.54,1256.12z"></path>
		</g>
	</g>
	<g>
		<g id="LWPOLYLINE_66_">
			
				<rect x="1755.27" y="989.7" style="fill:none;stroke:#000000;stroke-linecap:round;stroke-linejoin:round;stroke-miterlimit:10;" width="105.85" height="105.85"></rect>
		</g>
		<g id="LWPOLYLINE_65_">
			<path style="fill:none;stroke:#000000;stroke-linecap:round;stroke-linejoin:round;stroke-miterlimit:10;" d="M1770.26,998.52
				l67,0c3.41,0,6.18,2.76,6.18,6.17c0,0,0,75.87,0,75.87c0,3.41-2.76,6.18-6.17,6.18c0,0-67,0-67,0c-3.41,0-6.17-2.76-6.17-6.17
				c0,0,0-75.87,0-75.87C1764.09,1001.28,1766.85,998.52,1770.26,998.52z"></path>
		</g>
		<g id="LWPOLYLINE_64_">
			<path style="fill:none;stroke:#000000;stroke-linecap:round;stroke-linejoin:round;stroke-miterlimit:10;" d="M1820.09,1024.99
				c0-3.42,2.77-6.19,6.19-6.19c3.42,0,6.19,2.77,6.19,6.19c0,3.42-2.77,6.19-6.19,6.19
				C1822.86,1031.17,1820.09,1028.4,1820.09,1024.99z"></path>
		</g>
	</g>
	<g>
		
			<rect x="-30.53" y="732.66" transform="matrix(6.123234e-17 -1 1 6.123234e-17 -632.4237 891.3046)" style="fill:none;stroke:#000000;stroke-linecap:round;stroke-linejoin:round;stroke-miterlimit:10;" width="319.94" height="58.41"></rect>
		
			<line style="fill:none;stroke:#000000;stroke-linecap:round;stroke-linejoin:round;stroke-miterlimit:10;" x1="112.54" y1="921.9" x2="112.54" y2="601.96"></line>
		
			<rect x="116.83" y="794.92" transform="matrix(6.123234e-17 -1 1 6.123234e-17 -682.3835 923.4767)" style="fill:none;stroke:#000000;stroke-linecap:round;stroke-linejoin:round;stroke-miterlimit:10;" width="7.44" height="16.02"></rect>
		
			<rect x="116.83" y="597.99" transform="matrix(6.123234e-17 -1 1 6.123234e-17 -485.4556 726.549)" style="fill:none;stroke:#000000;stroke-linecap:round;stroke-linejoin:round;stroke-miterlimit:10;" width="7.44" height="16.02"></rect>
		
			<rect x="116.83" y="909.84" transform="matrix(6.123234e-17 -1 1 6.123234e-17 -797.3014 1038.3948)" style="fill:none;stroke:#000000;stroke-linecap:round;stroke-linejoin:round;stroke-miterlimit:10;" width="7.44" height="16.02"></rect>
		
			<line style="fill:none;stroke:#000000;stroke-linecap:round;stroke-linejoin:round;stroke-miterlimit:10;" x1="128.56" y1="799.21" x2="128.56" y2="609.72"></line>
		
			<rect x="66.85" y="852.42" transform="matrix(6.123234e-17 -1 1 6.123234e-17 -739.7982 980.98)" style="fill:none;stroke:#000000;stroke-linecap:round;stroke-linejoin:round;stroke-miterlimit:10;" width="107.48" height="15.93"></rect>
	</g>
	<g>
		
			<rect x="-30.53" y="1263.31" transform="matrix(6.123234e-17 -1 1 6.123234e-17 -1163.075 1421.9559)" style="fill:none;stroke:#000000;stroke-linecap:round;stroke-linejoin:round;stroke-miterlimit:10;" width="319.94" height="58.41"></rect>
		
			<line style="fill:none;stroke:#000000;stroke-linecap:round;stroke-linejoin:round;stroke-miterlimit:10;" x1="112.54" y1="1452.55" x2="112.54" y2="1132.61"></line>
		
			<rect x="116.83" y="1325.57" transform="matrix(6.123234e-17 -1 1 6.123234e-17 -1213.0348 1454.1281)" style="fill:none;stroke:#000000;stroke-linecap:round;stroke-linejoin:round;stroke-miterlimit:10;" width="7.44" height="16.02"></rect>
		
			<rect x="116.83" y="1128.64" transform="matrix(6.123234e-17 -1 1 6.123234e-17 -1016.1069 1257.2002)" style="fill:none;stroke:#000000;stroke-linecap:round;stroke-linejoin:round;stroke-miterlimit:10;" width="7.44" height="16.02"></rect>
		
			<rect x="116.83" y="1440.49" transform="matrix(6.123234e-17 -1 1 6.123234e-17 -1327.9528 1569.046)" style="fill:none;stroke:#000000;stroke-linecap:round;stroke-linejoin:round;stroke-miterlimit:10;" width="7.44" height="16.02"></rect>
		
			<line style="fill:none;stroke:#000000;stroke-linecap:round;stroke-linejoin:round;stroke-miterlimit:10;" x1="128.56" y1="1329.86" x2="128.56" y2="1140.37"></line>
		
			<rect x="66.85" y="1383.08" transform="matrix(6.123234e-17 -1 1 6.123234e-17 -1270.4495 1511.6313)" style="fill:none;stroke:#000000;stroke-linecap:round;stroke-linejoin:round;stroke-miterlimit:10;" width="107.48" height="15.93"></rect>
	</g>
	<g>
		
			<rect x="340.21" y="1607.74" transform="matrix(-1 -1.224647e-16 1.224647e-16 -1 1054.1396 3273.8794)" style="fill:none;stroke:#000000;stroke-linecap:round;stroke-linejoin:round;stroke-miterlimit:10;" width="373.73" height="58.41"></rect>
		
			<line style="fill:none;stroke:#000000;stroke-linecap:round;stroke-linejoin:round;stroke-miterlimit:10;" x1="714" y1="1653.84" x2="340.27" y2="1653.84"></line>
		
			<rect x="591.42" y="1637.82" transform="matrix(-1 -1.224647e-16 1.224647e-16 -1 1190.2671 3291.6672)" style="fill:none;stroke:#000000;stroke-linecap:round;stroke-linejoin:round;stroke-miterlimit:10;" width="7.44" height="16.02"></rect>
		
			<rect x="340.59" y="1637.82" transform="matrix(-1 -1.224647e-16 1.224647e-16 -1 688.6218 3291.6672)" style="fill:none;stroke:#000000;stroke-linecap:round;stroke-linejoin:round;stroke-miterlimit:10;" width="7.44" height="16.02"></rect>
		
			<rect x="706.23" y="1637.82" transform="matrix(-1 -1.224647e-16 1.224647e-16 -1 1419.9012 3291.6672)" style="fill:none;stroke:#000000;stroke-linecap:round;stroke-linejoin:round;stroke-miterlimit:10;" width="7.44" height="16.02"></rect>
		
			<line style="fill:none;stroke:#000000;stroke-linecap:round;stroke-linejoin:round;stroke-miterlimit:10;" x1="591.42" y1="1637.82" x2="348.03" y2="1637.82"></line>
		
			<rect x="598.85" y="1637.82" transform="matrix(-1 -1.224647e-16 1.224647e-16 -1 1305.0841 3291.5786)" style="fill:none;stroke:#000000;stroke-linecap:round;stroke-linejoin:round;stroke-miterlimit:10;" width="107.38" height="15.93"></rect>
	</g>
	<g>
		
			<rect x="895.99" y="1607.74" transform="matrix(-1 -1.224647e-16 1.224647e-16 -1 2166.1011 3273.8794)" style="fill:none;stroke:#000000;stroke-linecap:round;stroke-linejoin:round;stroke-miterlimit:10;" width="374.12" height="58.41"></rect>
		
			<line style="fill:none;stroke:#000000;stroke-linecap:round;stroke-linejoin:round;stroke-miterlimit:10;" x1="1270.17" y1="1653.84" x2="896.05" y2="1653.84"></line>
		
			<rect x="1147.48" y="1637.82" transform="matrix(-1 -1.224647e-16 1.224647e-16 -1 2302.4097 3291.6672)" style="fill:none;stroke:#000000;stroke-linecap:round;stroke-linejoin:round;stroke-miterlimit:10;" width="7.44" height="16.02"></rect>
		
			<rect x="896.38" y="1637.82" transform="matrix(-1 -1.224647e-16 1.224647e-16 -1 1800.2008 3291.6672)" style="fill:none;stroke:#000000;stroke-linecap:round;stroke-linejoin:round;stroke-miterlimit:10;" width="7.44" height="16.02"></rect>
		
			<rect x="1262.4" y="1637.82" transform="matrix(-1 -1.224647e-16 1.224647e-16 -1 2532.2456 3291.6672)" style="fill:none;stroke:#000000;stroke-linecap:round;stroke-linejoin:round;stroke-miterlimit:10;" width="7.44" height="16.02"></rect>
		
			<line style="fill:none;stroke:#000000;stroke-linecap:round;stroke-linejoin:round;stroke-miterlimit:10;" x1="1147.48" y1="1637.82" x2="903.82" y2="1637.82"></line>
		
			<rect x="1154.93" y="1637.82" transform="matrix(-1 -1.224647e-16 1.224647e-16 -1 2417.3276 3291.5786)" style="fill:none;stroke:#000000;stroke-linecap:round;stroke-linejoin:round;stroke-miterlimit:10;" width="107.48" height="15.93"></rect>
	</g>
	<g>
		
			<rect x="1426.09" y="1607.74" transform="matrix(-1 -1.224647e-16 1.224647e-16 -1 3226.3037 3273.8794)" style="fill:none;stroke:#000000;stroke-linecap:round;stroke-linejoin:round;stroke-miterlimit:10;" width="374.12" height="58.41"></rect>
		
			<line style="fill:none;stroke:#000000;stroke-linecap:round;stroke-linejoin:round;stroke-miterlimit:10;" x1="1800.27" y1="1653.84" x2="1426.16" y2="1653.84"></line>
		
			<rect x="1677.59" y="1637.82" transform="matrix(-1 -1.224647e-16 1.224647e-16 -1 3362.6123 3291.6672)" style="fill:none;stroke:#000000;stroke-linecap:round;stroke-linejoin:round;stroke-miterlimit:10;" width="7.44" height="16.02"></rect>
		
			<rect x="1426.48" y="1637.82" transform="matrix(-1 -1.224647e-16 1.224647e-16 -1 2860.4033 3291.6672)" style="fill:none;stroke:#000000;stroke-linecap:round;stroke-linejoin:round;stroke-miterlimit:10;" width="7.44" height="16.02"></rect>
		
			<rect x="1792.5" y="1637.82" transform="matrix(-1 -1.224647e-16 1.224647e-16 -1 3592.4482 3291.6672)" style="fill:none;stroke:#000000;stroke-linecap:round;stroke-linejoin:round;stroke-miterlimit:10;" width="7.44" height="16.02"></rect>
		
			<line style="fill:none;stroke:#000000;stroke-linecap:round;stroke-linejoin:round;stroke-miterlimit:10;" x1="1677.59" y1="1637.82" x2="1433.92" y2="1637.82"></line>
		
			<rect x="1685.03" y="1637.82" transform="matrix(-1 -1.224647e-16 1.224647e-16 -1 3477.5303 3291.5786)" style="fill:none;stroke:#000000;stroke-linecap:round;stroke-linejoin:round;stroke-miterlimit:10;" width="107.48" height="15.93"></rect>
	</g>
	<g>
		<g id="LWPOLYLINE_445_">
			
				<rect x="1761.32" y="815.74" style="fill:none;stroke:#000000;stroke-linecap:round;stroke-linejoin:round;stroke-miterlimit:10;" width="102.6" height="104.68"></rect>
		</g>
		<g>
			<g id="LWPOLYLINE_440_">
				<polyline style="fill:none;stroke:#000000;stroke-linecap:round;stroke-linejoin:round;stroke-miterlimit:10;" points="
					1845.82,893.53 1812.61,855 1812.61,881.16 1779.41,842.63 				"></polyline>
			</g>
			<g id="LWPOLYLINE_439_">
				<path style="fill:none;stroke:#000000;stroke-linecap:round;stroke-linejoin:round;stroke-miterlimit:10;" d="M1812.61,897.14
					c-16.05,0-29.06-13.01-29.06-29.06c0-16.05,13.01-29.06,29.06-29.07c16.05,0,29.07,13.01,29.07,29.07
					C1841.68,884.13,1828.66,897.14,1812.61,897.14z"></path>
			</g>
		</g>
	</g>
	<g>
		<g>
			<g id="LWPOLYLINE_214_">
				<path style="fill:none;stroke:#000000;stroke-linecap:round;stroke-linejoin:round;stroke-miterlimit:10;" d="M1204.69,696.27
					l-47.06,0.12c-6.63,0.02-12.49,4.22-14.5,10.41c-7.31,22.44-7.25,46.57,0.19,68.98c2.05,6.17,7.93,10.35,14.56,10.33l47.06-0.12
					"></path>
			</g>
			<g id="LWPOLYLINE_213_">
				<path style="fill:none;stroke:#000000;stroke-linecap:round;stroke-linejoin:round;stroke-miterlimit:10;" d="M1191.71,765.09
					c0.01,4.95-4.08,8.98-9.14,8.99l-14.66,0.04c-3.35,0.01-6.32-2.13-7.31-5.27c-5.67-17.98-5.73-37.21-0.15-55.22
					c0.98-3.14,3.93-5.29,7.28-5.31l14.66-0.04c5.06-0.01,9.17,3.99,9.19,8.95"></path>
			</g>
			<g id="LWPOLYLINE_212_">
				<path style="fill:none;stroke:#000000;stroke-linecap:round;stroke-linejoin:round;stroke-miterlimit:10;" d="M1182.37,702.31
					l-24.73,0.07c-3.98,0.01-7.49,2.53-8.7,6.24c-6.93,21.25-6.87,44.1,0.18,65.31c1.23,3.7,4.76,6.21,8.74,6.2l24.73-0.06
					c5.06-0.01,9.15-4.04,9.14-8.99l-0.16-59.81C1191.55,706.3,1187.43,702.3,1182.37,702.31z"></path>
			</g>
			<g id="LWPOLYLINE_211_">
				<path style="fill:none;stroke:#000000;stroke-linecap:round;stroke-linejoin:round;stroke-miterlimit:10;" d="M1188.91,741.18
					c-0.01-2.22-1.85-4.02-4.12-4.02c-2.27,0.01-4.1,1.82-4.1,4.04c0.01,2.22,1.85,4.02,4.12,4.01
					C1187.09,745.2,1188.92,743.4,1188.91,741.18z"></path>
			</g>
		</g>
		<g>
			<g id="LWPOLYLINE_210_">
				
					<rect x="903.26" y="796.85" style="fill:none;stroke:#000000;stroke-linecap:round;stroke-linejoin:round;stroke-miterlimit:10;" width="301.66" height="122.08"></rect>
			</g>
			<g id="LWPOLYLINE_209_">
				<path style="fill:none;stroke:#000000;stroke-linecap:round;stroke-linejoin:round;stroke-miterlimit:10;" d="M944.97,909.17
					l196.9-0.01c28.91,0,52.35-22.96,52.35-51.27c0-28.32-23.45-51.27-52.36-51.27l-196.9,0.01c-13.82,0-25.07,10.88-25.23,24.41
					l0.01,53.72c0,13.49,11.17,24.42,24.94,24.42"></path>
			</g>
			<g id="LWPOLYLINE_208_">
				<path style="fill:none;stroke:#000000;stroke-linecap:round;stroke-linejoin:round;stroke-miterlimit:10;" d="M1007.21,895.22
					l134.65,0c21.05,0,38.11-16.71,38.11-37.33c0-20.61-17.07-37.32-38.12-37.32l-132.69,0c-20.28,0.02-36.99,15.57-38.05,35.4
					C970.01,876.57,986.18,894.14,1007.21,895.22z"></path>
			</g>
			<g id="LWPOLYLINE_207_">
				<path style="fill:none;stroke:#000000;stroke-linecap:round;stroke-linejoin:round;stroke-miterlimit:10;" d="M1148.83,857.89
					c0-3.77-3.13-6.83-6.98-6.83c-3.86,0-6.98,3.06-6.98,6.83c0,3.78,3.13,6.83,6.98,6.83
					C1145.71,864.73,1148.83,861.67,1148.83,857.89z"></path>
			</g>
		</g>
		<g>
			<g id="LWPOLYLINE_206_">
				<path style="fill:none;stroke:#000000;stroke-linecap:round;stroke-linejoin:round;stroke-miterlimit:10;" d="M1145.51,644.58
					l-49.37,0c-17.18,0-31.1-14.22-31.1-31.76c0-17.54,13.93-31.76,31.11-31.77l49.37,0c4.29,0,7.77,3.55,7.77,7.94l0,47.65
					C1153.29,641.03,1149.81,644.58,1145.51,644.58z"></path>
			</g>
			<g id="LWPOLYLINE_205_">
				<path style="fill:none;stroke:#000000;stroke-linecap:round;stroke-linejoin:round;stroke-miterlimit:10;" d="M1096.14,587.41
					l27.61,0.01c13.74,0,24.88,11.37,24.88,25.41c0,14.03-11.14,25.41-24.88,25.42l-27.61-0.01c-13.74,0-24.88-11.37-24.88-25.41
					C1071.26,598.79,1082.4,587.41,1096.14,587.41z"></path>
			</g>
			<g id="LWPOLYLINE_204_">
				<path style="fill:none;stroke:#000000;stroke-linecap:round;stroke-linejoin:round;stroke-miterlimit:10;" d="M1106.15,603.29
					l20.18,0.01c5.15,0,9.33,4.27,9.33,9.53s-4.18,9.53-9.33,9.53l-20.18-0.01c-5.15,0-9.33-4.26-9.33-9.53
					C1096.82,607.56,1101,603.29,1106.15,603.29z"></path>
			</g>
		</g>
	</g>
	<g>
		<g>
			<g id="LWPOLYLINE_438_">
				<path style="fill:none;stroke:#000000;stroke-linecap:round;stroke-linejoin:round;stroke-miterlimit:10;" d="M1412.21,919.19
					l0-43.72c0-6.16,3.89-11.61,9.63-13.5c20.84-6.85,43.25-6.85,64.09,0c5.74,1.89,9.63,7.34,9.63,13.5l0,43.72"></path>
			</g>
			<g id="LWPOLYLINE_437_">
				<path style="fill:none;stroke:#000000;stroke-linecap:round;stroke-linejoin:round;stroke-miterlimit:10;" d="M1476.11,906.96
					c4.6,0,8.33-3.81,8.33-8.51l0-13.62c0-3.12-1.99-5.87-4.91-6.78c-16.72-5.23-34.59-5.23-51.3,0c-2.92,0.91-4.91,3.66-4.91,6.78
					l0,13.62c0,4.7,3.73,8.51,8.34,8.51"></path>
			</g>
			<g id="LWPOLYLINE_436_">
				<path style="fill:none;stroke:#000000;stroke-linecap:round;stroke-linejoin:round;stroke-miterlimit:10;" d="M1417.76,898.45
					l0-22.97c0-3.7,2.33-6.97,5.78-8.1c19.73-6.49,40.95-6.49,60.68,0c3.44,1.14,5.78,4.41,5.78,8.1l0,22.98
					c0,4.7-3.73,8.51-8.33,8.51l-55.57,0C1421.49,906.96,1417.76,903.15,1417.76,898.45z"></path>
			</g>
			<g id="LWPOLYLINE_435_">
				<path style="fill:none;stroke:#000000;stroke-linecap:round;stroke-linejoin:round;stroke-miterlimit:10;" d="M1453.89,904.43
					c-2.07,0-3.74-1.71-3.74-3.82c0-2.11,1.68-3.82,3.74-3.82c2.06,0,3.74,1.71,3.74,3.82
					C1457.62,902.72,1455.95,904.43,1453.89,904.43z"></path>
			</g>
		</g>
		<g>
			<g id="LWPOLYLINE_434_">
				<path style="fill:none;stroke:#000000;stroke-linecap:round;stroke-linejoin:round;stroke-miterlimit:10;" d="M1306.58,605.33
					l49.1,0c17.08,0,30.93,14.14,30.93,31.58c0,17.44-13.85,31.59-30.93,31.59l-49.1,0c-4.27,0-7.73-3.53-7.73-7.89l0-47.38
					C1298.85,608.86,1302.31,605.33,1306.58,605.33z"></path>
			</g>
			<g id="LWPOLYLINE_433_">
				<path style="fill:none;stroke:#000000;stroke-linecap:round;stroke-linejoin:round;stroke-miterlimit:10;" d="M1355.67,662.19
					l-27.46-0.01c-13.66,0-24.74-11.31-24.74-25.26c0-13.96,11.08-25.27,24.74-25.27l27.46,0.01c13.66,0,24.74,11.31,24.74,25.26
					C1380.41,650.87,1369.34,662.19,1355.67,662.19z"></path>
			</g>
			<g id="LWPOLYLINE_432_">
				<path style="fill:none;stroke:#000000;stroke-linecap:round;stroke-linejoin:round;stroke-miterlimit:10;" d="M1345.71,646.4
					l-20.07-0.01c-5.12,0-9.28-4.24-9.28-9.47c0-5.23,4.15-9.47,9.28-9.47l20.07,0.01c5.12,0,9.28,4.24,9.28,9.47
					C1354.99,642.15,1350.84,646.4,1345.71,646.4z"></path>
			</g>
		</g>
		<g>
			<g id="CIRCLE_184_">
				<path style="fill:none;stroke:#000000;stroke-linecap:round;stroke-linejoin:round;stroke-miterlimit:10;" d="M1266.72,892.02
					c0-3.99,3.26-7.22,7.28-7.22c4.02,0,7.28,3.23,7.28,7.22c0,3.99-3.26,7.22-7.28,7.22
					C1269.98,899.24,1266.72,896.01,1266.72,892.02L1266.72,892.02z"></path>
			</g>
			<g id="LWPOLYLINE_431_">
				<path style="fill:none;stroke:#000000;stroke-linecap:round;stroke-linejoin:round;stroke-miterlimit:10;" d="M1379.19,785.84
					c0-19.92-14.24-36.07-31.82-36.07c0,0-79.64,0-79.64,0c-6.59,0-11.93,6.06-11.93,13.53l0,133.23c0,7.47,5.34,13.53,11.93,13.53
					l99.53,0c6.59,0,11.93-6.06,11.93-13.53L1379.19,785.84z"></path>
			</g>
			<g id="LWPOLYLINE_430_">
				<path style="fill:none;stroke:#000000;stroke-linecap:round;stroke-linejoin:round;stroke-miterlimit:10;" d="M1388.3,919.07
					l0-133.23c0-24.9-18.1-45.09-40.43-45.09c0,0-101.16,0-101.16,0l0,178.33L1388.3,919.07l0-133.23c0-24.91-18.1-45.1-40.43-45.1
					c0,0-101.16,0-101.16,0"></path>
			</g>
		</g>
	</g>
	<g>
		
			<rect x="67.51" y="511.3" transform="matrix(-1.836970e-16 1 -1 -1.836970e-16 670.1177 411.2368)" width="123.85" height="58.76"></rect>
		
			<rect x="23.07" y="998.18" transform="matrix(-1.836970e-16 1 -1 -1.836970e-16 1156.6488 898.1155)" width="212.39" height="58.41"></rect>
		
			<rect x="22.19" y="1530.03" transform="matrix(-1.836970e-16 1 -1 -1.836970e-16 1688.5072 1429.9739)" width="214.16" height="58.41"></rect>
		
			<rect x="100.06" y="1607.56" transform="matrix(-1 -1.224647e-16 1.224647e-16 -1 440.3853 3273.8794)" width="240.27" height="58.76"></rect>
		
			<rect x="712.7" y="1607.56" transform="matrix(-1 -1.224647e-16 1.224647e-16 -1 1608.8033 3273.8794)" width="183.4" height="58.76"></rect>
		
			<rect x="1269.29" y="1607.56" transform="matrix(-1 -1.224647e-16 1.224647e-16 -1 2698.5569 3273.8794)" width="159.98" height="58.76"></rect>
		
			<rect x="821.68" y="-242.87" transform="matrix(-1.836970e-16 1 -1 -1.836970e-16 1335.9545 -342.9265)" width="35.53" height="1478.76"></rect>
		
			<rect x="150.99" y="1529.58" transform="matrix(-1.836970e-16 1 -1 -1.836970e-16 1762.3822 1382.5851)" width="77.81" height="85.81"></rect>
		
			<rect x="1804.44" y="435.4" transform="matrix(-1.836970e-16 1 -1 -1.836970e-16 2318.5845 -1325.7255)" width="35.44" height="122.07"></rect>
		
			<rect x="1286.77" y="1052.85" transform="matrix(-1.836970e-16 1 -1 -1.836970e-16 2952.9146 -808.0617)" width="1187.43" height="39.14"></rect>
		
			<rect x="1804.53" y="871.66" transform="matrix(-1.836970e-16 1 -1 -1.836970e-16 2739.8613 -883.3561)" width="14.16" height="113.19"></rect>
		
			<rect x="1804.69" y="929.9" transform="matrix(-1.836970e-16 1 -1 -1.836970e-16 2795.3352 -825.113)" width="11.06" height="110.42"></rect>
		
			<rect x="1730.94" y="945.16" transform="matrix(-1.836970e-16 1 -1 -1.836970e-16 2711.0391 -809.7717)" width="58.92" height="10.94"></rect>
		
			<rect x="1444.2" y="842.35" transform="matrix(-1.836970e-16 1 -1 -1.836970e-16 2370.3772 -665.4192)" width="147.39" height="20.27"></rect>
		
			<rect x="1380.48" y="787.92" transform="matrix(-1.836970e-16 1 -1 -1.836970e-16 2315.9463 -461.6916)" width="16.69" height="278.42"></rect>
		
			<rect x="1083.32" y="717.92" transform="matrix(-1.836970e-16 1 -1 -1.836970e-16 2018.6475 -164.5316)" width="16.55" height="418.27"></rect>
		
			<rect x="820.01" y="848.12" transform="matrix(-1.836970e-16 1 -1 -1.836970e-16 1750.845 -34.2368)" width="145.06" height="20.36"></rect>
		
			<rect x="824.77" y="566.23" transform="matrix(-1.836970e-16 1 -1 -1.836970e-16 1468.9531 -316.1397)" width="135.55" height="20.35"></rect>
		
			<rect x="1051.86" y="351.71" transform="matrix(-1.836970e-16 1 -1 -1.836970e-16 1589.7592 -543.8953)" width="29.93" height="342.45"></rect>
		
			<rect x="1016.54" y="692.48" transform="matrix(-1.836970e-16 1 -1 -1.836970e-16 1939.4539 -512.4486)" width="418.82" height="42.04"></rect>
		
			<rect x="1181.04" y="653.04" transform="matrix(-1.836970e-16 1 -1 -1.836970e-16 1866.7249 -508.5381)" width="13.19" height="52.11"></rect>
		
			<rect x="1082.14" y="600.82" transform="matrix(-1.836970e-16 1 -1 -1.836970e-16 1767.8273 -553.0034)" width="156.55" height="13.19"></rect>
		
			<rect x="1191.79" y="622.84" transform="matrix(-1.836970e-16 1 -1 -1.836970e-16 1921.5754 -663.241)" width="201.25" height="12.65"></rect>
		
			<rect x="1265.92" y="707.71" transform="matrix(-1.836970e-16 1 -1 -1.836970e-16 2006.3878 -537.5816)" width="12.12" height="53.39"></rect>
		
			<rect x="1374.79" y="384.65" transform="matrix(-1.836970e-16 1 -1 -1.836970e-16 1912.6859 -860.5168)" width="23.63" height="282.86"></rect>
		
			<rect x="1461.78" y="570.94" transform="matrix(-1.836970e-16 1 -1 -1.836970e-16 2098.9661 -936.8304)" width="112.25" height="20.27"></rect>
		
			<rect x="1255.94" y="1517.78" transform="matrix(-1.836970e-16 1 -1 -1.836970e-16 2886.8633 187.6283)" width="187.35" height="38.94"></rect>
		
			<rect x="729.87" y="1514.39" transform="matrix(-1.836970e-16 1 -1 -1.836970e-16 2352.502 715.2139)" width="177.55" height="38.94"></rect>
		
			<rect x="658.54" y="1276.15" transform="matrix(-1.836970e-16 1 -1 -1.836970e-16 2114.2595 452.1927)" width="344.99" height="14.16"></rect>
		
			<rect x="802.53" y="1096.07" transform="matrix(-1.836970e-16 1 -1 -1.836970e-16 1927.4199 308.2004)" width="14.16" height="43.48"></rect>
		
			<rect x="838.64" y="873.2" transform="matrix(-1.836970e-16 1 -1 -1.836970e-16 1770.4309 78.9947)" width="14.16" height="103.02"></rect>
		
			<rect x="609.43" y="905.62" transform="matrix(-1.836970e-16 1 -1 -1.836970e-16 1541.2219 308.2037)" width="14.16" height="38.2"></rect>
		
			<rect x="501.99" y="1013.1" transform="matrix(-1.836970e-16 1 -1 -1.836970e-16 1624.6677 415.6856)" width="205.01" height="14.16"></rect>
		
			<rect x="606.26" y="1101.88" transform="matrix(-1.836970e-16 1 -1 -1.836970e-16 1731.1508 504.4695)" width="14.16" height="31.86"></rect>
		
			<rect x="366.13" y="786.9" transform="matrix(-1.836970e-16 1 -1 -1.836970e-16 1388.3246 641.9074)" width="14.16" height="456.43"></rect>
		
			<rect x="1803.06" y="1604.39" transform="matrix(-1.836970e-16 1 -1 -1.836970e-16 3469.5461 -194.9879)" width="58.41" height="65.78"></rect>
		
			<rect x="1748.23" y="927.52" transform="matrix(-1.836970e-16 1 -1 -1.836970e-16 2683.5623 -827.057)" width="14.16" height="1.46"></rect>
	</g>
</g>
</svg>
