<?xml version="1.0" encoding="utf-8"?>
<!-- Generator: Adobe Illustrator 24.1.2, SVG Export Plug-In . SVG Version: 6.00 Build 0)  -->
<svg version="1.0" id="Layer_1" xmlns="http://www.w3.org/2000/svg" xmlns:xlink="http://www.w3.org/1999/xlink" x="0px" y="0px" width="2000px" height="2000px" viewBox="0 0 2000 2000" style="enable-background:new 0 0 2000 2000;" xml:space="preserve">
<path id="background" style="fill:#FFFFFF;" d="M1900.03,478.79v1187.43h-34.9h-3.9h-85.55v0c0,0.28-0.22,0.5-0.5,0.5h-321.13
	c-0.21,0-0.39-0.14-0.46-0.32h-208.25c-0.07,0.19-0.25,0.32-0.46,0.32H923.69c-0.21,0-0.39-0.14-0.46-0.32H742.27
	c-0.07,0.19-0.25,0.32-0.46,0.32H314.88c-0.21,0-0.39-0.14-0.46-0.32H158.79h-58.76v-58.76v-128.23c-0.19-0.07-0.33-0.25-0.33-0.47
	v-373.96c0-0.22,0.14-0.4,0.33-0.47V948.24c-0.19-0.07-0.33-0.25-0.33-0.47V575.43c0-0.22,0.14-0.4,0.33-0.47v-58.12v-38v-1.82
	h1350.4v34.41h0.06v-32.64h128.3v16.54h9.21c0.99-89.68,73.85-162.34,163.29-162.34c0.28,0,0.5,0.22,0.5,0.5v161.84h9.2
	c0.04,0,0.07,0.01,0.1,0.02v-16.56h100.13h21.93H1900.03z"></path>
<g id="c1">
	<path id="c1_path" style="fill:none;" d="M1868.16,1637.02H831v-521.34H606.69V924.76l1261.48,0V1637.02z"></path>
	
		<text id="c1_text" transform="matrix(1 0 0 1 1553.1814 1098.0995)" style="font-family: GraphikLCG-Regular; font-size: 40px; text-anchor: middle; text-align: center;"></text>
</g>
<g id="r1">
	<path id="r1_path" style="fill:none;" d="M901.39,498.27v427.06H603.76v89.73h-470.5l-0.12-207.36h0.09V499.43L901.39,498.27z"></path>
	<text id="r1_text" transform="matrix(1 0 0 1 601.2236 701.9081)" style="font-family: GraphikLCG-Regular; font-size: 40px; text-anchor: middle; text-align: center;"></text>
</g>
<g id="r2">
	<path id="r2_path" style="fill:none;" d="M124.89,1629.62v-367.4h-0.08l0.11-247.14h478.85v102.79H831V1631L124.89,1629.62z"></path>
	<text id="r2_text" transform="matrix(1 0 0 1 528.6001 1335.201)" style="font-family: GraphikLCG-Regular; font-size: 40px; text-anchor: middle; text-align: center;"></text>
</g>
<g id="h1">
	<path id="h1_path" style="fill:none;" d="M1770.14,924.06l-246.46,0V752.5h0V503.7h352.63l0.03,420.35h-106.18L1770.14,924.06z
		"></path>
	
		<text id="h1_text" transform="matrix(1 0 0 1 1661.7543 622.6268)" style="font-family: GraphikLCG-Regular; font-size: 40px; text-anchor: middle; text-align: center;"></text>
</g>
<g id="s1">
	<path id="s1_path" style="fill:none;" d="M1233.39,926.25V507.01h289.19v419.24H1233.39z"></path>
	<text id="s1_text" transform="matrix(1 0 0 1 1417.62 724.4901)" style="font-family: GraphikLCG-Regular; font-size: 40px; text-anchor: middle; text-align: center;"></text>
</g>
<g id="s2">
	<path id="s2_path" style="fill:none;" d="M900.87,923.13V515.01h332.51v408.12H900.87z"></path>
	<text id="s2_text" transform="matrix(1 0 0 1 994.7992 756.9354)" style="font-family: GraphikLCG-Regular; font-size: 40px; text-anchor: middle; text-align: center;"></text>
</g>
<path id="u7" style="fill:#FFFFFF;stroke:#FFFFFF;stroke-linecap:round;stroke-linejoin:round;stroke-miterlimit:10;" d="
	M1680.46,1365.64c-6.74,0-12.21-5.47-12.21-12.21c0-6.74,5.47-12.21,12.21-12.21c6.74,0,12.21,5.47,12.21,12.21
	C1692.67,1360.17,1687.2,1365.64,1680.46,1365.64z"></path>
<path id="u1" style="fill:#FFFFFF;stroke:#FFFFFF;stroke-linecap:round;stroke-linejoin:round;stroke-miterlimit:10;" d="
	M215.45,793.49c-6.74,0-12.21-5.47-12.21-12.21s5.47-12.21,12.21-12.21s12.21,5.47,12.21,12.21S222.19,793.49,215.45,793.49z"></path>
<path id="u9" style="fill:#FFFFFF;stroke:#FFFFFF;stroke-linecap:round;stroke-linejoin:round;stroke-miterlimit:10;" d="
	M1473.55,573.03c-6.74,0-12.21-5.47-12.21-12.21s5.47-12.21,12.21-12.21c6.74,0,12.21,5.47,12.21,12.21
	S1480.29,573.03,1473.55,573.03z"></path>
<g id="mebel">
	<g>
		<g>
			<g>
				
					<rect x="849.72" y="1254.96" transform="matrix(-1 5.131758e-05 -5.131758e-05 -1 1711.2664 2714.0728)" style="fill:none;stroke:#000000;stroke-linecap:round;stroke-linejoin:round;stroke-miterlimit:10;" width="11.76" height="204.2"></rect>
				<polygon style="fill:none;stroke:#000000;stroke-linecap:round;stroke-linejoin:round;stroke-miterlimit:10;" points="
					837.96,1276.2 849.71,1254.96 849.72,1459.16 837.96,1437.92 				"></polygon>
			</g>
		</g>
		<g>
			
				<rect x="837.96" y="1204.4" style="fill:none;stroke:#000000;stroke-linecap:round;stroke-linejoin:round;stroke-miterlimit:10;" width="65.04" height="318.25"></rect>
		</g>
	</g>
	<g>
		<g>
			<g>
				
					<rect x="412.22" y="433.27" transform="matrix(-5.131758e-05 -1 1 -5.131758e-05 -117.2471 953.4976)" style="fill:none;stroke:#000000;stroke-linecap:round;stroke-linejoin:round;stroke-miterlimit:10;" width="11.76" height="204.2"></rect>
				<polygon style="fill:none;stroke:#000000;stroke-linecap:round;stroke-linejoin:round;stroke-miterlimit:10;" points="
					498.96,517.73 520.2,529.48 316,529.5 337.24,517.74 				"></polygon>
			</g>
		</g>
	</g>
	<g>
		<polygon style="fill:none;stroke:#000000;stroke-linecap:round;stroke-linejoin:round;stroke-miterlimit:10;" points="
			1755.23,1096.49 1755.23,1176.54 1860.86,1176.54 1860.88,1096.49 		"></polygon>
		<path style="fill:none;stroke:#000000;stroke-linecap:round;stroke-linejoin:round;stroke-miterlimit:10;" d="M1830.56,1136.51
			l-25.64,10.03c-1.57,0.55-3.29,0.85-5.1,0.85c-7.28,0-13.18-4.87-13.18-10.88c0-6.01,5.9-10.88,13.18-10.88
			c1.81,0,3.53,0.3,5.1,0.85L1830.56,1136.51z"></path>
	</g>
	<g>
		<polygon style="fill:none;stroke:#000000;stroke-linecap:round;stroke-linejoin:round;stroke-miterlimit:10;" points="
			1755.23,1380.33 1755.23,1485.98 1860.86,1485.98 1860.88,1380.33 		"></polygon>
		<g>
			
				<line style="fill:none;stroke:#000000;stroke-linecap:round;stroke-linejoin:round;stroke-miterlimit:10;" x1="1833.49" y1="1433.15" x2="1782.62" y2="1433.15"></line>
			
				<line style="fill:none;stroke:#000000;stroke-linecap:round;stroke-linejoin:round;stroke-miterlimit:10;" x1="1808.06" y1="1407.72" x2="1808.06" y2="1458.58"></line>
			<polyline style="fill:none;stroke:#000000;stroke-linecap:round;stroke-linejoin:round;stroke-miterlimit:10;" points="
				1827.84,1420.44 1820.77,1433.15 1827.84,1445.87 			"></polyline>
			<polyline style="fill:none;stroke:#000000;stroke-linecap:round;stroke-linejoin:round;stroke-miterlimit:10;" points="
				1820.77,1452.93 1808.06,1445.87 1795.34,1452.93 			"></polyline>
			<polyline style="fill:none;stroke:#000000;stroke-linecap:round;stroke-linejoin:round;stroke-miterlimit:10;" points="
				1788.27,1445.87 1795.34,1433.15 1788.27,1420.44 			"></polyline>
			<polyline style="fill:none;stroke:#000000;stroke-linecap:round;stroke-linejoin:round;stroke-miterlimit:10;" points="
				1795.34,1413.37 1808.06,1420.44 1820.77,1413.37 			"></polyline>
		</g>
	</g>
	<g>
		<path style="fill:none;stroke:#000000;stroke-linecap:round;stroke-linejoin:round;stroke-miterlimit:10;" d="M359.04,715.44"></path>
		<path style="fill:none;stroke:#000000;stroke-linecap:round;stroke-linejoin:round;stroke-miterlimit:10;" d="M329.99,698.29
			c1.08,2.82,2.77,6.03,5.41,9.15c7.28,8.59,15.34,12.03,15.34,12.03c-0.26,0.97-0.36,2-0.28,3.04c0.41,5.28,5.11,9.12,10.33,8.52
			c0.47-0.05,0.93-0.14,1.37-0.26l-3.86,9.14c-0.5,1.06-0.17,2.35,0.83,2.97c1.15,0.71,2.64,0.28,3.24-0.9l5.76-12.31
			c0.15-0.29,0.16-0.63,0.04-0.93l-0.71-1.79c1.17-1.76,1.93-4.21,0.98-9.14c-2.42-12.52-15.32-15.76-15.32-15.76l-7.13-9.68"></path>
		<path style="fill:none;stroke:#000000;stroke-linecap:round;stroke-linejoin:round;stroke-miterlimit:10;" d="M351.76,739.57
			l9.12-5.78l1.28-3.02c-0.44,0.12-0.9,0.21-1.37,0.26c-1.37,0.16-2.7-0.01-3.93-0.41l-7.55,5.09c-1.02,0.67-1.33,2.02-0.71,3.07
			C349.25,739.89,350.68,740.24,351.76,739.57z"></path>
		<path style="fill:none;stroke:#000000;stroke-linecap:round;stroke-linejoin:round;stroke-miterlimit:10;" d="M396.58,729.06
			c-9.49,4.63-21.51,1.16-27.73-7.71c0.04,1.42-0.11,2.55-0.4,3.48c0.09,0.15,0.16,0.31,0.26,0.46c6.56,9.82,19.51,13.02,29.82,7.69
			c1.02-0.53,1.45-1.76,1-2.81C399.03,729.02,397.69,728.52,396.58,729.06z"></path>
		<g>
			<path style="fill:none;stroke:#000000;stroke-linecap:round;stroke-linejoin:round;stroke-miterlimit:10;" d="M329.65,686.42
				c-2.37-1.55-4.6-2.86-7.35-4.57c-0.92-0.57-2.03-1.48-3.1-1.27c-0.66,0.13-1.14,0.58-1.39,1.15"></path>
		</g>
		<path style="fill:none;stroke:#000000;stroke-linecap:round;stroke-linejoin:round;stroke-miterlimit:10;" d="M355.45,709.99"></path>
		<path style="fill:none;stroke:#000000;stroke-linecap:round;stroke-linejoin:round;stroke-miterlimit:10;" d="M334.69,681.8
			c-1.22,1.27-2.72,2.53-4.06,3.68c-1.2,1.03-2.51,2.34-2.55,3.93"></path>
		<path style="fill:none;stroke:#000000;stroke-linecap:round;stroke-linejoin:round;stroke-miterlimit:10;" d="M342.84,700.56
			c-5.19,3.63-12.92-2.5-12.92-2.5c-3.33-1.26-11.53-7.82-15.63-14.32c-0.33-0.52-0.58-1.04-0.74-1.55
			c-0.33-1.04,0.24-2.15,1.28-2.48c1.04-0.33,1.66,0.57,2.48,1.28c3.75,3.25,5.9,5.22,8.85,7.25c0.47,0.32,1.21,0.79,1.92,1.23
			c1.04,0.64,2.03,1.23,2.03,1.23c1.06-0.38,2.61-0.84,4.42-1.09"></path>
		<g>
			<path style="fill:none;stroke:#000000;stroke-linecap:round;stroke-linejoin:round;stroke-miterlimit:10;" d="M341.75,678.29
				c2.28,0.18,4.37,1.38,5.68,3.25l5.87,1.7c0.31,0.09,0.37,0.51,0.08,0.68l-4.62,2.7c-0.11,1.21-0.51,2.36-1.15,3.37
				c-0.05,0.09-1.74,2.34-1.74,2.34l-0.49,0.67l-0.64,0.82c-0.08,0.11-0.16,0.22-0.25,0.32c-0.28,0.31-0.62,0.57-1.02,0.76
				c-1.66,0.8-3.67,0.11-4.47-1.56c-0.02-0.04-0.03-0.07-0.05-0.11c-3.03-0.91-5.41-3.68-5.46-7.35c-0.02-1.64,0.53-3.24,1.49-4.54
				c0.61-0.83,1.39-1.53,2.3-2.04c0.06-0.03,0.12-0.07,0.18-0.1"></path>
			
				<line style="fill:none;stroke:#000000;stroke-linecap:round;stroke-linejoin:round;stroke-miterlimit:10;" x1="340.7" y1="690.72" x2="338.94" y2="689.16"></line>
			<polygon style="fill:none;stroke:#000000;stroke-linecap:round;stroke-linejoin:round;stroke-miterlimit:10;" points="
				341.53,692.73 342.55,694.33 344.15,693.31 			"></polygon>
			<path style="fill:none;stroke:#000000;stroke-linecap:round;stroke-linejoin:round;stroke-miterlimit:10;" d="M336.26,683.14
				c0.45-2.21,1.66-5.25,3.14-7.29c0.25-0.34,0.77-0.23,1,0.13c0.47,0.72,1.94,3.51,2.53,6.16c0,0-0.07-0.4,0,0"></path>
		</g>
		<path style="fill:none;stroke:#000000;stroke-linecap:round;stroke-linejoin:round;stroke-miterlimit:10;" d="M350.47,722.51
			c-0.08-1.05,0.02-2.07,0.28-3.04c0,0-1.78-0.78-4.36-2.43c-0.94,1.97-1.24,4.25-0.6,6.52c1.26,4.48,5.61,7.23,10.09,6.66
			C352.92,728.86,350.74,726.02,350.47,722.51z"></path>
	</g>
	<g>
		<g>
			<path style="fill:none;stroke:#000000;stroke-linecap:round;stroke-linejoin:round;stroke-miterlimit:10;" d="M993.82,1103.63"></path>
			<path style="fill:none;stroke:#000000;stroke-linecap:round;stroke-linejoin:round;stroke-miterlimit:10;" d="M955.54,1101.5
				l2.45,1.1c0.01,0,0.03,0.01,0.04,0.01l1.59-12.31l-1.58,1.81l-9.25-10.43c-1.41-1.59-3.83-2.03-5.55-0.79
				c-1.99,1.42-2.28,4.22-0.68,6l12.91,14.57C955.49,1101.47,955.52,1101.47,955.54,1101.5z"></path>
			<path style="fill:none;stroke:#000000;stroke-linecap:round;stroke-linejoin:round;stroke-miterlimit:10;" d="M973.19,1079.03
				c0,0-4.09-2.3-7.74-0.33c-3.12,1.69-4.83,4.66-5.36,8l-0.01,0l-0.04,0.29c-0.02,0.15-0.04,0.3-0.06,0.45l-1.95,15.18l-12.73-5.69
				c-1.94-0.87-4.32-0.27-5.39,1.57c-1.22,2.12-0.33,4.78,1.85,5.75l17.77,7.95c1.91,0.85,4.13-0.16,4.74-2.16l2.37-7.85
				c4.72,3.89,9.56,5.27,13.66,5.47c5.92,0.3,11.74-2.08,15.77-6.42c0.1-0.1,0.18-0.2,0.24-0.28c3.1-3.96,10.19-13.58,5.1-31.62
				c-5.64-19.98-18.61-27.83-25.97-30.75"></path>
			<path style="fill:none;stroke:#000000;stroke-linecap:round;stroke-linejoin:round;stroke-miterlimit:10;" d="M1028.64,1115.67
				c0.04-0.04,0.07-0.09,0.11-0.13c-0.22-0.07-0.44-0.14-0.67-0.22c-2.83,2.25-5.55,3.72-9.38,4.38
				c-11.17,1.92-22.56-4.63-25.91-15.13c-0.04-0.14-0.14-0.24-0.21-0.37c-1.24,0.83-2.56,1.52-3.95,2.07
				c3.51,11.25,14.97,18.45,26.82,16.37C1020.67,1121.72,1025.25,1119.23,1028.64,1115.67z"></path>
			<path style="fill:none;stroke:#000000;stroke-linecap:round;stroke-linejoin:round;stroke-miterlimit:10;" d="M959.04,1035.84
				l7.05-6.56l-23.16-27.49c-3.34-4.16,2.65-9.26,6.21-5.24c0,0,25.95,30.8,25.95,30.8l0.36,11.23l0.28,8.68"></path>
			
				<line style="fill:none;stroke:#000000;stroke-linecap:round;stroke-linejoin:round;stroke-miterlimit:10;" x1="987.34" y1="1087.01" x2="961.3" y2="1072.32"></line>
			<path style="fill:none;stroke:#000000;stroke-linecap:round;stroke-linejoin:round;stroke-miterlimit:10;" d="M974.11,1039.55"></path>
			<g>
				<g>
					<g>
						<path style="fill:none;stroke:#000000;stroke-linecap:round;stroke-linejoin:round;stroke-miterlimit:10;" d="M965.15,1034.9
							c-3.36-0.29-6.83,0.71-9.62,3.05l-5.19,4.38c0,0,0,0,0,0l1.47-1.24c2.06-1.74,5.14-1.47,6.87,0.59l3.52,4.17l6.4,3.81"></path>
						<path style="fill:none;stroke:#000000;stroke-linecap:round;stroke-linejoin:round;stroke-miterlimit:10;" d="M951.89,1063.74
							l-2.67-6.95l-3.33-3.95c0.17,2.6,1.1,5.18,2.91,7.33l2.99,3.54L951.89,1063.74z"></path>
					</g>
					<path style="fill:none;stroke:#000000;stroke-linecap:round;stroke-linejoin:round;stroke-miterlimit:10;" d="M951.81,1041.09
						c0.45-0.38,0.96-0.62,1.48-0.81l-15.08-17.9c-1.45-1.72-4.01-1.93-5.72-0.49c-1.72,1.45-1.93,4.01-0.49,5.72l14.86,17.64
						L951.81,1041.09z"></path>
					<path style="fill:none;stroke:#000000;stroke-linecap:round;stroke-linejoin:round;stroke-miterlimit:10;" d="M947.94,1044.35
						l0.33,2.77c0.19,1.6,2.08,2.34,3.31,1.31l1.98-1.67c1.23-1.04,0.81-3.02-0.73-3.48l-2.67-0.79L947.94,1044.35z"></path>
					<path style="fill:none;stroke:#000000;stroke-linecap:round;stroke-linejoin:round;stroke-miterlimit:10;" d="M963.22,1057.61
						c-0.85-0.1-1.46-0.88-1.36-1.73s0.88-1.46,1.73-1.36"></path>
					<path style="fill:none;stroke:#000000;stroke-linecap:round;stroke-linejoin:round;stroke-miterlimit:10;" d="M957,1059.65
						c0.22-0.83,1.07-1.33,1.9-1.11c0.83,0.22,1.33,1.07,1.11,1.9"></path>
				</g>
				<g>
					<g>
						
							<circle style="fill:none;stroke:#000000;stroke-linecap:round;stroke-linejoin:round;stroke-miterlimit:10;" cx="961.59" cy="1051.32" r="1.24"></circle>
						<path style="fill:none;stroke:#000000;stroke-linecap:round;stroke-linejoin:round;stroke-miterlimit:10;" d="M962.51,1048.26
							c0.9,1.65,0.94,2.76,0.04,3.85"></path>
					</g>
					<g>
						
							<circle style="fill:none;stroke:#000000;stroke-linecap:round;stroke-linejoin:round;stroke-miterlimit:10;" cx="954.72" cy="1057.11" r="1.24"></circle>
						<path style="fill:none;stroke:#000000;stroke-linecap:round;stroke-linejoin:round;stroke-miterlimit:10;" d="M951.55,1057.49
							c1.47,1.17,2.56,1.39,3.78,0.69"></path>
					</g>
				</g>
				
					<line style="fill:none;stroke:#000000;stroke-linecap:round;stroke-linejoin:round;stroke-miterlimit:10;" x1="949.05" y1="1043.41" x2="950.23" y2="1044.81"></line>
			</g>
			<path style="fill:none;stroke:#000000;stroke-linecap:round;stroke-linejoin:round;stroke-miterlimit:10;" d="M963.17,1071.23
				c0,0,11.8,1.28,19.06-8.68"></path>
		</g>
		<path style="fill:none;stroke:#000000;stroke-linecap:round;stroke-linejoin:round;stroke-miterlimit:10;" d="M970.1,1062.26
			l-1.68-14.16c-0.16-1.38,1.14-2.47,2.47-2.08l6.58,1.95c3.04,0.9,3.86,4.83,1.43,6.88L970.1,1062.26z"></path>
		<path style="fill:none;stroke:#000000;stroke-linecap:round;stroke-linejoin:round;stroke-miterlimit:10;" d="M963.17,1071.23
			l10.91-9.19c1.52-1.28,2.19-3.11,2.08-4.88l-6.05,5.1l-1.5-12.6l-6.4-3.81l-3.52-4.17c-1.74-2.06-4.81-2.32-6.87-0.59l-5.51,4.64
			c-2.06,1.74-2.32,4.81-0.59,6.87l3.52,4.17l2.67,6.95l12.16,3.61l-6.05,5.1C959.73,1072.86,961.65,1072.51,963.17,1071.23z"></path>
		<path style="fill:none;stroke:#000000;stroke-linecap:round;stroke-linejoin:round;stroke-miterlimit:10;" d="M948.72,1072.18
			l-0.81-6.81c-0.16-1.38,1.14-2.47,2.47-2.08l13.67,4.06l-8.8,7.41C952.83,1076.81,949.1,1075.33,948.72,1072.18z"></path>
	</g>
	<g>
		<path style="fill:none;stroke:#000000;stroke-linecap:round;stroke-linejoin:round;stroke-miterlimit:10;" d="M193.55,584.94
			c1.19,0.9,2.46,1.7,3.77,2.38"></path>
		<path style="fill:none;stroke:#000000;stroke-linecap:round;stroke-linejoin:round;stroke-miterlimit:10;" d="M192.47,545.04
			c-3.95,3.36-6.73,7.8-8.08,12.65"></path>
		<path style="fill:none;stroke:#000000;stroke-linecap:round;stroke-linejoin:round;stroke-miterlimit:10;" d="M214.77,539.57
			c-3.14-0.72-6.42-0.85-9.69-0.33"></path>
		<path style="fill:none;stroke:#000000;stroke-linecap:round;stroke-linejoin:round;stroke-miterlimit:10;" d="M230.32,550.2
			c-0.62-0.92-1.29-1.79-2.02-2.61"></path>
		<path style="fill:none;stroke:#000000;stroke-linecap:round;stroke-linejoin:round;stroke-miterlimit:10;" d="M234.73,563.93
			c-0.03-1.34-0.17-2.69-0.42-4.04"></path>
		<path style="fill:none;stroke:#000000;stroke-linecap:round;stroke-linejoin:round;stroke-miterlimit:10;" d="M223.66,585.67
			c2.32-1.6,4.32-3.54,5.95-5.72"></path>
		<path style="fill:none;stroke:#000000;stroke-linecap:round;stroke-linejoin:round;stroke-miterlimit:10;" d="M208.19,590.18
			c1.74,0.06,3.5-0.05,5.24-0.34"></path>
		<path style="fill:none;stroke:#000000;stroke-linecap:round;stroke-linejoin:round;stroke-miterlimit:10;" d="M201.04,584.19
			c-3.29,1.89-6.18,5.41-7.71,9.96c-2.11,6.27-1.02,12.6,2.35,16.08c4.78-0.73,9.48-5.11,11.59-11.39
			c1.89-5.62,1.21-11.29-1.38-14.91c-0.09-0.12-0.2-0.21-0.3-0.31"></path>
		<path style="fill:none;stroke:#000000;stroke-linecap:round;stroke-linejoin:round;stroke-miterlimit:10;" d="M210.99,587.29
			c-1.16,0.1-2.32,0.1-3.46,0.02"></path>
		<path style="fill:none;stroke:#000000;stroke-linecap:round;stroke-linejoin:round;stroke-miterlimit:10;" d="M227.83,577.54
			c-1.54,2.23-3.5,4.21-5.82,5.81"></path>
		<path style="fill:none;stroke:#000000;stroke-linecap:round;stroke-linejoin:round;stroke-miterlimit:10;" d="M231.16,558.89
			c0.25,0.97,0.44,1.96,0.56,2.94"></path>
		<path style="fill:none;stroke:#000000;stroke-linecap:round;stroke-linejoin:round;stroke-miterlimit:10;" d="M226.67,550.07
			c0.59,0.72,1.14,1.47,1.65,2.27"></path>
		<path style="fill:none;stroke:#000000;stroke-linecap:round;stroke-linejoin:round;stroke-miterlimit:10;" d="M206.34,541.94
			c2.96-0.36,5.94-0.13,8.76,0.65"></path>
		<path style="fill:none;stroke:#000000;stroke-linecap:round;stroke-linejoin:round;stroke-miterlimit:10;" d="M187.48,557.34
			c1.09-3.26,2.92-6.27,5.38-8.77"></path>
		<path style="fill:none;stroke:#000000;stroke-linecap:round;stroke-linejoin:round;stroke-miterlimit:10;" d="M199.37,585.18
			c-0.95-0.45-1.87-0.96-2.76-1.54"></path>
		<path style="fill:none;stroke:#000000;stroke-linecap:round;stroke-linejoin:round;stroke-miterlimit:10;" d="M201.59,565
			c0.5-0.81,0.43-1.85-0.18-2.58c-2.84-3.42-8.15-5.51-14.07-5.11c-6.6,0.45-12.03,3.88-13.95,8.32c2.51,4.14,8.35,6.8,14.96,6.35
			C194.27,571.57,199.24,568.77,201.59,565z"></path>
		<path style="fill:none;stroke:#000000;stroke-linecap:round;stroke-linejoin:round;stroke-miterlimit:10;" d="M221.41,558.41
			c0.14-0.44-0.01-0.92-0.37-1.19c-1.72-1.28-4.45-1.67-7.18-0.81c-3.05,0.96-5.21,3.18-5.61,5.49c1.65,1.66,4.69,2.25,7.74,1.29
			C218.71,562.32,220.73,560.44,221.41,558.41z"></path>
		
			<line style="fill:none;stroke:#000000;stroke-linecap:round;stroke-linejoin:round;stroke-miterlimit:10;" x1="223.41" y1="557.22" x2="208.24" y2="561.89"></line>
		<path style="fill:none;stroke:#000000;stroke-linecap:round;stroke-linejoin:round;stroke-miterlimit:10;" d="M221.89,552.93
			c0.79,0.47,1.79,0.39,2.49-0.21c3.26-2.79,5.21-7.95,4.74-13.66c-0.53-6.37-3.92-11.56-8.23-13.36
			c-3.96,2.48-6.45,8.16-5.92,14.53C215.44,545.95,218.21,550.71,221.89,552.93z"></path>
		
			<line style="fill:none;stroke:#000000;stroke-linecap:round;stroke-linejoin:round;stroke-miterlimit:10;" x1="223.31" y1="557.35" x2="220.89" y2="525.71"></line>
		<path style="fill:none;stroke:#000000;stroke-linecap:round;stroke-linejoin:round;stroke-miterlimit:10;" d="M227.42,554.8
			c-0.3,0.9,0.02,1.9,0.79,2.47c3.58,2.64,9.23,3.41,14.88,1.6c6.3-2.02,10.76-6.64,11.56-11.41c-3.42-3.42-9.73-4.61-16.04-2.59
			C232.96,546.67,228.8,550.58,227.42,554.8z"></path>
		
			<line style="fill:none;stroke:#000000;stroke-linecap:round;stroke-linejoin:round;stroke-miterlimit:10;" x1="223.29" y1="557.27" x2="254.65" y2="547.46"></line>
		
			<line style="fill:none;stroke:#000000;stroke-linecap:round;stroke-linejoin:round;stroke-miterlimit:10;" x1="223.29" y1="557.27" x2="241.23" y2="584.8"></line>
		<path style="fill:none;stroke:#000000;stroke-linecap:round;stroke-linejoin:round;stroke-miterlimit:10;" d="M209.35,580.2
			c-0.6,0.25-0.97,0.86-0.93,1.51c0.23,3.03,2.35,6.3,5.8,8.42c3.85,2.37,8.22,2.61,11.05,0.9c0.24-3.29-1.95-7.09-5.8-9.45
			C216.03,579.45,212.16,579.03,209.35,580.2z"></path>
		
			<line style="fill:none;stroke:#000000;stroke-linecap:round;stroke-linejoin:round;stroke-miterlimit:10;" x1="207.73" y1="580.25" x2="225.28" y2="591.02"></line>
		
			<line style="fill:none;stroke:#000000;stroke-linecap:round;stroke-linejoin:round;stroke-miterlimit:10;" x1="204.59" y1="584.44" x2="195.68" y2="610.22"></line>
		
			<line style="fill:none;stroke:#000000;stroke-linecap:round;stroke-linejoin:round;stroke-miterlimit:10;" x1="199.04" y1="578.54" x2="173.54" y2="577.29"></line>
		<path style="fill:none;stroke:#000000;stroke-linecap:round;stroke-linejoin:round;stroke-miterlimit:10;" d="M224.31,570.26
			c0.6,1.07,0.96,2.18,1.08,3.27c0.47,1.1,1.03,2.18,1.73,3.24c3.65,5.52,9.31,8.55,14.12,8.04c2.36-4.22,1.8-10.62-1.85-16.14
			c-3.27-4.95-8.16-7.9-12.6-8.09c-0.95-0.04-1.82,0.54-2.16,1.43C223.72,564.4,223.62,567.29,224.31,570.26z"></path>
		
			<line style="fill:none;stroke:#000000;stroke-linecap:round;stroke-linejoin:round;stroke-miterlimit:10;" x1="205.98" y1="563.72" x2="225.45" y2="574.35"></line>
		
			<line style="fill:none;stroke:#000000;stroke-linecap:round;stroke-linejoin:round;stroke-miterlimit:10;" x1="206.13" y1="563.5" x2="202.46" y2="585.63"></line>
		<path style="fill:none;stroke:#000000;stroke-linecap:round;stroke-linejoin:round;stroke-miterlimit:10;" d="M188.35,571.98
			c-2.26,0.15-4.42-0.08-6.4-0.59c-3.76,1.05-6.81,3.16-8.41,5.9c2,4.4,7.49,7.74,14.1,8.07c4.78,0.24,9.12-1.16,12.08-3.53
			c-0.76-1.95-1.05-4.3-0.66-6.76c0.03-0.16,0.09-0.3,0.12-0.46c-1.83-1.51-4.2-2.64-6.85-3.31
			C191.07,571.65,189.74,571.88,188.35,571.98z"></path>
		
			<line style="fill:none;stroke:#000000;stroke-linecap:round;stroke-linejoin:round;stroke-miterlimit:10;" x1="206.19" y1="563.59" x2="173.39" y2="565.63"></line>
		<path style="fill:none;stroke:#000000;stroke-linecap:round;stroke-linejoin:round;stroke-miterlimit:10;" d="M203.59,559.55
			c0.91,0.27,1.9-0.09,2.44-0.87c2.52-3.66,3.1-9.34,1.11-14.93c-2.22-6.23-7-10.53-11.79-11.18c-3.3,3.54-4.28,9.88-2.06,16.12
			C195.28,554.28,199.32,558.31,203.59,559.55z"></path>
		
			<line style="fill:none;stroke:#000000;stroke-linecap:round;stroke-linejoin:round;stroke-miterlimit:10;" x1="206.19" y1="563.59" x2="195.34" y2="532.57"></line>
		<path style="fill:none;stroke:#000000;stroke-linecap:round;stroke-linejoin:round;stroke-miterlimit:10;" d="M206.36,566.77
			c-0.46-0.46-1.17-0.57-1.74-0.28c-2.71,1.37-4.92,4.58-5.56,8.58c-0.71,4.46,0.74,8.6,3.4,10.56c3.14-1.03,5.8-4.51,6.51-8.97
			C209.61,572.65,208.51,568.92,206.36,566.77z"></path>
		<path style="fill:none;stroke:#000000;stroke-linecap:round;stroke-linejoin:round;stroke-miterlimit:10;" d="M209.12,564.57
			c-0.58,0.28-0.91,0.9-0.83,1.54c0.39,2.97,2.67,6.08,6.2,7.98c3.93,2.12,8.27,2.11,10.96,0.27c0.06-3.26-2.32-6.89-6.26-9
			C215.66,563.45,211.82,563.26,209.12,564.57z"></path>
	</g>
	<g>
		<g>
			
				<rect x="657.85" y="517.73" style="fill:none;stroke:#000000;stroke-linecap:round;stroke-linejoin:round;stroke-miterlimit:10;" width="224.47" height="109.02"></rect>
			
				<line style="fill:none;stroke:#000000;stroke-linecap:round;stroke-linejoin:round;stroke-miterlimit:10;" x1="657.85" y1="620.7" x2="882.31" y2="620.76"></line>
		</g>
		
			<line style="fill:none;stroke:#000000;stroke-linecap:round;stroke-linejoin:round;stroke-miterlimit:10;" x1="807.84" y1="626.75" x2="807.84" y2="517.73"></line>
		
			<line style="fill:none;stroke:#000000;stroke-linecap:round;stroke-linejoin:round;stroke-miterlimit:10;" x1="733.35" y1="626.75" x2="733.35" y2="517.73"></line>
	</g>
	<g>
		<g>
			
				<rect x="693.75" y="1321.98" style="fill:none;stroke:#000000;stroke-linecap:round;stroke-linejoin:round;stroke-miterlimit:10;" width="105.65" height="244.41"></rect>
			
				<line style="fill:none;stroke:#000000;stroke-linecap:round;stroke-linejoin:round;stroke-miterlimit:10;" x1="699.8" y1="1321.99" x2="699.73" y2="1566.38"></line>
		</g>
		
			<line style="fill:none;stroke:#000000;stroke-linecap:round;stroke-linejoin:round;stroke-miterlimit:10;" x1="693.75" y1="1485.29" x2="799.4" y2="1485.29"></line>
		
			<line style="fill:none;stroke:#000000;stroke-linecap:round;stroke-linejoin:round;stroke-miterlimit:10;" x1="693.75" y1="1404.19" x2="799.4" y2="1404.19"></line>
	</g>
	<g>
		<g>
			<path style="fill:none;stroke:#000000;stroke-linecap:round;stroke-linejoin:round;stroke-miterlimit:10;" d="M602.95,1524.72
				l-23.53,8.27l-3.54-10.07c5.81-2.04,8.87-8.41,6.83-14.22c-2.04-5.81-8.41-8.87-14.22-6.83l-3.22-9.16l23.53-8.27L602.95,1524.72
				z"></path>
			
				<rect x="548.96" y="1492.83" transform="matrix(0.3168 -0.9485 0.9485 0.3168 -1050.458 1557.4227)" style="fill:none;stroke:#000000;stroke-linecap:round;stroke-linejoin:round;stroke-miterlimit:10;" width="13.73" height="30.07"></rect>
			<g>
				
					<rect x="576.18" y="1453.59" transform="matrix(-0.5011 -0.8654 0.8654 -0.5011 -385.4271 2708.8765)" style="fill:none;stroke:#000000;stroke-linecap:round;stroke-linejoin:round;stroke-miterlimit:10;" width="23.9" height="23.9"></rect>
				
					<line style="fill:none;stroke:#000000;stroke-linecap:round;stroke-linejoin:round;stroke-miterlimit:10;" x1="604.46" y1="1469.89" x2="571.8" y2="1461.19"></line>
				
					<line style="fill:none;stroke:#000000;stroke-linecap:round;stroke-linejoin:round;stroke-miterlimit:10;" x1="592.48" y1="1449.21" x2="583.78" y2="1481.87"></line>
			</g>
			<path style="fill:none;stroke:#000000;stroke-linecap:round;stroke-linejoin:round;stroke-miterlimit:10;" d="M566.83,1534.89
				l15.8,12.99c0.58-0.99,1.75-1.5,2.88-1.13c1.3,0.43,2,1.83,1.56,3.13c-0.43,1.3-1.84,2-3.13,1.56c-1.13-0.38-1.76-1.49-1.63-2.63
				l-20.44,0.89L566.83,1534.89z"></path>
			<path style="fill:none;stroke:#000000;stroke-linecap:round;stroke-linejoin:round;stroke-miterlimit:10;" d="M535.24,1469.32
				l20.45,0.57c-0.15-1.14,0.46-2.26,1.58-2.66c1.29-0.45,2.7,0.23,3.16,1.51c0.45,1.29-0.23,2.7-1.51,3.16
				c-1.12,0.39-2.3-0.1-2.9-1.08l-15.6,13.24L535.24,1469.32z"></path>
			
				<circle style="fill:none;stroke:#000000;stroke-linecap:round;stroke-linejoin:round;stroke-miterlimit:10;" cx="524.45" cy="1511.22" r="7.23"></circle>
		</g>
		<polygon style="fill:none;stroke:#000000;stroke-linecap:round;stroke-linejoin:round;stroke-miterlimit:10;" points="
			561.4,1523.01 561.42,1537.24 549.1,1544.37 536.77,1537.27 536.75,1523.04 549.07,1515.91 		"></polygon>
	</g>
	<g>
		<g>
			<path style="fill:none;stroke:#000000;stroke-linecap:round;stroke-linejoin:round;stroke-miterlimit:10;" d="M352.79,1394
				c0-9.91-14.91-18.09-33.3-18.09s-33.3,8.29-33.3,18.09v53.01c0,4.17,3.38,7.55,7.55,7.55h51.52c4.17,0,7.55-3.38,7.55-7.55V1394z
				"></path>
			<path style="fill:none;stroke:#000000;stroke-linecap:round;stroke-linejoin:round;stroke-miterlimit:10;" d="M364.9,1394
				c0-16.53-20.33-30.17-45.41-30.17s-45.41,13.82-45.41,30.17v40.87c0,6.69,5.42,12.11,12.11,12.11h0V1394
				c0-9.8,14.91-18.09,33.3-18.09s33.3,8.18,33.3,18.09v52.98l0,0c6.69,0,12.11-5.42,12.11-12.11V1394z"></path>
		</g>
		
			<rect x="232.77" y="1464.89" transform="matrix(-1 5.127893e-10 -5.127893e-10 -1 639.2059 3031.4817)" style="fill:none;stroke:#000000;stroke-linecap:round;stroke-linejoin:round;stroke-miterlimit:10;" width="173.67" height="101.7"></rect>
		<g>
			<path style="fill:none;stroke:#000000;stroke-linecap:round;stroke-linejoin:round;stroke-miterlimit:10;" d="M343.33,1503.86
				l-56.92-30.85c-0.38-0.2-0.85-0.06-1.05,0.31l-20.83,38.43c-0.2,0.38-0.06,0.85,0.31,1.05l56.92,30.85
				c0.38,0.2,0.85,0.06,1.05-0.31l20.83-38.43C343.85,1504.53,343.71,1504.06,343.33,1503.86z"></path>
			
				<rect x="275.19" y="1503.52" transform="matrix(0.8792 0.4765 -0.4765 0.8792 758.0027 39.6979)" style="fill:none;stroke:#000000;stroke-linecap:round;stroke-linejoin:round;stroke-miterlimit:10;" width="51.05" height="22.02"></rect>
			
				<rect x="300.31" y="1490.11" transform="matrix(0.8792 0.4765 -0.4765 0.8792 750.5201 32.7968)" style="fill:none;stroke:#000000;stroke-linecap:round;stroke-linejoin:round;stroke-miterlimit:10;" width="20.56" height="12.44"></rect>
			<path style="fill:none;stroke:#000000;stroke-linecap:round;stroke-linejoin:round;stroke-miterlimit:10;" d="M322.45,1544.03
				l-58.29-31.59l-13.18,8.88c-1.84,1.24-1.71,3.99,0.24,5.05l66.63,36.11c1.95,1.06,4.33-0.33,4.36-2.55L322.45,1544.03z"></path>
		</g>
		<g>
			<g>
				
					<circle style="fill:#FFFFFF;stroke:#000000;stroke-linecap:round;stroke-linejoin:round;stroke-miterlimit:10;" cx="378.58" cy="1528.64" r="19.1"></circle>
				
					<circle style="fill:#FFFFFF;stroke:#000000;stroke-linecap:round;stroke-linejoin:round;stroke-miterlimit:10;" cx="378.58" cy="1528.64" r="6.82"></circle>
			</g>
			
				<line style="fill:#FFFFFF;stroke:#000000;stroke-linecap:round;stroke-linejoin:round;stroke-miterlimit:10;" x1="378.58" y1="1521.82" x2="378.58" y2="1535.45"></line>
			
				<line style="fill:#FFFFFF;stroke:#000000;stroke-linecap:round;stroke-linejoin:round;stroke-miterlimit:10;" x1="371.77" y1="1528.64" x2="385.4" y2="1528.64"></line>
		</g>
	</g>
	<path style="fill:none;stroke:#000000;stroke-linecap:round;stroke-linejoin:round;stroke-miterlimit:10;" d="M1081.68,1220.62
		c-7.48,0-22.31,0-29.79,0c-7.65,0-11.56,6.27-12.83,14.06c-4.65,31.76-4.65,64.02,0,95.78c1.28,7.79,5.18,14.06,12.83,14.06
		c7.48,0,22.31,0,29.79,0c7.65,0,11.56-6.27,12.83-14.06c4.65-31.76,4.65-64.02,0-95.78
		C1093.24,1226.89,1089.33,1220.62,1081.68,1220.62z"></path>
	<g>
		<path style="fill:none;stroke:#000000;stroke-linecap:round;stroke-linejoin:round;stroke-miterlimit:10;" d="M1090.23,1325.25
			l-2.48-4.4c-0.31,0.26-0.64,0.5-1.01,0.71s-0.74,0.36-1.13,0.49l2.48,4.4c0.19,0.34,0.62,0.46,0.97,0.27l0.9-0.51
			C1090.3,1326.03,1090.42,1325.59,1090.23,1325.25z"></path>
		
			<circle style="fill:none;stroke:#000000;stroke-linecap:round;stroke-linejoin:round;stroke-miterlimit:10;" cx="1083.37" cy="1315.57" r="6.88"></circle>
	</g>
	<g>
		<path style="fill:none;stroke:#000000;stroke-linecap:round;stroke-linejoin:round;stroke-miterlimit:10;" d="M1046.96,1239.91
			l0.96,4.95c0.38-0.15,0.77-0.27,1.18-0.35s0.82-0.11,1.23-0.11l-0.96-4.95c-0.07-0.38-0.45-0.64-0.83-0.56l-1.01,0.2
			C1047.14,1239.15,1046.89,1239.52,1046.96,1239.91z"></path>
		
			<circle style="fill:none;stroke:#000000;stroke-linecap:round;stroke-linejoin:round;stroke-miterlimit:10;" cx="1050.41" cy="1251.27" r="6.88"></circle>
	</g>
	<g>
		<g>
			
				<rect x="1056.85" y="1285.46" transform="matrix(0.3818 -0.9242 0.9242 0.3818 -546.7495 1783.2384)" style="fill:none;stroke:#000000;stroke-linecap:round;stroke-linejoin:round;stroke-miterlimit:10;" width="5.72" height="29.78"></rect>
			<g>
				
					<rect x="1055.17" y="1273.35" transform="matrix(0.6022 -0.7983 0.7983 0.6022 -607.5806 1357.0874)" style="fill:none;stroke:#000000;stroke-linecap:round;stroke-linejoin:round;stroke-miterlimit:10;" width="5.72" height="29.78"></rect>
				
					<rect x="1056.01" y="1263.55" transform="matrix(0.6022 -0.7983 0.7983 0.6022 -596.8133 1359.0916)" style="fill:none;stroke:#000000;stroke-linecap:round;stroke-linejoin:round;stroke-miterlimit:10;" width="18.83" height="29.78"></rect>
			</g>
		</g>
		<polygon style="fill:none;stroke:#000000;stroke-linecap:round;stroke-linejoin:round;stroke-miterlimit:10;" points="
			1081.76,1285.98 1079.18,1284.92 1068.19,1299.49 1049.72,1285.56 1047.05,1292.02 1074.57,1303.39 		"></polygon>
	</g>
	<g>
		<g>
			<g>
				<path style="fill:none;stroke:#000000;stroke-linecap:round;stroke-linejoin:round;stroke-miterlimit:10;" d="M1204.53,1527.75
					c0.03-0.14,0.06-0.28,0.11-0.42c2.59-7.38,4.61-15.02,6.01-22.7c1.4-7.68,2.2-15.54,2.38-23.35c0-0.16,0.02-0.3,0.04-0.44
					c0.13-0.74,0.6-1.39,1.26-1.78c0.38-0.22,1.16-0.54,2.13-0.22l0.06,0.02c14.83,5.2,30.32,8.02,46.03,8.38l0.08,0
					c1.01,0.05,1.62,0.62,1.89,0.96c0.49,0.6,0.69,1.37,0.55,2.11c-0.03,0.14-0.06,0.28-0.11,0.41c-2.59,7.38-4.61,15.02-6.01,22.7
					s-2.2,15.54-2.38,23.35c0,0.16-0.02,0.3-0.04,0.44c-0.14,0.74-0.6,1.39-1.26,1.78c-0.38,0.22-1.16,0.54-2.13,0.22l-0.06-0.02
					c-14.83-5.2-30.32-8.02-46.03-8.38l-0.09,0c-1.01-0.05-1.62-0.62-1.9-0.96C1204.6,1529.26,1204.4,1528.49,1204.53,1527.75z"></path>
			</g>
			<path style="fill:none;stroke:#000000;stroke-linecap:round;stroke-linejoin:round;stroke-miterlimit:10;" d="M1216.53,1478.87
				l-0.06-0.02c-0.97-0.32-1.75,0-2.13,0.22c-0.67,0.39-1.13,1.04-1.26,1.78c-0.03,0.14-0.04,0.28-0.04,0.44
				c-0.16,6.87-0.88,13.76-1.98,20.55c-6.09,1.12-12.13,2.52-18.06,4.4l-0.06,0.02c-0.98,0.29-1.75-0.05-2.12-0.28
				c-0.66-0.41-1.1-1.07-1.21-1.82c-0.02-0.14-0.03-0.28-0.03-0.44c0.06-7.81-0.5-15.69-1.67-23.41
				c-1.16-7.72-2.95-15.41-5.32-22.87c-0.04-0.14-0.08-0.28-0.1-0.42c-0.11-0.75,0.11-1.51,0.62-2.09c0.29-0.33,0.91-0.88,1.92-0.9
				l0.09,0c15.72,0.12,31.28-2.23,46.27-6.98l0.06-0.02c0.98-0.29,1.75,0.05,2.13,0.28c0.66,0.41,1.1,1.07,1.21,1.82
				c0.02,0.14,0.03,0.28,0.03,0.44c-0.06,7.81,0.5,15.69,1.67,23.41c0.6,3.95,1.36,7.89,2.28,11.8
				C1231.22,1483.38,1223.79,1481.42,1216.53,1478.87z"></path>
			<path style="fill:none;stroke:#000000;stroke-linecap:round;stroke-linejoin:round;stroke-miterlimit:10;" d="M1216.53,1478.87
				l-0.06-0.02c-0.97-0.32-1.75,0-2.13,0.22c-0.67,0.39-1.13,1.04-1.26,1.78c-0.03,0.14-0.04,0.28-0.04,0.44
				c-0.18,7.81-0.98,15.66-2.38,23.35c-0.04,0.21-0.1,0.42-0.14,0.63c-5.57,1.07-11.11,2.36-16.53,4.08l-0.01,0
				c-3.81,1.21-7.69-1.66-7.66-5.65v-0.01c0.12-15.35-2.19-30.62-6.83-45.25l0-0.01c-1.21-3.81,1.66-7.69,5.65-7.66h0.01
				c15.35,0.12,30.62-2.19,45.25-6.83l0.01,0c3.81-1.21,7.69,1.66,7.66,5.65l0,0.01c-0.09,12.05,1.36,24.04,4.21,35.72
				C1233.54,1483.91,1224.92,1481.82,1216.53,1478.87z"></path>
		</g>
		<g>
			<g>
				<path style="fill:none;stroke:#000000;stroke-linecap:round;stroke-linejoin:round;stroke-miterlimit:10;" d="M1211.8,1197.95
					c0.04,0.14,0.09,0.27,0.15,0.4c3.32,7.09,6.1,14.48,8.26,21.98s3.75,15.24,4.72,22.99c0.02,0.16,0.05,0.3,0.09,0.44
					c0.21,0.72,0.73,1.32,1.44,1.64c0.4,0.18,1.21,0.42,2.14,0l0.06-0.03c14.23-6.67,29.36-11.04,44.95-12.97l0.08-0.01
					c1-0.15,1.55-0.78,1.79-1.14c0.42-0.65,0.55-1.43,0.34-2.16c-0.04-0.13-0.09-0.27-0.15-0.4c-3.32-7.09-6.1-14.48-8.26-21.98
					c-2.17-7.5-3.75-15.24-4.72-22.99c-0.02-0.16-0.05-0.3-0.09-0.43c-0.21-0.72-0.73-1.32-1.44-1.64c-0.4-0.18-1.21-0.42-2.14,0
					l-0.06,0.03c-14.23,6.67-29.36,11.04-44.95,12.97l-0.08,0.01c-1,0.15-1.55,0.78-1.79,1.14
					C1211.71,1196.44,1211.59,1197.23,1211.8,1197.95z"></path>
			</g>
			<path style="fill:none;stroke:#000000;stroke-linecap:round;stroke-linejoin:round;stroke-miterlimit:10;" d="M1228.65,1245.38
				l-0.06,0.03c-0.93,0.42-1.74,0.18-2.14,0c-0.7-0.32-1.23-0.92-1.44-1.64c-0.04-0.13-0.07-0.28-0.09-0.44
				c-0.85-6.82-2.26-13.6-4.04-20.25c-6.17-0.51-12.32-1.28-18.41-2.56l-0.06-0.01c-1-0.19-1.74,0.23-2.08,0.5
				c-0.61,0.47-0.98,1.18-1.02,1.93c-0.01,0.14,0,0.28,0.01,0.44c0.85,7.76,1.08,15.66,0.7,23.46c-0.38,7.8-1.39,15.63-2.99,23.29
				c-0.03,0.14-0.05,0.29-0.05,0.43c-0.04,0.75,0.26,1.49,0.83,2.02c0.32,0.3,1,0.78,2,0.7l0.08-0.01
				c15.63-1.7,31.35-0.93,46.73,2.29l0.06,0.01c1,0.19,1.74-0.23,2.09-0.5c0.61-0.47,0.98-1.18,1.02-1.93
				c0.01-0.14,0-0.28-0.01-0.44c-0.85-7.76-1.08-15.66-0.7-23.46c0.2-3.99,0.56-7.99,1.08-11.96
				C1242.81,1239.41,1235.62,1242.11,1228.65,1245.38z"></path>
			<path style="fill:none;stroke:#000000;stroke-linecap:round;stroke-linejoin:round;stroke-miterlimit:10;" d="M1228.65,1245.38
				l-0.06,0.03c-0.93,0.42-1.74,0.18-2.14,0c-0.7-0.32-1.23-0.92-1.44-1.64c-0.04-0.13-0.07-0.28-0.09-0.44
				c-0.96-7.75-2.55-15.48-4.72-22.99c-0.06-0.21-0.14-0.41-0.2-0.62c-5.65-0.51-11.29-1.23-16.86-2.4l-0.01,0
				c-3.91-0.82-7.49,2.42-7.05,6.4l0,0.01c1.66,15.26,0.91,30.69-2.24,45.71l0,0.01c-0.82,3.91,2.42,7.49,6.4,7.05l0.01,0
				c15.26-1.66,30.69-0.91,45.71,2.24l0.01,0c3.91,0.82,7.49-2.42,7.05-6.4l0-0.01c-1.3-11.98-1.07-24.05,0.59-35.96
				C1245.07,1238.65,1236.71,1241.6,1228.65,1245.38z"></path>
		</g>
		<g>
			<g>
				<path style="fill:none;stroke:#000000;stroke-linecap:round;stroke-linejoin:round;stroke-miterlimit:10;" d="M1284.74,1291.49
					l0-122.69c0-0.41,0.33-0.75,0.75-0.75h44.81c0.41,0,0.75,0.33,0.75,0.75v122.69c0,0.41-0.33,0.75-0.75,0.75l-44.81,0
					C1285.08,1292.24,1284.74,1291.9,1284.74,1291.49z"></path>
				<path style="fill:none;stroke:#000000;stroke-linecap:round;stroke-linejoin:round;stroke-miterlimit:10;" d="M1284.74,1291.49
					l0-122.69c0-0.41-0.33-0.75-0.75-0.75l-116.43,0c-0.41,0-0.75,0.33-0.75,0.75l0,122.69c0,0.41,0.33,0.75,0.75,0.75H1284
					C1284.41,1292.24,1284.74,1291.9,1284.74,1291.49z"></path>
				<path style="fill:none;stroke:#000000;stroke-linecap:round;stroke-linejoin:round;stroke-miterlimit:10;" d="M1284.74,1415.67
					l0-122.69c0-0.41,0.33-0.75,0.75-0.75l44.81,0c0.41,0,0.75,0.33,0.75,0.75l0,122.69c0,0.41-0.33,0.75-0.75,0.75l-44.81,0
					C1285.08,1416.42,1284.74,1416.08,1284.74,1415.67z"></path>
				<path style="fill:none;stroke:#000000;stroke-linecap:round;stroke-linejoin:round;stroke-miterlimit:10;" d="M1284.74,1415.67
					l0-122.69c0-0.41-0.33-0.75-0.75-0.75h-116.43c-0.41,0-0.75,0.33-0.75,0.75l0,122.69c0,0.41,0.33,0.75,0.75,0.75H1284
					C1284.41,1416.42,1284.74,1416.08,1284.74,1415.67z"></path>
				<path style="fill:none;stroke:#000000;stroke-linecap:round;stroke-linejoin:round;stroke-miterlimit:10;" d="M1284.74,1548.13
					l0-130.97c0-0.41,0.33-0.75,0.75-0.75h44.81c0.41,0,0.75,0.33,0.75,0.75l0,130.97c0,0.41-0.33,0.75-0.75,0.75h-44.81
					C1285.08,1548.88,1284.74,1548.55,1284.74,1548.13z"></path>
				<path style="fill:none;stroke:#000000;stroke-linecap:round;stroke-linejoin:round;stroke-miterlimit:10;" d="M1284.74,1548.13
					l0-130.97c0-0.41-0.33-0.75-0.75-0.75l-225.4,0c-0.41,0-0.75,0.33-0.75,0.75v130.97c0,0.41,0.33,0.75,0.75,0.75l225.4,0
					C1284.41,1548.88,1284.74,1548.55,1284.74,1548.13z"></path>
			</g>
		</g>
	</g>
	
		<rect x="1759.3" y="1278.66" transform="matrix(-1.836970e-16 1 -1 -1.836970e-16 3139.6287 -476.5672)" style="fill:none;stroke:#000000;stroke-linecap:round;stroke-linejoin:round;stroke-miterlimit:10;" width="97.59" height="105.73"></rect>
	<g>
		<g>
			
				<rect x="111.38" y="1097.2" transform="matrix(8.404766e-06 1 -1 8.404766e-06 1298.5424 908.7147)" style="fill:none;stroke:#000000;stroke-linecap:round;stroke-linejoin:round;stroke-miterlimit:10;" width="167.06" height="12.86"></rect>
			
				<rect x="280.58" y="940.86" transform="matrix(8.404766e-06 1 -1 8.404766e-06 1467.7439 739.511)" style="fill:none;stroke:#000000;stroke-linecap:round;stroke-linejoin:round;stroke-miterlimit:10;" width="167.06" height="325.55"></rect>
			<path style="fill:none;stroke:#000000;stroke-linecap:round;stroke-linejoin:round;stroke-miterlimit:10;" d="M267.49,1032.29
				l244.39,0c2.37,0,4.29,1.82,4.29,4.06l0,134.57c0,2.24-1.92,4.06-4.29,4.06l-244.39,0L267.49,1032.29z"></path>
			<path style="fill:none;stroke:#000000;stroke-linecap:round;stroke-linejoin:round;stroke-miterlimit:10;" d="M267.49,1056.15
				l0-23.86l-55.44,0c-2.37,0-4.29,1.82-4.29,4.06l0,134.57c0,2.24,1.92,4.06,4.29,4.06l55.44,0l0-23.86h-31.67
				c-9.47,0-17.15-7.27-17.15-16.24l0-62.48c0-8.97,7.68-16.24,17.15-16.24L267.49,1056.15z"></path>
		</g>
		<g>
			<path style="fill:none;stroke:#000000;stroke-linecap:round;stroke-linejoin:round;stroke-miterlimit:10;" d="M362.07,1080.91
				l-7.75,10.71c-0.71,0.98-2.07,1.2-3.05,0.49l-6.49-4.69c-0.98-0.71-1.2-2.07-0.49-3.05l7.75-10.71c0.71-0.98,2.07-1.2,3.05-0.49
				l6.49,4.69C362.56,1078.56,362.78,1079.93,362.07,1080.91z"></path>
			<path style="fill:none;stroke:#000000;stroke-linecap:round;stroke-linejoin:round;stroke-miterlimit:10;" d="M356.91,1088.4
				l1.24,10.75c0.39,3.4,3.46,5.83,6.86,5.44c3.4-0.39,5.83-3.47,5.44-6.86l-1.2-10.33"></path>
			<path style="fill:none;stroke:#000000;stroke-linecap:round;stroke-linejoin:round;stroke-miterlimit:10;" d="M384.88,1049.37
				l-7.75,10.71c-0.71,0.98-2.07,1.2-3.05,0.49l-6.49-4.69c-0.98-0.71-1.2-2.07-0.49-3.05l7.75-10.71c0.71-0.98,2.07-1.2,3.05-0.49
				l6.49,4.69C385.37,1047.02,385.59,1048.39,384.88,1049.37z"></path>
			<path style="fill:none;stroke:#000000;stroke-linecap:round;stroke-linejoin:round;stroke-miterlimit:10;" d="M384.88,1049.37
				l-7.75,10.71c-0.71,0.98-2.07,1.2-3.05,0.49l-6.49-4.69c-0.98-0.71-1.2-2.07-0.49-3.05l7.75-10.71c0.71-0.98,2.07-1.2,3.05-0.49
				l6.49,4.69C385.37,1047.02,385.59,1048.39,384.88,1049.37z"></path>
			<path style="fill:none;stroke:#000000;stroke-linecap:round;stroke-linejoin:round;stroke-miterlimit:10;" d="M384.55,1069.7
				c4.31,3.12,5.27,9.13,2.16,13.44c-3.12,4.31-9.13,5.27-13.44,2.16L384.55,1069.7z"></path>
			<path style="fill:none;stroke:#000000;stroke-linecap:round;stroke-linejoin:round;stroke-miterlimit:10;" d="M370.35,1098.95
				l1.46,2.14c2.22,3.26,6.66,4.1,9.92,1.89c3.26-2.22,4.1-6.66,1.89-9.92l-4.08-5.99"></path>
			<path style="fill:none;stroke:#000000;stroke-linecap:round;stroke-linejoin:round;stroke-miterlimit:10;" d="M369.45,1049.58
				l1.88-2.6c-7.09-0.68-15.07,3.05-20.34,10.33c-5.27,7.28-6.31,16.03-3.44,22.55l2.14-2.97c2-2.77,5.87-3.39,8.64-1.39
				c2.77,2,3.39,5.87,1.39,8.64l-2.94,4.07c5.19,1.64,11.22,0.49,16.48-2.91c0,0,11.28-15.6,11.28-15.6
				c1.59-6.07,0.78-12.15-2.4-16.57l-2.68,3.7c-2,2.77-5.87,3.39-8.64,1.39C368.07,1056.22,367.45,1052.35,369.45,1049.58z"></path>
			<path style="fill:none;stroke:#000000;stroke-linecap:round;stroke-linejoin:round;stroke-miterlimit:10;" d="M384.63,1084.67
				c-1.1-0.79-1.34-2.33-0.55-3.42c0.79-1.1,2.33-1.34,3.42-0.55l-0.8,2.45L384.63,1084.67z"></path>
			<path style="fill:none;stroke:#000000;stroke-linecap:round;stroke-linejoin:round;stroke-miterlimit:10;" d="M372.75,1085.32
				c-1.1-0.79-1.34-2.33-0.55-3.42c0.79-1.1,2.33-1.34,3.42-0.55L372.75,1085.32z"></path>
			<path style="fill:none;stroke:#000000;stroke-linecap:round;stroke-linejoin:round;stroke-miterlimit:10;" d="M381.5,1073.21
				c-1.1-0.79-1.34-2.33-0.55-3.42c0.79-1.1,2.33-1.34,3.42-0.55L381.5,1073.21z"></path>
			<path style="fill:none;stroke:#000000;stroke-linecap:round;stroke-linejoin:round;stroke-miterlimit:10;" d="M387.98,1074.3
				l6.83,2.58c3.69,1.39,7.81-0.47,9.2-4.15s-0.47-7.81-4.15-9.2l-3.11-1.17c-0.26,0.09-0.63,0.2-0.91,0.26l-10.56,2.18"></path>
			<path style="fill:none;stroke:#000000;stroke-linecap:round;stroke-linejoin:round;stroke-miterlimit:10;" d="M395.84,1062.62
				c0.31-0.06,0.62-0.15,0.91-0.26c2.82-1.04,4.53-4.02,3.9-7.05c-0.69-3.35-3.96-5.5-7.31-4.81l-10.6,2.18
				c-0.13,0.03-0.23,0.1-0.35,0.14l-0.23,0.33"></path>
		</g>
	</g>
	<g>
		<g>
			<g>
				<path style="fill:none;stroke:#000000;stroke-linecap:round;stroke-linejoin:round;stroke-miterlimit:10;" d="M1586.72,1286.16
					l19.84-13.59c12.41-8.5,16.45-24.98,9.37-38.26l-0.8-1.51c-7.07-13.27-22.98-19.11-36.96-13.56l-22.38,8.88L1586.72,1286.16z"></path>
				<path style="fill:none;stroke:#000000;stroke-linecap:round;stroke-linejoin:round;stroke-miterlimit:10;" d="M1570.2,1213.22
					l4.94-1.96c17.9-7.1,38.27,0.37,47.33,17.36l1.03,1.93c9.06,17,3.89,38.1-12,48.99l-4.35,2.98c-2.1,1.44-4.99,0.73-6.19-1.52
					l0,0c-1.02-1.92-0.44-4.31,1.36-5.54l4.25-2.91c12.41-8.5,16.45-24.98,9.37-38.26l-0.8-1.51
					c-7.07-13.27-22.98-19.11-36.96-13.56l-4.82,1.91c-2.02,0.8-4.32-0.04-5.34-1.96l0,0
					C1566.81,1216.95,1567.83,1214.16,1570.2,1213.22z"></path>
			</g>
			<g>
				<path style="fill:none;stroke:#000000;stroke-linecap:round;stroke-linejoin:round;stroke-miterlimit:10;" d="M1427.03,1296.78
					l-19.84,13.59c-12.41,8.5-16.45,24.98-9.37,38.26l0.8,1.51c7.07,13.27,22.98,19.11,36.96,13.56l22.38-8.88L1427.03,1296.78z"></path>
				<path style="fill:none;stroke:#000000;stroke-linecap:round;stroke-linejoin:round;stroke-miterlimit:10;" d="M1443.56,1369.72
					l-4.94,1.96c-17.9,7.1-38.27-0.37-47.33-17.36l-1.03-1.93c-9.06-17-3.9-38.1,12-48.99l4.35-2.98c2.1-1.44,4.99-0.73,6.19,1.52
					l0,0c1.02,1.92,0.44,4.31-1.36,5.54l-4.25,2.91c-12.41,8.5-16.45,24.98-9.37,38.26l0.8,1.51c7.07,13.27,22.98,19.11,36.96,13.56
					l4.82-1.91c2.02-0.8,4.32,0.04,5.34,1.96l0,0C1446.95,1365.99,1445.92,1368.78,1443.56,1369.72z"></path>
			</g>
			<g>
				<path style="fill:none;stroke:#000000;stroke-linecap:round;stroke-linejoin:round;stroke-miterlimit:10;" d="M1512.19,1371.31
					l13.59,19.84c8.5,12.41,24.98,16.45,38.26,9.37l1.51-0.8c13.27-7.07,19.11-22.98,13.56-36.96l-8.88-22.38L1512.19,1371.31z"></path>
				<path style="fill:none;stroke:#000000;stroke-linecap:round;stroke-linejoin:round;stroke-miterlimit:10;" d="M1585.13,1354.79
					l1.96,4.94c7.1,17.9-0.37,38.27-17.36,47.33l-1.93,1.03c-17,9.06-38.1,3.89-48.99-12l-2.98-4.35c-1.44-2.1-0.73-4.99,1.52-6.19
					l0,0c1.92-1.02,4.31-0.44,5.54,1.36l2.91,4.25c8.5,12.41,24.98,16.45,38.26,9.37l1.51-0.8c13.27-7.07,19.11-22.98,13.56-36.96
					l-1.91-4.82c-0.8-2.02,0.04-4.32,1.96-5.34l0,0C1581.4,1351.4,1584.19,1352.43,1585.13,1354.79z"></path>
			</g>
			<g>
				<path style="fill:none;stroke:#000000;stroke-linecap:round;stroke-linejoin:round;stroke-miterlimit:10;" d="M1501.56,1211.63
					l-13.59-19.84c-8.5-12.41-24.98-16.45-38.26-9.37l-1.51,0.8c-13.27,7.07-19.11,22.98-13.56,36.96l8.88,22.38L1501.56,1211.63z"></path>
				<path style="fill:none;stroke:#000000;stroke-linecap:round;stroke-linejoin:round;stroke-miterlimit:10;" d="M1428.63,1228.15
					l-1.96-4.94c-7.1-17.9,0.37-38.27,17.36-47.33l1.93-1.03c17-9.06,38.1-3.9,48.99,12l2.98,4.35c1.44,2.1,0.73,4.99-1.52,6.19l0,0
					c-1.92,1.02-4.31,0.44-5.54-1.36l-2.91-4.25c-8.5-12.41-24.98-16.45-38.26-9.37l-1.51,0.8c-13.27,7.07-19.11,22.98-13.56,36.96
					l1.91,4.82c0.8,2.02-0.04,4.32-1.96,5.34v0C1432.35,1231.54,1429.57,1230.52,1428.63,1228.15z"></path>
			</g>
			
				<circle style="fill:#FFFFFF;stroke:#000000;stroke-linecap:round;stroke-linejoin:round;stroke-miterlimit:10;" cx="1506.52" cy="1291.66" r="80.52"></circle>
		</g>
		<g>
			<g>
				
					<circle style="fill:none;stroke:#000000;stroke-linecap:round;stroke-linejoin:round;stroke-miterlimit:10;" cx="1462.14" cy="1320.21" r="14.67"></circle>
			</g>
			<g>
				
					<circle style="fill:none;stroke:#000000;stroke-linecap:round;stroke-linejoin:round;stroke-miterlimit:10;" cx="1462.14" cy="1320.21" r="8.35"></circle>
			</g>
			<g>
				
					<ellipse transform="matrix(0.8812 -0.4727 0.4727 0.8812 -437.2564 841.7805)" style="fill:none;stroke:#000000;stroke-linecap:round;stroke-linejoin:round;stroke-miterlimit:10;" cx="1456.44" cy="1290.99" rx="3.69" ry="2.27"></ellipse>
				
					<line style="fill:none;stroke:#000000;stroke-linecap:round;stroke-linejoin:round;stroke-miterlimit:10;" x1="1453.18" y1="1292.73" x2="1438.94" y2="1300.37"></line>
			</g>
			<g>
				<path style="fill:none;stroke:#000000;stroke-linecap:round;stroke-linejoin:round;stroke-miterlimit:10;" d="M1484.45,1335.41
					l-3.25,1.75c-1.8,0.96-3.73,0.85-4.33-0.26s0.38-2.78,2.18-3.75l3.25-1.75"></path>
				
					<line style="fill:none;stroke:#000000;stroke-linecap:round;stroke-linejoin:round;stroke-miterlimit:10;" x1="1476.87" y1="1336.9" x2="1462.63" y2="1344.53"></line>
			</g>
			
				<line style="fill:none;stroke:#000000;stroke-linecap:round;stroke-linejoin:round;stroke-miterlimit:10;" x1="1483.38" y1="1333.41" x2="1476.87" y2="1336.9"></line>
			<g>
				<path style="fill:none;stroke:#000000;stroke-linecap:round;stroke-linejoin:round;stroke-miterlimit:10;" d="M1450.29,1300.63
					l1.67,3.11l12.04-6.46l-1.08-2.01c-0.33-0.61-1.08-0.83-1.69-0.51L1450.29,1300.63z"></path>
				<path style="fill:none;stroke:#000000;stroke-linecap:round;stroke-linejoin:round;stroke-miterlimit:10;" d="M1441.88,1305.85
					l1.08,2.01c0.16,0.3,0.54,0.42,0.84,0.25l8.16-4.37l-1.67-3.11l-8.16,4.37C1441.83,1305.17,1441.72,1305.55,1441.88,1305.85z"></path>
			</g>
		</g>
		<g>
			<g>
				
					<circle style="fill:none;stroke:#000000;stroke-linecap:round;stroke-linejoin:round;stroke-miterlimit:10;" cx="1553.92" cy="1263.41" r="14.67"></circle>
			</g>
			<g>
				
					<circle style="fill:none;stroke:#000000;stroke-linecap:round;stroke-linejoin:round;stroke-miterlimit:10;" cx="1553.92" cy="1263.41" r="8.35"></circle>
			</g>
			<g>
				
					<ellipse transform="matrix(0.8812 -0.4727 0.4727 0.8812 -425.7875 890.803)" style="fill:none;stroke:#000000;stroke-linecap:round;stroke-linejoin:round;stroke-miterlimit:10;" cx="1559.63" cy="1292.63" rx="3.69" ry="2.27"></ellipse>
				
					<line style="fill:none;stroke:#000000;stroke-linecap:round;stroke-linejoin:round;stroke-miterlimit:10;" x1="1562.88" y1="1290.89" x2="1577.12" y2="1283.25"></line>
			</g>
			<g>
				<path style="fill:none;stroke:#000000;stroke-linecap:round;stroke-linejoin:round;stroke-miterlimit:10;" d="M1531.61,1248.22
					l3.25-1.75c1.8-0.96,3.73-0.85,4.33,0.26c0.59,1.11-0.38,2.78-2.18,3.75l-3.25,1.75"></path>
				
					<line style="fill:none;stroke:#000000;stroke-linecap:round;stroke-linejoin:round;stroke-miterlimit:10;" x1="1539.19" y1="1246.73" x2="1553.43" y2="1239.09"></line>
			</g>
			
				<line style="fill:none;stroke:#000000;stroke-linecap:round;stroke-linejoin:round;stroke-miterlimit:10;" x1="1532.68" y1="1250.22" x2="1539.19" y2="1246.73"></line>
			<g>
				<path style="fill:none;stroke:#000000;stroke-linecap:round;stroke-linejoin:round;stroke-miterlimit:10;" d="M1565.77,1282.99
					l-1.67-3.11l-12.04,6.46l1.08,2.01c0.33,0.61,1.08,0.83,1.69,0.51L1565.77,1282.99z"></path>
				<path style="fill:none;stroke:#000000;stroke-linecap:round;stroke-linejoin:round;stroke-miterlimit:10;" d="M1574.18,1277.77
					l-1.08-2.01c-0.16-0.3-0.54-0.42-0.84-0.25l-8.16,4.37l1.67,3.11l8.16-4.37C1574.23,1278.45,1574.34,1278.07,1574.18,1277.77z"></path>
			</g>
		</g>
		<g>
			<g>
				
					<circle style="fill:none;stroke:#000000;stroke-linecap:round;stroke-linejoin:round;stroke-miterlimit:10;" cx="1479.63" cy="1245.92" r="14.67"></circle>
			</g>
			<g>
				
					<circle style="fill:none;stroke:#000000;stroke-linecap:round;stroke-linejoin:round;stroke-miterlimit:10;" cx="1479.63" cy="1245.92" r="8.35"></circle>
			</g>
			<g>
				
					<ellipse transform="matrix(0.8812 -0.4727 0.4727 0.8812 -407.0304 860.528)" style="fill:none;stroke:#000000;stroke-linecap:round;stroke-linejoin:round;stroke-miterlimit:10;" cx="1508.85" cy="1240.22" rx="2.27" ry="3.69"></ellipse>
				
					<line style="fill:none;stroke:#000000;stroke-linecap:round;stroke-linejoin:round;stroke-miterlimit:10;" x1="1507.11" y1="1236.96" x2="1499.47" y2="1222.72"></line>
			</g>
			<g>
				<path style="fill:none;stroke:#000000;stroke-linecap:round;stroke-linejoin:round;stroke-miterlimit:10;" d="M1464.43,1268.23
					l-1.75-3.25c-0.96-1.8-0.85-3.73,0.26-4.33s2.78,0.38,3.75,2.18l1.75,3.25"></path>
				
					<line style="fill:none;stroke:#000000;stroke-linecap:round;stroke-linejoin:round;stroke-miterlimit:10;" x1="1462.95" y1="1260.65" x2="1455.31" y2="1246.41"></line>
			</g>
			
				<line style="fill:none;stroke:#000000;stroke-linecap:round;stroke-linejoin:round;stroke-miterlimit:10;" x1="1466.44" y1="1267.16" x2="1462.95" y2="1260.65"></line>
			<g>
				<path style="fill:none;stroke:#000000;stroke-linecap:round;stroke-linejoin:round;stroke-miterlimit:10;" d="M1499.21,1234.07
					l-3.11,1.67l6.46,12.04l2.01-1.08c0.61-0.33,0.83-1.08,0.51-1.69L1499.21,1234.07z"></path>
				<path style="fill:none;stroke:#000000;stroke-linecap:round;stroke-linejoin:round;stroke-miterlimit:10;" d="M1493.99,1225.66
					l-2.01,1.08c-0.3,0.16-0.42,0.54-0.25,0.84l4.37,8.16l3.11-1.67l-4.37-8.16C1494.67,1225.62,1494.29,1225.5,1493.99,1225.66z"></path>
			</g>
		</g>
		<g>
			<g>
				
					<circle style="fill:none;stroke:#000000;stroke-linecap:round;stroke-linejoin:round;stroke-miterlimit:10;" cx="1536.43" cy="1337.7" r="14.67"></circle>
			</g>
			<g>
				
					<circle style="fill:none;stroke:#000000;stroke-linecap:round;stroke-linejoin:round;stroke-miterlimit:10;" cx="1536.43" cy="1337.7" r="8.35"></circle>
			</g>
			<g>
				
					<ellipse transform="matrix(0.8812 -0.4727 0.4727 0.8812 -456.0156 872.0552)" style="fill:none;stroke:#000000;stroke-linecap:round;stroke-linejoin:round;stroke-miterlimit:10;" cx="1507.21" cy="1343.41" rx="2.27" ry="3.69"></ellipse>
				
					<line style="fill:none;stroke:#000000;stroke-linecap:round;stroke-linejoin:round;stroke-miterlimit:10;" x1="1508.95" y1="1346.66" x2="1516.59" y2="1360.9"></line>
			</g>
			<g>
				<path style="fill:none;stroke:#000000;stroke-linecap:round;stroke-linejoin:round;stroke-miterlimit:10;" d="M1551.63,1315.39
					l1.75,3.25c0.96,1.8,0.85,3.73-0.26,4.33c-1.11,0.59-2.78-0.38-3.75-2.18l-1.75-3.25"></path>
				
					<line style="fill:none;stroke:#000000;stroke-linecap:round;stroke-linejoin:round;stroke-miterlimit:10;" x1="1553.12" y1="1322.97" x2="1560.75" y2="1337.21"></line>
			</g>
			
				<line style="fill:none;stroke:#000000;stroke-linecap:round;stroke-linejoin:round;stroke-miterlimit:10;" x1="1549.62" y1="1316.46" x2="1553.12" y2="1322.97"></line>
			<g>
				<path style="fill:none;stroke:#000000;stroke-linecap:round;stroke-linejoin:round;stroke-miterlimit:10;" d="M1516.85,1349.55
					l3.11-1.67l-6.46-12.04l-2.01,1.08c-0.61,0.33-0.83,1.08-0.51,1.69L1516.85,1349.55z"></path>
				<path style="fill:none;stroke:#000000;stroke-linecap:round;stroke-linejoin:round;stroke-miterlimit:10;" d="M1522.07,1357.96
					l2.01-1.08c0.3-0.16,0.42-0.54,0.25-0.84l-4.37-8.16l-3.11,1.67l4.37,8.16C1521.39,1358.01,1521.77,1358.12,1522.07,1357.96z"></path>
			</g>
		</g>
	</g>
	<g>
		<g>
			
				<rect x="1761.28" y="514.23" style="fill:none;stroke:#000000;stroke-linecap:round;stroke-linejoin:round;stroke-miterlimit:10;" width="99.6" height="302.18"></rect>
			
				<line style="fill:none;stroke:#000000;stroke-linecap:round;stroke-linejoin:round;stroke-miterlimit:10;" x1="1767.33" y1="816.4" x2="1767.26" y2="514.24"></line>
		</g>
		
			<line style="fill:none;stroke:#000000;stroke-linecap:round;stroke-linejoin:round;stroke-miterlimit:10;" x1="1761.28" y1="614.5" x2="1860.88" y2="614.5"></line>
		
			<line style="fill:none;stroke:#000000;stroke-linecap:round;stroke-linejoin:round;stroke-miterlimit:10;" x1="1761.28" y1="714.77" x2="1860.88" y2="714.77"></line>
	</g>
	<g>
		<path style="fill:none;stroke:#000000;stroke-linecap:round;stroke-linejoin:round;stroke-miterlimit:10;" d="M1805.91,1522.58
			c-1.49,0.09-2.97,0.3-4.41,0.64"></path>
		<path style="fill:none;stroke:#000000;stroke-linecap:round;stroke-linejoin:round;stroke-miterlimit:10;" d="M1832.63,1552.24
			c0.83-5.12,0.06-10.3-2.06-14.87"></path>
		<path style="fill:none;stroke:#000000;stroke-linecap:round;stroke-linejoin:round;stroke-miterlimit:10;" d="M1819.21,1570.87
			c2.85-1.49,5.44-3.53,7.58-6.04"></path>
		<path style="fill:none;stroke:#000000;stroke-linecap:round;stroke-linejoin:round;stroke-miterlimit:10;" d="M1800.48,1572.88
			c1.07,0.3,2.15,0.52,3.22,0.67"></path>
		<path style="fill:none;stroke:#000000;stroke-linecap:round;stroke-linejoin:round;stroke-miterlimit:10;" d="M1788.22,1565.29
			c0.9,1,1.88,1.94,2.94,2.8"></path>
		<path style="fill:none;stroke:#000000;stroke-linecap:round;stroke-linejoin:round;stroke-miterlimit:10;" d="M1782.53,1541.56
			c-0.73,2.73-0.99,5.5-0.82,8.22"></path>
		<path style="fill:none;stroke:#000000;stroke-linecap:round;stroke-linejoin:round;stroke-miterlimit:10;" d="M1791.38,1528.09
			c-1.36,1.08-2.63,2.3-3.77,3.67"></path>
		<path style="fill:none;stroke:#000000;stroke-linecap:round;stroke-linejoin:round;stroke-miterlimit:10;" d="M1800.7,1528.01
			c1.28-3.57,1.19-8.13-0.59-12.58c-2.47-6.14-7.4-10.25-12.22-10.71c-3.16,3.66-3.89,10.04-1.43,16.19
			c2.21,5.51,6.41,9.37,10.72,10.45c0.14,0.04,0.29,0.03,0.43,0.04"></path>
		<path style="fill:none;stroke:#000000;stroke-linecap:round;stroke-linejoin:round;stroke-miterlimit:10;" d="M1791.12,1532.11
			c0.82-0.83,1.7-1.58,2.62-2.26"></path>
		<path style="fill:none;stroke:#000000;stroke-linecap:round;stroke-linejoin:round;stroke-miterlimit:10;" d="M1784.63,1550.45
			c-0.28-2.7-0.07-5.48,0.66-8.2"></path>
		<path style="fill:none;stroke:#000000;stroke-linecap:round;stroke-linejoin:round;stroke-miterlimit:10;" d="M1794.2,1566.81
			c-0.82-0.58-1.6-1.21-2.33-1.88"></path>
		<path style="fill:none;stroke:#000000;stroke-linecap:round;stroke-linejoin:round;stroke-miterlimit:10;" d="M1803.34,1570.61
			c-0.91-0.16-1.82-0.38-2.73-0.66"></path>
		<path style="fill:none;stroke:#000000;stroke-linecap:round;stroke-linejoin:round;stroke-miterlimit:10;" d="M1824.08,1563.59
			c-2.02,2.2-4.44,3.95-7.08,5.19"></path>
		<path style="fill:none;stroke:#000000;stroke-linecap:round;stroke-linejoin:round;stroke-miterlimit:10;" d="M1828.44,1539.64
			c1.29,3.19,1.85,6.67,1.6,10.17"></path>
		<path style="fill:none;stroke:#000000;stroke-linecap:round;stroke-linejoin:round;stroke-miterlimit:10;" d="M1801.33,1526.17
			c1.01-0.28,2.05-0.48,3.1-0.62"></path>
		<path style="fill:none;stroke:#000000;stroke-linecap:round;stroke-linejoin:round;stroke-miterlimit:10;" d="M1812.73,1542.97
			c0.14,0.94,0.87,1.69,1.81,1.85c4.38,0.75,9.78-1.1,14.02-5.25c4.73-4.63,6.63-10.76,5.21-15.39c-4.59-1.52-10.77,0.25-15.5,4.88
			C1814.04,1533.21,1812.07,1538.57,1812.73,1542.97z"></path>
		<path style="fill:none;stroke:#000000;stroke-linecap:round;stroke-linejoin:round;stroke-miterlimit:10;" d="M1801.94,1560.84
			c0.17,0.43,0.6,0.69,1.06,0.66c2.14-0.14,4.47-1.62,5.99-4.05c1.7-2.71,1.9-5.8,0.71-7.81c-2.33-0.19-5.03,1.33-6.73,4.04
			C1801.45,1556.12,1801.13,1558.85,1801.94,1560.84z"></path>
		
			<line style="fill:none;stroke:#000000;stroke-linecap:round;stroke-linejoin:round;stroke-miterlimit:10;" x1="1801.18" y1="1563.04" x2="1809.7" y2="1549.65"></line>
		<path style="fill:none;stroke:#000000;stroke-linecap:round;stroke-linejoin:round;stroke-miterlimit:10;" d="M1805.12,1565.32
			c-0.91,0.15-1.62,0.87-1.76,1.77c-0.67,4.24,1.19,9.43,5.26,13.47c4.54,4.5,10.48,6.25,14.93,4.82c1.4-4.46-0.39-10.39-4.93-14.9
			C1814.56,1566.45,1809.36,1564.62,1805.12,1565.32z"></path>
		
			<line style="fill:none;stroke:#000000;stroke-linecap:round;stroke-linejoin:round;stroke-miterlimit:10;" x1="1801.17" y1="1562.88" x2="1823.55" y2="1585.38"></line>
		<path style="fill:none;stroke:#000000;stroke-linecap:round;stroke-linejoin:round;stroke-miterlimit:10;" d="M1799.7,1567.49
			c-0.36-0.88-1.25-1.43-2.2-1.36c-4.44,0.31-9.24,3.4-12.36,8.44c-3.49,5.62-3.87,12.04-1.39,16.19c4.82,0.38,10.4-2.81,13.89-8.44
			C1800.76,1577.27,1801.39,1571.6,1799.7,1567.49z"></path>
		
			<line style="fill:none;stroke:#000000;stroke-linecap:round;stroke-linejoin:round;stroke-miterlimit:10;" x1="1801.24" y1="1562.93" x2="1783.75" y2="1590.75"></line>
		
			<line style="fill:none;stroke:#000000;stroke-linecap:round;stroke-linejoin:round;stroke-miterlimit:10;" x1="1801.24" y1="1562.93" x2="1769.72" y2="1553.63"></line>
		<path style="fill:none;stroke:#000000;stroke-linecap:round;stroke-linejoin:round;stroke-miterlimit:10;" d="M1796.97,1536.44
			c0.29-0.58,0.18-1.28-0.27-1.75c-2.14-2.16-5.87-3.27-9.87-2.64c-4.46,0.7-7.95,3.35-9,6.48c1.95,2.66,6.08,4.13,10.55,3.43
			C1792.37,1541.34,1795.59,1539.15,1796.97,1536.44z"></path>
		
			<line style="fill:none;stroke:#000000;stroke-linecap:round;stroke-linejoin:round;stroke-miterlimit:10;" x1="1798.17" y1="1535.35" x2="1777.83" y2="1538.54"></line>
		
			<line style="fill:none;stroke:#000000;stroke-linecap:round;stroke-linejoin:round;stroke-miterlimit:10;" x1="1797.84" y1="1530.12" x2="1787.89" y2="1504.72"></line>
		
			<line style="fill:none;stroke:#000000;stroke-linecap:round;stroke-linejoin:round;stroke-miterlimit:10;" x1="1805.89" y1="1531.01" x2="1826.1" y2="1515.41"></line>
		<path style="fill:none;stroke:#000000;stroke-linecap:round;stroke-linejoin:round;stroke-miterlimit:10;" d="M1792.04,1553.71
			c-1.15-0.43-2.14-1.03-2.94-1.79c-1.07-0.53-2.2-0.99-3.42-1.34c-6.36-1.83-12.63-0.47-15.96,3.05
			c0.94,4.74,5.52,9.25,11.88,11.08c5.7,1.64,11.33,0.71,14.83-2.03c0.75-0.59,1.04-1.59,0.72-2.49
			C1796.29,1557.79,1794.48,1555.52,1792.04,1553.71z"></path>
		
			<line style="fill:none;stroke:#000000;stroke-linecap:round;stroke-linejoin:round;stroke-miterlimit:10;" x1="1810.22" y1="1546.79" x2="1788.52" y2="1551.33"></line>
		
			<line style="fill:none;stroke:#000000;stroke-linecap:round;stroke-linejoin:round;stroke-miterlimit:10;" x1="1810.26" y1="1547.06" x2="1798.69" y2="1527.84"></line>
		<path style="fill:none;stroke:#000000;stroke-linecap:round;stroke-linejoin:round;stroke-miterlimit:10;" d="M1818.28,1529.06
			c1.62-1.59,3.42-2.81,5.25-3.71c2.18-3.24,3.13-6.83,2.57-9.95c-4.38-2.05-10.72-1.03-15.97,3.01c-3.8,2.92-6.18,6.8-6.9,10.52
			c1.85,0.99,3.59,2.59,4.89,4.72c0.08,0.14,0.12,0.29,0.2,0.43c2.37-0.04,4.91-0.72,7.36-1.93
			C1816.43,1531.08,1817.29,1530.04,1818.28,1529.06z"></path>
		
			<line style="fill:none;stroke:#000000;stroke-linecap:round;stroke-linejoin:round;stroke-miterlimit:10;" x1="1810.15" y1="1547.03" x2="1833.78" y2="1524.19"></line>
		<path style="fill:none;stroke:#000000;stroke-linecap:round;stroke-linejoin:round;stroke-miterlimit:10;" d="M1814.75,1548.41
			c-0.87,0.39-1.39,1.3-1.29,2.24c0.46,4.42,3.7,9.12,8.85,12.08c5.74,3.3,12.16,3.47,16.23,0.85c0.22-4.83-3.16-10.3-8.89-13.6
			C1824.5,1547.03,1818.81,1546.59,1814.75,1548.41z"></path>
		
			<line style="fill:none;stroke:#000000;stroke-linecap:round;stroke-linejoin:round;stroke-miterlimit:10;" x1="1810.15" y1="1547.03" x2="1838.54" y2="1563.58"></line>
		<path style="fill:none;stroke:#000000;stroke-linecap:round;stroke-linejoin:round;stroke-miterlimit:10;" d="M1807.95,1544.72
			c0.65,0.05,1.26-0.32,1.51-0.92c1.17-2.8,0.77-6.67-1.34-10.13c-2.35-3.86-6.14-6.06-9.43-5.83c-1.71,2.82-1.49,7.2,0.87,11.06
			C1801.67,1542.35,1804.93,1544.48,1807.95,1544.72z"></path>
		<path style="fill:none;stroke:#000000;stroke-linecap:round;stroke-linejoin:round;stroke-miterlimit:10;" d="M1807.29,1548.18
			c0.26-0.59,0.11-1.28-0.37-1.71c-2.23-2.01-5.98-2.89-9.89-2.05c-4.37,0.94-7.66,3.76-8.51,6.91c2.08,2.52,6.24,3.73,10.6,2.79
			C1803.03,1553.28,1806.08,1550.93,1807.29,1548.18z"></path>
	</g>
	<g>
		<g>
			<g>
				<g>
					
						<rect x="249.26" y="993.59" style="fill:none;stroke:#000000;stroke-linecap:round;stroke-linejoin:round;stroke-miterlimit:10;" width="278.55" height="12.36"></rect>
					
						<rect x="249.26" y="640.28" style="fill:none;stroke:#000000;stroke-linecap:round;stroke-linejoin:round;stroke-miterlimit:10;" width="278.55" height="353.31"></rect>
					<path style="fill:none;stroke:#000000;stroke-linecap:round;stroke-linejoin:round;stroke-miterlimit:10;" d="M383.29,930.03
						l10.48,0l0,30.42c0,9.1,7.38,16.47,16.47,16.47l78.25,0c9.1,0,16.47-7.38,16.47-16.47l0-30.42l10.48,0l0,53.26
						c0,2.27-1.84,4.12-4.12,4.12l-245.6,0c-2.27,0-4.12-1.84-4.12-4.12l0-53.26h10.48l0,30.42c0,9.1,7.38,16.47,16.47,16.47
						l78.25,0c9.1,0,16.47-7.38,16.47-16.47L383.29,930.03z"></path>
					<path style="fill:none;stroke:#000000;stroke-linecap:round;stroke-linejoin:round;stroke-miterlimit:10;" d="M263.07,650.58
						l250.93,0c0.8,0,1.45,0.65,1.45,1.45l0,278l-253.84,0l0-278C261.61,651.23,262.26,650.58,263.07,650.58z"></path>
				</g>
			</g>
			
				<rect x="520.86" y="929.31" transform="matrix(-5.027223e-07 1 -1 -5.027223e-07 1526.8057 401.5056)" style="fill:none;stroke:#000000;stroke-linecap:round;stroke-linejoin:round;stroke-miterlimit:10;" width="83.58" height="69.68"></rect>
			
				<rect x="172.63" y="929.31" transform="matrix(-5.027223e-07 1 -1 -5.027223e-07 1178.5704 749.7404)" style="fill:none;stroke:#000000;stroke-linecap:round;stroke-linejoin:round;stroke-miterlimit:10;" width="83.58" height="69.68"></rect>
			<g>
				<g>
					
						<circle style="fill:#FFFFFF;stroke:#000000;stroke-linecap:round;stroke-linejoin:round;stroke-miterlimit:10;" cx="214.42" cy="964.16" r="26.07"></circle>
					
						<circle style="fill:#FFFFFF;stroke:#000000;stroke-linecap:round;stroke-linejoin:round;stroke-miterlimit:10;" cx="214.42" cy="964.16" r="9.3"></circle>
				</g>
				
					<line style="fill:#FFFFFF;stroke:#000000;stroke-linecap:round;stroke-linejoin:round;stroke-miterlimit:10;" x1="214.42" y1="973.45" x2="214.42" y2="954.86"></line>
				
					<line style="fill:#FFFFFF;stroke:#000000;stroke-linecap:round;stroke-linejoin:round;stroke-miterlimit:10;" x1="223.71" y1="964.16" x2="205.12" y2="964.16"></line>
			</g>
			<g>
				<g>
					
						<circle style="fill:#FFFFFF;stroke:#000000;stroke-linecap:round;stroke-linejoin:round;stroke-miterlimit:10;" cx="562.65" cy="964.16" r="26.07"></circle>
					
						<circle style="fill:#FFFFFF;stroke:#000000;stroke-linecap:round;stroke-linejoin:round;stroke-miterlimit:10;" cx="562.65" cy="964.16" r="9.3"></circle>
				</g>
				
					<line style="fill:#FFFFFF;stroke:#000000;stroke-linecap:round;stroke-linejoin:round;stroke-miterlimit:10;" x1="562.65" y1="973.45" x2="562.65" y2="954.86"></line>
				
					<line style="fill:#FFFFFF;stroke:#000000;stroke-linecap:round;stroke-linejoin:round;stroke-miterlimit:10;" x1="571.95" y1="964.16" x2="553.35" y2="964.16"></line>
			</g>
		</g>
	</g>
	<g>
		<g>
			<path style="fill:none;stroke:#000000;stroke-linecap:round;stroke-linejoin:round;stroke-miterlimit:10;" d="M1419.37,1577.83
				c0.32,0.59,0.64,1.17,0.93,1.77c0.67-0.56,1.27-1.19,1.85-1.85c-0.56-0.36-1.1-0.75-1.63-1.14
				C1420.14,1577.03,1419.78,1577.46,1419.37,1577.83z"></path>
			<path style="fill:none;stroke:#000000;stroke-linecap:round;stroke-linejoin:round;stroke-miterlimit:10;" d="M1423.74,1560.97
				c0.18,0.52,0.29,1.07,0.42,1.61c0.66-0.05,1.31-0.09,1.97-0.11c-0.19-0.85-0.39-1.7-0.69-2.5
				C1424.88,1560.32,1424.31,1560.64,1423.74,1560.97z"></path>
			<path style="fill:none;stroke:#000000;stroke-linecap:round;stroke-linejoin:round;stroke-miterlimit:10;" d="M1418.82,1554.04
				c0.37,0.3,0.71,0.63,1.05,0.96c0.5-0.4,1.01-0.81,1.53-1.19c-0.54-0.55-1.09-1.09-1.71-1.56
				C1419.42,1552.86,1419.12,1553.45,1418.82,1554.04z"></path>
			<path style="fill:none;stroke:#000000;stroke-linecap:round;stroke-linejoin:round;stroke-miterlimit:10;" d="M1412.3,1550.92
				c0.21-0.61,0.46-1.21,0.7-1.82c-2.24-0.52-4.48-0.6-6.63-0.27c0.29,0.62,0.59,1.22,0.85,1.85
				C1408.88,1550.49,1410.58,1550.56,1412.3,1550.92z"></path>
			<path style="fill:none;stroke:#000000;stroke-linecap:round;stroke-linejoin:round;stroke-miterlimit:10;" d="M1400.31,1553.27
				c-0.29-0.58-0.55-1.18-0.82-1.77c-0.99,0.64-1.9,1.38-2.74,2.21c0.56,0.33,1.12,0.66,1.66,1.02
				C1399,1554.19,1399.64,1553.72,1400.31,1553.27z"></path>
			<path style="fill:none;stroke:#000000;stroke-linecap:round;stroke-linejoin:round;stroke-miterlimit:10;" d="M1424.21,1569.72
				c-0.02,0.06-0.01,0.13-0.03,0.19c-0.05,0.19-0.14,0.35-0.19,0.54c0.59,0.29,1.18,0.59,1.75,0.91c0.1-0.32,0.25-0.6,0.33-0.93
				c0.05-0.2,0.04-0.41,0.09-0.61C1425.51,1569.8,1424.86,1569.76,1424.21,1569.72z"></path>
			<path style="fill:none;stroke:#000000;stroke-linecap:round;stroke-linejoin:round;stroke-miterlimit:10;" d="M1393.79,1563.02
				c0.04-0.21,0.04-0.42,0.09-0.63c0.13-0.52,0.35-0.99,0.53-1.48c-0.57-0.32-1.13-0.66-1.69-1.01c-0.26,0.68-0.56,1.34-0.74,2.06
				c-0.09,0.38-0.1,0.76-0.16,1.14C1392.48,1563.07,1393.13,1563.02,1393.79,1563.02z"></path>
			<path style="fill:none;stroke:#000000;stroke-linecap:round;stroke-linejoin:round;stroke-miterlimit:10;" d="M1413.76,1583.03
				c-0.27-0.61-0.55-1.22-0.79-1.85c-1.6,0.42-3.26,0.62-4.96,0.51c-0.23,0.64-0.5,1.27-0.76,1.9
				C1409.48,1583.82,1411.67,1583.61,1413.76,1583.03z"></path>
			<path style="fill:none;stroke:#000000;stroke-linecap:round;stroke-linejoin:round;stroke-miterlimit:10;" d="M1394.83,1572.48
				c-0.3-0.68-0.55-1.38-0.76-2.1c-0.67,0.04-1.33,0.05-2,0.06c0.28,1.09,0.65,2.14,1.12,3.16
				C1393.74,1573.22,1394.28,1572.83,1394.83,1572.48z"></path>
			<path style="fill:none;stroke:#000000;stroke-linecap:round;stroke-linejoin:round;stroke-miterlimit:10;" d="M1401,1579.45
				c-0.59-0.36-1.17-0.72-1.7-1.14c-0.54,0.4-1.1,0.78-1.66,1.16c0.79,0.68,1.65,1.28,2.57,1.82
				C1400.46,1580.67,1400.72,1580.05,1401,1579.45z"></path>
		</g>
		<path style="fill:none;stroke:#000000;stroke-linecap:round;stroke-linejoin:round;stroke-miterlimit:10;" d="M1410.41,1566.37
			c4,0.47,8.03,1.6,11.84,3.25c7.28,0.83,14.85-0.22,21.21-3.45c-7.22-3.76-15.93-4.52-24.08-3c-2.89,1.23-5.87,2.15-8.87,2.66
			c-0.25,0.11-0.52,0.19-0.77,0.3c0.23,0.11,0.47,0.18,0.7,0.28C1410.43,1566.4,1410.42,1566.39,1410.41,1566.37z"></path>
		<path style="fill:none;stroke:#000000;stroke-linecap:round;stroke-linejoin:round;stroke-miterlimit:10;" d="M1410.11,1565.92
			c5.94-9.7,16.49-17.59,27.91-18.93C1432.5,1557,1421.26,1564.15,1410.11,1565.92z M1410.41,1566.37
			c6.27,9.38,17.46,16.6,28.87,17.43C1433.28,1574,1421.7,1567.71,1410.41,1566.37z"></path>
		<path style="fill:none;stroke:#000000;stroke-linecap:round;stroke-linejoin:round;stroke-miterlimit:10;" d="M1410.1,1566.69
			c0.05-0.08,0.11-0.15,0.16-0.23c-0.53,0.08-1.07,0.24-1.6,0.35c-2.64,1.17-5.43,2.08-8.32,2.7c-7.46,3.34-14.13,8.89-17.99,15.88
			c7.91-0.93,15.37-5.04,21.21-10.68C1405.42,1571.73,1407.62,1569.01,1410.1,1566.69z"></path>
		<path style="fill:none;stroke:#000000;stroke-linecap:round;stroke-linejoin:round;stroke-miterlimit:10;" d="M1409.69,1565.96
			c0.09,0.01,0.18,0.04,0.28,0.05c-6.27-9.38-17.46-16.6-28.87-17.43c4.15,6.8,11.01,11.85,18.57,14.79
			C1403.15,1563.82,1406.55,1564.67,1409.69,1565.96z"></path>
		<path style="fill:none;stroke:#000000;stroke-linecap:round;stroke-linejoin:round;stroke-miterlimit:10;" d="M1409.72,1565.68
			c0.2,0.18,0.39,0.39,0.59,0.57c0.1-11.28-5.1-23.55-14.07-30.65c-0.4,8.14,2.56,16.36,7.35,23.13
			C1405.92,1560.85,1408,1563.17,1409.72,1565.68z"></path>
		<g>
			<path style="fill:none;stroke:#000000;stroke-linecap:round;stroke-linejoin:round;stroke-miterlimit:10;" d="M1410.03,1561.5
				c0.16,1.4,0.25,2.79,0.26,4.17c1.79-2.88,4.02-5.57,6.53-8c4.25-6.78,6.7-14.88,6.13-22.68
				C1415.28,1541.36,1410.86,1551.5,1410.03,1561.5z"></path>
			<path style="fill:none;stroke:#000000;stroke-linecap:round;stroke-linejoin:round;stroke-miterlimit:10;" d="M1409.89,1565.85
				c0,0.08-0.01,0.16-0.01,0.23c0.04-0.04,0.08-0.08,0.12-0.12C1409.96,1565.92,1409.92,1565.88,1409.89,1565.85z"></path>
		</g>
		<path style="fill:none;stroke:#000000;stroke-linecap:round;stroke-linejoin:round;stroke-miterlimit:10;" d="M1397.43,1597.39
			c-0.83-11.41,4.69-23.53,13.06-31.09C1410.81,1577.67,1406.26,1590.04,1397.43,1597.39z M1410.49,1566.3
			c0.32,11.37-4.23,23.74-13.06,31.09 M1410.21,1566.15c-10.37-4.45-23.69-4.39-33.7,1.14
			C1386.88,1572.24,1400.01,1571.19,1410.21,1566.15z"></path>
		<g>
			<path style="fill:none;stroke:#000000;stroke-linecap:round;stroke-linejoin:round;stroke-miterlimit:10;" d="M1410.37,1566.42
				c-0.08-0.08-0.16-0.16-0.25-0.24c-0.02,0.01-0.04,0.02-0.06,0.03c0,0.17,0.02,0.33,0.02,0.5
				C1410.18,1566.62,1410.27,1566.51,1410.37,1566.42z"></path>
			<path style="fill:none;stroke:#000000;stroke-linecap:round;stroke-linejoin:round;stroke-miterlimit:10;" d="M1410.35,1570.88
				c1.16,9.84,6.06,19.78,13.78,25.89c0.4-8.14-2.56-16.36-7.35-23.13c-2.33-2.11-4.41-4.44-6.12-6.95
				c-0.06-0.05-0.11-0.11-0.17-0.16C1410.52,1567.97,1410.47,1569.42,1410.35,1570.88z"></path>
		</g>
	</g>
</g>
<g id="floor">
	<g>
		<path style="fill:none;stroke:#000000;stroke-linecap:round;stroke-linejoin:round;stroke-miterlimit:10;" d="M786.36,917.29
			c0-78.69-63.65-143.1-142.34-143.1v141.92"></path>
		
			<rect x="635.54" y="916.11" style="fill:none;stroke:#000000;stroke-linecap:round;stroke-linejoin:round;stroke-miterlimit:10;" width="8.48" height="15.63"></rect>
		
			<rect x="786.36" y="916.11" style="fill:none;stroke:#000000;stroke-linecap:round;stroke-linejoin:round;stroke-miterlimit:10;" width="8.48" height="15.63"></rect>
	</g>
	<g>
		<path style="fill:none;stroke:#000000;stroke-linecap:round;stroke-linejoin:round;stroke-miterlimit:10;" d="M637.72,1125.1
			c0,78.69,63.65,143.1,142.34,143.1v-141.92"></path>
		
			<rect x="780.05" y="1110.64" transform="matrix(-1 4.677224e-11 -4.677224e-11 -1 1568.583 2236.9148)" style="fill:none;stroke:#000000;stroke-linecap:round;stroke-linejoin:round;stroke-miterlimit:10;" width="8.48" height="15.63"></rect>
		
			<rect x="629.24" y="1110.64" transform="matrix(-1 4.376887e-11 -4.376887e-11 -1 1266.9546 2236.9148)" style="fill:none;stroke:#000000;stroke-linecap:round;stroke-linejoin:round;stroke-miterlimit:10;" width="8.48" height="15.63"></rect>
	</g>
	
		<line style="fill:none;stroke:#000000;stroke-linecap:round;stroke-linejoin:round;stroke-miterlimit:10;stroke-dasharray:10,10;" x1="1756.03" y1="928.16" x2="1526.6" y2="928.16"></line>
	<g>
		<g id="LWPOLYLINE_75_">
			
				<rect x="1755.23" y="1176.3" style="fill:none;stroke:#000000;stroke-linecap:round;stroke-linejoin:round;stroke-miterlimit:10;" width="106.19" height="106.19"></rect>
		</g>
		<g id="LWPOLYLINE_74_">
			
				<line style="fill:none;stroke:#000000;stroke-linecap:round;stroke-linejoin:round;stroke-miterlimit:10;" x1="1781.78" y1="1238.24" x2="1781.78" y2="1273.64"></line>
		</g>
		<g id="LWPOLYLINE_73_">
			
				<line style="fill:none;stroke:#000000;stroke-linecap:round;stroke-linejoin:round;stroke-miterlimit:10;" x1="1799.48" y1="1255.94" x2="1764.08" y2="1255.94"></line>
		</g>
		<g id="CIRCLE_127_">
			<path style="fill:none;stroke:#000000;stroke-linecap:round;stroke-linejoin:round;stroke-miterlimit:10;" d="M1767.62,1255.94
				c0,7.82,6.34,14.16,14.16,14.16c7.82,0,14.16-6.34,14.16-14.16c0-7.82-6.34-14.16-14.16-14.16
				C1773.96,1241.78,1767.62,1248.12,1767.62,1255.94L1767.62,1255.94z"></path>
		</g>
		<g id="LWPOLYLINE_72_">
			
				<line style="fill:none;stroke:#000000;stroke-linecap:round;stroke-linejoin:round;stroke-miterlimit:10;" x1="1781.78" y1="1185.14" x2="1781.78" y2="1220.54"></line>
		</g>
		<g id="LWPOLYLINE_71_">
			
				<line style="fill:none;stroke:#000000;stroke-linecap:round;stroke-linejoin:round;stroke-miterlimit:10;" x1="1799.48" y1="1202.84" x2="1764.08" y2="1202.84"></line>
		</g>
		<g id="CIRCLE_126_">
			<path style="fill:none;stroke:#000000;stroke-linecap:round;stroke-linejoin:round;stroke-miterlimit:10;" d="M1767.62,1202.84
				c0,7.82,6.34,14.17,14.17,14.17c7.82,0,14.17-6.34,14.17-14.17c0-7.82-6.34-14.17-14.17-14.17
				C1773.97,1188.67,1767.62,1195.02,1767.62,1202.84L1767.62,1202.84z"></path>
		</g>
		<g id="LWPOLYLINE_70_">
			
				<line style="fill:none;stroke:#000000;stroke-linecap:round;stroke-linejoin:round;stroke-miterlimit:10;" x1="1834.88" y1="1185.14" x2="1834.88" y2="1220.54"></line>
		</g>
		<g id="LWPOLYLINE_69_">
			
				<line style="fill:none;stroke:#000000;stroke-linecap:round;stroke-linejoin:round;stroke-miterlimit:10;" x1="1852.58" y1="1202.84" x2="1817.18" y2="1202.84"></line>
		</g>
		<g id="CIRCLE_125_">
			<path style="fill:none;stroke:#000000;stroke-linecap:round;stroke-linejoin:round;stroke-miterlimit:10;" d="M1820.72,1202.84
				c0,7.82,6.34,14.17,14.17,14.17s14.17-6.34,14.17-14.17c0-7.82-6.34-14.17-14.17-14.17S1820.72,1195.02,1820.72,1202.84
				L1820.72,1202.84z"></path>
		</g>
		<g id="LWPOLYLINE_68_">
			
				<line style="fill:none;stroke:#000000;stroke-linecap:round;stroke-linejoin:round;stroke-miterlimit:10;" x1="1834.88" y1="1238.24" x2="1834.88" y2="1273.64"></line>
		</g>
		<g id="LWPOLYLINE_67_">
			
				<line style="fill:none;stroke:#000000;stroke-linecap:round;stroke-linejoin:round;stroke-miterlimit:10;" x1="1852.58" y1="1255.94" x2="1817.18" y2="1255.94"></line>
		</g>
		<g id="CIRCLE_124_">
			<path style="fill:none;stroke:#000000;stroke-linecap:round;stroke-linejoin:round;stroke-miterlimit:10;" d="M1820.72,1255.94
				c0,7.82,6.34,14.16,14.16,14.16c7.82,0,14.16-6.34,14.16-14.16c0-7.82-6.34-14.16-14.16-14.16
				C1827.06,1241.78,1820.72,1248.12,1820.72,1255.94L1820.72,1255.94z"></path>
		</g>
	</g>
	<g>
		<g id="LWPOLYLINE_66_">
			
				<rect x="1755.23" y="990.63" style="fill:none;stroke:#000000;stroke-linecap:round;stroke-linejoin:round;stroke-miterlimit:10;" width="105.85" height="105.85"></rect>
		</g>
		<g id="LWPOLYLINE_65_">
			<path style="fill:none;stroke:#000000;stroke-linecap:round;stroke-linejoin:round;stroke-miterlimit:10;" d="M1770.22,999.45
				l67,0c3.41,0,6.18,2.76,6.18,6.17c0,0,0,75.87,0,75.87c0,3.41-2.76,6.18-6.17,6.18c0,0-67,0-67,0c-3.41,0-6.17-2.76-6.17-6.17
				c0,0,0-75.87,0-75.87C1764.05,1002.22,1766.82,999.45,1770.22,999.45z"></path>
		</g>
		<g id="LWPOLYLINE_64_">
			<path style="fill:none;stroke:#000000;stroke-linecap:round;stroke-linejoin:round;stroke-miterlimit:10;" d="M1820.05,1025.92
				c0-3.42,2.77-6.19,6.19-6.19c3.42,0,6.19,2.77,6.19,6.19c0,3.42-2.77,6.19-6.19,6.19
				C1822.82,1032.11,1820.05,1029.33,1820.05,1025.92z"></path>
		</g>
	</g>
	<g>
		
			<rect x="-56.77" y="732.39" transform="matrix(6.123234e-17 -1 1 6.123234e-17 -632.1946 891.0018)" style="fill:none;stroke:#000000;stroke-linecap:round;stroke-linejoin:round;stroke-miterlimit:10;" width="372.34" height="58.41"></rect>
		
			<line style="fill:none;stroke:#000000;stroke-linecap:round;stroke-linejoin:round;stroke-miterlimit:10;" x1="112.5" y1="947.83" x2="112.5" y2="575.49"></line>
		
			<rect x="116.79" y="820.42" transform="matrix(6.123234e-17 -1 1 6.123234e-17 -707.9171 948.9366)" style="fill:none;stroke:#000000;stroke-linecap:round;stroke-linejoin:round;stroke-miterlimit:10;" width="7.44" height="16.02"></rect>
		
			<rect x="116.79" y="571.53" transform="matrix(6.123234e-17 -1 1 6.123234e-17 -459.025 700.0445)" style="fill:none;stroke:#000000;stroke-linecap:round;stroke-linejoin:round;stroke-miterlimit:10;" width="7.44" height="16.02"></rect>
		
			<rect x="116.79" y="935.77" transform="matrix(6.123234e-17 -1 1 6.123234e-17 -823.2739 1064.2935)" style="fill:none;stroke:#000000;stroke-linecap:round;stroke-linejoin:round;stroke-miterlimit:10;" width="7.44" height="16.02"></rect>
		
			<line style="fill:none;stroke:#000000;stroke-linecap:round;stroke-linejoin:round;stroke-miterlimit:10;" x1="128.52" y1="824.71" x2="128.52" y2="583.26"></line>
		
			<rect x="66.6" y="878.14" transform="matrix(6.123234e-17 -1 1 6.123234e-17 -765.5513 1006.6593)" style="fill:none;stroke:#000000;stroke-linecap:round;stroke-linejoin:round;stroke-miterlimit:10;" width="107.92" height="15.93"></rect>
	</g>
	<g>
		
			<rect x="-57.58" y="1262.76" transform="matrix(6.123234e-17 -1 1 6.123234e-17 -1162.5619 1421.369)" style="fill:none;stroke:#000000;stroke-linecap:round;stroke-linejoin:round;stroke-miterlimit:10;" width="373.96" height="58.41"></rect>
		
			<line style="fill:none;stroke:#000000;stroke-linecap:round;stroke-linejoin:round;stroke-miterlimit:10;" x1="112.5" y1="1479.01" x2="112.5" y2="1105.05"></line>
		
			<rect x="116.79" y="1351.59" transform="matrix(6.123234e-17 -1 1 6.123234e-17 -1239.0931 1480.1127)" style="fill:none;stroke:#000000;stroke-linecap:round;stroke-linejoin:round;stroke-miterlimit:10;" width="7.44" height="16.02"></rect>
		
			<rect x="116.79" y="1101.08" transform="matrix(6.123234e-17 -1 1 6.123234e-17 -988.5835 1229.603)" style="fill:none;stroke:#000000;stroke-linecap:round;stroke-linejoin:round;stroke-miterlimit:10;" width="7.44" height="16.02"></rect>
		
			<rect x="116.79" y="1466.95" transform="matrix(6.123234e-17 -1 1 6.123234e-17 -1354.45 1595.4695)" style="fill:none;stroke:#000000;stroke-linecap:round;stroke-linejoin:round;stroke-miterlimit:10;" width="7.44" height="16.02"></rect>
		
			<line style="fill:none;stroke:#000000;stroke-linecap:round;stroke-linejoin:round;stroke-miterlimit:10;" x1="128.52" y1="1355.88" x2="128.52" y2="1112.81"></line>
		
			<rect x="66.6" y="1409.32" transform="matrix(6.123234e-17 -1 1 6.123234e-17 -1296.7273 1537.8353)" style="fill:none;stroke:#000000;stroke-linecap:round;stroke-linejoin:round;stroke-miterlimit:10;" width="107.92" height="15.93"></rect>
	</g>
	<g>
		
			<rect x="314.88" y="1607.82" transform="matrix(-1 -1.224647e-16 1.224647e-16 -1 1056.6816 3274.0391)" style="fill:none;stroke:#000000;stroke-linecap:round;stroke-linejoin:round;stroke-miterlimit:10;" width="426.92" height="58.41"></rect>
		
			<line style="fill:none;stroke:#000000;stroke-linecap:round;stroke-linejoin:round;stroke-miterlimit:10;" x1="741.86" y1="1653.92" x2="314.94" y2="1653.92"></line>
		
			<rect x="600.07" y="1637.9" transform="matrix(-1 -1.224647e-16 1.224647e-16 -1 1207.5874 3291.8267)" style="fill:none;stroke:#000000;stroke-linecap:round;stroke-linejoin:round;stroke-miterlimit:10;" width="7.44" height="16.02"></rect>
		
			<rect x="315.27" y="1637.9" transform="matrix(-1 -1.224647e-16 1.224647e-16 -1 637.9774 3291.8267)" style="fill:none;stroke:#000000;stroke-linecap:round;stroke-linejoin:round;stroke-miterlimit:10;" width="7.44" height="16.02"></rect>
		
			<rect x="734.09" y="1637.9" transform="matrix(-1 -1.224647e-16 1.224647e-16 -1 1475.6299 3291.8267)" style="fill:none;stroke:#000000;stroke-linecap:round;stroke-linejoin:round;stroke-miterlimit:10;" width="7.44" height="16.02"></rect>
		
			<line style="fill:none;stroke:#000000;stroke-linecap:round;stroke-linejoin:round;stroke-miterlimit:10;" x1="600.07" y1="1637.9" x2="322.71" y2="1637.9"></line>
		
			<rect x="607.51" y="1637.9" transform="matrix(-1 -1.224647e-16 1.224647e-16 -1 1341.6086 3291.7383)" style="fill:none;stroke:#000000;stroke-linecap:round;stroke-linejoin:round;stroke-miterlimit:10;" width="126.58" height="15.93"></rect>
	</g>
	<g>
		
			<rect x="1454.05" y="1607.82" transform="matrix(-1 -1.224647e-16 1.224647e-16 -1 3229.2278 3274.0391)" style="fill:none;stroke:#000000;stroke-linecap:round;stroke-linejoin:round;stroke-miterlimit:10;" width="321.13" height="58.41"></rect>
		
			<line style="fill:none;stroke:#000000;stroke-linecap:round;stroke-linejoin:round;stroke-miterlimit:10;" x1="1775.24" y1="1653.92" x2="1454.11" y2="1653.92"></line>
		
			<rect x="1652.55" y="1637.9" transform="matrix(-1 -1.224647e-16 1.224647e-16 -1 3312.5498 3291.8267)" style="fill:none;stroke:#000000;stroke-linecap:round;stroke-linejoin:round;stroke-miterlimit:10;" width="7.44" height="16.02"></rect>
		
			<rect x="1454.44" y="1637.9" transform="matrix(-1 -1.224647e-16 1.224647e-16 -1 2916.314 3291.8267)" style="fill:none;stroke:#000000;stroke-linecap:round;stroke-linejoin:round;stroke-miterlimit:10;" width="7.44" height="16.02"></rect>
		
			<rect x="1767.47" y="1637.9" transform="matrix(-1 -1.224647e-16 1.224647e-16 -1 3542.3857 3291.8267)" style="fill:none;stroke:#000000;stroke-linecap:round;stroke-linejoin:round;stroke-miterlimit:10;" width="7.44" height="16.02"></rect>
		
			<line style="fill:none;stroke:#000000;stroke-linecap:round;stroke-linejoin:round;stroke-miterlimit:10;" x1="1652.55" y1="1637.9" x2="1461.88" y2="1637.9"></line>
		
			<rect x="1660" y="1637.9" transform="matrix(-1 -1.224647e-16 1.224647e-16 -1 3427.4678 3291.7383)" style="fill:none;stroke:#000000;stroke-linecap:round;stroke-linejoin:round;stroke-miterlimit:10;" width="107.48" height="15.93"></rect>
	</g>
	<g>
		
			<rect x="923.69" y="1607.82" transform="matrix(-1 -1.224647e-16 1.224647e-16 -1 2168.5657 3274.0391)" style="fill:none;stroke:#000000;stroke-linecap:round;stroke-linejoin:round;stroke-miterlimit:10;" width="321.18" height="58.41"></rect>
		
			<line style="fill:none;stroke:#000000;stroke-linecap:round;stroke-linejoin:round;stroke-miterlimit:10;" x1="1244.93" y1="1653.92" x2="923.76" y2="1653.92"></line>
		
			<rect x="1122.25" y="1637.9" transform="matrix(-1 -1.224647e-16 1.224647e-16 -1 2251.9353 3291.8267)" style="fill:none;stroke:#000000;stroke-linecap:round;stroke-linejoin:round;stroke-miterlimit:10;" width="7.44" height="16.02"></rect>
		
			<rect x="924.08" y="1637.9" transform="matrix(-1 -1.224647e-16 1.224647e-16 -1 1855.6044 3291.8267)" style="fill:none;stroke:#000000;stroke-linecap:round;stroke-linejoin:round;stroke-miterlimit:10;" width="7.44" height="16.02"></rect>
		
			<rect x="1237.16" y="1637.9" transform="matrix(-1 -1.224647e-16 1.224647e-16 -1 2481.7712 3291.8267)" style="fill:none;stroke:#000000;stroke-linecap:round;stroke-linejoin:round;stroke-miterlimit:10;" width="7.44" height="16.02"></rect>
		
			<line style="fill:none;stroke:#000000;stroke-linecap:round;stroke-linejoin:round;stroke-miterlimit:10;" x1="1122.25" y1="1637.9" x2="931.52" y2="1637.9"></line>
		
			<rect x="1129.69" y="1637.9" transform="matrix(-1 -1.224647e-16 1.224647e-16 -1 2366.8533 3291.7383)" style="fill:none;stroke:#000000;stroke-linecap:round;stroke-linejoin:round;stroke-miterlimit:10;" width="107.48" height="15.93"></rect>
	</g>
	<g>
		<g id="LWPOLYLINE_445_">
			
				<rect x="1761.28" y="816.41" style="fill:none;stroke:#000000;stroke-linecap:round;stroke-linejoin:round;stroke-miterlimit:10;" width="102.6" height="104.68"></rect>
		</g>
		<g>
			<g id="LWPOLYLINE_440_">
				<polyline style="fill:none;stroke:#000000;stroke-linecap:round;stroke-linejoin:round;stroke-miterlimit:10;" points="
					1845.78,894.2 1812.58,855.67 1812.58,881.83 1779.37,843.3 				"></polyline>
			</g>
			<g id="LWPOLYLINE_439_">
				<path style="fill:none;stroke:#000000;stroke-linecap:round;stroke-linejoin:round;stroke-miterlimit:10;" d="M1812.57,897.81
					c-16.05,0-29.06-13.01-29.06-29.06c0-16.05,13.01-29.06,29.06-29.07c16.05,0,29.07,13.01,29.07,29.07
					C1841.64,884.8,1828.63,897.81,1812.57,897.81z"></path>
			</g>
		</g>
	</g>
	<g>
		<path style="fill:none;stroke:#000000;stroke-linecap:round;stroke-linejoin:round;stroke-miterlimit:10;" d="M1520.67,771.14
			c70.16,0,127.6-56.76,127.6-126.92h-126.55"></path>
		
			<rect x="1510.96" y="633.47" transform="matrix(9.143246e-11 1 -1 9.143246e-11 2155.1772 -874.3076)" style="fill:none;stroke:#000000;stroke-linecap:round;stroke-linejoin:round;stroke-miterlimit:10;" width="7.56" height="13.94"></rect>
		
			<rect x="1510.96" y="767.95" transform="matrix(9.263505e-11 1 -1 9.263505e-11 2289.658 -739.8271)" style="fill:none;stroke:#000000;stroke-linecap:round;stroke-linejoin:round;stroke-miterlimit:10;" width="7.56" height="13.94"></rect>
	</g>
	<g>
		<path style="fill:none;stroke:#000000;stroke-linecap:round;stroke-linejoin:round;stroke-miterlimit:10;" d="M1588.48,497.17
			c0-90.01,72.81-163.68,162.81-163.68v162.34"></path>
		
			<rect x="1751.29" y="495.82" transform="matrix(-1 -1.224647e-16 1.224647e-16 -1 3512.2842 1009.5275)" style="fill:none;stroke:#000000;stroke-linecap:round;stroke-linejoin:round;stroke-miterlimit:10;" width="9.7" height="17.88"></rect>
		
			<rect x="1578.78" y="495.82" transform="matrix(-1 -1.224647e-16 1.224647e-16 -1 3167.2659 1009.5275)" style="fill:none;stroke:#000000;stroke-linecap:round;stroke-linejoin:round;stroke-miterlimit:10;" width="9.7" height="17.88"></rect>
	</g>
	<g>
		<g>
			<g id="LWPOLYLINE_214_">
				<path style="fill:none;stroke:#000000;stroke-linecap:round;stroke-linejoin:round;stroke-miterlimit:10;" d="M1203.8,693.21
					l-47.06,0.12c-6.63,0.02-12.49,4.22-14.5,10.41c-7.31,22.44-7.25,46.57,0.19,68.98c2.05,6.17,7.93,10.35,14.56,10.33l47.06-0.12
					"></path>
			</g>
			<g id="LWPOLYLINE_213_">
				<path style="fill:none;stroke:#000000;stroke-linecap:round;stroke-linejoin:round;stroke-miterlimit:10;" d="M1190.82,762.03
					c0.01,4.95-4.08,8.98-9.14,8.99l-14.66,0.04c-3.35,0.01-6.32-2.13-7.31-5.27c-5.67-17.98-5.73-37.21-0.15-55.22
					c0.98-3.14,3.93-5.29,7.28-5.31l14.66-0.04c5.06-0.01,9.17,3.99,9.19,8.95"></path>
			</g>
			<g id="LWPOLYLINE_212_">
				<path style="fill:none;stroke:#000000;stroke-linecap:round;stroke-linejoin:round;stroke-miterlimit:10;" d="M1181.49,699.25
					l-24.73,0.07c-3.98,0.01-7.49,2.53-8.7,6.24c-6.93,21.25-6.87,44.1,0.18,65.31c1.23,3.7,4.76,6.21,8.74,6.2l24.73-0.06
					c5.06-0.01,9.15-4.04,9.14-8.99l-0.16-59.81C1190.66,703.24,1186.55,699.24,1181.49,699.25z"></path>
			</g>
			<g id="LWPOLYLINE_211_">
				<path style="fill:none;stroke:#000000;stroke-linecap:round;stroke-linejoin:round;stroke-miterlimit:10;" d="M1188.03,738.11
					c-0.01-2.22-1.85-4.02-4.12-4.02c-2.27,0.01-4.1,1.82-4.1,4.04c0.01,2.22,1.85,4.02,4.12,4.01
					C1186.2,742.14,1188.04,740.34,1188.03,738.11z"></path>
			</g>
		</g>
		<g>
			<g id="LWPOLYLINE_210_">
				
					<rect x="902.38" y="793.79" style="fill:none;stroke:#000000;stroke-linecap:round;stroke-linejoin:round;stroke-miterlimit:10;" width="301.66" height="122.08"></rect>
			</g>
			<g id="LWPOLYLINE_209_">
				<path style="fill:none;stroke:#000000;stroke-linecap:round;stroke-linejoin:round;stroke-miterlimit:10;" d="M944.08,906.11
					l196.9-0.01c28.91,0,52.35-22.96,52.35-51.27c0-28.32-23.45-51.27-52.36-51.27l-196.9,0.01c-13.82,0-25.07,10.88-25.23,24.41
					l0.01,53.72c0,13.49,11.17,24.42,24.94,24.42"></path>
			</g>
			<g id="LWPOLYLINE_208_">
				<path style="fill:none;stroke:#000000;stroke-linecap:round;stroke-linejoin:round;stroke-miterlimit:10;" d="M1006.33,892.16
					l134.65,0c21.05,0,38.11-16.71,38.11-37.33c0-20.61-17.07-37.32-38.12-37.32l-132.69,0c-20.28,0.02-36.99,15.57-38.05,35.4
					C969.13,873.51,985.29,891.08,1006.33,892.16z"></path>
			</g>
			<g id="LWPOLYLINE_207_">
				<path style="fill:none;stroke:#000000;stroke-linecap:round;stroke-linejoin:round;stroke-miterlimit:10;" d="M1147.95,854.83
					c0-3.77-3.13-6.83-6.98-6.83c-3.86,0-6.98,3.06-6.98,6.83c0,3.78,3.13,6.83,6.98,6.83
					C1144.82,861.66,1147.95,858.61,1147.95,854.83z"></path>
			</g>
		</g>
		<g>
			<g id="LWPOLYLINE_206_">
				<path style="fill:none;stroke:#000000;stroke-linecap:round;stroke-linejoin:round;stroke-miterlimit:10;" d="M1144.63,641.52
					l-49.37,0c-17.18,0-31.1-14.22-31.1-31.76c0-17.54,13.93-31.76,31.11-31.77l49.37,0c4.29,0,7.77,3.55,7.77,7.94l0,47.65
					C1152.4,637.97,1148.92,641.52,1144.63,641.52z"></path>
			</g>
			<g id="LWPOLYLINE_205_">
				<path style="fill:none;stroke:#000000;stroke-linecap:round;stroke-linejoin:round;stroke-miterlimit:10;" d="M1095.26,584.35
					l27.61,0.01c13.74,0,24.88,11.37,24.88,25.41c0,14.03-11.14,25.41-24.88,25.42l-27.61-0.01c-13.74,0-24.88-11.37-24.88-25.41
					C1070.38,595.73,1081.52,584.35,1095.26,584.35z"></path>
			</g>
			<g id="LWPOLYLINE_204_">
				<path style="fill:none;stroke:#000000;stroke-linecap:round;stroke-linejoin:round;stroke-miterlimit:10;" d="M1105.27,600.23
					l20.18,0.01c5.15,0,9.33,4.27,9.33,9.53s-4.18,9.53-9.33,9.53l-20.18-0.01c-5.15,0-9.33-4.26-9.33-9.53
					C1095.94,604.49,1100.12,600.23,1105.27,600.23z"></path>
			</g>
		</g>
	</g>
	<g>
		<path style="fill:none;stroke:#000000;stroke-linecap:round;stroke-linejoin:round;stroke-miterlimit:10;" d="M889.84,778.55
			c-70.16,0-127.6-56.76-127.6-126.92h126.55"></path>
		
			<rect x="891.98" y="640.88" transform="matrix(-9.119212e-11 1 -1 -9.119212e-11 1543.6102 -247.9107)" style="fill:none;stroke:#000000;stroke-linecap:round;stroke-linejoin:round;stroke-miterlimit:10;" width="7.56" height="13.94"></rect>
		
			<rect x="891.98" y="775.36" transform="matrix(-9.263541e-11 1 -1 -9.263541e-11 1678.0908 -113.4302)" style="fill:none;stroke:#000000;stroke-linecap:round;stroke-linejoin:round;stroke-miterlimit:10;" width="7.56" height="13.94"></rect>
	</g>
	<g>
		<g>
			<g id="LWPOLYLINE_438_">
				<path style="fill:none;stroke:#000000;stroke-linecap:round;stroke-linejoin:round;stroke-miterlimit:10;" d="M1409.98,917.42
					l0-43.72c0-6.16,3.89-11.61,9.63-13.5c20.84-6.85,43.25-6.85,64.09,0c5.74,1.89,9.63,7.34,9.63,13.5l0,43.72"></path>
			</g>
			<g id="LWPOLYLINE_437_">
				<path style="fill:none;stroke:#000000;stroke-linecap:round;stroke-linejoin:round;stroke-miterlimit:10;" d="M1473.89,905.19
					c4.6,0,8.33-3.81,8.33-8.51l0-13.62c0-3.12-1.99-5.87-4.91-6.78c-16.72-5.23-34.59-5.23-51.3,0c-2.92,0.91-4.91,3.66-4.91,6.78
					l0,13.62c0,4.7,3.73,8.51,8.34,8.51"></path>
			</g>
			<g id="LWPOLYLINE_436_">
				<path style="fill:none;stroke:#000000;stroke-linecap:round;stroke-linejoin:round;stroke-miterlimit:10;" d="M1415.54,896.67
					l0-22.97c0-3.7,2.33-6.97,5.78-8.1c19.73-6.49,40.95-6.49,60.68,0c3.44,1.14,5.78,4.41,5.78,8.1l0,22.98
					c0,4.7-3.73,8.51-8.33,8.51l-55.57,0C1419.27,905.18,1415.54,901.37,1415.54,896.67z"></path>
			</g>
			<g id="LWPOLYLINE_435_">
				<path style="fill:none;stroke:#000000;stroke-linecap:round;stroke-linejoin:round;stroke-miterlimit:10;" d="M1451.66,902.65
					c-2.07,0-3.74-1.71-3.74-3.82c0-2.11,1.68-3.82,3.74-3.82c2.06,0,3.74,1.71,3.74,3.82
					C1455.4,900.94,1453.73,902.65,1451.66,902.65z"></path>
			</g>
		</g>
		<g>
			<g id="LWPOLYLINE_434_">
				<path style="fill:none;stroke:#000000;stroke-linecap:round;stroke-linejoin:round;stroke-miterlimit:10;" d="M1306.38,603.56
					l49.1,0c17.08,0,30.93,14.14,30.93,31.58c0,17.44-13.85,31.59-30.93,31.59l-49.1,0c-4.27,0-7.73-3.53-7.73-7.89l0-47.38
					C1298.65,607.09,1302.11,603.55,1306.38,603.56z"></path>
			</g>
			<g id="LWPOLYLINE_433_">
				<path style="fill:none;stroke:#000000;stroke-linecap:round;stroke-linejoin:round;stroke-miterlimit:10;" d="M1355.47,660.41
					l-27.46-0.01c-13.66,0-24.74-11.31-24.74-25.26c0-13.96,11.08-25.27,24.74-25.27l27.46,0.01c13.66,0,24.74,11.31,24.74,25.26
					C1380.22,649.09,1369.14,660.41,1355.47,660.41z"></path>
			</g>
			<g id="LWPOLYLINE_432_">
				<path style="fill:none;stroke:#000000;stroke-linecap:round;stroke-linejoin:round;stroke-miterlimit:10;" d="M1345.52,644.62
					l-20.07-0.01c-5.12,0-9.28-4.24-9.28-9.47c0-5.23,4.15-9.47,9.28-9.47l20.07,0.01c5.12,0,9.28,4.24,9.28,9.47
					C1354.79,640.38,1350.64,644.62,1345.52,644.62z"></path>
			</g>
		</g>
		<g>
			<g id="CIRCLE_184_">
				<path style="fill:none;stroke:#000000;stroke-linecap:round;stroke-linejoin:round;stroke-miterlimit:10;" d="M1266.73,890.46
					c0-3.96,3.26-7.16,7.28-7.16c4.02,0,7.28,3.21,7.28,7.16c0,3.96-3.26,7.16-7.28,7.16
					C1269.99,897.62,1266.73,894.41,1266.73,890.46L1266.73,890.46z"></path>
			</g>
			<g id="LWPOLYLINE_431_">
				<path style="fill:none;stroke:#000000;stroke-linecap:round;stroke-linejoin:round;stroke-miterlimit:10;" d="M1379.2,785.12
					c0-19.77-14.24-35.79-31.82-35.79c0,0-79.64,0-79.64,0c-6.59,0-11.93,6.01-11.93,13.42l0,132.18c0,7.41,5.34,13.42,11.93,13.42
					l99.53,0c6.59,0,11.93-6.01,11.93-13.42L1379.2,785.12z"></path>
			</g>
			<g id="LWPOLYLINE_430_">
				<path style="fill:none;stroke:#000000;stroke-linecap:round;stroke-linejoin:round;stroke-miterlimit:10;" d="M1388.3,917.29
					l0-132.18c0-24.71-18.1-44.74-40.43-44.74c0,0-101.16,0-101.16,0l0,176.92L1388.3,917.29l0-132.18
					c0-24.71-18.1-44.74-40.43-44.74c0,0-101.16,0-101.16,0"></path>
			</g>
		</g>
	</g>
	<g>
		
			<rect x="80.92" y="497.94" transform="matrix(-1.836970e-16 1 -1 -1.836970e-16 656.7342 397.9107)" width="96.98" height="58.76"></rect>
		
			<rect x="49.59" y="997.94" transform="matrix(-1.836970e-16 1 -1 -1.836970e-16 1156.7354 897.9119)" width="159.64" height="58.76"></rect>
		
			<rect x="35.62" y="1543.23" transform="matrix(-1.836970e-16 1 -1 -1.836970e-16 1702.0238 1443.2003)" width="187.58" height="58.76"></rect>
		
			<rect x="100.03" y="1607.64" transform="matrix(-1 -1.224647e-16 1.224647e-16 -1 414.9113 3274.0391)" width="214.85" height="58.76"></rect>
		
			<rect x="738.13" y="1607.64" transform="matrix(-1 -1.224647e-16 1.224647e-16 -1 1662.9082 3274.0391)" width="186.65" height="58.76"></rect>
		
			<rect x="1243.36" y="1607.64" transform="matrix(-1 -1.224647e-16 1.224647e-16 -1 2699.1184 3274.0391)" width="212.39" height="58.76"></rect>
		
			<rect x="755.32" y="-178.28" transform="matrix(-1.836970e-16 1 -1 -1.836970e-16 1272.1552 -278.3073)" width="39.82" height="1350.4"></rect>
		
			<rect x="150.96" y="1529.66" transform="matrix(-1.836970e-16 1 -1 -1.836970e-16 1762.4333 1382.6936)" width="77.81" height="85.81"></rect>
		
			<rect x="1804.41" y="435.48" transform="matrix(-1.836970e-16 1 -1 -1.836970e-16 2318.6357 -1325.6169)" width="35.44" height="122.07"></rect>
		
			<rect x="1286.91" y="1053.1" transform="matrix(-1.836970e-16 1 -1 -1.836970e-16 2953.1345 -808.1219)" width="1187.43" height="38.81"></rect>
		
			<rect x="1804.29" y="871.33" transform="matrix(-1.836970e-16 1 -1 -1.836970e-16 2739.5066 -883.2252)" width="14.16" height="113.61"></rect>
		
			<rect x="1801.12" y="926.25" transform="matrix(-1.836970e-16 1 -1 -1.836970e-16 2791.658 -828.7328)" width="18.15" height="110.42"></rect>
		
			<rect x="1725.75" y="950.31" transform="matrix(-1.836970e-16 1 -1 -1.836970e-16 2716.2832 -804.679)" width="69.47" height="10.99"></rect>
		
			<rect x="1444.1" y="842.34" transform="matrix(-1.836970e-16 1 -1 -1.836970e-16 2370.3516 -665.4036)" width="147.56" height="20.27"></rect>
		
			<rect x="1378.23" y="785.44" transform="matrix(-1.836970e-16 1 -1 -1.836970e-16 2313.4553 -460.8144)" width="17.8" height="281.75"></rect>
		
			<rect x="1083.3" y="717.83" transform="matrix(-1.836970e-16 1 -1 -1.836970e-16 2018.5286 -164.6234)" width="16.55" height="418.24"></rect>
		
			<rect x="819.94" y="848.16" transform="matrix(-1.836970e-16 1 -1 -1.836970e-16 1750.8556 -34.2796)" width="145.25" height="20.27"></rect>
		
			<rect x="824.84" y="566.21" transform="matrix(-1.836970e-16 1 -1 -1.836970e-16 1468.9124 -316.1312)" width="135.36" height="20.36"></rect>
		
			<rect x="1051.92" y="351.7" transform="matrix(-1.836970e-16 1 -1 -1.836970e-16 1589.7177 -543.8794)" width="29.75" height="342.45"></rect>
		
			<rect x="1016.37" y="692.72" transform="matrix(-1.836970e-16 1 -1 -1.836970e-16 1939.3584 -512.1934)" width="418.82" height="41.73"></rect>
		
			<rect x="1185.26" y="650.5" transform="matrix(-1.836970e-16 1 -1 -1.836970e-16 1870.8395 -512.8702)" width="13.19" height="56.97"></rect>
		
			<rect x="1082.28" y="600.38" transform="matrix(-1.836970e-16 1 -1 -1.836970e-16 1767.6895 -553.421)" width="156.55" height="13.51"></rect>
		
			<rect x="1191.55" y="623.14" transform="matrix(-1.836970e-16 1 -1 -1.836970e-16 1921.4166 -662.9225)" width="201.25" height="12.21"></rect>
		
			<rect x="1265.64" y="707.72" transform="matrix(-1.836970e-16 1 -1 -1.836970e-16 2005.9995 -537.4992)" width="12.22" height="53.05"></rect>
		
			<rect x="1373.39" y="383.17" transform="matrix(-1.836970e-16 1 -1 -1.836970e-16 1911.1825 -861.9709)" width="26.38" height="282.87"></rect>
		
			<rect x="1461.84" y="570.93" transform="matrix(-1.836970e-16 1 -1 -1.836970e-16 2098.9404 -936.8148)" width="112.08" height="20.27"></rect>
		
			<rect x="1256.65" y="1518.6" transform="matrix(-1.836970e-16 1 -1 -1.836970e-16 2887.6555 188.478)" width="185.87" height="38.94"></rect>
		
			<rect x="729.84" y="1514.47" transform="matrix(-1.836970e-16 1 -1 -1.836970e-16 2352.553 715.3224)" width="177.55" height="38.94"></rect>
		
			<rect x="658.42" y="1276.13" transform="matrix(-1.836970e-16 1 -1 -1.836970e-16 2114.218 452.2086)" width="345.18" height="14.16"></rect>
		
			<rect x="803.17" y="1095.99" transform="matrix(-1.836970e-16 1 -1 -1.836970e-16 1928.01 307.4502)" width="14.22" height="43.48"></rect>
		
			<rect x="838.91" y="873.45" transform="matrix(-1.836970e-16 1 -1 -1.836970e-16 1770.653 78.6193)" width="14.22" height="102.37"></rect>
		
			<rect x="609.41" y="905.51" transform="matrix(-1.836970e-16 1 -1 -1.836970e-16 1541.0959 308.1189)" width="14.16" height="38.2"></rect>
		
			<rect x="501.85" y="1013.06" transform="matrix(-1.836970e-16 1 -1 -1.836970e-16 1624.6108 415.6699)" width="205.24" height="14.16"></rect>
		
			<rect x="606.21" y="1101.8" transform="matrix(-1.836970e-16 1 -1 -1.836970e-16 1731.0502 504.4101)" width="14.22" height="31.86"></rect>
		
			<rect x="366.1" y="786.83" transform="matrix(-1.836970e-16 1 -1 -1.836970e-16 1388.2231 641.8635)" width="14.16" height="456.43"></rect>
		
			<rect x="1790.44" y="1591.54" transform="matrix(-1.836970e-16 1 -1 -1.836970e-16 3456.665 -182.8029)" width="58.58" height="90.79"></rect>
		
			<rect x="1496.94" y="432.33" transform="matrix(-1.836970e-16 1 -1 -1.836970e-16 2011.1217 -1018.1588)" width="35.4" height="128.3"></rect>
	</g>
</g>
</svg>
