<?xml version="1.0" encoding="utf-8"?>
<!-- Generator: Adobe Illustrator 24.1.2, SVG Export Plug-In . SVG Version: 6.00 Build 0)  -->
<svg version="1.1" id="Layer_1" xmlns="http://www.w3.org/2000/svg" xmlns:xlink="http://www.w3.org/1999/xlink" x="0px" y="0px" width="2000px" height="2000px" viewBox="0 0 2000 2000" style="enable-background:new 0 0 2000 2000;" xml:space="preserve">
<path id="background" style="fill:#FFFFFF;" d="M1900,1309.63v0.45l0,157.82c0,0,0,0,0,0s0,0,0,0v0v0v10.03c0,0,0,0,0,0s0,0,0,0
	v8.95c0,0.36-0.29,0.65-0.65,0.65l0,70.97l-78.78,0l-991.88,0l-51.92,0l-187.1,0l-144.13,0l0-16.42h-8.3l0,160.77
	c0,0.01,0,0.01,0,0.02c0,0.01,0,0.01,0,0.02c0,0.04-0.02,0.08-0.03,0.12c-0.01,0.04-0.01,0.07-0.03,0.11
	c-0.02,0.04-0.05,0.08-0.08,0.11c-0.02,0.03-0.04,0.06-0.06,0.09c-0.04,0.03-0.08,0.06-0.12,0.08c-0.03,0.02-0.05,0.04-0.08,0.05
	c-0.08,0.03-0.16,0.05-0.25,0.05c0,0,0,0,0,0h0c0,0,0,0,0,0c-0.01,0-0.02,0-0.04,0c-43.38-2.49-83.84-21.13-113.94-52.47
	c-28.47-29.65-45.19-68.1-47.54-108.95h-8.57l0,16.42l-76.99,0l-48.34,0H100l0-36.7l0-1145.85l0-78.78l198.08,0
	c0-0.36,0.29-0.65,0.65-0.65l129.81,0l34.01,0h0c0,0,0,0,0,0h12.53c0,0,0,0,0,0l64.27,0c0,0,0,0,0,0h0h10.03h0h0h8.95
	c0.36,0,0.65,0.29,0.65,0.65l195.64,0c0-0.36,0.29-0.65,0.65-0.65l120.85,0l42.97,0c0,0,0,0,0,0h12.53c0,0,0,0,0,0l46.37,0
	c0,0,0,0,0,0h0h10.03c0,0,0,0,0,0s0,0,0,0h8.95c0.36,0,0.65,0.29,0.65,0.65l195.64,0c0-0.36,0.29-0.65,0.65-0.65l163.82,0
	c0,0,0,0,0,0h12.53c0,0,0,0,0,0h11.64l169.01,0c0,0,0,0,0,0h0h10.03c0,0,0,0,0,0s0,0,0,0h8.95c0.36,0,0.65,0.29,0.65,0.65l195.64,0
	c0-0.36,0.29-0.65,0.65-0.65l66.25,0l50.13,0c0,0,0,0,0,0s0,0,0,0s0,0,0,0h7.16c0,0,0,0,0,0l8.95,0c0.36,0,0.65,0.29,0.65,0.65
	l0,100.27l0,63.55c0,0,0,0,0,0v12.53c0,0,0,0,0,0v5.19c0,0,0,0,0,0v0v10.03c0,0,0,0,0,0s0,0,0,0v8.95c0,0.36-0.29,0.65-0.65,0.65
	c0,0,0,0,0,0l0,195.64c0.36,0,0.65,0.29,0.65,0.65l0,120.86l0,101.87c0,0,0,0,0,0s0,0,0,0v0v0v10.03c0,0,0,0,0,0s0,0,0,0v8.95
	c0,0.36-0.29,0.65-0.65,0.65c0,0,0,0,0,0l0,195.64c0.36,0,0.65,0.29,0.65,0.65l0,163.82c0,0,0,0,0,0L1900,1309.63
	C1900,1309.63,1900,1309.63,1900,1309.63z"></path>
<g id="h2">
	<path id="h2_path" style="fill:none;" d="M599.98,1525.6H148.6v-343.98h451.37V1525.6z"></path>
	<text id="h2_text" transform="matrix(1 0 0 1 385.9156 1386.6606)" style="font-family: GraphikLCG-Regular; font-size: 40px; text-anchor: middle; text-align: center;"></text>
</g>
<g id="h1">
	<path id="h1_path" style="fill:none;" d="M1242.11,1181.62H825.09V964.87h417.02V1181.62z"></path>
	<text id="h1_text" transform="matrix(1 0 0 1 1140.9092 1092.8524)" style="font-family: GraphikLCG-Regular; font-size: 40px; text-anchor: middle; text-align: center;"></text>
</g>
<g id="c1">
	<path id="c1_path" style="fill:none;" d="M1010.28,297.16v667.72H825.09v216.74H148.6V970.56v-673.4H1010.28z"></path>
	<text id="c1_text" transform="matrix(1 0 0 1 462.555 961.0034)" style="font-family: GraphikLCG-Regular; font-size: 40px; text-anchor: middle; text-align: center;"></text>
</g>
<g id="s2">
	<path id="s2_path" style="fill:none;" d="M1134.35,1525.6H812.87v-343.98h321.48V1525.6z"></path>
	<text id="s2_text" transform="matrix(1 0 0 1 971.8422 1294.3964)" style="font-family: GraphikLCG-Regular; font-size: 40px; text-anchor: middle; text-align: center;"></text>
</g>
<g id="s1">
	<path id="s1_path" style="fill:none;" d="M599.98,1181.62h212.9v343.98h-212.9V1181.62z"></path>
	<text id="s1_text" transform="matrix(1 0 0 1 665.7734 1294.3964)" style="font-family: GraphikLCG-Regular; font-size: 40px; text-anchor: middle; text-align: center;"></text>
</g>
<g id="r2">
	<path id="r2_path" style="fill:none;" d="M1899.34,964.87h-889.07V297.16h889.07V964.87z"></path>
	<text id="r2_text" transform="matrix(1 0 0 1 1240.7054 694.6261)" style="font-family: GraphikLCG-Regular; font-size: 40px; text-anchor: middle; text-align: center;"></text>
</g>
<g id="r1">
	<path id="r1_path" style="fill:none;" d="M1899.35,964.87v219.59v341.13h-764.99v-343.98h107.76V964.87H1899.35z"></path>
	<text id="r1_text" transform="matrix(1 0 0 1 1419.4562 1214.1846)" style="font-family: GraphikLCG-Regular; font-size: 40px; text-anchor: middle; text-align: center;"></text>
</g>
<path id="u9" style="fill:#FFFFFF;stroke:#FFFFFF;stroke-linecap:round;stroke-linejoin:round;stroke-miterlimit:10;" d="
	M643.04,1254.4c-8.65,0-15.66-7.01-15.66-15.66c0-8.65,7.01-15.66,15.66-15.66c8.65,0,15.66,7.01,15.66,15.66
	C658.69,1247.39,651.68,1254.4,643.04,1254.4z"></path>
<path id="u7" style="fill:#FFFFFF;stroke:#FFFFFF;stroke-linecap:round;stroke-linejoin:round;stroke-miterlimit:10;" d="
	M345.43,531.32c-8.65,0-15.66-7.01-15.66-15.66c0-8.65,7.01-15.66,15.66-15.66c8.65,0,15.66,7.01,15.66,15.66
	C361.09,524.31,354.08,531.32,345.43,531.32z"></path>
<path id="u8" style="fill:#FFFFFF;stroke:#FFFFFF;stroke-linecap:round;stroke-linejoin:round;stroke-miterlimit:10;" d="
	M345.43,1430.05c-8.65,0-15.66-7.01-15.66-15.66s7.01-15.66,15.66-15.66c8.65,0,15.66,7.01,15.66,15.66
	S354.08,1430.05,345.43,1430.05z"></path>
<g id="mebel">
	<g>
		<g>
			
				<rect x="1578.64" y="310.04" transform="matrix(4.663549e-13 -1 1 4.663549e-13 1178.418 1986.6591)" style="fill:none;stroke:#000000;stroke-linecap:round;stroke-linejoin:round;stroke-miterlimit:10;" width="7.8" height="188.17"></rect>
			<polygon style="fill:none;stroke:#000000;stroke-linecap:round;stroke-linejoin:round;stroke-miterlimit:10;" points="
				1511.98,392.41 1488.46,400.22 1676.62,400.22 1653.1,392.41 			"></polygon>
		</g>
		
			<rect x="1564.98" y="268.85" transform="matrix(6.123234e-17 -1 1 6.123234e-17 1172.5651 1992.512)" style="fill:none;stroke:#000000;stroke-linecap:round;stroke-linejoin:round;stroke-miterlimit:10;" width="35.12" height="282.25"></rect>
	</g>
	<g>
		<g>
			
				<rect x="979.71" y="590.01" style="fill:none;stroke:#000000;stroke-linecap:round;stroke-linejoin:round;stroke-miterlimit:10;" width="12.51" height="188.17"></rect>
			<polygon style="fill:none;stroke:#000000;stroke-linecap:round;stroke-linejoin:round;stroke-miterlimit:10;" points="
				1000.02,613.53 992.22,590.01 992.22,778.17 1000.02,754.65 			"></polygon>
		</g>
		
			<rect x="931.02" y="526.97" style="fill:none;stroke:#000000;stroke-linecap:round;stroke-linejoin:round;stroke-miterlimit:10;" width="69" height="318.01"></rect>
	</g>
	<g>
		<g>
			
				<rect x="1498.28" y="893.31" transform="matrix(6.123234e-17 -1 1 6.123234e-17 514.7883 2489.5828)" style="fill:none;stroke:#000000;stroke-linecap:round;stroke-linejoin:round;stroke-miterlimit:10;" width="7.8" height="188.17"></rect>
			<polygon style="fill:none;stroke:#000000;stroke-linecap:round;stroke-linejoin:round;stroke-miterlimit:10;" points="
				1431.62,975.69 1408.1,983.5 1596.27,983.5 1572.75,975.69 			"></polygon>
		</g>
		
			<rect x="1485.51" y="887.95" transform="matrix(6.123234e-17 -1 1 6.123234e-17 509.8177 2496.3181)" style="fill:none;stroke:#000000;stroke-linecap:round;stroke-linejoin:round;stroke-miterlimit:10;" width="35.12" height="210.6"></rect>
	</g>
	<g>
		<g>
			<g>
				
					<rect x="1406.98" y="943.61" style="fill:none;stroke:#000000;stroke-linecap:round;stroke-linejoin:round;stroke-miterlimit:10;" width="281.36" height="12.48"></rect>
				
					<rect x="1406.98" y="586.74" style="fill:none;stroke:#000000;stroke-linecap:round;stroke-linejoin:round;stroke-miterlimit:10;" width="281.36" height="356.87"></rect>
				<path style="fill:none;stroke:#000000;stroke-linecap:round;stroke-linejoin:round;stroke-miterlimit:10;" d="M1542.36,879.41
					l10.59,0l0,30.73c0,9.19,7.45,16.64,16.64,16.64l79.04,0c9.19,0,16.64-7.45,16.64-16.64l0-30.73l10.59,0l0,53.8
					c0,2.3-1.86,4.16-4.16,4.16l-248.08,0c-2.3,0-4.16-1.86-4.16-4.16l0-53.8h10.59v30.73c0,9.19,7.45,16.64,16.64,16.64l79.04,0
					c9.19,0,16.64-7.45,16.64-16.64V879.41z"></path>
				<path style="fill:none;stroke:#000000;stroke-linecap:round;stroke-linejoin:round;stroke-miterlimit:10;" d="M1423.62,597.14
					l248.08,0c2.3,0,4.16,1.86,4.16,4.16l0,278.11l-256.4,0l0-278.11C1419.46,599,1421.32,597.14,1423.62,597.14z"></path>
			</g>
		</g>
		
			<rect x="1681.32" y="878.68" transform="matrix(-5.027222e-07 1 -1 -5.027222e-07 2637.4048 -809.6522)" style="fill:none;stroke:#000000;stroke-linecap:round;stroke-linejoin:round;stroke-miterlimit:10;" width="84.42" height="70.39"></rect>
		
			<rect x="1329.57" y="878.68" transform="matrix(-5.027224e-07 1 -1 -5.027224e-07 2285.6602 -457.908)" style="fill:none;stroke:#000000;stroke-linecap:round;stroke-linejoin:round;stroke-miterlimit:10;" width="84.42" height="70.39"></rect>
	</g>
	<g>
		
			<rect x="1669.25" y="1397.12" transform="matrix(-2.169133e-05 1 -1 -2.169133e-05 3180.9197 -372.2262)" style="fill:none;stroke:#000000;stroke-linecap:round;stroke-linejoin:round;stroke-miterlimit:10;" width="214.65" height="14.39"></rect>
		
			<rect x="1479.93" y="1222.18" transform="matrix(-2.169133e-05 1 -1 -2.169133e-05 2991.5935 -182.9122)" style="fill:none;stroke:#000000;stroke-linecap:round;stroke-linejoin:round;stroke-miterlimit:10;" width="214.65" height="364.25"></rect>
		<path style="fill:none;stroke:#000000;stroke-linecap:round;stroke-linejoin:round;stroke-miterlimit:10;" d="M1695.36,1311.38
			l-273.45-0.01c-2.65,0-4.8,2.15-4.8,4.8l0,176.28c0,2.65,2.15,4.8,4.8,4.8l273.45,0.01L1695.36,1311.38z"></path>
		<path style="fill:none;stroke:#000000;stroke-linecap:round;stroke-linejoin:round;stroke-miterlimit:10;" d="M1695.36,1339.56
			l0-28.19l62.03,0c2.65,0,4.8,2.15,4.8,4.8l0,176.28c0,2.65-2.15,4.8-4.8,4.8l-62.03,0l0-28.19l35.43,0
			c10.6,0,19.19-8.59,19.19-19.18l0-91.13c0-10.6-8.59-19.19-19.18-19.19L1695.36,1339.56z"></path>
	</g>
	<g>
		
			<rect x="923.98" y="486.65" transform="matrix(1.225080e-14 1 -1 1.225080e-14 1607.4767 -532.4489)" style="fill:none;stroke:#000000;stroke-linecap:round;stroke-linejoin:round;stroke-miterlimit:10;" width="291.96" height="101.72"></rect>
		
			<line style="fill:none;stroke:#000000;stroke-linecap:round;stroke-linejoin:round;stroke-miterlimit:10;" x1="1116.54" y1="391.53" x2="1116.54" y2="683.5"></line>
	</g>
	<g>
		
			<rect x="1040.81" y="1304.3" transform="matrix(1.136262e-14 1 -1 1.136262e-14 2551.6223 158.7099)" style="fill:none;stroke:#000000;stroke-linecap:round;stroke-linejoin:round;stroke-miterlimit:10;" width="311.29" height="101.72"></rect>
		
			<line style="fill:none;stroke:#000000;stroke-linecap:round;stroke-linejoin:round;stroke-miterlimit:10;" x1="1243.04" y1="1199.52" x2="1243.04" y2="1510.81"></line>
	</g>
	<g>
		
			<rect x="171.94" y="1252.02" transform="matrix(2.772709e-12 1 -1 2.772709e-12 1547.4076 1062.4941)" style="fill:none;stroke:#000000;stroke-linecap:round;stroke-linejoin:round;stroke-miterlimit:10;" width="141.03" height="105.87"></rect>
		
			<line style="fill:none;stroke:#000000;stroke-linecap:round;stroke-linejoin:round;stroke-miterlimit:10;" x1="291.11" y1="1234.43" x2="291.11" y2="1375.47"></line>
	</g>
	<path style="fill:none;stroke:#000000;stroke-linecap:round;stroke-linejoin:round;stroke-miterlimit:10;" d="M1800.6,1073.99
		h-188.74c-1.89,0-3.42-1.53-3.42-3.42V979c0-1.89,1.53-3.42,3.42-3.42h188.74c1.89,0,3.42,1.53,3.42,3.42v91.57
		C1804.02,1072.46,1802.49,1073.99,1800.6,1073.99z"></path>
	<g>
		<path style="fill:none;stroke:#000000;stroke-linecap:round;stroke-linejoin:round;stroke-miterlimit:10;" d="M1681.84,1146.22
			c0,9.6,14.45,17.53,32.27,17.53c17.82,0,32.27-8.03,32.27-17.53v-51.36c0-4.04-3.27-7.31-7.31-7.31h-49.91
			c-4.04,0-7.31,3.27-7.31,7.31V1146.22z"></path>
		<path style="fill:none;stroke:#000000;stroke-linecap:round;stroke-linejoin:round;stroke-miterlimit:10;" d="M1670.1,1146.22
			c0,16.01,19.7,29.23,44,29.23s44-13.39,44-29.23v-39.6c0-6.48-5.25-11.73-11.73-11.73l0,0v51.33c0,9.5-14.45,17.53-32.27,17.53
			c-17.82,0-32.27-7.93-32.27-17.53v-51.33l0,0c-6.48,0-11.73,5.25-11.73,11.73V1146.22z"></path>
	</g>
	<g>
		
			<circle style="fill:none;stroke:#000000;stroke-linecap:round;stroke-linejoin:round;stroke-miterlimit:10;" cx="234.49" cy="1443.62" r="39.92"></circle>
		
			<circle style="fill:none;stroke:#000000;stroke-linecap:round;stroke-linejoin:round;stroke-miterlimit:10;" cx="234.49" cy="1443.62" r="35.22"></circle>
	</g>
	<g>
		<polygon style="fill:none;stroke:#000000;stroke-linecap:round;stroke-linejoin:round;stroke-miterlimit:10;" points="
			189.59,511.4 294.86,511.4 294.86,406.14 189.59,406.12 		"></polygon>
		<g>
			
				<line style="fill:none;stroke:#000000;stroke-linecap:round;stroke-linejoin:round;stroke-miterlimit:10;" x1="242.22" y1="432.99" x2="242.22" y2="484.53"></line>
			
				<line style="fill:none;stroke:#000000;stroke-linecap:round;stroke-linejoin:round;stroke-miterlimit:10;" x1="216.45" y1="458.76" x2="268" y2="458.76"></line>
			<polyline style="fill:none;stroke:#000000;stroke-linecap:round;stroke-linejoin:round;stroke-miterlimit:10;" points="
				229.34,438.71 242.22,445.87 255.11,438.71 			"></polyline>
			<polyline style="fill:none;stroke:#000000;stroke-linecap:round;stroke-linejoin:round;stroke-miterlimit:10;" points="
				262.27,445.87 255.11,458.76 262.27,471.65 			"></polyline>
			<polyline style="fill:none;stroke:#000000;stroke-linecap:round;stroke-linejoin:round;stroke-miterlimit:10;" points="
				255.11,478.81 242.22,471.65 229.34,478.81 			"></polyline>
			<polyline style="fill:none;stroke:#000000;stroke-linecap:round;stroke-linejoin:round;stroke-miterlimit:10;" points="
				222.18,471.65 229.34,458.76 222.18,445.87 			"></polyline>
		</g>
	</g>
	<g>
		<polygon style="fill:none;stroke:#000000;stroke-linecap:round;stroke-linejoin:round;stroke-miterlimit:10;" points="
			294.8,1041.78 294.8,961 189.74,961 189.72,1041.78 		"></polygon>
		<path style="fill:none;stroke:#000000;stroke-linecap:round;stroke-linejoin:round;stroke-miterlimit:10;" d="M265.65,1001.39
			c0.37,7.48-7.71,18.23-19.47,13.21c-8.07-3.44-27.3-13.21-27.3-13.21s19.24-9.77,27.3-13.21
			C257.94,983.17,266.02,993.91,265.65,1001.39z"></path>
	</g>
	<g>
		<path style="fill:none;stroke:#000000;stroke-linecap:round;stroke-linejoin:round;stroke-miterlimit:10;" d="M706.21,701.09
			v-198.9c0-2.52,2.04-4.56,4.56-4.56h107.86c2.52,0,4.56,2.04,4.56,4.56v198.9c0,2.52-2.04,4.56-4.56,4.56H710.77
			C708.25,705.65,706.21,703.61,706.21,701.09z"></path>
		<path style="fill:none;stroke:#000000;stroke-linecap:round;stroke-linejoin:round;stroke-miterlimit:10;" d="M706.21,701.09
			v-198.9c0-2.52-2.04-4.56-4.56-4.56H674c-2.52,0-4.56,2.04-4.56,4.56v198.9c0,2.52,2.04,4.56,4.56,4.56h27.66
			C704.17,705.65,706.21,703.61,706.21,701.09z"></path>
		<path style="fill:none;stroke:#000000;stroke-linecap:round;stroke-linejoin:round;stroke-miterlimit:10;" d="M706.21,710.21
			v198.9c0,2.52,2.04,4.56,4.56,4.56h107.86c2.52,0,4.56-2.04,4.56-4.56v-198.9c0-2.52-2.04-4.56-4.56-4.56H710.77
			C708.25,705.65,706.21,707.69,706.21,710.21z"></path>
		<path style="fill:none;stroke:#000000;stroke-linecap:round;stroke-linejoin:round;stroke-miterlimit:10;" d="M706.21,710.21
			v198.9c0,2.52-2.04,4.56-4.56,4.56H674c-2.52,0-4.56-2.04-4.56-4.56v-198.9c0-2.52,2.04-4.56,4.56-4.56h27.66
			C704.17,705.65,706.21,707.69,706.21,710.21z"></path>
	</g>
	<g>
		<g>
			<path style="fill:none;stroke:#000000;stroke-linecap:round;stroke-linejoin:round;stroke-miterlimit:10;" d="M637.96,779.08
				l-2.8,25.15c-1.75,15.73-15.05,27.63-30.88,27.63h-1.8c-15.82,0-29.11-11.88-30.88-27.6l-2.83-25.17H637.96z"></path>
			<path style="fill:none;stroke:#000000;stroke-linecap:round;stroke-linejoin:round;stroke-miterlimit:10;" d="M562.06,799.84
				l0.62,5.55c2.26,20.13,19.29,35.35,39.54,35.35h2.3c20.27,0,37.3-15.24,39.55-35.38l0.61-5.51c0.3-2.66-1.79-4.99-4.47-4.99l0,0
				c-2.29,0-4.21,1.72-4.47,4l-0.6,5.38c-1.75,15.73-15.05,27.63-30.88,27.63h-1.8c-15.82,0-29.11-11.88-30.88-27.6l-0.61-5.42
				c-0.26-2.27-2.18-3.99-4.46-3.99l0,0C563.84,794.85,561.76,797.18,562.06,799.84z"></path>
		</g>
		<g>
			<path style="fill:none;stroke:#000000;stroke-linecap:round;stroke-linejoin:round;stroke-miterlimit:10;" d="M568.8,646.97
				l2.8-25.15c1.75-15.73,15.05-27.63,30.88-27.63h1.8c15.82,0,29.11,11.88,30.88,27.6l2.83,25.17H568.8z"></path>
			<path style="fill:none;stroke:#000000;stroke-linecap:round;stroke-linejoin:round;stroke-miterlimit:10;" d="M644.69,626.21
				l-0.62-5.55c-2.26-20.13-19.29-35.35-39.54-35.35h-2.3c-20.27,0-37.3,15.24-39.55,35.38l-0.61,5.51
				c-0.3,2.66,1.79,4.99,4.47,4.99l0,0c2.29,0,4.22-1.72,4.47-4l0.6-5.38c1.75-15.73,15.05-27.63,30.88-27.63h1.8
				c15.82,0,29.11,11.88,30.88,27.6l0.61,5.42c0.26,2.27,2.18,3.99,4.46,3.99l0,0C642.91,631.2,644.99,628.87,644.69,626.21z"></path>
		</g>
		<g>
			<path style="fill:none;stroke:#000000;stroke-linecap:round;stroke-linejoin:round;stroke-miterlimit:10;" d="M537.32,747.6
				l-25.15-2.8c-15.73-1.75-27.63-15.05-27.63-30.88v-1.8c0-15.82,11.88-29.11,27.6-30.88l25.17-2.83V747.6z"></path>
			<path style="fill:none;stroke:#000000;stroke-linecap:round;stroke-linejoin:round;stroke-miterlimit:10;" d="M516.56,671.71
				l-5.55,0.62c-20.13,2.26-35.35,19.29-35.35,39.54v2.3c0,20.27,15.24,37.3,35.38,39.55l5.51,0.61c2.66,0.3,4.99-1.79,4.99-4.47
				l0,0c0-2.29-1.72-4.21-4-4.47l-5.38-0.6c-15.73-1.75-27.63-15.05-27.63-30.88v-1.8c0-15.82,11.88-29.11,27.6-30.88l5.42-0.61
				c2.27-0.26,3.99-2.18,3.99-4.46l0,0C521.55,673.49,519.22,671.41,516.56,671.71z"></path>
		</g>
		<path style="fill:none;stroke:#000000;stroke-linecap:round;stroke-linejoin:round;stroke-miterlimit:10;" d="M665,646.97H541.76
			c-2.45,0-4.44,1.99-4.44,4.44v123.24c0,2.45,1.99,4.44,4.44,4.44H665c2.45,0,4.44-1.99,4.44-4.44V651.4
			C669.44,648.95,667.45,646.97,665,646.97z"></path>
	</g>
	
		<rect x="187.04" y="511.53" style="fill:none;stroke:#000000;stroke-linecap:round;stroke-linejoin:round;stroke-miterlimit:10;" width="108" height="149.21"></rect>
	
		<rect x="186.72" y="854.59" style="fill:none;stroke:#000000;stroke-linecap:round;stroke-linejoin:round;stroke-miterlimit:10;" width="108" height="106.59"></rect>
	
		<rect x="189.9" y="766.24" style="fill:none;stroke:#000000;stroke-linecap:round;stroke-linejoin:round;stroke-miterlimit:10;" width="104.82" height="88.35"></rect>
	
		<rect x="184.91" y="1146.43" style="fill:none;stroke:#000000;stroke-linecap:round;stroke-linejoin:round;stroke-miterlimit:10;" width="110.12" height="28.88"></rect>
	<g>
		<g>
			<path style="fill:none;stroke:#000000;stroke-miterlimit:10;" d="M729.36,863.54c0.12,0.01,0.23,0,0.35-0.01
				c6.38-0.64,12.86-0.78,19.25-0.42c6.39,0.37,12.81,1.24,19.07,2.6c0.13,0.03,0.25,0.04,0.36,0.05c0.62,0.04,1.22-0.21,1.66-0.66
				c0.25-0.26,0.66-0.82,0.59-1.66l-0.01-0.05c-1.29-12.82-0.55-25.71,2.19-38.3l0.02-0.07c0.16-0.81-0.18-1.41-0.4-1.69
				c-0.38-0.5-0.96-0.81-1.58-0.85c-0.11-0.01-0.23,0-0.35,0.01c-6.38,0.64-12.86,0.78-19.25,0.42c-6.39-0.37-12.81-1.24-19.07-2.6
				c-0.13-0.03-0.25-0.04-0.36-0.05c-0.62-0.04-1.22,0.21-1.66,0.66c-0.25,0.26-0.65,0.82-0.59,1.66l0.01,0.05
				c1.29,12.82,0.55,25.71-2.19,38.3l-0.02,0.07c-0.16,0.81,0.18,1.41,0.4,1.69C728.17,863.2,728.74,863.51,729.36,863.54z"></path>
		</g>
		<path style="fill:none;stroke:#000000;stroke-miterlimit:10;" d="M770.63,863.4l0.01,0.05c0.07,0.84-0.34,1.4-0.59,1.66
			c-0.44,0.46-1.04,0.7-1.66,0.66c-0.11-0.01-0.23-0.02-0.36-0.05c-5.51-1.2-11.13-1.95-16.76-2.38c-2.07,4.64-4.34,9.18-6.98,13.55
			l-0.03,0.04c-0.42,0.72-0.3,1.4-0.18,1.75c0.2,0.6,0.64,1.08,1.22,1.31c0.11,0.04,0.22,0.08,0.35,0.11
			c6.24,1.46,12.4,3.42,18.34,5.84c5.93,2.42,11.72,5.32,17.2,8.65c0.1,0.06,0.21,0.11,0.31,0.16c0.57,0.23,1.22,0.2,1.79-0.09
			c0.32-0.17,0.88-0.56,1.09-1.36l0.02-0.07c2.93-12.55,7.8-24.5,14.48-35.53l0.03-0.04c0.42-0.72,0.3-1.41,0.18-1.75
			c-0.2-0.6-0.64-1.08-1.21-1.31c-0.11-0.04-0.22-0.08-0.35-0.11c-6.24-1.46-12.4-3.42-18.34-5.84c-3.03-1.24-6.02-2.61-8.96-4.09
			C769.87,850.82,770,857.12,770.63,863.4z"></path>
		<path style="fill:none;stroke:#000000;stroke-miterlimit:10;" d="M770.63,863.4l0.01,0.05c0.07,0.84-0.34,1.4-0.59,1.66
			c-0.44,0.46-1.04,0.7-1.66,0.66c-0.11-0.01-0.23-0.02-0.36-0.05c-6.26-1.36-12.67-2.24-19.07-2.6c-0.18-0.01-0.36,0-0.53-0.01
			c-1.93,4.24-4.02,8.4-6.44,12.39l-0.01,0.01c-1.7,2.81-0.16,6.45,3.03,7.2l0.01,0c12.26,2.86,23.98,7.64,34.75,14.16l0.01,0.01
			c2.81,1.7,6.45,0.16,7.2-3.03l0-0.01c2.86-12.26,7.64-23.98,14.16-34.75l0.01-0.01c1.7-2.81,0.16-6.45-3.03-7.2l-0.01,0
			c-9.62-2.25-18.89-5.72-27.66-10.24C769.89,848.87,769.9,856.14,770.63,863.4z"></path>
	</g>
	<g>
		<g>
			<path style="fill:none;stroke:#000000;stroke-miterlimit:10;" d="M720.89,539.98c0.12-0.01,0.23,0,0.35,0.01
				c6.38,0.64,12.86,0.78,19.25,0.42c6.39-0.37,12.81-1.24,19.07-2.6c0.13-0.03,0.25-0.04,0.36-0.05c0.62-0.04,1.22,0.21,1.66,0.66
				c0.25,0.26,0.66,0.82,0.59,1.66l-0.01,0.05c-1.29,12.82-0.55,25.71,2.19,38.3l0.02,0.07c0.16,0.81-0.18,1.41-0.4,1.69
				c-0.38,0.5-0.96,0.81-1.58,0.85c-0.11,0.01-0.23,0-0.35-0.01c-6.38-0.64-12.86-0.78-19.25-0.42c-6.39,0.37-12.81,1.24-19.07,2.6
				c-0.13,0.03-0.25,0.04-0.36,0.05c-0.62,0.04-1.22-0.21-1.66-0.66c-0.25-0.26-0.65-0.82-0.59-1.66l0.01-0.05
				c1.29-12.82,0.55-25.71-2.19-38.3l-0.02-0.07c-0.16-0.81,0.18-1.41,0.4-1.69C719.7,540.32,720.27,540.02,720.89,539.98z"></path>
		</g>
		<path style="fill:none;stroke:#000000;stroke-miterlimit:10;" d="M762.16,540.12l0.01-0.05c0.07-0.84-0.34-1.4-0.59-1.66
			c-0.44-0.46-1.04-0.7-1.66-0.66c-0.11,0.01-0.23,0.02-0.36,0.05c-5.51,1.2-11.13,1.95-16.76,2.38c-2.07-4.64-4.34-9.18-6.98-13.55
			l-0.03-0.04c-0.42-0.72-0.3-1.4-0.18-1.75c0.2-0.6,0.64-1.08,1.22-1.31c0.11-0.04,0.22-0.08,0.35-0.11
			c6.24-1.46,12.4-3.42,18.34-5.84c5.93-2.42,11.72-5.32,17.2-8.65c0.1-0.06,0.21-0.11,0.31-0.16c0.57-0.23,1.22-0.2,1.79,0.09
			c0.32,0.17,0.88,0.56,1.09,1.36l0.02,0.07c2.93,12.55,7.8,24.5,14.48,35.53l0.03,0.04c0.42,0.72,0.3,1.41,0.18,1.75
			c-0.2,0.6-0.64,1.08-1.21,1.31c-0.11,0.04-0.22,0.08-0.35,0.11c-6.24,1.46-12.4,3.42-18.34,5.84c-3.03,1.24-6.02,2.61-8.96,4.09
			C761.4,552.7,761.53,546.4,762.16,540.12z"></path>
		<path style="fill:none;stroke:#000000;stroke-miterlimit:10;" d="M762.16,540.12l0.01-0.05c0.07-0.84-0.34-1.4-0.59-1.66
			c-0.44-0.46-1.04-0.7-1.66-0.66c-0.11,0.01-0.23,0.02-0.36,0.05c-6.26,1.36-12.67,2.24-19.07,2.6c-0.18,0.01-0.36,0-0.53,0.01
			c-1.93-4.24-4.02-8.4-6.44-12.39l-0.01-0.01c-1.7-2.81-0.16-6.45,3.03-7.2l0.01,0c12.26-2.86,23.98-7.64,34.75-14.16l0.01-0.01
			c2.81-1.7,6.45-0.16,7.2,3.03l0,0.01c2.86,12.26,7.64,23.98,14.16,34.75l0.01,0.01c1.7,2.81,0.16,6.45-3.03,7.2l-0.01,0
			c-9.62,2.25-18.89,5.72-27.66,10.24C761.42,554.65,761.43,547.38,762.16,540.12z"></path>
	</g>
	<g>
		<path style="fill:none;stroke:#000000;stroke-miterlimit:10;" d="M729.14,1103.41"></path>
		<path style="fill:none;stroke:#000000;stroke-miterlimit:10;" d="M696.78,1152.4l-16.69-7.02l1.56-2.69l-14.49,7.08
			c0.01,0.02,0.02,0.03,0.03,0.05l2.37,2.55c0.04,0.02,0.06,0.05,0.1,0.07l23.31,9.81c2.86,1.21,6.18-0.31,7.1-3.34
			C700.87,1156.26,699.32,1153.47,696.78,1152.4z"></path>
		<path style="fill:none;stroke:#000000;stroke-miterlimit:10;" d="M650.98,1106.17"></path>
		<path style="fill:none;stroke:#000000;stroke-miterlimit:10;" d="M650.8,1107.93c-0.18-0.03-0.35-0.11-0.54-0.1
			c-14.31,0.25-27.12-11.03-29.41-25.57c-0.79-4.99-0.12-8.94,1.47-13.36c-0.19-0.24-0.37-0.48-0.55-0.73
			c-0.04,0.07-0.08,0.13-0.12,0.19c-2.97,5.66-4.12,12.33-3.08,19.12c2.38,15.45,16.01,26.54,31.32,26.16
			C650,1111.71,650.29,1109.8,650.8,1107.93z"></path>
		<line style="fill:none;stroke:#000000;stroke-miterlimit:10;" x1="674.13" y1="1107.21" x2="697.38" y2="1125.72"></line>
		<g>
			<path style="fill:none;stroke:#000000;stroke-miterlimit:10;" d="M760.66,1136.16l-13.11-2.19l0.06,0.49l3.09,6.38
				c0.69,1.43,0.73,2.98,0.35,4.41l7.88,1.31c2.87,0.48,5.59-1.46,6.07-4.34S763.53,1136.64,760.66,1136.16z"></path>
		</g>
		<path style="fill:none;stroke:#000000;stroke-miterlimit:10;" d="M741.85,1152.17l-3.11-1.85c-1.79-1.07-1.68-3.7,0.2-4.61
			l3.03-1.47c1.88-0.91,4.02,0.63,3.75,2.7l-0.47,3.59L741.85,1152.17z"></path>
		<path style="fill:none;stroke:#000000;stroke-miterlimit:10;" d="M735.73,1130.2c-0.33,1.07,0.27,2.2,1.33,2.52
			c1.07,0.33,2.2-0.27,2.52-1.33"></path>
		<path style="fill:none;stroke:#000000;stroke-miterlimit:10;" d="M730.03,1136.5c1.1,0.18,2.14-0.57,2.32-1.67
			c0.18-1.1-0.57-2.14-1.67-2.32"></path>
		<g>
			<g>
				<path style="fill:none;stroke:#000000;stroke-miterlimit:10;" d="M745.01,1133.03c-1.63-0.17-3.78,1.76-4,3.17"></path>
			</g>
		</g>
		<g>
			<g>
				<path style="fill:none;stroke:#000000;stroke-miterlimit:10;" d="M728.15,1141.21c0.87-1.39,3.72-1.88,4.97-1.18"></path>
			</g>
		</g>
		<line style="fill:none;stroke:#000000;stroke-miterlimit:10;" x1="743.55" y1="1151.35" x2="742.51" y2="1149.21"></line>
		<path style="fill:none;stroke:#000000;stroke-miterlimit:10;" d="M690.46,1120.2c0,0,3.94,5.16,3.03,10.48
			c-0.77,4.54-3.72,7.89-7.6,9.92l0.01,0.01l-0.34,0.17c-0.18,0.09-0.35,0.18-0.53,0.26l-17.85,8.73l12.31,13.28
			c1.87,2.02,2.13,5.21,0.32,7.28c-2.09,2.39-5.74,2.4-7.85,0.12l-17.19-18.54c-1.84-1.99-1.52-5.15,0.68-6.73l8.67-6.19
			c-6.76-4.19-10.46-9.56-12.42-14.52c-2.83-7.15-2.34-15.31,1.32-22.08c0.09-0.16,0.17-0.3,0.24-0.42
			c3.58-5.46,12.46-18.2,36.76-19.45c38.66-1.99,52.85,25.02,52.85,25.02"></path>
		<path style="fill:none;stroke:#000000;stroke-miterlimit:10;" d="M745.77,1109.9c3.71-1.8,7.94,1.25,7.4,5.34l-0.15,1.17
			l25.12,14.43c6.09,3.31,11.22-5.52,5.26-9.15l-36.33-20.87c-1.67-0.96-3.61-1.33-5.51-1.05l-4.09,0.6"></path>
		<path style="fill:none;stroke:#000000;stroke-miterlimit:10;" d="M704.84,1111.16l-6.22,11.01c-3,5.23-1.2,11.9,4.03,14.9
			l5.98,3.43c5.07,2.91,11.02,2.79,15.84,0.25"></path>
		<path style="fill:none;stroke:#000000;stroke-miterlimit:10;" d="M709.25,1136.53l7.66,4.56c1.55,0.92,3.54-0.04,3.77-1.83
			l2.41-18.37l-13.44,6.52C705.93,1129.22,705.71,1134.42,709.25,1136.53z"></path>
		<path style="fill:none;stroke:#000000;stroke-miterlimit:10;" d="M716.68,1120.76c-1.52,1.17-2.45,2.83-2.79,4.6l9.2-4.46
			l-2.14,16.33l6.84,6.84l3.09,6.38c1.53,3.15,5.32,4.46,8.46,2.94l8.42-4.08c3.15-1.53,4.46-5.32,2.94-8.46l-3.09-6.38l-1.13-9.61
			l-14.15-8.43l9.25-4.48c-2.05-1.07-4.57-1.24-6.89-0.12l-1.96,0.95"></path>
		<path style="fill:none;stroke:#000000;stroke-miterlimit:10;" d="M732.32,1116.42l15.91,9.48c1.55,0.92,3.54-0.04,3.77-1.83
			l1.16-8.84c0.54-4.09-3.69-7.14-7.4-5.34L732.32,1116.42z"></path>
	</g>
	<g>
		<g>
			<path style="fill:none;stroke:#000000;stroke-miterlimit:10;" d="M642.15,410.48c1.15-0.11,2.31-0.14,3.47-0.09"></path>
			<path style="fill:none;stroke:#000000;stroke-miterlimit:10;" d="M668.16,442.99c-0.57,1.72-1.33,3.41-2.3,5.03
				c-0.22,0.36-0.44,0.72-0.68,1.07"></path>
		</g>
		<g>
			<path style="fill:none;stroke:#000000;stroke-miterlimit:10;" d="M664.95,443.97c-0.39,0.91-0.85,1.81-1.37,2.68"></path>
			<path style="fill:none;stroke:#000000;stroke-miterlimit:10;" d="M643.04,413.07c1-0.07,2.01-0.07,3.01,0"></path>
		</g>
		<g>
			<path style="fill:none;stroke:#000000;stroke-miterlimit:10;" d="M670.17,405.67c-0.42-2.15-1.27-4.4-2.74-6.66
				c-13.43-2.78-20.71,9.25-20.71,9.25c-1.56,2.28-1.24,5.3,0.61,7.21"></path>
		</g>
		<line style="fill:none;stroke:#000000;stroke-miterlimit:10;" x1="662.3" y1="405.78" x2="667.35" y2="399.28"></line>
		<line style="fill:none;stroke:#000000;stroke-miterlimit:10;" x1="640.55" y1="433.81" x2="649.24" y2="422.61"></line>
		<g>
			<path style="fill:none;stroke:#000000;stroke-miterlimit:10;" d="M641.28,446.84C641.28,446.85,641.28,446.85,641.28,446.84
				C641.28,446.84,641.28,446.83,641.28,446.84z"></path>
			<path style="fill:none;stroke:#000000;stroke-miterlimit:10;" d="M623.96,453.07c1.64,6.85,6.63,19.4,21.57,23.64
				c3.56-2,6.31-4.4,8.44-6.98"></path>
			<path style="fill:none;stroke:#000000;stroke-miterlimit:10;" d="M641.92,446.27c-0.28-2.29-1.52-4.26-3.28-5.66"></path>
			<path style="fill:none;stroke:#000000;stroke-miterlimit:10;" d="M654.6,436.53c-1.25-0.43-2.62-0.6-4.03-0.43
				c-4.98,0.59-9.24,5.19-8.65,10.17c0.12,1.02,0.07,0.62,0.06,0.5"></path>
			<path style="fill:none;stroke:#000000;stroke-miterlimit:10;" d="M660.91,446.49c-0.09-1.54-0.25-2.44-0.25-2.44"></path>
		</g>
		<line style="fill:none;stroke:#000000;stroke-miterlimit:10;" x1="640.51" y1="433.95" x2="645.53" y2="476.71"></line>
		<g>
			<path style="fill:none;stroke:#000000;stroke-miterlimit:10;" d="M660.27,425.2C660.27,425.21,660.27,425.2,660.27,425.2
				C660.25,425.21,660.26,425.21,660.27,425.2z"></path>
			<path style="fill:none;stroke:#000000;stroke-miterlimit:10;" d="M660.79,426.51C660.79,426.51,660.8,426.51,660.79,426.51
				C660.78,426.52,660.78,426.52,660.79,426.51z"></path>
			<path style="fill:none;stroke:#000000;stroke-miterlimit:10;" d="M653,408.55c-4.65,1.88-6.9,7.17-5.02,11.82
				c1.88,4.65,7.43,7.55,12.08,5.67c0.95-0.38,0.58-0.23,0.46-0.19c0.36-0.14,0.65-0.26,0.65-0.26s-0.29,0.11-0.65,0.26
				c0.11-0.05,0,0-0.46,0.19c-3.98,1.62-6.01,6.21-5.33,10.42c0.11,0.7,0.3,1.39,0.57,2.06c1.88,4.65,7.17,6.9,11.82,5.02
				c0,0,0.35-0.12,0.96-0.37c4.13-1.72,20.19-9.64,20.39-28.6C673.21,399.07,653,408.55,653,408.55z"></path>
		</g>
		<line style="fill:none;stroke:#000000;stroke-miterlimit:10;" x1="640.51" y1="433.95" x2="688.49" y2="414.56"></line>
		<g>
			<path style="fill:none;stroke:#000000;stroke-miterlimit:10;" d="M642.69,416.66c0.81-1.65,0.8-3.66-0.18-5.37
				c0,0-6.35-12.55-19.95-10.8c-3.11,4.06-3.99,8.25-3.87,11.9"></path>
		</g>
		<line style="fill:none;stroke:#000000;stroke-miterlimit:10;" x1="628.54" y1="411.64" x2="622.56" y2="400.48"></line>
		<line style="fill:none;stroke:#000000;stroke-miterlimit:10;" x1="640.51" y1="433.95" x2="638.85" y2="430.85"></line>
		<g>
			<path style="fill:none;stroke:#000000;stroke-miterlimit:10;" d="M631.75,432.01C631.75,432.01,631.75,432.01,631.75,432.01
				C631.77,432.02,631.76,432.02,631.75,432.01z"></path>
			<path style="fill:none;stroke:#000000;stroke-miterlimit:10;" d="M632.17,430.66C632.16,430.66,632.16,430.66,632.17,430.66
				C632.17,430.67,632.18,430.67,632.17,430.66z"></path>
			<path style="fill:none;stroke:#000000;stroke-miterlimit:10;" d="M638.25,443.5c1.47-4.8-1.03-10.55-5.82-12.01"></path>
			<path style="fill:none;stroke:#000000;stroke-miterlimit:10;" d="M631.95,431.34c-0.12-0.03,0,0,0.48,0.15
				c4.8,1.46,10.08-1.9,11.55-6.7c1.47-4.8-1.23-9.87-6.03-11.34c0,0-20.95-7.69-34.83,9.08c0.88,8.98,5.13,15.16,9.79,19.32"></path>
		</g>
		<line style="fill:none;stroke:#000000;stroke-miterlimit:10;" x1="624.33" y1="429.01" x2="603.12" y2="422.52"></line>
		<g>
			<path style="fill:none;stroke:#000000;stroke-miterlimit:10;" d="M629.76,440.04C629.76,440.04,629.76,440.04,629.76,440.04
				C629.77,440.03,629.77,440.04,629.76,440.04z"></path>
			<path style="fill:none;stroke:#000000;stroke-miterlimit:10;" d="M629.35,439.25C629.35,439.25,629.34,439.26,629.35,439.25
				C629.35,439.25,629.35,439.25,629.35,439.25z"></path>
			<path style="fill:none;stroke:#000000;stroke-miterlimit:10;" d="M635.39,450.01c2.79-1.48,3.86-4.94,2.38-7.73
				c-1.48-2.79-5.15-4.25-7.94-2.78c-0.57,0.3-0.35,0.18-0.28,0.15c-0.22,0.11-0.39,0.21-0.39,0.21s0.17-0.09,0.39-0.21
				c-0.07,0.04,0,0,0.28-0.15c2.79-1.48,3.65-5.33,2.18-8.12c-1.48-2.79-4.94-3.86-7.73-2.38c0,0-12.77,5.88-11.52,19.54
				c3.95,3.26,8.11,4.29,11.77,4.3C630.66,452.85,635.39,450.01,635.39,450.01z"></path>
		</g>
		<line style="fill:none;stroke:#000000;stroke-miterlimit:10;" x1="640.56" y1="433.78" x2="612.76" y2="448.53"></line>
		<g>
			<path style="fill:none;stroke:#000000;stroke-miterlimit:10;" d="M655.68,455.27C655.68,455.27,655.68,455.27,655.68,455.27
				C655.67,455.26,655.67,455.27,655.68,455.27z"></path>
			<path style="fill:none;stroke:#000000;stroke-miterlimit:10;" d="M654.94,455.77C654.94,455.77,654.94,455.77,654.94,455.77
				C654.93,455.76,654.93,455.76,654.94,455.77z"></path>
			<path style="fill:none;stroke:#000000;stroke-miterlimit:10;" d="M664.98,448.61c-1.77-2.62-5.32-3.31-7.94-1.54
				c-2.62,1.77-3.68,5.57-1.91,8.19c0.36,0.54,0.22,0.33,0.18,0.26c0.13,0.2,0.25,0.37,0.25,0.37s-0.11-0.16-0.25-0.36
				c0.05,0.06,0,0-0.18-0.26c-1.77-2.61-5.69-3.06-8.31-1.29c-2.62,1.77-3.31,5.32-1.54,7.94c0,0,7.22,12.07,20.66,9.35
				C673.48,459.82,664.98,448.61,664.98,448.61z"></path>
		</g>
		<line style="fill:none;stroke:#000000;stroke-miterlimit:10;" x1="640.49" y1="434.02" x2="665.94" y2="471.27"></line>
	</g>
	<g>
		<path style="fill:none;stroke:#000000;stroke-miterlimit:10;" d="M1258.85,425.36c0.09,1.52,0.31,3.02,0.66,4.5"></path>
		<path style="fill:none;stroke:#000000;stroke-miterlimit:10;" d="M1289,398.08c-5.22-0.83-10.49-0.04-15.14,2.13"></path>
		<path style="fill:none;stroke:#000000;stroke-miterlimit:10;" d="M1308.01,411.7c-1.53-2.9-3.6-5.53-6.17-7.71"></path>
		<path style="fill:none;stroke:#000000;stroke-miterlimit:10;" d="M1310.09,430.77c0.3-1.09,0.53-2.19,0.68-3.29"></path>
		<path style="fill:none;stroke:#000000;stroke-miterlimit:10;" d="M1302.39,443.28c1.02-0.92,1.97-1.92,2.84-3"></path>
		<path style="fill:none;stroke:#000000;stroke-miterlimit:10;" d="M1278.23,449.13c2.78,0.74,5.6,1,8.37,0.81"></path>
		<path style="fill:none;stroke:#000000;stroke-miterlimit:10;" d="M1264.5,440.14c1.1,1.39,2.35,2.67,3.74,3.83"></path>
		<path style="fill:none;stroke:#000000;stroke-miterlimit:10;" d="M1264.39,430.65c-3.64-1.29-8.28-1.2-12.81,0.63
			c-6.25,2.52-10.42,7.56-10.88,12.47c3.74,3.21,10.24,3.94,16.49,1.42c5.6-2.26,9.53-6.55,10.62-10.94
			c0.04-0.15,0.03-0.29,0.04-0.44"></path>
		<path style="fill:none;stroke:#000000;stroke-miterlimit:10;" d="M1268.59,440.39c-0.84-0.83-1.61-1.72-2.31-2.66"></path>
		<path style="fill:none;stroke:#000000;stroke-miterlimit:10;" d="M1287.29,446.97c-2.75,0.29-5.58,0.08-8.35-0.66"></path>
		<path style="fill:none;stroke:#000000;stroke-miterlimit:10;" d="M1303.93,437.18c-0.59,0.84-1.22,1.63-1.9,2.38"></path>
		<path style="fill:none;stroke:#000000;stroke-miterlimit:10;" d="M1307.77,427.86c-0.16,0.93-0.38,1.86-0.67,2.78"></path>
		<path style="fill:none;stroke:#000000;stroke-miterlimit:10;" d="M1300.59,406.76c2.24,2.05,4.03,4.51,5.3,7.2"></path>
		<path style="fill:none;stroke:#000000;stroke-miterlimit:10;" d="M1276.18,402.37c3.25-1.32,6.79-1.9,10.35-1.65"></path>
		<path style="fill:none;stroke:#000000;stroke-miterlimit:10;" d="M1262.52,430.02c-0.28-1.03-0.5-2.09-0.64-3.15"></path>
		<path style="fill:none;stroke:#000000;stroke-miterlimit:10;" d="M1279.6,418.36c0.96-0.15,1.72-0.89,1.88-1.85
			c0.76-4.46-1.14-9.96-5.37-14.27c-4.73-4.81-10.98-6.73-15.68-5.28c-1.54,4.68,0.28,10.97,5,15.77
			C1269.67,417.05,1275.13,419.04,1279.6,418.36z"></path>
		<path style="fill:none;stroke:#000000;stroke-miterlimit:10;" d="M1297.83,429.32c0.43-0.18,0.71-0.61,0.67-1.08
			c-0.15-2.18-1.66-4.55-4.14-6.09c-2.76-1.72-5.91-1.92-7.96-0.71c-0.19,2.37,1.37,5.12,4.13,6.84
			C1293.02,429.82,1295.81,430.14,1297.83,429.32z"></path>
		<line style="fill:none;stroke:#000000;stroke-miterlimit:10;" x1="1300.07" y1="430.08" x2="1286.41" y2="421.44"></line>
		<path style="fill:none;stroke:#000000;stroke-miterlimit:10;" d="M1302.39,426.06c0.15,0.92,0.89,1.65,1.81,1.79
			c4.32,0.67,9.6-1.24,13.7-5.39c4.58-4.63,6.35-10.69,4.88-15.22c-4.54-1.42-10.58,0.42-15.16,5.05
			C1303.51,416.45,1301.67,421.75,1302.39,426.06z"></path>
		<line style="fill:none;stroke:#000000;stroke-miterlimit:10;" x1="1299.91" y1="430.09" x2="1322.78" y2="407.25"></line>
		<path style="fill:none;stroke:#000000;stroke-miterlimit:10;" d="M1304.6,431.58c-0.89,0.37-1.46,1.28-1.39,2.24
			c0.33,4.52,3.48,9.4,8.62,12.57c5.74,3.54,12.27,3.92,16.49,1.38c0.37-4.91-2.89-10.58-8.62-14.12
			C1314.57,430.48,1308.79,429.85,1304.6,431.58z"></path>
		<line style="fill:none;stroke:#000000;stroke-miterlimit:10;" x1="1299.96" y1="430.02" x2="1328.33" y2="447.78"></line>
		<line style="fill:none;stroke:#000000;stroke-miterlimit:10;" x1="1299.96" y1="430.02" x2="1290.55" y2="462.14"></line>
		<path style="fill:none;stroke:#000000;stroke-miterlimit:10;" d="M1272.99,434.43c-0.59-0.3-1.31-0.18-1.78,0.28
			c-2.19,2.18-3.31,5.99-2.67,10.06c0.72,4.54,3.43,8.09,6.62,9.15c2.71-1.99,4.19-6.2,3.47-10.75
			C1277.99,439.1,1275.75,435.83,1272.99,434.43z"></path>
		<line style="fill:none;stroke:#000000;stroke-miterlimit:10;" x1="1271.88" y1="433.21" x2="1275.17" y2="453.92"></line>
		<line style="fill:none;stroke:#000000;stroke-miterlimit:10;" x1="1266.55" y1="433.56" x2="1240.71" y2="443.75"></line>
		<line style="fill:none;stroke:#000000;stroke-miterlimit:10;" x1="1267.43" y1="425.36" x2="1251.51" y2="404.8"></line>
		<path style="fill:none;stroke:#000000;stroke-miterlimit:10;" d="M1290.59,439.42c-0.43,1.17-1.05,2.19-1.81,3
			c-0.53,1.09-1.01,2.25-1.36,3.48c-1.85,6.48-0.45,12.87,3.14,16.25c4.83-0.97,9.4-5.65,11.26-12.13c1.66-5.81,0.7-11.54-2.1-15.1
			c-0.6-0.76-1.62-1.05-2.53-0.73C1294.73,435.07,1292.43,436.92,1290.59,439.42z"></path>
		<line style="fill:none;stroke:#000000;stroke-miterlimit:10;" x1="1283.5" y1="420.91" x2="1288.17" y2="443.01"></line>
		<line style="fill:none;stroke:#000000;stroke-miterlimit:10;" x1="1283.77" y1="420.88" x2="1264.23" y2="432.7"></line>
		<path style="fill:none;stroke:#000000;stroke-miterlimit:10;" d="M1265.43,412.74c-1.62-1.65-2.87-3.47-3.79-5.34
			c-3.31-2.21-6.96-3.18-10.14-2.59c-2.08,4.47-1.02,10.92,3.1,16.25c2.98,3.86,6.94,6.28,10.73,7.01c1-1.89,2.63-3.66,4.8-4.99
			c0.14-0.09,0.29-0.13,0.43-0.21c-0.05-2.41-0.74-4.99-1.98-7.49C1267.49,414.62,1266.42,413.75,1265.43,412.74z"></path>
		<line style="fill:none;stroke:#000000;stroke-miterlimit:10;" x1="1283.74" y1="420.98" x2="1260.43" y2="396.97"></line>
		<path style="fill:none;stroke:#000000;stroke-miterlimit:10;" d="M1285.14,416.29c0.4,0.88,1.33,1.41,2.29,1.31
			c4.5-0.48,9.28-3.79,12.28-9.04c3.35-5.85,3.51-12.39,0.83-16.53c-4.92-0.21-10.48,3.24-13.83,9.09
			C1283.71,406.37,1283.28,412.17,1285.14,416.29z"></path>
		<line style="fill:none;stroke:#000000;stroke-miterlimit:10;" x1="1283.74" y1="420.98" x2="1300.54" y2="392.03"></line>
		<path style="fill:none;stroke:#000000;stroke-miterlimit:10;" d="M1281.4,423.23c0.05-0.66-0.33-1.28-0.94-1.53
			c-2.85-1.19-6.8-0.77-10.31,1.38c-3.92,2.41-6.16,6.27-5.91,9.62c2.88,1.74,7.34,1.5,11.26-0.91
			C1279,429.63,1281.16,426.31,1281.4,423.23z"></path>
		<path style="fill:none;stroke:#000000;stroke-miterlimit:10;" d="M1284.92,423.89c-0.6-0.26-1.3-0.11-1.74,0.38
			c-2.04,2.28-2.93,6.1-2.07,10.08c0.97,4.45,3.85,7.79,7.06,8.66c2.56-2.12,3.79-6.36,2.82-10.81
			C1290.12,428.22,1287.72,425.12,1284.92,423.89z"></path>
	</g>
	<g>
		<g>
			<circle style="fill:none;stroke:#000000;stroke-miterlimit:10;" cx="603.16" cy="760.21" r="14.32"></circle>
		</g>
		<g>
			<circle style="fill:none;stroke:#000000;stroke-miterlimit:10;" cx="603.16" cy="760.21" r="8.15"></circle>
		</g>
		<g>
			<ellipse style="fill:none;stroke:#000000;stroke-miterlimit:10;" cx="630.93" cy="751.63" rx="2.22" ry="3.6"></ellipse>
			<line style="fill:none;stroke:#000000;stroke-miterlimit:10;" x1="630.93" y1="755.23" x2="630.93" y2="771.01"></line>
		</g>
		<g>
			<path style="fill:none;stroke:#000000;stroke-miterlimit:10;" d="M579.78,748.02v3.6c0,1.99,0.99,3.6,2.22,3.6
				c1.23,0,2.22-1.61,2.22-3.6v-3.6"></path>
			<line style="fill:none;stroke:#000000;stroke-miterlimit:10;" x1="582" y1="755.23" x2="582" y2="771.01"></line>
		</g>
		<line style="fill:none;stroke:#000000;stroke-miterlimit:10;" x1="582" y1="748.02" x2="582" y2="755.23"></line>
		<g>
			<path style="fill:none;stroke:#000000;stroke-miterlimit:10;" d="M625.47,761.36h-3.44v-13.34l0,0c1.9,0,3.44,1.54,3.44,3.44
				V761.36z"></path>
			<path style="fill:none;stroke:#000000;stroke-miterlimit:10;" d="M623.74,771.01L623.74,771.01c-0.95,0-1.72-0.77-1.72-1.72
				v-7.92h3.44v7.92C625.47,770.23,624.7,771.01,623.74,771.01z"></path>
		</g>
	</g>
	<g>
		<g>
			<circle style="fill:none;stroke:#000000;stroke-miterlimit:10;" cx="603.16" cy="665.27" r="14.32"></circle>
		</g>
		<g>
			<circle style="fill:none;stroke:#000000;stroke-miterlimit:10;" cx="603.16" cy="665.27" r="8.15"></circle>
		</g>
		<g>
			<ellipse style="fill:none;stroke:#000000;stroke-miterlimit:10;" cx="630.93" cy="673.85" rx="2.22" ry="3.6"></ellipse>
			<line style="fill:none;stroke:#000000;stroke-miterlimit:10;" x1="630.93" y1="670.24" x2="630.93" y2="654.47"></line>
		</g>
		<g>
			<path style="fill:none;stroke:#000000;stroke-miterlimit:10;" d="M579.78,677.45v-3.6c0-1.99,0.99-3.6,2.22-3.6
				c1.23,0,2.22,1.61,2.22,3.6v3.6"></path>
			<line style="fill:none;stroke:#000000;stroke-miterlimit:10;" x1="582" y1="670.24" x2="582" y2="654.47"></line>
		</g>
		<line style="fill:none;stroke:#000000;stroke-miterlimit:10;" x1="582" y1="677.45" x2="582" y2="670.24"></line>
		<g>
			<path style="fill:none;stroke:#000000;stroke-miterlimit:10;" d="M625.47,664.11h-3.44v13.34l0,0c1.9,0,3.44-1.54,3.44-3.44
				V664.11z"></path>
			<path style="fill:none;stroke:#000000;stroke-miterlimit:10;" d="M623.74,654.47L623.74,654.47c-0.95,0-1.72,0.77-1.72,1.72v7.92
				h3.44v-7.92C625.47,655.24,624.7,654.47,623.74,654.47z"></path>
		</g>
	</g>
	<g>
		<g>
			<circle style="fill:none;stroke:#000000;stroke-miterlimit:10;" cx="555.82" cy="707.31" r="14.32"></circle>
		</g>
		<g>
			<circle style="fill:none;stroke:#000000;stroke-miterlimit:10;" cx="555.82" cy="707.31" r="8.15"></circle>
		</g>
		<g>
			<ellipse style="fill:none;stroke:#000000;stroke-miterlimit:10;" cx="564.4" cy="735.08" rx="3.6" ry="2.22"></ellipse>
			<line style="fill:none;stroke:#000000;stroke-miterlimit:10;" x1="560.8" y1="735.08" x2="545.02" y2="735.08"></line>
		</g>
		<g>
			<path style="fill:none;stroke:#000000;stroke-miterlimit:10;" d="M568.01,683.94h-3.6c-1.99,0-3.6,0.99-3.6,2.22
				c0,1.23,1.61,2.22,3.6,2.22h3.6"></path>
			<line style="fill:none;stroke:#000000;stroke-miterlimit:10;" x1="560.8" y1="686.15" x2="545.02" y2="686.15"></line>
		</g>
		<line style="fill:none;stroke:#000000;stroke-miterlimit:10;" x1="568.01" y1="686.15" x2="560.8" y2="686.15"></line>
		<g>
			<path style="fill:none;stroke:#000000;stroke-miterlimit:10;" d="M554.66,729.62v-3.44h13.34l0,0c0,1.9-1.54,3.44-3.44,3.44
				H554.66z"></path>
			<path style="fill:none;stroke:#000000;stroke-miterlimit:10;" d="M545.02,727.9L545.02,727.9c0-0.95,0.77-1.72,1.72-1.72h7.92
				v3.44h-7.92C545.79,729.62,545.02,728.85,545.02,727.9z"></path>
		</g>
	</g>
	<g>
		<g>
			
				<rect x="968.76" y="810.1" transform="matrix(-0.5197 -0.8544 0.8544 -0.5197 771.7645 2083.6709)" style="fill:none;stroke:#000000;stroke-miterlimit:10;" width="5.69" height="29.59"></rect>
			<g>
				
					<rect x="958.06" y="804.33" transform="matrix(-0.2879 -0.9577 0.9577 -0.2879 453.0409 1975.1528)" style="fill:none;stroke:#000000;stroke-miterlimit:10;" width="5.69" height="29.59"></rect>
				
					<rect x="948.03" y="792.65" transform="matrix(-0.2879 -0.9577 0.9577 -0.2879 459.709 1956.7383)" style="fill:none;stroke:#000000;stroke-miterlimit:10;" width="18.72" height="29.59"></rect>
			</g>
		</g>
		<polygon style="fill:none;stroke:#000000;stroke-miterlimit:10;" points="973.04,798.78 970.67,800.22 975.89,817.6 
			953.87,824.22 957.48,830.15 982.76,814.77 		"></polygon>
	</g>
	<g>
		<path style="fill:none;stroke:#000000;stroke-miterlimit:10;" d="M1737.24,1057.11l-58.91,0c-1.81,0-3.28-1.47-3.28-3.28v-38.14
			c0-1.81,1.47-3.28,3.28-3.28l58.91,0c1.81,0,3.28,1.47,3.28,3.28v38.14C1740.53,1055.64,1739.06,1057.11,1737.24,1057.11z"></path>
		<rect x="1682.58" y="1016.91" style="fill:none;stroke:#000000;stroke-miterlimit:10;" width="50.42" height="21.75"></rect>
		<rect x="1697.64" y="1042.09" style="fill:none;stroke:#000000;stroke-miterlimit:10;" width="20.3" height="12.29"></rect>
		<path style="fill:none;stroke:#000000;stroke-miterlimit:10;" d="M1740.53,1012.4l-65.48,0l-7.27-13.91
			c-1.02-1.94,0.39-4.27,2.59-4.27l74.84,0c2.19,0,3.6,2.33,2.59,4.27L1740.53,1012.4z"></path>
	</g>
	<g>
		<circle style="fill:none;stroke:#000000;stroke-miterlimit:10;" cx="1379.03" cy="895.2" r="7.3"></circle>
		<circle style="fill:none;stroke:#000000;stroke-miterlimit:10;" cx="1379.03" cy="895.2" r="5.16"></circle>
		<line style="fill:none;stroke:#000000;stroke-miterlimit:10;" x1="1375.12" y1="900.94" x2="1372.21" y2="905.17"></line>
		<path style="fill:none;stroke:#000000;stroke-miterlimit:10;" d="M1360.4,895.2c0,5.73,2.64,10.79,6.71,14.21l2.59-3.77
			c0.57-0.83,1.7-1.04,2.53-0.47c0.51,0.35,0.79,0.92,0.79,1.5c0,0.35-0.1,0.71-0.32,1.03l-2.58,3.76c2.66,1.46,5.67,2.37,8.92,2.37
			c10.29,0,18.63-8.34,18.63-18.63c0-10.29-8.34-18.63-18.63-18.63C1368.74,876.57,1360.4,884.91,1360.4,895.2z"></path>
		<g>
			
				<rect x="1344.83" y="932.15" transform="matrix(0.5655 -0.8248 0.8248 0.5655 -184.544 1517.6462)" style="fill:none;stroke:#000000;stroke-miterlimit:10;" width="6.46" height="3.63"></rect>
			
				<rect x="1350.82" y="936.26" transform="matrix(0.5655 -0.8248 0.8248 0.5655 -185.3318 1524.3649)" style="fill:none;stroke:#000000;stroke-miterlimit:10;" width="6.46" height="3.63"></rect>
		</g>
		<g>
			<path style="fill:none;stroke:#000000;stroke-miterlimit:10;" d="M1359.25,920.88c-1.58-0.76-3.33-1.21-5.2-1.21
				c-6.71,0-12.14,5.44-12.14,12.14c0,3.47,1.47,6.58,3.81,8.8L1359.25,920.88z"></path>
			<path style="fill:none;stroke:#000000;stroke-miterlimit:10;" d="M1348.7,942.67c1.62,0.8,3.41,1.29,5.34,1.29
				c6.71,0,12.14-5.44,12.14-12.14c0-3.53-1.53-6.68-3.93-8.89L1348.7,942.67z"></path>
		</g>
		<g>
			<path style="fill:none;stroke:#000000;stroke-miterlimit:10;" d="M1373.01,906.68c0,0.35-0.1,0.71-0.32,1.03l-27.48,40.05
				c-0.57,0.83-1.7,1.04-2.52,0.47c-0.83-0.57-1.04-1.69-0.47-2.53l27.48-40.05c0.57-0.83,1.7-1.04,2.53-0.47
				C1372.74,905.53,1373.01,906.1,1373.01,906.68z"></path>
		</g>
	</g>
	<g>
		<circle style="fill:none;stroke:#000000;stroke-miterlimit:10;" cx="1717.35" cy="895.2" r="7.3"></circle>
		<circle style="fill:none;stroke:#000000;stroke-miterlimit:10;" cx="1717.35" cy="895.2" r="5.16"></circle>
		<line style="fill:none;stroke:#000000;stroke-miterlimit:10;" x1="1721.27" y1="900.94" x2="1724.17" y2="905.17"></line>
		<path style="fill:none;stroke:#000000;stroke-miterlimit:10;" d="M1735.98,895.2c0,5.73-2.64,10.79-6.71,14.21l-2.59-3.77
			c-0.57-0.83-1.7-1.04-2.53-0.47c-0.51,0.35-0.79,0.92-0.79,1.5c0,0.35,0.1,0.71,0.32,1.03l2.58,3.76
			c-2.66,1.46-5.67,2.37-8.92,2.37c-10.29,0-18.63-8.34-18.63-18.63c0-10.29,8.34-18.63,18.63-18.63
			C1727.64,876.57,1735.98,884.91,1735.98,895.2z"></path>
		<g>
			
				<rect x="1746.51" y="930.74" transform="matrix(0.8248 -0.5655 0.5655 0.8248 -221.7651 1152.321)" style="fill:none;stroke:#000000;stroke-miterlimit:10;" width="3.63" height="6.46"></rect>
			
				<rect x="1740.52" y="934.84" transform="matrix(0.8248 -0.5655 0.5655 0.8248 -225.1371 1149.6631)" style="fill:none;stroke:#000000;stroke-miterlimit:10;" width="3.63" height="6.46"></rect>
		</g>
		<g>
			<path style="fill:none;stroke:#000000;stroke-miterlimit:10;" d="M1737.14,920.88c1.58-0.76,3.33-1.21,5.2-1.21
				c6.71,0,12.14,5.44,12.14,12.14c0,3.47-1.47,6.58-3.81,8.8L1737.14,920.88z"></path>
			<path style="fill:none;stroke:#000000;stroke-miterlimit:10;" d="M1747.68,942.67c-1.62,0.8-3.41,1.29-5.34,1.29
				c-6.71,0-12.14-5.44-12.14-12.14c0-3.53,1.53-6.68,3.93-8.89L1747.68,942.67z"></path>
		</g>
		<g>
			<path style="fill:none;stroke:#000000;stroke-miterlimit:10;" d="M1723.37,906.68c0,0.35,0.1,0.71,0.32,1.03l27.48,40.05
				c0.57,0.83,1.7,1.04,2.53,0.47c0.83-0.57,1.04-1.69,0.47-2.53l-27.48-40.05c-0.57-0.83-1.7-1.04-2.53-0.47
				C1723.64,905.53,1723.37,906.1,1723.37,906.68z"></path>
		</g>
	</g>
	<g>
		<path style="fill:none;stroke:#000000;stroke-miterlimit:10;" d="M1613.04,1441.78l2.6-3.79c1.71-2.48,5.11-3.11,7.59-1.4l0,0
			c2.48,1.71,3.11,5.11,1.4,7.59l-2.6,3.79c-1.71,2.48-5.11,3.11-7.59,1.4l0,0C1611.96,1447.66,1611.34,1444.26,1613.04,1441.78z"></path>
		<path style="fill:none;stroke:#000000;stroke-miterlimit:10;" d="M1615.44,1437.98l-1.32-9.44c-0.42-2.98-3.17-5.07-6.16-4.65
			c-2.98,0.42-5.07,3.17-4.65,6.16l1.27,9.08"></path>
		<path style="fill:none;stroke:#000000;stroke-miterlimit:10;" d="M1593.6,1470.04l2.6-3.79c1.71-2.48,5.11-3.11,7.59-1.4l0,0
			c2.48,1.71,3.11,5.11,1.4,7.59l-2.6,3.79c-1.71,2.48-5.11,3.11-7.59,1.4l0,0C1592.52,1475.92,1591.89,1472.52,1593.6,1470.04z"></path>
		<path style="fill:none;stroke:#000000;stroke-miterlimit:10;" d="M1593.6,1470.04l2.6-3.79c1.71-2.48,5.11-3.11,7.59-1.4l0,0
			c2.48,1.71,3.11,5.11,1.4,7.59l-2.6,3.79c-1.71,2.48-5.11,3.11-7.59,1.4l0,0C1592.52,1475.92,1591.89,1472.52,1593.6,1470.04z"></path>
		<path style="fill:none;stroke:#000000;stroke-miterlimit:10;" d="M1591.47,1455.03c-3.86-2.66-4.84-7.94-2.18-11.8
			c2.66-3.86,7.94-4.84,11.8-2.18L1591.47,1455.03z"></path>
		<path style="fill:none;stroke:#000000;stroke-miterlimit:10;" d="M1603.38,1428.96l-1.33-1.86c-2.02-2.83-5.95-3.48-8.78-1.46
			c-2.83,2.02-3.48,5.95-1.46,8.78l3.72,5.2"></path>
		<path style="fill:none;stroke:#000000;stroke-miterlimit:10;" d="M1605.2,1472.44l-1.6,2.33c6.26,0.45,13.22-3,17.71-9.52
			c4.49-6.53,5.23-14.26,2.56-19.94l-1.83,2.66c-1.71,2.48-5.11,3.11-7.59,1.4c-2.48-1.71-3.11-5.11-1.4-7.59l2.51-3.64
			c-4.6-1.33-9.9-0.2-14.47,2.91c0,0-9.61,13.98-9.62,13.98c-1.27,5.38-0.44,10.73,2.45,14.55l2.28-3.31
			c1.71-2.48,5.11-3.11,7.59-1.4C1606.28,1466.56,1606.9,1469.96,1605.2,1472.44z"></path>
		<path style="fill:none;stroke:#000000;stroke-miterlimit:10;" d="M1591.09,1441.84c0.98,0.68,1.23,2.02,0.56,3
			c-0.68,0.98-2.02,1.23-3,0.56l0.66-2.17L1591.09,1441.84z"></path>
		<path style="fill:none;stroke:#000000;stroke-miterlimit:10;" d="M1601.55,1441.02c0.98,0.68,1.23,2.02,0.56,3
			c-0.68,0.98-2.02,1.23-3,0.56L1601.55,1441.02z"></path>
		<path style="fill:none;stroke:#000000;stroke-miterlimit:10;" d="M1594.08,1451.87c0.98,0.68,1.23,2.02,0.56,3s-2.02,1.23-3,0.56
			L1594.08,1451.87z"></path>
		<path style="fill:none;stroke:#000000;stroke-miterlimit:10;" d="M1588.35,1451.05l-6.07-2.13c-3.28-1.15-6.87,0.57-8.02,3.85
			c-1.15,3.28,0.57,6.87,3.85,8.02l2.76,0.96c0.23-0.09,0.55-0.19,0.8-0.25l9.26-2.14"></path>
		<path style="fill:none;stroke:#000000;stroke-miterlimit:10;" d="M1581.67,1461.5c-0.28,0.06-0.54,0.15-0.8,0.25
			c-2.46,0.98-3.91,3.63-3.29,6.3c0.68,2.94,3.61,4.77,6.54,4.09l9.29-2.14c0.11-0.03,0.2-0.1,0.31-0.13l0.2-0.29"></path>
	</g>
	<g>
		<circle style="fill:none;stroke:#000000;stroke-miterlimit:10;" cx="1527.22" cy="1069.23" r="16.84"></circle>
		<circle style="fill:none;stroke:#000000;stroke-miterlimit:10;" cx="1527.22" cy="1069.23" r="12.35"></circle>
		<circle style="fill:none;stroke:#000000;stroke-miterlimit:10;" cx="1527.22" cy="1069.23" r="7.85"></circle>
		<path style="fill:none;stroke:#000000;stroke-miterlimit:10;" d="M1565.7,1042.96c-6.8,0.27-12.11,6.03-11.84,12.84
			c0.27,6.8,6.03,12.11,12.84,11.84c6.8-0.27,12.11-6.03,11.84-12.84C1578.27,1048,1572.51,1042.68,1565.7,1042.96z
			 M1566.52,1063.14c-4.33,0.17-7.99-3.2-8.16-7.53c-0.17-4.33,3.2-7.99,7.53-8.16c4.33-0.17,7.99,3.2,8.17,7.53
			C1574.23,1059.31,1570.85,1062.97,1566.52,1063.14z"></path>
		<circle style="fill:none;stroke:#000000;stroke-miterlimit:10;" cx="1527.22" cy="1069.23" r="3.36"></circle>
		<g>
			<g>
				<path style="fill:none;stroke:#000000;stroke-miterlimit:10;" d="M1563.47,1099.31l-10.25,0.41c-1.15,0.05-2.11-0.85-2.16-1.99
					l-0.41-10.25c-0.05-1.15,0.85-2.11,1.99-2.16l10.25-0.41c1.15-0.05,2.11,0.85,2.16,1.99l0.41,10.25
					C1565.51,1098.3,1564.61,1099.26,1563.47,1099.31z"></path>
				<g>
					<path d="M1556.85,1088.05l2.1-0.08l3.19,8.5l-1.66,0.07l-0.77-2.1l-3.29,0.13l-0.59,2.16l-1.51,0.06L1556.85,1088.05z
						 M1556.74,1093.38l2.54-0.1l-1.43-3.95L1556.74,1093.38z"></path>
				</g>
			</g>
			<g>
				<path style="fill:none;stroke:#000000;stroke-miterlimit:10;" d="M1584.16,1106.02l-7.58,6.91c-0.85,0.77-2.16,0.71-2.93-0.13
					l-6.91-7.58c-0.77-0.85-0.71-2.16,0.13-2.93l7.58-6.91c0.85-0.77,2.16-0.71,2.93,0.13l6.91,7.58
					C1585.07,1103.93,1585.01,1105.25,1584.16,1106.02z"></path>
				<g>
					<path d="M1570.21,1103.17l2.28-2.08c1.31-1.2,2.54-1.4,3.6-0.25l0.03,0.04c0.58,0.63,0.75,1.39,0.23,2.27
						c1.03-0.6,1.87-0.5,2.64,0.34l0.03,0.04c1.08,1.18,0.84,2.5-0.56,3.77l-2.45,2.24L1570.21,1103.17z M1574.8,1103.9
						c0.78-0.72,0.83-1.28,0.23-1.93l-0.03-0.04c-0.55-0.61-1.13-0.55-1.89,0.14l-0.96,0.88l1.67,1.84L1574.8,1103.9z
						 M1577.56,1106.58c0.79-0.72,0.83-1.41,0.23-2.07l-0.03-0.04c-0.6-0.66-1.27-0.66-2.14,0.14l-1.07,0.98l1.86,2.04
						L1577.56,1106.58z"></path>
				</g>
			</g>
			<g>
				<path style="fill:none;stroke:#000000;stroke-miterlimit:10;" d="M1579.67,1091.45l-10.25,0.41c-1.15,0.05-2.11-0.85-2.16-1.99
					l-0.41-10.25c-0.05-1.15,0.85-2.11,1.99-2.16l10.25-0.41c1.15-0.05,2.11,0.85,2.16,1.99l0.41,10.25
					C1581.71,1090.43,1580.81,1091.4,1579.67,1091.45z"></path>
				<g>
					<path d="M1570.57,1084.66l0-0.1c-0.1-2.59,1.61-4.47,4-4.57c1.98-0.08,3.55,0.85,3.82,2.86l-1.63,0.07
						c-0.23-1.14-0.89-1.7-2.13-1.65c-1.52,0.06-2.46,1.28-2.38,3.21l0,0.1c0.08,1.94,1.05,3.05,2.64,2.98
						c1.19-0.05,2.01-0.68,2.13-1.91l1.57-0.06c-0.17,2.08-1.6,3.19-3.65,3.27C1572.26,1088.97,1570.68,1087.31,1570.57,1084.66z"></path>
				</g>
			</g>
		</g>
	</g>
	<g>
		<circle style="fill:none;stroke:#000000;stroke-miterlimit:10;" cx="1582.7" cy="1408.44" r="5.88"></circle>
		<g>
			<circle style="fill:none;stroke:#000000;stroke-miterlimit:10;" cx="1581.07" cy="1407.7" r="0.63"></circle>
			<circle style="fill:none;stroke:#000000;stroke-miterlimit:10;" cx="1584.47" cy="1408.69" r="0.63"></circle>
		</g>
		<polygon style="fill:none;stroke:#000000;stroke-miterlimit:10;" points="1580.99,1409.77 1583.42,1410.48 1581.85,1411.34 		"></polygon>
		<path style="fill:none;stroke:#000000;stroke-miterlimit:10;" d="M1576.41,1429.91L1576.41,1429.91
			c-3.45-1.01-5.14-4.91-3.52-8.12l3.17-6.28c0.73-1.46,2.4-2.18,3.97-1.72l2.04,0.6c1.57,0.46,2.58,1.97,2.41,3.59l-0.72,7
			C1583.39,1428.55,1579.87,1430.92,1576.41,1429.91z"></path>
		<path style="fill:none;stroke:#000000;stroke-miterlimit:10;" d="M1589.6,1420.73l-5.31-4.32l-0.05,0.06
			c0.18,0.48,0.29,0.98,0.23,1.51l-0.3,2.88l3.19,2.6c0.75,0.61,1.86,0.5,2.48-0.25C1590.47,1422.45,1590.35,1421.34,1589.6,1420.73
			z"></path>
		<path style="fill:none;stroke:#000000;stroke-miterlimit:10;" d="M1570.58,1418.54l4.19-0.48l1.29-2.55
			c0.23-0.45,0.56-0.8,0.94-1.1l-0.02-0.15l-6.8,0.78c-0.97,0.11-1.66,0.98-1.55,1.95S1569.61,1418.65,1570.58,1418.54z"></path>
		<path style="fill:none;stroke:#000000;stroke-miterlimit:10;" d="M1576.6,1429.94l-1.68,5c-0.4,1.18,0.24,2.46,1.42,2.86
			c1.18,0.4,2.46-0.24,2.86-1.42l2.58-7.67C1580.41,1429.9,1578.51,1430.43,1576.6,1429.94z"></path>
		<path style="fill:none;stroke:#000000;stroke-miterlimit:10;" d="M1572.28,1424.37l-0.16-0.1l-4.48,7.01
			c-0.67,1.05-0.36,2.45,0.69,3.12c1.05,0.67,2.45,0.36,3.12-0.69l3.07-4.8C1573.11,1427.81,1572.28,1426.14,1572.28,1424.37z"></path>
		<path style="fill:none;stroke:#000000;stroke-miterlimit:10;" d="M1581.98,1402.62l-1.06-9.16c-0.16-1.38-1.45-2.35-2.82-2.1
			s-2.25,1.59-1.93,2.94l2.4,10.01C1579.48,1403.39,1580.68,1402.78,1581.98,1402.62z"></path>
		<path style="fill:none;stroke:#000000;stroke-miterlimit:10;" d="M1590.34,1392.64c-1.34-0.39-2.73,0.42-3.04,1.78l-2.01,8.77
			c1.34,0.66,2.33,1.79,2.85,3.12l3.79-10.53C1592.4,1394.47,1591.67,1393.03,1590.34,1392.64z"></path>
	</g>
	<g>
		<polygon style="fill:none;stroke:#000000;stroke-miterlimit:10;" points="989.28,999.24 993.64,1003.99 991.02,1009.91 
			983.16,1001.33 		"></polygon>
		<g>
			
				<rect x="981.25" y="1002.08" transform="matrix(0.7375 -0.6754 0.6754 0.7375 -422.2184 929.6067)" style="fill:none;stroke:#000000;stroke-miterlimit:10;" width="6.72" height="11.63"></rect>
			<polygon style="fill:none;stroke:#000000;stroke-miterlimit:10;" points="969.4,1014.45 951.47,1033.87 955.82,1038.63 
				976.74,1022.46 			"></polygon>
		</g>
		<line style="fill:none;stroke:#000000;stroke-miterlimit:10;" x1="959.37" y1="1031.01" x2="953.64" y2="1036.25"></line>
		<path style="fill:none;stroke:#000000;stroke-miterlimit:10;" d="M948.32,1030.43l3.15,3.44l5.3-5.71l-2.72-2.97
			c-1.45-1.58-3.9-1.69-5.48-0.24l0,0C946.98,1026.4,946.87,1028.85,948.32,1030.43z"></path>
		<path style="fill:none;stroke:#000000;stroke-miterlimit:10;" d="M958.98,1042.07l-3.15-3.44l6.15-4.78l2.72,2.98
			c1.45,1.58,1.34,4.04-0.24,5.48l0,0C962.88,1043.76,960.42,1043.65,958.98,1042.07z"></path>
		<path style="fill:none;stroke:#000000;stroke-miterlimit:10;" d="M989.25,1036.13l-32.36-35.34c-2.29-2.5-2.12-6.39,0.38-8.68l0,0
			c2.5-2.29,6.39-2.12,8.68,0.38l32.36,35.33c2.29,2.5,2.12,6.39-0.38,8.68l0,0C995.43,1038.8,991.54,1038.63,989.25,1036.13z"></path>
	</g>
	<g>
		<circle style="fill:none;stroke:#000000;stroke-miterlimit:10;" cx="532.1" cy="1459.8" r="23.56"></circle>
		<g>
			<path style="fill:none;stroke:#000000;stroke-miterlimit:10;" d="M540.68,1480.6c-7.27,0-13.16-9.32-13.16-20.83
				c0-11.5,5.89-20.83,13.16-20.83c1.66,0,3.24,0.51,4.7,1.39c-3.78-2.59-8.35-4.1-13.28-4.1c-13.01,0-23.56,10.55-23.56,23.56
				s10.55,23.56,23.56,23.56c5.05,0,9.73-1.61,13.56-4.32C544.13,1480.04,542.45,1480.6,540.68,1480.6z"></path>
		</g>
		<path style="fill:none;stroke:#000000;stroke-miterlimit:10;" d="M539.41,1480.5c-6.67-1.02-11.88-9.9-11.88-20.72
			c0-10.79,5.19-19.67,11.83-20.72"></path>
		<path style="fill:none;stroke:#000000;stroke-miterlimit:10;" d="M532.92,1436.24c-7.49,0-13.57,10.55-13.57,23.56
			s6.08,23.56,13.57,23.56"></path>
	</g>
	<g>
		<g>
			<path style="fill:none;stroke:#000000;stroke-miterlimit:10;" d="M889.42,417.6l-7.29,20.75l8.88,3.12
				c1.8-5.12,7.41-7.82,12.54-6.02c5.12,1.8,7.82,7.41,6.02,12.54l8.07,2.84l7.29-20.75L889.42,417.6z"></path>
			
				<rect x="898.23" y="445.89" transform="matrix(0.9485 -0.3168 0.3168 0.9485 -98.8742 310.0894)" style="fill:none;stroke:#000000;stroke-miterlimit:10;" width="12.1" height="26.51"></rect>
			<g>
				
					<rect x="931.07" y="420.12" transform="matrix(0.8654 0.5011 -0.5011 0.8654 342.5486 -413.8618)" style="fill:none;stroke:#000000;stroke-miterlimit:10;" width="21.07" height="21.07"></rect>
				<line style="fill:none;stroke:#000000;stroke-miterlimit:10;" x1="937.76" y1="416.26" x2="945.44" y2="445.05"></line>
				<line style="fill:none;stroke:#000000;stroke-miterlimit:10;" x1="956" y1="426.82" x2="927.2" y2="434.5"></line>
			</g>
			<path style="fill:none;stroke:#000000;stroke-miterlimit:10;" d="M880.46,449.44L869,435.5c0.87-0.51,1.33-1.54,0.99-2.54
				c-0.38-1.14-1.62-1.76-2.76-1.38c-1.14,0.38-1.76,1.62-1.38,2.76c0.33,1,1.32,1.55,2.32,1.43l-0.78,18.02L880.46,449.44z"></path>
			<path style="fill:none;stroke:#000000;stroke-miterlimit:10;" d="M938.27,477.29l-0.5-18.03c1,0.13,1.99-0.41,2.34-1.4
				c0.4-1.14-0.2-2.38-1.34-2.78c-1.14-0.4-2.38,0.2-2.78,1.34c-0.35,0.99,0.09,2.03,0.95,2.55l-11.67,13.76L938.27,477.29z"></path>
			<circle style="fill:none;stroke:#000000;stroke-miterlimit:10;" cx="901.32" cy="486.81" r="6.37"></circle>
		</g>
		<polygon style="fill:none;stroke:#000000;stroke-miterlimit:10;" points="890.93,454.23 878.38,454.21 872.1,465.07 
			878.36,475.94 890.9,475.96 897.19,465.1 		"></polygon>
	</g>
</g>
<g id="floor">
	<g>
		<rect x="1820.57" y="497.68" width="78.78" height="196.94"></rect>
		<rect x="1569.91" y="297.16" width="196.94" height="78.78"></rect>
		<polygon points="1012.14,375.94 1000.57,375.94 1000.57,954.24 1022.05,954.24 1022.05,375.94 1193.93,375.94 1193.93,297.16 
			996.99,297.16 996.99,375.94 		"></polygon>
		<rect x="1000.57" y="954.24" width="53.71" height="21.48"></rect>
		<polygon points="1231.53,975.72 1231.53,1004.37 1253.02,1004.37 1253.02,975.72 1241.73,975.72 1820.57,975.72 1820.57,1133.27 
			1899.35,1133.27 1899.35,936.33 1820.57,936.33 1820.57,954.23 1215.42,954.23 1215.42,975.72 		"></polygon>
		<rect x="1231.53" y="1165.5" width="21.48" height="34.02"></rect>
		<polygon points="1231.53,1178.03 1145.59,1178.03 1048.91,1178.03 1048.91,1197.73 1145.59,1197.73 1125.9,1197.73 
			1125.9,1510.15 1145.59,1510.15 1145.59,1199.52 1231.53,1199.52 		"></polygon>
		<rect x="589.68" y="1178.04" width="19.69" height="25.07"></rect>
		<rect x="609.37" y="1178.04" width="296.31" height="19.69"></rect>
		<polygon points="1828.9,1558.49 1899.35,1558.49 1899.35,1486.88 1820.57,1486.88 1820.57,1510.15 828.69,1510.15 828.69,1197.73 
			799.15,1197.73 799.15,1513.73 820.36,1513.73 820.36,1513.73 776.77,1513.73 776.77,1513.73 589.68,1513.73 589.68,1513.73 
			609.37,1513.73 609.37,1346.33 589.68,1346.33 589.68,1510.15 445.55,1510.15 445.55,1558.49 579.91,1558.49 579.91,1558.49 
			786.54,1558.49 786.54,1558.49 828.69,1558.49 828.69,1558.49 1828.9,1558.49 		"></polygon>
		<polygon points="100,297.16 100,375.94 100,1534.32 100,1534.32 100,1558.5 141.18,1558.5 157.54,1558.5 157.54,1558.5 
			266.51,1558.5 266.51,1510.15 189.52,1510.16 189.52,375.94 298.73,375.94 298.73,297.16 		"></polygon>
		<rect x="558.34" y="297.16" width="196.94" height="78.78"></rect>
		<polygon points="286.2,1168.19 189.52,1168.19 189.52,1178.84 286.2,1178.84 286.2,1234.43 296.95,1234.43 296.95,1168.19 		"></polygon>
		<rect x="189.52" y="1223.6" width="96.68" height="10.83"></rect>
	</g>
	<g id="LINE_00000174565520627578471570000013571690247655518853_">
		
			<line style="fill:none;stroke:#000000;stroke-linecap:round;stroke-linejoin:round;stroke-miterlimit:10;" x1="1899.35" y1="703.58" x2="1899.35" y2="927.38"></line>
	</g>
	<g id="LINE_00000030485377794386879630000017570446107533746093_">
		
			<line style="fill:none;stroke:#000000;stroke-linecap:round;stroke-linejoin:round;stroke-miterlimit:10;" x1="1883.23" y1="936.33" x2="1883.23" y2="694.63"></line>
	</g>
	<g id="LINE_00000124874370433690973280000004829104259460158877_">
		
			<line style="fill:none;stroke:#000000;stroke-linecap:round;stroke-linejoin:round;stroke-miterlimit:10;" x1="1899.35" y1="703.58" x2="1883.23" y2="703.58"></line>
	</g>
	<g id="LINE_00000103244429159005419450000002684772405193590705_">
		
			<line style="fill:none;stroke:#000000;stroke-linecap:round;stroke-linejoin:round;stroke-miterlimit:10;" x1="1899.35" y1="927.38" x2="1883.23" y2="927.38"></line>
	</g>
	<g id="LINE_00000176725126644054671250000010983127563070858412_">
		
			<line style="fill:none;stroke:#000000;stroke-linecap:round;stroke-linejoin:round;stroke-miterlimit:10;" x1="1899.35" y1="936.33" x2="1899.35" y2="694.63"></line>
	</g>
	<g id="LINE_00000087380565012815065320000003596225246465342388_">
		
			<line style="fill:none;stroke:#000000;stroke-linecap:round;stroke-linejoin:round;stroke-miterlimit:10;" x1="1891.29" y1="917.35" x2="1891.74" y2="713.61"></line>
	</g>
	<g id="LINE_00000017510478050593487070000013506856761534257043_">
		
			<line style="fill:none;stroke:#000000;stroke-linecap:round;stroke-linejoin:round;stroke-miterlimit:10;" x1="1883.23" y1="917.35" x2="1899.35" y2="917.35"></line>
	</g>
	<g id="LINE_00000130606315926053391830000011502349605921864580_">
		
			<line style="fill:none;stroke:#000000;stroke-linecap:round;stroke-linejoin:round;stroke-miterlimit:10;" x1="1899.35" y1="703.58" x2="1883.23" y2="703.58"></line>
	</g>
	<g id="LINE_00000086663692948704346710000013092635719728343459_">
		
			<line style="fill:none;stroke:#000000;stroke-linecap:round;stroke-linejoin:round;stroke-miterlimit:10;" x1="1883.23" y1="713.61" x2="1899.35" y2="713.61"></line>
	</g>
	<g id="LINE_00000135658460982023114630000003934257691774341775_">
		
			<line style="fill:none;stroke:#000000;stroke-linecap:round;stroke-linejoin:round;stroke-miterlimit:10;" x1="1883.23" y1="870.98" x2="1883.23" y2="858.45"></line>
	</g>
	<g id="LINE_00000079458546748085451950000011411041435686577810_">
		
			<line style="fill:none;stroke:#000000;stroke-linecap:round;stroke-linejoin:round;stroke-miterlimit:10;" x1="1899.35" y1="858.45" x2="1899.35" y2="870.98"></line>
	</g>
	<g id="LINE_00000159430551427573195420000009689635289772793728_">
		
			<line style="fill:none;stroke:#000000;stroke-linecap:round;stroke-linejoin:round;stroke-miterlimit:10;" x1="1820.57" y1="936.33" x2="1820.57" y2="694.63"></line>
	</g>
	<g id="LINE_00000170987003787236575380000009348132873645605527_">
		
			<line style="fill:none;stroke:#000000;stroke-linecap:round;stroke-linejoin:round;stroke-miterlimit:10;" x1="1899.35" y1="1142.23" x2="1899.35" y2="1477.92"></line>
	</g>
	<g id="LINE_00000047060272134389178780000015174456357802168451_">
		
			<line style="fill:none;stroke:#000000;stroke-linecap:round;stroke-linejoin:round;stroke-miterlimit:10;" x1="1883.24" y1="1486.88" x2="1883.24" y2="1133.27"></line>
	</g>
	<g id="LINE_00000094589243407795574800000001452839771962546875_">
		
			<line style="fill:none;stroke:#000000;stroke-linecap:round;stroke-linejoin:round;stroke-miterlimit:10;" x1="1899.35" y1="1142.23" x2="1883.24" y2="1142.23"></line>
	</g>
	<g id="LINE_00000013158321812007607600000015974137733322232448_">
		
			<line style="fill:none;stroke:#000000;stroke-linecap:round;stroke-linejoin:round;stroke-miterlimit:10;" x1="1899.35" y1="1477.92" x2="1883.24" y2="1477.92"></line>
	</g>
	<g id="LINE_00000080921932258413626100000014409846673807876254_">
		
			<line style="fill:none;stroke:#000000;stroke-linecap:round;stroke-linejoin:round;stroke-miterlimit:10;" x1="1899.35" y1="1486.88" x2="1899.35" y2="1133.27"></line>
	</g>
	<g id="LINE_00000067921539909868265340000018270415667125954212_">
		
			<line style="fill:none;stroke:#000000;stroke-linecap:round;stroke-linejoin:round;stroke-miterlimit:10;" x1="1891.29" y1="1467.9" x2="1891.74" y2="1152.25"></line>
	</g>
	<g id="LINE_00000090286117399547401540000018042305720762175928_">
		
			<line style="fill:none;stroke:#000000;stroke-linecap:round;stroke-linejoin:round;stroke-miterlimit:10;" x1="1883.24" y1="1467.9" x2="1899.35" y2="1467.9"></line>
	</g>
	<g id="LINE_00000075870165061528431300000005825998608102452411_">
		
			<line style="fill:none;stroke:#000000;stroke-linecap:round;stroke-linejoin:round;stroke-miterlimit:10;" x1="1899.35" y1="1142.23" x2="1883.24" y2="1142.23"></line>
	</g>
	<g id="LINE_00000149373648140525757100000017356827717494728593_">
		
			<line style="fill:none;stroke:#000000;stroke-linecap:round;stroke-linejoin:round;stroke-miterlimit:10;" x1="1883.24" y1="1152.25" x2="1899.35" y2="1152.25"></line>
	</g>
	<g id="LINE_00000158008451947162770780000013664812143096191368_">
		
			<line style="fill:none;stroke:#000000;stroke-linecap:round;stroke-linejoin:round;stroke-miterlimit:10;" x1="1883.24" y1="1309.63" x2="1883.24" y2="1297.09"></line>
	</g>
	<g id="LINE_00000181063374166575695880000016276291575294253238_">
		
			<line style="fill:none;stroke:#000000;stroke-linecap:round;stroke-linejoin:round;stroke-miterlimit:10;" x1="1899.35" y1="1297.09" x2="1899.35" y2="1309.63"></line>
	</g>
	<g id="LINE_00000055677301490270477770000011838618590889469830_">
		
			<line style="fill:none;stroke:#000000;stroke-linecap:round;stroke-linejoin:round;stroke-miterlimit:10;" x1="1820.57" y1="1486.88" x2="1820.57" y2="1133.27"></line>
	</g>
	<g id="LINE_00000124845777050838776730000013022101925568635298_">
		
			<line style="fill:none;stroke:#000000;stroke-linecap:round;stroke-linejoin:round;stroke-miterlimit:10;" x1="1899.35" y1="306.11" x2="1899.35" y2="488.73"></line>
	</g>
	<g id="LINE_00000120548633842473738600000014019358021425346219_">
		
			<line style="fill:none;stroke:#000000;stroke-linecap:round;stroke-linejoin:round;stroke-miterlimit:10;" x1="1883.23" y1="497.68" x2="1883.23" y2="297.16"></line>
	</g>
	<g id="LINE_00000011747299684252367660000006012897344879105433_">
		
			<line style="fill:none;stroke:#000000;stroke-linecap:round;stroke-linejoin:round;stroke-miterlimit:10;" x1="1899.35" y1="488.73" x2="1883.23" y2="488.73"></line>
	</g>
	<g id="LINE_00000067195407759528587230000006283379949559733160_">
		
			<line style="fill:none;stroke:#000000;stroke-linecap:round;stroke-linejoin:round;stroke-miterlimit:10;" x1="1899.35" y1="497.68" x2="1899.35" y2="297.16"></line>
	</g>
	<g id="LINE_00000085237596817032873370000015751472349433200003_">
		
			<line style="fill:none;stroke:#000000;stroke-linecap:round;stroke-linejoin:round;stroke-miterlimit:10;" x1="1891.29" y1="478.7" x2="1891.75" y2="313.27"></line>
	</g>
	<g id="LINE_00000012435768638045459100000016131256394562355371_">
		
			<line style="fill:none;stroke:#000000;stroke-linecap:round;stroke-linejoin:round;stroke-miterlimit:10;" x1="1883.23" y1="478.7" x2="1899.35" y2="478.7"></line>
	</g>
	<g id="LINE_00000132055025882894412440000017076746350667407492_">
		
			<line style="fill:none;stroke:#000000;stroke-linecap:round;stroke-linejoin:round;stroke-miterlimit:10;" x1="1883.23" y1="473.51" x2="1883.23" y2="460.98"></line>
	</g>
	<g id="LINE_00000178890366820514561630000006887979335110904735_">
		
			<line style="fill:none;stroke:#000000;stroke-linecap:round;stroke-linejoin:round;stroke-miterlimit:10;" x1="1899.35" y1="460.98" x2="1899.35" y2="473.51"></line>
	</g>
	<g id="LINE_00000079472134581400673390000013966881177996403589_">
		
			<line style="fill:none;stroke:#000000;stroke-linecap:round;stroke-linejoin:round;stroke-miterlimit:10;" x1="1820.57" y1="497.68" x2="1820.57" y2="375.94"></line>
	</g>
	<g id="LINE_00000154405669068446037900000000804217910411536042_">
		
			<line style="fill:none;stroke:#000000;stroke-linecap:round;stroke-linejoin:round;stroke-miterlimit:10;" x1="1775.81" y1="297.16" x2="1890.4" y2="297.16"></line>
	</g>
	<g id="LINE_00000116215927023103645900000007513552286215989670_">
		
			<line style="fill:none;stroke:#000000;stroke-linecap:round;stroke-linejoin:round;stroke-miterlimit:10;" x1="1899.35" y1="313.27" x2="1766.86" y2="313.27"></line>
	</g>
	<g id="LINE_00000023971825515058684930000005275783834277168831_">
		
			<line style="fill:none;stroke:#000000;stroke-linecap:round;stroke-linejoin:round;stroke-miterlimit:10;" x1="1775.81" y1="297.16" x2="1775.81" y2="313.27"></line>
	</g>
	<g id="LINE_00000158714270882812046950000000620294875892620719_">
		
			<line style="fill:none;stroke:#000000;stroke-linecap:round;stroke-linejoin:round;stroke-miterlimit:10;" x1="1899.35" y1="297.16" x2="1766.86" y2="297.16"></line>
	</g>
	<g id="LINE_00000044875451921820748570000002728358251741667502_">
		
			<line style="fill:none;stroke:#000000;stroke-linecap:round;stroke-linejoin:round;stroke-miterlimit:10;" x1="1883.23" y1="305.23" x2="1785.84" y2="304.77"></line>
	</g>
	<g id="LINE_00000100367114674712492120000005014451435914612653_">
		
			<line style="fill:none;stroke:#000000;stroke-linecap:round;stroke-linejoin:round;stroke-miterlimit:10;" x1="1775.81" y1="297.16" x2="1775.81" y2="313.27"></line>
	</g>
	<g id="LINE_00000106129724210976991060000008517316123133316783_">
		
			<line style="fill:none;stroke:#000000;stroke-linecap:round;stroke-linejoin:round;stroke-miterlimit:10;" x1="1785.84" y1="313.27" x2="1785.84" y2="297.16"></line>
	</g>
	<g id="LINE_00000056405897435516859090000007413010770765292938_">
		
			<line style="fill:none;stroke:#000000;stroke-linecap:round;stroke-linejoin:round;stroke-miterlimit:10;" x1="1820.57" y1="375.94" x2="1766.86" y2="375.94"></line>
	</g>
	<g id="LINE_00000021089404464759581510000002125248606581570177_">
		
			<line style="fill:none;stroke:#000000;stroke-linecap:round;stroke-linejoin:round;stroke-miterlimit:10;" x1="307.69" y1="297.16" x2="549.39" y2="297.16"></line>
	</g>
	<g id="LINE_00000026873751192203398810000010440648794070743188_">
		
			<line style="fill:none;stroke:#000000;stroke-linecap:round;stroke-linejoin:round;stroke-miterlimit:10;" x1="558.34" y1="313.27" x2="298.73" y2="313.28"></line>
	</g>
	<g id="LINE_00000114781336878237484200000015221901792480774287_">
		
			<line style="fill:none;stroke:#000000;stroke-linecap:round;stroke-linejoin:round;stroke-miterlimit:10;" x1="307.69" y1="297.16" x2="307.69" y2="313.28"></line>
	</g>
	<g id="LINE_00000112627572666196658530000016077363734744053658_">
		
			<line style="fill:none;stroke:#000000;stroke-linecap:round;stroke-linejoin:round;stroke-miterlimit:10;" x1="549.39" y1="297.16" x2="549.39" y2="313.27"></line>
	</g>
	<g id="LINE_00000155122957844359588200000014375679292061474738_">
		
			<line style="fill:none;stroke:#000000;stroke-linecap:round;stroke-linejoin:round;stroke-miterlimit:10;" x1="558.34" y1="297.16" x2="298.73" y2="297.16"></line>
	</g>
	<g id="LINE_00000042715159393586455280000001150166841027352712_">
		
			<line style="fill:none;stroke:#000000;stroke-linecap:round;stroke-linejoin:round;stroke-miterlimit:10;" x1="539.36" y1="305.22" x2="317.71" y2="304.77"></line>
	</g>
	<g id="LINE_00000087376853474773310580000009769590032194841257_">
		
			<line style="fill:none;stroke:#000000;stroke-linecap:round;stroke-linejoin:round;stroke-miterlimit:10;" x1="539.36" y1="313.27" x2="539.36" y2="297.16"></line>
	</g>
	<g id="LINE_00000128479219012003952330000017681160612397264812_">
		
			<line style="fill:none;stroke:#000000;stroke-linecap:round;stroke-linejoin:round;stroke-miterlimit:10;" x1="307.69" y1="297.16" x2="307.69" y2="313.28"></line>
	</g>
	<g id="LINE_00000051349916137922617830000006861523903227226302_">
		
			<line style="fill:none;stroke:#000000;stroke-linecap:round;stroke-linejoin:round;stroke-miterlimit:10;" x1="317.71" y1="313.28" x2="317.71" y2="297.16"></line>
	</g>
	<g id="LINE_00000000203473846697466980000006636785131831422096_">
		
			<line style="fill:none;stroke:#000000;stroke-linecap:round;stroke-linejoin:round;stroke-miterlimit:10;" x1="475.09" y1="313.28" x2="462.56" y2="313.28"></line>
	</g>
	<g id="LINE_00000039128080871773818460000004239021249696951937_">
		
			<line style="fill:none;stroke:#000000;stroke-linecap:round;stroke-linejoin:round;stroke-miterlimit:10;" x1="462.55" y1="297.16" x2="475.09" y2="297.16"></line>
	</g>
	<g id="LINE_00000031903588322252406640000015801756289519971485_">
		
			<line style="fill:none;stroke:#000000;stroke-linecap:round;stroke-linejoin:round;stroke-miterlimit:10;" x1="558.34" y1="375.94" x2="298.73" y2="375.94"></line>
	</g>
	<g id="LINE_00000002356809165081203870000013548633332352326793_">
		
			<line style="fill:none;stroke:#000000;stroke-linecap:round;stroke-linejoin:round;stroke-miterlimit:10;" x1="764.24" y1="297.16" x2="988.04" y2="297.16"></line>
	</g>
	<g id="LINE_00000036227034131154848800000008793908147043055501_">
		
			<line style="fill:none;stroke:#000000;stroke-linecap:round;stroke-linejoin:round;stroke-miterlimit:10;" x1="996.99" y1="313.27" x2="755.28" y2="313.27"></line>
	</g>
	<g id="LINE_00000131350151780663603910000003784391715027217801_">
		
			<line style="fill:none;stroke:#000000;stroke-linecap:round;stroke-linejoin:round;stroke-miterlimit:10;" x1="764.24" y1="297.16" x2="764.24" y2="313.27"></line>
	</g>
	<g id="LINE_00000013189517105059171310000017560966283828794285_">
		
			<line style="fill:none;stroke:#000000;stroke-linecap:round;stroke-linejoin:round;stroke-miterlimit:10;" x1="988.04" y1="297.16" x2="988.04" y2="313.27"></line>
	</g>
	<g id="LINE_00000153700621143699002420000005620461866041335213_">
		
			<line style="fill:none;stroke:#000000;stroke-linecap:round;stroke-linejoin:round;stroke-miterlimit:10;" x1="996.99" y1="297.16" x2="755.28" y2="297.16"></line>
	</g>
	<g id="LINE_00000071527642407130092570000011542406691197598381_">
		
			<line style="fill:none;stroke:#000000;stroke-linecap:round;stroke-linejoin:round;stroke-miterlimit:10;" x1="978.01" y1="305.22" x2="774.26" y2="304.77"></line>
	</g>
	<g id="LINE_00000179645919587385989610000007002741162168771508_">
		
			<line style="fill:none;stroke:#000000;stroke-linecap:round;stroke-linejoin:round;stroke-miterlimit:10;" x1="978.01" y1="313.27" x2="978.01" y2="297.16"></line>
	</g>
	<g id="LINE_00000181050132594689636920000000819018579017784244_">
		
			<line style="fill:none;stroke:#000000;stroke-linecap:round;stroke-linejoin:round;stroke-miterlimit:10;" x1="764.24" y1="297.16" x2="764.24" y2="313.27"></line>
	</g>
	<g id="LINE_00000121248301942481651620000008482118652839274899_">
		
			<line style="fill:none;stroke:#000000;stroke-linecap:round;stroke-linejoin:round;stroke-miterlimit:10;" x1="774.26" y1="313.27" x2="774.26" y2="297.16"></line>
	</g>
	<g id="LINE_00000134929426887652500620000005043706469534806963_">
		
			<line style="fill:none;stroke:#000000;stroke-linecap:round;stroke-linejoin:round;stroke-miterlimit:10;" x1="931.64" y1="313.27" x2="919.11" y2="313.27"></line>
	</g>
	<g id="LINE_00000045601025351566535320000001072533572980832153_">
		
			<line style="fill:none;stroke:#000000;stroke-linecap:round;stroke-linejoin:round;stroke-miterlimit:10;" x1="919.11" y1="297.16" x2="931.64" y2="297.16"></line>
	</g>
	<g id="LINE_00000168100780558384323740000001911821974257397928_">
		
			<line style="fill:none;stroke:#000000;stroke-linecap:round;stroke-linejoin:round;stroke-miterlimit:10;" x1="996.99" y1="375.94" x2="755.28" y2="375.94"></line>
	</g>
	<g id="LINE_00000082341002003917612950000001482655592764988831_">
		
			<line style="fill:none;stroke:#000000;stroke-linecap:round;stroke-linejoin:round;stroke-miterlimit:10;" x1="1202.88" y1="297.16" x2="1560.96" y2="297.16"></line>
	</g>
	<g id="LINE_00000104666311252953254580000013022082035218175895_">
		
			<line style="fill:none;stroke:#000000;stroke-linecap:round;stroke-linejoin:round;stroke-miterlimit:10;" x1="1569.91" y1="313.27" x2="1193.93" y2="313.27"></line>
	</g>
	<g id="LINE_00000007406763704650807740000007113859213163296659_">
		
			<line style="fill:none;stroke:#000000;stroke-linecap:round;stroke-linejoin:round;stroke-miterlimit:10;" x1="1202.88" y1="297.16" x2="1202.88" y2="313.27"></line>
	</g>
	<g id="LINE_00000176020411922671958520000010054289713467932544_">
		
			<line style="fill:none;stroke:#000000;stroke-linecap:round;stroke-linejoin:round;stroke-miterlimit:10;" x1="1560.96" y1="297.16" x2="1560.96" y2="313.27"></line>
	</g>
	<g id="LINE_00000166664777379815306930000013087901470054083988_">
		
			<line style="fill:none;stroke:#000000;stroke-linecap:round;stroke-linejoin:round;stroke-miterlimit:10;" x1="1569.91" y1="297.16" x2="1193.93" y2="297.16"></line>
	</g>
	<g id="LINE_00000018233043953560789110000018396579678665583531_">
		
			<line style="fill:none;stroke:#000000;stroke-linecap:round;stroke-linejoin:round;stroke-miterlimit:10;" x1="1550.94" y1="305.22" x2="1212.91" y2="304.77"></line>
	</g>
	<g id="LINE_00000106840053347680571970000017457541227716047770_">
		
			<line style="fill:none;stroke:#000000;stroke-linecap:round;stroke-linejoin:round;stroke-miterlimit:10;" x1="1550.94" y1="313.27" x2="1550.94" y2="297.16"></line>
	</g>
	<g id="LINE_00000176029319310073600060000012725898276645536424_">
		
			<line style="fill:none;stroke:#000000;stroke-linecap:round;stroke-linejoin:round;stroke-miterlimit:10;" x1="1202.88" y1="297.16" x2="1202.88" y2="313.27"></line>
	</g>
	<g id="LINE_00000168803403143718565300000005213400337379166896_">
		
			<line style="fill:none;stroke:#000000;stroke-linecap:round;stroke-linejoin:round;stroke-miterlimit:10;" x1="1212.91" y1="313.27" x2="1212.91" y2="297.16"></line>
	</g>
	<g id="LINE_00000127028656505068479320000015415805808150710948_">
		
			<line style="fill:none;stroke:#000000;stroke-linecap:round;stroke-linejoin:round;stroke-miterlimit:10;" x1="1370.29" y1="313.27" x2="1357.75" y2="313.27"></line>
	</g>
	<g id="LINE_00000106128621451234987750000010995581821697902508_">
		
			<line style="fill:none;stroke:#000000;stroke-linecap:round;stroke-linejoin:round;stroke-miterlimit:10;" x1="1357.75" y1="297.16" x2="1370.29" y2="297.16"></line>
	</g>
	<g id="LINE_00000149343594176649864660000003549208674597338514_">
		
			<line style="fill:none;stroke:#000000;stroke-linecap:round;stroke-linejoin:round;stroke-miterlimit:10;" x1="1569.91" y1="375.94" x2="1193.93" y2="375.94"></line>
	</g>
	<g id="LINE_00000162342980057527213000000011526516905115056775_">
		
			<line style="fill:none;stroke:#000000;stroke-linecap:round;stroke-linejoin:round;stroke-miterlimit:10;" x1="436.6" y1="1535.04" x2="436.6" y2="1702.84"></line>
	</g>
	<g id="LWPOLYLINE_00000126295586096338068460000001314758024397093253_">
		
			<rect x="266.51" y="1527.22" style="fill:none;stroke:#000000;stroke-linecap:round;stroke-linejoin:round;stroke-miterlimit:10;" width="8.95" height="14.2"></rect>
	</g>
	<g id="ARC_00000176762586150042354340000006202335232022812347_">
		<path style="fill:none;stroke:#000000;stroke-linecap:round;stroke-linejoin:round;stroke-miterlimit:10;" d="M436.6,1702.84
			c-89.35-5.13-159.62-78.31-161.14-167.8"></path>
	</g>
	<g id="LWPOLYLINE_00000170978712437734471500000015463023015717744791_">
		
			<rect x="436.6" y="1527.22" style="fill:none;stroke:#000000;stroke-linecap:round;stroke-linejoin:round;stroke-miterlimit:10;" width="8.95" height="14.2"></rect>
	</g>
	<g id="LINE_00000146484977262723385290000005655534018490536866_">
		
			<line style="fill:none;stroke:#000000;stroke-linecap:round;stroke-linejoin:round;stroke-miterlimit:10;" x1="1242.12" y1="1013.32" x2="1391.28" y2="1013.32"></line>
	</g>
	<g id="LWPOLYLINE_00000172430008220969100790000016794180667887727272_">
		
			<rect x="1235.17" y="1156.55" style="fill:none;stroke:#000000;stroke-linecap:round;stroke-linejoin:round;stroke-miterlimit:10;" width="14.2" height="8.95"></rect>
	</g>
	<g id="ARC_00000028297036670259557100000013670209855850242217_">
		<path style="fill:none;stroke:#000000;stroke-linecap:round;stroke-linejoin:round;stroke-miterlimit:10;" d="M1391.28,1013.32
			c-4.56,79.42-69.61,141.89-149.15,143.23"></path>
	</g>
	<g id="LWPOLYLINE_00000057136720303767224910000014212781488134217883_">
		
			<rect x="1235.17" y="1004.37" style="fill:none;stroke:#000000;stroke-linecap:round;stroke-linejoin:round;stroke-miterlimit:10;" width="14.2" height="8.95"></rect>
	</g>
	<g id="LINE_00000114038551825323492890000016657220102596521902_">
		
			<line style="fill:none;stroke:#000000;stroke-linecap:round;stroke-linejoin:round;stroke-miterlimit:10;" x1="1063.34" y1="965.03" x2="1063.34" y2="815.87"></line>
	</g>
	<g id="LWPOLYLINE_00000070831646966883696130000015718321183334189461_">
		
			<rect x="1206.57" y="957.77" style="fill:none;stroke:#000000;stroke-linecap:round;stroke-linejoin:round;stroke-miterlimit:10;" width="8.95" height="14.2"></rect>
	</g>
	<g id="ARC_00000008128915678816295560000005944858309851954855_">
		<path style="fill:none;stroke:#000000;stroke-linecap:round;stroke-linejoin:round;stroke-miterlimit:10;" d="M1063.34,815.87
			c79.42,4.56,141.89,69.61,143.23,149.15"></path>
	</g>
	<g id="LWPOLYLINE_00000152987078205202769700000002350179617159537298_">
		
			<rect x="1054.38" y="957.77" style="fill:none;stroke:#000000;stroke-linecap:round;stroke-linejoin:round;stroke-miterlimit:10;" width="8.95" height="14.2"></rect>
	</g>
	<g id="LINE_00000137815468663937955240000012959785209773563024_">
		
			<line style="fill:none;stroke:#000000;stroke-linecap:round;stroke-linejoin:round;stroke-miterlimit:10;" x1="1039.96" y1="1188.8" x2="1039.96" y2="1058.29"></line>
	</g>
	<g id="LWPOLYLINE_00000155851870461465378760000003940733333941423755_">
		
			<rect x="905.68" y="1180.68" style="fill:none;stroke:#000000;stroke-linecap:round;stroke-linejoin:round;stroke-miterlimit:10;" width="8.95" height="14.2"></rect>
	</g>
	<g id="ARC_00000062908712459290109420000002177833553667261620_">
		<path style="fill:none;stroke:#000000;stroke-linecap:round;stroke-linejoin:round;stroke-miterlimit:10;" d="M1039.96,1058.29
			c-69.5,3.99-124.15,60.91-125.33,130.51"></path>
	</g>
	<g id="LWPOLYLINE_00000175306361562262514680000010333344757388427924_">
		
			<rect x="1039.96" y="1180.68" style="fill:none;stroke:#000000;stroke-linecap:round;stroke-linejoin:round;stroke-miterlimit:10;" width="8.95" height="14.2"></rect>
	</g>
	<g id="LINE_00000101094643544073223710000017440470716151769533_">
		
			<line style="fill:none;stroke:#000000;stroke-linecap:round;stroke-linejoin:round;stroke-miterlimit:10;" x1="600.44" y1="1212.05" x2="469.93" y2="1212.05"></line>
	</g>
	<g id="LWPOLYLINE_00000140705661479830162470000009937417590846892453_">
		
			<rect x="592.32" y="1337.38" style="fill:none;stroke:#000000;stroke-linecap:round;stroke-linejoin:round;stroke-miterlimit:10;" width="14.2" height="8.95"></rect>
	</g>
	<g id="ARC_00000083793464771315709580000009089916399741132464_">
		<path style="fill:none;stroke:#000000;stroke-linecap:round;stroke-linejoin:round;stroke-miterlimit:10;" d="M469.93,1212.05
			c3.99,69.5,60.91,124.15,130.51,125.33"></path>
	</g>
	<g id="LWPOLYLINE_00000111909367070119123270000017980203304747709332_">
		
			<rect x="592.32" y="1203.1" style="fill:none;stroke:#000000;stroke-linecap:round;stroke-linejoin:round;stroke-miterlimit:10;" width="14.2" height="8.95"></rect>
	</g>
	<g id="LINE_00000062907931751872787200000012560888527847959967_">
		<g>
			<g>
				
					<line style="fill:none;stroke:#000000;stroke-linecap:round;stroke-linejoin:round;" x1="296.95" y1="1181.62" x2="301.95" y2="1181.62"></line>
				
					<line style="fill:none;stroke:#000000;stroke-linecap:round;stroke-linejoin:round;stroke-dasharray:9.7493,9.7493;" x1="311.69" y1="1181.62" x2="579.8" y2="1181.62"></line>
				
					<line style="fill:none;stroke:#000000;stroke-linecap:round;stroke-linejoin:round;" x1="584.68" y1="1181.62" x2="589.68" y2="1181.62"></line>
			</g>
		</g>
	</g>
	<g id="LINE_00000012455050519014326640000006961218957043936179_">
		<g>
			<g>
				
					<line style="fill:none;stroke:#000000;stroke-linecap:round;stroke-linejoin:round;" x1="1000.57" y1="964.88" x2="995.57" y2="964.88"></line>
				
					<line style="fill:none;stroke:#000000;stroke-linecap:round;stroke-linejoin:round;stroke-dasharray:9.7339,9.7339;" x1="985.84" y1="964.88" x2="834.96" y2="964.88"></line>
				
					<line style="fill:none;stroke:#000000;stroke-linecap:round;stroke-linejoin:round;" x1="830.09" y1="964.88" x2="825.09" y2="964.88"></line>
			</g>
		</g>
	</g>
	<g id="LINE_00000024705154632989860890000010836969765510686395_">
		<g>
			<g>
				
					<line style="fill:none;stroke:#000000;stroke-linecap:round;stroke-linejoin:round;" x1="825.09" y1="964.88" x2="825.09" y2="969.88"></line>
				
					<line style="fill:none;stroke:#000000;stroke-linecap:round;stroke-linejoin:round;stroke-dasharray:9.6743,9.6743;" x1="825.09" y1="979.55" x2="825.11" y2="1168.2"></line>
				
					<line style="fill:none;stroke:#000000;stroke-linecap:round;stroke-linejoin:round;" x1="825.11" y1="1173.04" x2="825.11" y2="1178.04"></line>
			</g>
		</g>
	</g>
	<g id="LWPOLYLINE_00000124150119117431323800000017919117735673128833_">
		
			<rect x="189.52" y="660.74" style="fill:none;stroke:#000000;stroke-linecap:round;stroke-linejoin:round;stroke-miterlimit:10;" width="105.5" height="105.5"></rect>
	</g>
	<g id="LWPOLYLINE_00000071561067526197705190000011460106177100080779_">
		
			<line style="fill:none;stroke:#000000;stroke-linecap:round;stroke-linejoin:round;stroke-miterlimit:10;" x1="251.06" y1="687.12" x2="286.23" y2="687.12"></line>
	</g>
	<g id="LWPOLYLINE_00000005976872126444949110000002564816287691576980_">
		
			<line style="fill:none;stroke:#000000;stroke-linecap:round;stroke-linejoin:round;stroke-miterlimit:10;" x1="268.64" y1="704.7" x2="268.64" y2="669.53"></line>
	</g>
	<g id="CIRCLE_00000139985502499024707120000014887500643609697182_">
		
			<circle style="fill:none;stroke:#000000;stroke-linecap:round;stroke-linejoin:round;stroke-miterlimit:10;" cx="268.64" cy="687.12" r="14.07"></circle>
	</g>
	<g id="LWPOLYLINE_00000054987846067563086340000016091632721640110481_">
		
			<line style="fill:none;stroke:#000000;stroke-linecap:round;stroke-linejoin:round;stroke-miterlimit:10;" x1="198.31" y1="687.12" x2="233.48" y2="687.12"></line>
	</g>
	<g id="LWPOLYLINE_00000098215514305921887710000012354132725625425540_">
		
			<line style="fill:none;stroke:#000000;stroke-linecap:round;stroke-linejoin:round;stroke-miterlimit:10;" x1="215.89" y1="704.7" x2="215.89" y2="669.53"></line>
	</g>
	<g id="CIRCLE_00000168801614964218946830000010017429674710834308_">
		
			<circle style="fill:none;stroke:#000000;stroke-linecap:round;stroke-linejoin:round;stroke-miterlimit:10;" cx="215.89" cy="687.12" r="14.07"></circle>
	</g>
	<g id="LWPOLYLINE_00000110439693973312465170000017021632500939011978_">
		
			<line style="fill:none;stroke:#000000;stroke-linecap:round;stroke-linejoin:round;stroke-miterlimit:10;" x1="198.31" y1="739.87" x2="233.48" y2="739.87"></line>
	</g>
	<g id="LWPOLYLINE_00000174599276113426928190000018316546382941591969_">
		
			<line style="fill:none;stroke:#000000;stroke-linecap:round;stroke-linejoin:round;stroke-miterlimit:10;" x1="215.89" y1="757.45" x2="215.89" y2="722.28"></line>
	</g>
	<g id="CIRCLE_00000115485380007993429890000012466193630620039607_">
		
			<circle style="fill:none;stroke:#000000;stroke-linecap:round;stroke-linejoin:round;stroke-miterlimit:10;" cx="215.89" cy="739.87" r="14.07"></circle>
	</g>
	<g id="LWPOLYLINE_00000121239525008927700850000003145669979172830395_">
		
			<line style="fill:none;stroke:#000000;stroke-linecap:round;stroke-linejoin:round;stroke-miterlimit:10;" x1="251.06" y1="739.87" x2="286.23" y2="739.87"></line>
	</g>
	<g id="LWPOLYLINE_00000121978273041165352560000009207413425735477153_">
		
			<line style="fill:none;stroke:#000000;stroke-linecap:round;stroke-linejoin:round;stroke-miterlimit:10;" x1="268.64" y1="757.45" x2="268.64" y2="722.28"></line>
	</g>
	<g id="CIRCLE_00000095328896768905262590000016429283644498495676_">
		
			<circle style="fill:none;stroke:#000000;stroke-linecap:round;stroke-linejoin:round;stroke-miterlimit:10;" cx="268.64" cy="739.87" r="14.07"></circle>
	</g>
	<g id="LWPOLYLINE_00000018228244423380551450000017065611440830523818_">
		
			<rect x="189.52" y="1040.98" style="fill:none;stroke:#000000;stroke-linecap:round;stroke-linejoin:round;stroke-miterlimit:10;" width="105.5" height="105.5"></rect>
	</g>
	<g id="LWPOLYLINE_00000105413360714762804290000009054793319062546070_">
		<path style="fill:none;stroke:#000000;stroke-linecap:round;stroke-linejoin:round;stroke-miterlimit:10;" d="M280.08,1049.77
			l-66.77,0c-3.4,0-6.15,2.75-6.16,6.15c0,0,0,0,0,0l0,75.61c0,3.4,2.75,6.16,6.15,6.16c0,0,0,0,0,0l66.78,0
			c3.4,0,6.15-2.75,6.15-6.15c0,0,0,0,0,0l0-75.61C286.23,1052.52,283.48,1049.77,280.08,1049.77z"></path>
	</g>
	<g id="LWPOLYLINE_00000015343555861076682980000017167646754971345333_">
		<path style="fill:none;stroke:#000000;stroke-linecap:round;stroke-linejoin:round;stroke-miterlimit:10;" d="M230.42,1076.14
			c0-3.41-2.76-6.17-6.17-6.17c0,0,0,0,0,0c-3.41,0-6.17,2.76-6.17,6.17c0,0,0,0,0,0c0,3.41,2.76,6.17,6.17,6.17c0,0,0,0,0,0
			C227.66,1082.31,230.42,1079.55,230.42,1076.14C230.42,1076.14,230.42,1076.14,230.42,1076.14z"></path>
	</g>
	<g id="LWPOLYLINE_00000144317249015427539760000008315238106381926535_">
		
			<line style="fill:none;stroke:#000000;stroke-linecap:round;stroke-linejoin:round;stroke-miterlimit:10;" x1="676.71" y1="1422.27" x2="724.2" y2="1422.27"></line>
	</g>
	<g id="LWPOLYLINE_00000062150373944735737020000009351264101872962432_">
		<path style="fill:none;stroke:#000000;stroke-linecap:round;stroke-linejoin:round;stroke-miterlimit:10;" d="M727.94,1414.36
			l0-33.25c0-17.49-14.18-31.66-31.67-31.66c-17.49,0-31.66,14.18-31.66,31.66l0,33.25c0,4.37,3.54,7.91,7.91,7.91l47.5,0
			C724.4,1422.28,727.94,1418.73,727.94,1414.36C727.94,1414.36,727.94,1414.36,727.94,1414.36z"></path>
	</g>
	<g id="LWPOLYLINE_00000078031436140606220410000013442363029669548688_">
		<path style="fill:none;stroke:#000000;stroke-linecap:round;stroke-linejoin:round;stroke-miterlimit:10;" d="M670.95,1381.11
			l0,11.1c0,13.99,11.35,25.33,25.34,25.33c13.99,0,25.33-11.34,25.33-25.33v-11.1c0-13.99-11.35-25.33-25.34-25.33
			C682.29,1355.78,670.95,1367.12,670.95,1381.11z"></path>
	</g>
	<g id="LWPOLYLINE_00000023991931324991146340000008632103452818181560_">
		<path style="fill:none;stroke:#000000;stroke-linecap:round;stroke-linejoin:round;stroke-miterlimit:10;" d="M686.78,1391.3v11.1
			c0,5.25,4.25,9.5,9.5,9.5s9.5-4.25,9.5-9.5c0,0,0,0,0,0l0-11.1c0-5.25-4.25-9.5-9.5-9.5
			C691.03,1381.8,686.78,1386.05,686.78,1391.3z"></path>
	</g>
	<g id="LWPOLYLINE_00000009564769255618958550000001724724544396042663_">
		
			<rect x="645.8" y="1422.27" style="fill:none;stroke:#000000;stroke-linecap:round;stroke-linejoin:round;stroke-miterlimit:10;" width="100.96" height="24.32"></rect>
	</g>
	<g id="LWPOLYLINE_00000158007923564860886580000016793629379810566029_">
		
			<line style="fill:none;stroke:#000000;stroke-linecap:round;stroke-linejoin:round;stroke-miterlimit:10;" x1="609.37" y1="1446.59" x2="799.15" y2="1446.59"></line>
	</g>
	<g id="LWPOLYLINE_00000098927231936228087490000004544312672230852790_">
		
			<line style="fill:none;stroke:#000000;stroke-linecap:round;stroke-linejoin:round;stroke-miterlimit:10;" x1="799.15" y1="1306.56" x2="799.15" y2="1233.89"></line>
	</g>
	<g id="LWPOLYLINE_00000135654171242493427260000012670034611781501058_">
		<path style="fill:none;stroke:#000000;stroke-linecap:round;stroke-linejoin:round;stroke-miterlimit:10;" d="M799.15,1233.89
			l-37.33,0c-5.26,0-9.91,3.39-11.53,8.4c-5.85,18.16-5.85,37.71,0,55.87c1.61,5,6.27,8.4,11.53,8.4l37.33,0"></path>
	</g>
	<g id="LWPOLYLINE_00000170251399606304219070000003293969734009190289_">
		<path style="fill:none;stroke:#000000;stroke-linecap:round;stroke-linejoin:round;stroke-miterlimit:10;" d="M788.71,1289.61
			c0,4.01-3.25,7.27-7.27,7.27l-11.63,0c-2.66,0-5.01-1.74-5.79-4.28c-4.46-14.57-4.46-30.15,0-44.72c0.78-2.54,3.13-4.28,5.79-4.28
			h11.63c4.01,0,7.27,3.25,7.27,7.27"></path>
	</g>
	<g id="LWPOLYLINE_00000018949435555031022310000013987956225260487334_">
		<path style="fill:none;stroke:#000000;stroke-linecap:round;stroke-linejoin:round;stroke-miterlimit:10;" d="M781.44,1238.74
			l-19.61,0c-3.15,0-5.95,2.03-6.92,5.04c-5.54,17.2-5.54,35.7,0,52.9c0.97,3,3.76,5.04,6.92,5.04l19.61,0
			c4.01,0,7.27-3.25,7.27-7.27l0-48.45C788.7,1241.99,785.45,1238.74,781.44,1238.74z"></path>
	</g>
	<g id="LWPOLYLINE_00000157310604004992063340000015503576189785966765_">
		<path style="fill:none;stroke:#000000;stroke-linecap:round;stroke-linejoin:round;stroke-miterlimit:10;" d="M786.54,1270.23
			c0-1.8-1.46-3.26-3.26-3.26c-1.8,0-3.26,1.46-3.26,3.26c0,1.8,1.46,3.26,3.26,3.26c0,0,0,0,0,0
			C785.08,1273.49,786.54,1272.03,786.54,1270.23C786.54,1270.23,786.54,1270.23,786.54,1270.23z"></path>
	</g>
	<g id="LWPOLYLINE_00000112611858057564506800000017725593192613512871_">
		
			<rect x="828.69" y="1384.86" style="fill:none;stroke:#000000;stroke-linecap:round;stroke-linejoin:round;stroke-miterlimit:10;" width="297.21" height="125.29"></rect>
	</g>
	<g id="LWPOLYLINE_00000048467233611907891150000010599767610661414039_">
		<path style="fill:none;stroke:#000000;stroke-linecap:round;stroke-linejoin:round;stroke-miterlimit:10;" d="M864.66,1500.13
			l197.85,0c29.06,0,52.62-23.56,52.62-52.62c0-29.06-23.56-52.62-52.62-52.62l-197.85,0c-13.89,0-25.19,11.17-25.36,25.05l0,55.13
			c0,13.84,11.22,25.06,25.06,25.06"></path>
	</g>
	<g id="LWPOLYLINE_00000013156988116005567570000011142110914178980245_">
		<path style="fill:none;stroke:#000000;stroke-linecap:round;stroke-linejoin:round;stroke-miterlimit:10;" d="M927.22,1485.81
			l135.29,0c21.15,0,38.3-17.15,38.31-38.3c0-21.15-17.15-38.3-38.3-38.31c0,0,0,0,0,0l-133.32,0
			c-21.17,0.02-38.32,17.19-38.3,38.36C890.91,1467.94,906.87,1484.75,927.22,1485.81z"></path>
	</g>
	<g id="LWPOLYLINE_00000005981005873068527960000012510853052273458076_">
		
			<line style="fill:none;stroke:#000000;stroke-linecap:round;stroke-linejoin:round;stroke-miterlimit:10;" x1="890.89" y1="1447.51" x2="890.89" y2="1447.56"></line>
	</g>
	<g id="LWPOLYLINE_00000013887506018275809080000015216030808952878243_">
		<path style="fill:none;stroke:#000000;stroke-linecap:round;stroke-linejoin:round;stroke-miterlimit:10;" d="M1069.52,1447.51
			c0-3.87-3.14-7.01-7.01-7.01c-3.87,0-7.01,3.13-7.01,7.01c0,0,0,0,0,0.01c0,3.87,3.13,7.01,7.01,7.01c0,0,0,0,0.01,0
			C1066.38,1454.52,1069.52,1451.38,1069.52,1447.51z"></path>
	</g>
	<g id="LWPOLYLINE_00000005258005121521658640000003616448774374394287_">
		<path style="fill:none;stroke:#000000;stroke-linecap:round;stroke-linejoin:round;stroke-miterlimit:10;" d="M1062.51,1485.81
			c21.15,0,38.3-17.15,38.3-38.3c0,0,0,0,0,0c0-21.15-17.15-38.3-38.3-38.3c0,0,0,0,0,0"></path>
	</g>
	<g id="LWPOLYLINE_00000049221657882229702090000017966521385855118990_">
		
			<line style="fill:none;stroke:#000000;stroke-linecap:round;stroke-linejoin:round;stroke-miterlimit:10;" x1="828.69" y1="1224.7" x2="828.69" y2="1329.2"></line>
	</g>
	<g id="LWPOLYLINE_00000003787640365788674140000017806538494245719426_">
		<path style="fill:none;stroke:#000000;stroke-linecap:round;stroke-linejoin:round;stroke-miterlimit:10;" d="M828.7,1329.2
			l53.67,0c7.56,0,14.26-4.88,16.58-12.08c8.41-26.12,8.41-54.22,0-80.34c-2.32-7.2-9.02-12.08-16.58-12.08l-53.67,0"></path>
	</g>
	<g id="LWPOLYLINE_00000174582989525317537610000002824566741611424386_">
		<path style="fill:none;stroke:#000000;stroke-linecap:round;stroke-linejoin:round;stroke-miterlimit:10;" d="M843.71,1249.08
			c0-5.77,4.68-10.45,10.45-10.45h16.72c3.83,0,7.21,2.5,8.32,6.16c6.42,20.96,6.42,43.36,0,64.31c-1.12,3.66-4.5,6.15-8.32,6.16
			h-16.72c-5.77,0-10.45-4.68-10.45-10.45"></path>
	</g>
	<g id="LWPOLYLINE_00000109713715825011098870000012460326241342867896_">
		<path style="fill:none;stroke:#000000;stroke-linecap:round;stroke-linejoin:round;stroke-miterlimit:10;" d="M854.16,1322.23
			l28.2,0c4.54,0,8.56-2.92,9.95-7.24c7.97-24.73,7.97-51.34,0-76.07c-1.39-4.32-5.41-7.24-9.95-7.25l-28.21,0
			c-5.77,0-10.45,4.68-10.45,10.45l0,69.67C843.72,1317.56,848.39,1322.23,854.16,1322.23z"></path>
	</g>
	<g id="LWPOLYLINE_00000096057896641903436910000009766689508651819915_">
		<path style="fill:none;stroke:#000000;stroke-linecap:round;stroke-linejoin:round;stroke-miterlimit:10;" d="M846.83,1276.95
			c0,2.59,2.1,4.69,4.69,4.69c2.59,0,4.69-2.1,4.69-4.69c0-2.59-2.1-4.69-4.69-4.69c0,0,0,0,0,0
			C848.92,1272.26,846.83,1274.36,846.83,1276.95C846.83,1276.95,846.83,1276.95,846.83,1276.95z"></path>
	</g>
	<g id="LWPOLYLINE_00000106129123930727992360000011807748675486247611_">
		
			<rect x="1041.5" y="1226.08" style="fill:none;stroke:#000000;stroke-linecap:round;stroke-linejoin:round;stroke-miterlimit:10;" width="84.39" height="105.55"></rect>
	</g>
	<g id="LWPOLYLINE_00000089554718442001194170000018162652425855785143_">
		<polyline style="fill:none;stroke:#000000;stroke-linecap:round;stroke-linejoin:round;stroke-miterlimit:10;" points="
			1111.01,1315.03 1069.03,1278.85 1097.53,1278.85 1055.55,1242.68 		"></polyline>
	</g>
	<g id="LWPOLYLINE_00000078758433783103560670000018191987990938768263_">
		<path style="fill:none;stroke:#000000;stroke-linecap:round;stroke-linejoin:round;stroke-miterlimit:10;" d="M1114.94,1278.85
			c0-17.49-14.18-31.66-31.66-31.66c-17.49,0-31.66,14.18-31.67,31.66c0,17.49,14.18,31.67,31.67,31.67
			C1100.77,1310.52,1114.94,1296.34,1114.94,1278.85z"></path>
	</g>
	<g>
		<g id="LWPOLYLINE_00000089555585288975995860000010779667084339385745_">
			
				<rect x="196.73" y="1188.25" style="fill:none;stroke:#000000;stroke-linecap:round;stroke-linejoin:round;stroke-miterlimit:10;" width="81.09" height="25.93"></rect>
		</g>
		<g id="LWPOLYLINE_00000040538633847941387640000001118196635506330292_">
			<polyline style="fill:none;stroke:#000000;stroke-linecap:round;stroke-linejoin:round;stroke-miterlimit:10;" points="
				277.82,1214.18 263.32,1192.7 196.73,1188.25 			"></polyline>
		</g>
	</g>
</g>
</svg>
