<?xml version="1.0" encoding="utf-8"?>
<!-- Generator: Adobe Illustrator 24.1.2, SVG Export Plug-In . SVG Version: 6.00 Build 0)  -->
<svg version="1.0" id="Layer_1" xmlns="http://www.w3.org/2000/svg" xmlns:xlink="http://www.w3.org/1999/xlink" x="0px" y="0px" width="2000px" height="2000px" viewBox="0 0 2000 2000" style="enable-background:new 0 0 2000 2000;" xml:space="preserve">
<path id="background" style="fill-rule:evenodd;clip-rule:evenodd;fill:#FFFFFF;" d="M1900.41,1124.28v310.37c0,0,0,0.01,0,0.01
	c0,0.04-0.01,0.08-0.02,0.12c-0.01,0.02-0.01,0.05-0.02,0.07c-0.01,0.03-0.03,0.05-0.05,0.07c-0.02,0.03-0.03,0.06-0.06,0.09
	c-0.02,0.02-0.04,0.02-0.06,0.04c-0.03,0.03-0.07,0.05-0.11,0.07c0,0,0,0-0.01,0c-0.06,0.02-0.12,0.03-0.18,0.03h-118.9v0.87
	c0,0.28-0.22,0.5-0.5,0.5v202.72h-12.47h-34.09h-104.91c0,0,0,0,0,0c0,0.28-0.22,0.5-0.5,0.5h-315c-0.28,0-0.5-0.22-0.5-0.5
	c0,0,0,0,0,0h-196.87c0,0,0,0,0,0c0,0.28-0.22,0.5-0.5,0.5h-2.5v118.93c0,0.03-0.01,0.06-0.02,0.1c-0.01,0.03,0,0.06-0.01,0.08
	c0,0,0,0,0,0c-0.03,0.08-0.09,0.15-0.16,0.21c-0.02,0.01-0.03,0.02-0.05,0.03c-0.07,0.04-0.16,0.08-0.25,0.08H800.24
	c-0.09,0-0.18-0.03-0.25-0.08c-0.02-0.01-0.03-0.02-0.05-0.03c-0.07-0.05-0.13-0.12-0.16-0.21c0,0,0,0,0,0
	c-0.01-0.03-0.01-0.06-0.01-0.08c-0.01-0.03-0.02-0.06-0.02-0.1v-119.43c0,0,0,0,0,0H599.91c0,0,0,0,0,0c0,0.28-0.22,0.5-0.5,0.5
	h-315c-0.28,0-0.5-0.22-0.5-0.5c0-0.12,0.05-0.22,0.12-0.31H99.91v-10.88v-36.72v-336.71v-112.78V856.98V849V627.07h34.25h52.41
	h291.84V576.6c-0.21-0.06-0.38-0.24-0.38-0.48v-11.55H321.09c-0.28,0-0.5-0.22-0.5-0.5c0-51.28,14.82-90.33,44.04-116.08
	c26.75-23.57,64.91-35.57,113.41-35.68v-13.26c0-0.23,0.16-0.42,0.38-0.48v-35.08V306.8v-29.12v-36.18h34.25h274.03v0.21h368.22
	h34.25v248.34h232.92v-0.11h358.43v0.27v35.81v79.48c0.28,0,0.5,0.22,0.5,0.5v315c0,0.28-0.22,0.5-0.5,0.5v199.01
	c0.28,0,0.5,0.22,0.5,0.5v2.76h118.9c0.03,0,0.06,0.01,0.09,0.02c0.03,0.01,0.06,0,0.09,0.01c0,0,0,0,0.01,0
	c0.04,0.02,0.07,0.04,0.1,0.07c0.02,0.01,0.04,0.02,0.06,0.04c0.02,0.02,0.04,0.06,0.06,0.08c0.02,0.02,0.04,0.05,0.05,0.07
	c0.01,0.02,0.01,0.05,0.02,0.07C1900.4,1124.19,1900.41,1124.23,1900.41,1124.28C1900.41,1124.27,1900.41,1124.28,1900.41,1124.28z"></path>
<g id="h1">
	<path id="h1_path" style="fill:none;" d="M505.99,968.78V655.51h-9.45V260.39h48.8v0.84l216.45,0.27v450.25v257.03H505.99z"></path>
	<text id="h1_text" transform="matrix(1 0 0 1 610.8734 653.7583)" style="font-family: GraphikLCG-Regular; font-size: 40px; text-anchor: middle; text-align: center;"></text>
</g>
<g id="s1">
	<path id="s1_path" style="fill:none;" d="M506.77,664.17v300.67H194.3V664.17H506.77z"></path>
	<text id="s1_text" transform="matrix(1 0 0 1 363.4071 835.7958)" style="font-family: GraphikLCG-Regular; font-size: 40px; text-anchor: middle; text-align: center;"></text>
</g>
<g id="s2">
	<path id="s2_path" style="fill:none;" d="M1155.23,274.42v324.24h-391.7V274.42H1155.23z"></path>
	<text id="s2_text" transform="matrix(1 0 0 1 893.9671 521.0786)" style="font-family: GraphikLCG-Regular; font-size: 40px; text-anchor: middle; text-align: center;"></text>
</g>
<g id="r1">
	<path id="r1_path" style="fill:none;" d="M1754.59,1020.29H1439.8l0,0h-280.27V512.22h280.27v-3.85l313.78-0.05
		L1754.59,1020.29z"></path>
	
		<text id="r1_text" transform="matrix(1 0 0 1 1227.2087 779.0381)" style="font-family: GraphikLCG-Regular; font-size: 40px; text-anchor: middle; text-align: center;"></text>
</g>
<g id="r2">
	<path id="r2_path" style="fill:none;" d="M1755.63,1611.31h-594v-591.84l592.11-0.06L1755.63,1611.31z"></path>
	
		<text id="r2_text" transform="matrix(1 0 0 1 1354.1052 1310.4608)" style="font-family: GraphikLCG-Regular; font-size: 40px; text-anchor: middle; text-align: center;"></text>
</g>
<g id="c1">
	<path id="c1_path" style="fill:none;" d="M427.48,970.28h518.14l0,0l217.87,1l1.3,637.66H199.51h-1.3l-78.69,1.32v-494.93h1.95
		V970.89l306.01-1.32V970.28z"></path>
	
		<text id="c1_text" transform="matrix(1 0 0 1 640.8275 1179.5629)" style="font-family: GraphikLCG-Regular; font-size: 40px; text-anchor: middle; text-align: center;"></text>
</g>
<g id="g1">
	<path id="g1_path" style="fill:none;" d="M854.79,971.14v-1.07h-94.05V840.71l0,0v-70.22V597.27h126.12v-0.78h274.77v374.66
		H854.79z"></path>
	<text id="g1_text" transform="matrix(1 0 0 1 1021.1776 770.415)" style="font-family: GraphikLCG-Regular; font-size: 40px; text-anchor: middle; text-align: center;"></text>
</g>
<path id="u7" style="fill:#FFFFFF;stroke:#FFFFFF;stroke-linecap:round;stroke-linejoin:round;stroke-miterlimit:10;" d="
	M921.42,1136.83c-8.74,0-15.82-7.08-15.82-15.82s7.08-15.82,15.82-15.82s15.82,7.08,15.82,15.82S930.16,1136.83,921.42,1136.83z"></path>
<path id="u3" style="fill:#FFFFFF;stroke:#FFFFFF;stroke-linecap:round;stroke-linejoin:round;stroke-miterlimit:10;" d="
	M826.16,675.37c-8.74,0-15.82-7.08-15.82-15.82c0-8.74,7.08-15.82,15.82-15.82s15.82,7.08,15.82,15.82
	C841.98,668.28,834.9,675.37,826.16,675.37z"></path>
<g id="mebel">
	<g>
		
			<rect x="767.04" y="859.16" transform="matrix(-1 -1.135027e-10 1.135027e-10 -1 1922.3566 1819.4943)" style="fill:none;stroke:#000000;stroke-linecap:round;stroke-linejoin:round;stroke-miterlimit:10;" width="388.28" height="101.17"></rect>
		<polygon style="fill:none;stroke:#000000;stroke-linecap:round;stroke-linejoin:round;stroke-miterlimit:10;" points="
			766.41,866.41 1154.69,866.41 1155.32,859.16 767.04,859.16 		"></polygon>
	</g>
	<g>
		<g>
			
				<rect x="1136.91" y="1339.72" style="fill:none;stroke:#000000;stroke-linecap:round;stroke-linejoin:round;stroke-miterlimit:10;" width="9.74" height="184.69"></rect>
			<polygon style="fill:none;stroke:#000000;stroke-linecap:round;stroke-linejoin:round;stroke-miterlimit:10;" points="
				1155.16,1501.32 1146.65,1524.41 1146.65,1339.72 1155.16,1362.81 			"></polygon>
		</g>
		
			<rect x="1119.32" y="1329.62" style="fill:none;stroke:#000000;stroke-linecap:round;stroke-linejoin:round;stroke-miterlimit:10;" width="35.84" height="205.52"></rect>
	</g>
	<g>
		<g>
			<path style="fill:#FFFFFF;stroke:#000000;stroke-linecap:round;stroke-linejoin:round;stroke-miterlimit:10;" d="M180.52,1368.24
				l-0.66,0.45c-1.06,0.73-2.31,1.09-3.6,1.23c-0.95,0.1-1.87,0.55-2.56,1.38c-1.01,1.21-1.19,2.99-0.41,4.36
				c1.27,2.24,4.17,2.64,5.99,1.04c0.68-0.6,1.09-1.38,1.24-2.2c0.22-1.2,0.81-2.3,1.63-3.21l0.54-0.6c0.73-0.81,2-0.81,2.72,0.01
				l2.02,2.29c1.11,1.25,3.02,1.37,4.27,0.27l17.22-15.18c1.25-1.11,1.37-3.02,0.27-4.27l-8.59-9.75c-1.11-1.25-3.02-1.37-4.27-0.27
				l-17.22,15.18c-1.25,1.11-1.37,3.02-0.27,4.27l2.02,2.29C181.57,1366.36,181.41,1367.62,180.52,1368.24z"></path>
			
				<circle style="fill:#FFFFFF;stroke:#000000;stroke-linecap:round;stroke-linejoin:round;stroke-miterlimit:10;" cx="176.76" cy="1373.74" r="1.89"></circle>
		</g>
		<g>
			<path style="fill:#FFFFFF;stroke:#000000;stroke-linecap:round;stroke-linejoin:round;stroke-miterlimit:10;" d="M192.73,1362.98
				l-1.54,4.58c-0.12,0.36-0.51,0.55-0.87,0.43l-6.79-2.29c-0.36-0.12-0.55-0.51-0.43-0.87l1.54-4.58c0.12-0.36,0.51-0.55,0.87-0.43
				l6.79,2.29C192.65,1362.23,192.85,1362.62,192.73,1362.98z"></path>
			<path style="fill:#FFFFFF;stroke:#000000;stroke-linecap:round;stroke-linejoin:round;stroke-miterlimit:10;" d="M198.8,1357.62
				l-1.54,4.58c-0.12,0.36-0.51,0.55-0.87,0.43l-6.79-2.29c-0.36-0.12-0.55-0.51-0.43-0.87l1.54-4.58c0.12-0.36,0.51-0.55,0.87-0.43
				l6.79,2.29C198.73,1356.88,198.92,1357.27,198.8,1357.62z"></path>
			<path style="fill:#FFFFFF;stroke:#000000;stroke-linecap:round;stroke-linejoin:round;stroke-miterlimit:10;" d="M204.85,1352.29
				l-1.54,4.58c-0.12,0.36-0.51,0.55-0.87,0.43l-6.79-2.29c-0.36-0.12-0.55-0.51-0.43-0.87l1.54-4.58c0.12-0.36,0.51-0.55,0.87-0.43
				l6.79,2.29C204.78,1351.55,204.97,1351.94,204.85,1352.29z"></path>
		</g>
	</g>
	
		<rect x="137.59" y="1257.78" transform="matrix(-1 -1.528272e-10 1.528272e-10 -1 378.6367 2713.6125)" style="fill:none;stroke:#000000;stroke-linecap:round;stroke-linejoin:round;stroke-miterlimit:10;" width="103.45" height="198.05"></rect>
	<g>
		
			<rect x="1070.45" y="1335.47" transform="matrix(7.889962e-11 -1 1 7.889962e-11 -166.7463 2607.5129)" style="fill:none;stroke:#000000;stroke-linecap:round;stroke-linejoin:round;stroke-miterlimit:10;" width="299.87" height="103.32"></rect>
		
			<rect x="1118.78" y="1383.8" transform="matrix(7.872997e-11 -1 1 7.872997e-11 -118.4189 2655.8403)" style="fill:none;stroke:#000000;stroke-linecap:round;stroke-linejoin:round;stroke-miterlimit:10;" width="299.87" height="6.67"></rect>
	</g>
	<g>
		
			<ellipse transform="matrix(0.9936 -0.1131 0.1131 0.9936 -164.8894 190.5767)" style="fill:none;stroke:#000000;stroke-linecap:round;stroke-linejoin:round;stroke-miterlimit:10;" cx="1596.9" cy="1548.28" rx="5.32" ry="5.4"></ellipse>
		
			<ellipse transform="matrix(0.9936 -0.1131 0.1131 0.9936 -164.8894 190.5767)" style="fill:none;stroke:#000000;stroke-linecap:round;stroke-linejoin:round;stroke-miterlimit:10;" cx="1596.9" cy="1548.28" rx="3.76" ry="3.82"></ellipse>
		
			<line style="fill:none;stroke:#000000;stroke-linecap:round;stroke-linejoin:round;stroke-miterlimit:10;" x1="1594.43" y1="1552.75" x2="1592.61" y2="1556.06"></line>
		<path style="fill:none;stroke:#000000;stroke-linecap:round;stroke-linejoin:round;stroke-miterlimit:10;" d="M1602.95,1560.63
			c-3.74,1.88-7.89,1.78-11.44,0.2l1.62-2.95c0.35-0.65,0.12-1.46-0.51-1.83c-0.4-0.23-0.86-0.22-1.23-0.03
			c-0.23,0.12-0.43,0.3-0.57,0.55l-1.61,2.94c-1.82-1.28-3.38-2.98-4.44-5.14c-3.34-6.82-0.61-15.08,6.1-18.45
			c6.71-3.37,14.85-0.57,18.19,6.26C1612.38,1549,1609.65,1557.26,1602.95,1560.63z"></path>
		<g>
			<polygon style="fill:none;stroke:#000000;stroke-linecap:round;stroke-linejoin:round;stroke-miterlimit:10;" points="
				1581.67,1578.76 1583.98,1580.07 1581.69,1584.24 1579.38,1582.92 			"></polygon>
			<polygon style="fill:none;stroke:#000000;stroke-linecap:round;stroke-linejoin:round;stroke-miterlimit:10;" points="
				1577.07,1581.61 1574.76,1580.3 1577.05,1576.13 1579.35,1577.44 			"></polygon>
		</g>
		<g>
			<path style="fill:none;stroke:#000000;stroke-linecap:round;stroke-linejoin:round;stroke-miterlimit:10;" d="M1586.58,1569.8
				c1.01,0.8,1.87,1.81,2.48,3.05c2.18,4.45,0.4,9.83-3.97,12.03c-2.26,1.14-4.77,1.18-6.97,0.35L1586.58,1569.8z"></path>
			<path style="fill:none;stroke:#000000;stroke-linecap:round;stroke-linejoin:round;stroke-miterlimit:10;" d="M1575.8,1583.92
				c-1.05-0.81-1.95-1.84-2.57-3.12c-2.18-4.45-0.4-9.83,3.97-12.03c2.3-1.15,4.85-1.17,7.07-0.31L1575.8,1583.92z"></path>
		</g>
		<g>
			<path style="fill:none;stroke:#000000;stroke-linecap:round;stroke-linejoin:round;stroke-miterlimit:10;" d="M1591.37,1556.02
				c-0.23,0.12-0.43,0.3-0.57,0.55l-17.19,31.33c-0.35,0.65-0.12,1.46,0.51,1.83c0.64,0.36,1.44,0.13,1.8-0.51l17.19-31.33
				c0.35-0.65,0.12-1.46-0.51-1.83C1592.21,1555.83,1591.75,1555.83,1591.37,1556.02z"></path>
		</g>
	</g>
	<g>
		
			<rect x="1471.03" y="1038.93" style="fill:none;stroke:#000000;stroke-linecap:round;stroke-linejoin:round;stroke-miterlimit:10;" width="174.61" height="13.16"></rect>
		
			<rect x="1471.03" y="1052.09" style="fill:none;stroke:#000000;stroke-linecap:round;stroke-linejoin:round;stroke-miterlimit:10;" width="174.61" height="338.69"></rect>
		<path style="fill:none;stroke:#000000;stroke-linecap:round;stroke-linejoin:round;stroke-miterlimit:10;" d="M1482.65,1119.79
			l0,255.64c0,2.42,1.73,4.39,3.87,4.39l143.63,0c2.14,0,3.87-1.96,3.87-4.39l0-255.64L1482.65,1119.79z"></path>
		<path style="fill:none;stroke:#000000;stroke-linecap:round;stroke-linejoin:round;stroke-miterlimit:10;" d="M1505.41,1119.79
			l-22.76,0l0-56.73c0-2.42,1.73-4.39,3.87-4.39l143.63,0c2.14,0,3.87,1.96,3.87,4.39l0,56.73l-22.76,0l0-32.41
			c0-9.69-6.94-17.55-15.49-17.55l-74.86,0c-8.56,0-15.49,7.86-15.49,17.55L1505.41,1119.79z"></path>
	</g>
	<g>
		<path style="fill:none;stroke:#000000;stroke-linecap:round;stroke-linejoin:round;stroke-miterlimit:10;" d="M1733.12,1512.14
			h-169.4c-0.39,0-0.71,0.32-0.71,0.71v78.03c0,0.39,0.32,0.71,0.71,0.71h169.4c0.39,0,0.71-0.32,0.71-0.71v-78.03
			C1733.83,1512.46,1733.51,1512.14,1733.12,1512.14z"></path>
		<g>
			<g>
				<path style="fill:none;stroke:#000000;stroke-linecap:round;stroke-linejoin:round;stroke-miterlimit:10;" d="M1707.99,1495.44
					c1.66,1.66,4.55,1.11,5.33-1.1c3.75-10.68,1.27-22.95-7.14-31.36l-1.24-1.24c-8.41-8.41-20.68-10.89-31.36-7.14
					c-2.21,0.78-2.76,3.67-1.1,5.33l0,0c0.88,0.88,2.17,1.13,3.35,0.76c8.38-2.54,17.78-0.44,24.3,6.08l1,1
					c6.53,6.53,8.63,15.93,6.08,24.3C1706.85,1493.27,1707.1,1494.56,1707.99,1495.44L1707.99,1495.44z"></path>
			</g>
			<path style="fill:none;stroke:#000000;stroke-linecap:round;stroke-linejoin:round;stroke-miterlimit:10;" d="M1698.77,1512.14
				c0.39-1.43-0.08-3.02-1.31-4l-1.06-0.85c-1.66-1.32-4.07-1.05-5.4,0.6l-3.39,4.25H1698.77z"></path>
			<path style="fill:none;stroke:#000000;stroke-linecap:round;stroke-linejoin:round;stroke-miterlimit:10;" d="M1687.61,1512.14
				l3.39-4.25c1.32-1.66,3.74-1.93,5.4-0.6l0.53,0.42l6-7.51c7.75-9.69,6.97-23.65-1.8-32.43l-1-1c-8.77-8.77-22.72-9.55-32.41-1.82
				l-24.51,19.56c-2.04,2.04-2.04,5.34,0,7.38l20.23,20.23H1687.61"></path>
			<path style="fill:none;stroke:#000000;stroke-linecap:round;stroke-linejoin:round;stroke-miterlimit:10;" d="M1647.58,1485.64
				l-4.48-5.61c-0.32-0.4-0.25-0.98,0.15-1.3l13.4-10.71c0.4-0.32,0.98-0.25,1.3,0.15l4.48,5.61c0.32,0.4,0.25,0.98-0.15,1.3
				l-13.4,10.71C1648.48,1486.11,1647.9,1486.04,1647.58,1485.64z"></path>
		</g>
	</g>
	<g>
		<g>
			<path style="fill:#FFFFFF;stroke:#000000;stroke-linecap:round;stroke-linejoin:round;stroke-miterlimit:10;" d="
				M1631.88,1531.75h58.35c0.33,0,0.6,0.27,0.6,0.6v39.46c0,0.33-0.27,0.6-0.6,0.6h-58.35c-0.33,0-0.6-0.27-0.6-0.6v-39.46
				C1631.28,1532.02,1631.55,1531.75,1631.88,1531.75z"></path>
			
				<rect x="1638.13" y="1548.53" transform="matrix(-1 1.112076e-07 -1.112076e-07 -1 3322.1038 3116.8276)" style="fill:#FFFFFF;stroke:#000000;stroke-linecap:round;stroke-linejoin:round;stroke-miterlimit:10;" width="45.85" height="19.78"></rect>
			
				<rect x="1651.82" y="1534.23" transform="matrix(-1 1.112068e-07 -1.112068e-07 -1 3322.1038 3079.6375)" style="fill:#FFFFFF;stroke:#000000;stroke-linecap:round;stroke-linejoin:round;stroke-miterlimit:10;" width="18.46" height="11.18"></rect>
			<path style="fill:#FFFFFF;stroke:#000000;stroke-linecap:round;stroke-linejoin:round;stroke-miterlimit:10;" d="M1631.28,1572.4
				h59.54l6.61,12.65c0.92,1.77-0.36,3.88-2.35,3.88h-68.05c-1.99,0-3.28-2.12-2.35-3.88L1631.28,1572.4z"></path>
		</g>
		<path style="fill:#FFFFFF;stroke:#000000;stroke-linecap:round;stroke-linejoin:round;stroke-miterlimit:10;" d="M1695.17,1553.87
			l0-17.47c0-1.05,0.85-1.9,1.9-1.9h8.72c1.05,0,1.9,0.85,1.9,1.9v17.47c0,1.05-0.85,1.9-1.9,1.9h-8.72
			C1696.03,1555.77,1695.17,1554.92,1695.17,1553.87z"></path>
	</g>
	<g>
		<path style="fill:#FFFFFF;stroke:#000000;stroke-linecap:round;stroke-linejoin:round;stroke-miterlimit:10;" d="M1573.88,1228.2
			l21,10.22c0.74,0.36,1.64,0.05,2-0.69l4.84-9.95c0.36-0.74,0.05-1.64-0.69-2l-21-10.22c-0.74-0.36-1.64-0.05-2,0.69l-4.84,9.95
			C1572.83,1226.94,1573.14,1227.84,1573.88,1228.2z"></path>
		<path style="fill:#FFFFFF;stroke:#000000;stroke-linecap:round;stroke-linejoin:round;stroke-miterlimit:10;" d="M1577.14,1222.96
			l20.25-0.59c0.72-0.02,1.28-0.62,1.26-1.34l-0.28-9.6c-0.02-0.72-0.62-1.28-1.34-1.26l-20.25,0.59c-0.72,0.02-1.28,0.62-1.26,1.34
			l0.28,9.6C1575.82,1222.42,1576.42,1222.98,1577.14,1222.96z"></path>
		<path style="fill:#FFFFFF;stroke:#000000;stroke-linecap:round;stroke-linejoin:round;stroke-miterlimit:10;" d="M1567.09,1233.62
			l11.32,20.43c0.4,0.72,0.14,1.64-0.58,2.04l-9.68,5.36c-0.72,0.4-1.64,0.14-2.04-0.58l-11.32-20.43c-0.4-0.72-0.14-1.64,0.58-2.04
			l9.68-5.36C1565.78,1232.63,1566.69,1232.9,1567.09,1233.62z"></path>
		<path style="fill:#FFFFFF;stroke:#000000;stroke-linecap:round;stroke-linejoin:round;stroke-miterlimit:10;" d="M1562.88,1236.81
			l-1.19,20.22c-0.04,0.72-0.66,1.26-1.37,1.22l-9.58-0.56c-0.72-0.04-1.26-0.66-1.22-1.37l1.19-20.22
			c0.04-0.72,0.66-1.26,1.37-1.22l9.58,0.56C1562.37,1235.48,1562.92,1236.09,1562.88,1236.81z"></path>
		
			<ellipse transform="matrix(0.7174 -0.6966 0.6966 0.7174 -409.7187 1434.0933)" style="fill:#FFFFFF;stroke:#000000;stroke-linecap:round;stroke-linejoin:round;stroke-miterlimit:10;" cx="1562.88" cy="1222.09" rx="22.16" ry="17.87"></ellipse>
		<path style="fill:#FFFFFF;stroke:#000000;stroke-linecap:round;stroke-linejoin:round;stroke-miterlimit:10;" d="M1574.4,1217.32
			l10.57-10.27c0.51-0.5,0.53-1.32,0.03-1.84l-6.69-6.89c-0.5-0.51-1.32-0.53-1.84-0.03l-10.57,10.27c-0.51,0.5-0.53,1.32-0.03,1.84
			l6.69,6.89C1573.06,1217.81,1573.88,1217.82,1574.4,1217.32z"></path>
		<path style="fill:#FFFFFF;stroke:#000000;stroke-linecap:round;stroke-linejoin:round;stroke-miterlimit:10;" d="M1546.89,1244.03
			l10.57-10.27c0.51-0.5,0.53-1.32,0.03-1.84l-6.69-6.89c-0.5-0.51-1.32-0.53-1.84-0.03l-10.57,10.27c-0.51,0.5-0.53,1.32-0.03,1.84
			l6.69,6.89C1545.55,1244.52,1546.37,1244.53,1546.89,1244.03z"></path>
		<path style="fill:#FFFFFF;stroke:#000000;stroke-linecap:round;stroke-linejoin:round;stroke-miterlimit:10;" d="M1567.27,1240.22
			c3.65,3.76,9.65,3.85,13.41,0.2c3.76-3.65,3.85-9.65,0.2-13.41L1567.27,1240.22z"></path>
		<path d="M1581.88,1238.18c-0.93-0.96-2.46-0.98-3.41-0.05c-0.96,0.93-0.98,2.46-0.05,3.41l2.27-1.13L1581.88,1238.18z"></path>
		<path d="M1580.82,1226.5c-0.93-0.96-2.46-0.98-3.41-0.05c-0.96,0.93-0.98,2.46-0.05,3.41L1580.82,1226.5z"></path>
		<path d="M1570.26,1236.76c-0.93-0.96-2.46-0.98-3.41-0.05c-0.96,0.93-0.98,2.46-0.05,3.41L1570.26,1236.76z"></path>
	</g>
	<g>
		<g>
			<polygon style="fill:none;stroke:#000000;stroke-linecap:round;stroke-linejoin:round;stroke-miterlimit:10;" points="
				1403.46,1514.2 1397.34,1514.37 1394.74,1508.81 1405.76,1508.52 			"></polygon>
			<g>
				
					<rect x="1394.65" y="1502.29" transform="matrix(0.9996 -0.0266 0.0266 0.9996 -39.5234 37.7508)" style="fill:none;stroke:#000000;stroke-linecap:round;stroke-linejoin:round;stroke-miterlimit:10;" width="11.03" height="6.37"></rect>
				<polygon style="fill:none;stroke:#000000;stroke-linecap:round;stroke-linejoin:round;stroke-miterlimit:10;" points="
					1404.92,1490.5 1402.17,1465.58 1396.05,1465.74 1394.62,1490.78 				"></polygon>
			</g>
			
				<line style="fill:none;stroke:#000000;stroke-linecap:round;stroke-linejoin:round;stroke-miterlimit:10;" x1="1399.3" y1="1473.02" x2="1399.11" y2="1465.66"></line>
			<path style="fill:none;stroke:#000000;stroke-linecap:round;stroke-linejoin:round;stroke-miterlimit:10;" d="M1406.59,1465.46
				l-4.42,0.12l0.79,7.35l3.83-0.1c2.03-0.05,3.64-1.75,3.58-3.78l0,0C1410.31,1467.01,1408.62,1465.41,1406.59,1465.46z"></path>
			<path style="fill:none;stroke:#000000;stroke-linecap:round;stroke-linejoin:round;stroke-miterlimit:10;" d="M1391.62,1465.86
				l4.42-0.12l-0.4,7.38l-3.83,0.1c-2.03,0.05-3.72-1.55-3.78-3.58l0,0C1387.99,1467.61,1389.59,1465.91,1391.62,1465.86z"></path>
			<path style="fill:none;stroke:#000000;stroke-linecap:round;stroke-linejoin:round;stroke-miterlimit:10;" d="M1372.88,1491.35
				l53.78-1.43c0.91-0.02,1.67,0.7,1.7,1.61l0.22,8.35c0.02,0.91-0.7,1.67-1.61,1.7l-53.78,1.43c-0.91,0.02-1.67-0.7-1.7-1.61
				l-0.22-8.35C1371.25,1492.14,1371.97,1491.38,1372.88,1491.35z"></path>
		</g>
		<g>
			
				<circle style="fill:none;stroke:#000000;stroke-linecap:round;stroke-linejoin:round;stroke-miterlimit:10;" cx="1353.85" cy="1532.23" r="15.21"></circle>
			<g>
				<path style="fill:none;stroke:#000000;stroke-linecap:round;stroke-linejoin:round;stroke-miterlimit:10;" d="M1340.08,1527.61
					c3.07-3.54,10.11-2.47,15.72,2.4s7.66,11.68,4.58,15.22c-0.7,0.81-1.62,1.36-2.67,1.7c2.86-0.75,5.53-2.33,7.62-4.74
					c5.51-6.34,4.83-15.95-1.51-21.45c-6.34-5.51-15.95-4.83-21.45,1.51c-2.14,2.46-3.33,5.42-3.64,8.44
					C1338.9,1529.53,1339.34,1528.47,1340.08,1527.61z"></path>
			</g>
			<path style="fill:none;stroke:#000000;stroke-linecap:round;stroke-linejoin:round;stroke-miterlimit:10;" d="M1340.67,1527.03
				c3.32-2.82,9.85-1.6,15.13,2.98c5.26,4.57,7.39,10.85,5.09,14.53"></path>
			<path style="fill:none;stroke:#000000;stroke-linecap:round;stroke-linejoin:round;stroke-miterlimit:10;" d="M1364.99,1542.6
				c3.17-3.65,0.6-11.08-5.74-16.58c-6.34-5.51-14.05-7.01-17.22-3.35"></path>
		</g>
	</g>
	<g>
		<path style="fill:none;stroke:#000000;stroke-linecap:round;stroke-linejoin:round;stroke-miterlimit:10;" d="M1546.46,719.98
			c-1.3-9.04-1.16-18.23,0.4-27.23l0.73-4.19c0.33-1.87-1.27-3.52-3.15-3.25l-4.21,0.6c-7.13,1.03-14.32,1.47-21.49,1.35
			c1.94-5.69,3.5-11.51,4.58-17.44l0-0.01c0.6-3.28,4.22-5.02,7.15-3.44l0.01,0.01c11.25,6.07,23.39,10.33,35.96,12.62l0.01,0
			c3.28,0.6,5.02,4.22,3.43,7.15l-0.01,0.01c-6.07,11.25-10.34,23.4-12.63,35.98l0,0.01c-0.6,3.28-4.22,5.02-7.15,3.44l-0.01-0.01
			c-0.99-0.54-2.03-0.98-3.03-1.49L1546.46,719.98z"></path>
		<path style="fill:none;stroke:#000000;stroke-linecap:round;stroke-linejoin:round;stroke-miterlimit:10;" d="M1493.09,726.61
			l4.21-0.61c14.06-2.02,28.34-1.82,42.33,0.61l4.19,0.73c1.87,0.32,3.52-1.27,3.25-3.15l-0.6-4.21c-1.3-9.04-1.16-18.23,0.4-27.23
			l0.73-4.19c0.33-1.87-1.27-3.52-3.15-3.25l-4.21,0.61c-14.06,2.02-28.34,1.82-42.33-0.61l-4.19-0.73
			c-1.87-0.32-3.52,1.27-3.25,3.15l0.6,4.21c1.3,9.04,1.16,18.23-0.4,27.23l-0.73,4.19
			C1489.61,725.23,1491.21,726.88,1493.09,726.61z"></path>
	</g>
	<g>
		<path style="fill:none;stroke:#000000;stroke-linecap:round;stroke-linejoin:round;stroke-miterlimit:10;" d="M1373.35,720.58
			c1.3-9.04,1.16-18.23-0.4-27.23l-0.73-4.19c-0.33-1.87,1.27-3.52,3.15-3.25l4.21,0.61c7.13,1.03,14.32,1.47,21.49,1.35
			c-1.94-5.69-3.5-11.51-4.58-17.44l0-0.01c-0.6-3.28-4.22-5.02-7.15-3.44l-0.01,0.01c-11.25,6.07-23.39,10.33-35.96,12.62l-0.01,0
			c-3.28,0.6-5.02,4.22-3.43,7.15l0.01,0.01c6.07,11.25,10.34,23.4,12.63,35.98l0,0.01c0.6,3.28,4.22,5.02,7.15,3.44l0.01-0.01
			c0.99-0.54,2.03-0.98,3.03-1.49L1373.35,720.58z"></path>
		<path style="fill:none;stroke:#000000;stroke-linecap:round;stroke-linejoin:round;stroke-miterlimit:10;" d="M1426.72,727.21
			l-4.21-0.61c-14.06-2.02-28.34-1.82-42.33,0.61l-4.19,0.73c-1.87,0.32-3.52-1.27-3.25-3.15l0.6-4.21
			c1.3-9.04,1.16-18.23-0.4-27.23l-0.73-4.19c-0.33-1.87,1.27-3.52,3.15-3.25l4.21,0.61c14.06,2.02,28.34,1.82,42.33-0.61l4.19-0.73
			c1.87-0.32,3.52,1.27,3.25,3.15l-0.6,4.21c-1.3,9.04-1.16,18.23,0.4,27.23l0.73,4.19C1430.2,725.83,1428.6,727.48,1426.72,727.21z
			"></path>
	</g>
	<g>
		<g>
			<g>
				<g>
					
						<rect x="1306.53" y="525.22" style="fill:none;stroke:#000000;stroke-linecap:round;stroke-linejoin:round;stroke-miterlimit:10;" width="309.06" height="15.12"></rect>
					
						<rect x="1306.53" y="540.34" style="fill:none;stroke:#000000;stroke-linecap:round;stroke-linejoin:round;stroke-miterlimit:10;" width="309.06" height="343.53"></rect>
					<path style="fill:none;stroke:#000000;stroke-linecap:round;stroke-linejoin:round;stroke-miterlimit:10;" d="M1455.24,618.09
						h11.63l0-37.22c0-11.13,8.18-20.16,18.28-20.16l86.82,0c10.09,0,18.28,9.02,18.28,20.16l0,37.22h11.63v-65.16
						c0-2.78-2.05-5.04-4.57-5.04l-272.5,0c-2.52,0-4.57,2.26-4.57,5.04v65.16h11.63v-37.22c0-11.13,8.18-20.16,18.28-20.16l86.82,0
						c10.09,0,18.28,9.02,18.28,20.16V618.09z"></path>
					<path style="fill:none;stroke:#000000;stroke-linecap:round;stroke-linejoin:round;stroke-miterlimit:10;" d="M1320.99,871.27
						l280.13,0c0.42,0,0.75-0.34,0.75-0.75l0-252.42l-281.64,0l0,252.42C1320.24,870.93,1320.57,871.27,1320.99,871.27z"></path>
				</g>
			</g>
		</g>
		
			<rect x="1615.59" y="525.22" transform="matrix(-1 -1.795996e-10 1.795996e-10 -1 3299.9023 1141.3315)" style="fill:none;stroke:#000000;stroke-linecap:round;stroke-linejoin:round;stroke-miterlimit:10;" width="68.73" height="90.89"></rect>
		
			<rect x="1237.8" y="525.22" transform="matrix(-1 -1.796129e-10 1.796129e-10 -1 2544.3254 1141.3315)" style="fill:none;stroke:#000000;stroke-linecap:round;stroke-linejoin:round;stroke-miterlimit:10;" width="68.73" height="90.89"></rect>
	</g>
	<g>
		<g>
			
				<circle style="fill:#FFFFFF;stroke:#000000;stroke-linecap:round;stroke-linejoin:round;stroke-miterlimit:10;" cx="1277.23" cy="564.65" r="24.31"></circle>
			
				<circle style="fill:#FFFFFF;stroke:#000000;stroke-linecap:round;stroke-linejoin:round;stroke-miterlimit:10;" cx="1277.23" cy="564.65" r="8.67"></circle>
		</g>
		
			<line style="fill:#FFFFFF;stroke:#000000;stroke-linecap:round;stroke-linejoin:round;stroke-miterlimit:10;" x1="1277.23" y1="555.98" x2="1277.23" y2="573.32"></line>
		
			<line style="fill:#FFFFFF;stroke:#000000;stroke-linecap:round;stroke-linejoin:round;stroke-miterlimit:10;" x1="1285.9" y1="564.65" x2="1268.55" y2="564.65"></line>
	</g>
	<g>
		<g>
			
				<circle style="fill:#FFFFFF;stroke:#000000;stroke-linecap:round;stroke-linejoin:round;stroke-miterlimit:10;" cx="1652.21" cy="564.65" r="24.31"></circle>
			
				<circle style="fill:#FFFFFF;stroke:#000000;stroke-linecap:round;stroke-linejoin:round;stroke-miterlimit:10;" cx="1652.21" cy="564.65" r="8.67"></circle>
		</g>
		
			<line style="fill:#FFFFFF;stroke:#000000;stroke-linecap:round;stroke-linejoin:round;stroke-miterlimit:10;" x1="1652.21" y1="555.98" x2="1652.21" y2="573.32"></line>
		
			<line style="fill:#FFFFFF;stroke:#000000;stroke-linecap:round;stroke-linejoin:round;stroke-miterlimit:10;" x1="1660.89" y1="564.65" x2="1643.54" y2="564.65"></line>
	</g>
	<g>
		<path style="fill:none;stroke:#000000;stroke-linecap:round;stroke-linejoin:round;stroke-miterlimit:10;" d="M547.93,1531.33
			c-0.8-4.14-0.65-8.48,0.55-12.67"></path>
		<path style="fill:none;stroke:#000000;stroke-linecap:round;stroke-linejoin:round;stroke-miterlimit:10;" d="M570.57,1553.17
			c-3.18-0.49-6.34-1.56-9.3-3.25c-0.68-0.39-1.34-0.8-1.98-1.24"></path>
		<path style="fill:none;stroke:#000000;stroke-linecap:round;stroke-linejoin:round;stroke-miterlimit:10;" d="M597.02,1542.01
			c-0.72,1.02-1.51,1.98-2.35,2.87"></path>
		<path style="fill:none;stroke:#000000;stroke-linecap:round;stroke-linejoin:round;stroke-miterlimit:10;" d="M570.07,1499.25
			c1.03-0.18,2.07-0.3,3.11-0.36"></path>
		<path style="fill:none;stroke:#000000;stroke-linecap:round;stroke-linejoin:round;stroke-miterlimit:10;" d="M550.67,1529.19
			c-0.38-2.98-0.21-6.05,0.56-9.04"></path>
		<path style="fill:none;stroke:#000000;stroke-linecap:round;stroke-linejoin:round;stroke-miterlimit:10;" d="M569.69,1549.92
			c-2.37-0.51-4.7-1.38-6.92-2.64"></path>
		<g>
			<path style="fill:none;stroke:#000000;stroke-linecap:round;stroke-linejoin:round;stroke-miterlimit:10;" d="M599.47,1512.7
				c1.79-2.09,3.44-4.42,4.88-6.96c6.97-12.26,7.25-25.94,1.63-34.58c-10.3-0.41-21.9,6.84-28.87,19.1
				c-1.55,2.73-2.77,5.54-3.67,8.34c-0.47,1.46-0.85,2.92-1.14,4.36"></path>
			<path style="fill:none;stroke:#000000;stroke-linecap:round;stroke-linejoin:round;stroke-miterlimit:10;" d="M573.83,1521.79
				c0.12,0.28,0.25,0.55,0.38,0.82c0.71,1.45,2.23,2.31,3.84,2.18c0.67-0.05,1.34-0.14,2.02-0.25"></path>
			
				<line style="fill:none;stroke:#000000;stroke-linecap:round;stroke-linejoin:round;stroke-miterlimit:10;" x1="605.98" y1="1471.16" x2="573.52" y2="1528.28"></line>
		</g>
		<g>
			<path style="fill:none;stroke:#000000;stroke-linecap:round;stroke-linejoin:round;stroke-miterlimit:10;" d="M536.1,1476.53
				c-4.68,9.18-2.95,22.76,5.27,34.21c7.54,10.52,18.53,16.42,28.16,16.17c1.61-0.04,3.03-1.06,3.58-2.57
				c3.33-9.05,1.25-21.35-6.29-31.86C558.6,1481.02,546.3,1475.04,536.1,1476.53z"></path>
			
				<line style="fill:none;stroke:#000000;stroke-linecap:round;stroke-linejoin:round;stroke-miterlimit:10;" x1="536.1" y1="1476.53" x2="573.41" y2="1528.22"></line>
		</g>
		<g>
			<path style="fill:none;stroke:#000000;stroke-linecap:round;stroke-linejoin:round;stroke-miterlimit:10;" d="M578.75,1530.32
				c-0.79-0.27-1.59-0.49-2.39-0.65c-1.63-0.34-3.29,0.41-4.12,1.85"></path>
			<path style="fill:none;stroke:#000000;stroke-linecap:round;stroke-linejoin:round;stroke-miterlimit:10;" d="M569.55,1539.57
				c-0.8,5.56,0.06,11.93,2.83,18.09c4.73,10.54,13.63,17.36,22.07,17.83c5.26-6.61,6.09-17.79,1.36-28.34
				c-0.99-2.21-2.16-4.25-3.48-6.11"></path>
			
				<line style="fill:none;stroke:#000000;stroke-linecap:round;stroke-linejoin:round;stroke-miterlimit:10;" x1="573.57" y1="1528.2" x2="594.44" y2="1575.49"></line>
		</g>
		<g>
			<path style="fill:none;stroke:#000000;stroke-linecap:round;stroke-linejoin:round;stroke-miterlimit:10;" d="M536.9,1550.04
				c5.85,3.66,15,3.31,23.12-1.5c7.01-4.15,11.48-10.56,12.32-16.66c0.25-1.79-0.78-3.52-2.46-4.16c-5.76-2.2-13.53-1.37-20.54,2.78
				C541.22,1535.3,536.51,1543.15,536.9,1550.04z"></path>
			
				<line style="fill:none;stroke:#000000;stroke-linecap:round;stroke-linejoin:round;stroke-miterlimit:10;" x1="536.9" y1="1550.04" x2="573.62" y2="1528.24"></line>
		</g>
		<g>
			<path style="fill:none;stroke:#000000;stroke-linecap:round;stroke-linejoin:round;stroke-miterlimit:10;" d="M614.57,1520.02
				c-2.07,5.44-7.84,10.23-15.45,12.02c-6.82,1.61-13.43,0.43-17.81-2.67c-1.2-0.85-1.79-2.24-1.72-3.63
				c-0.3,0.33-0.63,0.64-0.9,0.99c-0.66,0.85-0.76,2.02-0.25,2.97c3.78,7.05,12.67,12.44,23.41,13.33
				c11.52,0.95,21.79-3.55,26.27-10.7C625.96,1527.12,621.02,1522.7,614.57,1520.02z"></path>
		</g>
		
			<line style="fill:none;stroke:#000000;stroke-linecap:round;stroke-linejoin:round;stroke-miterlimit:10;" x1="605.61" y1="1529.78" x2="628.12" y2="1532.32"></line>
		<path style="fill:none;stroke:#000000;stroke-linecap:round;stroke-linejoin:round;stroke-miterlimit:10;" d="M615.08,1518.57
			c-4.05-4.72-12.02-6.88-20.3-4.92c-6.82,1.61-12.21,5.61-14.74,10.35c-0.99,1.86-0.45,4.16,1.27,5.38
			c4.38,3.1,10.99,4.28,17.81,2.67C607.4,1530.09,613.57,1524.6,615.08,1518.57z"></path>
		
			<line style="fill:none;stroke:#000000;stroke-linecap:round;stroke-linejoin:round;stroke-miterlimit:10;" x1="615.08" y1="1518.57" x2="572.89" y2="1528.41"></line>
	</g>
	<g>
		<g>
			
				<circle style="fill:#FFFFFF;stroke:#000000;stroke-linecap:round;stroke-linejoin:round;stroke-miterlimit:10;" cx="1681.73" cy="946.54" r="22.1"></circle>
			
				<circle style="fill:#FFFFFF;stroke:#000000;stroke-linecap:round;stroke-linejoin:round;stroke-miterlimit:10;" cx="1681.73" cy="946.54" r="19.65"></circle>
		</g>
		<g>
			
				<line style="fill:#FFFFFF;stroke:#000000;stroke-linecap:round;stroke-linejoin:round;stroke-miterlimit:10;" x1="1638.4" y1="946.54" x2="1680.84" y2="946.54"></line>
			<path style="fill:#FFFFFF;stroke:#000000;stroke-linecap:round;stroke-linejoin:round;stroke-miterlimit:10;" d="M1638.4,946.51
				c12.84-6.51,29.59-6,42.44,0.05C1667.79,952.46,1651.23,953.19,1638.4,946.51L1638.4,946.51z"></path>
		</g>
		<g>
			
				<line style="fill:#FFFFFF;stroke:#000000;stroke-linecap:round;stroke-linejoin:round;stroke-miterlimit:10;" x1="1645.26" y1="970.68" x2="1680.35" y2="946.81"></line>
			<path style="fill:#FFFFFF;stroke:#000000;stroke-linecap:round;stroke-linejoin:round;stroke-miterlimit:10;" d="M1645.24,970.66
				c6.95-12.6,21.1-21.6,35.12-23.82C1672.9,959.04,1659.61,968.97,1645.24,970.66L1645.24,970.66z"></path>
		</g>
		<g>
			
				<line style="fill:#FFFFFF;stroke:#000000;stroke-linecap:round;stroke-linejoin:round;stroke-miterlimit:10;" x1="1664.24" y1="985.76" x2="1680.63" y2="946.62"></line>
			<path style="fill:#FFFFFF;stroke:#000000;stroke-linecap:round;stroke-linejoin:round;stroke-miterlimit:10;" d="M1664.22,985.75
				c-1.05-14.36,5.9-29.61,16.44-39.13C1681.06,960.94,1675.34,976.5,1664.22,985.75L1664.22,985.75z"></path>
		</g>
		<g>
			
				<line style="fill:#FFFFFF;stroke:#000000;stroke-linecap:round;stroke-linejoin:round;stroke-miterlimit:10;" x1="1697.84" y1="984.96" x2="1680.09" y2="946.41"></line>
			<path style="fill:#FFFFFF;stroke:#000000;stroke-linecap:round;stroke-linejoin:round;stroke-miterlimit:10;" d="M1697.81,984.97
				c-11.28-8.94-17.82-24.37-17.7-38.57C1690.92,955.78,1698.52,970.52,1697.81,984.97L1697.81,984.97z"></path>
		</g>
		<g>
			
				<line style="fill:#FFFFFF;stroke:#000000;stroke-linecap:round;stroke-linejoin:round;stroke-miterlimit:10;" x1="1716.9" y1="968.63" x2="1680.54" y2="946.74"></line>
			<path style="fill:#FFFFFF;stroke:#000000;stroke-linecap:round;stroke-linejoin:round;stroke-miterlimit:10;" d="M1716.88,968.66
				c-14.36-1.04-28.44-10.13-36.33-21.94C1694.77,948.4,1709.34,956.31,1716.88,968.66L1716.88,968.66z"></path>
		</g>
		<g>
			
				<line style="fill:#FFFFFF;stroke:#000000;stroke-linecap:round;stroke-linejoin:round;stroke-miterlimit:10;" x1="1715.29" y1="922.3" x2="1680.2" y2="946.16"></line>
			<path style="fill:#FFFFFF;stroke:#000000;stroke-linecap:round;stroke-linejoin:round;stroke-miterlimit:10;" d="M1715.3,922.32
				c-6.95,12.6-21.1,21.6-35.12,23.82C1687.65,933.93,1700.94,924.01,1715.3,922.32L1715.3,922.32z"></path>
		</g>
		<g>
			
				<line style="fill:#FFFFFF;stroke:#000000;stroke-linecap:round;stroke-linejoin:round;stroke-miterlimit:10;" x1="1696.31" y1="907.21" x2="1679.91" y2="946.36"></line>
			<path style="fill:#FFFFFF;stroke:#000000;stroke-linecap:round;stroke-linejoin:round;stroke-miterlimit:10;" d="M1696.33,907.22
				c1.05,14.36-5.9,29.61-16.44,39.13C1679.49,932.04,1685.21,916.47,1696.33,907.22L1696.33,907.22z"></path>
		</g>
		<g>
			
				<line style="fill:#FFFFFF;stroke:#000000;stroke-linecap:round;stroke-linejoin:round;stroke-miterlimit:10;" x1="1662.71" y1="908.01" x2="1680.46" y2="946.56"></line>
			<path style="fill:#FFFFFF;stroke:#000000;stroke-linecap:round;stroke-linejoin:round;stroke-miterlimit:10;" d="M1662.73,908
				c11.28,8.94,17.82,24.37,17.7,38.57C1669.62,937.19,1662.03,922.45,1662.73,908L1662.73,908z"></path>
		</g>
		<g>
			
				<line style="fill:#FFFFFF;stroke:#000000;stroke-linecap:round;stroke-linejoin:round;stroke-miterlimit:10;" x1="1643.65" y1="924.34" x2="1680.01" y2="946.23"></line>
			<path style="fill:#FFFFFF;stroke:#000000;stroke-linecap:round;stroke-linejoin:round;stroke-miterlimit:10;" d="M1643.66,924.32
				c14.36,1.04,28.44,10.13,36.33,21.94C1665.78,944.58,1651.21,936.66,1643.66,924.32L1643.66,924.32z"></path>
		</g>
		<g>
			
				<line style="fill:#FFFFFF;stroke:#000000;stroke-linecap:round;stroke-linejoin:round;stroke-miterlimit:10;" x1="1722.66" y1="945.08" x2="1680.25" y2="946.57"></line>
			<path style="fill:#FFFFFF;stroke:#000000;stroke-linecap:round;stroke-linejoin:round;stroke-miterlimit:10;" d="M1722.66,945.11
				c-12.6,6.96-29.36,7.03-42.42,1.43C1693.08,940.19,1709.61,938.88,1722.66,945.11L1722.66,945.11z"></path>
		</g>
	</g>
	<g>
		<g>
			<path style="fill:none;stroke:#000000;stroke-linecap:round;stroke-linejoin:round;stroke-miterlimit:10;" d="M1075.81,1261.88
				c0.07-1.14,0.21-2.29,0.43-3.42"></path>
			<path style="fill:none;stroke:#000000;stroke-linecap:round;stroke-linejoin:round;stroke-miterlimit:10;" d="M1111.68,1241.29
				c1.6,0.82,3.14,1.83,4.59,3.03c0.32,0.27,0.64,0.55,0.95,0.83"></path>
		</g>
		<g>
			<path style="fill:none;stroke:#000000;stroke-linecap:round;stroke-linejoin:round;stroke-miterlimit:10;" d="M1112.16,1244.59
				c0.83,0.52,1.64,1.11,2.42,1.75"></path>
			<path style="fill:none;stroke:#000000;stroke-linecap:round;stroke-linejoin:round;stroke-miterlimit:10;" d="M1078.49,1261.4
				c0.08-0.99,0.24-1.98,0.46-2.96"></path>
		</g>
		<g>
			<path style="fill:none;stroke:#000000;stroke-linecap:round;stroke-linejoin:round;stroke-miterlimit:10;" d="M1075.35,1233.64
				c-2.18,0.08-4.51,0.58-6.95,1.68c-4.78,12.76,5.93,21.74,5.93,21.74c2,1.88,5.01,2.02,7.17,0.5"></path>
		</g>
		
			<line style="fill:none;stroke:#000000;stroke-linecap:round;stroke-linejoin:round;stroke-miterlimit:10;" x1="1074.27" y1="1241.38" x2="1068.65" y2="1235.44"></line>
		
			<line style="fill:none;stroke:#000000;stroke-linecap:round;stroke-linejoin:round;stroke-miterlimit:10;" x1="1098.48" y1="1267" x2="1088.8" y2="1256.76"></line>
		<g>
			<path style="fill:none;stroke:#000000;stroke-linecap:round;stroke-linejoin:round;stroke-miterlimit:10;" d="M1111.38,1268.26
				C1111.38,1268.26,1111.38,1268.26,1111.38,1268.26C1111.37,1268.26,1111.36,1268.26,1111.38,1268.26z"></path>
			<path style="fill:none;stroke:#000000;stroke-linecap:round;stroke-linejoin:round;stroke-miterlimit:10;" d="M1114.86,1286.21
				c6.97-0.57,20.05-3.56,26.49-17.58c-1.42-3.79-3.36-6.86-5.57-9.34"></path>
			<path style="fill:none;stroke:#000000;stroke-linecap:round;stroke-linejoin:round;stroke-miterlimit:10;" d="M1110.91,1267.54
				c-2.29-0.08-4.41,0.85-6.06,2.35"></path>
			<path style="fill:none;stroke:#000000;stroke-linecap:round;stroke-linejoin:round;stroke-miterlimit:10;" d="M1103.28,1253.61
				c-0.62,1.17-0.99,2.48-1.04,3.89c-0.18,4.98,3.69,9.86,8.67,10.03c1.02,0.04,0.62,0.03,0.5,0.02"></path>
			<path style="fill:none;stroke:#000000;stroke-linecap:round;stroke-linejoin:round;stroke-miterlimit:10;" d="M1114.02,1248.94
				c-1.52-0.14-2.44-0.12-2.44-0.12"></path>
		</g>
		
			<line style="fill:none;stroke:#000000;stroke-linecap:round;stroke-linejoin:round;stroke-miterlimit:10;" x1="1098.61" y1="1267.06" x2="1141.34" y2="1268.63"></line>
		<g>
			<path style="fill:none;stroke:#000000;stroke-linecap:round;stroke-linejoin:round;stroke-miterlimit:10;" d="M1093.02,1246.33
				C1093.02,1246.33,1093.02,1246.33,1093.02,1246.33C1093.03,1246.35,1093.03,1246.34,1093.02,1246.33z"></path>
			<path style="fill:none;stroke:#000000;stroke-linecap:round;stroke-linejoin:round;stroke-miterlimit:10;" d="M1094.39,1246.01
				C1094.39,1246.01,1094.39,1246.01,1094.39,1246.01C1094.39,1246.02,1094.39,1246.03,1094.39,1246.01z"></path>
			<path style="fill:none;stroke:#000000;stroke-linecap:round;stroke-linejoin:round;stroke-miterlimit:10;" d="M1075.57,1250.93
				c1.14,4.85,5.99,7.86,10.84,6.72c4.85-1.14,8.54-6.15,7.4-11c-0.23-0.99-0.13-0.6-0.11-0.48c-0.08-0.37-0.16-0.68-0.16-0.68
				s0.07,0.3,0.16,0.68c-0.03-0.12,0,0,0.11,0.48c0.98,4.15,5.18,6.84,9.41,6.81c0.71-0.01,1.41-0.09,2.11-0.25
				c4.85-1.14,7.86-5.99,6.72-10.84c0,0-0.06-0.36-0.22-1c-1.06-4.31-6.39-21.29-24.97-24.37
				C1069.34,1229.65,1075.57,1250.93,1075.57,1250.93z"></path>
		</g>
		
			<line style="fill:none;stroke:#000000;stroke-linecap:round;stroke-linejoin:round;stroke-miterlimit:10;" x1="1098.61" y1="1267.06" x2="1086.87" y2="1217.01"></line>
		<g>
			<path style="fill:none;stroke:#000000;stroke-linecap:round;stroke-linejoin:round;stroke-miterlimit:10;" d="M1081.96,1262.28
				c-1.5-1.04-3.47-1.34-5.3-0.64c0,0-13.29,4.32-13.64,17.94c3.52,3.67,7.49,5.17,11.1,5.61"></path>
		</g>
		
			<line style="fill:none;stroke:#000000;stroke-linecap:round;stroke-linejoin:round;stroke-miterlimit:10;" x1="1074.88" y1="1275.41" x2="1063.02" y2="1279.58"></line>
		
			<line style="fill:none;stroke:#000000;stroke-linecap:round;stroke-linejoin:round;stroke-miterlimit:10;" x1="1098.61" y1="1267.06" x2="1095.31" y2="1268.22"></line>
		<g>
			<path style="fill:none;stroke:#000000;stroke-linecap:round;stroke-linejoin:round;stroke-miterlimit:10;" d="M1095.37,1275.36
				C1095.37,1275.36,1095.37,1275.36,1095.37,1275.36C1095.38,1275.34,1095.37,1275.35,1095.37,1275.36z"></path>
			<path style="fill:none;stroke:#000000;stroke-linecap:round;stroke-linejoin:round;stroke-miterlimit:10;" d="M1094.11,1274.75
				C1094.11,1274.75,1094.11,1274.75,1094.11,1274.75C1094.11,1274.74,1094.12,1274.73,1094.11,1274.75z"></path>
			<path style="fill:none;stroke:#000000;stroke-linecap:round;stroke-linejoin:round;stroke-miterlimit:10;" d="M1107.63,1270.72
				c-4.48-2.17-10.51-0.6-12.68,3.89"></path>
			<path style="fill:none;stroke:#000000;stroke-linecap:round;stroke-linejoin:round;stroke-miterlimit:10;" d="M1094.74,1275.06
				c-0.05,0.11,0,0,0.22-0.45c2.16-4.49-0.34-10.18-4.82-12.35c-4.48-2.17-9.88-0.29-12.05,4.19c0,0-10.73,19.4,3.61,35.57
				c8.95,0.5,15.66-2.73,20.45-6.67"></path>
		</g>
		
			<line style="fill:none;stroke:#000000;stroke-linecap:round;stroke-linejoin:round;stroke-miterlimit:10;" x1="1091.29" y1="1282.18" x2="1081.69" y2="1302.02"></line>
		<g>
			<path style="fill:none;stroke:#000000;stroke-linecap:round;stroke-linejoin:round;stroke-miterlimit:10;" d="M1102.95,1278.53
				C1102.95,1278.53,1102.95,1278.53,1102.95,1278.53C1102.94,1278.52,1102.94,1278.53,1102.95,1278.53z"></path>
			<path style="fill:none;stroke:#000000;stroke-linecap:round;stroke-linejoin:round;stroke-miterlimit:10;" d="M1102.11,1278.82
				C1102.11,1278.82,1102.11,1278.82,1102.11,1278.82C1102.11,1278.81,1102.11,1278.81,1102.11,1278.82z"></path>
			<path style="fill:none;stroke:#000000;stroke-linecap:round;stroke-linejoin:round;stroke-miterlimit:10;" d="M1113.59,1274.53
				c-1.02-2.97-4.26-4.54-7.23-3.52c-2.97,1.03-4.96,4.4-3.93,7.37c0.21,0.61,0.12,0.37,0.1,0.3c0.08,0.23,0.14,0.41,0.14,0.41
				s-0.06-0.19-0.14-0.41c0.03,0.07,0,0-0.1-0.3c-1.03-2.96-4.68-4.4-7.64-3.37c-2.97,1.03-4.54,4.26-3.52,7.23
				c0,0,3.83,13.43,17.42,14.28c3.8-3.38,5.45-7.31,6.01-10.9C1115.66,1279.6,1113.59,1274.53,1113.59,1274.53z"></path>
		</g>
		
			<line style="fill:none;stroke:#000000;stroke-linecap:round;stroke-linejoin:round;stroke-miterlimit:10;" x1="1098.45" y1="1266.98" x2="1108.69" y2="1296.51"></line>
		<g>
			<path style="fill:none;stroke:#000000;stroke-linecap:round;stroke-linejoin:round;stroke-miterlimit:10;" d="M1121.84,1255.41
				C1121.84,1255.41,1121.84,1255.41,1121.84,1255.41C1121.83,1255.41,1121.83,1255.41,1121.84,1255.41z"></path>
			<path style="fill:none;stroke:#000000;stroke-linecap:round;stroke-linejoin:round;stroke-miterlimit:10;" d="M1122.21,1256.21
				C1122.22,1256.21,1122.22,1256.21,1122.21,1256.21C1122.21,1256.21,1122.21,1256.21,1122.21,1256.21z"></path>
			<path style="fill:none;stroke:#000000;stroke-linecap:round;stroke-linejoin:round;stroke-miterlimit:10;" d="M1116.72,1245.26
				c-2.84,1.34-4.06,4.72-2.72,7.56s4.91,4.46,7.75,3.12c0.58-0.27,0.35-0.16,0.28-0.13c0.22-0.1,0.4-0.19,0.4-0.19
				s-0.18,0.08-0.4,0.19c0.07-0.04,0,0-0.28,0.13c-2.84,1.34-3.87,5.12-2.53,7.96s4.72,4.06,7.56,2.72c0,0,12.94-5.25,12.32-18.86
				C1129.01,1238.63,1116.72,1245.26,1116.72,1245.26z"></path>
		</g>
		
			<line style="fill:none;stroke:#000000;stroke-linecap:round;stroke-linejoin:round;stroke-miterlimit:10;" x1="1098.67" y1="1267.09" x2="1139.1" y2="1247.77"></line>
	</g>
	<g>
		<g>
			<path style="fill:none;stroke:#000000;stroke-linecap:round;stroke-linejoin:round;stroke-miterlimit:10;" d="M429.48,1424.82
				l-20.18,15.33c-16.18,12.3-39.03,10.48-53.06-4.23l-1.6-1.67c-14.04-14.72-14.77-37.64-1.69-53.23l4.47-5.33l0,0l11.78-14.04
				c3.25,14.54,10.28,28.42,21.31,39.98C401.56,1413.21,415.11,1420.89,429.48,1424.82z"></path>
			<path style="fill:none;stroke:#000000;stroke-linecap:round;stroke-linejoin:round;stroke-miterlimit:10;" d="M354.65,1434.25
				l1.6,1.67c14.03,14.71,36.87,16.53,53.06,4.23l5.58-4.24c2.34-1.78,5.64-1.51,7.67,0.61c2.38,2.49,2.06,6.5-0.68,8.58l-5.72,4.34
				c-20.73,15.75-49.98,13.42-67.94-5.42l-2.04-2.14c-17.98-18.85-18.91-48.2-2.17-68.16l4.58-5.46c2.21-2.64,6.23-2.77,8.61-0.27
				c2.03,2.13,2.14,5.45,0.24,7.7l-4.47,5.33C339.89,1396.61,340.62,1419.53,354.65,1434.25z"></path>
			<polygon style="fill:none;stroke:#000000;stroke-linecap:round;stroke-linejoin:round;stroke-miterlimit:10;" points="
				352.96,1381.02 357.44,1375.69 357.44,1375.69 			"></polygon>
			<path style="fill:none;stroke:#000000;stroke-linecap:round;stroke-linejoin:round;stroke-miterlimit:10;" d="M473.86,1261.12
				l23.86-18.13c16.18-12.3,39.03-10.48,53.06,4.23l1.59,1.67c14.04,14.72,14.77,37.64,1.69,53.23l-4.48,5.33l0,0l-14.76,17.59
				c-3.19-14.76-10.26-28.86-21.44-40.59C502.2,1272.73,488.45,1265,473.86,1261.12z"></path>
			<path style="fill:none;stroke:#000000;stroke-linecap:round;stroke-linejoin:round;stroke-miterlimit:10;" d="M552.37,1248.89
				l-1.59-1.67c-14.03-14.71-36.87-16.53-53.06-4.23l-5.58,4.24c-2.34,1.78-5.64,1.51-7.67-0.61c-2.38-2.49-2.06-6.5,0.68-8.58
				l5.72-4.34c20.73-15.75,49.98-13.42,67.94,5.42l2.04,2.14c17.98,18.85,18.91,48.2,2.17,68.16l-4.58,5.46
				c-2.21,2.64-6.23,2.77-8.61,0.27l0,0c-2.03-2.13-2.14-5.45-0.25-7.7l4.48-5.33C567.14,1286.53,566.41,1263.61,552.37,1248.89z"></path>
			<polygon style="fill:none;stroke:#000000;stroke-linecap:round;stroke-linejoin:round;stroke-miterlimit:10;" points="
				554.07,1302.12 549.59,1307.45 549.59,1307.45 			"></polygon>
			<path style="fill:none;stroke:#000000;stroke-linecap:round;stroke-linejoin:round;stroke-miterlimit:10;" d="M359.08,1247.34
				l1.67-1.59c14.72-14.04,37.64-14.77,53.23-1.69l5.33,4.47l0,0l14.04,11.78c-14.54,3.25-28.42,10.28-39.98,21.31
				c-11.57,11.04-19.25,24.58-23.19,38.96l-15.33-20.18C342.54,1284.21,344.37,1261.37,359.08,1247.34z"></path>
			<path style="fill:none;stroke:#000000;stroke-linecap:round;stroke-linejoin:round;stroke-miterlimit:10;" d="M421.28,1235.09
				l5.46,4.58c2.64,2.21,2.77,6.23,0.27,8.61c-2.13,2.03-5.45,2.14-7.7,0.24l-5.33-4.47c-15.58-13.08-38.51-12.35-53.23,1.69
				l-1.67,1.59c-14.71,14.03-16.53,36.87-4.23,53.06l4.24,5.58c1.78,2.34,1.51,5.64-0.61,7.67c-2.49,2.38-6.5,2.06-8.58-0.69
				l-4.34-5.72c-15.75-20.73-13.42-49.98,5.42-67.94l2.14-2.04C371.97,1219.28,401.32,1218.35,421.28,1235.09z"></path>
			<polygon style="fill:none;stroke:#000000;stroke-linecap:round;stroke-linejoin:round;stroke-miterlimit:10;" points="
				413.97,1244.05 419.31,1248.53 419.31,1248.53 			"></polygon>
			<path style="fill:none;stroke:#000000;stroke-linecap:round;stroke-linejoin:round;stroke-miterlimit:10;" d="M533.85,1365.08
				l17.39,22.88c12.3,16.19,10.48,39.03-4.23,53.06l-1.67,1.6c-14.72,14.04-37.64,14.77-53.23,1.69l-5.33-4.48l0,0l-16.64-13.96
				c14.69-3.21,28.73-10.26,40.41-21.4C522.23,1393.33,529.95,1379.62,533.85,1365.08z"></path>
			<path style="fill:none;stroke:#000000;stroke-linecap:round;stroke-linejoin:round;stroke-miterlimit:10;" d="M545.33,1442.62
				l1.67-1.6c14.71-14.03,16.53-36.87,4.23-53.06l-4.24-5.58c-1.78-2.34-1.51-5.64,0.61-7.67c2.49-2.38,6.5-2.06,8.58,0.68
				l4.34,5.72c15.75,20.73,13.42,49.98-5.42,67.94l-2.14,2.04c-18.85,17.98-48.2,18.91-68.16,2.17l-5.46-4.58
				c-2.64-2.21-2.77-6.23-0.27-8.61c2.13-2.03,5.45-2.14,7.7-0.25l5.33,4.48C507.69,1457.39,530.61,1456.66,545.33,1442.62z"></path>
			<polygon style="fill:none;stroke:#000000;stroke-linecap:round;stroke-linejoin:round;stroke-miterlimit:10;" points="
				492.1,1444.31 486.77,1439.84 486.77,1439.84 			"></polygon>
			
				<circle style="fill:none;stroke:#000000;stroke-linecap:round;stroke-linejoin:round;stroke-miterlimit:10;" cx="451.98" cy="1343.04" r="84.91"></circle>
		</g>
		<g>
			<g>
				
					<circle style="fill:none;stroke:#000000;stroke-linecap:round;stroke-linejoin:round;stroke-miterlimit:10;" cx="421.27" cy="1304.6" r="21.56"></circle>
			</g>
			<g>
				
					<circle style="fill:none;stroke:#000000;stroke-linecap:round;stroke-linejoin:round;stroke-miterlimit:10;" cx="421.27" cy="1304.6" r="12.27"></circle>
			</g>
			<g>
				
					<ellipse transform="matrix(0.7134 -0.7008 0.7008 0.7134 -826.456 665.6555)" style="fill:none;stroke:#000000;stroke-linecap:round;stroke-linejoin:round;stroke-miterlimit:10;" cx="400.49" cy="1343.12" rx="3.34" ry="5.43"></ellipse>
				
					<line style="fill:none;stroke:#000000;stroke-linecap:round;stroke-linejoin:round;stroke-miterlimit:10;" x1="396.69" y1="1339.25" x2="380.05" y2="1322.31"></line>
			</g>
			<g>
				<path style="fill:none;stroke:#000000;stroke-linecap:round;stroke-linejoin:round;stroke-miterlimit:10;" d="M459.22,1293.03
					l-3.8-3.87c-2.1-2.14-4.87-2.82-6.19-1.53s-0.68,4.07,1.42,6.21l3.8,3.87"></path>
				
					<line style="fill:none;stroke:#000000;stroke-linecap:round;stroke-linejoin:round;stroke-miterlimit:10;" x1="449.23" y1="1287.63" x2="432.59" y2="1270.69"></line>
			</g>
			
				<line style="fill:none;stroke:#000000;stroke-linecap:round;stroke-linejoin:round;stroke-miterlimit:10;" x1="456.84" y1="1295.37" x2="449.23" y2="1287.63"></line>
			<g>
				<path style="fill:none;stroke:#000000;stroke-linecap:round;stroke-linejoin:round;stroke-miterlimit:10;" d="M396.09,1326.9
					l3.7-3.63l14.07,14.33l-3.13,3.07c-0.31,0.31-0.82,0.3-1.13-0.01L396.09,1326.9z"></path>
				<path style="fill:none;stroke:#000000;stroke-linecap:round;stroke-linejoin:round;stroke-miterlimit:10;" d="M386.2,1316.26
					l3.13-3.07c0.16-0.15,0.41-0.15,0.56,0.01l9.89,10.07l-3.7,3.63l-9.89-10.07C386.04,1316.67,386.05,1316.42,386.2,1316.26z"></path>
			</g>
		</g>
		<g>
			<g>
				
					<circle style="fill:none;stroke:#000000;stroke-linecap:round;stroke-linejoin:round;stroke-miterlimit:10;" cx="487.85" cy="1374.41" r="21.56"></circle>
			</g>
			<g>
				
					<circle style="fill:none;stroke:#000000;stroke-linecap:round;stroke-linejoin:round;stroke-miterlimit:10;" cx="487.85" cy="1374.41" r="12.27"></circle>
			</g>
			<g>
				
					<ellipse transform="matrix(0.7153 -0.6988 0.6988 0.7153 -846.6125 710.6889)" style="fill:none;stroke:#000000;stroke-linecap:round;stroke-linejoin:round;stroke-miterlimit:10;" cx="448.92" cy="1394.39" rx="3.34" ry="5.43"></ellipse>
				
					<line style="fill:none;stroke:#000000;stroke-linecap:round;stroke-linejoin:round;stroke-miterlimit:10;" x1="452.71" y1="1398.27" x2="469.31" y2="1415.26"></line>
			</g>
			<g>
				<path style="fill:none;stroke:#000000;stroke-linecap:round;stroke-linejoin:round;stroke-miterlimit:10;" d="M500.2,1336.71
					l3.79,3.88c2.09,2.14,2.72,4.93,1.4,6.22c-1.32,1.29-4.09,0.6-6.18-1.55l-3.79-3.88"></path>
				
					<line style="fill:none;stroke:#000000;stroke-linecap:round;stroke-linejoin:round;stroke-miterlimit:10;" x1="505.4" y1="1346.8" x2="521.99" y2="1363.79"></line>
			</g>
			
				<line style="fill:none;stroke:#000000;stroke-linecap:round;stroke-linejoin:round;stroke-miterlimit:10;" x1="497.81" y1="1339.04" x2="505.4" y2="1346.8"></line>
			<g>
				<path style="fill:none;stroke:#000000;stroke-linecap:round;stroke-linejoin:round;stroke-miterlimit:10;" d="M465.05,1399.13
					l3.71-3.62l-14.03-14.36l-3.14,3.06c-0.32,0.31-0.32,0.81-0.01,1.13L465.05,1399.13z"></path>
				<path style="fill:none;stroke:#000000;stroke-linecap:round;stroke-linejoin:round;stroke-miterlimit:10;" d="M475.48,1409.23
					l3.14-3.06c0.16-0.15,0.16-0.41,0.01-0.56l-9.87-10.1l-3.71,3.62l9.87,10.1C475.07,1409.38,475.32,1409.38,475.48,1409.23z"></path>
			</g>
		</g>
	</g>
	<g>
		<path style="fill:none;stroke:#000000;stroke-linecap:round;stroke-linejoin:round;stroke-miterlimit:10;" d="M797.25,1376.91
			l0-172.62c0-0.67,0.54-1.21,1.21-1.21l117.68,0c0.67,0,1.21,0.54,1.21,1.21l0,172.62c0,0.67-0.54,1.21-1.21,1.21l-117.68,0
			C797.79,1378.12,797.25,1377.58,797.25,1376.91z"></path>
		<path style="fill:none;stroke:#000000;stroke-linecap:round;stroke-linejoin:round;stroke-miterlimit:10;" d="M797.25,1376.91
			l0-172.62c0-0.67-0.54-1.21-1.21-1.21h-35.34c-0.67,0-1.21,0.54-1.21,1.21l0,172.62c0,0.67,0.54,1.21,1.21,1.21h35.34
			C796.71,1378.12,797.25,1377.58,797.25,1376.91z"></path>
		<path style="fill:none;stroke:#000000;stroke-linecap:round;stroke-linejoin:round;stroke-miterlimit:10;" d="M797.25,1379.32
			l0,172.23c0,0.67,0.54,1.21,1.21,1.21l117.68,0c0.67,0,1.21-0.54,1.21-1.21l0-172.23c0-0.67-0.54-1.21-1.21-1.21l-117.68,0
			C797.79,1378.12,797.25,1378.66,797.25,1379.32z"></path>
		<path style="fill:none;stroke:#000000;stroke-linecap:round;stroke-linejoin:round;stroke-miterlimit:10;" d="M797.25,1379.32
			l0,172.23c0,0.67-0.54,1.21-1.21,1.21l-35.34,0c-0.67,0-1.21-0.54-1.21-1.21l0-172.23c0-0.67,0.54-1.21,1.21-1.21h35.34
			C796.71,1378.12,797.25,1378.66,797.25,1379.32z"></path>
	</g>
	<g>
		<g>
			<path style="fill:none;stroke:#000000;stroke-linecap:round;stroke-linejoin:round;stroke-miterlimit:10;" d="M858.1,1330.41
				l-0.01,0c-14.66-3.43-29.77-4.52-44.78-3.24l-0.01,0c-3.91,0.33-7-3.25-6.11-7.07l0-0.01c3.43-14.66,4.52-29.77,3.24-44.78
				l0-0.01c-0.33-3.91,3.25-7,7.07-6.11l0.01,0c6.91,1.62,13.93,2.67,20.98,3.24c-3.24,7.81-7.09,15.37-11.54,22.59l-2.63,4.26
				c-1.18,1.91-0.15,4.4,2.03,4.93l4.86,1.18c10.45,2.54,20.44,6.7,29.6,12.35l4.17,2.57c0.08,1.33,0.07,2.65,0.18,3.98l0,0.01
				C865.5,1328.21,861.92,1331.31,858.1,1330.41z"></path>
			<path style="fill:none;stroke:#000000;stroke-linecap:round;stroke-linejoin:round;stroke-miterlimit:10;" d="M893.01,1263.2
				l-2.63,4.26c-8.78,14.24-15.26,29.77-19.2,46.02l-1.18,4.86c-0.53,2.18-3.03,3.2-4.93,2.03l-4.26-2.63
				c-9.16-5.65-19.14-9.81-29.6-12.35l-4.86-1.18c-2.18-0.53-3.2-3.03-2.03-4.93l2.63-4.26c8.78-14.24,15.26-29.77,19.2-46.02
				l1.18-4.86c0.53-2.18,3.03-3.2,4.93-2.03l4.26,2.63c9.16,5.65,19.14,9.81,29.6,12.35l4.86,1.18
				C893.16,1258.79,894.19,1261.29,893.01,1263.2z"></path>
		</g>
	</g>
	<g>
		<g>
			<path style="fill:none;stroke:#000000;stroke-linecap:round;stroke-linejoin:round;stroke-miterlimit:10;" d="M858.1,1412.69
				l-0.01,0c-14.66,3.43-29.77,4.52-44.78,3.24l-0.01,0c-3.91-0.33-7,3.25-6.11,7.07l0,0.01c3.43,14.66,4.52,29.77,3.24,44.78
				l0,0.01c-0.33,3.91,3.25,7,7.07,6.11l0.01,0c6.91-1.62,13.93-2.67,20.98-3.24c-3.24-7.81-7.09-15.37-11.54-22.59l-2.63-4.26
				c-1.17-1.91-0.15-4.4,2.03-4.93l4.86-1.18c10.45-2.54,20.44-6.7,29.6-12.35l4.17-2.57c0.08-1.33,0.07-2.65,0.18-3.98l0-0.01
				C865.5,1414.89,861.92,1411.79,858.1,1412.69z"></path>
			<path style="fill:none;stroke:#000000;stroke-linecap:round;stroke-linejoin:round;stroke-miterlimit:10;" d="M893.01,1479.9
				l-2.63-4.26c-8.78-14.24-15.26-29.77-19.2-46.02l-1.18-4.86c-0.53-2.18-3.03-3.2-4.93-2.03l-4.26,2.63
				c-9.16,5.65-19.14,9.81-29.6,12.35l-4.86,1.18c-2.18,0.53-3.2,3.03-2.03,4.93l2.63,4.26c8.78,14.24,15.26,29.77,19.2,46.02
				l1.18,4.86c0.53,2.18,3.03,3.2,4.93,2.03l4.26-2.63c9.16-5.65,19.14-9.81,29.6-12.35l4.86-1.18
				C893.16,1484.31,894.19,1481.81,893.01,1479.9z"></path>
		</g>
	</g>
	<g>
		
			<rect x="512.54" y="277.45" transform="matrix(-1 -3.223183e-10 3.223183e-10 -1 1164.2664 657.9483)" style="fill:none;stroke:#000000;stroke-linecap:round;stroke-linejoin:round;stroke-miterlimit:10;" width="139.18" height="103.06"></rect>
		
			<rect x="512.54" y="372.39" transform="matrix(-1 -3.223183e-10 3.223183e-10 -1 1164.2664 752.8934)" style="fill:none;stroke:#000000;stroke-linecap:round;stroke-linejoin:round;stroke-miterlimit:10;" width="139.18" height="8.11"></rect>
	</g>
	<g>
		<g>
			
				<rect x="1436.66" y="895.93" transform="matrix(-4.630625e-11 1 -1 -4.630625e-11 2429.8049 -453.2603)" style="fill:none;stroke:#000000;stroke-linecap:round;stroke-linejoin:round;stroke-miterlimit:10;" width="9.74" height="184.69"></rect>
			<polygon style="fill:none;stroke:#000000;stroke-linecap:round;stroke-linejoin:round;stroke-miterlimit:10;" points="
				1510.79,1001.66 1533.88,993.14 1349.19,993.14 1372.28,1001.66 			"></polygon>
		</g>
		
			<rect x="1423.92" y="880.97" transform="matrix(-4.937669e-11 1 -1 -4.937669e-11 2425.5798 -458.1107)" style="fill:none;stroke:#000000;stroke-linecap:round;stroke-linejoin:round;stroke-miterlimit:10;" width="35.84" height="205.52"></rect>
	</g>
	<g>
		<polygon style="fill:none;stroke:#000000;stroke-linecap:round;stroke-linejoin:round;stroke-miterlimit:10;" points="
			241.05,1455.83 137.33,1455.83 137.33,1557.69 241.05,1557.71 		"></polygon>
		<g>
			
				<line style="fill:none;stroke:#000000;stroke-linecap:round;stroke-linejoin:round;stroke-miterlimit:10;" x1="189.95" y1="1527.74" x2="189.95" y2="1483.01"></line>
			
				<line style="fill:none;stroke:#000000;stroke-linecap:round;stroke-linejoin:round;stroke-miterlimit:10;" x1="213.39" y1="1505.38" x2="166.52" y2="1505.38"></line>
			<polyline style="fill:none;stroke:#000000;stroke-linecap:round;stroke-linejoin:round;stroke-miterlimit:10;" points="
				201.67,1522.77 189.95,1516.56 178.23,1522.77 			"></polyline>
			<polyline style="fill:none;stroke:#000000;stroke-linecap:round;stroke-linejoin:round;stroke-miterlimit:10;" points="
				171.72,1516.56 178.23,1505.38 171.72,1494.19 			"></polyline>
			<polyline style="fill:none;stroke:#000000;stroke-linecap:round;stroke-linejoin:round;stroke-miterlimit:10;" points="
				178.23,1487.98 189.95,1494.19 201.67,1487.98 			"></polyline>
			<polyline style="fill:none;stroke:#000000;stroke-linecap:round;stroke-linejoin:round;stroke-miterlimit:10;" points="
				208.18,1494.19 201.67,1505.38 208.18,1516.56 			"></polyline>
		</g>
	</g>
	<g>
		<polygon style="fill:none;stroke:#000000;stroke-linecap:round;stroke-linejoin:round;stroke-miterlimit:10;" points="
			241.05,1155.27 241.05,1077.64 137.32,1077.64 137.3,1155.27 		"></polygon>
		<path style="fill:none;stroke:#000000;stroke-linecap:round;stroke-linejoin:round;stroke-miterlimit:10;" d="M168.84,1116.46
			l24.23-11.97c1.48-0.65,3.11-1.01,4.82-1.01c6.88,0,12.45,5.81,12.45,12.98s-5.57,12.98-12.45,12.98c-1.71,0-3.34-0.36-4.82-1.01
			L168.84,1116.46z"></path>
	</g>
</g>
<g id="floor">
	<g id="LINE_17313_">
		
			<line style="fill:none;stroke:#000000;stroke-linecap:round;stroke-linejoin:round;stroke-miterlimit:10;stroke-dasharray:10,10;" x1="737.2" y1="968.29" x2="523.11" y2="968.29"></line>
	</g>
	<g id="LINE_17317_">
		
			<line style="fill:none;stroke:#000000;stroke-linecap:round;stroke-linejoin:round;stroke-miterlimit:10;stroke-dasharray:10,10;" x1="1160.9" y1="665.61" x2="1160.9" y2="819.75"></line>
	</g>
	<g>
		<g id="LINE_129_">
			
				<line style="fill:none;stroke:#000000;stroke-linecap:round;stroke-linejoin:round;stroke-miterlimit:10;" x1="478.53" y1="564.08" x2="321.09" y2="564.08"></line>
		</g>
		<g id="ARC_36_">
			<path style="fill:none;stroke:#000000;stroke-linecap:round;stroke-linejoin:round;stroke-miterlimit:10;" d="M478.53,412.81
				c-92.94,0.05-157.45,44.35-157.45,151.27"></path>
		</g>
		
			<rect x="478.53" y="399.05" style="fill:none;stroke:#000000;stroke-linecap:round;stroke-linejoin:round;stroke-miterlimit:10;" width="17.64" height="13.76"></rect>
		
			<rect x="478.53" y="564.08" style="fill:none;stroke:#000000;stroke-linecap:round;stroke-linejoin:round;stroke-miterlimit:10;" width="17.64" height="12.05"></rect>
	</g>
	<g>
		<g id="LINE_166_">
			
				<line style="fill:none;stroke:#000000;stroke-linecap:round;stroke-linejoin:round;stroke-miterlimit:10;" x1="768.62" y1="840.3" x2="906" y2="840.3"></line>
		</g>
		<g id="ARC_83_">
			<path style="fill:none;stroke:#000000;stroke-linecap:round;stroke-linejoin:round;stroke-miterlimit:10;" d="M768.62,708.32
				C849.72,708.36,906,747.02,906,840.3"></path>
		</g>
		
			<rect x="753.23" y="696.31" transform="matrix(-1 -4.491657e-10 4.491657e-10 -1 1521.8549 1404.6316)" style="fill:none;stroke:#000000;stroke-linecap:round;stroke-linejoin:round;stroke-miterlimit:10;" width="15.39" height="12.01"></rect>
		
			<rect x="753.23" y="840.3" transform="matrix(-1 -4.490476e-10 4.490476e-10 -1 1521.8549 1691.115)" style="fill:none;stroke:#000000;stroke-linecap:round;stroke-linejoin:round;stroke-miterlimit:10;" width="15.39" height="10.52"></rect>
	</g>
	<g>
		<g id="LINE_167_">
			
				<line style="fill:none;stroke:#000000;stroke-linecap:round;stroke-linejoin:round;stroke-miterlimit:10;" x1="1170.11" y1="1066.97" x2="1307.49" y2="1066.97"></line>
		</g>
		<g id="ARC_84_">
			<path style="fill:none;stroke:#000000;stroke-linecap:round;stroke-linejoin:round;stroke-miterlimit:10;" d="M1170.11,1198.95
				c81.09-0.04,137.37-38.7,137.37-131.98"></path>
		</g>
		
			<rect x="1154.72" y="1198.95" transform="matrix(-1 1.334145e-10 -1.334145e-10 -1 2324.833 2409.9116)" style="fill:none;stroke:#000000;stroke-linecap:round;stroke-linejoin:round;stroke-miterlimit:10;" width="15.39" height="12.01"></rect>
		
			<rect x="1154.72" y="1056.46" transform="matrix(-1 1.356594e-10 -1.356594e-10 -1 2324.833 2123.4282)" style="fill:none;stroke:#000000;stroke-linecap:round;stroke-linejoin:round;stroke-miterlimit:10;" width="15.39" height="10.52"></rect>
	</g>
	<g>
		<g id="LINE_168_">
			
				<line style="fill:none;stroke:#000000;stroke-linecap:round;stroke-linejoin:round;stroke-miterlimit:10;" x1="512.05" y1="908.16" x2="634.67" y2="908.16"></line>
		</g>
		<g id="ARC_85_">
			<path style="fill:none;stroke:#000000;stroke-linecap:round;stroke-linejoin:round;stroke-miterlimit:10;" d="M512.05,790.36
				c72.38,0.04,122.62,34.54,122.62,117.81"></path>
		</g>
		
			<rect x="498.31" y="779.64" transform="matrix(-1 -5.381581e-10 5.381581e-10 -1 1010.3564 1569.9948)" style="fill:none;stroke:#000000;stroke-linecap:round;stroke-linejoin:round;stroke-miterlimit:10;" width="13.74" height="10.72"></rect>
		
			<rect x="498.31" y="908.16" transform="matrix(-1 -5.386879e-10 5.386879e-10 -1 1010.3564 1825.7113)" style="fill:none;stroke:#000000;stroke-linecap:round;stroke-linejoin:round;stroke-miterlimit:10;" width="13.74" height="9.39"></rect>
	</g>
	<g>
		<g id="LINE_169_">
			
				<line style="fill:none;stroke:#000000;stroke-linecap:round;stroke-linejoin:round;stroke-miterlimit:10;" x1="877.8" y1="606.65" x2="877.8" y2="729.16"></line>
		</g>
		<g id="ARC_86_">
			<path style="fill:none;stroke:#000000;stroke-linecap:round;stroke-linejoin:round;stroke-miterlimit:10;" d="M995.51,606.65
				c-0.04,72.32-34.51,122.52-117.71,122.52"></path>
		</g>
		
			<rect x="993.99" y="594.43" transform="matrix(4.043983e-10 -1 1 4.043983e-10 401.0745 1600.6431)" style="fill:none;stroke:#000000;stroke-linecap:round;stroke-linejoin:round;stroke-miterlimit:10;" width="13.73" height="10.71"></rect>
		
			<rect x="866.25" y="595.1" transform="matrix(4.034702e-10 -1 1 4.034702e-10 273.3266 1472.8951)" style="fill:none;stroke:#000000;stroke-linecap:round;stroke-linejoin:round;stroke-miterlimit:10;" width="13.73" height="9.38"></rect>
	</g>
	<g id="LINE_3817_">
		
			<line style="fill:none;stroke:#000000;stroke-linecap:round;stroke-linejoin:round;stroke-miterlimit:10;" x1="650.95" y1="277.78" x2="754.31" y2="277.78"></line>
	</g>
	<g id="LINE_3815_">
		
			<line style="fill:none;stroke:#000000;stroke-linecap:round;stroke-linejoin:round;stroke-miterlimit:10;" x1="651.22" y1="380.51" x2="651.22" y2="277.93"></line>
	</g>
	<g>
		
			<line style="fill:none;stroke:#000000;stroke-linecap:round;stroke-linejoin:round;stroke-miterlimit:10;" x1="1765.89" y1="918.77" x2="1765.89" y2="606.55"></line>
		
			<line style="fill:none;stroke:#000000;stroke-linecap:round;stroke-linejoin:round;stroke-miterlimit:10;" x1="1780.52" y1="921.01" x2="1780.52" y2="606.01"></line>
		
			<line style="fill:none;stroke:#000000;stroke-linecap:round;stroke-linejoin:round;stroke-miterlimit:10;" x1="1733.87" y1="920.46" x2="1733.87" y2="606.01"></line>
		
			<line style="fill:none;stroke:#000000;stroke-linecap:round;stroke-linejoin:round;stroke-miterlimit:10;" x1="1754.58" y1="918.77" x2="1754.58" y2="606.01"></line>
		
			<line style="fill:none;stroke:#000000;stroke-linecap:round;stroke-linejoin:round;stroke-miterlimit:10;" x1="1765.89" y1="766.29" x2="1754.58" y2="766.29"></line>
		
			<line style="fill:none;stroke:#000000;stroke-linecap:round;stroke-linejoin:round;stroke-miterlimit:10;" x1="1765.89" y1="757.67" x2="1754.58" y2="757.67"></line>
		
			<line style="fill:none;stroke:#000000;stroke-linecap:round;stroke-linejoin:round;stroke-miterlimit:10;" x1="1765.89" y1="614.71" x2="1754.58" y2="614.71"></line>
		
			<line style="fill:none;stroke:#000000;stroke-linecap:round;stroke-linejoin:round;stroke-miterlimit:10;" x1="1765.85" y1="910.44" x2="1754.53" y2="910.44"></line>
		
			<line style="fill:none;stroke:#000000;stroke-linecap:round;stroke-linejoin:round;stroke-miterlimit:10;" x1="1760.37" y1="910.44" x2="1760.37" y2="766.29"></line>
		
			<line style="fill:none;stroke:#000000;stroke-linecap:round;stroke-linejoin:round;stroke-miterlimit:10;" x1="1760.32" y1="757.67" x2="1760.32" y2="614.71"></line>
	</g>
	<g>
		
			<line style="fill:none;stroke:#000000;stroke-linecap:round;stroke-linejoin:round;stroke-miterlimit:10;" x1="1113.45" y1="1623.15" x2="801.51" y2="1623.15"></line>
		
			<line style="fill:none;stroke:#000000;stroke-linecap:round;stroke-linejoin:round;stroke-miterlimit:10;" x1="1115.69" y1="1639.23" x2="800.96" y2="1639.23"></line>
		
			<line style="fill:none;stroke:#000000;stroke-linecap:round;stroke-linejoin:round;stroke-miterlimit:10;" x1="1115.14" y1="1591.65" x2="800.96" y2="1591.65"></line>
		
			<line style="fill:none;stroke:#000000;stroke-linecap:round;stroke-linejoin:round;stroke-miterlimit:10;" x1="1113.45" y1="1612.02" x2="800.96" y2="1612.02"></line>
		
			<line style="fill:none;stroke:#000000;stroke-linecap:round;stroke-linejoin:round;stroke-miterlimit:10;" x1="961.11" y1="1623.15" x2="961.11" y2="1612.02"></line>
		
			<line style="fill:none;stroke:#000000;stroke-linecap:round;stroke-linejoin:round;stroke-miterlimit:10;" x1="952.49" y1="1623.15" x2="952.49" y2="1612.02"></line>
		
			<line style="fill:none;stroke:#000000;stroke-linecap:round;stroke-linejoin:round;stroke-miterlimit:10;" x1="809.66" y1="1623.15" x2="809.66" y2="1612.02"></line>
		
			<line style="fill:none;stroke:#000000;stroke-linecap:round;stroke-linejoin:round;stroke-miterlimit:10;" x1="1105.13" y1="1623.11" x2="1105.13" y2="1611.98"></line>
		
			<line style="fill:none;stroke:#000000;stroke-linecap:round;stroke-linejoin:round;stroke-miterlimit:10;" x1="1105.13" y1="1617.72" x2="961.11" y2="1617.72"></line>
		
			<line style="fill:none;stroke:#000000;stroke-linecap:round;stroke-linejoin:round;stroke-miterlimit:10;" x1="952.49" y1="1617.67" x2="809.66" y2="1617.67"></line>
	</g>
	<g>
		
			<line style="fill:none;stroke:#000000;stroke-linecap:round;stroke-linejoin:round;stroke-miterlimit:10;" x1="597.17" y1="1622.61" x2="284.96" y2="1622.61"></line>
		
			<line style="fill:none;stroke:#000000;stroke-linecap:round;stroke-linejoin:round;stroke-miterlimit:10;" x1="599.41" y1="1639.23" x2="284.41" y2="1639.23"></line>
		
			<line style="fill:none;stroke:#000000;stroke-linecap:round;stroke-linejoin:round;stroke-miterlimit:10;" x1="598.86" y1="1591.1" x2="284.41" y2="1591.1"></line>
		
			<line style="fill:none;stroke:#000000;stroke-linecap:round;stroke-linejoin:round;stroke-miterlimit:10;" x1="597.17" y1="1611.48" x2="284.41" y2="1611.48"></line>
		
			<line style="fill:none;stroke:#000000;stroke-linecap:round;stroke-linejoin:round;stroke-miterlimit:10;" x1="444.69" y1="1622.61" x2="444.69" y2="1611.48"></line>
		
			<line style="fill:none;stroke:#000000;stroke-linecap:round;stroke-linejoin:round;stroke-miterlimit:10;" x1="436.07" y1="1622.61" x2="436.07" y2="1611.48"></line>
		
			<line style="fill:none;stroke:#000000;stroke-linecap:round;stroke-linejoin:round;stroke-miterlimit:10;" x1="293.11" y1="1622.61" x2="293.11" y2="1611.48"></line>
		
			<line style="fill:none;stroke:#000000;stroke-linecap:round;stroke-linejoin:round;stroke-miterlimit:10;" x1="588.84" y1="1622.57" x2="588.84" y2="1611.43"></line>
		
			<line style="fill:none;stroke:#000000;stroke-linecap:round;stroke-linejoin:round;stroke-miterlimit:10;" x1="588.84" y1="1617.17" x2="444.69" y2="1617.17"></line>
		
			<line style="fill:none;stroke:#000000;stroke-linecap:round;stroke-linejoin:round;stroke-miterlimit:10;" x1="436.07" y1="1617.13" x2="293.11" y2="1617.13"></line>
	</g>
	<g>
		
			<line style="fill:none;stroke:#000000;stroke-linecap:round;stroke-linejoin:round;stroke-miterlimit:10;" x1="800.24" y1="1639.23" x2="800.24" y2="1758.67"></line>
		
			<line style="fill:none;stroke:#000000;stroke-linecap:round;stroke-linejoin:round;stroke-miterlimit:10;" x1="1112.69" y1="1758.67" x2="800.24" y2="1758.67"></line>
		
			<line style="fill:none;stroke:#000000;stroke-linecap:round;stroke-linejoin:round;stroke-miterlimit:10;" x1="1112.69" y1="1639.23" x2="1112.69" y2="1758.67"></line>
		
			<line style="fill:none;stroke:#000000;stroke-linecap:round;stroke-linejoin:round;stroke-miterlimit:10;" x1="800.24" y1="1758.67" x2="1112.69" y2="1639.23"></line>
		
			<line style="fill:none;stroke:#000000;stroke-linecap:round;stroke-linejoin:round;stroke-miterlimit:10;" x1="1112.69" y1="1758.67" x2="800.24" y2="1639.23"></line>
	</g>
	<g>
		
			<line style="fill:none;stroke:#000000;stroke-linecap:round;stroke-linejoin:round;stroke-miterlimit:10;" x1="1780.52" y1="1124.28" x2="1899.91" y2="1124.28"></line>
		
			<line style="fill:none;stroke:#000000;stroke-linecap:round;stroke-linejoin:round;stroke-miterlimit:10;" x1="1899.91" y1="1434.64" x2="1899.91" y2="1124.28"></line>
		
			<line style="fill:none;stroke:#000000;stroke-linecap:round;stroke-linejoin:round;stroke-miterlimit:10;" x1="1780.52" y1="1434.64" x2="1899.91" y2="1434.64"></line>
		
			<line style="fill:none;stroke:#000000;stroke-linecap:round;stroke-linejoin:round;stroke-miterlimit:10;" x1="1899.91" y1="1124.28" x2="1780.52" y2="1434.64"></line>
		
			<line style="fill:none;stroke:#000000;stroke-linecap:round;stroke-linejoin:round;stroke-miterlimit:10;" x1="1899.91" y1="1434.64" x2="1780.52" y2="1124.28"></line>
	</g>
	<g>
		
			<line style="fill:none;stroke:#000000;stroke-linecap:round;stroke-linejoin:round;stroke-miterlimit:10;" x1="1765.89" y1="1433.77" x2="1765.89" y2="1121.56"></line>
		
			<line style="fill:none;stroke:#000000;stroke-linecap:round;stroke-linejoin:round;stroke-miterlimit:10;" x1="1780.52" y1="1436.01" x2="1780.52" y2="1121.01"></line>
		
			<line style="fill:none;stroke:#000000;stroke-linecap:round;stroke-linejoin:round;stroke-miterlimit:10;" x1="1733.87" y1="1435.47" x2="1733.87" y2="1121.01"></line>
		
			<line style="fill:none;stroke:#000000;stroke-linecap:round;stroke-linejoin:round;stroke-miterlimit:10;" x1="1754.58" y1="1433.77" x2="1754.58" y2="1121.01"></line>
		
			<line style="fill:none;stroke:#000000;stroke-linecap:round;stroke-linejoin:round;stroke-miterlimit:10;" x1="1765.89" y1="1281.3" x2="1754.58" y2="1281.3"></line>
		
			<line style="fill:none;stroke:#000000;stroke-linecap:round;stroke-linejoin:round;stroke-miterlimit:10;" x1="1765.89" y1="1272.68" x2="1754.58" y2="1272.68"></line>
		
			<line style="fill:none;stroke:#000000;stroke-linecap:round;stroke-linejoin:round;stroke-miterlimit:10;" x1="1765.89" y1="1129.72" x2="1754.58" y2="1129.72"></line>
		
			<line style="fill:none;stroke:#000000;stroke-linecap:round;stroke-linejoin:round;stroke-miterlimit:10;" x1="1765.85" y1="1425.45" x2="1754.53" y2="1425.45"></line>
		
			<line style="fill:none;stroke:#000000;stroke-linecap:round;stroke-linejoin:round;stroke-miterlimit:10;" x1="1760.37" y1="1425.45" x2="1760.37" y2="1281.3"></line>
		
			<line style="fill:none;stroke:#000000;stroke-linecap:round;stroke-linejoin:round;stroke-miterlimit:10;" x1="1760.32" y1="1272.68" x2="1760.32" y2="1129.72"></line>
	</g>
	<g>
		
			<line style="fill:none;stroke:#000000;stroke-linecap:round;stroke-linejoin:round;stroke-miterlimit:10;" x1="1626.31" y1="1623.1" x2="1314.1" y2="1623.1"></line>
		
			<line style="fill:none;stroke:#000000;stroke-linecap:round;stroke-linejoin:round;stroke-miterlimit:10;" x1="1628.55" y1="1639.23" x2="1313.55" y2="1639.23"></line>
		
			<line style="fill:none;stroke:#000000;stroke-linecap:round;stroke-linejoin:round;stroke-miterlimit:10;" x1="1628.01" y1="1591.59" x2="1313.55" y2="1591.59"></line>
		
			<line style="fill:none;stroke:#000000;stroke-linecap:round;stroke-linejoin:round;stroke-miterlimit:10;" x1="1626.31" y1="1611.97" x2="1313.55" y2="1611.97"></line>
		
			<line style="fill:none;stroke:#000000;stroke-linecap:round;stroke-linejoin:round;stroke-miterlimit:10;" x1="1473.84" y1="1623.1" x2="1473.84" y2="1611.97"></line>
		
			<line style="fill:none;stroke:#000000;stroke-linecap:round;stroke-linejoin:round;stroke-miterlimit:10;" x1="1465.22" y1="1623.1" x2="1465.22" y2="1611.97"></line>
		
			<line style="fill:none;stroke:#000000;stroke-linecap:round;stroke-linejoin:round;stroke-miterlimit:10;" x1="1322.26" y1="1623.1" x2="1322.26" y2="1611.97"></line>
		
			<line style="fill:none;stroke:#000000;stroke-linecap:round;stroke-linejoin:round;stroke-miterlimit:10;" x1="1617.99" y1="1623.06" x2="1617.99" y2="1611.92"></line>
		
			<line style="fill:none;stroke:#000000;stroke-linecap:round;stroke-linejoin:round;stroke-miterlimit:10;" x1="1617.99" y1="1617.66" x2="1473.84" y2="1617.66"></line>
		
			<line style="fill:none;stroke:#000000;stroke-linecap:round;stroke-linejoin:round;stroke-miterlimit:10;" x1="1465.22" y1="1617.62" x2="1322.26" y2="1617.62"></line>
	</g>
	<g>
		<g id="LWPOLYLINE_108_">
			
				<rect x="137.37" y="1155.27" style="fill:none;stroke:#000000;stroke-linecap:round;stroke-linejoin:round;stroke-miterlimit:10;" width="103.68" height="102.51"></rect>
		</g>
		<g id="LWPOLYLINE_107_">
			
				<line style="fill:none;stroke:#000000;stroke-linecap:round;stroke-linejoin:round;stroke-miterlimit:10;" x1="163.29" y1="1215.07" x2="163.29" y2="1249.24"></line>
		</g>
		<g id="LWPOLYLINE_106_">
			
				<line style="fill:none;stroke:#000000;stroke-linecap:round;stroke-linejoin:round;stroke-miterlimit:10;" x1="180.57" y1="1232.15" x2="146.01" y2="1232.15"></line>
		</g>
		<g id="CIRCLE_229_">
			<path style="fill:none;stroke:#000000;stroke-linecap:round;stroke-linejoin:round;stroke-miterlimit:10;" d="M149.47,1232.15
				c0,7.55,6.19,13.67,13.83,13.67c7.64,0,13.83-6.12,13.83-13.67c0-7.55-6.19-13.67-13.83-13.67
				C155.66,1218.48,149.47,1224.6,149.47,1232.15L149.47,1232.15z"></path>
		</g>
		<g id="LWPOLYLINE_105_">
			
				<line style="fill:none;stroke:#000000;stroke-linecap:round;stroke-linejoin:round;stroke-miterlimit:10;" x1="163.29" y1="1163.81" x2="163.29" y2="1197.98"></line>
		</g>
		<g id="LWPOLYLINE_104_">
			
				<line style="fill:none;stroke:#000000;stroke-linecap:round;stroke-linejoin:round;stroke-miterlimit:10;" x1="180.57" y1="1180.9" x2="146.01" y2="1180.9"></line>
		</g>
		<g id="CIRCLE_228_">
			<path style="fill:none;stroke:#000000;stroke-linecap:round;stroke-linejoin:round;stroke-miterlimit:10;" d="M149.47,1180.89
				c0,7.55,6.19,13.67,13.83,13.67c7.64,0,13.83-6.12,13.83-13.67c0-7.55-6.19-13.67-13.83-13.67
				C155.66,1167.22,149.47,1173.34,149.47,1180.89L149.47,1180.89z"></path>
		</g>
		<g id="LWPOLYLINE_103_">
			
				<line style="fill:none;stroke:#000000;stroke-linecap:round;stroke-linejoin:round;stroke-miterlimit:10;" x1="215.13" y1="1163.81" x2="215.13" y2="1197.98"></line>
		</g>
		<g id="LWPOLYLINE_102_">
			
				<line style="fill:none;stroke:#000000;stroke-linecap:round;stroke-linejoin:round;stroke-miterlimit:10;" x1="232.41" y1="1180.9" x2="197.85" y2="1180.9"></line>
		</g>
		<g id="CIRCLE_227_">
			<path style="fill:none;stroke:#000000;stroke-linecap:round;stroke-linejoin:round;stroke-miterlimit:10;" d="M201.3,1180.89
				c0,7.55,6.19,13.67,13.83,13.67c7.64,0,13.83-6.12,13.83-13.67c0-7.55-6.19-13.67-13.83-13.67
				C207.5,1167.22,201.3,1173.34,201.3,1180.89L201.3,1180.89z"></path>
		</g>
		<g id="LWPOLYLINE_101_">
			
				<line style="fill:none;stroke:#000000;stroke-linecap:round;stroke-linejoin:round;stroke-miterlimit:10;" x1="215.13" y1="1215.06" x2="215.13" y2="1249.24"></line>
		</g>
		<g id="LWPOLYLINE_100_">
			
				<line style="fill:none;stroke:#000000;stroke-linecap:round;stroke-linejoin:round;stroke-miterlimit:10;" x1="232.41" y1="1232.15" x2="197.85" y2="1232.15"></line>
		</g>
		<g id="CIRCLE_226_">
			<path style="fill:none;stroke:#000000;stroke-linecap:round;stroke-linejoin:round;stroke-miterlimit:10;" d="M201.31,1232.15
				c0,7.55,6.19,13.67,13.83,13.67c7.64,0,13.83-6.12,13.83-13.67s-6.19-13.67-13.83-13.67
				C207.5,1218.48,201.31,1224.6,201.31,1232.15L201.31,1232.15z"></path>
		</g>
	</g>
	<g>
		<g id="LWPOLYLINE_99_">
			
				<rect x="137.53" y="974.44" style="fill:none;stroke:#000000;stroke-linecap:round;stroke-linejoin:round;stroke-miterlimit:10;" width="103.52" height="103.2"></rect>
		</g>
		<g id="LWPOLYLINE_98_">
			<path style="fill:none;stroke:#000000;stroke-linecap:round;stroke-linejoin:round;stroke-miterlimit:10;" d="M226.38,1069.04
				l-65.52,0c-3.33,0-6.04-2.69-6.04-6.02c0,0,0-73.97,0-73.97c0-3.33,2.7-6.02,6.04-6.02c0,0,65.52,0,65.52,0
				c3.33,0,6.04,2.69,6.04,6.02c0,0,0,73.97,0,73.97C232.42,1066.35,229.72,1069.04,226.38,1069.04z"></path>
		</g>
		<g id="LWPOLYLINE_97_">
			<path style="fill:none;stroke:#000000;stroke-linecap:round;stroke-linejoin:round;stroke-miterlimit:10;" d="M177.65,1043.24
				c0,3.33-2.71,6.03-6.05,6.03c-3.34,0-6.05-2.7-6.05-6.03c0-3.33,2.71-6.03,6.05-6.03
				C174.94,1037.21,177.65,1039.91,177.65,1043.24z"></path>
		</g>
	</g>
	<g>
		<g>
			<g id="LWPOLYLINE_289_">
				<path style="fill:none;stroke:#000000;stroke-linecap:round;stroke-linejoin:round;stroke-miterlimit:10;" d="M812.07,345.93
					v63.65c0,16.84,13.65,30.49,30.5,30.49c16.84,0,30.5-13.65,30.5-30.5v-63.65"></path>
				
					<line style="fill:none;stroke:#000000;stroke-linecap:round;stroke-linejoin:round;stroke-miterlimit:10;" x1="873.06" y1="345.93" x2="812.07" y2="345.93"></line>
			</g>
			<g id="LWPOLYLINE_288_">
				<path style="fill:none;stroke:#000000;stroke-linecap:round;stroke-linejoin:round;stroke-miterlimit:10;" d="M866.96,409.58
					v-20.82c0-13.47-10.92-24.39-24.39-24.39c-13.47,0-24.4,10.92-24.4,24.39v20.82c0,13.47,10.92,24.39,24.39,24.39
					C856.03,433.97,866.96,423.05,866.96,409.58z"></path>
			</g>
			<g id="LWPOLYLINE_287_">
				<path style="fill:none;stroke:#000000;stroke-linecap:round;stroke-linejoin:round;stroke-miterlimit:10;" d="M851.71,397.23
					l0-10.69c0-5.05-4.1-9.15-9.15-9.15c-5.05,0-9.15,4.1-9.15,9.15v10.69c0,5.05,4.1,9.15,9.15,9.15
					C847.61,406.38,851.71,402.28,851.71,397.23z"></path>
			</g>
		</g>
		<g>
			<g id="LWPOLYLINE_286_">
				<path style="fill:none;stroke:#000000;stroke-linecap:round;stroke-linejoin:round;stroke-miterlimit:10;" d="M917.96,295.9
					l0,48.19c0,6.79,4.4,12.8,10.9,14.88c23.57,7.55,48.93,7.55,72.5,0c6.49-2.08,10.9-8.09,10.9-14.88V295.9"></path>
			</g>
			<g id="LWPOLYLINE_285_">
				<path style="fill:none;stroke:#000000;stroke-linecap:round;stroke-linejoin:round;stroke-miterlimit:10;" d="M990.26,309.38
					c5.21,0,9.43,4.2,9.43,9.38v15.02c0,3.44-2.25,6.47-5.56,7.47c-18.91,5.76-39.13,5.76-58.04,0c-3.3-1.01-5.55-4.04-5.56-7.47
					v-15.02c0-5.18,4.22-9.38,9.43-9.38"></path>
			</g>
			<g id="LWPOLYLINE_284_">
				<path style="fill:none;stroke:#000000;stroke-linecap:round;stroke-linejoin:round;stroke-miterlimit:10;" d="M924.25,318.76
					l0,25.32c0,4.07,2.64,7.68,6.53,8.93c22.32,7.15,46.33,7.15,68.65,0c3.89-1.25,6.54-4.86,6.54-8.93v-25.32
					c0-5.18-4.22-9.38-9.43-9.38l-62.87,0C928.47,309.38,924.25,313.58,924.25,318.76z"></path>
			</g>
			<g id="LWPOLYLINE_283_">
				<path style="fill:none;stroke:#000000;stroke-linecap:round;stroke-linejoin:round;stroke-miterlimit:10;" d="M965.11,312.17
					c-2.34,0-4.23,1.88-4.23,4.21c0,2.32,1.9,4.21,4.23,4.21c2.34,0,4.23-1.88,4.23-4.21C969.34,314.06,967.45,312.17,965.11,312.17
					z"></path>
			</g>
		</g>
		<g>
			<g id="LWPOLYLINE_282_">
				
					<rect x="1017.5" y="295.84" style="fill:none;stroke:#000000;stroke-linecap:round;stroke-linejoin:round;stroke-miterlimit:10;" width="121.14" height="291.96"></rect>
			</g>
			<g id="LWPOLYLINE_281_">
				<path style="fill:none;stroke:#000000;stroke-linecap:round;stroke-linejoin:round;stroke-miterlimit:10;" d="M1027.19,546.94
					l0-188.32c0-28.12,22.78-50.91,50.87-50.91c28.1,0,50.88,22.79,50.88,50.91v188.32c0,13.44-10.8,24.38-24.22,24.53h-53.3
					c-13.38,0-24.23-10.86-24.23-24.25"></path>
			</g>
			<g id="LWPOLYLINE_280_">
				<path style="fill:none;stroke:#000000;stroke-linecap:round;stroke-linejoin:round;stroke-miterlimit:10;" d="M1041.03,486.41
					V358.62c0-20.47,16.58-37.06,37.03-37.06c20.45,0,37.03,16.59,37.03,37.06V484.5c-0.01,19.72-15.45,35.98-35.12,37.01
					C1059.54,522.58,1042.1,506.86,1041.03,486.41z"></path>
			</g>
			<g id="LWPOLYLINE_279_">
				<path style="fill:none;stroke:#000000;stroke-linecap:round;stroke-linejoin:round;stroke-miterlimit:10;" d="M1078.06,351.84
					c3.74,0,6.78,3.04,6.78,6.79c0,3.75-3.04,6.79-6.78,6.79c-3.75,0-6.78-3.04-6.78-6.79
					C1071.28,354.88,1074.32,351.84,1078.06,351.84z"></path>
			</g>
		</g>
	</g>
	<g>
		<g>
			<g id="LWPOLYLINE_363_">
				<path style="fill:none;stroke:#000000;stroke-linecap:round;stroke-linejoin:round;stroke-miterlimit:10;" d="M257.28,855.39
					h63.65c16.84,0,30.49,13.65,30.49,30.5c0,16.84-13.65,30.5-30.5,30.5h-63.65"></path>
				
					<line style="fill:none;stroke:#000000;stroke-linecap:round;stroke-linejoin:round;stroke-miterlimit:10;" x1="257.28" y1="916.38" x2="257.28" y2="855.39"></line>
			</g>
			<g id="LWPOLYLINE_362_">
				<path style="fill:none;stroke:#000000;stroke-linecap:round;stroke-linejoin:round;stroke-miterlimit:10;" d="M320.92,910.28
					H300.1c-13.47,0-24.39-10.92-24.39-24.39c0-13.47,10.92-24.4,24.39-24.4h20.82c13.47,0,24.39,10.92,24.39,24.39
					C345.32,899.35,334.4,910.28,320.92,910.28z"></path>
			</g>
			<g id="LWPOLYLINE_361_">
				<path style="fill:none;stroke:#000000;stroke-linecap:round;stroke-linejoin:round;stroke-miterlimit:10;" d="M308.58,895.03
					h-10.69c-5.05,0-9.15-4.1-9.15-9.15c0-5.05,4.1-9.15,9.15-9.15h10.69c5.05,0,9.15,4.1,9.15,9.15
					C317.72,890.94,313.63,895.03,308.58,895.03z"></path>
			</g>
		</g>
		<g>
			<g id="LWPOLYLINE_360_">
				<path style="fill:none;stroke:#000000;stroke-linecap:round;stroke-linejoin:round;stroke-miterlimit:10;" d="M468.06,676.9
					l0,48.19c0,6.79-4.4,12.8-10.9,14.88c-23.57,7.55-48.93,7.55-72.5,0c-6.49-2.08-10.9-8.09-10.9-14.88l0-48.19"></path>
			</g>
			<g id="LWPOLYLINE_359_">
				<path style="fill:none;stroke:#000000;stroke-linecap:round;stroke-linejoin:round;stroke-miterlimit:10;" d="M395.77,690.38
					c-5.21,0-9.43,4.2-9.43,9.38v15.02c0,3.44,2.25,6.47,5.56,7.47c18.91,5.76,39.13,5.76,58.04,0c3.3-1.01,5.55-4.04,5.56-7.47
					v-15.02c0-5.18-4.22-9.38-9.43-9.38"></path>
			</g>
			<g id="LWPOLYLINE_358_">
				<path style="fill:none;stroke:#000000;stroke-linecap:round;stroke-linejoin:round;stroke-miterlimit:10;" d="M461.78,699.77
					l0,25.32c0,4.07-2.64,7.68-6.53,8.93c-22.32,7.15-46.33,7.15-68.65,0c-3.89-1.25-6.54-4.86-6.54-8.93l0-25.32
					c0-5.18,4.22-9.38,9.43-9.38h62.87C457.56,690.38,461.78,694.58,461.78,699.77z"></path>
			</g>
			<g id="LWPOLYLINE_357_">
				<path style="fill:none;stroke:#000000;stroke-linecap:round;stroke-linejoin:round;stroke-miterlimit:10;" d="M420.91,693.18
					c2.34,0,4.23,1.88,4.23,4.21c0,2.32-1.9,4.21-4.23,4.21c-2.34,0-4.23-1.88-4.23-4.21C416.69,695.06,418.58,693.18,420.91,693.18
					z"></path>
			</g>
		</g>
		<g>
			<g id="CIRCLE_264_">
				<path style="fill:none;stroke:#000000;stroke-linecap:round;stroke-linejoin:round;stroke-miterlimit:10;" d="M224.07,701.08
					c0,3.76,2.99,6.81,6.67,6.81s6.67-3.05,6.67-6.81c0-3.76-2.99-6.81-6.67-6.81S224.07,697.31,224.07,701.08L224.07,701.08z"></path>
			</g>
			<g id="LWPOLYLINE_356_">
				<path style="fill:none;stroke:#000000;stroke-linecap:round;stroke-linejoin:round;stroke-miterlimit:10;" d="M339.28,777.27
					c0,16.98-13.94,30.74-31.14,30.74c0,0-81.74,0-81.74,0c-6.45,0-11.68-5.16-11.68-11.53v-99.9c0-6.37,5.23-11.53,11.68-11.53
					h101.2c6.45,0,11.68,5.16,11.68,11.53V777.27z"></path>
			</g>
			<g id="LWPOLYLINE_355_">
				<path style="fill:none;stroke:#000000;stroke-linecap:round;stroke-linejoin:round;stroke-miterlimit:10;" d="M347.06,677.36
					l0,99.9c0,21.22-17.43,38.42-38.92,38.42c0,0-101.2,0-101.2,0l0-138.33L347.06,677.36v99.9c0,21.22-17.43,38.42-38.92,38.42
					c0,0-101.2,0-101.2,0"></path>
			</g>
		</g>
	</g>
	<g>
		<g id="LINE_3822_">
			
				<line style="fill:none;stroke:#000000;stroke-linecap:round;stroke-linejoin:round;stroke-miterlimit:10;" x1="651.54" y1="380.41" x2="754.31" y2="380.41"></line>
		</g>
		<g id="LINE_3821_">
			
				<line style="fill:none;stroke:#000000;stroke-linecap:round;stroke-linejoin:round;stroke-miterlimit:10;" x1="754.31" y1="380.41" x2="754.31" y2="278.47"></line>
		</g>
		<g id="LINE_3820_">
			
				<line style="fill:none;stroke:#000000;stroke-linecap:round;stroke-linejoin:round;stroke-miterlimit:10;" x1="721.65" y1="329.69" x2="677.91" y2="367.73"></line>
		</g>
		<g id="LINE_3819_">
			
				<line style="fill:none;stroke:#000000;stroke-linecap:round;stroke-linejoin:round;stroke-miterlimit:10;" x1="728.38" y1="291.65" x2="684.64" y2="329.69"></line>
		</g>
		<g id="LINE_3818_">
			
				<line style="fill:none;stroke:#000000;stroke-linecap:round;stroke-linejoin:round;stroke-miterlimit:10;" x1="721.65" y1="329.69" x2="684.64" y2="329.69"></line>
		</g>
		<g id="CIRCLE_276_">
			<path style="fill:none;stroke:#000000;stroke-linecap:round;stroke-linejoin:round;stroke-miterlimit:10;" d="M703.15,355.05
				c13.94,0,25.23-11.35,25.23-25.36c0-14-11.3-25.36-25.23-25.36s-25.23,11.35-25.23,25.36
				C677.91,343.7,689.21,355.05,703.15,355.05L703.15,355.05z"></path>
		</g>
		<g id="LINE_133_">
			
				<line style="fill:none;stroke:#000000;stroke-linecap:round;stroke-linejoin:round;stroke-miterlimit:10;" x1="650.95" y1="277.68" x2="754.31" y2="277.68"></line>
		</g>
		<g id="LINE_3232_">
			
				<line style="fill:none;stroke:#000000;stroke-linecap:round;stroke-linejoin:round;stroke-miterlimit:10;" x1="651.22" y1="380.41" x2="651.22" y2="277.83"></line>
		</g>
	</g>
	<g>
		<polygon style="fill-rule:evenodd;clip-rule:evenodd;" points="1154.91,524.31 1422.09,524.31 1422.09,490.06 1154.91,490.06 
			1154.91,524.31 		"></polygon>
		<polygon style="fill-rule:evenodd;clip-rule:evenodd;" points="786.69,275.97 1154.91,275.97 1154.91,241.72 786.69,241.72 
			786.69,275.97 		"></polygon>
		<polygon style="fill-rule:evenodd;clip-rule:evenodd;" points="478.41,575.69 478.41,661.32 512.66,661.32 512.66,575.69 
			478.41,575.69 		"></polygon>
		<polygon style="fill-rule:evenodd;clip-rule:evenodd;" points="134.17,627.07 134.17,661.32 478.41,661.32 478.41,627.07 
			186.57,627.07 134.17,627.07 		"></polygon>
		<polygon style="fill-rule:evenodd;clip-rule:evenodd;" points="1154.91,974.74 1154.91,1002.15 1168.62,1002.15 1168.62,819.75 
			1154.91,819.75 1154.91,961.04 1154.91,974.74 		"></polygon>
		<polygon style="fill-rule:evenodd;clip-rule:evenodd;" points="1154.91,526.02 1154.91,665.61 1168.62,665.61 1168.62,524.31 
			1154.91,524.31 1154.91,526.02 		"></polygon>
		<polygon style="fill-rule:evenodd;clip-rule:evenodd;" points="737.2,974.74 1154.91,974.74 1154.91,961.04 737.2,961.04 
			737.2,974.74 		"></polygon>
		<polygon style="fill-rule:evenodd;clip-rule:evenodd;" points="754.15,961.04 767.85,961.04 767.85,850.57 754.15,850.57 
			754.15,961.04 		"></polygon>
		<polygon style="fill-rule:evenodd;clip-rule:evenodd;" points="754.15,607.72 754.15,696.43 767.85,696.43 767.85,607.72 
			754.32,607.72 754.15,604.86 754.15,607.72 		"></polygon>
		<polygon style="fill-rule:evenodd;clip-rule:evenodd;" points="1154.91,1536.5 1168.62,1536.5 1168.62,1211.09 1154.91,1211.09 
			1154.91,1517.97 1154.91,1536.5 		"></polygon>
		<polygon style="fill-rule:evenodd;clip-rule:evenodd;" points="1154.91,1056.95 1168.62,1056.95 1168.62,1039.82 1154.91,1039.82 
			1154.91,1056.95 		"></polygon>
		<polygon style="fill-rule:evenodd;clip-rule:evenodd;" points="99.91,627.07 99.91,856.98 134.17,856.98 134.17,627.07 
			99.91,627.07 		"></polygon>
		<polygon style="fill-rule:evenodd;clip-rule:evenodd;" points="1422.09,526.02 1780.52,526.02 1780.52,489.95 1422.09,489.95 
			1422.09,526.02 		"></polygon>
		<polygon style="fill-rule:evenodd;clip-rule:evenodd;" points="478.41,241.51 478.41,277.69 766.69,277.61 766.69,276.04 
			786.69,276.04 786.69,241.51 512.66,241.51 478.41,241.51 		"></polygon>
		<polygon style="fill-rule:evenodd;clip-rule:evenodd;" points="1154.91,1039.82 1738.86,1039.82 1738.86,1002.15 1154.91,1002.15 
			1154.91,1024.51 1154.91,1039.82 		"></polygon>
		<polygon style="fill-rule:evenodd;clip-rule:evenodd;" points="1154.91,1536.5 1154.91,1593.95 1274.8,1593.95 1274.8,1536.5 
			1235.62,1536.5 1154.91,1536.5 		"></polygon>
		<polygon style="fill-rule:evenodd;clip-rule:evenodd;" points="641.11,1536.5 641.11,1592.95 761,1592.95 761,1536.5 
			641.11,1536.5 		"></polygon>
		<rect x="764.79" y="334.03" style="fill-rule:evenodd;clip-rule:evenodd;" width="148.38" height="12.83"></rect>
		<rect x="900.58" y="292.07" style="fill-rule:evenodd;clip-rule:evenodd;" width="12.72" height="54.52"></rect>
		<polygon style="fill-rule:evenodd;clip-rule:evenodd;" points="1156.39,607.82 1156.39,587.33 1154.23,587.33 1006.08,587.33 
			1006.08,607.82 		"></polygon>
		<rect x="202.67" y="815.54" style="fill-rule:evenodd;clip-rule:evenodd;" width="50.52" height="12.76"></rect>
		<rect x="244.63" y="815.48" style="fill-rule:evenodd;clip-rule:evenodd;" width="12.85" height="143"></rect>
		<polygon style="fill-rule:evenodd;clip-rule:evenodd;" points="1733.78,561.4 1733.78,607.38 1780.52,607.38 1780.52,490.22 
			1733.78,490.22 1733.78,494.91 1733.78,561.4 		"></polygon>
		<polygon style="fill-rule:evenodd;clip-rule:evenodd;" points="1733.69,1123.55 1780.52,1123.55 1780.52,918.22 1733.69,918.22 
			1733.69,1115.32 1733.69,1123.55 		"></polygon>
		<polygon style="fill-rule:evenodd;clip-rule:evenodd;" points="1112.1,1591.23 1112.1,1639.23 1314.52,1639.23 1314.52,1591.23 
			1120.21,1591.23 1112.1,1591.23 		"></polygon>
		<polyline style="fill-rule:evenodd;clip-rule:evenodd;" points="598.3,1639.23 801.25,1639.23 801.25,1591.05 598.3,1591.05 		"></polyline>
		<rect x="754.36" y="334.03" style="fill-rule:evenodd;clip-rule:evenodd;" width="16.14" height="272.88"></rect>
		<rect x="754.45" y="276.01" style="fill-rule:evenodd;clip-rule:evenodd;" width="11.69" height="58.02"></rect>
		<rect x="1138.94" y="271.61" style="fill-rule:evenodd;clip-rule:evenodd;" width="16.73" height="320.01"></rect>
		<polygon style="fill-rule:evenodd;clip-rule:evenodd;" points="900.58,296.14 1151.66,296.14 1151.66,274.79 900.58,274.79 
			900.58,289.31 900.58,296.14 		"></polygon>
		<polygon style="fill-rule:evenodd;clip-rule:evenodd;" points="869.07,607.64 869.07,600.02 869.07,587.33 754.36,587.33 
			754.36,607.64 		"></polygon>
		<polygon style="fill-rule:evenodd;clip-rule:evenodd;" points="512.63,780.18 512.63,659.55 496.72,659.55 496.72,668.48 
			496.72,780.18 		"></polygon>
		<polygon style="fill-rule:evenodd;clip-rule:evenodd;" points="189.83,660.77 189.83,677.36 500.85,677.36 500.68,660.77 
			198.39,660.77 189.83,660.77 		"></polygon>
		<polygon style="fill-rule:evenodd;clip-rule:evenodd;" points="186.58,828.31 206.93,828.31 206.93,660.77 186.58,660.95 
			186.58,771.06 186.58,828.31 		"></polygon>
		<polygon style="fill-rule:evenodd;clip-rule:evenodd;" points="186.62,964.04 186.62,974.67 198.39,974.67 198.39,826.7 
			186.62,826.7 186.62,932.32 186.62,964.04 		"></polygon>
		<polygon style="fill-rule:evenodd;clip-rule:evenodd;" points="135.77,961.08 135.77,974.54 246.48,974.53 246.47,961.07 
			165.05,961.07 135.77,961.08 		"></polygon>
		<polygon style="fill-rule:evenodd;clip-rule:evenodd;" points="244.63,958.11 244.63,974.67 506.65,974.67 506.47,954.13 
			244.63,954.13 244.63,958.11 		"></polygon>
		<rect x="496.67" y="917.2" style="fill-rule:evenodd;clip-rule:evenodd;" width="16.05" height="57.47"></rect>
		<polygon style="fill-rule:evenodd;clip-rule:evenodd;" points="500.55,974.74 523.51,974.74 523.51,961.04 500.55,961.04 
			500.55,974.74 		"></polygon>
		<polygon style="fill-rule:evenodd;clip-rule:evenodd;" points="99.91,1254.61 99.91,1628.04 137.59,1628.04 137.59,849 99.91,849 
			99.91,1141.83 99.91,1254.61 		"></polygon>
		<polyline style="fill-rule:evenodd;clip-rule:evenodd;" points="99.91,1638.92 287.45,1638.92 287.45,1591.32 99.91,1591.32 		"></polyline>
		<rect x="757.58" y="275.06" style="fill-rule:evenodd;clip-rule:evenodd;" width="143.01" height="12.73"></rect>
		<polygon style="fill-rule:evenodd;clip-rule:evenodd;" points="1154.91,277.6 1154.91,490.06 1189.17,490.06 1189.17,241.72 
			1154.91,241.72 1154.91,275.97 1154.91,277.6 		"></polygon>
		<polygon style="fill-rule:evenodd;clip-rule:evenodd;" points="478.41,363.49 478.41,399.29 512.66,399.29 512.66,277.69 
			478.41,277.69 478.41,306.8 478.41,363.49 		"></polygon>
		<rect x="1733.96" y="1432.02" style="fill-rule:evenodd;clip-rule:evenodd;" width="46.55" height="207.21"></rect>
		<polyline style="fill-rule:evenodd;clip-rule:evenodd;" points="1625.9,1639.23 1768.05,1639.23 1768.05,1591.23 1625.9,1591.23 
					"></polyline>
	</g>
</g>
</svg>
