<?xml version="1.0" encoding="utf-8"?>
<!-- Generator: Adobe Illustrator 24.1.2, SVG Export Plug-In . SVG Version: 6.00 Build 0)  -->
<svg version="1.0" id="Layer_1" xmlns="http://www.w3.org/2000/svg" xmlns:xlink="http://www.w3.org/1999/xlink" x="0px" y="0px" width="2000px" height="2000px" viewBox="0 0 2000 2000" style="enable-background:new 0 0 2000 2000;" xml:space="preserve">
<path id="background" style="fill:#FFFFFF;" d="M1900,328.97v1442.38v54.41h-51.21h-65.23c0,0.28-0.22,0.5-0.5,0.5h-356.8
	c-0.28,0-0.5-0.22-0.5-0.5h-292.41c0,0.28-0.22,0.5-0.5,0.5h-356.8c-0.28,0-0.5-0.22-0.5-0.5H601.3c-0.03,0.24-0.23,0.44-0.49,0.44
	H244.53c-0.25,0-0.45-0.19-0.49-0.44h-88.9H100v-54.41V374.26v-45.3h55.14h151.65v26.83h8.18V174.24c0-0.28,0.22-0.5,0.5-0.5
	c99.75,0,180.93,81.62,181.2,182.05h10.27v-26.83h1341.85h49.32H1900z"></path>
<g id="s1">
	<path id="s1_path" style="fill:none;" d="M1836.97,807.51h-363.03l3.4-444.32h363.03L1836.97,807.51z"></path>
	<text id="s1_text" transform="matrix(1 0 0 1 1586.7852 702.951)" style="font-family: GraphikLCG-Regular; font-size: 40px; text-anchor: middle; text-align: center;"></text>
</g>
<g id="s2">
	<path id="s2_path" style="fill:none;" d="M1038.11,738.91H535.82V355.79h502.29V738.91z"></path>
	<text id="s2_text" transform="matrix(1 0 0 1 658.4879 610.8611)" style="font-family: GraphikLCG-Regular; font-size: 40px; text-anchor: middle; text-align: center;"></text>
</g>
<g id="r1">
	<path id="r1_path" style="fill:none;" d="M1292.59,1096.27l584.01-0.2v698.07l-584.01,0.5V1096.27z"></path>
	
		<text id="r1_text" transform="matrix(1 0 0 1 1581.0566 1217.1971)" style="font-family: GraphikLCG-Regular; font-size: 40px; text-anchor: middle; text-align: center;"></text>
</g>
<g id="r2">
	<path id="r2_path" style="fill:none;" d="M734.17,974.76l555.96-0.2l3.11,820.61l-555.96,0.5L734.17,974.76z"></path>
	<text id="r2_text" transform="matrix(1 0 0 1 921.3609 1313.8456)" style="font-family: GraphikLCG-Regular; font-size: 40px; text-anchor: middle; text-align: center;"></text>
</g>
<g id="h1">
	<path id="h1_path" style="fill:none;" d="M1293.49,743.05l0.01,231.54l-560.22-0.01V743.05H1293.49z"></path>
	<text id="h1_text" transform="matrix(1 0 0 1 1029.1538 878.7401)" style="font-family: GraphikLCG-Regular; font-size: 40px; text-anchor: middle; text-align: center;"></text>
</g>
<g id="h2">
	<path id="h2_path" style="fill:none;" d="M535.82,365.28l0.01,376.88l-398.43-0.01V365.28H535.82z"></path>
	<text id="h2_text" transform="matrix(1 0 0 1 360.9131 490.5018)" style="font-family: GraphikLCG-Regular; font-size: 40px; text-anchor: middle; text-align: center;"></text>
</g>
<g id="g1">
	<path id="g1_path" style="fill:none;" d="M1475.86,742.16h-428.55V352.93h428.55V742.16z"></path>
	<text id="g1_text" transform="matrix(1 0 0 1 1240.583 585.3436)" style="font-family: GraphikLCG-Regular; font-size: 40px; text-anchor: middle; text-align: center;"></text>
</g>
<g id="c1">
	<path id="c1_path" style="fill:none;" d="M733.28,1795.96H133.79V742.16h599.49V1795.96z"></path>
	<text id="c1_text" transform="matrix(1 0 0 1 455.0342 1323.2655)" style="font-family: GraphikLCG-Regular; font-size: 40px; text-anchor: middle; text-align: center;"></text>
</g>
<g id="g2">
	<path id="g2_path" style="fill:none;" d="M1864.91,1096.07h-571.42V743.05h183.57l0.48,64.7h387.37V1096.07z"></path>
	<text id="g2_text" transform="matrix(1 0 0 1 1428.9229 965.2986)" style="font-family: GraphikLCG-Regular; font-size: 40px; text-anchor: middle; text-align: center;"></text>
</g>
<path id="u3" style="fill:#FFFFFF;stroke:#FFFFFF;stroke-linecap:round;stroke-linejoin:round;stroke-miterlimit:10;" d="
	M1134.38,541.47c0,6.55-5.31,11.85-11.85,11.85s-11.85-5.31-11.85-11.85s5.31-11.85,11.85-11.85S1134.38,534.92,1134.38,541.47z"></path>
<path id="u7" style="fill:#FFFFFF;stroke:#FFFFFF;stroke-linecap:round;stroke-linejoin:round;stroke-miterlimit:10;" d="
	M502.73,853.35c0,6.55-5.31,11.85-11.85,11.85c-6.55,0-11.85-5.31-11.85-11.85s5.31-11.85,11.85-11.85
	C497.43,841.5,502.73,846.81,502.73,853.35z"></path>
<path id="u1" style="fill:#FFFFFF;stroke:#FFFFFF;stroke-linecap:round;stroke-linejoin:round;stroke-miterlimit:10;" d="
	M1576.65,1703.83c0,6.55-5.31,11.85-11.85,11.85s-11.85-5.31-11.85-11.85s5.31-11.85,11.85-11.85S1576.65,1697.28,1576.65,1703.83z"></path>
<path id="u9" style="fill:#FFFFFF;stroke:#FFFFFF;stroke-linecap:round;stroke-linejoin:round;stroke-miterlimit:10;" d="
	M613.78,670.05c0,6.55-5.31,11.85-11.85,11.85s-11.85-5.31-11.85-11.85s5.31-11.85,11.85-11.85S613.78,663.5,613.78,670.05z"></path>
<g id="mebel">
	<g>
		<g>
			
				<rect x="1007.02" y="982.43" style="fill:none;stroke:#000000;stroke-linecap:round;stroke-linejoin:round;stroke-miterlimit:10;" width="278.6" height="116.51"></rect>
			
				<line style="fill:none;stroke:#000000;stroke-linecap:round;stroke-linejoin:round;stroke-miterlimit:10;" x1="1285.61" y1="1092.32" x2="1007.03" y2="1092.39"></line>
		</g>
		
			<line style="fill:none;stroke:#000000;stroke-linecap:round;stroke-linejoin:round;stroke-miterlimit:10;" x1="1099.46" y1="1098.94" x2="1099.46" y2="982.63"></line>
		
			<line style="fill:none;stroke:#000000;stroke-linecap:round;stroke-linejoin:round;stroke-miterlimit:10;" x1="1191.91" y1="1098.94" x2="1191.91" y2="982.43"></line>
	</g>
	<g>
		<g>
			
				<rect x="155.06" y="374.26" style="fill:none;stroke:#000000;stroke-linecap:round;stroke-linejoin:round;stroke-miterlimit:10;" width="116.51" height="302.41"></rect>
			
				<line style="fill:none;stroke:#000000;stroke-linecap:round;stroke-linejoin:round;stroke-miterlimit:10;" x1="264.95" y1="374.27" x2="265.02" y2="676.66"></line>
		</g>
		
			<line style="fill:none;stroke:#000000;stroke-linecap:round;stroke-linejoin:round;stroke-miterlimit:10;" x1="271.57" y1="576.33" x2="155.26" y2="576.33"></line>
		
			<line style="fill:none;stroke:#000000;stroke-linecap:round;stroke-linejoin:round;stroke-miterlimit:10;" x1="271.57" y1="475.98" x2="155.06" y2="475.98"></line>
	</g>
	<g>
		<polygon style="fill:none;stroke:#000000;stroke-linecap:round;stroke-linejoin:round;stroke-miterlimit:10;" points="
			273.23,868.2 273.23,955.88 155.78,955.88 155.77,868.2 		"></polygon>
		<path style="fill:none;stroke:#000000;stroke-linecap:round;stroke-linejoin:round;stroke-miterlimit:10;" d="M189.47,912.04
			l28.51,10.98c1.75,0.6,3.66,0.93,5.68,0.93c8.09,0,14.65-5.33,14.65-11.91c0-6.58-6.56-11.91-14.65-11.91
			c-2.01,0-3.93,0.33-5.68,0.93L189.47,912.04z"></path>
	</g>
	<g>
		<polygon style="fill:none;stroke:#000000;stroke-linecap:round;stroke-linejoin:round;stroke-miterlimit:10;" points="
			273.31,1151.89 273.31,1269.93 155.29,1269.93 155.27,1151.89 		"></polygon>
		<g>
			
				<line style="fill:none;stroke:#000000;stroke-linecap:round;stroke-linejoin:round;stroke-miterlimit:10;" x1="185.88" y1="1210.91" x2="242.71" y2="1210.91"></line>
			
				<line style="fill:none;stroke:#000000;stroke-linecap:round;stroke-linejoin:round;stroke-miterlimit:10;" x1="214.29" y1="1182.49" x2="214.29" y2="1239.32"></line>
			<polyline style="fill:none;stroke:#000000;stroke-linecap:round;stroke-linejoin:round;stroke-miterlimit:10;" points="
				192.19,1196.7 200.09,1210.91 192.19,1225.11 			"></polyline>
			<polyline style="fill:none;stroke:#000000;stroke-linecap:round;stroke-linejoin:round;stroke-miterlimit:10;" points="
				200.09,1233.01 214.29,1225.11 228.5,1233.01 			"></polyline>
			<polyline style="fill:none;stroke:#000000;stroke-linecap:round;stroke-linejoin:round;stroke-miterlimit:10;" points="
				236.39,1225.11 228.5,1210.91 236.39,1196.7 			"></polyline>
			<polyline style="fill:none;stroke:#000000;stroke-linecap:round;stroke-linejoin:round;stroke-miterlimit:10;" points="
				228.5,1188.81 214.29,1196.7 200.09,1188.81 			"></polyline>
		</g>
	</g>
	<g>
		<g>
			<g>
				<path style="fill:none;stroke:#000000;stroke-linecap:round;stroke-linejoin:round;stroke-miterlimit:10;" d="M490.69,989.89
					l-21.56-16.71c-13.49-10.46-32.68-9.1-44.56,3.14l-1.35,1.39c-11.88,12.24-12.66,31.44-1.83,44.61l17.35,21.09L490.69,989.89z"></path>
				<path style="fill:none;stroke:#000000;stroke-linecap:round;stroke-linejoin:round;stroke-miterlimit:10;" d="M417.65,1033.03
					l-3.83-4.65c-13.87-16.86-12.87-41.46,2.34-57.13l1.73-1.78c15.22-15.68,39.8-17.42,57.07-4.03l4.73,3.66
					c2.28,1.77,2.52,5.13,0.51,7.21l0,0c-1.72,1.77-4.5,1.97-6.45,0.45l-4.62-3.58c-13.49-10.46-32.68-9.1-44.56,3.14l-1.35,1.39
					c-11.88,12.24-12.66,31.44-1.83,44.61l3.74,4.54c1.57,1.9,1.45,4.68-0.26,6.45l0,0
					C422.85,1035.39,419.48,1035.26,417.65,1033.03z"></path>
			</g>
			<g>
				<path style="fill:none;stroke:#000000;stroke-linecap:round;stroke-linejoin:round;stroke-miterlimit:10;" d="M557.54,1158.67
					l21.56,16.71c13.49,10.46,32.68,9.1,44.56-3.15l1.35-1.39c11.88-12.24,12.66-31.44,1.83-44.61l-17.35-21.09L557.54,1158.67z"></path>
				<path style="fill:none;stroke:#000000;stroke-linecap:round;stroke-linejoin:round;stroke-miterlimit:10;" d="M630.58,1115.53
					l3.83,4.65c13.88,16.86,12.87,41.46-2.34,57.13l-1.73,1.78c-15.22,15.68-39.8,17.42-57.07,4.03l-4.73-3.66
					c-2.28-1.77-2.52-5.13-0.51-7.21l0,0c1.72-1.77,4.5-1.97,6.45-0.46l4.62,3.58c13.49,10.46,32.68,9.1,44.56-3.15l1.35-1.39
					c11.88-12.24,12.66-31.44,1.83-44.61l-3.74-4.54c-1.57-1.9-1.45-4.68,0.26-6.45l0,0
					C625.38,1113.16,628.74,1113.3,630.58,1115.53z"></path>
			</g>
			<g>
				<path style="fill:none;stroke:#000000;stroke-linecap:round;stroke-linejoin:round;stroke-miterlimit:10;" d="M608.5,1040.86
					l16.71-21.56c10.46-13.49,9.1-32.68-3.14-44.56l-1.39-1.35c-12.24-11.88-31.44-12.66-44.61-1.83l-21.09,17.35L608.5,1040.86z"></path>
				<path style="fill:none;stroke:#000000;stroke-linecap:round;stroke-linejoin:round;stroke-miterlimit:10;" d="M565.37,967.81
					l4.65-3.83c16.86-13.87,41.46-12.87,57.13,2.34l1.78,1.73c15.68,15.22,17.42,39.8,4.03,57.07l-3.66,4.73
					c-1.77,2.28-5.13,2.52-7.21,0.51l0,0c-1.77-1.72-1.97-4.5-0.45-6.45l3.58-4.62c10.46-13.49,9.1-32.68-3.14-44.56l-1.39-1.35
					c-12.24-11.88-31.44-12.66-44.61-1.83l-4.54,3.74c-1.9,1.57-4.68,1.45-6.45-0.26l0,0C563,973.02,563.14,969.65,565.37,967.81z"></path>
			</g>
			<g>
				<path style="fill:none;stroke:#000000;stroke-linecap:round;stroke-linejoin:round;stroke-miterlimit:10;" d="M439.73,1107.7
					l-16.71,21.56c-10.46,13.49-9.1,32.68,3.15,44.56l1.39,1.35c12.24,11.88,31.44,12.66,44.61,1.83l21.09-17.35L439.73,1107.7z"></path>
				<path style="fill:none;stroke:#000000;stroke-linecap:round;stroke-linejoin:round;stroke-miterlimit:10;" d="M482.86,1180.74
					l-4.65,3.83c-16.86,13.88-41.46,12.87-57.13-2.34l-1.78-1.73c-15.68-15.22-17.42-39.8-4.03-57.07l3.66-4.73
					c1.77-2.28,5.13-2.52,7.21-0.51l0,0c1.77,1.72,1.97,4.5,0.46,6.45l-3.58,4.62c-10.46,13.49-9.1,32.68,3.15,44.56l1.39,1.35
					c12.24,11.88,31.44,12.66,44.61,1.83l4.54-3.74c1.9-1.57,4.68-1.45,6.45,0.26l0,0C485.23,1175.54,485.09,1178.91,482.86,1180.74
					z"></path>
			</g>
			
				<circle style="fill:#FFFFFF;stroke:#000000;stroke-linecap:round;stroke-linejoin:round;stroke-miterlimit:10;" cx="524.45" cy="1074.6" r="91.33"></circle>
		</g>
		<g>
			<g>
				
					<circle style="fill:none;stroke:#000000;stroke-linecap:round;stroke-linejoin:round;stroke-miterlimit:10;" cx="570.67" cy="1112.63" r="16.64"></circle>
			</g>
			<g>
				
					<circle style="fill:none;stroke:#000000;stroke-linecap:round;stroke-linejoin:round;stroke-miterlimit:10;" cx="570.67" cy="1112.63" r="9.47"></circle>
			</g>
			<g>
				
					<ellipse transform="matrix(0.6946 -0.7194 0.7194 0.6946 -646.9221 734.1061)" style="fill:none;stroke:#000000;stroke-linecap:round;stroke-linejoin:round;stroke-miterlimit:10;" cx="541.08" cy="1128.92" rx="2.58" ry="4.19"></ellipse>
				
					<line style="fill:none;stroke:#000000;stroke-linecap:round;stroke-linejoin:round;stroke-miterlimit:10;" x1="544.1" y1="1131.83" x2="557.28" y2="1144.56"></line>
			</g>
			<g>
				<path style="fill:none;stroke:#000000;stroke-linecap:round;stroke-linejoin:round;stroke-miterlimit:10;" d="M579.34,1083.26
					l3.01,2.91c1.66,1.61,2.21,3.74,1.22,4.76s-3.14,0.55-4.8-1.05l-3.01-2.91"></path>
				
					<line style="fill:none;stroke:#000000;stroke-linecap:round;stroke-linejoin:round;stroke-miterlimit:10;" x1="583.58" y1="1090.94" x2="596.76" y2="1103.66"></line>
			</g>
			
				<line style="fill:none;stroke:#000000;stroke-linecap:round;stroke-linejoin:round;stroke-miterlimit:10;" x1="577.55" y1="1085.12" x2="583.58" y2="1090.94"></line>
			<g>
				<path style="fill:none;stroke:#000000;stroke-linecap:round;stroke-linejoin:round;stroke-miterlimit:10;" d="M553.63,1132.21
					l2.78-2.88l-11.15-10.76l0,0c-1.53,1.59-1.49,4.12,0.1,5.66L553.63,1132.21z"></path>
				<path style="fill:none;stroke:#000000;stroke-linecap:round;stroke-linejoin:round;stroke-miterlimit:10;" d="M563.08,1138.55
					L563.08,1138.55c0.77-0.79,0.75-2.06-0.05-2.83l-6.62-6.39l-2.78,2.88l6.62,6.39C561.05,1139.37,562.31,1139.35,563.08,1138.55z
					"></path>
			</g>
		</g>
		<g>
			<g>
				
					<circle style="fill:none;stroke:#000000;stroke-linecap:round;stroke-linejoin:round;stroke-miterlimit:10;" cx="477.5" cy="1033.2" r="16.64"></circle>
			</g>
			<g>
				
					<circle style="fill:none;stroke:#000000;stroke-linecap:round;stroke-linejoin:round;stroke-miterlimit:10;" cx="477.5" cy="1033.2" r="9.47"></circle>
			</g>
			<g>
				
					<ellipse transform="matrix(0.6945 -0.7195 0.7195 0.6945 -576.7288 675.4554)" style="fill:none;stroke:#000000;stroke-linecap:round;stroke-linejoin:round;stroke-miterlimit:10;" cx="507.08" cy="1016.91" rx="2.58" ry="4.19"></ellipse>
				
					<line style="fill:none;stroke:#000000;stroke-linecap:round;stroke-linejoin:round;stroke-miterlimit:10;" x1="504.07" y1="1014" x2="490.88" y2="1001.27"></line>
			</g>
			<g>
				<path style="fill:none;stroke:#000000;stroke-linecap:round;stroke-linejoin:round;stroke-miterlimit:10;" d="M468.83,1062.57
					l-3.01-2.91c-1.66-1.61-2.21-3.74-1.22-4.76c0.99-1.02,3.14-0.55,4.8,1.05l3.01,2.91"></path>
				
					<line style="fill:none;stroke:#000000;stroke-linecap:round;stroke-linejoin:round;stroke-miterlimit:10;" x1="464.59" y1="1054.9" x2="451.4" y2="1042.17"></line>
			</g>
			
				<line style="fill:none;stroke:#000000;stroke-linecap:round;stroke-linejoin:round;stroke-miterlimit:10;" x1="470.62" y1="1060.71" x2="464.59" y2="1054.9"></line>
			<g>
				<path style="fill:none;stroke:#000000;stroke-linecap:round;stroke-linejoin:round;stroke-miterlimit:10;" d="M494.53,1013.62
					l-2.78,2.88l11.15,10.76h0c1.53-1.59,1.49-4.12-0.1-5.66L494.53,1013.62z"></path>
				<path style="fill:none;stroke:#000000;stroke-linecap:round;stroke-linejoin:round;stroke-miterlimit:10;" d="M485.08,1007.28
					L485.08,1007.28c-0.77,0.79-0.75,2.06,0.05,2.83l6.62,6.39l2.78-2.88l-6.62-6.39C487.12,1006.46,485.85,1006.48,485.08,1007.28z
					"></path>
			</g>
		</g>
		<g>
			<g>
				
					<circle style="fill:none;stroke:#000000;stroke-linecap:round;stroke-linejoin:round;stroke-miterlimit:10;" cx="484.37" cy="1119.5" r="16.64"></circle>
			</g>
			<g>
				
					<circle style="fill:none;stroke:#000000;stroke-linecap:round;stroke-linejoin:round;stroke-miterlimit:10;" cx="484.37" cy="1119.5" r="9.47"></circle>
			</g>
			<g>
				
					<ellipse transform="matrix(0.6946 -0.7194 0.7194 0.6946 -641.1597 669.6669)" style="fill:none;stroke:#000000;stroke-linecap:round;stroke-linejoin:round;stroke-miterlimit:10;" cx="468.08" cy="1089.92" rx="4.19" ry="2.58"></ellipse>
				
					<line style="fill:none;stroke:#000000;stroke-linecap:round;stroke-linejoin:round;stroke-miterlimit:10;" x1="465.17" y1="1092.93" x2="452.44" y2="1106.11"></line>
			</g>
			<g>
				<path style="fill:none;stroke:#000000;stroke-linecap:round;stroke-linejoin:round;stroke-miterlimit:10;" d="M513.73,1128.17
					l-2.91,3.01c-1.61,1.66-3.74,2.21-4.76,1.22s-0.55-3.14,1.05-4.8l2.91-3.01"></path>
				
					<line style="fill:none;stroke:#000000;stroke-linecap:round;stroke-linejoin:round;stroke-miterlimit:10;" x1="506.06" y1="1132.41" x2="493.33" y2="1145.59"></line>
			</g>
			
				<line style="fill:none;stroke:#000000;stroke-linecap:round;stroke-linejoin:round;stroke-miterlimit:10;" x1="511.88" y1="1126.38" x2="506.06" y2="1132.41"></line>
			<g>
				<path style="fill:none;stroke:#000000;stroke-linecap:round;stroke-linejoin:round;stroke-miterlimit:10;" d="M464.79,1102.46
					l2.88,2.78l10.76-11.15l0,0c-1.59-1.53-4.12-1.49-5.66,0.1L464.79,1102.46z"></path>
				<path style="fill:none;stroke:#000000;stroke-linecap:round;stroke-linejoin:round;stroke-miterlimit:10;" d="M458.45,1111.91
					L458.45,1111.91c0.79,0.77,2.06,0.75,2.83-0.05l6.39-6.62l-2.88-2.78l-6.39,6.62C457.63,1109.88,457.65,1111.15,458.45,1111.91z
					"></path>
			</g>
		</g>
		<g>
			<g>
				
					<circle style="fill:none;stroke:#000000;stroke-linecap:round;stroke-linejoin:round;stroke-miterlimit:10;" cx="563.8" cy="1026.33" r="16.64"></circle>
			</g>
			<g>
				
					<circle style="fill:none;stroke:#000000;stroke-linecap:round;stroke-linejoin:round;stroke-miterlimit:10;" cx="563.8" cy="1026.33" r="9.47"></circle>
			</g>
			<g>
				
					<ellipse transform="matrix(0.6945 -0.7195 0.7195 0.6945 -582.4901 739.8973)" style="fill:none;stroke:#000000;stroke-linecap:round;stroke-linejoin:round;stroke-miterlimit:10;" cx="580.09" cy="1055.91" rx="4.19" ry="2.58"></ellipse>
				
					<line style="fill:none;stroke:#000000;stroke-linecap:round;stroke-linejoin:round;stroke-miterlimit:10;" x1="583" y1="1052.9" x2="595.73" y2="1039.72"></line>
			</g>
			<g>
				<path style="fill:none;stroke:#000000;stroke-linecap:round;stroke-linejoin:round;stroke-miterlimit:10;" d="M534.43,1017.66
					l2.91-3.01c1.61-1.66,3.74-2.21,4.76-1.22s0.55,3.14-1.05,4.8l-2.91,3.01"></path>
				
					<line style="fill:none;stroke:#000000;stroke-linecap:round;stroke-linejoin:round;stroke-miterlimit:10;" x1="542.1" y1="1013.42" x2="554.83" y2="1000.24"></line>
			</g>
			
				<line style="fill:none;stroke:#000000;stroke-linecap:round;stroke-linejoin:round;stroke-miterlimit:10;" x1="536.29" y1="1019.45" x2="542.1" y2="1013.42"></line>
			<g>
				<path style="fill:none;stroke:#000000;stroke-linecap:round;stroke-linejoin:round;stroke-miterlimit:10;" d="M583.38,1043.37
					l-2.88-2.78l-10.76,11.15v0c1.59,1.53,4.12,1.49,5.66-0.1L583.38,1043.37z"></path>
				<path style="fill:none;stroke:#000000;stroke-linecap:round;stroke-linejoin:round;stroke-miterlimit:10;" d="M589.72,1033.92
					L589.72,1033.92c-0.79-0.77-2.06-0.75-2.83,0.05l-6.39,6.62l2.88,2.78l6.39-6.62C590.54,1035.95,590.51,1034.68,589.72,1033.92z
					"></path>
			</g>
		</g>
	</g>
	<g>
		<g>
			<path style="fill:none;stroke:#000000;stroke-linecap:round;stroke-linejoin:round;stroke-miterlimit:10;" d="M193.46,1534.62
				v171.84c0,2.09,1.7,3.79,3.79,3.79h120.32c2.09,0,3.79-1.7,3.79-3.79v-171.84c0-2.09-1.7-3.79-3.79-3.79H197.26
				C195.16,1530.83,193.46,1532.52,193.46,1534.62z"></path>
			<path style="fill:none;stroke:#000000;stroke-linecap:round;stroke-linejoin:round;stroke-miterlimit:10;" d="M193.46,1534.62
				v171.84c0,2.09-1.7,3.79-3.79,3.79h-32.62c-2.09,0-3.79-1.7-3.79-3.79v-171.84c0-2.09,1.7-3.79,3.79-3.79h32.62
				C191.77,1530.83,193.46,1532.52,193.46,1534.62z"></path>
			<path style="fill:none;stroke:#000000;stroke-linecap:round;stroke-linejoin:round;stroke-miterlimit:10;" d="M193.46,1527.03
				v-171.38c0-2.09,1.7-3.79,3.79-3.79h120.32c2.09,0,3.79,1.7,3.79,3.79v171.38c0,2.09-1.7,3.79-3.79,3.79H197.26
				C195.16,1530.83,193.46,1529.13,193.46,1527.03z"></path>
			<path style="fill:none;stroke:#000000;stroke-linecap:round;stroke-linejoin:round;stroke-miterlimit:10;" d="M193.46,1527.03
				v-171.38c0-2.09-1.7-3.79-3.79-3.79h-32.62c-2.09,0-3.79,1.7-3.79,3.79v171.38c0,2.09,1.7,3.79,3.79,3.79h32.62
				C191.77,1530.83,193.46,1529.13,193.46,1527.03z"></path>
		</g>
		<g>
			<path style="fill:none;stroke:#000000;stroke-linecap:round;stroke-linejoin:round;stroke-miterlimit:10;" d="M269.36,1453.62
				c-10.37-6.4-21.69-11.12-33.53-13.99l-5.51-1.34c-2.46-0.6-3.63-3.43-2.3-5.59l2.98-4.83c5.04-8.18,9.4-16.74,13.07-25.59
				c-7.99-0.65-15.94-1.84-23.77-3.67l-0.02,0c-4.33-1.01-8.38,2.49-8.01,6.92l0,0.02c1.45,17,0.21,34.12-3.68,50.73l0,0.02
				c-1.01,4.33,2.49,8.38,6.92,8.01l0.02,0c17-1.45,34.12-0.21,50.73,3.68l0.02,0c4.33,1.01,8.38-2.49,8.01-6.92l0-0.02
				c-0.13-1.5-0.12-3-0.21-4.5L269.36,1453.62z"></path>
			<path style="fill:none;stroke:#000000;stroke-linecap:round;stroke-linejoin:round;stroke-miterlimit:10;" d="M305.84,1391.83
				l-2.98,4.83c-9.95,16.13-17.29,33.72-21.76,52.14l-1.34,5.51c-0.6,2.46-3.43,3.63-5.59,2.3l-4.83-2.98
				c-10.37-6.4-21.69-11.12-33.53-13.99l-5.51-1.34c-2.46-0.6-3.63-3.43-2.3-5.59l2.98-4.83c9.95-16.13,17.29-33.72,21.76-52.14
				l1.34-5.51c0.6-2.46,3.43-3.63,5.59-2.3l4.83,2.98c10.37,6.4,21.69,11.12,33.53,13.99l5.51,1.34
				C306.01,1386.84,307.18,1389.67,305.84,1391.83z"></path>
		</g>
		<g>
			<path style="fill:none;stroke:#000000;stroke-linecap:round;stroke-linejoin:round;stroke-miterlimit:10;" d="M258.44,1594.43
				l-0.02,0c-16.61,3.88-33.73,5.12-50.73,3.68l-0.02,0c-4.43-0.38-7.94,3.68-6.92,8.01l0,0.02c3.88,16.61,5.12,33.73,3.68,50.73
				l0,0.02c-0.38,4.43,3.68,7.94,8.01,6.92l0.02,0c7.83-1.83,15.78-3.02,23.77-3.67c-3.67-8.85-8.03-17.41-13.07-25.59l-2.98-4.83
				c-1.33-2.16-0.17-4.99,2.3-5.59l5.51-1.34c11.84-2.87,23.16-7.6,33.53-13.99l4.73-2.92c0.09-1.5,0.08-3,0.21-4.5l0-0.02
				C266.82,1596.93,262.76,1593.42,258.44,1594.43z"></path>
			<path style="fill:none;stroke:#000000;stroke-linecap:round;stroke-linejoin:round;stroke-miterlimit:10;" d="M297.99,1670.58
				l-2.98-4.83c-9.95-16.13-17.29-33.72-21.76-52.14l-1.34-5.51c-0.6-2.46-3.43-3.63-5.59-2.3l-4.83,2.98
				c-10.37,6.4-21.69,11.12-33.53,13.99l-5.51,1.34c-2.46,0.6-3.63,3.43-2.3,5.59l2.98,4.83c9.95,16.13,17.29,33.72,21.76,52.14
				l1.34,5.51c0.6,2.46,3.43,3.63,5.59,2.3l4.83-2.98c10.37-6.4,21.69-11.12,33.53-13.99l5.51-1.34
				C298.16,1675.57,299.32,1672.74,297.99,1670.58z"></path>
		</g>
	</g>
	<g>
		<path style="fill:none;stroke:#000000;stroke-linecap:round;stroke-linejoin:round;stroke-miterlimit:10;" d="M463.86,1459
			c-8.25,0-37.21,0-45.46,0c-8.44,0-12.75,7.27-14.16,16.3c-5.13,36.82-5.13,74.23,0,111.05c1.41,9.03,5.72,16.3,14.16,16.3
			c8.25,0,37.21,0,45.46,0c8.44,0,12.75-7.27,14.16-16.3c5.13-36.82,5.13-74.23,0-111.05C476.61,1466.27,472.3,1459,463.86,1459z"></path>
		<g>
			<polygon style="fill:none;stroke:#000000;stroke-linecap:round;stroke-linejoin:round;stroke-miterlimit:10;" points="
				457.78,1503.95 460.19,1499.51 426.61,1481.32 423.58,1486.91 420.54,1481.91 444.82,1467.13 464.67,1499.76 			"></polygon>
			
				<line style="fill:none;stroke:#000000;stroke-linecap:round;stroke-linejoin:round;stroke-miterlimit:10;" x1="456.49" y1="1506.33" x2="462.74" y2="1513.2"></line>
			
				<line style="fill:none;stroke:#000000;stroke-linecap:round;stroke-linejoin:round;stroke-miterlimit:10;" x1="442.92" y1="1468.29" x2="462.78" y2="1500.91"></line>
			<g>
				<polygon style="fill:none;stroke:#000000;stroke-linecap:round;stroke-linejoin:round;stroke-miterlimit:10;" points="
					446.65,1524.5 457.61,1504.26 464.38,1511.71 443.35,1530.83 428.82,1514.84 				"></polygon>
				<polygon style="fill:none;stroke:#000000;stroke-linecap:round;stroke-linejoin:round;stroke-miterlimit:10;" points="
					435.65,1486.22 438.7,1483.45 446.61,1492.15 				"></polygon>
			</g>
			
				<rect x="417.53" y="1488.7" transform="matrix(0.8793 0.4763 -0.4763 0.8793 768.5739 -26.5331)" style="fill:none;stroke:#000000;stroke-linecap:round;stroke-linejoin:round;stroke-miterlimit:10;" width="38.19" height="28.42"></rect>
			
				<line style="fill:none;stroke:#000000;stroke-linecap:round;stroke-linejoin:round;stroke-miterlimit:10;" x1="425.55" y1="1483.27" x2="459.13" y2="1501.46"></line>
		</g>
		<g>
			<path style="fill:none;stroke:#000000;stroke-linecap:round;stroke-linejoin:round;stroke-miterlimit:10;" d="M443.06,1558.87
				l-2.09-3.89c-1.06-1.98-3.53-2.72-5.51-1.66l-4.78,2.56c-1.98,1.06-2.72,3.53-1.66,5.51l2.09,3.89c0.65,1.21,2.16,1.67,3.37,1.02
				l7.56-4.05C443.25,1561.59,443.71,1560.08,443.06,1558.87z"></path>
			
				<line style="fill:none;stroke:#000000;stroke-linecap:round;stroke-linejoin:round;stroke-miterlimit:10;" x1="441.64" y1="1556.23" x2="429.69" y2="1562.64"></line>
			<path style="fill:none;stroke:#000000;stroke-linecap:round;stroke-linejoin:round;stroke-miterlimit:10;" d="M448.01,1562.36
				l4.37,0.65c2.22,0.33,3.75,2.4,3.42,4.63l-0.8,5.36c-0.33,2.22-2.4,3.75-4.63,3.42l-4.37-0.65c-1.36-0.2-2.3-1.47-2.09-2.83
				l1.27-8.49C445.39,1563.1,446.65,1562.16,448.01,1562.36z"></path>
			
				<line style="fill:none;stroke:#000000;stroke-linecap:round;stroke-linejoin:round;stroke-miterlimit:10;" x1="450.98" y1="1562.81" x2="448.97" y2="1576.22"></line>
			<path style="fill:none;stroke:#000000;stroke-linecap:round;stroke-linejoin:round;stroke-miterlimit:10;" d="M447.79,1579.37
				c0.51-1,0.88-2.04,1.11-3.11"></path>
			<path style="fill:none;stroke:#000000;stroke-linecap:round;stroke-linejoin:round;stroke-miterlimit:10;" d="M429.72,1562.69
				c-0.95,0.58-1.83,1.3-2.62,2.14"></path>
			<g>
				<path style="fill:none;stroke:#000000;stroke-linecap:round;stroke-linejoin:round;stroke-miterlimit:10;" d="M447.9,1579.43
					c-0.82-0.57-1.94-0.38-2.52,0.44c-3.48,4.94-10.33,6.13-15.27,2.65c-4.94-3.48-6.13-10.33-2.65-15.27
					c0.57-0.82,0.38-1.94-0.44-2.52c-0.82-0.57-1.94-0.38-2.52,0.44c-4.63,6.57-3.05,15.68,3.52,20.3s15.68,3.05,20.3-3.52
					C448.91,1581.13,448.72,1580,447.9,1579.43z"></path>
			</g>
		</g>
	</g>
	<g>
		<g>
			<g>
				<g>
					
						<rect x="1674.64" y="1469.46" transform="matrix(1.918426e-05 1 -1 1.918426e-05 3318.9099 -366.3057)" style="fill:none;stroke:#000000;stroke-linecap:round;stroke-linejoin:round;stroke-miterlimit:10;" width="335.94" height="13.76"></rect>
					
						<rect x="1471.09" y="1279.67" transform="matrix(1.918426e-05 1 -1 1.918426e-05 3115.3728 -162.7557)" style="fill:none;stroke:#000000;stroke-linecap:round;stroke-linejoin:round;stroke-miterlimit:10;" width="335.94" height="393.34"></rect>
					<path style="fill:none;stroke:#000000;stroke-linecap:round;stroke-linejoin:round;stroke-miterlimit:10;" d="M1764.98,1470.02
						l0,12.64l33.87,0c10.13,0,18.34,8.89,18.34,19.87l0,94.37c0,10.97-8.21,19.87-18.34,19.87l-33.87,0l0,12.64l59.29,0
						c2.53,0,4.59-2.22,4.59-4.97l-0.01-296.21c0-2.74-2.05-4.97-4.59-4.97l-59.29,0l0,12.64l33.87,0
						c10.13,0,18.34,8.89,18.34,19.87l0,94.37c0,10.97-8.21,19.87-18.34,19.87L1764.98,1470.02z"></path>
					<path style="fill:none;stroke:#000000;stroke-linecap:round;stroke-linejoin:round;stroke-miterlimit:10;" d="M1453.86,1326.02
						l0.01,300.64c0,1.52,1.23,2.75,2.75,2.75l308.36-0.01l-0.01-306.14l-308.36,0.01
						C1455.09,1323.27,1453.86,1324.5,1453.86,1326.02z"></path>
				</g>
			</g>
			
				<rect x="1756.44" y="1644.31" style="fill:none;stroke:#000000;stroke-linecap:round;stroke-linejoin:round;stroke-miterlimit:10;" width="93.05" height="84.04"></rect>
			
				<rect x="1756.44" y="1224.32" style="fill:none;stroke:#000000;stroke-linecap:round;stroke-linejoin:round;stroke-miterlimit:10;" width="93.05" height="84.04"></rect>
		</g>
		<g>
			
				<ellipse style="fill:none;stroke:#000000;stroke-linecap:round;stroke-linejoin:round;stroke-miterlimit:10;" cx="1785.93" cy="1265.34" rx="6.71" ry="6.8"></ellipse>
			
				<ellipse style="fill:none;stroke:#000000;stroke-linecap:round;stroke-linejoin:round;stroke-miterlimit:10;" cx="1785.93" cy="1265.34" rx="4.74" ry="4.81"></ellipse>
			
				<line style="fill:none;stroke:#000000;stroke-linecap:round;stroke-linejoin:round;stroke-miterlimit:10;" x1="1792.15" y1="1263.91" x2="1796.75" y2="1262.85"></line>
			<path style="fill:none;stroke:#000000;stroke-linecap:round;stroke-linejoin:round;stroke-miterlimit:10;" d="M1792.22,1249.22
				c4.9,1.96,8.33,5.98,9.88,10.67l-4.09,0.95c-0.9,0.21-1.46,1.12-1.25,2.03c0.13,0.56,0.52,1,1.01,1.19
				c0.3,0.12,0.64,0.15,0.98,0.08l4.09-0.95c0.35,2.8,0.11,5.72-0.99,8.53c-3.47,8.9-13.42,13.27-22.21,9.75
				c-8.79-3.52-13.1-13.59-9.63-22.49C1773.49,1250.06,1783.43,1245.7,1792.22,1249.22z"></path>
			<g>
				<polygon style="fill:none;stroke:#000000;stroke-linecap:round;stroke-linejoin:round;stroke-miterlimit:10;" points="
					1826.99,1254.12 1826.25,1250.82 1832.03,1249.48 1832.78,1252.77 				"></polygon>
				<polygon style="fill:none;stroke:#000000;stroke-linecap:round;stroke-linejoin:round;stroke-miterlimit:10;" points="
					1833.52,1256.07 1834.26,1259.36 1828.48,1260.7 1827.73,1257.41 				"></polygon>
			</g>
			<g>
				<path style="fill:none;stroke:#000000;stroke-linecap:round;stroke-linejoin:round;stroke-miterlimit:10;" d="M1814.55,1257
					c-0.11-1.63,0.09-3.3,0.72-4.92c2.26-5.8,8.75-8.65,14.48-6.36c2.97,1.19,5.13,3.53,6.23,6.31L1814.55,1257z"></path>
				<path style="fill:none;stroke:#000000;stroke-linecap:round;stroke-linejoin:round;stroke-miterlimit:10;" d="M1836.73,1255.33
					c0.14,1.67-0.05,3.39-0.7,5.06c-2.26,5.8-8.75,8.65-14.48,6.36c-3.01-1.21-5.19-3.61-6.27-6.44L1836.73,1255.33z"></path>
			</g>
			<g>
				<path style="fill:none;stroke:#000000;stroke-linecap:round;stroke-linejoin:round;stroke-miterlimit:10;" d="M1797.77,1264.06
					c0.3,0.12,0.64,0.15,0.98,0.08l43.5-10.09c0.9-0.21,1.46-1.11,1.25-2.03c-0.2-0.91-1.1-1.48-2-1.27l-43.5,10.09
					c-0.9,0.21-1.46,1.12-1.25,2.03C1796.88,1263.42,1797.27,1263.86,1797.77,1264.06z"></path>
			</g>
		</g>
		<g>
			
				<ellipse style="fill:none;stroke:#000000;stroke-linecap:round;stroke-linejoin:round;stroke-miterlimit:10;" cx="1791.31" cy="1681.59" rx="6.71" ry="6.8"></ellipse>
			
				<ellipse style="fill:none;stroke:#000000;stroke-linecap:round;stroke-linejoin:round;stroke-miterlimit:10;" cx="1791.31" cy="1681.59" rx="4.74" ry="4.81"></ellipse>
			
				<line style="fill:none;stroke:#000000;stroke-linecap:round;stroke-linejoin:round;stroke-miterlimit:10;" x1="1796.71" y1="1685.04" x2="1800.7" y2="1687.58"></line>
			<path style="fill:none;stroke:#000000;stroke-linecap:round;stroke-linejoin:round;stroke-miterlimit:10;" d="M1807.02,1674.7
				c2.09,4.89,1.72,10.19-0.47,14.62l-3.56-2.26c-0.78-0.49-1.81-0.26-2.3,0.54c-0.3,0.49-0.33,1.08-0.12,1.57
				c0.13,0.3,0.35,0.57,0.64,0.76l3.55,2.26c-1.71,2.23-3.91,4.12-6.65,5.32c-8.67,3.81-18.75-0.23-22.51-9.01
				c-3.76-8.78,0.22-18.99,8.9-22.8C1793.18,1661.88,1803.26,1665.92,1807.02,1674.7z"></path>
			<g>
				<polygon style="fill:none;stroke:#000000;stroke-linecap:round;stroke-linejoin:round;stroke-miterlimit:10;" points="
					1828.19,1703.06 1829.96,1700.2 1834.99,1703.39 1833.21,1706.26 				"></polygon>
				<polygon style="fill:none;stroke:#000000;stroke-linecap:round;stroke-linejoin:round;stroke-miterlimit:10;" points="
					1831.44,1709.12 1829.66,1711.98 1824.64,1708.78 1826.41,1705.93 				"></polygon>
			</g>
			<g>
				<path style="fill:none;stroke:#000000;stroke-linecap:round;stroke-linejoin:round;stroke-miterlimit:10;" d="M1817.38,1696.19
					c1.06-1.23,2.37-2.27,3.94-2.96c5.65-2.48,12.22,0.15,14.67,5.87c1.27,2.96,1.16,6.17,0,8.92L1817.38,1696.19z"></path>
				<path style="fill:none;stroke:#000000;stroke-linecap:round;stroke-linejoin:round;stroke-miterlimit:10;" d="M1834.23,1710.89
					c-1.07,1.28-2.41,2.36-4.03,3.07c-5.65,2.48-12.22-0.15-14.67-5.87c-1.29-3.01-1.15-6.26,0.06-9.05L1834.23,1710.89z"></path>
			</g>
			<g>
				<path style="fill:none;stroke:#000000;stroke-linecap:round;stroke-linejoin:round;stroke-miterlimit:10;" d="M1800.58,1689.16
					c0.13,0.3,0.35,0.57,0.64,0.76l37.8,24.02c0.78,0.49,1.81,0.26,2.3-0.53c0.49-0.79,0.26-1.83-0.53-2.33l-37.8-24.02
					c-0.78-0.49-1.81-0.26-2.3,0.53C1800.39,1688.08,1800.37,1688.67,1800.58,1689.16z"></path>
			</g>
		</g>
	</g>
	<g>
		<g>
			<g>
				
					<rect x="699.98" y="1409.45" style="fill:none;stroke:#000000;stroke-linecap:round;stroke-linejoin:round;stroke-miterlimit:10;" width="12.88" height="223.66"></rect>
				<polygon style="fill:none;stroke:#000000;stroke-linecap:round;stroke-linejoin:round;stroke-miterlimit:10;" points="
					725.74,1609.84 712.86,1633.11 712.85,1409.45 725.73,1432.71 				"></polygon>
			</g>
		</g>
		<g>
			
				<rect x="667.59" y="1390.7" transform="matrix(-1 3.961162e-05 -3.961162e-05 -1 1393.3887 3040.4956)" style="fill:none;stroke:#000000;stroke-linecap:round;stroke-linejoin:round;stroke-miterlimit:10;" width="58.16" height="259.12"></rect>
		</g>
	</g>
	<g>
		<g>
			<g>
				
					<rect x="1314.25" y="1367.73" transform="matrix(-1 -5.131762e-05 5.131762e-05 -1 2641.3118 2959.1802)" style="fill:none;stroke:#000000;stroke-linecap:round;stroke-linejoin:round;stroke-miterlimit:10;" width="12.88" height="223.66"></rect>
				<polygon style="fill:none;stroke:#000000;stroke-linecap:round;stroke-linejoin:round;stroke-miterlimit:10;" points="
					1301.37,1568.12 1314.25,1591.38 1314.26,1367.73 1301.38,1390.99 				"></polygon>
			</g>
		</g>
	</g>
	<g>
		<g>
			<g>
				
					<rect x="754.85" y="1220.33" transform="matrix(-1 -5.131762e-05 5.131762e-05 -1 1522.5012 2664.3655)" style="fill:none;stroke:#000000;stroke-linecap:round;stroke-linejoin:round;stroke-miterlimit:10;" width="12.88" height="223.66"></rect>
				<polygon style="fill:none;stroke:#000000;stroke-linecap:round;stroke-linejoin:round;stroke-miterlimit:10;" points="
					741.96,1420.73 754.84,1443.99 754.85,1220.33 741.97,1243.6 				"></polygon>
			</g>
		</g>
	</g>
	<g>
		<g>
			<path style="fill:none;stroke:#000000;stroke-linecap:round;stroke-linejoin:round;stroke-miterlimit:10;" d="M1233.39,1270.82
				l9.05-25.77l-11.03-3.87c-2.24,6.37-9.21,9.71-15.58,7.48c-6.37-2.24-9.71-9.21-7.48-15.58l-10.03-3.52l-9.05,25.77
				L1233.39,1270.82z"></path>
			
				<rect x="1207.42" y="1202.74" transform="matrix(-0.9485 0.3168 -0.3168 -0.9485 2753.5098 1990.7836)" style="fill:none;stroke:#000000;stroke-linecap:round;stroke-linejoin:round;stroke-miterlimit:10;" width="15.04" height="32.94"></rect>
			<g>
				
					<rect x="1155.49" y="1241.51" transform="matrix(-0.8654 -0.5011 0.5011 -0.8654 1551.1836 2925.8821)" style="fill:none;stroke:#000000;stroke-linecap:round;stroke-linejoin:round;stroke-miterlimit:10;" width="26.17" height="26.17"></rect>
				
					<line style="fill:none;stroke:#000000;stroke-linecap:round;stroke-linejoin:round;stroke-miterlimit:10;" x1="1173.35" y1="1272.48" x2="1163.81" y2="1236.71"></line>
				
					<line style="fill:none;stroke:#000000;stroke-linecap:round;stroke-linejoin:round;stroke-miterlimit:10;" x1="1150.7" y1="1259.36" x2="1186.46" y2="1249.83"></line>
			</g>
			<path style="fill:none;stroke:#000000;stroke-linecap:round;stroke-linejoin:round;stroke-miterlimit:10;" d="M1244.53,1231.27
				l14.23,17.31c-1.08,0.63-1.65,1.92-1.23,3.15c0.47,1.42,2.01,2.19,3.43,1.71s2.19-2.01,1.71-3.43c-0.41-1.24-1.63-1.92-2.88-1.78
				l0.97-22.39L1244.53,1231.27z"></path>
			<path style="fill:none;stroke:#000000;stroke-linecap:round;stroke-linejoin:round;stroke-miterlimit:10;" d="M1172.72,1196.67
				l0.63,22.4c-1.24-0.16-2.48,0.5-2.91,1.74c-0.5,1.41,0.25,2.96,1.66,3.46c1.41,0.5,2.96-0.25,3.46-1.66
				c0.43-1.23-0.11-2.52-1.18-3.17l14.5-17.09L1172.72,1196.67z"></path>
			
				<circle style="fill:none;stroke:#000000;stroke-linecap:round;stroke-linejoin:round;stroke-miterlimit:10;" cx="1218.62" cy="1184.85" r="7.91"></circle>
		</g>
		<polygon style="fill:none;stroke:#000000;stroke-linecap:round;stroke-linejoin:round;stroke-miterlimit:10;" points="
			1231.52,1225.32 1247.11,1225.34 1254.92,1211.85 1247.14,1198.34 1231.56,1198.32 1223.75,1211.81 		"></polygon>
	</g>
	<g>
		<g>
			<path style="fill:none;stroke:#000000;stroke-linecap:round;stroke-linejoin:round;stroke-miterlimit:10;" d="M907.39,1598.44
				c10.85,0,19.81,16.33,19.81,36.48s-9.07,36.48-19.81,36.48h-58.06c-4.56,0-8.26-3.7-8.26-8.26v-56.42c0-4.56,3.7-8.26,8.26-8.26
				H907.39z"></path>
			<path style="fill:none;stroke:#000000;stroke-linecap:round;stroke-linejoin:round;stroke-miterlimit:10;" d="M907.39,1585.17
				c18.1,0,33.05,22.27,33.05,49.74c0,27.47-15.14,49.74-33.05,49.74h-44.77c-7.33,0-13.26-5.94-13.26-13.26l0,0h58.03
				c10.74,0,19.81-16.33,19.81-36.48s-8.96-36.48-19.81-36.48h-58.03l0,0c0-7.33,5.94-13.26,13.26-13.26H907.39z"></path>
		</g>
		
			<rect x="663.14" y="1582.57" transform="matrix(-3.208511e-10 1 -1 -3.208511e-10 2412.3208 842.1403)" style="fill:none;stroke:#000000;stroke-linecap:round;stroke-linejoin:round;stroke-miterlimit:10;" width="243.89" height="89.32"></rect>
		<g>
			<path style="fill:none;stroke:#000000;stroke-linecap:round;stroke-linejoin:round;stroke-miterlimit:10;" d="M796.04,1625.08
				l24.89,45.93c0.49,0.9,0.15,2.03-0.75,2.52l-30.32,16.43c-0.9,0.49-2.03,0.15-2.52-0.75l-24.89-45.93
				c-0.49-0.9-0.15-2.03,0.75-2.52l30.32-16.43C794.42,1623.84,795.55,1624.18,796.04,1625.08z"></path>
			
				<rect x="764.91" y="1650.69" transform="matrix(-0.4765 -0.8792 0.8792 -0.4765 -298.2278 3142.3931)" style="fill:none;stroke:#000000;stroke-linecap:round;stroke-linejoin:round;stroke-miterlimit:10;" width="43.09" height="18.59"></rect>
			
				<rect x="793.14" y="1646.41" transform="matrix(-0.4765 -0.8792 0.8792 -0.4765 -268.2184 3143.6062)" style="fill:none;stroke:#000000;stroke-linecap:round;stroke-linejoin:round;stroke-miterlimit:10;" width="17.35" height="10.5"></rect>
			<path style="fill:none;stroke:#000000;stroke-linecap:round;stroke-linejoin:round;stroke-miterlimit:10;" d="M761.56,1641.65
				l26.67,49.2l-7.49,11.13c-1.05,1.55-3.37,1.44-4.26-0.2l-30.48-56.24c-0.89-1.65,0.28-3.66,2.16-3.68L761.56,1641.65z"></path>
		</g>
		<g>
			<g>
				
					<circle style="fill:#FFFFFF;stroke:#000000;stroke-linecap:round;stroke-linejoin:round;stroke-miterlimit:10;" cx="779.2" cy="1561.43" r="20.92"></circle>
				
					<circle style="fill:#FFFFFF;stroke:#000000;stroke-linecap:round;stroke-linejoin:round;stroke-miterlimit:10;" cx="779.2" cy="1561.43" r="7.46"></circle>
			</g>
			
				<line style="fill:#FFFFFF;stroke:#000000;stroke-linecap:round;stroke-linejoin:round;stroke-miterlimit:10;" x1="786.67" y1="1561.43" x2="771.74" y2="1561.43"></line>
			
				<line style="fill:#FFFFFF;stroke:#000000;stroke-linecap:round;stroke-linejoin:round;stroke-miterlimit:10;" x1="779.2" y1="1568.89" x2="779.2" y2="1553.96"></line>
		</g>
	</g>
	<g>
		<g>
			
				<rect x="1040.9" y="1709.21" transform="matrix(-1 -7.778752e-06 7.778752e-06 -1 2298.9302 3433.9038)" style="fill:none;stroke:#000000;stroke-linecap:round;stroke-linejoin:round;stroke-miterlimit:10;" width="217.14" height="15.47"></rect>
			
				<rect x="1040.9" y="1317.58" transform="matrix(-1 -7.778752e-06 7.778752e-06 -1 2298.9326 3026.8062)" style="fill:none;stroke:#000000;stroke-linecap:round;stroke-linejoin:round;stroke-miterlimit:10;" width="217.14" height="391.63"></rect>
			<path style="fill:none;stroke:#000000;stroke-linecap:round;stroke-linejoin:round;stroke-miterlimit:10;" d="M1243.49,1629.63
				l0-294c0-2.85-2.17-5.16-4.85-5.16l-178.32,0c-2.68,0-4.85,2.31-4.85,5.16l0,294L1243.49,1629.63z"></path>
			<path style="fill:none;stroke:#000000;stroke-linecap:round;stroke-linejoin:round;stroke-miterlimit:10;" d="M1214.97,1629.63
				l28.51,0l0,66.69c0,2.85-2.17,5.16-4.85,5.16l-178.32,0c-2.68,0-4.85-2.31-4.85-5.16l0-66.69l28.51,0l0,38.09
				c0,11.39,8.69,20.63,19.41,20.63l92.19,0c10.72,0,19.41-9.23,19.41-20.63L1214.97,1629.63z"></path>
		</g>
		<g>
			
				<ellipse style="fill:none;stroke:#000000;stroke-linecap:round;stroke-linejoin:round;stroke-miterlimit:10;" cx="1137.53" cy="1392.87" rx="11.56" ry="11.48"></ellipse>
			<g>
				
					<ellipse style="fill:none;stroke:#000000;stroke-linecap:round;stroke-linejoin:round;stroke-miterlimit:10;" cx="1139.27" cy="1395.91" rx="1.24" ry="1.23"></ellipse>
				
					<ellipse style="fill:none;stroke:#000000;stroke-linecap:round;stroke-linejoin:round;stroke-miterlimit:10;" cx="1134.99" cy="1390.44" rx="1.24" ry="1.23"></ellipse>
			</g>
			<polygon style="fill:none;stroke:#000000;stroke-linecap:round;stroke-linejoin:round;stroke-miterlimit:10;" points="
				1141.78,1392.72 1138.72,1388.81 1142.22,1389.25 			"></polygon>
			<path style="fill:none;stroke:#000000;stroke-linecap:round;stroke-linejoin:round;stroke-miterlimit:10;" d="M1172.26,1366.06
				L1172.26,1366.06c4.34,5.55,2.56,13.65-3.73,16.89l-12.28,6.33c-2.85,1.47-6.35,0.71-8.31-1.81l-2.56-3.28
				c-1.97-2.52-1.85-6.07,0.29-8.45l9.2-10.26C1159.57,1360.23,1167.92,1360.51,1172.26,1366.06z"></path>
			<path style="fill:none;stroke:#000000;stroke-linecap:round;stroke-linejoin:round;stroke-miterlimit:10;" d="M1140.66,1365.52
				l3.49,12.91l0.14-0.04c0.26-0.96,0.67-1.88,1.37-2.66l3.79-4.22l-2.1-7.77c-0.5-1.83-2.39-2.92-4.24-2.43
				C1141.26,1361.8,1140.16,1363.69,1140.66,1365.52z"></path>
			<path style="fill:none;stroke:#000000;stroke-linecap:round;stroke-linejoin:round;stroke-miterlimit:10;" d="M1168.47,1390.73
				l-7.23-4.03l-4.99,2.57c-0.88,0.45-1.82,0.62-2.76,0.67l-0.14,0.25l11.74,6.54c1.67,0.93,3.78,0.34,4.71-1.32
				C1170.74,1393.76,1170.14,1391.66,1168.47,1390.73z"></path>
			<path style="fill:none;stroke:#000000;stroke-linecap:round;stroke-linejoin:round;stroke-miterlimit:10;" d="M1172,1365.79
				l8.44-6c2-1.42,2.45-4.18,1.02-6.16c-1.43-1.98-4.21-2.44-6.2-1.02l-12.94,9.21C1165.87,1361.51,1169.51,1362.83,1172,1365.79z"></path>
			<path style="fill:none;stroke:#000000;stroke-linecap:round;stroke-linejoin:round;stroke-miterlimit:10;" d="M1172.48,1379.55
				l0.14,0.34l15.21-5.99c2.28-0.9,3.4-3.46,2.49-5.73c-0.9-2.27-3.49-3.37-5.77-2.48l-10.42,4.1
				C1175.12,1373.15,1174.51,1376.75,1172.48,1379.55z"></path>
			<path style="fill:none;stroke:#000000;stroke-linecap:round;stroke-linejoin:round;stroke-miterlimit:10;" d="M1131.98,1402.93
				l-8.85,15.72c-1.34,2.37-0.38,5.38,2.08,6.56c2.47,1.18,5.43,0.06,6.47-2.46l7.69-18.6
				C1136.84,1404.55,1134.24,1404.15,1131.98,1402.93z"></path>
			<path style="fill:none;stroke:#000000;stroke-linecap:round;stroke-linejoin:round;stroke-miterlimit:10;" d="M1107.16,1409.17
				c1.68,2.15,4.84,2.44,6.89,0.65l13.29-11.6c-1.37-2.58-1.65-5.5-0.95-8.21l-18.16,12.36
				C1105.96,1403.91,1105.48,1407.02,1107.16,1409.17z"></path>
		</g>
	</g>
	<g>
		<g>
			<path style="fill:none;stroke:#000000;stroke-linecap:round;stroke-linejoin:round;stroke-miterlimit:10;" d="M653.7,1695.82
				c0.45,1.08,0.82,2.19,1.12,3.33"></path>
			<path style="fill:none;stroke:#000000;stroke-linecap:round;stroke-linejoin:round;stroke-miterlimit:10;" d="M629.95,1730.6
				c-1.83-0.04-3.69-0.28-5.55-0.74c-0.42-0.1-0.83-0.22-1.23-0.34"></path>
		</g>
		<g>
			<path style="fill:none;stroke:#000000;stroke-linecap:round;stroke-linejoin:round;stroke-miterlimit:10;" d="M628.05,1727.79
				c-1-0.11-2-0.29-3-0.53"></path>
			<path style="fill:none;stroke:#000000;stroke-linecap:round;stroke-linejoin:round;stroke-miterlimit:10;" d="M651.46,1697.44
				c0.36,0.95,0.66,1.92,0.89,2.92"></path>
		</g>
		<g>
			<path style="fill:none;stroke:#000000;stroke-linecap:round;stroke-linejoin:round;stroke-miterlimit:10;" d="M666.65,1721.5
				c1.96-1.04,3.88-2.53,5.63-4.62c-1.28-13.82-15.08-17.3-15.08-17.3c-2.67-0.83-5.49,0.37-6.79,2.72"></path>
		</g>
		
			<line style="fill:none;stroke:#000000;stroke-linecap:round;stroke-linejoin:round;stroke-miterlimit:10;" x1="664.21" y1="1713.93" x2="671.99" y2="1716.88"></line>
		
			<line style="fill:none;stroke:#000000;stroke-linecap:round;stroke-linejoin:round;stroke-miterlimit:10;" x1="630.65" y1="1701.18" x2="644.06" y2="1706.27"></line>
		<g>
			<path style="fill:none;stroke:#000000;stroke-linecap:round;stroke-linejoin:round;stroke-miterlimit:10;" d="M618.26,1705.74
				C618.26,1705.74,618.26,1705.74,618.26,1705.74C618.27,1705.74,618.27,1705.74,618.26,1705.74z"></path>
			<path style="fill:none;stroke:#000000;stroke-linecap:round;stroke-linejoin:round;stroke-miterlimit:10;" d="M607.11,1690.83
				c-6.14,3.61-16.8,12.16-16.49,27.86c2.99,2.85,6.12,4.8,9.25,6.1"></path>
			<path style="fill:none;stroke:#000000;stroke-linecap:round;stroke-linejoin:round;stroke-miterlimit:10;" d="M619,1706.19
				c2.13-0.94,3.67-2.74,4.51-4.85"></path>
			<path style="fill:none;stroke:#000000;stroke-linecap:round;stroke-linejoin:round;stroke-miterlimit:10;" d="M632.18,1715.58
				c0.05-1.34-0.2-2.71-0.78-4.02c-2.04-4.64-7.75-7.4-12.4-5.36c-0.95,0.42-0.58,0.25-0.46,0.2"></path>
			<path style="fill:none;stroke:#000000;stroke-linecap:round;stroke-linejoin:round;stroke-miterlimit:10;" d="M624.41,1724.63
				c1.46-0.54,2.29-0.97,2.29-0.97"></path>
		</g>
		
			<line style="fill:none;stroke:#000000;stroke-linecap:round;stroke-linejoin:round;stroke-miterlimit:10;" x1="630.5" y1="1701.18" x2="590.63" y2="1718.69"></line>
		<g>
			<path style="fill:none;stroke:#000000;stroke-linecap:round;stroke-linejoin:round;stroke-miterlimit:10;" d="M644.82,1717.71
				C644.81,1717.71,644.81,1717.7,644.82,1717.71C644.8,1717.69,644.81,1717.7,644.82,1717.71z"></path>
			<path style="fill:none;stroke:#000000;stroke-linecap:round;stroke-linejoin:round;stroke-miterlimit:10;" d="M643.7,1718.6
				C643.71,1718.6,643.71,1718.6,643.7,1718.6C643.7,1718.59,643.7,1718.59,643.7,1718.6z"></path>
			<path style="fill:none;stroke:#000000;stroke-linecap:round;stroke-linejoin:round;stroke-miterlimit:10;" d="M658.78,1705.75
				c-3.19-3.94-8.98-4.55-12.92-1.36s-5.1,9.43-1.91,13.37c0.65,0.81,0.39,0.49,0.32,0.39c0.24,0.31,0.44,0.55,0.44,0.55
				s-0.2-0.25-0.45-0.55c0.08,0.09,0,0-0.32-0.39c-2.75-3.37-7.79-3.98-11.65-2.07c-0.65,0.32-1.26,0.71-1.82,1.16
				c-3.94,3.19-4.55,8.98-1.36,12.92c0,0,0.22,0.3,0.64,0.82c2.89,3.48,15.3,16.68,33.71,11.27
				C673.93,1722.49,658.78,1705.75,658.78,1705.75z"></path>
		</g>
		
			<line style="fill:none;stroke:#000000;stroke-linecap:round;stroke-linejoin:round;stroke-miterlimit:10;" x1="630.5" y1="1701.18" x2="663.46" y2="1741.86"></line>
		<g>
			<path style="fill:none;stroke:#000000;stroke-linecap:round;stroke-linejoin:round;stroke-miterlimit:10;" d="M647.89,1698.17
				c1.84,0.29,3.78-0.31,5.14-1.77c0,0,10.27-9.85,4.54-22.49c-4.85-1.81-9.16-1.42-12.66-0.22"></path>
		</g>
		
			<line style="fill:none;stroke:#000000;stroke-linecap:round;stroke-linejoin:round;stroke-miterlimit:10;" x1="648.55" y1="1683" x2="657.57" y2="1673.91"></line>
		
			<line style="fill:none;stroke:#000000;stroke-linecap:round;stroke-linejoin:round;stroke-miterlimit:10;" x1="630.5" y1="1701.18" x2="633.01" y2="1698.65"></line>
		<g>
			<path style="fill:none;stroke:#000000;stroke-linecap:round;stroke-linejoin:round;stroke-miterlimit:10;" d="M629.79,1692.13
				C629.79,1692.13,629.79,1692.13,629.79,1692.13C629.79,1692.15,629.79,1692.14,629.79,1692.13z"></path>
			<path style="fill:none;stroke:#000000;stroke-linecap:round;stroke-linejoin:round;stroke-miterlimit:10;" d="M631.22,1692.13
				C631.22,1692.13,631.22,1692.13,631.22,1692.13C631.22,1692.14,631.22,1692.15,631.22,1692.13z"></path>
			<path style="fill:none;stroke:#000000;stroke-linecap:round;stroke-linejoin:round;stroke-miterlimit:10;" d="M620.6,1701.82
				c5.07,0,9.9-4.11,9.9-9.19"></path>
			<path style="fill:none;stroke:#000000;stroke-linecap:round;stroke-linejoin:round;stroke-miterlimit:10;" d="M630.5,1692.13
				c-0.01-0.12,0,0,0,0.51c0.01,5.07,4.82,9.19,9.9,9.19s9.19-4.11,9.19-9.19c0,0,1.23-22.55-19.09-31.01
				c-8.43,3.51-13.15,9.45-15.79,15.19"></path>
		</g>
		
			<line style="fill:none;stroke:#000000;stroke-linecap:round;stroke-linejoin:round;stroke-miterlimit:10;" x1="630.5" y1="1684.06" x2="630.5" y2="1661.62"></line>
		<g>
			<path style="fill:none;stroke:#000000;stroke-linecap:round;stroke-linejoin:round;stroke-miterlimit:10;" d="M621.43,1692.58
				C621.43,1692.58,621.43,1692.58,621.43,1692.58C621.44,1692.59,621.44,1692.59,621.43,1692.58z"></path>
			<path style="fill:none;stroke:#000000;stroke-linecap:round;stroke-linejoin:round;stroke-miterlimit:10;" d="M622.07,1691.95
				C622.07,1691.95,622.07,1691.95,622.07,1691.95C622.08,1691.95,622.08,1691.95,622.07,1691.95z"></path>
			<path style="fill:none;stroke:#000000;stroke-linecap:round;stroke-linejoin:round;stroke-miterlimit:10;" d="M613.45,1700.97
				c2.26,2.27,5.92,2.27,8.19,0.02c2.27-2.26,2.59-6.24,0.34-8.5c-0.46-0.46-0.28-0.29-0.22-0.23c-0.17-0.18-0.31-0.32-0.31-0.32
				s0.14,0.14,0.31,0.32c-0.06-0.05,0,0,0.23,0.23c2.26,2.26,6.24,1.96,8.5-0.3s2.27-5.92,0.02-8.19c0,0-9.47-10.61-22.31-5.36
				c-1.98,4.79-1.75,9.12-0.68,12.66C609.31,1697.24,613.45,1700.97,613.45,1700.97z"></path>
		</g>
		
			<line style="fill:none;stroke:#000000;stroke-linecap:round;stroke-linejoin:round;stroke-miterlimit:10;" x1="630.68" y1="1701.18" x2="608.19" y2="1678.64"></line>
		<g>
			<path style="fill:none;stroke:#000000;stroke-linecap:round;stroke-linejoin:round;stroke-miterlimit:10;" d="M614.37,1722.16
				C614.37,1722.16,614.37,1722.16,614.37,1722.16C614.37,1722.15,614.37,1722.15,614.37,1722.16z"></path>
			<path style="fill:none;stroke:#000000;stroke-linecap:round;stroke-linejoin:round;stroke-miterlimit:10;" d="M613.67,1721.59
				C613.67,1721.6,613.67,1721.6,613.67,1721.59C613.67,1721.59,613.68,1721.59,613.67,1721.59z"></path>
			<path style="fill:none;stroke:#000000;stroke-linecap:round;stroke-linejoin:round;stroke-miterlimit:10;" d="M623.57,1729.19
				c2.01-2.49,1.62-6.13-0.86-8.14c-2.49-2.01-6.48-1.91-8.49,0.58c-0.41,0.51-0.25,0.31-0.2,0.25c-0.16,0.19-0.28,0.35-0.28,0.35
				s0.13-0.15,0.28-0.35c-0.05,0.06,0,0,0.2-0.25c2-2.49,1.28-6.41-1.21-8.42c-2.49-2.01-6.13-1.63-8.14,0.86
				c0,0-9.54,10.56-2.94,22.75C615.24,1740.73,623.57,1729.19,623.57,1729.19z"></path>
		</g>
		
			<line style="fill:none;stroke:#000000;stroke-linecap:round;stroke-linejoin:round;stroke-miterlimit:10;" x1="630.43" y1="1701.18" x2="601.93" y2="1736.82"></line>
	</g>
	<g>
		<g>
			<path style="fill:none;stroke:#000000;stroke-linecap:round;stroke-linejoin:round;stroke-miterlimit:10;" d="M1352.73,1688.06
				c1.16-0.11,2.33-0.15,3.51-0.1"></path>
			<path style="fill:none;stroke:#000000;stroke-linecap:round;stroke-linejoin:round;stroke-miterlimit:10;" d="M1379.05,1720.94
				c-0.57,1.74-1.35,3.45-2.33,5.09c-0.22,0.37-0.45,0.73-0.69,1.08"></path>
		</g>
		<g>
			<path style="fill:none;stroke:#000000;stroke-linecap:round;stroke-linejoin:round;stroke-miterlimit:10;" d="M1375.8,1721.94
				c-0.4,0.92-0.86,1.83-1.39,2.71"></path>
			<path style="fill:none;stroke:#000000;stroke-linecap:round;stroke-linejoin:round;stroke-miterlimit:10;" d="M1353.63,1690.68
				c1.01-0.07,2.03-0.07,3.05,0"></path>
		</g>
		<g>
			<path style="fill:none;stroke:#000000;stroke-linecap:round;stroke-linejoin:round;stroke-miterlimit:10;" d="M1381.08,1683.19
				c-0.42-2.18-1.28-4.45-2.77-6.74c-13.59-2.82-20.96,9.36-20.96,9.36c-1.58,2.31-1.26,5.36,0.62,7.29"></path>
		</g>
		
			<line style="fill:none;stroke:#000000;stroke-linecap:round;stroke-linejoin:round;stroke-miterlimit:10;" x1="1373.13" y1="1683.3" x2="1378.23" y2="1676.73"></line>
		
			<line style="fill:none;stroke:#000000;stroke-linecap:round;stroke-linejoin:round;stroke-miterlimit:10;" x1="1351.12" y1="1711.67" x2="1359.91" y2="1700.33"></line>
		<g>
			<path style="fill:none;stroke:#000000;stroke-linecap:round;stroke-linejoin:round;stroke-miterlimit:10;" d="M1351.86,1724.85
				C1351.86,1724.85,1351.86,1724.85,1351.86,1724.85C1351.86,1724.84,1351.86,1724.83,1351.86,1724.85z"></path>
			<path style="fill:none;stroke:#000000;stroke-linecap:round;stroke-linejoin:round;stroke-miterlimit:10;" d="M1334.33,1731.15
				c1.66,6.93,6.71,19.63,21.82,23.92c3.6-2.02,6.38-4.45,8.54-7.06"></path>
			<path style="fill:none;stroke:#000000;stroke-linecap:round;stroke-linejoin:round;stroke-miterlimit:10;" d="M1352.51,1724.27
				c-0.28-2.31-1.54-4.31-3.31-5.73"></path>
			<path style="fill:none;stroke:#000000;stroke-linecap:round;stroke-linejoin:round;stroke-miterlimit:10;" d="M1365.33,1714.42
				c-1.27-0.44-2.65-0.6-4.08-0.44c-5.04,0.6-9.35,5.25-8.75,10.29c0.12,1.03,0.07,0.63,0.06,0.5"></path>
			<path style="fill:none;stroke:#000000;stroke-linecap:round;stroke-linejoin:round;stroke-miterlimit:10;" d="M1371.72,1724.49
				c-0.09-1.55-0.25-2.47-0.25-2.47"></path>
		</g>
		
			<line style="fill:none;stroke:#000000;stroke-linecap:round;stroke-linejoin:round;stroke-miterlimit:10;" x1="1351.07" y1="1711.81" x2="1356.16" y2="1755.06"></line>
		<g>
			<path style="fill:none;stroke:#000000;stroke-linecap:round;stroke-linejoin:round;stroke-miterlimit:10;" d="M1371.07,1702.96
				C1371.07,1702.96,1371.06,1702.96,1371.07,1702.96C1371.05,1702.96,1371.05,1702.96,1371.07,1702.96z"></path>
			<path style="fill:none;stroke:#000000;stroke-linecap:round;stroke-linejoin:round;stroke-miterlimit:10;" d="M1371.6,1704.28
				C1371.6,1704.28,1371.6,1704.28,1371.6,1704.28C1371.59,1704.28,1371.58,1704.29,1371.6,1704.28z"></path>
			<path style="fill:none;stroke:#000000;stroke-linecap:round;stroke-linejoin:round;stroke-miterlimit:10;" d="M1363.72,1686.11
				c-4.7,1.9-6.98,7.26-5.08,11.96c1.9,4.7,7.52,7.64,12.23,5.74c0.96-0.39,0.59-0.23,0.47-0.19c0.36-0.14,0.66-0.26,0.66-0.26
				s-0.29,0.12-0.66,0.27c0.11-0.05,0,0-0.47,0.19c-4.03,1.64-6.08,6.28-5.39,10.54c0.12,0.71,0.31,1.41,0.58,2.08
				c1.9,4.7,7.26,6.98,11.96,5.08c0,0,0.35-0.12,0.97-0.38c4.18-1.74,20.43-9.75,20.63-28.94
				C1384.16,1676.52,1363.72,1686.11,1363.72,1686.11z"></path>
		</g>
		
			<line style="fill:none;stroke:#000000;stroke-linecap:round;stroke-linejoin:round;stroke-miterlimit:10;" x1="1351.07" y1="1711.81" x2="1399.62" y2="1692.19"></line>
		<g>
			<path style="fill:none;stroke:#000000;stroke-linecap:round;stroke-linejoin:round;stroke-miterlimit:10;" d="M1353.29,1694.31
				c0.81-1.67,0.81-3.7-0.19-5.43c0,0-6.42-12.7-20.18-10.93c-3.15,4.11-4.04,8.35-3.92,12.04"></path>
		</g>
		
			<line style="fill:none;stroke:#000000;stroke-linecap:round;stroke-linejoin:round;stroke-miterlimit:10;" x1="1338.97" y1="1689.23" x2="1332.92" y2="1677.95"></line>
		
			<line style="fill:none;stroke:#000000;stroke-linecap:round;stroke-linejoin:round;stroke-miterlimit:10;" x1="1351.07" y1="1711.81" x2="1349.39" y2="1708.67"></line>
		<g>
			<path style="fill:none;stroke:#000000;stroke-linecap:round;stroke-linejoin:round;stroke-miterlimit:10;" d="M1342.21,1709.84
				C1342.21,1709.84,1342.21,1709.84,1342.21,1709.84C1342.23,1709.85,1342.22,1709.85,1342.21,1709.84z"></path>
			<path style="fill:none;stroke:#000000;stroke-linecap:round;stroke-linejoin:round;stroke-miterlimit:10;" d="M1342.63,1708.48
				C1342.63,1708.48,1342.63,1708.48,1342.63,1708.48C1342.64,1708.48,1342.65,1708.48,1342.63,1708.48z"></path>
			<path style="fill:none;stroke:#000000;stroke-linecap:round;stroke-linejoin:round;stroke-miterlimit:10;" d="M1348.79,1721.46
				c1.48-4.85-1.04-10.67-5.89-12.15"></path>
			<path style="fill:none;stroke:#000000;stroke-linecap:round;stroke-linejoin:round;stroke-miterlimit:10;" d="M1342.42,1709.16
				c-0.12-0.03,0,0,0.48,0.15c4.86,1.47,10.2-1.93,11.68-6.78c1.48-4.85-1.25-9.99-6.1-11.47c0,0-21.2-7.78-35.24,9.18
				c0.89,9.09,5.19,15.34,9.91,19.54"></path>
		</g>
		
			<line style="fill:none;stroke:#000000;stroke-linecap:round;stroke-linejoin:round;stroke-miterlimit:10;" x1="1334.71" y1="1706.8" x2="1313.25" y2="1700.24"></line>
		<g>
			<path style="fill:none;stroke:#000000;stroke-linecap:round;stroke-linejoin:round;stroke-miterlimit:10;" d="M1340.2,1717.97
				C1340.2,1717.96,1340.2,1717.96,1340.2,1717.97C1340.21,1717.96,1340.21,1717.96,1340.2,1717.97z"></path>
			<path style="fill:none;stroke:#000000;stroke-linecap:round;stroke-linejoin:round;stroke-miterlimit:10;" d="M1339.78,1717.17
				C1339.78,1717.17,1339.78,1717.17,1339.78,1717.17C1339.79,1717.17,1339.79,1717.16,1339.78,1717.17z"></path>
			<path style="fill:none;stroke:#000000;stroke-linecap:round;stroke-linejoin:round;stroke-miterlimit:10;" d="M1345.89,1728.05
				c2.83-1.49,3.91-5,2.41-7.82c-1.49-2.83-5.21-4.3-8.03-2.81c-0.58,0.31-0.35,0.18-0.28,0.15c-0.22,0.11-0.39,0.21-0.39,0.21
				s0.18-0.09,0.39-0.21c-0.07,0.04,0,0,0.28-0.15c2.82-1.5,3.7-5.39,2.2-8.22s-5-3.91-7.82-2.41c0,0-12.92,5.95-11.65,19.76
				c4,3.3,8.21,4.34,11.91,4.35C1341.11,1730.92,1345.89,1728.05,1345.89,1728.05z"></path>
		</g>
		
			<line style="fill:none;stroke:#000000;stroke-linecap:round;stroke-linejoin:round;stroke-miterlimit:10;" x1="1351.13" y1="1711.63" x2="1323" y2="1726.55"></line>
		<g>
			<path style="fill:none;stroke:#000000;stroke-linecap:round;stroke-linejoin:round;stroke-miterlimit:10;" d="M1366.42,1733.38
				C1366.42,1733.38,1366.42,1733.37,1366.42,1733.38C1366.41,1733.37,1366.42,1733.37,1366.42,1733.38z"></path>
			<path style="fill:none;stroke:#000000;stroke-linecap:round;stroke-linejoin:round;stroke-miterlimit:10;" d="M1365.67,1733.88
				C1365.67,1733.88,1365.68,1733.88,1365.67,1733.88C1365.67,1733.87,1365.67,1733.87,1365.67,1733.88z"></path>
			<path style="fill:none;stroke:#000000;stroke-linecap:round;stroke-linejoin:round;stroke-miterlimit:10;" d="M1375.84,1726.63
				c-1.79-2.65-5.39-3.35-8.04-1.56c-2.65,1.79-3.72,5.64-1.93,8.29c0.37,0.54,0.22,0.33,0.18,0.26c0.14,0.21,0.25,0.37,0.25,0.37
				s-0.11-0.17-0.25-0.37c0.05,0.06,0,0-0.18-0.26c-1.8-2.65-5.76-3.1-8.41-1.31c-2.65,1.79-3.35,5.39-1.56,8.04
				c0,0,7.3,12.21,20.9,9.46C1384.43,1737.97,1375.84,1726.63,1375.84,1726.63z"></path>
		</g>
		
			<line style="fill:none;stroke:#000000;stroke-linecap:round;stroke-linejoin:round;stroke-miterlimit:10;" x1="1351.05" y1="1711.88" x2="1376.8" y2="1749.56"></line>
	</g>
	<g>
		<g>
			<path style="fill:none;stroke:#000000;stroke-linecap:round;stroke-linejoin:round;stroke-miterlimit:10;" d="M887.98,836.9"></path>
			<path style="fill:none;stroke:#000000;stroke-linecap:round;stroke-linejoin:round;stroke-miterlimit:10;" d="M871.98,870.08
				l1.94-1.8c0.01-0.01,0.02-0.02,0.02-0.03l-11.22-5.55l1.15,2.01l-13.37,4.67c-2.03,0.71-3.34,2.71-2.78,4.65
				c0.64,2.24,3.21,3.44,5.5,2.63l18.67-6.52C871.93,870.12,871.95,870.09,871.98,870.08z"></path>
			<path style="fill:none;stroke:#000000;stroke-linecap:round;stroke-linejoin:round;stroke-miterlimit:10;" d="M856.88,846.88
				c0,0-3.7,2.84-3.14,6.75c0.48,3.33,2.71,5.85,5.71,7.44l0,0l0.26,0.13c0.14,0.07,0.27,0.14,0.41,0.2l13.83,6.84l-10.09,9.35
				c-1.54,1.42-1.83,3.74-0.46,5.3c1.58,1.8,4.46,1.91,6.19,0.3l14.1-13.06c1.51-1.4,1.35-3.71-0.34-4.92l-6.66-4.75
				c5.45-2.87,8.53-6.69,10.22-10.25c2.44-5.14,2.29-11.1-0.4-16.13c-0.06-0.12-0.13-0.23-0.18-0.31
				c-2.66-4.08-9.3-13.6-28.43-15.17c-21.2-1.74-33.44,7.11-38.92,12.64"></path>
			<path style="fill:none;stroke:#000000;stroke-linecap:round;stroke-linejoin:round;stroke-miterlimit:10;" d="M912.2,810.12
				c-0.03-0.05-0.06-0.09-0.09-0.14c-0.15,0.17-0.3,0.35-0.45,0.52c1.13,3.26,1.54,6.17,0.77,9.78
				c-2.23,10.54-12.66,18.42-23.94,17.85c-0.15-0.01-0.28,0.04-0.43,0.06c0.35,1.38,0.52,2.78,0.54,4.19
				c12.06,0.69,23.13-7.04,25.46-18.23C915.09,819.21,914.38,814.32,912.2,810.12z"></path>
			<path style="fill:none;stroke:#000000;stroke-linecap:round;stroke-linejoin:round;stroke-miterlimit:10;" d="M810.36,844.86
				l-3.72-8.45l-34.78,11.25c-5.21,1.56-7.9-5.46-2.75-7.27c0,0,38.97-12.6,38.97-12.6l10.89,3.46l8.42,2.68"></path>
			
				<line style="fill:none;stroke:#000000;stroke-linecap:round;stroke-linejoin:round;stroke-miterlimit:10;" x1="869.69" y1="837.03" x2="846.13" y2="855.15"></line>
			<path style="fill:none;stroke:#000000;stroke-linecap:round;stroke-linejoin:round;stroke-miterlimit:10;" d="M819.4,832.76"></path>
			<g>
				<g>
					<g>
						<path style="fill:none;stroke:#000000;stroke-linecap:round;stroke-linejoin:round;stroke-miterlimit:10;" d="M811.68,839.13
							c-1.5,2.88-1.81,6.29-0.58,9.55l2.3,6.07c0,0,0,0,0,0l-0.65-1.72c-0.91-2.41,0.46-5.05,3.07-5.89l5.28-1.71l5.98-4.38"></path>
						<path style="fill:none;stroke:#000000;stroke-linecap:round;stroke-linejoin:round;stroke-miterlimit:10;" d="M834.47,860.59
							l-7.63,0.02l-4.99,1.61c2.56,0.73,5.36,0.77,8.08-0.11l4.48-1.45L834.47,860.59z"></path>
					</g>
					<path style="fill:none;stroke:#000000;stroke-linecap:round;stroke-linejoin:round;stroke-miterlimit:10;" d="M812.75,853.03
						c-0.2-0.52-0.24-1.06-0.24-1.58l-22.65,7.32c-2.17,0.7-3.31,2.9-2.56,4.9c0.76,2.01,3.14,3.06,5.31,2.36l22.32-7.22
						L812.75,853.03z"></path>
					<path style="fill:none;stroke:#000000;stroke-linecap:round;stroke-linejoin:round;stroke-miterlimit:10;" d="M814.46,857.55
						l2.77,0.64c1.6,0.37,3-1.05,2.46-2.49l-0.88-2.32c-0.54-1.44-2.6-1.74-3.6-0.53l-1.73,2.1L814.46,857.55z"></path>
					<path style="fill:none;stroke:#000000;stroke-linecap:round;stroke-linejoin:round;stroke-miterlimit:10;" d="M832.73,848.49
						c-0.41,0.72-1.37,1-2.15,0.62c-0.78-0.38-1.08-1.27-0.67-1.99"></path>
					<path style="fill:none;stroke:#000000;stroke-linecap:round;stroke-linejoin:round;stroke-miterlimit:10;" d="M832.41,854.69
						c-0.72-0.47-0.88-1.39-0.37-2.06s1.51-0.81,2.22-0.34"></path>
				</g>
				<g>
					<g>
						
							<ellipse style="fill:none;stroke:#000000;stroke-linecap:round;stroke-linejoin:round;stroke-miterlimit:10;" cx="826.11" cy="847.82" rx="1.27" ry="1.17"></ellipse>
						<path style="fill:none;stroke:#000000;stroke-linecap:round;stroke-linejoin:round;stroke-miterlimit:10;" d="M823.52,845.97
							c1.91-0.24,2.98,0.1,3.7,1.26"></path>
					</g>
					<g>
						
							<ellipse style="fill:none;stroke:#000000;stroke-linecap:round;stroke-linejoin:round;stroke-miterlimit:10;" cx="829.15" cy="855.85" rx="1.27" ry="1.17"></ellipse>
						<path style="fill:none;stroke:#000000;stroke-linecap:round;stroke-linejoin:round;stroke-miterlimit:10;" d="M828.37,858.79
							c1.66-0.91,2.27-1.79,2.04-3.12"></path>
					</g>
				</g>
				
					<line style="fill:none;stroke:#000000;stroke-linecap:round;stroke-linejoin:round;stroke-miterlimit:10;" x1="813.97" y1="856.25" x2="815.74" y2="855.68"></line>
			</g>
			<path style="fill:none;stroke:#000000;stroke-linecap:round;stroke-linejoin:round;stroke-miterlimit:10;" d="M845.76,853.13
				c0,0,5.53-10.02-1.37-19.81"></path>
		</g>
		<path style="fill:none;stroke:#000000;stroke-linecap:round;stroke-linejoin:round;stroke-miterlimit:10;" d="M839.69,843.97
			l-14.18-3.28c-1.38-0.32-1.96-1.84-1.09-2.89l4.27-5.17c1.98-2.39,6.04-1.79,7.11,1.05L839.69,843.97z"></path>
		<path style="fill:none;stroke:#000000;stroke-linecap:round;stroke-linejoin:round;stroke-miterlimit:10;" d="M845.76,853.13
			l-4.83-12.76c-0.67-1.78-2.18-2.99-3.92-3.49l2.68,7.08l-12.61-2.92l-5.98,4.38l-5.28,1.71c-2.61,0.84-3.98,3.48-3.07,5.89
			l2.44,6.45c0.91,2.41,3.76,3.68,6.37,2.84l5.28-1.71l7.63-0.02l7.89-9.55l2.68,7.08C846.07,856.72,846.43,854.91,845.76,853.13z"></path>
		<path style="fill:none;stroke:#000000;stroke-linecap:round;stroke-linejoin:round;stroke-miterlimit:10;" d="M841.41,866.24
			l-6.82-1.58c-1.38-0.32-1.96-1.84-1.09-2.89l8.88-10.74l3.89,10.29C847.33,864.17,844.56,866.97,841.41,866.24z"></path>
	</g>
	<g>
		<path style="fill:none;stroke:#000000;stroke-linecap:round;stroke-linejoin:round;stroke-miterlimit:10;" d="M1629.41,1496.57
			c-0.73-0.48-1.45-1.01-2.18-1.62c-10.07-8.36-12.86-23.28-6.16-34.09c0.78-1.25,0.34-2.9-0.95-3.62l0,0
			c-1.19-0.67-2.7-0.3-3.45,0.84c-7.55,11.56-5.3,27.28,5.54,36.22c4.71,3.89,10.33,6.04,16.01,6.34l0,0
			c8.35,0.42,16.78-2.96,22.54-9.88c3.36-4.04,5.37-8.76,6.07-13.61c0.7-4.85,0.26-10.05-1.45-14.83"></path>
		<path style="fill:none;stroke:#000000;stroke-linecap:round;stroke-linejoin:round;stroke-miterlimit:10;" d="M1647.26,1457.61
			l-1.05-2.99c-0.56-1.58,0.37-3.29,1.99-3.7l0,0c1.45-0.36,2.94,0.47,3.39,1.9l0.16,0.5"></path>
		<path style="fill:none;stroke:#000000;stroke-linecap:round;stroke-linejoin:round;stroke-miterlimit:10;" d="M1649.08,1457.88"></path>
		<path style="fill:none;stroke:#000000;stroke-linecap:round;stroke-linejoin:round;stroke-miterlimit:10;" d="M1652.04,1454.82"></path>
		<path style="fill:none;stroke:#000000;stroke-linecap:round;stroke-linejoin:round;stroke-miterlimit:10;" d="M1649.3,1476.58
			c-4.77-2.82-11.35-1.7-14.75,2.47c3.66-1.26,7.87-0.61,10.99,2.19c0.93,0.83,1.69,1.8,2.26,2.85"></path>
		<path style="fill:none;stroke:#000000;stroke-linecap:round;stroke-linejoin:round;stroke-miterlimit:10;" d="M1660.98,1468.36"></path>
		<path style="fill:none;stroke:#000000;stroke-linecap:round;stroke-linejoin:round;stroke-miterlimit:10;" d="M1657.7,1479.66
			l-7.65-2.75c1.21,0.51-2.23-0.95-4.63-1.97c-1.43-0.61-2.06-2.34-2.23-3.89l-1.66-12.66c-0.07-0.65,0.09-1.28,0.42-1.79
			c0.43-0.68,1.16-1.16,2.01-1.26c1.51-0.17,2.88,0.92,3.05,2.43"></path>
		<path style="fill:none;stroke:#000000;stroke-linecap:round;stroke-linejoin:round;stroke-miterlimit:10;" d="M1664.13,1457.99
			c-1.02-2.55-3.16-4.5-5.78-5.31l-4.07-6.03c-0.22-0.32-0.72-0.23-0.8,0.15l-1.38,6.22c-1.32,0.56-2.47,1.43-3.37,2.5
			c-0.09,0.1-3.47,4.9-3.55,5.02c-0.26,0.44-0.45,0.94-0.52,1.49c-0.3,2.18,1.22,4.19,3.4,4.49c0.05,0.01,0.09,0.01,0.14,0.01
			c2.14,3.1,6.15,4.79,10.32,3.5c3.05-0.94,5.43-3.57,6.07-6.7"></path>
		
			<line style="fill:none;stroke:#000000;stroke-linecap:round;stroke-linejoin:round;stroke-miterlimit:10;" x1="1650.4" y1="1463.64" x2="1652.81" y2="1465.08"></line>
		<polygon style="fill:none;stroke:#000000;stroke-linecap:round;stroke-linejoin:round;stroke-miterlimit:10;" points="
			1648,1463.77 1645.82,1463.2 1646.39,1461.02 		"></polygon>
		<path style="fill:none;stroke:#000000;stroke-linecap:round;stroke-linejoin:round;stroke-miterlimit:10;" d="M1660.61,1465.91
			c2.34-1.32,5.34-3.8,7.11-6.22c0.3-0.41-0.02-0.95-0.51-1.08c-0.99-0.27-4.69-0.92-7.9-0.62c0,0,0.48-0.07,0,0"></path>
		<path style="fill:none;stroke:#000000;stroke-linecap:round;stroke-linejoin:round;stroke-miterlimit:10;" d="M1625.63,1474.62
			l3.05,9.12c0.28-0.47,0.6-0.92,0.96-1.35c0.7-0.84,1.52-1.5,2.38-2.08l-3.68-7.04c-0.67-1.28-2.23-1.82-3.55-1.21v0
			c-0.4,0.19-0.71,0.47-0.97,0.8C1624.65,1473.13,1625.34,1473.76,1625.63,1474.62z"></path>
		<path style="fill:none;stroke:#000000;stroke-linecap:round;stroke-linejoin:round;stroke-miterlimit:10;" d="M1647.8,1484.09
			c-0.58-1.05-1.33-2.01-2.26-2.85c-4.69-4.21-11.9-3.65-15.89,1.15c-0.36,0.43-0.68,0.89-0.96,1.35l-3.05-9.12
			c-0.44-1.32-1.79-2.16-3.15-1.88c-1.57,0.33-2.51,1.93-2.05,3.44l4.02,13.42c0.11,0.37,0.37,0.67,0.72,0.83l2.08,0.95
			c0.44,2.48,1.3,6.04,6.67,8.68"></path>
	</g>
	
		<rect x="155.06" y="955.88" style="fill:none;stroke:#000000;stroke-linecap:round;stroke-linejoin:round;stroke-miterlimit:10;" width="118.25" height="40.33"></rect>
	
		<rect x="155.06" y="1114.39" style="fill:none;stroke:#000000;stroke-linecap:round;stroke-linejoin:round;stroke-miterlimit:10;" width="118.25" height="37.5"></rect>
	<g>
		
			<line style="fill:none;stroke:#000000;stroke-linecap:round;stroke-linejoin:round;stroke-miterlimit:10;" x1="1500.83" y1="1006.59" x2="1743.44" y2="1006.48"></line>
		<g>
			<g>
				<polygon style="fill:none;stroke:#000000;stroke-linecap:round;stroke-linejoin:round;stroke-miterlimit:10;" points="
					1500.29,999.6 1736.48,999.6 1736.48,822.4 1855.92,822.4 1855.92,1084.02 1500.29,1084.02 				"></polygon>
				
					<line style="fill:none;stroke:#000000;stroke-linecap:round;stroke-linejoin:round;stroke-miterlimit:10;" x1="1743.44" y1="1006.48" x2="1743.36" y2="822.4"></line>
			</g>
		</g>
	</g>
	<g>
		
			<line style="fill:none;stroke:#000000;stroke-linecap:round;stroke-linejoin:round;stroke-miterlimit:10;" x1="1357.23" y1="734.28" x2="1357.12" y2="477.83"></line>
		<g>
			<g>
				<polygon style="fill:none;stroke:#000000;stroke-linecap:round;stroke-linejoin:round;stroke-miterlimit:10;" points="
					1350.23,734.28 1350.23,484.79 1070.86,484.79 1070.86,372.38 1468.68,372.38 1468.68,734.28 				"></polygon>
				
					<line style="fill:none;stroke:#000000;stroke-linecap:round;stroke-linejoin:round;stroke-miterlimit:10;" x1="1357.12" y1="477.83" x2="1070.86" y2="477.91"></line>
			</g>
		</g>
	</g>
</g>
<g id="floor">
	<g>
		
			<rect x="1426.27" y="1771.35" style="fill:none;stroke:#000000;stroke-linecap:round;stroke-linejoin:round;stroke-miterlimit:10;" width="356.8" height="54.41"></rect>
		
			<rect x="1426.27" y="1794.38" transform="matrix(-1 4.453181e-11 -4.453181e-11 -1 3209.3357 3604.7183)" style="fill:none;stroke:#000000;stroke-linecap:round;stroke-linejoin:round;stroke-miterlimit:10;" width="356.8" height="15.95"></rect>
		
			<rect x="1541.54" y="1794.38" transform="matrix(-1 4.434929e-11 -4.434929e-11 -1 3099.9814 3604.7183)" style="fill:none;stroke:#000000;stroke-linecap:round;stroke-linejoin:round;stroke-miterlimit:10;" width="16.9" height="15.95"></rect>
		
			<rect x="1426.27" y="1794.38" transform="matrix(-1 4.349797e-11 -4.349797e-11 -1 2861.6116 3604.7183)" style="fill:none;stroke:#000000;stroke-linecap:round;stroke-linejoin:round;stroke-miterlimit:10;" width="9.07" height="15.95"></rect>
		
			<rect x="1773.99" y="1794.38" transform="matrix(-1 4.510158e-11 -4.510158e-11 -1 3557.0596 3604.7183)" style="fill:none;stroke:#000000;stroke-linecap:round;stroke-linejoin:round;stroke-miterlimit:10;" width="9.07" height="15.95"></rect>
	</g>
	<g>
		
			<rect x="776.06" y="1771.35" style="fill:none;stroke:#000000;stroke-linecap:round;stroke-linejoin:round;stroke-miterlimit:10;" width="356.8" height="54.41"></rect>
		
			<rect x="776.06" y="1794.38" transform="matrix(-1 4.453181e-11 -4.453181e-11 -1 1908.9182 3604.7183)" style="fill:none;stroke:#000000;stroke-linecap:round;stroke-linejoin:round;stroke-miterlimit:10;" width="356.8" height="15.95"></rect>
		
			<rect x="891.33" y="1794.38" transform="matrix(-1 4.434929e-11 -4.434929e-11 -1 1799.5641 3604.7183)" style="fill:none;stroke:#000000;stroke-linecap:round;stroke-linejoin:round;stroke-miterlimit:10;" width="16.9" height="15.95"></rect>
		
			<rect x="776.06" y="1794.38" transform="matrix(-1 4.349797e-11 -4.349797e-11 -1 1561.1942 3604.7183)" style="fill:none;stroke:#000000;stroke-linecap:round;stroke-linejoin:round;stroke-miterlimit:10;" width="9.07" height="15.95"></rect>
		
			<rect x="1123.78" y="1794.38" transform="matrix(-1 4.510158e-11 -4.510158e-11 -1 2256.6423 3604.7183)" style="fill:none;stroke:#000000;stroke-linecap:round;stroke-linejoin:round;stroke-miterlimit:10;" width="9.07" height="15.95"></rect>
	</g>
	<g>
		
			<rect x="244.53" y="1771.28" style="fill:none;stroke:#000000;stroke-linecap:round;stroke-linejoin:round;stroke-miterlimit:10;" width="356.29" height="54.41"></rect>
		
			<rect x="244.53" y="1794.32" transform="matrix(-1 4.459532e-11 -4.459532e-11 -1 845.343 3604.5891)" style="fill:none;stroke:#000000;stroke-linecap:round;stroke-linejoin:round;stroke-miterlimit:10;" width="356.29" height="15.95"></rect>
		
			<rect x="359.64" y="1794.32" transform="matrix(-1 4.430533e-11 -4.430533e-11 -1 736.1454 3604.5891)" style="fill:none;stroke:#000000;stroke-linecap:round;stroke-linejoin:round;stroke-miterlimit:10;" width="16.87" height="15.95"></rect>
		
			<rect x="244.53" y="1794.32" transform="matrix(-1 4.335986e-11 -4.335986e-11 -1 498.1169 3604.5891)" style="fill:none;stroke:#000000;stroke-linecap:round;stroke-linejoin:round;stroke-miterlimit:10;" width="9.06" height="15.95"></rect>
		
			<rect x="591.75" y="1794.32" transform="matrix(-1 4.536714e-11 -4.536714e-11 -1 1192.569 3604.5891)" style="fill:none;stroke:#000000;stroke-linecap:round;stroke-linejoin:round;stroke-miterlimit:10;" width="9.06" height="15.95"></rect>
	</g>
	<g>
		<path style="fill:none;stroke:#000000;stroke-linecap:round;stroke-linejoin:round;stroke-miterlimit:10;" d="M496.18,356.3
			c0-99.89-80.81-182.05-180.71-182.05V356.3"></path>
		
			<rect x="304.72" y="356.3" style="fill:none;stroke:#000000;stroke-linecap:round;stroke-linejoin:round;stroke-miterlimit:10;" width="10.76" height="17.97"></rect>
		
			<rect x="496.18" y="356.3" style="fill:none;stroke:#000000;stroke-linecap:round;stroke-linejoin:round;stroke-miterlimit:10;" width="10.76" height="17.97"></rect>
	</g>
	<g>
		<path style="fill:none;stroke:#000000;stroke-linecap:round;stroke-linejoin:round;stroke-miterlimit:10;" d="M528.82,704.42
			c-77.93,0-142.02-63.04-142.02-140.97h142.02"></path>
		
			<rect x="531.63" y="552.25" transform="matrix(-2.063365e-06 1 -1 -2.063365e-06 1095.0839 23.4334)" style="fill:none;stroke:#000000;stroke-linecap:round;stroke-linejoin:round;stroke-miterlimit:10;" width="8.4" height="14.02"></rect>
		
			<rect x="531.63" y="701.61" transform="matrix(-2.063367e-06 1 -1 -2.063367e-06 1244.4479 172.7983)" style="fill:none;stroke:#000000;stroke-linecap:round;stroke-linejoin:round;stroke-miterlimit:10;" width="8.4" height="14.02"></rect>
	</g>
	<g>
		<path style="fill:none;stroke:#000000;stroke-linecap:round;stroke-linejoin:round;stroke-miterlimit:10;" d="M1548.87,814.77
			c0,78.04,63.13,142.22,141.17,142.22V814.77"></path>
		
			<rect x="1690.03" y="800.73" transform="matrix(-1 2.063321e-06 -2.063321e-06 -1 3388.4697 1615.4935)" style="fill:none;stroke:#000000;stroke-linecap:round;stroke-linejoin:round;stroke-miterlimit:10;" width="8.41" height="14.04"></rect>
		
			<rect x="1540.46" y="800.73" transform="matrix(-1 2.063323e-06 -2.063323e-06 -1 3089.3289 1615.4945)" style="fill:none;stroke:#000000;stroke-linecap:round;stroke-linejoin:round;stroke-miterlimit:10;" width="8.41" height="14.04"></rect>
	</g>
	<g>
		<path style="fill:none;stroke:#000000;stroke-linecap:round;stroke-linejoin:round;stroke-miterlimit:10;" d="M919.53,982.43
			c0,87.36-70.67,159.21-158.03,159.21V982.43"></path>
		
			<rect x="752.09" y="966.72" style="fill:none;stroke:#000000;stroke-linecap:round;stroke-linejoin:round;stroke-miterlimit:10;" width="9.41" height="15.71"></rect>
		
			<rect x="919.53" y="966.72" style="fill:none;stroke:#000000;stroke-linecap:round;stroke-linejoin:round;stroke-miterlimit:10;" width="9.41" height="15.71"></rect>
	</g>
	<g>
		<path style="fill:none;stroke:#000000;stroke-linecap:round;stroke-linejoin:round;stroke-miterlimit:10;" d="M1301.33,932.33
			c87.36,0,159.21-70.67,159.21-158.03h-159.21"></path>
		
			<rect x="1288.76" y="761.74" transform="matrix(2.063320e-06 1 -1 2.063320e-06 2063.0654 -523.8755)" style="fill:none;stroke:#000000;stroke-linecap:round;stroke-linejoin:round;stroke-miterlimit:10;" width="9.41" height="15.71"></rect>
		
			<rect x="1288.77" y="929.18" transform="matrix(2.063324e-06 1 -1 2.063324e-06 2230.5032 -356.4388)" style="fill:none;stroke:#000000;stroke-linecap:round;stroke-linejoin:round;stroke-miterlimit:10;" width="9.41" height="15.71"></rect>
	</g>
	<g>
		<path style="fill:none;stroke:#000000;stroke-linecap:round;stroke-linejoin:round;stroke-miterlimit:10;" d="M1249.39,736.06
			c0-77.69-62.85-141.58-140.54-141.58v141.58"></path>
		
			<rect x="1100.49" y="736.06" style="fill:none;stroke:#000000;stroke-linecap:round;stroke-linejoin:round;stroke-miterlimit:10;" width="8.37" height="13.97"></rect>
		
			<rect x="1249.39" y="736.06" style="fill:none;stroke:#000000;stroke-linecap:round;stroke-linejoin:round;stroke-miterlimit:10;" width="8.37" height="13.97"></rect>
	</g>
	
		<line style="fill:none;stroke:#000000;stroke-linecap:round;stroke-linejoin:round;stroke-miterlimit:10;stroke-dasharray:10,10;" x1="524.04" y1="741.71" x2="270.72" y2="741.71"></line>
	
		<line style="fill:none;stroke:#000000;stroke-linecap:round;stroke-linejoin:round;stroke-miterlimit:10;stroke-dasharray:10,10;" x1="1503.25" y1="1096.07" x2="1290.57" y2="1096.07"></line>
	
		<line style="fill:none;stroke:#000000;stroke-linecap:round;stroke-linejoin:round;stroke-miterlimit:10;stroke-dasharray:10,10;" x1="733.28" y1="985.01" x2="733.28" y2="731.7"></line>
	<g>
		<g id="LWPOLYLINE_249_">
			
				<rect x="155.14" y="996.22" style="fill:none;stroke:#000000;stroke-linecap:round;stroke-linejoin:round;stroke-miterlimit:10;" width="118.17" height="118.17"></rect>
		</g>
		<g id="LWPOLYLINE_248_">
			
				<line style="fill:none;stroke:#000000;stroke-linecap:round;stroke-linejoin:round;stroke-miterlimit:10;" x1="184.69" y1="1065.15" x2="184.69" y2="1104.54"></line>
		</g>
		<g id="LWPOLYLINE_247_">
			
				<line style="fill:none;stroke:#000000;stroke-linecap:round;stroke-linejoin:round;stroke-miterlimit:10;" x1="204.39" y1="1084.84" x2="164.99" y2="1084.84"></line>
		</g>
		<g id="CIRCLE_255_">
			<path style="fill:none;stroke:#000000;stroke-linecap:round;stroke-linejoin:round;stroke-miterlimit:10;" d="M168.94,1084.84
				c0,8.7,7.06,15.76,15.76,15.76c8.7,0,15.76-7.06,15.76-15.76c0-8.7-7.06-15.76-15.76-15.76
				C175.99,1069.08,168.94,1076.14,168.94,1084.84L168.94,1084.84z"></path>
		</g>
		<g id="LWPOLYLINE_238_">
			
				<line style="fill:none;stroke:#000000;stroke-linecap:round;stroke-linejoin:round;stroke-miterlimit:10;" x1="184.69" y1="1006.06" x2="184.69" y2="1045.45"></line>
		</g>
		<g id="LWPOLYLINE_229_">
			
				<line style="fill:none;stroke:#000000;stroke-linecap:round;stroke-linejoin:round;stroke-miterlimit:10;" x1="204.39" y1="1025.76" x2="164.99" y2="1025.76"></line>
		</g>
		<g id="CIRCLE_254_">
			<path style="fill:none;stroke:#000000;stroke-linecap:round;stroke-linejoin:round;stroke-miterlimit:10;" d="M168.94,1025.75
				c0,8.71,7.06,15.76,15.76,15.76c8.71,0,15.76-7.06,15.76-15.76c0-8.71-7.06-15.76-15.76-15.76
				C175.99,1009.99,168.94,1017.05,168.94,1025.75L168.94,1025.75z"></path>
		</g>
		<g id="LWPOLYLINE_220_">
			
				<line style="fill:none;stroke:#000000;stroke-linecap:round;stroke-linejoin:round;stroke-miterlimit:10;" x1="243.77" y1="1006.06" x2="243.77" y2="1045.45"></line>
		</g>
		<g id="LWPOLYLINE_211_">
			
				<line style="fill:none;stroke:#000000;stroke-linecap:round;stroke-linejoin:round;stroke-miterlimit:10;" x1="263.47" y1="1025.76" x2="224.08" y2="1025.76"></line>
		</g>
		<g id="CIRCLE_253_">
			<path style="fill:none;stroke:#000000;stroke-linecap:round;stroke-linejoin:round;stroke-miterlimit:10;" d="M228.02,1025.75
				c0,8.71,7.06,15.76,15.76,15.76c8.71,0,15.76-7.06,15.76-15.76c0-8.71-7.06-15.76-15.76-15.76
				C235.08,1009.99,228.02,1017.05,228.02,1025.75L228.02,1025.75z"></path>
		</g>
		<g id="LWPOLYLINE_202_">
			
				<line style="fill:none;stroke:#000000;stroke-linecap:round;stroke-linejoin:round;stroke-miterlimit:10;" x1="243.77" y1="1065.15" x2="243.77" y2="1104.54"></line>
		</g>
		<g id="LWPOLYLINE_193_">
			
				<line style="fill:none;stroke:#000000;stroke-linecap:round;stroke-linejoin:round;stroke-miterlimit:10;" x1="263.47" y1="1084.84" x2="224.08" y2="1084.84"></line>
		</g>
		<g id="CIRCLE_252_">
			<path style="fill:none;stroke:#000000;stroke-linecap:round;stroke-linejoin:round;stroke-miterlimit:10;" d="M228.02,1084.84
				c0,8.7,7.06,15.76,15.76,15.76s15.76-7.06,15.76-15.76c0-8.7-7.06-15.76-15.76-15.76S228.02,1076.14,228.02,1084.84
				L228.02,1084.84z"></path>
		</g>
	</g>
	<g>
		<g id="LWPOLYLINE_184_">
			
				<rect x="155.15" y="750.04" style="fill:none;stroke:#000000;stroke-linecap:round;stroke-linejoin:round;stroke-miterlimit:10;" width="118.17" height="118.17"></rect>
		</g>
		<g id="LWPOLYLINE_147_">
			<path style="fill:none;stroke:#000000;stroke-linecap:round;stroke-linejoin:round;stroke-miterlimit:10;" d="M256.57,858.36
				l-74.79,0c-3.81,0-6.89-3.08-6.9-6.89c0,0,0-84.69,0-84.69c0-3.81,3.09-6.89,6.89-6.9c0,0,74.8,0,74.8,0
				c3.81,0,6.89,3.08,6.89,6.89c0,0,0,84.69,0,84.69C263.46,855.27,260.38,858.36,256.57,858.36z"></path>
		</g>
		<g id="LWPOLYLINE_138_">
			<path style="fill:none;stroke:#000000;stroke-linecap:round;stroke-linejoin:round;stroke-miterlimit:10;" d="M200.95,828.81
				c0,3.82-3.09,6.91-6.91,6.91c-3.82,0-6.91-3.09-6.91-6.91c0-3.82,3.09-6.91,6.91-6.91C197.86,821.91,200.95,825,200.95,828.81z"></path>
		</g>
	</g>
	<g>
		<g>
			<g id="LWPOLYLINE_511_">
				<path style="fill:none;stroke:#000000;stroke-linecap:round;stroke-linejoin:round;stroke-miterlimit:10;" d="M1825.26,661.2
					l-55.25,0c-7.78,0-14.68-4.92-17.06-12.17c-8.66-26.33-8.66-54.66,0-80.99c2.39-7.26,9.28-12.17,17.06-12.18l55.25-0.01"></path>
			</g>
			<g id="LWPOLYLINE_510_">
				<path style="fill:none;stroke:#000000;stroke-linecap:round;stroke-linejoin:round;stroke-miterlimit:10;" d="M1809.8,580.44
					c0-5.82-4.82-10.53-10.76-10.53l-17.22,0c-3.94,0-7.42,2.52-8.57,6.21c-6.61,21.13-6.61,43.71,0,64.83
					c1.16,3.69,4.63,6.2,8.57,6.21l17.22,0c5.94,0,10.76-4.72,10.76-10.54"></path>
			</g>
			<g id="LWPOLYLINE_509_">
				<path style="fill:none;stroke:#000000;stroke-linecap:round;stroke-linejoin:round;stroke-miterlimit:10;" d="M1799.04,654.18
					l-29.03,0c-4.67,0-8.81-2.95-10.24-7.3c-8.2-24.93-8.2-51.76,0-76.69c1.43-4.35,5.57-7.3,10.24-7.31l29.03,0
					c5.94,0,10.76,4.71,10.76,10.53l0,70.23C1809.8,649.46,1804.98,654.18,1799.04,654.18z"></path>
			</g>
			<g id="LWPOLYLINE_508_">
				<path style="fill:none;stroke:#000000;stroke-linecap:round;stroke-linejoin:round;stroke-miterlimit:10;" d="M1806.6,608.53
					c0,2.61-2.16,4.73-4.82,4.73c-2.67,0-4.82-2.12-4.82-4.73c0-2.61,2.16-4.72,4.82-4.72
					C1804.44,603.8,1806.6,605.92,1806.6,608.53z"></path>
			</g>
		</g>
		<g>
			<g id="LWPOLYLINE_507_">
				<path style="fill:none;stroke:#000000;stroke-linecap:round;stroke-linejoin:round;stroke-miterlimit:10;" d="M1612.12,456.5
					l0,56.58c0,19.69-16.29,35.65-36.4,35.65c-20.1,0-36.4-15.96-36.41-35.65l0-56.58c0-4.92,4.07-8.91,9.1-8.91l54.61,0
					C1608.05,447.59,1612.12,451.58,1612.12,456.5z"></path>
			</g>
			<g id="LWPOLYLINE_506_">
				<path style="fill:none;stroke:#000000;stroke-linecap:round;stroke-linejoin:round;stroke-miterlimit:10;" d="M1546.59,513.08
					l0.01-31.65c0-15.75,13.04-28.51,29.12-28.52c16.08,0,29.13,12.77,29.13,28.52l-0.01,31.65c0,15.75-13.03,28.51-29.12,28.52
					C1559.64,541.6,1546.6,528.84,1546.59,513.08z"></path>
			</g>
			<g id="LWPOLYLINE_505_">
				<path style="fill:none;stroke:#000000;stroke-linecap:round;stroke-linejoin:round;stroke-miterlimit:10;" d="M1564.79,501.61
					l0.01-23.13c0-5.91,4.89-10.69,10.92-10.69c6.03,0,10.92,4.79,10.92,10.69l-0.01,23.13c0,5.91-4.89,10.69-10.92,10.69
					C1569.69,512.3,1564.8,507.52,1564.79,501.61z"></path>
			</g>
		</g>
		<g>
			<path style="fill:none;stroke:#000000;stroke-linecap:round;stroke-linejoin:round;stroke-miterlimit:10;" d="M1675.73,504.71
				c0,19.17,15.55,34.7,34.7,34.7"></path>
			<path style="fill:none;stroke:#000000;stroke-linecap:round;stroke-linejoin:round;stroke-miterlimit:10;" d="M1667.05,504.71
				c0,23.96,19.42,43.38,43.38,43.38"></path>
			<path style="fill:none;stroke:#000000;stroke-linecap:round;stroke-linejoin:round;stroke-miterlimit:10;" d="M1797.21,410.99
				c-3.82,0-6.94,3.1-6.94,6.94s3.11,6.94,6.94,6.94c3.84,0,6.95-3.1,6.95-6.94S1801.05,410.99,1797.21,410.99z"></path>
			<path style="fill:none;stroke:#000000;stroke-linecap:round;stroke-linejoin:round;stroke-miterlimit:10;" d="M1814.58,413.59
				c0-7.18-5.82-13.02-13.02-13.02"></path>
			<path style="fill:none;stroke:#000000;stroke-linecap:round;stroke-linejoin:round;stroke-miterlimit:10;" d="M1801.56,539.41
				c7.18,0,13.02-5.82,13.02-13.02"></path>
			<path style="fill:none;stroke:#000000;stroke-linecap:round;stroke-linejoin:round;stroke-miterlimit:10;" d="M1688.74,400.58
				c-7.18,0-13.02,5.82-13.02,13.02"></path>
			
				<line style="fill:none;stroke:#000000;stroke-linecap:round;stroke-linejoin:round;stroke-miterlimit:10;" x1="1688.74" y1="400.58" x2="1801.56" y2="400.58"></line>
			
				<line style="fill:none;stroke:#000000;stroke-linecap:round;stroke-linejoin:round;stroke-miterlimit:10;" x1="1675.73" y1="504.71" x2="1675.73" y2="413.59"></line>
			
				<line style="fill:none;stroke:#000000;stroke-linecap:round;stroke-linejoin:round;stroke-miterlimit:10;" x1="1801.56" y1="539.41" x2="1710.45" y2="539.41"></line>
			
				<line style="fill:none;stroke:#000000;stroke-linecap:round;stroke-linejoin:round;stroke-miterlimit:10;" x1="1814.58" y1="413.59" x2="1814.58" y2="526.41"></line>
			
				<line style="fill:none;stroke:#000000;stroke-linecap:round;stroke-linejoin:round;stroke-miterlimit:10;" x1="1823.26" y1="548.09" x2="1710.44" y2="548.09"></line>
			
				<line style="fill:none;stroke:#000000;stroke-linecap:round;stroke-linejoin:round;stroke-miterlimit:10;" x1="1667.05" y1="504.71" x2="1667.05" y2="391.89"></line>
			
				<line style="fill:none;stroke:#000000;stroke-linecap:round;stroke-linejoin:round;stroke-miterlimit:10;" x1="1667.05" y1="391.9" x2="1667.05" y2="504.71"></line>
			<path style="fill:none;stroke:#000000;stroke-linecap:round;stroke-linejoin:round;stroke-miterlimit:10;" d="M1667.05,504.71
				c0,23.96,19.42,43.38,43.38,43.38"></path>
			
				<line style="fill:none;stroke:#000000;stroke-linecap:round;stroke-linejoin:round;stroke-miterlimit:10;" x1="1710.44" y1="548.09" x2="1823.25" y2="548.09"></line>
			
				<line style="fill:none;stroke:#000000;stroke-linecap:round;stroke-linejoin:round;stroke-miterlimit:10;" x1="1667.05" y1="391.9" x2="1823.26" y2="391.9"></line>
			
				<line style="fill:none;stroke:#000000;stroke-linecap:round;stroke-linejoin:round;stroke-miterlimit:10;" x1="1823.26" y1="548.09" x2="1823.26" y2="391.89"></line>
			
				<line style="fill:none;stroke:#000000;stroke-linecap:round;stroke-linejoin:round;stroke-miterlimit:10;" x1="1667.93" y1="391.9" x2="1823.26" y2="391.9"></line>
		</g>
	</g>
	<g>
		<g>
			<g id="LWPOLYLINE_640_">
				<path style="fill:none;stroke:#000000;stroke-linecap:round;stroke-linejoin:round;stroke-miterlimit:10;" d="M838.55,392.16
					l-0.14,52.51c-0.02,7.4-4.71,13.93-11.61,16.18c-25.04,8.16-51.97,8.09-76.97-0.21c-6.89-2.29-11.55-8.85-11.53-16.25
					l0.13-52.51"></path>
			</g>
			<g id="LWPOLYLINE_639_">
				<path style="fill:none;stroke:#000000;stroke-linecap:round;stroke-linejoin:round;stroke-miterlimit:10;" d="M761.76,406.64
					c-5.53-0.01-10.02,4.55-10.04,10.2l-0.04,16.36c-0.01,3.74,2.37,7.05,5.88,8.16c20.06,6.33,41.52,6.39,61.61,0.16
					c3.51-1.09,5.91-4.38,5.92-8.13l0.04-16.36c0.01-5.65-4.46-10.24-9.99-10.25"></path>
			</g>
			<g id="LWPOLYLINE_638_">
				<path style="fill:none;stroke:#000000;stroke-linecap:round;stroke-linejoin:round;stroke-miterlimit:10;" d="M831.81,417.05
					l-0.07,27.59c-0.01,4.44-2.82,8.36-6.96,9.71c-23.71,7.73-49.21,7.66-72.88-0.2c-4.13-1.37-6.92-5.31-6.92-9.75l0.07-27.59
					c0.01-5.65,4.51-10.21,10.04-10.2l66.74,0.18C827.36,406.82,831.82,411.41,831.81,417.05z"></path>
			</g>
			<g id="LWPOLYLINE_637_">
				<path style="fill:none;stroke:#000000;stroke-linecap:round;stroke-linejoin:round;stroke-miterlimit:10;" d="M788.44,409.76
					c2.48,0.01,4.49,2.06,4.48,4.6c-0.01,2.53-2.03,4.58-4.51,4.57c-2.48-0.01-4.48-2.06-4.48-4.6
					C783.95,411.8,785.97,409.75,788.44,409.76z"></path>
			</g>
		</g>
		<g>
			<g id="LWPOLYLINE_636_">
				
					<rect x="872.91" y="392.36" style="fill:none;stroke:#000000;stroke-linecap:round;stroke-linejoin:round;stroke-miterlimit:10;" width="136.09" height="335.22"></rect>
			</g>
			<g id="LWPOLYLINE_635_">
				<path style="fill:none;stroke:#000000;stroke-linecap:round;stroke-linejoin:round;stroke-miterlimit:10;" d="M883.8,682.15
					l0-219.49c0-32.23,25.59-58.36,57.15-58.35c31.57,0,57.16,26.13,57.16,58.37l0,219.49c0,15.4-12.13,27.94-27.21,28.12
					l-59.88-0.01c-15.03,0-27.22-12.45-27.22-27.8"></path>
			</g>
			<g id="LWPOLYLINE_634_">
				<path style="fill:none;stroke:#000000;stroke-linecap:round;stroke-linejoin:round;stroke-miterlimit:10;" d="M899.35,612.76
					l0-150.1c0-23.47,18.63-42.49,41.61-42.48c22.98,0,41.6,19.03,41.6,42.49l0,147.91c-0.02,22.6-17.35,41.24-39.46,42.42
					C920.14,654.22,900.55,636.21,899.35,612.76z"></path>
			</g>
			<g id="LWPOLYLINE_633_">
				<path style="fill:none;stroke:#000000;stroke-linecap:round;stroke-linejoin:round;stroke-miterlimit:10;" d="M940.96,454.88
					c4.21,0,7.62,3.48,7.62,7.78c0,4.3-3.41,7.78-7.62,7.78c-4.21,0-7.62-3.49-7.62-7.78C933.34,458.37,936.75,454.88,940.96,454.88
					z"></path>
			</g>
		</g>
		<g>
			<g id="LWPOLYLINE_632_">
				<path style="fill:none;stroke:#000000;stroke-linecap:round;stroke-linejoin:round;stroke-miterlimit:10;" d="M589.03,458.67
					l0.01,55.09c0,19.17,15.87,34.71,35.44,34.71c19.57,0,35.44-15.54,35.44-34.71l-0.01-55.09c0-4.79-3.97-8.67-8.86-8.68l-53.17,0
					C592.99,449.99,589.03,453.88,589.03,458.67z"></path>
			</g>
			<g id="LWPOLYLINE_631_">
				<path style="fill:none;stroke:#000000;stroke-linecap:round;stroke-linejoin:round;stroke-miterlimit:10;" d="M652.83,513.76
					l-0.01-30.81c0-15.33-12.69-27.76-28.35-27.76c-15.66,0-28.36,12.43-28.36,27.77l0.01,30.81c0,15.33,12.69,27.76,28.35,27.76
					C640.13,541.52,652.83,529.09,652.83,513.76z"></path>
			</g>
			<g id="LWPOLYLINE_630_">
				<path style="fill:none;stroke:#000000;stroke-linecap:round;stroke-linejoin:round;stroke-miterlimit:10;" d="M635.11,502.59
					l-0.01-22.52c0-5.75-4.76-10.41-10.63-10.41s-10.63,4.66-10.63,10.41l0.01,22.52c0,5.75,4.76,10.41,10.63,10.41
					C630.35,513,635.11,508.34,635.11,502.59z"></path>
			</g>
		</g>
		<g>
			<g id="LWPOLYLINE_629_">
				
					<rect x="728.22" y="638.28" style="fill:none;stroke:#000000;stroke-linecap:round;stroke-linejoin:round;stroke-miterlimit:10;" width="118.43" height="88.83"></rect>
			</g>
			<g>
				<g id="LWPOLYLINE_628_">
					<polyline style="fill:none;stroke:#000000;stroke-linecap:round;stroke-linejoin:round;stroke-miterlimit:10;" points="
						753.34,655.86 787.4,696.44 787.48,668.95 821.54,709.53 					"></polyline>
				</g>
				<g id="LWPOLYLINE_627_">
					<path style="fill:none;stroke:#000000;stroke-linecap:round;stroke-linejoin:round;stroke-miterlimit:10;" d="M787.52,652.15
						c16.52,0.05,29.87,13.75,29.83,30.62c-0.04,16.87-13.47,30.51-29.99,30.47c-16.52-0.05-29.88-13.76-29.84-30.63
						C757.57,665.74,771,652.11,787.52,652.15z"></path>
				</g>
			</g>
		</g>
	</g>
	<g>
		<rect x="100" y="328.97" style="fill:#020200;" width="55.14" height="1496.79"></rect>
		<rect x="1848.79" y="328.97" style="fill:#020200;" width="51.21" height="1496.79"></rect>
		<rect x="100" y="1771.35" style="fill:#020200;" width="145.74" height="54.41"></rect>
		<rect x="599.75" y="1771.35" style="fill:#020200;" width="176.85" height="54.41"></rect>
		<rect x="1132" y="1771.35" style="fill:#020200;" width="294.87" height="54.41"></rect>
		<rect x="1782.9" y="1771.35" style="fill:#020200;" width="117.1" height="54.41"></rect>
		<rect x="100" y="328.97" style="fill:#020200;" width="206.79" height="45.3"></rect>
		<rect x="506.94" y="328.97" style="fill:#020200;" width="1391.17" height="45.3"></rect>
		<rect x="519.5" y="358.6" style="fill:#020200;" width="23.34" height="196.46"></rect>
		<rect x="523.24" y="435.06" style="fill:#020200;" width="179.12" height="14.93"></rect>
		<rect x="687.69" y="369.49" style="fill:#020200;" width="14.67" height="80.5"></rect>
		<rect x="538.01" y="363.18" style="fill:#020200;" width="504.95" height="28.71"></rect>
		<rect x="1023.68" y="343.74" style="fill:#020200;" width="47.27" height="406.3"></rect>
		<rect x="1009" y="374.26" style="fill:#020200;" width="16.54" height="364.65"></rect>
		<rect x="519.5" y="726.7" style="fill:#020200;" width="529.78" height="23.34"></rect>
		<rect x="519.5" y="712.62" style="fill:#020200;" width="23.34" height="36.48"></rect>
		<rect x="1059.2" y="734.28" style="fill:#020200;" width="41.28" height="15.76"></rect>
		<rect x="1258.08" y="734.28" style="fill:#020200;" width="225.52" height="15.76"></rect>
		<rect x="1468.68" y="355.79" style="fill:#020200;" width="18.41" height="468.49"></rect>
		<rect x="1468.68" y="800.95" style="fill:#020200;" width="71.89" height="23.34"></rect>
		<rect x="1698.71" y="800.95" style="fill:#020200;" width="170.81" height="23.34"></rect>
		<rect x="1477.34" y="366.02" style="fill:#020200;" width="379.42" height="25.87"></rect>
		<rect x="1649.67" y="368.84" style="fill:#020200;" width="17.38" height="81.14"></rect>
		<rect x="1483.6" y="435.32" style="fill:#020200;" width="183.46" height="14.67"></rect>
		<rect x="1823.28" y="384.7" style="fill:#020200;" width="34.19" height="422.72"></rect>
		<rect x="1500.29" y="1080.31" style="fill:#020200;" width="359.53" height="15.76"></rect>
		<rect x="1285.62" y="742.16" style="fill:#020200;" width="15.76" height="24.36"></rect>
		<rect x="1285.62" y="941.74" style="fill:#020200;" width="15.76" height="420.79"></rect>
		<rect x="1258.04" y="1295.97" style="fill:#020200;" width="43.33" height="493.73"></rect>
		<rect x="726.29" y="966.68" style="fill:#020200;" width="25.6" height="15.76"></rect>
		<rect x="929.14" y="966.68" style="fill:#020200;" width="367.92" height="15.76"></rect>
		<rect x="726.29" y="946.98" style="fill:#020200;" width="15.76" height="841.35"></rect>
		<rect x="149.24" y="676.67" style="fill:#020200;" width="125.02" height="14.02"></rect>
		<rect x="259.66" y="676.67" style="fill:#020200;" width="14.6" height="73.36"></rect>
		<rect x="152.18" y="736.06" style="fill:#020200;" width="122.08" height="13.98"></rect>
	</g>
</g>
</svg>
