<?xml version="1.0" encoding="utf-8"?>
<!-- Generator: Adobe Illustrator 25.0.0, SVG Export Plug-In . SVG Version: 6.00 Build 0)  -->
<svg version="1.0" id="Layer_1" xmlns="http://www.w3.org/2000/svg" xmlns:xlink="http://www.w3.org/1999/xlink" x="0px" y="0px" width="2000px" height="2000px" viewBox="0 0 2000 2000" style="enable-background:new 0 0 2000 2000;" xml:space="preserve">
<path id="background" style="fill-rule:evenodd;clip-rule:evenodd;fill:#FFFFFF;" d="M1899.99,1093.34v112.81l0,0l-40.08,40.08
	l0.26,0.25l-0.36,0.36l-194.98,193.88l0.61,0.61l-42.82,42.82l0,0H1333.6h-14.02h-41.1v0.18h-260.92v-0.29H884.58v0.52H601.4v-0.52
	H467.61v0.21H184.44v-0.42H99.99v-27.86v-14.21V498.29v-35.48v-13.23h472.53h2.93h699.82v12.79h5.05V316.05h0.5
	c81.06,0,147.1,65.49,148.01,146.33h5.43v-12.59h382.37h33.96h49.4v499.74h0.07v143.81H1899.99z"></path>
<g id="h1">
	<path id="h1_path" style="fill:none;" d="M753.77,699.64h191.27l-1.08,137.72l-191.27,0.01L753.77,699.64z"></path>
	<text id="h1_text" transform="matrix(1 0 0 1 816.7347 774.7618)" style="font-family: GraphikLCG-Regular; font-size: 40px; text-anchor: middle; text-align: center;"></text>
</g>
<g id="h2">
	<path id="h2_path" style="fill:none;" d="M1288.81,512.16h176.58V679.7l-176.58,0.01V512.16z"></path>
	<text id="h2_text" transform="matrix(1 0 0 1 1347.7439 597.9601)" style="font-family: GraphikLCG-Regular; font-size: 40px; text-anchor: middle; text-align: center;"></text>
</g>
<g id="c1">
	<path id="c1_path" style="fill:none;" d="M1343.46,1139.57h-303.62V982.04h303.62V1139.57z"></path>
	
		<text id="c1_text" transform="matrix(1 0 0 1 1099.3708 1052.0431)" style="font-family: GraphikLCG-Regular; font-size: 40px; text-anchor: middle; text-align: center;"></text>
</g>
<g id="r1">
	<path id="r1_path" style="fill:none;" d="M849.52,1119.11h-0.04l0.09,108.06l-276.73-0.04v-235.7h276.69V1119.11z"></path>
	
		<text id="r1_text" transform="matrix(1 0 0 1 675.0828 1071.7618)" style="font-family: GraphikLCG-Regular; font-size: 40px; text-anchor: middle; text-align: center;"></text>
</g>
<g id="s1">
	<path id="s1_path" style="fill:none;" d="M424.13,688.32H237.79V586.7h186.34V688.32z"></path>
	<text id="s1_text" transform="matrix(1 0 0 1 331.7371 646.7921)" style="font-family: GraphikLCG-Regular; font-size: 40px; text-anchor: middle; text-align: center;"></text>
</g>
<g id="r2">
	<path id="r2_path" style="fill:none;" d="M148.34,853.52l378.76,0.02v161.85l0,0v42.52H148.34L148.34,853.52z"></path>
	<text id="r2_text" transform="matrix(1 0 0 1 315.18 970.7023)" style="font-family: GraphikLCG-Regular; font-size: 40px; text-anchor: middle; text-align: center;"></text>
</g>
<g id="s2">
	<path id="s2_path" style="fill:none;" d="M1815.15,737.46h-269.14V572.69h269.14V737.46z"></path>
	<text id="s2_text" transform="matrix(1 0 0 1 1599.1619 661.9376)" style="font-family: GraphikLCG-Regular; font-size: 40px; text-anchor: middle; text-align: center;"></text>
</g>
<g id="g2">
	<path id="g2_path" style="fill:none;" d="M565.34,815H353.56V691.91h211.78V815z"></path>
	<text id="g2_text" transform="matrix(1 0 0 1 420.6697 793.7921)" style="font-family: GraphikLCG-Regular; font-size: 40px; text-anchor: middle; text-align: center;"></text>
</g>
<g id="g1">
	<path id="g1_path" style="fill:none;" d="M1153.14,659.41H998.89V558.89h154.24V659.41z"></path>
	<text id="g1_text" transform="matrix(1 0 0 1 1070.0212 625.4874)" style="font-family: GraphikLCG-Regular; font-size: 40px; text-anchor: middle; text-align: center;"></text>
</g>
<g id="p1">
	<path id="p1_path" style="fill:none;" d="M836.4,655.08H592.32V554.55H836.4V655.08z"></path>
	<text id="p1_text" transform="matrix(1 0 0 1 713.3846 623.0411)" style="font-family: GraphikLCG-Regular; font-size: 40px; text-anchor: middle; text-align: center;"></text>
</g>
<path id="u7" style="fill:#FFFFFF;stroke:#FFFFFF;stroke-miterlimit:10;" d="M1584.09,1292.99c0,4.72-3.83,8.55-8.55,8.55
	s-8.55-3.83-8.55-8.55s3.83-8.55,8.55-8.55S1584.09,1288.27,1584.09,1292.99z"></path>
<path id="u9" style="fill:#FFFFFF;stroke:#FFFFFF;stroke-miterlimit:10;" d="M1577.26,524.5c0,4.72-3.83,8.55-8.55,8.55
	c-4.72,0-8.55-3.83-8.55-8.55c0-4.72,3.83-8.55,8.55-8.55C1573.44,515.95,1577.26,519.78,1577.26,524.5z"></path>
<path id="u3" style="fill:#FFFFFF;stroke:#FFFFFF;stroke-miterlimit:10;" d="M1053.62,586.7c0,4.72-3.83,8.55-8.55,8.55
	s-8.55-3.83-8.55-8.55c0-4.72,3.83-8.55,8.55-8.55S1053.62,581.97,1053.62,586.7z"></path>
<path id="u4" style="fill:#FFFFFF;stroke:#FFFFFF;stroke-miterlimit:10;" d="M639.04,604.64c0,4.72-3.83,8.55-8.55,8.55
	c-4.72,0-8.55-3.83-8.55-8.55c0-4.72,3.83-8.55,8.55-8.55C635.21,596.09,639.04,599.92,639.04,604.64z"></path>
<path id="u1" style="fill:#FFFFFF;stroke:#FFFFFF;stroke-miterlimit:10;" d="M320.99,1391.82c0,4.72-3.83,8.55-8.55,8.55
	c-4.72,0-8.55-3.83-8.55-8.55c0-4.72,3.83-8.55,8.55-8.55C317.16,1383.27,320.99,1387.1,320.99,1391.82z"></path>
<g id="mebel">
	<g>
		<g>
			<polyline style="fill:none;stroke:#000000;stroke-miterlimit:10;" points="876.61,477.69 935.44,477.69 935.44,634.66 
				876.61,634.66 876.61,550.36 			"></polyline>
			<line style="fill:none;stroke:#000000;stroke-miterlimit:10;" x1="884.65" y1="634.48" x2="884.59" y2="542.32"></line>
		</g>
		<line style="fill:none;stroke:#000000;stroke-miterlimit:10;" x1="876.61" y1="572" x2="935.44" y2="572"></line>
	</g>
	<g>
		<g>
			<rect x="130.26" y="668.83" style="fill:none;stroke:#000000;stroke-miterlimit:10;" width="92.61" height="171.58"></rect>
			<line style="fill:none;stroke:#000000;stroke-miterlimit:10;" x1="214.82" y1="668.83" x2="214.88" y2="840.4"></line>
		</g>
		<line style="fill:none;stroke:#000000;stroke-miterlimit:10;" x1="222.86" y1="783.47" x2="130.26" y2="783.47"></line>
		<line style="fill:none;stroke:#000000;stroke-miterlimit:10;" x1="222.86" y1="726.54" x2="130.25" y2="726.54"></line>
	</g>
	<g>
		<g>
			<rect x="1278.69" y="738.77" style="fill:none;stroke:#000000;stroke-miterlimit:10;" width="248.71" height="92.61"></rect>
			<line style="fill:none;stroke:#000000;stroke-miterlimit:10;" x1="1278.7" y1="746.82" x2="1527.39" y2="746.76"></line>
		</g>
		<line style="fill:none;stroke:#000000;stroke-miterlimit:10;" x1="1444.87" y1="738.77" x2="1444.87" y2="831.38"></line>
		<line style="fill:none;stroke:#000000;stroke-miterlimit:10;" x1="1362.35" y1="738.77" x2="1362.35" y2="831.39"></line>
	</g>
	<g>
		<g>
			<rect x="1167.03" y="478.39" style="fill:none;stroke:#000000;stroke-miterlimit:10;" width="92.61" height="188.95"></rect>
			<line style="fill:none;stroke:#000000;stroke-miterlimit:10;" x1="1251.59" y1="478.4" x2="1251.65" y2="667.33"></line>
		</g>
		<line style="fill:none;stroke:#000000;stroke-miterlimit:10;" x1="1259.64" y1="604.64" x2="1167.03" y2="604.64"></line>
		<line style="fill:none;stroke:#000000;stroke-miterlimit:10;" x1="1259.64" y1="541.95" x2="1167.02" y2="541.95"></line>
	</g>
	<g>
		<g>
			<polyline style="fill:none;stroke:#000000;stroke-miterlimit:10;" points="876.61,550.36 668.51,550.36 668.51,473.94 
				877.14,477.69 			"></polyline>
			<line style="fill:none;stroke:#000000;stroke-miterlimit:10;" x1="668.51" y1="542.38" x2="884.62" y2="542.32"></line>
		</g>
		<line style="fill:none;stroke:#000000;stroke-miterlimit:10;" x1="737.56" y1="550.36" x2="737.56" y2="473.94"></line>
		<line style="fill:none;stroke:#000000;stroke-miterlimit:10;" x1="806.61" y1="550.36" x2="806.61" y2="473.93"></line>
	</g>
	<g>
		<g>
			<rect x="546.48" y="840.42" style="fill:none;stroke:#000000;stroke-miterlimit:10;" width="222.42" height="92.61"></rect>
			<line style="fill:none;stroke:#000000;stroke-miterlimit:10;" x1="768.89" y1="924.98" x2="546.49" y2="925.04"></line>
		</g>
		<line style="fill:none;stroke:#000000;stroke-miterlimit:10;" x1="620.28" y1="933.03" x2="620.28" y2="840.42"></line>
		<line style="fill:none;stroke:#000000;stroke-miterlimit:10;" x1="694.09" y1="933.03" x2="694.09" y2="840.41"></line>
	</g>
	<g>
		<polygon style="fill:none;stroke:#000000;stroke-miterlimit:10;" points="1226.54,840.9 1319.76,840.9 1319.76,934.11 
			1226.54,934.12 		"></polygon>
		<g>
			<line style="fill:none;stroke:#000000;stroke-miterlimit:10;" x1="1273.15" y1="909.95" x2="1273.15" y2="865.07"></line>
			<line style="fill:none;stroke:#000000;stroke-miterlimit:10;" x1="1250.71" y1="887.51" x2="1295.59" y2="887.51"></line>
			<polyline style="fill:none;stroke:#000000;stroke-miterlimit:10;" points="1261.93,904.96 1273.15,898.73 1284.37,904.96 			"></polyline>
			<polyline style="fill:none;stroke:#000000;stroke-miterlimit:10;" points="1290.6,898.73 1284.37,887.51 1290.6,876.29 			"></polyline>
			<polyline style="fill:none;stroke:#000000;stroke-miterlimit:10;" points="1284.37,870.05 1273.15,876.29 1261.93,870.05 			"></polyline>
			<polyline style="fill:none;stroke:#000000;stroke-miterlimit:10;" points="1255.7,876.29 1261.93,887.51 1255.7,898.73 			"></polyline>
		</g>
	</g>
	<g>
		<polygon style="fill:none;stroke:#000000;stroke-miterlimit:10;" points="1617.27,934.12 1690.29,934.12 1690.29,840.71 
			1617.27,840.7 		"></polygon>
		<path style="fill:none;stroke:#000000;stroke-miterlimit:10;" d="M1652.56,867.85l10.38,22.56c0.56,1.38,0.88,2.9,0.88,4.49
			c0,6.4-5.04,11.59-11.25,11.59c-6.21,0-11.25-5.19-11.25-11.59c0-1.59,0.31-3.11,0.88-4.49L1652.56,867.85z"></path>
	</g>
	<g>
		<g>
			<path style="fill:none;stroke:#000000;stroke-miterlimit:10;" d="M1573.94,863.14l-1.16,4.71c-0.36-0.16-0.72-0.3-1.11-0.4
				c-0.39-0.1-0.78-0.14-1.17-0.17l1.16-4.71c0.09-0.37,0.46-0.59,0.82-0.5l0.96,0.24C1573.81,862.41,1574.03,862.78,1573.94,863.14
				z"></path>
			<circle style="fill:none;stroke:#000000;stroke-miterlimit:10;" cx="1570.09" cy="873.87" r="6.61"></circle>
		</g>
		<g>
			<path style="fill:none;stroke:#000000;stroke-miterlimit:10;" d="M1589.89,884.13l-1.16,4.71c-0.36-0.16-0.72-0.3-1.11-0.4
				s-0.78-0.14-1.17-0.17l1.16-4.71c0.09-0.37,0.46-0.59,0.82-0.5l0.96,0.24C1589.75,883.4,1589.98,883.77,1589.89,884.13z"></path>
			<circle style="fill:none;stroke:#000000;stroke-miterlimit:10;" cx="1586.03" cy="894.86" r="6.61"></circle>
		</g>
		<g>
			<path style="fill:none;stroke:#000000;stroke-miterlimit:10;" d="M1551.56,895.02l4.71,1.16c-0.16,0.36-0.3,0.72-0.4,1.11
				s-0.14,0.78-0.17,1.17l-4.71-1.16c-0.37-0.09-0.59-0.46-0.5-0.82l0.24-0.96C1550.83,895.15,1551.2,894.93,1551.56,895.02z"></path>
			<circle style="fill:none;stroke:#000000;stroke-miterlimit:10;" cx="1562.29" cy="898.88" r="6.61"></circle>
		</g>
	</g>
	<g>
		<g>
			<path style="fill:none;stroke:#000000;stroke-miterlimit:10;" d="M1386.29,875.16l0.53-0.77c0.86-1.24,1.28-2.7,1.44-4.2
				c0.12-1.11,0.65-2.18,1.61-2.99c1.42-1.18,3.48-1.39,5.09-0.48c2.61,1.48,3.08,4.86,1.21,6.98c-0.7,0.79-1.61,1.27-2.57,1.45
				c-1.4,0.26-2.68,0.95-3.74,1.9l-0.7,0.62c-0.95,0.85-0.94,2.33,0.01,3.17l2.67,2.35c1.46,1.29,1.6,3.52,0.31,4.98l-17.7,20.08
				c-1.29,1.46-3.52,1.6-4.98,0.31l-11.37-10.02c-1.46-1.29-1.6-3.52-0.31-4.98l17.7-20.08c1.29-1.46,3.52-1.6,4.98-0.31l2.67,2.35
				C1384.09,876.38,1385.56,876.2,1386.29,875.16z"></path>
			<circle style="fill:none;stroke:#000000;stroke-miterlimit:10;" cx="1392.7" cy="870.77" r="2.21"></circle>
		</g>
		<g>
			<path style="fill:none;stroke:#000000;stroke-miterlimit:10;" d="M1379.98,889.45l5.68-1.91c0.32-0.11,0.5-0.46,0.39-0.79
				l-2.78-8.26c-0.11-0.32-0.46-0.5-0.79-0.39l-5.68,1.91c-0.32,0.11-0.5,0.46-0.39,0.79l2.78,8.26
				C1379.31,889.39,1379.66,889.56,1379.98,889.45z"></path>
			<path style="fill:none;stroke:#000000;stroke-miterlimit:10;" d="M1373.74,896.54l5.68-1.91c0.32-0.11,0.5-0.46,0.39-0.79
				l-2.78-8.26c-0.11-0.32-0.46-0.5-0.79-0.39l-5.68,1.91c-0.32,0.11-0.5,0.46-0.39,0.79l2.78,8.26
				C1373.06,896.47,1373.41,896.65,1373.74,896.54z"></path>
			<path style="fill:none;stroke:#000000;stroke-miterlimit:10;" d="M1367.52,903.59l5.68-1.91c0.32-0.11,0.5-0.46,0.39-0.79
				l-2.78-8.26c-0.11-0.33-0.46-0.5-0.79-0.39l-5.68,1.91c-0.32,0.11-0.5,0.46-0.39,0.79l2.78,8.26
				C1366.84,903.52,1367.2,903.7,1367.52,903.59z"></path>
		</g>
	</g>
	<g>
		<g>
			<g>
				<g>
					<path style="fill:none;stroke:#000000;stroke-miterlimit:10;" d="M1595.34,1180.86l17,13.83c10.64,8.65,26.08,7.93,35.86-1.69
						l1.11-1.09c9.77-9.61,10.77-25.02,2.31-35.8l-13.54-17.27L1595.34,1180.86z"></path>
					<path style="fill:none;stroke:#000000;stroke-miterlimit:10;" d="M1654.83,1147.59l2.99,3.81
						c10.83,13.81,9.55,33.55-2.96,45.85l-1.42,1.4c-12.52,12.31-32.3,13.24-45.92,2.16l-3.73-3.03c-1.8-1.47-1.93-4.17-0.27-5.8
						l0,0c1.41-1.39,3.65-1.5,5.19-0.24l3.64,2.96c10.64,8.65,26.08,7.93,35.86-1.69l1.11-1.09c9.77-9.61,10.77-25.02,2.31-35.8
						l-2.92-3.72c-1.22-1.56-1.08-3.79,0.33-5.17l0,0C1650.7,1145.59,1653.4,1145.77,1654.83,1147.59z"></path>
				</g>
				<g>
					<path style="fill:none;stroke:#000000;stroke-miterlimit:10;" d="M1544.83,1044.03l-17-13.83
						c-10.64-8.65-26.08-7.93-35.86,1.69l-1.11,1.09c-9.77,9.61-10.77,25.02-2.31,35.8l13.54,17.27L1544.83,1044.03z"></path>
					<path style="fill:none;stroke:#000000;stroke-miterlimit:10;" d="M1485.34,1077.3l-2.99-3.81
						c-10.83-13.81-9.55-33.55,2.96-45.85l1.42-1.4c12.52-12.31,32.3-13.24,45.92-2.16l3.73,3.03c1.8,1.47,1.93,4.17,0.27,5.8l0,0
						c-1.41,1.39-3.65,1.5-5.19,0.24l-3.64-2.96c-10.64-8.65-26.08-7.93-35.86,1.69l-1.11,1.09c-9.77,9.61-10.77,25.02-2.31,35.8
						l2.92,3.72c1.22,1.56,1.08,3.79-0.33,5.17l0,0C1489.48,1079.3,1486.78,1079.13,1485.34,1077.3z"></path>
				</g>
				<g>
					<path style="fill:none;stroke:#000000;stroke-miterlimit:10;" d="M1501.67,1137.7l-13.83,17c-8.65,10.64-7.93,26.08,1.69,35.86
						l1.09,1.11c9.61,9.77,25.02,10.77,35.8,2.31l17.27-13.54L1501.67,1137.7z"></path>
					<path style="fill:none;stroke:#000000;stroke-miterlimit:10;" d="M1534.94,1197.19l-3.81,2.99
						c-13.81,10.83-33.55,9.55-45.85-2.96l-1.4-1.42c-12.31-12.52-13.24-32.3-2.16-45.92l3.03-3.73c1.47-1.8,4.17-1.93,5.8-0.27l0,0
						c1.39,1.41,1.5,3.65,0.24,5.19l-2.96,3.64c-8.65,10.64-7.93,26.08,1.69,35.86l1.09,1.11c9.61,9.77,25.02,10.77,35.8,2.31
						l3.72-2.92c1.56-1.22,3.79-1.08,5.17,0.33l0,0C1536.94,1193.06,1536.77,1195.76,1534.94,1197.19z"></path>
				</g>
				<g>
					<path style="fill:none;stroke:#000000;stroke-miterlimit:10;" d="M1638.5,1087.19l13.83-17c8.65-10.64,7.93-26.08-1.69-35.86
						l-1.09-1.11c-9.61-9.77-25.02-10.77-35.8-2.31l-17.27,13.54L1638.5,1087.19z"></path>
					<path style="fill:none;stroke:#000000;stroke-miterlimit:10;" d="M1605.23,1027.7l3.81-2.99c13.81-10.83,33.55-9.55,45.85,2.96
						l1.4,1.42c12.31,12.52,13.24,32.3,2.16,45.92l-3.03,3.73c-1.47,1.8-4.17,1.93-5.8,0.27v0c-1.39-1.41-1.5-3.65-0.24-5.19
						l2.96-3.64c8.65-10.64,7.93-26.08-1.69-35.86l-1.09-1.11c-9.61-9.77-25.02-10.77-35.8-2.31l-3.72,2.92
						c-1.56,1.22-3.79,1.08-5.17-0.33l0,0C1603.23,1031.84,1603.41,1029.14,1605.23,1027.7z"></path>
				</g>
			</g>
			<circle style="fill:#FFFFFF;stroke:#000000;stroke-miterlimit:10;" cx="1569.82" cy="1112.18" r="73.38"></circle>
		</g>
		<g>
			<g>
				<g>
					<circle style="fill:none;stroke:#000000;stroke-miterlimit:10;" cx="1540.13" cy="1077.51" r="13.53"></circle>
				</g>
				<g>
					<circle style="fill:none;stroke:#000000;stroke-miterlimit:10;" cx="1540.13" cy="1077.51" r="7.71"></circle>
				</g>
				<g>
					
						<ellipse transform="matrix(0.7489 -0.6626 0.6626 0.7489 -346.4712 1287.506)" style="fill:none;stroke:#000000;stroke-miterlimit:10;" cx="1525.84" cy="1100.98" rx="2.1" ry="3.41"></ellipse>
					<line style="fill:none;stroke:#000000;stroke-miterlimit:10;" x1="1523.58" y1="1098.43" x2="1513.71" y2="1087.26"></line>
				</g>
				<g>
					<path style="fill:none;stroke:#000000;stroke-miterlimit:10;" d="M1564.3,1071.5l-2.26-2.55c-1.25-1.41-2.96-1.93-3.83-1.16
						c-0.87,0.77-0.56,2.53,0.69,3.94l2.26,2.55"></path>
					<line style="fill:none;stroke:#000000;stroke-miterlimit:10;" x1="1558.21" y1="1067.79" x2="1548.34" y2="1056.62"></line>
				</g>
				<line style="fill:none;stroke:#000000;stroke-miterlimit:10;" x1="1562.73" y1="1072.89" x2="1558.21" y2="1067.79"></line>
				<g>
					<path style="fill:none;stroke:#000000;stroke-miterlimit:10;" d="M1523.61,1090.67l2.44-2.16l8.35,9.44l-1.68,1.49
						c-0.42,0.37-1.06,0.33-1.43-0.09L1523.61,1090.67z"></path>
					<path style="fill:none;stroke:#000000;stroke-miterlimit:10;" d="M1517.95,1083.5l1.68-1.49c0.21-0.19,0.53-0.17,0.71,0.04
						l5.7,6.45l-2.44,2.16l-5.7-6.45C1517.72,1084.01,1517.74,1083.69,1517.95,1083.5z"></path>
				</g>
			</g>
			<g>
				<g>
					<circle style="fill:none;stroke:#000000;stroke-miterlimit:10;" cx="1596.42" cy="1147.79" r="13.53"></circle>
				</g>
				<g>
					<circle style="fill:none;stroke:#000000;stroke-miterlimit:10;" cx="1596.42" cy="1147.79" r="7.71"></circle>
				</g>
				<g>
					
						<ellipse transform="matrix(0.749 -0.6626 0.6626 0.749 -340.6405 1349.5565)" style="fill:none;stroke:#000000;stroke-miterlimit:10;" cx="1610.71" cy="1124.33" rx="2.1" ry="3.41"></ellipse>
					<line style="fill:none;stroke:#000000;stroke-miterlimit:10;" x1="1612.97" y1="1126.88" x2="1622.84" y2="1138.04"></line>
				</g>
				<g>
					<path style="fill:none;stroke:#000000;stroke-miterlimit:10;" d="M1572.25,1153.8l2.26,2.55c1.25,1.41,2.96,1.93,3.83,1.16
						c0.87-0.77,0.56-2.53-0.69-3.94l-2.26-2.55"></path>
					<line style="fill:none;stroke:#000000;stroke-miterlimit:10;" x1="1578.33" y1="1157.52" x2="1588.21" y2="1168.68"></line>
				</g>
				<line style="fill:none;stroke:#000000;stroke-miterlimit:10;" x1="1573.82" y1="1152.41" x2="1578.33" y2="1157.52"></line>
				<g>
					<path style="fill:none;stroke:#000000;stroke-miterlimit:10;" d="M1612.94,1134.64l-2.44,2.16l-8.35-9.44l1.68-1.49
						c0.42-0.37,1.06-0.33,1.43,0.09L1612.94,1134.64z"></path>
					<path style="fill:none;stroke:#000000;stroke-miterlimit:10;" d="M1618.6,1141.8l-1.68,1.49c-0.21,0.19-0.53,0.17-0.71-0.04
						l-5.7-6.45l2.44-2.16l5.7,6.45C1618.83,1141.3,1618.81,1141.62,1618.6,1141.8z"></path>
				</g>
			</g>
			<g>
				<g>
					<circle style="fill:none;stroke:#000000;stroke-miterlimit:10;" cx="1534.45" cy="1139.57" r="13.53"></circle>
				</g>
				<g>
					<circle style="fill:none;stroke:#000000;stroke-miterlimit:10;" cx="1534.45" cy="1139.57" r="7.71"></circle>
				</g>
				<g>
					
						<ellipse transform="matrix(0.749 -0.6626 0.6626 0.749 -373.4642 1321.9481)" style="fill:none;stroke:#000000;stroke-miterlimit:10;" cx="1557.92" cy="1153.86" rx="3.41" ry="2.1"></ellipse>
					<line style="fill:none;stroke:#000000;stroke-miterlimit:10;" x1="1555.36" y1="1156.11" x2="1544.2" y2="1165.99"></line>
				</g>
				<g>
					<path style="fill:none;stroke:#000000;stroke-miterlimit:10;" d="M1528.44,1115.4l-2.55,2.26c-1.41,1.25-1.93,2.96-1.16,3.83
						s2.53,0.56,3.94-0.69l2.55-2.26"></path>
					<line style="fill:none;stroke:#000000;stroke-miterlimit:10;" x1="1524.73" y1="1121.48" x2="1513.56" y2="1131.36"></line>
				</g>
				<line style="fill:none;stroke:#000000;stroke-miterlimit:10;" x1="1529.83" y1="1116.97" x2="1524.73" y2="1121.48"></line>
				<g>
					<path style="fill:none;stroke:#000000;stroke-miterlimit:10;" d="M1547.6,1156.08l-2.16-2.44l9.44-8.35l1.49,1.68
						c0.37,0.42,0.33,1.06-0.09,1.43L1547.6,1156.08z"></path>
					<path style="fill:none;stroke:#000000;stroke-miterlimit:10;" d="M1540.44,1161.74l-1.49-1.68c-0.19-0.21-0.17-0.53,0.04-0.71
						l6.45-5.7l2.16,2.44l-6.45,5.7C1540.95,1161.97,1540.63,1161.95,1540.44,1161.74z"></path>
				</g>
			</g>
			<g>
				<g>
					<circle style="fill:none;stroke:#000000;stroke-miterlimit:10;" cx="1602.46" cy="1083.48" r="13.53"></circle>
				</g>
				<g>
					<circle style="fill:none;stroke:#000000;stroke-miterlimit:10;" cx="1602.46" cy="1083.48" r="7.71"></circle>
				</g>
				<g>
					
						<ellipse transform="matrix(0.749 -0.6626 0.6626 0.749 -312.0728 1314.6633)" style="fill:none;stroke:#000000;stroke-miterlimit:10;" cx="1579" cy="1069.19" rx="3.41" ry="2.1"></ellipse>
					<line style="fill:none;stroke:#000000;stroke-miterlimit:10;" x1="1581.55" y1="1066.93" x2="1592.71" y2="1057.06"></line>
				</g>
				<g>
					<path style="fill:none;stroke:#000000;stroke-miterlimit:10;" d="M1608.47,1107.65l2.55-2.26c1.41-1.25,1.93-2.96,1.16-3.83
						c-0.77-0.87-2.53-0.56-3.94,0.69l-2.55,2.26"></path>
					<line style="fill:none;stroke:#000000;stroke-miterlimit:10;" x1="1612.19" y1="1101.57" x2="1623.35" y2="1091.69"></line>
				</g>
				<line style="fill:none;stroke:#000000;stroke-miterlimit:10;" x1="1607.09" y1="1106.08" x2="1612.19" y2="1101.57"></line>
				<g>
					<path style="fill:none;stroke:#000000;stroke-miterlimit:10;" d="M1589.31,1066.96l2.16,2.44l-9.44,8.35l-1.49-1.68
						c-0.37-0.42-0.33-1.06,0.09-1.43L1589.31,1066.96z"></path>
					<path style="fill:none;stroke:#000000;stroke-miterlimit:10;" d="M1596.47,1061.3l1.49,1.68c0.19,0.21,0.17,0.53-0.04,0.71
						l-6.45,5.7l-2.16-2.44l6.45-5.7C1595.97,1061.07,1596.29,1061.09,1596.47,1061.3z"></path>
				</g>
			</g>
		</g>
		<g>
			<path style="fill:none;stroke:#000000;stroke-miterlimit:10;" d="M1592.77,1109.54l-32.22,24.42c-1.36,1.03-3.3,0.77-4.34-0.6
				l-9.98-13.16c-1.03-1.36-0.77-3.3,0.6-4.34l32.22-24.42c1.36-1.03,3.3-0.77,4.34,0.6l9.98,13.16
				C1594.41,1106.57,1594.14,1108.51,1592.77,1109.54z"></path>
			<circle style="fill:none;stroke:#000000;stroke-miterlimit:10;" cx="1557.59" cy="1119.3" r="4.27"></circle>
			<circle style="fill:none;stroke:#000000;stroke-miterlimit:10;" cx="1567.27" cy="1119.99" r="4.27"></circle>
			<circle style="fill:none;stroke:#000000;stroke-miterlimit:10;" cx="1564.44" cy="1110.75" r="4.27"></circle>
			<path style="fill:none;stroke:#000000;stroke-miterlimit:10;" d="M1574.91,1097.12l-0.87,0.42l1.77,3.31
				c1.31,7.39-3.64,10.93-6.19,13.14c-0.59,0.51-0.14,1.48,0.63,1.37c2.73-0.41,6.8-1.66,8.63-5.42c2.09-4.3-0.52-7.8-2.12-9.4
				L1574.91,1097.12z"></path>
			<path style="fill:none;stroke:#000000;stroke-miterlimit:10;" d="M1583.23,1101.37l-0.96,0.15l0.73,3.69
				c-0.9,7.45-6.67,9.4-9.75,10.77c-0.71,0.32-0.57,1.38,0.21,1.49c2.73,0.4,6.99,0.39,9.83-2.67c3.25-3.5,1.77-7.61,0.71-9.61
				L1583.23,1101.37z"></path>
		</g>
	</g>
	<g>
		<g>
			<polygon style="fill:none;stroke:#000000;stroke-miterlimit:10;" points="1147.56,694.42 1152.14,697.43 1151.21,702.86 
				1142.94,697.42 			"></polygon>
			<g>
				
					<rect x="1142.65" y="697.58" transform="matrix(0.5497 -0.8354 0.8354 0.5497 -71.0205 1273.3115)" style="fill:none;stroke:#000000;stroke-miterlimit:10;" width="5.72" height="9.89"></rect>
				<polygon style="fill:none;stroke:#000000;stroke-miterlimit:10;" points="1134.33,711.11 1123.58,730.86 1128.16,733.88 
					1142.05,716.19 				"></polygon>
			</g>
			<line style="fill:none;stroke:#000000;stroke-miterlimit:10;" x1="1129.5" y1="726.85" x2="1125.87" y2="732.37"></line>
			<path style="fill:none;stroke:#000000;stroke-miterlimit:10;" d="M1120.26,728.68l3.32,2.18l3.18-5.81l-2.87-1.89
				c-1.52-1-3.57-0.58-4.57,0.94l0,0C1118.32,725.63,1118.74,727.68,1120.26,728.68z"></path>
			<path style="fill:none;stroke:#000000;stroke-miterlimit:10;" d="M1131.48,736.06l-3.32-2.18l4.08-5.22l2.87,1.89
				c1.52,1,1.95,3.05,0.94,4.57l0,0C1135.05,736.64,1133,737.06,1131.48,736.06z"></path>
			<path style="fill:none;stroke:#000000;stroke-miterlimit:10;" d="M1158.46,726.99l-40.54-26.68c-0.62-0.41-0.79-1.24-0.38-1.86
				l4.27-6.49c0.41-0.62,1.24-0.79,1.86-0.38l40.54,26.68c0.62,0.41,0.79,1.24,0.38,1.86l-4.27,6.49
				C1159.91,727.22,1159.08,727.4,1158.46,726.99z"></path>
		</g>
		<g>
			<circle style="fill:none;stroke:#000000;stroke-miterlimit:10;" cx="1193.3" cy="706.59" r="13.64"></circle>
			<g>
				<path style="fill:none;stroke:#000000;stroke-miterlimit:10;" d="M1201.06,717.05c-4.08,1.03-8.7-3.37-10.33-9.82
					c-1.63-6.45,0.35-12.52,4.43-13.55c0.93-0.24,1.89-0.17,2.84,0.12c-2.49-0.92-5.27-1.12-8.04-0.42
					c-7.3,1.84-11.73,9.26-9.88,16.56c1.84,7.3,9.26,11.73,16.56,9.88c2.84-0.72,5.23-2.28,7-4.34
					C1202.92,716.24,1202.05,716.8,1201.06,717.05z"></path>
			</g>
			<path style="fill:none;stroke:#000000;stroke-miterlimit:10;" d="M1200.33,717.17c-3.89,0.37-8.07-3.87-9.6-9.95
				c-1.53-6.06,0.12-11.77,3.7-13.3"></path>
			<path style="fill:none;stroke:#000000;stroke-miterlimit:10;" d="M1190.42,693.25c-4.21,1.06-6.12,7.84-4.28,15.15
				c1.84,7.3,6.75,12.36,10.95,11.3"></path>
		</g>
	</g>
	<g>
		<g>
			<path style="fill:none;stroke:#000000;stroke-miterlimit:10;" d="M638.27,975.27l6.97,19.84l-8.49,2.98
				c-1.72-4.9-7.09-7.48-11.99-5.76s-7.48,7.09-5.76,11.99l-7.72,2.71l-6.97-19.84L638.27,975.27z"></path>
			
				<rect x="618.28" y="1002.32" transform="matrix(-0.9485 -0.3168 0.3168 -0.9485 894.4734 2175.4043)" style="fill:none;stroke:#000000;stroke-miterlimit:10;" width="11.57" height="25.35"></rect>
			<g>
				
					<rect x="578.31" y="977.69" transform="matrix(-0.8654 0.5011 -0.5011 -0.8654 1592.5276 1547.722)" style="fill:none;stroke:#000000;stroke-miterlimit:10;" width="20.14" height="20.14"></rect>
				<line style="fill:none;stroke:#000000;stroke-miterlimit:10;" x1="592.05" y1="974" x2="584.71" y2="1001.52"></line>
				<line style="fill:none;stroke:#000000;stroke-miterlimit:10;" x1="574.62" y1="984.09" x2="602.15" y2="991.43"></line>
			</g>
			<path style="fill:none;stroke:#000000;stroke-miterlimit:10;" d="M646.84,1005.71l10.95-13.32c-0.83-0.49-1.27-1.48-0.95-2.43
				c0.37-1.09,1.55-1.68,2.64-1.32c1.09,0.37,1.68,1.55,1.32,2.64c-0.32,0.95-1.26,1.48-2.22,1.37l0.75,17.23L646.84,1005.71z"></path>
			<path style="fill:none;stroke:#000000;stroke-miterlimit:10;" d="M591.57,1032.34l0.48-17.24c-0.96,0.13-1.91-0.39-2.24-1.34
				c-0.38-1.09,0.19-2.28,1.28-2.66c1.09-0.38,2.28,0.19,2.66,1.28c0.33,0.95-0.09,1.94-0.91,2.44l11.16,13.15L591.57,1032.34z"></path>
			<circle style="fill:none;stroke:#000000;stroke-miterlimit:10;" cx="626.9" cy="1041.44" r="6.09"></circle>
		</g>
		<polygon style="fill:none;stroke:#000000;stroke-miterlimit:10;" points="636.83,1010.29 648.83,1010.28 654.84,1020.66 
			648.85,1031.05 636.86,1031.07 630.85,1020.69 		"></polygon>
	</g>
	<g>
		<g>
			<g>
				<g>
					<g>
						<g>
							<g>
								
									<rect x="14.37" y="1206.07" transform="matrix(-3.253903e-06 1 -1 -3.253903e-06 1349.7479 1072.1232)" style="fill:none;stroke:#000000;stroke-miterlimit:10;" width="248.88" height="9.74"></rect>
								
									<rect x="174.19" y="1055.98" transform="matrix(-3.115783e-06 1 -1 -3.115783e-06 1509.5706 912.3021)" style="fill:none;stroke:#000000;stroke-miterlimit:10;" width="248.88" height="309.91"></rect>
								<path style="fill:none;stroke:#000000;stroke-miterlimit:10;" d="M201.21,1206.58l0,8.57l-27.92,0
									c-8.35,0-15.12,6.03-15.12,13.46l0,74.64c0,7.44,6.77,13.46,15.12,13.46l27.92,0l0,8.57l-48.88,0
									c-2.09,0-3.78-1.51-3.78-3.37l0-221.96c0-1.86,1.69-3.37,3.78-3.37l48.88,0l0,8.57l-27.92,0c-8.35,0-15.12,6.03-15.12,13.46
									l0,74.49c0,7.44,6.77,13.46,15.12,13.46L201.21,1206.58z"></path>
								<path style="fill:none;stroke:#000000;stroke-miterlimit:10;" d="M445.82,1097.34l0,227.19c0,0.41-0.33,0.75-0.75,0.75
									l-243.87,0l0-228.69l243.87,0C445.49,1096.59,445.82,1096.93,445.82,1097.34z"></path>
							</g>
						</g>
						
							<rect x="133.95" y="1335.38" transform="matrix(-1 -1.042985e-06 1.042985e-06 -1 333.7463 2727.7026)" style="fill:none;stroke:#000000;stroke-miterlimit:10;" width="65.86" height="56.95"></rect>
						
							<rect x="133.95" y="1029.54" transform="matrix(-1 -1.042985e-06 1.042985e-06 -1 333.7466 2116.0312)" style="fill:none;stroke:#000000;stroke-miterlimit:10;" width="65.86" height="56.95"></rect>
					</g>
				</g>
			</g>
			<g>
				<g>
					<circle style="fill:#FFFFFF;stroke:#000000;stroke-miterlimit:10;" cx="169.5" cy="1364.43" r="17.08"></circle>
					<circle style="fill:#FFFFFF;stroke:#000000;stroke-miterlimit:10;" cx="169.5" cy="1364.43" r="6.09"></circle>
				</g>
				<line style="fill:#FFFFFF;stroke:#000000;stroke-miterlimit:10;" x1="163.41" y1="1364.43" x2="175.6" y2="1364.43"></line>
				<line style="fill:#FFFFFF;stroke:#000000;stroke-miterlimit:10;" x1="169.5" y1="1358.34" x2="169.5" y2="1370.52"></line>
			</g>
			<g>
				<g>
					<circle style="fill:#FFFFFF;stroke:#000000;stroke-miterlimit:10;" cx="169.5" cy="1058.02" r="17.08"></circle>
					<circle style="fill:#FFFFFF;stroke:#000000;stroke-miterlimit:10;" cx="169.5" cy="1058.02" r="6.09"></circle>
				</g>
				<line style="fill:#FFFFFF;stroke:#000000;stroke-miterlimit:10;" x1="163.41" y1="1058.02" x2="175.6" y2="1058.02"></line>
				<line style="fill:#FFFFFF;stroke:#000000;stroke-miterlimit:10;" x1="169.5" y1="1051.92" x2="169.5" y2="1064.11"></line>
			</g>
		</g>
	</g>
	<g>
		<g>
			<g>
				
					<rect x="975.58" y="1150.48" transform="matrix(-1 1.985566e-06 -1.985566e-06 -1 1959.9253 2453.2996)" style="fill:none;stroke:#000000;stroke-miterlimit:10;" width="8.77" height="152.34"></rect>
				<polygon style="fill:none;stroke:#000000;stroke-miterlimit:10;" points="966.8,1286.97 975.58,1302.82 975.58,1150.48 
					966.8,1166.33 				"></polygon>
			</g>
		</g>
		<g>
			<rect x="966.8" y="1147.35" style="fill:none;stroke:#000000;stroke-miterlimit:10;" width="30.43" height="158.34"></rect>
		</g>
	</g>
	<g>
		<g>
			<g>
				<rect x="518.96" y="1143.36" style="fill:none;stroke:#000000;stroke-miterlimit:10;" width="8.77" height="152.34"></rect>
				<polygon style="fill:none;stroke:#000000;stroke-miterlimit:10;" points="536.5,1279.85 527.73,1295.7 527.73,1143.36 
					536.5,1159.2 				"></polygon>
			</g>
		</g>
	</g>
	<g>
		<g>
			<g>
				<path style="fill:none;stroke:#000000;stroke-miterlimit:10;" d="M1330.97,1248.51v157.05c0,0.59-0.48,1.07-1.07,1.07h-92.08
					c-0.59,0-1.07-0.48-1.07-1.07v-157.05c0-0.59,0.48-1.07,1.07-1.07h92.08C1330.49,1247.44,1330.97,1247.92,1330.97,1248.51z"></path>
				<path style="fill:none;stroke:#000000;stroke-miterlimit:10;" d="M1330.97,1248.51v157.05c0,0.59,0.48,1.07,1.07,1.07h35.87
					c0.59,0,1.07-0.48,1.07-1.07v-157.05c0-0.59-0.48-1.07-1.07-1.07h-35.87C1331.45,1247.44,1330.97,1247.92,1330.97,1248.51z"></path>
				<path style="fill:none;stroke:#000000;stroke-miterlimit:10;" d="M1330.97,1246.36v-152.55c0-0.59-0.48-1.07-1.07-1.07h-92.08
					c-0.59,0-1.07,0.48-1.07,1.07v152.55c0,0.59,0.48,1.07,1.07,1.07h92.08C1330.49,1247.44,1330.97,1246.96,1330.97,1246.36z"></path>
				<path style="fill:none;stroke:#000000;stroke-miterlimit:10;" d="M1330.97,1246.36v-152.55c0-0.59,0.48-1.07,1.07-1.07h35.87
					c0.59,0,1.07,0.48,1.07,1.07v152.55c0,0.59-0.48,1.07-1.07,1.07h-35.87C1331.45,1247.44,1330.97,1246.96,1330.97,1246.36z"></path>
			</g>
		</g>
		<g>
			<path style="fill:none;stroke:#000000;stroke-miterlimit:10;" d="M1264.64,1128.94l0.01,0c11.4-2.41,22.35-6.6,32.45-12.41
				l0.01-0.01c2.63-1.52,5.97-0.02,6.6,2.95l0,0.01c2.41,11.4,6.6,22.35,12.41,32.45l0.01,0.01c1.52,2.63,0.02,5.97-2.95,6.6
				l-0.01,0c-5.37,1.13-10.64,2.7-15.77,4.61c-0.29-6.54-0.07-13.1,0.68-19.62l0.44-3.85c0.2-1.72-1.34-3.13-3.04-2.79l-3.8,0.77
				c-8.16,1.65-16.53,2.01-24.8,1.05l-3.77-0.43c-0.49-0.9-0.92-1.84-1.43-2.73l-0.01-0.01
				C1260.18,1132.92,1261.67,1129.57,1264.64,1128.94z"></path>
			<path style="fill:none;stroke:#000000;stroke-miterlimit:10;" d="M1262.23,1187.51l0.44-3.85c1.48-12.86,0.93-25.87-1.64-38.55
				l-0.77-3.8c-0.34-1.7,1.07-3.24,2.79-3.04l3.85,0.44c8.27,0.95,16.64,0.6,24.8-1.05l3.8-0.77c1.7-0.34,3.24,1.07,3.04,2.79
				l-0.44,3.85c-1.48,12.86-0.93,25.87,1.64,38.55l0.77,3.8c0.34,1.7-1.07,3.24-2.79,3.04l-3.85-0.44
				c-8.27-0.95-16.64-0.6-24.8,1.05l-3.8,0.77C1263.57,1190.64,1262.03,1189.23,1262.23,1187.51z"></path>
		</g>
		<g>
			<path style="fill:none;stroke:#000000;stroke-miterlimit:10;" d="M1265.09,1368.88l0.01,0c11.4,2.41,22.35,6.6,32.45,12.41
				l0.01,0.01c2.63,1.52,5.97,0.02,6.6-2.95l0-0.01c2.41-11.4,6.6-22.35,12.41-32.45l0.01-0.01c1.52-2.63,0.02-5.97-2.95-6.6
				l-0.01,0c-5.37-1.13-10.64-2.7-15.77-4.61c-0.29,6.54-0.07,13.1,0.68,19.62l0.44,3.85c0.2,1.72-1.34,3.13-3.04,2.79l-3.8-0.77
				c-8.16-1.65-16.53-2.01-24.79-1.05l-3.77,0.43c-0.49,0.9-0.92,1.84-1.43,2.73l-0.01,0.01
				C1260.62,1364.91,1262.12,1368.25,1265.09,1368.88z"></path>
			<path style="fill:none;stroke:#000000;stroke-miterlimit:10;" d="M1262.67,1310.31l0.44,3.85c1.48,12.86,0.93,25.87-1.64,38.55
				l-0.77,3.8c-0.34,1.7,1.07,3.24,2.79,3.04l3.85-0.44c8.27-0.95,16.64-0.6,24.8,1.05l3.8,0.77c1.7,0.34,3.24-1.07,3.04-2.79
				l-0.44-3.85c-1.48-12.86-0.93-25.87,1.64-38.55l0.77-3.8c0.34-1.7-1.07-3.24-2.79-3.04l-3.85,0.44
				c-8.27,0.95-16.64,0.6-24.8-1.05l-3.8-0.77C1264.01,1307.18,1262.47,1308.59,1262.67,1310.31z"></path>
		</g>
	</g>
	<g>
		<g>
			<path style="fill:none;stroke:#000000;stroke-miterlimit:10;" d="M456.85,1399.88c-0.35-0.85-0.65-1.73-0.88-2.63"></path>
			<path style="fill:none;stroke:#000000;stroke-miterlimit:10;" d="M475.61,1372.41c1.45,0.03,2.92,0.22,4.38,0.59
				c0.33,0.08,0.65,0.17,0.97,0.27"></path>
		</g>
		<g>
			<path style="fill:none;stroke:#000000;stroke-miterlimit:10;" d="M477.11,1374.63c0.79,0.09,1.58,0.23,2.37,0.42"></path>
			<path style="fill:none;stroke:#000000;stroke-miterlimit:10;" d="M458.62,1398.59c-0.29-0.75-0.52-1.52-0.71-2.3"></path>
		</g>
		<g>
			<path style="fill:none;stroke:#000000;stroke-miterlimit:10;" d="M446.63,1379.59c-1.55,0.82-3.06,2-4.45,3.65
				c1.01,10.91,11.9,13.66,11.9,13.66c2.11,0.66,4.34-0.29,5.36-2.15"></path>
		</g>
		<line style="fill:none;stroke:#000000;stroke-miterlimit:10;" x1="448.55" y1="1385.58" x2="442.41" y2="1383.24"></line>
		<line style="fill:none;stroke:#000000;stroke-miterlimit:10;" x1="475.05" y1="1395.65" x2="464.46" y2="1391.62"></line>
		<g>
			<path style="fill:none;stroke:#000000;stroke-miterlimit:10;" d="M484.84,1392.04C484.84,1392.04,484.84,1392.04,484.84,1392.04
				C484.83,1392.04,484.82,1392.04,484.84,1392.04z"></path>
			<path style="fill:none;stroke:#000000;stroke-miterlimit:10;" d="M493.64,1403.82c4.85-2.85,13.27-9.6,13.02-22
				c-2.36-2.25-4.84-3.79-7.3-4.82"></path>
			<path style="fill:none;stroke:#000000;stroke-miterlimit:10;" d="M484.25,1391.69c-1.68,0.75-2.9,2.16-3.56,3.83"></path>
			<path style="fill:none;stroke:#000000;stroke-miterlimit:10;" d="M473.85,1384.27c-0.04,1.06,0.16,2.14,0.61,3.18
				c1.61,3.67,6.12,5.84,9.79,4.23c0.75-0.33,0.46-0.19,0.37-0.16"></path>
			<path style="fill:none;stroke:#000000;stroke-miterlimit:10;" d="M479.98,1377.13c-1.15,0.43-1.81,0.76-1.81,0.76"></path>
		</g>
		<line style="fill:none;stroke:#000000;stroke-miterlimit:10;" x1="475.17" y1="1395.65" x2="506.66" y2="1381.82"></line>
		<g>
			<path style="fill:none;stroke:#000000;stroke-miterlimit:10;" d="M463.87,1382.59C463.87,1382.59,463.87,1382.59,463.87,1382.59
				C463.88,1382.6,463.87,1382.6,463.87,1382.59z"></path>
			<path style="fill:none;stroke:#000000;stroke-miterlimit:10;" d="M464.74,1381.89C464.74,1381.89,464.74,1381.88,464.74,1381.89
				C464.75,1381.89,464.75,1381.9,464.74,1381.89z"></path>
			<path style="fill:none;stroke:#000000;stroke-miterlimit:10;" d="M452.84,1392.03c2.52,3.11,7.09,3.59,10.2,1.07
				s4.03-7.44,1.51-10.56c-0.52-0.64-0.31-0.39-0.25-0.31c-0.19-0.24-0.35-0.43-0.35-0.43s0.16,0.2,0.35,0.43
				c-0.07-0.07,0,0,0.25,0.31c2.17,2.66,6.15,3.14,9.2,1.64c0.51-0.25,0.99-0.56,1.44-0.92c3.11-2.52,3.59-7.09,1.07-10.2
				c0,0-0.17-0.24-0.51-0.64c-2.28-2.75-12.08-13.17-26.62-8.9C440.88,1378.81,452.84,1392.03,452.84,1392.03z"></path>
		</g>
		<line style="fill:none;stroke:#000000;stroke-miterlimit:10;" x1="475.17" y1="1395.65" x2="449.14" y2="1363.52"></line>
		<g>
			<path style="fill:none;stroke:#000000;stroke-miterlimit:10;" d="M461.44,1398.02c-1.45-0.23-2.98,0.24-4.06,1.4
				c0,0-8.11,7.78-3.59,17.76c3.83,1.43,7.23,1.12,10,0.18"></path>
		</g>
		<line style="fill:none;stroke:#000000;stroke-miterlimit:10;" x1="460.92" y1="1410" x2="453.79" y2="1417.17"></line>
		<line style="fill:none;stroke:#000000;stroke-miterlimit:10;" x1="475.17" y1="1395.65" x2="473.19" y2="1397.64"></line>
		<g>
			<path style="fill:none;stroke:#000000;stroke-miterlimit:10;" d="M475.73,1402.79C475.73,1402.79,475.73,1402.79,475.73,1402.79
				C475.73,1402.77,475.73,1402.78,475.73,1402.79z"></path>
			<path style="fill:none;stroke:#000000;stroke-miterlimit:10;" d="M474.6,1402.79C474.6,1402.79,474.61,1402.79,474.6,1402.79
				C474.61,1402.78,474.6,1402.77,474.6,1402.79z"></path>
			<path style="fill:none;stroke:#000000;stroke-miterlimit:10;" d="M482.99,1395.14c-4.01,0-7.82,3.25-7.82,7.25"></path>
			<path style="fill:none;stroke:#000000;stroke-miterlimit:10;" d="M475.17,1402.79c0.01,0.1,0,0,0-0.4
				c-0.01-4.01-3.81-7.25-7.82-7.25c-4.01,0-7.25,3.25-7.25,7.25c0,0-0.98,17.8,15.07,24.49c6.66-2.77,10.38-7.46,12.47-11.99"></path>
		</g>
		<line style="fill:none;stroke:#000000;stroke-miterlimit:10;" x1="475.17" y1="1409.16" x2="475.17" y2="1426.88"></line>
		<g>
			<path style="fill:none;stroke:#000000;stroke-miterlimit:10;" d="M482.33,1402.43C482.33,1402.43,482.33,1402.43,482.33,1402.43
				C482.32,1402.43,482.33,1402.43,482.33,1402.43z"></path>
			<path style="fill:none;stroke:#000000;stroke-miterlimit:10;" d="M481.83,1402.93C481.83,1402.93,481.83,1402.93,481.83,1402.93
				C481.82,1402.93,481.82,1402.93,481.83,1402.93z"></path>
			<path style="fill:none;stroke:#000000;stroke-miterlimit:10;" d="M488.63,1395.8c-1.78-1.79-4.67-1.79-6.46-0.01
				c-1.79,1.78-2.05,4.92-0.26,6.71c0.36,0.37,0.22,0.22,0.18,0.18c0.14,0.14,0.25,0.25,0.25,0.25s-0.11-0.11-0.25-0.25
				c0.05,0.04,0,0-0.18-0.18c-1.79-1.78-4.93-1.55-6.71,0.24c-1.79,1.78-1.79,4.67-0.01,6.46c0,0,7.48,8.38,17.61,4.23
				c1.57-3.78,1.38-7.2,0.54-10C491.9,1398.75,488.63,1395.8,488.63,1395.8z"></path>
		</g>
		<line style="fill:none;stroke:#000000;stroke-miterlimit:10;" x1="475.03" y1="1395.65" x2="492.79" y2="1413.44"></line>
		<g>
			<path style="fill:none;stroke:#000000;stroke-miterlimit:10;" d="M487.91,1379.07C487.91,1379.08,487.91,1379.08,487.91,1379.07
				C487.9,1379.08,487.91,1379.08,487.91,1379.07z"></path>
			<path style="fill:none;stroke:#000000;stroke-miterlimit:10;" d="M488.46,1379.52C488.46,1379.52,488.46,1379.52,488.46,1379.52
				C488.46,1379.53,488.46,1379.53,488.46,1379.52z"></path>
			<path style="fill:none;stroke:#000000;stroke-miterlimit:10;" d="M480.64,1373.52c-1.59,1.96-1.28,4.84,0.68,6.43
				c1.96,1.59,5.12,1.51,6.7-0.46c0.32-0.4,0.2-0.24,0.16-0.2c0.12-0.15,0.22-0.27,0.22-0.27s-0.1,0.12-0.22,0.27
				c0.04-0.05,0,0-0.16,0.2c-1.58,1.97-1.01,5.06,0.95,6.65c1.96,1.59,4.84,1.28,6.43-0.68c0,0,7.53-8.33,2.32-17.97
				C487.22,1364.41,480.64,1373.52,480.64,1373.52z"></path>
		</g>
		<line style="fill:none;stroke:#000000;stroke-miterlimit:10;" x1="475.23" y1="1395.65" x2="497.73" y2="1367.5"></line>
	</g>
	<g>
		<g>
			<path style="fill:none;stroke:#000000;stroke-miterlimit:10;" d="M762.61,775.94"></path>
			<path style="fill:none;stroke:#000000;stroke-miterlimit:10;" d="M750.54,803.01l1.46-1.47c0-0.01,0.01-0.02,0.02-0.03
				l-8.46-4.53l0.87,1.64l-10.08,3.81c-1.53,0.58-2.52,2.21-2.1,3.79c0.48,1.83,2.42,2.8,4.15,2.15l14.08-5.32
				C750.5,803.04,750.52,803.02,750.54,803.01z"></path>
			<path style="fill:none;stroke:#000000;stroke-miterlimit:10;" d="M739.15,784.09c0,0-2.79,2.32-2.37,5.5
				c0.36,2.71,2.04,4.77,4.31,6.07l0,0l0.2,0.11c0.1,0.06,0.21,0.11,0.31,0.17l10.43,5.58l-7.61,7.63
				c-1.16,1.16-1.38,3.05-0.35,4.32c1.19,1.47,3.36,1.56,4.67,0.24l10.63-10.65c1.14-1.14,1.02-3.03-0.26-4.02l-5.02-3.87
				c4.11-2.34,6.43-5.46,7.71-8.36c1.84-4.19,1.72-9.06-0.3-13.16c-0.05-0.1-0.09-0.18-0.14-0.25c-2.01-3.33-7.01-11.1-21.44-12.37
				c-15.99-1.42-25.22,5.8-29.36,10.31"></path>
			<path style="fill:none;stroke:#000000;stroke-miterlimit:10;" d="M780.87,754.09c-0.02-0.04-0.05-0.08-0.07-0.12
				c-0.11,0.14-0.22,0.28-0.34,0.42c0.85,2.66,1.16,5.03,0.58,7.98c-1.68,8.6-9.55,15.03-18.05,14.56
				c-0.11-0.01-0.21,0.03-0.32,0.05c0.26,1.12,0.4,2.27,0.41,3.42c9.1,0.56,17.45-5.74,19.2-14.88
				C783.06,761.51,782.52,757.52,780.87,754.09z"></path>
			<path style="fill:none;stroke:#000000;stroke-miterlimit:10;" d="M704.06,782.44l-2.8-6.9l-26.23,9.18
				c-3.93,1.27-5.96-4.46-2.07-5.93c0,0,29.39-10.28,29.39-10.28l8.21,2.82l6.35,2.18"></path>
			<line style="fill:none;stroke:#000000;stroke-miterlimit:10;" x1="748.81" y1="776.05" x2="731.04" y2="790.84"></line>
			<path style="fill:none;stroke:#000000;stroke-miterlimit:10;" d="M710.88,772.56"></path>
			<g>
				<g>
					<g>
						<path style="fill:none;stroke:#000000;stroke-miterlimit:10;" d="M705.06,777.76c-1.13,2.35-1.37,5.13-0.44,7.79l1.73,4.96
							c0,0,0,0,0,0l-0.49-1.41c-0.69-1.97,0.35-4.12,2.31-4.8l3.98-1.39l4.51-3.58"></path>
						<path style="fill:none;stroke:#000000;stroke-miterlimit:10;" d="M722.25,795.27l-5.76,0.01l-3.77,1.32
							c1.93,0.59,4.05,0.63,6.1-0.09l3.38-1.18L722.25,795.27z"></path>
					</g>
					<path style="fill:none;stroke:#000000;stroke-miterlimit:10;" d="M705.87,789.1c-0.15-0.43-0.18-0.86-0.18-1.29l-17.08,5.97
						c-1.64,0.57-2.5,2.36-1.93,4c0.57,1.64,2.36,2.5,4,1.93l16.83-5.89L705.87,789.1z"></path>
					<path style="fill:none;stroke:#000000;stroke-miterlimit:10;" d="M707.16,792.79l2.09,0.52c1.21,0.3,2.26-0.86,1.85-2.03
						l-0.66-1.89c-0.41-1.17-1.96-1.42-2.71-0.43l-1.31,1.71L707.16,792.79z"></path>
					<path style="fill:none;stroke:#000000;stroke-miterlimit:10;" d="M720.94,785.4c-0.31,0.59-1.04,0.81-1.62,0.51
						s-0.81-1.04-0.51-1.62"></path>
					<path style="fill:none;stroke:#000000;stroke-miterlimit:10;" d="M720.7,790.46c-0.54-0.39-0.66-1.14-0.28-1.68
						c0.39-0.54,1.14-0.66,1.68-0.28"></path>
				</g>
				<g>
					<g>
						<circle style="fill:none;stroke:#000000;stroke-miterlimit:10;" cx="715.95" cy="784.85" r="0.96"></circle>
						<path style="fill:none;stroke:#000000;stroke-miterlimit:10;" d="M713.99,783.35c1.44-0.2,2.25,0.08,2.79,1.03"></path>
					</g>
					<g>
						<circle style="fill:none;stroke:#000000;stroke-miterlimit:10;" cx="718.24" cy="791.4" r="0.96"></circle>
						<path style="fill:none;stroke:#000000;stroke-miterlimit:10;" d="M717.65,793.8c1.25-0.74,1.71-1.46,1.54-2.54"></path>
					</g>
				</g>
				<line style="fill:none;stroke:#000000;stroke-miterlimit:10;" x1="706.79" y1="791.73" x2="708.12" y2="791.27"></line>
			</g>
			<path style="fill:none;stroke:#000000;stroke-miterlimit:10;" d="M730.77,789.18c0,0,4.17-8.17-1.03-16.16"></path>
		</g>
		<path style="fill:none;stroke:#000000;stroke-miterlimit:10;" d="M726.19,781.71l-10.7-2.68c-1.04-0.26-1.48-1.5-0.82-2.36
			l3.22-4.22c1.49-1.95,4.55-1.46,5.36,0.85L726.19,781.71z"></path>
		<path style="fill:none;stroke:#000000;stroke-miterlimit:10;" d="M730.77,789.18l-3.64-10.41c-0.51-1.45-1.64-2.44-2.96-2.84
			l2.02,5.77l-9.51-2.38l-4.51,3.58l-3.98,1.39c-1.97,0.69-3,2.84-2.31,4.8l1.84,5.26c0.69,1.97,2.84,3,4.8,2.31l3.98-1.39
			l5.76-0.01l5.95-7.79l2.02,5.77C731,792.11,731.27,790.63,730.77,789.18z"></path>
		<path style="fill:none;stroke:#000000;stroke-miterlimit:10;" d="M727.48,799.88l-5.15-1.29c-1.04-0.26-1.48-1.5-0.82-2.36
			l6.69-8.76l2.94,8.4C731.95,798.19,729.86,800.48,727.48,799.88z"></path>
	</g>
	<g>
		<path style="fill:none;stroke:#000000;stroke-miterlimit:10;" d="M375.06,1166.51c-0.65-0.43-1.3-0.91-1.95-1.45
			c-9.01-7.48-11.51-20.83-5.52-30.52c0.69-1.12,0.3-2.6-0.85-3.24l0,0c-1.07-0.6-2.42-0.27-3.09,0.76
			c-6.75,10.35-4.75,24.42,4.96,32.42c4.22,3.48,9.25,5.41,14.33,5.68l0,0c7.47,0.38,15.02-2.65,20.17-8.84
			c3.01-3.62,4.8-7.84,5.43-12.18c0.63-4.34,0.23-9-1.3-13.27"></path>
		<path style="fill:none;stroke:#000000;stroke-miterlimit:10;" d="M391.04,1131.64l-0.94-2.68c-0.5-1.41,0.33-2.95,1.78-3.31l0,0
			c1.3-0.32,2.63,0.42,3.03,1.7l0.14,0.45"></path>
		<path style="fill:none;stroke:#000000;stroke-miterlimit:10;" d="M392.67,1131.88"></path>
		<path style="fill:none;stroke:#000000;stroke-miterlimit:10;" d="M395.32,1129.15"></path>
		<path style="fill:none;stroke:#000000;stroke-miterlimit:10;" d="M392.86,1148.63c-4.27-2.53-10.16-1.52-13.2,2.21
			c3.27-1.13,7.04-0.55,9.83,1.96c0.83,0.75,1.51,1.61,2.03,2.55"></path>
		<path style="fill:none;stroke:#000000;stroke-miterlimit:10;" d="M403.32,1141.26"></path>
		<path style="fill:none;stroke:#000000;stroke-miterlimit:10;" d="M400.38,1151.37l-6.85-2.46c1.08,0.46-2-0.85-4.14-1.77
			c-1.28-0.55-1.84-2.1-2-3.48l-1.48-11.33c-0.07-0.58,0.08-1.15,0.37-1.61c0.39-0.61,1.03-1.04,1.8-1.12
			c1.35-0.15,2.58,0.82,2.73,2.18"></path>
		<path style="fill:none;stroke:#000000;stroke-miterlimit:10;" d="M406.14,1131.98c-0.92-2.28-2.83-4.03-5.17-4.75l-3.64-5.4
			c-0.2-0.29-0.64-0.2-0.72,0.14l-1.23,5.57c-1.18,0.51-2.21,1.28-3.02,2.24c-0.08,0.09-3.11,4.38-3.17,4.49
			c-0.24,0.4-0.4,0.85-0.47,1.33c-0.27,1.95,1.09,3.75,3.04,4.02c0.04,0.01,0.08,0.01,0.12,0.01c1.92,2.78,5.5,4.29,9.23,3.13
			c2.73-0.84,4.86-3.19,5.43-5.99"></path>
		<line style="fill:none;stroke:#000000;stroke-miterlimit:10;" x1="393.85" y1="1137.04" x2="396.01" y2="1138.33"></line>
		<polygon style="fill:none;stroke:#000000;stroke-miterlimit:10;" points="391.7,1137.15 389.75,1136.64 390.26,1134.69 		"></polygon>
		<path style="fill:none;stroke:#000000;stroke-miterlimit:10;" d="M402.99,1139.07c2.09-1.18,4.78-3.4,6.36-5.57
			c0.27-0.36-0.02-0.85-0.45-0.97c-0.88-0.24-4.2-0.82-7.07-0.56c0,0,0.43-0.06,0,0"></path>
		<path style="fill:none;stroke:#000000;stroke-miterlimit:10;" d="M371.68,1146.87l2.73,8.17c0.25-0.42,0.54-0.82,0.86-1.21
			c0.62-0.75,1.36-1.34,2.13-1.86l-3.29-6.3c-0.6-1.15-2-1.63-3.18-1.08v0c-0.36,0.17-0.64,0.42-0.87,0.71
			C370.8,1145.54,371.42,1146.09,371.68,1146.87z"></path>
		<path style="fill:none;stroke:#000000;stroke-miterlimit:10;" d="M391.52,1155.34c-0.52-0.94-1.19-1.8-2.03-2.55
			c-4.2-3.77-10.65-3.27-14.22,1.03c-0.32,0.39-0.61,0.79-0.86,1.21l-2.73-8.17c-0.39-1.18-1.6-1.93-2.82-1.68
			c-1.41,0.29-2.24,1.72-1.84,3.08l3.6,12.01c0.1,0.33,0.34,0.6,0.65,0.74l1.87,0.85c0.39,2.22,1.16,5.41,5.97,7.77"></path>
	</g>
	<g>
		<g>
			
				<rect x="777.03" y="1380.62" transform="matrix(-1 -2.256267e-04 2.256267e-04 -1 1711.3661 2773.6748)" style="fill:none;stroke:#000000;stroke-miterlimit:10;" width="157.63" height="12.25"></rect>
			
				<rect x="777.06" y="1060.44" transform="matrix(-1 -2.256267e-04 2.256267e-04 -1 1711.4742 2441.249)" style="fill:none;stroke:#000000;stroke-miterlimit:10;" width="157.63" height="320.18"></rect>
			<path style="fill:none;stroke:#000000;stroke-miterlimit:10;" d="M924.1,1317.64l0.05-242.9c0-2.25-1.58-4.08-3.52-4.08
				l-129.45-0.03c-1.95,0-3.52,1.83-3.52,4.08l-0.05,242.9L924.1,1317.64z"></path>
			<path style="fill:none;stroke:#000000;stroke-miterlimit:10;" d="M903.4,1317.64l20.7,0l-0.01,52.79c0,2.25-1.58,4.08-3.52,4.08
				l-129.45-0.03c-1.95,0-3.52-1.83-3.52-4.08l0.01-52.79l20.7,0l-0.01,30.15c0,9.02,6.3,16.33,14.09,16.33l66.92,0.02
				c7.78,0,14.09-7.31,14.09-16.32L903.4,1317.64z"></path>
		</g>
		<g>
			<circle style="fill:none;stroke:#000000;stroke-miterlimit:10;" cx="845.79" cy="1206.72" r="8.53"></circle>
			<g>
				<circle style="fill:none;stroke:#000000;stroke-miterlimit:10;" cx="847.51" cy="1208.66" r="0.91"></circle>
				<circle style="fill:none;stroke:#000000;stroke-miterlimit:10;" cx="843.57" cy="1205.35" r="0.91"></circle>
			</g>
			<polygon style="fill:none;stroke:#000000;stroke-miterlimit:10;" points="848.83,1205.96 846.02,1203.59 848.61,1203.36 			"></polygon>
			<path style="fill:none;stroke:#000000;stroke-miterlimit:10;" d="M866.68,1181.87L866.68,1181.87c4,3.36,3.97,9.53-0.06,12.85
				l-7.88,6.5c-1.83,1.51-4.47,1.49-6.28-0.03l-2.36-1.99c-1.81-1.52-2.28-4.13-1.11-6.18l5.05-8.88
				C856.62,1179.6,862.68,1178.51,866.68,1181.87z"></path>
			<path style="fill:none;stroke:#000000;stroke-miterlimit:10;" d="M843.79,1186.36l4.53,8.85l0.1-0.05
				c0.04-0.74,0.19-1.47,0.57-2.14l2.08-3.65l-2.72-5.33c-0.64-1.26-2.18-1.75-3.44-1.11
				C843.65,1183.57,843.15,1185.11,843.79,1186.36z"></path>
			<path style="fill:none;stroke:#000000;stroke-miterlimit:10;" d="M867.79,1200.39l-5.85-1.81l-3.2,2.64
				c-0.57,0.47-1.22,0.74-1.89,0.91l-0.06,0.2l9.49,2.94c1.35,0.42,2.78-0.34,3.2-1.68
				C869.89,1202.24,869.14,1200.81,867.79,1200.39z"></path>
			<path style="fill:none;stroke:#000000;stroke-miterlimit:10;" d="M866.45,1181.72l5.16-5.66c1.22-1.34,1.12-3.41-0.22-4.63
				c-1.34-1.22-3.41-1.12-4.63,0.22l-7.91,8.69C861.37,1179.55,864.2,1179.95,866.45,1181.72z"></path>
			<path style="fill:none;stroke:#000000;stroke-miterlimit:10;" d="M868.94,1191.65l0.15,0.23l10.05-6.7
				c1.51-1.01,1.91-3.04,0.91-4.55c-1.01-1.51-3.04-1.91-4.55-0.91l-6.88,4.59C869.85,1186.58,869.97,1189.3,868.94,1191.65z"></path>
			<path style="fill:none;stroke:#000000;stroke-miterlimit:10;" d="M843.34,1214.89l-3.94,12.79c-0.6,1.93,0.56,3.97,2.52,4.44
				s3.92-0.8,4.28-2.79l2.66-14.7C847.1,1215.32,845.16,1215.43,843.34,1214.89z"></path>
			<path style="fill:none;stroke:#000000;stroke-miterlimit:10;" d="M826.4,1223.26c1.55,1.3,3.87,1.03,5.08-0.59l7.79-10.48
				c-1.39-1.66-2.05-3.74-1.96-5.82l-11.19,11.79C824.72,1219.62,824.85,1221.96,826.4,1223.26z"></path>
		</g>
	</g>
	<g>
		<path style="fill:none;stroke:#000000;stroke-miterlimit:10;" d="M1120.83,1300.69c6.12,0,27.59,0,33.71,0
			c6.26,0,9.46-5.39,10.5-12.08c3.8-27.3,3.8-55.04,0-82.34c-1.04-6.69-4.24-12.08-10.5-12.08c-6.12,0-27.59,0-33.71,0
			c-6.26,0-9.46,5.39-10.5,12.08c-3.8,27.3-3.8,55.04,0,82.34C1111.38,1295.3,1114.58,1300.69,1120.83,1300.69z"></path>
		<g>
			<polygon style="fill:none;stroke:#000000;stroke-miterlimit:10;" points="1123.67,1249.32 1121.88,1252.61 1146.78,1266.1 
				1149.03,1261.95 1151.28,1265.66 1133.28,1276.62 1118.56,1252.43 			"></polygon>
			<line style="fill:none;stroke:#000000;stroke-miterlimit:10;" x1="1124.62" y1="1247.55" x2="1119.99" y2="1242.46"></line>
			<line style="fill:none;stroke:#000000;stroke-miterlimit:10;" x1="1134.69" y1="1275.76" x2="1119.96" y2="1251.57"></line>
			<g>
				<polygon style="fill:none;stroke:#000000;stroke-miterlimit:10;" points="1131.92,1234.08 1123.79,1249.09 1118.77,1243.56 
					1134.37,1229.39 1145.14,1241.24 				"></polygon>
				<polygon style="fill:none;stroke:#000000;stroke-miterlimit:10;" points="1140.08,1262.47 1137.82,1264.52 1131.95,1258.07 				
					"></polygon>
			</g>
			
				<rect x="1125.19" y="1239.55" transform="matrix(-0.8793 -0.4763 0.4763 -0.8793 1545.7157 2891.9534)" style="fill:none;stroke:#000000;stroke-miterlimit:10;" width="28.32" height="21.07"></rect>
			<line style="fill:none;stroke:#000000;stroke-miterlimit:10;" x1="1147.57" y1="1264.65" x2="1122.67" y2="1251.16"></line>
		</g>
	</g>
	<g>
		<g>
			<path style="fill:none;stroke:#000000;stroke-miterlimit:10;" d="M1477.85,1319.2c0.66-0.36,1.32-0.71,1.99-1.04
				c-0.63-0.75-1.33-1.43-2.07-2.08c-0.41,0.63-0.84,1.23-1.28,1.84C1476.96,1318.34,1477.44,1318.74,1477.85,1319.2z"></path>
			<path style="fill:none;stroke:#000000;stroke-miterlimit:10;" d="M1458.92,1314.29c0.59-0.21,1.2-0.33,1.81-0.47
				c-0.05-0.74-0.1-1.47-0.12-2.21c-0.96,0.21-1.9,0.43-2.81,0.78C1458.19,1313.01,1458.55,1313.65,1458.92,1314.29z"></path>
			<path style="fill:none;stroke:#000000;stroke-miterlimit:10;" d="M1451.14,1319.81c0.34-0.42,0.71-0.8,1.08-1.18
				c-0.45-0.57-0.91-1.13-1.34-1.71c-0.61,0.61-1.22,1.23-1.75,1.92C1449.81,1319.14,1450.47,1319.48,1451.14,1319.81z"></path>
			<path style="fill:none;stroke:#000000;stroke-miterlimit:10;" d="M1447.64,1327.14c-0.69-0.24-1.36-0.52-2.04-0.79
				c-0.58,2.52-0.68,5.03-0.31,7.44c0.69-0.32,1.37-0.67,2.08-0.95C1447.15,1330.98,1447.23,1329.07,1447.64,1327.14z"></path>
			<path style="fill:none;stroke:#000000;stroke-miterlimit:10;" d="M1450.28,1340.61c-0.65,0.33-1.32,0.62-1.99,0.92
				c0.72,1.11,1.55,2.13,2.49,3.08c0.37-0.63,0.74-1.26,1.14-1.87C1451.31,1342.08,1450.78,1341.35,1450.28,1340.61z"></path>
			<path style="fill:none;stroke:#000000;stroke-miterlimit:10;" d="M1468.74,1313.76c0.07,0.02,0.14,0.01,0.21,0.03
				c0.21,0.05,0.4,0.16,0.6,0.22c0.32-0.67,0.67-1.32,1.02-1.97c-0.36-0.11-0.68-0.28-1.05-0.37c-0.23-0.06-0.46-0.05-0.69-0.1
				C1468.83,1312.3,1468.79,1313.03,1468.74,1313.76z"></path>
			<path style="fill:none;stroke:#000000;stroke-miterlimit:10;" d="M1461.22,1347.93c-0.24-0.05-0.47-0.04-0.71-0.1
				c-0.59-0.15-1.11-0.4-1.67-0.6c-0.36,0.65-0.74,1.27-1.13,1.9c0.76,0.29,1.5,0.63,2.32,0.83c0.43,0.11,0.86,0.11,1.28,0.18
				C1461.27,1349.4,1461.22,1348.66,1461.22,1347.93z"></path>
			<path style="fill:none;stroke:#000000;stroke-miterlimit:10;" d="M1483.69,1325.5c-0.69,0.31-1.37,0.61-2.07,0.89
				c0.47,1.8,0.7,3.66,0.57,5.57c0.72,0.26,1.42,0.56,2.13,0.85C1484.58,1330.3,1484.35,1327.84,1483.69,1325.5z"></path>
			<path style="fill:none;stroke:#000000;stroke-miterlimit:10;" d="M1471.84,1346.75c-0.77,0.34-1.55,0.62-2.36,0.85
				c0.05,0.75,0.06,1.5,0.07,2.25c1.23-0.31,2.41-0.73,3.55-1.26C1472.68,1347.98,1472.24,1347.38,1471.84,1346.75z"></path>
			<path style="fill:none;stroke:#000000;stroke-miterlimit:10;" d="M1479.67,1339.83c-0.4,0.66-0.8,1.31-1.28,1.91
				c0.45,0.61,0.88,1.23,1.3,1.86c0.77-0.89,1.44-1.85,2.04-2.88C1481.04,1340.43,1480.35,1340.14,1479.67,1339.83z"></path>
		</g>
		<path style="fill:none;stroke:#000000;stroke-miterlimit:10;" d="M1464.99,1329.26c0.53-4.49,1.79-9.02,3.65-13.3
			c0.93-8.17-0.25-16.68-3.87-23.82c-4.23,8.11-5.07,17.89-3.37,27.05c1.39,3.24,2.41,6.6,2.99,9.96c0.12,0.28,0.21,0.58,0.34,0.86
			c0.12-0.25,0.2-0.53,0.32-0.79C1465.02,1329.24,1465,1329.25,1464.99,1329.26z"></path>
		<path style="fill:none;stroke:#000000;stroke-miterlimit:10;" d="M1464.47,1329.6c-10.9-6.67-19.75-18.52-21.26-31.34
			C1454.46,1304.46,1462.49,1317.08,1464.47,1329.6z M1464.99,1329.26c10.54-7.04,18.65-19.61,19.58-32.42
			C1473.55,1303.57,1466.49,1316.58,1464.99,1329.26z"></path>
		<path style="fill:none;stroke:#000000;stroke-miterlimit:10;" d="M1465.35,1329.61c-0.09-0.05-0.17-0.12-0.26-0.18
			c0.1,0.6,0.27,1.2,0.39,1.8c1.32,2.96,2.33,6.1,3.03,9.34c3.75,8.38,9.98,15.87,17.84,20.2c-1.04-8.89-5.66-17.26-12-23.81
			C1471.01,1334.86,1467.95,1332.4,1465.35,1329.61z"></path>
		<path style="fill:none;stroke:#000000;stroke-miterlimit:10;" d="M1464.52,1330.07c0.01-0.1,0.04-0.21,0.05-0.31
			c-10.54,7.04-18.65,19.61-19.58,32.42c7.63-4.67,13.31-12.36,16.61-20.86C1462.12,1337.41,1463.07,1333.6,1464.52,1330.07z"></path>
		<path style="fill:none;stroke:#000000;stroke-miterlimit:10;" d="M1464.21,1330.04c0.21-0.23,0.44-0.44,0.64-0.67
			c-12.67-0.11-26.45,5.73-34.42,15.8c9.14,0.45,18.37-2.87,25.98-8.25C1458.78,1334.3,1461.4,1331.96,1464.21,1330.04z"></path>
		<g>
			<path style="fill:none;stroke:#000000;stroke-miterlimit:10;" d="M1459.51,1329.69c1.57-0.19,3.13-0.28,4.68-0.29
				c-3.24-2.01-6.25-4.52-8.98-7.33c-7.62-4.78-16.71-7.52-25.47-6.88C1436.9,1323.79,1448.29,1328.75,1459.51,1329.69z"></path>
			<path style="fill:none;stroke:#000000;stroke-miterlimit:10;" d="M1464.4,1329.85c0.09,0,0.17,0.01,0.26,0.01
				c-0.04-0.05-0.09-0.09-0.14-0.14C1464.48,1329.76,1464.44,1329.81,1464.4,1329.85z"></path>
		</g>
		<path style="fill:none;stroke:#000000;stroke-miterlimit:10;" d="M1499.82,1343.84c-12.81,0.94-26.42-5.26-34.92-14.67
			C1477.68,1328.81,1491.57,1333.92,1499.82,1343.84z M1464.91,1329.17c12.77-0.36,26.66,4.75,34.92,14.67 M1464.73,1329.49
			c-4.99,11.65-4.93,26.61,1.28,37.85C1471.57,1355.69,1470.4,1340.94,1464.73,1329.49z"></path>
		<g>
			<path style="fill:none;stroke:#000000;stroke-miterlimit:10;" d="M1465.04,1329.31c-0.09,0.09-0.18,0.18-0.27,0.28
				c0.01,0.02,0.02,0.05,0.03,0.07c0.19,0,0.38-0.03,0.56-0.03C1465.26,1329.51,1465.14,1329.42,1465.04,1329.31z"></path>
			<path style="fill:none;stroke:#000000;stroke-miterlimit:10;" d="M1470.05,1329.33c11.05-1.3,22.21-6.81,29.08-15.47
				c-9.14-0.45-18.37,2.87-25.98,8.25c-2.37,2.62-4.98,4.95-7.8,6.88c-0.06,0.06-0.12,0.13-0.18,0.19
				C1466.78,1329.14,1468.41,1329.2,1470.05,1329.33z"></path>
		</g>
	</g>
	<g>
		<path style="fill:none;stroke:#000000;stroke-miterlimit:10;" d="M1009.29,1420.89c2.76,0.27,5.59-0.1,8.25-1.14"></path>
		<path style="fill:none;stroke:#000000;stroke-miterlimit:10;" d="M993.62,1407.42c0.52,2.05,1.41,4.05,2.7,5.88
			c0.3,0.42,0.61,0.83,0.93,1.22"></path>
		<path style="fill:none;stroke:#000000;stroke-miterlimit:10;" d="M999.29,1389.44c-0.62,0.54-1.2,1.11-1.73,1.71"></path>
		<path style="fill:none;stroke:#000000;stroke-miterlimit:10;" d="M1028.91,1404.45c0.05-0.68,0.07-1.37,0.05-2.06"></path>
		<path style="fill:none;stroke:#000000;stroke-miterlimit:10;" d="M1010.52,1418.97c1.97,0.06,3.97-0.24,5.88-0.92"></path>
		<path style="fill:none;stroke:#000000;stroke-miterlimit:10;" d="M995.8,1407.8c0.48,1.52,1.19,2.99,2.15,4.36"></path>
		<g>
			<path style="fill:none;stroke:#000000;stroke-miterlimit:10;" d="M1018.31,1386.05c1.26-1.3,2.68-2.52,4.25-3.62
				c7.59-5.31,16.52-6.33,22.51-3.19c0.9,6.71-3.13,14.74-10.72,20.05c-1.69,1.18-3.45,2.15-5.23,2.91
				c-0.92,0.39-1.85,0.73-2.78,1.01"></path>
			<path style="fill:none;stroke:#000000;stroke-miterlimit:10;" d="M1013.94,1403.37c-0.19-0.06-0.38-0.13-0.56-0.2
				c-0.99-0.38-1.65-1.32-1.66-2.37c-0.01-0.44,0.01-0.89,0.04-1.33"></path>
			<line style="fill:none;stroke:#000000;stroke-miterlimit:10;" x1="1045.07" y1="1379.24" x2="1009.71" y2="1403.97"></line>
		</g>
		<g>
			<path style="fill:none;stroke:#000000;stroke-miterlimit:10;" d="M1045.84,1425.26c-5.72,3.62-14.7,3.33-22.69-1.34
				c-7.34-4.29-11.87-11.1-12.3-17.42c-0.07-1.06,0.51-2.04,1.46-2.5c5.71-2.73,13.88-2.13,21.22,2.16
				C1041.52,1410.82,1046.19,1418.5,1045.84,1425.26z"></path>
			<line style="fill:none;stroke:#000000;stroke-miterlimit:10;" x1="1045.84" y1="1425.26" x2="1009.76" y2="1404.04"></line>
		</g>
		<g>
			<path style="fill:none;stroke:#000000;stroke-miterlimit:10;" d="M1008.05,1400.68c0.23,0.5,0.42,1.01,0.57,1.52
				c0.32,1.04-0.07,2.18-0.96,2.81"></path>
			<path style="fill:none;stroke:#000000;stroke-miterlimit:10;" d="M1002.57,1407.26c-3.58,0.87-7.8,0.69-12-0.74
				c-7.18-2.45-12.19-7.85-13.01-13.33c4-3.84,11.26-5.07,18.44-2.63c1.5,0.51,2.91,1.15,4.21,1.9"></path>
			<line style="fill:none;stroke:#000000;stroke-miterlimit:10;" x1="1009.76" y1="1403.93" x2="977.56" y2="1393.19"></line>
		</g>
		<g>
			<path style="fill:none;stroke:#000000;stroke-miterlimit:10;" d="M997.73,1429.25c-2.75-3.6-3.08-9.6-0.44-15.21
				c2.28-4.84,6.2-8.15,10.14-9.08c1.15-0.27,2.35,0.29,2.87,1.36c1.79,3.63,1.72,8.76-0.56,13.6
				C1007.11,1425.52,1002.26,1429.08,997.73,1429.25z"></path>
			<line style="fill:none;stroke:#000000;stroke-miterlimit:10;" x1="997.73" y1="1429.25" x2="1009.73" y2="1403.9"></line>
		</g>
		<g>
			<path style="fill:none;stroke:#000000;stroke-miterlimit:10;" d="M1012.59,1376.62c-3.43,1.69-6.21,5.76-6.91,10.84
				c-0.63,4.56,0.54,8.81,2.84,11.48c0.63,0.73,1.58,1.03,2.48,0.9c-0.2,0.22-0.38,0.45-0.59,0.65c-0.52,0.48-1.27,0.62-1.92,0.34
				c-4.84-2.04-8.91-7.52-10.15-14.49c-1.33-7.47,0.98-14.46,5.39-17.83C1007.25,1369.61,1010.45,1372.57,1012.59,1376.62z"></path>
		</g>
		<line style="fill:none;stroke:#000000;stroke-miterlimit:10;" x1="1006.76" y1="1383.08" x2="1003.72" y2="1368.52"></line>
		<path style="fill:none;stroke:#000000;stroke-miterlimit:10;" d="M1013.51,1376.2c3.34,2.36,5.23,7.44,4.47,12.97
			c-0.63,4.56-2.92,8.33-5.86,10.27c-1.15,0.76-2.69,0.55-3.6-0.5c-2.3-2.67-3.47-6.92-2.84-11.48
			C1006.45,1381.93,1009.66,1377.56,1013.51,1376.2z"></path>
		<line style="fill:none;stroke:#000000;stroke-miterlimit:10;" x1="1013.51" y1="1376.2" x2="1009.67" y2="1404.39"></line>
	</g>
	<g>
		<g>
			<g>
				<path style="fill:none;stroke:#000000;stroke-miterlimit:10;" d="M666.61,1227.24c0-8.3-12.48-15.14-27.88-15.14
					s-27.88,6.94-27.88,15.14v44.38c0,3.49,2.83,6.32,6.32,6.32h43.13c3.49,0,6.32-2.83,6.32-6.32V1227.24z"></path>
				<path style="fill:none;stroke:#000000;stroke-miterlimit:10;" d="M676.75,1227.24c0-13.84-17.02-25.26-38.02-25.26
					c-21,0-38.02,11.57-38.02,25.26v34.22c0,5.6,4.54,10.14,10.14,10.14l0,0v-44.36c0-8.21,12.48-15.14,27.88-15.14
					s27.88,6.85,27.88,15.14v44.36l0,0c5.6,0,10.14-4.54,10.14-10.14V1227.24z"></path>
			</g>
			
				<rect x="547.77" y="1290.74" transform="matrix(-1 2.218899e-10 -2.218899e-10 -1 1270.9717 2675.6306)" style="fill:none;stroke:#000000;stroke-miterlimit:10;" width="175.44" height="94.14"></rect>
		</g>
		<g>
			<g>
				<g>
					<polygon style="fill:none;stroke:#000000;stroke-miterlimit:10;" points="630.49,1358.71 631.89,1364.18 657.34,1364.18 
						658.75,1358.71 					"></polygon>
					<path style="fill:none;stroke:#000000;stroke-miterlimit:10;" d="M627.55,1347.24l1.47,5.74h31.2l1.47-5.74
						c0.71-2.77-1.38-5.47-4.25-5.47H631.8C628.93,1341.77,626.84,1344.47,627.55,1347.24z"></path>
				</g>
				<path style="fill:none;stroke:#000000;stroke-miterlimit:10;" d="M617.77,1312.79l0,21.72c0,0.95-0.77,1.72-1.72,1.72h-11.38
					c-0.95,0-1.72-0.77-1.72-1.72l0-21.72c0-0.95,0.77-1.72,1.72-1.72h11.38C617,1311.07,617.77,1311.84,617.77,1312.79z"></path>
				<path style="fill:none;stroke:#000000;stroke-miterlimit:10;" d="M666.28,1312.81l0,21.98c0,0.53-0.43,0.95-0.95,0.95l-41.42,0
					c-0.53,0-0.95-0.43-0.95-0.95l0-21.98c0-0.53,0.43-0.95,0.95-0.95l41.42,0C665.85,1311.85,666.28,1312.28,666.28,1312.81z"></path>
			</g>
			
				<rect x="641.75" y="1310.62" transform="matrix(-3.002421e-06 -1 1 -3.002421e-06 -711.222 2000.4635)" style="fill:none;stroke:#000000;stroke-miterlimit:10;" width="5.73" height="90.44"></rect>
		</g>
		<g>
			<circle style="fill:none;stroke:#000000;stroke-miterlimit:10;" cx="707.08" cy="1326.45" r="4.82"></circle>
			<circle style="fill:none;stroke:#000000;stroke-miterlimit:10;" cx="707.08" cy="1326.45" r="3.41"></circle>
			<line style="fill:none;stroke:#000000;stroke-miterlimit:10;" x1="706.84" y1="1331.03" x2="706.66" y2="1334.41"></line>
			<path style="fill:none;stroke:#000000;stroke-miterlimit:10;" d="M696.59,1332.86c1.97,3.23,5.2,5.17,8.66,5.69l0.16-3.01
				c0.04-0.66,0.6-1.17,1.26-1.13c0.41,0.02,0.76,0.25,0.96,0.57c0.12,0.2,0.19,0.44,0.17,0.69l-0.16,3.01
				c2-0.09,4.01-0.61,5.83-1.73c5.79-3.54,7.62-11.1,4.09-16.89c-3.54-5.79-11.1-7.62-16.89-4.09
				C694.88,1319.5,693.05,1327.06,696.59,1332.86z"></path>
			<g>
				
					<rect x="700.83" y="1357.72" transform="matrix(0.0529 -0.9986 0.9986 0.0529 -691.2325 1989.0242)" style="fill:none;stroke:#000000;stroke-miterlimit:10;" width="4.26" height="2.4"></rect>
				
					<rect x="705.62" y="1357.98" transform="matrix(0.0529 -0.9986 0.9986 0.0529 -686.9571 1994.035)" style="fill:none;stroke:#000000;stroke-miterlimit:10;" width="4.26" height="2.39"></rect>
			</g>
			<g>
				<path style="fill:none;stroke:#000000;stroke-miterlimit:10;" d="M704.76,1347.71c-1.15,0.12-2.29,0.46-3.35,1.11
					c-3.78,2.3-4.97,7.23-2.66,11.01c1.19,1.95,3.09,3.2,5.17,3.64L704.76,1347.71z"></path>
				<path style="fill:none;stroke:#000000;stroke-miterlimit:10;" d="M706.32,1363.6c1.18-0.11,2.36-0.45,3.45-1.11
					c3.78-2.3,4.97-7.23,2.66-11.01c-1.21-1.99-3.15-3.23-5.27-3.66L706.32,1363.6z"></path>
			</g>
			<g>
				<path style="fill:none;stroke:#000000;stroke-miterlimit:10;" d="M707.63,1334.98c0.12,0.2,0.19,0.44,0.17,0.69l-1.71,31.99
					c-0.04,0.66-0.6,1.17-1.26,1.13c-0.66-0.03-1.17-0.6-1.13-1.26l1.71-31.99c0.04-0.66,0.6-1.17,1.26-1.13
					C707.08,1334.43,707.43,1334.65,707.63,1334.98z"></path>
			</g>
		</g>
		<g>
			<g>
				<path style="fill:none;stroke:#000000;stroke-miterlimit:10;" d="M563.79,1348.73c-0.21-0.51-0.39-1.04-0.53-1.58"></path>
				<path style="fill:none;stroke:#000000;stroke-miterlimit:10;" d="M575.07,1332.21c0.87,0.02,1.75,0.13,2.63,0.35
					c0.2,0.05,0.39,0.1,0.59,0.16"></path>
			</g>
			<g>
				<path style="fill:none;stroke:#000000;stroke-miterlimit:10;" d="M575.98,1333.54c0.47,0.05,0.95,0.14,1.42,0.25"></path>
				<path style="fill:none;stroke:#000000;stroke-miterlimit:10;" d="M564.86,1347.95c-0.17-0.45-0.31-0.91-0.42-1.38"></path>
			</g>
			<g>
				<path style="fill:none;stroke:#000000;stroke-miterlimit:10;" d="M557.65,1336.53c-0.93,0.49-1.84,1.2-2.67,2.19
					c0.61,6.56,7.16,8.22,7.16,8.22c1.27,0.4,2.61-0.17,3.23-1.29"></path>
			</g>
			<line style="fill:none;stroke:#000000;stroke-miterlimit:10;" x1="558.8" y1="1340.13" x2="555.11" y2="1338.72"></line>
			<line style="fill:none;stroke:#000000;stroke-miterlimit:10;" x1="574.74" y1="1346.18" x2="568.37" y2="1343.76"></line>
			<g>
				<path style="fill:none;stroke:#000000;stroke-miterlimit:10;" d="M580.62,1344.01C580.62,1344.01,580.62,1344.01,580.62,1344.01
					C580.62,1344.02,580.62,1344.02,580.62,1344.01z"></path>
				<path style="fill:none;stroke:#000000;stroke-miterlimit:10;" d="M585.92,1351.1c2.91-1.71,7.98-5.77,7.83-13.23
					c-1.42-1.35-2.91-2.28-4.39-2.9"></path>
				<path style="fill:none;stroke:#000000;stroke-miterlimit:10;" d="M580.27,1343.8c-1.01,0.45-1.74,1.3-2.14,2.3"></path>
				<path style="fill:none;stroke:#000000;stroke-miterlimit:10;" d="M574.01,1339.34c-0.02,0.64,0.09,1.29,0.37,1.91
					c0.97,2.21,3.68,3.51,5.89,2.54c0.45-0.2,0.28-0.12,0.22-0.1"></path>
				<path style="fill:none;stroke:#000000;stroke-miterlimit:10;" d="M577.7,1335.05c-0.69,0.26-1.09,0.46-1.09,0.46"></path>
			</g>
			<line style="fill:none;stroke:#000000;stroke-miterlimit:10;" x1="574.81" y1="1346.18" x2="593.75" y2="1337.86"></line>
			<g>
				<path style="fill:none;stroke:#000000;stroke-miterlimit:10;" d="M568.01,1338.33C568.01,1338.33,568.01,1338.33,568.01,1338.33
					C568.02,1338.34,568.02,1338.34,568.01,1338.33z"></path>
				<path style="fill:none;stroke:#000000;stroke-miterlimit:10;" d="M568.54,1337.91C568.54,1337.91,568.54,1337.91,568.54,1337.91
					C568.54,1337.91,568.54,1337.91,568.54,1337.91z"></path>
				<path style="fill:none;stroke:#000000;stroke-miterlimit:10;" d="M561.38,1344.01c1.52,1.87,4.26,2.16,6.14,0.64
					s2.42-4.48,0.91-6.35c-0.31-0.38-0.19-0.24-0.15-0.19c-0.12-0.15-0.21-0.26-0.21-0.26s0.09,0.12,0.21,0.26
					c-0.04-0.04,0,0,0.15,0.19c1.3,1.6,3.7,1.89,5.53,0.98c0.31-0.15,0.6-0.34,0.86-0.55c1.87-1.52,2.16-4.26,0.64-6.14
					c0,0-0.1-0.14-0.31-0.39c-1.37-1.65-7.27-7.92-16.01-5.35C554.19,1336.06,561.38,1344.01,561.38,1344.01z"></path>
			</g>
			<line style="fill:none;stroke:#000000;stroke-miterlimit:10;" x1="574.81" y1="1346.18" x2="559.16" y2="1326.86"></line>
			<g>
				<path style="fill:none;stroke:#000000;stroke-miterlimit:10;" d="M566.55,1347.61c-0.87-0.14-1.79,0.15-2.44,0.84
					c0,0-4.88,4.68-2.16,10.68c2.3,0.86,4.35,0.67,6.01,0.11"></path>
			</g>
			<line style="fill:none;stroke:#000000;stroke-miterlimit:10;" x1="566.24" y1="1354.81" x2="561.95" y2="1359.13"></line>
			<line style="fill:none;stroke:#000000;stroke-miterlimit:10;" x1="574.81" y1="1346.18" x2="573.62" y2="1347.38"></line>
			<g>
				<path style="fill:none;stroke:#000000;stroke-miterlimit:10;" d="M575.15,1350.48C575.15,1350.48,575.15,1350.48,575.15,1350.48
					C575.15,1350.47,575.15,1350.47,575.15,1350.48z"></path>
				<path style="fill:none;stroke:#000000;stroke-miterlimit:10;" d="M574.47,1350.48C574.47,1350.48,574.47,1350.48,574.47,1350.48
					C574.47,1350.47,574.47,1350.47,574.47,1350.48z"></path>
				<path style="fill:none;stroke:#000000;stroke-miterlimit:10;" d="M579.51,1345.88c-2.41,0-4.7,1.95-4.7,4.36"></path>
				<path style="fill:none;stroke:#000000;stroke-miterlimit:10;" d="M574.81,1350.48c0,0.06,0,0,0-0.24
					c-0.01-2.41-2.29-4.36-4.7-4.36c-2.41,0-4.36,1.95-4.36,4.36c0,0-0.59,10.71,9.06,14.73c4-1.67,6.25-4.49,7.5-7.21"></path>
			</g>
			<line style="fill:none;stroke:#000000;stroke-miterlimit:10;" x1="574.81" y1="1354.31" x2="574.81" y2="1364.97"></line>
			<g>
				<path style="fill:none;stroke:#000000;stroke-miterlimit:10;" d="M579.12,1350.26C579.12,1350.26,579.12,1350.26,579.12,1350.26
					C579.11,1350.26,579.11,1350.26,579.12,1350.26z"></path>
				<path style="fill:none;stroke:#000000;stroke-miterlimit:10;" d="M578.81,1350.56C578.81,1350.56,578.81,1350.56,578.81,1350.56
					C578.81,1350.56,578.81,1350.56,578.81,1350.56z"></path>
				<path style="fill:none;stroke:#000000;stroke-miterlimit:10;" d="M582.91,1346.28c-1.07-1.08-2.81-1.08-3.89-0.01
					c-1.08,1.07-1.23,2.96-0.16,4.04c0.22,0.22,0.13,0.14,0.11,0.11c0.08,0.08,0.15,0.15,0.15,0.15s-0.07-0.07-0.15-0.15
					c0.03,0.02,0,0-0.11-0.11c-1.07-1.07-2.96-0.93-4.04,0.14c-1.08,1.07-1.08,2.81-0.01,3.89c0,0,4.5,5.04,10.59,2.55
					c0.94-2.27,0.83-4.33,0.32-6.01C584.87,1348.05,582.91,1346.28,582.91,1346.28z"></path>
			</g>
			<line style="fill:none;stroke:#000000;stroke-miterlimit:10;" x1="574.72" y1="1346.18" x2="585.4" y2="1356.88"></line>
			<g>
				<path style="fill:none;stroke:#000000;stroke-miterlimit:10;" d="M582.47,1336.22C582.47,1336.22,582.47,1336.22,582.47,1336.22
					C582.47,1336.22,582.47,1336.22,582.47,1336.22z"></path>
				<path style="fill:none;stroke:#000000;stroke-miterlimit:10;" d="M582.8,1336.49C582.8,1336.49,582.8,1336.48,582.8,1336.49
					C582.8,1336.49,582.8,1336.49,582.8,1336.49z"></path>
				<path style="fill:none;stroke:#000000;stroke-miterlimit:10;" d="M578.1,1332.88c-0.95,1.18-0.77,2.91,0.41,3.87
					c1.18,0.95,3.08,0.91,4.03-0.27c0.2-0.24,0.12-0.15,0.1-0.12c0.07-0.09,0.13-0.16,0.13-0.16s-0.06,0.07-0.13,0.16
					c0.02-0.03,0,0-0.09,0.12c-0.95,1.18-0.61,3.04,0.57,4c1.18,0.95,2.91,0.77,3.87-0.41c0,0,4.53-5.01,1.39-10.81
					C582.06,1327.4,578.1,1332.88,578.1,1332.88z"></path>
			</g>
			<line style="fill:none;stroke:#000000;stroke-miterlimit:10;" x1="574.84" y1="1346.18" x2="588.38" y2="1329.25"></line>
		</g>
	</g>
	<g>
		<polyline style="fill:none;stroke:#000000;stroke-miterlimit:10;" points="967.04,479.3 1158.56,479.27 1158.57,571.97 
			1029.21,572 		"></polyline>
		<line style="fill:none;stroke:#000000;stroke-miterlimit:10;" x1="1158.4" y1="563.64" x2="1020.88" y2="563.68"></line>
		<path style="fill:none;stroke:#000000;stroke-miterlimit:10;" d="M1154.04,571.99"></path>
		<path style="fill:none;stroke:#000000;stroke-miterlimit:10;" d="M1158.57,476.38"></path>
		<g>
			<polyline style="fill:none;stroke:#000000;stroke-miterlimit:10;" points="1029.21,572 1029.23,660.1 967.06,660.11 
				967.04,479.27 			"></polyline>
			<line style="fill:none;stroke:#000000;stroke-miterlimit:10;" x1="1020.88" y1="563.66" x2="1020.91" y2="660.11"></line>
		</g>
		<line style="fill:none;stroke:#000000;stroke-miterlimit:10;" x1="1084.57" y1="479.27" x2="1084.57" y2="571.99"></line>
		<line style="fill:none;stroke:#000000;stroke-miterlimit:10;" x1="1029.22" y1="609.15" x2="967.05" y2="609.15"></line>
	</g>
	<rect x="1319.76" y="840.7" style="fill:none;stroke:#000000;stroke-miterlimit:10;" width="297.51" height="93.42"></rect>
	<rect x="1782.38" y="840.7" style="fill:none;stroke:#000000;stroke-miterlimit:10;" width="19.87" height="93.42"></rect>
</g>
<g id="floor">
	<g>
		
			<rect x="184.94" y="1441.82" transform="matrix(-1 -1.224647e-16 1.224647e-16 -1 652.0535 2925.5493)" style="fill:none;stroke:#000000;stroke-miterlimit:10;" width="282.17" height="41.91"></rect>
		<line style="fill:none;stroke:#000000;stroke-miterlimit:10;" x1="467.11" y1="1473.08" x2="184.94" y2="1473.08"></line>
		<line style="fill:none;stroke:#000000;stroke-miterlimit:10;" x1="467.11" y1="1460.26" x2="184.94" y2="1460.26"></line>
		
			<rect x="184.94" y="1460.26" transform="matrix(-1 -1.224647e-16 1.224647e-16 -1 382.6422 2933.342)" style="fill:none;stroke:#000000;stroke-miterlimit:10;" width="12.76" height="12.81"></rect>
		
			<rect x="267.7" y="1460.26" transform="matrix(-1 -1.224647e-16 1.224647e-16 -1 548.2209 2933.342)" style="fill:none;stroke:#000000;stroke-miterlimit:10;" width="12.81" height="12.81"></rect>
		
			<rect x="454.35" y="1460.26" transform="matrix(-1 -1.224647e-16 1.224647e-16 -1 921.4648 2933.342)" style="fill:none;stroke:#000000;stroke-miterlimit:10;" width="12.76" height="12.81"></rect>
	</g>
	<g>
		
			<rect x="601.9" y="1442.13" transform="matrix(-1 -1.224647e-16 1.224647e-16 -1 1485.9816 2926.1753)" style="fill:none;stroke:#000000;stroke-miterlimit:10;" width="282.17" height="41.91"></rect>
		<line style="fill:none;stroke:#000000;stroke-miterlimit:10;" x1="884.08" y1="1473.39" x2="601.9" y2="1473.39"></line>
		<line style="fill:none;stroke:#000000;stroke-miterlimit:10;" x1="884.08" y1="1460.58" x2="601.9" y2="1460.58"></line>
		
			<rect x="601.9" y="1460.58" transform="matrix(-1 -1.224647e-16 1.224647e-16 -1 1216.5702 2933.968)" style="fill:none;stroke:#000000;stroke-miterlimit:10;" width="12.76" height="12.81"></rect>
		
			<rect x="684.67" y="1460.58" transform="matrix(-1 -1.224647e-16 1.224647e-16 -1 1382.149 2933.968)" style="fill:none;stroke:#000000;stroke-miterlimit:10;" width="12.81" height="12.81"></rect>
		
			<rect x="871.31" y="1460.58" transform="matrix(-1 -1.224647e-16 1.224647e-16 -1 1755.3928 2933.968)" style="fill:none;stroke:#000000;stroke-miterlimit:10;" width="12.76" height="12.81"></rect>
	</g>
	<g>
		
			<rect x="1018.06" y="1441.91" transform="matrix(-1 -1.224647e-16 1.224647e-16 -1 2296.042 2925.7173)" style="fill:none;stroke:#000000;stroke-miterlimit:10;" width="259.92" height="41.91"></rect>
		<line style="fill:none;stroke:#000000;stroke-miterlimit:10;" x1="1277.98" y1="1473.16" x2="1018.06" y2="1473.16"></line>
		<line style="fill:none;stroke:#000000;stroke-miterlimit:10;" x1="1277.98" y1="1460.35" x2="1018.06" y2="1460.35"></line>
		
			<rect x="1018.06" y="1460.35" transform="matrix(-1 -1.224647e-16 1.224647e-16 -1 2048.8823 2933.51)" style="fill:none;stroke:#000000;stroke-miterlimit:10;" width="12.76" height="12.81"></rect>
		
			<rect x="1100.82" y="1460.35" transform="matrix(-1 -1.224647e-16 1.224647e-16 -1 2214.4612 2933.51)" style="fill:none;stroke:#000000;stroke-miterlimit:10;" width="12.81" height="12.81"></rect>
		
			<rect x="1265.22" y="1460.35" transform="matrix(-1 -1.224647e-16 1.224647e-16 -1 2543.2017 2933.51)" style="fill:none;stroke:#000000;stroke-miterlimit:10;" width="12.76" height="12.81"></rect>
	</g>
	<g>
		<path style="fill:none;stroke:#000000;stroke-miterlimit:10;" d="M1428.35,464.06c0-81.12-65.97-147.52-147.53-147.52v146.31"></path>
		<rect x="1273.18" y="462.87" style="fill:none;stroke:#000000;stroke-miterlimit:10;" width="7.64" height="14.01"></rect>
		<rect x="1428.35" y="462.87" style="fill:none;stroke:#000000;stroke-miterlimit:10;" width="7.76" height="14.01"></rect>
	</g>
	<g>
		<path style="fill:none;stroke:#000000;stroke-miterlimit:10;" d="M1528.31,588.89c-63.26,0-115.04,51.45-115.04,115.05l114.1,0"></path>
		
			<rect x="1529.87" y="701.46" transform="matrix(6.307264e-06 -1 1 6.307264e-06 825.9181 2239.7649)" style="fill:none;stroke:#000000;stroke-miterlimit:10;" width="5.96" height="10.93"></rect>
		
			<rect x="1529.82" y="580.4" transform="matrix(6.307265e-06 -1 1 6.307265e-06 946.9785 2118.7068)" style="fill:none;stroke:#000000;stroke-miterlimit:10;" width="6.05" height="10.93"></rect>
	</g>
	<g>
		<path style="fill:none;stroke:#000000;stroke-miterlimit:10;" d="M426.3,669.15C426.3,733.4,374.04,786,309.43,786l0-115.9"></path>
		<rect x="303.38" y="658.99" style="fill:none;stroke:#000000;stroke-miterlimit:10;" width="6.05" height="11.1"></rect>
		<rect x="426.3" y="658.99" style="fill:none;stroke:#000000;stroke-miterlimit:10;" width="6.15" height="11.1"></rect>
	</g>
	<g>
		<path style="fill:none;stroke:#000000;stroke-miterlimit:10;" d="M794.15,840.26c0,70.31,57.18,127.87,127.88,127.87l0-126.82"></path>
		
			<rect x="922.03" y="829.15" transform="matrix(-1 -8.248240e-06 8.248240e-06 -1 1850.6714 1670.4465)" style="fill:none;stroke:#000000;stroke-miterlimit:10;" width="6.62" height="12.15"></rect>
		
			<rect x="787.42" y="829.15" transform="matrix(-1 -8.248239e-06 8.248239e-06 -1 1581.5623 1670.4431)" style="fill:none;stroke:#000000;stroke-miterlimit:10;" width="6.73" height="12.15"></rect>
	</g>
	<g>
		<path style="fill:none;stroke:#000000;stroke-miterlimit:10;" d="M647.79,814.73c-70.31,0-127.87-57.18-127.87-127.88l126.82,0"></path>
		
			<rect x="649.52" y="677.47" transform="matrix(4.208920e-06 1 -1 4.208920e-06 1336.3756 30.7073)" style="fill:none;stroke:#000000;stroke-miterlimit:10;" width="6.62" height="12.15"></rect>
		
			<rect x="649.47" y="812.03" transform="matrix(4.208919e-06 1 -1 4.208919e-06 1470.9308 165.2607)" style="fill:none;stroke:#000000;stroke-miterlimit:10;" width="6.73" height="12.15"></rect>
	</g>
	
		<line style="fill:none;stroke:#000000;stroke-miterlimit:10;stroke-dasharray:10,10;" x1="118.88" y1="841.52" x2="541.59" y2="841.52"></line>
	<g>
		<g id="LWPOLYLINE_276_">
			<rect x="1434.78" y="841.15" style="fill:none;stroke:#000000;stroke-miterlimit:10;" width="92.62" height="92.97"></rect>
		</g>
		<g id="LWPOLYLINE_275_">
			<line style="fill:none;stroke:#000000;stroke-miterlimit:10;" x1="1457.81" y1="895.86" x2="1457.81" y2="926.47"></line>
		</g>
		<g id="LWPOLYLINE_274_">
			<line style="fill:none;stroke:#000000;stroke-miterlimit:10;" x1="1473.16" y1="911.16" x2="1442.46" y2="911.16"></line>
		</g>
		<g id="LWPOLYLINE_273_">
			<line style="fill:none;stroke:#000000;stroke-miterlimit:10;" x1="1457.81" y1="849.94" x2="1457.81" y2="880.55"></line>
		</g>
		<g id="LWPOLYLINE_272_">
			<line style="fill:none;stroke:#000000;stroke-miterlimit:10;" x1="1473.16" y1="865.24" x2="1442.46" y2="865.24"></line>
		</g>
		<g id="LWPOLYLINE_271_">
			<line style="fill:none;stroke:#000000;stroke-miterlimit:10;" x1="1503.86" y1="849.94" x2="1503.86" y2="880.55"></line>
		</g>
		<g id="LWPOLYLINE_270_">
			<line style="fill:none;stroke:#000000;stroke-miterlimit:10;" x1="1519.21" y1="865.24" x2="1488.51" y2="865.24"></line>
		</g>
		<g id="LWPOLYLINE_269_">
			<line style="fill:none;stroke:#000000;stroke-miterlimit:10;" x1="1503.86" y1="895.86" x2="1503.86" y2="926.47"></line>
		</g>
		<g id="LWPOLYLINE_268_">
			<line style="fill:none;stroke:#000000;stroke-miterlimit:10;" x1="1519.21" y1="911.16" x2="1488.51" y2="911.16"></line>
		</g>
		<ellipse style="fill:none;stroke:#000000;stroke-miterlimit:10;" cx="1503.86" cy="911.16" rx="12.28" ry="12.32"></ellipse>
		<ellipse style="fill:none;stroke:#000000;stroke-miterlimit:10;" cx="1457.81" cy="911.16" rx="12.28" ry="12.32"></ellipse>
		<ellipse style="fill:none;stroke:#000000;stroke-miterlimit:10;" cx="1503.86" cy="865.24" rx="12.28" ry="12.32"></ellipse>
		<ellipse style="fill:none;stroke:#000000;stroke-miterlimit:10;" cx="1457.81" cy="865.24" rx="12.28" ry="12.32"></ellipse>
	</g>
	<g>
		<g id="LWPOLYLINE_267_">
			<rect x="1690.32" y="841.5" style="fill:none;stroke:#000000;stroke-miterlimit:10;" width="92.09" height="92.62"></rect>
		</g>
		<g id="LWPOLYLINE_266_">
			<path style="fill:none;stroke:#000000;stroke-miterlimit:10;" d="M1697.99,921l0-58.62c0-2.98,2.4-5.4,5.37-5.4c0,0,66,0,66,0
				c2.97,0,5.37,2.42,5.37,5.4c0,0,0,58.62,0,58.62c0,2.98-2.4,5.4-5.37,5.4c0,0-66,0-66,0
				C1700.39,926.4,1697.99,923.99,1697.99,921z"></path>
		</g>
		<g id="LWPOLYLINE_265_">
			<path style="fill:none;stroke:#000000;stroke-miterlimit:10;" d="M1721.01,877.41c-2.97,0-5.38-2.42-5.38-5.42
				c0-2.99,2.41-5.42,5.38-5.42c2.97,0,5.38,2.42,5.38,5.42C1726.4,874.98,1723.99,877.41,1721.01,877.41z"></path>
		</g>
	</g>
	<g>
		<g>
			<g id="LWPOLYLINE_527_">
				<polygon style="fill:none;stroke:#000000;stroke-miterlimit:10;" points="1803.42,825.3 1538.92,823.6 1538.93,716.91 
					1803.42,718.62 				"></polygon>
			</g>
			<g id="LWPOLYLINE_526_">
				<path style="fill:none;stroke:#000000;stroke-miterlimit:10;" d="M1574.53,725.45l173.78,1.71c25.27,0,45.75,20.06,45.75,44.8
					c0,24.75-20.48,44.81-45.75,44.81l-173.78-1.71c-12.08,0-21.91-9.51-22.05-21.33l0-46.94c0-11.78,9.76-21.34,21.79-21.34"></path>
			</g>
			<g id="LWPOLYLINE_525_">
				<path style="fill:none;stroke:#000000;stroke-miterlimit:10;" d="M1628.92,737.64l119.38,1.71c18.4,0,33.31,14.6,33.3,32.62
					c0,18.01-14.91,32.61-33.31,32.61l-117.67-1.71c-17.72-0.01-32.33-13.6-33.25-30.93
					C1596.42,753.93,1610.54,738.58,1628.92,737.64z"></path>
			</g>
			<g id="LWPOLYLINE_524_">
				<path style="fill:none;stroke:#000000;stroke-miterlimit:10;" d="M1754.4,771.96c0,3.3-2.73,5.97-6.1,5.97
					c-3.37,0-6.1-2.67-6.1-5.97c0-3.3,2.73-5.97,6.1-5.97C1751.67,765.99,1754.4,768.66,1754.4,771.96z"></path>
			</g>
		</g>
		<g>
			<g id="LWPOLYLINE_523_">
				<path style="fill:none;stroke:#000000;stroke-miterlimit:10;" d="M1750.83,534.46l-43.1,0c-15,0-27.15,12.41-27.15,27.73
					c0,15.31,12.16,27.73,27.16,27.73l43.1,0c3.75,0,6.79-3.1,6.79-6.93l0-41.6C1757.62,537.56,1754.58,534.46,1750.83,534.46z"></path>
			</g>
			<g id="LWPOLYLINE_522_">
				<path style="fill:none;stroke:#000000;stroke-miterlimit:10;" d="M1707.74,584.38l24.11-0.01c12,0,21.72-9.93,21.72-22.18
					c0-12.25-9.72-22.19-21.72-22.19l-24.11,0.01c-12,0-21.72,9.93-21.72,22.18C1686.01,574.44,1695.74,584.38,1707.74,584.38z"></path>
			</g>
			<g id="LWPOLYLINE_521_">
				<path style="fill:none;stroke:#000000;stroke-miterlimit:10;" d="M1716.47,570.51l17.62-0.01c4.5,0,8.15-3.72,8.15-8.32
					c0-4.59-3.65-8.32-8.15-8.32l-17.62,0.01c-4.5,0-8.14,3.72-8.14,8.32C1708.33,566.79,1711.98,570.51,1716.47,570.51z"></path>
			</g>
		</g>
		<g>
			<g id="LWPOLYLINE_517_">
				<path style="fill:none;stroke:#000000;stroke-miterlimit:10;" d="M1802.92,635.1l-38.76,0c-5.46,0-10.3,3.45-11.97,8.54
					c-6.07,18.47-6.07,38.34,0,56.82c1.67,5.09,6.51,8.54,11.97,8.54l38.76,0"></path>
			</g>
			<g id="LWPOLYLINE_516_">
				<path style="fill:none;stroke:#000000;stroke-miterlimit:10;" d="M1792.08,691.76c0,4.08-3.38,7.39-7.55,7.39l-12.08,0
					c-2.76,0-5.2-1.77-6.01-4.35c-4.63-14.82-4.64-30.66,0-45.48c0.81-2.59,3.25-4.35,6.01-4.35l12.08,0c4.17,0,7.55,3.31,7.55,7.39
					"></path>
			</g>
			<g id="LWPOLYLINE_515_">
				<path style="fill:none;stroke:#000000;stroke-miterlimit:10;" d="M1784.53,640.03l-20.37,0c-3.28,0-6.18,2.07-7.18,5.12
					c-5.75,17.49-5.75,36.31,0,53.8c1.01,3.05,3.91,5.12,7.18,5.12l20.37,0c4.17,0,7.55-3.31,7.55-7.39l0-49.27
					C1792.07,643.33,1788.69,640.02,1784.53,640.03z"></path>
			</g>
			<g id="LWPOLYLINE_514_">
				<path style="fill:none;stroke:#000000;stroke-miterlimit:10;" d="M1789.83,672.05c0-1.83-1.51-3.32-3.38-3.32
					c-1.87,0-3.38,1.49-3.38,3.32c0,1.83,1.52,3.31,3.38,3.31C1788.31,675.36,1789.83,673.88,1789.83,672.05z"></path>
			</g>
		</g>
	</g>
	<g>
		<g>
			<g id="LWPOLYLINE_74_">
				<path style="fill:none;stroke:#000000;stroke-miterlimit:10;" d="M203.23,557.63l43.1,0c15,0,27.15,12.41,27.15,27.73
					c0,15.31-12.16,27.73-27.16,27.73l-43.1,0c-3.75,0-6.79-3.1-6.79-6.93l0-41.6C196.44,560.73,199.48,557.63,203.23,557.63z"></path>
			</g>
			<g id="LWPOLYLINE_73_">
				<path style="fill:none;stroke:#000000;stroke-miterlimit:10;" d="M246.32,607.54l-24.11-0.01c-12,0-21.72-9.93-21.72-22.18
					c0-12.25,9.72-22.19,21.72-22.19l24.11,0.01c12,0,21.72,9.93,21.72,22.18C268.05,597.61,258.32,607.54,246.32,607.54z"></path>
			</g>
			<g id="LWPOLYLINE_72_">
				<path style="fill:none;stroke:#000000;stroke-miterlimit:10;" d="M237.58,593.68l-17.62-0.01c-4.5,0-8.15-3.72-8.15-8.32
					c0-4.59,3.65-8.32,8.15-8.32l17.62,0.01c4.5,0,8.14,3.72,8.14,8.32C245.73,589.95,242.08,593.68,237.58,593.68z"></path>
			</g>
		</g>
		<g>
			<g id="LWPOLYLINE_71_">
				<path style="fill:none;stroke:#000000;stroke-miterlimit:10;" d="M404.86,494.54l0,38.76c0,5.46-3.45,10.3-8.54,11.97
					c-18.47,6.07-38.34,6.07-56.82,0c-5.09-1.67-8.54-6.51-8.54-11.97l0-38.76"></path>
			</g>
			<g id="LWPOLYLINE_70_">
				<path style="fill:none;stroke:#000000;stroke-miterlimit:10;" d="M348.21,505.39c-4.08,0-7.39,3.38-7.39,7.55l0,12.08
					c0,2.76,1.77,5.2,4.35,6.01c14.82,4.63,30.66,4.64,45.48,0c2.59-0.81,4.35-3.25,4.35-6.01l0-12.08c0-4.17-3.31-7.55-7.39-7.55"></path>
			</g>
			<g id="LWPOLYLINE_69_">
				<path style="fill:none;stroke:#000000;stroke-miterlimit:10;" d="M399.94,512.94l0,20.37c0,3.28-2.07,6.18-5.12,7.18
					c-17.49,5.75-36.31,5.75-53.8,0c-3.05-1.01-5.12-3.91-5.12-7.18l0-20.37c0-4.17,3.31-7.55,7.39-7.55l49.27,0
					C396.63,505.39,399.94,508.77,399.94,512.94z"></path>
			</g>
			<g id="LWPOLYLINE_68_">
				<path style="fill:none;stroke:#000000;stroke-miterlimit:10;" d="M367.91,507.63c1.83,0,3.32,1.51,3.32,3.38
					c0,1.87-1.49,3.38-3.32,3.38c-1.83,0-3.31-1.52-3.31-3.38C364.6,509.15,366.08,507.63,367.91,507.63z"></path>
			</g>
		</g>
		<g>
			<g id="CIRCLE_62_">
				<path style="fill:none;stroke:#000000;stroke-miterlimit:10;" d="M540.35,512.54c-3.3,0-5.98,2.68-5.98,5.98
					c0,3.3,2.68,5.98,5.98,5.98c3.3,0,5.98-2.68,5.98-5.98C546.33,515.22,543.66,512.54,540.35,512.54L540.35,512.54z"></path>
			</g>
			<g id="LWPOLYLINE_67_">
				<path style="fill:none;stroke:#000000;stroke-miterlimit:10;" d="M474.37,651.05c-16.51,0-29.9-13.38-29.9-29.9
					c0,0,0-106.37,0-106.37c0-6.19,5.02-11.21,11.21-11.21l88.4,0c6.19,0,11.21,5.02,11.21,11.21l0,125.05
					c0,6.19-5.02,11.21-11.21,11.21L474.37,651.05z"></path>
			</g>
			<g id="LWPOLYLINE_66_">
				<path style="fill:none;stroke:#000000;stroke-miterlimit:10;" d="M562.77,658.52l-88.4,0c-20.64,0-37.37-16.73-37.37-37.37
					c0,0,0-125.05,0-125.05l125.78,0L562.77,658.52l-88.4,0c-20.64,0-37.37-16.73-37.37-37.37c0,0,0-125.05,0-125.05"></path>
			</g>
		</g>
	</g>
	
		<line style="fill:none;stroke:#000000;stroke-miterlimit:10;stroke-dasharray:10,10;" x1="688.69" y1="664.81" x2="833.72" y2="664.81"></line>
	
		<line style="fill:none;stroke:#000000;stroke-miterlimit:10;stroke-dasharray:10,10;" x1="961.38" y1="666.24" x2="961.38" y2="835.45"></line>
	
		<line style="fill:none;stroke:#000000;stroke-miterlimit:10;stroke-dasharray:10,10;" x1="1015.34" y1="664.88" x2="1159.08" y2="664.88"></line>
	
		<line style="fill:none;stroke:#000000;stroke-miterlimit:10;stroke-dasharray:10,10;" x1="964.74" y1="835.54" x2="1181.42" y2="835.54"></line>
	<g>
		<g id="LWPOLYLINE_77_">
			<rect x="574.58" y="479.91" style="fill:none;stroke:#000000;stroke-miterlimit:10;" width="93.93" height="70.45"></rect>
		</g>
		<g>
			<g id="LWPOLYLINE_76_">
				<polyline style="fill:none;stroke:#000000;stroke-miterlimit:10;" points="648.59,493.85 621.57,526.04 621.51,504.24 
					594.49,536.42 				"></polyline>
			</g>
			<g id="LWPOLYLINE_75_">
				<path style="fill:none;stroke:#000000;stroke-miterlimit:10;" d="M621.47,490.91c-13.1,0.04-23.69,10.91-23.66,24.29
					c0.03,13.38,10.68,24.19,23.78,24.16c13.1-0.04,23.7-10.91,23.66-24.29C645.23,501.69,634.58,490.88,621.47,490.91z"></path>
			</g>
		</g>
	</g>
	<g>
		<polygon style="fill:none;stroke:#000000;stroke-miterlimit:10;" points="1661.87,1442.93 1859.45,1246.47 1799.14,1188.89 
			1602.32,1385.65 		"></polygon>
		<line style="fill:none;stroke:#000000;stroke-miterlimit:10;" x1="1816.41" y1="1206.26" x2="1620.37" y2="1401.19"></line>
		<line style="fill:none;stroke:#000000;stroke-miterlimit:10;" x1="1825.44" y1="1215.34" x2="1629.4" y2="1410.28"></line>
		
			<rect x="1623.03" y="1394.83" transform="matrix(-0.7091 0.7051 -0.7051 -0.7091 3772.8594 1246.0614)" style="fill:none;stroke:#000000;stroke-miterlimit:10;" width="12.76" height="12.81"></rect>
		
			<rect x="1707.94" y="1310.39" transform="matrix(-0.7091 0.7051 -0.7051 -0.7091 3858.4409 1041.8859)" style="fill:none;stroke:#000000;stroke-miterlimit:10;" width="12.76" height="12.81"></rect>
		
			<rect x="1810.02" y="1208.89" transform="matrix(-0.7091 0.7051 -0.7051 -0.7091 3961.355 796.4341)" style="fill:none;stroke:#000000;stroke-miterlimit:10;" width="12.76" height="12.81"></rect>
	</g>
	<g>
		
			<rect x="1786.47" y="979.75" transform="matrix(-1.836970e-16 1 -1 -1.836970e-16 2879.3062 -836.445)" style="fill:none;stroke:#000000;stroke-miterlimit:10;" width="142.81" height="83.36"></rect>
		<line style="fill:none;stroke:#000000;stroke-miterlimit:10;" x1="1840.75" y1="950.03" x2="1840.75" y2="1092.84"></line>
		<line style="fill:none;stroke:#000000;stroke-miterlimit:10;" x1="1853.56" y1="950.03" x2="1853.56" y2="1092.84"></line>
		
			<rect x="1838.37" y="1077.65" transform="matrix(-1.836970e-16 1 -1 -1.836970e-16 2931.207 -763.1008)" style="fill:none;stroke:#000000;stroke-miterlimit:10;" width="17.56" height="12.81"></rect>
		
			<rect x="1840.59" y="950.18" transform="matrix(-1.836970e-16 1 -1 -1.836970e-16 2803.7441 -890.5635)" style="fill:none;stroke:#000000;stroke-miterlimit:10;" width="13.13" height="12.81"></rect>
	</g>
	<g>
		<rect x="99.99" y="462.81" style="fill-rule:evenodd;clip-rule:evenodd;" width="33.96" height="993.14"></rect>
		<rect x="99.99" y="1441.74" style="fill-rule:evenodd;clip-rule:evenodd;" width="86.36" height="42.08"></rect>
		<rect x="99.99" y="449.58" style="fill-rule:evenodd;clip-rule:evenodd;" width="475.46" height="48.71"></rect>
		<rect x="572.51" y="449.58" style="fill-rule:evenodd;clip-rule:evenodd;" width="702.75" height="31.08"></rect>
		<rect x="561.63" y="492.93" style="fill-rule:evenodd;clip-rule:evenodd;" width="13.82" height="172"></rect>
		<rect x="429.71" y="657.9" style="fill-rule:evenodd;clip-rule:evenodd;" width="144.6" height="13.82"></rect>
		<rect x="570.56" y="659.14" style="fill-rule:evenodd;clip-rule:evenodd;" width="121.07" height="12.58"></rect>
		<rect x="646.56" y="667.47" style="fill-rule:evenodd;clip-rule:evenodd;" width="12.35" height="14.14"></rect>
		<rect x="189.44" y="490.9" style="fill-rule:evenodd;clip-rule:evenodd;" width="9.66" height="177.38"></rect>
		<rect x="121.32" y="490.9" style="fill-rule:evenodd;clip-rule:evenodd;" width="23.41" height="172.83"></rect>
		<rect x="130.65" y="661.07" style="fill-rule:evenodd;clip-rule:evenodd;" width="69.95" height="10.65"></rect>
		<rect x="194.72" y="657.9" style="fill-rule:evenodd;clip-rule:evenodd;" width="111.5" height="13.82"></rect>
		<rect x="464.5" y="1442.34" style="fill-rule:evenodd;clip-rule:evenodd;" width="138.41" height="41.68"></rect>
		<rect x="535.42" y="831.97" style="fill-rule:evenodd;clip-rule:evenodd;" width="12.35" height="619.78"></rect>
		<rect x="535.42" y="829.36" style="fill-rule:evenodd;clip-rule:evenodd;" width="253.16" height="12.35"></rect>
		<rect x="646.35" y="820.16" style="fill-rule:evenodd;clip-rule:evenodd;" width="12.73" height="16.72"></rect>
		<rect x="881.19" y="1441.95" style="fill-rule:evenodd;clip-rule:evenodd;" width="139.7" height="42.06"></rect>
		<rect x="933.67" y="1254.02" style="fill-rule:evenodd;clip-rule:evenodd;" width="33.96" height="200.34"></rect>
		<rect x="955.13" y="825.8" style="fill-rule:evenodd;clip-rule:evenodd;" width="12.51" height="438.27"></rect>
		<rect x="927.26" y="829.15" style="fill-rule:evenodd;clip-rule:evenodd;" width="29.7" height="12.69"></rect>
		<rect x="814.92" y="659.21" style="fill-rule:evenodd;clip-rule:evenodd;" width="216.49" height="12.35"></rect>
		<rect x="955.07" y="624.82" style="fill-rule:evenodd;clip-rule:evenodd;" width="12.86" height="38.33"></rect>
		<rect x="933.67" y="467.84" style="fill-rule:evenodd;clip-rule:evenodd;" width="34.25" height="167.18"></rect>
		<rect x="1157.5" y="473.35" style="fill-rule:evenodd;clip-rule:evenodd;" width="12.23" height="192.89"></rect>
		<rect x="1154.4" y="659.21" style="fill-rule:evenodd;clip-rule:evenodd;" width="15.33" height="12.35"></rect>
		<rect x="1168.31" y="829.19" style="fill-rule:evenodd;clip-rule:evenodd;" width="670.98" height="12.52"></rect>
		<rect x="1525.96" y="708.11" style="fill-rule:evenodd;clip-rule:evenodd;" width="13.82" height="126.37"></rect>
		<rect x="1535.66" y="824.04" style="fill-rule:evenodd;clip-rule:evenodd;" width="314.93" height="11.41"></rect>
		<rect x="1434.26" y="449.79" style="fill-rule:evenodd;clip-rule:evenodd;" width="416.33" height="30.87"></rect>
		<rect x="1810.45" y="471.9" style="fill-rule:evenodd;clip-rule:evenodd;" width="40.13" height="358.28"></rect>
		<rect x="1816.63" y="449.79" style="fill-rule:evenodd;clip-rule:evenodd;" width="83.36" height="501.44"></rect>
		<rect x="1802.25" y="620.32" style="fill-rule:evenodd;clip-rule:evenodd;" width="30.66" height="207.88"></rect>
		<rect x="1757" y="614.66" style="fill-rule:evenodd;clip-rule:evenodd;" width="61.28" height="10.16"></rect>
		<rect x="1757" y="470.45" style="fill-rule:evenodd;clip-rule:evenodd;" width="10.1" height="148.72"></rect>
		<rect x="1525.65" y="463.78" style="fill-rule:evenodd;clip-rule:evenodd;" width="14.13" height="120.84"></rect>
		<rect x="1534.34" y="467.65" style="fill-rule:evenodd;clip-rule:evenodd;" width="301.47" height="27.45"></rect>
		<rect x="1367.43" y="1254.02" style="fill-rule:evenodd;clip-rule:evenodd;" width="33.96" height="186.33"></rect>
		<rect x="1816.63" y="1090.01" style="fill-rule:evenodd;clip-rule:evenodd;" width="83.36" height="116.14"></rect>
		
			<rect x="1807.18" y="1167.7" transform="matrix(0.7071 0.7071 -0.7071 0.7071 1388.6578 -956.5632)" style="fill-rule:evenodd;clip-rule:evenodd;" width="83.65" height="60.55"></rect>
		
			<rect x="1431.89" y="1293.41" transform="matrix(1.246432e-10 1 -1 1.246432e-10 2916.0288 -26.1687)" style="fill-rule:evenodd;clip-rule:evenodd;" width="78.41" height="303.04"></rect>
		
			<rect x="1572.63" y="1402.88" transform="matrix(0.7071 0.7071 -0.7071 0.7071 1486.254 -721.8289)" style="fill-rule:evenodd;clip-rule:evenodd;" width="83.65" height="60.55"></rect>
		<rect x="1394.9" y="1400.66" style="fill-rule:evenodd;clip-rule:evenodd;" width="205.37" height="36.28"></rect>
		<rect x="1274.9" y="1442.34" style="fill-rule:evenodd;clip-rule:evenodd;" width="58.7" height="41.8"></rect>
	</g>
</g>
</svg>
