<?xml version="1.0" encoding="utf-8"?>
<!-- Generator: Adobe Illustrator 24.1.2, SVG Export Plug-In . SVG Version: 6.00 Build 0)  -->
<svg version="1.1" id="Layer_1" xmlns="http://www.w3.org/2000/svg" xmlns:xlink="http://www.w3.org/1999/xlink" xmlns:a="http://ns.adobe.com/AdobeSVGViewerExtensions/3.0/" x="0px" y="0px" width="2000px" height="2000px" viewBox="0 0 2000 2000" style="enable-background:new 0 0 2000 2000;" xml:space="preserve">
<path id="background" style="fill-rule:evenodd;clip-rule:evenodd;fill:#FFFFFF;" d="M1900.09,231.05v38.5V782h-0.21v0.38h-174.15
	h-15.4v-19.45c-0.09,0.07-0.2,0.12-0.32,0.12h-8.2c-0.91,80.27-66.13,145.3-146.19,145.3c-0.28,0-0.5-0.22-0.5-0.5l0-144.8h-8.1
	v19.32h-214.88v548.66v397.42h-38.74v-4.95h-7.84h-140.08c-0.02,0-0.03-0.01-0.05-0.01c-0.02,0-0.03,0.01-0.05,0.01h-8.16
	c-0.1,0-0.18-0.03-0.26-0.08c-0.08,0.05-0.16,0.08-0.26,0.08H994.73h-0.48H986H842.84h-0.3h-8.43H692.53
	c-0.02,0-0.03-0.01-0.05-0.01c-0.02,0-0.03,0.01-0.05,0.01h-8.73c-0.11,0-0.21-0.04-0.3-0.11c-0.08,0.06-0.18,0.11-0.3,0.11H535.62
	c-0.02,0-0.03-0.01-0.05-0.01c-0.02,0-0.03,0.01-0.05,0.01h-4.61h-3.56v1.3v44.14H242.1v-51.46v-19.79V1607h0
	c-0.28,0-0.5-0.22-0.5-0.5v-332.99c0-0.28,0.22-0.5,0.5-0.5h0.07v-164.75h-0.07c-0.28,0-0.5-0.22-0.5-0.5V774.78
	c0-0.28,0.22-0.5,0.5-0.5h0.07V647.43c-0.08-0.09-0.13-0.2-0.13-0.33v-11.85H100.09c-0.28,0-0.5-0.22-0.5-0.5V340.44
	c0-0.28,0.22-0.5,0.5-0.5h141.95v-7.69c0-0.22,0.15-0.41,0.35-0.47V231.41h0.15v-0.22h1626.49v-0.14h4.05H1900.09z"></path>
<g id="c1">
	<path id="c1_path" style="fill:none;" d="M1309.6,1687.88H266.61v-34.89v-45.49h-0.7l0.07-117.23l0.04-0.13l0.05-97.3h5.79
		V1180.8h753.8v-106.07h283.94V1687.88z"></path>
	<text id="c1_text" transform="matrix(1 0 0 1 668.1204 1551.4639)" style="font-family: GraphikLCG-Regular; font-size: 40px; text-anchor: middle; text-align: center;"></text>
</g>
<g id="r1">
	<path id="r1_path" style="fill:none;" d="M264.61,256.76h548.97v464.81l-548.97,0.02V256.76z"></path>
	<text id="r1_text" transform="matrix(1 0 0 1 722.0814 521.5127)" style="font-family: GraphikLCG-Regular; font-size: 40px; text-anchor: middle; text-align: center;"></text>
</g>
<g id="r2">
	<path id="r2_path" style="fill:none;" d="M1026.09,764.93v154.24v265.51H610.26V1184l-343.06-0.18V764.93l0,0v-43.35h757.61
		v43.35H1026.09z"></path>
	<text id="r2_text" transform="matrix(1 0 0 1 716.2117 964.6191)" style="font-family: GraphikLCG-Regular; font-size: 40px; text-anchor: middle; text-align: center;"></text>
</g>
<g id="s1">
	<path id="s1_path" style="fill:none;" d="M1868.64,562.91H1553.4V261.08h315.24V562.91z"></path>
	<text id="s1_text" transform="matrix(1 0 0 1 1630.514 486.3291)" style="font-family: GraphikLCG-Regular; font-size: 40px; text-anchor: middle; text-align: center;"></text>
</g>
<g id="s2">
	<path id="s2_path" style="fill:none;" d="M1555.24,563.28h-457.21V269.12h457.21V563.28z"></path>
	<text id="s2_text" transform="matrix(1 0 0 1 1268.6698 442.0674)" style="font-family: GraphikLCG-Regular; font-size: 40px; text-anchor: middle; text-align: center;"></text>
</g>
<g id="g1">
	<path id="g1_path" style="fill:none;" d="M1098.03,264.55v297.47l-71.08-0.84v162.13H815.28l1.4-456.47l139.04-3.14
		L1098.03,264.55z"></path>
	<text id="g1_text" transform="matrix(1 0 0 1 860.43 601.9307)" style="font-family: GraphikLCG-Regular; font-size: 40px; text-anchor: middle; text-align: center;"></text>
</g>
<g id="h1">
	<path id="h1_path" style="fill:none;" d="M1882.71,612.98v135.37l-414.3-0.01l-0.16,0.01l-26.16,0v-0.28h-133.78v326.01h-281.35
		V748.07h-3.57v-7.59h3.57V698.3h0.65V564.17h855.09L1882.71,612.98z"></path>
	<text id="h1_text" transform="matrix(1 0 0 1 1463.3436 657.8301)" style="font-family: GraphikLCG-Regular; font-size: 40px; text-anchor: middle; text-align: center;"></text>
</g>
<g id="b1">
	<path id="b1_path" style="fill:none;" d="M254.85,629.65H101.56V343.12h153.29V629.65z"></path>
	<text id="b1_text" transform="matrix(1 0 0 1 157.7923 510.6797)" style="font-family: GraphikLCG-Regular; font-size: 40px; text-anchor: middle; text-align: center;"></text>
</g>
<path id="u7" style="fill:#FFFFFF;stroke:#FFFFFF;stroke-linecap:round;stroke-linejoin:round;stroke-miterlimit:10;" d="
	M1116.34,1620.54c0,7.18-5.82,13-13,13c-7.18,0-13-5.82-13-13s5.82-13,13-13C1110.52,1607.54,1116.34,1613.36,1116.34,1620.54z"></path>
<path id="u3" style="fill:#FFFFFF;stroke:#FFFFFF;stroke-linecap:round;stroke-linejoin:round;stroke-miterlimit:10;" d="
	M1641.48,401.15c0,7.18-5.82,13-13,13c-7.18,0-13-5.82-13-13c0-7.18,5.82-13,13-13C1635.66,388.15,1641.48,393.97,1641.48,401.15z"></path>
<path id="u9" style="fill:#FFFFFF;stroke:#FFFFFF;stroke-linecap:round;stroke-linejoin:round;stroke-miterlimit:10;" d="
	M1162.6,509.25c0,7.18-5.82,13-13,13c-7.18,0-13-5.82-13-13c0-7.18,5.82-13,13-13C1156.78,496.25,1162.6,502.07,1162.6,509.25z"></path>
<path id="u11" style="fill:#FFFFFF;stroke:#FFFFFF;stroke-linecap:round;stroke-linejoin:round;stroke-miterlimit:10;" d="
	M155.12,575.22c0,7.18-5.82,13-13,13c-7.18,0-13-5.82-13-13c0-7.18,5.82-13,13-13C149.3,562.22,155.12,568.04,155.12,575.22z"></path>
<g id="mebel">
	<g>
		<g>
			<path style="fill:none;stroke:#000000;stroke-linecap:round;stroke-linejoin:round;stroke-miterlimit:10;" d="M863.53,1352.74
				l-23.5,2.69c-14.7,1.68-25.82,14.45-25.82,29.64v1.73c0,15.18,11.11,27.94,25.79,29.64l23.53,2.72V1352.74z"></path>
			<path style="fill:none;stroke:#000000;stroke-linecap:round;stroke-linejoin:round;stroke-miterlimit:10;" d="M844.14,1425.59
				l-5.19-0.6c-18.81-2.17-33.03-18.51-33.03-37.95v-2.21c0-19.46,14.24-35.8,33.07-37.96l5.15-0.59c2.49-0.28,4.67,1.72,4.67,4.29
				l0,0c0,2.2-1.61,4.05-3.74,4.29l-5.03,0.58c-14.7,1.68-25.82,14.45-25.82,29.64v1.73c0,15.18,11.11,27.94,25.79,29.64l5.07,0.58
				c2.12,0.25,3.73,2.09,3.73,4.28l0,0C848.8,1423.87,846.62,1425.87,844.14,1425.59z"></path>
		</g>
		<g>
			<path style="fill:none;stroke:#000000;stroke-linecap:round;stroke-linejoin:round;stroke-miterlimit:10;" d="M863.53,1470.55
				l-23.5,2.69c-14.7,1.68-25.82,14.45-25.82,29.64v1.73c0,15.18,11.11,27.94,25.79,29.64l23.53,2.72V1470.55z"></path>
			<path style="fill:none;stroke:#000000;stroke-linecap:round;stroke-linejoin:round;stroke-miterlimit:10;" d="M844.14,1543.4
				l-5.19-0.6c-18.81-2.17-33.03-18.51-33.03-37.95v-2.21c0-19.46,14.24-35.8,33.07-37.96l5.15-0.59c2.49-0.28,4.67,1.72,4.67,4.29
				l0,0c0,2.2-1.61,4.05-3.74,4.29l-5.03,0.58c-14.7,1.68-25.82,14.45-25.82,29.64v1.73c0,15.18,11.11,27.94,25.79,29.64l5.07,0.58
				c2.12,0.24,3.73,2.09,3.73,4.28v0C848.8,1541.68,846.62,1543.68,844.14,1543.4z"></path>
		</g>
		
			<rect x="803.93" y="1388.51" transform="matrix(-1.175115e-10 1 -1 -1.175115e-10 2371.1704 524.7347)" style="fill:none;stroke:#000000;stroke-linecap:round;stroke-linejoin:round;stroke-miterlimit:10;" width="238.57" height="118.89"></rect>
		<g>
			<path style="fill:none;stroke:#000000;stroke-linecap:round;stroke-linejoin:round;stroke-miterlimit:10;" d="M982.85,1352.52
				l23.5,2.69c14.7,1.68,25.82,14.45,25.82,29.64v1.73c0,15.18-11.11,27.94-25.79,29.64l-23.53,2.72L982.85,1352.52z"></path>
			<path style="fill:none;stroke:#000000;stroke-linecap:round;stroke-linejoin:round;stroke-miterlimit:10;" d="M1002.25,1425.36
				l5.19-0.6c18.81-2.17,33.03-18.51,33.03-37.95v-2.21c0-19.46-14.24-35.8-33.07-37.96l-5.15-0.59c-2.49-0.28-4.67,1.72-4.67,4.29
				l0,0c0,2.2,1.61,4.05,3.74,4.29l5.03,0.58c14.7,1.68,25.82,14.45,25.82,29.64v1.73c0,15.18-11.11,27.94-25.79,29.64l-5.07,0.58
				c-2.12,0.25-3.73,2.09-3.73,4.28l0,0C997.58,1423.65,999.76,1425.65,1002.25,1425.36z"></path>
		</g>
		<g>
			<path style="fill:none;stroke:#000000;stroke-linecap:round;stroke-linejoin:round;stroke-miterlimit:10;" d="M982.85,1470.33
				l23.5,2.69c14.7,1.68,25.82,14.45,25.82,29.64v1.73c0,15.18-11.11,27.94-25.79,29.64l-23.53,2.72L982.85,1470.33z"></path>
			<path style="fill:none;stroke:#000000;stroke-linecap:round;stroke-linejoin:round;stroke-miterlimit:10;" d="M1002.25,1543.17
				l5.19-0.6c18.81-2.17,33.03-18.51,33.03-37.95v-2.21c0-19.46-14.24-35.8-33.07-37.96l-5.15-0.59c-2.49-0.28-4.67,1.72-4.67,4.29
				l0,0c0,2.2,1.61,4.05,3.74,4.29l5.03,0.58c14.7,1.68,25.82,14.45,25.82,29.64v1.73c0,15.18-11.11,27.94-25.79,29.64l-5.07,0.58
				c-2.12,0.25-3.73,2.09-3.73,4.28l0,0C997.58,1541.46,999.76,1543.46,1002.25,1543.17z"></path>
		</g>
	</g>
	<g>
		<path style="fill:none;stroke:#000000;stroke-linecap:round;stroke-linejoin:round;stroke-miterlimit:10;" d="M926.68,1426.87
			l16.46,24.13c4.32,6.33,2.68,14.96-3.65,19.28h0c-6.33,4.32-14.96,2.68-19.28-3.65l-16.46-24.13c-4.32-6.33-2.68-14.96,3.65-19.28
			l0,0C913.73,1418.91,922.36,1420.55,926.68,1426.87z"></path>
		
			<circle style="fill:none;stroke:#000000;stroke-linecap:round;stroke-linejoin:round;stroke-miterlimit:10;" cx="930.75" cy="1462.07" r="5.22"></circle>
		
			<circle style="fill:none;stroke:#000000;stroke-linecap:round;stroke-linejoin:round;stroke-miterlimit:10;" cx="932.18" cy="1450.3" r="5.22"></circle>
		
			<circle style="fill:none;stroke:#000000;stroke-linecap:round;stroke-linejoin:round;stroke-miterlimit:10;" cx="920.73" cy="1453.19" r="5.22"></circle>
		<path style="fill:none;stroke:#000000;stroke-linecap:round;stroke-linejoin:round;stroke-miterlimit:10;" d="M904.75,1439.58
			l0.46,1.09l4.15-1.96c9.1-1.14,13.12,5.1,15.66,8.36c0.59,0.75,1.8,0.26,1.71-0.69c-0.34-3.36-1.61-8.4-6.09-10.86
			c-5.12-2.81-9.55,0.16-11.6,2.01L904.75,1439.58z"></path>
		<path style="fill:none;stroke:#000000;stroke-linecap:round;stroke-linejoin:round;stroke-miterlimit:10;" d="M910.43,1429.69
			l0.12,1.18l4.54-0.67c9.04,1.56,11.06,8.71,12.54,12.56c0.34,0.89,1.65,0.77,1.83-0.16c0.66-3.31,0.91-8.5-2.66-12.16
			c-4.08-4.19-9.18-2.63-11.68-1.46L910.43,1429.69z"></path>
	</g>
	<g>
		
			<rect x="1732.94" y="606.69" transform="matrix(-1.189426e-09 1 -1 -1.189426e-09 2476.8792 -1167.6011)" style="fill:none;stroke:#000000;stroke-linecap:round;stroke-linejoin:round;stroke-miterlimit:10;" width="178.6" height="95.89"></rect>
		
			<line style="fill:none;stroke:#000000;stroke-linecap:round;stroke-linejoin:round;stroke-miterlimit:10;" x1="1778.72" y1="565.34" x2="1778.72" y2="743.94"></line>
	</g>
	<g>
		<g>
			<path style="fill:none;stroke:#000000;stroke-linecap:round;stroke-linejoin:round;stroke-miterlimit:10;" d="M572.56,1229.3
				l114.08,0c1.06,0,1.92-0.86,1.92-1.92v-33.02c0-1.06-0.86-1.92-1.92-1.92H572.56c-1.06,0-1.92,0.86-1.92,1.92l0,33.02
				C570.64,1228.44,571.5,1229.3,572.56,1229.3z"></path>
			<path style="fill:none;stroke:#000000;stroke-linecap:round;stroke-linejoin:round;stroke-miterlimit:10;" d="M572.56,1229.3
				h114.08c1.06,0,1.92,0.86,1.92,1.92l0,104.1c0,1.06-0.86,1.92-1.92,1.92H572.56c-1.06,0-1.92-0.86-1.92-1.92l0-104.1
				C570.64,1230.16,571.5,1229.3,572.56,1229.3z"></path>
			<path style="fill:none;stroke:#000000;stroke-linecap:round;stroke-linejoin:round;stroke-miterlimit:10;" d="M454.64,1229.3
				h114.08c1.06,0,1.92-0.86,1.92-1.92v-33.02c0-1.06-0.86-1.92-1.92-1.92l-114.08,0c-1.06,0-1.92,0.86-1.92,1.92l0,33.02
				C452.73,1228.44,453.58,1229.3,454.64,1229.3z"></path>
			<path style="fill:none;stroke:#000000;stroke-linecap:round;stroke-linejoin:round;stroke-miterlimit:10;" d="M454.64,1229.3
				l114.08,0c1.06,0,1.92,0.86,1.92,1.92l0,104.1c0,1.06-0.86,1.92-1.92,1.92l-114.08,0c-1.06,0-1.92-0.86-1.92-1.92l0-104.1
				C452.73,1230.16,453.58,1229.3,454.64,1229.3z"></path>
			<path style="fill:none;stroke:#000000;stroke-linecap:round;stroke-linejoin:round;stroke-miterlimit:10;" d="M327.03,1229.3
				l123.78,0c1.06,0,1.92-0.86,1.92-1.92l0-33.02c0-1.06-0.86-1.92-1.92-1.92l-123.78,0c-1.06,0-1.92,0.86-1.92,1.92l0,33.02
				C325.11,1228.44,325.97,1229.3,327.03,1229.3z"></path>
			<path style="fill:none;stroke:#000000;stroke-linecap:round;stroke-linejoin:round;stroke-miterlimit:10;" d="M327.03,1229.3
				l123.78,0c1.06,0,1.92,0.86,1.92,1.92l0,200.19c0,1.06-0.86,1.92-1.92,1.92l-123.78,0c-1.06,0-1.92-0.86-1.92-1.92l0-200.19
				C325.11,1230.16,325.97,1229.3,327.03,1229.3z"></path>
		</g>
	</g>
	<g>
		<g>
			<path style="fill:none;stroke:#000000;stroke-linecap:round;stroke-linejoin:round;stroke-miterlimit:10;" d="M349.25,1303.7
				c0.14,0.03,0.29,0.06,0.44,0.07c8,0.63,15.99,1.9,23.78,3.77s15.48,4.38,22.88,7.45c0.15,0.06,0.29,0.11,0.43,0.14
				c0.75,0.18,1.55,0.02,2.19-0.45c0.37-0.27,0.99-0.87,1.09-1.91l0-0.06c1.27-16.06,5.04-31.76,11.22-46.64l0.03-0.08
				c0.37-0.96,0.09-1.77-0.11-2.17c-0.36-0.71-1-1.21-1.75-1.4c-0.14-0.03-0.29-0.06-0.43-0.07c-8-0.63-15.99-1.9-23.78-3.77
				s-15.48-4.38-22.88-7.45c-0.15-0.06-0.29-0.11-0.43-0.14c-0.75-0.18-1.55-0.02-2.19,0.45c-0.37,0.27-0.99,0.86-1.09,1.91l0,0.06
				c-1.27,16.06-5.04,31.76-11.22,46.64l-0.03,0.08c-0.37,0.96-0.09,1.77,0.11,2.17C347.87,1303.01,348.5,1303.51,349.25,1303.7z"></path>
		</g>
		<path style="fill:none;stroke:#000000;stroke-linecap:round;stroke-linejoin:round;stroke-miterlimit:10;" d="M400.07,1312.71
			l0,0.06c-0.1,1.04-0.72,1.64-1.09,1.91c-0.64,0.46-1.44,0.63-2.19,0.45c-0.14-0.03-0.28-0.08-0.43-0.14
			c-6.51-2.7-13.27-4.88-20.09-6.66c-3.58,5.24-7.39,10.33-11.61,15.11l-0.04,0.05c-0.68,0.8-0.68,1.66-0.61,2.11
			c0.11,0.78,0.55,1.47,1.2,1.89c0.12,0.08,0.25,0.15,0.4,0.21c7.35,3.18,14.5,6.97,21.26,11.27c6.76,4.29,13.23,9.16,19.24,14.47
			c0.11,0.1,0.23,0.19,0.35,0.26c0.65,0.41,1.46,0.52,2.22,0.29c0.43-0.13,1.2-0.49,1.64-1.43l0.03-0.08
			c6.4-14.79,15.06-28.41,25.72-40.49l0.04-0.05c0.68-0.8,0.68-1.66,0.61-2.11c-0.11-0.78-0.55-1.47-1.2-1.89
			c-0.12-0.08-0.25-0.15-0.4-0.21c-7.35-3.18-14.5-6.97-21.26-11.27c-3.46-2.2-6.83-4.55-10.12-7.03
			C401.93,1297.06,400.69,1304.84,400.07,1312.71z"></path>
		<path style="fill:none;stroke:#000000;stroke-linecap:round;stroke-linejoin:round;stroke-miterlimit:10;" d="M400.07,1312.71
			l0,0.06c-0.1,1.04-0.72,1.64-1.09,1.91c-0.64,0.46-1.44,0.63-2.19,0.45c-0.14-0.03-0.28-0.08-0.43-0.14
			c-7.4-3.07-15.09-5.57-22.88-7.45c-0.22-0.05-0.44-0.08-0.65-0.13c-3.32,4.78-6.82,9.44-10.68,13.81l-0.01,0.01
			c-2.71,3.07-1.64,7.9,2.13,9.53l0.01,0.01c14.44,6.25,27.81,14.74,39.61,25.16l0.01,0.01c3.07,2.71,7.9,1.64,9.53-2.13l0.01-0.01
			c6.25-14.44,14.74-27.81,25.16-39.61l0.01-0.01c2.71-3.07,1.64-7.9-2.13-9.53l-0.01-0.01c-11.34-4.91-21.98-11.24-31.75-18.75
			C402.39,1294.66,400.78,1303.62,400.07,1312.71z"></path>
	</g>
	<g>
		<g>
			<g>
				
					<rect x="453.26" y="1554.64" transform="matrix(1.048659e-05 1 -1 1.048659e-05 2099.4548 1180.5649)" style="fill:none;stroke:#000000;stroke-linecap:round;stroke-linejoin:round;stroke-miterlimit:10;" width="12.36" height="170.77"></rect>
				<polygon style="fill:none;stroke:#000000;stroke-linecap:round;stroke-linejoin:round;stroke-miterlimit:10;" points="
					522.8,1658.56 544.82,1646.2 374.05,1646.2 396.08,1658.56 				"></polygon>
			</g>
		</g>
		<g>
			
				<rect x="426.62" y="1498.87" transform="matrix(-2.103157e-05 -1 1 -2.103157e-05 -1165.8678 2085.219)" style="fill:none;stroke:#000000;stroke-linecap:round;stroke-linejoin:round;stroke-miterlimit:10;" width="66.06" height="253.32"></rect>
		</g>
	</g>
	<path style="fill:none;stroke:#000000;stroke-linecap:round;stroke-linejoin:round;stroke-miterlimit:10;" d="M520.96,1451.3
		c0-6.9,0-31.11,0-38.01c0-7.06,6.08-10.66,13.62-11.84c30.78-4.29,62.06-4.29,92.84,0c7.55,1.18,13.62,4.78,13.62,11.84
		c0,6.9,0,31.11,0,38.01c0,7.06-6.08,10.66-13.62,11.84c-30.78,4.29-62.06,4.29-92.84,0
		C527.04,1461.97,520.96,1458.36,520.96,1451.3z"></path>
	<g>
		<polygon style="fill:none;stroke:#000000;stroke-linecap:round;stroke-linejoin:round;stroke-miterlimit:10;" points="
			558.34,1421.72 562.22,1419.61 578.13,1448.98 573.25,1451.63 577.62,1454.29 590.54,1433.06 562.01,1415.69 		"></polygon>
		
			<line style="fill:none;stroke:#000000;stroke-linecap:round;stroke-linejoin:round;stroke-miterlimit:10;" x1="556.26" y1="1422.85" x2="550.25" y2="1417.38"></line>
		
			<line style="fill:none;stroke:#000000;stroke-linecap:round;stroke-linejoin:round;stroke-miterlimit:10;" x1="589.53" y1="1434.72" x2="561" y2="1417.35"></line>
		<g>
			<polygon style="fill:none;stroke:#000000;stroke-linecap:round;stroke-linejoin:round;stroke-miterlimit:10;" points="
				540.37,1431.45 558.07,1421.87 551.55,1415.95 534.84,1434.34 548.81,1447.04 			"></polygon>
			<polygon style="fill:none;stroke:#000000;stroke-linecap:round;stroke-linejoin:round;stroke-miterlimit:10;" points="
				573.85,1441.08 576.27,1438.41 568.66,1431.49 			"></polygon>
		</g>
		
			<rect x="542.55" y="1427.79" transform="matrix(-0.4763 -0.8793 0.8793 -0.4763 -440.7172 2617.95)" style="fill:none;stroke:#000000;stroke-linecap:round;stroke-linejoin:round;stroke-miterlimit:10;" width="33.4" height="24.86"></rect>
		
			<line style="fill:none;stroke:#000000;stroke-linecap:round;stroke-linejoin:round;stroke-miterlimit:10;" x1="576.43" y1="1449.91" x2="560.52" y2="1420.54"></line>
	</g>
	<g>
		<g>
			<path style="fill:none;stroke:#000000;stroke-linecap:round;stroke-linejoin:round;stroke-miterlimit:10;" d="M1116.06,624.13"></path>
			<path style="fill:none;stroke:#000000;stroke-linecap:round;stroke-linejoin:round;stroke-miterlimit:10;" d="M1142.74,630.03
				l-1.58-1.06c-0.01,0-0.02-0.01-0.03-0.01l-2.73,8.62l1.35-1.11l5.15,8.51c0.78,1.29,2.43,1.89,3.81,1.2
				c1.59-0.79,2.15-2.75,1.27-4.21l-7.19-11.89C1142.77,630.06,1142.75,630.05,1142.74,630.03z"></path>
			<path style="fill:none;stroke:#000000;stroke-linecap:round;stroke-linejoin:round;stroke-miterlimit:10;" d="M1127.38,644.07
				c0,0,2.58,2.11,5.41,1.12c2.42-0.85,4.01-2.78,4.82-5.1l0,0l0.06-0.2c0.03-0.11,0.07-0.21,0.1-0.32l3.36-10.62l8.22,5.52
				c1.25,0.84,3.01,0.69,4-0.5c1.14-1.37,0.86-3.38-0.55-4.32l-11.48-7.71c-1.23-0.83-2.93-0.36-3.62,1l-2.7,5.34
				c-2.82-3.32-6.04-4.85-8.9-5.47c-4.13-0.89-8.54,0.14-11.95,2.78c-0.08,0.06-0.15,0.12-0.21,0.17c-2.7,2.47-8.95,8.54-7.72,22
				c1.36,14.92,9.47,22.01,14.27,24.94"></path>
			<path style="fill:none;stroke:#000000;stroke-linecap:round;stroke-linejoin:round;stroke-miterlimit:10;" d="M1093.1,611.55
				c-0.03,0.03-0.06,0.06-0.1,0.08c0.15,0.08,0.29,0.15,0.44,0.23c2.29-1.29,4.39-2.02,7.18-2.05c8.12-0.1,15.29,5.89,16.27,13.77
				c0.01,0.11,0.07,0.19,0.1,0.29c0.98-0.45,2-0.79,3.05-1.02c-1-8.44-8.13-14.89-16.75-14.76
				C1099.51,608.13,1095.96,609.39,1093.1,611.55z"></path>
			<path style="fill:none;stroke:#000000;stroke-linecap:round;stroke-linejoin:round;stroke-miterlimit:10;" d="M1131.7,676.53
				l-5.82,3.88l12.72,22.29c1.81,3.36-3.07,6.31-5.06,3.03c0,0-14.25-24.97-14.25-24.97l1.21-8.06l0.94-6.23"></path>
			
				<line style="fill:none;stroke:#000000;stroke-linecap:round;stroke-linejoin:round;stroke-miterlimit:10;" x1="1118.45" y1="636.74" x2="1134.87" y2="650.21"></line>
			<path style="fill:none;stroke:#000000;stroke-linecap:round;stroke-linejoin:round;stroke-miterlimit:10;" d="M1121.57,672.17"></path>
			<g>
				<g>
					<g>
						<path style="fill:none;stroke:#000000;stroke-linecap:round;stroke-linejoin:round;stroke-miterlimit:10;" d="M1127.27,676.51
							c2.33,0.59,4.91,0.28,7.17-1.08l4.23-2.53c0,0,0,0,0,0l-1.2,0.72c-1.68,1-3.81,0.46-4.76-1.21l-1.93-3.38l-4.01-3.45"></path>
						<path style="fill:none;stroke:#000000;stroke-linecap:round;stroke-linejoin:round;stroke-miterlimit:10;" d="M1140.37,657.42
							l0.97,5.27l1.83,3.2c0.22-1.88-0.1-3.83-1.09-5.57l-1.64-2.87L1140.37,657.42z"></path>
					</g>
					<path style="fill:none;stroke:#000000;stroke-linecap:round;stroke-linejoin:round;stroke-miterlimit:10;" d="M1137.47,673.61
						c-0.37,0.22-0.76,0.33-1.15,0.41l8.28,14.51c0.79,1.39,2.57,1.84,3.97,1c1.4-0.84,1.89-2.64,1.09-4.03l-8.16-14.31
						L1137.47,673.61z"></path>
					<path style="fill:none;stroke:#000000;stroke-linecap:round;stroke-linejoin:round;stroke-miterlimit:10;" d="M1140.62,671.73
						l0.13-2.01c0.08-1.16-1.16-1.91-2.16-1.31l-1.62,0.97c-1,0.6-0.97,2.07,0.06,2.57l1.78,0.87L1140.62,671.73z"></path>
					<path style="fill:none;stroke:#000000;stroke-linecap:round;stroke-linejoin:round;stroke-miterlimit:10;" d="M1131.6,660.5
						c0.59,0.17,0.91,0.79,0.73,1.39c-0.18,0.6-0.81,0.94-1.4,0.77"></path>
					<path style="fill:none;stroke:#000000;stroke-linecap:round;stroke-linejoin:round;stroke-miterlimit:10;" d="M1136.24,659.76
						c-0.26,0.57-0.93,0.82-1.48,0.57c-0.56-0.25-0.79-0.92-0.53-1.48"></path>
				</g>
				<g>
					<g>
						
							<ellipse transform="matrix(0.5587 -0.8294 0.8294 0.5587 -52.1706 1232.3198)" style="fill:none;stroke:#000000;stroke-linecap:round;stroke-linejoin:round;stroke-miterlimit:10;" cx="1131.92" cy="665.18" rx="0.9" ry="0.88"></ellipse>
						<path style="fill:none;stroke:#000000;stroke-linecap:round;stroke-linejoin:round;stroke-miterlimit:10;" d="M1130.88,667.26
							c-0.42-1.28-0.3-2.08,0.48-2.75"></path>
					</g>
					<g>
						
							<ellipse transform="matrix(0.5587 -0.8294 0.8294 0.5587 -46.9252 1235.4814)" style="fill:none;stroke:#000000;stroke-linecap:round;stroke-linejoin:round;stroke-miterlimit:10;" cx="1137.52" cy="661.84" rx="0.9" ry="0.88"></ellipse>
						<path style="fill:none;stroke:#000000;stroke-linecap:round;stroke-linejoin:round;stroke-miterlimit:10;" d="M1139.8,661.92
							c-0.88-1-1.62-1.29-2.58-0.93"></path>
					</g>
				</g>
				
					<line style="fill:none;stroke:#000000;stroke-linecap:round;stroke-linejoin:round;stroke-miterlimit:10;" x1="1139.72" y1="672.27" x2="1139.07" y2="671.13"></line>
			</g>
			<path style="fill:none;stroke:#000000;stroke-linecap:round;stroke-linejoin:round;stroke-miterlimit:10;" d="M1133.41,650.78
				c0,0-8.14-2.27-14.56,4.02"></path>
		</g>
		<path style="fill:none;stroke:#000000;stroke-linecap:round;stroke-linejoin:round;stroke-miterlimit:10;" d="M1127.36,656.4
			l-0.67,10.31c-0.06,1-1.12,1.64-2.01,1.2l-4.38-2.15c-2.03-0.99-2.09-3.89-0.11-5.08L1127.36,656.4z"></path>
		<path style="fill:none;stroke:#000000;stroke-linecap:round;stroke-linejoin:round;stroke-miterlimit:10;" d="M1133.41,650.78
			l-8.88,5.32c-1.24,0.74-1.95,1.97-2.1,3.25l4.93-2.95l-0.59,9.17l4.01,3.45l1.93,3.38c0.95,1.67,3.09,2.21,4.76,1.21l4.49-2.69
			c1.68-1,2.27-3.17,1.31-4.84l-1.93-3.38l-0.97-5.27l-8.09-3.97l4.93-2.95C1136.05,650.01,1134.65,650.04,1133.41,650.78z"></path>
		<path style="fill:none;stroke:#000000;stroke-linecap:round;stroke-linejoin:round;stroke-miterlimit:10;" d="M1143.71,651.75
			l-0.32,4.96c-0.06,1-1.12,1.64-2.01,1.2l-9.1-4.47l7.17-4.29C1141.43,647.98,1143.86,649.46,1143.71,651.75z"></path>
	</g>
	<g>
		<g>
			<g>
				<g>
					
						<rect x="408.22" y="268.63" style="fill:none;stroke:#000000;stroke-linecap:round;stroke-linejoin:round;stroke-miterlimit:10;" width="259.08" height="11.32"></rect>
					
						<rect x="408.22" y="279.94" style="fill:none;stroke:#000000;stroke-linecap:round;stroke-linejoin:round;stroke-miterlimit:10;" width="259.08" height="323.62"></rect>
					<path style="fill:none;stroke:#000000;stroke-linecap:round;stroke-linejoin:round;stroke-miterlimit:10;" d="M532.89,338.16
						l9.75,0l0-27.87c0-8.33,6.86-15.09,15.32-15.09l72.78,0c8.46,0,15.32,6.76,15.32,15.09l0,27.87l9.75,0l0-48.79
						c0-2.08-1.72-3.77-3.83-3.77l-228.44,0c-2.12,0-3.83,1.69-3.83,3.77l0,48.79l9.75,0l0-27.87c0-8.33,6.86-15.09,15.32-15.09
						l72.78,0c8.46,0,15.32,6.76,15.32,15.09L532.89,338.16z"></path>
					<path style="fill:none;stroke:#000000;stroke-linecap:round;stroke-linejoin:round;stroke-miterlimit:10;" d="M421.93,594.14
						l231.66,0c1.23,0,2.22-0.99,2.22-2.22l0-253.76l-236.1,0l0,253.76C419.71,593.15,420.71,594.14,421.93,594.14z"></path>
				</g>
			</g>
			
				<rect x="658.5" y="277.43" transform="matrix(-3.714814e-06 -1 1 -3.714814e-06 389.8811 1003.689)" style="fill:none;stroke:#000000;stroke-linecap:round;stroke-linejoin:round;stroke-miterlimit:10;" width="76.56" height="58.96"></rect>
			
				<rect x="340.62" y="277.58" transform="matrix(-3.695150e-06 -1 1 -3.695150e-06 71.9923 685.8041)" style="fill:none;stroke:#000000;stroke-linecap:round;stroke-linejoin:round;stroke-miterlimit:10;" width="76.56" height="58.65"></rect>
		</g>
	</g>
	<g>
		<g>
			<g>
				
					<rect x="535.02" y="616.02" transform="matrix(1.048668e-05 1 -1 1.048668e-05 1242.5952 160.1991)" style="fill:none;stroke:#000000;stroke-linecap:round;stroke-linejoin:round;stroke-miterlimit:10;" width="12.36" height="170.77"></rect>
				<polygon style="fill:none;stroke:#000000;stroke-linecap:round;stroke-linejoin:round;stroke-miterlimit:10;" points="
					604.56,719.94 626.58,707.58 455.81,707.58 477.83,719.94 				"></polygon>
			</g>
		</g>
		<g>
			
				<rect x="527.33" y="569.24" transform="matrix(-2.713180e-05 -1 1 -2.713180e-05 -158.8607 1247.2987)" style="fill:none;stroke:#000000;stroke-linecap:round;stroke-linejoin:round;stroke-miterlimit:10;" width="33.74" height="267.67"></rect>
		</g>
	</g>
	<g>
		
			<circle style="fill:none;stroke:#000000;stroke-linecap:round;stroke-linejoin:round;stroke-miterlimit:10;" cx="381.15" cy="323.59" r="6.1"></circle>
		
			<circle style="fill:none;stroke:#000000;stroke-linecap:round;stroke-linejoin:round;stroke-miterlimit:10;" cx="381.15" cy="323.59" r="4.31"></circle>
		
			<line style="fill:none;stroke:#000000;stroke-linecap:round;stroke-linejoin:round;stroke-miterlimit:10;" x1="379.86" y1="317.94" x2="378.91" y2="313.76"></line>
		<path style="fill:none;stroke:#000000;stroke-linecap:round;stroke-linejoin:round;stroke-miterlimit:10;" d="M366.67,317.87
			c1.76-4.45,5.37-7.57,9.58-8.98l0.85,3.72c0.19,0.82,1,1.33,1.82,1.14c0.51-0.11,0.9-0.47,1.07-0.92
			c0.11-0.27,0.14-0.58,0.07-0.89l-0.85-3.72c2.52-0.32,5.13-0.1,7.66,0.9c7.99,3.16,11.91,12.2,8.75,20.19
			c-3.16,7.99-12.2,11.91-20.19,8.75C367.43,334.91,363.51,325.86,366.67,317.87z"></path>
		<g>
			
				<rect x="367.47" y="281.27" transform="matrix(0.9749 -0.2227 0.2227 0.9749 -53.9774 89.314)" style="fill:none;stroke:#000000;stroke-linecap:round;stroke-linejoin:round;stroke-miterlimit:10;" width="3.04" height="5.4"></rect>
			
				<rect x="373.39" y="279.92" transform="matrix(0.9749 -0.2227 0.2227 0.9749 -53.5288 90.6)" style="fill:none;stroke:#000000;stroke-linecap:round;stroke-linejoin:round;stroke-miterlimit:10;" width="3.03" height="5.4"></rect>
		</g>
		<g>
			<path style="fill:none;stroke:#000000;stroke-linecap:round;stroke-linejoin:round;stroke-miterlimit:10;" d="M373.66,297.57
				c-1.46,0.1-2.96-0.08-4.42-0.66c-5.21-2.06-7.76-7.95-5.71-13.16c1.07-2.7,3.17-4.66,5.66-5.66L373.66,297.57z"></path>
			<path style="fill:none;stroke:#000000;stroke-linecap:round;stroke-linejoin:round;stroke-miterlimit:10;" d="M372.16,277.4
				c1.5-0.12,3.05,0.05,4.54,0.64c5.21,2.06,7.76,7.95,5.71,13.16c-1.08,2.74-3.24,4.72-5.78,5.7L372.16,277.4z"></path>
		</g>
		<g>
			<path style="fill:none;stroke:#000000;stroke-linecap:round;stroke-linejoin:round;stroke-miterlimit:10;" d="M379.99,312.83
				c0.11-0.27,0.14-0.58,0.07-0.89l-9.05-39.55c-0.19-0.82-1-1.33-1.82-1.14c-0.82,0.19-1.33,1-1.14,1.82l9.05,39.55
				c0.19,0.82,1,1.33,1.82,1.14C379.43,313.64,379.82,313.28,379.99,312.83z"></path>
		</g>
	</g>
	<g>
		
			<circle style="fill:none;stroke:#000000;stroke-linecap:round;stroke-linejoin:round;stroke-miterlimit:10;" cx="696.45" cy="326.18" r="6.1"></circle>
		
			<circle style="fill:none;stroke:#000000;stroke-linecap:round;stroke-linejoin:round;stroke-miterlimit:10;" cx="696.45" cy="326.18" r="4.31"></circle>
		
			<line style="fill:none;stroke:#000000;stroke-linecap:round;stroke-linejoin:round;stroke-miterlimit:10;" x1="697.73" y1="320.52" x2="698.69" y2="316.34"></line>
		<path style="fill:none;stroke:#000000;stroke-linecap:round;stroke-linejoin:round;stroke-miterlimit:10;" d="M710.92,320.46
			c-1.76-4.45-5.37-7.57-9.58-8.98l-0.85,3.72c-0.19,0.82-1,1.33-1.82,1.14c-0.51-0.11-0.9-0.47-1.07-0.92
			c-0.11-0.27-0.14-0.58-0.07-0.89l0.85-3.72c-2.52-0.32-5.13-0.1-7.66,0.9c-7.99,3.16-11.91,12.2-8.75,20.19
			c3.16,7.99,12.2,11.91,20.19,8.75C710.16,337.49,714.08,328.45,710.92,320.46z"></path>
		<g>
			
				<rect x="705.91" y="285.04" transform="matrix(0.2227 -0.9749 0.9749 0.2227 271.4289 913.5433)" style="fill:none;stroke:#000000;stroke-linecap:round;stroke-linejoin:round;stroke-miterlimit:10;" width="5.4" height="3.04"></rect>
			
				<rect x="699.99" y="283.69" transform="matrix(0.2227 -0.9749 0.9749 0.2227 268.1447 906.7227)" style="fill:none;stroke:#000000;stroke-linecap:round;stroke-linejoin:round;stroke-miterlimit:10;" width="5.4" height="3.03"></rect>
		</g>
		<g>
			<path style="fill:none;stroke:#000000;stroke-linecap:round;stroke-linejoin:round;stroke-miterlimit:10;" d="M703.94,300.16
				c1.46,0.1,2.96-0.08,4.42-0.66c5.21-2.06,7.76-7.95,5.71-13.16c-1.07-2.7-3.17-4.66-5.66-5.66L703.94,300.16z"></path>
			<path style="fill:none;stroke:#000000;stroke-linecap:round;stroke-linejoin:round;stroke-miterlimit:10;" d="M705.44,279.99
				c-1.5-0.12-3.05,0.05-4.54,0.64c-5.21,2.06-7.76,7.95-5.71,13.16c1.08,2.74,3.24,4.72,5.78,5.7L705.44,279.99z"></path>
		</g>
		<g>
			<path style="fill:none;stroke:#000000;stroke-linecap:round;stroke-linejoin:round;stroke-miterlimit:10;" d="M697.6,315.42
				c-0.11-0.27-0.14-0.58-0.07-0.89l9.05-39.55c0.19-0.82,1-1.33,1.82-1.14c0.82,0.19,1.33,1,1.14,1.82l-9.05,39.55
				c-0.19,0.82-1,1.33-1.82,1.14C698.17,316.23,697.78,315.87,697.6,315.42z"></path>
		</g>
	</g>
	<g>
		
			<rect x="871.28" y="1027.57" transform="matrix(-1.122022e-09 -1 1 -1.122022e-09 -110.8129 2050.1182)" style="fill:none;stroke:#000000;stroke-linecap:round;stroke-linejoin:round;stroke-miterlimit:10;" width="196.75" height="105.79"></rect>
		
			<line style="fill:none;stroke:#000000;stroke-linecap:round;stroke-linejoin:round;stroke-miterlimit:10;" x1="923.42" y1="1178.84" x2="923.42" y2="982.09"></line>
	</g>
	<g>
		<path style="fill:none;stroke:#000000;stroke-linecap:round;stroke-linejoin:round;stroke-miterlimit:10;" d="M421.63,895.21
			c0,9.06,13.63,16.54,30.45,16.54s30.45-7.58,30.45-16.54l0-48.47c0-3.81-3.09-6.9-6.9-6.9l-47.11,0c-3.81,0-6.9,3.09-6.9,6.9
			L421.63,895.21z"></path>
		<path style="fill:none;stroke:#000000;stroke-linecap:round;stroke-linejoin:round;stroke-miterlimit:10;" d="M410.55,895.21
			c0,15.11,18.59,27.59,41.53,27.59c22.93,0,41.53-12.64,41.53-27.59l0-37.37c0-6.12-4.96-11.07-11.07-11.07h0l0,48.45
			c0,8.96-13.63,16.54-30.45,16.54s-30.45-7.48-30.45-16.54l0-48.45l0,0c-6.12,0-11.07,4.96-11.07,11.07L410.55,895.21z"></path>
	</g>
	
		<rect x="358.85" y="729.52" style="fill:none;stroke:#000000;stroke-linecap:round;stroke-linejoin:round;stroke-miterlimit:10;" width="195.31" height="99.07"></rect>
	<g>
		
			<rect x="234.12" y="1057.04" transform="matrix(2.661700e-06 -1 1 2.661700e-06 -734.5551 1392.1498)" style="fill:none;stroke:#000000;stroke-linecap:round;stroke-linejoin:round;stroke-miterlimit:10;" width="189.35" height="12.63"></rect>
		
			<rect x="400.26" y="903.53" transform="matrix(2.661700e-06 -1 1 2.661700e-06 -568.423 1558.2811)" style="fill:none;stroke:#000000;stroke-linecap:round;stroke-linejoin:round;stroke-miterlimit:10;" width="189.35" height="319.64"></rect>
		<path style="fill:none;stroke:#000000;stroke-linecap:round;stroke-linejoin:round;stroke-miterlimit:10;" d="M400.06,1145.34
			l239.96,0c2.32,0,4.21-1.89,4.21-4.23l0-155.5c0-2.34-1.88-4.23-4.21-4.23l-239.96,0L400.06,1145.34z"></path>
		<path style="fill:none;stroke:#000000;stroke-linecap:round;stroke-linejoin:round;stroke-miterlimit:10;" d="M400.06,1120.47
			l0,24.86l-54.43,0c-2.32,0-4.21-1.89-4.21-4.23l0-155.5c0-2.34,1.88-4.23,4.21-4.23l54.43,0l0,24.86l-31.09,0
			c-9.3,0-16.84,7.58-16.84,16.92l0,80.39c0,9.35,7.54,16.92,16.84,16.92H400.06z"></path>
	</g>
	<g>
		<g>
			<path style="fill:none;stroke:#000000;stroke-linecap:round;stroke-linejoin:round;stroke-miterlimit:10;" d="M517.8,1080.84
				L517.8,1080.84c-9.02,10.16-16.38,21.67-21.81,34.11l-0.01,0.01c-1.41,3.24-5.58,4.16-8.23,1.81l-0.01-0.01
				c-10.15-9.01-21.66-16.37-34.1-21.8l-0.01-0.01c-3.24-1.41-4.16-5.58-1.81-8.23l0.01-0.01c4.25-4.78,8.1-9.89,11.58-15.24
				c4.8,5.92,9.14,12.22,12.95,18.85l2.25,3.91c1.01,1.75,3.43,2.01,4.78,0.51l3.02-3.35c6.5-7.2,14.09-13.33,22.5-18.16l3.83-2.2
				c1.08,0.51,2.13,1.08,3.23,1.56l0.01,0.01C519.23,1074.03,520.15,1078.19,517.8,1080.84z"></path>
			<path style="fill:none;stroke:#000000;stroke-linecap:round;stroke-linejoin:round;stroke-miterlimit:10;" d="M479.51,1024.3
				l2.25,3.91c7.51,13.07,17.04,24.88,28.23,34.99l3.35,3.02c1.5,1.35,1.24,3.77-0.51,4.78l-3.91,2.25
				c-8.41,4.83-16,10.96-22.5,18.16l-3.02,3.35c-1.35,1.5-3.77,1.24-4.78-0.51l-2.25-3.91c-7.51-13.07-17.04-24.88-28.23-34.99
				l-3.35-3.02c-1.5-1.35-1.24-3.77,0.51-4.78l3.91-2.25c8.41-4.83,16-10.96,22.5-18.16l3.02-3.35
				C476.08,1022.29,478.5,1022.55,479.51,1024.3z"></path>
		</g>
	</g>
	<g>
		<g>
			<polygon style="fill:none;stroke:#000000;stroke-linecap:round;stroke-linejoin:round;stroke-miterlimit:10;" points="
				499.63,779.89 503.43,777.49 490.54,758.33 486.73,760.73 			"></polygon>
			<g>
				<polygon style="fill:none;stroke:#000000;stroke-linecap:round;stroke-linejoin:round;stroke-miterlimit:10;" points="
					492.59,778.87 495.65,775.63 478.18,760.23 475.12,763.48 				"></polygon>
			</g>
			<g>
				<polygon style="fill:none;stroke:#000000;stroke-linecap:round;stroke-linejoin:round;stroke-miterlimit:10;" points="
					480.39,805.32 474.83,785.02 459.21,789.02 464.77,809.32 				"></polygon>
				
					<line style="fill:none;stroke:#000000;stroke-linecap:round;stroke-linejoin:round;stroke-miterlimit:10;" x1="473.61" y1="785.34" x2="479.17" y2="805.63"></line>
			</g>
		</g>
		<polygon style="fill:none;stroke:#000000;stroke-linecap:round;stroke-linejoin:round;stroke-miterlimit:10;" points="
			495.65,775.63 482.07,763.66 486.73,760.73 499.63,779.89 487.1,787.78 485.89,785.98 		"></polygon>
		<polygon style="fill:none;stroke:#000000;stroke-linecap:round;stroke-linejoin:round;stroke-miterlimit:10;" points="
			482.52,789.56 495.65,775.63 478.18,760.23 465.05,774.16 		"></polygon>
	</g>
	<g>
		
			<circle style="fill:none;stroke:#000000;stroke-linecap:round;stroke-linejoin:round;stroke-miterlimit:10;" cx="746.42" cy="1082.85" r="16.84"></circle>
		
			<circle style="fill:none;stroke:#000000;stroke-linecap:round;stroke-linejoin:round;stroke-miterlimit:10;" cx="746.42" cy="1082.85" r="12.35"></circle>
		
			<circle style="fill:none;stroke:#000000;stroke-linecap:round;stroke-linejoin:round;stroke-miterlimit:10;" cx="746.42" cy="1082.85" r="7.86"></circle>
		<path style="fill:none;stroke:#000000;stroke-linecap:round;stroke-linejoin:round;stroke-miterlimit:10;" d="M797.75,1097.28
			c0.27-6.8-5.04-12.56-11.84-12.84c-6.8-0.27-12.56,5.04-12.84,11.84c-0.27,6.8,5.04,12.56,11.84,12.84
			C791.72,1109.4,797.48,1104.09,797.75,1097.28z M793.26,1097.1c-0.17,4.33-3.84,7.71-8.17,7.53c-4.33-0.17-7.71-3.84-7.53-8.17
			c0.17-4.33,3.84-7.71,8.17-7.53C790.06,1089.11,793.44,1092.77,793.26,1097.1z"></path>
		
			<circle style="fill:none;stroke:#000000;stroke-linecap:round;stroke-linejoin:round;stroke-miterlimit:10;" cx="746.42" cy="1082.85" r="3.36"></circle>
		<g>
			<g>
				<path style="fill:none;stroke:#000000;stroke-linecap:round;stroke-linejoin:round;stroke-miterlimit:10;" d="M783.47,1052.79
					l-11.83-0.48c-0.71-0.03-1.31,0.52-1.34,1.24l-0.48,11.83c-0.03,0.71,0.52,1.31,1.24,1.34l11.83,0.48
					c0.71,0.03,1.31-0.52,1.34-1.24l0.48-11.83C784.73,1053.42,784.18,1052.82,783.47,1052.79z"></path>
				<g>
					<path d="M773.52,1055.29l1.51,0.06l0.59,2.16l3.29,0.13l0.77-2.11l1.66,0.07l-3.19,8.5l-2.1-0.08L773.52,1055.29z
						 M777.06,1062.75l1.43-3.95l-2.54-0.1L777.06,1062.75z"></path>
				</g>
			</g>
			<g>
				<path style="fill:none;stroke:#000000;stroke-linecap:round;stroke-linejoin:round;stroke-miterlimit:10;" d="M803.96,1046.58
					l-8.74-7.98c-0.53-0.48-1.34-0.44-1.82,0.08l-7.98,8.74c-0.48,0.53-0.44,1.34,0.08,1.82l8.74,7.98
					c0.53,0.48,1.34,0.44,1.82-0.08l7.98-8.74C804.52,1047.88,804.48,1047.06,803.96,1046.58z"></path>
				<g>
					<path d="M795.23,1042.54l2.45,2.24c1.4,1.28,1.64,2.59,0.56,3.77l-0.03,0.04c-0.77,0.85-1.61,0.94-2.65,0.34
						c0.52,0.88,0.35,1.64-0.23,2.27l-0.03,0.04c-1.06,1.16-2.29,0.95-3.6-0.25l-2.28-2.08L795.23,1042.54z M793.03,1047.28
						l-1.67,1.84l0.96,0.88c0.76,0.69,1.34,0.75,1.89,0.14l0.03-0.04c0.59-0.65,0.55-1.21-0.23-1.93L793.03,1047.28z
						 M795.62,1044.44l-1.86,2.04l1.07,0.98c0.87,0.8,1.54,0.8,2.14,0.14l0.03-0.04c0.6-0.66,0.56-1.35-0.23-2.07L795.62,1044.44z"></path>
				</g>
			</g>
			<g>
				<path style="fill:none;stroke:#000000;stroke-linecap:round;stroke-linejoin:round;stroke-miterlimit:10;" d="M799.67,1060.66
					l-11.83-0.48c-0.71-0.03-1.31,0.52-1.34,1.24l-0.48,11.83c-0.03,0.71,0.52,1.31,1.24,1.34l11.83,0.48
					c0.71,0.03,1.31-0.52,1.34-1.24l0.48-11.83C800.93,1061.29,800.38,1060.69,799.67,1060.66z"></path>
				<g>
					<path d="M794.17,1063.21c2.05,0.08,3.48,1.19,3.65,3.27l-1.57-0.06c-0.12-1.22-0.94-1.86-2.13-1.91
						c-1.59-0.06-2.56,1.04-2.64,2.98l0,0.1c-0.08,1.93,0.86,3.15,2.38,3.21c1.24,0.05,1.9-0.51,2.13-1.65l1.63,0.07
						c-0.27,2.02-1.84,2.94-3.82,2.86c-2.4-0.1-4.11-1.98-4-4.57l0-0.1C789.89,1064.77,791.47,1063.1,794.17,1063.21z"></path>
				</g>
			</g>
		</g>
	</g>
	<g>
		
			<circle style="fill:none;stroke:#000000;stroke-linecap:round;stroke-linejoin:round;stroke-miterlimit:10;" cx="405.54" cy="797.61" r="6.1"></circle>
		
			<circle style="fill:none;stroke:#000000;stroke-linecap:round;stroke-linejoin:round;stroke-miterlimit:10;" cx="405.54" cy="797.61" r="4.31"></circle>
		
			<line style="fill:none;stroke:#000000;stroke-linecap:round;stroke-linejoin:round;stroke-miterlimit:10;" x1="404.26" y1="791.95" x2="403.3" y2="787.77"></line>
		<path style="fill:none;stroke:#000000;stroke-linecap:round;stroke-linejoin:round;stroke-miterlimit:10;" d="M391.07,791.89
			c1.76-4.45,5.37-7.57,9.58-8.98l0.85,3.72c0.19,0.82,1,1.33,1.82,1.14c0.51-0.11,0.9-0.47,1.07-0.92
			c0.11-0.27,0.14-0.58,0.07-0.89l-0.85-3.72c2.52-0.32,5.13-0.1,7.66,0.9c7.99,3.16,11.91,12.2,8.75,20.19
			c-3.16,7.99-12.2,11.91-20.19,8.75C391.83,808.92,387.91,799.88,391.07,791.89z"></path>
		<g>
			
				<rect x="391.86" y="755.29" transform="matrix(0.9749 -0.2227 0.2227 0.9749 -158.9381 106.6532)" style="fill:none;stroke:#000000;stroke-linecap:round;stroke-linejoin:round;stroke-miterlimit:10;" width="3.04" height="5.4"></rect>
			
				<rect x="397.78" y="753.93" transform="matrix(0.9749 -0.2227 0.2227 0.9749 -158.4919 107.9399)" style="fill:none;stroke:#000000;stroke-linecap:round;stroke-linejoin:round;stroke-miterlimit:10;" width="3.03" height="5.4"></rect>
		</g>
		<g>
			<path style="fill:none;stroke:#000000;stroke-linecap:round;stroke-linejoin:round;stroke-miterlimit:10;" d="M398.05,771.58
				c-1.46,0.1-2.96-0.08-4.42-0.66c-5.21-2.06-7.76-7.95-5.71-13.16c1.07-2.7,3.17-4.66,5.66-5.66L398.05,771.58z"></path>
			<path style="fill:none;stroke:#000000;stroke-linecap:round;stroke-linejoin:round;stroke-miterlimit:10;" d="M396.55,751.42
				c1.5-0.12,3.05,0.05,4.54,0.64c5.21,2.06,7.76,7.95,5.71,13.16c-1.08,2.74-3.24,4.72-5.78,5.7L396.55,751.42z"></path>
		</g>
		<g>
			<path style="fill:none;stroke:#000000;stroke-linecap:round;stroke-linejoin:round;stroke-miterlimit:10;" d="M404.39,786.85
				c0.11-0.27,0.14-0.58,0.07-0.89l-9.05-39.55c-0.19-0.82-1-1.33-1.82-1.14c-0.82,0.19-1.33,1-1.14,1.82l9.05,39.55
				c0.19,0.82,1,1.33,1.82,1.14C403.82,787.65,404.21,787.3,404.39,786.85z"></path>
		</g>
	</g>
	<g>
		<path style="fill:none;stroke:#000000;stroke-linecap:round;stroke-linejoin:round;stroke-miterlimit:10;" d="M352.1,700.05
			c1.28-0.38,2.53-0.86,3.72-1.45"></path>
		<path style="fill:none;stroke:#000000;stroke-linecap:round;stroke-linejoin:round;stroke-miterlimit:10;" d="M322.83,679.55
			c0.31,4.63,2.02,8.99,4.79,12.55"></path>
		<path style="fill:none;stroke:#000000;stroke-linecap:round;stroke-linejoin:round;stroke-miterlimit:10;" d="M330.78,660.6
			c-2.19,1.88-4.03,4.17-5.4,6.79"></path>
		<path style="fill:none;stroke:#000000;stroke-linecap:round;stroke-linejoin:round;stroke-miterlimit:10;" d="M346.71,655.08
			c-0.99-0.04-1.98-0.02-2.95,0.06"></path>
		<path style="fill:none;stroke:#000000;stroke-linecap:round;stroke-linejoin:round;stroke-miterlimit:10;" d="M358.93,659.23
			c-0.98-0.69-2.03-1.31-3.13-1.85"></path>
		<path style="fill:none;stroke:#000000;stroke-linecap:round;stroke-linejoin:round;stroke-miterlimit:10;" d="M368.67,678.79
			c0.09-2.52-0.24-5-0.94-7.33"></path>
		<path style="fill:none;stroke:#000000;stroke-linecap:round;stroke-linejoin:round;stroke-miterlimit:10;" d="M363.66,692.32
			c0.97-1.22,1.83-2.54,2.55-3.95"></path>
		<path style="fill:none;stroke:#000000;stroke-linecap:round;stroke-linejoin:round;stroke-miterlimit:10;" d="M355.55,694.26
			c-0.39,3.38,0.6,7.33,3.05,10.85c3.39,4.86,8.52,7.45,12.81,6.88c2.02-3.83,1.37-9.54-2.01-14.41c-3.04-4.36-7.47-6.89-11.45-6.96
			c-0.13,0-0.26,0.03-0.38,0.05"></path>
		<path style="fill:none;stroke:#000000;stroke-linecap:round;stroke-linejoin:round;stroke-miterlimit:10;" d="M363.08,688.76
			c-0.55,0.88-1.16,1.72-1.83,2.5"></path>
		<path style="fill:none;stroke:#000000;stroke-linecap:round;stroke-linejoin:round;stroke-miterlimit:10;" d="M365.05,671.45
			c0.78,2.3,1.16,4.76,1.07,7.28"></path>
		<path style="fill:none;stroke:#000000;stroke-linecap:round;stroke-linejoin:round;stroke-miterlimit:10;" d="M353.41,659.11
			c0.84,0.34,1.64,0.73,2.41,1.17"></path>
		<path style="fill:none;stroke:#000000;stroke-linecap:round;stroke-linejoin:round;stroke-miterlimit:10;" d="M344.67,657.64
			c0.83-0.04,1.67-0.03,2.51,0.03"></path>
		<path style="fill:none;stroke:#000000;stroke-linecap:round;stroke-linejoin:round;stroke-miterlimit:10;" d="M327.99,667.93
			c1.32-2.32,3.07-4.34,5.13-5.95"></path>
		<path style="fill:none;stroke:#000000;stroke-linecap:round;stroke-linejoin:round;stroke-miterlimit:10;" d="M329.01,689.7
			c-1.76-2.52-2.96-5.44-3.44-8.55"></path>
		<path style="fill:none;stroke:#000000;stroke-linecap:round;stroke-linejoin:round;stroke-miterlimit:10;" d="M355.37,695.99
			c-0.83,0.45-1.69,0.83-2.58,1.16"></path>
		<path style="fill:none;stroke:#000000;stroke-linecap:round;stroke-linejoin:round;stroke-miterlimit:10;" d="M342.04,683.64
			c-0.31-0.79-1.1-1.3-1.95-1.25c-3.97,0.22-8.31,2.92-11.18,7.4c-3.2,4.99-3.62,10.72-1.45,14.47c4.31,0.4,9.34-2.38,12.54-7.37
			C342.87,692.41,343.5,687.34,342.04,683.64z"></path>
		<path style="fill:none;stroke:#000000;stroke-linecap:round;stroke-linejoin:round;stroke-miterlimit:10;" d="M347.86,665.87
			c-0.24-0.34-0.66-0.48-1.06-0.37c-1.84,0.55-3.57,2.31-4.41,4.74c-0.94,2.7-0.49,5.44,0.95,6.96c2.07-0.3,4.12-2.17,5.05-4.88
			C349.24,669.9,348.97,667.44,347.86,665.87z"></path>
		
			<line style="fill:none;stroke:#000000;stroke-linecap:round;stroke-linejoin:round;stroke-miterlimit:10;" x1="348.08" y1="663.8" x2="343.35" y2="677.2"></line>
		<path style="fill:none;stroke:#000000;stroke-linecap:round;stroke-linejoin:round;stroke-miterlimit:10;" d="M344.18,662.61
			c0.76-0.31,1.24-1.08,1.18-1.9c-0.27-3.83-2.94-7.98-7.3-10.69c-4.86-3.02-10.4-3.35-13.99-1.2c-0.33,4.17,2.43,8.99,7.29,12
			C335.72,663.52,340.63,664.07,344.18,662.61z"></path>
		
			<line style="fill:none;stroke:#000000;stroke-linecap:round;stroke-linejoin:round;stroke-miterlimit:10;" x1="348.12" y1="663.94" x2="324.07" y2="648.82"></line>
		<path style="fill:none;stroke:#000000;stroke-linecap:round;stroke-linejoin:round;stroke-miterlimit:10;" d="M348.48,659.63
			c0.49,0.69,1.38,1,2.19,0.75c3.81-1.17,7.37-4.82,9.09-9.85c1.91-5.61,0.96-11.28-2.04-14.4c-4.28,0.64-8.5,4.54-10.41,10.15
			C345.58,651.3,346.18,656.38,348.48,659.63z"></path>
		
			<line style="fill:none;stroke:#000000;stroke-linecap:round;stroke-linejoin:round;stroke-miterlimit:10;" x1="348.05" y1="663.91" x2="357.71" y2="636.12"></line>
		
			<line style="fill:none;stroke:#000000;stroke-linecap:round;stroke-linejoin:round;stroke-miterlimit:10;" x1="348.05" y1="663.91" x2="377.42" y2="665.68"></line>
		<path style="fill:none;stroke:#000000;stroke-linecap:round;stroke-linejoin:round;stroke-miterlimit:10;" d="M357.11,686.16
			c-0.14,0.56,0.1,1.16,0.59,1.47c2.3,1.45,5.78,1.67,9.14,0.32c3.75-1.51,6.26-4.52,6.54-7.47c-2.24-1.93-6.14-2.38-9.89-0.87
			C360.13,680.96,357.76,683.52,357.11,686.16z"></path>
		
			<line style="fill:none;stroke:#000000;stroke-linecap:round;stroke-linejoin:round;stroke-miterlimit:10;" x1="356.28" y1="687.35" x2="373.38" y2="680.48"></line>
		
			<line style="fill:none;stroke:#000000;stroke-linecap:round;stroke-linejoin:round;stroke-miterlimit:10;" x1="357.62" y1="691.85" x2="371.41" y2="712"></line>
		
			<line style="fill:none;stroke:#000000;stroke-linecap:round;stroke-linejoin:round;stroke-miterlimit:10;" x1="350.42" y1="692.69" x2="335.92" y2="710.36"></line>
		<path style="fill:none;stroke:#000000;stroke-linecap:round;stroke-linejoin:round;stroke-miterlimit:10;" d="M357.93,670.1
			c1.09,0.14,2.08,0.47,2.92,0.97c1.04,0.24,2.12,0.42,3.25,0.48c5.92,0.32,11.11-2.14,13.31-5.87c-1.78-3.95-6.68-6.95-12.6-7.27
			c-5.3-0.29-10.03,1.66-12.53,4.75c-0.54,0.66-0.59,1.6-0.13,2.31C353.4,667.4,355.44,669.01,357.93,670.1z"></path>
		
			<line style="fill:none;stroke:#000000;stroke-linecap:round;stroke-linejoin:round;stroke-miterlimit:10;" x1="343.46" y1="679.8" x2="361.49" y2="671.47"></line>
		
			<line style="fill:none;stroke:#000000;stroke-linecap:round;stroke-linejoin:round;stroke-miterlimit:10;" x1="343.38" y1="679.57" x2="357.34" y2="694.01"></line>
		<path style="fill:none;stroke:#000000;stroke-linecap:round;stroke-linejoin:round;stroke-miterlimit:10;" d="M340,696.88
			c-1.1,1.71-2.41,3.14-3.84,4.29c-1.25,3.27-1.36,6.59-0.24,9.19c4.23,0.91,9.56-1.26,13.32-5.84c2.72-3.31,4.03-7.17,3.9-10.57
			c-1.81-0.49-3.65-1.54-5.21-3.13c-0.1-0.1-0.17-0.22-0.26-0.33c-2.06,0.51-4.14,1.61-6.03,3.17
			C341.21,694.75,340.67,695.83,340,696.88z"></path>
		
			<line style="fill:none;stroke:#000000;stroke-linecap:round;stroke-linejoin:round;stroke-miterlimit:10;" x1="343.48" y1="679.58" x2="327.46" y2="704.25"></line>
		<path style="fill:none;stroke:#000000;stroke-linecap:round;stroke-linejoin:round;stroke-miterlimit:10;" d="M339.18,679.29
			c0.68-0.52,0.95-1.41,0.67-2.22c-1.29-3.76-5.07-7.21-10.15-8.75c-5.67-1.72-11.3-0.58-14.32,2.52
			c0.78,4.26,4.83,8.35,10.49,10.07C330.96,682.46,336.02,681.7,339.18,679.29z"></path>
		
			<line style="fill:none;stroke:#000000;stroke-linecap:round;stroke-linejoin:round;stroke-miterlimit:10;" x1="343.48" y1="679.58" x2="315.39" y2="670.85"></line>
		<path style="fill:none;stroke:#000000;stroke-linecap:round;stroke-linejoin:round;stroke-miterlimit:10;" d="M345.86,681.15
			c-0.57,0.09-1.03,0.53-1.13,1.11c-0.46,2.68,0.67,5.98,3.21,8.57c2.83,2.89,6.58,4.05,9.4,3.18c0.93-2.81-0.15-6.58-2.98-9.47
			C351.82,681.95,348.55,680.75,345.86,681.15z"></path>
		<path style="fill:none;stroke:#000000;stroke-linecap:round;stroke-linejoin:round;stroke-miterlimit:10;" d="M345.74,678
			c-0.11,0.56,0.16,1.14,0.66,1.42c2.35,1.3,5.8,1.32,9.04-0.2c3.62-1.7,5.92-4.82,6.04-7.74c-2.32-1.78-6.19-2-9.81-0.3
			C348.43,672.69,346.24,675.36,345.74,678z"></path>
	</g>
	<g>
		<g>
			
				<rect x="553.86" y="730.34" style="fill:none;stroke:#000000;stroke-linecap:round;stroke-linejoin:round;stroke-miterlimit:10;" width="469.29" height="98.25"></rect>
			
				<line style="fill:none;stroke:#000000;stroke-linecap:round;stroke-linejoin:round;stroke-miterlimit:10;" x1="553.87" y1="822.96" x2="1023.13" y2="823.02"></line>
		</g>
		
			<line style="fill:none;stroke:#000000;stroke-linecap:round;stroke-linejoin:round;stroke-miterlimit:10;" x1="867.43" y1="828.59" x2="867.43" y2="730.34"></line>
		
			<line style="fill:none;stroke:#000000;stroke-linecap:round;stroke-linejoin:round;stroke-miterlimit:10;" x1="711.71" y1="828.59" x2="711.71" y2="730.34"></line>
	</g>
	<g>
		<path style="fill:none;stroke:#000000;stroke-linecap:round;stroke-linejoin:round;stroke-miterlimit:10;" d="M470.84,545.69
			c0.93-0.03,1.84-0.21,2.72-0.49c6.6-2.08,10.86-8.82,9.98-15.68c-0.46-3.56-1.94-6.35-2.93-7.89c-0.52-0.8-1.18-1.49-1.95-2.05h0
			c-0.77-0.57-1.63-1.01-2.56-1.27c-1.81-0.52-4.99-1.12-8.62-0.45c-6.71,1.24-11.74,7.21-11.84,14.03
			c-0.01,0.83,0.06,1.67,0.25,2.48"></path>
		<path style="fill:none;stroke:#000000;stroke-linecap:round;stroke-linejoin:round;stroke-miterlimit:10;" d="M479.64,520.31
			c9.85-9.53,10.82-24.98,2.59-35.64c-0.81-1.06-2.31-1.3-3.42-0.55c-1.19,0.8-1.49,2.43-0.64,3.59c6.67,9.08,5.92,22-1.11,30.98"></path>
		<path style="fill:none;stroke:#000000;stroke-linecap:round;stroke-linejoin:round;stroke-miterlimit:10;" d="M464.16,550.71
			c0.52-2.83-0.56-5.85-3.03-7.68c-2.45-1.81-5.62-1.98-8.16-0.69"></path>
		<path style="fill:none;stroke:#000000;stroke-linecap:round;stroke-linejoin:round;stroke-miterlimit:10;" d="M449.49,545.85
			c-1.16,2.35-1.03,5.09,0.23,7.31c-0.34,1.3,0.11,2.74,1.26,3.6c1.15,0.85,2.66,0.86,3.81,0.15c2.46,0.55,5.09-0.11,6.99-1.86"></path>
		<path style="fill:none;stroke:#000000;stroke-linecap:round;stroke-linejoin:round;stroke-miterlimit:10;" d="M460.09,554.31
			C460.42,554.47,460.09,554.31,460.09,554.31c2.23,0.95,5.03,1.33,5.8,1.37c0.38,0.02,0.73-0.3,0.61-0.66
			c-0.71-2.14-3.41-5.84-3.67-6.09c-0.25-0.25-1.07-0.99-2.24,0.19"></path>
		<path style="fill:none;stroke:#000000;stroke-linecap:round;stroke-linejoin:round;stroke-miterlimit:10;" d="M455.05,543.27
			c-1.82-0.88-4.76-1.86-7.01-1.91c-0.38-0.01-0.58,0.42-0.45,0.78c0.26,0.72,1.45,3.29,3,5.15l0,0"></path>
		
			<line style="fill:none;stroke:#000000;stroke-linecap:round;stroke-linejoin:round;stroke-miterlimit:10;" x1="456.87" y1="555.16" x2="454.35" y2="555.27"></line>
		
			<line style="fill:none;stroke:#000000;stroke-linecap:round;stroke-linejoin:round;stroke-miterlimit:10;" x1="451.14" y1="550.9" x2="451.3" y2="553.31"></line>
		<polygon style="fill:none;stroke:#000000;stroke-linecap:round;stroke-linejoin:round;stroke-miterlimit:10;" points="
			452.61,556.08 451.07,554.94 451.18,556.42 		"></polygon>
		<path style="fill:none;stroke:#000000;stroke-linecap:round;stroke-linejoin:round;stroke-miterlimit:10;" d="M465.89,555.68
			c0,0-3.44-2.85-6.03-3.92"></path>
		<path style="fill:none;stroke:#000000;stroke-linecap:round;stroke-linejoin:round;stroke-miterlimit:10;" d="M447.59,541.64
			c2.44,1.06,5.22,4.31,5.22,4.31s0.01,0.61-0.74,1"></path>
		<g>
			<path style="fill:none;stroke:#000000;stroke-linecap:round;stroke-linejoin:round;stroke-miterlimit:10;" d="M464.24,532
				c-3.49-0.69-7.22,0.59-9.48,3.65c-1.49,2.01-2.04,4.41-1.78,6.72"></path>
			<path style="fill:none;stroke:#000000;stroke-linecap:round;stroke-linejoin:round;stroke-miterlimit:10;" d="M464.14,550.63
				c2.28-0.43,4.42-1.65,5.9-3.67c2.23-3.01,2.38-6.89,0.77-10.01"></path>
		</g>
	</g>
	<g>
		<polygon style="fill:none;stroke:#000000;stroke-linecap:round;stroke-linejoin:round;stroke-miterlimit:10;" points="
			903.17,267.82 903.17,267.82 1089.71,267.82 1089.71,363.72 904.54,363.72 904.54,534.48 820.35,534.48 820.35,267.82 		"></polygon>
		
			<line style="fill:none;stroke:#000000;stroke-linecap:round;stroke-linejoin:round;stroke-miterlimit:10;" x1="1089.71" y1="359.17" x2="899.86" y2="359.17"></line>
	</g>
	<g>
		
			<line style="fill:none;stroke:#000000;stroke-linecap:round;stroke-linejoin:round;stroke-miterlimit:10;" x1="899.17" y1="359.46" x2="899.17" y2="533.85"></line>
	</g>
	<g>
		<polygon style="fill:none;stroke:#000000;stroke-linecap:round;stroke-linejoin:round;stroke-miterlimit:10;" points="
			1295.32,1595.22 1199.36,1595.22 1199.36,1691.43 1295.32,1691.45 		"></polygon>
		<g>
			
				<line style="fill:none;stroke:#000000;stroke-linecap:round;stroke-linejoin:round;stroke-miterlimit:10;" x1="1247.34" y1="1666.5" x2="1247.34" y2="1620.17"></line>
			
				<line style="fill:none;stroke:#000000;stroke-linecap:round;stroke-linejoin:round;stroke-miterlimit:10;" x1="1270.44" y1="1643.33" x2="1224.24" y2="1643.33"></line>
			<polyline style="fill:none;stroke:#000000;stroke-linecap:round;stroke-linejoin:round;stroke-miterlimit:10;" points="
				1258.89,1661.35 1247.34,1654.92 1235.79,1661.35 			"></polyline>
			<polyline style="fill:none;stroke:#000000;stroke-linecap:round;stroke-linejoin:round;stroke-miterlimit:10;" points="
				1229.37,1654.92 1235.79,1643.33 1229.37,1631.75 			"></polyline>
			<polyline style="fill:none;stroke:#000000;stroke-linecap:round;stroke-linejoin:round;stroke-miterlimit:10;" points="
				1235.79,1625.32 1247.34,1631.75 1258.89,1625.32 			"></polyline>
			<polyline style="fill:none;stroke:#000000;stroke-linecap:round;stroke-linejoin:round;stroke-miterlimit:10;" points="
				1265.3,1631.75 1258.89,1643.33 1265.3,1654.92 			"></polyline>
		</g>
	</g>
	<polygon style="fill:none;stroke:#000000;stroke-linecap:round;stroke-linejoin:round;stroke-miterlimit:10;" points="
		1295,1612.23 1295,1292.51 1199.57,1292.51 1199.57,1612.23 1199.57,1612.23 1199.36,1691.45 1295.18,1691.45 1295.18,1612.23 	"></polygon>
	<g>
		<polygon style="fill:none;stroke:#000000;stroke-linecap:round;stroke-linejoin:round;stroke-miterlimit:10;" points="
			1199.57,1389.3 1199.57,1460.31 1295.26,1460.32 1295.27,1389.3 		"></polygon>
		<path style="fill:none;stroke:#000000;stroke-linecap:round;stroke-linejoin:round;stroke-miterlimit:10;" d="M1267.17,1424.81
			l-23.77,10.56c-1.46,0.57-3.05,0.89-4.73,0.89c-6.74,0-12.21-5.13-12.21-11.45s5.47-11.45,12.21-11.45c1.68,0,3.28,0.32,4.73,0.89
			L1267.17,1424.81z"></path>
	</g>
</g>
<g id="floor">
	
		<line style="fill:none;stroke:#000000;stroke-linecap:round;stroke-linejoin:round;stroke-miterlimit:10;stroke-dasharray:10,10;" x1="1025.24" y1="1076.39" x2="1198.39" y2="1076.39"></line>
	
		<line style="fill:none;stroke:#000000;stroke-linecap:round;stroke-linejoin:round;stroke-miterlimit:10;stroke-dasharray:10,10;" x1="814.98" y1="724.27" x2="814.98" y2="521.91"></line>
	<g>
		<path style="fill:none;stroke:#000000;stroke-linecap:round;stroke-linejoin:round;stroke-miterlimit:10;" d="M1701.33,761.35
			c0,80.56-65.16,146.5-145.71,146.5l0-145.3"></path>
		
			<rect x="1546.94" y="746.56" style="fill:none;stroke:#000000;stroke-linecap:round;stroke-linejoin:round;stroke-miterlimit:10;" width="8.68" height="16"></rect>
		
			<rect x="1701.33" y="746.55" style="fill:none;stroke:#000000;stroke-linecap:round;stroke-linejoin:round;stroke-miterlimit:10;" width="8.68" height="16"></rect>
	</g>
	<g>
		<g id="LWPOLYLINE_31_">
			<path style="fill:none;stroke:#000000;stroke-linecap:round;stroke-linejoin:round;stroke-miterlimit:10;" d="M1339.56,283.74
				l0,44.6c0,6.28,4.06,11.85,10.04,13.78c21.7,6.99,45.05,6.99,66.76,0c5.98-1.93,10.04-7.49,10.04-13.78v-44.6"></path>
		</g>
		<g id="LWPOLYLINE_30_">
			<path style="fill:none;stroke:#000000;stroke-linecap:round;stroke-linejoin:round;stroke-miterlimit:10;" d="M1406.13,296.22
				c4.8,0,8.68,3.89,8.68,8.68v13.9c0,3.18-2.08,5.99-5.11,6.92c-17.41,5.34-36.03,5.34-53.44,0c-3.04-0.93-5.12-3.74-5.12-6.92
				l0-13.9c0-4.8,3.89-8.69,8.69-8.69"></path>
		</g>
		<g id="LWPOLYLINE_29_">
			<path style="fill:none;stroke:#000000;stroke-linecap:round;stroke-linejoin:round;stroke-miterlimit:10;" d="M1345.35,304.9
				c0-4.8,3.89-8.68,8.68-8.68l57.88,0c4.8,0,8.68,3.89,8.68,8.68v23.44c0,3.77-2.43,7.11-6.02,8.26c-20.55,6.62-42.66,6.62-63.21,0
				c-3.59-1.15-6.02-4.49-6.02-8.26V304.9z"></path>
		</g>
		<g id="LWPOLYLINE_28_">
			<path style="fill:none;stroke:#000000;stroke-linecap:round;stroke-linejoin:round;stroke-miterlimit:10;" d="M1382.97,298.8
				c2.15,0,3.9,1.74,3.9,3.89c0,2.15-1.75,3.89-3.9,3.89c-2.15,0-3.89-1.74-3.89-3.89C1379.08,300.54,1380.82,298.8,1382.97,298.8z"></path>
		</g>
	</g>
	<g>
		<g id="LWPOLYLINE_24_">
			
				<rect x="1431.6" y="282.96" style="fill:none;stroke:#000000;stroke-linecap:round;stroke-linejoin:round;stroke-miterlimit:10;" width="109.22" height="273.5"></rect>
		</g>
		<g id="LWPOLYLINE_23_">
			<path style="fill:none;stroke:#000000;stroke-linecap:round;stroke-linejoin:round;stroke-miterlimit:10;" d="M1440.34,520.67
				l0-183.99c0-24.63,20.54-44.59,45.87-44.59c25.33,0,45.87,19.96,45.87,44.59l0,183.99c0,11.77-9.73,21.35-21.84,21.49h-48.06
				c-12.06,0-21.84-9.51-21.84-21.24"></path>
		</g>
		<g id="LWPOLYLINE_22_">
			<path style="fill:none;stroke:#000000;stroke-linecap:round;stroke-linejoin:round;stroke-miterlimit:10;" d="M1452.82,467.66
				l0-130.98c0-17.93,14.95-32.46,33.39-32.46s33.39,14.53,33.39,32.46v129.31c-0.01,17.27-13.93,31.51-31.67,32.41
				C1469.51,499.33,1453.79,485.57,1452.82,467.66z"></path>
		</g>
		<g id="LWPOLYLINE_21_">
			<path style="fill:none;stroke:#000000;stroke-linecap:round;stroke-linejoin:round;stroke-miterlimit:10;" d="M1486.21,330.73
				c3.38,0,6.11,2.66,6.11,5.94c0,3.29-2.74,5.94-6.11,5.94c-3.38,0-6.11-2.66-6.11-5.94
				C1480.1,333.39,1482.83,330.73,1486.21,330.73z"></path>
		</g>
	</g>
	<g>
		<g id="LWPOLYLINE_170_">
			
				<rect x="1236.92" y="283.23" style="fill:none;stroke:#000000;stroke-linecap:round;stroke-linejoin:round;stroke-miterlimit:10;" width="95.32" height="71.32"></rect>
		</g>
		<g id="LWPOLYLINE_169_">
			<polyline style="fill:none;stroke:#000000;stroke-linecap:round;stroke-linejoin:round;stroke-miterlimit:10;" points="
				1264.08,345.71 1295.11,318.97 1274.05,318.97 1305.07,292.24 			"></polyline>
		</g>
		<g id="LWPOLYLINE_168_">
			<path style="fill:none;stroke:#000000;stroke-linecap:round;stroke-linejoin:round;stroke-miterlimit:10;" d="M1261.18,318.97
				c0-12.92,10.48-23.4,23.4-23.4c12.92,0,23.4,10.48,23.4,23.4c0,12.92-10.48,23.4-23.4,23.4
				C1271.65,342.37,1261.17,331.9,1261.18,318.97z"></path>
		</g>
	</g>
	<g>
		<path style="fill:none;stroke:#000000;stroke-linecap:round;stroke-linejoin:round;stroke-miterlimit:10;" d="M1023.69,967.18
			c-70.64,0-128.47-57.14-128.47-127.78h127.41"></path>
		
			<rect x="1025.23" y="829.19" transform="matrix(-4.062813e-11 1 -1 -4.062813e-11 1864.6271 -193.448)" style="fill:none;stroke:#000000;stroke-linecap:round;stroke-linejoin:round;stroke-miterlimit:10;" width="7.61" height="12.79"></rect>
		
			<rect x="1025.17" y="964.65" transform="matrix(-4.293651e-11 1 -1 -4.293651e-11 2000.0824 -57.9928)" style="fill:none;stroke:#000000;stroke-linecap:round;stroke-linejoin:round;stroke-miterlimit:10;" width="7.73" height="12.79"></rect>
	</g>
	<g>
		<path style="fill:none;stroke:#000000;stroke-linecap:round;stroke-linejoin:round;stroke-miterlimit:10;" d="M1023.69,580.44
			c-70.64,0-128.47,57.14-128.47,127.78h127.41"></path>
		
			<rect x="1025.23" y="705.63" transform="matrix(-4.062788e-11 -1 1 -4.062788e-11 317.0113 1741.0638)" style="fill:none;stroke:#000000;stroke-linecap:round;stroke-linejoin:round;stroke-miterlimit:10;" width="7.61" height="12.79"></rect>
		
			<rect x="1025.17" y="570.18" transform="matrix(-4.293626e-11 -1 1 -4.293626e-11 452.4666 1605.6086)" style="fill:none;stroke:#000000;stroke-linecap:round;stroke-linejoin:round;stroke-miterlimit:10;" width="7.73" height="12.79"></rect>
	</g>
	<g>
		<g id="LWPOLYLINE_55_">
			
				<rect x="1199.57" y="1460.42" style="fill:none;stroke:#000000;stroke-linecap:round;stroke-linejoin:round;stroke-miterlimit:10;" width="95.52" height="95.25"></rect>
		</g>
		<g id="LWPOLYLINE_54_">
			
				<line style="fill:none;stroke:#000000;stroke-linecap:round;stroke-linejoin:round;stroke-miterlimit:10;" x1="1223.32" y1="1499.62" x2="1223.32" y2="1468.26"></line>
		</g>
		<g id="LWPOLYLINE_53_">
			
				<line style="fill:none;stroke:#000000;stroke-linecap:round;stroke-linejoin:round;stroke-miterlimit:10;" x1="1239.15" y1="1483.94" x2="1207.49" y2="1483.94"></line>
		</g>
		<g id="LWPOLYLINE_52_">
			
				<line style="fill:none;stroke:#000000;stroke-linecap:round;stroke-linejoin:round;stroke-miterlimit:10;" x1="1223.32" y1="1546.67" x2="1223.32" y2="1515.3"></line>
		</g>
		<g id="LWPOLYLINE_51_">
			
				<line style="fill:none;stroke:#000000;stroke-linecap:round;stroke-linejoin:round;stroke-miterlimit:10;" x1="1239.15" y1="1530.99" x2="1207.49" y2="1530.99"></line>
		</g>
		<g id="LWPOLYLINE_50_">
			
				<line style="fill:none;stroke:#000000;stroke-linecap:round;stroke-linejoin:round;stroke-miterlimit:10;" x1="1270.81" y1="1546.67" x2="1270.81" y2="1515.3"></line>
		</g>
		<g id="LWPOLYLINE_49_">
			
				<line style="fill:none;stroke:#000000;stroke-linecap:round;stroke-linejoin:round;stroke-miterlimit:10;" x1="1286.65" y1="1530.99" x2="1254.98" y2="1530.99"></line>
		</g>
		<g id="LWPOLYLINE_48_">
			
				<line style="fill:none;stroke:#000000;stroke-linecap:round;stroke-linejoin:round;stroke-miterlimit:10;" x1="1270.81" y1="1499.62" x2="1270.81" y2="1468.26"></line>
		</g>
		<g id="LWPOLYLINE_47_">
			
				<line style="fill:none;stroke:#000000;stroke-linecap:round;stroke-linejoin:round;stroke-miterlimit:10;" x1="1286.65" y1="1483.94" x2="1254.98" y2="1483.94"></line>
		</g>
		
			<ellipse style="fill:none;stroke:#000000;stroke-linecap:round;stroke-linejoin:round;stroke-miterlimit:10;" cx="1270.82" cy="1483.94" rx="12.67" ry="12.62"></ellipse>
		
			<ellipse style="fill:none;stroke:#000000;stroke-linecap:round;stroke-linejoin:round;stroke-miterlimit:10;" cx="1223.32" cy="1483.94" rx="12.67" ry="12.62"></ellipse>
		
			<ellipse style="fill:none;stroke:#000000;stroke-linecap:round;stroke-linejoin:round;stroke-miterlimit:10;" cx="1270.82" cy="1530.99" rx="12.67" ry="12.62"></ellipse>
		
			<ellipse style="fill:none;stroke:#000000;stroke-linecap:round;stroke-linejoin:round;stroke-miterlimit:10;" cx="1223.32" cy="1530.99" rx="12.67" ry="12.62"></ellipse>
	</g>
	<g>
		<g id="LWPOLYLINE_46_">
			
				<rect x="1199.57" y="1293.79" style="fill:none;stroke:#000000;stroke-linecap:round;stroke-linejoin:round;stroke-miterlimit:10;" width="95.98" height="95.78"></rect>
		</g>
		<g id="LWPOLYLINE_45_">
			<path style="fill:none;stroke:#000000;stroke-linecap:round;stroke-linejoin:round;stroke-miterlimit:10;" d="M1213.17,1381.49
				l60.75,0c3.09,0,5.6-2.53,5.6-5.66c0,0,0-69.57,0-69.57c0-3.13-2.51-5.66-5.6-5.66c0,0-60.75,0-60.75,0
				c-3.09,0-5.6,2.53-5.6,5.66c0,0,0,69.57,0,69.57C1207.57,1378.95,1210.07,1381.48,1213.17,1381.49z"></path>
		</g>
		<g id="LWPOLYLINE_44_">
			<path style="fill:none;stroke:#000000;stroke-linecap:round;stroke-linejoin:round;stroke-miterlimit:10;" d="M1258.34,1357.22
				c0,3.13,2.51,5.68,5.61,5.68c3.1,0,5.61-2.54,5.61-5.68c0-3.13-2.51-5.68-5.61-5.68
				C1260.86,1351.54,1258.34,1354.08,1258.34,1357.22z"></path>
		</g>
	</g>
	<g>
		<g id="LWPOLYLINE_27_">
			<path style="fill:none;stroke:#000000;stroke-linecap:round;stroke-linejoin:round;stroke-miterlimit:10;" d="M1145.36,338.46
				l0,44.17c0,15.37,12.72,27.82,28.41,27.82c15.69,0,28.41-12.46,28.42-27.83l0-44.17c0-3.84-3.18-6.95-7.1-6.95l-42.62,0
				C1148.54,331.51,1145.36,334.62,1145.36,338.46z"></path>
		</g>
		<g id="LWPOLYLINE_26_">
			<path style="fill:none;stroke:#000000;stroke-linecap:round;stroke-linejoin:round;stroke-miterlimit:10;" d="M1196.51,382.62
				l-0.01-24.7c0-12.29-10.17-22.26-22.73-22.26c-12.55,0-22.73,9.96-22.74,22.26l0.01,24.7c0,12.29,10.17,22.26,22.73,22.26
				C1186.33,404.88,1196.51,394.92,1196.51,382.62z"></path>
		</g>
		<g id="LWPOLYLINE_25_">
			<path style="fill:none;stroke:#000000;stroke-linecap:round;stroke-linejoin:round;stroke-miterlimit:10;" d="M1182.3,373.67
				l-0.01-18.06c0-4.61-3.82-8.35-8.52-8.35s-8.52,3.74-8.52,8.35l0.01,18.06c0,4.61,3.81,8.35,8.52,8.35
				C1178.49,382.02,1182.3,378.28,1182.3,373.67z"></path>
		</g>
	</g>
	<g>
		
			<rect x="101.73" y="1413.88" transform="matrix(6.123234e-17 -1 1 6.123234e-17 -1171.7798 1708.2242)" style="fill:none;stroke:#000000;stroke-linecap:round;stroke-linejoin:round;stroke-miterlimit:10;" width="332.99" height="52.25"></rect>
		
			<line style="fill:none;stroke:#000000;stroke-linecap:round;stroke-linejoin:round;stroke-miterlimit:10;" x1="253.1" y1="1606.55" x2="253.1" y2="1273.56"></line>
		
			<rect x="256.94" y="1493.08" transform="matrix(6.123234e-17 -1 1 6.123234e-17 -1239.979 1760.5116)" style="fill:none;stroke:#000000;stroke-linecap:round;stroke-linejoin:round;stroke-miterlimit:10;" width="6.65" height="14.33"></rect>
		
			<rect x="256.94" y="1270.02" transform="matrix(6.123234e-17 -1 1 6.123234e-17 -1016.9142 1537.4468)" style="fill:none;stroke:#000000;stroke-linecap:round;stroke-linejoin:round;stroke-miterlimit:10;" width="6.65" height="14.33"></rect>
		
			<rect x="256.94" y="1595.77" transform="matrix(6.123234e-17 -1 1 6.123234e-17 -1342.6664 1863.199)" style="fill:none;stroke:#000000;stroke-linecap:round;stroke-linejoin:round;stroke-miterlimit:10;" width="6.65" height="14.33"></rect>
		
			<line style="fill:none;stroke:#000000;stroke-linecap:round;stroke-linejoin:round;stroke-miterlimit:10;" x1="267.43" y1="1496.92" x2="267.43" y2="1280.51"></line>
		
			<rect x="212.29" y="1544.46" transform="matrix(6.123234e-17 -1 1 6.123234e-17 -1291.2831 1811.8948)" style="fill:none;stroke:#000000;stroke-linecap:round;stroke-linejoin:round;stroke-miterlimit:10;" width="96.04" height="14.25"></rect>
	</g>
	<g>
		<g id="LWPOLYLINE_320_">
			<path style="fill:none;stroke:#000000;stroke-linecap:round;stroke-linejoin:round;stroke-miterlimit:10;" d="M1596.37,277.98
				l0,44.6c0,6.28,4.06,11.85,10.04,13.78c21.7,6.99,45.05,6.99,66.76,0c5.98-1.93,10.04-7.49,10.04-13.78l0-44.6"></path>
		</g>
		<g id="LWPOLYLINE_319_">
			<path style="fill:none;stroke:#000000;stroke-linecap:round;stroke-linejoin:round;stroke-miterlimit:10;" d="M1662.94,290.46
				c4.8,0,8.68,3.89,8.68,8.68v13.9c0,3.18-2.08,5.99-5.11,6.92c-17.41,5.34-36.03,5.34-53.44,0c-3.04-0.93-5.12-3.74-5.12-6.92
				v-13.9c0-4.8,3.89-8.69,8.69-8.69"></path>
		</g>
		<g id="LWPOLYLINE_318_">
			<path style="fill:none;stroke:#000000;stroke-linecap:round;stroke-linejoin:round;stroke-miterlimit:10;" d="M1602.16,299.15
				c0-4.8,3.89-8.68,8.68-8.68l57.88,0c4.8,0,8.68,3.89,8.68,8.68v23.44c0,3.77-2.43,7.11-6.02,8.26c-20.55,6.62-42.66,6.62-63.21,0
				c-3.59-1.15-6.02-4.49-6.02-8.26V299.15z"></path>
		</g>
		<g id="LWPOLYLINE_317_">
			<path style="fill:none;stroke:#000000;stroke-linecap:round;stroke-linejoin:round;stroke-miterlimit:10;" d="M1639.79,293.05
				c2.15,0,3.9,1.74,3.9,3.89c0,2.15-1.75,3.89-3.9,3.89c-2.15,0-3.89-1.74-3.89-3.89C1635.89,294.79,1637.64,293.05,1639.79,293.05
				z"></path>
		</g>
	</g>
	<g>
		<g id="LWPOLYLINE_323_">
			<path style="fill:none;stroke:#000000;stroke-linecap:round;stroke-linejoin:round;stroke-miterlimit:10;" d="M1798.96,456.95
				l-44.17,0c-15.37,0-27.82,12.72-27.82,28.41c0,15.69,12.46,28.41,27.83,28.42l44.17,0c3.84,0,6.95-3.18,6.95-7.1l0-42.62
				C1805.91,460.13,1802.8,456.95,1798.96,456.95z"></path>
		</g>
		<g id="LWPOLYLINE_322_">
			<path style="fill:none;stroke:#000000;stroke-linecap:round;stroke-linejoin:round;stroke-miterlimit:10;" d="M1754.8,508.1
				l24.7,0c12.29,0,22.26-10.17,22.26-22.73c0-12.55-9.96-22.73-22.26-22.74l-24.7,0c-12.29,0-22.26,10.17-22.26,22.73
				C1732.54,497.92,1742.5,508.1,1754.8,508.1z"></path>
		</g>
		<g id="LWPOLYLINE_321_">
			<path style="fill:none;stroke:#000000;stroke-linecap:round;stroke-linejoin:round;stroke-miterlimit:10;" d="M1763.75,493.89
				l18.06-0.01c4.61,0,8.35-3.82,8.35-8.52c0-4.71-3.74-8.52-8.35-8.52l-18.06,0.01c-4.61,0-8.35,3.81-8.35,8.52
				C1755.41,490.08,1759.14,493.89,1763.75,493.89z"></path>
		</g>
	</g>
	<g>
		<g id="CIRCLE_236_">
			<path style="fill:none;stroke:#000000;stroke-linecap:round;stroke-linejoin:round;stroke-miterlimit:10;" d="M1836.99,302.9
				c0,3.6-2.94,6.51-6.57,6.51c-3.63,0-6.57-2.92-6.57-6.51s2.94-6.51,6.57-6.51C1834.05,296.39,1836.99,299.31,1836.99,302.9
				L1836.99,302.9z"></path>
		</g>
		<g id="LWPOLYLINE_43_">
			<path style="fill:none;stroke:#000000;stroke-linecap:round;stroke-linejoin:round;stroke-miterlimit:10;" d="M1734.9,365.49
				c0,17.98,14.7,32.56,32.84,32.56c0,0,66.79,0,66.79,0c6.8,0,12.32-5.47,12.32-12.21v-87c0-6.74-5.51-12.21-12.32-12.21h-87.31
				c-6.8,0-12.31,5.47-12.32,12.21V365.49z"></path>
		</g>
		<g id="LWPOLYLINE_42_">
			<path style="fill:none;stroke:#000000;stroke-linecap:round;stroke-linejoin:round;stroke-miterlimit:10;" d="M1726.69,278.49
				l0,87c0,22.47,18.38,40.69,41.05,40.69c0,0,87.31,0,87.31,0l0-127.69L1726.69,278.49v86.99c0,22.48,18.38,40.7,41.05,40.7
				c0,0,87.31,0,87.31,0"></path>
		</g>
	</g>
	
		<rect x="371.24" y="1702.86" transform="matrix(-4.785055e-11 -1 1 -4.785055e-11 -1320.1072 2094.2612)" style="fill-rule:evenodd;clip-rule:evenodd;fill:none;stroke:#000000;stroke-linecap:round;stroke-linejoin:round;stroke-miterlimit:10;" width="31.67" height="8.66"></rect>
	
		<line style="fill:none;stroke:#000000;stroke-linecap:round;stroke-linejoin:round;stroke-miterlimit:10;" x1="391.51" y1="1723.02" x2="530.91" y2="1723.02"></line>
	
		<line style="fill:none;stroke:#000000;stroke-linecap:round;stroke-linejoin:round;stroke-miterlimit:10;" x1="391.51" y1="1720.19" x2="530.91" y2="1720.19"></line>
	
		<line style="fill:none;stroke:#000000;stroke-linecap:round;stroke-linejoin:round;stroke-miterlimit:10;" x1="391.65" y1="1713.99" x2="530.91" y2="1713.99"></line>
	
		<line style="fill:none;stroke:#000000;stroke-linecap:round;stroke-linejoin:round;stroke-miterlimit:10;" x1="391.51" y1="1691.35" x2="530.91" y2="1691.35"></line>
	<g>
		
			<rect x="101.73" y="915.15" transform="matrix(6.123234e-17 -1 1 6.123234e-17 -673.0481 1209.4926)" style="fill:none;stroke:#000000;stroke-linecap:round;stroke-linejoin:round;stroke-miterlimit:10;" width="332.99" height="52.25"></rect>
		
			<line style="fill:none;stroke:#000000;stroke-linecap:round;stroke-linejoin:round;stroke-miterlimit:10;" x1="253.1" y1="1107.82" x2="253.1" y2="774.83"></line>
		
			<rect x="256.94" y="994.35" transform="matrix(6.123234e-17 -1 1 6.123234e-17 -741.2473 1261.7798)" style="fill:none;stroke:#000000;stroke-linecap:round;stroke-linejoin:round;stroke-miterlimit:10;" width="6.65" height="14.33"></rect>
		
			<rect x="256.94" y="771.28" transform="matrix(6.123234e-17 -1 1 6.123234e-17 -518.1824 1038.715)" style="fill:none;stroke:#000000;stroke-linecap:round;stroke-linejoin:round;stroke-miterlimit:10;" width="6.65" height="14.33"></rect>
		
			<rect x="256.94" y="1097.04" transform="matrix(6.123234e-17 -1 1 6.123234e-17 -843.9347 1364.4672)" style="fill:none;stroke:#000000;stroke-linecap:round;stroke-linejoin:round;stroke-miterlimit:10;" width="6.65" height="14.33"></rect>
		
			<line style="fill:none;stroke:#000000;stroke-linecap:round;stroke-linejoin:round;stroke-miterlimit:10;" x1="267.43" y1="998.19" x2="267.43" y2="781.77"></line>
		
			<rect x="212.29" y="1045.73" transform="matrix(6.123234e-17 -1 1 6.123234e-17 -792.5514 1313.1631)" style="fill:none;stroke:#000000;stroke-linecap:round;stroke-linejoin:round;stroke-miterlimit:10;" width="96.04" height="14.25"></rect>
	</g>
	<g>
		
			<rect x="1125.46" y="1703.1" transform="matrix(-4.563899e-11 -1 1 -4.563899e-11 -565.8928 2848.4758)" style="fill-rule:evenodd;clip-rule:evenodd;fill:none;stroke:#000000;stroke-linecap:round;stroke-linejoin:round;stroke-miterlimit:10;" width="31.67" height="8.16"></rect>
		
			<line style="fill:none;stroke:#000000;stroke-linecap:round;stroke-linejoin:round;stroke-miterlimit:10;" x1="1145.47" y1="1723.02" x2="1285.55" y2="1723.02"></line>
		
			<line style="fill:none;stroke:#000000;stroke-linecap:round;stroke-linejoin:round;stroke-miterlimit:10;" x1="1145.47" y1="1720.19" x2="1285.55" y2="1720.19"></line>
		
			<line style="fill:none;stroke:#000000;stroke-linecap:round;stroke-linejoin:round;stroke-miterlimit:10;" x1="1145.59" y1="1713.99" x2="1285.55" y2="1713.99"></line>
		
			<line style="fill:none;stroke:#000000;stroke-linecap:round;stroke-linejoin:round;stroke-miterlimit:10;" x1="1145.47" y1="1691.35" x2="1284.59" y2="1691.35"></line>
		
			<rect x="822.65" y="1702.82" transform="matrix(-4.963135e-11 -1 1 -4.963135e-11 -868.7022 2545.6663)" style="fill-rule:evenodd;clip-rule:evenodd;fill:none;stroke:#000000;stroke-linecap:round;stroke-linejoin:round;stroke-miterlimit:10;" width="31.67" height="8.73"></rect>
		
			<rect x="672.23" y="1702.82" transform="matrix(-4.865435e-11 -1 1 -4.865435e-11 -1019.1243 2395.2441)" style="fill-rule:evenodd;clip-rule:evenodd;fill:none;stroke:#000000;stroke-linecap:round;stroke-linejoin:round;stroke-miterlimit:10;" width="31.67" height="8.73"></rect>
		
			<line style="fill:none;stroke:#000000;stroke-linecap:round;stroke-linejoin:round;stroke-miterlimit:10;" x1="692.53" y1="1723.02" x2="834.12" y2="1723.02"></line>
		
			<line style="fill:none;stroke:#000000;stroke-linecap:round;stroke-linejoin:round;stroke-miterlimit:10;" x1="692.53" y1="1720.19" x2="834.12" y2="1720.19"></line>
		
			<line style="fill:none;stroke:#000000;stroke-linecap:round;stroke-linejoin:round;stroke-miterlimit:10;" x1="692.67" y1="1713.99" x2="834.12" y2="1713.99"></line>
		
			<line style="fill:none;stroke:#000000;stroke-linecap:round;stroke-linejoin:round;stroke-miterlimit:10;" x1="692.53" y1="1691.35" x2="834.12" y2="1691.35"></line>
		
			<rect x="515.35" y="1702.86" transform="matrix(-4.802286e-11 -1 1 -4.802286e-11 -1176.0005 2238.3682)" style="fill-rule:evenodd;clip-rule:evenodd;fill:none;stroke:#000000;stroke-linecap:round;stroke-linejoin:round;stroke-miterlimit:10;" width="31.67" height="8.66"></rect>
		
			<line style="fill:none;stroke:#000000;stroke-linecap:round;stroke-linejoin:round;stroke-miterlimit:10;" x1="535.62" y1="1723.02" x2="683.1" y2="1723.02"></line>
		
			<line style="fill:none;stroke:#000000;stroke-linecap:round;stroke-linejoin:round;stroke-miterlimit:10;" x1="535.62" y1="1720.19" x2="683.1" y2="1720.19"></line>
		
			<line style="fill:none;stroke:#000000;stroke-linecap:round;stroke-linejoin:round;stroke-miterlimit:10;" x1="535.76" y1="1713.99" x2="683.1" y2="1713.99"></line>
		
			<line style="fill:none;stroke:#000000;stroke-linecap:round;stroke-linejoin:round;stroke-miterlimit:10;" x1="535.62" y1="1691.35" x2="683.1" y2="1691.35"></line>
		
			<rect x="1274.03" y="1702.87" transform="matrix(-4.934447e-11 -1 1 -4.934447e-11 -417.3225 2997.0461)" style="fill-rule:evenodd;clip-rule:evenodd;fill:none;stroke:#000000;stroke-linecap:round;stroke-linejoin:round;stroke-miterlimit:10;" width="31.67" height="8.62"></rect>
		
			<rect x="974.53" y="1702.82" transform="matrix(-4.963135e-11 -1 1 -4.963135e-11 -716.8194 2697.5491)" style="fill-rule:evenodd;clip-rule:evenodd;fill:none;stroke:#000000;stroke-linecap:round;stroke-linejoin:round;stroke-miterlimit:10;" width="31.67" height="8.73"></rect>
		
			<line style="fill:none;stroke:#000000;stroke-linecap:round;stroke-linejoin:round;stroke-miterlimit:10;" x1="842.55" y1="1723.02" x2="986" y2="1723.02"></line>
		
			<line style="fill:none;stroke:#000000;stroke-linecap:round;stroke-linejoin:round;stroke-miterlimit:10;" x1="842.84" y1="1720.19" x2="986" y2="1720.19"></line>
		
			<line style="fill:none;stroke:#000000;stroke-linecap:round;stroke-linejoin:round;stroke-miterlimit:10;" x1="843" y1="1713.99" x2="986" y2="1713.99"></line>
		
			<line style="fill:none;stroke:#000000;stroke-linecap:round;stroke-linejoin:round;stroke-miterlimit:10;" x1="842.55" y1="1691.35" x2="986" y2="1691.35"></line>
		
			<line style="fill:none;stroke:#000000;stroke-linecap:round;stroke-linejoin:round;stroke-miterlimit:10;" x1="994.24" y1="1723.02" x2="1136.7" y2="1723.02"></line>
		
			<line style="fill:none;stroke:#000000;stroke-linecap:round;stroke-linejoin:round;stroke-miterlimit:10;" x1="994.99" y1="1720.19" x2="1136.7" y2="1720.19"></line>
		
			<line style="fill:none;stroke:#000000;stroke-linecap:round;stroke-linejoin:round;stroke-miterlimit:10;" x1="994.69" y1="1713.99" x2="1136.7" y2="1713.99"></line>
		
			<line style="fill:none;stroke:#000000;stroke-linecap:round;stroke-linejoin:round;stroke-miterlimit:10;" x1="994.24" y1="1691.35" x2="1137.21" y2="1691.35"></line>
	</g>
	<g>
		<path style="fill:none;stroke:#000000;stroke-linecap:round;stroke-linejoin:round;stroke-miterlimit:10;" d="M1585.56,564.41
			c0,62.45,50.52,113.57,112.97,113.57V565.34"></path>
		
			<rect x="1698.53" y="552.93" transform="matrix(-1 4.514332e-11 -4.514332e-11 -1 3403.7878 1118.2728)" style="fill:none;stroke:#000000;stroke-linecap:round;stroke-linejoin:round;stroke-miterlimit:10;" width="6.73" height="12.41"></rect>
		
			<rect x="1578.72" y="552.93" transform="matrix(-1 4.790023e-11 -4.790023e-11 -1 3164.2798 1118.2728)" style="fill:none;stroke:#000000;stroke-linecap:round;stroke-linejoin:round;stroke-miterlimit:10;" width="6.84" height="12.41"></rect>
	</g>
	<g>
		<path style="fill:none;stroke:#000000;stroke-linecap:round;stroke-linejoin:round;stroke-miterlimit:10;" d="M1092.76,423.43
			c-62.45,0-113.57,50.52-113.57,112.97h112.64"></path>
		
			<rect x="1094.67" y="533.57" transform="matrix(-4.527839e-11 -1 1 -4.527839e-11 558.2648 1637.8029)" style="fill:none;stroke:#000000;stroke-linecap:round;stroke-linejoin:round;stroke-miterlimit:10;" width="6.73" height="12.41"></rect>
		
			<rect x="1094.62" y="413.81" transform="matrix(-4.843231e-11 -1 1 -4.843231e-11 678.0188 1518.0488)" style="fill:none;stroke:#000000;stroke-linecap:round;stroke-linejoin:round;stroke-miterlimit:10;" width="6.84" height="12.41"></rect>
	</g>
	<g>
		<g>
			
				<rect x="256.52" y="500.24" transform="matrix(-3.336880e-11 -1 1 -3.336880e-11 -245.1983 769.0357)" style="fill:none;stroke:#000000;stroke-linecap:round;stroke-linejoin:round;stroke-miterlimit:10;" width="10.79" height="13.75"></rect>
			
				<rect x="256.55" y="619.92" transform="matrix(-3.244154e-11 -1 1 -3.244154e-11 -364.8743 888.771)" style="fill:none;stroke:#000000;stroke-linecap:round;stroke-linejoin:round;stroke-miterlimit:10;" width="10.79" height="13.81"></rect>
			
				<line style="fill:none;stroke:#000000;stroke-linecap:round;stroke-linejoin:round;stroke-miterlimit:10;" x1="267.83" y1="621.43" x2="268.85" y2="621.43"></line>
			<path style="fill:none;stroke:#000000;stroke-linecap:round;stroke-linejoin:round;stroke-miterlimit:10;" d="M345.77,546.25
				c-19.68-20.78-47.37-33.73-77.94-33.73"></path>
			
				<line style="fill:none;stroke:#000000;stroke-linecap:round;stroke-linejoin:round;stroke-miterlimit:10;" x1="268.75" y1="621.43" x2="345.77" y2="546.25"></line>
		</g>
		<g>
			
				<line style="fill:none;stroke:#000000;stroke-linecap:round;stroke-linejoin:round;stroke-miterlimit:10;" x1="294.53" y1="632.22" x2="294.53" y2="347.26"></line>
			
				<line style="fill:none;stroke:#000000;stroke-linecap:round;stroke-linejoin:round;stroke-miterlimit:10;" x1="242.54" y1="647.1" x2="242.54" y2="332.25"></line>
			
				<line style="fill:none;stroke:#000000;stroke-linecap:round;stroke-linejoin:round;stroke-miterlimit:10;" x1="255.08" y1="632.22" x2="254.95" y2="347.26"></line>
			
				<line style="fill:none;stroke:#000000;stroke-linecap:round;stroke-linejoin:round;stroke-miterlimit:10;" x1="268.89" y1="632.22" x2="268.76" y2="347.26"></line>
			<path style="fill:none;stroke:#000000;stroke-linecap:round;stroke-linejoin:round;stroke-miterlimit:10;" d="M259.41,624.44"></path>
			<path style="fill:none;stroke:#000000;stroke-linecap:round;stroke-linejoin:round;stroke-miterlimit:10;" d="M273.22,624.44"></path>
			
				<line style="fill:none;stroke:#000000;stroke-linecap:round;stroke-linejoin:round;stroke-miterlimit:10;" x1="268.76" y1="352.26" x2="255.07" y2="352.26"></line>
			
				<line style="fill:none;stroke:#000000;stroke-linecap:round;stroke-linejoin:round;stroke-miterlimit:10;" x1="262.05" y1="501.72" x2="262.05" y2="352.26"></line>
			
				<line style="fill:none;stroke:#000000;stroke-linecap:round;stroke-linejoin:round;stroke-miterlimit:10;" x1="242.54" y1="347.26" x2="294.53" y2="347.26"></line>
			
				<line style="fill:none;stroke:#000000;stroke-linecap:round;stroke-linejoin:round;stroke-miterlimit:10;" x1="294.53" y1="632.22" x2="242.54" y2="632.22"></line>
		</g>
		<polygon style="fill:none;stroke:#000000;stroke-linecap:round;stroke-linejoin:round;stroke-miterlimit:10;" points="
			242.57,354.59 242.57,340.44 100.09,340.44 100.09,349.21 100.09,354.59 100.09,627.92 100.09,634.72 100.09,634.75 
			242.57,634.75 242.57,620.18 107.59,620.18 107.59,354.59 		"></polygon>
	</g>
	<g>
		<polygon style="fill-rule:evenodd;clip-rule:evenodd;" points="487.77,1192.86 487.77,1158.03 274.16,1158.03 274.16,1192.86 
			429.49,1192.86 487.77,1192.86 		"></polygon>
		<polygon points="1869.04,782 1873.09,782 1900.09,782 1900.09,269.55 1900.09,231.05 1873.09,231.05 1869.04,231.05 		"></polygon>
		<polygon style="fill-rule:evenodd;clip-rule:evenodd;" points="294.43,695.77 294.43,632.14 242.17,632.14 242.17,774.97 
			294.43,774.97 294.43,695.77 		"></polygon>
		<polygon style="fill-rule:evenodd;clip-rule:evenodd;" points="820.5,536.38 820.5,266.78 808.28,266.78 808.28,538.14 
			820.5,538.14 820.5,536.62 820.5,536.38 		"></polygon>
		<polygon style="fill-rule:evenodd;clip-rule:evenodd;" points="1817.6,559.37 1817.45,424.56 1805.33,424.56 1805.33,559.37 
			1812.69,559.37 1817.6,559.37 		"></polygon>
		<polygon style="fill-rule:evenodd;clip-rule:evenodd;" points="1806.24,436.91 1882,436.91 1882,424.24 1805.33,424.24 
			1805.33,436.91 1806.24,436.91 		"></polygon>
		<polygon style="fill-rule:evenodd;clip-rule:evenodd;" points="294.7,347.26 294.7,231.41 242.4,231.41 242.4,347.26 
			294.7,347.26 		"></polygon>
		<polygon style="fill-rule:evenodd;clip-rule:evenodd;" points="1558.71,267.45 1096.97,267.45 1096.97,283.74 1558.71,283.74 
			1558.71,267.45 		"></polygon>
		<polygon style="fill-rule:evenodd;clip-rule:evenodd;" points="1889.84,258.25 1555.24,258.25 1555.24,278.24 1889.84,278.24 
			1889.84,258.25 		"></polygon>
		<polygon style="fill-rule:evenodd;clip-rule:evenodd;" points="1884.53,267.85 1884.53,231.19 242.54,231.19 242.54,267.85 
			1349.27,267.85 1884.53,267.85 		"></polygon>
		<polyline style="fill-rule:evenodd;clip-rule:evenodd;" points="1293.54,782.38 1293.54,746.24 1547.01,746.24 1547.01,782.38 
			1314.13,782.38 1293.54,782.38 1293.54,782.38 		"></polyline>
		<polygon style="fill-rule:evenodd;clip-rule:evenodd;" points="1332.14,746.98 1293.39,746.98 1293.39,1728.46 1332.14,1728.46 
			1332.14,1331.04 1332.14,746.98 		"></polygon>
		<polygon style="fill-rule:evenodd;clip-rule:evenodd;" points="294.43,1181.52 294.43,1107.58 242.17,1107.58 242.17,1273.56 
			294.43,1273.56 294.43,1181.52 		"></polygon>
		<rect x="1225.22" y="264.7" style="fill-rule:evenodd;clip-rule:evenodd;" width="11.7" height="66.81"></rect>
		<rect x="1100.35" y="320.48" style="fill-rule:evenodd;clip-rule:evenodd;" width="136.57" height="11.03"></rect>
		<rect x="1539.78" y="263.36" style="fill-rule:evenodd;clip-rule:evenodd;" width="25.8" height="300.81"></rect>
		<polygon style="fill-rule:evenodd;clip-rule:evenodd;" points="440.96,1721.45 440.96,1656.54 249.29,1656.54 249.29,1721.45 
			388.66,1721.45 440.96,1721.45 		"></polygon>
		<polygon style="fill-rule:evenodd;clip-rule:evenodd;" points="527.35,1699.83 527.35,1658.36 335.68,1658.36 335.68,1699.83 
			475.05,1699.83 527.35,1699.83 		"></polygon>
		
			<rect x="646.16" y="343.71" transform="matrix(5.824184e-10 1 -1 5.824184e-10 1377.0762 72.1101)" style="fill-rule:evenodd;clip-rule:evenodd;" width="12.64" height="761.76"></rect>
		<rect x="1022.92" y="715.11" style="fill-rule:evenodd;clip-rule:evenodd;" width="12.52" height="116.42"></rect>
		<rect x="1022.82" y="557.23" style="fill-rule:evenodd;clip-rule:evenodd;" width="12.85" height="15.8"></rect>
		<rect x="1022.82" y="556.58" style="fill-rule:evenodd;clip-rule:evenodd;" width="555.46" height="12.29"></rect>
		<polyline style="fill-rule:evenodd;clip-rule:evenodd;" points="1710.33,782.38 1710.33,746.24 1899.88,746.24 1899.88,782.38 
			1725.73,782.38 1710.33,782.38 1710.33,782.38 		"></polyline>
		<rect x="1022.92" y="974.91" style="fill-rule:evenodd;clip-rule:evenodd;" width="12.52" height="216.15"></rect>
		
			<rect x="647.95" y="804.56" transform="matrix(5.567447e-10 1 -1 5.567447e-10 1839.995 530.8896)" style="fill-rule:evenodd;clip-rule:evenodd;" width="13.2" height="761.76"></rect>
		<rect x="1193.61" y="1071.14" style="fill-rule:evenodd;clip-rule:evenodd;" width="111.57" height="12.52"></rect>
		<rect x="1199.93" y="1081.63" style="fill-rule:evenodd;clip-rule:evenodd;" width="12.96" height="211.83"></rect>
		<rect x="1200.24" y="1281.16" style="fill-rule:evenodd;clip-rule:evenodd;" width="95.56" height="12.63"></rect>
		<rect x="1854.73" y="273.91" style="fill-rule:evenodd;clip-rule:evenodd;" width="29.8" height="294.96"></rect>
		<rect x="1089.71" y="267.45" style="fill-rule:evenodd;clip-rule:evenodd;" width="14.53" height="149.14"></rect>
		<rect x="1090.14" y="543.5" style="fill-rule:evenodd;clip-rule:evenodd;" width="14.53" height="17.78"></rect>
		<rect x="378.82" y="1691.35" style="fill-rule:evenodd;clip-rule:evenodd;" width="148.53" height="33.46"></rect>
		<rect x="1563.6" y="552.01" style="fill-rule:evenodd;clip-rule:evenodd;" width="14.68" height="16.7"></rect>
		<rect x="1704.95" y="552.01" style="fill-rule:evenodd;clip-rule:evenodd;" width="179.59" height="17.26"></rect>
		<rect x="242.1" y="1606.49" style="fill-rule:evenodd;clip-rule:evenodd;" width="52.25" height="111"></rect>
		<rect x="242.1" y="1697.7" style="fill-rule:evenodd;clip-rule:evenodd;" width="285.25" height="71.25"></rect>
	</g>
</g>
</svg>
