<?xml version="1.0" encoding="utf-8"?>
<!-- Generator: Adobe Illustrator 24.1.2, SVG Export Plug-In . SVG Version: 6.00 Build 0)  -->
<svg version="1.0" id="Layer_1" xmlns="http://www.w3.org/2000/svg" xmlns:xlink="http://www.w3.org/1999/xlink" x="0px" y="0px" width="2000px" height="2000px" viewBox="0 0 2000 2000" style="enable-background:new 0 0 2000 2000;" xml:space="preserve">
<path id="background" style="fill:#FFFFFF;" d="M1899.95,912.49V1049c0.25,0.03,0.44,0.23,0.44,0.49v207.84
	c0,0.26-0.19,0.46-0.44,0.49v139.71h-31.02h-6.85H1725.7v0H276.48h-46.81h-93.08v0h-36.34v-36.19v-23.55v-46.51h-0.15
	c-0.28,0-0.5-0.22-0.5-0.5v-207.84c0-0.22,0.15-0.41,0.35-0.47v-53.5h0.3v-9.43h713.96V820.19h6.35h16.63h75.83v13.72h6.27
	c0.77-62.49,51.59-113.09,113.94-113.09c0.13,0,0.26,0.05,0.35,0.15c0.09,0.09,0.15,0.22,0.15,0.35l0,112.59h5.67v-13.72h55.15
	V625.45v-20.84v-2.14h767.53h26.81h11v101.19h0c0.28,0,0.5,0.22,0.5,0.5V912C1900.4,912.26,1900.2,912.46,1899.95,912.49z"></path>
<g id="c1">
	<path id="c1_path" style="fill:none;" d="M1596.25,842.91v-202.2h155.37v202.2H1596.25z"></path>
	
		<text id="c1_text" transform="matrix(1 0 0 1 1654.2965 737.7907)" style="font-family: GraphikLCG-Regular; font-size: 40px; text-anchor: middle; text-align: center;"></text>
</g>
<g id="s1">
	<path id="s1_path" style="fill:none;" d="M761.74,1341.9v-167.52h124.9v167.52H761.74z"></path>
	<text id="s1_text" transform="matrix(1 0 0 1 805.9765 1244.8307)" style="font-family: GraphikLCG-Regular; font-size: 40px; text-anchor: middle; text-align: center;"></text>
</g>
<g id="s2">
	<path id="s2_path" style="fill:none;" d="M1079.9,1317.4v-144.47h109.73v144.47H1079.9z"></path>
	
		<text id="s2_text" transform="matrix(1 0 0 1 1110.2748 1246.6276)" style="font-family: GraphikLCG-Regular; font-size: 40px; text-anchor: middle; text-align: center;"></text>
</g>
<g id="r1">
	<path id="r1_path" style="fill:none;" d="M420.77,1310.38v-0.03l-71.96,0.06l0.02-224.54h156.96v224.51H420.77z"></path>
	<text id="r1_text" transform="matrix(1 0 0 1 448.2188 1219.9049)" style="font-family: GraphikLCG-Regular; font-size: 40px; text-anchor: middle; text-align: center;"></text>
</g>
<g id="r2">
	<path id="r2_path" style="fill:none;" d="M1598.01,1038.98l-0.01,246.1h-89.48l0,0H1485v-246.1L1598.01,1038.98z"></path>
	
		<text id="r2_text" transform="matrix(1 0 0 1 1537.9056 1159.3873)" style="font-family: GraphikLCG-Regular; font-size: 40px; text-anchor: middle; text-align: center;"></text>
</g>
<g id="h1">
	<path id="h1_path" style="fill:none;" d="M964.94,1032l0-181.19l124.43,0l0,181.19l-68.69,0v0L964.94,1032z"></path>
	<text id="h1_text" transform="matrix(1 0 0 1 1009.0052 962.821)" style="font-family: GraphikLCG-Regular; font-size: 40px; text-anchor: middle; text-align: center;"></text>
</g>
<g id="g1">
	<path id="g1_path" style="fill:none;" d="M533.51,1339.4v-162.54h118.97v162.54H533.51z"></path>
	<text id="g1_text" transform="matrix(1 0 0 1 555.8915 1235.4713)" style="font-family: GraphikLCG-Regular; font-size: 40px; text-anchor: middle; text-align: center;"></text>
</g>
<path id="u1" style="fill:#FFFFFF;stroke:#FFFFFF;stroke-linecap:round;stroke-linejoin:round;stroke-miterlimit:10;" d="
	M164.08,1223.43c-4.65,0-8.42-3.77-8.42-8.42c0-4.65,3.77-8.42,8.42-8.42s8.42,3.77,8.42,8.42
	C172.5,1219.66,168.73,1223.43,164.08,1223.43z"></path>
<path id="u3" style="fill:#FFFFFF;stroke:#FFFFFF;stroke-linecap:round;stroke-linejoin:round;stroke-miterlimit:10;" d="
	M576.17,1329.14c-4.65,0-8.42-3.77-8.42-8.42s3.77-8.42,8.42-8.42s8.42,3.77,8.42,8.42S580.82,1329.14,576.17,1329.14z"></path>
<path id="u6" style="fill:#FFFFFF;stroke:#FFFFFF;stroke-linecap:round;stroke-linejoin:round;stroke-miterlimit:10;" d="
	M1241.67,797.02c-4.65,0-8.42-3.77-8.42-8.42c0-4.65,3.77-8.42,8.42-8.42s8.42,3.77,8.42,8.42
	C1250.09,793.25,1246.32,797.02,1241.67,797.02z"></path>
<path id="u2" style="fill:#FFFFFF;stroke:#FFFFFF;stroke-linecap:round;stroke-linejoin:round;stroke-miterlimit:10;" d="
	M1638.65,1108.36c-4.65,0-8.42-3.77-8.42-8.42s3.77-8.42,8.42-8.42s8.42,3.77,8.42,8.42S1643.3,1108.36,1638.65,1108.36z"></path>
<g id="mebel">
	<polygon style="fill:none;stroke:#000000;stroke-linecap:round;stroke-linejoin:round;stroke-miterlimit:10;" points="
		906.17,1032.17 906.17,1031.47 955.51,1031.46 955.51,962.42 906.18,962.43 906.19,845.08 837.15,845.07 837.14,962.44 
		837.14,962.44 837.14,980.11 837.13,1032.16 	"></polygon>
	
		<line style="fill:none;stroke:#000000;stroke-linecap:round;stroke-linejoin:round;stroke-miterlimit:10;" x1="900.07" y1="968.56" x2="900.07" y2="845.08"></line>
	
		<line style="fill:none;stroke:#000000;stroke-linecap:round;stroke-linejoin:round;stroke-miterlimit:10;" x1="900.07" y1="968.55" x2="955.51" y2="968.55"></line>
	<g>
		
			<rect x="1225.98" y="1229.08" transform="matrix(9.463236e-05 -1 1 9.463236e-05 59.4424 2586.6445)" style="fill:none;stroke:#000000;stroke-linecap:round;stroke-linejoin:round;stroke-miterlimit:10;" width="194.38" height="69.04"></rect>
		
			<line style="fill:none;stroke:#000000;stroke-linecap:round;stroke-linejoin:round;stroke-miterlimit:10;" x1="1351.55" y1="1360.79" x2="1351.57" y2="1166.41"></line>
		
			<line style="fill:none;stroke:#000000;stroke-linecap:round;stroke-linejoin:round;stroke-miterlimit:10;" x1="1288.65" y1="1264.7" x2="1357.69" y2="1264.7"></line>
	</g>
	<g>
		<polygon style="fill:none;stroke:#000000;stroke-linecap:round;stroke-linejoin:round;stroke-miterlimit:10;" points="
			1186.36,1011.59 1186.36,942.81 1117.6,942.81 1117.59,1011.59 		"></polygon>
		<g>
			
				<line style="fill:none;stroke:#000000;stroke-linecap:round;stroke-linejoin:round;stroke-miterlimit:10;" x1="1135.42" y1="977.2" x2="1168.53" y2="977.2"></line>
			
				<line style="fill:none;stroke:#000000;stroke-linecap:round;stroke-linejoin:round;stroke-miterlimit:10;" x1="1151.98" y1="993.76" x2="1151.98" y2="960.64"></line>
			<polyline style="fill:none;stroke:#000000;stroke-linecap:round;stroke-linejoin:round;stroke-miterlimit:10;" points="
				1139.1,985.48 1143.7,977.2 1139.1,968.92 			"></polyline>
			<polyline style="fill:none;stroke:#000000;stroke-linecap:round;stroke-linejoin:round;stroke-miterlimit:10;" points="
				1143.7,964.32 1151.98,968.92 1160.25,964.32 			"></polyline>
			<polyline style="fill:none;stroke:#000000;stroke-linecap:round;stroke-linejoin:round;stroke-miterlimit:10;" points="
				1164.85,968.92 1160.25,977.2 1164.85,985.48 			"></polyline>
			<polyline style="fill:none;stroke:#000000;stroke-linecap:round;stroke-linejoin:round;stroke-miterlimit:10;" points="
				1160.25,990.08 1151.98,985.48 1143.7,990.08 			"></polyline>
		</g>
	</g>
	<g>
		<g>
			
				<rect x="1775.37" y="1269.31" transform="matrix(-2.256267e-04 -1 1 -2.256267e-04 559.9886 3107.4949)" style="fill:none;stroke:#000000;stroke-linecap:round;stroke-linejoin:round;stroke-miterlimit:10;" width="116.04" height="9.01"></rect>
			
				<rect x="1656.76" y="1159.74" transform="matrix(-2.256267e-04 -1 1 -2.256267e-04 441.3265 2988.9116)" style="fill:none;stroke:#000000;stroke-linecap:round;stroke-linejoin:round;stroke-miterlimit:10;" width="116.04" height="228.2"></rect>
			<path style="fill:none;stroke:#000000;stroke-linecap:round;stroke-linejoin:round;stroke-miterlimit:10;" d="M1782.52,1324.07
				l-171.32,0.04c-1.66,0-3.01-1.16-3.01-2.59l-0.02-95.3c0-1.43,1.34-2.59,3-2.59l171.32-0.04L1782.52,1324.07z"></path>
			<path style="fill:none;stroke:#000000;stroke-linecap:round;stroke-linejoin:round;stroke-miterlimit:10;" d="M1782.52,1308.83
				l0,15.24l38.86-0.01c1.66,0,3-1.16,3-2.59l-0.02-95.3c0-1.43-1.35-2.59-3.01-2.59l-38.86,0.01l0,15.24l22.2,0
				c6.64,0,12.02,4.64,12.02,10.37l0.01,49.26c0,5.73-5.38,10.37-12.02,10.37L1782.52,1308.83z"></path>
		</g>
		<g>
			
				<circle style="fill:none;stroke:#000000;stroke-linecap:round;stroke-linejoin:round;stroke-miterlimit:10;" cx="1691.51" cy="1275.08" r="6.28"></circle>
			<g>
				
					<circle style="fill:none;stroke:#000000;stroke-linecap:round;stroke-linejoin:round;stroke-miterlimit:10;" cx="1690.24" cy="1276.52" r="0.67"></circle>
				
					<circle style="fill:none;stroke:#000000;stroke-linecap:round;stroke-linejoin:round;stroke-miterlimit:10;" cx="1693.14" cy="1274.08" r="0.67"></circle>
			</g>
			<polygon style="fill:none;stroke:#000000;stroke-linecap:round;stroke-linejoin:round;stroke-miterlimit:10;" points="
				1689.27,1274.52 1691.34,1272.78 1689.43,1272.61 			"></polygon>
			<path style="fill:none;stroke:#000000;stroke-linecap:round;stroke-linejoin:round;stroke-miterlimit:10;" d="M1676.13,1256.79
				L1676.13,1256.79c-2.94,2.48-2.92,7.01,0.05,9.46l5.8,4.78c1.35,1.11,3.29,1.1,4.63-0.02l1.74-1.46
				c1.33-1.12,1.68-3.04,0.82-4.55l-3.72-6.54C1683.54,1255.12,1679.07,1254.32,1676.13,1256.79z"></path>
			<path style="fill:none;stroke:#000000;stroke-linecap:round;stroke-linejoin:round;stroke-miterlimit:10;" d="M1692.98,1260.1
				l-3.33,6.51l-0.07-0.04c-0.03-0.54-0.14-1.08-0.42-1.58l-1.53-2.69l2.01-3.92c0.47-0.92,1.61-1.29,2.53-0.82
				C1693.08,1258.04,1693.45,1259.17,1692.98,1260.1z"></path>
			<path style="fill:none;stroke:#000000;stroke-linecap:round;stroke-linejoin:round;stroke-miterlimit:10;" d="M1675.31,1270.43
				l4.31-1.33l2.36,1.94c0.42,0.34,0.9,0.54,1.39,0.67l0.05,0.15l-6.99,2.17c-0.99,0.31-2.05-0.25-2.35-1.24
				C1673.76,1271.79,1674.32,1270.73,1675.31,1270.43z"></path>
			<path style="fill:none;stroke:#000000;stroke-linecap:round;stroke-linejoin:round;stroke-miterlimit:10;" d="M1676.3,1256.68
				l-3.8-4.17c-0.9-0.99-0.83-2.51,0.16-3.41c0.99-0.9,2.51-0.83,3.41,0.16l5.82,6.4
				C1680.04,1255.09,1677.95,1255.38,1676.3,1256.68z"></path>
			<path style="fill:none;stroke:#000000;stroke-linecap:round;stroke-linejoin:round;stroke-miterlimit:10;" d="M1674.47,1263.99
				l-0.11,0.17l-7.4-4.94c-1.11-0.74-1.41-2.24-0.67-3.35c0.74-1.11,2.24-1.41,3.35-0.67l5.07,3.38
				C1673.8,1260.26,1673.7,1262.26,1674.47,1263.99z"></path>
			<path style="fill:none;stroke:#000000;stroke-linecap:round;stroke-linejoin:round;stroke-miterlimit:10;" d="M1693.31,1281.1
				l2.9,9.42c0.44,1.42-0.41,2.92-1.86,3.27s-2.89-0.59-3.15-2.05l-1.95-10.82C1690.54,1281.41,1691.97,1281.5,1693.31,1281.1z"></path>
			<path style="fill:none;stroke:#000000;stroke-linecap:round;stroke-linejoin:round;stroke-miterlimit:10;" d="M1705.78,1287.26
				c-1.14,0.96-2.85,0.76-3.74-0.44l-5.73-7.71c1.03-1.22,1.51-2.75,1.45-4.28l8.24,8.68
				C1707.02,1284.58,1706.92,1286.3,1705.78,1287.26z"></path>
		</g>
	</g>
	<g>
		<g>
			
				<rect x="608.54" y="1156.25" style="fill:none;stroke:#000000;stroke-linecap:round;stroke-linejoin:round;stroke-miterlimit:10;" width="68.95" height="204.4"></rect>
			
				<line style="fill:none;stroke:#000000;stroke-linecap:round;stroke-linejoin:round;stroke-miterlimit:10;" x1="614.72" y1="1360.65" x2="614.68" y2="1156.26"></line>
		</g>
		
			<line style="fill:none;stroke:#000000;stroke-linecap:round;stroke-linejoin:round;stroke-miterlimit:10;" x1="608.54" y1="1224.08" x2="677.49" y2="1224.08"></line>
		
			<line style="fill:none;stroke:#000000;stroke-linecap:round;stroke-linejoin:round;stroke-miterlimit:10;" x1="608.54" y1="1291.9" x2="677.49" y2="1291.9"></line>
	</g>
	<g>
		<g>
			<g>
				
					<circle style="fill:none;stroke:#000000;stroke-linecap:round;stroke-linejoin:round;stroke-miterlimit:10;" cx="227.46" cy="1077.54" r="3.96"></circle>
				
					<circle style="fill:none;stroke:#000000;stroke-linecap:round;stroke-linejoin:round;stroke-miterlimit:10;" cx="227.46" cy="1077.54" r="2.8"></circle>
				
					<line style="fill:none;stroke:#000000;stroke-linecap:round;stroke-linejoin:round;stroke-miterlimit:10;" x1="225.16" y1="1074.57" x2="223.45" y2="1072.37"></line>
				<path style="fill:none;stroke:#000000;stroke-linecap:round;stroke-linejoin:round;stroke-miterlimit:10;" d="M217.38,1078.15
					c-0.19-3.1,1.08-5.93,3.17-7.91l1.52,1.96c0.33,0.43,0.95,0.51,1.38,0.17c0.27-0.21,0.4-0.52,0.38-0.84
					c-0.01-0.19-0.08-0.38-0.21-0.55l-1.52-1.95c1.39-0.88,2.99-1.47,4.75-1.57c5.57-0.34,10.36,3.91,10.7,9.48
					c0.34,5.57-3.91,10.36-9.48,10.7C222.5,1087.97,217.71,1083.73,217.38,1078.15z"></path>
				<g>
					
						<rect x="208.44" y="1055.82" transform="matrix(0.7891 -0.6142 0.6142 0.7891 -605.4423 351.6639)" style="fill:none;stroke:#000000;stroke-linecap:round;stroke-linejoin:round;stroke-miterlimit:10;" width="1.97" height="3.5"></rect>
					
						<rect x="211.55" y="1053.4" transform="matrix(0.7891 -0.6142 0.6142 0.7891 -603.3033 353.0679)" style="fill:none;stroke:#000000;stroke-linecap:round;stroke-linejoin:round;stroke-miterlimit:10;" width="1.97" height="3.5"></rect>
				</g>
				<g>
					<path style="fill:none;stroke:#000000;stroke-linecap:round;stroke-linejoin:round;stroke-miterlimit:10;" d="M215.91,1064.29
						c-0.83,0.46-1.77,0.77-2.78,0.83c-3.63,0.22-6.75-2.55-6.97-6.18c-0.11-1.88,0.58-3.61,1.78-4.89L215.91,1064.29z"></path>
					<path style="fill:none;stroke:#000000;stroke-linecap:round;stroke-linejoin:round;stroke-miterlimit:10;" d="M209.49,1052.84
						c0.85-0.48,1.81-0.81,2.85-0.87c3.63-0.22,6.75,2.55,6.97,6.18c0.12,1.91-0.61,3.66-1.84,4.94L209.49,1052.84z"></path>
				</g>
				<g>
					<path style="fill:none;stroke:#000000;stroke-linecap:round;stroke-linejoin:round;stroke-miterlimit:10;" d="M223.83,1071.53
						c-0.01-0.19-0.08-0.38-0.21-0.55l-16.19-20.79c-0.33-0.43-0.95-0.51-1.38-0.17c-0.43,0.33-0.51,0.95-0.17,1.38l16.19,20.79
						c0.33,0.43,0.95,0.51,1.38,0.17C223.72,1072.16,223.85,1071.84,223.83,1071.53z"></path>
				</g>
			</g>
			<g>
				
					<circle style="fill:none;stroke:#000000;stroke-linecap:round;stroke-linejoin:round;stroke-miterlimit:10;" cx="427.96" cy="1077.16" r="3.96"></circle>
				
					<circle style="fill:none;stroke:#000000;stroke-linecap:round;stroke-linejoin:round;stroke-miterlimit:10;" cx="427.96" cy="1077.16" r="2.8"></circle>
				
					<line style="fill:none;stroke:#000000;stroke-linecap:round;stroke-linejoin:round;stroke-miterlimit:10;" x1="430.36" y1="1074.26" x2="432.13" y2="1072.11"></line>
				<path style="fill:none;stroke:#000000;stroke-linecap:round;stroke-linejoin:round;stroke-miterlimit:10;" d="M425.17,1067.45
					c2.99-0.86,6.02-0.24,8.42,1.37l-1.58,1.91c-0.35,0.42-0.28,1.04,0.14,1.39c0.26,0.21,0.6,0.27,0.9,0.19
					c0.18-0.05,0.36-0.16,0.49-0.32l1.57-1.91c1.16,1.17,2.09,2.6,2.57,4.29c1.55,5.36-1.55,10.96-6.91,12.51
					c-5.36,1.55-10.96-1.55-12.51-6.91C416.71,1074.6,419.8,1069,425.17,1067.45z"></path>
				<g>
					
						<rect x="441.77" y="1054.21" transform="matrix(0.636 -0.7717 0.7717 0.636 -652.8474 726.3625)" style="fill:none;stroke:#000000;stroke-linecap:round;stroke-linejoin:round;stroke-miterlimit:10;" width="3.5" height="1.97"></rect>
					
						<rect x="444.81" y="1056.72" transform="matrix(0.636 -0.7717 0.7717 0.636 -653.6763 729.6275)" style="fill:none;stroke:#000000;stroke-linecap:round;stroke-linejoin:round;stroke-miterlimit:10;" width="3.5" height="1.97"></rect>
				</g>
				<g>
					<path style="fill:none;stroke:#000000;stroke-linecap:round;stroke-linejoin:round;stroke-miterlimit:10;" d="M438.38,1062.99
						c-0.63-0.71-1.13-1.56-1.41-2.53c-1.01-3.5,1.01-7.15,4.51-8.15c1.81-0.52,3.65-0.22,5.16,0.67L438.38,1062.99z"></path>
					<path style="fill:none;stroke:#000000;stroke-linecap:round;stroke-linejoin:round;stroke-miterlimit:10;" d="M448.15,1054.22
						c0.66,0.72,1.18,1.59,1.47,2.59c1.01,3.5-1.01,7.15-4.51,8.15c-1.84,0.53-3.71,0.21-5.23-0.71L448.15,1054.22z"></path>
				</g>
				<g>
					<path style="fill:none;stroke:#000000;stroke-linecap:round;stroke-linejoin:round;stroke-miterlimit:10;" d="M433.04,1072.3
						c0.18-0.05,0.36-0.16,0.49-0.32l16.75-20.34c0.35-0.42,0.29-1.04-0.14-1.39c-0.42-0.35-1.04-0.29-1.39,0.13L432,1070.73
						c-0.35,0.42-0.29,1.04,0.14,1.39C432.4,1072.33,432.74,1072.39,433.04,1072.3z"></path>
				</g>
			</g>
			<g>
				<g>
					<g>
						<g>
							<g>
								<g>
									
										<rect x="240.55" y="1045.8" style="fill:none;stroke:#000000;stroke-linecap:round;stroke-linejoin:round;stroke-miterlimit:10;" width="173.75" height="7.05"></rect>
									
										<rect x="240.55" y="1052.85" style="fill:none;stroke:#000000;stroke-linecap:round;stroke-linejoin:round;stroke-miterlimit:10;" width="173.75" height="234.35"></rect>
									<path style="fill:none;stroke:#000000;stroke-linecap:round;stroke-linejoin:round;stroke-miterlimit:10;" d="
										M324.38,1089.11l5.98,0l0-17.36c0-5.19,4.21-9.4,9.4-9.4l52.11,0c5.19,0,9.4,4.21,9.4,9.4l0,17.36h5.98l0-30.39
										c0-1.3-1.05-2.35-2.35-2.35l-154.95,0c-1.3,0-2.35,1.05-2.35,2.35l0,30.39h5.98l0-17.36c0-5.19,4.21-9.4,9.4-9.4l52,0
										c5.19,0,9.4,4.21,9.4,9.4L324.38,1089.11z"></path>
									<path style="fill:none;stroke:#000000;stroke-linecap:round;stroke-linejoin:round;stroke-miterlimit:10;" d="
										M249.31,1281.33l156.22,0c0.95,0,1.71-0.77,1.71-1.71l0-190.5l-159.65,0l0,190.5
										C247.6,1280.56,248.37,1281.33,249.31,1281.33z"></path>
								</g>
							</g>
							
								<rect x="410.33" y="1049.77" transform="matrix(-2.010935e-06 -1 1 -2.010935e-06 -635.467 1503.824)" style="fill:none;stroke:#000000;stroke-linecap:round;stroke-linejoin:round;stroke-miterlimit:10;" width="47.69" height="39.76"></rect>
							
								<rect x="196.83" y="1049.77" transform="matrix(-2.010935e-06 -1 1 -2.010935e-06 -848.9704 1290.3214)" style="fill:none;stroke:#000000;stroke-linecap:round;stroke-linejoin:round;stroke-miterlimit:10;" width="47.69" height="39.76"></rect>
						</g>
					</g>
				</g>
			</g>
		</g>
	</g>
	<g>
		<path style="fill:none;stroke:#000000;stroke-linecap:round;stroke-linejoin:round;stroke-miterlimit:10;" d="M347.65,1196.91"></path>
		<path style="fill:none;stroke:#000000;stroke-linecap:round;stroke-linejoin:round;stroke-miterlimit:10;" d="M339.55,1177.9
			c1.63,0.88,3.44,2.16,5.13,4.02c4.64,5.11,6.09,10.28,6.09,10.28c0.61-0.08,1.24-0.06,1.87,0.08c3.18,0.67,5.13,3.83,4.35,6.96
			c-0.07,0.28-0.16,0.55-0.27,0.81l5.86-1.61c0.68-0.22,1.44,0.09,1.74,0.74c0.34,0.75-0.04,1.63-0.81,1.9l-7.94,2.51
			c-0.19,0.07-0.39,0.05-0.57-0.05l-1.03-0.58c-1.17,0.57-2.71,0.84-5.63-0.14c-7.41-2.47-8.35-10.57-8.35-10.57l-5.31-5.11"></path>
		<path style="fill:none;stroke:#000000;stroke-linecap:round;stroke-linejoin:round;stroke-miterlimit:10;" d="M362.89,1194.42
			l-4.24,5.08l-1.94,0.53c0.11-0.26,0.2-0.53,0.27-0.81c0.21-0.82,0.21-1.64,0.07-2.42l3.7-4.18c0.49-0.56,1.33-0.64,1.92-0.18
			C363.29,1192.92,363.38,1193.82,362.89,1194.42z"></path>
		<path style="fill:none;stroke:#000000;stroke-linecap:round;stroke-linejoin:round;stroke-miterlimit:10;" d="M352.92,1220.81
			c3.57-5.39,2.42-12.98-2.47-17.46c0.86,0.14,1.56,0.13,2.15,0.04c0.08,0.07,0.18,0.12,0.26,0.19c5.44,4.77,6.35,12.9,2.29,18.73
			c-0.4,0.58-1.18,0.74-1.79,0.38C352.71,1222.3,352.51,1221.44,352.92,1220.81z"></path>
		<g>
			<path style="fill:none;stroke:#000000;stroke-linecap:round;stroke-linejoin:round;stroke-miterlimit:10;" d="M332.37,1176.74
				c-0.75-1.56-1.37-3.02-2.19-4.83c-0.27-0.61-0.74-1.35-0.52-1.98c0.13-0.39,0.44-0.65,0.81-0.75"></path>
		</g>
		<path style="fill:none;stroke:#000000;stroke-linecap:round;stroke-linejoin:round;stroke-miterlimit:10;" d="M344.62,1194.3"></path>
		<path style="fill:none;stroke:#000000;stroke-linecap:round;stroke-linejoin:round;stroke-miterlimit:10;" d="M329.16,1179.43
			c0.87-0.64,1.76-1.45,2.56-2.17c0.72-0.65,1.62-1.34,2.59-1.23"></path>
		<path style="fill:none;stroke:#000000;stroke-linecap:round;stroke-linejoin:round;stroke-miterlimit:10;" d="M339.91,1185.88
			c2.62-2.86-0.48-8.05-0.48-8.05c-0.5-2.13-3.83-7.63-7.45-10.64c-0.29-0.24-0.58-0.43-0.88-0.58c-0.6-0.28-1.32-0.03-1.61,0.58
			c-0.28,0.6,0.21,1.05,0.58,1.61c1.67,2.54,2.7,4,3.7,5.96c0.16,0.31,0.38,0.8,0.59,1.27c0.31,0.69,0.59,1.33,0.59,1.33
			c-0.32,0.62-0.72,1.52-1.02,2.6"></path>
		<g>
			<path style="fill:none;stroke:#000000;stroke-linecap:round;stroke-linejoin:round;stroke-miterlimit:10;" d="M326.46,1183.44
				c-0.07,1.4,0.49,2.77,1.52,3.71l0.56,3.7c0.03,0.2,0.28,0.26,0.41,0.11l2.01-2.59c0.74,0.03,1.48-0.12,2.14-0.43
				c0.06-0.03,1.56-0.87,1.56-0.87l0.45-0.24l0.55-0.32c0.07-0.04,0.14-0.08,0.21-0.13c0.21-0.15,0.4-0.33,0.54-0.56
				c0.62-0.95,0.36-2.22-0.59-2.84c-0.02-0.01-0.04-0.02-0.06-0.04c-0.31-1.92-1.81-3.58-4.03-3.9c-0.99-0.14-2.01,0.06-2.87,0.54
				c-0.55,0.31-1.04,0.72-1.43,1.24c-0.03,0.03-0.05,0.07-0.08,0.1"></path>
			
				<line style="fill:none;stroke:#000000;stroke-linecap:round;stroke-linejoin:round;stroke-miterlimit:10;" x1="334.1" y1="1183.8" x2="333.29" y2="1182.6"></line>
			<polygon style="fill:none;stroke:#000000;stroke-linecap:round;stroke-linejoin:round;stroke-miterlimit:10;" points="
				335.25,1184.46 336.14,1185.21 335.4,1186.1 			"></polygon>
			<path style="fill:none;stroke:#000000;stroke-linecap:round;stroke-linejoin:round;stroke-miterlimit:10;" d="M329.85,1180.5
				c-1.38,0.1-3.32,0.59-4.68,1.33c-0.23,0.12-0.2,0.45,0,0.61c0.4,0.34,1.98,1.46,3.54,2.03c0,0-0.24-0.07,0,0"></path>
		</g>
		<path style="fill:none;stroke:#000000;stroke-linecap:round;stroke-linejoin:round;stroke-miterlimit:10;" d="M352.63,1192.27
			c-0.63-0.13-1.26-0.15-1.87-0.08c0,0-0.33-1.14-1.13-2.85c1.27-0.42,2.68-0.41,4.01,0.16c2.62,1.13,3.94,3.98,3.24,6.66
			C356.29,1194.27,354.74,1192.72,352.63,1192.27z"></path>
	</g>
	<g>
		<g>
			<g>
				<path style="fill:none;stroke:#000000;stroke-linecap:round;stroke-linejoin:round;stroke-miterlimit:10;" d="M1675.6,968.63
					h100.24c1.3,0,2.36-1.05,2.36-2.36v-70.16c0-1.3-1.05-2.36-2.36-2.36H1675.6c-1.3,0-2.36,1.05-2.36,2.36v70.16
					C1673.24,967.57,1674.3,968.63,1675.6,968.63z"></path>
				<path style="fill:none;stroke:#000000;stroke-linecap:round;stroke-linejoin:round;stroke-miterlimit:10;" d="M1675.6,968.63
					h100.24c1.3,0,2.36,1.05,2.36,2.36v25.5c0,1.3-1.05,2.36-2.36,2.36H1675.6c-1.3,0-2.36-1.05-2.36-2.36v-25.5
					C1673.24,969.68,1674.3,968.63,1675.6,968.63z"></path>
				<path style="fill:none;stroke:#000000;stroke-linecap:round;stroke-linejoin:round;stroke-miterlimit:10;" d="M1670.88,968.63
					h-97.28c-1.3,0-2.36-1.05-2.36-2.36v-70.16c0-1.3,1.05-2.36,2.36-2.36h97.28c1.3,0,2.36,1.05,2.36,2.36v70.16
					C1673.24,967.57,1672.19,968.63,1670.88,968.63z"></path>
				<path style="fill:none;stroke:#000000;stroke-linecap:round;stroke-linejoin:round;stroke-miterlimit:10;" d="M1670.88,968.63
					h-97.28c-1.3,0-2.36,1.05-2.36,2.36v25.5c0,1.3,1.05,2.36,2.36,2.36h97.28c1.3,0,2.36-1.05,2.36-2.36v-25.5
					C1673.24,969.68,1672.19,968.63,1670.88,968.63z"></path>
			</g>
		</g>
		<g>
			<path style="fill:none;stroke:#000000;stroke-linecap:round;stroke-linejoin:round;stroke-miterlimit:10;" d="M1594.14,918.58
				L1594.14,918.58c-1.91,9.07-5.24,17.77-9.87,25.79l0,0.01c-1.2,2.09-0.02,4.75,2.34,5.25l0.01,0c9.06,1.91,17.76,5.24,25.78,9.86
				l0.01,0c2.09,1.2,4.75,0.02,5.25-2.34l0-0.01c0.9-4.27,2.14-8.45,3.66-12.53c-5.19-0.23-10.41-0.06-15.59,0.54l-3.06,0.35
				c-1.37,0.16-2.49-1.06-2.22-2.41l0.61-3.02c1.31-6.48,1.59-13.13,0.84-19.7l-0.35-3c-0.72-0.39-1.46-0.73-2.17-1.14l-0.01,0
				C1597.3,915.03,1594.64,916.22,1594.14,918.58z"></path>
			<path style="fill:none;stroke:#000000;stroke-linecap:round;stroke-linejoin:round;stroke-miterlimit:10;" d="M1640.68,916.66
				l-3.06,0.35c-10.22,1.18-20.55,0.74-30.63-1.3l-3.02-0.61c-1.35-0.27-2.57,0.85-2.41,2.22l0.35,3.06
				c0.76,6.57,0.48,13.22-0.84,19.7l-0.61,3.02c-0.27,1.35,0.85,2.57,2.22,2.41l3.06-0.35c10.22-1.18,20.55-0.74,30.63,1.3
				l3.02,0.61c1.35,0.27,2.57-0.85,2.41-2.22l-0.35-3.06c-0.76-6.57-0.48-13.22,0.84-19.7l0.61-3.02
				C1643.17,917.72,1642.04,916.5,1640.68,916.66z"></path>
		</g>
		<g>
			<path style="fill:none;stroke:#000000;stroke-linecap:round;stroke-linejoin:round;stroke-miterlimit:10;" d="M1758.04,916
				L1758.04,916c1.91,9.07,5.24,17.77,9.87,25.79l0,0.01c1.2,2.09,0.02,4.75-2.34,5.25l-0.01,0c-9.06,1.91-17.76,5.24-25.78,9.86
				l-0.01,0c-2.09,1.2-4.75,0.02-5.25-2.34l0-0.01c-0.9-4.27-2.14-8.45-3.66-12.53c5.19-0.23,10.41-0.06,15.59,0.54l3.06,0.35
				c1.37,0.16,2.49-1.06,2.22-2.41l-0.61-3.02c-1.31-6.48-1.59-13.13-0.84-19.7l0.35-2.99c0.72-0.39,1.46-0.73,2.17-1.14l0.01,0
				C1754.89,912.45,1757.54,913.64,1758.04,916z"></path>
			<path style="fill:none;stroke:#000000;stroke-linecap:round;stroke-linejoin:round;stroke-miterlimit:10;" d="M1711.51,914.08
				l3.06,0.35c10.22,1.18,20.55,0.74,30.63-1.3l3.02-0.61c1.35-0.27,2.57,0.85,2.41,2.22l-0.35,3.06
				c-0.76,6.57-0.48,13.22,0.84,19.7l0.61,3.02c0.27,1.35-0.85,2.57-2.22,2.41l-3.06-0.35c-10.22-1.18-20.55-0.74-30.63,1.3
				l-3.02,0.61c-1.35,0.27-2.57-0.85-2.41-2.22l0.35-3.06c0.76-6.57,0.48-13.22-0.84-19.7l-0.61-3.02
				C1709.02,915.14,1710.14,913.92,1711.51,914.08z"></path>
		</g>
	</g>
	<g>
		<path style="fill:none;stroke:#000000;stroke-linecap:round;stroke-linejoin:round;stroke-miterlimit:10;" d="M1723.31,810.8
			c0,5.58,0,25.17,0,30.76c0,5.71-4.92,8.63-11.02,9.58c-24.91,3.47-50.22,3.47-75.12,0c-6.11-0.95-11.02-3.87-11.02-9.58
			c0-5.58,0-25.17,0-30.76c0-5.71,4.92-8.63,11.02-9.58c24.91-3.47,50.22-3.47,75.12,0C1718.39,802.17,1723.31,805.09,1723.31,810.8
			z"></path>
		<g>
			<polygon style="fill:none;stroke:#000000;stroke-linecap:round;stroke-linejoin:round;stroke-miterlimit:10;" points="
				1677.07,836.03 1674.76,837.28 1665.31,819.83 1668.21,818.25 1665.62,816.67 1657.93,829.29 1674.89,839.61 			"></polygon>
			
				<line style="fill:none;stroke:#000000;stroke-linecap:round;stroke-linejoin:round;stroke-miterlimit:10;" x1="1678.31" y1="835.36" x2="1681.88" y2="838.61"></line>
			
				<line style="fill:none;stroke:#000000;stroke-linecap:round;stroke-linejoin:round;stroke-miterlimit:10;" x1="1658.53" y1="828.31" x2="1675.49" y2="838.63"></line>
			<g>
				<polygon style="fill:none;stroke:#000000;stroke-linecap:round;stroke-linejoin:round;stroke-miterlimit:10;" points="
					1687.75,830.24 1677.23,835.94 1681.1,839.46 1691.04,828.53 1682.73,820.98 				"></polygon>
				<polygon style="fill:none;stroke:#000000;stroke-linecap:round;stroke-linejoin:round;stroke-miterlimit:10;" points="
					1667.85,824.53 1666.41,826.11 1670.94,830.22 				"></polygon>
			</g>
			
				<rect x="1666.6" y="817.65" transform="matrix(0.4763 0.8793 -0.8793 0.4763 1603.4086 -1042.0714)" style="fill:none;stroke:#000000;stroke-linecap:round;stroke-linejoin:round;stroke-miterlimit:10;" width="19.85" height="14.77"></rect>
			
				<line style="fill:none;stroke:#000000;stroke-linecap:round;stroke-linejoin:round;stroke-miterlimit:10;" x1="1666.32" y1="819.28" x2="1675.78" y2="836.73"></line>
		</g>
	</g>
	<g>
		<g>
			
				<rect x="1582.47" y="953.44" transform="matrix(2.604641e-05 -1 1 2.604641e-05 566.7065 2605.7725)" style="fill:none;stroke:#000000;stroke-linecap:round;stroke-linejoin:round;stroke-miterlimit:10;" width="7.61" height="132.18"></rect>
			<polygon style="fill:none;stroke:#000000;stroke-linecap:round;stroke-linejoin:round;stroke-miterlimit:10;" points="
				1638.61,1008.11 1652.36,1015.72 1520.18,1015.72 1533.93,1008.11 			"></polygon>
		</g>
	</g>
	
		<rect x="1501.4" y="1006.94" style="fill:none;stroke:#000000;stroke-linecap:round;stroke-linejoin:round;stroke-miterlimit:10;" width="173.06" height="23"></rect>
	<g>
		<g>
			
				<rect x="1671.58" y="569.91" transform="matrix(2.604641e-05 -1 1 2.604641e-05 1039.3378 2311.3699)" style="fill:none;stroke:#000000;stroke-linecap:round;stroke-linejoin:round;stroke-miterlimit:10;" width="7.61" height="132.18"></rect>
			<polygon style="fill:none;stroke:#000000;stroke-linecap:round;stroke-linejoin:round;stroke-miterlimit:10;" points="
				1727.72,624.59 1741.47,632.2 1609.29,632.2 1623.04,624.58 			"></polygon>
		</g>
	</g>
	
		<rect x="1590.51" y="623.42" style="fill:none;stroke:#000000;stroke-linecap:round;stroke-linejoin:round;stroke-miterlimit:10;" width="173.06" height="23"></rect>
	
		<rect x="991.74" y="748.19" transform="matrix(-1.836970e-16 1 -1 -1.836970e-16 1934.5509 -368.1725)" style="fill:none;stroke:#000000;stroke-linecap:round;stroke-linejoin:round;stroke-miterlimit:10;" width="319.25" height="70.01"></rect>
	<g>
		<g>
			<g>
				<path style="fill:none;stroke:#000000;stroke-linecap:round;stroke-linejoin:round;stroke-miterlimit:10;" d="M1777.67,1133.77
					c0,7.01-10.55,12.8-23.56,12.8c-13.01,0-23.56-5.86-23.56-12.8v-37.5c0-2.95,2.39-5.34,5.34-5.34h36.45
					c2.95,0,5.34,2.39,5.34,5.34V1133.77z"></path>
				<path style="fill:none;stroke:#000000;stroke-linecap:round;stroke-linejoin:round;stroke-miterlimit:10;" d="M1786.23,1133.77
					c0,11.69-14.38,21.35-32.13,21.35c-17.74,0-32.13-9.78-32.13-21.35v-28.92c0-4.73,3.84-8.57,8.57-8.57l0,0v37.48
					c0,6.94,10.55,12.8,23.56,12.8c13.01,0,23.56-5.79,23.56-12.8v-37.48h0c4.73,0,8.57,3.84,8.57,8.57V1133.77z"></path>
			</g>
			
				<rect x="1690.68" y="1007.39" transform="matrix(-1 -2.437305e-10 2.437305e-10 -1 3514.645 2086.8918)" style="fill:none;stroke:#000000;stroke-linecap:round;stroke-linejoin:round;stroke-miterlimit:10;" width="133.29" height="72.1"></rect>
		</g>
		<g>
			
				<rect x="1702.67" y="1037.75" transform="matrix(-0.7 0.7142 -0.7142 -0.7 3660.7344 562.1226)" style="fill:none;stroke:#000000;stroke-linecap:round;stroke-linejoin:round;stroke-miterlimit:10;" width="19.23" height="24.59"></rect>
			
				<line style="fill:none;stroke:#000000;stroke-linecap:round;stroke-linejoin:round;stroke-miterlimit:10;" x1="1713.77" y1="1035.98" x2="1711.61" y2="1038.19"></line>
			
				<line style="fill:none;stroke:#000000;stroke-linecap:round;stroke-linejoin:round;stroke-miterlimit:10;" x1="1716.28" y1="1038.44" x2="1714.12" y2="1040.65"></line>
			
				<line style="fill:none;stroke:#000000;stroke-linecap:round;stroke-linejoin:round;stroke-miterlimit:10;" x1="1721.3" y1="1043.36" x2="1719.13" y2="1045.56"></line>
			
				<line style="fill:none;stroke:#000000;stroke-linecap:round;stroke-linejoin:round;stroke-miterlimit:10;" x1="1718.79" y1="1040.9" x2="1716.62" y2="1043.11"></line>
			
				<line style="fill:none;stroke:#000000;stroke-linecap:round;stroke-linejoin:round;stroke-miterlimit:10;" x1="1723.8" y1="1045.82" x2="1721.64" y2="1048.02"></line>
			
				<line style="fill:none;stroke:#000000;stroke-linecap:round;stroke-linejoin:round;stroke-miterlimit:10;" x1="1726.31" y1="1048.28" x2="1724.15" y2="1050.48"></line>
			
				<rect x="1705.47" y="1045.09" transform="matrix(-0.7 0.7142 -0.7142 -0.7 3653.9214 559.4203)" style="fill:none;stroke:#000000;stroke-linecap:round;stroke-linejoin:round;stroke-miterlimit:10;" width="7.95" height="4.34"></rect>
		</g>
		<g>
			<path style="fill:none;stroke:#000000;stroke-linecap:round;stroke-linejoin:round;stroke-miterlimit:10;" d="M1736.51,1066.26
				l45.17,0c0.64,0,1.16-0.52,1.16-1.16l0-30.1c0-0.64-0.52-1.16-1.16-1.16h-45.17c-0.64,0-1.16,0.52-1.16,1.16v30.1
				C1735.34,1065.73,1735.86,1066.26,1736.51,1066.26z"></path>
			
				<rect x="1740.8" y="1037.1" transform="matrix(-1 5.759833e-07 -5.759833e-07 -1 3518.1836 2089.9685)" style="fill:none;stroke:#000000;stroke-linecap:round;stroke-linejoin:round;stroke-miterlimit:10;" width="36.57" height="15.78"></rect>
			
				<rect x="1751.73" y="1055.36" transform="matrix(-1 5.759833e-07 -5.759833e-07 -1 3518.1836 2119.6357)" style="fill:none;stroke:#000000;stroke-linecap:round;stroke-linejoin:round;stroke-miterlimit:10;" width="14.73" height="8.91"></rect>
			<path style="fill:none;stroke:#000000;stroke-linecap:round;stroke-linejoin:round;stroke-miterlimit:10;" d="M1735.34,1033.83
				h47.5l5.27-10.09c0.74-1.41-0.29-3.1-1.88-3.1l-54.29,0c-1.59,0-2.61,1.69-1.88,3.1L1735.34,1033.83z"></path>
		</g>
	</g>
	<g>
		<g>
			<path style="fill:none;stroke:#000000;stroke-linecap:round;stroke-linejoin:round;stroke-miterlimit:10;" d="M1823.96,674.53
				c0.47,0.16,0.95,0.32,1.42,0.46c-0.35,0.51-0.75,0.98-1.18,1.44c-0.33-0.34-0.68-0.67-1.02-1
				C1823.45,675.14,1823.73,674.85,1823.96,674.53z"></path>
			<path style="fill:none;stroke:#000000;stroke-linecap:round;stroke-linejoin:round;stroke-miterlimit:10;" d="M1811.84,679.18
				c0.41,0.07,0.83,0.09,1.25,0.13c0.03,0.45,0.07,0.9,0.13,1.35c-0.66-0.04-1.31-0.1-1.95-0.23
				C1811.47,680.02,1811.65,679.6,1811.84,679.18z"></path>
			<path style="fill:none;stroke:#000000;stroke-linecap:round;stroke-linejoin:round;stroke-miterlimit:10;" d="M1806.13,676.5
				c0.26,0.22,0.55,0.42,0.83,0.62c-0.25,0.38-0.5,0.77-0.73,1.16c-0.47-0.32-0.93-0.64-1.35-1.01
				C1805.31,677.02,1805.72,676.76,1806.13,676.5z"></path>
			<path style="fill:none;stroke:#000000;stroke-linecap:round;stroke-linejoin:round;stroke-miterlimit:10;" d="M1803.1,672.35
				c-0.44,0.21-0.86,0.43-1.28,0.66c-0.63-1.48-0.93-3-0.92-4.5c0.49,0.14,0.98,0.29,1.48,0.4
				C1802.41,670.06,1802.64,671.21,1803.1,672.35z"></path>
			<path style="fill:none;stroke:#000000;stroke-linecap:round;stroke-linejoin:round;stroke-miterlimit:10;" d="M1803.57,663.93
				c-0.47-0.14-0.94-0.26-1.41-0.39c0.37-0.74,0.83-1.43,1.36-2.09c0.31,0.35,0.61,0.7,0.94,1.04
				C1804.11,662.95,1803.83,663.43,1803.57,663.93z"></path>
			<path style="fill:none;stroke:#000000;stroke-linecap:round;stroke-linejoin:round;stroke-miterlimit:10;" d="M1818.42,678.64
				c0.05-0.02,0.09-0.02,0.14-0.04c0.14-0.05,0.25-0.13,0.38-0.18c0.28,0.38,0.57,0.74,0.87,1.11c-0.23,0.1-0.42,0.23-0.66,0.32
				c-0.15,0.05-0.3,0.07-0.45,0.12C1818.62,679.52,1818.53,679.08,1818.42,678.64z"></path>
			<path style="fill:none;stroke:#000000;stroke-linecap:round;stroke-linejoin:round;stroke-miterlimit:10;" d="M1810.15,658.53
				c-0.15,0.05-0.31,0.07-0.46,0.12c-0.38,0.14-0.7,0.34-1.05,0.51c-0.3-0.36-0.62-0.71-0.93-1.05c0.48-0.25,0.94-0.51,1.46-0.71
				c0.28-0.1,0.56-0.14,0.84-0.22C1810.04,657.63,1810.08,658.08,1810.15,658.53z"></path>
			<path style="fill:none;stroke:#000000;stroke-linecap:round;stroke-linejoin:round;stroke-miterlimit:10;" d="M1827.25,670.19
				c-0.49-0.13-0.97-0.25-1.46-0.36c0.14-1.13,0.12-2.29-0.15-3.44c0.46-0.22,0.89-0.47,1.34-0.71
				C1827.38,667.2,1827.46,668.71,1827.25,670.19z"></path>
			<path style="fill:none;stroke:#000000;stroke-linecap:round;stroke-linejoin:round;stroke-miterlimit:10;" d="M1817.33,658.31
				c-0.54-0.14-1.09-0.24-1.65-0.31c-0.04-0.46-0.1-0.92-0.17-1.37c0.85,0.08,1.67,0.23,2.48,0.46
				C1817.77,657.49,1817.54,657.89,1817.33,658.31z"></path>
			<path style="fill:none;stroke:#000000;stroke-linecap:round;stroke-linejoin:round;stroke-miterlimit:10;" d="M1823.2,661.84
				c-0.33-0.37-0.66-0.73-1.04-1.05c0.24-0.41,0.47-0.83,0.69-1.25c0.59,0.47,1.13,1,1.63,1.57
				C1824.05,661.35,1823.62,661.58,1823.2,661.84z"></path>
		</g>
		<path style="fill:none;stroke:#000000;stroke-linecap:round;stroke-linejoin:round;stroke-miterlimit:10;" d="M1814.44,669.54
			c0.78,2.69,2.06,5.32,3.7,7.76c1.4,4.89,1.43,10.16-0.3,14.82c-3.59-4.56-5.09-10.43-4.83-16.15c0.61-2.09,0.98-4.22,1.03-6.32
			c0.05-0.18,0.08-0.37,0.14-0.55c0.1,0.14,0.19,0.3,0.29,0.45C1814.46,669.55,1814.45,669.55,1814.44,669.54z"></path>
		<path style="fill:none;stroke:#000000;stroke-linecap:round;stroke-linejoin:round;stroke-miterlimit:10;" d="M1802.92,690.3
			c-0.22-7.93,4.53-15.91,11.15-20.91C1813.94,677.17,1809.81,685.54,1802.92,690.3z M1830.57,687.54
			c-1.85-7.71-8.44-14.64-16.13-18C1816.65,677.12,1822.6,684.41,1830.57,687.54z"></path>
		<path style="fill:none;stroke:#000000;stroke-linecap:round;stroke-linejoin:round;stroke-miterlimit:10;" d="M1814.65,669.3
			c-0.05,0.04-0.1,0.09-0.15,0.13c0.01-0.37,0.06-0.75,0.09-1.13c0.59-1.92,0.97-3.91,1.12-5.95c1.69-5.42,5.12-10.52,9.94-13.84
			c0.16,5.49-2.11,10.99-5.7,15.53C1817.91,665.61,1816.11,667.38,1814.65,669.3z"></path>
		<path style="fill:none;stroke:#000000;stroke-linecap:round;stroke-linejoin:round;stroke-miterlimit:10;" d="M1814.05,669.09
			c0.02,0.06,0.05,0.12,0.07,0.18c-7.69-3.36-14.28-10.29-16.13-18c5.53,2.17,10.04,6.35,13.05,11.23
			C1811.75,664.84,1812.75,667.07,1814.05,669.09z"></path>
		<path style="fill:none;stroke:#000000;stroke-linecap:round;stroke-linejoin:round;stroke-miterlimit:10;" d="M1813.85,669.14
			c0.16,0.12,0.34,0.23,0.49,0.35c-8.42,1.17-18.14-1.17-24.41-6.59c6.04-1.07,12.5,0.14,18.07,2.75
			C1809.83,667.02,1811.79,668.21,1813.85,669.14z"></path>
		<g>
			<path style="fill:none;stroke:#000000;stroke-linecap:round;stroke-linejoin:round;stroke-miterlimit:10;" d="M1810.76,669.76
				c1.06-0.02,2.11-0.1,3.14-0.23c-1.96,1.51-3.73,3.29-5.27,5.24c-4.61,3.57-10.4,6.03-16.29,6.41
				C1796.28,675.33,1803.38,671.31,1810.76,669.76z"></path>
			<path style="fill:none;stroke:#000000;stroke-linecap:round;stroke-linejoin:round;stroke-miterlimit:10;" d="M1813.99,669.24
				c0.06-0.01,0.12-0.02,0.17-0.03c-0.02,0.03-0.05,0.06-0.08,0.09C1814.05,669.28,1814.02,669.26,1813.99,669.24z"></path>
		</g>
		<path style="fill:none;stroke:#000000;stroke-linecap:round;stroke-linejoin:round;stroke-miterlimit:10;" d="M1814.4,669.6
			c4.75-6.46,13.21-11.42,21.83-11.97C1831.68,664.39,1822.93,668.71,1814.4,669.6z M1836.22,657.63
			c-4.54,6.75-13.3,11.07-21.83,11.97 M1811.48,646.31c-3.05,7.38-1.67,16.48,2.77,23.12
			C1816.93,661.97,1816.29,652.9,1811.48,646.31z"></path>
		<g>
			<path style="fill:none;stroke:#000000;stroke-linecap:round;stroke-linejoin:round;stroke-miterlimit:10;" d="M1814.47,669.51
				c-0.07-0.05-0.14-0.1-0.21-0.15c0.01-0.01,0.01-0.03,0.01-0.04c0.12-0.02,0.25-0.02,0.38-0.03
				C1814.6,669.36,1814.53,669.43,1814.47,669.51z"></path>
			<path style="fill:none;stroke:#000000;stroke-linecap:round;stroke-linejoin:round;stroke-miterlimit:10;" d="M1817.8,669.06
				c7.48-0.17,15.43,2.2,20.83,6.86c-6.04,1.07-12.5-0.14-18.07-2.75c-1.82-1.38-3.79-2.57-5.85-3.5c-0.05-0.03-0.09-0.07-0.14-0.1
				C1815.65,669.46,1816.73,669.28,1817.8,669.06z"></path>
		</g>
	</g>
	<g>
		<path style="fill:none;stroke:#000000;stroke-linecap:round;stroke-linejoin:round;stroke-miterlimit:10;" d="M192.02,1316.68
			c1.01-0.8,1.95-1.68,2.8-2.63"></path>
		<path style="fill:none;stroke:#000000;stroke-linecap:round;stroke-linejoin:round;stroke-miterlimit:10;" d="M158.54,1308.96
			c1.95,4.02,5.04,7.29,8.8,9.47"></path>
		<path style="fill:none;stroke:#000000;stroke-linecap:round;stroke-linejoin:round;stroke-miterlimit:10;" d="M158.79,1289.2
			c-1.27,2.46-2.09,5.17-2.37,8"></path>
		<path style="fill:none;stroke:#000000;stroke-linecap:round;stroke-linejoin:round;stroke-miterlimit:10;" d="M171.01,1278.53
			c-0.9,0.32-1.77,0.69-2.61,1.12"></path>
		<path style="fill:none;stroke:#000000;stroke-linecap:round;stroke-linejoin:round;stroke-miterlimit:10;" d="M183.4,1277.83
			c-1.13-0.26-2.28-0.44-3.46-0.52"></path>
		<path style="fill:none;stroke:#000000;stroke-linecap:round;stroke-linejoin:round;stroke-miterlimit:10;" d="M199.14,1291.75
			c-0.83-2.28-2.02-4.37-3.48-6.2"></path>
		<path style="fill:none;stroke:#000000;stroke-linecap:round;stroke-linejoin:round;stroke-miterlimit:10;" d="M199.55,1305.62
			c0.43-1.44,0.72-2.92,0.85-4.44"></path>
		<path style="fill:none;stroke:#000000;stroke-linecap:round;stroke-linejoin:round;stroke-miterlimit:10;" d="M193.01,1310.28
			c0.87,3.15,3.18,6.32,6.63,8.58c4.77,3.11,10.28,3.57,13.91,1.52c0.42-4.14-2.22-9-6.99-12.12c-4.28-2.79-9.15-3.45-12.72-2.07
			c-0.12,0.05-0.22,0.12-0.32,0.19"></path>
		<path style="fill:none;stroke:#000000;stroke-linecap:round;stroke-linejoin:round;stroke-miterlimit:10;" d="M197.74,1302.66
			c-0.17,0.99-0.41,1.95-0.73,2.89"></path>
		<path style="fill:none;stroke:#000000;stroke-linecap:round;stroke-linejoin:round;stroke-miterlimit:10;" d="M193.26,1286.52
			c1.53,1.77,2.75,3.83,3.58,6.11"></path>
		<path style="fill:none;stroke:#000000;stroke-linecap:round;stroke-linejoin:round;stroke-miterlimit:10;" d="M178.43,1279.71
			c0.87,0,1.72,0.06,2.57,0.17"></path>
		<path style="fill:none;stroke:#000000;stroke-linecap:round;stroke-linejoin:round;stroke-miterlimit:10;" d="M170.11,1281.55
			c0.72-0.34,1.47-0.63,2.25-0.88"></path>
		<path style="fill:none;stroke:#000000;stroke-linecap:round;stroke-linejoin:round;stroke-miterlimit:10;" d="M158.95,1296.74
			c0.34-2.55,1.18-4.98,2.43-7.16"></path>
		<path style="fill:none;stroke:#000000;stroke-linecap:round;stroke-linejoin:round;stroke-miterlimit:10;" d="M167.71,1315.78
			c-2.48-1.61-4.6-3.79-6.15-6.38"></path>
		<path style="fill:none;stroke:#000000;stroke-linecap:round;stroke-linejoin:round;stroke-miterlimit:10;" d="M193.48,1311.88
			c-0.58,0.7-1.21,1.35-1.88,1.97"></path>
		<path style="fill:none;stroke:#000000;stroke-linecap:round;stroke-linejoin:round;stroke-miterlimit:10;" d="M177.14,1305.67
			c-0.56-0.59-1.45-0.76-2.19-0.41c-3.46,1.63-6.36,5.6-7.3,10.62c-1.05,5.6,0.64,10.87,3.92,13.43c3.99-1.2,7.47-5.49,8.52-11.09
			C181.04,1313.2,179.78,1308.45,177.14,1305.67z"></path>
		<path style="fill:none;stroke:#000000;stroke-linecap:round;stroke-linejoin:round;stroke-miterlimit:10;" d="M175.92,1287.74
			c-0.33-0.21-0.77-0.19-1.07,0.05c-1.44,1.16-2.35,3.35-2.23,5.81c0.14,2.75,1.53,5.03,3.36,5.86c1.74-1.01,2.89-3.42,2.75-6.17
			C178.6,1290.83,177.47,1288.74,175.92,1287.74z"></path>
		
			<line style="fill:none;stroke:#000000;stroke-linecap:round;stroke-linejoin:round;stroke-miterlimit:10;" x1="175.37" y1="1285.82" x2="175.98" y2="1299.47"></line>
		<path style="fill:none;stroke:#000000;stroke-linecap:round;stroke-linejoin:round;stroke-miterlimit:10;" d="M171.47,1286.15
			c0.57-0.55,0.71-1.41,0.37-2.12c-1.62-3.32-5.5-6.06-10.36-6.9c-5.42-0.94-10.48,0.77-12.91,3.98c1.21,3.84,5.41,7.14,10.83,8.07
			C164.25,1290.02,168.82,1288.74,171.47,1286.15z"></path>
		
			<line style="fill:none;stroke:#000000;stroke-linecap:round;stroke-linejoin:round;stroke-miterlimit:10;" x1="175.46" y1="1285.92" x2="148.56" y2="1281.11"></line>
		<path style="fill:none;stroke:#000000;stroke-linecap:round;stroke-linejoin:round;stroke-miterlimit:10;" d="M174.22,1281.95
			c0.69,0.44,1.59,0.39,2.23-0.12c2.97-2.41,4.83-6.96,4.55-12.06c-0.32-5.69-3.21-10.4-7.02-12.1c-3.59,2.12-5.94,7.12-5.62,12.81
			C168.64,1275.57,171,1279.88,174.22,1281.95z"></path>
		
			<line style="fill:none;stroke:#000000;stroke-linecap:round;stroke-linejoin:round;stroke-miterlimit:10;" x1="175.38" y1="1285.92" x2="173.98" y2="1257.66"></line>
		
			<line style="fill:none;stroke:#000000;stroke-linecap:round;stroke-linejoin:round;stroke-miterlimit:10;" x1="175.38" y1="1285.92" x2="202.2" y2="1276.91"></line>
		<path style="fill:none;stroke:#000000;stroke-linecap:round;stroke-linejoin:round;stroke-miterlimit:10;" d="M191.48,1302.49
			c0.08,0.55,0.5,1,1.05,1.1c2.57,0.47,5.75-0.6,8.27-3.01c2.8-2.7,3.95-6.29,3.14-9.02c-2.69-0.92-6.33,0.09-9.13,2.79
			C192.3,1296.76,191.12,1299.9,191.48,1302.49z"></path>
		
			<line style="fill:none;stroke:#000000;stroke-linecap:round;stroke-linejoin:round;stroke-miterlimit:10;" x1="191.17" y1="1303.85" x2="203.94" y2="1291.56"></line>
		
			<line style="fill:none;stroke:#000000;stroke-linecap:round;stroke-linejoin:round;stroke-miterlimit:10;" x1="193.99" y1="1307.38" x2="213.55" y2="1320.37"></line>
		
			<line style="fill:none;stroke:#000000;stroke-linecap:round;stroke-linejoin:round;stroke-miterlimit:10;" x1="187.88" y1="1310.73" x2="181.32" y2="1331.71"></line>
		<path style="fill:none;stroke:#000000;stroke-linecap:round;stroke-linejoin:round;stroke-miterlimit:10;" d="M186.43,1287.88
			c1.02-0.27,2.02-0.33,2.96-0.19c1.02-0.16,2.04-0.39,3.07-0.74c5.39-1.85,9.14-5.91,9.75-10.03c-3.01-2.88-8.46-3.79-13.85-1.94
			c-4.83,1.66-8.34,5.09-9.46,8.75c-0.24,0.78,0.05,1.64,0.72,2.11C181.42,1287.11,183.81,1287.81,186.43,1287.88z"></path>
		
			<line style="fill:none;stroke:#000000;stroke-linecap:round;stroke-linejoin:round;stroke-miterlimit:10;" x1="177.02" y1="1301.74" x2="190.09" y2="1287.82"></line>
		
			<line style="fill:none;stroke:#000000;stroke-linecap:round;stroke-linejoin:round;stroke-miterlimit:10;" x1="176.87" y1="1301.57" x2="194.52" y2="1309.41"></line>
		<path style="fill:none;stroke:#000000;stroke-linecap:round;stroke-linejoin:round;stroke-miterlimit:10;" d="M180.1,1318.22
			c-0.36,1.92-1.02,3.67-1.87,5.21c0.06,3.36,1.16,6.36,3.1,8.28c4.1-0.72,8.07-4.57,9.77-10.01c1.23-3.94,1-7.85-0.33-10.83
			c-1.79,0.22-3.81-0.05-5.78-0.91c-0.13-0.06-0.23-0.14-0.35-0.2c-1.65,1.2-3.11,2.93-4.24,5
			C180.41,1315.88,180.32,1317.04,180.1,1318.22z"></path>
		
			<line style="fill:none;stroke:#000000;stroke-linecap:round;stroke-linejoin:round;stroke-miterlimit:10;" x1="176.96" y1="1301.54" x2="171.58" y2="1329.31"></line>
		<path style="fill:none;stroke:#000000;stroke-linecap:round;stroke-linejoin:round;stroke-miterlimit:10;" d="M173.03,1302.83
			c0.42-0.7,0.34-1.6-0.2-2.22c-2.51-2.89-7.12-4.6-12.2-4.15c-5.68,0.51-10.29,3.56-11.86,7.41c2.23,3.52,7.31,5.7,12.99,5.19
			C166.84,1308.62,171.07,1306.12,173.03,1302.83z"></path>
		
			<line style="fill:none;stroke:#000000;stroke-linecap:round;stroke-linejoin:round;stroke-miterlimit:10;" x1="176.96" y1="1301.54" x2="148.76" y2="1303.88"></line>
		<path style="fill:none;stroke:#000000;stroke-linecap:round;stroke-linejoin:round;stroke-miterlimit:10;" d="M179.65,1302.08
			c-0.48,0.28-0.73,0.85-0.61,1.39c0.55,2.55,2.75,5.09,5.95,6.48c3.56,1.56,7.32,1.24,9.53-0.55c-0.19-2.84-2.51-5.81-6.07-7.37
			C185.25,1300.64,181.9,1300.75,179.65,1302.08z"></path>
		<path style="fill:none;stroke:#000000;stroke-linecap:round;stroke-linejoin:round;stroke-miterlimit:10;" d="M178.41,1299.31
			c0.11,0.54,0.55,0.96,1.1,1.02c2.56,0.31,5.65-0.91,7.99-3.44c2.61-2.82,3.54-6.43,2.59-9.08c-2.71-0.75-6.24,0.45-8.86,3.27
			C178.89,1293.61,177.9,1296.78,178.41,1299.31z"></path>
	</g>
	<g>
		<g>
			<path style="fill:none;stroke:#000000;stroke-linecap:round;stroke-linejoin:round;stroke-miterlimit:10;" d="M1490.26,1306.78
				l-3.86-16.43l7.03-1.65c0.95,4.06,5.02,6.57,9.07,5.62c4.06-0.95,6.57-5.02,5.62-9.07l6.39-1.5l3.86,16.43L1490.26,1306.78z"></path>
			
				<rect x="1500.37" y="1266.12" transform="matrix(0.9092 0.4163 -0.4163 0.9092 667.9097 -510.6701)" style="fill:none;stroke:#000000;stroke-linecap:round;stroke-linejoin:round;stroke-miterlimit:10;" width="9.29" height="20.35"></rect>
			<g>
				
					<rect x="1523.06" y="1293.01" transform="matrix(0.914 -0.4058 0.4058 0.914 -396.2299 733.2274)" style="fill:none;stroke:#000000;stroke-linecap:round;stroke-linejoin:round;stroke-miterlimit:10;" width="16.17" height="16.17"></rect>
				
					<line style="fill:none;stroke:#000000;stroke-linecap:round;stroke-linejoin:round;stroke-miterlimit:10;" x1="1527.04" y1="1311.76" x2="1535.26" y2="1290.42"></line>
				
					<line style="fill:none;stroke:#000000;stroke-linecap:round;stroke-linejoin:round;stroke-miterlimit:10;" x1="1541.82" y1="1305.2" x2="1520.48" y2="1296.98"></line>
			</g>
			<path style="fill:none;stroke:#000000;stroke-linecap:round;stroke-linejoin:round;stroke-miterlimit:10;" d="M1486.03,1281.75
				l-9.88,9.69c0.62,0.46,0.88,1.29,0.55,2.02c-0.39,0.84-1.38,1.21-2.22,0.83c-0.84-0.39-1.21-1.38-0.83-2.22
				c0.34-0.73,1.13-1.07,1.89-0.9l0.88-13.82L1486.03,1281.75z"></path>
			<path style="fill:none;stroke:#000000;stroke-linecap:round;stroke-linejoin:round;stroke-miterlimit:10;" d="M1532.43,1265.24
				l-1.86,13.72c0.78-0.02,1.49,0.47,1.67,1.26c0.21,0.9-0.35,1.8-1.25,2.01s-1.8-0.35-2.01-1.25c-0.18-0.78,0.23-1.54,0.94-1.87
				l-7.78-11.45L1532.43,1265.24z"></path>
			
				<circle style="fill:none;stroke:#000000;stroke-linecap:round;stroke-linejoin:round;stroke-miterlimit:10;" cx="1505.02" cy="1254.95" r="4.89"></circle>
		</g>
		<polygon style="fill:none;stroke:#000000;stroke-linecap:round;stroke-linejoin:round;stroke-miterlimit:10;" points="
			1494.42,1278.96 1484.84,1277.94 1480.94,1269.14 1486.6,1261.36 1496.18,1262.37 1500.08,1271.17 		"></polygon>
	</g>
	<g>
		<g>
			<path style="fill:none;stroke:#000000;stroke-linecap:round;stroke-linejoin:round;stroke-miterlimit:10;" d="M1440.96,715.46
				l16.8,1.92c10.51,1.2,18.46,10.33,18.46,21.19v1.23c0,10.85-7.94,19.97-18.44,21.19l-16.82,1.94L1440.96,715.46z"></path>
			<path style="fill:none;stroke:#000000;stroke-linecap:round;stroke-linejoin:round;stroke-miterlimit:10;" d="M1454.82,767.53
				l3.71-0.43c13.45-1.55,23.61-13.23,23.61-27.13l0-1.58c0-13.91-10.18-25.59-23.64-27.13l-3.68-0.42
				c-1.78-0.2-3.34,1.23-3.34,3.07l0,0c0,1.57,1.15,2.89,2.67,3.07l3.6,0.41c10.51,1.2,18.46,10.33,18.46,21.19v1.23
				c0,10.85-7.94,19.97-18.44,21.19l-3.62,0.42c-1.52,0.18-2.67,1.49-2.66,3.06l0,0C1451.49,766.31,1453.04,767.74,1454.82,767.53z"></path>
		</g>
		<g>
			<path style="fill:none;stroke:#000000;stroke-linecap:round;stroke-linejoin:round;stroke-miterlimit:10;" d="M1440.96,791.79
				l16.8,1.92c10.51,1.2,18.46,10.33,18.46,21.19v1.23c0,10.85-7.94,19.97-18.44,21.19l-16.82,1.94L1440.96,791.79z"></path>
			<path style="fill:none;stroke:#000000;stroke-linecap:round;stroke-linejoin:round;stroke-miterlimit:10;" d="M1454.82,843.86
				l3.71-0.43c13.45-1.55,23.61-13.23,23.61-27.13v-1.58c0-13.91-10.18-25.59-23.64-27.13l-3.68-0.42c-1.78-0.2-3.34,1.23-3.34,3.07
				l0,0c0,1.57,1.15,2.89,2.67,3.07l3.6,0.41c10.51,1.2,18.46,10.33,18.46,21.19v1.23c0,10.85-7.94,19.97-18.44,21.19l-3.62,0.42
				c-1.52,0.18-2.67,1.49-2.67,3.06l0,0C1451.49,842.64,1453.05,844.07,1454.82,843.86z"></path>
		</g>
		<g>
			<path style="fill:none;stroke:#000000;stroke-linecap:round;stroke-linejoin:round;stroke-miterlimit:10;" d="M1354.83,715.47
				l-16.8,1.92c-10.51,1.2-18.46,10.33-18.46,21.19v1.23c0,10.85,7.94,19.97,18.44,21.18l16.82,1.94L1354.83,715.47z"></path>
			<path style="fill:none;stroke:#000000;stroke-linecap:round;stroke-linejoin:round;stroke-miterlimit:10;" d="M1340.96,767.53
				l-3.71-0.43c-13.45-1.55-23.61-13.23-23.61-27.13v-1.58c0-13.91,10.18-25.59,23.64-27.13l3.68-0.42c1.78-0.2,3.34,1.23,3.34,3.07
				l0,0c0,1.57-1.15,2.89-2.67,3.07l-3.6,0.41c-10.51,1.2-18.46,10.33-18.46,21.19v1.23c0,10.85,7.94,19.97,18.44,21.18l3.62,0.42
				c1.52,0.18,2.67,1.49,2.67,3.06l0,0C1344.3,766.31,1342.74,767.74,1340.96,767.53z"></path>
		</g>
		
			<rect x="1310.64" y="734.29" transform="matrix(-2.244336e-05 -1 1 -2.244336e-05 620.5706 2175.2668)" style="fill:none;stroke:#000000;stroke-linecap:round;stroke-linejoin:round;stroke-miterlimit:10;" width="174.5" height="86.13"></rect>
		<g>
			<path style="fill:none;stroke:#000000;stroke-linecap:round;stroke-linejoin:round;stroke-miterlimit:10;" d="M1354.83,791.8
				l-16.8,1.92c-10.51,1.2-18.46,10.33-18.46,21.19v1.23c0,10.85,7.94,19.97,18.44,21.18l16.82,1.94V791.8z"></path>
			<path style="fill:none;stroke:#000000;stroke-linecap:round;stroke-linejoin:round;stroke-miterlimit:10;" d="M1340.96,843.87
				l-3.71-0.43c-13.45-1.55-23.61-13.23-23.61-27.13v-1.58c0-13.91,10.18-25.59,23.64-27.13l3.68-0.42c1.78-0.2,3.34,1.23,3.34,3.07
				l0,0c0,1.57-1.15,2.89-2.67,3.07l-3.6,0.41c-10.51,1.2-18.46,10.33-18.46,21.19v1.23c0,10.85,7.94,19.97,18.44,21.18l3.62,0.42
				c1.52,0.18,2.67,1.49,2.67,3.06l0,0C1344.3,842.64,1342.74,844.07,1340.96,843.87z"></path>
		</g>
		<g>
			<path style="fill:none;stroke:#000000;stroke-linecap:round;stroke-linejoin:round;stroke-miterlimit:10;" d="M1374.17,864.61
				l1.92,16.8c1.2,10.51,10.32,18.46,21.18,18.46l1.23,0c10.85,0,19.97-7.94,21.19-18.44l1.94-16.82L1374.17,864.61z"></path>
			<path style="fill:none;stroke:#000000;stroke-linecap:round;stroke-linejoin:round;stroke-miterlimit:10;" d="M1426.24,878.48
				l-0.43,3.71c-1.55,13.45-13.23,23.61-27.13,23.61l-1.58,0c-13.91,0-25.59-10.18-27.13-23.64l-0.42-3.68
				c-0.2-1.78,1.23-3.34,3.07-3.34l0,0c1.57,0,2.89,1.15,3.07,2.67l0.41,3.6c1.2,10.51,10.32,18.46,21.18,18.46l1.23,0
				c10.85,0,19.97-7.94,21.19-18.44l0.42-3.62c0.18-1.52,1.49-2.66,3.06-2.66l0,0C1425.02,875.14,1426.44,876.7,1426.24,878.48z"></path>
		</g>
		<g>
			<path style="fill:none;stroke:#000000;stroke-linecap:round;stroke-linejoin:round;stroke-miterlimit:10;" d="M1374.37,690.1
				l1.92-16.8c1.2-10.51,10.32-18.46,21.18-18.46l1.23,0c10.85,0,19.97,7.94,21.19,18.44l1.94,16.82L1374.37,690.1z"></path>
			<path style="fill:none;stroke:#000000;stroke-linecap:round;stroke-linejoin:round;stroke-miterlimit:10;" d="M1426.44,676.23
				l-0.43-3.71c-1.55-13.45-13.23-23.61-27.13-23.61l-1.58,0c-13.91,0-25.59,10.18-27.13,23.64l-0.42,3.68
				c-0.2,1.78,1.23,3.34,3.07,3.34l0,0c1.57,0,2.89-1.15,3.07-2.67l0.41-3.6c1.2-10.51,10.32-18.46,21.18-18.46l1.23,0
				c10.85,0,19.97,7.94,21.19,18.44l0.42,3.62c0.18,1.52,1.49,2.66,3.06,2.66h0C1425.21,679.57,1426.64,678.01,1426.44,676.23z"></path>
		</g>
	</g>
	<g>
		<g>
			
				<circle style="fill:none;stroke:#000000;stroke-linecap:round;stroke-linejoin:round;stroke-miterlimit:10;" cx="1372.65" cy="741.82" r="9.85"></circle>
		</g>
		<g>
			
				<circle style="fill:none;stroke:#000000;stroke-linecap:round;stroke-linejoin:round;stroke-miterlimit:10;" cx="1372.65" cy="741.82" r="5.61"></circle>
		</g>
		<g>
			
				<ellipse style="fill:none;stroke:#000000;stroke-linecap:round;stroke-linejoin:round;stroke-miterlimit:10;" cx="1378.55" cy="722.7" rx="2.48" ry="1.53"></ellipse>
			
				<line style="fill:none;stroke:#000000;stroke-linecap:round;stroke-linejoin:round;stroke-miterlimit:10;" x1="1376.07" y1="722.7" x2="1365.22" y2="722.7"></line>
		</g>
		<g>
			<path style="fill:none;stroke:#000000;stroke-linecap:round;stroke-linejoin:round;stroke-miterlimit:10;" d="M1381.03,757.9
				l-2.48,0c-1.37,0-2.48-0.68-2.48-1.53c0-0.84,1.11-1.53,2.48-1.53l2.48,0"></path>
			
				<line style="fill:none;stroke:#000000;stroke-linecap:round;stroke-linejoin:round;stroke-miterlimit:10;" x1="1376.07" y1="756.37" x2="1365.21" y2="756.37"></line>
		</g>
		
			<line style="fill:none;stroke:#000000;stroke-linecap:round;stroke-linejoin:round;stroke-miterlimit:10;" x1="1381.03" y1="756.37" x2="1376.07" y2="756.37"></line>
		<g>
			<path style="fill:none;stroke:#000000;stroke-linecap:round;stroke-linejoin:round;stroke-miterlimit:10;" d="M1371.85,726.46
				l0,2.37l9.18,0l0-0.59c0-0.99-0.8-1.78-1.78-1.79L1371.85,726.46z"></path>
			<path style="fill:none;stroke:#000000;stroke-linecap:round;stroke-linejoin:round;stroke-miterlimit:10;" d="M1365.22,727.36
				l0,0.59c0,0.49,0.4,0.89,0.89,0.89l5.74,0l0-2.37l-5.74,0C1365.62,726.46,1365.22,726.86,1365.22,727.36z"></path>
		</g>
	</g>
	<g>
		<g>
			
				<circle style="fill:none;stroke:#000000;stroke-linecap:round;stroke-linejoin:round;stroke-miterlimit:10;" cx="1372.64" cy="817.45" r="9.85"></circle>
		</g>
		<g>
			
				<circle style="fill:none;stroke:#000000;stroke-linecap:round;stroke-linejoin:round;stroke-miterlimit:10;" cx="1372.64" cy="817.45" r="5.61"></circle>
		</g>
		<g>
			
				<ellipse style="fill:none;stroke:#000000;stroke-linecap:round;stroke-linejoin:round;stroke-miterlimit:10;" cx="1378.54" cy="798.33" rx="2.48" ry="1.53"></ellipse>
			
				<line style="fill:none;stroke:#000000;stroke-linecap:round;stroke-linejoin:round;stroke-miterlimit:10;" x1="1376.06" y1="798.33" x2="1365.21" y2="798.33"></line>
		</g>
		<g>
			<path style="fill:none;stroke:#000000;stroke-linecap:round;stroke-linejoin:round;stroke-miterlimit:10;" d="M1381.02,833.53
				l-2.48,0c-1.37,0-2.48-0.68-2.48-1.53c0-0.84,1.11-1.53,2.48-1.53l2.48,0"></path>
			
				<line style="fill:none;stroke:#000000;stroke-linecap:round;stroke-linejoin:round;stroke-miterlimit:10;" x1="1376.06" y1="832" x2="1365.2" y2="832"></line>
		</g>
		
			<line style="fill:none;stroke:#000000;stroke-linecap:round;stroke-linejoin:round;stroke-miterlimit:10;" x1="1381.02" y1="832" x2="1376.06" y2="832"></line>
		<g>
			<path style="fill:none;stroke:#000000;stroke-linecap:round;stroke-linejoin:round;stroke-miterlimit:10;" d="M1371.84,802.09
				l0,2.37l9.18,0l0-0.59c0-0.99-0.8-1.78-1.78-1.79L1371.84,802.09z"></path>
			<path style="fill:none;stroke:#000000;stroke-linecap:round;stroke-linejoin:round;stroke-miterlimit:10;" d="M1365.21,802.98
				l0,0.59c0,0.49,0.4,0.89,0.89,0.89l5.74,0l0-2.37l-5.74,0C1365.61,802.09,1365.21,802.49,1365.21,802.98z"></path>
		</g>
	</g>
	<g>
		<g>
			
				<circle style="fill:none;stroke:#000000;stroke-linecap:round;stroke-linejoin:round;stroke-miterlimit:10;" cx="1423.14" cy="812.89" r="9.85"></circle>
		</g>
		<g>
			
				<circle style="fill:none;stroke:#000000;stroke-linecap:round;stroke-linejoin:round;stroke-miterlimit:10;" cx="1423.14" cy="812.89" r="5.61"></circle>
		</g>
		<g>
			
				<ellipse style="fill:none;stroke:#000000;stroke-linecap:round;stroke-linejoin:round;stroke-miterlimit:10;" cx="1417.24" cy="832.01" rx="2.48" ry="1.53"></ellipse>
			
				<line style="fill:none;stroke:#000000;stroke-linecap:round;stroke-linejoin:round;stroke-miterlimit:10;" x1="1419.72" y1="832.01" x2="1430.57" y2="832.01"></line>
		</g>
		<g>
			<path style="fill:none;stroke:#000000;stroke-linecap:round;stroke-linejoin:round;stroke-miterlimit:10;" d="M1414.76,796.81
				l2.48,0c1.37,0,2.48,0.68,2.48,1.53c0,0.84-1.11,1.53-2.48,1.53l-2.48,0"></path>
			
				<line style="fill:none;stroke:#000000;stroke-linecap:round;stroke-linejoin:round;stroke-miterlimit:10;" x1="1419.72" y1="798.34" x2="1430.58" y2="798.34"></line>
		</g>
		
			<line style="fill:none;stroke:#000000;stroke-linecap:round;stroke-linejoin:round;stroke-miterlimit:10;" x1="1414.76" y1="798.34" x2="1419.72" y2="798.34"></line>
		<g>
			<path style="fill:none;stroke:#000000;stroke-linecap:round;stroke-linejoin:round;stroke-miterlimit:10;" d="M1423.94,828.25
				l0-2.37l-9.18,0l0,0.59c0,0.99,0.8,1.78,1.78,1.79L1423.94,828.25z"></path>
			<path style="fill:none;stroke:#000000;stroke-linecap:round;stroke-linejoin:round;stroke-miterlimit:10;" d="M1430.57,827.35
				v-0.59c0-0.49-0.4-0.89-0.89-0.89l-5.74,0l0,2.37l5.74,0C1430.17,828.25,1430.57,827.85,1430.57,827.35z"></path>
		</g>
	</g>
	<g>
		<g>
			
				<circle style="fill:none;stroke:#000000;stroke-linecap:round;stroke-linejoin:round;stroke-miterlimit:10;" cx="1423.15" cy="737.27" r="9.85"></circle>
		</g>
		<g>
			
				<circle style="fill:none;stroke:#000000;stroke-linecap:round;stroke-linejoin:round;stroke-miterlimit:10;" cx="1423.15" cy="737.27" r="5.61"></circle>
		</g>
		<g>
			
				<ellipse style="fill:none;stroke:#000000;stroke-linecap:round;stroke-linejoin:round;stroke-miterlimit:10;" cx="1417.25" cy="756.38" rx="2.48" ry="1.53"></ellipse>
			
				<line style="fill:none;stroke:#000000;stroke-linecap:round;stroke-linejoin:round;stroke-miterlimit:10;" x1="1419.73" y1="756.38" x2="1430.58" y2="756.38"></line>
		</g>
		<g>
			<path style="fill:none;stroke:#000000;stroke-linecap:round;stroke-linejoin:round;stroke-miterlimit:10;" d="M1414.77,721.18
				l2.48,0c1.37,0,2.48,0.68,2.48,1.53c0,0.84-1.11,1.53-2.48,1.53l-2.48,0"></path>
			
				<line style="fill:none;stroke:#000000;stroke-linecap:round;stroke-linejoin:round;stroke-miterlimit:10;" x1="1419.73" y1="722.71" x2="1430.58" y2="722.71"></line>
		</g>
		
			<line style="fill:none;stroke:#000000;stroke-linecap:round;stroke-linejoin:round;stroke-miterlimit:10;" x1="1414.77" y1="722.71" x2="1419.73" y2="722.71"></line>
		<g>
			<path style="fill:none;stroke:#000000;stroke-linecap:round;stroke-linejoin:round;stroke-miterlimit:10;" d="M1423.95,752.62
				l0-2.37l-9.18,0l0,0.59c0,0.99,0.8,1.78,1.78,1.79L1423.95,752.62z"></path>
			<path style="fill:none;stroke:#000000;stroke-linecap:round;stroke-linejoin:round;stroke-miterlimit:10;" d="M1430.58,751.73
				v-0.59c0-0.49-0.4-0.89-0.89-0.89l-5.74,0l0,2.37l5.74,0C1430.18,752.62,1430.58,752.22,1430.58,751.73z"></path>
		</g>
	</g>
	<g>
		<g>
			
				<circle style="fill:none;stroke:#000000;stroke-linecap:round;stroke-linejoin:round;stroke-miterlimit:10;" cx="1399.29" cy="851.29" r="9.85"></circle>
		</g>
		<g>
			
				<circle style="fill:none;stroke:#000000;stroke-linecap:round;stroke-linejoin:round;stroke-miterlimit:10;" cx="1399.29" cy="851.29" r="5.61"></circle>
		</g>
		<g>
			
				<ellipse style="fill:none;stroke:#000000;stroke-linecap:round;stroke-linejoin:round;stroke-miterlimit:10;" cx="1380.18" cy="845.39" rx="1.53" ry="2.48"></ellipse>
			
				<line style="fill:none;stroke:#000000;stroke-linecap:round;stroke-linejoin:round;stroke-miterlimit:10;" x1="1380.18" y1="847.87" x2="1380.18" y2="858.72"></line>
		</g>
		<g>
			<path style="fill:none;stroke:#000000;stroke-linecap:round;stroke-linejoin:round;stroke-miterlimit:10;" d="M1415.38,842.91
				l0,2.48c0,1.37-0.68,2.48-1.53,2.48c-0.84,0-1.53-1.11-1.53-2.48l0-2.48"></path>
			
				<line style="fill:none;stroke:#000000;stroke-linecap:round;stroke-linejoin:round;stroke-miterlimit:10;" x1="1413.85" y1="847.87" x2="1413.85" y2="858.73"></line>
		</g>
		
			<line style="fill:none;stroke:#000000;stroke-linecap:round;stroke-linejoin:round;stroke-miterlimit:10;" x1="1413.85" y1="842.91" x2="1413.85" y2="847.87"></line>
		<g>
			<path style="fill:none;stroke:#000000;stroke-linecap:round;stroke-linejoin:round;stroke-miterlimit:10;" d="M1383.94,852.09
				l2.37,0l0-9.18l-0.59,0c-0.99,0-1.78,0.8-1.79,1.78L1383.94,852.09z"></path>
			<path style="fill:none;stroke:#000000;stroke-linecap:round;stroke-linejoin:round;stroke-miterlimit:10;" d="M1384.83,858.72
				l0.59,0c0.49,0,0.89-0.4,0.89-0.89l0-5.74l-2.37,0l0,5.74C1383.94,858.32,1384.34,858.72,1384.83,858.72z"></path>
		</g>
	</g>
	<g>
		<g>
			
				<circle style="fill:none;stroke:#000000;stroke-linecap:round;stroke-linejoin:round;stroke-miterlimit:10;" cx="1394.74" cy="703.76" r="9.85"></circle>
		</g>
		<g>
			
				<circle style="fill:none;stroke:#000000;stroke-linecap:round;stroke-linejoin:round;stroke-miterlimit:10;" cx="1394.74" cy="703.76" r="5.61"></circle>
		</g>
		<g>
			
				<ellipse style="fill:none;stroke:#000000;stroke-linecap:round;stroke-linejoin:round;stroke-miterlimit:10;" cx="1413.85" cy="709.67" rx="1.53" ry="2.48"></ellipse>
			
				<line style="fill:none;stroke:#000000;stroke-linecap:round;stroke-linejoin:round;stroke-miterlimit:10;" x1="1413.85" y1="707.19" x2="1413.85" y2="696.33"></line>
		</g>
		<g>
			<path style="fill:none;stroke:#000000;stroke-linecap:round;stroke-linejoin:round;stroke-miterlimit:10;" d="M1378.65,712.15
				l0-2.48c0-1.37,0.68-2.48,1.53-2.48c0.84,0,1.53,1.11,1.53,2.48l0,2.48"></path>
			
				<line style="fill:none;stroke:#000000;stroke-linecap:round;stroke-linejoin:round;stroke-miterlimit:10;" x1="1380.18" y1="707.18" x2="1380.18" y2="696.33"></line>
		</g>
		
			<line style="fill:none;stroke:#000000;stroke-linecap:round;stroke-linejoin:round;stroke-miterlimit:10;" x1="1380.18" y1="712.15" x2="1380.18" y2="707.18"></line>
		<g>
			<path style="fill:none;stroke:#000000;stroke-linecap:round;stroke-linejoin:round;stroke-miterlimit:10;" d="M1410.09,702.97
				l-2.37,0l0,9.18l0.59,0c0.99,0,1.78-0.8,1.79-1.78L1410.09,702.97z"></path>
			<path style="fill:none;stroke:#000000;stroke-linecap:round;stroke-linejoin:round;stroke-miterlimit:10;" d="M1409.2,696.33
				l-0.59,0c-0.49,0-0.89,0.4-0.89,0.89l0,5.74l2.37,0l0-5.74C1410.09,696.73,1409.69,696.33,1409.2,696.33z"></path>
		</g>
	</g>
	<g>
		<polygon style="fill:none;stroke:#000000;stroke-linecap:round;stroke-linejoin:round;stroke-miterlimit:10;" points="
			1117.59,775.28 1117.59,826.6 1186.35,826.6 1186.36,775.28 		"></polygon>
		<path style="fill:none;stroke:#000000;stroke-linecap:round;stroke-linejoin:round;stroke-miterlimit:10;" d="M1166.38,800.09
			l-16.6,7.29c-1.02,0.4-2.13,0.62-3.31,0.62c-4.71,0-8.53-3.54-8.53-7.91c0-4.37,3.82-7.91,8.53-7.91c1.17,0,2.29,0.22,3.31,0.62
			L1166.38,800.09z"></path>
	</g>
</g>
<g id="floor">
	
		<line style="fill:none;stroke:#000000;stroke-linecap:round;stroke-linejoin:round;stroke-miterlimit:10;stroke-dasharray:10,10;" x1="680.46" y1="1156.25" x2="520.09" y2="1156.25"></line>
	
		<line style="fill:none;stroke:#000000;stroke-linecap:round;stroke-linejoin:round;stroke-miterlimit:10;stroke-dasharray:10,10;" x1="520.09" y1="1156.25" x2="520.09" y2="1360.79"></line>
	
		<line style="fill:none;stroke:#000000;stroke-linecap:round;stroke-linejoin:round;stroke-miterlimit:10;stroke-dasharray:10,10;" x1="1355.36" y1="1012.65" x2="1161.19" y2="1012.65"></line>
	<g>
		<g id="LWPOLYLINE_113_">
			
				<rect x="1117.2" y="625.77" style="fill:none;stroke:#000000;stroke-linecap:round;stroke-linejoin:round;stroke-miterlimit:10;" width="69.02" height="68.29"></rect>
		</g>
		<g id="LWPOLYLINE_112_">
			<path style="fill:none;stroke:#000000;stroke-linecap:round;stroke-linejoin:round;stroke-miterlimit:10;" d="M1176.45,688.37
				l-43.69,0c-2.22,0-4.03-1.78-4.03-3.98c0,0,0-48.94,0-48.94c0-2.2,1.8-3.98,4.03-3.98c0,0,43.69,0,43.69,0
				c2.22,0,4.03,1.78,4.03,3.98c0,0,0,48.94,0,48.94C1180.48,686.59,1178.67,688.37,1176.45,688.37z"></path>
		</g>
		<g id="LWPOLYLINE_111_">
			<path style="fill:none;stroke:#000000;stroke-linecap:round;stroke-linejoin:round;stroke-miterlimit:10;" d="M1143.96,671.3
				c0,2.21-1.81,3.99-4.04,3.99c-2.23,0-4.04-1.79-4.04-3.99c0-2.21,1.81-3.99,4.04-3.99
				C1142.15,667.31,1143.96,669.09,1143.96,671.3z"></path>
		</g>
	</g>
	<g>
		<g>
			<g id="LWPOLYLINE_164_">
				<path style="fill:none;stroke:#000000;stroke-linecap:round;stroke-linejoin:round;stroke-miterlimit:10;" d="M1262.84,1240.77
					l-26.97-0.07c-3.8-0.01-7.16-2.42-8.31-5.96c-4.19-12.87-4.15-26.69,0.11-39.54c1.17-3.54,4.55-5.93,8.35-5.92l26.97,0.07"></path>
			</g>
			<g id="LWPOLYLINE_163_">
				<path style="fill:none;stroke:#000000;stroke-linecap:round;stroke-linejoin:round;stroke-miterlimit:10;" d="M1255.4,1201.32
					c0.01-2.84-2.34-5.15-5.24-5.16l-8.4-0.02c-1.92-0.01-3.62,1.22-4.19,3.02c-3.25,10.31-3.28,21.33-0.09,31.65
					c0.56,1.8,2.25,3.03,4.17,3.04l8.4,0.02c2.9,0.01,5.26-2.29,5.27-5.13"></path>
			</g>
			<g id="LWPOLYLINE_162_">
				<path style="fill:none;stroke:#000000;stroke-linecap:round;stroke-linejoin:round;stroke-miterlimit:10;" d="M1250.05,1237.31
					l-14.17-0.04c-2.28,0-4.3-1.45-4.99-3.58c-3.97-12.18-3.94-25.28,0.1-37.44c0.71-2.12,2.73-3.56,5.01-3.55l14.17,0.04
					c2.9,0.01,5.24,2.32,5.24,5.16l-0.09,34.28C1255.31,1235.02,1252.95,1237.31,1250.05,1237.31z"></path>
			</g>
			<g id="LWPOLYLINE_161_">
				<path style="fill:none;stroke:#000000;stroke-linecap:round;stroke-linejoin:round;stroke-miterlimit:10;" d="M1253.8,1215.03
					c0,1.27-1.06,2.3-2.36,2.3c-1.3,0-2.35-1.04-2.35-2.31c0-1.27,1.06-2.3,2.36-2.3C1252.75,1212.72,1253.8,1213.76,1253.8,1215.03
					z"></path>
			</g>
		</g>
		<g>
			<g id="LWPOLYLINE_160_">
				
					<rect x="1074.9" y="1284.02" style="fill:none;stroke:#000000;stroke-linecap:round;stroke-linejoin:round;stroke-miterlimit:10;" width="187.39" height="76.77"></rect>
			</g>
			<g id="LWPOLYLINE_159_">
				<path style="fill:none;stroke:#000000;stroke-linecap:round;stroke-linejoin:round;stroke-miterlimit:10;" d="M1098.83,1290.16
					l123.81,0c18.18,0,32.92,14.44,32.91,32.24c0,17.81-14.74,32.24-32.92,32.24l-123.81,0c-8.69,0-15.76-6.84-15.86-15.35l0-33.78
					c0-8.48,7.02-15.35,15.68-15.35"></path>
			</g>
			<g id="LWPOLYLINE_158_">
				<path style="fill:none;stroke:#000000;stroke-linecap:round;stroke-linejoin:round;stroke-miterlimit:10;" d="M1137.97,1298.93
					l84.67,0c13.24,0,23.96,10.51,23.96,23.47c0,12.96-10.73,23.47-23.97,23.47l-83.43,0c-12.75-0.01-23.26-9.79-23.93-22.26
					C1114.58,1310.66,1124.74,1299.61,1137.97,1298.93z"></path>
			</g>
			<g id="LWPOLYLINE_157_">
				<path style="fill:none;stroke:#000000;stroke-linecap:round;stroke-linejoin:round;stroke-miterlimit:10;" d="M1227.02,1322.4
					c0,2.37-1.97,4.3-4.39,4.3c-2.43,0-4.39-1.92-4.39-4.3c0-2.38,1.97-4.3,4.39-4.3
					C1225.06,1318.11,1227.02,1320.03,1227.02,1322.4z"></path>
			</g>
		</g>
		<g>
			
				<line style="fill:none;stroke:#000000;stroke-linecap:round;stroke-linejoin:round;stroke-miterlimit:10;" x1="979.88" y1="1229.16" x2="979.88" y2="1195.95"></line>
			
				<rect x="955.06" y="1178.03" style="fill:none;stroke:#000000;stroke-linecap:round;stroke-linejoin:round;stroke-miterlimit:10;" width="24.82" height="80.27"></rect>
			
				<line style="fill:none;stroke:#000000;stroke-linecap:round;stroke-linejoin:round;stroke-miterlimit:10;" x1="979.88" y1="1232.08" x2="979.88" y2="1198.87"></line>
			<g>
				<g id="LWPOLYLINE_173_">
					<path style="fill:none;stroke:#000000;stroke-linecap:round;stroke-linejoin:round;stroke-miterlimit:10;" d="M984.37,1199.13
						l28.45,0c9.9,0,17.92,8.19,17.92,18.3c0,10.11-8.03,18.3-17.93,18.3l-28.45,0c-2.47,0-4.48-2.05-4.48-4.57l0-27.46
						C979.89,1201.18,981.89,1199.13,984.37,1199.13z"></path>
				</g>
				<g id="LWPOLYLINE_74_">
					<path style="fill:none;stroke:#000000;stroke-linecap:round;stroke-linejoin:round;stroke-miterlimit:10;" d="M1012.81,1232.08
						l-15.91,0c-7.92,0-14.34-6.55-14.34-14.64c0-8.09,6.42-14.64,14.34-14.65l15.91,0c7.92,0,14.34,6.55,14.34,14.64
						C1027.15,1225.52,1020.73,1232.08,1012.81,1232.08z"></path>
				</g>
				<g id="LWPOLYLINE_73_">
					<path style="fill:none;stroke:#000000;stroke-linecap:round;stroke-linejoin:round;stroke-miterlimit:10;" d="M1007.05,1222.93
						l-11.63,0c-2.97,0-5.38-2.46-5.38-5.49s2.41-5.49,5.38-5.49l11.63,0c2.97,0,5.38,2.46,5.38,5.49
						C1012.42,1220.47,1010.02,1222.93,1007.05,1222.93z"></path>
				</g>
			</g>
		</g>
	</g>
	<g>
		<g>
			<g id="LWPOLYLINE_172_">
				
					<rect x="1001.59" y="1308.66" style="fill:none;stroke:#000000;stroke-linecap:round;stroke-linejoin:round;stroke-miterlimit:10;" width="68.54" height="52.74"></rect>
			</g>
			<g>
				<g id="LWPOLYLINE_171_">
					<polyline style="fill:none;stroke:#000000;stroke-linecap:round;stroke-linejoin:round;stroke-miterlimit:10;" points="
						1055.59,1350.05 1035.87,1326.57 1035.83,1342.48 1016.12,1318.99 					"></polyline>
				</g>
				<g id="LWPOLYLINE_170_">
					<path style="fill:none;stroke:#000000;stroke-linecap:round;stroke-linejoin:round;stroke-miterlimit:10;" d="M1035.81,1352.2
						c-9.56-0.03-17.29-7.96-17.27-17.72c0.03-9.76,7.8-17.66,17.36-17.63c9.56,0.03,17.29,7.96,17.27,17.73
						C1053.14,1344.33,1045.37,1352.23,1035.81,1352.2z"></path>
				</g>
			</g>
		</g>
	</g>
	<g>
		<path style="fill:none;stroke:#000000;stroke-linecap:round;stroke-linejoin:round;stroke-miterlimit:10;" d="M1084.4,1159.52
			c0-49.51,36.77-90.03,82.23-90.03l0,89.29"></path>
		
			<rect x="1166.64" y="1158.78" transform="matrix(-1 -3.086630e-06 3.086630e-06 -1 2338.1655 2326.0352)" style="fill:none;stroke:#000000;stroke-linecap:round;stroke-linejoin:round;stroke-miterlimit:10;" width="4.9" height="8.48"></rect>
		
			<rect x="1079.51" y="1158.78" transform="matrix(-1 -3.237839e-06 3.237839e-06 -1 2163.9077 2325.9744)" style="fill:none;stroke:#000000;stroke-linecap:round;stroke-linejoin:round;stroke-miterlimit:10;" width="4.9" height="8.42"></rect>
	</g>
	<g>
		<path style="fill:none;stroke:#000000;stroke-linecap:round;stroke-linejoin:round;stroke-miterlimit:10;" d="M856.32,1159.65
			c0-49.51-36.77-90.03-82.23-90.03l0,89.29"></path>
		
			<rect x="769.18" y="1158.91" style="fill:none;stroke:#000000;stroke-linecap:round;stroke-linejoin:round;stroke-miterlimit:10;" width="4.9" height="8.48"></rect>
		
			<rect x="856.31" y="1158.91" style="fill:none;stroke:#000000;stroke-linecap:round;stroke-linejoin:round;stroke-miterlimit:10;" width="4.9" height="8.42"></rect>
	</g>
	<g>
		<g>
			<g id="LWPOLYLINE_72_">
				<path style="fill:none;stroke:#000000;stroke-linecap:round;stroke-linejoin:round;stroke-miterlimit:10;" d="M702.16,1194.68
					l26.97,0.07c3.8,0.01,7.16,2.42,8.31,5.96c4.19,12.86,4.15,26.69-0.11,39.54c-1.17,3.54-4.55,5.93-8.35,5.92l-26.97-0.07"></path>
			</g>
			<g id="LWPOLYLINE_71_">
				<path style="fill:none;stroke:#000000;stroke-linecap:round;stroke-linejoin:round;stroke-miterlimit:10;" d="M709.6,1234.12
					c-0.01,2.84,2.34,5.15,5.24,5.16l8.4,0.02c1.92,0.01,3.62-1.22,4.19-3.02c3.25-10.31,3.28-21.33,0.09-31.65
					c-0.56-1.8-2.25-3.03-4.17-3.04l-8.4-0.02c-2.9-0.01-5.26,2.29-5.27,5.13"></path>
			</g>
			<g id="LWPOLYLINE_70_">
				<path style="fill:none;stroke:#000000;stroke-linecap:round;stroke-linejoin:round;stroke-miterlimit:10;" d="M714.95,1198.14
					l14.17,0.04c2.28,0,4.3,1.45,4.99,3.58c3.97,12.18,3.94,25.28-0.1,37.44c-0.71,2.12-2.73,3.56-5.01,3.55l-14.17-0.04
					c-2.9-0.01-5.24-2.32-5.24-5.16l0.09-34.28C709.69,1200.42,712.05,1198.13,714.95,1198.14z"></path>
			</g>
			<g id="LWPOLYLINE_69_">
				<path style="fill:none;stroke:#000000;stroke-linecap:round;stroke-linejoin:round;stroke-miterlimit:10;" d="M711.2,1220.41
					c0-1.27,1.06-2.3,2.36-2.3c1.3,0,2.35,1.04,2.35,2.31c0,1.27-1.06,2.3-2.36,2.3C712.25,1222.72,711.2,1221.68,711.2,1220.41z"></path>
			</g>
		</g>
		<g>
			<g id="LWPOLYLINE_68_">
				
					<rect x="702.58" y="1280.8" style="fill:none;stroke:#000000;stroke-linecap:round;stroke-linejoin:round;stroke-miterlimit:10;" width="195.5" height="79.85"></rect>
			</g>
			<g id="LWPOLYLINE_67_">
				<path style="fill:none;stroke:#000000;stroke-linecap:round;stroke-linejoin:round;stroke-miterlimit:10;" d="M873.12,1354.27
					l-129.17,0c-18.97,0-34.34-15.02-34.34-33.54c0-18.52,15.38-33.54,34.35-33.54l129.17,0c9.06,0,16.44,7.12,16.55,15.97
					l-0.01,35.14c0,8.82-7.33,15.97-16.36,15.97"></path>
			</g>
			<g id="LWPOLYLINE_66_">
				<path style="fill:none;stroke:#000000;stroke-linecap:round;stroke-linejoin:round;stroke-miterlimit:10;" d="M832.28,1345.14
					l-88.33,0c-13.81,0-25-10.93-25-24.41c0-13.48,11.2-24.41,25.01-24.41l87.04,0c13.3,0.01,24.27,10.18,24.96,23.15
					C856.68,1332.94,846.08,1344.44,832.28,1345.14z"></path>
			</g>
			<g id="LWPOLYLINE_65_">
				<path style="fill:none;stroke:#000000;stroke-linecap:round;stroke-linejoin:round;stroke-miterlimit:10;" d="M739.38,1320.72
					c0-2.47,2.05-4.47,4.58-4.47c2.53,0,4.58,2,4.58,4.47c0,2.47-2.05,4.47-4.58,4.47C741.43,1325.19,739.38,1323.19,739.38,1320.72
					z"></path>
			</g>
		</g>
		<g>
			
				<line style="fill:none;stroke:#000000;stroke-linecap:round;stroke-linejoin:round;stroke-miterlimit:10;" x1="919.22" y1="1207.16" x2="919.22" y2="1240.37"></line>
			
				<rect x="919.22" y="1178.03" style="fill:none;stroke:#000000;stroke-linecap:round;stroke-linejoin:round;stroke-miterlimit:10;" width="24.82" height="80.27"></rect>
			
				<line style="fill:none;stroke:#000000;stroke-linecap:round;stroke-linejoin:round;stroke-miterlimit:10;" x1="919.22" y1="1204.24" x2="919.22" y2="1237.45"></line>
			<g>
				<g id="LWPOLYLINE_64_">
					<path style="fill:none;stroke:#000000;stroke-linecap:round;stroke-linejoin:round;stroke-miterlimit:10;" d="M914.74,1237.19
						l-28.45,0c-9.9,0-17.92-8.19-17.92-18.3c0-10.11,8.03-18.3,17.93-18.3l28.45,0c2.47,0,4.48,2.05,4.48,4.57l0,27.46
						C919.22,1235.14,917.22,1237.19,914.74,1237.19z"></path>
				</g>
				<g id="LWPOLYLINE_18_">
					<path style="fill:none;stroke:#000000;stroke-linecap:round;stroke-linejoin:round;stroke-miterlimit:10;" d="M886.29,1204.24
						l15.91,0c7.92,0,14.34,6.55,14.34,14.64c0,8.09-6.42,14.64-14.34,14.65l-15.91,0c-7.92,0-14.34-6.55-14.34-14.64
						C871.95,1210.8,878.37,1204.24,886.29,1204.24z"></path>
				</g>
				<g id="LWPOLYLINE_17_">
					<path style="fill:none;stroke:#000000;stroke-linecap:round;stroke-linejoin:round;stroke-miterlimit:10;" d="M892.06,1213.39
						l11.63,0c2.97,0,5.38,2.46,5.38,5.49c0,3.03-2.41,5.49-5.38,5.49l-11.63,0c-2.97,0-5.38-2.46-5.38-5.49
						C886.69,1215.85,889.09,1213.39,892.06,1213.39z"></path>
				</g>
			</g>
		</g>
	</g>
	<g>
		<path style="fill:none;stroke:#000000;stroke-linecap:round;stroke-linejoin:round;stroke-miterlimit:10;" d="M947.4,1144.21
			c-49.51,0-90.03-41.32-90.03-92.4l89.29,0"></path>
		
			<rect x="948.14" y="1044.82" transform="matrix(-3.381086e-06 1 -1 -3.381086e-06 1999.9496 98.1642)" style="fill:none;stroke:#000000;stroke-linecap:round;stroke-linejoin:round;stroke-miterlimit:10;" width="5.5" height="8.48"></rect>
		
			<rect x="948.11" y="1142.75" transform="matrix(-3.515660e-06 1 -1 -3.515660e-06 2097.8193 196.095)" style="fill:none;stroke:#000000;stroke-linecap:round;stroke-linejoin:round;stroke-miterlimit:10;" width="5.5" height="8.42"></rect>
	</g>
	<g>
		<g id="LWPOLYLINE_139_">
			
				<rect x="1117.43" y="826.6" style="fill:none;stroke:#000000;stroke-linecap:round;stroke-linejoin:round;stroke-miterlimit:10;" width="68.94" height="68.76"></rect>
		</g>
		<g id="LWPOLYLINE_138_">
			
				<line style="fill:none;stroke:#000000;stroke-linecap:round;stroke-linejoin:round;stroke-miterlimit:10;" x1="1157.64" y1="843.82" x2="1180.62" y2="843.82"></line>
		</g>
		<g id="LWPOLYLINE_137_">
			
				<line style="fill:none;stroke:#000000;stroke-linecap:round;stroke-linejoin:round;stroke-miterlimit:10;" x1="1169.13" y1="855.3" x2="1169.13" y2="832.34"></line>
		</g>
		<g id="CIRCLE_65_">
			<path style="fill:none;stroke:#000000;stroke-linecap:round;stroke-linejoin:round;stroke-miterlimit:10;" d="M1169.13,834.64
				c5.08,0,9.19,4.11,9.19,9.18c0,5.07-4.12,9.18-9.19,9.18c-5.08,0-9.19-4.11-9.19-9.18
				C1159.94,838.75,1164.05,834.64,1169.13,834.64L1169.13,834.64z"></path>
		</g>
		<g id="LWPOLYLINE_136_">
			
				<line style="fill:none;stroke:#000000;stroke-linecap:round;stroke-linejoin:round;stroke-miterlimit:10;" x1="1123.17" y1="843.82" x2="1146.15" y2="843.82"></line>
		</g>
		<g id="LWPOLYLINE_135_">
			
				<line style="fill:none;stroke:#000000;stroke-linecap:round;stroke-linejoin:round;stroke-miterlimit:10;" x1="1134.66" y1="855.3" x2="1134.66" y2="832.34"></line>
		</g>
		<g id="CIRCLE_64_">
			<path style="fill:none;stroke:#000000;stroke-linecap:round;stroke-linejoin:round;stroke-miterlimit:10;" d="M1134.66,834.64
				c5.08,0,9.2,4.11,9.2,9.19s-4.12,9.19-9.2,9.19s-9.2-4.11-9.2-9.19S1129.58,834.64,1134.66,834.64L1134.66,834.64z"></path>
		</g>
		<g id="LWPOLYLINE_134_">
			
				<line style="fill:none;stroke:#000000;stroke-linecap:round;stroke-linejoin:round;stroke-miterlimit:10;" x1="1123.17" y1="878.26" x2="1146.15" y2="878.26"></line>
		</g>
		<g id="LWPOLYLINE_133_">
			
				<line style="fill:none;stroke:#000000;stroke-linecap:round;stroke-linejoin:round;stroke-miterlimit:10;" x1="1134.66" y1="889.73" x2="1134.66" y2="866.78"></line>
		</g>
		<g id="CIRCLE_63_">
			<path style="fill:none;stroke:#000000;stroke-linecap:round;stroke-linejoin:round;stroke-miterlimit:10;" d="M1134.66,869.07
				c5.08,0,9.2,4.11,9.2,9.19s-4.12,9.19-9.2,9.19s-9.2-4.11-9.2-9.19S1129.58,869.07,1134.66,869.07L1134.66,869.07z"></path>
		</g>
		<g id="LWPOLYLINE_132_">
			
				<line style="fill:none;stroke:#000000;stroke-linecap:round;stroke-linejoin:round;stroke-miterlimit:10;" x1="1157.64" y1="878.26" x2="1180.62" y2="878.26"></line>
		</g>
		<g id="LWPOLYLINE_131_">
			
				<line style="fill:none;stroke:#000000;stroke-linecap:round;stroke-linejoin:round;stroke-miterlimit:10;" x1="1169.13" y1="889.73" x2="1169.13" y2="866.78"></line>
		</g>
		<g id="CIRCLE_1_">
			<path style="fill:none;stroke:#000000;stroke-linecap:round;stroke-linejoin:round;stroke-miterlimit:10;" d="M1169.13,869.07
				c5.08,0,9.19,4.11,9.19,9.18c0,5.07-4.12,9.18-9.19,9.18c-5.08,0-9.19-4.11-9.19-9.18
				C1159.94,873.18,1164.05,869.07,1169.13,869.07L1169.13,869.07z"></path>
		</g>
	</g>
	<g>
		<path style="fill:none;stroke:#000000;stroke-linecap:round;stroke-linejoin:round;stroke-miterlimit:10;" d="M1359.72,1121.01
			c51.36,0,93.41-41.55,93.41-92.91l-92.64,0"></path>
		
			<rect x="1352.92" y="1020.69" transform="matrix(2.366115e-06 1 -1 2.366115e-06 2381.012 -330.0353)" style="fill:none;stroke:#000000;stroke-linecap:round;stroke-linejoin:round;stroke-miterlimit:10;" width="5.2" height="9.59"></rect>
		
			<rect x="1352.88" y="1118.85" transform="matrix(2.366113e-06 1 -1 2.366113e-06 2479.1709 -231.8772)" style="fill:none;stroke:#000000;stroke-linecap:round;stroke-linejoin:round;stroke-miterlimit:10;" width="5.29" height="9.59"></rect>
	</g>
	<g>
		<path style="fill:none;stroke:#000000;stroke-linecap:round;stroke-linejoin:round;stroke-miterlimit:10;" d="M919.78,835.36
			c0-62.7,50.74-114.03,113.46-114.03l0,113.1"></path>
		
			<rect x="1033.24" y="834.42" transform="matrix(-1 -7.554519e-06 7.554519e-06 -1 2073.2292 1679.576)" style="fill:none;stroke:#000000;stroke-linecap:round;stroke-linejoin:round;stroke-miterlimit:10;" width="6.76" height="10.74"></rect>
		
			<rect x="913.02" y="834.42" transform="matrix(-1 -7.693329e-06 7.693329e-06 -1 1832.8007 1679.4974)" style="fill:none;stroke:#000000;stroke-linecap:round;stroke-linejoin:round;stroke-miterlimit:10;" width="6.76" height="10.66"></rect>
	</g>
	<g>
		
			<rect x="1777.07" y="789.18" transform="matrix(-6.012907e-12 -1 1 -6.012907e-12 1072.9055 2689.0745)" style="fill:none;stroke:#000000;stroke-linecap:round;stroke-linejoin:round;stroke-miterlimit:10;" width="207.84" height="37.81"></rect>
		
			<line style="fill:none;stroke:#000000;stroke-linecap:round;stroke-linejoin:round;stroke-miterlimit:10;" x1="1886.27" y1="912" x2="1886.27" y2="704.16"></line>
		
			<line style="fill:none;stroke:#000000;stroke-linecap:round;stroke-linejoin:round;stroke-miterlimit:10;" x1="1878.16" y1="704.16" x2="1878.16" y2="912"></line>
		
			<line style="fill:none;stroke:#000000;stroke-linecap:round;stroke-linejoin:round;stroke-miterlimit:10;" x1="1886.27" y1="712.82" x2="1878.16" y2="712.82"></line>
		
			<line style="fill:none;stroke:#000000;stroke-linecap:round;stroke-linejoin:round;stroke-miterlimit:10;" x1="1886.27" y1="903.4" x2="1878.16" y2="903.4"></line>
		
			<line style="fill:none;stroke:#000000;stroke-linecap:round;stroke-linejoin:round;stroke-miterlimit:10;" x1="1886.27" y1="799.89" x2="1878.16" y2="799.89"></line>
		
			<line style="fill:none;stroke:#000000;stroke-linecap:round;stroke-linejoin:round;stroke-miterlimit:10;" x1="1886.27" y1="790.91" x2="1878.16" y2="790.91"></line>
	</g>
	<g>
		
			<rect x="1777.07" y="1134.5" transform="matrix(-6.012907e-12 -1 1 -6.012907e-12 727.5794 3034.4004)" style="fill:none;stroke:#000000;stroke-linecap:round;stroke-linejoin:round;stroke-miterlimit:10;" width="207.84" height="37.81"></rect>
		
			<line style="fill:none;stroke:#000000;stroke-linecap:round;stroke-linejoin:round;stroke-miterlimit:10;" x1="1886.27" y1="1257.33" x2="1886.27" y2="1049.49"></line>
		
			<line style="fill:none;stroke:#000000;stroke-linecap:round;stroke-linejoin:round;stroke-miterlimit:10;" x1="1878.16" y1="1049.49" x2="1878.16" y2="1257.33"></line>
		
			<line style="fill:none;stroke:#000000;stroke-linecap:round;stroke-linejoin:round;stroke-miterlimit:10;" x1="1886.27" y1="1058.15" x2="1878.16" y2="1058.15"></line>
		
			<line style="fill:none;stroke:#000000;stroke-linecap:round;stroke-linejoin:round;stroke-miterlimit:10;" x1="1886.27" y1="1248.73" x2="1878.16" y2="1248.73"></line>
		
			<line style="fill:none;stroke:#000000;stroke-linecap:round;stroke-linejoin:round;stroke-miterlimit:10;" x1="1886.27" y1="1145.21" x2="1878.16" y2="1145.21"></line>
		
			<line style="fill:none;stroke:#000000;stroke-linecap:round;stroke-linejoin:round;stroke-miterlimit:10;" x1="1886.27" y1="1136.24" x2="1878.16" y2="1136.24"></line>
	</g>
	<g>
		
			<rect x="14.35" y="1168.69" transform="matrix(5.999461e-12 1 -1 5.999461e-12 1305.1307 1068.5857)" style="fill:none;stroke:#000000;stroke-linecap:round;stroke-linejoin:round;stroke-miterlimit:10;" width="207.84" height="36.34"></rect>
		
			<line style="fill:none;stroke:#000000;stroke-linecap:round;stroke-linejoin:round;stroke-miterlimit:10;" x1="113.73" y1="1082.94" x2="113.73" y2="1290.78"></line>
		
			<line style="fill:none;stroke:#000000;stroke-linecap:round;stroke-linejoin:round;stroke-miterlimit:10;" x1="121.84" y1="1290.78" x2="121.84" y2="1082.94"></line>
		
			<line style="fill:none;stroke:#000000;stroke-linecap:round;stroke-linejoin:round;stroke-miterlimit:10;" x1="113.73" y1="1282.12" x2="121.84" y2="1282.12"></line>
		
			<line style="fill:none;stroke:#000000;stroke-linecap:round;stroke-linejoin:round;stroke-miterlimit:10;" x1="113.73" y1="1091.54" x2="121.84" y2="1091.54"></line>
		
			<line style="fill:none;stroke:#000000;stroke-linecap:round;stroke-linejoin:round;stroke-miterlimit:10;" x1="113.73" y1="1195.05" x2="121.84" y2="1195.05"></line>
		
			<line style="fill:none;stroke:#000000;stroke-linecap:round;stroke-linejoin:round;stroke-miterlimit:10;" x1="113.73" y1="1204.03" x2="121.84" y2="1204.03"></line>
	</g>
	<g>
		
			<rect x="1334.64" y="1142.42" transform="matrix(-1.836970e-16 1 -1 -1.836970e-16 2502.3801 -208.3439)" width="41.45" height="9.19"></rect>
		
			<rect x="1258.21" y="1069.64" transform="matrix(-1.836970e-16 1 -1 -1.836970e-16 2425.957 -101.8891)" width="11.42" height="184.78"></rect>
		
			<rect x="1171.25" y="1251.33" transform="matrix(-1.836970e-16 1 -1 -1.836970e-16 2540.0586 -10.9646)" width="208.52" height="26.43"></rect>
		
			<rect x="1810.36" y="1307.93" transform="matrix(-1.836970e-16 1 -1 -1.836970e-16 3207.8887 -554.1487)" width="141.32" height="37.87"></rect>
		
			<rect x="1764.57" y="1293.17" transform="matrix(-1.836970e-16 1 -1 -1.836970e-16 3162.1006 -432.5316)" width="65.49" height="143.23"></rect>
		
			<rect x="205.96" y="1349.95" transform="matrix(-1.836970e-16 1 -1 -1.836970e-16 1590.8525 1131.8229)" width="47.11" height="22.77"></rect>
		
			<rect x="150.4" y="1287.64" transform="matrix(-1.836970e-16 1 -1 -1.836970e-16 1511.7391 1187.3833)" width="23.55" height="123.85"></rect>
		
			<rect x="65.01" y="1325.95" transform="matrix(-1.836970e-16 1 -1 -1.836970e-16 1462.5409 1225.6956)" width="106.82" height="36.34"></rect>
		
			<rect x="90.89" y="1038.03" transform="matrix(-1.836970e-16 1 -1 -1.836970e-16 1174.6233 938.0782)" width="54.77" height="36.64"></rect>
		
			<rect x="1812.08" y="961.53" transform="matrix(-1.836970e-16 1 -1 -1.836970e-16 2861.4868 -900.5504)" width="137.87" height="37.87"></rect>
		
			<rect x="1608.1" y="747.18" transform="matrix(-1.836970e-16 1 -1 -1.836970e-16 2617.1995 -608.1866)" width="9.19" height="514.66"></rect>
		
			<rect x="1343.87" y="1006.8" transform="matrix(-1.836970e-16 1 -1 -1.836970e-16 2366.762 -343.962)" width="22.98" height="9.19"></rect>
		
			<rect x="1829.83" y="634.72" transform="matrix(-1.836970e-16 1 -1 -1.836970e-16 2534.6201 -1227.3597)" width="102.32" height="37.81"></rect>
		
			<rect x="1480.24" y="216.79" transform="matrix(-1.836970e-16 1 -1 -1.836970e-16 2105.687 -877.7663)" width="22.98" height="794.34"></rect>
		
			<rect x="985.61" y="713.55" transform="matrix(-1.836970e-16 1 -1 -1.836970e-16 1831.084 -381.0054)" width="240.86" height="22.98"></rect>
		
			<rect x="1023.4" y="926.6" transform="matrix(-1.836970e-16 1 -1 -1.836970e-16 2044.1829 -181.7403)" width="179.12" height="9.24"></rect>
		
			<rect x="1142.81" y="977.12" transform="matrix(-1.836970e-16 1 -1 -1.836970e-16 2163.5911 -131.2211)" width="9.19" height="78.13"></rect>
		
			<rect x="964.73" y="1052.85" transform="matrix(-1.836970e-16 1 -1 -1.836970e-16 2132.47 191.5275)" width="11.49" height="218.3"></rect>
		
			<rect x="838.55" y="1268.49" transform="matrix(-1.836970e-16 1 -1 -1.836970e-16 2224.0237 324.4425)" width="222.49" height="11.49"></rect>
		
			<rect x="920.2" y="1260.29" transform="matrix(-1.836970e-16 1 -1 -1.836970e-16 2210.0767 358.1828)" width="11.49" height="47.69"></rect>
		
			<rect x="847.18" y="1329.29" transform="matrix(-1.836970e-16 1 -1 -1.836970e-16 2238.8672 431.2002)" width="113.3" height="11.49"></rect>
		
			<rect x="969.05" y="1293.85" transform="matrix(-1.836970e-16 1 -1 -1.836970e-16 2295.3462 346.1001)" width="11.14" height="53.74"></rect>
		
			<rect x="964.07" y="1343.92" transform="matrix(-1.836970e-16 1 -1 -1.836970e-16 2345.4092 353.3368)" width="63.94" height="10.91"></rect>
		
			<rect x="720.58" y="1118.91" transform="matrix(-1.836970e-16 1 -1 -1.836970e-16 1888.3229 435.6747)" width="11.49" height="86.17"></rect>
		<rect x="644.75" y="1189" transform="matrix(4.688976e-14 1 -1 4.688976e-14 1877.9825 511.5039)" width="76.98" height="11.49"></rect>
		
			<rect x="621.2" y="1279.19" transform="matrix(-1.836970e-16 1 -1 -1.836970e-16 1981.9606 601.6947)" width="137.87" height="25.28"></rect>
		
			<rect x="667.82" y="1364.83" transform="matrix(-1.836970e-16 1 -1 -1.836970e-16 2053.8101 687.3313)" width="30.85" height="11.49"></rect>
		
			<rect x="1059.7" y="799.9" transform="matrix(-1.836970e-16 1 -1 -1.836970e-16 1905.1704 -239.5083)" width="25.28" height="65.86"></rect>
		
			<rect x="854.16" y="786.6" transform="matrix(-1.836970e-16 1 -1 -1.836970e-16 1699.6272 -33.9652)" width="25.28" height="92.46"></rect>
		
			<rect x="715.52" y="918.89" transform="matrix(-1.836970e-16 1 -1 -1.836970e-16 1756.0814 104.6686)" width="220.36" height="22.98"></rect>
		
			<rect x="945.63" y="1150.42" transform="matrix(-1.836970e-16 1 -1 -1.836970e-16 2105.9507 204.0716)" width="10.61" height="9.19"></rect>
		
			<rect x="943.47" y="1034.24" transform="matrix(-1.836970e-16 1 -1 -1.836970e-16 1989.7732 87.8943)" width="14.94" height="9.19"></rect>
		
			<rect x="883.17" y="973.9" transform="matrix(-1.836970e-16 1 -1 -1.836970e-16 1923.7256 148.1973)" width="9.19" height="124.12"></rect>
		
			<rect x="456.09" y="663.7" transform="matrix(-1.836970e-16 1 -1 -1.836970e-16 1500.8948 563.4452)" width="25.28" height="736.94"></rect>
		
			<rect x="673.14" y="1194.14" transform="matrix(-1.836970e-16 1 -1 -1.836970e-16 1896.9095 493.3493)" width="57.27" height="1.98"></rect>
		<rect x="229.67" y="1360.79" width="1564.53" height="36.74"></rect>
		<rect x="101.04" y="1360.79" width="175.44" height="36.74"></rect>
	</g>
</g>
</svg>
